<svg width="105" height="95" viewBox="0 0 105 95" fill="none" xmlns="http://www.w3.org/2000/svg">
<path d="M95.3228 4.95764C96.4194 5.0785 97.4947 8.56197 98.3566 10.6609C100.905 16.869 101.424 24.7246 102.062 32.6317C102.981 43.985 103.593 55.6226 102.906 65.1666C102.416 71.9718 97.0646 74.3 91.7843 75.7325C91.6598 74.5222 91.866 72.5565 91.7843 70.8699C98.7228 67.9374 98.2251 56.3584 97.8501 46.3843C97.4218 34.983 96.67 23.077 93.4691 12.8417C93.007 11.3612 92.9484 9.53947 91.6172 8.81612C92.6693 7.34809 93.7926 5.94936 95.3228 4.95764Z" fill="#A0935C"/>
<path d="M94.3134 3.44875C89.8222 7.92395 86.9217 13.9827 82.5176 18.5432C80.1485 18.3637 76.9654 17.7328 74.431 18.2073C74.2586 17.5071 75.4458 16.8903 76.1158 16.0266C78.732 12.6622 80.4488 7.78887 84.0354 5.29357C87.2167 4.4387 91.2032 2.84981 94.3134 3.44875Z" fill="#C6BA87"/>
<path d="M87.067 68.186C87.2731 68.7085 87.4597 69.2488 87.4046 70.0308C86.8572 70.1286 86.6209 69.9171 86.2245 69.8638C86.221 69.0213 86.125 68.0865 87.067 68.186Z" fill="#181818"/>
<path d="M86.2246 69.8638C86.621 69.9172 86.8573 70.1287 87.4047 70.0309C87.4598 69.2489 87.2732 68.7086 87.0671 68.1861C86.1251 68.0866 86.2211 69.0214 86.2246 69.8638ZM69.2072 82.7776C69.6035 82.774 69.703 83.0655 70.2184 82.9446C70.4388 82.4399 70.7623 82.0329 70.7232 81.2669C69.9198 80.4333 69.2001 81.777 69.2072 82.7776ZM66.1733 80.5968C66.4737 80.7461 66.6017 81.0643 67.1846 80.9327C67.6147 80.5773 67.437 79.6193 68.027 79.4221C68.0964 79.0186 67.7196 79.0577 67.8582 78.585C66.5732 78.5352 66.5519 79.7437 66.1733 80.5968ZM65.1638 42.1898C66.7865 42.4653 66.2178 40.5565 67.3535 40.345C67.3712 41.1661 67.7178 41.6602 68.3647 41.8557C68.6935 41.3687 68.6829 40.7093 68.4109 40.1868C68.3985 40.1637 68.3861 40.1424 68.3736 40.1193C68.315 40.018 68.2457 39.9238 68.1675 39.8367C68.1497 39.8171 68.1319 39.7993 68.1141 39.7798C67.8422 39.5079 67.469 39.3319 67.0158 39.339C66.1751 39.6767 66.2195 40.8942 64.995 40.8479C65.0146 41.3331 64.9026 41.9463 65.1638 42.1898ZM56.9066 53.9305C57.5429 54.2415 58.3497 53.9856 58.4226 53.2605C58.2271 53.2303 58.2396 52.9939 58.2538 52.7557C57.3438 52.69 56.7218 52.9086 56.9066 53.9305ZM55.2217 53.2605C55.1826 52.3007 56.3112 52.0804 55.8953 51.2468C54.6832 51.2699 54.2531 52.0715 54.0434 53.0916C54.2602 53.3227 54.7739 53.2569 55.2217 53.2605ZM37.193 58.962C37.8364 59.5787 37.895 61.5782 39.3844 60.8068C39.3328 59.6249 38.3322 58.5017 37.193 58.962ZM33.8233 59.2961C33.8677 60.4833 34.5573 61.0272 35.8458 60.9739C35.8565 60.8886 35.8529 60.7855 35.86 60.6966C35.8671 60.6202 35.8849 60.5527 35.9276 60.5118C35.9489 60.4905 35.9773 60.4762 36.0129 60.4709H36.0147C35.9187 60.3145 35.8138 60.167 35.7036 60.0266C35.6894 60.0088 35.6752 59.991 35.661 59.9733C35.6325 59.9395 35.6041 59.904 35.5757 59.8702C35.2682 59.5165 34.9092 59.2126 34.4969 58.962C34.248 59.0491 34.0721 59.2108 33.8233 59.2961ZM25.5678 79.9268C25.9624 79.9801 26.1987 80.1916 26.7461 80.0939C27.066 79.191 26.4902 78.0998 25.9037 77.579C25.3527 78.0447 25.6869 78.8018 25.5678 79.9268ZM79.8211 78.9191C80.452 81.5903 83.2441 84.7272 85.8869 83.2805C85.7359 82.1449 83.1322 81.9991 82.3484 80.9327C80.8181 76.4967 80.1552 70.9942 79.9899 65.6712C79.8922 62.529 79.654 59.3512 79.8211 56.1112C80.1908 48.9399 79.3892 40.5405 81.5077 34.1405C81.737 33.4438 82.3039 32.4236 82.0125 31.6239C81.8276 31.9864 81.1843 31.3537 81.0012 31.9598C79.5421 34.4888 79.199 38.7916 78.9787 42.8616C78.3975 53.671 78.6783 67.4343 79.8211 78.9191ZM84.035 72.2099C84.4331 72.727 84.785 73.134 85.551 72.8817C85.5581 71.9237 85.1636 71.3674 84.2021 71.3728C84.2714 71.7762 83.8946 71.7371 84.035 72.2099ZM83.5285 20.3879C85.8603 21.4827 87.73 25.8637 88.0783 29.4449C88.8515 37.3982 87.7904 47.0613 88.9208 54.6005C89.4824 58.3577 90.7407 61.26 89.7632 64.4964C90.1631 67.5409 90.5079 71.4936 90.4368 75.0624C90.3319 80.2894 90.3248 85.9074 86.8982 87.9761C83.1801 90.2208 75.3957 90.5692 69.8807 90.9939C58.3249 91.8879 47.2062 92.0959 33.6544 92.1687C22.7224 92.2274 12.7465 91.0526 10.7399 82.2728C10.2903 80.3071 10.3383 78.0091 10.0663 75.7324C9.30745 69.4035 8.32816 61.891 7.53905 55.7753C8.17532 55.4376 8.79203 56.1681 9.22391 56.4454C10.9656 57.5686 12.75 58.667 14.7833 59.8009C17.1844 61.1392 19.4806 63.2381 22.1981 64.1605C25.5607 65.3051 29.2272 64.8732 33.4856 65.5024C33.69 66.6541 34.6142 68.7317 34.5751 70.3739C34.5751 70.4059 34.5733 70.4379 34.5715 70.4717C34.5715 70.5037 34.5679 70.5374 34.5662 70.5694C34.5537 70.7312 34.5324 70.8876 34.4969 71.0368C34.4684 71.1613 34.4275 71.2768 34.3778 71.3834C34.3689 71.4012 34.36 71.419 34.3511 71.4367C34.3333 71.4723 34.3138 71.506 34.2942 71.5398C34.2729 71.5736 34.2516 71.6056 34.2303 71.6376C34.1965 71.6856 34.1627 71.7318 34.1254 71.7762C34.1005 71.8064 34.0756 71.8366 34.049 71.8651C33.4198 72.5529 32.3694 72.9119 31.9696 73.7205C28.1964 81.3397 40.09 87.0573 45.955 84.2865C50.8994 81.9511 52.435 74.3995 47.471 70.3668C47.5119 68.6891 47.2595 67.5054 47.3022 65.5024C50.974 64.9923 54.6103 64.8306 57.749 63.4905C59.5139 62.7352 60.806 61.0023 61.9612 59.2961C64.325 55.8091 66.9482 54.0443 70.3855 51.2468C71.93 49.9903 74.0165 48.7106 74.7665 47.3901C78.1238 41.4753 75.9448 31.9207 79.3163 26.0894C80.125 24.6925 81.6446 24.2108 82.0125 22.3998C79.654 22.0194 77.6759 25.3518 76.9579 27.6001C75.2357 32.9781 76.4194 41.6051 73.5882 46.3842C72.1432 48.819 68.1639 50.8167 65.3309 53.2605C64.1206 54.302 62.7236 55.6954 61.6235 57.1172C60.3901 58.7114 59.537 60.7091 57.749 61.6457C52.4669 64.4147 42.6386 64.1854 35.677 63.9935C31.0294 63.8637 25.4931 63.7447 22.0292 62.3157C20.124 61.5302 18.7004 60.2239 17.1435 59.2961C15.5386 58.3435 13.9657 57.51 12.256 56.4454C9.82464 54.9329 4.56033 52.3043 3.49396 49.5691C2.41159 46.7912 2.88968 43.2437 2.65153 39.6749C2.6462 39.5896 2.64086 39.5043 2.63375 39.419C2.62487 39.291 2.6142 39.1613 2.60354 39.0298C2.59999 38.9871 2.59643 38.9445 2.59288 38.9C2.58044 38.7703 2.56799 38.6388 2.55555 38.5055C2.54667 38.4184 2.53778 38.3295 2.52889 38.2407C2.51645 38.1092 2.50224 37.9759 2.48802 37.8408C2.47735 37.7519 2.46847 37.6631 2.4578 37.5724C2.44892 37.4835 2.43825 37.3929 2.42759 37.304C2.4187 37.2134 2.40804 37.1228 2.39738 37.0321C2.38671 36.9433 2.37605 36.8526 2.36538 36.762C2.36005 36.7158 2.35472 36.6696 2.34939 36.6251C2.33339 36.4883 2.31918 36.3514 2.30318 36.2163C2.28718 36.0795 2.27119 35.9426 2.25519 35.8058C2.2232 35.5321 2.19121 35.2566 2.161 34.9829C2.14145 34.8016 2.1219 34.6186 2.10235 34.4373V34.4355C1.92995 32.7684 1.82154 31.128 1.96016 29.66C1.96372 29.6209 1.96727 29.5818 1.97083 29.5427C1.99038 29.3632 2.01348 29.1872 2.03837 29.0148C2.05969 28.8815 2.0828 28.75 2.10768 28.6202C2.10946 28.6096 2.11123 28.5989 2.11479 28.5865C2.12545 28.5314 2.13612 28.4763 2.14856 28.4212C2.15211 28.407 2.15567 28.3928 2.15744 28.3803C2.17877 28.2879 2.2001 28.1973 2.2232 28.1084C2.23209 28.0764 2.24097 28.0426 2.24986 28.0106C2.26763 27.9467 2.28541 27.8827 2.30496 27.8205C2.32451 27.7565 2.34406 27.6943 2.36538 27.6321C2.38671 27.5699 2.40804 27.5094 2.43114 27.449C2.45247 27.3886 2.47735 27.3282 2.50046 27.2695C2.52534 27.2091 2.55022 27.1504 2.5751 27.0918C2.60176 27.0349 2.62842 26.978 2.65686 26.9194C2.69774 26.8341 2.74217 26.7505 2.7866 26.6688C2.83281 26.587 2.8808 26.5071 2.93056 26.4271C2.98032 26.3489 3.03187 26.2707 3.08696 26.1943C3.10473 26.1694 3.12251 26.1445 3.14206 26.1196C3.17938 26.0698 3.2167 26.0219 3.2558 25.9739C3.47263 25.7091 3.71967 25.4674 4.00048 25.2523C4.4377 24.9182 5.34766 24.8631 6.35894 24.4134C7.15694 24.058 7.74877 23.4253 8.38148 23.2386C11.2003 22.4086 14.3034 22.6042 17.3105 22.5686C20.1471 22.5348 23.1702 22.9134 26.2414 22.7357C26.3676 22.7286 26.4938 22.7197 26.6199 22.7108C26.7035 22.7037 26.7852 22.6966 26.8688 22.6895C26.9523 22.6824 27.0341 22.6735 27.1176 22.6646C27.1585 22.661 27.1993 22.6575 27.2402 22.6521C27.3237 22.6433 27.4055 22.6344 27.4873 22.6237C27.569 22.6148 27.6508 22.6042 27.7307 22.5935C27.8125 22.5828 27.8943 22.5704 27.9742 22.5597C28.0898 22.5437 28.2053 22.526 28.3208 22.5064C28.3315 22.5064 28.3421 22.5028 28.3528 22.5011C28.5412 22.4726 28.726 22.4389 28.9109 22.4051C28.9251 22.4033 28.9393 22.3998 28.9553 22.3962C29.0655 22.3767 29.1757 22.3553 29.2859 22.334C29.3321 22.3233 29.3783 22.3145 29.4227 22.3056C29.6413 22.2611 29.8582 22.2131 30.0732 22.1634C30.1585 22.1438 30.2438 22.1243 30.3291 22.1047C30.4429 22.0781 30.5584 22.0496 30.6721 22.0212C30.7841 21.9928 30.8979 21.9643 31.0098 21.9359C31.1982 21.8879 31.3848 21.8381 31.5714 21.7866C31.6816 21.7564 31.7936 21.7262 31.9038 21.696C31.966 21.6782 32.03 21.6604 32.0922 21.6426C32.1135 21.6373 32.1348 21.6302 32.1544 21.6249C32.2539 21.5964 32.3535 21.568 32.453 21.5396C32.5614 21.5093 32.6698 21.4774 32.78 21.4454C32.8404 21.4276 32.9026 21.4098 32.9648 21.392C32.9862 21.3849 33.0057 21.3796 33.027 21.3725C33.0786 21.3583 33.1301 21.3423 33.1799 21.3281C33.5656 21.2143 33.9477 21.1006 34.3245 20.9904C34.3689 20.9762 34.4115 20.9637 34.456 20.9513C34.7563 20.8624 35.0549 20.7771 35.3499 20.6954C35.3997 20.6811 35.4495 20.6669 35.4992 20.6527C35.7978 20.5709 36.0946 20.4927 36.3914 20.4199C36.4448 20.4057 36.4999 20.3914 36.5532 20.379C36.9051 20.2937 37.2552 20.2155 37.6035 20.1497C37.6462 20.1408 37.6871 20.1337 37.7297 20.1248C37.9519 20.084 38.174 20.0466 38.3962 20.0147C38.4442 20.0093 38.4922 20.0022 38.5402 19.9951C39.1622 19.9116 39.7789 19.8707 40.3939 19.8849C44.0728 19.9702 47.1618 21.4756 50.5048 21.5627C52.7602 21.6213 55.0191 20.8073 57.2443 20.5549C63.239 19.876 69.1681 20.2777 74.5977 19.7178C76.9792 19.4708 81.6286 19.4957 83.5285 20.3879ZM22.8717 76.7401C23.1027 76.2318 22.7917 76.1412 22.8717 75.3983C22.47 75.4178 22.1376 75.5049 21.9261 75.7146C21.9155 75.7253 21.9066 75.736 21.8959 75.7484C21.8462 75.8035 21.8053 75.8675 21.7715 75.9386C21.7591 75.967 21.7466 75.9972 21.736 76.0292C21.7146 76.0914 21.7004 76.1607 21.6915 76.2354C21.6987 76.2585 21.7058 76.2798 21.7146 76.3012C21.7182 76.3118 21.7218 76.3225 21.7271 76.3314C21.736 76.3527 21.7449 76.3722 21.7555 76.39C21.7609 76.3989 21.7662 76.4096 21.7715 76.4185C21.7946 76.454 21.8195 76.486 21.8479 76.5162C22.0488 76.7313 22.3953 76.7988 22.8717 76.7401Z" fill="#C6BA87"/>
<path d="M84.2039 71.3728C85.1636 71.3675 85.5582 71.9238 85.5511 72.8818C84.7868 73.1341 84.4331 72.7271 84.035 72.2099C83.8946 71.7372 84.2714 71.7763 84.2039 71.3728Z" fill="#181818"/>
<path d="M82.3503 80.9328C83.1323 81.9992 85.7361 82.1449 85.8889 83.2806C83.2443 84.7273 80.4522 81.5904 79.8231 78.9191C78.6785 67.4343 78.3977 53.6711 78.9806 42.8617C79.1992 38.7899 79.544 34.4889 81.0014 31.9598C81.1862 31.3538 81.8296 31.9865 82.0127 31.6239C82.3041 32.4237 81.7372 33.4438 81.5079 34.1405C79.3912 40.5405 80.1909 48.94 79.8231 56.1095C79.656 59.3513 79.8941 62.529 79.9919 65.6695C80.1554 70.9942 80.8201 76.4967 82.3503 80.9328Z" fill="#181818"/>
<mask id="mask0_70_104673" style="mask-type:luminance" maskUnits="userSpaceOnUse" x="0" y="0" width="105" height="95">
<path d="M0 0.681396H105V94.1806H0V0.681396Z" fill="white"/>
</mask>
<g mask="url(#mask0_70_104673)">
<path d="M52.1896 20.0516C51.8608 15.4004 51.3578 9.47498 49.3246 5.96485C47.5722 6.51048 45.5052 6.74685 44.7748 8.31264C45.6847 11.8779 46.2872 15.7506 46.7973 19.7175C48.5266 19.8596 50.7216 20.1778 52.1896 20.0516ZM3.49386 49.5687C4.56023 52.3039 9.82454 54.9325 12.2559 56.445C13.9656 57.5096 15.5385 58.3413 17.1434 59.2957C18.7021 60.2235 20.1239 61.5298 22.0291 62.3153C25.493 63.7443 31.0293 63.8633 35.6769 63.9931C42.6385 64.185 52.4669 64.4125 57.7489 61.6453C59.5369 60.7087 60.39 58.711 61.6252 57.1168C62.7235 55.695 64.1223 54.3016 65.3326 53.2583C68.1656 50.8163 72.1449 48.8187 73.5881 46.3838C76.4193 41.6047 75.2356 32.9778 76.9578 27.5979C77.6758 25.3497 79.6539 22.019 82.0124 22.3994C81.6445 24.2086 80.1249 24.6921 79.3162 26.089C75.9447 31.9203 78.1237 41.4749 74.7682 47.3897C74.0182 48.7102 71.9316 49.9881 70.3872 51.2464C66.9481 54.0439 64.3249 55.8069 61.9611 59.2957C60.8059 61.0019 59.5138 62.7348 57.7489 63.4901C54.6103 64.8302 50.9739 64.9919 47.3021 65.502C47.2594 67.505 47.5118 68.6887 47.4709 70.3664C52.4366 74.3991 50.8993 81.9507 45.9549 84.2861C40.0899 87.0569 28.1963 81.3394 31.9695 73.7201C32.3711 72.9115 33.4197 72.5525 34.0489 71.8629C34.0755 71.8345 34.1004 71.806 34.1253 71.7758C34.1626 71.7314 34.1982 71.6852 34.2302 71.6372C34.2533 71.6052 34.2728 71.5732 34.2941 71.5394C34.3137 71.5057 34.3333 71.4719 34.351 71.4363C34.3599 71.4186 34.3688 71.4008 34.3777 71.383C34.4274 71.2764 34.4683 71.1609 34.4968 71.0365C34.5323 70.8872 34.5536 70.7308 34.5661 70.569C34.5696 70.537 34.5714 70.5033 34.5714 70.4713C34.5732 70.4375 34.575 70.4055 34.575 70.3735C34.6141 68.7313 33.6899 66.6537 33.4873 65.502C29.2271 64.8728 25.5606 65.3047 22.198 64.1602C19.4805 63.2377 17.1843 61.1388 14.7832 59.8005C12.7499 58.6666 10.9656 57.5682 9.22382 56.445C8.79194 56.1677 8.17522 55.4373 7.53895 55.7749C8.32807 61.8906 9.30735 69.4031 10.0662 75.732C10.3382 78.0087 10.2902 80.3068 10.7398 82.2724C12.7464 91.0522 22.7223 92.227 33.6543 92.1683C47.2061 92.0955 58.3265 91.8875 69.8807 90.9935C75.3956 90.5688 83.1801 90.2204 86.8981 87.9757C90.3247 85.9052 90.3318 80.289 90.4367 75.062C90.5096 71.4932 90.163 67.5405 89.7631 64.4961C90.7406 61.2596 89.4841 58.3573 88.9207 54.6002C87.7903 47.0609 88.8514 37.3978 88.0782 29.4427C87.7299 25.8633 85.8602 21.4805 83.5284 20.3875C81.6285 19.4953 76.9809 19.4704 74.5993 19.7175C69.168 20.2755 63.239 19.8756 57.2442 20.5546C55.019 20.8069 52.7601 21.6191 50.5047 21.5623C47.1617 21.4734 44.0728 19.9698 40.3938 19.8845C39.7788 19.8703 39.1621 19.9112 38.5401 19.9947C38.4921 20.0018 38.4441 20.0072 38.3961 20.0143C38.174 20.0463 37.9518 20.0836 37.7296 20.1245C37.687 20.1333 37.6461 20.1404 37.6034 20.1493C37.2569 20.2151 36.9068 20.2933 36.5531 20.3786C36.4998 20.391 36.4447 20.4053 36.3913 20.4195C36.0945 20.4923 35.7995 20.5705 35.4991 20.6523C35.4494 20.6665 35.3996 20.679 35.3499 20.6932C35.0548 20.7767 34.7562 20.862 34.4559 20.9509C34.4132 20.9633 34.3688 20.9758 34.3244 20.9882C33.9476 21.1002 33.5655 21.2139 33.1798 21.3277C33.13 21.3419 33.0785 21.3561 33.0269 21.3721C33.0056 21.3774 32.9861 21.3845 32.9647 21.3917C32.9025 21.4094 32.8421 21.4272 32.7799 21.445C32.6715 21.477 32.5613 21.509 32.4529 21.5392C32.3534 21.5676 32.2556 21.596 32.1543 21.6245C32.1348 21.6298 32.1134 21.6351 32.0921 21.6423C32.0299 21.66 31.9677 21.6778 31.9037 21.6956C31.7935 21.7258 31.6815 21.756 31.5714 21.7862C31.3847 21.8378 31.1981 21.8857 31.0115 21.9337C30.8978 21.9639 30.784 21.9924 30.6721 22.0208C30.5583 22.0492 30.4428 22.0759 30.329 22.1043C30.2437 22.1239 30.1584 22.1434 30.0731 22.163C29.8581 22.2128 29.6412 22.259 29.4226 22.3052C29.3782 22.3141 29.332 22.3229 29.2858 22.3336C29.1756 22.3549 29.0654 22.3763 28.9552 22.3958C28.941 22.3994 28.925 22.4011 28.9108 22.4047C28.7259 22.4385 28.5411 22.4705 28.3527 22.5007C28.342 22.5025 28.3314 22.5042 28.3207 22.506C28.2052 22.5238 28.0897 22.5416 27.9741 22.5593C27.8942 22.57 27.8124 22.5824 27.7306 22.5931C27.6507 22.6038 27.5689 22.6144 27.4872 22.6233C27.4054 22.6322 27.3237 22.6429 27.2401 22.6517C27.1992 22.6553 27.1584 22.6606 27.1175 22.6642C27.0357 22.6731 26.9522 22.6802 26.8687 22.6891C26.7851 22.6962 26.7034 22.7033 26.6198 22.7104C26.4937 22.7193 26.3675 22.7282 26.2413 22.7353C23.1701 22.913 20.147 22.5344 17.3104 22.5682C14.3051 22.6038 11.2002 22.4083 8.38138 23.2382C7.74867 23.4249 7.15684 24.0576 6.35884 24.4113C5.34757 24.8627 4.4376 24.916 4.00039 25.2519C3.71957 25.467 3.47253 25.7087 3.2557 25.9735C3.2166 26.0215 3.17928 26.0695 3.14196 26.1192C3.12241 26.1441 3.10464 26.169 3.08686 26.1939C3.03177 26.2703 2.98023 26.3485 2.93046 26.4267C2.8807 26.5049 2.83271 26.5849 2.7865 26.6684C2.74207 26.7502 2.69764 26.8337 2.65676 26.919C2.62832 26.9759 2.60166 27.0345 2.57501 27.0932C2.55012 27.15 2.52524 27.2087 2.50036 27.2673C2.47726 27.3278 2.45237 27.3882 2.43105 27.4486C2.40794 27.5091 2.38661 27.5695 2.36529 27.6317C2.34396 27.6939 2.32441 27.7561 2.30486 27.8201C2.28531 27.8823 2.26754 27.9463 2.24976 28.0102C2.24088 28.0422 2.23199 28.076 2.2231 28.108C2.2 28.1969 2.17867 28.2875 2.15734 28.3799C2.15557 28.3924 2.15201 28.4066 2.14846 28.4208C2.13602 28.4759 2.12535 28.531 2.11469 28.5861C2.11114 28.5968 2.10936 28.6092 2.10758 28.6199C2.0827 28.7496 2.05959 28.8811 2.03827 29.0144C2.01161 29.1868 1.99028 29.3645 1.97073 29.5423C1.96718 29.5814 1.96362 29.6205 1.96007 29.6596C1.82144 31.1258 1.92985 32.768 2.10225 34.4351V34.4369C2.1218 34.6182 2.14135 34.8012 2.1609 34.9825C2.19111 35.258 2.2231 35.5317 2.2551 35.8054C2.26931 35.9423 2.28531 36.0791 2.30308 36.216C2.3173 36.351 2.3333 36.4879 2.34929 36.6247C2.35462 36.6692 2.35995 36.7154 2.36529 36.7598C2.37595 36.8504 2.38661 36.9411 2.39728 37.0317C2.40794 37.1224 2.41683 37.213 2.42749 37.3019C2.43815 37.3925 2.44882 37.4832 2.45771 37.572C2.46837 37.6627 2.47726 37.7515 2.48792 37.8404C2.50214 37.9755 2.51636 38.1088 2.5288 38.2403C2.53768 38.3291 2.54657 38.418 2.55546 38.5051C2.5679 38.6384 2.58034 38.7699 2.59278 38.8997C2.59633 38.9441 2.59989 38.9867 2.60344 39.0294C2.61411 39.1609 2.62477 39.2889 2.63366 39.4186C2.64077 39.5039 2.6461 39.5892 2.65143 39.6745C2.88958 43.2415 2.4115 46.7908 3.49386 49.5687ZM82.5171 18.5427C86.9212 13.9804 89.8218 7.92342 94.3129 3.44822C91.2045 2.84928 87.2145 4.43817 84.0349 5.29304C80.4484 7.78834 78.7315 12.6616 76.1154 16.026C75.4453 16.8898 74.2581 17.5065 74.4305 18.2068C76.9649 17.7322 80.148 18.3632 82.5171 18.5427ZM93.4705 12.8394C96.6696 23.0765 97.4214 34.9825 97.8515 46.3838C98.2247 56.3579 98.7224 67.9369 91.7856 70.8694C91.8656 72.556 91.6595 74.5217 91.7856 75.732C97.0642 74.2995 102.416 71.9713 102.906 65.1661C103.592 55.6221 102.981 43.9827 102.064 32.6312C101.424 24.7241 100.905 16.8685 98.3563 10.6587C97.4943 8.56146 96.419 5.07799 95.3224 4.95713C93.7922 5.94886 92.669 7.34758 91.6168 8.81561C92.948 9.53896 93.0066 11.3589 93.4705 12.8394ZM104.927 55.439C104.927 61.0712 105.467 67.5743 103.58 70.8694C101.49 74.5146 96.826 76.3452 92.1216 77.4098C91.839 80.7529 91.9438 84.9277 90.4367 87.3057C88.0569 91.0629 81.3566 92.067 75.2729 92.6713C68.8107 93.3147 62.6098 93.3733 56.0641 93.5102C49.4117 93.6488 41.1509 94.1802 33.1496 94.182C21.7305 94.182 12.6806 92.7068 9.55972 84.9579C8.05614 81.2221 8.15212 75.3144 7.53895 70.0305C7.26881 67.7147 6.83159 65.1039 6.52768 62.6512C6.19711 59.9853 6.39794 56.9675 5.68525 55.1049C4.95301 53.1925 2.57501 52.6576 1.81077 50.7435C0.955902 48.6107 0.826161 44.315 0.63066 40.6805C0.308972 34.7106 -1.11819 28.1258 1.81077 24.7472C2.42571 24.0362 3.64671 23.4817 4.84282 22.9041C6.05315 22.3176 7.14084 21.6316 8.0437 21.3934C12.6469 20.1867 17.442 21.1997 23.8828 20.8905C25.0523 14.917 30.6952 11.0514 33.992 6.13192C34.9731 4.66744 35.524 3.19762 36.6881 2.44228C38.7374 1.10932 43.7528 0.0660539 47.3021 1.10043C48.9958 1.59274 50.9117 3.58507 51.6831 5.29304C52.5362 7.17696 52.5504 9.78423 53.032 12.1693C53.5083 14.5367 54.1624 16.7992 54.2121 19.0456C57.0718 18.7915 59.7217 18.6013 62.6365 18.3756C65.3202 18.1677 68.9298 18.7151 71.5655 17.8709C73.2664 17.327 75.4382 13.9662 76.6201 12.0023C78.0153 9.68292 79.151 7.08098 80.8323 5.4601C83.0165 3.35758 85.8033 2.65733 89.5943 1.77047C91.3218 1.36702 93.8171 0.705875 95.829 1.77047C97.2828 2.54003 98.4042 6.14613 99.3675 8.4797C100.448 11.1012 101.538 13.5538 102.064 15.859C103.798 23.4782 103.5 32.617 104.253 42.1894C104.573 46.2683 104.927 50.6759 104.927 55.439ZM91.6168 69.1916C97.0215 66.2058 96.7727 58.1654 96.5026 51.4135C95.932 37.1082 95.4913 19.4438 91.1103 9.65271C91.1014 9.5514 91.0854 9.45543 90.9414 9.48565C89.1766 13.2055 86.0788 15.603 84.0349 19.0456C91.3769 24.0274 89.0397 38.4056 89.7631 49.9046C90.0173 53.9337 91.1138 57.9912 91.448 61.3094C91.5599 62.4149 91.0392 63.4883 91.1103 64.6631C91.1849 65.8752 91.9989 67.7094 91.6168 69.1916ZM35.6769 19.2127C39.6189 13.9129 41.4299 6.49093 48.651 4.45416C46.2872 2.14903 40.017 2.22901 37.5306 4.12003C36.7219 4.73319 36.1834 6.25633 35.3392 7.47199C32.2378 11.9436 27.1335 15.1907 26.0724 21.2264C29.3302 20.9811 32.2023 19.9485 35.6769 19.2127ZM43.7635 83.2801C47.8904 82.6617 50.9384 77.6515 48.4822 73.0483C47.9419 72.0353 47.167 71.9482 45.9549 71.0365C46.0047 68.9215 46.1948 67.6223 45.6172 65.6691C42.0804 65.6015 37.7705 65.8272 35.0033 65.502C35.0193 65.5749 35.0371 65.6477 35.053 65.7206C35.1561 66.1916 35.2361 66.6501 35.3019 67.0998C35.3072 67.1335 35.3125 67.1691 35.3179 67.2029C35.3374 67.3415 35.357 67.4783 35.3747 67.6134C35.572 69.1152 35.6609 70.5353 36.0146 72.0424C35.9648 72.0797 35.9168 72.1153 35.867 72.1508C35.8439 72.1686 35.8191 72.1864 35.7942 72.2059C35.7462 72.2414 35.6964 72.277 35.6467 72.3125C35.5969 72.3499 35.5471 72.3854 35.4974 72.421C35.4227 72.4743 35.3481 72.5294 35.2734 72.5845C35.2486 72.6022 35.2237 72.62 35.1988 72.6378C35.1241 72.6929 35.0495 72.748 34.9748 72.8031C34.9002 72.8599 34.8273 72.915 34.7527 72.9719C34.7047 73.0092 34.6567 73.0483 34.607 73.0857C34.5838 73.1052 34.559 73.1248 34.5359 73.1443C34.4879 73.1834 34.4399 73.2225 34.3919 73.2616C34.3208 73.3203 34.2515 73.3807 34.184 73.4429C34.1377 73.4838 34.0915 73.5246 34.0471 73.5673C33.8018 73.7966 33.5744 74.0418 33.3753 74.312C33.3557 74.3351 33.338 74.36 33.3202 74.3849C33.2509 74.4844 33.1833 74.5875 33.1229 74.6923C33.1069 74.719 33.0909 74.7456 33.0767 74.7723C33.0394 74.8398 33.0038 74.9091 32.9701 74.9785C32.9559 75.0069 32.9434 75.0353 32.931 75.0638C32.9185 75.0922 32.9061 75.1206 32.8937 75.1509C32.8812 75.1793 32.8688 75.2077 32.8581 75.2379C32.8474 75.2682 32.835 75.2966 32.8243 75.3286C32.8137 75.357 32.803 75.3872 32.7923 75.4192C32.6448 75.8689 32.572 76.3772 32.6022 76.9601C32.6093 77.1059 32.6235 77.2552 32.6431 77.4098C32.6573 77.5111 32.675 77.6106 32.6982 77.7101C32.7035 77.735 32.7088 77.7599 32.7159 77.7848C32.7461 77.9092 32.7835 78.0318 32.8279 78.1545C32.8457 78.2042 32.8634 78.2522 32.8848 78.3002C32.9043 78.35 32.9239 78.398 32.947 78.4459C33.0003 78.5668 33.0607 78.6859 33.1283 78.805C33.1549 78.8512 33.1816 78.8991 33.21 78.9454C33.2384 78.9933 33.2687 79.0396 33.2989 79.0858C33.3291 79.132 33.3593 79.1782 33.3913 79.2244C33.4073 79.2475 33.4233 79.2706 33.4411 79.2937C33.473 79.3399 33.5068 79.3843 33.5424 79.4306C33.5601 79.4519 33.5761 79.475 33.5939 79.4981C33.7005 79.6332 33.8161 79.7665 33.9369 79.8962C36.0839 82.2173 40.4293 83.7796 43.7635 83.2801ZM45.2813 19.2127C45.0627 15.6279 44.7055 12.1836 43.5964 9.48565C41.6912 12.5675 38.7605 15.516 37.6976 18.8786C40.2587 18.189 42.9033 18.795 45.2813 19.2127Z" fill="#181818"/>
</g>
<path d="M70.2184 82.9447C69.7029 83.0656 69.6052 82.7741 69.2071 82.7776C69.2 81.777 69.9216 80.4334 70.7231 81.267C70.7622 82.033 70.4387 82.44 70.2184 82.9447Z" fill="#181818"/>
<path d="M68.4113 40.1868C68.6833 40.7094 68.6957 41.3687 68.3651 41.8539C67.7182 41.6602 67.3716 41.1661 67.3538 40.345C66.2182 40.5565 66.7869 42.4635 65.1642 42.1898C64.903 41.9463 65.0149 41.3314 64.9954 40.848C66.2199 40.8942 66.1755 39.6768 67.0179 39.3391C67.4694 39.332 67.8426 39.5079 68.1145 39.7798C68.1323 39.7976 68.1501 39.8172 68.1678 39.8367C68.246 39.9238 68.3154 40.018 68.374 40.1193C68.3864 40.1424 68.3989 40.1637 68.4113 40.1868Z" fill="#181818"/>
<path d="M67.86 78.585C67.7196 79.0577 68.0964 79.0186 68.027 79.4221C67.4388 79.6193 67.6147 80.5773 67.1846 80.9328C66.6017 81.0643 66.4737 80.7461 66.1733 80.5968C66.5519 79.7438 66.5732 78.5334 67.86 78.585Z" fill="#181818"/>
<path d="M58.2555 52.7557C58.2413 52.9939 58.2271 53.2302 58.4243 53.2605C58.3497 53.9856 57.5428 54.2415 56.9065 53.9305C56.7217 52.9085 57.3455 52.6899 58.2555 52.7557Z" fill="#181818"/>
<path d="M55.8972 51.2468C56.313 52.0804 55.1845 52.3008 55.2218 53.2587C54.7739 53.2569 54.2603 53.3227 54.0435 53.0916C54.2532 52.0715 54.6833 51.2699 55.8972 51.2468Z" fill="#181818"/>
<path d="M52.1897 20.0519C50.7217 20.1781 48.5267 19.86 46.7974 19.7178C46.2874 15.7509 45.6849 11.88 44.7749 8.313C45.5054 6.74721 47.5723 6.51261 49.3247 5.96521C51.358 9.47712 51.8591 15.4008 52.1897 20.0519Z" fill="#A0935C"/>
<path d="M48.6513 4.45459C41.4302 6.49314 39.6192 13.9133 35.6772 19.2149C32.2026 19.9489 29.3305 20.9833 26.0728 21.2268C27.1338 15.1929 32.2381 11.9458 35.3395 7.4742C36.1837 6.25676 36.7222 4.73363 37.5309 4.12047C40.0173 2.22944 46.2876 2.14946 48.6513 4.45459Z" fill="#C6BA87"/>
<path d="M45.6175 65.6695C46.1951 67.6227 46.0049 68.9219 45.9552 71.0369C47.1673 71.9486 47.9422 72.0357 48.4824 73.0488C50.9386 77.6519 47.8906 82.6603 43.7638 83.2806C40.4296 83.78 36.0841 82.2178 33.9372 79.8966C33.8163 79.7669 33.7008 79.6336 33.5942 79.4985C33.5764 79.4754 33.5604 79.4523 33.5426 79.431C33.5071 79.3848 33.4733 79.3404 33.4413 79.2941C33.4235 79.271 33.4075 79.2479 33.3916 79.2248C33.3596 79.1786 33.3293 79.1324 33.2991 79.0862C33.2689 79.04 33.2387 78.9938 33.2103 78.9458C33.1818 78.8996 33.1552 78.8516 33.1285 78.8054C33.061 78.6863 33.0005 78.5672 32.9472 78.4464C32.9241 78.3984 32.9046 78.3504 32.885 78.3006C32.8655 78.2527 32.8459 78.2047 32.8282 78.1549C32.7837 78.0323 32.7464 77.9096 32.7162 77.7852C32.7091 77.7604 32.7037 77.7355 32.6984 77.7106C32.6753 77.6111 32.6575 77.5115 32.6451 77.4102C32.6238 77.2556 32.6095 77.1063 32.6024 76.9606C32.5722 76.3776 32.6451 75.8693 32.7926 75.4197C32.8033 75.3877 32.8139 75.3575 32.8246 75.329C32.8353 75.297 32.8477 75.2686 32.8584 75.2384C32.869 75.2082 32.8815 75.1797 32.8939 75.1513C32.9064 75.1211 32.9188 75.0927 32.9312 75.0642C32.9437 75.0358 32.9579 75.0073 32.9703 74.9789C33.0041 74.9096 33.0396 74.8403 33.077 74.7727C33.0912 74.7461 33.1072 74.7194 33.1232 74.6928C33.1836 74.5861 33.2511 74.4848 33.3205 74.3853C33.34 74.3604 33.3578 74.3355 33.3756 74.3124C33.5746 74.0423 33.8021 73.797 34.0474 73.5677C34.0918 73.5251 34.138 73.4842 34.1842 73.4433C34.2518 73.3811 34.3211 73.3207 34.3939 73.2621C34.4401 73.223 34.4881 73.1839 34.5361 73.1448C34.5592 73.1252 34.5841 73.1057 34.609 73.0861C34.657 73.0488 34.705 73.0097 34.7529 72.9724C34.8276 72.9155 34.9005 72.8604 34.9751 72.8035C35.0498 72.7484 35.1244 72.6933 35.199 72.6382C35.2239 72.6205 35.2488 72.6027 35.2737 72.5849C35.3483 72.5298 35.423 72.4765 35.4976 72.4214C35.5474 72.3859 35.5972 72.3503 35.6469 72.313C35.6967 72.2774 35.7464 72.2419 35.7944 72.2063C35.8193 72.1868 35.8442 72.169 35.8691 72.1513C35.9171 72.1157 35.9651 72.0802 36.0148 72.0428C35.6611 70.5357 35.5723 69.1157 35.375 67.6139C35.3572 67.4788 35.3377 67.3402 35.3181 67.2033C35.3128 67.1695 35.3075 67.134 35.3021 67.1002C35.2364 66.6506 35.1564 66.192 35.0533 65.721C35.0373 65.6482 35.0213 65.5753 35.0035 65.5024C37.7708 65.8277 42.0807 65.602 45.6175 65.6695ZM44.4391 81.0999C47.1015 79.4417 45.5499 74.659 43.7638 73.3847C43.0155 72.8497 42.2353 72.7804 41.0694 72.8817C40.1754 72.9599 39.3543 73.1341 38.6541 73.4344C38.5865 73.4629 38.5226 73.4913 38.4568 73.5233C38.3608 73.5695 38.2666 73.6175 38.176 73.669C37.8561 73.8486 37.5699 74.0618 37.3211 74.3106C37.1576 74.4759 37.0101 74.659 36.8821 74.8581C36.8661 74.8812 36.8519 74.9043 36.8377 74.9274C36.7897 75.0056 36.7453 75.0855 36.7044 75.1691C36.6813 75.2153 36.6582 75.2633 36.6369 75.3113C36.6226 75.3432 36.6084 75.3752 36.596 75.409C36.5818 75.441 36.5693 75.4748 36.5569 75.5085C36.5444 75.5423 36.532 75.5761 36.5213 75.6098C36.4876 75.7076 36.4574 75.8107 36.4307 75.9155C36.4289 75.9244 36.4271 75.9333 36.4236 75.9422C36.3934 76.0648 36.3685 76.1946 36.3489 76.3261C36.3294 76.4629 36.3152 76.6033 36.3063 76.7491C36.3063 76.7526 36.3063 76.7544 36.3045 76.7562C36.285 77.1134 36.2992 77.4973 36.3507 77.9132C36.3827 78.1638 36.4396 78.4073 36.5178 78.6437C36.5302 78.6757 36.5409 78.7094 36.5533 78.7432C36.596 78.8587 36.644 78.9742 36.6991 79.0862C36.7133 79.1182 36.7293 79.1484 36.7453 79.1804C36.7702 79.2284 36.795 79.2746 36.8217 79.3208C36.8466 79.3688 36.875 79.4132 36.9017 79.4594C36.9212 79.4896 36.939 79.5199 36.9603 79.5501C36.9781 79.5803 36.9977 79.6087 37.019 79.6389C37.0687 79.7136 37.1221 79.7847 37.1772 79.8558C37.2429 79.9411 37.3122 80.0246 37.3851 80.1046C37.41 80.133 37.4331 80.1597 37.458 80.1863C37.4829 80.2112 37.5095 80.2379 37.5344 80.2645C37.5468 80.277 37.5593 80.2912 37.5735 80.3036C39.1997 81.9245 42.1091 82.5501 44.4391 81.0999Z" fill="#FFE000"/>
<path d="M41.0692 72.8817C42.2351 72.7804 43.0153 72.8497 43.7636 73.3847C45.5479 74.659 47.1013 79.4416 44.4389 81.0998C42.1089 82.5501 39.1995 81.9245 37.5733 80.3036C37.5591 80.2894 37.5466 80.2769 37.5342 80.2645C37.5093 80.2378 37.4826 80.2112 37.4578 80.1863C37.4329 80.1596 37.4098 80.133 37.3849 80.1046C37.312 80.0246 37.2427 79.941 37.1769 79.8557C37.1219 79.7846 37.0685 79.7136 37.0188 79.6389C36.9974 79.6087 36.9779 79.5803 36.9583 79.55C36.9406 79.5198 36.921 79.4896 36.9015 79.4594C36.8748 79.4132 36.8464 79.3688 36.8215 79.3208C36.7948 79.2746 36.77 79.2284 36.7451 79.1804C36.7291 79.1484 36.7131 79.1182 36.6989 79.0862C36.6438 78.9742 36.5958 78.8587 36.5531 78.7432C36.5407 78.7094 36.53 78.6756 36.5176 78.6436C36.4394 78.4072 36.3825 78.1638 36.3505 77.9132C36.299 77.4973 36.2848 77.1134 36.3043 76.7562C36.3061 76.7544 36.3061 76.7526 36.3061 76.749C36.315 76.6033 36.3292 76.4629 36.3487 76.3261C36.3683 76.1945 36.3932 76.0648 36.4234 75.9422C36.4252 75.9333 36.4287 75.9244 36.4305 75.9155C36.4571 75.8106 36.4874 75.7076 36.5211 75.6098C36.5318 75.576 36.5442 75.5423 36.5567 75.5085C36.5691 75.4747 36.5816 75.441 36.5958 75.409C36.6082 75.3752 36.6224 75.3432 36.6367 75.3112C36.658 75.2632 36.6811 75.2153 36.7042 75.169C36.7451 75.0873 36.7895 75.0055 36.8375 74.9273C36.8517 74.9042 36.8659 74.8811 36.8819 74.858C37.0099 74.659 37.1574 74.4759 37.3209 74.3106C37.5697 74.0618 37.8559 73.8485 38.1758 73.669C38.2664 73.6175 38.3606 73.5695 38.4566 73.5233C38.5224 73.4913 38.5863 73.4629 38.6539 73.4344C39.3541 73.1358 40.1752 72.9599 41.0692 72.8817ZM37.6977 77.5773C37.9643 80.2538 42.292 81.0909 44.2701 79.0862C46.25 72.8053 37.2374 72.9243 37.6977 77.5773Z" fill="#181818"/>
<path d="M37.6977 77.5772C37.2374 72.9243 46.25 72.8052 44.2701 79.0861C42.292 81.0909 37.9643 80.2538 37.6977 77.5772Z" fill="#EFC02B"/>
<path d="M37.1929 58.9621C38.3339 58.5017 39.3327 59.625 39.3843 60.8069C37.8949 61.5782 37.8362 59.5788 37.1929 58.9621Z" fill="#181818"/>
<path d="M37.5342 80.2645C37.547 80.2774 37.5599 80.2902 37.5746 80.3049C37.5599 80.2921 37.547 80.2774 37.5342 80.2645Z" fill="#181818"/>
<path d="M37.458 80.1863C37.4835 80.2117 37.5107 80.239 37.5362 80.2663C37.5089 80.239 37.4835 80.2117 37.458 80.1863Z" fill="#181818"/>
<path d="M36.9019 79.4594C36.9219 79.4903 36.9418 79.5212 36.96 79.5521C36.94 79.5212 36.9219 79.4903 36.9019 79.4594Z" fill="#181818"/>
<path d="M36.8218 79.3207C36.8467 79.3687 36.8751 79.4131 36.9018 79.4593C36.8733 79.4131 36.8467 79.3687 36.8218 79.3207Z" fill="#181818"/>
<path d="M36.0146 60.4709H36.0129C35.9169 60.3145 35.8138 60.167 35.7036 60.0266C35.8138 60.167 35.9187 60.3145 36.0146 60.4709Z" fill="#181818"/>
<path d="M35.9274 60.5117C35.8847 60.5526 35.867 60.6201 35.8599 60.6966C35.867 60.6201 35.883 60.5526 35.9274 60.5117Z" fill="#181818"/>
<path d="M34.4968 58.962C34.9092 59.2126 35.2682 59.5148 35.5756 59.8702C35.6041 59.904 35.6325 59.9395 35.661 59.9733C35.6752 59.9911 35.6894 60.0089 35.7036 60.0266C35.8138 60.167 35.9169 60.3145 36.0129 60.4709C35.9773 60.4763 35.9489 60.4905 35.9275 60.5118C35.8831 60.5527 35.8671 60.6202 35.86 60.6967C35.8529 60.7855 35.8565 60.8868 35.8458 60.9739C34.5573 61.0272 33.8677 60.4834 33.8232 59.2962C34.0721 59.2109 34.248 59.0491 34.4968 58.962Z" fill="#181818"/>
<path d="M35.2734 72.5848C35.3481 72.5297 35.4227 72.4746 35.4974 72.4213C35.4227 72.4764 35.3481 72.5297 35.2734 72.5848Z" fill="#FFE000"/>
<path d="M32.7925 75.4217C32.8034 75.389 32.8143 75.3581 32.8252 75.329C32.8143 75.3581 32.8034 75.3908 32.7925 75.4217Z" fill="#FFE000"/>
<path d="M25.9038 77.5773C26.4903 78.0998 27.0661 79.191 26.7462 80.0939C26.1988 80.1917 25.9624 79.9802 25.5679 79.9268C25.6869 78.8018 25.3528 78.0447 25.9038 77.5773Z" fill="#181818"/>
<path d="M22.8715 75.3983C22.7915 76.1412 23.1026 76.2319 22.8715 76.7402C22.3952 76.7988 22.0486 76.7313 21.8478 76.5162C21.8194 76.486 21.7945 76.454 21.7714 76.4185C21.7661 76.4078 21.7607 76.3989 21.7554 76.39C21.7447 76.3705 21.7358 76.3527 21.727 76.3314C21.7216 76.3225 21.7181 76.3118 21.7145 76.3012C21.7056 76.2798 21.6985 76.2585 21.6914 76.2354C21.7003 76.1608 21.7145 76.0915 21.7358 76.0293C21.7465 75.9973 21.7589 75.967 21.7714 75.9386C21.8052 75.8657 21.846 75.8035 21.8958 75.7484C21.9065 75.736 21.9153 75.7253 21.926 75.7147C22.1375 75.505 22.4699 75.4179 22.8715 75.3983Z" fill="#181818"/>
<path d="M2.39746 37.0322C2.40812 37.1229 2.41879 37.2135 2.42767 37.3042C2.41701 37.2135 2.40812 37.1229 2.39746 37.0322Z" fill="#C6BA87"/>
<path d="M2.30322 36.2164C2.31922 36.3515 2.33344 36.4884 2.34943 36.6252C2.33344 36.4884 2.31744 36.3515 2.30322 36.2164Z" fill="#C6BA87"/>
<path d="M2.25537 35.8058C2.27137 35.9426 2.28736 36.0795 2.30336 36.2163C2.28559 36.0795 2.26959 35.9426 2.25537 35.8058Z" fill="#C6BA87"/>
<path d="M2.16113 34.9829C2.19135 35.2566 2.22334 35.5321 2.25533 35.8058C2.22334 35.5321 2.19135 35.2584 2.16113 34.9829Z" fill="#C6BA87"/>
<path d="M2.03824 29.0148C2.01336 29.1872 1.99025 29.3631 1.9707 29.5426C1.99025 29.3631 2.01158 29.1872 2.03824 29.0148Z" fill="#C6BA87"/>
<path d="M1.96016 29.66C1.82154 31.1281 1.92995 32.7685 2.10235 34.4374C1.92995 32.7685 1.82154 31.1263 1.96016 29.66Z" fill="#C6BA87"/>
</svg>
