<svg width="1035" height="1207" viewBox="0 0 1035 1207" fill="none" xmlns="http://www.w3.org/2000/svg">
<mask id="mask0_444_207" style="mask-type:luminance" maskUnits="userSpaceOnUse" x="0" y="0" width="1035" height="1207">
<path d="M0 0H1035V1206.87H0V0Z" fill="white"/>
</mask>
<g mask="url(#mask0_444_207)">
<path fill-rule="evenodd" clip-rule="evenodd" d="M417.931 34.1394C398.789 51.6045 398.409 55.4646 390.372 79.4475C382.684 102.355 366.548 103.62 345.159 107.069C323.676 110.518 303.521 112.764 282.069 117.479C250.335 124.471 204.299 142.885 173.387 155.098C126.623 173.544 119.188 186.611 84.5424 212.651C68.849 224.453 56.4779 231.92 51.0675 252.264C46.0368 271.153 48.0301 299.217 52.5229 318.201C57.9966 341.361 64.2613 350.474 62.7426 376.007C61.2871 400.18 58.6294 419.48 59.8317 444.254C60.9391 467.256 61.6035 490.764 62.173 513.83C62.6793 533.193 61.3821 558.663 54.01 576.761C44.2333 600.839 39.8037 599.732 37.6522 632.194C35.9437 657.822 31.9571 664.846 24.4901 688.165C21.1996 698.479 19.8074 707.592 17.9407 718.128C16.1055 728.632 13.3845 736.859 10.0624 746.888C2.12077 770.966 0.19075 784.919 0.380585 810.421C1.07666 906.986 12.6568 916.351 28.4767 1002.47C30.5016 1013.58 31.4825 1023.86 31.9254 1035.13C33.6973 1079.26 36.8612 1082.21 73.1204 1102.9C90.0477 1112.58 102.957 1120.43 120.991 1128.59C176.551 1153.78 163.357 1151.53 226.162 1169.85C283.272 1186.52 290.486 1185.73 348.513 1193.67C370.091 1196.62 391.543 1199.24 413.153 1202.34C475.388 1211.2 476.464 1184.78 529.303 1179.72C581.825 1174.69 586.95 1176.59 630.075 1143.3C644.123 1132.48 659.785 1124.89 674.118 1114.64C693.26 1100.94 703.131 1096.29 727.304 1094.74C738.758 1094.04 750.559 1093.31 762.013 1092.81C774.005 1092.27 785.996 1092.81 798.019 1092.24C844.435 1090.05 841.461 1072.21 864.811 1049.4C870.98 1043.35 878.004 1038.1 884.301 1032.09C917.807 1000.1 933.69 985.484 933.153 933.879C932.678 890.09 923.787 852.439 909.138 811.56C889.142 755.653 891.641 719.741 884.206 662.379C882.75 651.336 880.377 637.162 880.725 626.246C881.896 587.519 915.561 604.857 946.505 584.671C976.309 565.244 999.691 567.206 1000.77 528.954C1001.62 499.624 996.654 492.916 1002.85 457.954C1006.4 437.989 1011.62 418.499 1016.62 398.883C1031.11 341.963 1038.8 339.273 1032.63 272.513C1030.6 250.46 1026.93 234.925 1017.85 214.708C1010.26 197.907 1003.3 180.094 995.293 163.609C987.225 147.03 977.923 133.583 967.735 118.396C957.99 103.842 948.308 88.9711 936.57 75.9355C905.847 41.8595 880.314 37.6197 837.031 28.9821C793.906 20.3761 743.978 21.2936 700.315 25.9763C652.603 31.1336 621.532 44.3274 573.155 27.3368C555.152 21.0089 538.32 10.6943 518.925 9.17558C463.46 4.90422 459.537 -3.86 417.931 34.1394ZM808.682 950.49C804.853 941.599 805.613 923.66 805.454 913.915L805.613 850.888C805.644 845.067 807.448 826.083 807.068 820.166C804.6 782.357 818.522 693.987 811.308 667.125C810.327 663.454 811.276 661.682 810.042 657.981C808.365 653.108 809.663 651.558 808.903 647.476C808.302 644.122 806.91 642.572 806.752 638.554C806.657 635.485 806.593 630.391 806.878 627.417L816.781 620.361C820.325 628.556 812.384 719.362 831.747 796.405C831.969 798.999 833.076 804.125 833.677 806.814C834.436 810.294 835.892 823.362 837.063 827.823C840.037 839.34 839.088 836.935 839.056 849.496C839.024 853.894 840.227 856.141 840.227 860.032C840.321 868.48 840.543 875.219 839.182 883.509C837.474 893.887 817.636 947.706 808.682 950.49Z" fill="black"/>
</g>
<path fill-rule="evenodd" clip-rule="evenodd" d="M633.141 682.311C642.601 689.43 646.177 735.498 653.391 748.343C656.555 753.975 656.998 758.247 659.339 763.467C660.478 766.03 662.313 767.707 663.515 770.112C664.749 772.611 665.319 775.743 666.458 778.433C668.641 783.812 668.989 789.665 670.476 795.455C680.158 832.98 678.196 806.118 678.196 853.008C678.165 859.747 677.848 867.372 678.354 874.017C678.956 881.673 679.873 885.85 679.873 894.108V959.191C679.905 964.063 681.613 976.403 677.658 979.155C671.235 979.25 672.469 967.892 672.501 963.462C672.722 942.928 673.355 895.69 671.172 878.478C669.274 863.481 673.672 825.639 668.926 815.61C664.211 805.58 663.072 791.563 659.813 781.439C657.789 775.079 655.574 772.358 653.232 766.916C651.081 761.822 649.91 755.304 647.347 750.78C642.443 742.142 637.444 710.249 635.419 697.656C634.755 693.575 630.167 684.336 633.141 682.311ZM642.095 589.227L645.196 589.164C646.62 593.087 644.943 593.878 641.842 592.581C641.083 590.524 641.209 591.379 642.095 589.227ZM631.148 563.314C634.059 562.618 638.235 563.63 640.64 564.896L640.766 567.839C633.647 571.983 625.959 569.262 631.148 563.314ZM626.592 541.862C629.091 538.888 634.122 539.489 638.362 539.742C641.81 539.932 646.778 542.495 644.658 546.482C643.392 547.747 630.705 547.621 628.332 546.197C625.706 544.583 626.718 543.191 626.592 541.862ZM334.905 494.244C335.189 497.978 335.221 508.039 334.841 511.678C333.702 523.1 320.192 524.619 314.37 526.169C302.79 529.27 295.64 530.725 283.585 530.693C276.719 530.693 276.023 529.808 272.068 524.967C269.695 522.024 265.772 522.341 261.564 517.626C257.356 512.88 251.218 499.623 250.521 493.39C249.92 487.41 247.104 483.74 254.097 480.798C259.539 478.52 262.703 479.374 268.43 477.634C272.986 476.241 297.506 475.862 302.474 476.969C308.644 478.393 334.62 490.448 334.905 494.244ZM328.735 340.665C320.129 338.83 324.653 332.091 325.255 322.82C325.539 318.486 327.659 318.359 328.608 317.884C333.797 321.713 329.684 331.711 329.336 334.432C329.02 337.026 329.431 337.912 328.735 340.665ZM285.167 334.084C284.313 322.314 292.064 315.068 295.165 317.853C296.779 319.308 291.4 329.338 289.375 334.369L285.167 334.084ZM194.804 325.415C188.919 326.933 189.393 316.556 189.963 312.379C190.532 307.886 193.348 301.115 198.664 302.539C201.132 306.589 196.955 307.855 196.228 312.442C195.5 316.999 196.671 321.333 194.804 325.415ZM113.616 294.851C112.351 292.604 112.572 289.978 113.3 287.479C114.407 283.745 116.685 269.887 122.855 274.506C123.519 280.423 120.925 279.664 120.261 284.663C119.912 287.131 118.742 292.699 117.666 294.977L113.616 294.851ZM155.412 285.58C155.349 289.947 145.414 302.602 151.362 307.728C154.4 308.962 157.659 295.642 159.209 292.573L162.753 287.32C169.555 287.415 175.472 293.395 179.269 293.965C181.895 294.376 179.87 292.889 183.192 294.123C184.647 294.629 185.66 295.578 187.115 295.863C191.766 296.812 189.615 294.408 196.386 297.192C210.402 302.824 223.058 304.374 230.588 307.253C231.696 307.665 231.379 307.57 232.012 308.013C230.367 311.81 222.489 324.434 229.196 330.002C234.417 328.42 228.848 324.212 237.739 309.721C239.194 309.595 248.402 311.556 256.786 311.683L277.858 312.347C290.577 313.74 301.683 317.853 316.111 317.948C338.733 318.074 344.017 308.298 371.955 308.298C378.22 308.298 388.059 306.905 392.647 309.5C391.065 312.822 385.497 322.472 387.268 325.858C391.034 329.718 390.939 327.978 395.242 326.933C394.514 322.82 392.362 324.56 395.843 318.486C402.899 306.209 400.715 309.437 410.112 308.234C411.916 307.981 413.593 307.032 415.808 307.127C419.446 307.253 417.263 308.044 420.712 308.867C423.939 308.456 423.021 307.981 425.553 307.095C428.653 306.02 428.748 307.032 431.438 306.969C434.57 306.874 439.601 306.905 443.081 307.412C441.689 310.829 438.905 312.664 436.785 319.213C435.646 322.757 434.285 332.312 439.506 332.439C440.835 330.54 441.056 327.914 441.309 325.668C442.322 316.714 445.992 314.214 450.263 307.127C455.547 307.19 460.799 306.589 465.672 305.798C468.424 305.355 471.335 305.735 473.613 305.102C480.922 303.014 489.149 302.318 496.9 303.235C499.59 303.583 508.386 306.178 510.442 307.602C508.987 309.88 508.734 308.013 506.867 312.379C505.918 314.626 505.032 316.587 504.494 318.929C503.418 323.326 501.551 330.161 506.898 332.186C509.366 330.256 509.714 323.801 510.822 320.479C512.277 316.239 514.049 313.74 514.65 308.835C524.807 312.379 535.089 318.264 545.024 323.516C545.214 331.648 539.804 341.551 543.98 349.714C546.67 349.398 547.366 349.904 547.334 339.115C547.302 334.875 548.536 331.395 549.517 327.281C553.187 327.313 556.921 330.572 559.863 332.818C563.534 335.571 567.046 336.71 570.494 339.494C581.505 348.29 595.806 360.472 604.476 371.64C613.303 382.904 608.494 367.59 615.613 394.674C623.649 425.175 615.739 479.469 620.707 506.109C621.308 509.495 621.814 509.526 623.586 512.121C625.864 515.38 623.428 515.158 628.11 516.361C628.332 512.058 627.035 513.07 626.655 509.685C626.37 507.09 626.655 502.597 626.655 499.813C626.655 478.836 628.269 421.884 624.44 406.381C623.238 401.508 622.225 395.307 621.213 390.213C616.657 367.654 613.018 380.816 625.326 366.451C627.288 364.173 631.559 359.617 633.584 357.687C636.97 358.257 640.26 360.82 641.747 364.11C643.709 368.476 640.513 373.634 648.107 371.514C648.518 366.673 649.499 363.287 646.24 359.048C642.696 354.428 641.779 353.131 635.799 352.34C635.767 349.398 641.083 335.508 643.139 332.597C649.499 333.989 649.436 341.108 654.973 338.798C656.491 334.685 654.561 334.021 652.062 331.047C648.486 326.838 650.195 328.927 645.481 326.459L650.575 312.506C652.473 307.981 653.96 304.058 656.966 299.786C668.388 299.786 660.826 304.722 666.584 308.392C670.096 307.222 670.065 303.425 668.578 300.103C665.952 294.376 664.116 296.591 661.395 294.06C661.585 290.136 671.362 279.6 674.684 277.196C676.741 277.48 676.583 277.987 679.335 278.208C687.973 278.936 685.41 285.675 690.188 288.618C696.737 283.176 689.112 272.26 679.557 273.304C679.683 268.147 688.637 264.888 692.213 262.04C694.87 259.92 696.864 258.781 699.11 257.073C701.546 255.206 703.255 253.403 706.008 251.599C711.45 254.225 709.045 257.168 715.594 252.77L719.328 256.029C725.561 250.745 716.006 247.866 715.183 247.518C716.544 244.037 718.885 243.626 722.049 241.664C729.453 237.076 737.141 230.274 745.051 227.236C750.461 230.875 749.481 236.032 751.316 240.842C754.005 239.987 753.056 241.506 753.53 235.178C753.689 233.09 753.72 230.685 754.733 228.818C756.378 225.876 760.713 224.61 763.117 221.352C771.027 210.562 769.888 212.872 780.329 205.373C788.999 199.14 790.043 190.914 778.494 187.402C769.54 184.713 762.263 182.181 752.993 179.777C745.431 177.847 737.711 173.227 730.497 169.905C714.93 162.755 706.482 152.155 688.637 145.891C680.031 142.853 673.165 139.626 664.907 136.462C655.605 132.887 644.563 135.671 634.533 134.342C611.658 131.336 502.722 133.33 470.892 132.982C460.325 132.855 448.713 134.279 438.525 133.456C428.052 132.634 418.75 131.368 408.024 131.241C396.412 131.147 389.388 130.166 378.061 128.647C365.31 126.938 343.258 126.559 329.779 127.476C324.653 127.793 320.54 129.248 315.699 129.818C304.151 131.178 298.203 129.311 286.211 133.646C279.029 136.209 268.746 138.993 262.513 142.442C246.44 151.333 240.618 151.776 227.551 156.965L193.855 172.784C180.692 179.935 165.505 189.427 153.704 198.381C135.289 212.334 138.232 207.114 116.717 227.173C110.294 233.121 105.959 236.792 102.257 245.24C94.569 262.8 101.815 260.616 110.262 264.54C117.413 267.862 124.943 272.102 131.651 276.341C138.074 280.423 151.774 282.574 155.412 285.58ZM789.41 156.522C777.545 165.729 779.76 130.45 781.152 123.585C782.576 116.687 787.86 92.0398 797.51 93.7484C798.143 99.1588 791.403 110.771 788.999 122.825C784.316 146.397 790.802 150.352 789.41 156.522ZM729.389 130.071C726.162 130.514 725.245 129.913 725.181 121.844C725.15 116.94 729.358 95.2038 736.508 98.8424C735.875 103.905 733.249 108.239 731.509 113.302C729.389 119.503 730.56 124.376 729.389 130.071ZM687.024 113.049C686.043 108.746 685.98 101.31 687.34 97.292C688.226 94.7608 691.2 86.756 692.719 85.8068C696.769 89.0973 692.466 97.735 691.896 102.07C691.517 104.886 693.099 118.491 687.024 113.049ZM452.067 90.1414C449.093 85.3322 454.851 78.4031 457.319 73.6255C458.395 71.6005 462.318 60.495 468.235 63.3109C468.678 64.9878 466.273 67.5506 465.229 70.1767C463.236 75.334 460.768 80.776 457.477 85.2056C454.819 88.8442 457.066 90.7742 452.067 90.1414ZM414.858 93.7167C412.201 87.5786 419.668 76.6945 423.243 71.2841C426.945 65.7155 432.83 55.2111 438.209 55.4326C438.905 59.1977 437.766 58.1853 435.899 61.4442C431.184 69.6388 433.779 66.1585 426.913 75.682C417.927 88.1798 419.763 95.5835 414.858 93.7167ZM382.206 102.924C385.908 102.924 393.154 103.557 396.254 102.386C401.538 100.393 411.093 100.836 417.2 101.184C423.907 101.595 420.016 102.987 438.367 102.892C441.815 102.892 447.764 103.683 445.739 108.746C443.492 114.346 411.441 106.183 406.695 108.556L406.885 114.884C403.563 117.447 400.019 118.143 397.551 113.871C394.482 108.587 393.059 109.537 386.857 110.391C377.049 111.751 368.791 110.834 359.204 112.574C350.218 114.188 341.707 112.542 331.709 114.947C310.669 119.978 296.621 118.965 280.706 122.414C270.961 124.534 251.66 134.311 237.644 138.803C230.715 141.018 222.868 144.593 215.781 147.251C187.875 157.534 158.734 168.545 133.739 184.744C125.829 189.87 115.483 197.432 107.984 203.57C105.137 205.911 103.017 208.822 100.043 211.195C89.0004 220.086 77.1355 228.217 66.9475 238.247C59.7653 245.303 58.8477 249.1 57.9618 258.845C57.1392 267.799 55.3674 277.132 55.4623 286.055C55.8103 310.955 76.8824 372.147 73.4969 386.353C70.5861 398.408 70.333 400.116 70.3646 412.804C70.4279 432.484 69.6053 452.607 70.0799 472.223C70.333 482.664 72.7376 480.576 71.7251 498.674C71.4404 503.831 71.5353 508.261 71.5669 513.387C71.5669 518.322 70.4912 521.708 70.0166 526.359C68.5295 540.28 70.4279 535.756 66.9475 553.854C62.5812 576.445 58.6895 579.007 51.2542 598.403C42.1736 622.069 40.3385 620.898 42.6482 647.128C51.0011 641.781 55.8736 634.029 63.2457 627.385C77.8 614.222 92.8605 601.63 110.8 592.897C115.673 590.493 120.482 588.847 125.576 587.139C130.955 585.367 134.815 583.184 139.846 580.906C144.718 578.723 149.622 577.457 154.495 575.052C159.367 572.616 163.607 570.749 168.606 568.598C173.605 566.446 177.307 563.884 182.654 562.238C199.36 557.081 213.883 550.816 231.474 549.582C238.055 549.108 242.833 548 249.224 546.798C256.027 545.533 261.311 545.817 267.923 545.185C279.757 544.109 286.781 540.28 302.695 539.806C309.561 539.616 315.573 538.382 321.964 538.097C328.355 537.781 334.398 539.679 340.853 539.806C347.877 539.932 352.75 538.983 359.615 541.356C365.627 543.413 368.981 544.836 375.467 546.007C385.876 547.874 396.539 552.462 406.695 555.784C416.44 559.011 427.704 562.112 436.88 566.573C447.384 571.699 456.117 573.818 466.336 578.122C480.226 583.975 500.317 604.256 510.031 616.501C516.042 624.094 521.611 631.308 527.844 638.807C534.077 646.274 541.544 651.652 547.904 660.037C558.376 673.895 569.482 697.214 576.696 713.255C599.223 763.436 605.266 865.221 605.678 916.73C605.741 923.501 605.393 930.462 605.741 937.201C606.121 943.656 607.228 949.889 607.386 956.375C607.766 969.917 607.26 983.901 607.355 997.507C607.545 1023.7 607.956 1049.78 607.956 1075.97C607.956 1089.61 607.608 1103.56 608.146 1117.14C608.589 1128.59 601.312 1138.43 608.589 1148.46C609.443 1148.02 670.065 1107.39 670.634 1106.89C677.785 1100.68 682.214 1099.35 690.188 1095.34C699.49 1090.65 703.16 1088.98 713.759 1087.71C724.169 1086.41 732.3 1085.53 742.931 1085.53C757.517 1085.53 771.439 1083.19 785.993 1082.14C791.024 1081.79 796.086 1082.52 801.148 1081.83C810.197 1080.66 821.398 1081.23 829.719 1079.3C829.086 1073.63 827.884 1069.77 826.587 1064.36C825.384 1059.39 824.878 1053.1 824.024 1047.85C821.461 1032.18 817.031 1018.77 812.286 1003.77C810.007 996.621 811.906 996.684 806.464 990.166C802.382 985.262 804.217 983.553 804.439 977.827C804.439 977.542 797.383 938.055 797.352 937.834C795.137 920.052 796.845 883.698 796.592 863.67C796.434 851.109 797.858 839.403 797.7 826.842C797.573 814.407 797.636 801.783 797.7 789.349C797.858 753.912 803.426 722.209 803.363 698.669C803.331 685.159 803.774 677.407 801.212 663.897C799.155 653.266 797.32 639.914 797.794 629.188C798.237 619.443 794.188 607.452 792.289 597.453C790.201 586.474 790.043 574.609 788.366 563.282C786.784 552.525 784.189 542.717 782.323 532.117C780.456 521.391 776.817 513.228 773.843 502.945C764.921 471.97 756.22 439.951 755.84 407.773C755.682 395.37 754.163 383.917 754.701 371.008C755.84 341.678 765.427 338.925 774.982 315.448C775.773 313.55 785.075 300.008 789.03 291.971C797.225 275.329 805.167 257.99 813.614 241.538C817.759 233.47 829.972 229.103 827.599 219.105C827.03 216.732 825.827 214.865 825.258 212.208C824.752 209.74 824.72 207.019 823.613 204.741C821.651 200.691 815.734 199.172 817.633 196.008C822.031 188.636 822.031 190.566 820.955 181.454C820.322 176.17 821.113 169.051 822.347 163.83C824.752 153.642 828.896 147.536 836.711 140.702C842.501 135.671 853.354 126.021 860.663 131.748C859.555 137.443 851.74 138.455 847.406 141.524C842.407 145.131 838.989 149.403 835.066 152.314C835.667 157.281 834.876 160.508 832.06 165.128C830.732 167.248 830.573 167.026 830.668 169.874C833.263 168.387 842.059 159.369 851.266 155.256C856.012 153.168 878.033 147.789 876.198 157.439C872.528 158.768 866.01 158.61 861.58 159.053C855.094 159.686 844.178 165.539 838.42 169.431C834.94 171.772 832.788 174.936 830.035 177.752L830.004 191.199C830.7 193.762 839.084 195.85 847.817 203.633C870.344 223.661 875.66 225.212 888.442 254.573C899.611 280.138 901.067 290.136 902.554 315.796C902.87 321.238 903.693 324.908 903.63 330.667C903.535 345.727 903.63 344.873 902.079 359.839C900.307 377.241 892.208 409.576 892.302 425.46C892.302 430.364 892.619 436.344 892.366 441.121C892.081 446.184 890.594 447.734 890.626 454.537C891.069 500.541 890.372 546.608 890.626 592.644C914.039 588.056 936.472 579.229 956.531 567.143C994.784 544.109 990.038 555.562 989.753 508.293C989.658 493.896 988.867 478.203 991.367 464.06C993.676 450.993 996.018 438.78 999.055 425.808C1001.9 413.5 1005.83 401.603 1008.61 389.327C1014.72 362.465 1024.05 341.931 1024.21 313.676C1024.34 299.85 1023.01 285.201 1021.93 271.374C1021.11 260.553 1019.11 242.74 1014.37 233.09C1009.21 222.617 1005.19 211.638 1000.54 200.817C991.24 179.112 982.792 159.401 970.168 139.278C964.504 130.292 938.686 93.5902 931.979 85.7751C915.969 67.2659 901.225 55.5908 877.495 48.725C819.12 31.8293 773.242 28.3806 712.494 34.2023C698.034 35.5945 685.885 36.7019 671.457 39.0116C624.82 46.4785 600.9 48.4402 555.529 28.7286L521.832 16.5157C507.595 13.3517 493.104 16.4841 478.739 16.1044C437.006 15.0286 445.929 24.3307 418.054 46.2571C406.885 55.0846 403.848 59.9571 399.671 73.8786C393.786 93.6218 397.71 88.8442 382.206 102.924Z" fill="#80A4BF"/>
<path fill-rule="evenodd" clip-rule="evenodd" d="M835.13 153.042C860.379 130.672 900.783 119.662 950.995 162.281L953.937 164.78C1010.89 213.094 993.202 332.692 1000.99 418.088C1000.29 420.651 999.657 423.214 999.056 425.808C996.018 438.78 993.677 450.993 991.367 464.061C988.868 478.204 989.659 493.897 989.754 508.293C990.038 555.563 994.784 544.109 956.532 567.143C936.472 579.229 914.04 588.057 890.626 592.645C890.373 546.609 891.069 500.541 890.626 454.537C890.595 447.735 892.082 446.184 892.366 441.122C892.62 436.344 892.303 430.364 892.303 425.46C892.208 409.577 900.308 377.241 902.08 359.839C903.63 344.874 903.535 345.728 903.63 330.667C903.693 324.909 902.871 321.239 902.554 315.797C901.067 290.137 899.612 280.139 888.443 254.574C875.661 225.212 870.345 223.662 847.818 203.634C839.085 195.85 830.701 193.762 830.004 191.199L830.036 177.752C832.789 174.936 834.94 171.773 838.421 169.431C844.179 165.539 855.095 159.686 861.581 159.053C866.01 158.61 872.528 158.769 876.198 157.44C878.034 147.79 856.012 153.168 851.266 155.257C842.059 159.37 833.263 168.387 830.669 169.874C830.574 167.027 830.732 167.248 832.061 165.128C834.719 160.73 835.573 157.63 835.13 153.042ZM779.064 326.396C766.124 348.133 761.789 372.843 764.827 397.997C766.44 411.38 765.08 423.688 767.674 436.882C769.952 448.494 772.42 461.719 775.299 473.11C778.21 484.563 781.026 495.732 784.665 506.996C786.5 512.659 788.873 517.912 790.012 523.67C794.157 544.457 796.941 557.24 799.599 579.04C800.105 583.184 800.326 595.777 801.655 598.814C803.016 601.883 806.971 614.919 807.066 615.077C823.012 621.532 818.646 552.209 816.621 543.666C814.849 536.263 815.893 471.844 815.83 458.777C815.767 445.298 814.311 432.547 813.014 419.195C810.483 393.504 806.306 375.438 795.802 351.455C794.726 348.987 792.923 347.31 791.752 344.747C790.55 342.026 790.708 339.906 788.873 337.438C786.436 334.243 782.45 327.219 779.064 326.396Z" fill="#678BA6"/>
<path fill-rule="evenodd" clip-rule="evenodd" d="M428.974 1101.92C427.866 1098.97 430.176 1085.12 430.967 1081.35C431.41 1078.98 432.549 1064.99 437.801 1066.07C438.561 1067.46 438.782 1064.99 438.244 1068.89L436.884 1075.94C436.314 1079.11 435.966 1082.43 435.302 1085.53C434.036 1091.38 434.574 1101.98 428.974 1101.92ZM459.285 1084.86C459.38 1083.31 462.892 1078.85 463.809 1076.67C465.043 1073.69 465.961 1069.14 466.625 1065.88C468.049 1058.89 464.22 1046.9 469.441 1042.09C472.637 1046.58 471.687 1062.75 470.643 1068.73C469.283 1076.54 468.555 1079.58 463.303 1083.95C461.689 1085.27 461.468 1086.76 459.285 1084.86ZM485.767 1078.76C480.831 1073.88 485.356 1060.72 485.577 1057.65C486.115 1050.03 485.451 1040.66 485.577 1032.82L486.147 1008.04C486.115 1003.87 486.716 1000.39 486.716 996.019C486.653 987.635 486.78 987.128 489.406 985.705C491.715 988.426 490.671 993.804 490.671 997.411C490.671 1007.38 491.81 1022.6 491.81 1034.21C491.81 1039.68 492.506 1054.77 491.526 1059.14C489.121 1070.06 490.924 1078.12 485.767 1078.76ZM462.828 744.388C486.653 780.173 502.441 830.923 512.186 871.833C519.685 903.251 523.007 929.639 522.975 962.006C522.912 998.645 523.608 998.424 518.135 1032.69C517.312 1037.85 513.389 1049.84 517.185 1053.48C521.963 1051.86 527.025 1019.02 527.721 1013.26C529.746 996.241 529.209 980.484 529.209 963.43C529.24 902.46 514.781 849.875 493.044 793.493C487.729 779.603 465.359 734.896 453.178 730.656C454.539 735.877 459.633 739.579 462.828 744.388ZM8.06994 840.984C8.76601 852.122 10.0632 863.733 10.8226 875.06C13.2905 911.32 23.0356 934.733 28.8256 967.607C30.6924 978.174 31.9263 988.236 34.2677 998.803C40.4374 1026.55 34.2044 1041.99 39.5515 1065.78C42.1143 1077.05 46.6705 1080.12 56.5421 1084.86C64.7051 1088.79 71.3495 1094.42 79.1329 1098.97C94.668 1107.99 111.722 1116.6 128.364 1123.31C136.875 1126.75 144.722 1130.84 152.948 1134.82C170.762 1143.49 186.771 1150.36 206.072 1155.2C225.277 1160.07 243.375 1166.72 262.738 1171.27C284.633 1176.4 304.028 1178.39 326.05 1181.4C348.039 1184.43 368.32 1187.5 390.531 1189.59C413.977 1191.81 431.568 1199.21 455.488 1192.91C464.695 1190.51 473.269 1186.3 481.97 1182.6C491.051 1178.71 499.878 1176.75 508.706 1173.33C522.722 1167.85 527.342 1171.18 540.694 1170.54C553.033 1169.94 552.052 1158.24 553.192 1148.59C558.127 1107.49 556.134 1118.84 555.818 1079.55C555.628 1056.2 554.773 1029.62 556.387 1006.59C557.241 994.754 557.368 983.268 557.811 971.467C558.222 960.14 559.994 949.161 560.31 937.834C561.386 899.423 560.184 836.618 551.42 801.435C546.864 783.115 541.675 762.328 534.303 745.021C530.632 736.478 525.823 728.916 521.963 720.563C504.435 682.596 505.004 688.607 477.288 655.575C466.53 642.73 451.818 632.035 438.782 621.246C425.62 610.394 406.13 602.294 390.025 596.536C380.976 593.308 341.711 584.576 331.08 582.646C317.38 580.114 274.224 579.798 260.049 581C222.208 584.259 181.045 598.086 147.032 614.222C138.679 618.209 130.896 622.765 122.226 626.214C79.8606 643.173 47.8728 674.369 30.1861 716.735C22.8141 734.39 15.0307 752.172 10.791 770.871C7.34223 786.216 7.05747 824.848 8.06994 840.984Z" fill="#80A4BF"/>
<path fill-rule="evenodd" clip-rule="evenodd" d="M823.524 994.533C820.898 989.091 832.605 974.631 836.37 969.126C838.679 965.677 839.692 963.652 844.533 964.443L844.754 969.094L829.472 988.679C827.099 992.255 827.922 993.9 823.524 994.533ZM784.639 316.398C785.05 318.96 786.411 321.302 788.752 322.188C795.017 315.164 808.78 287.416 815.899 289.346C817.86 294.661 809.381 299.407 804.445 308.677C802.895 311.588 791.884 325.257 792.264 328.136C793.498 330.414 795.333 333.325 797.358 334.337C801.819 331.806 812.893 313.993 817.892 317.726C819.98 321.112 817.766 320.827 815.171 323.738C812.418 326.807 800.205 338.735 800.237 340.918C801.344 343.481 805.078 352.404 806.692 353.669C811.121 350.062 814.475 345.348 818.493 341.203C826.403 333.072 826.308 328.737 831.276 328.8C833.617 335.571 820.044 348.765 815.203 353.479C804.698 363.604 808.811 353.986 816.057 381.291C817.639 387.239 819.411 391.953 820.233 398.281C821.056 404.578 821.183 411.127 822.638 417.36L826.055 456.625C826.055 469.154 825.201 535.693 826.498 542.116C839.945 609.224 816.405 680.128 832.826 755.115C837.793 777.769 849.215 820.387 849.279 844.529C849.31 852.28 852.316 872.372 849.912 882.876C847.918 891.577 846.589 895.469 843.52 903.695C838.078 918.344 828.65 947.737 817.133 957.767C809.128 964.76 808.368 963.336 812.608 974.283C813.969 973.397 827.827 952.04 835.389 944.194C837.699 941.789 841.495 935.904 845.862 936.885C847.507 941.884 836.749 952.452 831.212 960.583C828.808 964.064 825.486 968.303 822.701 971.815C820.423 974.695 820.455 974.821 818.81 977.922C817.892 979.599 815.93 982.162 814.602 983.174L823.872 1011.87C828.207 1010.8 825.644 1010.19 831.023 1004.91C837.635 998.393 843.077 985.642 854.373 985.104C854.215 989.977 850.924 991.907 847.475 994.564C846.241 995.514 826.656 1017.25 826.656 1020.07C827.669 1023.36 828.808 1027.22 829.441 1030.7C829.915 1033.42 830.706 1040.35 831.624 1042.66C835.642 1041.52 857.41 1001.05 865.985 1001.3C867.313 1004.59 864.909 1005.26 862.757 1008.33C860.922 1011.02 859.72 1013.71 857.916 1016.33C854.278 1021.62 845.387 1031.84 842.255 1037.31C835.452 1049.14 832.573 1047.28 833.206 1052.72C833.807 1057.59 833.269 1058.82 835.041 1063.73C842.919 1059.77 848.203 1055.72 853.202 1048.35C859.309 1039.27 862.314 1038.1 869.75 1030.98C875.951 1025.1 880.729 1020.03 887.911 1015.16C893.827 1011.14 899.871 1003.14 903.826 997.127C915.722 979.187 922.588 970.961 922.43 947.991C922.177 914.674 924.392 917.047 917.937 883.667C913.792 862.025 911.704 850.667 904.585 829.183C901.769 820.735 897.877 813.015 895.346 804.504C890.41 787.83 883.481 767.106 881.235 750.115C879.178 734.739 875.223 675.794 874.717 661.967C874.527 656.778 873.23 652.19 873.009 647.128C870.889 600.586 880.444 582.456 880.444 537.338C880.444 510.508 879.811 478.551 880.317 452.29C880.444 446.817 881.741 442.102 882.121 436.85C882.469 431.187 881.836 426.029 882.5 420.239C883.102 415.082 883.829 409.83 884.525 404.673C887.088 386.005 892.847 363.984 893.448 345.506C894.049 325.795 892.277 301.495 887.879 282.638C884.937 270.172 875.635 244.734 867.472 235.178C861.65 228.312 839.597 205.374 832.541 202.273C830.801 211.543 843.172 218.441 830.105 233.944C827.321 237.267 823.967 242.835 821.626 246.695C813.178 260.49 800.838 288.143 792.327 302.476C790.049 306.241 786.252 312.664 784.639 316.398Z" fill="#999999"/>
<path fill-rule="evenodd" clip-rule="evenodd" d="M26.3928 706.484C36.2011 687.121 44.7122 671.681 60.8168 656.747C100.335 620.139 105.777 627.322 139.315 608.686C147.51 604.13 159.501 599.795 168.392 595.935C194.78 584.513 242.144 572.332 270.842 572.11C300.71 571.889 319.757 570.18 349.118 578.027C360.857 581.159 366.584 580.969 383.289 585.652C400.628 590.493 426.762 600.997 441.032 611.913C445.082 615.014 448.309 618.779 452.296 621.911C468.052 634.187 471.722 635.928 485.264 651.906C499.629 668.865 510.703 679.654 521.682 699.65C526.839 709.079 530.161 718.887 535.54 728.284C546.392 747.236 551.803 769.606 557.466 790.678C566.167 823.362 565.091 832.98 566.768 865.537C567.718 884.173 568.509 930.62 567.464 948.275C566.673 961.849 565.218 974.6 565.471 988.236C565.629 995.197 564.87 1001.08 564.206 1007.92C563.541 1014.81 563.699 1021.68 563.731 1028.61C563.794 1057.34 564.807 1080.15 563.699 1109.86C563.415 1117.01 564.079 1124.07 563.794 1131.28C563.509 1137.77 561.927 1143.56 561.801 1150.04C561.643 1159.28 557.783 1161.97 557.308 1167.13C556.77 1173.17 566.515 1169.34 569.205 1167.29C581.607 1157.83 580.437 1157.19 596.636 1153.55C596.636 1148.71 595.149 1140.27 595.655 1136.6C596.636 1129.13 598.63 1126.41 598.408 1117.83C597.491 1078.6 598.282 1030.89 598.313 991.021L598.503 949.794C595.497 912.522 601.003 869.461 593.409 829.342C591.131 817.16 590.372 804.536 587.682 792.639C581.987 767.359 582.525 752.489 572.147 724.835C568.477 715.027 563.161 705.915 558.858 696.36C555.03 687.848 548.67 677.091 543.545 669.213C537.185 659.436 530.636 655.196 523.422 647.128C516.714 639.629 510.734 631.213 504.501 623.398C499.755 617.482 490.295 605.838 484.632 601.472C454.858 578.755 471.881 589.86 443.753 578.755C438.722 576.761 434.293 574.009 429.388 571.889C419.517 567.712 408.095 564.453 397.812 561.163C392.56 559.454 387.466 557.176 382.214 555.531C376.518 553.759 370.855 553.411 365.381 551.766C358.895 549.741 356.079 547.558 348.675 547.146C330.609 546.197 307.48 545.185 289.003 548.475C283.149 549.519 277.423 551.355 271.664 552.24C265.273 553.221 258.66 552.747 251.921 553.791C245.561 554.772 240.246 556.006 233.665 556.702C221.452 557.967 193.356 564.96 183.073 568.883C173.391 572.616 163.52 578.343 153.964 582.235C134.158 590.335 114.13 596.789 96.0635 608.496C76.0672 621.468 67.2397 632.447 50.7237 648.077C41.833 656.493 38.226 662.537 34.3976 674.148C32.5942 679.496 30.2212 683.988 28.2279 689.146C27.3736 691.392 24.2096 705.345 26.2346 706.358L26.3928 706.484Z" fill="#678BA6"/>
<path fill-rule="evenodd" clip-rule="evenodd" d="M281.21 500.193C274.249 497.788 272.066 500.414 259.79 494.371C259.315 498.516 264.219 515.665 277.983 518.164C285.924 519.62 285.481 523.606 301.301 518.955C308.389 516.867 311.742 516.899 313.071 516.456C325.126 512.311 325.253 517.436 325.253 501.142C317.912 499.307 289.721 503.104 281.21 500.193Z" fill="#4D4D4D"/>
<path fill-rule="evenodd" clip-rule="evenodd" d="M266.533 487.442C270.868 490.131 284.789 492.093 287.099 492.124C294.534 492.219 306.02 492.694 313.044 491.84C307 489.435 302.444 485.227 292.794 485.29C281.942 485.354 274.633 484.088 266.533 487.442Z" fill="#333333"/>
</svg>
