<svg width="138" height="322" viewBox="0 0 138 322" fill="none" xmlns="http://www.w3.org/2000/svg">
<mask id="mask0_6_4887" style="mask-type:luminance" maskUnits="userSpaceOnUse" x="7" y="0" width="128" height="319">
<path d="M7.6665 0L134.515 0V318.515H7.6665V0Z" fill="white"/>
</mask>
<g mask="url(#mask0_6_4887)">
<path d="M133.241 0.484704V313.419C133.241 315.88 131.259 317.884 128.803 317.884H12.262C9.81167 317.884 7.82422 315.88 7.82422 313.419V0.484704C7.82422 0.234231 8.02569 0.038208 8.27072 0.038208H132.8C133.05 0.038208 133.241 0.234231 133.241 0.484704Z" fill="#AF5757"/>
</g>
<path d="M133.241 5.69556V42.6949H7.82471V5.69556H133.241Z" fill="#811C1C"/>
<path d="M133.241 19.8909V313.419C133.241 315.88 131.259 317.884 128.803 317.884H12.2624C9.81216 317.884 7.82471 315.88 7.82471 313.419V19.8909H133.241Z" fill="white"/>
<path d="M7.82471 19.8909V114.935C8.44 114.57 9.13697 114.281 9.93195 114.091C12.0501 113.573 14.3479 113.508 16.6185 113.622C16.5967 114.733 16.5749 115.849 16.5532 116.96C16.5423 117.537 17.4298 117.537 17.4407 116.96L17.5061 113.671C18.5352 113.748 19.548 113.846 20.5335 113.944C24.6228 114.379 28.6195 115.327 32.5072 116.661C33.0518 116.851 33.2804 115.986 32.7414 115.806C27.819 114.107 22.7061 113.083 17.5169 112.833C17.6857 103.663 17.86 94.5048 18.0288 85.3353C18.2085 75.8499 18.0342 66.2829 18.753 56.8194C19.3574 48.7933 21.0236 40.1084 26.7899 34.1134C33.177 27.4813 42.7984 26.2453 51.516 25.8097C61.6765 25.3087 71.886 25.4666 82.0302 26.2017C92.0274 26.9259 102.27 27.9278 112.038 30.2365C116.073 31.1894 120.434 32.7794 122.754 36.4766C125.378 40.6638 125.324 46.5881 125.776 51.3689C126.74 61.6437 127.034 71.973 127.039 82.2915C127.05 105.749 125.585 129.212 126.968 152.658C126.99 153.028 127.442 153.263 127.725 152.974C129.713 150.927 131.548 148.76 133.241 146.494V19.8909H7.82471Z" fill="#F5E8DF"/>
<path d="M117.249 67.7858C108.27 70.2252 64.3772 76.9607 51.407 77.5379C38.4369 78.1096 20.1958 80.4075 19.1994 77.5379C18.2029 74.6738 16.063 59.4657 13.0737 49.572C11.9465 45.8639 10.8466 42.0142 9.94821 38.5239C8.49437 32.9101 7.56326 28.2164 7.89541 26.523C7.9063 26.4576 7.91719 26.3978 7.93897 26.3433C8.43448 24.6499 13.5583 24.3123 14.8488 24.0999C19.3954 23.3431 24.0019 22.9129 28.5922 22.5317C42.1722 21.421 55.6977 20.1631 69.2233 18.7202C78.1914 17.7673 87.1594 16.7327 96.1329 15.6056C100.26 15.0829 104.393 14.571 108.537 14.2171C110.6 14.0429 113.372 13.4766 115.398 14.1572C119.247 15.4423 119.814 23.9094 120.244 30.3563C120.265 30.6068 120.287 30.8791 120.309 31.1622C120.418 32.3656 120.619 33.8466 120.881 35.4965C122.133 43.3646 124.818 55.1478 126.516 60.0429C128.651 66.2122 126.228 65.3464 117.249 67.7858Z" fill="#EBB88E"/>
<path d="M126.516 60.0429C124.67 54.7176 121.659 41.2737 120.592 33.5471C120.548 35.0609 120.429 36.5637 120.189 38.0121C117.973 51.2817 103.859 57.3911 92.5444 60.8869C86.0865 62.8797 79.4653 63.3154 72.8986 64.6385C57.1351 67.8075 32.0768 74.0803 20.5986 58.1643C19.1175 56.1115 18.0612 53.8355 17.1573 51.4832C15.208 49.5556 13.3893 47.4212 11.7612 45.1397C12.1859 46.6207 12.627 48.1073 13.0735 49.572C16.0628 59.4657 18.2028 74.6738 19.1992 77.5379C20.1957 80.4075 38.4367 78.1096 51.4068 77.5379C64.377 76.9607 108.27 70.2252 117.249 67.7858C126.228 65.3464 128.651 66.2121 126.516 60.0429Z" fill="#D49D6C"/>
<mask id="mask1_6_4887" style="mask-type:luminance" maskUnits="userSpaceOnUse" x="0" y="98" width="138" height="224">
<path d="M0 98.2728H137.989V321.962H0L0 98.2728Z" fill="white"/>
</mask>
<g mask="url(#mask1_6_4887)">
<path d="M137.788 148.368C137.858 152.234 137.744 156.116 137.701 159.988C137.434 182.552 136.889 205.111 136.492 227.67C136.263 240.76 137.08 297.83 135.996 307.419C134.439 321.222 124.142 321.843 112.179 321.957C100.081 322.066 88.0251 320.726 75.9534 320.176C57.1407 319.316 11.8213 321.897 5.25996 317.884C-1.29592 313.866 0.130696 287.479 0.130696 276.578C0.130696 265.682 1.41573 113.96 1.8459 108.798C2.27061 103.637 2.62454 101.627 7.82459 100.337C9.00073 100.043 10.0789 99.776 11.0699 99.5364C17.0268 98.0717 20.0052 97.647 24.6444 99.8577C24.8023 99.9339 24.9603 100.01 25.1182 100.092C29.3218 102.204 42.1885 107.475 46.4629 109.387C50.5086 111.194 54.8102 112.398 59.1227 113.372C75.4797 117.053 92.4248 117.745 109.087 119.052C114.537 119.482 120.309 120.141 125.563 121.676C126.576 121.97 127.584 122.335 128.564 122.771C131.662 124.148 134.439 126.239 136.034 129.207C136.622 130.301 137.042 131.472 137.336 132.691C138.539 137.668 137.701 143.505 137.788 148.368Z" fill="#EBB88E"/>
</g>
<mask id="mask2_6_4887" style="mask-type:luminance" maskUnits="userSpaceOnUse" x="0" y="99" width="138" height="223">
<path d="M0 99.4871H137.989V321.962H0L0 99.4871Z" fill="white"/>
</mask>
<g mask="url(#mask2_6_4887)">
<path d="M137.788 148.368C137.859 152.234 137.744 156.116 137.701 159.988C137.63 165.634 137.548 171.275 137.456 176.922C137.45 177.172 137.445 177.428 137.439 177.69C137.249 188.907 137.02 200.123 136.797 211.346C136.797 211.346 136.797 211.346 136.797 211.351C136.791 211.634 136.791 211.923 136.786 212.206C136.786 212.211 136.786 212.211 136.786 212.211C136.683 217.373 136.585 222.519 136.492 227.67C136.427 231.378 136.448 238.604 136.476 247.294C136.481 247.566 136.481 247.839 136.481 248.116C136.536 260.656 136.623 276.033 136.541 288.17C136.541 288.443 136.536 288.709 136.536 288.976C136.546 288.976 136.536 288.982 136.536 288.982C136.47 297.683 136.312 304.598 135.997 307.419C134.439 321.222 124.143 321.843 112.18 321.957C110.753 321.968 109.332 321.957 107.911 321.93C107.747 321.93 107.584 321.93 107.421 321.924C96.9172 321.728 86.4409 320.656 75.9536 320.176C73.7538 320.073 71.2001 320.019 68.385 319.997C68.2325 319.997 68.0746 319.997 67.9222 319.997C56.6563 319.921 41.4427 320.318 28.7339 320.187C28.5706 320.187 28.4127 320.187 28.2548 320.182C17.0869 320.062 7.93919 319.523 5.26021 317.884C-0.478902 314.367 -0.0977458 293.713 0.0819414 281.304C0.0873862 281.064 0.0928319 280.814 0.0982767 280.58C0.114612 279.099 0.130947 277.748 0.130947 276.578C0.130947 273.392 0.239848 258.157 0.408646 238.065C0.408646 237.896 0.408646 237.733 0.408646 237.564C0.495767 227.104 0.599225 215.342 0.708125 203.303C0.708125 203.118 0.71357 202.928 0.71357 202.748V202.742C0.811581 191.983 0.915038 181.011 1.01849 170.529C1.02394 170.29 1.02394 170.05 1.02938 169.811C1.19274 153.241 1.36153 137.968 1.50855 126.827C1.50855 126.648 1.50855 126.468 1.514 126.288C1.64468 116.329 1.75903 109.8 1.84615 108.799C2.27086 103.637 2.62479 101.627 7.82484 100.337C9.00098 100.043 10.0791 99.7761 11.0701 99.5365C10.5909 103.054 10.1608 107.786 9.93209 114.091C9.86674 115.823 9.8014 118.458 9.73606 121.84C9.73606 121.992 9.73606 122.144 9.73062 122.302C9.55638 131.837 9.38758 147.001 9.21878 164.404C9.21334 164.562 9.21334 164.714 9.21334 164.867C9.10988 175.844 9.00098 187.692 8.89752 199.573C8.89752 199.726 8.89752 199.884 8.89208 200.047C8.78317 212.168 8.67972 224.31 8.57082 235.555C8.57082 235.718 8.57082 235.881 8.56537 236.045C8.42924 250.725 8.28767 263.863 8.15155 273.447C8.1461 273.599 8.1461 273.752 8.14066 273.904C8.0372 280.819 7.93919 285.818 7.83029 288.11C7.12243 303.591 4.75926 310.147 26.3544 310.735C27.9607 310.784 29.5398 310.816 31.0917 310.844C31.2169 310.849 31.3421 310.854 31.4674 310.854C45.6681 311.11 57.729 310.767 70.4596 310.691C70.6066 310.691 70.7536 310.691 70.9006 310.691C75.1641 310.658 79.5093 310.669 84.045 310.735C91.189 310.844 98.1805 311.404 104.339 311.448C104.497 311.453 104.655 311.453 104.818 311.448C115.507 311.486 123.598 309.874 125.466 301.462C126.37 297.372 126.86 288.807 127.116 278.271C127.116 278.124 127.121 277.972 127.121 277.819C127.393 266.145 127.382 252.102 127.317 239.007C127.317 238.827 127.317 238.653 127.317 238.473C127.252 225.105 127.143 212.783 127.241 205.062C127.252 204.262 127.268 203.401 127.279 202.487C127.279 202.334 127.284 202.182 127.284 202.035C127.404 193.301 127.617 179.851 127.845 166.054C127.845 165.868 127.845 165.683 127.851 165.498C128.112 149.283 128.395 132.675 128.564 122.771C131.662 124.148 134.439 126.239 136.035 129.207C136.623 130.301 137.042 131.472 137.336 132.692C138.539 137.668 137.701 143.505 137.788 148.368Z" fill="#D49D6C"/>
</g>
<path d="M72.7462 248.345C72.5774 264.075 72.267 279.806 71.7661 295.526C71.6082 300.557 71.63 305.692 70.9003 310.691C70.5518 313.059 70.0346 315.401 69.245 317.688C68.9837 318.466 68.6951 319.24 68.3847 319.996C68.2322 319.996 68.0743 319.996 67.9219 319.996C68.5481 318.434 69.1035 316.844 69.55 315.21C69.9529 313.724 70.2469 312.215 70.4593 310.691C70.8513 307.93 70.9929 305.126 71.0964 302.333C71.2597 297.938 71.3904 293.55 71.5211 289.161C72.4195 257.71 72.5774 226.238 72.3542 194.77C72.1309 163.303 71.5374 131.836 70.9384 100.369C70.933 100.075 71.3795 100.086 71.3795 100.369C71.4231 102.335 71.4557 104.301 71.4938 106.266C71.7933 122.079 72.0874 137.891 72.3269 153.704C72.5611 169.435 72.7462 185.171 72.8333 200.907C72.9205 216.72 72.9041 232.532 72.7462 248.345Z" fill="white"/>
<path d="M34.2984 143.843C34.0861 160.853 33.8737 177.869 33.6668 194.885C33.4599 211.933 33.2421 228.976 33.0352 246.03C32.8283 263.079 32.6213 280.133 32.4035 297.181C32.3491 301.782 32.2184 306.373 31.467 310.854C30.9878 313.685 30.2691 316.473 29.1528 319.196C29.0167 319.528 28.8751 319.86 28.7336 320.187C28.5702 320.187 28.4123 320.187 28.2544 320.181C29.2508 317.938 30.0567 315.602 30.6121 313.19C30.7972 312.417 30.9497 311.633 31.0913 310.843C32.3763 303.53 31.9734 295.864 32.0659 288.497C32.2783 271.611 32.4852 254.726 32.6921 237.841C32.9045 220.961 33.106 204.087 33.3129 187.207C33.5252 170.442 33.7321 153.676 33.9391 136.906C34.146 120.086 34.391 103.26 33.8138 86.446C33.7975 86.152 34.244 86.152 34.2549 86.4351C34.3257 88.5805 34.391 90.7259 34.44 92.8658C34.832 109.86 34.5053 126.854 34.2984 143.843Z" fill="white"/>
<mask id="mask3_6_4887" style="mask-type:luminance" maskUnits="userSpaceOnUse" x="102" y="99" width="7" height="224">
<path d="M102.455 99.6667H108.03V322H102.455V99.6667Z" fill="white"/>
</mask>
<g mask="url(#mask3_6_4887)">
<path d="M107.911 321.929C107.747 321.929 107.584 321.929 107.421 321.924C105.896 318.559 104.921 315.041 104.339 311.448C102.863 302.441 103.783 292.934 104.453 283.923C105.575 268.644 105.564 253.311 105.662 237.994C105.754 222.606 105.852 207.223 105.945 191.836C106.043 176.453 106.135 161.071 106.234 145.683C106.326 130.459 106.811 115.142 105.085 99.988C105.052 99.7049 105.498 99.7103 105.531 99.988C105.743 101.845 105.918 103.707 106.07 105.575C107.279 120.707 106.734 135.975 106.642 151.139L106.359 196.84C106.266 212.075 106.168 227.31 106.076 242.54C105.983 257.775 105.727 272.962 104.578 288.159C104.001 295.755 103.565 303.814 104.818 311.448C105.411 315.074 106.386 318.597 107.911 321.929Z" fill="white"/>
</g>
<path d="M94.1127 127.48C86.5658 127.415 79.0299 127.001 71.5102 126.402C58.1861 125.34 44.9165 123.745 31.5978 122.65C28.2763 122.378 24.9439 122.138 21.6115 121.942C18.2465 121.746 14.6255 121.273 11.2877 121.893C10.7595 121.991 10.2422 122.133 9.73037 122.302C7.18207 123.119 4.84613 124.665 2.6191 126.092C2.24883 126.331 1.87312 126.576 1.5083 126.827C1.5083 126.647 1.5083 126.467 1.51375 126.288C1.97658 125.977 2.44485 125.678 2.91313 125.378C5.06394 124.017 7.29642 122.607 9.73581 121.839C10.4219 121.621 11.1243 121.452 11.8431 121.354C15.1809 120.897 18.693 121.322 22.0417 121.518C25.5211 121.725 29.0005 121.986 32.469 122.275C39.2699 122.846 46.0654 123.543 52.8608 124.224C66.577 125.602 80.3149 126.914 94.1127 127.034C94.3959 127.039 94.3959 127.486 94.1127 127.48Z" fill="white"/>
<mask id="mask4_6_4887" style="mask-type:luminance" maskUnits="userSpaceOnUse" x="0" y="162" width="138" height="16">
<path d="M0.696777 162.394H138V177.727H0.696777V162.394Z" fill="white"/>
</mask>
<g mask="url(#mask4_6_4887)">
<path d="M137.455 176.921C137.45 177.172 137.444 177.428 137.439 177.689C137.183 177.302 136.922 176.921 136.655 176.54C135.011 174.182 133.284 171.879 131.46 169.657C130.382 168.34 129.212 167.044 127.845 166.053C126.876 165.35 125.808 164.806 124.6 164.517C121.844 163.869 118.806 164.044 115.996 163.946C113.198 163.848 110.399 163.755 107.6 163.673C102.002 163.521 96.3995 163.401 90.8019 163.319C79.449 163.156 68.1014 163.151 56.7484 163.303C45.4063 163.461 34.0588 163.777 22.7167 164.256C19.9179 164.37 17.1246 164.501 14.3258 164.637C12.6923 164.719 10.9172 164.67 9.21291 164.866C8.24368 164.975 7.29624 165.165 6.41414 165.508C4.13265 166.39 2.49368 168.585 1.01807 170.529C1.02351 170.289 1.02351 170.05 1.02896 169.81C2.47735 167.953 4.05097 165.944 6.27801 165.084C7.20367 164.724 8.20012 164.517 9.21835 164.403C11.2058 164.163 13.2913 164.24 15.1916 164.147C18.4314 163.995 21.6712 163.848 24.9111 163.722C48.4774 162.769 72.0654 162.514 95.6481 162.955C101.54 163.058 107.431 163.21 113.328 163.407C116.236 163.505 119.149 163.554 122.046 163.739C124.169 163.869 126.097 164.321 127.85 165.497C127.986 165.585 128.117 165.683 128.248 165.781C130.143 167.196 131.613 169.108 133.067 170.959C134.597 172.897 136.061 174.885 137.455 176.921Z" fill="white"/>
</g>
<mask id="mask5_6_4887" style="mask-type:luminance" maskUnits="userSpaceOnUse" x="0" y="272" width="138" height="18">
<path d="M0 272.515H137.303V289.242H0L0 272.515Z" fill="white"/>
</mask>
<g mask="url(#mask5_6_4887)">
<path d="M136.541 288.17C136.541 288.442 136.535 288.709 136.535 288.976C135.245 287.005 133.889 285.077 132.473 283.198C130.998 281.238 129.331 279.311 127.115 278.271C126.701 278.075 126.271 277.906 125.819 277.786C123.097 277.029 120.047 277.084 117.243 276.871C114.45 276.659 111.657 276.457 108.863 276.267C103.277 275.88 97.6846 275.537 92.0925 275.232C80.7613 274.612 69.4192 274.16 58.0716 273.86C46.7241 273.561 35.3765 273.424 24.029 273.446C21.2248 273.452 18.426 273.468 15.6272 273.495C13.2151 273.517 10.5034 273.239 8.14026 273.904C7.98779 273.947 7.84078 273.996 7.68832 274.045C5.12368 274.927 3.28325 277.448 1.58983 279.452C1.07799 280.062 0.577044 280.683 0.081543 281.304C0.0869877 281.064 0.0924335 280.813 0.0978782 280.579C0.609716 279.937 1.13789 279.3 1.67695 278.674C3.33225 276.741 5.08012 274.465 7.56852 273.621C7.7591 273.55 7.95512 273.495 8.15115 273.446C10.792 272.728 13.8413 273.065 16.5093 273.038C19.7546 273.011 22.9999 273 26.2397 273C49.8223 272.994 73.405 273.68 96.9495 275.058C102.836 275.407 108.722 275.793 114.602 276.223C117.499 276.441 120.407 276.604 123.304 276.904C124.654 277.045 125.934 277.312 127.121 277.819C127.927 278.156 128.689 278.603 129.413 279.191C131.248 280.677 132.647 282.654 134.025 284.56C134.885 285.747 135.724 286.945 136.541 288.17Z" fill="white"/>
</g>
<path d="M136.797 211.345C136.797 211.345 136.797 211.345 136.797 211.351C136.791 211.634 136.791 211.922 136.786 212.205C134.624 208.263 132.147 204.637 127.889 202.747C127.687 202.655 127.48 202.568 127.279 202.486C122.678 200.667 117.445 201.065 112.604 201.103C106.784 201.147 100.963 201.163 95.142 201.147C83.5766 201.119 72.0058 200.961 60.4459 200.684C48.8044 200.401 37.1682 199.998 25.543 199.464C20.2341 199.224 14.3098 198.936 8.89196 200.047C5.95706 200.646 3.16918 201.653 0.708008 203.303C0.708008 203.118 0.713453 202.927 0.713453 202.747V202.742C3.18552 201.141 5.96795 200.156 8.8974 199.573C15.1701 198.31 22.1344 198.876 28.1893 199.137C52.115 200.188 76.057 200.716 100.004 200.711C105.836 200.705 111.662 200.597 117.494 200.624C120.788 200.646 124.202 200.869 127.284 202.034C128.586 202.524 129.822 203.183 130.965 204.065C133.508 206.025 135.256 208.601 136.797 211.345Z" fill="white"/>
<mask id="mask6_6_4887" style="mask-type:luminance" maskUnits="userSpaceOnUse" x="0" y="234" width="138" height="15">
<path d="M0 234.879H137.303V248.818H0L0 234.879Z" fill="white"/>
</mask>
<g mask="url(#mask6_6_4887)">
<path d="M136.481 248.116C136.127 247.691 135.778 247.266 135.419 246.842C133.829 244.941 132.261 242.998 130.431 241.32C129.467 240.433 128.433 239.649 127.317 239.006C126.179 238.353 124.948 237.857 123.619 237.574C120.804 236.981 117.826 237.144 114.962 237.101C94.1343 236.806 73.3015 236.512 52.4686 236.218C41.9868 236.066 31.4996 235.919 21.0178 235.772C16.983 235.712 12.7086 235.581 8.56493 236.044C5.74438 236.365 2.98372 236.964 0.408203 238.064C0.408203 237.895 0.408203 237.732 0.408203 237.563C2.98372 236.485 5.73893 235.881 8.57037 235.554C13.7432 234.961 19.1556 235.298 24.1161 235.369C45.5316 235.674 66.9525 235.979 88.368 236.278C93.8348 236.355 99.3017 236.431 104.769 236.512C110.001 236.583 115.267 236.502 120.488 236.763C122.612 236.872 124.719 237.199 126.652 238.13C126.881 238.239 127.099 238.347 127.317 238.473C128.928 239.36 130.36 240.574 131.656 241.881C133.344 243.596 134.934 245.426 136.475 247.294C136.481 247.566 136.481 247.838 136.481 248.116Z" fill="white"/>
</g>
<mask id="mask7_6_4887" style="mask-type:luminance" maskUnits="userSpaceOnUse" x="24" y="99" width="114" height="53">
<path d="M24.394 99.6667H138V151.243H24.394V99.6667Z" fill="white"/>
</mask>
<g mask="url(#mask7_6_4887)">
<path d="M136.034 129.206C133.938 125.308 129.8 122.912 125.564 121.676C120.309 120.14 114.537 119.481 109.087 119.051C92.4249 117.744 75.4798 117.053 59.1228 113.372C54.8103 112.397 50.5086 111.194 46.463 109.386C42.1886 107.475 29.3219 102.204 25.1183 100.091C24.9603 100.01 24.8024 99.9335 24.6445 99.8573C26.0711 102.618 27.0567 105.678 28.2165 108.499C30.3346 113.644 33.5309 118.147 37.6692 121.855C46.9312 130.154 59.2916 133.905 71.4504 134.265C82.3406 134.586 88.8964 149.702 93.4812 150.589C99.0025 151.656 103.25 146.805 106.293 142.939C108.226 140.478 110.198 138.071 112.915 136.443C115.517 134.88 118.469 134.047 121.442 133.557C124.937 132.996 128.488 132.903 132.016 132.784C133.786 132.724 135.561 132.68 137.336 132.691C137.042 131.471 136.623 130.301 136.034 129.206Z" fill="#FACEAA"/>
</g>
</svg>
