<svg width="190" height="131" viewBox="0 0 190 131" fill="none" xmlns="http://www.w3.org/2000/svg">
<mask id="mask0_142_170328" style="mask-type:luminance" maskUnits="userSpaceOnUse" x="0" y="0" width="190" height="131">
<path d="M0 0.55542H190V131H0V0.55542Z" fill="white"/>
</mask>
<g mask="url(#mask0_142_170328)">
<path d="M187.691 49.3368C187.653 49.0309 187.608 48.8152 187.592 48.6252C187.608 48.8152 187.646 49.0148 187.685 49.2982C187.389 49.8037 187.083 50.2867 186.738 50.7375C187.083 51.5553 186.661 52.1091 186.255 52.6243C185.277 53.8479 184.204 55.0006 183.267 56.2467C182.858 56.7844 182.524 57.4638 182.43 58.1175C181.248 66.2542 179.42 74.2492 177.175 82.1573C176.792 83.5225 176.103 84.8072 175.494 86.092C175.337 86.4204 174.937 86.6297 174.641 86.8809C174.429 87.6279 174.165 88.3459 173.82 88.9674C173.93 88.9674 174.046 88.9835 174.171 89.006C174.071 89.4053 174.078 89.811 173.875 90.0525C173.25 90.8059 172.577 91.5143 171.882 92.2001C160.918 103.071 148.515 112.102 135.558 120.419C131.71 122.889 127.769 125.217 123.812 127.526C122.012 128.575 120.096 129.442 118.196 130.308C117.572 130.594 116.821 130.681 116.116 130.72C111.048 131 106.044 130.292 101.095 129.393C80.1145 125.591 59.8066 119.521 40.2167 111.12C32.8174 107.949 25.6177 104.381 18.9461 99.8377C18.2119 99.3387 17.3651 98.904 17.3361 97.8897C17.3812 97.835 17.4198 97.7802 17.4681 97.7416C17.0785 97.2972 16.7404 96.8143 16.4442 96.2991C16.4828 96.3087 16.5215 96.3087 16.5698 96.3152C15.021 96.1993 14.7634 95.3106 14.5123 94.5539C13.4336 91.3436 12.3227 88.1431 11.4083 84.8845C10.2266 80.6858 9.20263 76.4452 8.16905 72.2078C8.03059 71.6378 7.57658 70.952 8.21734 70.2501C8.17871 70.2984 8.14007 70.337 8.10787 70.3821L7.58302 68.3342C6.3176 67.584 5.05862 66.8144 3.79964 66.0577C3.18786 65.6907 2.62437 65.2077 2.14783 64.6861C1.8033 64.3126 1.45233 63.8843 1.56181 63.2983C1.31065 62.8089 1.21728 62.1939 1.22694 61.6014C1.06916 61.6626 0.904945 61.7012 0.75683 61.6948C0.576516 61.6851 0.280285 61.2118 0.286724 60.9606C0.302824 60.4648 0.367221 59.8723 0.640914 59.4892C1.28811 58.6101 1.97717 57.7118 2.83045 57.042C3.89945 56.2016 5.1037 55.4997 6.3176 54.8686C7.46711 54.2761 8.70033 53.8543 9.85305 53.381C11.7431 49.8198 13.5753 46.2103 15.5523 42.6974C17.7644 38.7691 20.2533 35.005 23.3477 31.7014C26.8123 27.9921 30.9724 25.165 35.3772 22.6857C44.0388 17.8075 53.1511 13.8631 62.3922 10.2343C70.7221 6.95967 79.184 4.06175 87.8552 1.82392C89.9352 1.2862 92.0861 1.00607 94.2048 0.671197C94.7909 0.57782 95.4187 0.735595 96.0273 0.774234C96.0434 0.993187 96.0595 1.21858 96.0756 1.43431C95.4477 1.65327 94.8295 1.87866 94.2048 2.09117C94.8295 1.87866 95.4477 1.64683 96.0756 1.43431C96.0659 1.2862 96.0498 1.14774 96.0434 0.999627C97.341 0.91269 98.6773 0.90625 100.007 0.993187C100.242 0.845071 100.468 0.725935 100.687 0.751695C102.831 0.983528 104.966 1.32806 107.094 1.64683C118.087 3.28898 128.98 5.41733 139.734 8.26051C147.256 10.2568 154.63 12.6879 161.684 16.0301C166.556 18.3388 170.214 21.7744 172.436 26.6751C174.345 30.89 176.251 35.1145 178.051 39.3776C178.55 40.569 179.207 41.1679 180.476 41.535C182.726 42.1822 184.926 43.0483 187.06 43.9982C187.904 44.3717 188.709 45.1123 189.218 45.8915C190.148 47.3405 189.498 48.8216 187.691 49.3368Z" fill="black"/>
</g>
<path d="M179.081 50.3416C179.043 50.2868 179.004 50.2321 178.949 50.1709C177.526 51.5651 176.18 52.9658 174.744 54.2699C159.26 68.2635 142.407 80.3414 123.921 90.1041C122.707 90.7449 121.503 91.4146 120.325 92.1069C119.97 92.3194 119.697 92.6607 119.127 93.1824C119.384 93.1985 119.587 93.2307 119.761 93.2532C119.355 93.5108 118.93 93.7523 118.502 93.9712L118.032 89.6083C118.119 89.663 118.212 89.7081 118.328 89.7467C118.486 89.6147 118.766 89.4827 118.76 89.3668C118.251 81.4394 117.726 73.5088 117.179 65.5846C117.14 64.9664 116.921 64.3739 116.783 63.7686C116.647 63.7589 116.522 63.7525 116.39 63.7525C116.313 62.9893 116.319 62.2552 116.319 61.5082C117.44 61.3504 118.534 61.0703 119.587 60.6968C120.917 60.8835 122.012 60.2299 123.116 59.6761C127.589 57.464 131.623 54.5564 135.667 51.6746C145.356 44.7615 155.006 37.8033 164.022 30.0175C164.756 29.3864 165.406 28.6394 166.025 27.8828C166.195 27.6799 166.179 27.3225 166.282 26.7139C167.322 25.7319 167.915 24.4246 167.963 23.0754C169.119 24.431 170.075 25.983 170.809 27.7668C173.141 33.4306 175.549 39.0655 177.941 44.7067C178.247 45.4248 178.56 46.1557 179.027 46.7643C179.223 47.0219 179.513 47.0991 179.77 47.0444C180.108 48.0973 179.754 49.3659 179.081 50.3416ZM178.801 67.7194C179.426 65.2014 179.848 62.6384 180.443 59.7372C179.841 60.0657 179.551 60.1526 179.355 60.3394C166.611 72.5718 152.285 82.6887 137.255 91.8912C132.959 94.5251 128.526 96.8917 123.834 98.7399C123.226 98.9814 122.569 99.503 121.748 98.9814C121.2 99.2293 120.653 99.4708 120.089 99.6737C120.128 99.722 120.16 99.7671 120.199 99.8154C119.98 99.9313 119.777 100.047 119.574 100.157L119.532 102.105C119.558 102.105 119.581 102.098 119.603 102.098C119.793 102.378 120.128 102.652 120.151 102.939C120.244 104.233 120.37 105.55 120.276 106.835C119.838 112.425 119.33 117.995 118.847 123.581C118.776 124.37 118.612 125.124 117.726 125.874C117.43 126.917 117.002 127.928 116.618 128.959C117.517 128.756 118.399 128.389 119.291 127.883C129.121 122.281 138.717 116.321 147.961 109.781C156.468 103.766 164.302 96.9464 172.062 90.0365C172.538 89.6147 172.938 88.9353 173.814 88.9611C174.165 88.3364 174.429 87.6184 174.635 86.8714C174.625 86.881 174.609 86.8875 174.602 86.9036C174.47 86.8488 174.335 86.7876 174.197 86.7329C174.29 85.9988 174.297 85.2518 174.477 84.5498C175.906 78.9472 177.41 73.3446 178.801 67.7194Z" fill="#DBDBDB"/>
<path d="M118.041 89.5987L118.508 93.9617C118.103 94.1645 117.687 94.3448 117.265 94.4704C117.288 94.4157 117.32 94.361 117.343 94.3062C116.827 94.1967 116.422 94.0551 116.016 94.0261C114.709 93.9488 113.389 94.01 112.097 93.8458C101.259 92.4676 90.5692 90.2395 80.098 87.1773C56.6926 80.3351 33.6542 72.4946 11.7137 61.7401C11.2114 61.4986 10.7188 61.0865 9.82688 61.4761C8.49062 60.6035 8.05272 58.9195 8.66128 57.5478C8.78042 57.7668 8.98327 57.9793 9.3117 58.3141C9.73351 57.6283 10.1553 57.0036 10.5224 56.35C13.4106 51.166 16.1926 45.924 19.1968 40.8108C21.2221 37.359 23.6692 34.3291 26.4834 31.6855C26.9922 33.479 28.6504 34.9988 30.5341 35.6138C30.5276 35.6364 30.518 35.6525 30.5115 35.675C31.9959 36.4542 33.4191 37.3751 34.9679 37.9966C41.0921 40.4372 47.2293 42.8618 53.4083 45.1447C73.1688 52.4443 93.5154 57.6895 114.084 62.1716C114.342 62.2231 114.638 62.0911 115.037 62.0235C114.976 61.8657 114.896 61.7337 114.812 61.6242C115.327 61.6081 115.826 61.563 116.328 61.4922C116.328 62.2328 116.319 62.9733 116.399 63.7365C116.328 63.7365 116.264 63.73 116.193 63.73C116.116 64.1196 115.961 64.5157 115.984 64.9053C116.312 70.6335 116.663 76.3585 117.024 82.0802C117.149 84.0283 117.288 85.9828 117.5 87.9244C117.555 88.5007 117.452 89.2091 118.041 89.5987ZM117.259 126.238C117.178 125.14 117.04 124.448 117.101 123.784C117.578 118.993 118.125 114.199 118.602 109.408C118.782 107.592 118.808 105.769 118.93 103.947C118.972 103.344 119.11 102.752 119.204 102.153C119.313 102.137 119.432 102.131 119.542 102.114L119.58 100.166C119.345 100.298 119.11 100.414 118.869 100.501C115.765 101.538 112.59 101.583 109.367 101.171C96.7449 99.574 84.4771 96.441 72.293 92.9023C70.4158 92.3582 68.5386 91.8108 66.6549 91.2666C63.6765 94.493 60.1024 95.5459 55.9649 94.1967C52.3071 93.0054 48.6847 91.6788 45.0655 90.3779C44.3925 90.1364 43.7518 89.7855 43.1175 89.4506C39.9813 87.7762 39.7945 87.2997 40.841 83.8641C40.9344 83.5614 40.9988 83.2491 41.1082 82.8273C40.1455 82.4602 39.2471 82.1028 38.3391 81.7679C28.9467 78.3323 19.6733 74.5907 10.7413 70.0797C9.67233 69.5323 8.6162 68.943 7.57617 68.3345L8.09136 70.392C8.20083 70.2439 8.35861 70.0861 8.5679 69.938C8.88989 70.6399 9.23442 71.2324 9.42118 71.8699C10.5385 75.5503 11.6107 79.2338 12.728 82.9142C13.8485 86.5913 15.0045 90.2524 16.1154 93.9327C16.3246 94.6411 16.389 95.3881 16.5533 96.3315C16.505 96.3315 16.4663 96.3251 16.4277 96.3154C16.7175 96.8306 17.062 97.3136 17.4516 97.7579C17.9539 97.2589 18.4852 97.4295 18.9843 97.6163C19.4061 97.7805 19.7989 98.0381 20.1821 98.2892C32.4274 105.972 45.6354 111.575 59.2717 116.25C72.3252 120.729 85.5783 124.486 99.147 127.049C103.958 127.961 108.852 128.437 113.707 129.091C114.725 129.232 115.678 129.184 116.609 128.975C117.001 127.954 117.423 126.933 117.719 125.887C117.587 126.006 117.43 126.122 117.259 126.238Z" fill="#EDEDED"/>
<path d="M187.685 49.2982C187.389 49.8038 187.083 50.2868 186.738 50.7375C186.684 50.6055 186.606 50.4574 186.503 50.3093C186.075 50.6989 185.763 50.9179 185.518 51.2044C178.708 59.3894 170.677 66.2832 162.215 72.6586C149.835 81.977 137.026 90.6579 123.013 97.4229C122.427 97.703 121.934 98.186 121.332 98.6304C121.48 98.7785 121.612 98.8944 121.754 98.9813C121.207 99.2293 120.659 99.4708 120.096 99.6736C119.494 98.9266 118.863 99.387 118.315 99.416C116.039 99.5513 113.724 100.073 111.502 99.7992C106.318 99.1617 101.14 98.3406 96.0432 97.2587C83.4438 94.5797 71.1115 90.8833 58.8824 86.8874C44.2833 82.1187 29.8066 77.0377 15.887 70.5013C11.3759 68.389 6.90346 66.2221 2.9623 63.1277C2.67251 62.9023 2.29578 62.7864 1.86754 62.5739C1.68078 62.8476 1.57774 63.0826 1.54555 63.2984C1.28795 62.809 1.20102 62.1843 1.21068 61.6015C1.39743 61.5242 1.57774 61.4147 1.68722 61.2827C2.31188 60.5486 2.72081 59.5504 3.46139 59.0063C5.02626 57.86 6.74569 56.9326 8.51342 55.8507C8.47478 56.8328 8.45868 57.2063 8.65509 57.5573C8.05297 58.929 8.48122 60.6033 9.8207 61.4856C9.72732 61.5242 9.63394 61.5693 9.5309 61.6337C10.2811 62.194 10.7963 62.6769 11.392 63.0022C13.5654 64.1871 15.7228 65.4364 17.9767 66.4571C29.6424 71.7377 41.5915 76.3197 53.7208 80.4444C71.2307 86.398 88.8725 91.8911 107.265 94.4992C109.915 94.876 112.597 95.0305 115.273 95.1947C115.913 95.2334 116.757 95.4362 117.266 94.4703C118.125 94.2127 118.972 93.7458 119.761 93.2531C120.012 93.2853 120.183 93.3079 120.325 93.2531C121.3 92.8796 122.295 92.5287 123.2 92.0231C128.387 89.1156 133.658 86.3336 138.701 83.2006C150.946 75.5952 162.496 67.0463 173.17 57.3609C175.15 55.5706 176.901 53.5195 178.714 51.5651C178.981 51.2753 179.452 50.9179 179.075 50.3576C179.748 49.382 180.092 48.1198 179.754 47.0604C180.038 46.9896 180.286 46.7577 180.327 46.3907C180.389 45.8304 180.224 45.2444 180.121 44.6745C180.022 44.1625 179.864 43.6538 179.629 42.7586C181.921 43.6699 183.831 44.3557 185.666 45.1832C187.646 46.0719 187.707 46.2812 187.582 48.4482C187.575 48.6736 187.637 48.9151 187.685 49.2982ZM30.5279 35.6201C30.5826 35.4494 30.6374 35.2788 30.6921 35.1081C31.027 35.1081 31.4037 35.0212 31.6999 35.121C32.6852 35.4591 33.6641 35.8391 34.6236 36.2512C56.6542 45.6501 79.3867 52.8981 102.705 58.3687C106.263 59.1994 109.815 60.0881 113.363 60.9607C113.856 61.0863 114.419 61.1185 114.812 61.6337C116.477 61.5854 118.071 61.2344 119.603 60.6903C119.558 60.6806 119.503 60.6742 119.455 60.6645C119.478 60.4649 119.455 60.2749 119.52 60.2363C121.918 58.9354 124.475 57.8696 126.713 56.3337C138.81 48.0747 150.72 39.5645 161.839 30.011C162.834 29.161 163.771 28.2497 164.766 27.3997C165.123 27.097 165.571 26.9103 166.337 26.4498C166.321 26.5432 166.305 26.6205 166.289 26.7074C167.329 25.7253 167.924 24.4148 167.969 23.0689C166.157 20.9406 163.858 19.2952 161.153 17.9879C153.763 14.417 146.019 11.8765 138.105 9.80614C126.97 6.89213 115.662 4.77988 104.286 3.06367C102.995 2.87047 101.704 2.61932 100.445 2.27801C100.039 2.16853 99.7494 1.65335 99.4048 1.31848C99.5916 1.2251 99.788 1.09309 99.9844 0.967511C98.6546 0.883794 97.3248 0.890233 96.0207 0.977171C96.0271 1.12529 96.0432 1.26374 96.0497 1.41186C95.2125 1.70165 94.3914 2.02042 93.5478 2.26191C79.5734 6.37695 65.686 10.756 52.4007 16.803C46.9945 19.2662 41.672 21.9065 36.4074 24.666C32.7239 26.5883 29.4009 28.9195 26.4676 31.6789C26.9763 33.4789 28.6346 35.0051 30.5279 35.6201ZM42.493 83.3487C42.3417 83.7931 42.2258 84.0893 42.1324 84.4016C41.4595 86.6073 41.4981 86.8938 43.6554 87.8598C46.0897 88.961 48.5754 89.9721 51.1095 90.8318C53.4472 91.6239 55.8556 92.2807 58.2802 92.7862C60.6179 93.2757 62.5885 92.3644 64.3626 90.6031C56.9826 88.1496 49.7732 85.7572 42.493 83.3487Z" fill="white"/>
</svg>
