<svg width="276" height="244" viewBox="0 0 276 244" fill="none" xmlns="http://www.w3.org/2000/svg">
<path d="M269.058 196.141C267.554 206.396 265.865 214.606 264.282 218.843C259.083 232.868 242.746 241.575 242.746 241.575C240.846 232.313 243.353 226.06 248.526 221.677C253.936 206.981 260.877 200.669 269.058 196.141Z" fill="#8D5524"/>
<path d="M272.144 116.113C259.529 107.757 248.656 133.732 255.174 152.724C242.216 173.878 237.994 196.522 248.524 221.678C256.811 215.133 263.25 207.391 269.056 196.142C272.487 172.475 274.862 137.939 272.144 116.113Z" fill="#CCA16D"/>
<path d="M266.421 41.6953C247.604 50.1686 245.334 65.6249 256.049 86.545L255.178 152.724C255.178 152.724 269.614 137.151 272.147 116.114C274.681 95.1352 271.91 64.0764 266.421 41.6953Z" fill="#8D5524"/>
<mask id="mask0_491_22" style="mask-type:luminance" maskUnits="userSpaceOnUse" x="0" y="181" width="249" height="61">
<path d="M0 181.879H248.975V241.717H0V181.879Z" fill="white"/>
</mask>
<g mask="url(#mask0_491_22)">
<path d="M5.41225 192.222C91.2103 173.552 172.39 182.61 248.529 221.674C246.892 228.423 244.966 235.085 242.749 241.572L5.25391 209.812L5.41225 192.222Z" fill="#C68642"/>
</g>
<mask id="mask1_491_22" style="mask-type:luminance" maskUnits="userSpaceOnUse" x="0" y="107" width="256" height="120">
<path d="M0 107.082H255.731V226.759H0V107.082Z" fill="white"/>
</mask>
<g mask="url(#mask1_491_22)">
<path d="M255.177 152.72C255.626 168.03 254.94 182.844 253.04 197.161C251.931 205.517 250.427 213.669 248.527 221.675L5.41041 192.223L5.80628 154.386C5.83268 151.581 6.43967 148.805 7.54811 146.263C8.73571 143.575 10.0553 139.835 9.65941 137.147C8.97323 132.443 4.77702 131.625 3.61581 127.71C2.42819 123.824 5.25207 118.331 5.25207 118.331C99.7328 106.906 184.106 116.227 255.177 152.72Z" fill="#F1C27D"/>
</g>
<path d="M267.45 50.811C267.582 61.8847 263.914 73.9225 256.049 86.5447C169.829 97.9982 87.6728 91.1904 9.66016 65.683L231.532 2.48438C250.85 12.1556 262.884 25.5959 266.368 41.4613C266.395 41.5489 266.421 41.6074 266.421 41.695C267.081 44.646 267.424 47.7139 267.45 50.811Z" fill="#C57742"/>
<mask id="mask2_491_22" style="mask-type:luminance" maskUnits="userSpaceOnUse" x="0" y="62" width="263" height="98">
<path d="M0 62.207H262.488V159.445H0V62.207Z" fill="white"/>
</mask>
<g mask="url(#mask2_491_22)">
<path d="M256.05 86.5453C258.267 97.2683 259.27 108.284 259.059 119.649C258.848 130.372 257.555 141.417 255.179 152.724L5.25391 118.335C8.71117 111.264 10.7433 103.579 11.535 95.3691C12.4059 86.1362 11.7198 76.2021 9.66125 65.6836L256.05 86.5453Z" fill="#FFDBAC"/>
</g>
<mask id="mask3_491_22" style="mask-type:luminance" maskUnits="userSpaceOnUse" x="0" y="204" width="249" height="38">
<path d="M0 204.324H248.975V241.723H0V204.324Z" fill="white"/>
</mask>
<g mask="url(#mask3_491_22)">
<path d="M135.231 207.945L248.529 221.678C246.892 228.427 244.966 235.089 242.749 241.575L5.25391 209.815C59.4352 216.594 101.925 214.87 135.231 207.945Z" fill="#B7783E"/>
</g>
<path d="M255.179 152.725C255.627 168.035 254.941 182.848 253.041 197.165C251.933 205.522 250.428 213.673 248.528 221.679L135.23 207.947C187.564 197.078 217.228 173.411 234.039 149.832L255.179 152.725Z" fill="#DDAF73"/>
<path d="M256.049 86.543C258.266 97.266 259.269 108.281 259.058 119.647C258.847 130.37 257.554 141.414 255.178 152.722L234.039 149.829C256.656 118.098 256.049 86.543 256.049 86.543Z" fill="#EAC79D"/>
<mask id="mask4_491_22" style="mask-type:luminance" maskUnits="userSpaceOnUse" x="0" y="0" width="276" height="244">
<path d="M0 0H276V244H0V0Z" fill="white"/>
</mask>
<g mask="url(#mask4_491_22)">
<path d="M3.61799 154.388L3.06377 209.786C3.06377 211.042 3.8819 212.065 4.99033 212.211L242.512 244C242.591 244 242.67 244 242.776 244C243.092 244 243.409 243.942 243.699 243.766C244.412 243.386 260.827 234.475 266.29 219.749C271.912 204.643 278.061 146.791 274.34 116.113C276.741 95.6307 274.366 64.8933 268.534 41.0806C267.056 34.2727 264.1 27.8448 259.693 21.9427C253.385 13.4695 244.201 6.19419 232.43 0.292143C231.982 0.0583986 231.48 -3.5651e-05 231.005 0.146053L9.10737 63.3447C8.07811 63.6369 7.39195 64.718 7.4975 65.9159C7.4975 66.0035 7.5239 66.0912 7.5239 66.2081C9.58241 76.6974 10.1894 86.3978 9.37129 95.1047C8.57955 103.14 6.57381 110.561 3.32768 117.164C2.93181 117.982 0.13434 123.768 1.53308 128.472C2.24564 130.868 3.72355 132.299 4.99033 133.585C6.38907 134.958 7.25998 135.893 7.4975 137.529C7.73503 139.136 7.04885 141.941 5.59733 145.214C4.33055 148.077 3.64438 151.262 3.61799 154.388ZM7.57668 194.914L245.732 223.781C244.438 228.923 242.96 234.007 241.324 238.945L7.44472 207.682L7.57668 194.914ZM246.814 236.199C248.133 231.904 249.347 227.55 250.429 223.138C256.077 218.58 260.748 213.555 264.918 207.477C264.021 212.035 263.123 215.629 262.279 217.908C259.218 226.177 251.828 232.605 246.814 236.199ZM266.977 195.264C262.701 203.504 258.004 209.961 252.145 215.483C253.385 209.581 254.388 203.591 255.206 197.514C257.053 183.548 257.766 168.793 257.397 153.687C259.613 151.116 266.633 142.38 271.014 130.108C271.78 150.882 269.695 176.565 266.977 195.264ZM269.985 115.791C268.586 127.508 263.229 137.588 259.033 143.899C260.326 135.689 261.091 127.566 261.223 119.677C261.434 108.545 260.458 97.5883 258.373 87.0406C263.282 78.9764 266.607 71.0291 268.296 63.3155C270.935 81.8982 271.674 101.737 269.985 115.791ZM231.348 5.05469C249.796 14.4629 261.039 27.1728 264.285 42.1032C264.311 42.2201 264.337 42.3077 264.364 42.4246C264.918 45.1419 265.235 47.976 265.288 50.8686C265.419 61.3287 261.936 72.49 254.969 84.0311L22.9892 64.3966L231.348 5.05469ZM13.6995 95.6307C14.4912 87.3035 14.0425 78.1291 12.3535 68.341L254.256 88.8229C256.183 98.757 257.08 109.1 256.869 119.589C256.684 129.436 255.549 139.691 253.491 150.064L8.57955 116.346C11.2715 110.006 12.9869 103.052 13.6995 95.6307ZM5.67651 126.952C5.17507 125.229 5.88764 122.657 6.52103 120.934L253.042 154.885C253.385 169.319 252.646 183.431 250.904 196.813C249.901 204.351 248.555 211.772 246.893 219.048L7.62946 190.063L7.97255 154.417C7.99894 152.022 8.52676 149.567 9.50324 147.347C11.4298 142.993 12.1952 139.458 11.7993 136.77C11.2978 133.322 9.42407 131.452 7.89337 129.962C6.83772 128.91 6.01959 128.092 5.67651 126.952ZM20.1389 139.166C20.3501 137.851 21.4585 136.945 22.6461 137.179L31.1177 138.727C32.3053 138.932 33.1234 140.188 32.9123 141.503C32.754 142.701 31.8303 143.519 30.7746 143.519C30.669 143.519 30.5371 143.519 30.4315 143.49L21.9599 141.971C20.7723 141.737 19.9542 140.51 20.1389 139.166ZM46.2135 147.58C45.8176 146.324 46.4246 144.951 47.5859 144.512L55.1338 141.708C56.2686 141.269 57.509 141.941 57.8785 143.227C58.2743 144.483 57.6673 145.857 56.5061 146.295L48.9582 149.1C48.7471 149.187 48.5095 149.246 48.272 149.246C47.3483 149.246 46.5038 148.603 46.2135 147.58ZM27.291 163.767L36.2112 158.303C37.2669 157.661 38.5864 158.07 39.167 159.238C39.7477 160.407 39.3782 161.897 38.3225 162.54L29.3759 168.004C29.0592 168.208 28.6897 168.325 28.3466 168.325C27.5813 168.325 26.8159 167.858 26.4201 167.069C25.8394 165.9 26.2353 164.41 27.291 163.767ZM37.0557 185.155C36.7918 186.236 35.9209 186.937 34.9708 186.937C34.7597 186.937 34.575 186.908 34.3638 186.82L24.1504 183.577C22.9892 183.226 22.303 181.882 22.6461 180.597C22.9628 179.311 24.1768 178.552 25.338 178.931L35.5778 182.175C36.7127 182.554 37.3988 183.869 37.0557 185.155ZM57.0339 179.136L68.5669 181.882C69.7281 182.145 70.4935 183.431 70.2296 184.746C70.0184 185.885 69.1211 186.674 68.1183 186.674C67.9599 186.674 67.8016 186.645 67.6696 186.616L56.1102 183.898C54.949 183.606 54.1837 182.321 54.4476 181.006C54.6851 179.691 55.8463 178.873 57.0339 179.136ZM60.3856 160.495L66.007 165.491C66.9307 166.309 67.089 167.858 66.3501 168.88C65.9014 169.494 65.268 169.786 64.6346 169.786C64.1596 169.786 63.6845 169.64 63.2887 169.26L57.6673 164.264C56.7172 163.417 56.5589 161.897 57.3242 160.845C58.0632 159.823 59.4355 159.647 60.3856 160.495ZM91.0787 163.037C91.8176 161.985 93.19 161.81 94.1401 162.657L99.735 167.653C100.685 168.501 100.843 170.02 100.078 171.072C99.6559 171.656 99.0225 171.977 98.3891 171.977C97.914 171.977 97.439 171.802 97.0167 171.452L91.3954 166.426C90.4717 165.608 90.3133 164.089 91.0787 163.037ZM86.7505 177.149L93.7178 187.025C94.4568 188.077 94.2984 189.596 93.3483 190.443C92.9525 190.765 92.4774 190.94 92.0288 190.94C91.369 190.94 90.7356 190.619 90.3133 190.034L83.3196 180.159C82.5807 179.107 82.7654 177.558 83.6891 176.74C84.6392 175.922 86.0116 176.097 86.7505 177.149ZM109.368 151.875C108.814 150.678 109.236 149.217 110.292 148.603C111.374 147.989 112.693 148.457 113.247 149.626L116.493 156.609C117.048 157.777 116.625 159.238 115.57 159.852C115.253 160.056 114.91 160.144 114.567 160.144C113.775 160.144 113.01 159.677 112.64 158.829L109.368 151.875ZM114.514 180.597L125.203 176.565C126.337 176.126 127.578 176.798 127.974 178.084C128.343 179.34 127.736 180.714 126.601 181.152L115.913 185.155C115.702 185.272 115.464 185.301 115.227 185.301C114.329 185.301 113.458 184.658 113.168 183.665C112.772 182.379 113.379 181.006 114.514 180.597ZM131.774 154.359C131.405 153.073 132.038 151.729 133.173 151.32C134.334 150.911 135.548 151.612 135.917 152.898L137.712 159.122C138.082 160.407 137.448 161.78 136.313 162.189C136.076 162.248 135.865 162.306 135.654 162.306C134.73 162.306 133.859 161.634 133.569 160.612L131.774 154.359ZM156.397 169.698C157.11 168.647 158.482 168.413 159.458 169.202L166.083 174.724C167.033 175.513 167.244 177.032 166.531 178.113C166.083 178.727 165.449 179.077 164.763 179.077C164.314 179.077 163.866 178.931 163.47 178.61L156.846 173.088C155.869 172.299 155.685 170.78 156.397 169.698ZM140.166 187.112C140.721 185.944 142.04 185.476 143.096 186.09L149.958 190.093C151.013 190.706 151.436 192.167 150.881 193.336C150.485 194.183 149.72 194.651 148.928 194.651C148.585 194.651 148.242 194.563 147.926 194.358L141.09 190.385C140.008 189.771 139.612 188.31 140.166 187.112ZM73.8452 151.203C73.2646 150.035 73.6604 148.574 74.7161 147.931L82.5015 143.256C83.5836 142.643 84.8767 143.081 85.4573 144.25C86.0379 145.418 85.6421 146.908 84.5864 147.522L76.7746 152.197C76.4579 152.401 76.1148 152.489 75.7454 152.489C74.98 152.489 74.2411 152.022 73.8452 151.203ZM175.372 195.644L183.316 191.495C184.398 190.94 185.691 191.466 186.219 192.664C186.721 193.891 186.246 195.323 185.164 195.878L177.22 200.027C176.903 200.202 176.613 200.261 176.296 200.261C175.478 200.261 174.686 199.764 174.317 198.887C173.815 197.66 174.264 196.228 175.372 195.644ZM173.842 159.005C173.551 157.69 174.264 156.375 175.425 156.054C176.586 155.732 177.774 156.521 178.064 157.807L180.228 167.303C180.519 168.617 179.806 169.932 178.645 170.254C178.46 170.312 178.302 170.341 178.117 170.341C177.141 170.341 176.243 169.582 176.006 168.501L173.842 159.005ZM195.905 163.592C195.008 162.686 194.981 161.138 195.799 160.173C196.617 159.18 197.99 159.122 198.861 160.056L204.772 166.163C205.643 167.069 205.696 168.617 204.878 169.582C204.429 170.107 203.849 170.341 203.268 170.341C202.74 170.341 202.212 170.137 201.79 169.698L195.905 163.592ZM236.574 168.647C237.26 167.536 238.606 167.244 239.609 167.975L244.623 171.685C245.626 172.445 245.89 173.935 245.23 175.045C244.808 175.747 244.095 176.126 243.409 176.126C242.987 176.126 242.565 176.01 242.195 175.717L237.181 172.007C236.178 171.276 235.914 169.757 236.574 168.647ZM228.524 199.238C228.234 197.923 228.92 196.608 230.082 196.258L239.82 193.424C240.981 193.102 242.169 193.862 242.459 195.147C242.776 196.462 242.09 197.777 240.902 198.128L231.19 200.962C231.005 201.02 230.821 201.049 230.636 201.049C229.686 201.049 228.788 200.319 228.524 199.238ZM212.769 204.234C212.901 205.549 212.056 206.776 210.869 206.922L203.189 207.886C203.11 207.916 203.031 207.916 202.951 207.916C201.843 207.916 200.919 207.01 200.787 205.783C200.655 204.439 201.5 203.241 202.687 203.095L210.367 202.101C211.555 201.955 212.637 202.89 212.769 204.234ZM206.831 188.018L212.531 192.489C213.508 193.248 213.745 194.768 213.033 195.849C212.611 196.521 211.951 196.9 211.265 196.9C210.816 196.9 210.394 196.754 209.998 196.433L204.324 191.963C203.321 191.203 203.083 189.684 203.796 188.603C204.482 187.492 205.854 187.229 206.831 188.018ZM218.311 177.792C217.493 176.798 217.519 175.279 218.39 174.344C219.261 173.438 220.66 173.468 221.478 174.432L226.967 180.889C227.812 181.853 227.786 183.402 226.915 184.307C226.492 184.746 225.938 184.979 225.41 184.979C224.83 184.979 224.249 184.717 223.827 184.22L218.311 177.792Z" fill="#3A322B"/>
</g>
</svg>
