<svg width="308" height="275" viewBox="0 0 308 275" fill="none" xmlns="http://www.w3.org/2000/svg">
<mask id="mask0_407_108" style="mask-type:luminance" maskUnits="userSpaceOnUse" x="0" y="0" width="250" height="184">
<path d="M0 0H250V183.333H0V0Z" fill="white"/>
</mask>
<g mask="url(#mask0_407_108)">
<path d="M249.661 20.0052L238.203 0.166667L238.109 0H79.4166L0.161438 137.349L0.067688 137.51L26.3698 183.083C26.5573 182.943 26.7239 182.802 26.9114 182.656L0.84373 137.51L79.7916 0.661458H237.714L249.073 20.3385C249.26 20.2448 249.448 20.125 249.661 20.0052Z" fill="black"/>
</g>
<mask id="mask1_407_108" style="mask-type:luminance" maskUnits="userSpaceOnUse" x="164" y="152" width="145" height="123">
<path d="M164.667 152.666H308V274.999H164.667V152.666Z" fill="white"/>
</mask>
<g mask="url(#mask1_407_108)">
<path d="M307.365 153.635L237.714 274.338H165C165 274.551 165 274.786 165 274.999H238.109L307.932 153.963C307.745 153.895 307.557 153.755 307.365 153.635Z" fill="black"/>
</g>
<path d="M230.255 13.9329L230.161 13.7715H167.823C167.823 13.985 167.844 14.2194 167.844 14.4277H229.76L300.781 137.49L229.76 260.548H87.7448L16.724 137.511L47.2344 84.6204L46.6927 84.2194L16.0677 137.35L15.9688 137.511L87.2708 261.089L87.3698 261.256H230.161L301.464 137.678L301.557 137.511L230.255 13.9329Z" fill="black"/>
</svg>
