<svg width="280" height="302" viewBox="0 0 280 302" fill="none" xmlns="http://www.w3.org/2000/svg">
<path d="M274.686 141.646L139.728 4.6665L4.78516 141.646H274.686Z" fill="white"/>
<mask id="mask0_488_28" style="mask-type:luminance" maskUnits="userSpaceOnUse" x="0" y="0" width="280" height="147">
<path d="M0 0H279.151V146.667H0V0Z" fill="white"/>
</mask>
<g mask="url(#mask0_488_28)">
<path d="M15.3742 137.213H264.103L139.728 10.979L15.3742 137.213ZM274.687 146.083H4.78564C3.00439 146.083 1.38981 145.005 0.697101 143.359C0.00960088 141.708 0.379393 139.807 1.62939 138.531L136.577 1.55713C138.244 -0.135579 141.223 -0.135579 142.89 1.55713L277.843 138.531C279.098 139.807 279.463 141.708 278.775 143.359C278.088 145.005 276.468 146.083 274.687 146.083Z" fill="#231F20"/>
</g>
<path d="M249.832 276.682H31.7227V4.6665H249.832V276.682Z" fill="#F8F49C"/>
<path d="M36.1484 272.245H245.398V9.09896H36.1484V272.245ZM249.831 281.109H31.7214C29.2734 281.109 27.2891 279.13 27.2891 276.682V4.66667C27.2891 2.21875 29.2734 0.234375 31.7214 0.234375H249.831C252.279 0.234375 254.263 2.21875 254.263 4.66667V276.682C254.263 279.13 252.279 281.109 249.831 281.109Z" fill="#231F20"/>
<path d="M182.525 235.422H97.1498L4.78516 296.563H274.686L182.525 235.422Z" fill="#F5F071"/>
<mask id="mask1_488_28" style="mask-type:luminance" maskUnits="userSpaceOnUse" x="0" y="230" width="280" height="72">
<path d="M0 230.667H279.151V301.01H0V230.667Z" fill="white"/>
</mask>
<g mask="url(#mask1_488_28)">
<path d="M19.5121 292.13H259.986L181.189 239.854H98.4861L19.5121 292.13ZM274.689 301H4.78817C2.83504 301 1.11108 299.713 0.543375 297.844C-0.0191252 295.969 0.710042 293.948 2.34546 292.87L94.7048 231.734C95.434 231.25 96.283 230.995 97.1528 230.995H182.528C183.398 230.995 184.247 231.25 184.97 231.734L277.137 292.87C278.767 293.948 279.491 295.979 278.929 297.844C278.366 299.713 276.642 301 274.689 301Z" fill="#231F20"/>
</g>
<path d="M4.78516 141.646L97.1497 235.422L4.78516 296.563V141.646Z" fill="#F6F058"/>
<mask id="mask2_488_28" style="mask-type:luminance" maskUnits="userSpaceOnUse" x="0" y="136" width="102" height="166">
<path d="M0 136H101.818V301.01H0V136Z" fill="white"/>
</mask>
<g mask="url(#mask2_488_28)">
<path d="M9.22005 152.458V288.318L90.2201 234.708L9.22005 152.458ZM4.78776 301C4.06901 301 3.34505 300.823 2.69401 300.469C1.25651 299.698 0.355469 298.198 0.355469 296.562V141.646C0.355469 139.849 1.44401 138.229 3.11068 137.547C4.77214 136.854 6.67839 137.255 7.94401 138.531L100.309 232.312C101.241 233.26 101.699 234.568 101.559 235.885C101.423 237.203 100.704 238.391 99.5951 239.125L7.23047 300.266C6.49088 300.75 5.64193 301 4.78776 301Z" fill="#231F20"/>
</g>
<path d="M182.523 235.422L274.685 141.646V296.563L182.523 235.422Z" fill="#F5F071"/>
<mask id="mask3_488_28" style="mask-type:luminance" maskUnits="userSpaceOnUse" x="177" y="136" width="103" height="166">
<path d="M177.816 136H279.15V301.01H177.816V136Z" fill="white"/>
</mask>
<g mask="url(#mask3_488_28)">
<path d="M189.447 234.708L270.254 288.302V152.479L189.447 234.708ZM274.686 301C273.832 301 272.978 300.75 272.239 300.261L180.072 239.115C178.973 238.391 178.254 237.203 178.119 235.886C177.978 234.568 178.436 233.261 179.364 232.323L271.525 138.542C272.791 137.261 274.697 136.86 276.364 137.542C278.03 138.229 279.119 139.844 279.119 141.646V296.563C279.119 298.198 278.218 299.698 276.785 300.469C276.124 300.823 275.405 301 274.686 301Z" fill="#231F20"/>
</g>
</svg>
