<svg width="2088" height="3199" viewBox="0 0 2088 3199" fill="none" xmlns="http://www.w3.org/2000/svg">
<rect width="2088" height="3199" fill="#5CB25C"/>
<path d="M1142.47 946.727V1674H1054.4V1039.06H1050.14L872.58 1156.95V1067.47L1054.4 946.727H1142.47Z" fill="white"/>
<path d="M81.642 2178V2171.61C81.642 2169.67 81.9853 2167.61 82.6719 2165.43C83.3821 2163.23 84.4001 2161.11 85.7259 2159.07C87.0753 2157.01 88.697 2155.23 90.5909 2153.71L95.1364 2157.4C93.6449 2159.53 92.3428 2161.76 91.2301 2164.08C90.1411 2166.38 89.5966 2168.84 89.5966 2171.47V2178H81.642ZM99.8239 2178V2171.61C99.8239 2169.67 100.167 2167.61 100.854 2165.43C101.564 2163.23 102.582 2161.11 103.908 2159.07C105.257 2157.01 106.879 2155.23 108.773 2153.71L113.318 2157.4C111.827 2159.53 110.525 2161.76 109.412 2164.08C108.323 2166.38 107.778 2168.84 107.778 2171.47V2178H99.8239ZM123.705 2228V2155.27H149.131C154.198 2155.27 158.376 2156.15 161.667 2157.9C164.958 2159.63 167.408 2161.96 169.018 2164.9C170.628 2167.81 171.433 2171.04 171.433 2174.59C171.433 2177.72 170.876 2180.3 169.763 2182.33C168.674 2184.37 167.23 2185.98 165.431 2187.16C163.656 2188.35 161.726 2189.22 159.643 2189.79V2190.5C161.868 2190.64 164.105 2191.42 166.354 2192.84C168.603 2194.26 170.486 2196.3 172.001 2198.95C173.516 2201.6 174.273 2204.85 174.273 2208.68C174.273 2212.33 173.445 2215.61 171.788 2218.52C170.13 2221.43 167.514 2223.74 163.94 2225.44C160.365 2227.15 155.713 2228 149.984 2228H123.705ZM132.512 2220.19H149.984C155.737 2220.19 159.82 2219.07 162.235 2216.85C164.674 2214.6 165.893 2211.88 165.893 2208.68C165.893 2206.22 165.265 2203.95 164.011 2201.86C162.756 2199.76 160.969 2198.08 158.648 2196.82C156.328 2195.54 153.582 2194.9 150.41 2194.9H132.512V2220.19ZM132.512 2187.23H148.847C151.499 2187.23 153.89 2186.71 156.021 2185.67C158.175 2184.63 159.879 2183.16 161.134 2181.27C162.413 2179.37 163.052 2177.15 163.052 2174.59C163.052 2171.39 161.939 2168.68 159.714 2166.46C157.488 2164.21 153.961 2163.09 149.131 2163.09H132.512V2187.23ZM210.477 2229.14C205.222 2229.14 200.688 2227.98 196.876 2225.66C193.089 2223.31 190.165 2220.05 188.105 2215.86C186.069 2211.64 185.051 2206.74 185.051 2201.15C185.051 2195.57 186.069 2190.64 188.105 2186.38C190.165 2182.1 193.029 2178.76 196.699 2176.37C200.392 2173.95 204.701 2172.74 209.625 2172.74C212.466 2172.74 215.271 2173.22 218.041 2174.16C220.811 2175.11 223.332 2176.65 225.605 2178.78C227.878 2180.89 229.689 2183.68 231.038 2187.16C232.388 2190.64 233.062 2194.93 233.062 2200.02V2203.57H191.017V2196.32H224.54C224.54 2193.25 223.924 2190.5 222.693 2188.09C221.486 2185.67 219.758 2183.76 217.509 2182.37C215.283 2180.97 212.655 2180.27 209.625 2180.27C206.287 2180.27 203.399 2181.1 200.96 2182.76C198.545 2184.39 196.687 2186.52 195.385 2189.15C194.083 2191.78 193.432 2194.6 193.432 2197.6V2202.43C193.432 2206.55 194.142 2210.04 195.562 2212.91C197.007 2215.75 199.007 2217.91 201.564 2219.41C204.121 2220.87 207.092 2221.61 210.477 2221.61C212.679 2221.61 214.668 2221.3 216.443 2220.68C218.242 2220.05 219.793 2219.1 221.095 2217.84C222.397 2216.57 223.403 2214.98 224.114 2213.09L232.21 2215.36C231.358 2218.1 229.926 2220.52 227.913 2222.6C225.901 2224.66 223.415 2226.27 220.456 2227.43C217.497 2228.57 214.17 2229.14 210.477 2229.14ZM245.811 2228V2173.45H254.192V2228H245.811ZM250.072 2164.36C248.439 2164.36 247.03 2163.81 245.847 2162.69C244.687 2161.58 244.107 2160.24 244.107 2158.68C244.107 2157.12 244.687 2155.78 245.847 2154.67C247.03 2153.56 248.439 2153 250.072 2153C251.706 2153 253.103 2153.56 254.263 2154.67C255.446 2155.78 256.038 2157.12 256.038 2158.68C256.038 2160.24 255.446 2161.58 254.263 2162.69C253.103 2163.81 251.706 2164.36 250.072 2164.36ZM277.922 2195.19V2228H269.542V2173.45H277.638V2181.98H278.348C279.627 2179.21 281.568 2176.98 284.172 2175.3C286.776 2173.6 290.138 2172.74 294.257 2172.74C297.951 2172.74 301.182 2173.5 303.952 2175.02C306.722 2176.51 308.876 2178.78 310.415 2181.84C311.954 2184.87 312.723 2188.7 312.723 2193.34V2228H304.343V2193.91C304.343 2189.62 303.23 2186.29 301.005 2183.89C298.779 2181.48 295.725 2180.27 291.843 2180.27C289.167 2180.27 286.776 2180.85 284.669 2182.01C282.586 2183.17 280.941 2184.87 279.733 2187.09C278.526 2189.32 277.922 2192.02 277.922 2195.19ZM350.055 2249.59C346.006 2249.59 342.526 2249.07 339.614 2248.03C336.702 2247.01 334.276 2245.66 332.335 2243.98C330.417 2242.32 328.89 2240.55 327.754 2238.65L334.43 2233.97C335.187 2234.96 336.146 2236.1 337.306 2237.38C338.466 2238.68 340.052 2239.8 342.065 2240.75C344.101 2241.72 346.764 2242.2 350.055 2242.2C354.458 2242.2 358.092 2241.14 360.957 2239.01C363.821 2236.88 365.254 2233.54 365.254 2228.99V2217.91H364.543C363.928 2218.91 363.052 2220.14 361.915 2221.61C360.803 2223.05 359.193 2224.34 357.086 2225.48C355.003 2226.59 352.185 2227.15 348.634 2227.15C344.231 2227.15 340.277 2226.11 336.773 2224.02C333.293 2221.94 330.535 2218.91 328.499 2214.93C326.487 2210.95 325.481 2206.12 325.481 2200.44C325.481 2194.86 326.463 2189.99 328.428 2185.85C330.393 2181.68 333.128 2178.46 336.631 2176.19C340.135 2173.89 344.183 2172.74 348.776 2172.74C352.327 2172.74 355.145 2173.34 357.228 2174.52C359.335 2175.68 360.945 2177.01 362.058 2178.5C363.194 2179.96 364.07 2181.17 364.685 2182.12H365.538V2173.45H373.634V2229.56C373.634 2234.25 372.569 2238.06 370.438 2241C368.331 2243.96 365.49 2246.12 361.915 2247.5C358.364 2248.89 354.411 2249.59 350.055 2249.59ZM349.771 2219.62C353.132 2219.62 355.973 2218.85 358.293 2217.31C360.613 2215.77 362.377 2213.56 363.585 2210.67C364.792 2207.78 365.396 2204.33 365.396 2200.3C365.396 2196.37 364.804 2192.9 363.62 2189.9C362.436 2186.89 360.684 2184.53 358.364 2182.83C356.044 2181.12 353.18 2180.27 349.771 2180.27C346.219 2180.27 343.26 2181.17 340.893 2182.97C338.549 2184.77 336.785 2187.19 335.602 2190.22C334.442 2193.25 333.862 2196.61 333.862 2200.3C333.862 2204.09 334.453 2207.44 335.637 2210.35C336.844 2213.24 338.62 2215.51 340.964 2217.17C343.331 2218.8 346.267 2219.62 349.771 2219.62ZM425.481 2195.19V2228H417.1V2173.45H425.197V2181.98H425.907C427.185 2179.21 429.127 2176.98 431.731 2175.3C434.335 2173.6 437.697 2172.74 441.816 2172.74C445.509 2172.74 448.741 2173.5 451.511 2175.02C454.281 2176.51 456.435 2178.78 457.974 2181.84C459.513 2184.87 460.282 2188.7 460.282 2193.34V2228H451.901V2193.91C451.901 2189.62 450.789 2186.29 448.563 2183.89C446.338 2181.48 443.284 2180.27 439.401 2180.27C436.726 2180.27 434.335 2180.85 432.228 2182.01C430.145 2183.17 428.499 2184.87 427.292 2187.09C426.085 2189.32 425.481 2192.02 425.481 2195.19ZM509.971 2205.7V2173.45H518.352V2228H509.971V2218.77H509.403C508.125 2221.54 506.136 2223.89 503.437 2225.83C500.738 2227.75 497.329 2228.71 493.21 2228.71C489.801 2228.71 486.77 2227.96 484.119 2226.47C481.467 2224.96 479.384 2222.69 477.869 2219.65C476.354 2216.6 475.596 2212.75 475.596 2208.11V2173.45H483.977V2207.55C483.977 2211.52 485.09 2214.7 487.315 2217.06C489.564 2219.43 492.429 2220.61 495.909 2220.61C497.992 2220.61 500.111 2220.08 502.265 2219.02C504.443 2217.95 506.266 2216.32 507.734 2214.12C509.225 2211.91 509.971 2209.11 509.971 2205.7ZM533.702 2228V2173.45H541.798V2181.98H542.509C543.645 2179.07 545.48 2176.8 548.013 2175.19C550.546 2173.56 553.588 2172.74 557.139 2172.74C560.738 2172.74 563.732 2173.56 566.124 2175.19C568.538 2176.8 570.42 2179.07 571.77 2181.98H572.338C573.735 2179.16 575.83 2176.92 578.624 2175.27C581.417 2173.58 584.767 2172.74 588.673 2172.74C593.55 2172.74 597.539 2174.27 600.641 2177.33C603.742 2180.36 605.293 2185.08 605.293 2191.49V2228H596.912V2191.49C596.912 2187.47 595.811 2184.59 593.609 2182.87C591.408 2181.14 588.815 2180.27 585.832 2180.27C581.997 2180.27 579.026 2181.43 576.919 2183.75C574.812 2186.05 573.759 2188.96 573.759 2192.49V2228H565.236V2190.64C565.236 2187.54 564.23 2185.04 562.217 2183.15C560.205 2181.23 557.613 2180.27 554.44 2180.27C552.262 2180.27 550.226 2180.85 548.332 2182.01C546.462 2183.17 544.947 2184.78 543.787 2186.84C542.651 2188.88 542.082 2191.23 542.082 2193.91V2228H533.702ZM621.752 2228V2155.27H630.133V2182.12H630.843C631.459 2181.17 632.311 2179.96 633.4 2178.5C634.513 2177.01 636.099 2175.68 638.158 2174.52C640.242 2173.34 643.059 2172.74 646.61 2172.74C651.203 2172.74 655.251 2173.89 658.755 2176.19C662.259 2178.49 664.993 2181.74 666.958 2185.95C668.923 2190.17 669.906 2195.14 669.906 2200.87C669.906 2206.65 668.923 2211.65 666.958 2215.89C664.993 2220.1 662.271 2223.37 658.79 2225.69C655.31 2227.99 651.298 2229.14 646.752 2229.14C643.248 2229.14 640.443 2228.56 638.336 2227.4C636.229 2226.21 634.607 2224.87 633.471 2223.38C632.335 2221.87 631.459 2220.61 630.843 2219.62H629.849V2228H621.752ZM629.991 2200.73C629.991 2204.85 630.594 2208.48 631.802 2211.63C633.009 2214.75 634.773 2217.2 637.093 2218.98C639.413 2220.73 642.254 2221.61 645.616 2221.61C649.12 2221.61 652.043 2220.68 654.387 2218.84C656.754 2216.97 658.53 2214.46 659.714 2211.31C660.921 2208.14 661.525 2204.61 661.525 2200.73C661.525 2196.89 660.933 2193.44 659.749 2190.36C658.589 2187.26 656.826 2184.81 654.458 2183.01C652.114 2181.18 649.167 2180.27 645.616 2180.27C642.207 2180.27 639.342 2181.14 637.022 2182.87C634.702 2184.57 632.95 2186.96 631.766 2190.04C630.583 2193.09 629.991 2196.66 629.991 2200.73ZM705.594 2229.14C700.339 2229.14 695.805 2227.98 691.994 2225.66C688.206 2223.31 685.282 2220.05 683.222 2215.86C681.186 2211.64 680.168 2206.74 680.168 2201.15C680.168 2195.57 681.186 2190.64 683.222 2186.38C685.282 2182.1 688.147 2178.76 691.816 2176.37C695.509 2173.95 699.818 2172.74 704.742 2172.74C707.583 2172.74 710.388 2173.22 713.158 2174.16C715.928 2175.11 718.45 2176.65 720.722 2178.78C722.995 2180.89 724.806 2183.68 726.156 2187.16C727.505 2190.64 728.18 2194.93 728.18 2200.02V2203.57H686.134V2196.32H719.657C719.657 2193.25 719.041 2190.5 717.81 2188.09C716.603 2185.67 714.875 2183.76 712.626 2182.37C710.4 2180.97 707.772 2180.27 704.742 2180.27C701.404 2180.27 698.516 2181.1 696.077 2182.76C693.663 2184.39 691.804 2186.52 690.502 2189.15C689.2 2191.78 688.549 2194.6 688.549 2197.6V2202.43C688.549 2206.55 689.259 2210.04 690.68 2212.91C692.124 2215.75 694.124 2217.91 696.681 2219.41C699.238 2220.87 702.209 2221.61 705.594 2221.61C707.796 2221.61 709.785 2221.3 711.56 2220.68C713.36 2220.05 714.91 2219.1 716.212 2217.84C717.514 2216.57 718.521 2214.98 719.231 2213.09L727.327 2215.36C726.475 2218.1 725.043 2220.52 723.031 2222.6C721.018 2224.66 718.532 2226.27 715.573 2227.43C712.614 2228.57 709.288 2229.14 705.594 2229.14ZM740.928 2228V2173.45H749.025V2181.69H749.593C750.587 2178.99 752.387 2176.8 754.991 2175.12C757.595 2173.44 760.531 2172.6 763.798 2172.6C764.413 2172.6 765.183 2172.61 766.106 2172.64C767.029 2172.66 767.728 2172.7 768.201 2172.74V2181.27C767.917 2181.2 767.266 2181.09 766.248 2180.95C765.254 2180.78 764.2 2180.7 763.087 2180.7C760.436 2180.7 758.068 2181.26 755.985 2182.37C753.925 2183.46 752.292 2184.97 751.085 2186.91C749.901 2188.83 749.309 2191.02 749.309 2193.48V2228H740.928ZM828.419 2229.14C823.495 2229.14 819.175 2227.96 815.458 2225.62C811.765 2223.28 808.876 2220 806.793 2215.78C804.733 2211.57 803.703 2206.65 803.703 2201.01C803.703 2195.33 804.733 2190.37 806.793 2186.13C808.876 2181.89 811.765 2178.6 815.458 2176.26C819.175 2173.92 823.495 2172.74 828.419 2172.74C833.344 2172.74 837.652 2173.92 841.346 2176.26C845.062 2178.6 847.951 2181.89 850.01 2186.13C852.094 2190.37 853.135 2195.33 853.135 2201.01C853.135 2206.65 852.094 2211.57 850.01 2215.78C847.951 2220 845.062 2223.28 841.346 2225.62C837.652 2227.96 833.344 2229.14 828.419 2229.14ZM828.419 2221.61C832.16 2221.61 835.238 2220.65 837.652 2218.73C840.067 2216.81 841.855 2214.29 843.015 2211.17C844.175 2208.04 844.755 2204.66 844.755 2201.01C844.755 2197.37 844.175 2193.97 843.015 2190.82C841.855 2187.67 840.067 2185.13 837.652 2183.18C835.238 2181.24 832.16 2180.27 828.419 2180.27C824.679 2180.27 821.601 2181.24 819.186 2183.18C816.772 2185.13 814.984 2187.67 813.824 2190.82C812.664 2193.97 812.084 2197.37 812.084 2201.01C812.084 2204.66 812.664 2208.04 813.824 2211.17C814.984 2214.29 816.772 2216.81 819.186 2218.73C821.601 2220.65 824.679 2221.61 828.419 2221.61ZM874.309 2195.19V2228H865.928V2173.45H874.025V2181.98H874.735C876.013 2179.21 877.955 2176.98 880.559 2175.3C883.163 2173.6 886.525 2172.74 890.644 2172.74C894.337 2172.74 897.569 2173.5 900.339 2175.02C903.109 2176.51 905.263 2178.78 906.802 2181.84C908.341 2184.87 909.11 2188.7 909.11 2193.34V2228H900.729V2193.91C900.729 2189.62 899.617 2186.29 897.391 2183.89C895.166 2181.48 892.112 2180.27 888.229 2180.27C885.554 2180.27 883.163 2180.85 881.056 2182.01C878.973 2183.17 877.327 2184.87 876.12 2187.09C874.913 2189.32 874.309 2192.02 874.309 2195.19ZM947.294 2229.14C942.038 2229.14 937.504 2227.98 933.693 2225.66C929.905 2223.31 926.981 2220.05 924.922 2215.86C922.886 2211.64 921.868 2206.74 921.868 2201.15C921.868 2195.57 922.886 2190.64 924.922 2186.38C926.981 2182.1 929.846 2178.76 933.515 2176.37C937.208 2173.95 941.517 2172.74 946.441 2172.74C949.282 2172.74 952.088 2173.22 954.858 2174.16C957.627 2175.11 960.149 2176.65 962.422 2178.78C964.694 2180.89 966.505 2183.68 967.855 2187.16C969.204 2190.64 969.879 2194.93 969.879 2200.02V2203.57H927.833V2196.32H961.356C961.356 2193.25 960.741 2190.5 959.51 2188.09C958.302 2185.67 956.574 2183.76 954.325 2182.37C952.1 2180.97 949.472 2180.27 946.441 2180.27C943.103 2180.27 940.215 2181.1 937.777 2182.76C935.362 2184.39 933.503 2186.52 932.201 2189.15C930.899 2191.78 930.248 2194.6 930.248 2197.6V2202.43C930.248 2206.55 930.958 2210.04 932.379 2212.91C933.823 2215.75 935.824 2217.91 938.38 2219.41C940.937 2220.87 943.908 2221.61 947.294 2221.61C949.495 2221.61 951.484 2221.3 953.26 2220.68C955.059 2220.05 956.609 2219.1 957.912 2217.84C959.214 2216.57 960.22 2214.98 960.93 2213.09L969.027 2215.36C968.174 2218.1 966.742 2220.52 964.73 2222.6C962.717 2224.66 960.232 2226.27 957.272 2227.43C954.313 2228.57 950.987 2229.14 947.294 2229.14ZM1010.75 2228V2173.45H1019.13V2228H1010.75ZM1015.01 2164.36C1013.38 2164.36 1011.97 2163.81 1010.79 2162.69C1009.63 2161.58 1009.05 2160.24 1009.05 2158.68C1009.05 2157.12 1009.63 2155.78 1010.79 2154.67C1011.97 2153.56 1013.38 2153 1015.01 2153C1016.65 2153 1018.04 2153.56 1019.2 2154.67C1020.39 2155.78 1020.98 2157.12 1020.98 2158.68C1020.98 2160.24 1020.39 2161.58 1019.2 2162.69C1018.04 2163.81 1016.65 2164.36 1015.01 2164.36ZM1073.12 2185.67L1065.59 2187.8C1065.12 2186.55 1064.42 2185.33 1063.5 2184.14C1062.6 2182.94 1061.37 2181.94 1059.8 2181.16C1058.24 2180.38 1056.24 2179.99 1053.8 2179.99C1050.46 2179.99 1047.68 2180.76 1045.46 2182.3C1043.25 2183.81 1042.15 2185.74 1042.15 2188.09C1042.15 2190.17 1042.91 2191.81 1044.43 2193.02C1045.94 2194.23 1048.31 2195.23 1051.53 2196.04L1059.62 2198.03C1064.5 2199.21 1068.14 2201.02 1070.53 2203.46C1072.92 2205.88 1074.11 2208.99 1074.11 2212.8C1074.11 2215.93 1073.21 2218.72 1071.41 2221.18C1069.64 2223.64 1067.15 2225.59 1063.96 2227.01C1060.76 2228.43 1057.04 2229.14 1052.81 2229.14C1047.24 2229.14 1042.64 2227.93 1038.99 2225.51C1035.35 2223.1 1033.04 2219.57 1032.07 2214.93L1040.02 2212.94C1040.78 2215.88 1042.21 2218.08 1044.32 2219.55C1046.45 2221.02 1049.23 2221.75 1052.66 2221.75C1056.57 2221.75 1059.67 2220.92 1061.97 2219.26C1064.29 2217.58 1065.45 2215.57 1065.45 2213.23C1065.45 2211.33 1064.79 2209.75 1063.46 2208.47C1062.13 2207.17 1060.1 2206.2 1057.35 2205.56L1048.26 2203.43C1043.27 2202.24 1039.6 2200.41 1037.25 2197.92C1034.93 2195.41 1033.77 2192.28 1033.77 2188.51C1033.77 2185.43 1034.64 2182.71 1036.37 2180.34C1038.12 2177.98 1040.5 2176.12 1043.5 2174.77C1046.53 2173.42 1049.97 2172.74 1053.8 2172.74C1059.2 2172.74 1063.44 2173.93 1066.51 2176.3C1069.62 2178.66 1071.82 2181.79 1073.12 2185.67ZM1137.01 2229.14C1132.09 2229.14 1127.77 2227.96 1124.05 2225.62C1120.36 2223.28 1117.47 2220 1115.39 2215.78C1113.33 2211.57 1112.3 2206.65 1112.3 2201.01C1112.3 2195.33 1113.33 2190.37 1115.39 2186.13C1117.47 2181.89 1120.36 2178.6 1124.05 2176.26C1127.77 2173.92 1132.09 2172.74 1137.01 2172.74C1141.94 2172.74 1146.25 2173.92 1149.94 2176.26C1153.66 2178.6 1156.54 2181.89 1158.6 2186.13C1160.69 2190.37 1161.73 2195.33 1161.73 2201.01C1161.73 2206.65 1160.69 2211.57 1158.6 2215.78C1156.54 2220 1153.66 2223.28 1149.94 2225.62C1146.25 2227.96 1141.94 2229.14 1137.01 2229.14ZM1137.01 2221.61C1140.75 2221.61 1143.83 2220.65 1146.25 2218.73C1148.66 2216.81 1150.45 2214.29 1151.61 2211.17C1152.77 2208.04 1153.35 2204.66 1153.35 2201.01C1153.35 2197.37 1152.77 2193.97 1151.61 2190.82C1150.45 2187.67 1148.66 2185.13 1146.25 2183.18C1143.83 2181.24 1140.75 2180.27 1137.01 2180.27C1133.27 2180.27 1130.19 2181.24 1127.78 2183.18C1125.37 2185.13 1123.58 2187.67 1122.42 2190.82C1121.26 2193.97 1120.68 2197.37 1120.68 2201.01C1120.68 2204.66 1121.26 2208.04 1122.42 2211.17C1123.58 2214.29 1125.37 2216.81 1127.78 2218.73C1130.19 2220.65 1133.27 2221.61 1137.01 2221.61ZM1198.81 2173.45V2180.56H1169.41V2173.45H1198.81ZM1178.22 2228V2165.93C1178.22 2162.8 1178.95 2160.2 1180.42 2158.11C1181.88 2156.03 1183.79 2154.47 1186.13 2153.43C1188.48 2152.38 1190.95 2151.86 1193.56 2151.86C1195.62 2151.86 1197.3 2152.03 1198.6 2152.36C1199.9 2152.69 1200.87 2153 1201.51 2153.28L1199.1 2160.53C1198.67 2160.39 1198.08 2160.21 1197.32 2160C1196.59 2159.78 1195.62 2159.68 1194.41 2159.68C1191.64 2159.68 1189.64 2160.37 1188.41 2161.77C1187.2 2163.17 1186.6 2165.22 1186.6 2167.91V2228H1178.22ZM1234.28 2173.45V2180.56H1206.01V2173.45H1234.28ZM1214.25 2160.39H1222.63V2212.38C1222.63 2214.74 1222.97 2216.52 1223.66 2217.7C1224.37 2218.86 1225.27 2219.64 1226.36 2220.05C1227.47 2220.42 1228.64 2220.61 1229.88 2220.61C1230.8 2220.61 1231.56 2220.57 1232.15 2220.47C1232.74 2220.35 1233.21 2220.26 1233.57 2220.19L1235.27 2227.72C1234.7 2227.93 1233.91 2228.14 1232.89 2228.36C1231.88 2228.59 1230.59 2228.71 1229.02 2228.71C1226.66 2228.71 1224.34 2228.2 1222.06 2227.18C1219.81 2226.17 1217.94 2224.61 1216.45 2222.53C1214.98 2220.45 1214.25 2217.82 1214.25 2214.65V2160.39ZM1269.17 2229.14C1263.91 2229.14 1259.38 2227.98 1255.57 2225.66C1251.78 2223.31 1248.86 2220.05 1246.8 2215.86C1244.76 2211.64 1243.74 2206.74 1243.74 2201.15C1243.74 2195.57 1244.76 2190.64 1246.8 2186.38C1248.86 2182.1 1251.72 2178.76 1255.39 2176.37C1259.08 2173.95 1263.39 2172.74 1268.32 2172.74C1271.16 2172.74 1273.96 2173.22 1276.73 2174.16C1279.5 2175.11 1282.02 2176.65 1284.3 2178.78C1286.57 2180.89 1288.38 2183.68 1289.73 2187.16C1291.08 2190.64 1291.75 2194.93 1291.75 2200.02V2203.57H1249.71V2196.32H1283.23C1283.23 2193.25 1282.62 2190.5 1281.38 2188.09C1280.18 2185.67 1278.45 2183.76 1276.2 2182.37C1273.97 2180.97 1271.35 2180.27 1268.32 2180.27C1264.98 2180.27 1262.09 2181.1 1259.65 2182.76C1257.24 2184.39 1255.38 2186.52 1254.08 2189.15C1252.77 2191.78 1252.12 2194.6 1252.12 2197.6V2202.43C1252.12 2206.55 1252.83 2210.04 1254.25 2212.91C1255.7 2215.75 1257.7 2217.91 1260.26 2219.41C1262.81 2220.87 1265.78 2221.61 1269.17 2221.61C1271.37 2221.61 1273.36 2221.3 1275.13 2220.68C1276.93 2220.05 1278.48 2219.1 1279.79 2217.84C1281.09 2216.57 1282.09 2214.98 1282.81 2213.09L1290.9 2215.36C1290.05 2218.1 1288.62 2220.52 1286.6 2222.6C1284.59 2224.66 1282.11 2226.27 1279.15 2227.43C1276.19 2228.57 1272.86 2229.14 1269.17 2229.14ZM1312.88 2195.19V2228H1304.5V2173.45H1312.6V2181.98H1313.31C1314.59 2179.21 1316.53 2176.98 1319.13 2175.3C1321.74 2173.6 1325.1 2172.74 1329.22 2172.74C1332.91 2172.74 1336.14 2173.5 1338.91 2175.02C1341.68 2176.51 1343.84 2178.78 1345.38 2181.84C1346.91 2184.87 1347.68 2188.7 1347.68 2193.34V2228H1339.3V2193.91C1339.3 2189.62 1338.19 2186.29 1335.97 2183.89C1333.74 2181.48 1330.69 2180.27 1326.8 2180.27C1324.13 2180.27 1321.74 2180.85 1319.63 2182.01C1317.55 2183.17 1315.9 2184.87 1314.69 2187.09C1313.49 2189.32 1312.88 2192.02 1312.88 2195.19ZM1407.17 2229.28C1403.72 2229.28 1400.58 2228.63 1397.76 2227.33C1394.95 2226 1392.71 2224.09 1391.05 2221.61C1389.4 2219.1 1388.57 2216.07 1388.57 2212.52C1388.57 2209.39 1389.18 2206.86 1390.41 2204.92C1391.64 2202.95 1393.29 2201.41 1395.35 2200.3C1397.41 2199.19 1399.68 2198.36 1402.17 2197.82C1404.68 2197.25 1407.2 2196.8 1409.73 2196.47C1413.05 2196.04 1415.73 2195.72 1417.79 2195.51C1419.88 2195.27 1421.39 2194.88 1422.34 2194.34C1423.31 2193.79 1423.79 2192.84 1423.79 2191.49V2191.21C1423.79 2187.71 1422.84 2184.98 1420.92 2183.04C1419.02 2181.1 1416.15 2180.13 1412.29 2180.13C1408.29 2180.13 1405.15 2181.01 1402.88 2182.76C1400.61 2184.51 1399.01 2186.38 1398.08 2188.37L1390.13 2185.53C1391.55 2182.21 1393.44 2179.63 1395.81 2177.79C1398.2 2175.92 1400.81 2174.61 1403.62 2173.88C1406.46 2173.12 1409.26 2172.74 1412 2172.74C1413.76 2172.74 1415.77 2172.96 1418.04 2173.38C1420.34 2173.79 1422.55 2174.63 1424.68 2175.9C1426.84 2177.18 1428.62 2179.11 1430.04 2181.69C1431.46 2184.27 1432.17 2187.73 1432.17 2192.06V2228H1423.79V2220.61H1423.37C1422.8 2221.8 1421.85 2223.06 1420.53 2224.41C1419.2 2225.76 1417.44 2226.91 1415.24 2227.86C1413.03 2228.8 1410.35 2229.28 1407.17 2229.28ZM1408.45 2221.75C1411.77 2221.75 1414.56 2221.1 1416.83 2219.8C1419.13 2218.49 1420.86 2216.81 1422.02 2214.75C1423.2 2212.69 1423.79 2210.53 1423.79 2208.26V2200.59C1423.44 2201.01 1422.66 2201.4 1421.45 2201.76C1420.27 2202.09 1418.89 2202.38 1417.33 2202.64C1415.79 2202.88 1414.29 2203.09 1412.82 2203.28C1411.38 2203.45 1410.21 2203.59 1409.31 2203.71C1407.13 2203.99 1405.09 2204.46 1403.2 2205.1C1401.33 2205.71 1399.81 2206.65 1398.65 2207.9C1397.52 2209.13 1396.95 2210.81 1396.95 2212.94C1396.95 2215.86 1398.02 2218.06 1400.18 2219.55C1402.36 2221.02 1405.12 2221.75 1408.45 2221.75ZM1497.61 2249.59C1493.56 2249.59 1490.08 2249.07 1487.17 2248.03C1484.26 2247.01 1481.83 2245.66 1479.89 2243.98C1477.98 2242.32 1476.45 2240.55 1475.31 2238.65L1481.99 2233.97C1482.75 2234.96 1483.7 2236.1 1484.86 2237.38C1486.02 2238.68 1487.61 2239.8 1489.62 2240.75C1491.66 2241.72 1494.32 2242.2 1497.61 2242.2C1502.02 2242.2 1505.65 2241.14 1508.52 2239.01C1511.38 2236.88 1512.81 2233.54 1512.81 2228.99V2217.91H1512.1C1511.49 2218.91 1510.61 2220.14 1509.47 2221.61C1508.36 2223.05 1506.75 2224.34 1504.64 2225.48C1502.56 2226.59 1499.74 2227.15 1496.19 2227.15C1491.79 2227.15 1487.84 2226.11 1484.33 2224.02C1480.85 2221.94 1478.09 2218.91 1476.06 2214.93C1474.05 2210.95 1473.04 2206.12 1473.04 2200.44C1473.04 2194.86 1474.02 2189.99 1475.99 2185.85C1477.95 2181.68 1480.69 2178.46 1484.19 2176.19C1487.69 2173.89 1491.74 2172.74 1496.33 2172.74C1499.89 2172.74 1502.7 2173.34 1504.79 2174.52C1506.89 2175.68 1508.5 2177.01 1509.62 2178.5C1510.75 2179.96 1511.63 2181.17 1512.24 2182.12H1513.1V2173.45H1521.19V2229.56C1521.19 2234.25 1520.13 2238.06 1518 2241C1515.89 2243.96 1513.05 2246.12 1509.47 2247.5C1505.92 2248.89 1501.97 2249.59 1497.61 2249.59ZM1497.33 2219.62C1500.69 2219.62 1503.53 2218.85 1505.85 2217.31C1508.17 2215.77 1509.94 2213.56 1511.14 2210.67C1512.35 2207.78 1512.95 2204.33 1512.95 2200.3C1512.95 2196.37 1512.36 2192.9 1511.18 2189.9C1509.99 2186.89 1508.24 2184.53 1505.92 2182.83C1503.6 2181.12 1500.74 2180.27 1497.33 2180.27C1493.78 2180.27 1490.82 2181.17 1488.45 2182.97C1486.11 2184.77 1484.34 2187.19 1483.16 2190.22C1482 2193.25 1481.42 2196.61 1481.42 2200.3C1481.42 2204.09 1482.01 2207.44 1483.2 2210.35C1484.4 2213.24 1486.18 2215.51 1488.52 2217.17C1490.89 2218.8 1493.83 2219.62 1497.33 2219.62ZM1536.53 2228V2173.45H1544.63V2181.69H1545.2C1546.19 2178.99 1547.99 2176.8 1550.6 2175.12C1553.2 2173.44 1556.14 2172.6 1559.4 2172.6C1560.02 2172.6 1560.79 2172.61 1561.71 2172.64C1562.63 2172.66 1563.33 2172.7 1563.81 2172.74V2181.27C1563.52 2181.2 1562.87 2181.09 1561.85 2180.95C1560.86 2180.78 1559.81 2180.7 1558.69 2180.7C1556.04 2180.7 1553.67 2181.26 1551.59 2182.37C1549.53 2183.46 1547.9 2184.97 1546.69 2186.91C1545.51 2188.83 1544.91 2191.02 1544.91 2193.48V2228H1536.53ZM1594.95 2229.14C1589.69 2229.14 1585.16 2227.98 1581.35 2225.66C1577.56 2223.31 1574.64 2220.05 1572.58 2215.86C1570.54 2211.64 1569.52 2206.74 1569.52 2201.15C1569.52 2195.57 1570.54 2190.64 1572.58 2186.38C1574.64 2182.1 1577.5 2178.76 1581.17 2176.37C1584.86 2173.95 1589.17 2172.74 1594.1 2172.74C1596.94 2172.74 1599.74 2173.22 1602.51 2174.16C1605.28 2175.11 1607.81 2176.65 1610.08 2178.78C1612.35 2180.89 1614.16 2183.68 1615.51 2187.16C1616.86 2190.64 1617.54 2194.93 1617.54 2200.02V2203.57H1575.49V2196.32H1609.01C1609.01 2193.25 1608.4 2190.5 1607.17 2188.09C1605.96 2185.67 1604.23 2183.76 1601.98 2182.37C1599.76 2180.97 1597.13 2180.27 1594.1 2180.27C1590.76 2180.27 1587.87 2181.1 1585.43 2182.76C1583.02 2184.39 1581.16 2186.52 1579.86 2189.15C1578.56 2191.78 1577.9 2194.6 1577.9 2197.6V2202.43C1577.9 2206.55 1578.61 2210.04 1580.04 2212.91C1581.48 2215.75 1583.48 2217.91 1586.04 2219.41C1588.59 2220.87 1591.56 2221.61 1594.95 2221.61C1597.15 2221.61 1599.14 2221.3 1600.92 2220.68C1602.72 2220.05 1604.27 2219.1 1605.57 2217.84C1606.87 2216.57 1607.88 2214.98 1608.59 2213.09L1616.68 2215.36C1615.83 2218.1 1614.4 2220.52 1612.39 2222.6C1610.37 2224.66 1607.89 2226.27 1604.93 2227.43C1601.97 2228.57 1598.64 2229.14 1594.95 2229.14ZM1646.33 2229.28C1642.88 2229.28 1639.74 2228.63 1636.92 2227.33C1634.11 2226 1631.87 2224.09 1630.21 2221.61C1628.56 2219.1 1627.73 2216.07 1627.73 2212.52C1627.73 2209.39 1628.34 2206.86 1629.57 2204.92C1630.8 2202.95 1632.45 2201.41 1634.51 2200.3C1636.57 2199.19 1638.84 2198.36 1641.33 2197.82C1643.84 2197.25 1646.36 2196.8 1648.89 2196.47C1652.21 2196.04 1654.89 2195.72 1656.95 2195.51C1659.04 2195.27 1660.55 2194.88 1661.5 2194.34C1662.47 2193.79 1662.95 2192.84 1662.95 2191.49V2191.21C1662.95 2187.71 1662 2184.98 1660.08 2183.04C1658.18 2181.1 1655.31 2180.13 1651.45 2180.13C1647.45 2180.13 1644.31 2181.01 1642.04 2182.76C1639.77 2184.51 1638.17 2186.38 1637.24 2188.37L1629.29 2185.53C1630.71 2182.21 1632.6 2179.63 1634.97 2177.79C1637.36 2175.92 1639.97 2174.61 1642.78 2173.88C1645.62 2173.12 1648.42 2172.74 1651.16 2172.74C1652.92 2172.74 1654.93 2172.96 1657.2 2173.38C1659.5 2173.79 1661.71 2174.63 1663.84 2175.9C1666 2177.18 1667.78 2179.11 1669.2 2181.69C1670.62 2184.27 1671.33 2187.73 1671.33 2192.06V2228H1662.95V2220.61H1662.53C1661.96 2221.8 1661.01 2223.06 1659.69 2224.41C1658.36 2225.76 1656.6 2226.91 1654.4 2227.86C1652.19 2228.8 1649.51 2229.28 1646.33 2229.28ZM1647.61 2221.75C1650.93 2221.75 1653.72 2221.1 1655.99 2219.8C1658.29 2218.49 1660.02 2216.81 1661.18 2214.75C1662.36 2212.69 1662.95 2210.53 1662.95 2208.26V2200.59C1662.6 2201.01 1661.82 2201.4 1660.61 2201.76C1659.43 2202.09 1658.05 2202.38 1656.49 2202.64C1654.95 2202.88 1653.45 2203.09 1651.98 2203.28C1650.54 2203.45 1649.37 2203.59 1648.47 2203.71C1646.29 2203.99 1644.25 2204.46 1642.36 2205.1C1640.49 2205.71 1638.97 2206.65 1637.81 2207.9C1636.68 2209.13 1636.11 2210.81 1636.11 2212.94C1636.11 2215.86 1637.18 2218.06 1639.34 2219.55C1641.52 2221.02 1644.28 2221.75 1647.61 2221.75ZM1710.35 2173.45V2180.56H1682.09V2173.45H1710.35ZM1690.32 2160.39H1698.71V2212.38C1698.71 2214.74 1699.05 2216.52 1699.74 2217.7C1700.45 2218.86 1701.34 2219.64 1702.43 2220.05C1703.55 2220.42 1704.72 2220.61 1705.95 2220.61C1706.87 2220.61 1707.63 2220.57 1708.22 2220.47C1708.81 2220.35 1709.29 2220.26 1709.64 2220.19L1711.35 2227.72C1710.78 2227.93 1709.99 2228.14 1708.97 2228.36C1707.95 2228.59 1706.66 2228.71 1705.1 2228.71C1702.73 2228.71 1700.41 2228.2 1698.14 2227.18C1695.89 2226.17 1694.02 2224.61 1692.53 2222.53C1691.06 2220.45 1690.32 2217.82 1690.32 2214.65V2160.39ZM1774.81 2173.45V2180.56H1746.54V2173.45H1774.81ZM1754.78 2160.39H1763.16V2212.38C1763.16 2214.74 1763.5 2216.52 1764.19 2217.7C1764.9 2218.86 1765.8 2219.64 1766.89 2220.05C1768 2220.42 1769.17 2220.61 1770.4 2220.61C1771.33 2220.61 1772.08 2220.57 1772.68 2220.47C1773.27 2220.35 1773.74 2220.26 1774.1 2220.19L1775.8 2227.72C1775.23 2227.93 1774.44 2228.14 1773.42 2228.36C1772.4 2228.59 1771.11 2228.71 1769.55 2228.71C1767.18 2228.71 1764.86 2228.2 1762.59 2227.18C1760.34 2226.17 1758.47 2224.61 1756.98 2222.53C1755.51 2220.45 1754.78 2217.82 1754.78 2214.65V2160.39ZM1796.97 2195.19V2228H1788.58V2155.27H1796.97V2181.98H1797.68C1798.95 2179.16 1800.87 2176.92 1803.43 2175.27C1806.01 2173.58 1809.44 2172.74 1813.73 2172.74C1817.44 2172.74 1820.7 2173.49 1823.49 2174.98C1826.29 2176.45 1828.45 2178.71 1829.99 2181.76C1831.55 2184.79 1832.33 2188.65 1832.33 2193.34V2228H1823.95V2193.91C1823.95 2189.58 1822.83 2186.23 1820.58 2183.86C1818.35 2181.47 1815.27 2180.27 1811.31 2180.27C1808.57 2180.27 1806.1 2180.85 1803.93 2182.01C1801.77 2183.17 1800.07 2184.87 1798.81 2187.09C1797.58 2189.32 1796.97 2192.02 1796.97 2195.19ZM1847.67 2228V2173.45H1856.05V2228H1847.67ZM1851.93 2164.36C1850.29 2164.36 1848.89 2163.81 1847.7 2162.69C1846.54 2161.58 1845.96 2160.24 1845.96 2158.68C1845.96 2157.12 1846.54 2155.78 1847.7 2154.67C1848.89 2153.56 1850.29 2153 1851.93 2153C1853.56 2153 1854.96 2153.56 1856.12 2154.67C1857.3 2155.78 1857.89 2157.12 1857.89 2158.68C1857.89 2160.24 1857.3 2161.58 1856.12 2162.69C1854.96 2163.81 1853.56 2164.36 1851.93 2164.36ZM1879.78 2195.19V2228H1871.4V2173.45H1879.49V2181.98H1880.2C1881.48 2179.21 1883.42 2176.98 1886.03 2175.3C1888.63 2173.6 1891.99 2172.74 1896.11 2172.74C1899.81 2172.74 1903.04 2173.5 1905.81 2175.02C1908.58 2176.51 1910.73 2178.78 1912.27 2181.84C1913.81 2184.87 1914.58 2188.7 1914.58 2193.34V2228H1906.2V2193.91C1906.2 2189.62 1905.09 2186.29 1902.86 2183.89C1900.63 2181.48 1897.58 2180.27 1893.7 2180.27C1891.02 2180.27 1888.63 2180.85 1886.52 2182.01C1884.44 2183.17 1882.8 2184.87 1881.59 2187.09C1880.38 2189.32 1879.78 2192.02 1879.78 2195.19ZM1951.91 2249.59C1947.86 2249.59 1944.38 2249.07 1941.47 2248.03C1938.56 2247.01 1936.13 2245.66 1934.19 2243.98C1932.27 2242.32 1930.75 2240.55 1929.61 2238.65L1936.29 2233.97C1937.04 2234.96 1938 2236.1 1939.16 2237.38C1940.32 2238.68 1941.91 2239.8 1943.92 2240.75C1945.96 2241.72 1948.62 2242.2 1951.91 2242.2C1956.31 2242.2 1959.95 2241.14 1962.81 2239.01C1965.68 2236.88 1967.11 2233.54 1967.11 2228.99V2217.91H1966.4C1965.78 2218.91 1964.91 2220.14 1963.77 2221.61C1962.66 2223.05 1961.05 2224.34 1958.94 2225.48C1956.86 2226.59 1954.04 2227.15 1950.49 2227.15C1946.09 2227.15 1942.13 2226.11 1938.63 2224.02C1935.15 2221.94 1932.39 2218.91 1930.35 2214.93C1928.34 2210.95 1927.34 2206.12 1927.34 2200.44C1927.34 2194.86 1928.32 2189.99 1930.28 2185.85C1932.25 2181.68 1934.98 2178.46 1938.49 2176.19C1941.99 2173.89 1946.04 2172.74 1950.63 2172.74C1954.18 2172.74 1957 2173.34 1959.08 2174.52C1961.19 2175.68 1962.8 2177.01 1963.91 2178.5C1965.05 2179.96 1965.93 2181.17 1966.54 2182.12H1967.39V2173.45H1975.49V2229.56C1975.49 2234.25 1974.42 2238.06 1972.29 2241C1970.19 2243.96 1967.35 2246.12 1963.77 2247.5C1960.22 2248.89 1956.27 2249.59 1951.91 2249.59ZM1951.63 2219.62C1954.99 2219.62 1957.83 2218.85 1960.15 2217.31C1962.47 2215.77 1964.23 2213.56 1965.44 2210.67C1966.65 2207.78 1967.25 2204.33 1967.25 2200.3C1967.25 2196.37 1966.66 2192.9 1965.48 2189.9C1964.29 2186.89 1962.54 2184.53 1960.22 2182.83C1957.9 2181.12 1955.04 2180.27 1951.63 2180.27C1948.07 2180.27 1945.12 2181.17 1942.75 2182.97C1940.4 2184.77 1938.64 2187.19 1937.46 2190.22C1936.3 2193.25 1935.72 2196.61 1935.72 2200.3C1935.72 2204.09 1936.31 2207.44 1937.49 2210.35C1938.7 2213.24 1940.48 2215.51 1942.82 2217.17C1945.19 2218.8 1948.12 2219.62 1951.63 2219.62ZM2003.33 2218.06L2002.76 2221.89C2002.36 2224.59 2001.74 2227.48 2000.92 2230.56C2000.11 2233.63 1999.27 2236.53 1998.39 2239.26C1997.52 2241.98 1996.8 2244.15 1996.23 2245.76H1989.84C1990.14 2244.24 1990.55 2242.24 1991.04 2239.75C1991.54 2237.27 1992.04 2234.49 1992.54 2231.41C1993.06 2228.36 1993.48 2225.23 1993.81 2222.03L1994.24 2218.06H2003.33ZM191.039 2349V2276.27H199.42V2303.12H200.13C200.746 2302.17 201.598 2300.96 202.687 2299.5C203.8 2298.01 205.386 2296.68 207.445 2295.52C209.529 2294.34 212.346 2293.74 215.897 2293.74C220.49 2293.74 224.538 2294.89 228.042 2297.19C231.546 2299.49 234.28 2302.74 236.245 2306.95C238.21 2311.17 239.193 2316.14 239.193 2321.87C239.193 2327.65 238.21 2332.65 236.245 2336.89C234.28 2341.1 231.558 2344.37 228.078 2346.69C224.597 2348.99 220.585 2350.14 216.039 2350.14C212.535 2350.14 209.73 2349.56 207.623 2348.4C205.516 2347.21 203.894 2345.87 202.758 2344.38C201.622 2342.87 200.746 2341.61 200.13 2340.62H199.136V2349H191.039ZM199.278 2321.73C199.278 2325.85 199.882 2329.48 201.089 2332.63C202.296 2335.75 204.06 2338.2 206.38 2339.98C208.7 2341.73 211.541 2342.61 214.903 2342.61C218.407 2342.61 221.33 2341.68 223.674 2339.84C226.042 2337.97 227.817 2335.46 229.001 2332.31C230.208 2329.14 230.812 2325.61 230.812 2321.73C230.812 2317.89 230.22 2314.44 229.036 2311.36C227.876 2308.26 226.113 2305.81 223.745 2304.01C221.401 2302.18 218.454 2301.27 214.903 2301.27C211.494 2301.27 208.629 2302.14 206.309 2303.87C203.989 2305.57 202.237 2307.96 201.053 2311.04C199.87 2314.09 199.278 2317.66 199.278 2321.73ZM286.387 2326.7V2294.45H294.768V2349H286.387V2339.77H285.819C284.541 2342.54 282.552 2344.89 279.853 2346.83C277.154 2348.75 273.745 2349.71 269.626 2349.71C266.217 2349.71 263.186 2348.96 260.535 2347.47C257.883 2345.96 255.8 2343.69 254.285 2340.65C252.77 2337.6 252.012 2333.75 252.012 2329.11V2294.45H260.393V2328.55C260.393 2332.52 261.506 2335.7 263.731 2338.06C265.98 2340.43 268.845 2341.61 272.325 2341.61C274.408 2341.61 276.527 2341.08 278.681 2340.02C280.859 2338.95 282.682 2337.32 284.15 2335.12C285.642 2332.91 286.387 2330.11 286.387 2326.7ZM333.839 2294.45V2301.56H305.572V2294.45H333.839ZM313.811 2281.39H322.192V2333.38C322.192 2335.74 322.535 2337.52 323.221 2338.7C323.932 2339.86 324.831 2340.64 325.92 2341.05C327.033 2341.42 328.205 2341.61 329.436 2341.61C330.359 2341.61 331.117 2341.57 331.709 2341.47C332.3 2341.35 332.774 2341.26 333.129 2341.19L334.834 2348.72C334.265 2348.93 333.472 2349.14 332.454 2349.36C331.436 2349.59 330.146 2349.71 328.584 2349.71C326.216 2349.71 323.896 2349.2 321.623 2348.18C319.374 2347.17 317.504 2345.61 316.013 2343.53C314.545 2341.45 313.811 2338.82 313.811 2335.65V2281.39ZM374.571 2349V2294.45H382.667V2302.69H383.236C384.23 2299.99 386.029 2297.8 388.633 2296.12C391.238 2294.44 394.173 2293.6 397.44 2293.6C398.056 2293.6 398.825 2293.61 399.748 2293.64C400.672 2293.66 401.37 2293.7 401.844 2293.74V2302.27C401.559 2302.2 400.908 2302.09 399.89 2301.95C398.896 2301.78 397.843 2301.7 396.73 2301.7C394.078 2301.7 391.711 2302.26 389.628 2303.37C387.568 2304.46 385.934 2305.97 384.727 2307.91C383.543 2309.83 382.952 2312.02 382.952 2314.48V2349H374.571ZM432.987 2350.14C427.731 2350.14 423.198 2348.98 419.386 2346.66C415.598 2344.31 412.675 2341.05 410.615 2336.86C408.579 2332.64 407.561 2327.74 407.561 2322.15C407.561 2316.57 408.579 2311.64 410.615 2307.38C412.675 2303.1 415.539 2299.76 419.209 2297.37C422.902 2294.95 427.211 2293.74 432.135 2293.74C434.976 2293.74 437.781 2294.22 440.551 2295.16C443.321 2296.11 445.842 2297.65 448.115 2299.78C450.388 2301.89 452.199 2304.68 453.548 2308.16C454.898 2311.64 455.572 2315.93 455.572 2321.02V2324.57H413.527V2317.32H447.05C447.05 2314.25 446.434 2311.5 445.203 2309.09C443.996 2306.67 442.267 2304.76 440.018 2303.37C437.793 2301.97 435.165 2301.27 432.135 2301.27C428.797 2301.27 425.908 2302.1 423.47 2303.76C421.055 2305.39 419.197 2307.52 417.895 2310.15C416.593 2312.78 415.942 2315.6 415.942 2318.6V2323.43C415.942 2327.55 416.652 2331.04 418.072 2333.91C419.516 2336.75 421.517 2338.91 424.074 2340.41C426.631 2341.87 429.602 2342.61 432.987 2342.61C435.189 2342.61 437.177 2342.3 438.953 2341.68C440.752 2341.05 442.303 2340.1 443.605 2338.84C444.907 2337.57 445.913 2335.98 446.623 2334.09L454.72 2336.36C453.868 2339.1 452.435 2341.52 450.423 2343.6C448.411 2345.66 445.925 2347.27 442.966 2348.43C440.006 2349.57 436.68 2350.14 432.987 2350.14ZM468.321 2349V2294.45H476.417V2302.98H477.128C478.264 2300.07 480.099 2297.8 482.632 2296.19C485.165 2294.56 488.207 2293.74 491.758 2293.74C495.357 2293.74 498.352 2294.56 500.743 2296.19C503.157 2297.8 505.04 2300.07 506.389 2302.98H506.957C508.354 2300.16 510.449 2297.92 513.243 2296.27C516.036 2294.58 519.386 2293.74 523.292 2293.74C528.169 2293.74 532.158 2295.27 535.26 2298.33C538.361 2301.36 539.912 2306.08 539.912 2312.49V2349H531.531V2312.49C531.531 2308.47 530.43 2305.59 528.229 2303.87C526.027 2302.14 523.434 2301.27 520.452 2301.27C516.616 2301.27 513.645 2302.43 511.538 2304.75C509.431 2307.05 508.378 2309.96 508.378 2313.49V2349H499.855V2311.64C499.855 2308.54 498.849 2306.04 496.836 2304.15C494.824 2302.23 492.232 2301.27 489.059 2301.27C486.881 2301.27 484.845 2301.85 482.952 2303.01C481.081 2304.17 479.566 2305.78 478.406 2307.84C477.27 2309.88 476.702 2312.23 476.702 2314.91V2349H468.321ZM578.104 2350.14C572.849 2350.14 568.315 2348.98 564.503 2346.66C560.715 2344.31 557.792 2341.05 555.732 2336.86C553.696 2332.64 552.678 2327.74 552.678 2322.15C552.678 2316.57 553.696 2311.64 555.732 2307.38C557.792 2303.1 560.656 2299.76 564.326 2297.37C568.019 2294.95 572.328 2293.74 577.252 2293.74C580.093 2293.74 582.898 2294.22 585.668 2295.16C588.438 2296.11 590.959 2297.65 593.232 2299.78C595.505 2301.89 597.316 2304.68 598.665 2308.16C600.015 2311.64 600.689 2315.93 600.689 2321.02V2324.57H558.644V2317.32H592.167C592.167 2314.25 591.551 2311.5 590.32 2309.09C589.113 2306.67 587.385 2304.76 585.135 2303.37C582.91 2301.97 580.282 2301.27 577.252 2301.27C573.914 2301.27 571.026 2302.1 568.587 2303.76C566.172 2305.39 564.314 2307.52 563.012 2310.15C561.71 2312.78 561.059 2315.6 561.059 2318.6V2323.43C561.059 2327.55 561.769 2331.04 563.189 2333.91C564.634 2336.75 566.634 2338.91 569.191 2340.41C571.748 2341.87 574.719 2342.61 578.104 2342.61C580.306 2342.61 582.295 2342.3 584.07 2341.68C585.869 2341.05 587.42 2340.1 588.722 2338.84C590.024 2337.57 591.03 2335.98 591.741 2334.09L599.837 2336.36C598.985 2339.1 597.553 2341.52 595.54 2343.6C593.528 2345.66 591.042 2347.27 588.083 2348.43C585.124 2349.57 581.797 2350.14 578.104 2350.14ZM613.438 2349V2294.45H621.535V2302.98H622.245C623.381 2300.07 625.216 2297.8 627.749 2296.19C630.282 2294.56 633.324 2293.74 636.876 2293.74C640.474 2293.74 643.469 2294.56 645.86 2296.19C648.275 2297.8 650.157 2300.07 651.506 2302.98H652.074C653.471 2300.16 655.566 2297.92 658.36 2296.27C661.153 2294.58 664.503 2293.74 668.41 2293.74C673.287 2293.74 677.276 2295.27 680.377 2298.33C683.478 2301.36 685.029 2306.08 685.029 2312.49V2349H676.648V2312.49C676.648 2308.47 675.547 2305.59 673.346 2303.87C671.144 2302.14 668.552 2301.27 665.569 2301.27C661.733 2301.27 658.762 2302.43 656.655 2304.75C654.548 2307.05 653.495 2309.96 653.495 2313.49V2349H644.972V2311.64C644.972 2308.54 643.966 2306.04 641.954 2304.15C639.941 2302.23 637.349 2301.27 634.177 2301.27C631.999 2301.27 629.963 2301.85 628.069 2303.01C626.198 2304.17 624.683 2305.78 623.523 2307.84C622.387 2309.88 621.819 2312.23 621.819 2314.91V2349H613.438ZM701.488 2349V2276.27H709.869V2303.12H710.579C711.195 2302.17 712.047 2300.96 713.136 2299.5C714.249 2298.01 715.835 2296.68 717.895 2295.52C719.978 2294.34 722.795 2293.74 726.346 2293.74C730.939 2293.74 734.988 2294.89 738.491 2297.19C741.995 2299.49 744.729 2302.74 746.694 2306.95C748.659 2311.17 749.642 2316.14 749.642 2321.87C749.642 2327.65 748.659 2332.65 746.694 2336.89C744.729 2341.1 742.007 2344.37 738.527 2346.69C735.047 2348.99 731.034 2350.14 726.488 2350.14C722.985 2350.14 720.179 2349.56 718.072 2348.4C715.965 2347.21 714.344 2345.87 713.207 2344.38C712.071 2342.87 711.195 2341.61 710.579 2340.62H709.585V2349H701.488ZM709.727 2321.73C709.727 2325.85 710.331 2329.48 711.538 2332.63C712.746 2335.75 714.509 2338.2 716.829 2339.98C719.149 2341.73 721.99 2342.61 725.352 2342.61C728.856 2342.61 731.78 2341.68 734.123 2339.84C736.491 2337.97 738.266 2335.46 739.45 2332.31C740.657 2329.14 741.261 2325.61 741.261 2321.73C741.261 2317.89 740.669 2314.44 739.486 2311.36C738.326 2308.26 736.562 2305.81 734.194 2304.01C731.851 2302.18 728.903 2301.27 725.352 2301.27C721.943 2301.27 719.078 2302.14 716.758 2303.87C714.438 2305.57 712.686 2307.96 711.503 2311.04C710.319 2314.09 709.727 2317.66 709.727 2321.73ZM785.331 2350.14C780.075 2350.14 775.541 2348.98 771.73 2346.66C767.942 2344.31 765.018 2341.05 762.959 2336.86C760.923 2332.64 759.905 2327.74 759.905 2322.15C759.905 2316.57 760.923 2311.64 762.959 2307.38C765.018 2303.1 767.883 2299.76 771.552 2297.37C775.246 2294.95 779.554 2293.74 784.479 2293.74C787.319 2293.74 790.125 2294.22 792.895 2295.16C795.665 2296.11 798.186 2297.65 800.459 2299.78C802.731 2301.89 804.542 2304.68 805.892 2308.16C807.241 2311.64 807.916 2315.93 807.916 2321.02V2324.57H765.871V2317.32H799.393C799.393 2314.25 798.778 2311.5 797.547 2309.09C796.339 2306.67 794.611 2304.76 792.362 2303.37C790.137 2301.97 787.509 2301.27 784.479 2301.27C781.14 2301.27 778.252 2302.1 775.814 2303.76C773.399 2305.39 771.541 2307.52 770.238 2310.15C768.936 2312.78 768.285 2315.6 768.285 2318.6V2323.43C768.285 2327.55 768.996 2331.04 770.416 2333.91C771.86 2336.75 773.861 2338.91 776.417 2340.41C778.974 2341.87 781.945 2342.61 785.331 2342.61C787.532 2342.61 789.521 2342.3 791.297 2341.68C793.096 2341.05 794.647 2340.1 795.949 2338.84C797.251 2337.57 798.257 2335.98 798.967 2334.09L807.064 2336.36C806.211 2339.1 804.779 2341.52 802.767 2343.6C800.755 2345.66 798.269 2347.27 795.309 2348.43C792.35 2349.57 789.024 2350.14 785.331 2350.14ZM820.665 2349V2294.45H828.761V2302.69H829.329C830.324 2299.99 832.123 2297.8 834.727 2296.12C837.331 2294.44 840.267 2293.6 843.534 2293.6C844.149 2293.6 844.919 2293.61 845.842 2293.64C846.765 2293.66 847.464 2293.7 847.937 2293.74V2302.27C847.653 2302.2 847.002 2302.09 845.984 2301.95C844.99 2301.78 843.936 2301.7 842.824 2301.7C840.172 2301.7 837.805 2302.26 835.721 2303.37C833.662 2304.46 832.028 2305.97 830.821 2307.91C829.637 2309.83 829.045 2312.02 829.045 2314.48V2349H820.665ZM864.122 2339.06L863.553 2342.89C863.151 2345.59 862.535 2348.48 861.707 2351.56C860.902 2354.63 860.061 2357.53 859.186 2360.26C858.31 2362.98 857.588 2365.15 857.019 2366.76H850.627C850.935 2365.24 851.338 2363.24 851.835 2360.75C852.332 2358.27 852.829 2355.49 853.326 2352.41C853.847 2349.36 854.273 2346.23 854.605 2343.03L855.031 2339.06H864.122ZM930.643 2350.14C925.388 2350.14 920.854 2348.98 917.042 2346.66C913.255 2344.31 910.331 2341.05 908.271 2336.86C906.235 2332.64 905.217 2327.74 905.217 2322.15C905.217 2316.57 906.235 2311.64 908.271 2307.38C910.331 2303.1 913.195 2299.76 916.865 2297.37C920.558 2294.95 924.867 2293.74 929.791 2293.74C932.632 2293.74 935.437 2294.22 938.207 2295.16C940.977 2296.11 943.498 2297.65 945.771 2299.78C948.044 2301.89 949.855 2304.68 951.204 2308.16C952.554 2311.64 953.229 2315.93 953.229 2321.02V2324.57H911.183V2317.32H944.706C944.706 2314.25 944.09 2311.5 942.859 2309.09C941.652 2306.67 939.924 2304.76 937.675 2303.37C935.449 2301.97 932.821 2301.27 929.791 2301.27C926.453 2301.27 923.565 2302.1 921.126 2303.76C918.711 2305.39 916.853 2307.52 915.551 2310.15C914.249 2312.78 913.598 2315.6 913.598 2318.6V2323.43C913.598 2327.55 914.308 2331.04 915.729 2333.91C917.173 2336.75 919.173 2338.91 921.73 2340.41C924.287 2341.87 927.258 2342.61 930.643 2342.61C932.845 2342.61 934.834 2342.3 936.609 2341.68C938.408 2341.05 939.959 2340.1 941.261 2338.84C942.563 2337.57 943.569 2335.98 944.28 2334.09L952.376 2336.36C951.524 2339.1 950.092 2341.52 948.079 2343.6C946.067 2345.66 943.581 2347.27 940.622 2348.43C937.663 2349.57 934.336 2350.14 930.643 2350.14ZM1008.92 2294.45L988.749 2349H980.226L960.056 2294.45H969.146L984.203 2337.92H984.771L999.828 2294.45H1008.92ZM1040.9 2350.14C1035.64 2350.14 1031.11 2348.98 1027.3 2346.66C1023.51 2344.31 1020.58 2341.05 1018.53 2336.86C1016.49 2332.64 1015.47 2327.74 1015.47 2322.15C1015.47 2316.57 1016.49 2311.64 1018.53 2307.38C1020.58 2303.1 1023.45 2299.76 1027.12 2297.37C1030.81 2294.95 1035.12 2293.74 1040.04 2293.74C1042.89 2293.74 1045.69 2294.22 1048.46 2295.16C1051.23 2296.11 1053.75 2297.65 1056.03 2299.78C1058.3 2301.89 1060.11 2304.68 1061.46 2308.16C1062.81 2311.64 1063.48 2315.93 1063.48 2321.02V2324.57H1021.44V2317.32H1054.96C1054.96 2314.25 1054.34 2311.5 1053.11 2309.09C1051.91 2306.67 1050.18 2304.76 1047.93 2303.37C1045.7 2301.97 1043.08 2301.27 1040.04 2301.27C1036.71 2301.27 1033.82 2302.1 1031.38 2303.76C1028.97 2305.39 1027.11 2307.52 1025.8 2310.15C1024.5 2312.78 1023.85 2315.6 1023.85 2318.6V2323.43C1023.85 2327.55 1024.56 2331.04 1025.98 2333.91C1027.43 2336.75 1029.43 2338.91 1031.98 2340.41C1034.54 2341.87 1037.51 2342.61 1040.9 2342.61C1043.1 2342.61 1045.09 2342.3 1046.86 2341.68C1048.66 2341.05 1050.21 2340.1 1051.52 2338.84C1052.82 2337.57 1053.82 2335.98 1054.53 2334.09L1062.63 2336.36C1061.78 2339.1 1060.35 2341.52 1058.33 2343.6C1056.32 2345.66 1053.84 2347.27 1050.88 2348.43C1047.92 2349.57 1044.59 2350.14 1040.9 2350.14ZM1084.61 2316.19V2349H1076.23V2294.45H1084.33V2302.98H1085.04C1086.32 2300.21 1088.26 2297.98 1090.86 2296.3C1093.47 2294.6 1096.83 2293.74 1100.95 2293.74C1104.64 2293.74 1107.87 2294.5 1110.64 2296.02C1113.41 2297.51 1115.57 2299.78 1117.1 2302.84C1118.64 2305.87 1119.41 2309.7 1119.41 2314.34V2349H1111.03V2314.91C1111.03 2310.62 1109.92 2307.29 1107.69 2304.89C1105.47 2302.48 1102.41 2301.27 1098.53 2301.27C1095.86 2301.27 1093.47 2301.85 1091.36 2303.01C1089.28 2304.17 1087.63 2305.87 1086.42 2308.09C1085.22 2310.32 1084.61 2313.02 1084.61 2316.19ZM1186.57 2294.45V2301.56H1158.31V2294.45H1186.57ZM1166.55 2281.39H1174.93V2333.38C1174.93 2335.74 1175.27 2337.52 1175.96 2338.7C1176.67 2339.86 1177.57 2340.64 1178.65 2341.05C1179.77 2341.42 1180.94 2341.61 1182.17 2341.61C1183.09 2341.61 1183.85 2341.57 1184.44 2341.47C1185.03 2341.35 1185.51 2341.26 1185.86 2341.19L1187.57 2348.72C1187 2348.93 1186.21 2349.14 1185.19 2349.36C1184.17 2349.59 1182.88 2349.71 1181.32 2349.71C1178.95 2349.71 1176.63 2349.2 1174.36 2348.18C1172.11 2347.17 1170.24 2345.61 1168.75 2343.53C1167.28 2341.45 1166.55 2338.82 1166.55 2335.65V2281.39ZM1208.73 2316.19V2349H1200.35V2276.27H1208.73V2302.98H1209.44C1210.72 2300.16 1212.64 2297.92 1215.2 2296.27C1217.78 2294.58 1221.21 2293.74 1225.49 2293.74C1229.21 2293.74 1232.47 2294.49 1235.26 2295.98C1238.05 2297.45 1240.22 2299.71 1241.76 2302.76C1243.32 2305.79 1244.1 2309.65 1244.1 2314.34V2349H1235.72V2314.91C1235.72 2310.58 1234.6 2307.23 1232.35 2304.86C1230.12 2302.47 1227.03 2301.27 1223.08 2301.27C1220.33 2301.27 1217.87 2301.85 1215.69 2303.01C1213.54 2304.17 1211.83 2305.87 1210.58 2308.09C1209.35 2310.32 1208.73 2313.02 1208.73 2316.19ZM1282.3 2350.14C1277.05 2350.14 1272.51 2348.98 1268.7 2346.66C1264.91 2344.31 1261.99 2341.05 1259.93 2336.86C1257.9 2332.64 1256.88 2327.74 1256.88 2322.15C1256.88 2316.57 1257.9 2311.64 1259.93 2307.38C1261.99 2303.1 1264.86 2299.76 1268.53 2297.37C1272.22 2294.95 1276.53 2293.74 1281.45 2293.74C1284.29 2293.74 1287.1 2294.22 1289.87 2295.16C1292.64 2296.11 1295.16 2297.65 1297.43 2299.78C1299.7 2301.89 1301.52 2304.68 1302.86 2308.16C1304.21 2311.64 1304.89 2315.93 1304.89 2321.02V2324.57H1262.84V2317.32H1296.37C1296.37 2314.25 1295.75 2311.5 1294.52 2309.09C1293.31 2306.67 1291.58 2304.76 1289.33 2303.37C1287.11 2301.97 1284.48 2301.27 1281.45 2301.27C1278.11 2301.27 1275.22 2302.1 1272.79 2303.76C1270.37 2305.39 1268.51 2307.52 1267.21 2310.15C1265.91 2312.78 1265.26 2315.6 1265.26 2318.6V2323.43C1265.26 2327.55 1265.97 2331.04 1267.39 2333.91C1268.83 2336.75 1270.83 2338.91 1273.39 2340.41C1275.95 2341.87 1278.92 2342.61 1282.3 2342.61C1284.51 2342.61 1286.49 2342.3 1288.27 2341.68C1290.07 2341.05 1291.62 2340.1 1292.92 2338.84C1294.22 2337.57 1295.23 2335.98 1295.94 2334.09L1304.04 2336.36C1303.18 2339.1 1301.75 2341.52 1299.74 2343.6C1297.73 2345.66 1295.24 2347.27 1292.28 2348.43C1289.32 2349.57 1286 2350.14 1282.3 2350.14ZM1384.4 2306.67L1376.87 2308.8C1376.4 2307.55 1375.7 2306.33 1374.78 2305.14C1373.88 2303.94 1372.64 2302.94 1371.08 2302.16C1369.52 2301.38 1367.52 2300.99 1365.08 2300.99C1361.74 2300.99 1358.96 2301.76 1356.74 2303.3C1354.53 2304.81 1353.43 2306.74 1353.43 2309.09C1353.43 2311.17 1354.19 2312.81 1355.71 2314.02C1357.22 2315.23 1359.59 2316.23 1362.81 2317.04L1370.9 2319.03C1375.78 2320.21 1379.42 2322.02 1381.81 2324.46C1384.2 2326.88 1385.39 2329.99 1385.39 2333.8C1385.39 2336.93 1384.49 2339.72 1382.69 2342.18C1380.92 2344.64 1378.43 2346.59 1375.24 2348.01C1372.04 2349.43 1368.32 2350.14 1364.09 2350.14C1358.52 2350.14 1353.92 2348.93 1350.27 2346.51C1346.63 2344.1 1344.32 2340.57 1343.35 2335.93L1351.3 2333.94C1352.06 2336.88 1353.49 2339.08 1355.6 2340.55C1357.73 2342.02 1360.51 2342.75 1363.94 2342.75C1367.85 2342.75 1370.95 2341.92 1373.25 2340.26C1375.57 2338.58 1376.73 2336.57 1376.73 2334.23C1376.73 2332.33 1376.07 2330.75 1374.74 2329.47C1373.41 2328.17 1371.38 2327.2 1368.63 2326.56L1359.54 2324.43C1354.55 2323.24 1350.88 2321.41 1348.53 2318.92C1346.21 2316.41 1345.05 2313.28 1345.05 2309.51C1345.05 2306.43 1345.92 2303.71 1347.64 2301.34C1349.4 2298.98 1351.78 2297.12 1354.78 2295.77C1357.81 2294.42 1361.25 2293.74 1365.08 2293.74C1370.48 2293.74 1374.72 2294.93 1377.79 2297.3C1380.89 2299.66 1383.1 2302.79 1384.4 2306.67ZM1432.38 2326.7V2294.45H1440.76V2349H1432.38V2339.77H1431.82C1430.54 2342.54 1428.55 2344.89 1425.85 2346.83C1423.15 2348.75 1419.74 2349.71 1415.62 2349.71C1412.21 2349.71 1409.18 2348.96 1406.53 2347.47C1403.88 2345.96 1401.8 2343.69 1400.28 2340.65C1398.77 2337.6 1398.01 2333.75 1398.01 2329.11V2294.45H1406.39V2328.55C1406.39 2332.52 1407.5 2335.7 1409.73 2338.06C1411.98 2340.43 1414.84 2341.61 1418.32 2341.61C1420.4 2341.61 1422.52 2341.08 1424.68 2340.02C1426.86 2338.95 1428.68 2337.32 1430.15 2335.12C1431.64 2332.91 1432.38 2330.11 1432.38 2326.7ZM1464.49 2316.19V2349H1456.11V2294.45H1464.21V2302.98H1464.92C1466.2 2300.21 1468.14 2297.98 1470.74 2296.3C1473.35 2294.6 1476.71 2293.74 1480.83 2293.74C1484.52 2293.74 1487.75 2294.5 1490.52 2296.02C1493.29 2297.51 1495.45 2299.78 1496.99 2302.84C1498.53 2305.87 1499.3 2309.7 1499.3 2314.34V2349H1490.91V2314.91C1490.91 2310.62 1489.8 2307.29 1487.58 2304.89C1485.35 2302.48 1482.3 2301.27 1478.41 2301.27C1475.74 2301.27 1473.35 2301.85 1471.24 2303.01C1469.16 2304.17 1467.51 2305.87 1466.31 2308.09C1465.1 2310.32 1464.49 2313.02 1464.49 2316.19ZM1542.73 2349V2294.45H1551.12V2349H1542.73ZM1547 2285.36C1545.36 2285.36 1543.95 2284.81 1542.77 2283.69C1541.61 2282.58 1541.03 2281.24 1541.03 2279.68C1541.03 2278.12 1541.61 2276.78 1542.77 2275.67C1543.95 2274.56 1545.36 2274 1547 2274C1548.63 2274 1550.03 2274.56 1551.19 2275.67C1552.37 2276.78 1552.96 2278.12 1552.96 2279.68C1552.96 2281.24 1552.37 2282.58 1551.19 2283.69C1550.03 2284.81 1548.63 2285.36 1547 2285.36ZM1605.1 2306.67L1597.57 2308.8C1597.1 2307.55 1596.4 2306.33 1595.48 2305.14C1594.58 2303.94 1593.35 2302.94 1591.78 2302.16C1590.22 2301.38 1588.22 2300.99 1585.78 2300.99C1582.45 2300.99 1579.66 2301.76 1577.44 2303.3C1575.24 2304.81 1574.14 2306.74 1574.14 2309.09C1574.14 2311.17 1574.89 2312.81 1576.41 2314.02C1577.92 2315.23 1580.29 2316.23 1583.51 2317.04L1591.61 2319.03C1596.48 2320.21 1600.12 2322.02 1602.51 2324.46C1604.9 2326.88 1606.1 2329.99 1606.1 2333.8C1606.1 2336.93 1605.2 2339.72 1603.4 2342.18C1601.62 2344.64 1599.14 2346.59 1595.94 2348.01C1592.74 2349.43 1589.03 2350.14 1584.79 2350.14C1579.23 2350.14 1574.62 2348.93 1570.98 2346.51C1567.33 2344.1 1565.02 2340.57 1564.05 2335.93L1572.01 2333.94C1572.76 2336.88 1574.2 2339.08 1576.3 2340.55C1578.43 2342.02 1581.21 2342.75 1584.65 2342.75C1588.55 2342.75 1591.65 2341.92 1593.95 2340.26C1596.27 2338.58 1597.43 2336.57 1597.43 2334.23C1597.43 2332.33 1596.77 2330.75 1595.44 2329.47C1594.12 2328.17 1592.08 2327.2 1589.33 2326.56L1580.24 2324.43C1575.25 2323.24 1571.58 2321.41 1569.24 2318.92C1566.92 2316.41 1565.76 2313.28 1565.76 2309.51C1565.76 2306.43 1566.62 2303.71 1568.35 2301.34C1570.1 2298.98 1572.48 2297.12 1575.49 2295.77C1578.52 2294.42 1581.95 2293.74 1585.78 2293.74C1591.18 2293.74 1595.42 2294.93 1598.5 2297.3C1601.6 2299.66 1603.8 2302.79 1605.1 2306.67ZM1662.89 2350.28C1659.43 2350.28 1656.29 2349.63 1653.48 2348.33C1650.66 2347 1648.42 2345.09 1646.77 2342.61C1645.11 2340.1 1644.28 2337.07 1644.28 2333.52C1644.28 2330.39 1644.9 2327.86 1646.13 2325.92C1647.36 2323.95 1649 2322.41 1651.06 2321.3C1653.12 2320.19 1655.39 2319.36 1657.88 2318.82C1660.39 2318.25 1662.91 2317.8 1665.44 2317.47C1668.76 2317.04 1671.45 2316.72 1673.51 2316.51C1675.59 2316.27 1677.1 2315.88 1678.05 2315.34C1679.02 2314.79 1679.51 2313.84 1679.51 2312.49V2312.21C1679.51 2308.71 1678.55 2305.98 1676.63 2304.04C1674.74 2302.1 1671.86 2301.13 1668 2301.13C1664 2301.13 1660.86 2302.01 1658.59 2303.76C1656.32 2305.51 1654.72 2307.38 1653.8 2309.37L1645.84 2306.53C1647.26 2303.21 1649.16 2300.63 1651.52 2298.79C1653.92 2296.92 1656.52 2295.61 1659.34 2294.88C1662.18 2294.12 1664.97 2293.74 1667.72 2293.74C1669.47 2293.74 1671.48 2293.96 1673.75 2294.38C1676.05 2294.79 1678.26 2295.63 1680.39 2296.9C1682.55 2298.18 1684.34 2300.11 1685.76 2302.69C1687.18 2305.27 1687.89 2308.73 1687.89 2313.06V2349H1679.51V2341.61H1679.08C1678.51 2342.8 1677.57 2344.06 1676.24 2345.41C1674.91 2346.76 1673.15 2347.91 1670.95 2348.86C1668.75 2349.8 1666.06 2350.28 1662.89 2350.28ZM1664.17 2342.75C1667.48 2342.75 1670.27 2342.1 1672.55 2340.8C1674.84 2339.49 1676.57 2337.81 1677.73 2335.75C1678.92 2333.69 1679.51 2331.53 1679.51 2329.26V2321.59C1679.15 2322.01 1678.37 2322.4 1677.16 2322.76C1675.98 2323.09 1674.61 2323.38 1673.04 2323.64C1671.51 2323.88 1670 2324.09 1668.53 2324.28C1667.09 2324.45 1665.92 2324.59 1665.02 2324.71C1662.84 2324.99 1660.8 2325.46 1658.91 2326.1C1657.04 2326.71 1655.52 2327.65 1654.36 2328.9C1653.23 2330.13 1652.66 2331.81 1652.66 2333.94C1652.66 2336.86 1653.74 2339.06 1655.89 2340.55C1658.07 2342.02 1660.83 2342.75 1664.17 2342.75ZM1769.95 2306.67L1762.42 2308.8C1761.94 2307.55 1761.25 2306.33 1760.32 2305.14C1759.42 2303.94 1758.19 2302.94 1756.63 2302.16C1755.07 2301.38 1753.07 2300.99 1750.63 2300.99C1747.29 2300.99 1744.51 2301.76 1742.28 2303.3C1740.08 2304.81 1738.98 2306.74 1738.98 2309.09C1738.98 2311.17 1739.74 2312.81 1741.25 2314.02C1742.77 2315.23 1745.13 2316.23 1748.35 2317.04L1756.45 2319.03C1761.33 2320.21 1764.96 2322.02 1767.35 2324.46C1769.74 2326.88 1770.94 2329.99 1770.94 2333.8C1770.94 2336.93 1770.04 2339.72 1768.24 2342.18C1766.47 2344.64 1763.98 2346.59 1760.78 2348.01C1757.59 2349.43 1753.87 2350.14 1749.63 2350.14C1744.07 2350.14 1739.46 2348.93 1735.82 2346.51C1732.17 2344.1 1729.86 2340.57 1728.89 2335.93L1736.85 2333.94C1737.61 2336.88 1739.04 2339.08 1741.15 2340.55C1743.28 2342.02 1746.06 2342.75 1749.49 2342.75C1753.4 2342.75 1756.5 2341.92 1758.79 2340.26C1761.11 2338.58 1762.28 2336.57 1762.28 2334.23C1762.28 2332.33 1761.61 2330.75 1760.29 2329.47C1758.96 2328.17 1756.92 2327.2 1754.18 2326.56L1745.09 2324.43C1740.09 2323.24 1736.42 2321.41 1734.08 2318.92C1731.76 2316.41 1730.6 2313.28 1730.6 2309.51C1730.6 2306.43 1731.46 2303.71 1733.19 2301.34C1734.94 2298.98 1737.32 2297.12 1740.33 2295.77C1743.36 2294.42 1746.79 2293.74 1750.63 2293.74C1756.03 2293.74 1760.26 2294.93 1763.34 2297.3C1766.44 2299.66 1768.64 2302.79 1769.95 2306.67ZM1807.28 2294.45V2301.56H1779.01V2294.45H1807.28ZM1787.25 2281.39H1795.63V2333.38C1795.63 2335.74 1795.97 2337.52 1796.66 2338.7C1797.37 2339.86 1798.27 2340.64 1799.36 2341.05C1800.47 2341.42 1801.64 2341.61 1802.87 2341.61C1803.8 2341.61 1804.55 2341.57 1805.15 2341.47C1805.74 2341.35 1806.21 2341.26 1806.57 2341.19L1808.27 2348.72C1807.7 2348.93 1806.91 2349.14 1805.89 2349.36C1804.87 2349.59 1803.58 2349.71 1802.02 2349.71C1799.65 2349.71 1797.33 2349.2 1795.06 2348.18C1792.81 2347.17 1790.94 2345.61 1789.45 2343.53C1787.98 2341.45 1787.25 2338.82 1787.25 2335.65V2281.39ZM1835.93 2350.28C1832.48 2350.28 1829.34 2349.63 1826.52 2348.33C1823.71 2347 1821.47 2345.09 1819.81 2342.61C1818.16 2340.1 1817.33 2337.07 1817.33 2333.52C1817.33 2330.39 1817.94 2327.86 1819.17 2325.92C1820.4 2323.95 1822.05 2322.41 1824.11 2321.3C1826.17 2320.19 1828.44 2319.36 1830.93 2318.82C1833.44 2318.25 1835.96 2317.8 1838.49 2317.47C1841.81 2317.04 1844.49 2316.72 1846.55 2316.51C1848.64 2316.27 1850.15 2315.88 1851.1 2315.34C1852.07 2314.79 1852.55 2313.84 1852.55 2312.49V2312.21C1852.55 2308.71 1851.59 2305.98 1849.68 2304.04C1847.78 2302.1 1844.91 2301.13 1841.05 2301.13C1837.05 2301.13 1833.91 2302.01 1831.64 2303.76C1829.36 2305.51 1827.77 2307.38 1826.84 2309.37L1818.89 2306.53C1820.31 2303.21 1822.2 2300.63 1824.57 2298.79C1826.96 2296.92 1829.57 2295.61 1832.38 2294.88C1835.22 2294.12 1838.02 2293.74 1840.76 2293.74C1842.52 2293.74 1844.53 2293.96 1846.8 2294.38C1849.1 2294.79 1851.31 2295.63 1853.44 2296.9C1855.6 2298.18 1857.38 2300.11 1858.8 2302.69C1860.22 2305.27 1860.93 2308.73 1860.93 2313.06V2349H1852.55V2341.61H1852.13C1851.56 2342.8 1850.61 2344.06 1849.29 2345.41C1847.96 2346.76 1846.2 2347.91 1844 2348.86C1841.79 2349.8 1839.11 2350.28 1835.93 2350.28ZM1837.21 2342.75C1840.53 2342.75 1843.32 2342.1 1845.59 2340.8C1847.89 2339.49 1849.62 2337.81 1850.78 2335.75C1851.96 2333.69 1852.55 2331.53 1852.55 2329.26V2321.59C1852.2 2322.01 1851.42 2322.4 1850.21 2322.76C1849.03 2323.09 1847.65 2323.38 1846.09 2323.64C1844.55 2323.88 1843.05 2324.09 1841.58 2324.28C1840.14 2324.45 1838.96 2324.59 1838.07 2324.71C1835.89 2324.99 1833.85 2325.46 1831.96 2326.1C1830.09 2326.71 1828.57 2327.65 1827.41 2328.9C1826.28 2330.13 1825.71 2331.81 1825.71 2333.94C1825.71 2336.86 1826.78 2339.06 1828.94 2340.55C1831.12 2342.02 1833.87 2342.75 1837.21 2342.75ZM1876.23 2349V2294.45H1884.33V2302.69H1884.9C1885.89 2299.99 1887.69 2297.8 1890.29 2296.12C1892.9 2294.44 1895.83 2293.6 1899.1 2293.6C1899.72 2293.6 1900.49 2293.61 1901.41 2293.64C1902.33 2293.66 1903.03 2293.7 1903.5 2293.74V2302.27C1903.22 2302.2 1902.57 2302.09 1901.55 2301.95C1900.56 2301.78 1899.5 2301.7 1898.39 2301.7C1895.74 2301.7 1893.37 2302.26 1891.29 2303.37C1889.23 2304.46 1887.59 2305.97 1886.39 2307.91C1885.2 2309.83 1884.61 2312.02 1884.61 2314.48V2349H1876.23ZM692.184 2471.28C688.728 2471.28 685.591 2470.63 682.774 2469.33C679.957 2468 677.72 2466.09 676.062 2463.61C674.405 2461.1 673.577 2458.07 673.577 2454.52C673.577 2451.39 674.192 2448.86 675.423 2446.92C676.654 2444.95 678.3 2443.41 680.359 2442.3C682.419 2441.19 684.692 2440.36 687.177 2439.82C689.687 2439.25 692.208 2438.8 694.741 2438.47C698.056 2438.04 700.743 2437.72 702.802 2437.51C704.886 2437.27 706.401 2436.88 707.348 2436.34C708.318 2435.79 708.804 2434.84 708.804 2433.49V2433.21C708.804 2429.71 707.845 2426.98 705.927 2425.04C704.033 2423.1 701.157 2422.13 697.298 2422.13C693.297 2422.13 690.16 2423.01 687.888 2424.76C685.615 2426.51 684.017 2428.38 683.094 2430.37L675.139 2427.53C676.559 2424.21 678.453 2421.63 680.821 2419.79C683.212 2417.92 685.816 2416.61 688.633 2415.88C691.474 2415.12 694.268 2414.74 697.014 2414.74C698.766 2414.74 700.778 2414.96 703.051 2415.38C705.347 2415.79 707.561 2416.63 709.692 2417.9C711.846 2419.18 713.633 2421.11 715.054 2423.69C716.474 2426.27 717.184 2429.73 717.184 2434.06V2470H708.804V2462.61H708.378C707.809 2463.8 706.863 2465.06 705.537 2466.41C704.211 2467.76 702.447 2468.91 700.246 2469.86C698.044 2470.8 695.357 2471.28 692.184 2471.28ZM693.463 2463.75C696.777 2463.75 699.571 2463.1 701.844 2461.8C704.14 2460.49 705.868 2458.81 707.028 2456.75C708.212 2454.69 708.804 2452.53 708.804 2450.26V2442.59C708.449 2443.01 707.667 2443.4 706.46 2443.76C705.276 2444.09 703.903 2444.38 702.341 2444.64C700.802 2444.88 699.299 2445.09 697.831 2445.28C696.387 2445.45 695.215 2445.59 694.315 2445.71C692.137 2445.99 690.101 2446.46 688.207 2447.1C686.337 2447.71 684.822 2448.65 683.662 2449.9C682.525 2451.13 681.957 2452.81 681.957 2454.94C681.957 2457.86 683.034 2460.06 685.189 2461.55C687.367 2463.02 690.125 2463.75 693.463 2463.75ZM732.481 2470V2415.45H740.578V2423.98H741.288C742.424 2421.07 744.259 2418.8 746.792 2417.19C749.325 2415.56 752.367 2414.74 755.919 2414.74C759.517 2414.74 762.512 2415.56 764.903 2417.19C767.318 2418.8 769.2 2421.07 770.549 2423.98H771.117C772.514 2421.16 774.609 2418.92 777.403 2417.27C780.196 2415.58 783.546 2414.74 787.453 2414.74C792.329 2414.74 796.319 2416.27 799.42 2419.33C802.521 2422.36 804.072 2427.08 804.072 2433.49V2470H795.691V2433.49C795.691 2429.47 794.59 2426.59 792.389 2424.87C790.187 2423.14 787.595 2422.27 784.612 2422.27C780.776 2422.27 777.805 2423.43 775.698 2425.75C773.591 2428.05 772.538 2430.96 772.538 2434.49V2470H764.015V2432.64C764.015 2429.54 763.009 2427.04 760.997 2425.15C758.984 2423.23 756.392 2422.27 753.22 2422.27C751.042 2422.27 749.006 2422.85 747.112 2424.01C745.241 2425.17 743.726 2426.78 742.566 2428.84C741.43 2430.88 740.862 2433.23 740.862 2435.91V2470H732.481ZM841.554 2471.14C836.63 2471.14 832.309 2469.96 828.593 2467.62C824.899 2465.28 822.011 2462 819.928 2457.78C817.868 2453.57 816.838 2448.65 816.838 2443.01C816.838 2437.33 817.868 2432.37 819.928 2428.13C822.011 2423.89 824.899 2420.6 828.593 2418.26C832.309 2415.92 836.63 2414.74 841.554 2414.74C846.478 2414.74 850.787 2415.92 854.48 2418.26C858.197 2420.6 861.085 2423.89 863.145 2428.13C865.228 2432.37 866.27 2437.33 866.27 2443.01C866.27 2448.65 865.228 2453.57 863.145 2457.78C861.085 2462 858.197 2465.28 854.48 2467.62C850.787 2469.96 846.478 2471.14 841.554 2471.14ZM841.554 2463.61C845.295 2463.61 848.372 2462.65 850.787 2460.73C853.202 2458.81 854.989 2456.29 856.149 2453.17C857.309 2450.04 857.889 2446.66 857.889 2443.01C857.889 2439.37 857.309 2435.97 856.149 2432.82C854.989 2429.67 853.202 2427.13 850.787 2425.18C848.372 2423.24 845.295 2422.27 841.554 2422.27C837.814 2422.27 834.736 2423.24 832.321 2425.18C829.906 2427.13 828.119 2429.67 826.959 2432.82C825.799 2435.97 825.219 2439.37 825.219 2443.01C825.219 2446.66 825.799 2450.04 826.959 2453.17C828.119 2456.29 829.906 2458.81 832.321 2460.73C834.736 2462.65 837.814 2463.61 841.554 2463.61ZM887.444 2437.19V2470H879.063V2415.45H887.16V2423.98H887.87C889.148 2421.21 891.09 2418.98 893.694 2417.3C896.298 2415.6 899.66 2414.74 903.779 2414.74C907.472 2414.74 910.704 2415.5 913.474 2417.02C916.243 2418.51 918.398 2420.78 919.937 2423.84C921.475 2426.87 922.245 2430.7 922.245 2435.34V2470H913.864V2435.91C913.864 2431.62 912.751 2428.29 910.526 2425.89C908.301 2423.48 905.247 2422.27 901.364 2422.27C898.689 2422.27 896.298 2422.85 894.191 2424.01C892.108 2425.17 890.462 2426.87 889.255 2429.09C888.047 2431.32 887.444 2434.02 887.444 2437.19ZM959.576 2491.59C955.528 2491.59 952.048 2491.07 949.136 2490.03C946.224 2489.01 943.797 2487.66 941.856 2485.98C939.938 2484.32 938.411 2482.55 937.275 2480.65L943.951 2475.97C944.709 2476.96 945.668 2478.1 946.828 2479.38C947.988 2480.68 949.574 2481.8 951.586 2482.75C953.622 2483.72 956.285 2484.2 959.576 2484.2C963.98 2484.2 967.614 2483.14 970.478 2481.01C973.343 2478.88 974.775 2475.54 974.775 2470.99V2459.91H974.065C973.449 2460.91 972.573 2462.14 971.437 2463.61C970.324 2465.05 968.714 2466.34 966.607 2467.48C964.524 2468.59 961.707 2469.15 958.156 2469.15C953.752 2469.15 949.799 2468.11 946.295 2466.02C942.815 2463.94 940.057 2460.91 938.021 2456.93C936.008 2452.95 935.002 2448.12 935.002 2442.44C935.002 2436.86 935.985 2431.99 937.95 2427.85C939.915 2423.68 942.649 2420.46 946.153 2418.19C949.657 2415.89 953.705 2414.74 958.298 2414.74C961.849 2414.74 964.666 2415.34 966.749 2416.52C968.856 2417.68 970.466 2419.01 971.579 2420.5C972.715 2421.96 973.591 2423.17 974.207 2424.12H975.059V2415.45H983.156V2471.56C983.156 2476.25 982.09 2480.06 979.96 2483C977.853 2485.96 975.012 2488.12 971.437 2489.5C967.886 2490.89 963.932 2491.59 959.576 2491.59ZM959.292 2461.62C962.654 2461.62 965.495 2460.85 967.815 2459.31C970.135 2457.77 971.899 2455.56 973.106 2452.67C974.313 2449.78 974.917 2446.33 974.917 2442.3C974.917 2438.37 974.325 2434.9 973.142 2431.9C971.958 2428.89 970.206 2426.53 967.886 2424.83C965.566 2423.12 962.701 2422.27 959.292 2422.27C955.741 2422.27 952.782 2423.17 950.414 2424.97C948.07 2426.77 946.307 2429.19 945.123 2432.22C943.963 2435.25 943.383 2438.61 943.383 2442.3C943.383 2446.09 943.975 2449.44 945.159 2452.35C946.366 2455.24 948.142 2457.51 950.485 2459.17C952.853 2460.8 955.788 2461.62 959.292 2461.62ZM1037.13 2427.67L1029.6 2429.8C1029.13 2428.55 1028.43 2427.33 1027.51 2426.14C1026.61 2424.94 1025.38 2423.94 1023.82 2423.16C1022.25 2422.38 1020.25 2421.99 1017.81 2421.99C1014.48 2421.99 1011.7 2422.76 1009.47 2424.3C1007.27 2425.81 1006.17 2427.74 1006.17 2430.09C1006.17 2432.17 1006.92 2433.81 1008.44 2435.02C1009.95 2436.23 1012.32 2437.23 1015.54 2438.04L1023.64 2440.03C1028.52 2441.21 1032.15 2443.02 1034.54 2445.46C1036.93 2447.88 1038.13 2450.99 1038.13 2454.8C1038.13 2457.93 1037.23 2460.72 1035.43 2463.18C1033.65 2465.64 1031.17 2467.59 1027.97 2469.01C1024.78 2470.43 1021.06 2471.14 1016.82 2471.14C1011.26 2471.14 1006.65 2469.93 1003.01 2467.51C999.361 2465.1 997.052 2461.57 996.082 2456.93L1004.04 2454.94C1004.79 2457.88 1006.23 2460.08 1008.33 2461.55C1010.46 2463.02 1013.25 2463.75 1016.68 2463.75C1020.58 2463.75 1023.69 2462.92 1025.98 2461.26C1028.3 2459.58 1029.46 2457.57 1029.46 2455.23C1029.46 2453.33 1028.8 2451.75 1027.47 2450.47C1026.15 2449.17 1024.11 2448.2 1021.37 2447.56L1012.28 2445.43C1007.28 2444.24 1003.61 2442.41 1001.27 2439.92C998.946 2437.41 997.786 2434.28 997.786 2430.51C997.786 2427.43 998.651 2424.71 1000.38 2422.34C1002.13 2419.98 1004.51 2418.12 1007.52 2416.77C1010.55 2415.42 1013.98 2414.74 1017.81 2414.74C1023.21 2414.74 1027.45 2415.93 1030.53 2418.3C1033.63 2420.66 1035.83 2423.79 1037.13 2427.67ZM1074.46 2415.45V2422.56H1046.2V2415.45H1074.46ZM1054.44 2402.39H1062.82V2454.38C1062.82 2456.74 1063.16 2458.52 1063.85 2459.7C1064.56 2460.86 1065.46 2461.64 1066.55 2462.05C1067.66 2462.42 1068.83 2462.61 1070.06 2462.61C1070.98 2462.61 1071.74 2462.57 1072.33 2462.47C1072.93 2462.35 1073.4 2462.26 1073.75 2462.19L1075.46 2469.72C1074.89 2469.93 1074.1 2470.14 1073.08 2470.36C1072.06 2470.59 1070.77 2470.71 1069.21 2470.71C1066.84 2470.71 1064.52 2470.2 1062.25 2469.18C1060 2468.17 1058.13 2466.61 1056.64 2464.53C1055.17 2462.45 1054.44 2459.82 1054.44 2456.65V2402.39ZM1115.2 2470V2415.45H1123.29V2423.98H1124C1125.14 2421.07 1126.97 2418.8 1129.51 2417.19C1132.04 2415.56 1135.08 2414.74 1138.63 2414.74C1142.23 2414.74 1145.23 2415.56 1147.62 2417.19C1150.03 2418.8 1151.91 2421.07 1153.26 2423.98H1153.83C1155.23 2421.16 1157.32 2418.92 1160.12 2417.27C1162.91 2415.58 1166.26 2414.74 1170.17 2414.74C1175.04 2414.74 1179.03 2416.27 1182.13 2419.33C1185.24 2422.36 1186.79 2427.08 1186.79 2433.49V2470H1178.41V2433.49C1178.41 2429.47 1177.31 2426.59 1175.1 2424.87C1172.9 2423.14 1170.31 2422.27 1167.33 2422.27C1163.49 2422.27 1160.52 2423.43 1158.41 2425.75C1156.31 2428.05 1155.25 2430.96 1155.25 2434.49V2470H1146.73V2432.64C1146.73 2429.54 1145.72 2427.04 1143.71 2425.15C1141.7 2423.23 1139.11 2422.27 1135.93 2422.27C1133.76 2422.27 1131.72 2422.85 1129.83 2424.01C1127.96 2425.17 1126.44 2426.78 1125.28 2428.84C1124.14 2430.88 1123.58 2433.23 1123.58 2435.91V2470H1115.2ZM1218.16 2471.28C1214.7 2471.28 1211.57 2470.63 1208.75 2469.33C1205.93 2468 1203.7 2466.09 1202.04 2463.61C1200.38 2461.1 1199.55 2458.07 1199.55 2454.52C1199.55 2451.39 1200.17 2448.86 1201.4 2446.92C1202.63 2444.95 1204.28 2443.41 1206.34 2442.3C1208.4 2441.19 1210.67 2440.36 1213.15 2439.82C1215.66 2439.25 1218.18 2438.8 1220.72 2438.47C1224.03 2438.04 1226.72 2437.72 1228.78 2437.51C1230.86 2437.27 1232.38 2436.88 1233.32 2436.34C1234.3 2435.79 1234.78 2434.84 1234.78 2433.49V2433.21C1234.78 2429.71 1233.82 2426.98 1231.9 2425.04C1230.01 2423.1 1227.13 2422.13 1223.27 2422.13C1219.27 2422.13 1216.14 2423.01 1213.86 2424.76C1211.59 2426.51 1209.99 2428.38 1209.07 2430.37L1201.12 2427.53C1202.54 2424.21 1204.43 2421.63 1206.8 2419.79C1209.19 2417.92 1211.79 2416.61 1214.61 2415.88C1217.45 2415.12 1220.24 2414.74 1222.99 2414.74C1224.74 2414.74 1226.75 2414.96 1229.03 2415.38C1231.32 2415.79 1233.54 2416.63 1235.67 2417.9C1237.82 2419.18 1239.61 2421.11 1241.03 2423.69C1242.45 2426.27 1243.16 2429.73 1243.16 2434.06V2470H1234.78V2462.61H1234.35C1233.79 2463.8 1232.84 2465.06 1231.51 2466.41C1230.19 2467.76 1228.42 2468.91 1226.22 2469.86C1224.02 2470.8 1221.33 2471.28 1218.16 2471.28ZM1219.44 2463.75C1222.75 2463.75 1225.55 2463.1 1227.82 2461.8C1230.12 2460.49 1231.84 2458.81 1233 2456.75C1234.19 2454.69 1234.78 2452.53 1234.78 2450.26V2442.59C1234.43 2443.01 1233.64 2443.4 1232.44 2443.76C1231.25 2444.09 1229.88 2444.38 1228.32 2444.64C1226.78 2444.88 1225.28 2445.09 1223.81 2445.28C1222.36 2445.45 1221.19 2445.59 1220.29 2445.71C1218.11 2445.99 1216.08 2446.46 1214.18 2447.1C1212.31 2447.71 1210.8 2448.65 1209.64 2449.9C1208.5 2451.13 1207.93 2452.81 1207.93 2454.94C1207.93 2457.86 1209.01 2460.06 1211.17 2461.55C1213.34 2463.02 1216.1 2463.75 1219.44 2463.75ZM1266.84 2437.19V2470H1258.46V2415.45H1266.55V2423.98H1267.26C1268.54 2421.21 1270.48 2418.98 1273.09 2417.3C1275.69 2415.6 1279.05 2414.74 1283.17 2414.74C1286.87 2414.74 1290.1 2415.5 1292.87 2417.02C1295.64 2418.51 1297.79 2420.78 1299.33 2423.84C1300.87 2426.87 1301.64 2430.7 1301.64 2435.34V2470H1293.26V2435.91C1293.26 2431.62 1292.15 2428.29 1289.92 2425.89C1287.7 2423.48 1284.64 2422.27 1280.76 2422.27C1278.08 2422.27 1275.69 2422.85 1273.59 2424.01C1271.5 2425.17 1269.86 2426.87 1268.65 2429.09C1267.44 2431.32 1266.84 2434.02 1266.84 2437.19ZM1320.4 2490.45C1318.98 2490.45 1317.71 2490.34 1316.6 2490.1C1315.49 2489.89 1314.72 2489.67 1314.29 2489.46L1316.42 2482.07C1318.46 2482.59 1320.26 2482.78 1321.82 2482.64C1323.38 2482.5 1324.77 2481.8 1325.97 2480.55C1327.2 2479.32 1328.33 2477.32 1329.35 2474.55L1330.91 2470.28L1310.74 2415.45H1319.83L1334.89 2458.92H1335.46L1350.51 2415.45H1359.6L1336.45 2477.95C1335.41 2480.77 1334.12 2483.1 1332.58 2484.95C1331.04 2486.82 1329.25 2488.21 1327.22 2489.11C1325.2 2490 1322.93 2490.45 1320.4 2490.45ZM1373.35 2470.57C1371.6 2470.57 1370.1 2469.94 1368.84 2468.69C1367.59 2467.43 1366.96 2465.93 1366.96 2464.18C1366.96 2462.42 1367.59 2460.92 1368.84 2459.67C1370.1 2458.41 1371.6 2457.78 1373.35 2457.78C1375.11 2457.78 1376.61 2458.41 1377.86 2459.67C1379.12 2460.92 1379.75 2462.42 1379.75 2464.18C1379.75 2465.34 1379.45 2466.4 1378.86 2467.37C1378.29 2468.34 1377.52 2469.12 1376.55 2469.72C1375.6 2470.28 1374.54 2470.57 1373.35 2470.57ZM1396.51 2397.27V2403.66C1396.51 2405.61 1396.15 2407.68 1395.44 2409.88C1394.76 2412.06 1393.74 2414.18 1392.39 2416.24C1391.06 2418.27 1389.45 2420.05 1387.56 2421.56L1383.01 2417.87C1384.51 2415.74 1385.8 2413.53 1386.88 2411.23C1388 2408.91 1388.55 2406.43 1388.55 2403.81V2397.27H1396.51ZM1414.69 2397.27V2403.66C1414.69 2405.61 1414.33 2407.68 1413.62 2409.88C1412.94 2412.06 1411.92 2414.18 1410.57 2416.24C1409.24 2418.27 1407.63 2420.05 1405.74 2421.56L1401.2 2417.87C1402.69 2415.74 1403.98 2413.53 1405.07 2411.23C1406.18 2408.91 1406.74 2406.43 1406.74 2403.81V2397.27H1414.69Z" fill="white"/>
</svg>
