<svg width="2000" height="3000" viewBox="0 0 2000 3000" fill="none" xmlns="http://www.w3.org/2000/svg">
<g clip-path="url(#clip0_464_13)">
<rect width="2000" height="3000" fill="black"/>
<path d="M686.02 537.278C655.664 566.272 19.9745 1217.96 19.9745 1217.96C8.7583 1252.35 10.4268 1272.34 19.9745 1308.56L1182.43 2441.03C1213.09 2457.25 1229.88 2456.7 1259.21 2441.03L1987.75 1764.57C2000.61 1736.8 2007.22 1720.97 1987.75 1678.8L748.518 488.96C735.502 482.668 716.376 508.284 686.02 537.278Z" fill="#5CB25C"/>
<path d="M1987.75 1764.57L1259.21 2441.03C1229.88 2456.7 1213.09 2457.25 1182.43 2441.03L19.9745 1308.56C10.4268 1272.34 8.7583 1252.35 19.9745 1217.96L3.90368 1255.41C-1.47422 1276.18 -1.12532 1288.1 3.90368 1309.77C3.14757 1333.71 11.7806 1349.29 23.5458 1376.2L1186 2502.63L1188.16 2503.24C1216.81 2511.25 1233.53 2515.93 1262.78 2502.63L1337.78 2442.23L1971.68 1850.33C1982.55 1835.28 1983.08 1818.91 1987.75 1764.57Z" fill="#1D601D"/>
<path d="M19.9745 1217.96C19.9745 1217.96 655.664 566.272 686.02 537.278C716.376 508.284 735.502 482.668 748.518 488.96L1987.75 1678.8C2007.22 1720.97 2000.61 1736.8 1987.75 1764.57M19.9745 1217.96C8.7583 1252.35 10.4268 1272.34 19.9745 1308.56L1182.43 2441.03C1213.09 2457.25 1229.88 2456.7 1259.21 2441.03L1987.75 1764.57M19.9745 1217.96L3.90368 1255.41C-1.47422 1276.18 -1.12532 1288.1 3.90368 1309.77C3.14757 1333.71 11.7806 1349.29 23.5458 1376.2L1186 2502.63M1987.75 1764.57C1983.08 1818.91 1982.55 1835.28 1971.68 1850.33L1337.78 2442.23L1262.78 2502.63C1233.53 2515.93 1216.81 2511.25 1188.16 2503.24M1186 2502.63L1188.16 2503.24M1186 2502.63C1186.73 2502.83 1187.45 2503.04 1188.16 2503.24" stroke="black"/>
</g>
<defs>
<clipPath id="clip0_464_13">
<rect width="2000" height="3000" fill="white"/>
</clipPath>
</defs>
</svg>
