<svg width="185" height="185" viewBox="0 0 185 185" fill="none" xmlns="http://www.w3.org/2000/svg">
<path d="M181.791 92.5002C181.791 93.9612 181.756 95.4221 181.684 96.8831C181.612 98.3409 181.506 99.7988 181.362 101.253C181.218 102.708 181.04 104.157 180.824 105.602C180.611 107.047 180.361 108.486 180.076 109.919C179.791 111.352 179.469 112.778 179.116 114.196C178.759 115.613 178.371 117.02 177.946 118.419C177.523 119.817 177.064 121.206 176.572 122.583C176.081 123.956 175.553 125.32 174.996 126.672C174.436 128.02 173.844 129.356 173.219 130.676C172.593 131.999 171.936 133.304 171.248 134.593C170.56 135.882 169.84 137.152 169.089 138.406C168.335 139.657 167.556 140.893 166.743 142.107C165.933 143.324 165.091 144.516 164.218 145.692C163.349 146.865 162.451 148.017 161.525 149.146C160.596 150.275 159.642 151.383 158.662 152.465C157.68 153.547 156.673 154.605 155.64 155.64C154.605 156.673 153.547 157.68 152.465 158.662C151.383 159.642 150.275 160.596 149.146 161.525C148.017 162.451 146.865 163.349 145.692 164.218C144.516 165.091 143.324 165.933 142.107 166.743C140.893 167.556 139.657 168.335 138.406 169.089C137.152 169.84 135.882 170.56 134.593 171.248C133.304 171.936 131.999 172.593 130.676 173.219C129.356 173.844 128.02 174.436 126.672 174.996C125.32 175.553 123.956 176.081 122.583 176.572C121.206 177.064 119.817 177.523 118.419 177.946C117.02 178.371 115.613 178.759 114.196 179.116C112.778 179.469 111.352 179.791 109.919 180.076C108.486 180.361 107.047 180.611 105.602 180.824C104.157 181.04 102.708 181.218 101.253 181.362C99.7988 181.506 98.3409 181.612 96.8831 181.684C95.4221 181.756 93.9612 181.791 92.5002 181.791C91.0393 181.791 89.5783 181.756 88.1174 181.684C86.6595 181.612 85.2017 181.506 83.747 181.362C82.2923 181.218 80.8439 181.04 79.3986 180.824C77.9533 180.611 76.5142 180.361 75.0814 180.076C73.6486 179.791 72.2221 179.469 70.8049 179.116C69.3878 178.759 67.98 178.371 66.5816 177.946C65.1832 177.523 63.7942 177.064 62.4177 176.572C61.0444 176.081 59.6804 175.553 58.3289 174.996C56.9806 174.436 55.6448 173.844 54.3246 173.219C53.0013 172.593 51.6968 171.936 50.4079 171.248C49.119 170.56 47.8488 169.84 46.5944 169.089C45.343 168.335 44.1073 167.556 42.8935 166.743C41.6765 165.933 40.4846 165.091 39.3084 164.218C38.1352 163.349 36.984 162.451 35.8546 161.525C34.7253 160.596 33.6178 159.642 32.5354 158.662C31.453 157.68 30.3956 156.673 29.3601 155.64C28.3277 154.605 27.3204 153.547 26.3381 152.465C25.3589 151.383 24.4047 150.275 23.4756 149.146C22.5496 148.017 21.6518 146.865 20.7821 145.692C19.9093 144.516 19.0677 143.324 18.2575 142.107C17.4441 140.893 16.6651 139.657 15.9112 138.406C15.1604 137.152 14.4409 135.882 13.7526 134.593C13.0644 133.304 12.4074 131.999 11.7817 130.676C11.1561 129.356 10.5648 128.02 10.0048 126.672C9.44795 125.32 8.91926 123.956 8.4281 122.583C7.93695 121.206 7.47707 119.817 7.05474 118.419C6.62928 117.02 6.24136 115.613 5.88473 114.196C5.53122 112.778 5.209 111.352 4.92431 109.919C4.63963 108.486 4.38936 107.047 4.17663 105.602C3.96077 104.157 3.78245 102.708 3.63855 101.253C3.49464 99.7988 3.38828 98.3409 3.31633 96.8831C3.24437 95.4221 3.20996 93.9612 3.20996 92.5002C3.20996 91.0393 3.24437 89.5783 3.31633 88.1174C3.38828 86.6595 3.49464 85.2017 3.63855 83.747C3.78245 82.2923 3.96077 80.8439 4.17663 79.3986C4.38936 77.9533 4.63963 76.5142 4.92431 75.0814C5.209 73.6486 5.53122 72.2221 5.88473 70.8049C6.24136 69.3878 6.62928 67.98 7.05474 66.5816C7.47707 65.1832 7.93695 63.7942 8.4281 62.4177C8.91926 61.0444 9.44795 59.6804 10.0048 58.3289C10.5648 56.9806 11.1561 55.6448 11.7817 54.3246C12.4074 53.0013 13.0644 51.6968 13.7526 50.4079C14.4409 49.119 15.1604 47.8488 15.9112 46.5944C16.6651 45.343 17.4441 44.1073 18.2575 42.8935C19.0677 41.6765 19.9093 40.4846 20.7821 39.3084C21.6518 38.1352 22.5496 36.984 23.4756 35.8546C24.4047 34.7253 25.3589 33.6178 26.3381 32.5354C27.3204 31.453 28.3277 30.3956 29.3601 29.3601C30.3956 28.3277 31.453 27.3204 32.5354 26.3381C33.6178 25.3589 34.7253 24.4047 35.8546 23.4756C36.984 22.5496 38.1352 21.6518 39.3084 20.7821C40.4846 19.9093 41.6765 19.0677 42.8935 18.2575C44.1073 17.4441 45.343 16.6651 46.5944 15.9112C47.8488 15.1604 49.119 14.4409 50.4079 13.7526C51.6968 13.0644 53.0013 12.4074 54.3246 11.7817C55.6448 11.1561 56.9806 10.5648 58.3289 10.0048C59.6804 9.44795 61.0444 8.91926 62.4177 8.4281C63.7942 7.93695 65.1832 7.47707 66.5816 7.05474C67.98 6.62928 69.3878 6.24136 70.8049 5.88473C72.2221 5.53122 73.6486 5.209 75.0814 4.92431C76.5142 4.63963 77.9533 4.38936 79.3986 4.17663C80.8439 3.96077 82.2923 3.78245 83.747 3.63855C85.2017 3.49464 86.6595 3.38828 88.1174 3.31633C89.5783 3.24437 91.0393 3.20996 92.5002 3.20996C93.9612 3.20996 95.4221 3.24437 96.8831 3.31633C98.3409 3.38828 99.7988 3.49464 101.253 3.63855C102.708 3.78245 104.157 3.96077 105.602 4.17663C107.047 4.38936 108.486 4.63963 109.919 4.92431C111.352 5.209 112.778 5.53122 114.196 5.88473C115.613 6.24136 117.02 6.62928 118.419 7.05474C119.817 7.47707 121.206 7.93695 122.583 8.4281C123.956 8.91926 125.32 9.44795 126.672 10.0048C128.02 10.5648 129.356 11.1561 130.676 11.7817C131.999 12.4074 133.304 13.0644 134.593 13.7526C135.882 14.4409 137.152 15.1604 138.406 15.9112C139.657 16.6651 140.893 17.4441 142.107 18.2575C143.324 19.0677 144.516 19.9093 145.692 20.7821C146.865 21.6518 148.017 22.5496 149.146 23.4756C150.275 24.4047 151.383 25.3589 152.465 26.3381C153.547 27.3204 154.605 28.3277 155.64 29.3601C156.673 30.3956 157.68 31.453 158.662 32.5354C159.642 33.6178 160.596 34.7253 161.525 35.8546C162.451 36.984 163.349 38.1352 164.218 39.3084C165.091 40.4846 165.933 41.6765 166.743 42.8935C167.556 44.1073 168.335 45.343 169.089 46.5944C169.84 47.8488 170.56 49.119 171.248 50.4079C171.936 51.6968 172.593 53.0013 173.219 54.3246C173.844 55.6448 174.436 56.9806 174.996 58.3289C175.553 59.6804 176.081 61.0444 176.572 62.4177C177.064 63.7942 177.523 65.1832 177.946 66.5816C178.371 67.98 178.759 69.3878 179.116 70.8049C179.469 72.2221 179.791 73.6486 180.076 75.0814C180.361 76.5142 180.611 77.9533 180.824 79.3986C181.04 80.8439 181.218 82.2923 181.362 83.747C181.506 85.2017 181.612 86.6595 181.684 88.1174C181.756 89.5783 181.791 91.0393 181.791 92.5002Z" fill="#97CBFE"/>
<path d="M116.995 6.65112L4.61768 107.369C5.9097 115.078 8.25598 122.589 11.5032 129.672L149.121 23.438C139.651 15.7297 128.733 10.0173 116.995 6.65112ZM172.909 53.7239L31.4217 157.492C38.9736 164.575 47.7362 170.328 57.284 174.395L181.79 92.5002C181.79 79.0794 178.74 65.8151 172.909 53.7239Z" fill="#C0DEFF"/>
<path d="M93.0884 3.20996C92.6191 3.20996 92.1874 3.20996 91.7181 3.2475C90.8578 3.28817 89.9569 3.32571 89.0966 3.40392C43.2376 6.65118 6.53543 43.394 3.40392 89.253C3.36638 90.0351 3.28817 90.8172 3.2475 91.5993C3.2475 91.9903 3.2475 92.422 3.20996 92.8131C3.40392 142.038 43.3158 181.791 92.5002 181.791C141.804 181.791 181.791 141.804 181.791 92.5002C181.791 43.4316 142.154 3.56034 93.0884 3.20996ZM90.3886 13.8903V90.4261H13.8903C16.4743 49.2629 49.2629 16.4743 90.3886 13.8903ZM100.912 13.8903C142.038 16.4743 174.827 49.3035 177.448 90.4261H100.912V13.8903ZM13.8903 100.912H90.3886V177.448C49.2629 174.867 16.4743 142.038 13.8903 100.912ZM100.912 100.912H177.448C174.867 142.038 142.038 174.827 100.912 177.448V100.912Z" fill="#5CADFD"/>
<mask id="mask0_6_5125" style="mask-type:luminance" maskUnits="userSpaceOnUse" x="0" y="0" width="185" height="185">
<path d="M0 0H185V185H0V0Z" fill="white"/>
</mask>
<g mask="url(#mask0_6_5125)">
<path d="M92.5 0C41.4761 0 0 41.4761 0 92.5C0 143.524 41.4761 185 92.5 185C143.524 185 185 143.524 185 92.5C185 41.4761 143.524 0 92.5 0ZM87.2162 10.721V87.2568H10.721C13.305 46.0936 46.0936 13.305 87.2162 10.721ZM97.7838 10.721C138.906 13.305 171.695 46.1311 174.317 87.2568H97.7838V10.721ZM10.721 97.7838H87.2162V174.279C46.0936 171.695 13.305 138.906 10.721 97.7838ZM97.7838 97.7838H174.279C171.695 138.906 138.869 171.695 97.7432 174.317V97.7838H97.7838Z" fill="#EBF6FC"/>
</g>
</svg>
