<svg width="252" height="249" viewBox="0 0 252 249" fill="none" xmlns="http://www.w3.org/2000/svg">
<mask id="mask0_6_5290" style="mask-type:luminance" maskUnits="userSpaceOnUse" x="0" y="0" width="252" height="249">
<path d="M0 0H252V248.118H0V0Z" fill="white"/>
</mask>
<g mask="url(#mask0_6_5290)">
<path d="M251.715 120.228C251.715 122.867 250.999 125.272 251.02 127.89C251.042 130.508 250.429 133.101 250.342 135.807C250.269 141.287 249.488 146.67 247.989 151.956C246.267 157.7 245.351 163.574 243.279 169.234C241.479 174.546 239.298 179.703 236.738 184.704C235.21 187.272 233.513 189.735 231.657 192.089C230.197 194.069 229.217 196.347 227.823 198.218C226.135 200.442 224.334 202.569 222.413 204.6C221.131 206.539 219.386 207.923 217.18 208.75C216.334 209.694 215.544 210.68 214.806 211.708C213.51 213.629 211.999 215.366 210.268 216.923C206.253 220.183 202.061 223.212 197.687 226.007C193.318 228.961 188.733 231.549 183.932 233.777C181.358 234.86 178.72 235.774 176.234 237.033C174.951 237.738 173.609 238.304 172.201 238.732C171.856 238.98 171.471 239.102 171.044 239.097C168.32 239.542 165.725 240.381 163.26 241.606C160.799 242.479 158.29 243.226 155.782 243.885C150.234 245.177 144.617 246.058 138.931 246.524C136.293 246.822 133.806 247.246 131.168 247.35C129.359 247.35 127.658 248.076 125.828 248.16C123.634 248.139 121.454 247.963 119.287 247.627C117.257 247.46 115.228 247.439 113.203 247.074C110.565 246.608 107.992 245.756 105.376 245.097C102.76 244.439 100.73 244.074 98.4205 243.373C96.1064 242.672 94.0599 241.246 91.6162 240.692C89.1769 240.138 87.2556 239.286 85.0753 238.565L77.2694 235.649C75.3093 234.948 73.1937 234.713 71.2509 233.966C67.2529 232.573 63.445 230.794 59.827 228.625C55.8592 226.074 51.7404 223.691 47.9886 220.817C46.2875 219.499 44.6728 218.094 42.9976 216.751C42.2507 216.197 41.7283 215.488 41.4261 214.624C40.6835 214.091 39.9236 213.583 39.2458 213.008C37.726 211.704 36.3315 210.285 35.0578 208.75C32.5106 205.88 30.4814 202.624 28.1499 199.578C25.8142 196.536 23.418 193.452 21.173 190.301C18.9236 187.154 18.2717 183.152 16.6785 179.661C13.1685 172.574 9.96492 165.576 7.17154 158.468C5.71224 154.742 3.968 151.084 2.81093 147.274C1.9129 144.001 1.35163 140.674 1.13576 137.297C0.565862 133.592 0.306816 130.017 0.0866265 126.207C-0.00835646 124.919 0.0520873 123.635 0.263641 122.356C0.630623 120.61 1.48116 119.079 1.76611 117.291C2.37487 113.356 2.22376 109.332 2.81093 105.396C3.40242 101.461 4.44723 98.205 5.27618 94.6092C8.37178 80.8388 12.646 66.179 21.0175 54.368C25.5336 47.9863 27.1656 48.2632 34.8851 39.0033C37.916 35.3949 41.3311 32.1768 45.1304 29.3447L47.2028 27.9601C48.5541 27.0874 49.953 26.2818 51.2396 25.3C54.6245 22.3966 58.2597 19.8204 62.1411 17.5757C66.9378 15.1086 72.1014 13.3212 77.0751 11.194C81.6516 9.25557 86.4267 8.08496 91.0722 6.36052C95.761 4.79551 100.553 3.60392 105.441 2.78576C110.44 1.45152 115.526 0.620762 120.703 0.297692C125.849 0.297692 131.013 0.297692 136.181 0.297692C138.797 0.159233 141.414 0.159233 144.03 0.297692C147.864 0.624958 151.629 1.30886 155.324 2.34101C157.069 2.80673 159.249 3.5326 162.15 4.46824C164.46 5.25704 166.511 6.42765 168.864 7.32134C170.763 8.06398 172.724 8.59684 174.597 9.44857C176.933 10.4052 178.958 11.8108 181.272 12.9394C183.582 14.0639 185.24 15.3226 187.334 16.1491C191.448 17.7142 195.269 19.7952 198.801 22.384C202.268 24.9811 205.648 27.6622 209.115 30.2384C212.655 33.0789 215.842 36.2635 218.665 39.7921C219.926 41.2396 221.39 42.5361 222.542 44.0465C223.699 45.5612 225.422 47.3234 226.644 49.0688C228.41 51.5611 228.647 52.2827 230.305 54.8799C233.664 60.1162 234.515 59.6462 236.98 63.7958C237.874 65.3272 237.938 64.6475 240.641 71.6922C241.686 74.4362 243.279 76.9452 244.371 79.6934C245.515 82.5171 246.431 85.408 247.117 88.3744C248.227 93.5015 250.105 98.5658 250.8 103.76C251.404 109.231 251.707 114.724 251.715 120.228Z" fill="#866255"/>
</g>
<path d="M248.447 118.018C248.447 117.25 248.447 116.482 248.447 115.739C248.473 110.637 247.929 105.594 246.811 100.609L246.552 99.4179C245.546 94.9075 244.501 90.225 243.149 85.7566C242.118 82.5888 240.861 79.5133 239.376 76.5218C238.724 75.1372 238.068 73.7568 237.502 72.4561C236.656 70.0562 235.564 67.7653 234.23 65.5835C233.673 64.6185 232.947 63.7961 232.049 63.1164C231.764 62.9067 231.462 62.7388 231.134 62.6046C230.435 61.7109 229.834 60.7501 229.347 59.7305C229.083 59.1976 228.803 58.69 228.496 58.1781C227.974 57.3263 227.43 56.5166 226.881 55.69C226.337 54.8593 225.595 53.7726 224.986 52.774C222.642 49.1908 219.973 45.8594 216.986 42.7714C216.178 41.8987 215.393 40.963 214.607 40.0483C212.845 37.7994 210.868 35.7519 208.679 33.8974C207.151 32.7268 205.605 31.5772 204.055 30.4527C202.138 29.0472 200.152 27.5786 198.278 26.0682C194.505 23.085 190.356 20.7396 185.827 19.0236C184.916 18.6418 184.048 18.1718 183.232 17.618C182.58 17.2362 181.946 16.8334 181.272 16.4935C179.286 15.4908 177.326 14.3621 175.383 13.4055C173.781 12.5621 172.115 11.8531 170.392 11.2783C169.628 11.0223 168.842 10.7454 168.082 10.4475C167.318 10.1496 166.269 9.68388 165.397 9.27689C164.525 8.8741 163.216 8.32027 162.215 7.91748C161.213 7.51049 159.706 7.12868 157.703 6.59582L156.175 6.15108C153.666 5.40424 152.406 5.0434 151.141 4.76649C150.705 4.76649 149.962 4.55251 148.96 4.40565C147.954 4.25461 146.167 3.93573 144.358 3.59588C142.264 3.31057 140.166 3.24344 138.059 3.40288H136.008C133.435 3.40288 130.84 3.40288 128.267 3.40288C125.694 3.40288 123.099 3.40288 120.526 3.40288C116.653 3.60007 112.845 4.20006 109.102 5.21543C107.858 5.48815 106.593 5.79024 105.333 6.04199C100.394 6.93568 95.5493 8.1902 90.8088 9.80975C88.6285 10.5985 86.3187 11.3622 84.052 12.109C76.3929 14.3789 69.0662 17.4166 62.072 21.2137C55.816 24.9186 52.2412 27.5996 50.825 29.58C49.8234 31.0066 48.5282 32.1058 46.9437 32.8778C46.6069 32.9744 46.2788 33.096 45.9593 33.2387H45.5448L45.221 33.5156C44.4914 34.2499 43.6495 34.8247 42.691 35.24H42.4492L42.2765 35.4079C41.4907 36.2176 40.7956 37.1113 40.0962 37.833C39.8328 38.198 39.5738 38.4959 39.3536 38.7519C38.1102 40.1742 36.7588 41.5588 35.4507 43.0063C34.5569 43.921 33.6632 44.8566 32.7911 45.7923C27.4807 50.9446 23.0208 56.718 19.4027 63.1164C12.6891 75.884 9.15748 90.6068 6.32092 103.374C5.80715 106.127 5.49629 108.9 5.38404 111.695C5.38404 112.739 5.25452 113.826 5.16817 114.825V115.504C5.0775 116.885 4.87026 118.244 4.55509 119.591C4.40398 120.145 4.23128 120.657 4.05427 121.164C3.60957 122.238 3.34189 123.35 3.24691 124.508C3.19078 127.877 3.3937 131.23 3.85998 134.57C3.98951 135.572 4.07586 136.592 4.16652 137.616C4.31763 139.97 4.66734 142.294 5.21134 144.593C5.94099 147.102 6.83901 149.548 7.91405 151.936C8.30694 152.808 8.67824 153.681 9.02795 154.575C9.37335 155.469 9.78782 156.488 10.1807 157.47C11.1651 159.807 12.102 162.148 13.1684 164.447L13.7814 165.769C16.6223 171.467 19.0962 177.32 21.1945 183.324C23.0467 188.04 25.6846 192.299 29.1083 196.092C30.0452 197.283 31.0037 198.454 31.8758 199.645L33.2056 201.454C34.8851 203.828 36.7027 206.098 38.6585 208.263C39.7767 209.4 40.9899 210.437 42.2981 211.368C42.7773 211.708 43.2566 212.073 43.779 212.497C43.9042 212.577 44.0208 212.669 44.1287 212.774C44.6986 213.24 45.221 213.751 45.7002 214.305C45.8686 214.494 45.9507 214.712 45.9377 214.964V215.476L46.3522 215.795L48.7743 217.603L49.1024 217.838C51.1143 219.369 53.2083 220.788 55.3799 222.092L55.9023 222.432C59.8269 225.143 64.0062 227.408 68.4402 229.221C69.118 229.477 69.7699 229.775 70.4262 230.052C71.6998 230.673 73.0296 231.155 74.4155 231.499C76.4015 231.99 78.34 232.611 80.2354 233.371C84.2463 234.881 88.4558 236.329 93.4899 237.948C94.4441 238.28 95.3723 238.661 96.2833 239.098C97.3497 239.635 98.455 240.08 99.5948 240.436C100.925 240.839 102.259 241.137 103.61 241.435C104.59 241.67 105.57 241.884 106.55 242.161L108.73 242.735C110.28 243.159 111.895 243.629 113.549 243.948C114.87 244.175 116.2 244.309 117.542 244.351C118.436 244.351 119.308 244.351 120.202 244.565H120.526C122.024 244.791 123.526 244.917 125.042 244.947C125.456 244.968 125.871 244.968 126.285 244.947C127.08 244.871 127.865 244.737 128.638 244.544C129.463 244.342 130.296 244.221 131.147 244.183C134.799 244.04 138.434 243.7 142.048 243.159L145.101 242.756C150.07 242.085 154.931 240.969 159.685 239.417C160.842 239.052 161.865 238.649 163.13 238.246C164.395 237.839 165.004 237.583 165.967 237.285L167.098 236.882L168.821 236.287L169.127 236.161C169.313 236.014 169.524 235.938 169.757 235.926C171.778 235.766 173.626 235.129 175.297 234.008C175.953 233.668 176.583 233.329 177.17 233.052L179.463 232.137C181.311 231.457 183.103 230.664 184.847 229.754C188.901 227.627 192.804 225.202 197.385 222.39C199.755 220.926 202.039 219.34 204.228 217.624L205.493 216.646C207.082 215.547 208.537 214.297 209.853 212.9C210.644 211.981 211.369 211.016 212.034 210.009C213.286 207.777 215.017 205.989 217.223 204.647C217.4 204.601 217.573 204.601 217.746 204.647H218.272L218.618 204.282C219.011 203.858 219.382 203.409 219.71 203.006L220.297 202.368L220.975 201.622C221.739 200.77 222.499 199.922 223.155 199.029C224.235 197.686 225.198 196.268 226.031 194.77C226.687 193.687 227.296 192.643 228.038 191.665L228.168 191.472C229.804 189.345 231.484 187.088 232.986 184.792C234.42 182.422 235.633 179.955 236.63 177.387L237.066 176.342C239.234 171.45 241.012 166.432 242.407 161.275C242.692 160.084 242.972 158.892 243.236 157.701C243.586 156.148 243.935 154.596 244.345 153.043C244.587 152.129 244.851 151.256 245.11 150.362C245.636 148.747 246.064 147.106 246.396 145.445C246.819 142.621 247.096 139.785 247.225 136.932C247.225 134.805 247.467 132.677 247.726 130.55C247.791 129.707 247.791 128.863 247.726 128.016C247.683 127.395 247.683 126.77 247.726 126.145C247.791 125.591 247.903 125.045 248.054 124.508L248.317 123.313C248.572 121.555 248.615 119.788 248.447 118.018ZM188.206 212.69L187.42 211.901C183.729 214.398 179.856 216.584 175.797 218.455C175.081 218.774 174.338 219.051 173.617 219.348C172.089 219.927 170.591 220.578 169.127 221.308C168.061 221.879 166.947 222.344 165.79 222.709H165.509C165.323 222.856 165.112 222.927 164.874 222.923C163.078 223.099 161.377 223.59 159.771 224.392H159.469C158.947 224.627 158.441 224.841 157.941 225.009C156.067 225.667 154.038 226.284 151.534 226.947C147.324 227.979 143.054 228.688 138.732 229.074L137.031 229.263L134.851 229.54C133.327 229.733 131.842 229.926 130.339 230.01C129.515 230.056 128.703 230.169 127.896 230.35C127.179 230.518 126.454 230.631 125.715 230.69H125.063C124.04 230.669 123.021 230.585 122.011 230.434H121.748L120.046 230.245L118.829 230.136H118.237C117.08 230.085 115.932 229.964 114.792 229.775C113.484 229.54 112.154 229.179 110.868 228.818L110.324 228.692C109.581 228.457 108.843 228.264 108.143 228.071L105.963 227.543C104.633 227.245 103.433 226.968 102.233 226.582C101.313 226.271 100.411 225.911 99.53 225.499L99.0292 225.285C98.1571 224.87 97.2547 224.522 96.3265 224.245C94.4311 223.733 92.5746 223.074 90.7009 222.369L83.9182 219.839C83.0849 219.558 82.2344 219.323 81.3709 219.135C80.4254 219 79.4928 218.799 78.5775 218.539C75.1624 217.351 71.9071 215.832 68.8115 213.986L66.0656 212.241C63.4708 210.626 60.9624 209.027 58.6051 207.24C57.7329 206.581 56.9083 205.88 56.0578 205.112L54.3567 203.728C53.3464 202.851 52.3879 201.919 51.477 200.942L50.389 199.834C49.6896 199.112 48.7958 198.198 47.7942 197.241L47.4661 196.855C46.1018 195.273 44.8454 193.612 43.6926 191.875C42.9975 190.918 42.3197 189.962 41.5123 189.026L40.5539 187.792C38.9607 185.577 37.1517 183.215 35.5629 181.088C34.4317 179.317 33.5942 177.425 33.0545 175.407L32.7911 174.706C32.4414 173.703 32.096 172.705 31.6815 171.727C31.2671 170.745 30.6108 169.428 30.1316 168.32L29.6739 167.301C27.6447 162.874 25.5767 158.276 23.7634 153.681C23.3057 152.532 22.8265 151.34 22.3257 150.211C21.5183 148.319 20.6246 146.167 19.9295 144.06C19.2905 141.925 18.889 139.747 18.7292 137.528L18.509 135.53C18.1636 132.828 17.9003 129.782 17.7276 125.973C17.6283 124.899 17.6715 123.829 17.8571 122.763C17.9996 122.108 18.1939 121.466 18.4443 120.845V120.631C18.7206 119.897 18.9321 119.146 19.0789 118.378C19.3164 116.847 19.4027 115.269 19.4934 113.738L19.7093 112.995C19.7481 111.363 19.8863 109.739 20.1238 108.12C20.4476 106.097 20.8836 104.096 21.4319 102.12C21.7169 101.012 21.9975 99.9927 22.2393 98.8221C24.7046 87.46 28.4305 74.4365 35.6708 64.0521C38.9737 59.7263 42.609 55.6816 46.5724 51.9222L47.6604 50.8146C48.295 50.1768 48.947 49.4342 49.6896 48.5615C50.4322 47.6888 50.7344 47.3237 51.3043 46.7279L51.5201 46.4762V46.1321C51.546 45.9056 51.6497 45.7126 51.8224 45.5531C51.9951 45.3979 52.198 45.314 52.4354 45.3056H52.7204L52.9578 45.0916C53.5493 44.6007 54.197 44.1937 54.9007 43.879L55.3368 43.5392C55.6692 43.1867 56.0319 42.8679 56.4247 42.5784C57.1889 42.0077 58.0395 41.4749 58.8468 40.984C59.8269 40.3924 60.7724 39.7546 61.6791 39.0707C62.4001 38.5379 63.1211 37.9631 63.8594 37.3253C66.0613 35.4792 68.4229 33.8513 70.9486 32.4499C73.824 30.9604 76.9196 29.7059 80.0627 28.4514C81.3018 27.9605 82.5668 27.4738 83.7886 26.9409C85.969 26.0682 88.1493 25.3633 90.1569 24.6836L90.6793 24.5158C92.4451 23.9619 94.1678 23.4081 95.8688 22.7703C99.1458 21.6417 102.496 20.79 105.92 20.2151L111.001 19.1285C114.373 18.2515 117.801 17.7397 121.29 17.597H136.53C138.154 17.4921 139.773 17.4921 141.392 17.597C142.13 17.6767 142.86 17.811 143.572 18.004H143.9L144.557 18.1299L145.537 18.3439L145.908 18.1509C146.102 18.046 146.314 17.9872 146.538 17.983C147.859 18.1257 149.133 18.4529 150.355 18.9606L151.184 19.3634L154.258 20.32L157.068 21.2809C158.156 21.6543 159.214 22.0864 160.255 22.5773L161.17 22.9801C161.736 23.2361 162.301 23.492 162.85 23.685C163.393 23.8738 164.417 24.2808 165.203 24.5577L165.595 24.6836C166.312 24.9395 167.076 25.1745 167.776 25.4724C168.946 26.0011 170.09 26.5885 171.199 27.2388C171.959 27.6626 172.745 28.1115 173.509 28.4933C174.273 28.8751 174.925 29.2402 175.69 29.7059C176.683 30.3101 177.714 30.8429 178.785 31.3003C182.295 32.6219 185.551 34.3883 188.551 36.5995L192.26 39.4316L192.653 39.7504L197.471 43.4301C200.195 45.5615 202.643 47.9615 204.819 50.6258L205.648 51.5824C206.084 52.0691 206.52 52.518 206.956 52.9628L207.302 53.3698C207.911 53.9614 208.472 54.5907 208.981 55.262C209.508 55.9418 210.052 56.6047 210.618 57.2634C211.295 58.0019 211.926 58.7739 212.513 59.5836C213.299 60.7123 214.063 61.9458 214.693 63.1374L215.108 63.7961C217.426 66.4059 219.49 69.1919 221.303 72.1582C221.303 72.3093 221.761 73.2659 222.391 74.6505L222.957 75.7959L223.134 76.14C223.613 77.0756 224.092 78.0323 224.485 79.0308C224.878 80.0336 225.487 81.3091 226.009 82.3748L226.143 82.6056C226.666 83.6503 227.231 84.7328 227.689 85.9496C228.695 88.3621 229.472 90.846 230.024 93.397C230.327 94.7774 230.72 96.183 231.091 97.6515L231.376 98.7172C231.549 99.3339 232.727 104.205 233.228 106.802C234.083 111.43 234.346 116.092 234.014 120.782C234.014 121.823 233.927 122.859 233.75 123.887V124.122C233.539 125.205 233.427 126.3 233.422 127.399C233.405 128.624 233.31 129.845 233.142 131.062C232.978 132.103 232.878 133.156 232.835 134.209C232.796 138.916 232.131 143.532 230.828 148.063C230.219 150.19 229.696 152.318 229.196 154.445C228.578 157.327 227.792 160.164 226.838 162.958L226.536 163.81C225.068 168.081 223.302 172.23 221.234 176.258C220.25 177.987 219.145 179.636 217.923 181.218L216.895 182.577C216.26 183.462 215.686 184.386 215.177 185.342L215.043 185.577C214.585 186.324 214.149 187.088 213.627 187.704C212.5 189.269 211.27 190.75 209.944 192.152L208.588 193.641C207.643 195.034 206.365 196.012 204.755 196.578H204.448L204.228 196.813C203.77 197.325 203.334 197.9 202.941 198.433L201.611 200.174C200.752 201.58 199.716 202.842 198.494 203.963C195.014 206.778 191.383 209.388 187.593 211.796L188.184 212.69H188.206Z" fill="#7EAF94"/>
<path d="M231.462 118.869V118.164C231.462 117.72 231.462 117.292 231.462 116.868C231.47 112.483 231.009 108.149 230.067 103.865L229.761 102.59C228.91 98.7801 228.038 94.8193 226.881 91.0557C225.961 88.3621 224.856 85.7481 223.57 83.2013L223.22 82.4587C222.784 81.5021 222.348 80.5622 221.955 79.6266C221.562 78.6909 221.234 78.0951 220.845 77.3525L220.711 77.0546C220.297 76.3287 219.926 75.5861 219.602 74.8183C219.533 74.6882 219.472 74.5539 219.425 74.4155C219.425 74.2434 219.295 74.0756 219.187 73.8407C218.829 73.1274 218.358 72.4938 217.767 71.9442C217.422 71.6547 217.029 71.4449 216.593 71.3064C216.023 70.5974 215.535 69.8379 215.129 69.0324V68.8394C214.892 68.3485 214.628 67.9037 214.348 67.4128C214.063 66.9219 213.385 65.8814 212.862 65.1135C212.34 64.3499 211.796 63.5401 211.317 62.7514C209.309 59.6717 207.029 56.7976 204.469 54.1333C203.813 53.4326 203.226 52.711 202.595 52.0061L202.267 51.5823C200.791 49.7488 199.15 48.0747 197.341 46.56C195.964 45.4734 194.591 44.4328 193.196 43.43L192.804 43.1321C191.323 42.0496 189.816 41.0049 188.443 39.7504C185.196 37.212 181.634 35.2064 177.762 33.7295C177.049 33.4274 176.376 33.0666 175.732 32.6428L175.538 32.517C174.99 32.1729 174.424 31.854 173.859 31.5561C172.287 30.7506 170.651 29.9198 168.734 28.8751C167.382 28.1786 165.979 27.5954 164.524 27.1296C163.851 26.9199 163.195 26.6849 162.478 26.408C161.757 26.1311 160.842 25.7283 160.034 25.3423C159.227 24.9605 158.312 24.5577 157.418 24.2178C156.524 23.8738 155.566 23.601 154.65 23.3241H154.43C153.692 23.1311 152.928 22.8962 152.25 22.6612L151.512 22.3633L150.527 21.8976C149.875 21.6416 149.219 21.3647 148.545 21.1507L148.174 21.0249L147.824 21.1717C147.708 21.1969 147.591 21.1969 147.475 21.1717C146.149 21.1801 144.85 21.0039 143.572 20.6431L143.049 20.513L141.806 20.299C140.062 20.0682 138.309 20.0221 136.552 20.1522H121.268C117.948 20.2864 114.684 20.7815 111.48 21.6416L110.41 21.8766L108.229 22.3423C103.968 23.1563 99.793 24.2891 95.7174 25.7492L91.1582 27.3017L89.7852 27.7716C83.2184 29.7142 76.9408 32.3156 70.9482 35.5798C69.0399 36.7588 67.2223 38.0553 65.4953 39.4735C64.2303 40.493 62.9005 41.6007 61.506 42.4734C61.1131 42.7503 60.7202 43.0063 60.2626 43.2832C59.8049 43.5601 59.1962 43.9629 58.6522 44.3447L58.3457 44.5587L58.2377 44.8985C58.1773 45.1755 58.0391 45.402 57.8189 45.5866C57.5987 45.7671 57.344 45.8636 57.0591 45.8803H56.6662L56.3812 46.1321C55.7422 46.7405 55.0169 47.223 54.2009 47.5796L53.8296 47.8565C53.2424 48.4733 52.6769 49.1572 52.2192 49.732L51.4766 50.6257C50.3195 51.9432 49.0545 53.2606 47.837 54.4774L47.1376 55.199C46.6799 55.669 46.2223 56.1347 45.7862 56.6256C41.2184 61.0521 37.3802 66.0198 34.276 71.5204C28.4733 82.6265 25.5547 95.2682 23.0463 106.227C22.0447 110.952 21.9756 112.802 22.239 113.591V113.826C22.2692 115.983 22.0317 118.11 21.5179 120.208C21.4618 120.346 21.41 120.489 21.3668 120.631C21.3668 120.887 21.1725 121.252 20.9739 121.802C20.6415 122.671 20.4299 123.564 20.3436 124.483C20.2788 127.387 20.4559 130.273 20.866 133.147C20.9739 133.995 21.0603 134.867 21.1466 135.828C21.2632 137.83 21.5568 139.81 22.0188 141.765C22.6405 143.901 23.409 145.986 24.3329 148.021L24.5704 148.554C24.8121 149.125 25.0712 149.72 25.313 150.341C25.5547 150.958 25.9433 151.915 26.2498 152.678C27.0788 154.81 27.8862 156.937 28.823 158.892L29.6088 160.554C31.9618 165.328 34.0169 170.225 35.7784 175.235C37.3759 179.237 39.6296 182.846 42.5395 186.068C43.3857 187.087 44.1931 188.195 45.0436 189.24L46.572 191.367C47.8759 193.18 49.279 194.917 50.7772 196.578C51.2348 197.107 51.7616 197.56 52.3487 197.942C52.8539 198.277 53.3202 198.659 53.7433 199.091C54.4211 199.729 54.9435 200.325 55.4659 200.9C56.5971 202.171 57.8405 203.329 59.1962 204.37L59.4768 204.579L59.805 204.835C61.5017 206.174 63.2762 207.407 65.124 208.54L65.4953 208.75C68.9018 211.116 72.5371 213.08 76.3969 214.645C76.9883 214.88 77.5539 215.115 78.1843 215.413C79.2593 215.916 80.3689 216.311 81.5216 216.604C83.2573 217.016 84.9497 217.557 86.6033 218.22C89.742 219.411 93.1442 220.603 98.0488 222.181C98.882 222.453 99.6894 222.793 100.467 223.2C101.378 223.645 102.314 224.018 103.282 224.329C104.348 224.669 105.462 224.904 106.55 225.16H106.921C107.707 225.327 108.514 225.499 109.322 225.734L110.759 226.116L111.783 226.414C112.918 226.712 114.097 227.031 115.249 227.266C116.376 227.459 117.512 227.572 118.652 227.606C119.437 227.606 120.223 227.606 120.832 227.773H121.138C122.403 227.971 123.673 228.076 124.955 228.097C125.331 228.113 125.711 228.113 126.086 228.097C126.773 228.042 127.451 227.929 128.115 227.752C128.832 227.576 129.557 227.476 130.296 227.455C133.482 227.32 136.651 227.014 139.803 226.54L141.983 226.242H142.264C146.568 225.709 150.773 224.773 154.888 223.435C155.937 223.137 157.068 222.776 157.962 222.411L160.341 221.606L160.734 221.476L161.429 221.22C161.865 221.073 162.279 220.901 162.715 220.796L163.065 220.624C163.281 220.473 163.518 220.402 163.786 220.414C165.435 220.242 166.955 219.709 168.341 218.816C168.876 218.505 169.429 218.22 169.999 217.964L172.179 217.137C173.729 216.567 175.232 215.9 176.691 215.136C180.201 213.197 183.56 211.179 186.807 209.199L187.592 208.75C189.63 207.5 191.582 206.136 193.46 204.668C193.853 204.37 194.267 204.051 194.613 203.753C195.96 202.842 197.181 201.789 198.278 200.602C198.904 199.884 199.474 199.133 200.001 198.345L200.152 198.135C201.27 196.154 202.811 194.564 204.776 193.368C204.94 193.297 205.117 193.255 205.298 193.238H205.734L206.019 192.92L206.779 192.068C206.934 191.854 207.103 191.648 207.28 191.451L207.478 191.216L209.788 188.577C210.695 187.453 211.502 186.261 212.21 185.002L212.34 184.792C212.841 183.92 213.393 183.085 213.998 182.279L214.607 181.448C215.764 179.896 217.093 178.109 218.272 176.321C219.503 174.278 220.56 172.151 221.432 169.94L221.761 169.172C223.621 164.955 225.154 160.629 226.359 156.19C226.622 155.15 226.859 154.063 227.101 152.976C227.339 151.894 227.688 150.362 228.038 149.062C228.168 148.529 228.323 148 228.474 147.467L228.668 146.809C229.135 145.411 229.506 143.993 229.782 142.55C230.149 140.137 230.391 137.712 230.503 135.274V134.914C230.503 133.147 230.698 131.339 230.918 129.593C230.97 128.884 230.97 128.175 230.918 127.462C230.87 126.917 230.87 126.371 230.918 125.826C230.97 125.381 231.056 124.94 231.177 124.508L231.419 123.401C231.635 121.89 231.647 120.38 231.462 118.869ZM193.809 64.4548L180.05 77.9021C179.955 78.0112 179.843 78.0909 179.709 78.1497C179.579 78.2084 179.441 78.2336 179.299 78.2336C179.152 78.2336 179.018 78.2084 178.884 78.1497C178.755 78.0909 178.642 78.0112 178.547 77.9021C178.439 77.814 178.353 77.7049 178.297 77.579C178.237 77.4532 178.206 77.3189 178.206 77.1805C178.206 77.042 178.237 76.9077 178.297 76.7819C178.353 76.656 178.439 76.5469 178.547 76.4588L192.324 63.0073C192.501 62.8059 192.726 62.701 193.002 62.6884H193.24C193.702 62.8185 193.999 63.1122 194.133 63.5611C194.224 63.9304 194.116 64.2282 193.809 64.4548ZM178.021 170.447L191.802 183.899C192.091 184.138 192.186 184.436 192.087 184.792C191.953 185.241 191.655 185.535 191.193 185.665C190.826 185.762 190.52 185.669 190.274 185.388L176.497 171.937C176.389 171.844 176.302 171.735 176.246 171.605C176.186 171.479 176.155 171.345 176.155 171.202C176.155 171.064 176.186 170.93 176.246 170.8C176.302 170.674 176.389 170.565 176.497 170.468C176.708 170.25 176.971 170.128 177.282 170.107C177.58 170.112 177.826 170.225 178.021 170.447ZM216.787 124.185C216.8 124.328 216.783 124.462 216.735 124.592C216.688 124.726 216.618 124.84 216.519 124.945C216.42 125.045 216.308 125.121 216.174 125.175C216.044 125.23 215.906 125.255 215.764 125.251H196.314C196.016 125.251 195.757 125.146 195.545 124.94C195.329 124.731 195.226 124.479 195.226 124.185C195.226 123.891 195.329 123.644 195.545 123.434C195.757 123.229 196.016 123.124 196.314 123.124H215.785C215.928 123.124 216.062 123.149 216.191 123.203C216.321 123.258 216.433 123.338 216.528 123.438C216.623 123.539 216.692 123.657 216.739 123.787C216.783 123.917 216.8 124.051 216.787 124.185ZM130.667 190.641V209.665C130.667 209.958 130.559 210.21 130.348 210.42C130.132 210.626 129.877 210.73 129.575 210.73C129.272 210.73 129.018 210.626 128.806 210.42C128.59 210.21 128.487 209.958 128.487 209.665V190.641C128.487 190.348 128.59 190.1 128.806 189.89C129.018 189.685 129.272 189.58 129.575 189.58C129.877 189.58 130.132 189.685 130.348 189.89C130.559 190.1 130.667 190.348 130.667 190.641ZM130.667 56.3067C130.667 56.6004 130.559 56.8522 130.348 57.0578C130.132 57.2675 129.877 57.3682 129.575 57.3682C129.272 57.3682 129.018 57.2675 128.806 57.0578C128.59 56.8522 128.487 56.6004 128.487 56.3067V37.3043C128.487 37.0106 128.59 36.7588 128.806 36.549C129.018 36.3435 129.272 36.2386 129.575 36.2386C129.877 36.2386 130.132 36.3435 130.348 36.549C130.559 36.7588 130.667 37.0106 130.667 37.3043V56.3067ZM126.306 124.399C126.268 122.511 126.108 120.631 125.827 118.76C125.629 117.229 125.434 115.634 125.37 114.078C125.236 110.419 125.041 106.781 124.843 103.144C124.648 99.5017 124.45 96.099 124.234 92.5032C124.165 90.8879 124.208 89.2767 124.364 87.6698C124.364 87.225 124.364 86.7971 124.364 86.3523V85.5216C124.364 85.3076 124.364 85.0768 124.364 84.8418C124.519 84.1328 124.519 83.4237 124.364 82.7146C124.333 82.5678 124.329 82.4251 124.359 82.2783C124.389 82.1356 124.446 82.0013 124.528 81.8797C124.614 81.758 124.718 81.6531 124.847 81.5734C124.972 81.4937 125.11 81.4391 125.257 81.4139C125.382 81.372 125.508 81.3552 125.637 81.3678C125.767 81.3804 125.888 81.4181 126.004 81.4811C126.116 81.544 126.211 81.6279 126.285 81.7328C126.363 81.8335 126.41 81.951 126.436 82.0769C126.915 84.2041 127.593 86.3313 128.245 88.3117C129.186 91.0935 129.916 93.9298 130.425 96.8206L131.125 101.31C131.669 104.78 132.213 108.25 132.692 111.736V112.567C132.981 115.022 133.426 117.447 134.022 119.847C134.527 121.34 134.794 122.872 134.829 124.441V125.209L135.222 125.356C135.222 125.591 135.222 125.847 135.222 126.145C135.222 126.803 135.222 127.487 135.222 128.146V128.272C134.894 128.826 134.548 129.338 134.199 129.87C133.75 130.936 133.378 132.027 133.085 133.147C131.854 135.417 130.399 137.544 128.724 139.529L128.267 140.146C127.023 141.786 125.736 143.402 124.471 145.021C122.183 147.933 119.83 150.958 117.628 154C114.334 158.468 110.738 163.063 106.921 167.682C106.027 168.79 105.004 169.809 104.003 170.896C102.997 171.979 102.081 172.898 101.166 173.959L100.579 174.706C99.5081 176.174 98.2301 177.446 96.7406 178.511C96.4513 178.688 96.1577 178.688 95.8685 178.511C95.4324 178.293 95.1863 177.945 95.1259 177.471C95.1777 176.472 95.4756 175.549 96.0196 174.706L97.0903 172.809C98.1351 170.959 99.2706 169.088 100.207 167.149C101.796 164.045 103.631 160.957 105.397 157.978C106.377 156.299 107.379 154.617 108.337 152.913C110.954 148.34 114.032 143.041 117.43 138.018L119.329 135.295C120.396 133.785 121.51 132.275 122.447 130.743C122.839 130.168 123.189 129.572 123.556 128.977C124.277 127.722 125.106 126.547 126.043 125.444L126.328 125.146V124.739C126.414 124.592 126.393 124.462 126.371 124.462L126.306 124.399ZM67.4382 184.792L81.2151 171.341C81.3921 171.14 81.6209 171.035 81.8929 171.022C82.2038 171.043 82.4628 171.165 82.6787 171.383C82.8989 171.588 83.0284 171.836 83.0716 172.13C83.0846 172.423 82.9723 172.663 82.7435 172.851L68.9838 186.282C68.8888 186.387 68.7766 186.467 68.6471 186.525C68.5132 186.584 68.3751 186.613 68.2326 186.613C68.0901 186.613 67.9519 186.584 67.8181 186.525C67.6886 186.467 67.5763 186.387 67.4813 186.282C67.3691 186.194 67.2827 186.093 67.218 185.971C67.1532 185.85 67.1187 185.724 67.11 185.585C67.1014 185.451 67.123 185.317 67.1705 185.191C67.2223 185.065 67.2957 184.952 67.395 184.855L67.4382 184.792ZM80.7575 76.8196C80.6625 76.9245 80.5502 77.0042 80.4207 77.063C80.2869 77.1217 80.1487 77.1511 80.0062 77.1511C79.8638 77.1511 79.7256 77.1217 79.5918 77.063C79.4622 77.0042 79.35 76.9245 79.255 76.8196L65.4953 63.4772C65.2061 63.2423 65.1024 62.9444 65.1931 62.5835C65.3442 62.1388 65.6464 61.8493 66.1084 61.7108C66.4711 61.6143 66.7776 61.7066 67.0237 61.9877L80.7575 75.435C80.9517 75.628 81.051 75.8588 81.051 76.1273C81.051 76.3959 80.9517 76.6266 80.7575 76.8196ZM59.6538 124.185C59.6668 124.328 59.6495 124.462 59.602 124.592C59.5545 124.726 59.4811 124.84 59.3862 124.945C59.2869 125.045 59.1703 125.121 59.0408 125.175C58.9069 125.23 58.7731 125.255 58.6263 125.251H39.159C38.8568 125.251 38.602 125.146 38.3862 124.94C38.1746 124.731 38.0667 124.479 38.0667 124.185C38.0667 123.891 38.1746 123.644 38.3862 123.434C38.602 123.229 38.8568 123.124 39.159 123.124H58.6263C58.7731 123.119 58.9069 123.145 59.0408 123.199C59.1703 123.254 59.2869 123.329 59.3862 123.43C59.4811 123.531 59.5545 123.648 59.602 123.782C59.6495 123.912 59.6668 124.047 59.6538 124.185Z" fill="#EAE5D9"/>
<path d="M127.045 102.46C127.045 101.352 126.915 100.332 126.829 99.0987L129.009 98.8638C129.16 99.7784 129.294 100.714 129.424 101.654C129.553 102.59 129.704 103.483 129.86 104.419C130.209 106.546 130.512 108.673 130.797 110.801C131.038 112.462 131.254 114.124 131.518 115.781C131.759 117.514 132.118 119.221 132.584 120.908C132.882 121.793 133.05 122.704 133.085 123.635V124.655H131.038C130.602 124.663 130.175 124.705 129.752 124.781L128.508 124.995V123.74C128.457 122.108 128.31 120.484 128.072 118.869C127.874 117.312 127.679 115.697 127.615 114.077C127.459 110.314 127.265 106.395 127.045 102.46ZM132.411 126.719C131.479 126.816 130.555 126.967 129.64 127.164C129.333 127.223 129.018 127.256 128.703 127.273H127.308L127.045 127.613C126.246 128.628 125.516 129.694 124.865 130.806C124.45 131.507 124.036 132.207 123.6 132.933C122.926 133.932 122.205 134.934 121.419 135.933C120.638 136.932 119.809 138.211 119.023 139.382C115.927 144.06 113.048 148.978 110.652 153.148C109.693 154.81 108.73 156.446 107.793 158.107C106.856 159.765 105.855 161.405 104.918 163.063L106.727 164.233L108.666 161.938C111.239 158.682 113.898 155.317 116.385 151.915C118.194 149.422 120.137 146.976 122.011 144.614C123.884 142.252 125.236 140.657 126.807 138.53L127.045 138.211C128.66 136.214 130.063 134.087 131.254 131.825C131.703 130.944 132.226 130.109 132.826 129.316L134.764 126.505L132.411 126.719Z" fill="#A48C7E"/>
<mask id="mask1_6_5290" style="mask-type:luminance" maskUnits="userSpaceOnUse" x="0" y="0" width="252" height="249">
<path d="M0 0H252V248.118H0V0Z" fill="white"/>
</mask>
<g mask="url(#mask1_6_5290)">
<path d="M250.821 103.823C250.126 98.6286 248.248 93.5644 247.139 88.4372C246.418 85.4708 245.464 82.5758 244.281 79.7562C243.193 77.008 241.599 74.499 240.555 71.755C237.852 64.7104 237.783 65.3691 236.889 63.8586C234.428 59.7091 233.578 60.179 230.219 54.9427C228.561 52.3456 228.323 51.6239 226.557 49.1358C225.336 47.3904 223.764 45.8338 222.456 44.1136C221.148 42.3891 219.84 41.2814 218.575 39.8549C215.751 36.3305 212.569 33.1459 209.024 30.3012C205.557 27.7251 202.181 25.044 198.714 22.451C195.183 19.8581 191.362 17.7812 187.243 16.2162C185.063 15.3854 183.21 14.0847 181.186 13.0023C179.156 11.9156 176.825 10.468 174.511 9.51141C172.637 8.72261 170.673 8.19395 168.777 7.38418C166.597 6.49049 164.417 5.25694 162.064 4.53108C159.249 3.61641 157.068 2.89475 155.324 2.34091C151.572 1.26681 147.751 0.55773 143.857 0.213681C141.241 0.0710256 138.624 0.0710256 136.008 0.213681C130.84 0.213681 125.672 0.213681 120.526 0.213681C115.353 0.536751 110.267 1.36331 105.263 2.70175C100.376 3.51991 95.5881 4.7115 90.8951 6.2765C86.2538 8.00095 81.4787 9.17155 76.8979 11.1058C71.9286 13.2372 66.7606 15.0246 61.9639 17.4917C58.0826 19.7364 54.4516 22.3084 51.0624 25.216C49.7758 26.1936 48.3813 27.0034 47.0299 27.8761L44.9576 29.2607C41.2446 32.1348 37.9158 35.3823 34.9713 39.0032C27.2518 48.2631 25.6198 48.0491 21.1037 54.3679C12.6459 66.1789 8.37162 80.8387 5.27602 94.6091C4.46866 98.2049 3.33749 101.738 2.81077 105.396C2.28836 109.055 2.37471 113.356 1.76595 117.249C1.481 119.037 0.630462 120.568 0.26348 122.313C0.0476089 123.606 -0.012836 124.902 0.0864653 126.207C0.26348 129.933 0.522526 133.592 0.980174 137.296C1.20036 140.674 1.76163 144.001 2.65966 147.274C3.92466 151.084 5.66891 154.742 7.1282 158.468C9.96475 165.576 13.1683 172.574 16.3977 179.535C17.9865 183.11 18.578 187.024 20.8879 190.175C23.1977 193.322 25.5075 196.389 27.8648 199.452C30.2178 202.515 32.2254 205.838 34.777 208.624C36.0507 210.155 37.4452 211.578 38.9606 212.878C39.7032 213.453 40.4674 213.965 41.1409 214.498C41.4432 215.362 41.9656 216.071 42.7125 216.625C44.392 217.963 46.0024 219.369 47.7034 220.691C51.4553 223.561 55.5741 225.944 59.5462 228.499C63.1642 230.668 66.9722 232.447 70.9701 233.84C72.9086 234.583 75.0242 234.818 76.9886 235.523L84.8593 238.543C87.0396 239.349 89.2199 240.138 91.4002 240.671C93.5805 241.204 95.7608 242.605 98.2002 243.352C100.644 244.094 102.846 244.48 105.156 245.076C107.465 245.672 110.345 246.587 112.983 247.052C115.012 247.417 117.037 247.438 119.066 247.606C121.234 247.942 123.414 248.118 125.607 248.139C127.438 248.139 129.139 247.417 130.948 247.329C133.586 247.224 136.073 246.801 138.711 246.503C144.397 246.037 150.014 245.156 155.566 243.864C158.074 243.201 160.578 242.458 163.044 241.585C165.505 240.36 168.099 239.521 170.828 239.076C171.255 239.081 171.64 238.959 171.981 238.711C173.388 238.283 174.731 237.717 176.018 237.012C178.5 235.753 181.138 234.881 183.711 233.756C188.512 231.528 193.102 228.939 197.471 225.986C201.84 223.191 206.032 220.162 210.052 216.902C211.783 215.345 213.294 213.608 214.585 211.687C215.367 210.663 216.204 209.685 217.094 208.75C219.356 207.957 221.152 206.58 222.477 204.621C224.399 202.59 226.203 200.463 227.887 198.239C229.282 196.259 230.262 193.985 231.725 192.109C233.582 189.756 235.274 187.297 236.803 184.725C239.363 179.724 241.543 174.567 243.344 169.255C245.416 163.595 246.331 157.721 248.054 151.977C249.552 146.695 250.338 141.308 250.407 135.828C250.407 133.126 251.106 130.592 251.085 127.911C251.063 125.23 251.871 122.888 251.784 120.249C251.758 114.757 251.439 109.282 250.821 103.823ZM247.247 123.081C247.074 124.059 246.746 124.995 246.659 125.997C246.659 127.441 246.811 128.909 246.659 130.378C246.046 135.295 246.18 140.338 245.33 145.272C244.872 147.849 243.957 150.274 243.3 152.787C242.649 155.296 242.035 158.296 241.362 161.044C239.976 166.138 238.21 171.101 236.06 175.939C234.981 178.813 233.651 181.57 232.071 184.217C230.547 186.533 228.846 188.791 227.166 191.027C225.487 193.259 224.265 196.024 222.326 198.323C221.368 199.452 220.388 200.45 219.403 201.642C218.924 202.196 218.402 202.901 217.815 203.518C217.439 203.492 217.085 203.555 216.744 203.706C213.363 205.217 211.339 209.601 209.024 212.219C207.349 213.91 205.523 215.438 203.554 216.793C201.391 218.5 199.129 220.074 196.771 221.517C192.653 224.051 188.53 226.54 184.281 228.86C181.812 230.089 179.282 231.193 176.691 232.158C174.511 233.072 172.115 234.948 169.714 234.927C169.248 234.935 168.825 235.078 168.449 235.351C167.491 235.648 166.554 236.009 165.552 236.349C163.372 237.033 161.386 237.818 159.292 238.481C154.599 239.999 149.802 241.099 144.902 241.778C140.312 242.487 135.701 242.957 131.06 243.18C129.359 243.18 127.809 243.822 126.108 243.969C124.148 244.044 122.201 243.914 120.267 243.587C118.086 243.31 115.906 243.394 113.726 242.97C111.545 242.542 109.145 241.799 106.878 241.204C104.612 240.608 102.233 240.18 99.9444 239.5C97.6562 238.82 96.0199 237.608 93.8395 236.945C89.4789 235.523 85.1183 234.033 80.7577 232.393C78.8149 231.616 76.8202 230.979 74.7867 230.479C72.7921 229.904 70.8492 229.195 68.9625 228.348C64.4162 226.464 60.129 224.123 56.1009 221.328C53.9637 220.019 51.9043 218.601 49.9269 217.07C49.6463 216.86 48.3165 215.899 47.1594 214.943C47.1551 214.439 46.9868 213.99 46.6586 213.604C46.1362 213.008 45.5706 212.454 44.9576 211.943C44.8237 211.817 44.6769 211.703 44.5215 211.603C42.7729 210.369 41.1323 209.014 39.5953 207.537C37.1948 204.822 34.9541 201.986 32.8774 199.028C29.1514 194.027 24.29 189.047 22.3472 183.11C20.0201 176.598 17.2958 170.25 14.1699 164.065C12.6675 160.851 11.4456 157.49 10.1159 154.214C8.65657 151.004 7.4002 147.719 6.34674 144.358C5.68186 141.089 5.23716 137.792 5.01266 134.464C4.56364 131.166 4.37368 127.852 4.44707 124.529C4.70612 122.918 5.12491 121.348 5.71208 119.825C6.0877 118.206 6.32084 116.565 6.41151 114.908C6.55398 111.111 6.93823 107.339 7.56426 103.588C10.5303 89.9896 13.9757 76.0304 20.495 63.5817C24.0741 57.2965 28.4779 51.6239 33.7063 46.5597C35.8866 44.2185 38.2008 42.0073 40.2472 39.599C40.9251 38.8144 41.9051 37.4717 43.019 36.3011C44.1113 35.8102 45.0612 35.1263 45.8729 34.2578H46.1362L47.2242 33.9179C49.003 33.0494 50.458 31.8117 51.5848 30.2173C52.7419 28.5768 55.7943 26.1307 62.4863 22.1531C71.2076 16.9588 81.4787 14.2358 91.0289 10.8289C95.722 9.23869 100.51 7.99675 105.397 7.10726C110.354 5.74784 115.396 4.87094 120.526 4.46815C125.672 4.46815 130.84 4.46815 136.008 4.46815C138.728 4.21221 141.444 4.21221 144.164 4.46815C147.367 5.06394 149.94 5.34086 150.877 5.55484C151.814 5.76463 153.364 6.19259 155.847 6.91425C158.769 7.78697 160.207 8.19395 161.843 8.81072C163.851 9.57434 165.725 10.5561 167.711 11.3407C170.163 12.1253 172.555 13.061 174.882 14.1519C176.847 15.2134 178.807 16.2791 180.814 17.2567C182.381 18.0455 183.754 19.1742 185.412 19.8119C189.833 21.486 193.887 23.7769 197.579 26.6845C200.959 29.4075 204.534 31.8536 207.98 34.5347C210.95 37.2326 213.674 40.1486 216.157 43.2828C219.106 46.4128 221.722 49.7904 224.006 53.4113C225.094 55.2406 226.38 56.986 227.516 58.8154C228.289 60.4223 229.208 61.9454 230.262 63.3929C230.439 63.6027 230.853 63.6908 231.333 64.0516C232.105 64.639 232.74 65.3481 233.228 66.1789C234.489 68.2725 235.538 70.4627 236.367 72.7536C238.534 77.092 240.442 81.531 242.1 86.075C243.564 90.8833 244.652 95.9475 245.744 100.844C246.841 105.749 247.376 110.717 247.355 115.739C247.54 118.189 247.497 120.635 247.225 123.081H247.247ZM232.598 98.3517C232.136 96.6524 231.635 94.907 231.263 93.1826C230.689 90.577 229.891 88.0344 228.867 85.5631C228.41 84.3925 227.844 83.2429 227.274 82.1394C226.709 81.0317 226.121 79.8611 225.664 78.6696C225.206 77.5283 224.679 76.4123 224.092 75.3298C223.85 74.8179 223.678 74.478 223.527 74.1801C222.935 72.9046 222.542 72.0529 222.499 71.8389C220.664 68.7383 218.54 65.839 216.135 63.137C215.285 61.7524 214.413 60.3049 213.497 58.9874C212.884 58.1566 212.211 57.3469 211.533 56.5833C210.859 55.8154 210.445 55.3036 209.944 54.6448C209.262 53.8099 208.537 53.0169 207.764 52.2617C207.328 51.8169 206.913 51.368 206.499 50.9022L205.648 49.9414C203.433 47.21 200.933 44.7555 198.144 42.5779L193.348 38.9192C191.996 37.8787 190.623 36.792 189.229 35.7725C186.146 33.4984 182.805 31.6816 179.2 30.3222C178.137 29.8565 177.114 29.3236 176.126 28.7278C175.426 28.3208 174.709 27.9181 173.945 27.5572C173.181 27.1964 172.417 26.7474 171.765 26.3237C170.621 25.6566 169.442 25.0524 168.233 24.5153C167.361 24.1503 166.446 23.8524 165.574 23.5545C164.702 23.2566 164.045 23.0468 163.285 22.7279C162.521 22.4049 161.736 22.065 160.95 21.7252C159.806 21.1839 158.636 20.7014 157.44 20.2776L154.586 19.363C153.558 19.0651 152.535 18.7462 151.533 18.4063L150.527 18.0665C149.224 17.5169 147.864 17.177 146.452 17.0427C146.011 17.0343 145.597 17.135 145.208 17.3406L143.987 17.0679C143.171 16.8455 142.342 16.6861 141.504 16.577C139.829 16.4469 138.158 16.4469 136.487 16.577H121.268C117.629 16.7448 114.045 17.2819 110.518 18.1924L108.035 18.7462L105.7 19.2161C102.233 19.8161 98.8391 20.6972 95.519 21.8552C93.818 22.493 92.0737 23.0468 90.3726 23.5755C88.0628 24.3223 85.6882 25.065 83.3957 26.0468L79.5575 27.5992C76.531 28.8117 73.3879 30.0663 70.4693 31.5767C67.8443 33.0284 65.3963 34.7151 63.121 36.641C62.4216 37.2158 61.7265 37.7696 60.9407 38.3025C60.0599 38.9696 59.1446 39.5864 58.1905 40.1528C57.3659 40.6647 56.4937 41.2185 55.6864 41.8143C55.2978 42.1038 54.9308 42.4227 54.5941 42.7709L54.4861 42.901C53.696 43.2618 52.9664 43.7234 52.3058 44.2814C51.8309 44.3359 51.4208 44.5247 51.084 44.8562C50.7429 45.1877 50.5486 45.5821 50.4968 46.0478C49.9312 46.6646 49.3829 47.3023 48.8605 47.9191C48.3381 48.54 47.5307 49.4757 46.9004 50.0505L45.8081 51.154C41.8274 54.9469 38.1921 59.0336 34.9066 63.4139C27.4072 73.9242 23.7892 86.9897 21.216 98.3979C20.9742 99.4804 20.6893 100.525 20.4086 101.65C19.9078 103.63 19.3811 105.694 19.0789 107.759C18.8155 109.441 18.7291 111.165 18.6428 112.823C18.5564 114.484 18.4442 116.335 18.1851 118.038C18.0297 118.814 17.8095 119.574 17.5289 120.312C17.2569 121.004 17.0453 121.714 16.8986 122.444C16.7 123.585 16.6568 124.734 16.7647 125.888C16.9417 129.614 17.1792 132.677 17.5505 135.53C17.5505 136.189 17.7059 136.847 17.7707 137.485C17.9304 139.784 18.3449 142.042 19.0141 144.253C19.7092 146.38 20.5813 148.507 21.4319 150.467C21.9327 151.616 22.4119 152.787 22.8696 153.937C24.7908 158.829 27.0143 163.679 29.1514 168.383C29.717 169.662 30.2826 170.938 30.8741 172.192C31.4613 173.447 31.7462 174.492 32.1391 175.62C32.7133 177.731 33.5984 179.711 34.7986 181.557C36.4565 183.852 38.2008 186.151 39.8975 188.367L40.8387 189.6C41.5554 190.536 42.2333 191.472 42.9068 192.428C44.12 194.207 45.4368 195.911 46.8529 197.539L47.1594 197.899C48.6187 199.326 49.7542 200.497 50.54 201.281C51.9129 202.708 52.5908 203.408 53.8299 204.516L55.5525 205.922C56.4031 206.643 57.2536 207.348 58.1473 208.049C60.5694 209.899 63.1642 211.54 65.6942 213.113L68.4401 214.838C71.5918 216.734 74.9162 218.287 78.4047 219.499C79.3114 219.818 80.231 220.082 81.1722 220.284C82.0011 220.468 82.8128 220.695 83.6159 220.968L87.277 222.327L90.3726 223.477C92.3803 224.219 94.2108 224.882 96.0846 225.39C97.1381 225.721 98.1613 226.12 99.1586 226.581C100.074 227.018 101.011 227.395 101.974 227.71C103.239 228.117 104.547 228.415 105.79 228.692L107.971 229.221L110.151 229.816C111.632 230.223 113.182 230.668 114.727 230.945C115.91 231.138 117.102 231.26 118.302 231.306L120.046 231.436C120.595 231.436 121.16 231.436 121.704 231.625C122.861 231.784 124.027 231.876 125.193 231.902H125.849C126.656 231.851 127.455 231.73 128.245 231.541C128.962 231.377 129.692 231.268 130.425 231.222C132.019 231.222 133.564 230.945 135.049 230.752L137.23 230.479L138.581 230.328C143.071 229.951 147.501 229.242 151.879 228.201C154.301 227.563 156.416 226.926 158.42 226.221C159.011 226.032 159.642 225.755 160.298 225.478C161.774 224.744 163.337 224.282 164.982 224.093C165.427 224.093 165.837 223.976 166.204 223.733C167.422 223.351 168.592 222.86 169.714 222.264C171.135 221.538 172.659 220.921 174.075 220.347L176.255 219.432C180.37 217.54 184.294 215.329 188.029 212.794L188.206 212.689C191.992 210.26 195.627 207.629 199.107 204.793C200.402 203.69 201.529 202.443 202.483 201.046L203.576 199.603C204.012 199.028 204.491 198.365 205.013 197.79C206.831 197.161 208.286 196.07 209.374 194.514L210.704 193.024C212.064 191.593 213.32 190.083 214.477 188.493C215.064 187.662 215.565 186.789 216.07 185.937C216.601 184.998 217.189 184.087 217.836 183.214L218.708 182.044C220.012 180.387 221.2 178.649 222.262 176.833C224.377 172.7 226.186 168.445 227.689 164.065L227.93 163.406C228.928 160.49 229.757 157.532 230.417 154.532C230.896 152.531 231.397 150.446 232.006 148.444C233.323 143.821 234.005 139.113 234.057 134.317C234.096 133.298 234.191 132.283 234.342 131.271C234.519 130.008 234.622 128.741 234.644 127.462C234.648 126.421 234.752 125.385 234.951 124.357C235.141 123.195 235.244 122.024 235.257 120.845C235.585 116.07 235.313 111.325 234.45 106.609C233.949 103.949 232.77 99.0566 232.572 98.3517H232.598ZM230.417 123.144L230.219 124.017C230.063 124.567 229.951 125.129 229.891 125.699C229.847 126.295 229.847 126.891 229.891 127.487C229.947 128.146 229.947 128.804 229.891 129.463C229.675 131.313 229.567 133.21 229.454 135.039C229.347 137.468 229.105 139.889 228.738 142.294C228.474 143.737 228.12 145.155 227.667 146.552C227.451 147.316 227.209 148.084 227.015 148.872C226.665 150.169 226.359 151.486 226.078 152.808C225.793 154.125 225.595 154.935 225.336 156.001C224.148 160.369 222.629 164.623 220.776 168.769L220.453 169.553C219.624 171.773 218.596 173.9 217.379 175.939C216.243 177.664 214.978 179.363 213.756 181.003L213.148 181.834C212.487 182.736 211.874 183.672 211.317 184.641C210.635 185.854 209.858 187.003 208.981 188.09C208.226 188.984 207.5 189.856 206.801 190.708L206.585 190.96L206.063 191.577C205.842 191.853 205.605 192.13 205.363 192.386C205.052 192.403 204.754 192.474 204.469 192.6C202.311 193.867 200.614 195.579 199.388 197.727C198.84 198.558 198.244 199.351 197.6 200.111C196.551 201.235 195.386 202.234 194.112 203.111L192.938 204.025C191.09 205.473 189.16 206.815 187.157 208.049C183.754 210.176 180.136 212.303 176.389 214.435C174.977 215.173 173.522 215.819 172.028 216.369L169.848 217.221C169.239 217.485 168.652 217.783 168.082 218.114C166.86 218.903 165.522 219.386 164.067 219.562C163.566 219.549 163.117 219.692 162.716 219.986C162.258 220.116 161.8 220.284 161.343 220.456L160.276 220.817L157.897 221.626C156.896 221.987 155.894 222.348 154.866 222.646C150.843 223.968 146.732 224.912 142.527 225.478L139.997 225.818C136.897 226.279 133.78 226.577 130.646 226.712C129.808 226.733 128.988 226.846 128.18 227.051C127.563 227.207 126.941 227.316 126.307 227.37C124.718 227.45 123.142 227.358 121.575 227.093H121.376C120.547 227.093 119.744 226.946 118.915 226.905C117.836 226.867 116.769 226.753 115.707 226.56C114.334 226.309 112.961 225.902 111.632 225.541L109.823 225.05C108.972 224.815 108.122 224.626 107.271 224.433C106.421 224.244 104.961 223.921 103.847 223.582C102.932 223.288 102.047 222.927 101.188 222.499C100.355 222.088 99.4997 221.731 98.6146 221.433C94.254 220.007 90.6144 218.773 87.2339 217.498C85.5242 216.818 83.7713 216.264 81.9796 215.836C80.8786 215.547 79.8208 215.157 78.7976 214.666C78.2277 214.41 77.6405 214.158 77.0318 213.923C73.2583 212.375 69.7051 210.445 66.3677 208.133L65.9964 207.877C64.1701 206.757 62.4086 205.536 60.7205 204.218L60.1333 203.774C58.1387 202.083 56.2908 200.253 54.5941 198.281C52.893 196.645 53.07 197.304 51.6755 195.814C50.0262 193.976 48.4935 192.055 47.0731 190.045L45.8729 188.472C45.1087 187.452 44.284 186.344 43.4335 185.367C40.6229 182.241 38.4425 178.746 36.8926 174.873C35.0231 169.641 32.8428 164.531 30.3517 159.555L29.8034 158.405C28.8665 156.404 28.0375 154.298 27.2518 152.275C26.9495 151.486 26.643 150.702 26.3149 149.913C25.9911 149.124 25.6629 148.34 25.3348 147.572C24.4584 145.587 23.7287 143.552 23.1545 141.467C22.7055 139.537 22.4206 137.586 22.304 135.614C22.304 134.72 22.1313 133.848 22.019 132.975C21.6261 130.151 21.4578 127.315 21.5182 124.462C21.6002 123.597 21.8032 122.762 22.1313 121.953C22.3903 121.206 22.5458 120.677 22.6105 120.505C23.1891 118.143 23.4611 115.743 23.4179 113.314C23.4179 113.314 22.7832 112.995 24.1993 106.441C26.5782 95.5238 29.6091 83.0331 35.321 71.99C38.3907 66.5775 42.1685 61.6895 46.6586 57.3259C47.3365 56.6042 48.0316 55.8994 48.7094 55.1987C49.9528 53.9441 51.2135 52.6435 52.3922 51.305L53.1348 50.3904C53.5924 49.8155 54.1364 49.1568 54.702 48.561C55.5871 48.1834 56.3772 47.6715 57.0809 47.0254C57.599 47.0044 58.0567 46.8324 58.4582 46.5135C58.8597 46.1946 59.1274 45.7918 59.2612 45.3051L60.8328 44.2604C61.2688 44.0045 61.679 43.7276 62.0935 43.4506C63.5571 42.473 64.9084 41.3234 66.2382 40.3248C67.9004 38.8899 69.6619 37.5766 71.5141 36.3892C77.4376 33.1711 83.6461 30.6033 90.1352 28.6859C92.1385 28.002 94.1245 27.3432 96.0846 26.5544C100.117 25.1782 104.227 24.1041 108.428 23.3447L111.696 22.6398C114.831 21.8049 118.021 21.3182 121.268 21.1713H136.552C138.236 21.0497 139.915 21.1 141.59 21.3224C142.178 21.4273 142.743 21.5783 143.313 21.7042C144.695 22.0986 146.102 22.2832 147.54 22.258C147.769 22.2538 147.984 22.2119 148.196 22.1322C148.848 22.3419 149.483 22.5979 150.113 22.8538L151.62 23.4286C152.384 23.6846 153.165 23.9195 153.93 24.1293C154.694 24.3433 155.872 24.6832 156.809 25.044C157.746 25.409 158.532 25.7698 159.383 26.1517C160.233 26.5335 161.015 26.8985 161.865 27.2383L164.045 27.981C165.44 28.4173 166.787 28.9712 168.082 29.6425C170.021 30.683 171.657 31.5348 173.224 32.3445C173.794 32.6215 174.317 32.9403 174.839 33.2592C175.599 33.7627 176.398 34.1949 177.239 34.5557C180.996 36.0116 184.445 37.9752 187.593 40.4507C189.186 41.7514 190.844 42.9639 192.454 44.1555C194.069 45.3471 195.226 46.2827 196.577 47.2604C198.408 48.8086 200.066 50.5204 201.547 52.3917C202.224 53.1973 202.876 53.9861 203.576 54.7497C206.101 57.3762 208.347 60.2168 210.311 63.2628C210.79 64.0726 211.339 64.8824 211.883 65.667C212.427 66.4558 212.884 67.1775 213.342 67.9243C213.799 68.6669 213.843 68.818 214.084 69.2837C214.555 70.2361 215.125 71.1298 215.785 71.9648C216.243 72.4976 216.485 72.1997 217.072 72.7116C217.564 73.1648 217.957 73.6892 218.251 74.285C218.423 74.65 218.445 74.8389 218.639 75.2458C218.838 75.6486 219.231 76.5213 219.775 77.5199C220.319 78.5227 220.625 79.1605 220.975 79.9912C221.497 81.2038 222.063 82.4163 222.611 83.6079C223.868 86.1421 224.934 88.7519 225.815 91.4371C226.972 95.2469 227.866 99.2664 228.738 103.164L228.975 104.184C229.903 108.392 230.361 112.647 230.348 116.951C230.348 117.61 230.348 118.294 230.348 119.079C230.491 120.438 230.469 121.793 230.283 123.144H230.417ZM215.893 126.316H196.314C196.025 126.316 195.748 126.262 195.481 126.153C195.213 126.043 194.98 125.892 194.773 125.691C194.57 125.49 194.41 125.263 194.302 125.003C194.19 124.739 194.134 124.47 194.134 124.185C194.134 123.904 194.19 123.631 194.302 123.371C194.41 123.111 194.57 122.88 194.773 122.683C194.98 122.481 195.213 122.33 195.481 122.221C195.748 122.112 196.025 122.058 196.314 122.058H215.785C216.075 122.062 216.351 122.116 216.619 122.225C216.886 122.334 217.12 122.49 217.322 122.691C217.525 122.888 217.685 123.119 217.793 123.383C217.901 123.644 217.957 123.916 217.953 124.197C217.953 124.478 217.897 124.751 217.784 125.011C217.672 125.271 217.512 125.502 217.31 125.699C217.102 125.897 216.865 126.052 216.597 126.157C216.329 126.262 216.053 126.316 215.764 126.316H215.893ZM194.57 65.2223L180.814 78.6696C180.607 78.8709 180.374 79.022 180.106 79.1311C179.839 79.2402 179.562 79.2947 179.273 79.2989C178.984 79.2989 178.707 79.2444 178.44 79.1395C178.172 79.0304 177.935 78.8793 177.732 78.6779C177.524 78.4807 177.365 78.25 177.257 77.9898C177.144 77.7297 177.088 77.457 177.084 77.1759C177.084 76.8948 177.14 76.622 177.248 76.3619C177.356 76.1018 177.516 75.871 177.719 75.6696L191.496 62.2223C191.707 62.0461 191.94 61.916 192.199 61.8279C192.458 61.7398 192.726 61.702 192.998 61.7104C193.274 61.723 193.538 61.7818 193.788 61.8867C194.039 61.9957 194.263 62.1426 194.457 62.3314C194.652 62.5202 194.803 62.7384 194.911 62.9859C195.023 63.2293 195.083 63.4852 195.092 63.7537C195.105 64.0223 195.066 64.2824 194.975 64.5383C194.885 64.7901 194.751 65.0167 194.57 65.2223ZM192.566 183.214C192.743 183.42 192.877 183.647 192.968 183.903C193.058 184.154 193.097 184.414 193.089 184.683C193.076 184.951 193.015 185.207 192.907 185.451C192.795 185.698 192.644 185.916 192.45 186.105C192.255 186.294 192.035 186.441 191.781 186.55C191.53 186.659 191.267 186.718 190.995 186.726C190.718 186.735 190.451 186.697 190.192 186.609C189.933 186.521 189.7 186.391 189.492 186.214L175.711 172.788C175.499 172.582 175.34 172.348 175.223 172.079C175.111 171.815 175.055 171.534 175.055 171.244C175.05 170.955 175.107 170.673 175.223 170.409C175.335 170.141 175.495 169.901 175.707 169.696C175.914 169.49 176.156 169.331 176.428 169.222C176.704 169.108 176.989 169.054 177.287 169.05C177.58 169.05 177.87 169.104 178.142 169.213C178.418 169.322 178.66 169.478 178.871 169.683L192.566 183.214ZM136.794 124.806L136.487 124.655C136.457 122.972 136.176 121.336 135.637 119.737C134.993 117.115 134.518 114.463 134.221 111.782C133.543 106.781 132.714 101.822 132.04 96.8832C131.362 91.949 129.117 86.9897 127.939 81.9884C127.287 79.3283 123.12 80.4569 123.755 83.117C123.798 83.9352 123.733 84.7408 123.556 85.5422C123.556 86.247 123.556 86.9477 123.449 87.6694C123.267 89.3687 123.215 91.0721 123.297 92.7798C123.513 96.3126 123.712 99.8202 123.906 103.416C124.105 107.016 124.299 110.696 124.429 114.333C124.562 117.971 125.37 121.206 125.37 124.613C125.37 124.613 125.37 124.806 125.37 124.911C123.988 126.627 122.753 128.435 121.661 130.336C120.046 132.803 118.302 135.186 116.649 137.615C113.376 142.466 110.41 147.53 107.513 152.51C104.612 157.49 101.822 161.938 99.3141 166.725C98.0706 169.108 96.7409 171.408 95.4327 173.724C94.5865 174.878 94.1072 176.161 93.995 177.575C93.995 177.957 94.09 178.314 94.2886 178.645C94.4872 178.977 94.7548 179.237 95.0959 179.426C95.4327 179.615 95.7997 179.707 96.1926 179.703C96.5854 179.703 96.9481 179.602 97.2849 179.405C99.1068 178.083 100.67 176.518 101.974 174.706C103.804 172.574 105.92 170.619 107.729 168.32C111.437 163.872 115.055 159.278 118.458 154.616C121.855 149.955 125.564 145.382 129.096 140.762C130.957 138.517 132.576 136.122 133.957 133.571C134.765 131.867 135.965 130.357 136.923 128.72C136.966 127.881 136.966 127.046 136.923 126.207C136.906 125.737 136.863 125.271 136.794 124.806ZM128.724 104.587C129.359 108.375 129.795 112.185 130.382 115.974C130.633 117.749 131.004 119.502 131.496 121.227C131.747 122.011 131.898 122.813 131.954 123.635C131.168 123.635 130.296 123.635 129.597 123.845C129.597 120.631 128.811 117.463 128.703 114.165C128.552 110.247 128.353 106.332 128.137 102.396C128.137 101.268 128.008 100.139 127.917 99.0146C128.224 100.886 128.465 102.736 128.724 104.587ZM130.21 131.313C128.975 133.646 127.524 135.841 125.849 137.892C122.447 142.445 118.781 146.787 115.427 151.381C112.396 155.636 109.145 159.576 105.941 163.637C107.837 160.318 109.78 157.042 111.675 153.723C114.399 149.17 117.128 144.467 120.003 140.019C121.467 137.892 123.012 135.761 124.472 133.634C125.586 132.018 126.544 130.059 127.809 128.464H128.53C128.949 128.448 129.363 128.397 129.774 128.313C130.667 128.125 131.539 127.995 132.455 127.89C131.634 128.98 130.9 130.122 130.253 131.313H130.21ZM131.712 190.662V209.664C131.712 209.95 131.656 210.218 131.548 210.482C131.436 210.743 131.28 210.969 131.073 211.171C130.87 211.372 130.633 211.523 130.365 211.632C130.097 211.741 129.821 211.796 129.532 211.796C129.243 211.796 128.966 211.741 128.699 211.632C128.431 211.523 128.193 211.372 127.99 211.171C127.788 210.969 127.628 210.743 127.52 210.482C127.408 210.218 127.351 209.95 127.351 209.664V190.662C127.351 190.377 127.408 190.104 127.52 189.839C127.632 189.579 127.792 189.344 127.995 189.143C128.202 188.942 128.439 188.786 128.711 188.677C128.979 188.568 129.264 188.514 129.553 188.514C129.847 188.514 130.128 188.568 130.395 188.677C130.667 188.786 130.905 188.942 131.112 189.143C131.319 189.344 131.475 189.579 131.587 189.839C131.699 190.104 131.755 190.377 131.755 190.662H131.712ZM127.351 56.3063V37.3039C127.351 37.0186 127.408 36.7501 127.52 36.4899C127.628 36.2256 127.788 35.999 127.99 35.7976C128.193 35.6004 128.431 35.4452 128.699 35.3361C128.966 35.227 129.243 35.1767 129.532 35.1767C129.821 35.1767 130.097 35.227 130.365 35.3361C130.633 35.4452 130.87 35.6004 131.073 35.7976C131.28 35.999 131.436 36.2256 131.548 36.4899C131.656 36.7501 131.712 37.0186 131.712 37.3039V56.3063C131.678 56.5581 131.596 56.7972 131.47 57.0238C131.345 57.2462 131.181 57.4434 130.982 57.6112C130.784 57.779 130.564 57.9091 130.318 57.9972C130.071 58.0895 129.817 58.1315 129.553 58.1315C129.29 58.1315 129.035 58.0895 128.793 57.9972C128.547 57.9091 128.323 57.779 128.124 57.6112C127.926 57.4434 127.766 57.2462 127.641 57.0238C127.516 56.7972 127.434 56.5581 127.395 56.3063H127.351ZM83.4604 173.682L69.7051 187.108C69.5022 187.309 69.2647 187.465 68.997 187.574C68.7337 187.683 68.453 187.737 68.1638 187.737C67.8745 187.742 67.5982 187.687 67.3305 187.578C67.0628 187.473 66.8254 187.318 66.6181 187.121C66.4152 186.923 66.2555 186.693 66.1432 186.433C66.031 186.172 65.9748 185.9 65.9748 185.619C65.9748 185.333 66.0266 185.065 66.1389 184.8C66.2468 184.54 66.4066 184.31 66.6095 184.108L80.3864 170.661C80.5937 170.464 80.8311 170.308 81.0988 170.204C81.3665 170.094 81.6428 170.04 81.9321 170.044C82.2213 170.044 82.502 170.099 82.7653 170.208C83.033 170.317 83.2705 170.472 83.4734 170.673C83.6763 170.871 83.8317 171.101 83.944 171.366C84.0519 171.626 84.1081 171.899 84.1081 172.18C84.1037 172.461 84.0476 172.734 83.9397 172.994C83.8274 173.254 83.6677 173.485 83.4604 173.682ZM78.3615 77.6919L64.6019 64.2405C64.4249 64.0391 64.291 63.8125 64.2004 63.5565C64.1097 63.3048 64.0708 63.0447 64.0795 62.7761C64.0924 62.5076 64.1529 62.2517 64.2608 62.0041C64.3687 61.7608 64.5242 61.5426 64.7185 61.3538C64.9127 61.165 65.1329 61.0139 65.3877 60.909C65.6381 60.8 65.9014 60.7412 66.1734 60.7328C66.4497 60.7202 66.7174 60.7622 66.9765 60.8503C67.2355 60.9384 67.4687 61.0685 67.6759 61.2405L81.4571 74.692C81.6601 74.8892 81.8155 75.12 81.9277 75.3843C82.0357 75.6444 82.0875 75.9172 82.0875 76.1983C82.0875 76.4794 82.0314 76.7521 81.9191 77.0122C81.8069 77.2724 81.6471 77.4989 81.4442 77.7003C81.237 77.8975 81.0038 78.0528 80.7361 78.1577C80.4685 78.2668 80.1878 78.3171 79.8986 78.3171C79.6093 78.3171 79.333 78.2626 79.0653 78.1535C78.7976 78.0444 78.5645 77.8891 78.3615 77.6919ZM58.7388 126.316H39.1592C38.87 126.316 38.5893 126.262 38.326 126.153C38.0583 126.043 37.8208 125.892 37.6179 125.691C37.4107 125.49 37.2553 125.263 37.143 125.003C37.0351 124.739 36.9789 124.47 36.9789 124.185C36.9789 123.904 37.0351 123.631 37.143 123.371C37.2553 123.111 37.4107 122.88 37.6179 122.683C37.8208 122.481 38.0583 122.33 38.326 122.221C38.5893 122.112 38.87 122.058 39.1592 122.058H58.6266C58.9158 122.058 59.1965 122.112 59.4598 122.221C59.7275 122.33 59.965 122.486 60.1679 122.683C60.3708 122.884 60.5305 123.111 60.6385 123.375C60.7507 123.635 60.8025 123.904 60.8025 124.185C60.8025 124.47 60.7507 124.739 60.6385 124.999C60.5305 125.259 60.3708 125.49 60.1679 125.691C59.965 125.888 59.7275 126.043 59.4598 126.153C59.1965 126.262 58.9158 126.312 58.6266 126.316H58.7388Z" fill="#866255"/>
</g>
</svg>
