<svg width="129" height="78" viewBox="0 0 129 78" fill="none" xmlns="http://www.w3.org/2000/svg">
<path d="M36.332 23.8386H53.8633L50.5768 15.6824L47.7904 13.4949C48.5091 11.6824 49.4414 10.0105 50.5456 8.5105H41.1758C42.0404 9.79696 42.7852 11.198 43.3789 12.698L39.1185 15.4897L36.332 23.8386Z" fill="#E8E3DD"/>
<path d="M78.2389 8.5105C79.4368 10.1303 80.4316 11.9584 81.1712 13.9428L78.8066 15.4897L76.0254 23.8386H93.5514L90.265 15.6824L87.7858 13.7345C88.5046 11.8334 89.4525 10.0782 90.5931 8.5105H78.2389Z" fill="#E8E3DD"/>
<path d="M8.50456 21.6824C8.50456 16.7136 9.96289 12.1407 12.4056 8.5105H9.80664C7.62435 8.5105 5.85352 10.2813 5.85352 12.4636V17.1199C5.85352 19.3178 6.62435 21.448 8.02539 23.1459L8.59831 23.8386C8.54102 23.1303 8.50456 22.4115 8.50456 21.6824Z" fill="#E8E3DD"/>
<path d="M118.463 8.5105C121.176 12.2345 122.812 17.0574 122.812 22.3282C122.812 22.3334 122.812 22.3386 122.812 22.3438C122.812 22.849 122.77 23.3438 122.687 23.8386C124.307 22.547 125.255 20.5886 125.255 18.5157V12.4636C125.255 10.2813 123.484 8.5105 121.301 8.5105H118.463Z" fill="#E8E3DD"/>
<mask id="mask0_283_107526" style="mask-type:luminance" maskUnits="userSpaceOnUse" x="0" y="37" width="128" height="30">
<path d="M0 37.6562H127.885V66.9896H0V37.6562Z" fill="white"/>
</mask>
<g mask="url(#mask0_283_107526)">
<path d="M123.214 40.0676C123.219 40.1926 123.667 41.0155 124.078 41.7499C124.547 42.5885 124.771 43.5468 124.688 44.5103C123.802 54.7968 114.344 62.8905 102.807 62.8905C96.4428 62.8905 90.7136 60.4218 86.7032 56.4843H80.9897C76.7292 60.4218 70.6355 62.8905 63.8647 62.8905C57.0938 62.8905 51.0053 60.4218 46.7397 56.4843H39.5574C35.8386 60.4218 30.5261 62.8905 24.6199 62.8905C16.7657 62.8905 9.95321 58.526 6.55737 52.1405C4.34904 47.9895 4.47404 42.9739 6.86466 38.9218C6.99487 38.7083 7.073 38.5624 7.073 38.5208L6.22925 38.9947C2.64071 40.9947 0.416748 44.7812 0.416748 48.8905V51.8749C0.416748 59.677 6.75008 66.0051 14.5626 66.0051H113.458C121.266 66.0051 127.599 59.677 127.599 51.8749V47.1301C127.599 44.1301 125.901 41.3958 123.214 40.0676Z" fill="#E8E3DD"/>
</g>
<path d="M36.8128 23.4897H53.3492L50.2919 15.8959L47.5784 13.7709C47.4586 13.6772 47.4169 13.5105 47.469 13.3699C48.1096 11.7605 48.9169 10.2449 49.8753 8.85946H41.818C42.5523 10.0261 43.1878 11.2709 43.7034 12.5678C43.7659 12.7188 43.7086 12.8959 43.5732 12.9845L39.4117 15.7136L36.8128 23.4897ZM53.8648 24.1824H36.3336C36.2242 24.1824 36.1148 24.1303 36.0523 24.0417C35.9846 23.948 35.969 23.8334 36.0055 23.7292L38.7919 15.3803C38.8128 15.3074 38.8648 15.2449 38.9273 15.2032L42.9534 12.5626C42.3909 11.2032 41.6982 9.90633 40.8909 8.70841C40.818 8.59904 40.8128 8.46362 40.8701 8.34904C40.9326 8.23446 41.0471 8.16675 41.1773 8.16675H50.5471C50.6826 8.16675 50.8023 8.23966 50.8596 8.35946C50.9169 8.47404 50.9065 8.61466 50.8284 8.71883C49.7815 10.1355 48.9013 11.7032 48.2138 13.3855L50.7919 15.4115C50.8388 15.448 50.8753 15.4949 50.9013 15.5522L54.1826 23.7084C54.2294 23.8178 54.2138 23.9376 54.1513 24.0313C54.0836 24.1251 53.9794 24.1824 53.8648 24.1824Z" fill="black"/>
<path d="M76.5037 23.4897H93.0402L89.9777 15.8959L87.5714 14.0053C87.4516 13.9115 87.4048 13.7553 87.4621 13.6147C88.1027 11.9167 88.9308 10.3178 89.9256 8.85946H78.9152C79.9673 10.3803 80.8318 12.047 81.4933 13.823C81.5506 13.974 81.4933 14.1459 81.3631 14.2345L79.0975 15.7136L76.5037 23.4897ZM93.5506 24.1824H76.0246C75.91 24.1824 75.8058 24.1303 75.7433 24.0417C75.6756 23.948 75.66 23.8334 75.6912 23.7292L78.4777 15.3803C78.5037 15.3074 78.5506 15.2449 78.6183 15.2032L80.7485 13.8074C80.035 11.9688 79.1027 10.2605 77.9621 8.71883C77.8839 8.61466 77.8683 8.47404 77.9308 8.35946C77.9881 8.23966 78.1079 8.16675 78.2381 8.16675H90.5923C90.7225 8.16675 90.8423 8.23966 90.9048 8.35425C90.9621 8.47404 90.9516 8.60946 90.8735 8.71883C89.7902 10.2084 88.8891 11.8542 88.2016 13.6199L90.4829 15.4115C90.5298 15.448 90.5662 15.4949 90.5871 15.5522L93.8735 23.7084C93.9152 23.8178 93.9048 23.9376 93.8371 24.0313C93.7746 24.1251 93.6652 24.1824 93.5506 24.1824Z" fill="black"/>
<path d="M9.80599 8.85946C7.81641 8.85946 6.20182 10.474 6.20182 12.4636V17.1199C6.20182 19.1772 6.90495 21.1824 8.1862 22.7917C8.16537 22.4167 8.16016 22.047 8.16016 21.6824C8.16016 17.0105 9.40495 12.5938 11.7643 8.85946H9.80599ZM8.59766 24.1824C8.4987 24.1824 8.39974 24.1407 8.33203 24.0574L7.75911 23.3647C6.30599 21.6147 5.50391 19.3959 5.50391 17.1199V12.4636C5.50391 10.0938 7.4362 8.16675 9.80599 8.16675H12.4049C12.5299 8.16675 12.6497 8.23446 12.7122 8.34904C12.7695 8.46362 12.7643 8.59904 12.6914 8.70841C10.181 12.4376 8.85286 16.922 8.85286 21.6824C8.85286 22.3803 8.88411 23.0938 8.94661 23.8074C8.95703 23.9584 8.8737 24.099 8.73307 24.1615C8.69141 24.1772 8.64453 24.1824 8.59766 24.1824Z" fill="black"/>
<path d="M119.13 8.85946C121.734 12.6772 123.161 17.4324 123.161 22.3282V22.3438C123.161 22.547 123.151 22.7501 123.14 22.9532C124.27 21.7657 124.906 20.1876 124.906 18.5157V12.4636C124.906 10.474 123.286 8.85946 121.302 8.85946H119.13ZM122.687 24.1824C122.625 24.1824 122.562 24.1667 122.51 24.1355C122.385 24.0626 122.317 23.922 122.343 23.7813C122.427 23.297 122.468 22.8178 122.468 22.3438V22.3282C122.468 17.3438 120.947 12.5053 118.182 8.71883C118.104 8.60946 118.093 8.47404 118.156 8.35425C118.213 8.23966 118.333 8.16675 118.463 8.16675H121.302C123.671 8.16675 125.599 10.0938 125.599 12.4636V18.5157C125.599 20.7084 124.614 22.7449 122.901 24.1095C122.838 24.1615 122.76 24.1824 122.687 24.1824Z" fill="black"/>
<mask id="mask1_283_107526" style="mask-type:luminance" maskUnits="userSpaceOnUse" x="0" y="37" width="129" height="30">
<path d="M0 37.6562H128.016V66.9896H0V37.6562Z" fill="white"/>
</mask>
<g mask="url(#mask1_283_107526)">
<path d="M6.20304 39.4063C2.83846 41.375 0.760335 44.9896 0.760335 48.8906V51.875C0.760335 59.474 6.95304 65.6563 14.5624 65.6563H113.458C121.062 65.6563 127.255 59.474 127.255 51.875V47.1302C127.255 44.625 126.042 42.3438 124.031 40.9531C124.125 41.125 124.24 41.3333 124.38 41.5781C124.896 42.4948 125.12 43.5156 125.031 44.5365C124.594 49.625 122.088 54.3385 117.969 57.8229C113.833 61.3125 108.448 63.2396 102.807 63.2396C96.677 63.2396 90.7655 60.9063 86.5624 56.8333H81.1249C76.6614 60.9063 70.3801 63.2396 63.8645 63.2396C57.3489 63.2396 51.0676 60.9063 46.6041 56.8333H39.7083C35.8072 60.9063 30.3176 63.2396 24.6197 63.2396C16.8749 63.2396 9.83325 59.0469 6.24992 52.3021C4.11971 48.2917 4.11971 43.4219 6.20304 39.4063ZM113.458 66.349H14.5624C6.56763 66.349 0.067627 59.8542 0.067627 51.875V48.8906C0.067627 44.6615 2.3645 40.75 6.06242 38.6927L6.90617 38.2188C7.01554 38.1615 7.14575 38.1615 7.25513 38.2292C7.35929 38.2917 7.427 38.4115 7.42179 38.5365C7.41659 38.6302 7.39054 38.7188 7.16659 39.099C4.84367 43.026 4.72908 47.9583 6.8645 51.9792C10.328 58.4948 17.1301 62.5469 24.6197 62.5469C30.177 62.5469 35.526 60.25 39.3072 56.25C39.3697 56.1771 39.4635 56.1406 39.5572 56.1406H46.7395C46.828 56.1406 46.9114 56.1719 46.9791 56.2344C51.3176 60.2448 57.4739 62.5469 63.8645 62.5469C70.2551 62.5469 76.4114 60.2448 80.7551 56.2344C80.8176 56.1719 80.901 56.1406 80.9895 56.1406H86.703C86.7968 56.1406 86.8801 56.1771 86.9478 56.2396C91.026 60.2448 96.8072 62.5469 102.807 62.5469C108.286 62.5469 113.51 60.6771 117.521 57.2917C121.495 53.9323 123.922 49.3802 124.344 44.4792C124.417 43.599 124.219 42.7135 123.776 41.9219C122.875 40.3177 122.87 40.1927 122.865 40.0833C122.859 39.9583 122.922 39.8438 123.021 39.776C123.125 39.7135 123.255 39.7031 123.365 39.7552C126.193 41.151 127.948 43.9792 127.948 47.1302V51.875C127.948 59.8542 121.448 66.349 113.458 66.349Z" fill="black"/>
</g>
<path d="M91.5879 59.6928C94.9629 61.5574 98.8379 62.547 102.807 62.547C107.593 62.547 112.124 61.1511 115.916 58.5209C119.567 55.9845 122.275 52.3959 123.551 48.4115C123.593 47.8334 123.614 47.2553 123.614 46.6928C123.614 35.1199 115.567 25.7032 105.671 25.7032C95.7806 25.7032 87.7337 35.1199 87.7337 46.6928C87.7337 51.4636 89.0671 55.9584 91.5879 59.6928ZM102.807 63.2397C98.6921 63.2397 94.6712 62.2084 91.1816 60.2553C91.1348 60.2292 91.0931 60.1928 91.0618 60.1511C88.4316 56.2865 87.041 51.6303 87.041 46.6928C87.041 34.7345 95.4004 25.0105 105.671 25.0105C115.947 25.0105 124.307 34.7345 124.307 46.6928C124.307 47.2865 124.286 47.8907 124.239 48.5001C124.239 48.5313 124.234 48.5574 124.223 48.5834C122.911 52.7293 120.098 56.4584 116.312 59.0886C112.406 61.8022 107.734 63.2397 102.807 63.2397Z" fill="black"/>
<path d="M49.7396 58.401C53.8125 61.1093 58.6927 62.5468 63.8646 62.5468C69.8385 62.5468 75.4896 60.5989 79.7969 57.0624C81.4583 53.8176 82.3385 50.0989 82.3385 46.2968C82.3385 34.7187 74.2865 25.302 64.3958 25.302C54.5052 25.302 46.4583 34.7187 46.4583 46.2968C46.4583 50.6614 47.5938 54.8489 49.7396 58.401ZM63.8646 63.2395C58.526 63.2395 53.4896 61.7499 49.2917 58.9322C49.25 58.9062 49.2135 58.8697 49.1875 58.828C46.9479 55.151 45.7656 50.8176 45.7656 46.2968C45.7656 34.3385 54.125 24.6145 64.3958 24.6145C74.6719 24.6145 83.0313 34.3385 83.0313 46.2968C83.0313 50.2291 82.1146 54.0885 80.3802 57.4426C80.3594 57.4843 80.3281 57.5208 80.2917 57.552C75.8594 61.2187 70.0208 63.2395 63.8646 63.2395Z" fill="black"/>
<path d="M7.18099 52.552C10.7279 58.7187 17.4049 62.5468 24.6185 62.5468C30.1758 62.5468 35.5247 60.2499 39.306 56.2499C39.3685 56.177 39.4622 56.1405 39.556 56.1405H40.1549C41.5247 53.1249 42.2487 49.7291 42.2487 46.2968C42.2487 34.7187 34.2018 25.302 24.3112 25.302C14.4154 25.302 6.36849 34.7187 6.36849 46.2968C6.36849 48.427 6.64453 50.5312 7.18099 52.552ZM24.6185 63.2395C17.1445 63.2395 10.2227 59.2603 6.55599 52.8593C6.54037 52.8333 6.52995 52.802 6.52474 52.776C5.96224 50.6822 5.67578 48.5051 5.67578 46.2968C5.67578 34.3385 14.0352 24.6145 24.3112 24.6145C34.582 24.6145 42.9414 34.3385 42.9414 46.2968C42.9414 49.9062 42.1654 53.4791 40.6914 56.6301C40.6341 56.7551 40.5143 56.8333 40.3789 56.8333H39.707C35.806 60.9062 30.3164 63.2395 24.6185 63.2395Z" fill="black"/>
<path d="M105.672 25.0103C110.459 25.0103 114.979 27.0989 118.448 30.9062C120.271 28.8697 121.604 26.5624 122.406 24.0468C122.448 23.4687 122.469 22.8905 122.469 22.328C122.469 10.7551 114.422 1.33846 104.526 1.33846C97.5002 1.33846 91.1148 6.15096 88.2034 13.6197L90.4846 15.4114C90.5315 15.4478 90.5679 15.4947 90.5888 15.552L95.7398 28.3437C98.7138 26.1614 102.136 25.0103 105.672 25.0103ZM118.448 31.7708H118.443C118.344 31.7708 118.25 31.7291 118.188 31.6562C114.818 27.8176 110.375 25.703 105.672 25.703C102.146 25.703 98.7346 26.901 95.8023 29.1666C95.7138 29.2343 95.6044 29.2551 95.5002 29.2291C95.3909 29.1978 95.3075 29.1249 95.2659 29.0208L89.9794 15.8958L87.5732 14.0051C87.4534 13.9114 87.4065 13.7551 87.4638 13.6145C90.4377 5.73429 97.1357 0.645752 104.526 0.645752C114.802 0.645752 123.162 10.3697 123.162 22.328C123.162 22.9218 123.141 23.526 123.094 24.1405C123.094 24.1666 123.089 24.1926 123.078 24.2187C122.209 26.9635 120.735 29.4687 118.703 31.6614C118.636 31.7343 118.542 31.7708 118.448 31.7708Z" fill="black"/>
<mask id="mask2_283_107526" style="mask-type:luminance" maskUnits="userSpaceOnUse" x="7" y="0" width="37" height="33">
<path d="M7.88477 0H43.8848V32.3229H7.88477V0Z" fill="white"/>
</mask>
<g mask="url(#mask2_283_107526)">
<path d="M9.6661 27.9375C10.1921 28.8542 10.8015 29.7396 11.4838 30.5677C14.9578 26.724 19.4994 24.6146 24.3119 24.6146C27.9682 24.6146 31.489 25.8385 34.5255 28.1615L38.7911 15.3802C38.8119 15.3073 38.864 15.2448 38.9265 15.2031L42.9526 12.5625C41.5203 9.09896 39.3119 6.16667 36.5411 4.0625C33.6401 1.85937 30.2703 0.692708 26.7911 0.692708C16.9005 0.692708 8.8536 10.1094 8.8536 21.6823C8.8536 23.8177 9.12443 25.9219 9.6661 27.9375ZM11.4734 31.4479C11.3692 31.4479 11.2755 31.401 11.2078 31.3229C10.3901 30.3594 9.65568 29.3229 9.0411 28.2448C9.02547 28.2188 9.01505 28.1927 9.00464 28.1615C8.44735 26.0729 8.16089 23.8906 8.16089 21.6823C8.16089 9.72396 16.5203 0 26.7911 0C30.4213 0 33.9369 1.21354 36.963 3.51042C39.9005 5.73958 42.2286 8.875 43.7026 12.5677C43.7651 12.7188 43.7078 12.8958 43.5723 12.9844L39.4109 15.7135L35.0255 28.8438C34.989 28.9531 34.9057 29.0365 34.7963 29.0677C34.6869 29.099 34.5671 29.0781 34.4786 29.0052C31.4786 26.5833 27.963 25.3021 24.3119 25.3021C19.5776 25.3021 15.114 27.4427 11.7338 31.3281C11.6713 31.401 11.5723 31.4479 11.4734 31.4479Z" fill="black"/>
</g>
<path d="M64.3944 24.6146C67.9153 24.6146 71.3319 25.7552 74.2955 27.9219L78.4778 15.3802C78.5038 15.3073 78.5507 15.2448 78.6184 15.2031L80.7486 13.8073C77.8424 6.29167 71.4517 1.45833 64.3944 1.45833C60.9153 1.45833 57.5403 2.625 54.6288 4.83854C51.8528 6.94792 49.6392 9.90104 48.2122 13.3854L50.7903 15.4115C50.8372 15.4479 50.8736 15.4948 50.8997 15.5521L55.5819 27.1875C58.2799 25.5 61.3163 24.6146 64.3944 24.6146ZM74.4726 28.8333C74.3944 28.8333 74.3215 28.8125 74.259 28.7656C71.3267 26.5 67.9153 25.3021 64.3944 25.3021C61.3163 25.3021 58.2799 26.2344 55.608 27.9948C55.5247 28.0521 55.4153 28.0677 55.3163 28.0365C55.2174 28.0052 55.134 27.9323 55.0976 27.8333L50.2903 15.8958L47.5767 13.7708C47.4569 13.6771 47.4153 13.5104 47.4674 13.3698C48.9413 9.66667 51.2694 6.52083 54.2122 4.28646C57.2382 1.98438 60.759 0.765625 64.3944 0.765625C71.8267 0.765625 78.5351 5.89062 81.4934 13.8229C81.5507 13.974 81.4934 14.1458 81.3632 14.2344L79.0976 15.7135L74.8007 28.599C74.7642 28.7031 74.6809 28.7865 74.5715 28.8229C74.5403 28.8281 74.5038 28.8333 74.4726 28.8333Z" fill="black"/>
<path d="M50.9425 59.8958C50.88 59.8958 50.8227 59.8802 50.7706 59.8489C50.3227 59.5937 49.88 59.3229 49.4477 59.0364C49.3956 59.0052 49.3435 58.9687 49.2966 58.9374C49.1352 58.8281 49.0935 58.6145 49.1977 58.4531C49.3071 58.2968 49.5206 58.2552 49.6821 58.3593C49.7289 58.3958 49.781 58.427 49.8279 58.4583C50.2393 58.7343 50.6716 58.9947 51.1143 59.2447C51.2498 59.3281 51.3175 59.4895 51.2758 59.6406C51.2445 59.7447 51.1716 59.8281 51.0727 59.8697C51.031 59.8854 50.9841 59.8958 50.9425 59.8958Z" fill="black"/>
<path d="M40.9165 56.1407H46.7395C46.828 56.1407 46.9113 56.172 46.979 56.2345C47.4322 56.6511 47.9113 57.0574 48.4113 57.448C46.677 54.0886 45.7655 50.2657 45.7655 46.297C45.7655 38.5991 49.2915 31.4584 54.9947 27.573L50.2915 15.8959L46.5832 12.9897C45.7603 12.3439 44.6249 12.297 43.7551 12.8647L39.4113 15.7136L35.104 28.6199C40.0155 32.6876 42.9426 39.2761 42.9426 46.297C42.9426 49.7189 42.2447 53.1095 40.9165 56.1407ZM49.4842 58.9949C49.4165 58.9949 49.3488 58.9741 49.2915 58.9324C48.3332 58.2918 47.4322 57.5834 46.604 56.8334H40.3801C40.2603 56.8334 40.1509 56.7709 40.0884 56.672C40.0207 56.573 40.0155 56.448 40.0624 56.3386C41.4947 53.2761 42.2499 49.8074 42.2499 46.297C42.2499 39.3959 39.3436 32.9324 34.479 29.0053C34.3697 28.9168 34.3228 28.7657 34.3697 28.6251L38.7915 15.3803C38.8124 15.3074 38.8645 15.2449 38.927 15.2032L43.3749 12.2866C44.4947 11.5522 45.9582 11.6147 47.0103 12.4428L50.7915 15.4116C50.8384 15.448 50.8749 15.4949 50.9009 15.5522L55.7395 27.573C55.802 27.7293 55.7499 27.9011 55.6092 27.9949C49.9634 31.7136 46.4582 38.7241 46.4582 46.297C46.4582 50.6928 47.604 54.9011 49.7811 58.4636C49.8645 58.6043 49.8436 58.7866 49.7238 58.8959C49.6561 58.9584 49.5728 58.9949 49.4842 58.9949Z" fill="black"/>
<path d="M78.4897 58.8282C78.4532 58.8282 78.4115 58.823 78.3751 58.8074C78.2709 58.7709 78.1928 58.6876 78.1615 58.5834C78.1147 58.4376 78.1668 58.2813 78.2918 58.1928C78.8334 57.823 79.3543 57.4324 79.8438 57.0261C79.8438 57.0261 79.8438 57.0261 79.8438 57.0209C79.9949 56.9011 80.2136 56.9219 80.3334 57.0678C80.4584 57.2188 80.4376 57.4376 80.2865 57.5574C79.7761 57.9792 79.2397 58.3855 78.6876 58.7657C78.6303 58.8074 78.5574 58.8282 78.4897 58.8282Z" fill="black"/>
<path d="M80.9994 56.1407H86.7025C86.7962 56.1407 86.8796 56.1772 86.9473 56.2397C87.9525 57.2241 89.0671 58.1199 90.2754 58.9011C88.1556 55.297 87.041 51.0782 87.041 46.6928C87.041 39.5053 90.0723 32.8334 95.1712 28.7814L89.9785 15.8959L86.2702 12.9897C85.4525 12.3439 84.3171 12.297 83.4421 12.8647L79.0983 15.7136L74.8796 28.3647C79.9889 32.4168 83.0306 39.0991 83.0306 46.297C83.0306 49.7293 82.3327 53.1043 80.9994 56.1407ZM90.6348 59.8855C90.5723 59.8855 90.5098 59.8647 90.4525 59.8334C89.0358 58.9689 87.7285 57.9636 86.5619 56.8334H81.1244C80.8639 57.073 80.5827 57.3126 80.291 57.5522C80.166 57.6564 79.9837 57.6564 79.8535 57.5574C79.7285 57.4532 79.6869 57.2761 79.765 57.1251C81.4473 53.8647 82.3379 50.1199 82.3379 46.297C82.3379 39.2189 79.3171 32.6668 74.2598 28.7605C74.1452 28.672 74.0983 28.5209 74.14 28.3803L78.4785 15.3803C78.5046 15.3074 78.5514 15.2449 78.6192 15.2032L83.0619 12.2866C84.1817 11.5522 85.6452 11.6147 86.7025 12.4428L90.4837 15.4116C90.5306 15.448 90.5671 15.4949 90.5879 15.5522L95.9108 28.7605C95.9681 28.9064 95.9212 29.073 95.8014 29.1668C90.7494 33.073 87.7337 39.6199 87.7337 46.6928C87.7337 51.073 88.8744 55.2709 91.041 58.8334C91.0879 58.9064 91.1035 59.0001 91.0827 59.0834L90.9733 59.6095C90.9525 59.7189 90.8744 59.8074 90.7702 59.8543C90.7285 59.8751 90.6817 59.8855 90.6348 59.8855Z" fill="black"/>
<mask id="mask3_283_107526" style="mask-type:luminance" maskUnits="userSpaceOnUse" x="0" y="37" width="129" height="30">
<path d="M0 37.6562H128.016V66.9896H0V37.6562Z" fill="white"/>
</mask>
<g mask="url(#mask3_283_107526)">
<path d="M6.20304 39.4063C2.83846 41.375 0.760335 44.9896 0.760335 48.8906V51.875C0.760335 59.474 6.95304 65.6563 14.5624 65.6563H113.458C121.062 65.6563 127.255 59.474 127.255 51.875V47.1302C127.255 44.625 126.042 42.3438 124.031 40.9531C124.125 41.125 124.24 41.3333 124.38 41.5781C124.896 42.4948 125.12 43.5156 125.031 44.5365C124.594 49.625 122.088 54.3385 117.969 57.8229C113.833 61.3125 108.448 63.2396 102.807 63.2396C96.677 63.2396 90.7655 60.9063 86.5624 56.8333H81.1249C76.6614 60.9063 70.3801 63.2396 63.8645 63.2396C57.3489 63.2396 51.0676 60.9063 46.6041 56.8333H39.7083C35.8072 60.9063 30.3176 63.2396 24.6197 63.2396C16.8749 63.2396 9.83325 59.0469 6.24992 52.3021C4.11971 48.2917 4.11971 43.4219 6.20304 39.4063ZM113.458 66.349H14.5624C6.56763 66.349 0.067627 59.8542 0.067627 51.875V48.8906C0.067627 44.6615 2.3645 40.75 6.06242 38.6927L6.90617 38.2188C7.01554 38.1615 7.14575 38.1615 7.25513 38.2292C7.35929 38.2917 7.427 38.4115 7.42179 38.5365C7.41659 38.6302 7.39054 38.7188 7.16659 39.099C4.84367 43.026 4.72908 47.9583 6.8645 51.9792C10.328 58.4948 17.1301 62.5469 24.6197 62.5469C30.177 62.5469 35.526 60.25 39.3072 56.25C39.3697 56.1771 39.4635 56.1406 39.5572 56.1406H46.7395C46.828 56.1406 46.9114 56.1719 46.9791 56.2344C51.3176 60.2448 57.4739 62.5469 63.8645 62.5469C70.2551 62.5469 76.4114 60.2448 80.7551 56.2344C80.8176 56.1719 80.901 56.1406 80.9895 56.1406H86.703C86.7968 56.1406 86.8801 56.1771 86.9478 56.2396C91.026 60.2448 96.8072 62.5469 102.807 62.5469C108.286 62.5469 113.51 60.6771 117.521 57.2917C121.495 53.9323 123.922 49.3802 124.344 44.4792C124.417 43.599 124.219 42.7135 123.776 41.9219C122.875 40.3177 122.87 40.1927 122.865 40.0833C122.859 39.9583 122.922 39.8438 123.021 39.776C123.125 39.7135 123.255 39.7031 123.365 39.7552C126.193 41.151 127.948 43.9792 127.948 47.1302V51.875C127.948 59.8542 121.448 66.349 113.458 66.349Z" fill="black"/>
</g>
<path d="M91.5879 59.6928C94.9629 61.5574 98.8379 62.547 102.807 62.547C107.593 62.547 112.124 61.1511 115.916 58.5209C119.567 55.9845 122.275 52.3959 123.551 48.4115C123.593 47.8334 123.614 47.2553 123.614 46.6928C123.614 35.1199 115.567 25.7032 105.671 25.7032C95.7806 25.7032 87.7337 35.1199 87.7337 46.6928C87.7337 51.4636 89.0671 55.9584 91.5879 59.6928ZM102.807 63.2397C98.6921 63.2397 94.6712 62.2084 91.1816 60.2553C91.1348 60.2292 91.0931 60.1928 91.0618 60.1511C88.4316 56.2865 87.041 51.6303 87.041 46.6928C87.041 34.7345 95.4004 25.0105 105.671 25.0105C115.947 25.0105 124.307 34.7345 124.307 46.6928C124.307 47.2865 124.286 47.8907 124.239 48.5001C124.239 48.5313 124.234 48.5574 124.223 48.5834C122.911 52.7293 120.098 56.4584 116.312 59.0886C112.406 61.8022 107.734 63.2397 102.807 63.2397Z" fill="black"/>
<path d="M49.7396 58.401C53.8125 61.1093 58.6927 62.5468 63.8646 62.5468C69.8385 62.5468 75.4896 60.5989 79.7969 57.0624C81.4583 53.8176 82.3385 50.0989 82.3385 46.2968C82.3385 34.7187 74.2865 25.302 64.3958 25.302C54.5052 25.302 46.4583 34.7187 46.4583 46.2968C46.4583 50.6614 47.5938 54.8489 49.7396 58.401ZM63.8646 63.2395C58.526 63.2395 53.4896 61.7499 49.2917 58.9322C49.25 58.9062 49.2135 58.8697 49.1875 58.828C46.9479 55.151 45.7656 50.8176 45.7656 46.2968C45.7656 34.3385 54.125 24.6145 64.3958 24.6145C74.6719 24.6145 83.0313 34.3385 83.0313 46.2968C83.0313 50.2291 82.1146 54.0885 80.3802 57.4426C80.3594 57.4843 80.3281 57.5208 80.2917 57.552C75.8594 61.2187 70.0208 63.2395 63.8646 63.2395Z" fill="black"/>
<path d="M7.18099 52.552C10.7279 58.7187 17.4049 62.5468 24.6185 62.5468C30.1758 62.5468 35.5247 60.2499 39.306 56.2499C39.3685 56.177 39.4622 56.1405 39.556 56.1405H40.1549C41.5247 53.1249 42.2487 49.7291 42.2487 46.2968C42.2487 34.7187 34.2018 25.302 24.3112 25.302C14.4154 25.302 6.36849 34.7187 6.36849 46.2968C6.36849 48.427 6.64453 50.5312 7.18099 52.552ZM24.6185 63.2395C17.1445 63.2395 10.2227 59.2603 6.55599 52.8593C6.54037 52.8333 6.52995 52.802 6.52474 52.776C5.96224 50.6822 5.67578 48.5051 5.67578 46.2968C5.67578 34.3385 14.0352 24.6145 24.3112 24.6145C34.582 24.6145 42.9414 34.3385 42.9414 46.2968C42.9414 49.9062 42.1654 53.4791 40.6914 56.6301C40.6341 56.7551 40.5143 56.8333 40.3789 56.8333H39.707C35.806 60.9062 30.3164 63.2395 24.6185 63.2395Z" fill="black"/>
<path d="M105.672 25.0103C110.459 25.0103 114.979 27.0989 118.448 30.9062C119.818 29.3801 120.917 27.6822 121.719 25.8593C122.214 24.7343 122.464 23.552 122.469 22.3437V22.328C122.469 10.7551 114.422 1.33846 104.526 1.33846C97.5002 1.33846 91.1148 6.15096 88.2034 13.6197L90.4846 15.4114C90.5315 15.4478 90.5679 15.4947 90.5888 15.552L95.7398 28.3437C98.7138 26.1614 102.136 25.0103 105.672 25.0103ZM118.448 31.7708H118.443C118.344 31.7708 118.25 31.7291 118.188 31.6562C114.818 27.8176 110.375 25.703 105.672 25.703C102.146 25.703 98.7346 26.901 95.8023 29.1666C95.7138 29.2343 95.6044 29.2551 95.5002 29.2291C95.3909 29.1978 95.3075 29.1249 95.2659 29.0208L89.9794 15.8958L87.5732 14.0051C87.4534 13.9114 87.4065 13.7551 87.4638 13.6145C90.4377 5.73429 97.1357 0.645752 104.526 0.645752C114.802 0.645752 123.162 10.3697 123.162 22.328V22.3437C123.162 23.651 122.891 24.927 122.354 26.1405C121.469 28.1458 120.24 29.9999 118.703 31.6614C118.636 31.7343 118.542 31.7708 118.448 31.7708Z" fill="black"/>
<mask id="mask4_283_107526" style="mask-type:luminance" maskUnits="userSpaceOnUse" x="7" y="0" width="37" height="33">
<path d="M7.88477 0H43.8848V32.3229H7.88477V0Z" fill="white"/>
</mask>
<g mask="url(#mask4_283_107526)">
<path d="M26.7911 0.692708C16.9005 0.692708 8.8536 10.1094 8.8536 21.6823C8.8536 22.6771 8.9161 23.6771 9.03068 24.6563C9.29631 26.849 10.1453 28.8854 11.4838 30.5677C14.9578 26.724 19.4994 24.6146 24.3119 24.6146C27.9682 24.6146 31.489 25.8385 34.5255 28.1615L38.7911 15.3802C38.8119 15.3073 38.864 15.2448 38.9265 15.2031L42.9526 12.5625C41.5203 9.09896 39.3119 6.16667 36.5411 4.0625C33.6401 1.85937 30.2703 0.692708 26.7911 0.692708ZM11.4734 31.4479C11.3692 31.4479 11.2755 31.401 11.2078 31.3229L11.1869 31.2969C9.62443 29.4583 8.64006 27.1875 8.34318 24.7396C8.22339 23.7344 8.16089 22.7031 8.16089 21.6823C8.16089 9.72396 16.5203 0 26.7911 0C30.4213 0 33.9369 1.21354 36.963 3.51042C39.9005 5.73958 42.2286 8.875 43.7026 12.5677C43.7651 12.7188 43.7078 12.8958 43.5723 12.9844L39.4109 15.7135L35.0255 28.8438C34.989 28.9531 34.9057 29.0365 34.7963 29.0677C34.6869 29.099 34.5671 29.0781 34.4786 29.0052C31.4786 26.5833 27.963 25.3021 24.3119 25.3021C19.5776 25.3021 15.114 27.4427 11.7338 31.3281C11.6713 31.401 11.5723 31.4479 11.4734 31.4479Z" fill="black"/>
</g>
<path d="M64.3944 24.6146C67.9153 24.6146 71.3319 25.7552 74.2955 27.9219L78.4778 15.3802C78.5038 15.3073 78.5507 15.2448 78.6184 15.2031L80.7486 13.8073C77.8424 6.29167 71.4517 1.45833 64.3944 1.45833C60.9153 1.45833 57.5403 2.625 54.6288 4.83854C51.8528 6.94792 49.6392 9.90104 48.2122 13.3854L50.7903 15.4115C50.8372 15.4479 50.8736 15.4948 50.8997 15.5521L55.5819 27.1875C58.2799 25.5 61.3163 24.6146 64.3944 24.6146ZM74.4726 28.8333C74.3944 28.8333 74.3215 28.8125 74.259 28.7656C71.3267 26.5 67.9153 25.3021 64.3944 25.3021C61.3163 25.3021 58.2799 26.2344 55.608 27.9948C55.5247 28.0521 55.4153 28.0677 55.3163 28.0365C55.2174 28.0052 55.134 27.9323 55.0976 27.8333L50.2903 15.8958L47.5767 13.7708C47.4569 13.6771 47.4153 13.5104 47.4674 13.3698C48.9413 9.66667 51.2694 6.52083 54.2122 4.28646C57.2382 1.98438 60.759 0.765625 64.3944 0.765625C71.8267 0.765625 78.5351 5.89062 81.4934 13.8229C81.5507 13.974 81.4934 14.1458 81.3632 14.2344L79.0976 15.7135L74.8007 28.599C74.7642 28.7031 74.6809 28.7865 74.5715 28.8229C74.5403 28.8281 74.5038 28.8333 74.4726 28.8333Z" fill="black"/>
<path d="M50.9425 59.8958C50.88 59.8958 50.8227 59.8802 50.7706 59.8489C50.3227 59.5937 49.88 59.3229 49.4477 59.0364C49.3956 59.0052 49.3435 58.9687 49.2966 58.9374C49.1352 58.8281 49.0935 58.6145 49.1977 58.4531C49.3071 58.2968 49.5206 58.2552 49.6821 58.3593C49.7289 58.3958 49.781 58.427 49.8279 58.4583C50.2393 58.7343 50.6716 58.9947 51.1143 59.2447C51.2498 59.3281 51.3175 59.4895 51.2758 59.6406C51.2445 59.7447 51.1716 59.8281 51.0727 59.8697C51.031 59.8854 50.9841 59.8958 50.9425 59.8958Z" fill="black"/>
<path d="M40.9165 56.1407H46.7395C46.828 56.1407 46.9113 56.172 46.979 56.2345C47.4322 56.6511 47.9113 57.0574 48.4113 57.448C46.677 54.0886 45.7655 50.2657 45.7655 46.297C45.7655 38.5991 49.2915 31.4584 54.9947 27.573L50.2915 15.8959L46.5832 12.9897C45.7603 12.3439 44.6249 12.297 43.7551 12.8647L39.4113 15.7136L35.104 28.6199C40.0155 32.6876 42.9426 39.2761 42.9426 46.297C42.9426 49.7189 42.2447 53.1095 40.9165 56.1407ZM49.4842 58.9949C49.4165 58.9949 49.3488 58.9741 49.2915 58.9324C48.3332 58.2918 47.4322 57.5834 46.604 56.8334H40.3801C40.2603 56.8334 40.1509 56.7709 40.0884 56.672C40.0207 56.573 40.0155 56.448 40.0624 56.3386C41.4947 53.2761 42.2499 49.8074 42.2499 46.297C42.2499 39.3959 39.3436 32.9324 34.479 29.0053C34.3697 28.9168 34.3228 28.7657 34.3697 28.6251L38.7915 15.3803C38.8124 15.3074 38.8645 15.2449 38.927 15.2032L43.3749 12.2866C44.4947 11.5522 45.9582 11.6147 47.0103 12.4428L50.7915 15.4116C50.8384 15.448 50.8749 15.4949 50.9009 15.5522L55.7395 27.573C55.802 27.7293 55.7499 27.9011 55.6092 27.9949C49.9634 31.7136 46.4582 38.7241 46.4582 46.297C46.4582 50.6928 47.604 54.9011 49.7811 58.4636C49.8645 58.6043 49.8436 58.7866 49.7238 58.8959C49.6561 58.9584 49.5728 58.9949 49.4842 58.9949Z" fill="black"/>
<path d="M78.4897 58.8282C78.4532 58.8282 78.4115 58.823 78.3751 58.8074C78.2709 58.7709 78.1928 58.6876 78.1615 58.5834C78.1147 58.4376 78.1668 58.2813 78.2918 58.1928C78.8334 57.823 79.3543 57.4324 79.8438 57.0261C79.8438 57.0261 79.8438 57.0261 79.8438 57.0209C79.9949 56.9011 80.2136 56.9219 80.3334 57.0678C80.4584 57.2188 80.4376 57.4376 80.2865 57.5574C79.7761 57.9792 79.2397 58.3855 78.6876 58.7657C78.6303 58.8074 78.5574 58.8282 78.4897 58.8282Z" fill="black"/>
<path d="M80.9994 56.1407H86.7025C86.7962 56.1407 86.8796 56.1772 86.9473 56.2397C87.9525 57.2241 89.0671 58.1199 90.2754 58.9011C88.1556 55.297 87.041 51.0782 87.041 46.6928C87.041 39.5053 90.0723 32.8334 95.1712 28.7814L89.9785 15.8959L86.2702 12.9897C85.4525 12.3439 84.3171 12.297 83.4421 12.8647L79.0983 15.7136L74.8796 28.3647C79.9889 32.4168 83.0306 39.0991 83.0306 46.297C83.0306 49.7293 82.3327 53.1043 80.9994 56.1407ZM90.6348 59.8855C90.5723 59.8855 90.5098 59.8647 90.4525 59.8334C89.0358 58.9689 87.7285 57.9636 86.5619 56.8334H81.1244C80.8639 57.073 80.5827 57.3126 80.291 57.5522C80.166 57.6564 79.9837 57.6564 79.8535 57.5574C79.7285 57.4532 79.6869 57.2761 79.765 57.1251C81.4473 53.8647 82.3379 50.1199 82.3379 46.297C82.3379 39.2189 79.3171 32.6668 74.2598 28.7605C74.1452 28.672 74.0983 28.5209 74.14 28.3803L78.4785 15.3803C78.5046 15.3074 78.5514 15.2449 78.6192 15.2032L83.0619 12.2866C84.1817 11.5522 85.6452 11.6147 86.7025 12.4428L90.4837 15.4116C90.5306 15.448 90.5671 15.4949 90.5879 15.5522L95.9108 28.7605C95.9681 28.9064 95.9212 29.073 95.8014 29.1668C90.7494 33.073 87.7337 39.6199 87.7337 46.6928C87.7337 51.073 88.8744 55.2709 91.041 58.8334C91.0879 58.9064 91.1035 59.0001 91.0827 59.0834L90.9733 59.6095C90.9525 59.7189 90.8744 59.8074 90.7702 59.8543C90.7285 59.8751 90.6817 59.8855 90.6348 59.8855Z" fill="black"/>
<mask id="mask5_283_107526" style="mask-type:luminance" maskUnits="userSpaceOnUse" x="0" y="37" width="129" height="30">
<path d="M0 37.6562H128.016V66.9896H0V37.6562Z" fill="white"/>
</mask>
<g mask="url(#mask5_283_107526)">
<path d="M6.20304 39.4063C2.83846 41.375 0.760335 44.9896 0.760335 48.8906V51.875C0.760335 59.474 6.95304 65.6563 14.5624 65.6563H113.458C121.062 65.6563 127.255 59.474 127.255 51.875V47.1302C127.255 44.625 126.042 42.3438 124.031 40.9531C124.125 41.125 124.24 41.3333 124.38 41.5781C124.896 42.4948 125.12 43.5156 125.031 44.5365C124.594 49.625 122.088 54.3385 117.969 57.8229C113.833 61.3125 108.448 63.2396 102.807 63.2396C96.677 63.2396 90.7655 60.9063 86.5624 56.8333H81.1249C76.6614 60.9063 70.3801 63.2396 63.8645 63.2396C57.3489 63.2396 51.0676 60.9063 46.6041 56.8333H39.7083C35.8072 60.9063 30.3176 63.2396 24.6197 63.2396C16.8749 63.2396 9.83325 59.0469 6.24992 52.3021C4.11971 48.2917 4.11971 43.4219 6.20304 39.4063ZM113.458 66.349H14.5624C6.56763 66.349 0.067627 59.8542 0.067627 51.875V48.8906C0.067627 44.6615 2.3645 40.75 6.06242 38.6927L6.90617 38.2188C7.01554 38.1615 7.14575 38.1615 7.25513 38.2292C7.35929 38.2917 7.427 38.4115 7.42179 38.5365C7.41659 38.6302 7.39054 38.7188 7.16659 39.099C4.84367 43.026 4.72908 47.9583 6.8645 51.9792C10.328 58.4948 17.1301 62.5469 24.6197 62.5469C30.177 62.5469 35.526 60.25 39.3072 56.25C39.3697 56.1771 39.4635 56.1406 39.5572 56.1406H46.7395C46.828 56.1406 46.9114 56.1719 46.9791 56.2344C51.3176 60.2448 57.4739 62.5469 63.8645 62.5469C70.2551 62.5469 76.4114 60.2448 80.7551 56.2344C80.8176 56.1719 80.901 56.1406 80.9895 56.1406H86.703C86.7968 56.1406 86.8801 56.1771 86.9478 56.2396C91.026 60.2448 96.8072 62.5469 102.807 62.5469C108.286 62.5469 113.51 60.6771 117.521 57.2917C121.495 53.9323 123.922 49.3802 124.344 44.4792C124.417 43.599 124.219 42.7135 123.776 41.9219C122.875 40.3177 122.87 40.1927 122.865 40.0833C122.859 39.9583 122.922 39.8438 123.021 39.776C123.125 39.7135 123.255 39.7031 123.365 39.7552C126.193 41.151 127.948 43.9792 127.948 47.1302V51.875C127.948 59.8542 121.448 66.349 113.458 66.349Z" fill="black"/>
</g>
<path d="M91.5879 59.6928C94.9629 61.5574 98.8379 62.547 102.807 62.547C107.593 62.547 112.124 61.1511 115.916 58.5209C119.567 55.9845 122.275 52.3959 123.551 48.4115C123.593 47.8334 123.614 47.2553 123.614 46.6928C123.614 35.1199 115.567 25.7032 105.671 25.7032C95.7806 25.7032 87.7337 35.1199 87.7337 46.6928C87.7337 51.4636 89.0671 55.9584 91.5879 59.6928ZM102.807 63.2397C98.6921 63.2397 94.6712 62.2084 91.1816 60.2553C91.1348 60.2292 91.0931 60.1928 91.0618 60.1511C88.4316 56.2865 87.041 51.6303 87.041 46.6928C87.041 34.7345 95.4004 25.0105 105.671 25.0105C115.947 25.0105 124.307 34.7345 124.307 46.6928C124.307 47.2865 124.286 47.8907 124.239 48.5001C124.239 48.5313 124.234 48.5574 124.223 48.5834C122.911 52.7293 120.098 56.4584 116.312 59.0886C112.406 61.8022 107.734 63.2397 102.807 63.2397Z" fill="black"/>
<path d="M49.7396 58.401C53.8125 61.1093 58.6927 62.5468 63.8646 62.5468C69.8385 62.5468 75.4896 60.5989 79.7969 57.0624C81.4583 53.8176 82.3385 50.0989 82.3385 46.2968C82.3385 34.7187 74.2865 25.302 64.3958 25.302C54.5052 25.302 46.4583 34.7187 46.4583 46.2968C46.4583 50.6614 47.5938 54.8489 49.7396 58.401ZM63.8646 63.2395C58.526 63.2395 53.4896 61.7499 49.2917 58.9322C49.25 58.9062 49.2135 58.8697 49.1875 58.828C46.9479 55.151 45.7656 50.8176 45.7656 46.2968C45.7656 34.3385 54.125 24.6145 64.3958 24.6145C74.6719 24.6145 83.0313 34.3385 83.0313 46.2968C83.0313 50.2291 82.1146 54.0885 80.3802 57.4426C80.3594 57.4843 80.3281 57.5208 80.2917 57.552C75.8594 61.2187 70.0208 63.2395 63.8646 63.2395Z" fill="black"/>
<path d="M7.18099 52.552C10.7279 58.7187 17.4049 62.5468 24.6185 62.5468C30.1758 62.5468 35.5247 60.2499 39.306 56.2499C39.3685 56.177 39.4622 56.1405 39.556 56.1405H40.1549C41.5247 53.1249 42.2487 49.7291 42.2487 46.2968C42.2487 34.7187 34.2018 25.302 24.3112 25.302C14.4154 25.302 6.36849 34.7187 6.36849 46.2968C6.36849 48.427 6.64453 50.5312 7.18099 52.552ZM24.6185 63.2395C17.1445 63.2395 10.2227 59.2603 6.55599 52.8593C6.54037 52.8333 6.52995 52.802 6.52474 52.776C5.96224 50.6822 5.67578 48.5051 5.67578 46.2968C5.67578 34.3385 14.0352 24.6145 24.3112 24.6145C34.582 24.6145 42.9414 34.3385 42.9414 46.2968C42.9414 49.9062 42.1654 53.4791 40.6914 56.6301C40.6341 56.7551 40.5143 56.8333 40.3789 56.8333H39.707C35.806 60.9062 30.3164 63.2395 24.6185 63.2395Z" fill="black"/>
<path d="M105.672 25.0103C110.459 25.0103 114.979 27.0989 118.448 30.9062C120.271 28.8697 121.604 26.5624 122.406 24.0468C122.448 23.4687 122.469 22.8905 122.469 22.328C122.469 10.7551 114.422 1.33846 104.526 1.33846C97.5002 1.33846 91.1148 6.15096 88.2034 13.6197L90.4846 15.4114C90.5315 15.4478 90.5679 15.4947 90.5888 15.552L95.7398 28.3437C98.7138 26.1614 102.136 25.0103 105.672 25.0103ZM118.448 31.7708H118.443C118.344 31.7708 118.25 31.7291 118.188 31.6562C114.818 27.8176 110.375 25.703 105.672 25.703C102.146 25.703 98.7346 26.901 95.8023 29.1666C95.7138 29.2343 95.6044 29.2551 95.5002 29.2291C95.3909 29.1978 95.3075 29.1249 95.2659 29.0208L89.9794 15.8958L87.5732 14.0051C87.4534 13.9114 87.4065 13.7551 87.4638 13.6145C90.4377 5.73429 97.1357 0.645752 104.526 0.645752C114.802 0.645752 123.162 10.3697 123.162 22.328C123.162 22.9218 123.141 23.526 123.094 24.1405C123.094 24.1666 123.089 24.1926 123.078 24.2187C122.209 26.9635 120.735 29.4687 118.703 31.6614C118.636 31.7343 118.542 31.7708 118.448 31.7708Z" fill="black"/>
<mask id="mask6_283_107526" style="mask-type:luminance" maskUnits="userSpaceOnUse" x="7" y="0" width="37" height="33">
<path d="M7.88477 0H43.8848V32.3229H7.88477V0Z" fill="white"/>
</mask>
<g mask="url(#mask6_283_107526)">
<path d="M9.6661 27.9375C10.1921 28.8542 10.8015 29.7396 11.4838 30.5677C14.9578 26.724 19.4994 24.6146 24.3119 24.6146C27.9682 24.6146 31.489 25.8385 34.5255 28.1615L38.7911 15.3802C38.8119 15.3073 38.864 15.2448 38.9265 15.2031L42.9526 12.5625C41.5203 9.09896 39.3119 6.16667 36.5411 4.0625C33.6401 1.85937 30.2703 0.692708 26.7911 0.692708C16.9005 0.692708 8.8536 10.1094 8.8536 21.6823C8.8536 23.8177 9.12443 25.9219 9.6661 27.9375ZM11.4734 31.4479C11.3692 31.4479 11.2755 31.401 11.2078 31.3229C10.3901 30.3594 9.65568 29.3229 9.0411 28.2448C9.02547 28.2188 9.01505 28.1927 9.00464 28.1615C8.44735 26.0729 8.16089 23.8906 8.16089 21.6823C8.16089 9.72396 16.5203 0 26.7911 0C30.4213 0 33.9369 1.21354 36.963 3.51042C39.9005 5.73958 42.2286 8.875 43.7026 12.5677C43.7651 12.7188 43.7078 12.8958 43.5723 12.9844L39.4109 15.7135L35.0255 28.8438C34.989 28.9531 34.9057 29.0365 34.7963 29.0677C34.6869 29.099 34.5671 29.0781 34.4786 29.0052C31.4786 26.5833 27.963 25.3021 24.3119 25.3021C19.5776 25.3021 15.114 27.4427 11.7338 31.3281C11.6713 31.401 11.5723 31.4479 11.4734 31.4479Z" fill="black"/>
</g>
<path d="M64.3944 24.6146C67.9153 24.6146 71.3319 25.7552 74.2955 27.9219L78.4778 15.3802C78.5038 15.3073 78.5507 15.2448 78.6184 15.2031L80.7486 13.8073C77.8424 6.29167 71.4517 1.45833 64.3944 1.45833C60.9153 1.45833 57.5403 2.625 54.6288 4.83854C51.8528 6.94792 49.6392 9.90104 48.2122 13.3854L50.7903 15.4115C50.8372 15.4479 50.8736 15.4948 50.8997 15.5521L55.5819 27.1875C58.2799 25.5 61.3163 24.6146 64.3944 24.6146ZM74.4726 28.8333C74.3944 28.8333 74.3215 28.8125 74.259 28.7656C71.3267 26.5 67.9153 25.3021 64.3944 25.3021C61.3163 25.3021 58.2799 26.2344 55.608 27.9948C55.5247 28.0521 55.4153 28.0677 55.3163 28.0365C55.2174 28.0052 55.134 27.9323 55.0976 27.8333L50.2903 15.8958L47.5767 13.7708C47.4569 13.6771 47.4153 13.5104 47.4674 13.3698C48.9413 9.66667 51.2694 6.52083 54.2122 4.28646C57.2382 1.98438 60.759 0.765625 64.3944 0.765625C71.8267 0.765625 78.5351 5.89062 81.4934 13.8229C81.5507 13.974 81.4934 14.1458 81.3632 14.2344L79.0976 15.7135L74.8007 28.599C74.7642 28.7031 74.6809 28.7865 74.5715 28.8229C74.5403 28.8281 74.5038 28.8333 74.4726 28.8333Z" fill="black"/>
<path d="M50.9425 59.8958C50.88 59.8958 50.8227 59.8802 50.7706 59.8489C50.3227 59.5937 49.88 59.3229 49.4477 59.0364C49.3956 59.0052 49.3435 58.9687 49.2966 58.9374C49.1352 58.8281 49.0935 58.6145 49.1977 58.4531C49.3071 58.2968 49.5206 58.2552 49.6821 58.3593C49.7289 58.3958 49.781 58.427 49.8279 58.4583C50.2393 58.7343 50.6716 58.9947 51.1143 59.2447C51.2498 59.3281 51.3175 59.4895 51.2758 59.6406C51.2445 59.7447 51.1716 59.8281 51.0727 59.8697C51.031 59.8854 50.9841 59.8958 50.9425 59.8958Z" fill="black"/>
<path d="M40.9165 56.1407H46.7395C46.828 56.1407 46.9113 56.172 46.979 56.2345C47.4322 56.6511 47.9113 57.0574 48.4113 57.448C46.677 54.0886 45.7655 50.2657 45.7655 46.297C45.7655 38.5991 49.2915 31.4584 54.9947 27.573L50.2915 15.8959L46.5832 12.9897C45.7603 12.3439 44.6249 12.297 43.7551 12.8647L39.4113 15.7136L35.104 28.6199C40.0155 32.6876 42.9426 39.2761 42.9426 46.297C42.9426 49.7189 42.2447 53.1095 40.9165 56.1407ZM49.4842 58.9949C49.4165 58.9949 49.3488 58.9741 49.2915 58.9324C48.3332 58.2918 47.4322 57.5834 46.604 56.8334H40.3801C40.2603 56.8334 40.1509 56.7709 40.0884 56.672C40.0207 56.573 40.0155 56.448 40.0624 56.3386C41.4947 53.2761 42.2499 49.8074 42.2499 46.297C42.2499 39.3959 39.3436 32.9324 34.479 29.0053C34.3697 28.9168 34.3228 28.7657 34.3697 28.6251L38.7915 15.3803C38.8124 15.3074 38.8645 15.2449 38.927 15.2032L43.3749 12.2866C44.4947 11.5522 45.9582 11.6147 47.0103 12.4428L50.7915 15.4116C50.8384 15.448 50.8749 15.4949 50.9009 15.5522L55.7395 27.573C55.802 27.7293 55.7499 27.9011 55.6092 27.9949C49.9634 31.7136 46.4582 38.7241 46.4582 46.297C46.4582 50.6928 47.604 54.9011 49.7811 58.4636C49.8645 58.6043 49.8436 58.7866 49.7238 58.8959C49.6561 58.9584 49.5728 58.9949 49.4842 58.9949Z" fill="black"/>
<path d="M78.4897 58.8282C78.4532 58.8282 78.4115 58.823 78.3751 58.8074C78.2709 58.7709 78.1928 58.6876 78.1615 58.5834C78.1147 58.4376 78.1668 58.2813 78.2918 58.1928C78.8334 57.823 79.3543 57.4324 79.8438 57.0261C79.8438 57.0261 79.8438 57.0261 79.8438 57.0209C79.9949 56.9011 80.2136 56.9219 80.3334 57.0678C80.4584 57.2188 80.4376 57.4376 80.2865 57.5574C79.7761 57.9792 79.2397 58.3855 78.6876 58.7657C78.6303 58.8074 78.5574 58.8282 78.4897 58.8282Z" fill="black"/>
<path d="M80.9994 56.1407H86.7025C86.7962 56.1407 86.8796 56.1772 86.9473 56.2397C87.9525 57.2241 89.0671 58.1199 90.2754 58.9011C88.1556 55.297 87.041 51.0782 87.041 46.6928C87.041 39.5053 90.0723 32.8334 95.1712 28.7814L89.9785 15.8959L86.2702 12.9897C85.4525 12.3439 84.3171 12.297 83.4421 12.8647L79.0983 15.7136L74.8796 28.3647C79.9889 32.4168 83.0306 39.0991 83.0306 46.297C83.0306 49.7293 82.3327 53.1043 80.9994 56.1407ZM90.6348 59.8855C90.5723 59.8855 90.5098 59.8647 90.4525 59.8334C89.0358 58.9689 87.7285 57.9636 86.5619 56.8334H81.1244C80.8639 57.073 80.5827 57.3126 80.291 57.5522C80.166 57.6564 79.9837 57.6564 79.8535 57.5574C79.7285 57.4532 79.6869 57.2761 79.765 57.1251C81.4473 53.8647 82.3379 50.1199 82.3379 46.297C82.3379 39.2189 79.3171 32.6668 74.2598 28.7605C74.1452 28.672 74.0983 28.5209 74.14 28.3803L78.4785 15.3803C78.5046 15.3074 78.5514 15.2449 78.6192 15.2032L83.0619 12.2866C84.1817 11.5522 85.6452 11.6147 86.7025 12.4428L90.4837 15.4116C90.5306 15.448 90.5671 15.4949 90.5879 15.5522L95.9108 28.7605C95.9681 28.9064 95.9212 29.073 95.8014 29.1668C90.7494 33.073 87.7337 39.6199 87.7337 46.6928C87.7337 51.073 88.8744 55.2709 91.041 58.8334C91.0879 58.9064 91.1035 59.0001 91.0827 59.0834L90.9733 59.6095C90.9525 59.7189 90.8744 59.8074 90.7702 59.8543C90.7285 59.8751 90.6817 59.8855 90.6348 59.8855Z" fill="black"/>
<mask id="mask7_283_107526" style="mask-type:luminance" maskUnits="userSpaceOnUse" x="0" y="37" width="129" height="30">
<path d="M0 37.6562H128.016V66.9896H0V37.6562Z" fill="white"/>
</mask>
<g mask="url(#mask7_283_107526)">
<path d="M6.20304 39.4063C2.83846 41.375 0.760335 44.9896 0.760335 48.8906V51.875C0.760335 59.474 6.95304 65.6563 14.5624 65.6563H113.458C121.062 65.6563 127.255 59.474 127.255 51.875V47.1302C127.255 44.625 126.042 42.3438 124.031 40.9531C124.125 41.125 124.24 41.3333 124.38 41.5781C124.896 42.4948 125.12 43.5156 125.031 44.5365C124.594 49.625 122.088 54.3385 117.969 57.8229C113.833 61.3125 108.448 63.2396 102.807 63.2396C96.677 63.2396 90.7655 60.9063 86.5624 56.8333H81.1249C76.6614 60.9063 70.3801 63.2396 63.8645 63.2396C57.3489 63.2396 51.0676 60.9063 46.6041 56.8333H39.7083C35.8072 60.9063 30.3176 63.2396 24.6197 63.2396C16.8749 63.2396 9.83325 59.0469 6.24992 52.3021C4.11971 48.2917 4.11971 43.4219 6.20304 39.4063ZM113.458 66.349H14.5624C6.56763 66.349 0.067627 59.8542 0.067627 51.875V48.8906C0.067627 44.6615 2.3645 40.75 6.06242 38.6927L6.90617 38.2188C7.01554 38.1615 7.14575 38.1615 7.25513 38.2292C7.35929 38.2917 7.427 38.4115 7.42179 38.5365C7.41659 38.6302 7.39054 38.7188 7.16659 39.099C4.84367 43.026 4.72908 47.9583 6.8645 51.9792C10.328 58.4948 17.1301 62.5469 24.6197 62.5469C30.177 62.5469 35.526 60.25 39.3072 56.25C39.3697 56.1771 39.4635 56.1406 39.5572 56.1406H46.7395C46.828 56.1406 46.9114 56.1719 46.9791 56.2344C51.3176 60.2448 57.4739 62.5469 63.8645 62.5469C70.2551 62.5469 76.4114 60.2448 80.7551 56.2344C80.8176 56.1719 80.901 56.1406 80.9895 56.1406H86.703C86.7968 56.1406 86.8801 56.1771 86.9478 56.2396C91.026 60.2448 96.8072 62.5469 102.807 62.5469C108.286 62.5469 113.51 60.6771 117.521 57.2917C121.495 53.9323 123.922 49.3802 124.344 44.4792C124.417 43.599 124.219 42.7135 123.776 41.9219C122.875 40.3177 122.87 40.1927 122.865 40.0833C122.859 39.9583 122.922 39.8438 123.021 39.776C123.125 39.7135 123.255 39.7031 123.365 39.7552C126.193 41.151 127.948 43.9792 127.948 47.1302V51.875C127.948 59.8542 121.448 66.349 113.458 66.349Z" fill="black"/>
</g>
<path d="M102.807 62.8907C112.812 62.8907 121.255 56.8022 123.895 48.4792C123.937 47.8907 123.958 47.2917 123.958 46.6928C123.958 34.9063 115.77 25.3542 105.671 25.3542C95.5723 25.3542 87.3848 34.9063 87.3848 46.6928C87.3848 51.7032 88.8691 56.3126 91.3483 59.9532C94.6816 61.8178 98.6087 62.8907 102.807 62.8907Z" fill="#EA9C5D"/>
<path d="M115.916 29.0156C118.968 32.8281 120.833 37.9427 120.833 43.5677C120.833 44.1667 120.807 44.7656 120.77 45.3542C118.124 53.6771 109.687 59.7656 99.6816 59.7656C96.2129 59.7656 92.9368 59.0313 90.0254 57.7292C90.4264 58.5052 90.8691 59.25 91.3483 59.9531C94.6816 61.8177 98.6087 62.8906 102.807 62.8906C112.812 62.8906 121.255 56.8021 123.895 48.4792C123.937 47.8906 123.958 47.2917 123.958 46.6927C123.958 39.3385 120.77 32.8542 115.916 29.0156Z" fill="#DD8B52"/>
<path d="M91.5879 59.6928C94.9629 61.5574 98.8379 62.547 102.807 62.547C107.593 62.547 112.124 61.1511 115.916 58.5209C119.567 55.9845 122.275 52.3959 123.551 48.4115C123.593 47.8334 123.614 47.2553 123.614 46.6928C123.614 35.1199 115.567 25.7032 105.671 25.7032C95.7806 25.7032 87.7337 35.1199 87.7337 46.6928C87.7337 51.4636 89.0671 55.9584 91.5879 59.6928ZM102.807 63.2397C98.6921 63.2397 94.6712 62.2084 91.1816 60.2553C91.1348 60.2292 91.0931 60.1928 91.0618 60.1511C88.4316 56.2865 87.041 51.6303 87.041 46.6928C87.041 34.7345 95.4004 25.0105 105.671 25.0105C115.947 25.0105 124.307 34.7345 124.307 46.6928C124.307 47.2865 124.286 47.8907 124.239 48.5001C124.239 48.5313 124.234 48.5574 124.223 48.5834C122.911 52.7293 120.098 56.4584 116.312 59.0886C112.406 61.8022 107.734 63.2397 102.807 63.2397Z" fill="black"/>
<path d="M63.8646 62.8905C70.1615 62.8905 75.875 60.7551 80.0729 57.2864C81.7292 54.078 82.6823 50.3176 82.6823 46.2968C82.6823 34.5103 74.4948 24.9583 64.3958 24.9583C54.2969 24.9583 46.1094 34.5103 46.1094 46.2968C46.1094 50.8958 47.3594 55.1614 49.4844 58.6458C53.4479 61.302 58.4375 62.8905 63.8646 62.8905Z" fill="#EA9C5D"/>
<path d="M74.5143 28.5208C77.4935 32.3176 79.3164 37.3749 79.3164 42.9322C79.3164 45.4114 78.9518 47.7916 78.2852 50.0051C77.4779 52.6822 75.6654 54.9322 73.2227 56.2968C69.5612 58.3385 65.1914 59.526 60.4935 59.526C56.0664 59.526 51.9258 58.4687 48.3945 56.6301C48.7279 57.328 49.0924 57.9999 49.4831 58.6458C53.4466 61.302 58.4362 62.8905 63.8633 62.8905C70.1602 62.8905 75.8737 60.7551 80.0716 57.2864C81.7279 54.078 82.681 50.3176 82.681 46.2968C82.681 38.8749 79.4362 32.3437 74.5143 28.5208Z" fill="#DD8B52"/>
<path d="M49.7396 58.401C53.8125 61.1093 58.6927 62.5468 63.8646 62.5468C69.8385 62.5468 75.4896 60.5989 79.7969 57.0624C81.4583 53.8176 82.3385 50.0989 82.3385 46.2968C82.3385 34.7187 74.2865 25.302 64.3958 25.302C54.5052 25.302 46.4583 34.7187 46.4583 46.2968C46.4583 50.6614 47.5938 54.8489 49.7396 58.401ZM63.8646 63.2395C58.526 63.2395 53.4896 61.7499 49.2917 58.9322C49.25 58.9062 49.2135 58.8697 49.1875 58.828C46.9479 55.151 45.7656 50.8176 45.7656 46.2968C45.7656 34.3385 54.125 24.6145 64.3958 24.6145C74.6719 24.6145 83.0313 34.3385 83.0313 46.2968C83.0313 50.2291 82.1146 54.0885 80.3802 57.4426C80.3594 57.4843 80.3281 57.5208 80.2917 57.552C75.8594 61.2187 70.0208 63.2395 63.8646 63.2395Z" fill="black"/>
<path d="M24.6191 62.8905C30.5254 62.8905 35.8379 60.4218 39.5566 56.4843H40.3796C41.791 53.4583 42.5983 49.9843 42.5983 46.2968C42.5983 34.5103 34.4108 24.9583 24.3118 24.9583C14.2129 24.9583 6.02539 34.5103 6.02539 46.2968C6.02539 48.5208 6.31706 50.6666 6.85872 52.6874C10.3431 58.776 16.9941 62.8905 24.6191 62.8905Z" fill="#EA9C5D"/>
<path d="M34.6133 28.6667C37.6914 32.4897 39.5768 37.6251 39.5768 43.2761C39.5768 46.6667 38.8997 49.8647 37.6966 52.7084C37.4987 53.172 37.0404 53.4688 36.5352 53.4688C32.8216 57.4063 27.5039 59.8751 21.6029 59.8751C16.6862 59.8751 12.181 58.1615 8.66016 55.3178C12.3893 59.9324 18.1497 62.8907 24.6185 62.8907C30.5247 62.8907 35.8372 60.422 39.556 56.4845H40.3789C41.7904 53.4584 42.5977 49.9845 42.5977 46.297C42.5977 38.9688 39.431 32.5105 34.6133 28.6667Z" fill="#DD8B52"/>
<path d="M7.18099 52.552C10.7279 58.7187 17.4049 62.5468 24.6185 62.5468C30.1758 62.5468 35.5247 60.2499 39.306 56.2499C39.3685 56.177 39.4622 56.1405 39.556 56.1405H40.1549C41.5247 53.1249 42.2487 49.7291 42.2487 46.2968C42.2487 34.7187 34.2018 25.302 24.3112 25.302C14.4154 25.302 6.36849 34.7187 6.36849 46.2968C6.36849 48.427 6.64453 50.5312 7.18099 52.552ZM24.6185 63.2395C17.1445 63.2395 10.2227 59.2603 6.55599 52.8593C6.54037 52.8333 6.52995 52.802 6.52474 52.776C5.96224 50.6822 5.67578 48.5051 5.67578 46.2968C5.67578 34.3385 14.0352 24.6145 24.3112 24.6145C34.582 24.6145 42.9414 34.3385 42.9414 46.2968C42.9414 49.9062 42.1654 53.4791 40.6914 56.6301C40.6341 56.7551 40.5143 56.8333 40.3789 56.8333H39.707C35.806 60.9062 30.3164 63.2395 24.6185 63.2395Z" fill="black"/>
<path d="M104.525 0.989502C97.0456 0.989502 90.6185 6.22909 87.7852 13.7343L90.2643 15.6822L95.5872 28.8905C98.4779 26.6562 101.947 25.3541 105.671 25.3541C110.645 25.3541 115.15 27.6718 118.447 31.427C119.941 29.8124 121.155 27.9843 122.035 25.9999C122.54 24.8489 122.811 23.6041 122.811 22.3437C122.811 22.3385 122.811 22.3333 122.811 22.328C122.811 10.5416 114.624 0.989502 104.525 0.989502Z" fill="#EA9C5D"/>
<path d="M39.1185 15.4896L43.3789 12.6979C40.4727 5.40625 34.1393 0.34375 26.7904 0.34375C16.6914 0.34375 8.50391 9.90104 8.50391 21.6823C8.50391 22.7083 8.56641 23.7135 8.6862 24.6979C8.97266 27.0417 9.92057 29.2708 11.4466 31.0729C11.457 31.0833 11.4622 31.0938 11.4727 31.099C14.7747 27.3021 19.306 24.9583 24.3112 24.9583C28.1706 24.9583 31.7487 26.3542 34.6966 28.7396L39.1185 15.4896Z" fill="#EA9C5D"/>
<path d="M78.8066 15.4896L81.1712 13.9427C78.3535 6.39062 71.9056 1.10938 64.3952 1.10938C57.0358 1.10938 50.6921 6.18229 47.791 13.4948L50.5775 15.6823L55.4212 27.7031C58.0723 25.9583 61.1348 24.9583 64.3952 24.9583C68.1191 24.9583 71.5827 26.2604 74.4733 28.4896L78.8066 15.4896Z" fill="#EA9C5D"/>
<path d="M105.672 25.0103C110.459 25.0103 114.979 27.0989 118.448 30.9062C119.818 29.3801 120.917 27.6822 121.719 25.8593C122.214 24.7343 122.464 23.552 122.469 22.3437V22.328C122.469 10.7551 114.422 1.33846 104.526 1.33846C97.5002 1.33846 91.1148 6.15096 88.2034 13.6197L90.4846 15.4114C90.5315 15.4478 90.5679 15.4947 90.5888 15.552L95.7398 28.3437C98.7138 26.1614 102.136 25.0103 105.672 25.0103ZM118.448 31.7708H118.443C118.344 31.7708 118.25 31.7291 118.188 31.6562C114.818 27.8176 110.375 25.703 105.672 25.703C102.146 25.703 98.7346 26.901 95.8023 29.1666C95.7138 29.2343 95.6044 29.2551 95.5002 29.2291C95.3909 29.1978 95.3075 29.1249 95.2659 29.0208L89.9794 15.8958L87.5732 14.0051C87.4534 13.9114 87.4065 13.7551 87.4638 13.6145C90.4377 5.73429 97.1357 0.645752 104.526 0.645752C114.802 0.645752 123.162 10.3697 123.162 22.328V22.3437C123.162 23.651 122.891 24.927 122.354 26.1405C121.469 28.1458 120.24 29.9999 118.703 31.6614C118.636 31.7343 118.542 31.7708 118.448 31.7708Z" fill="black"/>
<mask id="mask8_283_107526" style="mask-type:luminance" maskUnits="userSpaceOnUse" x="7" y="0" width="37" height="33">
<path d="M7.88477 0H43.8848V32.3229H7.88477V0Z" fill="white"/>
</mask>
<g mask="url(#mask8_283_107526)">
<path d="M26.7911 0.692708C16.9005 0.692708 8.8536 10.1094 8.8536 21.6823C8.8536 22.6771 8.9161 23.6771 9.03068 24.6563C9.29631 26.849 10.1453 28.8854 11.4838 30.5677C14.9578 26.724 19.4994 24.6146 24.3119 24.6146C27.9682 24.6146 31.489 25.8385 34.5255 28.1615L38.7911 15.3802C38.8119 15.3073 38.864 15.2448 38.9265 15.2031L42.9526 12.5625C41.5203 9.09896 39.3119 6.16667 36.5411 4.0625C33.6401 1.85937 30.2703 0.692708 26.7911 0.692708ZM11.4734 31.4479C11.3692 31.4479 11.2755 31.401 11.2078 31.3229L11.1869 31.2969C9.62443 29.4583 8.64006 27.1875 8.34318 24.7396C8.22339 23.7344 8.16089 22.7031 8.16089 21.6823C8.16089 9.72396 16.5203 0 26.7911 0C30.4213 0 33.9369 1.21354 36.963 3.51042C39.9005 5.73958 42.2286 8.875 43.7026 12.5677C43.7651 12.7188 43.7078 12.8958 43.5723 12.9844L39.4109 15.7135L35.0255 28.8438C34.989 28.9531 34.9057 29.0365 34.7963 29.0677C34.6869 29.099 34.5671 29.0781 34.4786 29.0052C31.4786 26.5833 27.963 25.3021 24.3119 25.3021C19.5776 25.3021 15.114 27.4427 11.7338 31.3281C11.6713 31.401 11.5723 31.4479 11.4734 31.4479Z" fill="black"/>
</g>
<path d="M64.3944 24.6146C67.9153 24.6146 71.3319 25.7552 74.2955 27.9219L78.4778 15.3802C78.5038 15.3073 78.5507 15.2448 78.6184 15.2031L80.7486 13.8073C77.8424 6.29167 71.4517 1.45833 64.3944 1.45833C60.9153 1.45833 57.5403 2.625 54.6288 4.83854C51.8528 6.94792 49.6392 9.90104 48.2122 13.3854L50.7903 15.4115C50.8372 15.4479 50.8736 15.4948 50.8997 15.5521L55.5819 27.1875C58.2799 25.5 61.3163 24.6146 64.3944 24.6146ZM74.4726 28.8333C74.3944 28.8333 74.3215 28.8125 74.259 28.7656C71.3267 26.5 67.9153 25.3021 64.3944 25.3021C61.3163 25.3021 58.2799 26.2344 55.608 27.9948C55.5247 28.0521 55.4153 28.0677 55.3163 28.0365C55.2174 28.0052 55.134 27.9323 55.0976 27.8333L50.2903 15.8958L47.5767 13.7708C47.4569 13.6771 47.4153 13.5104 47.4674 13.3698C48.9413 9.66667 51.2694 6.52083 54.2122 4.28646C57.2382 1.98438 60.759 0.765625 64.3944 0.765625C71.8267 0.765625 78.5351 5.89062 81.4934 13.8229C81.5507 13.974 81.4934 14.1458 81.3632 14.2344L79.0976 15.7135L74.8007 28.599C74.7642 28.7031 74.6809 28.7865 74.5715 28.8229C74.5403 28.8281 74.5038 28.8333 74.4726 28.8333Z" fill="black"/>
<path d="M42.5983 46.297C42.5983 49.9845 41.791 53.4584 40.3796 56.4845H46.7389C47.5879 57.2657 48.5046 57.9897 49.4837 58.6459C47.3587 55.1616 46.1087 50.8959 46.1087 46.297C46.1087 38.3178 49.8639 31.3647 55.4212 27.7032L50.5775 15.6824L46.7962 12.7136C45.8587 11.9793 44.5566 11.9272 43.5618 12.5782L39.1191 15.4897L34.6973 28.7345C39.4681 32.5886 42.5983 39.0157 42.5983 46.297Z" fill="#DABBA8"/>
<path d="M50.9425 59.8958C50.88 59.8958 50.8227 59.8802 50.7706 59.8489C50.3227 59.5937 49.88 59.3229 49.4477 59.0364C49.3956 59.0052 49.3435 58.9687 49.2966 58.9374C49.1352 58.8281 49.0935 58.6145 49.1977 58.4531C49.3071 58.2968 49.5206 58.2552 49.6821 58.3593C49.7289 58.3958 49.781 58.427 49.8279 58.4583C50.2393 58.7343 50.6716 58.9947 51.1143 59.2447C51.2498 59.3281 51.3175 59.4895 51.2758 59.6406C51.2445 59.7447 51.1716 59.8281 51.0727 59.8697C51.031 59.8854 50.9841 59.8958 50.9425 59.8958Z" fill="black"/>
<path d="M40.9165 56.1407H46.7395C46.828 56.1407 46.9113 56.172 46.979 56.2345C47.4322 56.6511 47.9113 57.0574 48.4113 57.448C46.677 54.0886 45.7655 50.2657 45.7655 46.297C45.7655 38.5991 49.2915 31.4584 54.9947 27.573L50.2915 15.8959L46.5832 12.9897C45.7603 12.3439 44.6249 12.297 43.7551 12.8647L39.4113 15.7136L35.104 28.6199C40.0155 32.6876 42.9426 39.2761 42.9426 46.297C42.9426 49.7189 42.2447 53.1095 40.9165 56.1407ZM49.4842 58.9949C49.4165 58.9949 49.3488 58.9741 49.2915 58.9324C48.3332 58.2918 47.4322 57.5834 46.604 56.8334H40.3801C40.2603 56.8334 40.1509 56.7709 40.0884 56.672C40.0207 56.573 40.0155 56.448 40.0624 56.3386C41.4947 53.2761 42.2499 49.8074 42.2499 46.297C42.2499 39.3959 39.3436 32.9324 34.479 29.0053C34.3697 28.9168 34.3228 28.7657 34.3697 28.6251L38.7915 15.3803C38.8124 15.3074 38.8645 15.2449 38.927 15.2032L43.3749 12.2866C44.4947 11.5522 45.9582 11.6147 47.0103 12.4428L50.7915 15.4116C50.8384 15.448 50.8749 15.4949 50.9009 15.5522L55.7395 27.573C55.802 27.7293 55.7499 27.9011 55.6092 27.9949C49.9634 31.7136 46.4582 38.7241 46.4582 46.297C46.4582 50.6928 47.604 54.9011 49.7811 58.4636C49.8645 58.6043 49.8436 58.7866 49.7238 58.8959C49.6561 58.9584 49.5728 58.9949 49.4842 58.9949Z" fill="black"/>
<path d="M82.681 46.297C82.681 50.3178 81.7279 54.0782 80.0716 57.2866C80.3841 57.0261 80.6914 56.7605 80.9883 56.4845H86.7018C87.8737 57.6355 89.1914 58.6616 90.6341 59.5366L90.7435 59.0105C88.6289 55.5314 87.3841 51.2814 87.3841 46.6928C87.3841 39.2553 90.6445 32.7136 95.5872 28.8907L90.2643 15.6824L86.4883 12.7136C85.5508 11.9793 84.2487 11.9272 83.2539 12.5782L78.806 15.4897L74.4727 28.4897C79.4206 32.3074 82.681 38.8543 82.681 46.297Z" fill="#DABBA8"/>
<path d="M78.4897 58.8282C78.4532 58.8282 78.4115 58.823 78.3751 58.8074C78.2709 58.7709 78.1928 58.6876 78.1615 58.5834C78.1147 58.4376 78.1668 58.2813 78.2918 58.1928C78.8334 57.823 79.3543 57.4324 79.8438 57.0261C79.8438 57.0261 79.8438 57.0261 79.8438 57.0209C79.9949 56.9011 80.2136 56.9219 80.3334 57.0678C80.4584 57.2188 80.4376 57.4376 80.2865 57.5574C79.7761 57.9792 79.2397 58.3855 78.6876 58.7657C78.6303 58.8074 78.5574 58.8282 78.4897 58.8282Z" fill="black"/>
<path d="M80.9994 56.1407H86.7025C86.7962 56.1407 86.8796 56.1772 86.9473 56.2397C87.9525 57.2241 89.0671 58.1199 90.2754 58.9011C88.1556 55.297 87.041 51.0782 87.041 46.6928C87.041 39.5053 90.0723 32.8334 95.1712 28.7814L89.9785 15.8959L86.2702 12.9897C85.4525 12.3439 84.3171 12.297 83.4421 12.8647L79.0983 15.7136L74.8796 28.3647C79.9889 32.4168 83.0306 39.0991 83.0306 46.297C83.0306 49.7293 82.3327 53.1043 80.9994 56.1407ZM90.6348 59.8855C90.5723 59.8855 90.5098 59.8647 90.4525 59.8334C89.0358 58.9689 87.7285 57.9636 86.5619 56.8334H81.1244C80.8639 57.073 80.5827 57.3126 80.291 57.5522C80.166 57.6564 79.9837 57.6564 79.8535 57.5574C79.7285 57.4532 79.6869 57.2761 79.765 57.1251C81.4473 53.8647 82.3379 50.1199 82.3379 46.297C82.3379 39.2189 79.3171 32.6668 74.2598 28.7605C74.1452 28.672 74.0983 28.5209 74.14 28.3803L78.4785 15.3803C78.5046 15.3074 78.5514 15.2449 78.6192 15.2032L83.0619 12.2866C84.1817 11.5522 85.6452 11.6147 86.7025 12.4428L90.4837 15.4116C90.5306 15.448 90.5671 15.4949 90.5879 15.5522L95.9108 28.7605C95.9681 28.9064 95.9212 29.073 95.8014 29.1668C90.7494 33.073 87.7337 39.6199 87.7337 46.6928C87.7337 51.073 88.8744 55.2709 91.041 58.8334C91.0879 58.9064 91.1035 59.0001 91.0827 59.0834L90.9733 59.6095C90.9525 59.7189 90.8744 59.8074 90.7702 59.8543C90.7285 59.8751 90.6817 59.8855 90.6348 59.8855Z" fill="black"/>
<mask id="mask9_283_107526" style="mask-type:luminance" maskUnits="userSpaceOnUse" x="10" y="65" width="32" height="13">
<path d="M10.5508 65.6562H41.2174V77.0469H10.5508V65.6562Z" fill="white"/>
</mask>
<g mask="url(#mask9_283_107526)">
<path d="M14.5611 66.0053C13.5767 66.0053 12.6236 65.9063 11.6965 65.7136L20.9986 75.0105C22.8215 76.8282 25.6965 77.047 27.7695 75.5261L40.7538 66.0053H14.5611Z" fill="#DABBA8"/>
</g>
<path d="M113.458 66.0051H90.375L99.0521 74.6718C100.958 76.578 104.005 76.7135 106.078 74.9895L117.573 65.3958C116.271 65.7916 114.891 66.0051 113.458 66.0051Z" fill="#DABBA8"/>
<path d="M52.4629 66.0051L60.5671 74.1041C62.4733 76.0051 65.515 76.1458 67.5879 74.4218L77.6973 66.0051H52.4629Z" fill="#DABBA8"/>
<mask id="mask10_283_107526" style="mask-type:luminance" maskUnits="userSpaceOnUse" x="10" y="64" width="32" height="14">
<path d="M10.5508 64.323H41.2174V77.047H10.5508V64.323Z" fill="white"/>
</mask>
<g mask="url(#mask10_283_107526)">
<path d="M12.7069 66.2345L21.2434 74.7657C22.9569 76.4741 25.6132 76.672 27.5611 75.2449L39.6965 66.3491H14.5611C13.9413 66.3491 13.3215 66.3126 12.7069 66.2345ZM24.6809 76.8907C23.2538 76.8907 21.8371 76.3334 20.7538 75.2553L11.4517 65.9584C11.3476 65.8543 11.3215 65.6876 11.3944 65.5522C11.4673 65.4168 11.6184 65.3438 11.7694 65.3751C12.6809 65.5626 13.6184 65.6563 14.5611 65.6563H40.7538C40.9048 65.6563 41.0351 65.7553 41.0819 65.8959C41.1288 66.0418 41.0819 66.1928 40.9569 66.2813L27.9726 75.8022C26.983 76.5313 25.8267 76.8907 24.6809 76.8907Z" fill="black"/>
</g>
<mask id="mask11_283_107526" style="mask-type:luminance" maskUnits="userSpaceOnUse" x="89" y="64" width="30" height="14">
<path d="M89.2188 64.323H118.552V77.047H89.2188V64.323Z" fill="white"/>
</mask>
<g mask="url(#mask11_283_107526)">
<path d="M91.2084 66.349L99.297 74.4271C101.089 76.2188 103.906 76.3438 105.854 74.724L116.198 66.0938C115.297 66.2656 114.38 66.349 113.458 66.349H91.2084ZM102.734 76.5573C101.307 76.5573 99.8907 76.0052 98.8074 74.9167L90.1303 66.25C90.0261 66.1511 90.0001 66 90.0522 65.8698C90.1042 65.7448 90.2345 65.6563 90.3751 65.6563H113.458C114.823 65.6563 116.172 65.4583 117.474 65.0625C117.63 65.0156 117.802 65.0886 117.88 65.2292C117.958 65.375 117.922 65.5573 117.797 65.6615L106.297 75.2552C105.255 76.125 103.99 76.5573 102.734 76.5573Z" fill="black"/>
</g>
<path d="M53.2964 66.349L60.812 73.8594C62.6037 75.6458 65.4214 75.7708 67.3641 74.1563L76.7391 66.349H53.2964ZM64.2495 75.9844C62.8276 75.9844 61.4058 75.4323 60.3224 74.349L52.2183 66.25C52.1193 66.151 52.0881 66 52.1401 65.8698C52.1974 65.7448 52.3224 65.6562 52.4631 65.6562H77.6974C77.8433 65.6562 77.9735 65.75 78.0204 65.8854C78.0724 66.026 78.0308 66.1771 77.9162 66.2708L67.812 74.6875C66.7704 75.5521 65.5047 75.9844 64.2495 75.9844Z" fill="black"/>
<path d="M14.3857 33.2969C12.3545 35.7084 11.7763 38.5677 13.0993 39.6823C14.4222 40.7969 17.1461 39.75 19.1826 37.3438C21.2191 34.9323 21.792 32.0729 20.4691 30.9584C19.1461 29.8438 16.4222 30.8906 14.3857 33.2969Z" fill="#F4A773"/>
<path d="M17.1357 7.198C15.1045 9.60425 14.5263 12.4636 15.8493 13.5782C17.1722 14.698 19.8961 13.6459 21.9326 11.2397C23.9691 8.8282 24.542 5.96883 23.2191 4.85425C21.8961 3.73966 19.1722 4.78654 17.1357 7.198Z" fill="#F4A773"/>
<path d="M55.639 7.198C53.6025 9.60425 53.0296 12.4636 54.3525 13.5782C55.6754 14.698 58.3994 13.6459 60.4359 11.2397C62.4723 8.8282 63.0452 5.96883 61.7223 4.85425C60.3994 3.73966 57.6754 4.78654 55.639 7.198Z" fill="#F4A773"/>
<path d="M95.3232 7.78637C93.292 10.1926 92.7138 13.052 94.0368 14.1666C95.3597 15.2864 98.0836 14.2343 100.12 11.828C102.157 9.41658 102.729 6.55721 101.407 5.44262C100.084 4.32804 97.3597 5.37492 95.3232 7.78637Z" fill="#F4A773"/>
<path d="M55.7071 33.2969C53.6706 35.7084 53.0925 38.5677 54.4154 39.6823C55.7435 40.7969 58.4623 39.75 60.4987 37.3438C62.5352 34.9323 63.1133 32.0729 61.7852 30.9584C60.4623 29.8438 57.7383 30.8906 55.7071 33.2969Z" fill="#F4A773"/>
<path d="M97.0261 33.2969C94.9896 35.7084 94.4115 38.5677 95.7396 39.6823C97.0625 40.7969 99.7865 39.75 101.818 37.3438C103.854 34.9323 104.432 32.0729 103.109 30.9584C101.781 29.8438 99.0625 30.8906 97.0261 33.2969Z" fill="#F4A773"/>
</svg>
