<svg width="76" height="92" viewBox="0 0 76 92" fill="none" xmlns="http://www.w3.org/2000/svg">
<mask id="mask0_283_107527" style="mask-type:luminance" maskUnits="userSpaceOnUse" x="0" y="0" width="76" height="92">
<path d="M0 0H75.7865V91.2656H0V0Z" fill="white"/>
</mask>
<g mask="url(#mask0_283_107527)">
<path d="M62.8075 85.3645C62.8075 85.3645 66.1617 89.4479 64.219 90.8697C62.2814 92.2916 58.0471 89.625 52.7502 87.4947C47.4585 85.3645 22.2242 86.4322 9.8752 79.151C9.8752 79.151 2.81791 82.7031 1.75541 80.7499C1.45333 80.1927 1.36478 79.5989 1.48978 78.9739C1.79708 77.4114 3.40124 75.6249 6.16687 73.4739C6.16687 73.4739 -2.1248 62.1093 0.521034 48.2604C3.16687 34.4166 16.9325 24.8281 19.2242 16.3072C21.521 7.7864 16.0471 6.54161 15.344 2.28119C14.6356 -1.97922 19.7554 0.864527 22.2242 1.74994C24.6929 2.63536 44.4585 2.81765 52.9273 4.77078C61.396 6.7239 64.219 4.23953 66.1617 2.46349C68.1044 0.687443 73.7502 -0.203181 74.2815 2.81765C74.7554 5.52078 71.5471 7.93744 70.8752 10.0729C70.7971 10.3177 70.7502 10.5624 70.7502 10.802C70.7502 13.1145 86.2815 64.9531 62.8075 85.3645Z" fill="#F9F7ED"/>
</g>
<mask id="mask1_283_107527" style="mask-type:luminance" maskUnits="userSpaceOnUse" x="1" y="10" width="75" height="82">
<path d="M1.42773 10.0522H75.7871V91.2658H1.42773V10.0522Z" fill="white"/>
</mask>
<g mask="url(#mask1_283_107527)">
<path d="M62.8286 91.2657C60.5838 91.2657 57.0109 89.2084 52.7505 87.4949C47.4588 85.3647 22.2244 86.4324 9.87549 79.1511C9.87549 79.1511 5.53174 81.3386 3.14632 81.3386C2.49528 81.3386 1.98486 81.172 1.7557 80.7501C1.54216 80.3595 1.43799 79.948 1.43799 79.5209C1.43799 79.3438 1.45361 79.1563 1.49007 78.974C2.01611 79.099 2.48486 79.1563 2.90153 79.1563C7.0734 79.1563 6.16716 73.474 6.16716 73.474C9.66195 75.3542 21.1672 79.8074 32.813 79.8074C40.589 79.8074 48.4328 77.823 53.9901 71.7553C67.8703 56.6042 63.8703 21.573 66.6932 15.422C67.9692 12.6303 69.5422 11.0105 70.8755 10.073C70.7974 10.3178 70.7505 10.5626 70.7505 10.8022C70.7505 12.1199 75.7869 29.5001 75.7869 47.9949C75.7869 61.9688 72.9119 76.5782 62.8078 85.3647C62.8078 85.3647 64.8286 87.823 64.8286 89.5834C64.8286 90.099 64.6567 90.5522 64.2192 90.8699C63.8442 91.1459 63.3755 91.2657 62.8286 91.2657ZM68.813 15.7761C69.2609 18.6407 69.5994 21.5105 69.8494 24.3907C69.9797 25.8282 70.089 27.2657 70.1619 28.7084C70.2401 30.1459 70.313 31.5886 70.3442 33.0261C70.4849 38.7813 70.2453 44.5417 69.4484 50.2188C68.6515 55.8855 67.2869 61.4845 65.0786 66.7553C64.5265 68.073 63.9067 69.3647 63.2557 70.6355C62.5942 71.9011 61.8703 73.1355 61.0942 74.3438C60.3234 75.5522 59.4744 76.7084 58.5942 77.8438C58.1411 78.4011 57.688 78.9636 57.2088 79.5001C56.7453 80.0574 56.2401 80.5678 55.7505 81.1043C56.8703 80.1876 57.9328 79.198 58.9432 78.1511C59.938 77.0938 60.8807 75.9792 61.7661 74.8178C62.6359 73.6459 63.4536 72.4272 64.2088 71.1772C64.9588 69.9168 65.6359 68.6147 66.2713 67.297C68.7817 61.9897 70.2922 56.2449 71.1047 50.4532C71.9224 44.6511 72.0317 38.7761 71.6463 32.9636C71.5422 31.5105 71.4224 30.0574 71.2505 28.6147C71.0838 27.1667 70.8859 25.724 70.6567 24.2865C70.1828 21.422 69.6203 18.5626 68.813 15.7761Z" fill="#E9D3C3"/>
</g>
<path d="M55.75 81.1042C56.2344 80.5678 56.7448 80.0574 57.2083 79.5001C57.6875 78.9636 58.1406 78.4011 58.5938 77.8438C59.474 76.7084 60.3229 75.5522 61.0938 74.3438C61.8698 73.1355 62.5938 71.9011 63.2552 70.6355C63.9063 69.3647 64.526 68.073 65.0781 66.7553C67.2865 61.4845 68.651 55.8855 69.4479 50.2188C70.2448 44.5417 70.4844 38.7813 70.3438 33.0261C70.3125 31.5834 70.2396 30.1459 70.1615 28.7084C70.0885 27.2657 69.9792 25.8282 69.849 24.3907C69.599 21.5105 69.2604 18.6407 68.8125 15.7761C69.6198 18.5626 70.1823 21.422 70.6563 24.2865C70.8854 25.724 71.0833 27.1667 71.25 28.6147C71.4219 30.0574 71.5417 31.5105 71.6458 32.9636C72.0313 38.7761 71.9219 44.6511 71.1042 50.4532C70.2917 56.2449 68.7813 61.9845 66.2708 67.297C65.6354 68.6147 64.9583 69.9168 64.2083 71.1772C63.4531 72.4272 62.6354 73.6459 61.7656 74.8178C60.8802 75.9792 59.9375 77.0938 58.9427 78.1511C57.9323 79.198 56.8698 80.1876 55.75 81.1042Z" fill="#A18672"/>
<path d="M43.9901 41.349C43.9901 41.349 44.3599 38.3854 41.5265 37.7812C41.5265 37.7812 40.5734 42.7396 43.9901 41.349Z" fill="#C2732F"/>
<path d="M45.2605 38.6042C45.2605 38.6042 45.6355 35.6407 42.8022 35.0417C42.8022 35.0417 41.849 39.9949 45.2605 38.6042Z" fill="#C2732F"/>
<path d="M46.532 35.6407C46.532 35.6407 46.907 32.6772 44.0737 32.073C44.0737 32.073 43.1205 37.0313 46.532 35.6407Z" fill="#C2732F"/>
<path d="M47.604 32.495C47.604 32.495 47.9738 29.5314 45.1405 28.9272C45.1405 28.9272 44.1926 33.8804 47.604 32.495Z" fill="#C2732F"/>
<path d="M48.8338 29.4376C48.8338 29.4376 49.2036 26.474 46.3703 25.8699C46.3703 25.8699 45.4172 30.8282 48.8338 29.4376Z" fill="#C2732F"/>
<path d="M43.6309 41.2865C43.6309 41.2865 45.4746 38.948 47.8861 40.5678C47.8861 40.5678 45.0215 44.7188 43.6309 41.2865Z" fill="#C2732F"/>
<path d="M44.6875 38.4584C44.6875 38.4584 46.5365 36.1198 48.9427 37.7396C48.9427 37.7396 46.0833 41.8855 44.6875 38.4584Z" fill="#C2732F"/>
<path d="M45.9121 35.4689C45.9121 35.4689 47.7559 33.1303 50.1673 34.7501C50.1673 34.7501 47.3027 38.896 45.9121 35.4689Z" fill="#C2732F"/>
<path d="M47.4023 32.5001C47.4023 32.5001 49.2513 30.1616 51.6576 31.7814C51.6576 31.7814 48.7982 35.9272 47.4023 32.5001Z" fill="#C2732F"/>
<path d="M48.7188 29.4845C48.7188 29.4845 50.5677 27.1408 52.974 28.7658C52.974 28.7658 50.1146 32.9116 48.7188 29.4845Z" fill="#C2732F"/>
<path d="M49.1785 28.4115C49.1785 28.4115 47.9545 26.0573 51.0014 24.6406C51.0014 24.6406 52.6316 28.0625 49.1785 28.4115Z" fill="#C2732F"/>
<path d="M39.2878 51.4637L39.043 51.3543L49.2253 28.271L49.4701 28.3804L39.2878 51.4637Z" fill="#C2732F"/>
<path d="M37.0736 35.0834C37.0736 35.0834 36.8132 32.1094 33.9121 32.1251C33.9121 32.1251 34.0319 37.1719 37.0736 35.0834Z" fill="#C2732F"/>
<path d="M37.7344 32.1354C37.7344 32.1354 37.474 29.1563 34.5781 29.1771C34.5781 29.1771 34.6979 34.224 37.7344 32.1354Z" fill="#C2732F"/>
<path d="M38.3548 28.9636C38.3548 28.9636 38.0892 25.9844 35.1934 26.0052C35.1934 26.0052 35.3132 31.0521 38.3548 28.9636Z" fill="#C2732F"/>
<path d="M38.7305 25.6616C38.7305 25.6616 38.4701 22.6824 35.5742 22.7032C35.5742 22.7032 35.694 27.7501 38.7305 25.6616Z" fill="#C2732F"/>
<path d="M39.2865 22.4116C39.2865 22.4116 39.0208 19.4324 36.125 19.4532C36.125 19.4532 36.2448 24.5001 39.2865 22.4116Z" fill="#C2732F"/>
<path d="M36.709 35.1042C36.709 35.1042 38.0215 32.422 40.7142 33.4897C40.7142 33.4897 38.7975 38.1563 36.709 35.1042Z" fill="#C2732F"/>
<path d="M37.1465 32.1094C37.1465 32.1094 38.4538 29.4323 41.1517 30.5001C41.1517 30.5001 39.235 35.1615 37.1465 32.1094Z" fill="#C2732F"/>
<path d="M37.709 28.9271C37.709 28.9271 39.0163 26.25 41.7142 27.3177C41.7142 27.3177 39.7975 31.9791 37.709 28.9271Z" fill="#C2732F"/>
<path d="M38.5371 25.7083C38.5371 25.7083 39.8496 23.0312 42.5423 24.0989C42.5423 24.0989 40.6257 28.7604 38.5371 25.7083Z" fill="#C2732F"/>
<path d="M39.1875 22.4792C39.1875 22.4792 40.4948 19.797 43.1927 20.8647C43.1927 20.8647 41.2708 25.5313 39.1875 22.4792Z" fill="#C2732F"/>
<path d="M39.4067 21.3334C39.4067 21.3334 37.714 19.297 40.3911 17.2605C40.3911 17.2605 42.7088 20.2501 39.4067 21.3334Z" fill="#C2732F"/>
<path d="M34.6159 45.9792L34.3555 45.9219L39.4232 21.1875L39.6836 21.2396L34.6159 45.9792Z" fill="#C2732F"/>
<path d="M27.25 37.8594C27.25 37.8594 26.6615 34.9324 23.7812 35.2709C23.7812 35.2709 24.4583 40.2761 27.25 37.8594Z" fill="#C2732F"/>
<path d="M27.5846 34.8543C27.5846 34.8543 26.9961 31.9272 24.1211 32.2658C24.1211 32.2658 24.793 37.271 27.5846 34.8543Z" fill="#C2732F"/>
<path d="M27.8444 31.6354C27.8444 31.6354 27.2559 28.7031 24.3809 29.0468C24.3809 29.0468 25.0527 34.0468 27.8444 31.6354Z" fill="#C2732F"/>
<path d="M27.86 28.3074C27.86 28.3074 27.2715 25.3804 24.3965 25.7189C24.3965 25.7189 25.0684 30.7241 27.86 28.3074Z" fill="#C2732F"/>
<path d="M28.0527 25.0157C28.0527 25.0157 27.4642 22.0886 24.584 22.4272C24.584 22.4272 25.2611 27.4324 28.0527 25.0157Z" fill="#C2732F"/>
<path d="M26.8867 37.922C26.8867 37.922 27.8971 35.1095 30.694 35.8699C30.694 35.8699 29.2982 40.7189 26.8867 37.922Z" fill="#C2732F"/>
<path d="M26.9961 34.896C26.9961 34.896 28.0013 32.0887 30.7982 32.8492C30.7982 32.8492 29.4076 37.6981 26.9961 34.896Z" fill="#C2732F"/>
<path d="M27.2031 31.672C27.2031 31.672 28.2083 28.8595 31.0052 29.6199C31.0052 29.6199 29.6094 34.4741 27.2031 31.672Z" fill="#C2732F"/>
<path d="M27.6719 28.3804C27.6719 28.3804 28.6771 25.5679 31.474 26.3335C31.474 26.3335 30.0833 31.1825 27.6719 28.3804Z" fill="#C2732F"/>
<path d="M27.959 25.0938C27.959 25.0938 28.9694 22.2865 31.7663 23.0469C31.7663 23.0469 30.3704 27.8959 27.959 25.0938Z" fill="#C2732F"/>
<path d="M28.0531 23.9325C28.0531 23.9325 26.1468 22.0939 28.5843 19.771C28.5843 19.771 31.2145 22.4897 28.0531 23.9325Z" fill="#C2732F"/>
<path d="M26.0059 48.9585L25.7402 48.9325L28.0527 23.7866L28.3184 23.8127L26.0059 48.9585Z" fill="#C2732F"/>
<path d="M19.8854 40.474C19.8854 40.474 18.9792 37.6302 16.1562 38.2917C16.1562 38.2917 17.3802 43.1875 19.8854 40.474Z" fill="#C2732F"/>
<path d="M19.8854 37.448C19.8854 37.448 18.9792 34.6043 16.1562 35.2709C16.1562 35.2709 17.3802 40.1616 19.8854 37.448Z" fill="#C2732F"/>
<path d="M19.7917 34.2188C19.7917 34.2188 18.8802 31.3751 16.0625 32.0365C16.0625 32.0365 17.2865 36.9324 19.7917 34.2188Z" fill="#C2732F"/>
<path d="M19.4375 30.9115C19.4375 30.9115 18.526 28.0677 15.7031 28.7292C15.7031 28.7292 16.9271 33.625 19.4375 30.9115Z" fill="#C2732F"/>
<path d="M19.2604 27.62C19.2604 27.62 18.349 24.7762 15.5312 25.4377C15.5312 25.4377 16.7552 30.3335 19.2604 27.62Z" fill="#C2732F"/>
<path d="M19.5371 40.5729C19.5371 40.5729 20.2246 37.6667 23.0892 38.1094C23.0892 38.1094 22.2454 43.0885 19.5371 40.5729Z" fill="#C2732F"/>
<path d="M19.3086 37.5573C19.3086 37.5573 19.9961 34.651 22.8607 35.0937C22.8607 35.0937 22.0117 40.0677 19.3086 37.5573Z" fill="#C2732F"/>
<path d="M19.1562 34.3334C19.1562 34.3334 19.8438 31.4272 22.7083 31.8647C22.7083 31.8647 21.8594 36.8439 19.1562 34.3334Z" fill="#C2732F"/>
<path d="M19.2559 31.0053C19.2559 31.0053 19.9434 28.099 22.8079 28.5417C22.8079 28.5417 21.9642 33.5157 19.2559 31.0053Z" fill="#C2732F"/>
<path d="M19.1777 27.7084C19.1777 27.7084 19.8704 24.8022 22.7298 25.2449C22.7298 25.2449 21.8861 30.224 19.1777 27.7084Z" fill="#C2732F"/>
<path d="M19.1413 26.547C19.1413 26.547 17.0475 24.9325 19.209 22.3491C19.209 22.3491 22.1257 24.7554 19.1413 26.547Z" fill="#C2732F"/>
<path d="M19.6198 51.6512L19.125 26.4012L19.3906 26.396L19.8854 51.646L19.6198 51.6512Z" fill="#C2732F"/>
<path d="M51.3026 47.2293C51.3026 47.2293 51.7974 44.2814 48.9901 43.5679C48.9901 43.5679 47.8391 48.4793 51.3026 47.2293Z" fill="#C2732F"/>
<path d="M52.6884 44.5418C52.6884 44.5418 53.178 41.5991 50.3707 40.8804C50.3707 40.8804 49.2196 45.7918 52.6884 44.5418Z" fill="#C2732F"/>
<path d="M54.0795 41.6302C54.0795 41.6302 54.5743 38.6823 51.767 37.9688C51.767 37.9688 50.6108 42.8802 54.0795 41.6302Z" fill="#C2732F"/>
<path d="M55.2763 38.5314C55.2763 38.5314 55.7659 35.5835 52.9586 34.8647C52.9586 34.8647 51.8075 39.7814 55.2763 38.5314Z" fill="#C2732F"/>
<path d="M56.6259 35.526C56.6259 35.526 57.1155 32.5781 54.3082 31.8594C54.3082 31.8594 53.1571 36.776 56.6259 35.526Z" fill="#C2732F"/>
<path d="M50.9492 47.1564C50.9492 47.1564 52.8867 44.896 55.2305 46.6095C55.2305 46.6095 52.2044 50.6356 50.9492 47.1564Z" fill="#C2732F"/>
<path d="M52.1211 44.37C52.1211 44.37 54.0638 42.1096 56.4023 43.8283C56.4023 43.8283 53.3763 47.8544 52.1211 44.37Z" fill="#C2732F"/>
<path d="M53.4648 41.4325C53.4648 41.4325 55.4023 39.1721 57.7461 40.8908C57.7461 40.8908 54.7201 44.9169 53.4648 41.4325Z" fill="#C2732F"/>
<path d="M55.0742 38.5314C55.0742 38.5314 57.0117 36.2658 59.3555 37.9846C59.3555 37.9846 56.3294 42.0106 55.0742 38.5314Z" fill="#C2732F"/>
<path d="M56.5117 35.5678C56.5117 35.5678 58.4544 33.3073 60.793 35.0209C60.793 35.0209 57.7669 39.0521 56.5117 35.5678Z" fill="#C2732F"/>
<path d="M57.0112 34.5157C57.0112 34.5157 55.8862 32.1147 58.9903 30.823C58.9903 30.823 60.4799 34.3074 57.0112 34.5157Z" fill="#C2732F"/>
<path d="M46.1979 57.146L45.9531 57.0262L57.0625 34.3804L57.3021 34.5002L46.1979 57.146Z" fill="#C2732F"/>
<path d="M53.8908 57.2346C52.3439 67.6096 40.7345 74.4586 27.9637 72.5315C15.198 70.6044 6.09909 60.6252 7.64596 50.2502C9.19804 39.8752 20.8022 33.0263 33.573 34.9533C46.3439 36.8804 55.4376 46.8596 53.8908 57.2346Z" fill="#C2732F"/>
<path d="M52.0467 56.9584C50.6248 66.5053 39.9426 72.8074 28.1874 71.0313C16.4374 69.2605 8.06756 60.0782 9.48943 50.5261C10.9165 40.9792 21.5988 34.6771 33.3488 36.4532C45.0988 38.224 53.4738 47.4063 52.0467 56.9584Z" fill="#F9F7ED"/>
<path d="M23.0111 44.8282L21.834 44.7813C21.6829 44.7761 21.5996 44.8178 21.5892 44.9063C21.5788 44.9584 21.5788 45.0365 21.5788 45.1407C21.5788 45.2501 21.5788 45.3282 21.5684 45.3803C21.5371 45.6095 21.4642 45.8282 21.3548 46.0417L21.3965 44.5209L23.2767 44.8126L23.0111 44.8282ZM22.334 48.5053L21.6621 50.0886C21.4434 50.6042 21.3132 50.8907 21.2663 50.9636C21.2402 50.9636 21.1986 50.9688 21.1465 50.9688C21.0996 50.974 21.0371 50.9792 20.9746 50.9897C20.9954 50.8386 21.209 50.349 21.6152 49.5261C22.0527 48.6251 22.4382 47.948 22.7715 47.5001C22.6829 47.6772 22.5319 48.0157 22.334 48.5053ZM21.6517 48.9688C21.3652 49.5574 21.1777 49.9063 21.084 50.0209L20.7819 50.7188C20.6309 51.0053 20.4486 51.1303 20.2402 51.099C20.2611 50.974 20.5319 50.4897 21.0579 49.6459C21.3132 49.2397 21.5215 48.9115 21.6882 48.6667C21.8548 48.4167 21.9798 48.2501 22.0579 48.1511L21.6517 48.9688ZM21.11 46.6251C21.0892 46.6876 21.0736 46.7397 21.0579 46.7865C21.0423 46.8334 21.0267 46.8647 21.0215 46.8855C21.0007 46.8595 20.9694 46.8022 20.9329 46.7136C20.8965 46.6251 20.8496 46.5053 20.7923 46.349C20.5059 45.5886 20.2975 44.9011 20.1725 44.2813C20.4642 44.8126 20.709 45.3386 20.9017 45.8595L21.084 46.2292C21.1465 46.3751 21.1777 46.474 21.1725 46.5209C21.1829 46.448 21.1621 46.4845 21.11 46.6251ZM19.6986 49.2136C19.6725 49.0157 19.6361 48.7865 19.5944 48.5261C19.5423 48.2345 19.4902 48.0001 19.4434 47.8178C19.3913 47.6355 19.3444 47.5001 19.2975 47.4167L19.084 47.6772L19.7454 49.7032C19.7402 49.573 19.7246 49.4115 19.6986 49.2136ZM19.3444 50.849C19.3027 50.8386 19.2559 50.823 19.1934 50.8022C19.1517 50.7917 19.1152 50.7813 19.084 50.7709C19.0527 50.7657 19.0267 50.7553 18.9954 50.7553C18.9382 50.698 18.8809 50.4897 18.8236 50.1251L18.6152 48.823L18.6257 48.7449L19.4382 50.8803C19.4121 50.8699 19.3861 50.8647 19.3444 50.849ZM18.3236 45.8074L19.0371 44.2553L19.3913 44.3074L18.3236 45.8074ZM17.8184 45.0886C17.8132 45.0522 17.8079 44.9792 17.7975 44.8699C17.7871 44.7605 17.7715 44.6095 17.7507 44.4167L17.8027 44.0938H17.985L17.9902 46.073C17.9329 45.9167 17.8757 45.5886 17.8184 45.0886ZM17.6465 49.8751C17.459 50.2553 17.3548 50.4532 17.334 50.4688C17.2923 50.5001 17.2298 50.5157 17.1517 50.5105C17.0632 50.5053 17.0059 50.5053 16.985 50.5105L18.1986 49.0001C17.9538 49.3282 17.7715 49.6199 17.6465 49.8751ZM16.4017 48.073C16.334 47.5938 16.2767 47.0626 16.2298 46.474C16.2194 46.349 16.2038 46.1615 16.1829 45.9167C16.1621 45.672 16.1413 45.3647 16.1152 44.9949C16.0632 44.9845 15.9902 44.9845 15.9017 44.9949C15.8288 45.0053 15.7767 45.0157 15.7454 45.0261C15.9382 46.5209 16.235 47.9688 16.6361 49.3595C16.5475 48.9792 16.4694 48.547 16.4017 48.073ZM15.959 44.0053C15.7402 44.0365 15.5632 44.0574 15.4277 44.0782C15.2923 44.0938 15.1986 44.1042 15.1517 44.1095L15.2454 43.823L16.7298 43.9324C16.5267 43.9324 16.2715 43.9532 15.959 44.0053ZM21.6882 48.3907C21.6257 48.5001 21.4434 48.7813 21.1413 49.2449C20.8392 49.7032 20.4173 50.349 19.8757 51.1772C19.709 50.9063 19.5111 50.4688 19.2871 49.8647C19.209 49.6511 19.1204 49.4063 19.0267 49.1355C18.9329 48.8595 18.8236 48.547 18.709 48.198C18.6882 48.2084 18.5267 48.3907 18.2298 48.7449L17.3496 49.8022C17.0319 50.1824 16.7871 50.4428 16.6048 50.5782C16.4694 50.349 16.3288 50.0261 16.1829 49.599C16.0371 49.172 15.8861 48.6407 15.735 48.0053C15.4486 46.823 15.2975 45.9115 15.2871 45.2761C15.2871 45.2397 15.1882 45.0261 14.9954 44.6303C15.1777 44.5574 15.3965 44.4897 15.6569 44.4376C15.9225 44.3803 16.2194 44.3334 16.5632 44.2865C16.7507 44.2657 17.0423 44.2345 17.4486 44.2084C17.4902 44.7449 17.5684 45.3022 17.6777 45.8855C17.7663 46.3803 17.8496 46.7032 17.9277 46.8647C18.5163 45.9115 19.1257 45.1095 19.7507 44.448C19.8704 44.6772 19.985 44.9167 20.0996 45.172C20.2142 45.4324 20.3236 45.7084 20.4277 46.0053C20.485 46.1876 20.5579 46.4115 20.6517 46.6772C20.7402 46.9428 20.8496 47.2553 20.9746 47.6147C21.0892 47.5574 21.2298 47.3647 21.4017 47.0313C21.6465 46.573 21.8079 46.0626 21.8757 45.5053L21.9225 45.1355L23.2454 45.3126L23.2298 45.4376C22.8704 46.2917 22.36 47.2761 21.6882 48.3907ZM16.0579 50.4063C15.7038 50.297 15.4121 49.4115 15.1829 47.7553C15.1621 47.6095 15.1361 47.4063 15.0996 47.1459C15.0632 46.8907 15.0215 46.5678 14.9746 46.1876L14.985 46.1095C15.0371 46.4324 15.11 46.7761 15.1986 47.1355C15.2871 47.5001 15.3965 47.8855 15.5267 48.297C15.7559 49.0053 15.985 49.7188 16.2142 50.4324L16.0579 50.4063Z" fill="#6B4B34"/>
<path d="M29.6882 51.0522C29.6882 51.021 29.6882 50.9741 29.6829 50.9116C29.6829 50.8543 29.6777 50.7814 29.6829 50.6981V50.6252L30.0007 48.5991C30.0111 48.5679 30.0215 48.5418 30.0267 48.5158C30.0319 48.4897 30.0371 48.4689 30.0423 48.4429L30.0007 49.6877L29.7194 51.5522C29.7038 51.5106 29.6934 51.3439 29.6882 51.0522ZM30.2767 45.922C30.1882 45.922 30.0892 45.9168 29.9798 45.9116C29.7611 45.9064 29.5632 45.8908 29.3757 45.8752C29.1882 45.8595 29.0215 45.8387 28.8652 45.8179C28.5632 45.771 28.3392 45.7137 28.1934 45.6512L30.5527 45.7397L30.5215 45.922C30.4486 45.922 30.3652 45.922 30.2767 45.922ZM28.4173 46.5002L28.1152 46.4585C28.0944 46.6043 28.0475 46.9377 27.985 47.4637C27.9173 47.9897 27.8288 48.7137 27.7142 49.6356C27.6257 50.3283 27.5475 50.9116 27.4746 51.3908C27.5423 51.2033 27.6048 50.9741 27.6725 50.7189C27.735 50.4585 27.8027 50.1616 27.8757 49.8283C27.9225 49.5887 27.9642 49.396 27.9954 49.2502C28.0267 49.1043 28.0475 49.0002 28.0527 48.9429L28.4173 46.5002ZM27.0163 47.8439C27.0163 47.8283 27.0163 47.7866 27.0267 47.7293L27.0371 47.646C27.0475 47.5679 27.0632 47.4845 27.084 47.3856C27.1048 47.2866 27.1309 47.172 27.1621 47.0418C27.1777 46.995 27.1882 46.9429 27.2038 46.8856C27.2194 46.8283 27.235 46.771 27.2559 46.7085C27.2611 46.7554 27.2663 46.8231 27.2715 46.896C27.2767 46.9741 27.2819 47.0627 27.2767 47.1668C27.2767 47.172 27.2767 47.1825 27.2767 47.2033C27.2767 47.2241 27.2767 47.2554 27.2767 47.2866L27.1882 47.87L27.0163 47.8439ZM26.8861 51.995C26.8965 51.995 26.9382 51.995 27.0059 51.995C27.0788 52.0002 27.1777 52.0106 27.3027 52.0158C27.6934 52.0314 27.9329 52.0522 28.0111 52.0679L29.3548 52.3439L29.3444 52.5262L26.8861 51.995ZM26.4954 51.6512L26.3288 51.6304L26.8548 49.8075L26.735 50.6408L26.4954 51.6512ZM26.6048 47.7814L26.3236 47.7137C26.3444 47.5575 26.3496 47.4116 26.3444 47.2814C26.3496 47.2241 26.3757 47.1304 26.4121 46.995C26.4486 46.8595 26.5007 46.6877 26.5579 46.4793C26.61 46.2918 26.6725 46.1147 26.7454 45.9481L26.6361 46.7241C26.6309 46.7502 26.6257 46.8127 26.6204 46.9116C26.6152 47.0106 26.6152 47.1408 26.6152 47.3022C26.6048 47.5783 26.6621 47.7345 26.7715 47.7814H26.6048ZM27.1152 45.3543L26.8913 45.3231C26.485 45.2606 26.1569 45.1668 25.8913 45.0366L28.3236 45.4064C28.0475 45.396 27.6465 45.3752 27.1152 45.3543ZM26.4798 49.3647C26.4173 49.4116 26.3652 49.4533 26.3288 49.4897C26.3184 49.5314 26.3027 49.5835 26.2819 49.6564C26.2663 49.7293 26.2402 49.8127 26.2142 49.9064C26.1621 50.0991 26.1204 50.271 26.0892 50.4168C26.0632 50.5627 26.0371 50.6877 26.0215 50.7814L25.9173 51.5054C25.86 50.896 25.8757 50.2814 25.9746 49.6512C26.0059 49.4272 26.0579 49.3075 26.1309 49.2814C26.2142 49.2814 26.3027 49.2762 26.4017 49.271C26.4954 49.2606 26.6048 49.245 26.7246 49.2189C26.6309 49.271 26.5475 49.3179 26.4798 49.3647ZM24.084 45.0418L24.1152 44.8179L25.9902 45.3283L24.084 45.0418ZM24.8079 46.047L24.4329 45.9637C24.4434 46.1772 24.4017 46.7137 24.2975 47.5783C24.2715 47.7814 24.2402 48.021 24.2038 48.3022C24.1725 48.5783 24.1309 48.8908 24.084 49.2397L23.86 50.9272C23.9173 50.7397 23.9798 50.5002 24.0527 50.2085C24.1257 49.9116 24.2038 49.5679 24.2871 49.1616C24.4173 48.5366 24.4954 48.1408 24.5215 47.9741L24.8079 46.047ZM26.7923 51.7762L27.11 50.4064L27.3288 48.9481C27.2715 48.9377 27.0163 48.9689 26.5684 49.0262C26.334 49.0575 26.1048 49.0887 25.8757 49.12C25.8652 49.146 25.8496 49.2033 25.834 49.2866C25.8236 49.37 25.8027 49.4793 25.7819 49.62C25.6413 50.5627 25.5892 51.2241 25.6204 51.5991L23.1882 51.271C23.1934 51.2397 23.2038 51.2033 23.2142 51.1512C23.2246 51.0991 23.235 51.0366 23.2559 50.9585C23.3184 50.6668 23.3757 50.4116 23.4173 50.1825C23.459 49.9533 23.4954 49.7606 23.5163 49.5991C23.5788 49.1825 23.6309 48.8127 23.6725 48.4897C23.7142 48.1668 23.7507 47.8908 23.7715 47.6564C23.8184 47.146 23.86 46.7502 23.8861 46.4741C23.9173 46.1929 23.9382 46.0262 23.9538 45.9689L24.0736 45.3335L26.4277 45.6877L26.1309 46.9116L26.0007 48.0835C26.1048 48.1147 26.1673 48.1356 26.1882 48.1356C26.2142 48.146 26.2402 48.1564 26.2663 48.1616C26.2871 48.1668 26.3132 48.172 26.3392 48.1772C26.4434 48.1929 26.5579 48.2085 26.6777 48.2137C26.8027 48.2241 26.9329 48.2345 27.0736 48.245C27.0996 48.245 27.1465 48.2397 27.2038 48.2397C27.2663 48.2397 27.3392 48.245 27.4329 48.245C27.4538 48.1304 27.4642 47.9845 27.4798 47.8127C27.4954 47.6408 27.5059 47.4377 27.5163 47.2085C27.5319 46.9741 27.5423 46.771 27.5579 46.5991C27.5684 46.4272 27.584 46.2814 27.6048 46.1668L27.6517 45.8439L30.1934 46.2293L29.4121 50.7814C29.4069 50.8283 29.4017 50.8804 29.3965 50.9481C29.3913 51.0106 29.3913 51.0835 29.3913 51.1564C29.3861 51.1772 29.3757 51.5106 29.3496 52.1616L26.7923 51.7762ZM23.3236 51.7866L23.084 51.7502L23.1048 51.5887C23.1569 51.5627 23.459 51.5731 24.0111 51.6095C24.485 51.646 24.8079 51.672 24.985 51.7033C25.0215 51.7085 25.0684 51.7189 25.1309 51.7345C25.1934 51.745 25.2454 51.7554 25.2767 51.7606C25.3184 51.771 25.36 51.771 25.4121 51.7658L23.3236 51.7866ZM22.959 51.0939C22.9277 51.2033 22.9069 51.2814 22.8965 51.3335C22.9017 51.3022 22.9069 51.2658 22.9121 51.2189C22.9121 51.172 22.9173 51.1147 22.9225 51.0418C22.9746 50.4637 23.0319 49.9637 23.0944 49.5418C23.1934 48.8804 23.2871 48.297 23.3809 47.7918C23.3809 47.8231 23.3861 47.8647 23.3861 47.922C23.3861 47.9793 23.3861 48.047 23.3861 48.1304C23.3861 48.2033 23.3861 48.2658 23.3861 48.3231C23.3861 48.3804 23.3809 48.4325 23.3757 48.4741L23.0215 50.8439C23.0163 50.9064 22.9954 50.9845 22.959 51.0939Z" fill="#6B4B34"/>
<path d="M36.4323 47.6251C36.3802 47.4636 36.3229 47.2709 36.2604 47.047L36.3073 47.0261C36.3177 47.0209 36.3281 47.0209 36.3385 47.0209C36.3646 47.0157 36.3854 47.0105 36.4063 47.0053C36.4219 47.0053 36.4427 47.0001 36.4688 47.0001C36.5104 47.0053 36.5417 47.1511 36.5625 47.4376C36.5625 47.5001 36.5677 47.5782 36.5677 47.672C36.5677 47.7709 36.5625 47.8907 36.5625 48.0313C36.526 47.9272 36.4792 47.7917 36.4323 47.6251ZM35.6771 49.8334L35.5104 49.3855L35.6719 49.3334C35.7135 49.4324 35.7448 49.5678 35.7604 49.7501C35.7656 49.8438 35.7708 49.9272 35.776 50.0001C35.776 50.073 35.7708 50.1303 35.7656 50.1824C35.7448 50.0522 35.7135 49.9324 35.6771 49.8334ZM35.7604 53.2397L35.5104 53.198C35.6406 52.9845 35.7604 52.7553 35.8646 52.5157C35.8802 52.4949 35.901 52.4584 35.9167 52.4063C35.9375 52.349 35.9635 52.2865 36 52.2084C35.9219 52.724 35.8438 53.0678 35.7604 53.2397ZM35.6979 48.6824C35.5625 48.5053 35.3958 48.3334 35.1875 48.1824C35.2604 48.198 35.4271 48.2865 35.6875 48.4428C35.9531 48.599 36.099 48.698 36.1302 48.7292C36.1302 48.8126 36.1302 48.8959 36.125 48.974C36.1198 49.0522 36.1146 49.1303 36.1042 49.2084L36.0781 49.3647C35.9219 49.047 35.7917 48.823 35.6979 48.6824ZM35.224 50.6511C35.0573 50.5678 34.8958 50.4897 34.7396 50.422C34.6875 50.4063 34.625 50.3803 34.5417 50.3386L35.0573 50.4167C35.0729 50.422 35.1146 50.4376 35.1823 50.4636C35.25 50.4845 35.3438 50.5105 35.4635 50.5365C35.6406 50.5834 35.7448 50.6407 35.7708 50.7188L35.7448 50.9115C35.5625 50.8178 35.3906 50.7292 35.224 50.6511ZM34.1458 51.2813L34.1094 50.922L34.224 50.9376L35.4583 51.4792L34.1458 51.2813ZM34.0677 49.0053L34.3125 47.8907C34.4323 47.9272 34.5417 47.948 34.6406 47.9636C34.6146 48.1251 34.4271 48.474 34.0677 49.0053ZM33.6771 51.9897L33.5625 51.974L33.7813 50.5261L33.7917 51.5834L35.1875 51.7917L33.6771 51.9897ZM31.8542 47.172L31.1354 52.0053L31.7865 49.6459C31.8125 49.5522 31.8438 49.3907 31.8854 49.1667C31.9688 48.7449 32.0365 48.4011 32.0885 48.1355C32.1406 47.8699 32.1771 47.6772 32.1927 47.5626C32.224 47.3595 32.2292 47.2449 32.2188 47.2292L31.8542 47.172ZM32.0156 46.4324C31.9896 46.4272 31.9479 46.422 31.901 46.4063C31.8542 46.3959 31.8073 46.3803 31.7552 46.3647C31.7031 46.3542 31.651 46.3386 31.6042 46.3282C31.5573 46.3126 31.5156 46.3022 31.4792 46.297C31.2917 46.2709 31.151 46.3126 31.0625 46.4324L31.1042 46.0574L31.4479 46.1095C31.5365 46.1459 31.9896 46.2397 32.8021 46.3907C32.9635 46.448 33.125 46.4949 33.2865 46.547C33.4531 46.5938 33.6198 46.6407 33.7865 46.6824C33.8333 46.6928 33.8854 46.7084 33.9427 46.724C34 46.7397 34.0573 46.7553 34.1198 46.7761L32.0156 46.4324ZM30.6875 49.2605C30.6615 48.948 30.6719 48.6459 30.7188 48.349C30.7396 48.1928 30.7865 48.0261 30.8542 47.849C30.8594 47.8334 30.875 47.8074 30.8854 47.7657C30.901 47.724 30.9271 47.6667 30.9531 47.5938L30.9167 48.4324L30.7344 49.6667C30.7135 49.5522 30.6979 49.4167 30.6875 49.2605ZM35.6302 52.3751C35.5938 52.448 35.5625 52.5053 35.5417 52.5522C35.5156 52.599 35.5 52.6355 35.4844 52.6615C35.4323 52.7501 35.3854 52.8334 35.3385 52.9063C35.2865 52.9845 35.2344 53.0574 35.1823 53.1303L30.4635 52.474L30.7969 50.823L31.349 46.5522L34.1719 47.0261L35.9479 47.2501C35.9635 47.3282 35.9792 47.4115 36 47.5105C36.0156 47.6042 36.0365 47.7084 36.0521 47.823C36.0625 47.8959 36.0729 47.974 36.099 48.0626L36.0833 48.172C35.4115 47.849 34.75 47.6355 34.0938 47.5365C34.0885 47.5365 34.0625 47.5365 34.0156 47.5417L33.9948 47.5574L33.7344 49.3022L34 49.3438L34.0625 49.349C34.0938 49.349 34.125 49.3542 34.1667 49.3595L34.3646 49.3855C34.5417 49.4167 34.6406 49.4324 34.6563 49.4428C34.7344 49.4532 34.8646 49.4532 35.0625 49.448H35.2188C35.3021 49.6459 35.3698 49.9272 35.4219 50.2865C35.2604 50.2136 34.9896 50.1459 34.5938 50.0886C34.5365 50.0782 34.4688 50.0678 34.3906 50.0574C34.3125 50.047 34.224 50.0365 34.1094 50.0261C34.0052 50.0157 33.9167 50.0053 33.8333 49.9897C33.7604 49.9792 33.6927 49.9688 33.6354 49.9636L33.4323 50.9688C33.3906 51.1876 33.3594 51.5157 33.3385 51.9584C33.3281 52.0938 33.3281 52.2032 33.3385 52.297L35.474 52.1459L35.6875 52.1772L35.6302 52.3751ZM30.2448 52.3595L30.1927 52.3542C30.1719 52.349 30.1354 52.3542 30.0729 52.3647L30.375 49.7709C30.3802 49.9272 30.3854 50.0626 30.3854 50.1824C30.3906 50.3022 30.3906 50.4011 30.3906 50.4845C30.3906 50.7917 30.3854 51.0626 30.3802 51.297C30.3698 51.5261 30.3542 51.724 30.3229 51.8959L30.2448 52.3595ZM33.1615 53.2449C32.8281 53.2345 32.526 53.2188 32.25 53.198C31.974 53.172 31.7135 53.1407 31.474 53.1042C31.2292 53.0678 30.9896 53.0261 30.75 52.9688C30.5052 52.9167 30.2604 52.849 30.0156 52.7709C30.1094 52.7605 30.3021 52.7553 30.5885 52.7501C30.7917 52.7501 30.974 52.7553 31.1458 52.7657C31.3125 52.7709 31.4688 52.7865 31.6042 52.8074L34.9271 53.3074L33.1615 53.2449Z" fill="#6B4B34"/>
<path d="M41.8236 51.6667C41.9017 51.8281 41.959 51.9531 42.0007 52.0469C42.0423 52.1458 42.0736 52.2083 42.0892 52.25C42.1725 52.4531 42.235 52.7917 42.2767 53.2552C42.0059 52.5833 41.8548 52.0573 41.8236 51.6667ZM41.5059 48.901C41.5111 48.9427 41.5319 49.0313 41.5632 49.1615C41.5996 49.2865 41.6413 49.4635 41.6986 49.6875C41.7819 50 41.8027 50.2865 41.7611 50.5469C41.7507 50.6354 41.7402 50.6875 41.7298 50.7135L41.7038 50.875C41.7038 50.901 41.6986 50.9219 41.6986 50.9479C41.6986 50.9688 41.6986 50.9948 41.6986 51.026L41.5059 48.901ZM41.4069 50.6979C41.3757 50.6146 41.334 50.5 41.2819 50.3438C40.9434 49.3802 40.7559 48.6146 40.7246 48.0417C40.959 48.1094 41.1048 48.2604 41.1517 48.4948C41.1569 48.651 41.1673 48.7969 41.1725 48.9375C41.1829 49.0781 41.1986 49.2083 41.2194 49.3281L41.4642 50.8385C41.4538 50.8281 41.4329 50.7813 41.4069 50.6979ZM40.2298 51.6667C40.0632 50.8177 39.8652 50.1667 39.6465 49.7135L39.4121 49.9271L40.4642 53.7083C40.4746 53.1562 40.3965 52.4792 40.2298 51.6667ZM39.0111 51.5938C38.9642 51.5938 38.9225 51.5938 38.8913 51.599L39.0111 50.9688C39.0319 51.0156 39.0684 51.125 39.1204 51.2917C39.1309 51.3281 39.1517 51.3906 39.1673 51.4896L39.1569 51.5677C39.1048 51.5833 39.0527 51.5885 39.0111 51.5938ZM39.4746 51.7604C39.4486 51.6667 39.4121 51.5469 39.3652 51.4115C39.3027 51.2083 39.2454 51.0365 39.1986 50.8906C39.1465 50.75 39.0996 50.6406 39.0527 50.5625C39.0163 50.6198 38.9746 50.6823 38.9329 50.75C38.8861 50.8229 38.8392 50.901 38.7819 50.9948C38.6829 51.1615 38.5944 51.3177 38.5215 51.4635C38.4486 51.6042 38.3809 51.7344 38.3288 51.8594L39.5371 51.9948C39.5215 51.9323 39.5007 51.8542 39.4746 51.7604ZM39.3757 52.9635C39.2611 52.9375 39.1465 52.9062 39.0267 52.8802C38.9121 52.8542 38.7975 52.8333 38.6829 52.8177C38.4902 52.7865 38.3236 52.7708 38.1829 52.7708C38.1725 52.7656 38.1569 52.7656 38.1257 52.7656C38.0996 52.7656 38.0736 52.7656 38.0423 52.7656C38.1204 52.7552 38.1934 52.7448 38.2663 52.7396C38.334 52.7344 38.3965 52.7344 38.4642 52.7292C38.8548 52.7188 39.1882 52.7344 39.4694 52.776C39.5319 52.7865 39.5736 52.8177 39.5996 52.8646C39.61 52.8802 39.6152 52.9063 39.6204 52.9479L39.61 53.0469C39.5371 53.0104 39.459 52.9844 39.3757 52.9635ZM38.9694 53.25C38.7454 53.2396 38.5736 53.2344 38.4434 53.2292C38.3132 53.224 38.235 53.224 38.2038 53.2344C38.1986 53.2396 38.1725 53.2604 38.1257 53.2969C38.084 53.3333 38.0215 53.3958 37.9382 53.4792C37.9225 53.4115 37.9225 53.3229 37.9329 53.2188C37.9382 53.1875 37.9382 53.1563 37.9434 53.1198C37.9434 53.0781 37.9486 53.0365 37.9486 52.9844C38.0579 52.9844 38.1569 52.9896 38.2559 53C38.3548 53.0104 38.4538 53.0208 38.5527 53.0365C38.6673 53.0521 38.7871 53.0781 38.9069 53.1042C39.0319 53.1302 39.1569 53.1615 39.2871 53.1927C39.334 53.2135 39.4486 53.2448 39.6152 53.2969C39.4277 53.2812 39.2142 53.2656 38.9694 53.25ZM38.9277 54.1042L37.0736 53.7031L38.9017 53.9219C39.2507 53.9687 39.4486 53.9844 39.5007 53.9583C39.5736 53.9323 39.6621 53.8333 39.7611 53.6719C39.7767 53.7656 39.7871 53.8229 39.7871 53.8542L39.8236 54.0729L39.8027 54.2396L38.9277 54.1042ZM36.8965 51.2448L37.7454 49.5781C37.7871 49.4896 37.8444 49.3698 37.9225 49.2135C38.0059 49.0625 38.0996 48.8698 38.2194 48.6354C38.3757 48.3229 38.5736 48.125 38.8079 48.0417L36.8965 51.2448ZM39.2611 48.6354C39.0892 48.9167 38.8861 49.2187 38.6569 49.5469C38.5267 49.7292 38.3704 49.9531 38.1829 50.2188C37.9902 50.4896 37.7663 50.8073 37.5111 51.1771C37.2819 51.5156 37.0892 51.7917 36.9382 52.0052C36.7923 52.2187 36.6777 52.375 36.5944 52.474L36.6048 52.4219L37.9954 49.9427L39.2715 48.0938C39.3757 47.9375 39.5163 47.8594 39.6934 47.8594C39.5736 48.0937 39.4329 48.3542 39.2611 48.6354ZM40.9642 54.1354C40.9121 54.151 40.834 54.1719 40.7246 54.1927C40.6152 54.2083 40.4798 54.2344 40.3079 54.2604L40.1829 54.2135L39.8392 52.8125C39.7923 52.6406 39.6986 52.5365 39.5579 52.4948C39.0579 52.4219 38.5059 52.4375 37.9017 52.5417L37.7142 53.1615L37.709 53.4792C37.5684 53.4688 37.4329 53.4583 37.3027 53.4427C37.1725 53.4323 37.0475 53.4115 36.9277 53.3958C36.8757 53.3854 36.8288 53.3802 36.7819 53.375C36.7402 53.3698 36.7038 53.3594 36.6777 53.349C36.5788 53.3281 36.5111 53.3073 36.4746 53.2917C36.4954 53.151 36.6882 52.8229 37.0475 52.2969C37.1309 52.1719 37.2819 51.9531 37.5111 51.6406C37.735 51.3281 38.0319 50.9219 38.3913 50.4219L40.1152 48.0521C40.1257 48.0156 40.1465 47.9792 40.1725 47.9479L40.2142 47.901C40.2767 47.9583 40.3184 48.0208 40.3392 48.0885C40.4538 48.349 40.5632 48.6302 40.6725 48.9323C40.7767 49.2344 40.8913 49.5625 41.0007 49.9167L41.5684 51.7813C41.6882 52.1719 41.7871 52.5 41.8652 52.7656C41.9434 53.0313 42.0007 53.2344 42.0371 53.375L42.2142 53.7292C41.8704 53.8906 41.4538 54.026 40.9642 54.1354Z" fill="#6B4B34"/>
<path d="M47.9173 51.922C47.9694 51.5834 48.1517 51.1563 48.4642 50.6355L48.6882 50.8386C48.4382 51.1199 48.1777 51.4792 47.9173 51.922ZM47.2559 52.9897L47.5215 51.2292L47.7871 50.2032L48.1257 50.3959L47.2559 52.9897ZM47.3236 55.073C47.2767 55.0626 47.2194 55.047 47.1569 55.0261C47.1309 54.9845 47.1257 54.7917 47.1257 54.4532C47.1309 54.3386 47.1361 54.2397 47.1413 54.1563C47.1465 54.073 47.1517 54.0105 47.1569 53.9636L47.209 53.6147C47.209 53.9115 47.2923 54.4063 47.4434 55.1042C47.4173 55.0938 47.3757 55.0834 47.3236 55.073ZM49.0371 48.922C48.8288 48.9115 48.6465 48.9011 48.5007 48.8907C48.3496 48.8803 48.235 48.8699 48.1465 48.8542L45.5684 48.448L48.2767 48.6459L49.3861 48.8126C49.3861 48.8282 49.3757 48.8542 49.36 48.8907L49.3444 48.9845C49.3392 49.0313 49.334 49.073 49.3288 49.1042C49.3236 49.1407 49.3184 49.172 49.3236 49.2032L49.3079 49.474C49.2298 49.1199 49.1413 48.9376 49.0371 48.922ZM46.1517 49.5834L45.834 49.5626C45.7975 49.8178 45.735 50.1772 45.6517 50.6459C45.5684 51.1147 45.459 51.6928 45.3236 52.3907C45.2611 52.7345 45.2038 53.0574 45.1517 53.349C45.0996 53.6407 45.0579 53.9115 45.0163 54.1563L45.5371 52.797C45.6829 52.422 45.7819 52.0417 45.8392 51.6615L46.1517 49.5834ZM44.1309 51.6511C44.0892 51.3595 44.0579 51.1095 44.0319 50.8959C44.0059 50.6824 43.9798 50.5001 43.9642 50.349L44.2819 50.3959C44.3132 50.6251 44.3132 50.9792 44.2923 51.4636L44.235 52.3595C44.209 52.224 44.1725 51.9897 44.1309 51.6511ZM43.7611 55.0209L44.1621 53.698L43.9954 54.797L45.9121 55.0886L43.7611 55.0209ZM44.7715 51.0053C44.7454 51.1459 44.7142 51.297 44.6777 51.4584C44.6829 51.224 44.6882 51.0313 44.6882 50.8907C44.6882 50.7501 44.6882 50.6563 44.6829 50.6042C44.6569 50.2188 44.5059 50.0053 44.2298 49.9636C44.1986 49.9584 44.1517 49.9532 44.0944 49.9428C44.0371 49.9376 43.9746 49.9324 43.9121 49.9324C43.8444 49.9272 43.7871 49.922 43.7298 49.9167C43.6673 49.9115 43.6204 49.9063 43.5892 49.9011C43.834 49.8386 44.0632 49.7865 44.2819 49.7449C44.5007 49.7084 44.7038 49.6876 44.8913 49.6876C44.8965 49.7345 44.8965 49.7917 44.8913 49.849C44.8913 49.9063 44.8861 49.9688 44.8809 50.0313C44.8757 50.1667 44.8704 50.2813 44.86 50.3803C44.8548 50.4792 44.8496 50.5522 44.8392 50.6147C44.8236 50.7345 44.8027 50.8647 44.7715 51.0053ZM47.5579 49.797C47.4642 50.0782 47.3757 50.5105 47.2871 51.0886L47.0892 52.4167L46.8548 53.9272C46.8392 54.1615 46.8288 54.3959 46.8184 54.6303C46.8079 54.8178 46.7975 54.9324 46.7819 54.9792C46.4902 54.922 46.2142 54.8751 45.9486 54.8282C45.6777 54.7813 45.4173 54.7397 45.1569 54.698C45.0319 54.6824 44.9017 54.6615 44.7663 54.6459C44.6309 54.6355 44.485 54.6199 44.334 54.6095C44.4694 54.0782 44.5996 53.5313 44.7142 52.9584C44.8288 52.3855 44.9277 51.7865 45.0215 51.1615C45.0736 50.8438 45.11 50.547 45.1465 50.2657C45.1829 49.9845 45.2142 49.7188 45.2402 49.474C44.985 49.4376 44.6465 49.448 44.2142 49.5053C44.1465 49.5157 44.0579 49.5261 43.9434 49.547C43.834 49.5626 43.6986 49.5834 43.5371 49.6095L43.7402 49.1042C43.8809 48.7553 43.959 48.547 43.9694 48.4845C43.9277 48.4792 44.0007 48.4949 44.1934 48.5313C44.3861 48.5678 44.6934 48.6251 45.1257 48.7032C45.2923 48.7345 45.4329 48.7605 45.5475 48.7813C45.6621 48.8022 45.7507 48.8126 45.8132 48.823C46.1569 48.8751 46.6777 48.9376 47.3757 49.0053C48.0684 49.0782 48.5892 49.1355 48.9329 49.1876L49.2507 50.6303L47.5579 49.797Z" fill="#6B4B34"/>
<path d="M18.25 56.0574C18.2656 55.7032 18.2448 55.4063 18.1875 55.1667L18.4583 55.1824L18.4115 55.4949L18.25 56.0574ZM17.2552 57.3542C17.474 57.4324 17.5677 57.5626 17.5417 57.7397C17.5365 57.7657 17.526 57.8022 17.5156 57.849C17.5 57.8959 17.4948 57.9324 17.4896 57.9584L17.2552 57.3542ZM18.0469 56.9011C18 56.8438 17.8854 56.724 17.6979 56.5522C17.4896 56.3438 17.3281 56.2084 17.224 56.1407C17.2656 56.1615 17.3646 56.2084 17.5156 56.2865C17.6667 56.3647 17.8646 56.474 18.1146 56.6147C18.0938 56.7553 18.0677 56.8542 18.0469 56.9011ZM16.1927 57.1303L16.1979 56.9792C16.2448 56.6772 16.3281 56.3647 16.4635 56.0417C16.4635 56.0678 16.4635 56.1199 16.4635 56.2084C16.4635 56.2917 16.4635 56.4115 16.4635 56.5678L16.4583 57.1407L16.1927 57.1303ZM16.5417 59.7813C16.3906 60.0522 16.2292 60.3282 16.0729 60.6199C16.1406 60.4115 16.2031 60.2292 16.25 60.0834C16.3021 59.9324 16.3438 59.8126 16.3802 59.724C16.5365 59.3126 16.6771 59.047 16.7969 58.9272L17.0052 59.0105C16.8542 59.2605 16.6979 59.5157 16.5417 59.7813ZM16.0938 59.4115C15.9479 59.8022 15.8594 60.0834 15.8333 60.2605C15.8281 60.2032 15.8281 60.1459 15.8281 60.0834C15.8281 60.0261 15.8281 59.9636 15.8229 59.8959C15.8229 59.7501 15.8281 59.6095 15.8385 59.4792C15.849 59.3438 15.8646 59.2188 15.8802 59.099C15.8906 59.0417 15.9062 58.974 15.9219 58.8907C15.9375 58.8126 15.9635 58.7188 15.9896 58.6147C16 58.573 16.0156 58.5261 16.026 58.4845C16.0365 58.4428 16.0521 58.4011 16.0729 58.3542C16.099 58.3595 16.151 58.3751 16.2135 58.4063C16.2812 58.4376 16.3333 58.4532 16.3646 58.4584C16.4063 58.4688 16.4479 58.4532 16.4844 58.4167L16.4583 58.599C16.3542 58.7761 16.2344 59.0522 16.0938 59.4115ZM14.2865 55.1928L14.0677 56.6563C14.0521 56.7761 14.026 56.9272 13.9948 57.1147C13.9635 57.3022 13.9271 57.5261 13.8802 57.7865C13.8385 58.0261 13.8021 58.2397 13.7708 58.4272C13.7396 58.6147 13.7188 58.7865 13.7031 58.9376C13.6719 59.1511 13.651 59.3542 13.6354 59.5417C13.6146 59.724 13.599 59.9011 13.5938 60.0678C13.7552 59.6303 13.9583 58.8542 14.2083 57.7345C14.3438 57.1095 14.4531 56.6095 14.5313 56.224C14.6094 55.8386 14.6562 55.5678 14.6771 55.4167C14.6771 55.4063 14.6771 55.3907 14.6823 55.3647C14.6875 55.3386 14.6875 55.3074 14.6875 55.2761L14.2865 55.1928ZM14.3906 54.4063C14.3177 54.3959 14.2552 54.3855 14.2031 54.3751C14.151 54.3647 14.1146 54.3542 14.0833 54.3438C14.0625 54.3386 13.9844 54.3178 13.849 54.2813C13.7135 54.2605 13.6354 54.3751 13.6094 54.6199L13.3958 56.2657C13.3854 56.1459 13.3854 55.9845 13.3802 55.7761C13.3802 55.573 13.3802 55.323 13.3854 55.0209C13.3802 54.974 13.3802 54.8907 13.3802 54.7709C13.3854 54.6511 13.3906 54.5001 13.3906 54.3126L13.4375 54.0261L13.9792 54.1042L16.8594 54.7709L14.3906 54.4063ZM13.6615 60.974L12.9583 60.7865L13.9375 60.8542L15.4479 61.0834L15.4219 61.2397L13.6615 60.974ZM17.9323 56.2292C17.7292 56.099 17.4844 55.9792 17.1927 55.8699C16.7865 55.724 16.4635 55.6355 16.2292 55.599L15.9635 57.3542C16.0521 57.3803 16.1302 57.4011 16.2135 57.422C16.2917 57.4428 16.3698 57.4584 16.4531 57.4688C16.5469 57.4845 16.625 57.4949 16.6823 57.5001C16.7448 57.5053 16.7865 57.5105 16.8177 57.5105C16.8438 57.5105 16.9115 57.5157 17.0208 57.5105C17.099 57.5261 17.1719 57.6667 17.2292 57.9324C17.2708 58.1251 17.2969 58.2917 17.3125 58.4428C17.2969 58.4376 17.2656 58.422 17.224 58.4063C17.1823 58.3907 17.1302 58.3699 17.0625 58.3438C16.901 58.2761 16.7917 58.2397 16.7344 58.2345L15.8542 58.099C15.8125 58.1563 15.7552 58.4011 15.6927 58.8282C15.6615 59.0417 15.6198 59.3699 15.5729 59.8074C15.526 60.2449 15.4844 60.5678 15.4531 60.7813C15.1771 60.7449 14.8333 60.7032 14.4219 60.6511C14.0052 60.6042 13.5208 60.547 12.9583 60.4949L13.7135 55.7813L13.849 54.5105L15.9323 54.8647L17.849 55.073C17.8906 55.1876 17.9219 55.2865 17.9375 55.3699C17.9531 55.448 17.9792 55.6355 18.0156 55.922C18 56.0313 17.9688 56.1355 17.9323 56.2292ZM12.8906 59.2501C12.8646 59.3595 12.8438 59.4897 12.8177 59.6407C12.8021 59.7917 12.7812 59.9167 12.7604 60.0261C12.7344 60.1303 12.7083 60.2188 12.6875 60.2917C12.6875 60.0105 12.6979 59.7345 12.724 59.4636C12.7448 59.198 12.776 58.9272 12.8177 58.6511C12.8542 58.4167 12.8854 58.2084 12.9167 58.0313C12.9531 57.849 12.9844 57.698 13.0104 57.573C13.0208 57.7605 13.0208 57.922 13.0156 58.073C13.0156 58.4532 12.9948 58.7553 12.9635 58.9792C12.9375 59.0522 12.9167 59.1407 12.8906 59.2501Z" fill="#6B4B34"/>
<path d="M21.5423 60.5365L21.5059 60.4427L21.5267 60.2865L22.2611 60.3958L21.5423 60.5365ZM21.5788 56.8854C21.6361 56.4792 21.735 56.1198 21.8704 55.8021L22.0267 55.8281L21.4434 59.7396C21.3548 59.0104 21.4017 58.0625 21.5788 56.8854ZM21.0736 60.5469L21.0632 60.5625L21.0267 60.5938L20.7819 60.5573L21.1048 58.3958L21.2559 57.9635L21.1152 60.4531C21.1204 60.4844 21.11 60.5156 21.0736 60.5469ZM21.7819 62.4375C21.7507 62.4896 21.6934 62.5104 21.6152 62.5C21.4746 62.4792 21.2767 62.4323 21.0163 62.3594C20.7507 62.2812 20.5579 62.2344 20.4277 62.2135L19.6204 62.0938L21.11 62.1302L21.8704 62.2448C21.8184 62.3698 21.7871 62.4323 21.7819 62.4375ZM19.3496 56.0729C19.2975 56.401 19.2246 56.8542 19.1361 57.4427C19.0423 58.026 18.9277 58.7396 18.7923 59.5885L18.5944 60.8125C18.6517 60.6823 18.735 60.4219 18.8392 60.026C18.9382 59.6302 19.0684 59.1042 19.2298 58.4375C19.2611 58.3229 19.3132 58.099 19.3809 57.7813L19.6725 56.1198L19.3496 56.0729ZM19.9277 55.3229L19.1361 55.2031C18.7507 55.1458 18.5475 55.1719 18.5319 55.2813C18.5371 55.375 18.5371 55.5052 18.5319 55.6615L18.1465 58.1094L18.2871 55.3333L18.3444 54.9531C18.4069 54.9635 18.5163 54.9844 18.6725 55.0156C18.834 55.0469 19.0371 55.0885 19.2975 55.1406C19.3965 55.1667 19.6465 55.2188 20.0371 55.3021L19.9277 55.3229ZM22.3913 60.7708C22.3652 60.9427 22.3079 61.1406 22.2142 61.3594C22.1204 61.6146 22.0163 61.776 21.9121 61.8438C21.6829 61.7865 21.4069 61.724 21.084 61.6667C20.7663 61.6042 20.3965 61.5469 19.9746 61.4792C19.5319 61.4167 19.0632 61.3542 18.5736 61.2969C18.4746 61.2865 18.3757 61.2813 18.2871 61.2708C18.1934 61.2604 18.0996 61.2552 18.0059 61.2552L18.6934 57.1771L18.8704 55.4479L21.2975 55.8125C21.2923 55.8438 21.2767 55.9427 21.2454 56.1146C21.2142 56.2917 21.1777 56.5365 21.1204 56.8542C21.0527 57.2656 20.9902 57.6719 20.9277 58.0729C20.8652 58.4688 20.8027 58.8542 20.7402 59.2344L20.485 60.8385C20.7246 60.875 21.0475 60.875 21.4538 60.8438C21.8704 60.8125 22.1829 60.7552 22.3965 60.6771C22.4017 60.6823 22.4017 60.7135 22.3913 60.7708ZM17.9642 61.6563C17.959 61.599 17.959 61.5417 17.959 61.4948C17.959 61.4479 17.9642 61.4115 17.9694 61.3854L20.8444 61.8177L17.9642 61.6563ZM17.3809 61.651C17.3757 61.6354 17.3757 61.6198 17.3809 61.5938C17.3757 61.5 17.3809 61.4375 17.3861 61.401C17.3965 61.3177 17.4225 61.1979 17.4642 61.0313C17.5059 60.8646 17.5632 60.6615 17.6257 60.4167C17.6413 60.3802 17.6621 60.3073 17.6882 60.1979C17.7194 60.0938 17.7611 59.9531 17.8132 59.7813L17.5579 61.651H17.3809Z" fill="#6B4B34"/>
<path d="M29.8815 58.0052C29.8607 57.9375 29.8398 57.875 29.8138 57.8125C29.793 57.7552 29.7669 57.6927 29.7409 57.6354C29.6836 57.5417 29.3607 57.2917 28.7773 56.8906C28.7878 56.8958 28.8398 56.9167 28.9388 56.9583C29.0326 56.9948 29.1732 57.0521 29.3503 57.125C29.7513 57.2917 29.9805 57.3802 30.0326 57.3906L30.0794 58.6094C30.0482 58.5521 29.9805 58.349 29.8815 58.0052ZM29.0378 62.7083C28.8815 62.776 28.6419 62.8281 28.319 62.8646C28.4023 62.8021 28.6211 62.6823 28.9596 62.5104C29.3138 62.3229 29.5169 62.2292 29.5794 62.2188C29.4388 62.4427 29.2617 62.6042 29.0378 62.7083ZM28.194 58.4792C28.1888 58.4479 28.1471 58.3646 28.0742 58.2344C28.0065 58.1042 27.9023 57.9219 27.7669 57.6927C27.819 58.1979 27.8138 58.9271 27.7565 59.875C27.7096 60.5365 27.6576 61.0938 27.5898 61.5365C27.5846 61.5781 27.5273 61.6719 27.4232 61.8229C27.3867 61.875 27.3294 61.9427 27.2617 62.0208C27.293 62 27.3398 61.974 27.3971 61.9375C27.4544 61.9063 27.5273 61.8594 27.6211 61.8073C27.7305 61.75 27.8034 61.6927 27.8398 61.6354C27.9336 61.224 27.9909 60.974 28.0065 60.875C28.1992 59.5885 28.2617 58.7917 28.194 58.4792ZM26.9805 59.4063L26.9023 57.8125C26.9544 57.75 27.0013 57.7135 27.0378 57.6979C27.0742 57.8854 27.0951 58.0365 27.1055 58.1615C27.1159 58.4427 27.1003 58.6875 27.0638 58.8958L26.9805 59.4063ZM26.6055 61.3802L26.5846 61.4115C26.5534 61.4688 26.5273 61.5208 26.5065 61.5781C26.4596 61.5104 26.418 61.4479 26.3815 61.3906C26.3451 61.3333 26.319 61.2708 26.2982 61.2083C26.1628 60.875 26.1315 60.4688 26.2044 59.9896C26.2096 59.974 26.2253 59.8958 26.2513 59.7708C26.2773 59.6406 26.319 59.4531 26.3659 59.2031C26.3867 59.1198 26.4023 59.026 26.4284 58.9219C26.4492 58.8177 26.4753 58.7083 26.5013 58.5885C26.4805 58.9219 26.4701 59.224 26.4701 59.5C26.4648 59.776 26.4753 60.0208 26.5013 60.2396C26.5169 60.3385 26.5326 60.4844 26.5534 60.6615C26.5742 60.8438 26.6003 61.0677 26.6315 61.3385L26.6055 61.3802ZM27.1055 61.2865L27.1419 61.0521C27.3815 59.4479 27.4701 58.4583 27.418 58.0781C27.4023 57.9688 27.3555 57.8333 27.2669 57.6719C27.2201 57.5885 27.1784 57.5156 27.1367 57.4531C27.1003 57.3906 27.0638 57.3438 27.0221 57.3073C26.819 57.375 26.5794 57.5938 26.2878 57.9531C26.2721 58.0208 26.2565 58.099 26.2357 58.1875C26.2148 58.276 26.194 58.375 26.1628 58.4896C26.1211 58.7083 26.0794 58.8906 26.0534 59.0365C26.0221 59.1823 26.0013 59.2969 25.9857 59.3802C25.9023 59.9635 25.8607 60.5 25.8711 60.9844C25.8763 61 25.8763 61.0313 25.8815 61.0781C25.8815 61.1302 25.8815 61.1979 25.8867 61.2813C25.918 61.349 25.9648 61.4375 26.0221 61.5365C26.0794 61.6354 26.1523 61.7552 26.2409 61.8958C26.2513 61.9063 26.2617 61.9271 26.2826 61.9635C26.2982 61.9948 26.3242 62.0313 26.3503 62.0781C26.6628 61.9063 26.9023 61.6979 27.069 61.4583C27.0794 61.4479 27.0898 61.3906 27.1055 61.2865ZM24.7409 57.7292C24.6732 57.7708 24.6263 57.7969 24.6055 57.8021C24.4336 57.9063 24.3086 58.0052 24.2357 58.1042C24.1523 58.3646 24.0638 58.7917 23.9753 59.3958C23.944 59.5781 23.9232 59.7448 23.9076 59.8906C23.8919 60.0365 23.8815 60.1615 23.8763 60.2656C23.9023 60.401 23.9753 60.5729 24.1107 60.7813C24.1576 60.8542 24.2513 61 24.3867 61.224C24.2148 60.7188 24.1419 60.3958 24.1628 60.2552C24.2044 60.1302 24.2409 59.9844 24.2773 59.8229C24.3086 59.6615 24.3398 59.4896 24.3659 59.3021L24.3919 59.1302C24.3919 59.0833 24.3971 59.0365 24.4023 59C24.4076 58.9583 24.4128 58.9219 24.418 58.8854L24.4805 58.4844C24.4961 58.3854 24.5065 58.3073 24.5169 58.25C24.5326 58.1927 24.543 58.1562 24.5482 58.1302C24.5742 58.099 24.6576 58.0052 24.8034 57.8438C24.8711 57.776 24.9492 57.6823 25.0326 57.5677C24.9076 57.6302 24.8138 57.6823 24.7409 57.7292ZM23.5482 57.6823L23.5586 57.6094C23.6107 57.5052 23.6419 57.4167 23.6523 57.349L23.6576 57.2969C23.7669 57.2344 23.8555 57.1875 23.9232 57.1563C23.9909 57.1198 24.0378 57.0938 24.0742 57.0729C24.3919 56.9167 24.6992 56.8021 25.0065 56.7292L23.5482 57.6823ZM28.5951 62.3125C28.1419 62.5625 27.3138 62.7135 26.1159 62.7708C25.7305 62.6458 25.3815 62.5104 25.069 62.3542C24.7565 62.2031 24.4701 62.0365 24.2148 61.8646C24.1263 61.7188 24.0378 61.5729 23.9648 61.4219C23.8867 61.2708 23.8138 61.1146 23.7409 60.9479C23.7096 60.8802 23.6732 60.7813 23.6211 60.6615C23.5742 60.5365 23.5117 60.3854 23.4492 60.2031C23.4388 60.1146 23.4544 59.9167 23.5013 59.6146C23.5482 59.3021 23.6003 58.9948 23.6628 58.6927C23.7253 58.3854 23.7982 58.0885 23.8867 57.7917L24.3971 57.4531C24.7565 57.2188 25.0273 57.0521 25.2201 56.9531C25.2669 56.9219 25.5846 56.8646 26.1732 56.7813C26.4232 56.7396 26.6419 56.7135 26.819 56.6927C27.0013 56.6719 27.1419 56.651 27.2409 56.6406C27.2721 56.651 27.319 56.6667 27.3815 56.6927C27.444 56.7135 27.5273 56.75 27.6367 56.7865L27.7096 56.8177C27.9596 56.9115 28.1992 57.0208 28.4284 57.1406C28.6576 57.2604 28.8815 57.3958 29.1003 57.5417C29.2409 57.7135 29.3711 57.9479 29.5013 58.2396C29.6628 58.6198 29.7617 58.9688 29.793 59.2865C29.8138 59.4792 29.7982 59.7188 29.7565 60.0104C29.7461 60.0885 29.7201 60.224 29.6836 60.4063C29.6419 60.5885 29.5898 60.8281 29.5221 61.1198C29.293 61.5781 28.9857 61.974 28.5951 62.3125ZM24.2148 62.25C24.0586 62.1927 23.8711 62.125 23.6471 62.0417C23.4753 61.9844 23.3503 61.849 23.2773 61.6406C23.2357 61.5365 23.1992 61.349 23.168 61.0833C23.1211 60.7135 23.0898 60.5208 23.0742 60.5L23.0898 60.4219C23.1315 60.5208 23.2461 60.7604 23.4336 61.1406C23.5169 61.3177 23.5794 61.4583 23.6263 61.5521C23.668 61.6458 23.6992 61.7031 23.7096 61.7135C23.8034 61.8698 23.9284 62 24.0898 62.099C24.2513 62.1979 24.4128 62.2917 24.569 62.3802C24.4857 62.349 24.3659 62.3073 24.2148 62.25Z" fill="#6B4B34"/>
<path d="M36.0996 63.922C36.0996 63.8542 36.0944 63.7761 36.0944 63.6772C36.0892 63.5782 36.0892 63.4688 36.0944 63.3542C36.0996 63.1199 36.1152 62.8907 36.1309 62.6772C36.1465 62.4636 36.1725 62.2657 36.1986 62.073L36.5944 59.4636L36.334 63.9584L36.0996 63.922ZM35.9642 57.7136C35.1204 57.5886 34.6204 57.4897 34.4642 57.4272C34.735 57.4688 35.1465 57.5105 35.6986 57.5574C35.9746 57.5782 36.2194 57.599 36.4277 57.6199C36.6309 57.6407 36.8027 57.6615 36.9434 57.6824L36.9173 57.8595L35.9642 57.7136ZM33.8809 63.8959C34.0371 63.8751 34.3704 63.9011 34.8757 63.9792C35.0579 64.0053 35.5423 64.0938 36.334 64.2501L36.3392 64.4636L33.8809 63.8959ZM34.735 58.2813L34.5788 58.2605C34.5475 58.2605 34.5267 58.2605 34.5163 58.2605C34.5059 58.2605 34.4954 58.2553 34.4902 58.2553L33.735 62.9636C33.959 62.6042 34.1673 61.8803 34.36 60.7813C34.4121 60.5209 34.5163 59.9897 34.6777 59.198C34.7246 58.9584 34.7611 58.7605 34.7923 58.6147C34.8184 58.4688 34.834 58.3699 34.8444 58.3126C34.8392 58.3022 34.8027 58.297 34.735 58.2813ZM33.4538 63.8178L33.0736 63.7345L33.3809 63.5313C33.4017 63.5626 33.4277 63.5938 33.4486 63.6303C33.4694 63.6615 33.4902 63.6928 33.5111 63.724C33.5267 63.7761 33.5371 63.8126 33.5475 63.8282L33.4538 63.8178ZM32.9329 61.9167C32.9121 61.8542 32.9121 61.7449 32.9382 61.5834L33.0736 60.6511L33.5059 59.0834L33.1934 62.0626C33.0475 62.0417 32.959 61.9949 32.9329 61.9167ZM31.1986 62.5053C31.1882 62.4688 31.1725 62.4272 31.1517 62.3751C31.1152 62.2865 31.0892 62.2084 31.0684 62.1303C31.0475 62.0522 31.0319 61.9792 31.0163 61.9115L31.5632 59.1824L31.735 58.0365L31.4538 58.047L31.1465 60.0886L30.7611 61.9011C30.7871 61.9532 30.8184 62.0105 30.8652 62.0782C30.9121 62.1511 30.9694 62.2292 31.0371 62.323L31.2246 62.5834C31.2194 62.5626 31.209 62.5365 31.1986 62.5053ZM30.6673 57.4376L30.7194 57.1042L32.4017 57.1147L30.6673 57.4376ZM33.6465 63.5522C33.6465 63.547 33.6361 63.5365 33.6204 63.5209C33.61 63.5105 33.5892 63.4845 33.5684 63.4532L33.5527 63.4324C33.5059 63.3647 33.4486 63.3074 33.3913 63.2553C33.2454 63.422 32.8757 63.5626 32.2923 63.6772C32.1986 63.6615 31.9954 63.5886 31.6882 63.4584C31.3861 63.3386 31.1829 63.2449 31.0684 63.1824C30.8861 62.9428 30.735 62.724 30.6257 62.5365C30.5111 62.349 30.4277 62.1824 30.3704 62.047L30.9277 58.6251C30.9434 58.5157 30.9538 58.3751 30.9642 58.2136C30.9746 58.047 30.9798 57.8542 30.985 57.6303C31.4329 57.4949 31.9538 57.4011 32.5371 57.3386C32.6361 57.3334 32.7507 57.323 32.8757 57.3126C33.0007 57.3022 33.1413 57.2917 33.2923 57.2865L33.2767 57.8178C33.2715 58.0209 33.2611 58.2032 33.2507 58.3595C33.2402 58.5105 33.2246 58.6459 33.209 58.7657C33.084 59.573 32.8809 60.6563 32.5892 62.0157C32.6934 62.2292 32.9486 62.3855 33.3496 62.4949C33.3861 62.2501 33.4225 62.0001 33.4642 61.7345C33.5059 61.4636 33.5527 61.1876 33.6048 60.8907L34.0527 58.2449L34.0788 57.5886C34.4121 57.6511 34.7246 57.7084 35.0163 57.7605C35.3079 57.8074 35.584 57.8542 35.8444 57.8907L36.2142 57.948C36.3548 57.9688 36.4434 57.9792 36.4642 57.9792C36.5475 57.9897 36.5944 57.9897 36.6152 57.974C36.5319 58.2345 36.4329 58.6459 36.3236 59.2084C36.2194 59.7709 36.0996 60.4949 35.9694 61.3751C35.7767 62.6459 35.7038 63.4792 35.735 63.8699L33.6465 63.5522ZM30.5996 63.224C30.4121 63.099 30.334 62.948 30.36 62.7813C30.3704 62.698 30.3704 62.6355 30.36 62.5886L30.3757 62.5001L31.0944 63.4584C30.8288 63.349 30.6673 63.2709 30.5996 63.224ZM30.7975 63.7865C30.6309 63.7657 30.5267 63.7397 30.485 63.724C30.3861 63.6824 30.3392 63.599 30.3392 63.4636L31.4277 63.8855L30.7975 63.7865ZM30.6309 59.474C30.5632 59.7657 30.4642 60.1824 30.3392 60.7188C30.3132 60.8022 30.2871 60.9115 30.2559 61.0365C30.2246 61.1615 30.1882 61.3074 30.1465 61.4688L30.235 60.224L30.3757 59.3022C30.3548 59.2761 30.3444 59.2449 30.3496 59.2136C30.3809 59.1772 30.3965 59.1459 30.4017 59.1199L30.6204 57.7605C30.7663 58.1303 30.8079 58.5313 30.7454 58.9532C30.735 59.0053 30.6986 59.1772 30.6309 59.474Z" fill="#6B4B34"/>
<path d="M42.4961 62.8022C42.3919 62.6147 42.3503 62.4793 42.3607 62.4012C42.3659 62.3804 42.3971 62.3231 42.4596 62.2293L42.5013 62.1616L42.7148 63.1616C42.6419 63.0679 42.569 62.9481 42.4961 62.8022ZM42.6836 63.8647C42.5951 63.745 42.4023 63.3804 42.1055 62.7606L42.418 63.2085C42.6315 63.5158 42.7357 63.6877 42.7305 63.7137L42.6836 63.8647ZM42.0169 62.5314C41.9388 62.3752 41.8294 62.2241 41.694 62.0835C41.6784 62.0627 41.6471 62.0314 41.6003 61.9897C41.6888 61.9533 41.8763 61.9012 42.1628 61.8387C42.194 61.8283 42.2253 61.8231 42.2565 61.8127C42.2878 61.8075 42.319 61.8022 42.3555 61.7918C42.1523 62.1356 42.0378 62.3804 42.0169 62.5314ZM42.1263 64.6356C41.8659 64.7241 41.6888 64.7762 41.6003 64.7762L42.5482 64.4533C42.5326 64.4845 42.3919 64.547 42.1263 64.6356ZM42.9648 60.4064C42.9648 60.2502 42.9701 60.0627 42.9753 59.8387C42.9753 59.5835 42.9128 59.422 42.7878 59.3491L41.4701 58.5991L43.194 59.1877L42.9648 60.7762C42.9648 60.6877 42.9648 60.5679 42.9648 60.4064ZM41.194 60.0991C41.2201 59.9325 41.2305 59.8022 41.2305 59.6981C41.168 59.6252 41.1159 59.5627 41.069 59.521C41.0221 59.4741 40.9909 59.4377 40.9648 59.4116C40.8867 59.3439 40.7721 59.2814 40.6263 59.2241C40.6523 59.2762 40.6836 59.3387 40.7253 59.4064C40.7669 59.4741 40.8138 59.5522 40.8659 59.646L40.793 60.7866C40.7305 60.896 40.6159 61.0575 40.4544 61.271C40.7878 61.1356 40.9961 60.9897 41.0846 60.8387L41.194 60.0991ZM40.0951 60.0158C40.0638 59.8491 40.0273 59.7293 39.9909 59.646L40.0065 59.5679C40.0846 59.5887 40.168 59.6512 40.2513 59.745L40.3034 59.8179L40.2201 60.3908C40.1732 60.297 40.1315 60.1772 40.0951 60.0158ZM40.6055 63.6772C40.6055 63.6252 40.6055 63.5835 40.6003 63.5522C40.5898 63.2345 40.5169 62.8856 40.3867 62.5158C40.3294 62.3491 40.2617 62.2137 40.1836 62.1043L39.8867 62.1304C39.9284 62.2762 40.043 62.5366 40.2305 62.9116C40.2565 62.9637 40.2878 63.0314 40.319 63.1147C40.3503 63.1981 40.3867 63.297 40.4284 63.4012L40.6055 63.8804C40.6055 63.8022 40.6055 63.7293 40.6055 63.6772ZM39.8919 60.9272C39.8815 60.9325 39.8711 60.9377 39.8607 60.9481C39.8451 60.9585 39.8346 60.9741 39.819 60.995C39.8398 60.6095 39.8659 60.3075 39.8971 60.0991C39.8971 60.1147 39.9128 60.2293 39.9544 60.4481C39.9753 60.6095 39.9857 60.7137 39.9753 60.7606C39.9701 60.8179 39.9388 60.8752 39.8919 60.9272ZM39.9284 64.9429C39.9128 64.9533 39.8867 64.9585 39.8451 64.9585C39.8398 64.922 39.8294 64.87 39.8242 64.8075C39.8138 64.745 39.8034 64.6616 39.7878 64.5679C39.7409 64.1668 39.7148 63.8335 39.6992 63.5575C39.7305 63.6668 39.7617 63.7658 39.7826 63.8647C39.8086 63.9637 39.8294 64.0627 39.8607 64.1616C39.9648 64.6043 40.0117 64.8387 40.0065 64.8647C40.0065 64.896 39.9753 64.922 39.9284 64.9429ZM40.4753 59.7241C40.4232 59.5522 40.2201 59.3856 39.8555 59.2137L39.5846 60.3543L39.5117 61.2085L39.7409 61.2866C39.8451 61.3022 39.9857 61.2137 40.1576 61.021C40.319 60.8387 40.4128 60.6929 40.4284 60.5783C40.4909 60.1356 40.5117 59.8491 40.4753 59.7241ZM39.4023 64.5002C39.3919 64.396 39.3867 64.3022 39.3867 64.2137C39.3867 64.1252 39.3867 64.047 39.3815 63.9741C39.3867 63.7554 39.3919 63.5731 39.3919 63.4325C39.3971 63.2918 39.4023 63.1877 39.4128 63.1252C39.418 63.1095 39.418 63.0887 39.4284 63.0679C39.4336 63.0418 39.4388 63.0158 39.4492 62.9897C39.4492 63.0366 39.4753 63.297 39.5221 63.7606C39.5586 64.1043 39.5638 64.3595 39.5378 64.521L39.4023 64.5002ZM38.4805 58.9168L38.1159 58.8647L38.0534 59.2814C38.0169 59.396 37.9909 59.5106 37.9753 59.6252C37.9596 59.7345 37.944 59.8387 37.9284 59.9377L37.7305 61.4064C37.7305 61.396 37.7201 61.4481 37.7044 61.5575C37.6836 61.672 37.6523 61.8491 37.6159 62.0887C37.5846 62.2606 37.5586 62.4116 37.5378 62.5522C37.5169 62.6877 37.5013 62.8075 37.4857 62.9064C37.4701 63.047 37.4596 63.172 37.4544 63.2762C37.444 63.3856 37.444 63.4845 37.4492 63.5679C37.5117 63.3856 37.5794 63.1668 37.6576 62.9012C37.7305 62.6356 37.819 62.3283 37.9128 61.9689C37.9388 61.87 37.9701 61.7345 38.0169 61.5627C38.0586 61.3856 38.1159 61.1668 38.1836 60.9064L38.4805 58.9168ZM39.2357 58.2241L37.293 57.9325L37.3346 57.771L39.2565 58.0627L40.5742 58.3543L39.2357 58.2241ZM37.2148 58.5679L37.2565 58.3075C37.3815 58.7554 37.418 59.1616 37.3607 59.5314L37.1367 61.0366C37.0742 60.1825 37.0951 59.3647 37.2148 58.5679ZM41.9961 64.4585C41.7565 64.5418 41.4857 64.6147 41.1836 64.6825C41.1003 64.6981 40.9909 64.7137 40.8555 64.7345C40.7201 64.7554 40.5534 64.7814 40.3607 64.8127C40.3346 64.6981 40.2878 64.5158 40.2096 64.2762C39.9076 63.2137 39.6211 62.521 39.3659 62.2033C39.3555 62.2085 39.3555 62.2241 39.3503 62.245L39.3398 62.3179C39.3242 62.4168 39.3086 62.5627 39.293 62.7606C39.2721 62.9585 39.2513 63.2189 39.2305 63.5314C39.2148 63.7397 39.1992 64.0262 39.1784 64.4064C39.0482 64.3856 38.8867 64.3595 38.694 64.3335C38.5065 64.3022 38.2826 64.271 38.0221 64.2397C37.8086 64.2137 37.6055 64.1877 37.4128 64.172C37.2201 64.1564 37.0378 64.1512 36.8607 64.1512L37.6523 58.8283L37.6367 58.1512L38.9857 58.4741L41.168 58.7397C41.9023 59.0522 42.4336 59.3752 42.7617 59.7189C42.7773 59.7606 42.7878 59.8022 42.793 59.8439C42.8138 59.9793 42.8086 60.172 42.7721 60.4272C42.7513 60.5679 42.7253 60.7033 42.694 60.8387C42.668 60.9741 42.6315 61.1043 42.5898 61.2345C42.4232 61.422 41.944 61.6616 41.1367 61.9585C41.2148 62.0158 41.2982 62.0835 41.4023 62.1564C41.5013 62.2293 41.6107 62.3179 41.7357 62.4116C42.0169 63.0887 42.3138 63.6772 42.6263 64.1877C42.444 64.2918 42.2357 64.3804 41.9961 64.4585ZM36.6471 63.6408C36.6367 63.5835 36.6263 63.5158 36.6159 63.4325C36.569 63.1043 36.5638 62.8439 36.6003 62.646L36.9232 61.0575L36.8659 62.2814L36.6784 63.771C36.6732 63.7397 36.6628 63.6981 36.6471 63.6408ZM38.2357 64.5991C38.0898 64.5939 37.9492 64.5887 37.8034 64.5887C37.4648 64.5783 37.1888 64.5679 36.9701 64.5522C36.7461 64.5418 36.5794 64.5262 36.4648 64.5106L36.4701 64.3231C36.5378 64.3231 36.6003 64.3231 36.668 64.3283C36.7305 64.3283 36.793 64.3335 36.8607 64.3387C37.0117 64.3491 37.1419 64.3595 37.2565 64.3647C37.3711 64.3752 37.4596 64.3856 37.5273 64.396C37.7148 64.422 37.9023 64.4533 38.0898 64.4897C38.2773 64.521 38.4701 64.5627 38.6628 64.5991C38.5221 64.6043 38.3815 64.6043 38.2357 64.5991Z" fill="#6B4B34"/>
</svg>
