<svg width="230" height="187" viewBox="0 0 230 187" fill="none" xmlns="http://www.w3.org/2000/svg">
<mask id="mask0_283_107536" style="mask-type:luminance" maskUnits="userSpaceOnUse" x="0" y="0" width="230" height="187">
<path d="M0 0H229.514V186.988H0V0Z" fill="white"/>
</mask>
<g mask="url(#mask0_283_107536)">
<path d="M0.0400391 186.956H229.476V-0.0344238H0.0400391V186.956Z" fill="#6F4323"/>
</g>
<path d="M11.2466 177.82H218.266V9.10352H11.2466V177.82Z" fill="#55331A"/>
<path d="M34.1006 158.646H195.412V9.10352H34.1006V158.646Z" fill="#3C2210"/>
<mask id="mask1_283_107536" style="mask-type:luminance" maskUnits="userSpaceOnUse" x="0" y="98" width="230" height="21">
<path d="M0 98.7463H229.514V118.692H0V98.7463Z" fill="white"/>
</mask>
<g mask="url(#mask1_283_107536)">
<path d="M229.476 118.656H0.0400391V98.9443H229.476V118.656Z" fill="#6F4323"/>
</g>
<path d="M195.413 79.7703H34.1014L11.2466 98.9443H218.266L195.413 79.7703Z" fill="#462814"/>
<path d="M195.413 158.646H34.1014L11.2466 177.82H218.266L195.413 158.646Z" fill="#462814"/>
<path d="M204.62 62.4374C204.62 78.2757 191.774 91.1178 175.928 91.1178C160.082 91.1178 147.242 78.2757 147.242 62.4374C147.242 46.5991 160.082 33.7537 175.928 33.7537C191.774 33.7537 204.62 46.5991 204.62 62.4374Z" fill="#918F8F"/>
<path d="M203.154 60.9802C203.154 76.8207 190.309 89.6606 174.466 89.6606C158.622 89.6606 145.777 76.8207 145.777 60.9802C145.777 45.1419 158.622 32.2998 174.466 32.2998C190.309 32.2998 203.154 45.1419 203.154 60.9802Z" fill="#D3D2D2"/>
<path d="M200.902 60.9804H200.72C200.72 68.2306 197.783 74.7896 193.032 79.54C188.279 84.2904 181.714 87.2266 174.465 87.2266C167.215 87.2266 160.65 84.2904 155.898 79.54C151.146 74.7896 148.207 68.2306 148.207 60.9804C148.207 53.7301 151.146 47.1711 155.898 42.4207C160.65 37.6703 167.215 34.7342 174.465 34.7342C181.714 34.7342 188.279 37.6703 193.032 42.4207C197.783 47.1711 200.72 53.7301 200.72 60.9804H201.081C201.081 46.2851 189.165 34.3735 174.465 34.3735C159.764 34.3735 147.846 46.2851 147.846 60.9804C147.846 75.6756 159.764 87.5894 174.465 87.5894C189.165 87.5894 201.081 75.6756 201.081 60.9804H200.902Z" fill="#C13331"/>
<path d="M190.802 60.9803C190.802 69.9992 183.489 77.3106 174.465 77.3106C165.443 77.3106 158.128 69.9992 158.128 60.9803C158.128 51.9593 165.443 44.6467 174.465 44.6467C183.489 44.6467 190.802 51.9593 190.802 60.9803Z" fill="#BDBCBC"/>
<path d="M189.002 60.9802C189.002 69.0018 182.492 75.513 174.465 75.513C166.44 75.513 159.932 69.0018 159.932 60.9802C159.932 52.9587 166.44 46.4497 174.465 46.4497C182.492 46.4497 189.002 52.9587 189.002 60.9802Z" fill="#D3D2D2"/>
<path d="M142.899 58.7265C142.899 74.5648 130.058 87.4047 114.211 87.4047C98.3679 87.4047 85.5225 74.5648 85.5225 58.7265C85.5225 42.886 98.3679 30.0461 114.211 30.0461C130.058 30.0461 142.899 42.886 142.899 58.7265Z" fill="#918F8F"/>
<path d="M141.437 57.2695C141.437 73.11 128.595 85.9499 112.748 85.9499C96.9079 85.9499 84.0625 73.11 84.0625 57.2695C84.0625 41.4323 96.9079 28.5891 112.748 28.5891C128.595 28.5891 141.437 41.4323 141.437 57.2695Z" fill="#D3D2D2"/>
<path d="M139.183 57.2694H139.002C139.002 64.5175 136.064 71.0787 131.315 75.8291C126.564 80.5773 120.001 83.5156 112.749 83.5156C105.499 83.5156 98.9373 80.5773 94.1847 75.8291C89.4332 71.0787 86.4959 64.5175 86.4959 57.2694C86.4959 50.0192 89.4332 43.4602 94.1847 38.7098C98.9373 33.9594 105.499 31.0244 112.749 31.0244C120.001 31.0244 126.564 33.9594 131.315 38.7098C136.064 43.4602 139.002 50.0192 139.002 57.2694H139.361C139.361 42.572 127.452 30.6604 112.749 30.6604C98.0513 30.6604 86.1331 42.572 86.1331 57.2694C86.1331 71.9647 98.0513 83.8763 112.749 83.8763C127.452 83.8763 139.361 71.9647 139.361 57.2694H139.183Z" fill="#C13331"/>
<path d="M129.088 57.2695C129.088 66.2861 121.773 73.6009 112.749 73.6009C103.726 73.6009 96.4138 66.2861 96.4138 57.2695C96.4138 48.2484 103.726 40.9392 112.749 40.9392C121.773 40.9392 129.088 48.2484 129.088 57.2695Z" fill="#BDBCBC"/>
<path d="M127.284 57.2696C127.284 65.2922 120.776 71.8001 112.749 71.8001C104.724 71.8001 98.2136 65.2922 98.2136 57.2696C98.2136 49.248 104.724 42.7368 112.749 42.7368C120.776 42.7368 127.284 49.248 127.284 57.2696Z" fill="#D3D2D2"/>
<path d="M82.7076 61.7082C82.7076 77.5465 69.8577 90.3897 54.0172 90.3897C38.1755 90.3897 25.3257 77.5465 25.3257 61.7082C25.3257 45.871 38.1755 33.0278 54.0172 33.0278C69.8577 33.0278 82.7076 45.871 82.7076 61.7082Z" fill="#918F8F"/>
<path d="M81.2421 60.2514C81.2421 76.0919 68.3978 88.9296 52.5539 88.9296C36.71 88.9296 23.8657 76.0919 23.8657 60.2514C23.8657 44.4142 36.71 31.5732 52.5539 31.5732C68.3978 31.5732 81.2421 44.4142 81.2421 60.2514Z" fill="#D3D2D2"/>
<path d="M78.9918 60.2512H78.8093C78.8093 67.4992 75.8731 74.0605 71.1205 78.8109C66.369 83.5613 59.8067 86.4974 52.5542 86.4974C45.304 86.4974 38.7405 83.5613 33.9901 78.8109C29.2386 74.0605 26.2991 67.4992 26.2991 60.2512C26.2991 53.0043 29.2386 46.4453 33.9901 41.6949C38.7405 36.9445 45.304 34.0061 52.5542 34.0061C59.8067 34.0061 66.369 36.9445 71.1205 41.6949C75.8731 46.4453 78.8093 53.0043 78.8093 60.2512H79.1699C79.1699 45.5593 67.255 33.6455 52.5542 33.6455C37.8567 33.6455 25.9385 45.5593 25.9385 60.2512C25.9385 74.9465 37.8567 86.858 52.5542 86.858C67.255 86.858 79.1699 74.9465 79.1699 60.2512H78.9918Z" fill="#C13331"/>
<path d="M68.8927 60.2514C68.8927 69.2702 61.5779 76.585 52.5535 76.585C43.5325 76.585 36.2166 69.2702 36.2166 60.2514C36.2166 51.2337 43.5325 43.9211 52.5535 43.9211C61.5779 43.9211 68.8927 51.2337 68.8927 60.2514Z" fill="#BDBCBC"/>
<path d="M67.0862 60.2514C67.0862 68.2763 60.5817 74.7786 52.5535 74.7786C44.5286 74.7786 38.0208 68.2763 38.0208 60.2514C38.0208 52.2276 44.5286 45.7275 52.5535 45.7275C60.5817 45.7275 67.0862 52.2276 67.0862 60.2514Z" fill="#D3D2D2"/>
<path d="M136.895 163.372V163.954C136.895 164.84 136.056 165.56 135.027 165.56H117.161C116.13 165.56 115.289 164.84 115.289 163.954V163.372H136.895Z" fill="#B08C68"/>
<path d="M110.635 128.194L114.393 162.988C114.393 162.988 114.645 163.954 115.29 163.954C115.888 163.954 133.835 163.954 136.896 163.954C137.566 163.954 137.801 162.882 137.801 162.882L140.415 128.194H110.635Z" fill="#D5AA7F"/>
<path d="M133.85 128.194L131.868 163.954H136.895C137.565 163.954 137.8 162.882 137.8 162.882L140.415 128.194H133.85Z" fill="#B9936E"/>
<path d="M102.325 139.514C103.327 133.191 106.381 129.954 111.735 131.972C111.786 133.066 111.856 134.147 111.951 135.228C107.982 133.234 106.365 135.29 105.601 140.1C104.908 144.489 106.903 152.479 111.312 153.07C113.425 153.353 114.159 152.108 114.159 152.108L113.896 155.209C113.896 155.209 112.477 156.138 111.027 156.044C105.869 155.719 101.436 145.099 102.325 139.514Z" fill="#D5AA7F"/>
<path d="M111.269 154.402C108.101 153.693 106.419 151.505 105.029 148.652C103.157 144.795 102.246 140.638 102.957 136.785C102.696 137.613 102.48 138.52 102.325 139.514C101.436 145.099 105.869 155.719 111.027 156.044C112.477 156.138 113.896 155.209 113.896 155.209L113.959 154.483C113.103 154.64 112.176 154.606 111.269 154.402Z" fill="#B9936E"/>
<path d="M106.832 134.198C105.528 136.557 105.005 139.319 105.471 141.989C105.471 141.316 105.511 140.674 105.602 140.1C106.365 135.29 107.982 133.234 111.951 135.228C111.919 134.894 111.906 134.559 111.887 134.225C110.007 133.503 108.118 133.207 106.832 134.198Z" fill="#B9936E"/>
<path d="M188.173 162.567V163.15C188.173 164.035 187.334 164.755 186.307 164.755H168.439C167.408 164.755 166.571 164.035 166.571 163.15V162.567H188.173Z" fill="#B08C68"/>
<path d="M161.922 127.396L165.676 162.183C165.676 162.183 165.92 163.15 166.571 163.15C167.161 163.15 185.109 163.15 188.174 163.15C188.846 163.15 189.082 162.08 189.082 162.08L191.696 127.396H161.922Z" fill="#D5AA7F"/>
<path d="M185.128 127.396L183.151 163.15H188.173C188.845 163.15 189.081 162.08 189.081 162.08L191.696 127.396H185.128Z" fill="#B9936E"/>
<path d="M153.606 138.711C154.603 132.392 157.665 129.15 163.018 131.168C163.061 132.262 163.135 133.348 163.229 134.423C159.263 132.432 157.648 134.488 156.887 139.295C156.188 143.688 158.187 151.675 162.592 152.265C164.703 152.552 165.441 151.303 165.441 151.303L165.175 154.407C165.175 154.407 163.758 155.334 162.305 155.244C157.152 154.914 152.72 144.298 153.606 138.711Z" fill="#D5AA7F"/>
<path d="M162.555 153.6C159.379 152.89 157.703 150.7 156.309 147.848C154.437 143.988 153.525 139.839 154.235 135.98C153.974 136.815 153.763 137.722 153.606 138.71C152.72 144.298 157.152 154.914 162.305 155.244C163.758 155.333 165.175 154.407 165.175 154.407L165.237 153.682C164.383 153.841 163.454 153.806 162.555 153.6Z" fill="#B9936E"/>
<path d="M158.109 133.397C156.811 135.755 156.286 138.52 156.749 141.188C156.749 140.514 156.794 139.869 156.887 139.295C157.648 134.488 159.263 132.432 163.229 134.423C163.202 134.09 163.185 133.754 163.164 133.421C161.286 132.703 159.401 132.403 158.109 133.397Z" fill="#B9936E"/>
<path d="M164.04 163.372V163.954C164.04 164.84 163.203 165.56 162.171 165.56H144.306C143.273 165.56 142.436 164.84 142.436 163.954V163.372H164.04Z" fill="#198293"/>
<path d="M137.785 128.194L141.542 162.988C141.542 162.988 141.786 163.954 142.436 163.954C143.033 163.954 160.979 163.954 164.04 163.954C164.709 163.954 164.948 162.882 164.948 162.882L167.559 128.194H137.785Z" fill="#42A3AB"/>
<path d="M164.039 163.954C163.221 163.954 161.341 163.954 159.014 163.954L160.998 128.194H167.559L165.277 158.497L165.267 158.646L164.948 162.882C164.948 162.882 164.708 163.954 164.039 163.954Z" fill="#37858D"/>
<path d="M129.469 139.514C130.475 133.191 133.528 129.954 138.884 131.972C138.933 133.066 139.003 134.147 139.096 135.228C135.132 133.234 133.515 135.29 132.754 140.1C132.051 144.489 134.054 152.479 138.459 153.07C140.569 153.353 141.306 152.108 141.306 152.108L141.044 155.209C141.044 155.209 139.624 156.138 138.172 156.044C133.016 155.719 128.583 145.099 129.469 139.514Z" fill="#42A3AB"/>
<path d="M129.469 139.514C129.505 139.304 129.54 139.094 129.578 138.892C129.54 139.098 129.505 139.304 129.469 139.514Z" fill="#B08C68"/>
<path d="M138.378 156.051C138.31 156.051 138.24 156.049 138.172 156.044C133.463 155.745 129.359 146.868 129.356 141.075C129.356 140.522 129.394 139.999 129.469 139.514C129.505 139.304 129.54 139.098 129.578 138.892C129.719 138.138 129.898 137.437 130.104 136.785C129.394 140.638 130.302 144.795 132.179 148.652C133.572 151.505 135.246 153.693 138.418 154.402C138.941 154.521 139.472 154.581 139.995 154.581C140.371 154.581 140.745 154.548 141.106 154.483L141.044 155.209C141.044 155.209 140.924 155.288 140.721 155.396C140.252 155.643 139.34 156.051 138.38 156.051H138.378Z" fill="#37858D"/>
<path d="M132.614 141.99C132.614 141.513 132.637 141.058 132.682 140.628C132.637 141.058 132.614 141.517 132.614 141.99Z" fill="#B08C68"/>
<path d="M139.096 135.228C139.066 134.892 139.039 134.556 139.015 134.219C139.02 134.223 139.026 134.223 139.028 134.225C139.052 134.559 139.069 134.894 139.096 135.228Z" fill="#37858D"/>
<path d="M132.615 141.989C132.152 139.319 132.677 136.557 133.975 134.198C134.56 133.749 135.27 133.565 136.043 133.565C136.972 133.565 137.996 133.83 139.015 134.219C139.039 134.556 139.066 134.892 139.096 135.228C139.079 135.219 139.066 135.211 139.05 135.203C139.041 135.2 139.036 135.198 139.031 135.192C139.028 135.192 139.022 135.19 139.02 135.187C138.036 134.705 137.199 134.472 136.484 134.469C136.484 134.469 136.484 134.469 136.481 134.469C134.934 134.472 133.965 135.557 133.334 137.526C133.095 138.266 132.905 139.128 132.754 140.1C132.726 140.27 132.702 140.447 132.683 140.628C132.637 141.058 132.615 141.513 132.615 141.989Z" fill="#37858D"/>
<path d="M75.3331 146.375H45.9949L44.1306 143.285H76.927L75.3331 146.375Z" fill="#24A1A7"/>
<path d="M75.0808 144.208C67.3565 144.208 51.9032 144.208 46.1077 144.208C40.3189 144.208 30.6567 130.306 30.6567 130.306H90.5341C90.5341 130.306 82.8052 144.208 75.0808 144.208Z" fill="#54C5BB"/>
<path d="M85.6089 136.357C82.4312 137.722 78.9063 138.144 75.476 138.255C71.0873 138.399 66.6953 138.648 62.3067 138.764C54.8427 138.965 45.9018 139.48 38.9988 136.069C36.4767 134.824 34.6369 133.178 32.6246 131.292C32.2717 130.962 31.92 130.634 31.565 130.306H30.6567C30.6567 130.306 40.3189 144.208 46.1077 144.208H75.0808C79.5129 144.208 83.9372 139.637 86.9123 135.737C86.4871 135.959 86.0508 136.167 85.6089 136.357Z" fill="#44B7B2"/>
<path d="M77.3955 153.828H48.0596L46.1897 150.74H78.986L77.3955 153.828Z" fill="#AF3365"/>
<path d="M77.1424 151.664C69.4192 151.664 53.9648 151.664 48.1727 151.664C42.3783 151.664 32.7217 137.76 32.7217 137.76H92.5968C92.5968 137.76 84.8724 151.664 77.1424 151.664Z" fill="#AF3365"/>
<path d="M85.8183 146.878H85.8149C86.9803 145.692 88.0477 144.411 88.9737 143.198C88.977 143.198 88.977 143.195 88.9793 143.195C88.0499 144.411 86.9825 145.692 85.8183 146.878Z" fill="#38200F"/>
<path d="M85.8151 146.878H40.3403C36.26 142.857 32.7217 137.76 32.7217 137.76H33.6266C33.985 138.093 34.3367 138.418 34.6884 138.748C36.7019 140.633 38.5417 142.277 41.0616 143.525C45.8698 145.901 51.6653 146.371 57.2594 146.371C59.7003 146.371 62.1044 146.282 64.3683 146.22C68.7603 146.104 73.15 145.855 77.5387 145.711C80.9712 145.6 84.4984 145.177 87.6739 143.815C88.1124 143.623 88.5465 143.414 88.9739 143.198C88.0478 144.411 86.9805 145.693 85.8151 146.878Z" fill="#A02E5C"/>
<path d="M77.3955 162.944H48.0596L46.1897 159.854H78.986L77.3955 162.944Z" fill="#F36717"/>
<path d="M77.1424 160.78C69.4192 160.78 53.9648 160.78 48.1727 160.78C42.3783 160.78 32.7217 146.878 32.7217 146.878H92.5968C92.5968 146.878 84.8724 160.78 77.1424 160.78Z" fill="#F68712"/>
<path d="M82.7673 158.646H82.7639C85.1269 156.959 87.2884 154.527 88.9768 152.312C88.9768 152.312 88.9768 152.312 88.979 152.308C87.2861 154.527 85.1291 156.959 82.7673 158.646Z" fill="#38200F"/>
<path d="M78.5898 160.623C80.0156 160.322 81.4236 159.604 82.7648 158.646H82.7681C81.4236 159.604 80.0179 160.322 78.5898 160.623Z" fill="#412612"/>
<path d="M77.1572 160.779H77.1595C77.1572 160.779 77.1572 160.779 77.1572 160.779ZM77.2674 160.777C77.2708 160.777 77.2763 160.777 77.2785 160.777C77.2763 160.777 77.273 160.777 77.2674 160.777ZM77.2819 160.777C77.7171 160.769 78.1567 160.715 78.5897 160.623C78.1534 160.715 77.7171 160.769 77.2819 160.777Z" fill="#DF5E15"/>
<path d="M77.1424 160.78C69.4192 160.78 53.9648 160.78 48.1727 160.78C42.3783 160.78 32.7217 146.878 32.7217 146.878H33.6266C33.985 147.206 34.3367 147.534 34.6884 147.862C36.7019 149.75 38.5417 151.393 41.0616 152.641C45.8776 155.02 51.6809 155.488 57.2872 155.488C59.7169 155.488 62.1122 155.401 64.3683 155.341C68.7603 155.222 73.15 154.971 77.5387 154.825C80.9712 154.716 84.4984 154.294 87.6739 152.932C88.1124 152.742 88.5487 152.533 88.9772 152.312C87.2888 154.527 85.1273 156.959 82.7643 158.646C81.4231 159.604 80.0152 160.322 78.5894 160.623C78.1564 160.715 77.7168 160.77 77.2816 160.777C77.2782 160.777 77.2782 160.777 77.2782 160.777C77.276 160.777 77.2704 160.777 77.2671 160.777C77.2671 160.777 77.2671 160.78 77.2649 160.78C77.2626 160.78 77.2593 160.78 77.2571 160.78H77.2537C77.2515 160.78 77.2482 160.78 77.2459 160.78H77.2437C77.2382 160.78 77.2326 160.78 77.227 160.78C77.2237 160.78 77.2237 160.78 77.2215 160.78C77.2192 160.78 77.2192 160.78 77.2159 160.78C77.2137 160.78 77.2103 160.78 77.2103 160.78C77.2081 160.78 77.2048 160.78 77.2025 160.78C77.2025 160.78 77.2003 160.78 77.197 160.78C77.1948 160.78 77.1948 160.78 77.1914 160.78C77.1892 160.78 77.1858 160.78 77.1858 160.78C77.1836 160.78 77.1814 160.78 77.1814 160.78C77.1758 160.78 77.1758 160.78 77.1725 160.78C77.1703 160.78 77.1703 160.78 77.1669 160.78C77.1647 160.78 77.1614 160.78 77.1591 160.78H77.1569C77.1513 160.78 77.1458 160.78 77.1424 160.78Z" fill="#E17B10"/>
<path d="M77.3955 169.94H48.0596L46.1897 166.849H78.986L77.3955 169.94Z" fill="#24A1A7"/>
<path d="M77.1424 167.773C69.4192 167.773 53.9648 167.773 48.1727 167.773C42.3783 167.773 32.7217 153.871 32.7217 153.871H92.5968C92.5968 153.871 84.8724 167.773 77.1424 167.773Z" fill="#54C5BB"/>
<path d="M87.6739 159.925C84.4984 161.289 80.9712 161.709 77.5387 161.823C73.15 161.961 68.7603 162.213 64.3683 162.332C56.9043 162.529 47.9668 163.045 41.0616 159.632C38.5417 158.389 36.7019 156.745 34.6884 154.857C34.3367 154.527 33.985 154.196 33.6266 153.871H32.7217C32.7217 153.871 42.3783 167.773 48.1727 167.773H77.1424C81.5778 167.773 86.0054 163.202 88.9794 159.304C88.5487 159.526 88.1124 159.732 87.6739 159.925Z" fill="#44B7B2"/>
</svg>
