<svg width="262" height="317" viewBox="0 0 262 317" fill="none" xmlns="http://www.w3.org/2000/svg">
<path d="M46.376 126.254C46.376 126.439 46.376 126.642 46.3085 126.827C46.3085 127.838 46.2411 128.85 45.9209 129.861C45.7355 130.94 45.9883 132.018 45.6681 133.08C45.2973 134.344 44.5388 135.49 43.7803 136.502C42.196 138.457 40.797 140.547 38.8924 142.249C34.8473 146.176 28.9649 146.682 23.6388 146.615C22.3747 146.615 21.1106 146.244 19.9139 145.924C17.9419 145.536 15.7339 145.603 14.0821 144.339C13.2563 143.648 12.6326 142.687 11.8742 141.929C11.7393 141.676 11.6719 141.423 11.6045 141.238C10.9134 140.614 10.728 139.603 10.4078 138.71C9.64933 136.114 9.14368 133.4 8.63804 130.737C7.44134 122.967 5.46933 115.248 4.8457 107.41C4.8457 106.854 5.09852 106.399 5.46933 106.146C5.60417 105.135 6.4132 104.376 6.9357 103.551C9.00884 100.904 12.3124 99.6403 15.1608 98.1233C17.7565 97.3649 20.5375 96.539 23.268 96.6064C25.5434 96.6064 28.0716 97.5503 29.9762 98.8144C31.8134 100.331 32.6393 102.674 34.0888 104.511C36.2968 107.36 37.6957 110.697 40.1734 113.36C41.5555 115.13 42.3814 117.22 43.6455 119.108C44.2185 120.001 44.6568 120.945 45.0444 121.889C45.6175 122.849 46.2411 123.726 46.5614 124.805C46.8816 125.31 46.6794 125.883 46.376 126.254Z" fill="black"/>
<mask id="mask0_287_104850" style="mask-type:luminance" maskUnits="userSpaceOnUse" x="0" y="173" width="197" height="144">
<path d="M0.681641 173.92H196.956V316.815H0.681641V173.92Z" fill="white"/>
</mask>
<g mask="url(#mask0_287_104850)">
<path d="M191.664 270.347C192.54 269.015 193.754 267.498 194.833 266.184C197.799 263.015 195.018 259.29 193.316 256.256C192.355 253.981 192.288 251.385 190.906 249.295C190.08 247.964 188.816 246.952 187.737 245.823C184.754 242.722 181.787 239.621 178.686 236.654C176.41 234.379 173.612 232.609 170.899 230.957C167.865 230.013 164.561 229.693 161.393 229.508C158.865 229.373 156.454 230.199 154.061 230.772C151.465 231.53 148.802 232.154 146.072 232.356C143.611 232.862 141.336 233.418 138.74 233.806C138.285 233.873 137.914 233.991 137.476 234.058C137.274 233.873 137.021 233.738 136.717 233.671C135.251 233.367 133.919 232.794 132.588 232.289C129.874 231.345 127.144 230.266 124.868 228.429C123.79 227.485 123.031 226.154 121.835 225.277C120.065 223.878 118.16 222.799 116.576 221.215C115.952 220.153 115.379 219.074 114.418 218.181C113.542 217.237 112.716 216.226 111.958 215.147C111.385 214.018 110.946 212.821 110.255 211.743C108.418 209.332 107.019 206.619 105.115 204.276C102.081 200.618 98.7266 197.197 95.305 193.91C94.0409 192.461 92.642 191.197 91.2599 189.865C89.9283 188.534 88.7822 187.017 87.1979 186.005C86.5068 185.382 85.4281 184.421 84.3494 184.118C83.7763 183.292 83.0853 182.533 82.2088 182.028C81.1807 181.522 80.1188 181.134 79.1581 180.561C76.5119 179.297 73.4612 177.595 70.4947 176.904C67.2586 176.331 63.9719 175.96 60.7358 175.505C56.5053 174.308 52.123 173.937 47.6902 173.988C42.2461 174.055 36.802 174.494 31.6107 176.263C29.6555 176.904 27.8184 177.595 25.9812 178.539C25.543 178.168 24.9699 177.915 24.3968 177.915C24.144 175.572 22.0034 174.949 19.964 175.201C19.2056 175.134 18.3797 175.387 17.874 175.892C17.6886 175.96 17.5032 176.01 17.2504 176.145C15.9189 176.213 14.7727 177.022 13.5086 177.409C12.3794 177.78 11.0984 178.1 10.0871 178.791C9.27807 179.365 8.63758 180.123 7.9971 180.881C7.12065 181.893 5.9071 182.719 4.96323 183.73C2.43501 186.764 0.850659 190.556 0.71582 194.534C0.71582 195.292 1.10348 195.933 1.60913 196.506C2.11477 197.13 2.62042 197.888 3.4463 198.09C3.51372 198.849 3.6317 199.54 4.08678 200.231C4.59243 201.175 5.03065 202.506 5.97452 203.197C5.3509 204.782 4.89582 206.433 4.71041 208.136C3.88453 211.304 2.30017 214.203 2.36759 217.558C1.67655 223.002 1.86195 228.564 2.55299 233.991C2.43501 236.654 3.19348 239.553 4.01936 242.149C4.45759 243.918 5.21606 245.57 6.15993 247.087C7.44089 249.43 8.95783 251.638 11.0478 253.222C14.3345 255.548 17.874 257.453 20.9247 260.049C22.1214 261.178 23.0147 262.644 24.0766 263.908C25.7958 265.863 27.633 267.246 29.5207 269.083C35.6727 274.341 41.3696 279.904 47.6902 284.96C49.8476 286.915 51.9376 288.938 53.8422 291.146C54.8535 292.477 56.185 293.556 57.5165 294.432C61.5617 297.534 65.9271 300.129 70.3599 302.657C73.141 304.613 75.8714 306.77 79.0401 308.102C82.2594 309.113 85.563 310.242 88.7148 311.709C90.3666 312.72 92.1363 313.478 94.0409 313.984C95.4399 314.49 97.1422 314.995 98.5412 315.619C99.8053 316.31 101.187 316.765 102.654 316.816C105.822 316.698 108.974 315.686 111.958 314.608C114.671 313.023 117.587 311.709 120.183 309.922C121.447 309.045 122.981 308.725 124.363 308.102C126.015 307.208 127.649 306.45 129.301 305.624C130.633 304.815 131.779 303.669 133.228 302.978C135.386 302.152 137.408 301.141 139.566 300.264C143.476 299 147.538 298.225 151.145 296.152C153.168 295.258 155.19 294.382 157.027 292.983C158.544 291.972 160.263 291.348 162.033 290.842C163.432 290.337 164.814 290.202 166.331 289.882C169.635 288.82 172.989 287.674 176.276 286.595C179.697 285.769 183.051 284.893 186.287 283.494C188.934 282.617 192.675 281.1 192.035 277.679C191.984 277.122 191.731 276.667 191.479 276.111C191.158 274.847 191.411 273.516 191.411 272.251C191.344 271.611 191.597 271.038 191.664 270.347ZM19.7112 178.539C19.7786 178.488 19.7786 178.488 19.846 178.421H20.0314C19.9135 178.488 19.7786 178.488 19.7112 178.539Z" fill="black"/>
</g>
<mask id="mask1_287_104850" style="mask-type:luminance" maskUnits="userSpaceOnUse" x="58" y="0" width="204" height="239">
<path d="M58.8809 0.820801H261.273V238.642H58.8809V0.820801Z" fill="white"/>
</mask>
<g mask="url(#mask1_287_104850)">
<path d="M258.762 196.875C258.206 198.392 257.701 199.909 256.807 201.308C254.65 204.78 251.549 207.494 248.835 210.477C249.391 212.314 249.779 214.27 250.217 216.107C250.352 217.674 250.79 219.259 250.672 220.843C250.605 222.242 250.167 223.557 249.593 224.821C248.768 226.085 247.621 227.163 246.61 228.31C245.987 228.933 245.228 229.371 244.52 229.827C243.509 230.585 242.565 231.529 241.419 232.102C238.25 233.99 234.458 234.816 230.783 234.428C227.75 234.428 225.339 232.22 223.182 230.265C222.12 229.439 221.041 228.613 220.081 227.669C219.963 227.551 219.777 227.416 219.642 227.349C218.564 227.602 217.485 227.855 216.423 228.31C215.395 228.68 214.266 229.371 213.187 229.371C213.002 229.371 212.799 229.371 212.614 229.321C209.327 230.332 205.906 231.394 202.417 231.276C197.866 231.343 193.315 230.77 189.135 228.933C186.59 227.484 184.062 225.781 182.225 223.506C180.017 221.214 177.421 219.259 175.517 216.612C172.921 213.123 170.898 209.28 168.303 205.859C165.522 201.932 163.297 197.583 160.196 193.909C158.797 191.954 157.229 190.117 155.898 188.161C154.566 186.071 153.673 183.796 152.291 181.824C149.813 178.032 146.459 174.947 143.998 171.087C139.818 164.312 137.661 156.356 132.469 150.221C129.233 147.002 126.014 143.766 123.671 139.856C120.89 135.861 117.974 132.069 115.497 127.905C113.356 124.737 110.878 121.888 108.468 118.989C105.367 114.995 103.226 110.258 99.8721 106.466C96.3158 102.286 95.3719 96.6061 92.3886 92.0553C90.4335 89.5776 88.5963 86.9988 87.0119 84.2178C85.1748 81.875 83.0848 79.7176 81.7027 77.1219C80.2363 75.0993 78.534 73.279 77.3204 71.1216C75.9889 71.1216 75.045 70.1103 74.0337 69.3518C72.7696 68.4754 71.1853 68.1551 70.1065 66.9585C68.9099 65.8123 68.202 64.2954 67.3255 62.8964C65.8591 61.0087 64.5445 58.9861 63.4657 56.8287C62.6399 55.2612 62.3196 53.4746 62.6399 51.7049C62.7073 50.3902 63.5332 49.3115 64.8478 48.9912C66.8199 48.3676 67.9491 46.8507 69.5335 45.772C72.0111 44.3224 74.7922 43.4966 77.3204 42.165C89.2199 36.0973 101.44 30.6026 113.356 24.7203C119.491 21.4842 126.199 19.529 132.402 16.4951C136.515 14.1523 141.015 12.7028 145.38 10.8656C153.487 7.57895 161.594 4.10686 169.887 1.32582C171.471 0.870736 173.056 0.820172 174.64 0.938156C175.955 1.00558 176.663 2.20227 177.286 3.28098C177.859 4.10686 178.247 4.93275 178.685 5.87662C179.764 7.83177 180.843 9.85435 181.787 11.8769C182.157 13.2759 181.466 14.7254 180.522 15.7367C180.893 16.3772 181.095 17.1862 181.399 17.8941C182.478 21.1808 184.315 24.1472 185.579 27.3665C186.725 29.7093 187.045 32.3724 188.175 34.6983C190.838 39.2491 193.501 43.8168 195.591 48.671C197.108 51.452 198.945 54.0477 200.023 57.031C201.793 61.7672 204.069 66.2506 206.479 70.7508C209.513 76.9365 212.867 82.8863 215.783 89.2068C217.434 92.4261 219.575 95.4094 221.159 98.6287C222.744 101.848 223.89 105.32 225.407 108.556C227.244 111.775 229.452 114.742 231.289 117.978C234.205 123.405 236.986 128.849 239.717 134.411C241.807 138.389 244.402 142.064 246.239 146.176C247.116 148.013 248.194 149.716 249.02 151.553C250.537 155.092 251.616 158.75 253.318 162.239C255.29 166.537 257.06 171.087 258.51 175.503C260.094 179.178 260.6 183.105 260.92 187.015C261.24 190.235 260.043 193.656 258.762 196.875Z" fill="black"/>
</g>
<mask id="mask2_287_104850" style="mask-type:luminance" maskUnits="userSpaceOnUse" x="2" y="1" width="260" height="316">
<path d="M2.78906 1.32666H261.274V316.309H2.78906V1.32666Z" fill="white"/>
</mask>
<g mask="url(#mask2_287_104850)">
<path d="M188.311 251.317C187.671 250.188 186.659 249.362 185.783 248.418C184.502 247.086 183.305 245.688 181.906 244.491C180.457 243.041 179.26 241.575 177.794 240.193C175.956 238.356 173.934 236.721 171.726 235.254C171.018 234.749 170.259 234.311 169.501 233.923C167.158 233.367 164.765 233.046 162.422 232.861C157.989 232.541 153.809 234.698 149.494 235.322C145.769 235.642 142.163 236.721 138.488 237.226C132.909 238.356 127.533 240.125 122.088 241.457C120.116 241.828 118.094 241.963 116.206 242.333C113.796 242.974 111.453 243.732 109.11 244.558C102.908 246.379 96.8905 248.671 91.0082 251.132C85.1764 254.098 78.9064 255.868 73.1421 258.969C71.0521 259.913 68.7261 260.739 67.3946 262.761C68.153 265.172 67.698 267.632 67.9002 270.093C68.6587 272.807 69.9902 275.352 70.6138 278.066C70.9341 280.206 72.0128 282.043 73.2095 283.813C73.85 284.892 74.3556 286.089 75.1815 287.1C75.6871 287.605 76.2433 287.993 76.8164 288.431C77.8277 289.122 78.839 289.763 79.7997 290.521C80.3054 290.892 80.811 291.28 81.2492 291.718C82.6482 293.05 84.1651 294.314 85.7495 295.325C89.3564 297.668 93.469 299.185 97.649 299.556C98.0872 299.623 98.4748 299.623 98.9131 299.623H98.9805C99.3513 299.623 99.8064 299.623 100.177 299.556C100.245 299.556 100.245 299.556 100.312 299.556C100.683 299.505 101.003 299.438 101.391 299.37C101.441 299.37 101.576 299.37 101.644 299.303H101.694C102.149 299.252 102.52 299.117 102.975 298.999C103.228 298.999 103.481 298.932 103.734 298.864C103.852 298.864 103.986 298.797 104.104 298.797C104.357 298.73 104.543 298.679 104.812 298.612C104.998 298.544 105.116 298.477 105.318 298.359C105.436 298.291 105.621 298.173 105.756 298.106C105.756 298.106 105.756 298.106 105.824 298.039C105.874 298.039 105.874 297.971 105.874 297.971C105.942 297.971 105.942 297.921 106.009 297.921C106.009 297.921 106.076 297.921 106.076 297.853C106.127 297.853 106.127 297.786 106.194 297.786C106.262 297.786 106.262 297.718 106.329 297.718C106.582 297.6 106.885 297.415 107.138 297.28C107.914 296.909 108.672 296.454 109.43 296.083C109.363 296.083 109.296 296.151 109.228 296.201C109.869 295.898 110.509 295.51 111.133 295.19C111.52 295.005 111.959 294.887 112.33 294.634H112.397H112.464C113.914 293.993 115.127 293.05 116.392 292.038C116.509 291.971 116.644 291.903 116.83 291.903C116.644 290.201 116.257 288.566 115.566 286.982C115.38 286.544 115.195 286.156 114.925 285.768C114.672 285.145 114.302 284.504 113.863 283.999C113.543 283.628 113.29 283.307 112.903 282.987C112.65 282.937 112.464 282.802 112.279 282.684C112.077 282.482 111.891 282.364 111.706 282.178C110.695 281.167 109.683 280.156 108.537 279.262C108.284 279.262 108.032 279.144 107.779 278.942C107.711 278.892 107.593 278.824 107.526 278.757C107.138 278.386 106.767 278.066 106.38 277.678C106.194 277.56 106.076 277.425 105.874 277.375C105.824 277.375 105.824 277.307 105.756 277.307C105.571 277.172 105.318 277.054 105.116 276.919C105.065 276.869 104.998 276.869 104.93 276.802C103.228 275.605 101.509 274.273 99.621 273.447C99.3007 273.329 99.0479 273.195 98.7277 273.06C98.2894 272.942 97.8344 272.942 97.3961 272.874C97.0253 272.874 96.7051 272.807 96.3848 272.689C95.8792 272.554 95.4915 272.504 95.0533 272.301C94.5477 272.301 94.042 272.301 93.5364 272.369C93.2161 272.504 92.8959 272.622 92.5925 272.756C91.379 273.195 90.1823 273.515 89.0361 274.02C88.9182 274.206 88.7833 274.341 88.5979 274.459C88.5305 274.779 88.4125 275.099 88.3451 275.403C88.2777 275.723 88.2103 276.043 88.2777 276.363C88.6653 276.802 89.1036 277.172 89.6092 277.56C90.5025 277.627 91.3116 278.066 92.2049 278.251C92.5251 278.318 92.8453 278.318 93.1487 278.386C93.4015 278.504 93.6544 278.639 93.9072 278.757C94.4297 279.077 94.9353 279.33 95.441 279.701C95.8792 280.156 96.3174 280.526 96.8231 280.914C96.8905 280.914 96.8905 280.914 96.9579 280.965C97.0253 280.965 97.1433 280.965 97.2107 280.965C97.4636 281.167 97.7164 281.352 97.9018 281.47C98.0366 281.605 98.222 281.723 98.34 281.791C98.34 281.791 98.4074 281.791 98.4074 281.858C98.4074 281.925 98.4748 281.976 98.4748 282.043C98.7951 282.296 99.0479 282.482 99.3513 282.684C99.4187 282.734 99.4861 282.802 99.621 282.869C99.621 282.869 99.6715 282.869 99.6715 282.937C99.739 282.987 99.8738 282.987 99.9244 283.055C101.694 284.319 103.481 285.515 104.812 287.302C105.368 288.313 105.824 289.577 105.824 290.774C105.824 291.533 105.689 292.224 105.436 292.915C105.25 293.302 104.93 293.623 104.61 293.875C104.037 294.314 103.413 294.567 102.773 294.567C102.335 294.567 101.947 294.432 101.694 294.128C101.509 293.926 101.323 293.673 101.256 293.37C101.188 293.235 101.188 293.117 101.188 292.982C101.138 292.156 101.762 291.533 102.52 291.212C102.52 291.027 102.52 290.892 102.52 290.707C102.469 288.364 99.9918 287.167 98.34 285.768C97.5815 285.145 96.5028 284.639 95.8118 283.881C95.7444 283.881 95.6264 283.813 95.4915 283.746C94.4297 283.122 93.5364 282.296 92.6431 281.42C91.4464 281.352 90.3677 280.847 89.2216 280.594C88.4631 280.661 87.9069 280.156 87.3338 279.701C85.4966 278.386 84.6033 276.869 85.109 274.594C85.3112 273.768 85.4966 272.689 86.1203 272.116C86.1877 272.048 86.1877 271.998 86.2551 271.93C86.2551 271.93 86.2551 271.93 86.2551 271.863C86.8282 271.105 87.5866 270.666 88.4631 270.346C88.8507 270.228 89.2216 270.093 89.6092 269.975C89.7946 269.908 89.9969 269.908 90.1149 269.84C90.3677 269.722 90.6205 269.655 90.8733 269.52C91.261 269.335 91.6992 269.217 92.0869 269.082C91.8341 268.964 91.6318 268.762 91.379 268.644C90.6879 268.206 90.0474 267.818 89.289 267.498C88.3451 267.245 87.4012 267.059 86.5079 266.992C86.4405 266.992 86.3731 266.992 86.3225 266.992C85.6146 267.127 84.9236 267.245 84.2325 267.312C84.1651 267.312 84.0303 267.312 83.9797 267.312C83.019 267.38 82.0751 267.447 81.1312 267.498C80.7436 267.565 80.3728 267.565 79.9177 267.7H79.8671C79.5469 267.75 79.2941 267.818 78.9738 267.953C78.721 268.071 78.4008 268.206 78.2828 268.509C78.2828 269.588 78.5356 270.599 78.7884 271.61C79.8671 272.689 79.3615 273.835 78.4682 274.341C78.1479 274.526 77.8277 274.594 77.5243 274.594C76.8838 274.594 76.1928 274.273 75.8725 273.447C75.6197 272.756 75.4849 272.116 75.3669 271.425C74.423 268.071 75.3669 266.234 77.2041 265.222C77.2715 265.222 77.2715 265.172 77.3221 265.172C77.4569 265.104 77.5243 265.037 77.6423 264.969C77.9625 264.851 78.2828 264.717 78.5862 264.666C78.721 264.531 78.9064 264.464 79.1087 264.346C79.412 264.278 79.7323 264.16 80.0525 264.093C80.12 264.093 80.12 264.093 80.12 264.093C80.4233 264.026 80.7436 264.026 80.9964 263.958C83.019 263.587 85.109 263.52 87.199 263.773C87.5192 263.773 87.9069 263.84 88.2103 263.84C88.2777 263.84 88.4125 263.84 88.4631 263.84C88.6653 263.84 88.9182 263.908 89.1036 263.908C89.4912 264.026 89.862 264.16 90.2497 264.346C91.7666 264.717 93.1487 265.357 94.5477 266.116C94.9353 266.368 95.1207 266.689 95.2387 266.992C97.9018 268.138 100.565 269.217 103.16 270.414C104.104 270.987 104.998 271.61 105.824 272.369C105.824 272.369 105.874 272.369 105.874 272.436C106.127 272.689 106.38 272.942 106.7 273.195C106.835 273.329 107.02 273.515 107.138 273.633C107.138 273.633 107.138 273.633 107.206 273.633C107.593 274.02 107.964 274.391 108.419 274.779C108.79 275.032 109.178 275.285 109.548 275.537C109.683 275.605 109.801 275.723 109.936 275.79C110.509 276.161 111.015 276.616 111.453 277.054C112.077 277.627 112.717 278.184 113.358 278.689C114.049 279.33 114.807 279.953 115.498 280.594C117.15 282.296 118.229 284.504 119.173 286.594C119.611 287.993 119.813 289.443 120.066 290.842C120.184 292.544 121.263 295.898 118.734 296.151H118.667C118.094 296.151 117.588 295.831 117.335 295.325C115.195 297.162 112.33 298.039 109.734 299.117C109.734 299.117 109.734 299.117 109.683 299.117C109.11 299.438 108.47 299.876 107.779 300.129C103.986 302.657 99.1659 303.162 94.6151 302.286C93.6038 302.084 92.5251 301.78 91.5644 301.46C88.5979 300.567 85.8169 299.185 83.2212 297.415C83.1538 297.348 83.019 297.28 82.9684 297.213C82.5133 296.909 82.1425 296.589 81.7043 296.269C81.2492 295.949 80.8784 295.578 80.4233 295.19C80.3728 295.14 80.3054 295.14 80.2379 295.072C79.9177 294.752 79.6143 294.499 79.2941 294.179C79.1592 294.061 79.0412 293.926 78.839 293.808C77.6423 292.729 76.3108 291.903 74.9792 291.027C74.2208 290.521 73.4623 289.948 72.7713 289.325C71.3217 287.808 70.6138 285.768 69.4846 283.999C68.271 282.364 67.58 280.526 67.2597 278.504C66.6361 275.976 65.5574 273.633 64.7315 271.172C64.1584 269.267 64.5461 267.245 64.4113 265.29C64.4113 264.919 64.3438 264.531 64.2259 264.211C62.3887 266.941 61.192 269.722 59.9785 272.689C58.8492 275.099 58.0233 277.56 57.5176 280.088C57.3828 280.526 57.3154 280.965 57.2648 281.47C57.13 282.482 57.012 283.493 56.8772 284.504C56.8097 284.959 56.8097 285.397 56.7592 285.768C56.8772 286.476 57.012 287.167 57.012 287.858C57.012 287.926 57.012 287.993 57.012 288.111C57.012 288.499 56.9446 288.752 56.7592 289.004C57.8885 290.201 59.102 291.28 60.4841 292.106C61.4448 292.797 62.4561 293.488 63.4 294.179C63.6528 294.314 63.8382 294.499 64.091 294.634C64.3438 294.819 64.5967 294.937 64.9169 295.14C67.4451 296.707 70.0408 298.173 72.5859 299.758C73.7151 300.567 74.7938 301.393 75.9905 302.151C76.4456 302.404 76.8164 302.724 77.2715 302.977C77.4569 303.095 77.5749 303.162 77.7771 303.297C78.3333 303.668 78.9738 303.988 79.6143 304.309C84.1651 305.876 88.7833 307.46 93.0307 309.736C94.9859 310.309 96.8905 311 98.7951 311.691C100.43 312.331 102.014 313.41 103.852 313.023C106.127 312.517 108.47 312.079 110.627 311.135C113.037 309.668 115.7 308.472 118.043 306.955C119.493 305.758 121.397 305.37 123.032 304.612C124.549 303.668 126.268 303.095 127.853 302.219C130.448 299.876 133.735 298.864 136.836 297.415C140.443 295.831 144.438 295.325 147.977 293.673C149.882 292.544 152.039 291.853 153.927 290.639C156.59 288.617 159.826 287.42 163.113 286.729C167.984 285.836 172.552 283.56 177.355 282.482C179.698 282.043 181.974 281.167 184.198 280.274C185.463 279.65 188.884 279.077 188.631 277.627C187.991 276.414 187.873 275.032 187.923 273.633C188.058 271.543 187.991 269.267 189.255 267.565C190.334 266.048 191.665 264.464 192.744 263.014C193.317 261.565 191.918 260.166 191.345 258.902C189.575 256.947 189.508 253.913 188.311 251.317ZM95.8118 291.145C95.9466 291.145 96.0646 291.145 96.132 291.145C96.8905 291.347 97.4636 291.971 97.4636 292.797C97.4636 293.673 96.7051 294.432 95.8118 294.432C95.6938 294.432 95.559 294.432 95.4915 294.432C94.7331 294.246 94.16 293.623 94.16 292.797C94.16 291.903 94.9353 291.145 95.8118 291.145ZM83.2212 283.122C84.0977 283.122 84.8562 283.881 84.8562 284.757C84.8562 285.65 84.0977 286.409 83.2212 286.409C82.5133 286.409 81.9571 285.971 81.7043 285.397C81.6369 285.212 81.5695 284.959 81.5695 284.757C81.5695 283.881 82.3279 283.122 83.2212 283.122ZM78.1479 278.942C78.5862 277.122 81.7549 277.24 81.7043 279.701C82.6482 281.285 80.929 282.684 79.6649 282.178C79.3615 282.043 79.1087 281.858 78.839 281.47C78.1479 280.408 78.03 279.583 78.1479 278.942ZM111.891 308.91C111.824 308.977 111.706 308.977 111.638 309.045C110.695 309.416 109.481 309.618 108.79 309.045C108.47 308.792 108.284 308.404 108.217 307.781C108.217 307.713 108.217 307.713 108.217 307.646C108.284 306.584 109.228 306.129 110.189 306.011C110.627 305.758 111.2 305.691 111.638 305.758C112.077 305.876 112.464 306.129 112.65 306.584C112.65 306.635 112.717 306.635 112.717 306.702C113.105 307.595 112.717 308.607 111.891 308.91ZM119.813 298.544C119.358 300.381 117.723 305.573 115.127 303.854C114.807 303.668 114.672 303.348 114.554 302.977C114.419 302.539 114.419 302.084 114.672 301.713C114.925 301.072 115.566 300.769 115.751 300.129C116.004 299.556 116.206 299.117 116.324 298.679C116.392 298.477 116.459 298.291 116.509 298.106C116.577 297.668 116.762 297.28 117.15 297.027C117.335 296.909 117.47 296.774 117.656 296.774C118.734 296.404 119.998 297.348 119.813 298.544ZM67.0743 56.3237C67.4451 57.0822 67.8328 57.7901 68.3384 58.4137C68.8441 59.2396 69.4846 59.9306 70.0408 60.7565C70.1756 60.9419 70.2936 61.1273 70.4284 61.3296C70.6813 61.7004 70.9341 62.1386 71.1195 62.5263C71.6925 63.4701 72.2656 64.3634 73.2095 64.9197C74.8613 65.4927 76.2433 66.5714 77.5749 67.5827C79.6143 67.2119 80.2379 69.3525 81.1818 70.684C82.0077 71.8807 83.019 72.892 83.8449 74.0381C85.4966 76.6169 87.2664 79.1451 89.3564 81.4374C89.6092 81.7408 89.862 82.1284 90.1149 82.4992C90.6205 83.2577 91.1261 84.0836 91.5644 84.9095C91.7666 85.2297 91.952 85.4825 92.1374 85.7859C92.3397 86.1062 92.5251 86.359 92.7779 86.6792C93.9072 88.2636 95.3061 89.6457 96.1994 91.4154C96.7051 92.3593 97.2107 93.32 97.649 94.3313C98.9131 97.1798 99.9918 100.146 101.576 102.792C103.026 104.697 104.677 106.467 105.942 108.557C108.537 112.922 111.386 117.153 114.807 120.878C114.925 121.08 115.06 121.198 115.195 121.383C115.38 120.878 115.566 120.439 115.751 120.001C117.015 116.647 118.92 113.613 121.195 110.9C124.178 107.293 127.785 104.057 131.274 101.023C131.392 100.905 131.578 100.77 131.713 100.652C131.831 100.517 131.965 100.466 132.083 100.332C136.516 96.4719 141.455 93.32 146.208 89.8985C146.343 89.8311 146.46 89.7131 146.595 89.6457C148.989 88.1962 151.652 87.1849 154.18 85.9208C157.349 84.269 160.585 82.7521 163.872 81.4374C164.242 81.2351 164.63 81.1171 165.018 80.9317C168.557 79.4654 172.097 78.0158 175.771 76.8192C178.046 76.0607 180.339 75.3528 182.681 74.7966C184.569 74.3415 186.474 73.7853 188.378 73.3976C189.39 73.2122 190.468 73.0774 191.53 73.0774C193.755 72.892 195.963 72.5212 198.188 72.2684C198.626 72.2009 199.064 72.1335 199.519 72.1335C199.705 72.1335 199.89 72.1335 200.143 72.0661C201.407 72.0155 202.671 72.0661 203.952 72.0661C202.115 68.6614 200.328 65.1725 198.761 61.633C198.508 61.0768 198.255 60.5711 198.053 59.9981C197.109 57.4698 196.098 55.009 194.581 52.7168C191.665 47.7952 189.575 42.4185 186.474 37.5474C184.451 34.5136 184.064 30.8561 182.479 27.5525C180.962 24.0804 179.193 20.6758 177.996 17.0688C177.861 16.934 177.743 16.816 177.676 16.6812C176.715 16.934 175.704 17.2542 174.76 17.5745C174.507 17.6419 174.187 17.7599 173.934 17.8273C173.243 18.0801 172.602 18.4004 171.979 18.7038C171.726 18.8386 171.524 18.9566 171.271 19.0914C170.715 19.4117 170.142 19.7151 169.568 19.9679C168.237 20.423 166.838 20.7263 165.574 21.4342C164.512 21.805 163.484 22.1927 162.422 22.6309C159.692 23.7096 156.978 24.8389 154.315 26.103C153.422 26.5412 152.478 26.9289 151.584 27.4346C150.826 27.8054 150 28.2604 149.242 28.6312C148.55 29.0189 147.91 29.3391 147.219 29.71C146.393 30.1482 145.635 30.6033 144.876 31.1089C143.865 31.6145 142.854 32.1202 141.842 32.6764C140.949 33.182 140.073 33.6371 139.179 34.1428C138.033 34.7664 136.971 35.4069 135.825 35.9631C132.286 37.5474 128.729 39.1318 125.257 40.9015C122.341 42.0982 119.493 43.4298 116.712 44.9467C115.751 45.3849 114.875 45.84 113.981 46.2782C112.464 47.0367 110.947 47.7952 109.43 48.5536C108.537 48.9919 107.711 49.4301 106.835 49.8177C106.329 50.0706 105.824 50.3234 105.318 50.5762C102.655 51.9077 100.127 53.3573 97.531 54.8068C96.25 55.5147 94.9353 56.2731 93.6038 56.8968C90.6205 58.5485 87.7046 60.1835 84.7382 61.8352C84.8056 61.8858 84.9236 61.9532 84.991 62.088C85.4966 62.3409 85.8674 62.7117 86.3225 63.0993C86.8282 63.5376 87.2664 64.0432 87.772 64.5489C87.9069 64.6668 88.0249 64.8017 88.1597 64.9197C89.3564 66.0658 90.1823 67.3973 91.0082 68.7794C92.2723 70.1109 93.469 71.2571 94.4803 72.5717C95.441 73.7179 96.1994 74.982 96.7557 76.4989C96.8231 76.8192 96.9579 77.1225 97.1433 77.4428C97.531 78.3361 98.1546 79.0946 98.9131 79.7856C99.8738 80.7969 99.3007 81.9936 98.4074 82.4487C97.9692 82.6341 97.4636 82.7015 96.9579 82.3812C96.8231 82.3138 96.7051 82.1958 96.5703 82.1284C94.1094 80.3587 93.9072 77.19 92.1374 74.9146C91.8172 74.5943 91.5138 74.2235 91.1261 73.9033C90.1823 72.892 89.289 71.7627 88.2777 70.802C86.9462 68.6614 85.0584 66.0658 82.8336 64.7343L82.7662 64.6668C82.3279 64.296 82.0751 63.8578 82.0077 63.4027C81.5021 63.7904 80.9964 64.1106 80.4908 64.414C79.9851 64.7343 79.3615 64.8691 78.721 64.9197C78.5356 64.9197 78.3333 64.9197 78.1479 64.9197C77.8277 64.9197 77.5243 64.8691 77.2715 64.8017C76.7658 64.8691 76.3782 64.8017 75.94 64.6668C75.5523 64.5488 75.2321 64.414 74.9287 64.1612C74.3556 63.723 73.85 63.2173 73.3443 62.7117C72.7713 62.5263 72.333 61.7678 72.0802 61.3296C71.8779 61.0768 71.8274 60.8239 71.76 60.5711C71.76 60.4363 71.6925 60.3689 71.6925 60.2509C71.6925 59.3576 72.451 58.5991 73.3443 58.5991C73.9679 58.5991 74.4736 58.9193 74.7264 59.3576C74.7938 59.4924 74.9287 59.5598 74.9792 59.6778C75.5523 60.3183 76.1928 60.8239 76.8164 61.4476C77.2715 61.3801 77.6423 61.515 78.0805 61.5824C78.2154 61.5824 78.3333 61.633 78.4682 61.633C78.6536 61.5824 78.839 61.515 78.9738 61.4476C79.412 61.2622 79.7997 60.9419 80.1705 60.6217C80.3728 60.5037 80.5582 60.3689 80.7436 60.2509C84.4179 58.2957 88.0249 56.1383 91.6992 54.1831C99.6041 49.8177 107.593 45.5872 115.751 41.7949C118.802 40.0757 122.088 38.8115 125.257 37.2946C126.336 36.671 127.398 36.1653 128.476 35.6597C129.623 35.1541 130.769 34.6484 131.898 34.1428C132.589 33.8225 133.297 33.5023 133.988 33.2495C134.679 32.8787 135.319 32.491 136.011 32.1202C137.342 31.3617 138.606 30.6033 140.005 29.8448C140.696 29.4571 141.455 29.0863 142.213 28.7661C144.758 27.2491 147.286 25.8502 149.882 24.5861C154.18 22.4961 158.545 20.4735 163.113 18.9566C163.872 18.6532 164.697 18.2655 165.456 17.9453C166.214 17.6419 167.04 17.3891 167.799 17.1868C171.018 15.4845 174.507 14.035 178.114 13.3945C178.299 13.1417 178.501 12.9563 178.552 12.636C178.249 12.0124 177.861 11.4393 177.541 10.7989C176.412 8.59087 175.333 6.24805 173.934 4.17491C172.67 4.10749 171.473 4.29289 170.327 4.61314C169.956 4.73112 169.501 4.86596 169.13 4.98394C165.136 6.45031 161.208 8.22006 157.163 9.60216C152.848 11.4393 148.483 13.1417 144.118 14.9114C141.707 15.8722 139.365 16.8834 136.971 17.8273C136.078 18.2655 135.252 18.7038 134.376 19.1588C133.229 19.7151 132.033 20.2207 130.887 20.7938C129.623 21.3668 128.291 21.9399 127.027 22.4455C124.499 23.5748 121.903 24.4681 119.307 25.53C115.566 27.2491 111.959 29.1369 108.217 30.9066C103.599 33.2495 98.8457 35.1541 94.2949 37.5474C89.6092 39.7554 84.991 42.0982 80.3728 44.3231C77.6423 45.6377 74.9287 46.9019 72.1982 48.048C71.6251 48.3682 71.1195 48.739 70.6138 49.1267C69.1643 50.256 67.7654 51.6549 65.8608 52.1606C65.8608 52.2111 65.8608 52.2111 65.8608 52.2785C65.608 53.6775 66.063 55.009 66.8215 56.2057C66.9395 56.1383 67.0069 56.2057 67.0743 56.3237ZM107.02 98.309C107.02 97.4326 107.779 96.6741 108.672 96.6741C109.548 96.6741 110.307 97.4326 110.307 98.309C110.307 99.2024 109.548 99.9608 108.672 99.9608C107.779 99.9608 107.02 99.2024 107.02 98.309ZM99.9918 88.0613C99.9918 87.8759 100.059 87.6905 100.127 87.5051C100.312 86.932 100.818 86.5444 101.441 86.4938C102.014 86.4264 102.655 86.6118 103.026 87.05C103.16 87.2523 103.278 87.5051 103.346 87.7579C103.852 88.3816 104.357 88.9546 104.863 89.5782C105.318 90.0839 105.756 90.657 106.194 91.1626C106.38 91.348 106.447 91.6008 106.515 91.8031C106.885 93.32 104.812 94.6515 103.531 93.1852C102.975 92.4941 102.335 91.7357 101.762 91.0446C100.936 90.2187 99.9918 89.3254 99.9918 88.0613ZM70.4284 52.5988C71.0015 53.5427 71.5071 54.5034 72.1982 55.3798C72.1982 55.3798 72.1982 55.3798 72.1982 55.4473C73.0915 56.6439 72.1308 57.9755 71.0521 58.0935H71.0015C70.9341 58.0935 70.8667 58.0935 70.7487 58.0935C70.6813 58.0935 70.6138 58.0935 70.6138 58.0935C70.5464 58.0935 70.4959 58.0935 70.4284 58.0429C70.361 58.0429 70.2936 57.9755 70.2936 57.9755C70.243 57.9755 70.1756 57.9081 70.1082 57.9081C70.0408 57.8406 69.9902 57.8406 69.9228 57.7901C69.8554 57.7901 69.8554 57.7227 69.788 57.7227C69.7374 57.6552 69.67 57.5878 69.6026 57.5372C69.5351 57.4698 69.5351 57.4698 69.4846 57.4024C68.7261 56.2731 67.6474 55.127 67.3272 53.7955C67.1923 52.2111 69.4171 51.2673 70.4284 52.5988ZM257.18 183.409C257.062 181.134 256.489 178.993 255.612 176.903C255.545 176.718 255.477 176.515 255.41 176.397C254.466 173.684 253.522 170.953 252.376 168.24C252.191 168.105 251.988 167.987 251.803 167.801C251.618 167.481 251.365 167.228 250.977 167.161C250.606 167.043 250.286 166.976 249.915 166.976C249.595 166.908 249.207 166.841 248.887 166.79C248.837 166.79 248.702 166.723 248.634 166.723C248.331 166.537 248.011 166.335 247.691 166.15C246.999 165.779 246.292 165.459 245.483 165.324C240.477 164.262 235.403 164.38 230.414 165.138C230.212 165.138 230.094 165.206 229.909 165.206C229.706 165.206 229.521 165.273 229.268 165.273C227.313 165.459 225.408 165.829 223.571 166.285C222.425 166.588 221.363 166.908 220.217 167.346C219.964 167.414 219.779 167.481 219.526 167.599C218.06 168.054 216.543 168.358 215.144 168.931C214.638 169.116 214.2 169.318 213.694 169.622C213.627 169.757 213.509 169.891 213.374 170.009C212.616 170.768 211.099 170.515 210.711 169.436C210.66 169.251 210.66 169.116 210.593 168.931C210.408 166.537 214.385 165.779 216.172 165.138C216.678 165.02 217.183 164.818 217.74 164.7C219.324 164.195 220.841 163.689 222.375 163.183C222.678 163.048 222.998 162.998 223.318 162.863C228.122 161.987 233.061 161.161 237.948 161.228C239.078 161.228 240.156 161.279 241.303 161.413C243.898 161.666 246.679 161.852 249.022 163.048C249.342 163.251 249.663 163.436 249.966 163.621C250.101 163.621 250.219 163.621 250.421 163.689C250.286 163.369 250.168 163.116 250.033 162.796V162.745C248.382 159.323 247.37 155.599 245.786 152.11C244.522 149.784 243.258 147.441 242.128 145.031C240.915 142.637 239.398 140.362 238.066 138.086C236.735 135.744 235.656 133.333 234.459 130.94C233.263 128.665 231.931 126.389 230.92 124.046C230.532 123.22 230.094 122.395 229.656 121.636C229.588 121.518 229.521 121.383 229.454 121.265C229.015 120.439 228.51 119.614 228.004 118.804C227.819 118.804 227.616 118.855 227.431 118.855C226.352 118.855 225.156 118.67 224.262 118.602C223.959 118.602 223.689 118.552 223.504 118.552C222.493 118.552 221.549 118.602 220.47 118.67C218.886 118.855 217.301 119.108 215.717 119.428C214.588 119.681 213.509 119.934 212.43 120.119C205.722 121.198 199.199 123.541 192.929 126.254C189.255 127.518 185.648 129.035 182.226 130.94C180.136 132.019 177.996 132.963 175.956 134.227C168.625 138.963 160.956 144.272 154.753 150.728C154.5 150.98 154.247 151.301 153.995 151.553C153.607 151.924 153.304 152.312 152.983 152.683L152.916 152.75C151.146 154.705 149.562 156.795 148.112 159.003C147.152 160.52 146.275 162.037 145.449 163.621C145.517 163.807 145.567 164.009 145.567 164.195C145.567 164.768 145.264 165.206 144.809 165.526C144.876 165.644 144.944 165.779 145.011 165.897C145.264 166.402 145.567 166.976 145.82 167.481C145.887 167.599 145.955 167.734 146.022 167.852C146.393 168.492 146.781 169.184 147.219 169.824C147.859 170.768 148.55 171.661 149.242 172.538C150.758 174.375 152.343 176.145 153.742 178.032C155.899 180.813 157.349 184.049 159.186 187.016C161.208 189.797 163.433 192.46 165.388 195.241C166.282 196.438 167.108 197.702 167.799 199.033C167.984 199.286 168.119 199.539 168.304 199.792C170.142 202.691 172.164 205.539 174.119 208.455C174.945 209.652 175.704 210.849 176.462 212.113C176.715 212.433 176.917 212.821 177.17 213.124C178.181 214.523 179.26 215.855 180.457 217.119C179.26 211.86 179.378 206.433 180.457 201.174C180.642 200.298 180.844 199.472 181.03 198.646C182.361 193.589 184.451 188.347 188.311 184.741C188.496 184.488 188.682 184.235 188.884 183.982C189.187 183.611 189.44 183.156 189.761 182.785C189.693 182.785 189.575 182.718 189.508 182.718C189.44 182.718 189.39 182.718 189.322 182.651C189.187 182.583 189.002 182.465 188.884 182.33C186.727 180.004 183.996 178.235 182.041 175.757C181.35 174.56 182.361 173.178 183.558 173.229C183.811 173.229 184.064 173.296 184.316 173.482C186.541 175.757 189.002 177.729 191.227 180.004C191.412 180.19 191.53 180.375 191.598 180.561C192.356 179.684 193.182 178.926 194.008 178.167C194.075 178.1 194.126 178.032 194.193 177.982C194.379 177.847 194.514 177.662 194.699 177.527C194.884 177.341 195.087 177.156 195.339 177.021C195.592 176.836 195.913 176.718 196.283 176.718C196.469 176.718 196.671 176.718 196.856 176.768C197.935 177.156 198.441 178.673 197.48 179.549C196.351 180.51 195.407 181.521 194.328 182.533C194.379 182.533 194.379 182.465 194.446 182.465C194.514 182.465 194.514 182.398 194.581 182.398C192.929 183.915 191.985 186.072 190.401 187.589C189.255 188.786 188.378 190.05 187.553 191.449C185.648 194.668 184.569 198.393 183.743 202.067C183.558 203.079 183.373 204.157 183.238 205.219C182.934 207.95 182.934 210.731 183.238 213.444C183.491 215.467 183.878 217.489 184.502 219.445C184.889 219.697 185.075 220.018 185.142 220.405C185.277 220.844 185.142 221.282 184.957 221.669C185.075 221.855 185.21 221.99 185.328 222.175L185.395 222.242C187.62 224.383 190.266 226.085 193.249 227.046C194.581 227.484 196.031 227.805 197.429 227.855C198.812 228.057 200.21 228.108 201.609 228.108C202.418 228.108 203.312 228.108 204.138 228.108C205.149 227.99 206.093 227.805 207.054 227.552C208.756 227.164 210.458 226.658 212.11 226.153C212.363 226.035 212.683 226.035 213.003 226.085C213.121 226.085 213.256 226.153 213.307 226.22C214.2 225.833 215.093 225.462 216.037 225.142C215.211 224.568 214.453 224.012 213.762 223.304C213.442 223.001 213.121 222.681 212.801 222.36C211.672 221.484 210.526 220.591 209.514 219.512C208.823 218.939 208.065 218.383 207.306 217.81C206.733 217.371 206.093 216.916 205.587 216.411C205.082 215.972 204.643 215.602 204.205 215.147C204.138 215.096 204.07 215.029 204.003 215.029C203.497 214.59 203.059 214.135 202.621 213.765C202.368 213.579 202.115 213.326 201.862 213.006C201.475 212.5 201.154 211.927 201.222 211.354C201.222 211.051 201.407 210.731 201.66 210.41C201.475 208.826 201.66 207.191 201.913 205.607C202.166 203.904 202.233 202.185 202.874 200.618C203.75 198.46 204.643 196.252 205.907 194.23C205.975 193.724 206.295 193.269 206.733 193.016C206.986 192.645 207.306 192.325 207.61 192.005C208.25 191.246 208.891 190.623 209.582 189.982C211.031 188.668 212.683 187.454 214.335 186.325C214.335 186.325 214.385 186.325 214.385 186.257C214.453 186.257 214.453 186.19 214.52 186.19C215.279 185.684 216.105 185.128 216.863 184.623C216.981 184.555 217.048 184.488 217.183 184.42C218.818 183.476 220.655 183.038 222.56 183.156C224.768 183.224 226.925 182.853 229.15 183.038C234.459 183.915 238.96 184.673 240.729 189.544C240.982 190.235 241.168 191.061 241.303 192.005C241.994 194.735 243.19 197.264 244.404 199.792C245.162 201.376 245.921 202.893 246.544 204.461C246.932 205.421 247.252 206.365 247.623 207.309C249.207 205.607 250.792 203.904 252.444 202.185C254.652 199.606 255.865 196.37 256.876 193.084C257.129 192.325 257.315 191.567 257.567 190.808C257.888 188.213 257.567 185.752 257.18 183.409ZM170.074 163.503C168.877 162.29 167.664 161.161 166.535 160.015C165.321 158.818 164.124 157.554 162.978 156.155C162.54 155.599 161.916 155.025 161.276 154.385C160.703 153.829 160.265 153.188 160.079 152.565C160.012 152.244 160.012 151.857 160.13 151.553C160.838 149.969 162.86 150.34 163.433 151.806C164.95 153.441 166.332 155.025 167.799 156.542C168.81 157.621 169.889 158.7 170.967 159.762C171.406 160.217 171.911 160.655 172.349 161.093C172.67 161.413 172.805 161.734 172.855 162.037C173.108 163.436 171.338 164.768 170.074 163.503ZM179.445 170.195C179.311 170.397 179.193 170.582 178.94 170.768C178.299 171.274 177.49 171.206 176.917 170.768C176.782 170.7 176.715 170.582 176.597 170.448C176.529 170.33 176.462 170.262 176.344 170.195C176.091 169.942 175.771 169.757 175.518 169.571C175.198 169.251 174.895 168.931 174.945 168.358C174.945 168.054 175.013 167.801 175.147 167.599C175.333 167.228 175.704 166.908 176.159 166.79C176.85 166.588 177.794 166.79 178.299 167.481C178.619 167.734 178.94 168.054 179.125 168.358C179.563 168.863 179.766 169.571 179.445 170.195ZM205.722 173.482C205.014 173.734 204.323 174.24 203.565 174.307C202.874 174.307 202.3 173.869 202.048 173.296C201.98 173.111 201.913 172.858 201.913 172.672C201.913 172.217 202.115 171.847 202.418 171.526C202.621 171.341 202.806 171.206 203.059 171.088C203.885 170.7 204.829 170.144 205.655 170.33C206.042 170.397 206.413 170.65 206.733 171.206V171.274C206.986 172.167 206.548 173.111 205.722 173.482ZM65.4226 211.557C65.9956 211.422 66.5013 211.236 67.0743 211.101C69.788 210.41 72.5184 209.719 75.2995 209.214C76.5636 208.961 77.8951 208.826 79.1592 208.708C80.0525 208.641 80.8784 208.573 81.7549 208.506C83.5246 208.388 85.3112 208.388 87.1484 208.455C88.0923 208.455 89.1036 208.506 90.0474 208.641C91.7666 208.641 93.469 208.641 95.1882 208.893C96.7557 209.028 98.2894 209.332 99.739 209.837C99.8064 209.837 99.9244 209.905 99.9918 209.905C100.312 210.04 100.565 210.09 100.885 210.225C101.138 210.292 101.323 210.41 101.576 210.478C101.762 210.545 101.896 210.596 102.082 210.663C102.469 210.798 102.773 210.983 103.093 211.101C103.16 211.101 103.16 211.101 103.16 211.169C104.61 211.86 106.076 212.618 107.458 213.377C106.7 212.18 105.824 211.101 105.065 209.837C105.065 209.787 104.998 209.787 104.998 209.719C101.829 204.41 97.1433 200.23 92.8453 195.932C91.1936 194.028 89.2216 192.511 87.5866 190.623C86.9462 190.05 86.4405 189.477 85.8674 188.921C85.4966 188.668 85.1764 188.465 84.9236 188.213C84.7382 188.213 84.5528 188.213 84.3505 188.162H84.2999C83.9797 188.095 83.7269 188.027 83.4741 187.842C82.7156 187.404 82.21 186.578 81.7549 185.887C81.5021 185.432 81.1818 185.128 80.7436 184.875C79.6143 184.049 78.03 183.729 76.8164 182.903C74.8613 181.959 72.8387 180.948 70.7487 180.19C67.8328 179.549 64.7989 179.111 61.8156 178.858C59.1526 178.605 56.6243 177.594 53.9613 177.409C45.2979 176.768 36.1795 177.156 28.2071 181.016C22.6282 183.038 20.4708 188.921 16.6784 192.898C14.9761 195.174 13.0041 197.264 11.6051 199.792C10.0376 202 8.70611 204.208 8.20047 206.871C7.88023 209.652 6.68353 212.113 5.90821 214.776C5.46999 218.13 5.09918 221.467 5.21716 224.889C5.14974 229.069 5.72281 233.232 6.04305 237.344C6.68353 239.502 7.12176 241.71 7.99821 243.665C9.32974 246.008 10.5433 248.469 12.6333 250.238C13.4423 250.811 14.2008 251.384 15.0267 251.89C17.5043 253.474 20.0325 254.991 22.3079 256.879C22.6956 257.199 23.0158 257.452 23.3192 257.823C23.4541 256.812 23.6395 255.868 23.8249 254.924C24.0271 253.66 24.4654 252.396 24.9036 251.25C25.2238 250.373 25.6621 249.547 26.0497 248.721C26.6228 247.66 27.1958 246.581 27.752 245.57C28.2071 244.744 28.6454 243.918 29.0836 243.092C29.9769 241.575 30.9208 240.125 31.8646 238.676C32.5051 237.732 33.1456 236.721 33.7692 235.76C33.8366 235.709 33.9041 235.575 33.9546 235.507C34.7131 234.496 35.539 233.552 36.2974 232.608C35.9266 232.221 35.539 231.9 35.2356 231.529C34.8479 231.142 34.5277 230.771 34.2074 230.383C33.5164 229.625 32.8928 228.816 32.2523 228.057C31.5612 227.164 30.8028 226.22 30.0443 225.327C29.9095 225.142 29.7241 224.956 29.5892 224.821C29.4712 224.636 29.269 224.45 29.151 224.198C28.6454 223.507 28.0723 222.546 28.0049 221.737C27.9543 221.096 28.2071 220.456 28.9656 220.085C29.9769 219.647 30.7353 220.152 31.1736 220.962C31.1736 221.029 31.241 221.096 31.241 221.164C31.359 221.349 31.4264 221.602 31.5612 221.855C33.6512 224.636 35.7918 227.349 38.202 229.878C39.5336 227.923 40.6123 225.782 42.7023 224.383C47.1856 219.512 52.8826 216.158 59.0346 213.765C61.31 212.871 63.3326 212.18 65.4226 211.557ZM27.9543 217.877C27.7015 218.062 27.3812 218.18 27.061 218.18C26.1677 218.18 25.3587 217.557 25.3587 216.613C25.3587 216.04 25.6115 215.534 26.0497 215.214C26.3025 215.029 26.6228 214.894 26.9262 214.894C27.8195 214.894 28.6454 215.602 28.6454 216.478C28.6454 217.051 28.3925 217.557 27.9543 217.877ZM8.06563 191.128C8.50385 191.499 8.75667 192.072 8.63869 192.831C8.31845 194.23 7.23974 195.359 6.93635 196.825C6.86893 197.011 6.86893 197.196 6.86893 197.449C6.80152 197.702 6.86893 197.887 6.86893 198.09C6.98692 198.713 7.37458 199.354 7.69482 199.977C7.94764 199.539 8.25103 199.101 8.57127 198.713C10.9815 194.28 14.7738 190.876 17.5043 186.696C18.7684 184.875 20.1 183.038 21.7349 181.454C19.7123 181.892 17.9425 183.106 16.2908 184.235C16.2402 184.302 16.1054 184.37 16.038 184.42C15.92 184.488 15.7851 184.623 15.6671 184.623C14.5884 185.128 13.1895 184.37 13.2569 183.156C13.2569 182.971 13.3243 182.785 13.3917 182.583C13.3917 182.533 13.4423 182.465 13.4423 182.398C13.83 181.774 14.6559 181.386 15.2795 180.948C15.2795 180.948 15.2795 180.948 15.3469 180.948C16.1054 180.375 16.9313 179.937 17.7571 179.499C17.6223 179.499 17.5043 179.499 17.3695 179.499C16.7964 179.684 16.2402 179.937 15.6671 180.19C15.5323 180.257 15.4143 180.308 15.2289 180.375C14.2682 180.813 13.1389 180.948 12.1782 181.454C11.8748 181.639 11.6051 181.825 11.3523 182.077C11.1669 182.28 11.0489 182.465 10.8467 182.718C9.9028 183.797 8.75667 184.741 7.74539 185.752C7.6274 185.887 7.49256 185.937 7.442 186.072C7.30716 186.19 7.18918 186.392 7.05434 186.51C5.352 188.786 4.27329 191.449 4.08789 194.28C4.13846 194.348 4.20587 194.483 4.27329 194.533C4.52612 193.977 4.77894 193.522 5.03176 193.016C5.09918 192.898 5.21716 192.713 5.28458 192.578C5.40257 190.69 7.12176 190.37 8.06563 191.128ZM10.0882 184.808C10.2905 184.808 10.4759 184.808 10.5938 184.808C11.74 184.993 12.431 186.645 11.5546 187.589C11.3523 188.921 9.64998 189.426 8.70611 188.668C8.45329 188.465 8.25103 188.162 8.13305 187.909C8.13305 187.842 8.13305 187.842 8.06563 187.774C7.99821 187.707 8.06563 187.707 7.99821 187.656C7.94764 186.443 8.95893 185.061 10.0882 184.808Z" fill="#DFDCC2"/>
</g>
<path d="M247.319 220.708C247.319 219.899 247.252 219.006 247.117 218.18C246.864 218.129 246.679 218.062 246.426 217.995C246.039 217.877 245.668 217.742 245.347 217.674C245.229 217.674 245.027 217.674 244.909 217.674C244.656 217.742 244.404 217.742 244.151 217.674C244.083 217.674 243.949 217.674 243.831 217.674C243.578 217.674 243.257 217.674 243.005 217.674C242.937 217.674 242.887 217.674 242.752 217.674C241.673 217.742 240.594 217.809 239.651 218.18C239.533 218.433 239.33 218.568 239.145 218.753C238.892 218.938 238.572 219.073 238.252 219.073C238.134 219.073 237.999 219.073 237.881 219.006C237.813 219.006 237.813 219.006 237.746 219.006C237.746 219.006 237.746 219.006 237.695 219.006C237.308 218.888 236.937 218.568 236.735 218.18L236.667 218.062C235.471 215.348 239.33 214.522 241.741 214.388C240.797 212.685 239.903 211.05 239.583 209.078C239.533 208.505 239.718 208.067 239.971 207.747C240.729 206.938 242.246 207.056 242.752 208.202C242.819 208.387 242.887 208.573 242.937 208.826C243.443 210.848 244.589 212.567 245.533 214.337C245.853 214.337 246.173 214.388 246.494 214.455C245.482 210.292 243.645 206.297 241.859 202.32C241.235 200.921 240.594 199.606 240.038 198.207C239.785 197.516 239.465 196.875 239.145 196.184C239.077 195.999 239.01 195.864 238.959 195.679C238.639 194.988 238.319 194.229 238.134 193.471C237.999 192.965 237.948 192.51 237.813 192.004C237.561 190.808 237.24 189.611 236.549 188.6C235.909 187.959 235.15 187.521 234.341 187.201C233.886 187.015 233.448 186.897 233.01 186.763C232.622 186.695 232.251 186.645 231.864 186.51C231.678 186.442 231.543 186.442 231.358 186.392C231.611 186.897 231.864 187.336 232.116 187.841C234.341 191.819 237.24 195.493 238.572 199.909C239.01 201.747 236.735 202.64 235.723 201.426C235.605 201.241 235.471 201.055 235.403 200.803C234.965 199.218 234.206 197.701 233.381 196.319C232.689 195.038 231.864 193.842 231.105 192.578C230.347 191.381 229.656 190.235 229.015 188.971C228.577 187.959 227.751 186.948 227.498 185.886L227.431 185.819C226.167 185.819 224.903 185.937 223.638 185.937C223.571 185.937 223.571 185.937 223.504 185.937C223.183 185.937 222.931 185.937 222.678 185.886C219.897 185.819 218.245 186.948 215.97 188.6C215.902 188.667 215.852 188.718 215.717 188.785C215.717 188.785 215.649 188.853 215.599 188.853C213.947 190.184 212.11 191.313 210.711 192.898C210.66 192.965 210.66 192.965 210.593 193.016C210.273 193.403 209.952 193.774 209.649 194.162L209.7 194.229C213.003 196.825 216.037 199.791 218.953 202.758C219.071 202.893 219.273 203.078 219.391 203.196C220.217 203.955 221.043 204.78 221.869 205.539C222.56 206.179 223.436 206.736 223.756 207.747C223.824 208 223.891 208.32 224.009 208.573C224.009 208.64 224.077 208.775 224.077 208.826C224.144 209.078 224.262 209.281 224.397 209.466C224.903 210.225 224.835 211.236 224.077 211.809C223.436 212.247 222.56 212.247 221.987 211.741C221.919 211.674 221.801 211.607 221.734 211.489C221.666 211.354 221.616 211.236 221.481 211.168C221.161 210.663 220.908 210.157 220.723 209.584C220.655 209.331 220.537 209.146 220.47 208.893C218.06 206.87 215.852 204.595 213.627 202.387C212.042 200.803 210.407 199.218 208.57 197.836C208.317 197.583 207.93 197.331 207.61 197.078L207.559 197.01C206.8 198.46 206.16 199.909 205.587 201.494C205.654 201.561 205.654 201.629 205.722 201.747C206.666 202.387 207.677 202.943 208.688 203.584C210.34 204.595 211.857 205.724 213.003 207.241C213.121 207.443 213.256 207.629 213.374 207.814C213.829 208.64 213.576 209.399 213.003 209.904C212.936 209.972 212.868 210.039 212.75 210.09C212.042 210.477 211.031 210.477 210.458 209.533C209.143 207.629 206.986 206.483 205.081 205.353C205.014 205.286 204.963 205.286 204.896 205.219C204.761 205.977 204.711 206.736 204.576 207.494C204.508 208 204.576 208.505 204.576 209.078C204.576 209.584 204.508 210.09 204.255 210.545C205.907 212.315 207.744 213.764 209.582 215.281C210.34 215.905 211.166 216.478 211.924 217.118C213.509 218.382 215.026 219.697 216.425 221.163C217.621 222.175 219.071 222.866 220.335 223.809C221.919 224.956 223.251 226.405 224.835 227.484L224.903 227.551C224.97 227.602 225.088 227.737 225.155 227.804C225.155 226.658 225.476 225.529 225.981 224.821C226.167 224.517 226.419 224.197 226.672 223.877C224.397 221.669 221.043 220.59 219.206 217.995C218.7 216.798 219.273 215.854 220.082 215.534H220.15C220.217 215.534 220.335 215.466 220.402 215.466C221.161 215.281 221.987 215.601 222.374 216.663C223.436 217.809 227.498 219.764 229.15 221.669C230.094 220.91 231.291 221.467 231.678 222.36C231.931 222.933 231.864 223.557 231.291 224.13C230.599 224.77 229.841 225.326 229.268 225.967C229.015 226.287 228.83 226.591 228.695 226.911C228.509 227.416 228.442 227.989 228.695 228.681C229.201 228.681 229.588 228.866 229.841 229.186C230.212 229.624 230.414 230.332 230.212 230.889C230.97 231.023 231.746 230.956 232.437 231.023C232.622 231.023 232.807 231.023 233.01 231.023C234.594 230.889 236.162 230.518 237.628 229.945C238.959 229.372 240.156 228.613 241.302 227.737C241.42 227.669 241.555 227.551 241.606 227.484C242.819 226.658 244.016 225.899 244.909 224.77C244.977 224.635 245.095 224.568 245.229 224.45C245.347 224.383 245.415 224.265 245.533 224.13L245.6 224.062C245.6 224.062 245.6 224.062 245.6 224.012C246.106 223.439 246.494 222.798 246.746 222.107C246.932 221.669 246.999 221.214 247.067 220.708C247.37 220.776 247.37 220.776 247.319 220.708ZM215.346 214.017C215.211 214.017 215.093 214.017 215.026 213.949C214.267 213.764 213.694 213.124 213.694 212.315C213.694 211.421 214.453 210.663 215.346 210.663C215.464 210.663 215.599 210.663 215.649 210.663C216.425 210.848 216.981 211.489 216.981 212.315C216.981 213.258 216.29 214.017 215.346 214.017ZM229.403 214.135C229.403 215.028 228.627 215.787 227.751 215.787C226.858 215.787 226.099 215.028 226.099 214.135C226.099 213.258 226.858 212.5 227.751 212.5C228.627 212.5 229.403 213.258 229.403 214.135ZM233.448 222.175C233.195 222.175 233.01 222.107 232.807 222.04C232.251 221.787 231.796 221.214 231.796 220.523C231.796 219.646 232.555 218.888 233.448 218.888C233.566 218.888 233.701 218.888 233.768 218.888C234.527 219.073 235.1 219.697 235.1 220.523C235.1 221.416 234.341 222.175 233.448 222.175ZM17.6895 127.012C16.931 125.63 16.2905 124.164 15.5995 122.714C15.5321 122.596 15.4815 122.394 15.4141 122.276C15.0938 121.585 14.5208 120.692 14.7736 119.866C15.2287 118.231 17.7569 118.349 18.0097 120.001C18.1951 120.439 18.448 120.877 18.6334 121.383C19.139 122.461 19.6615 123.608 20.1671 124.619C20.6728 124.231 21.1784 123.86 21.6841 123.473C22.1897 122.967 22.7628 122.596 23.319 122.141C23.201 122.091 23.1336 121.956 23.0662 121.888L23.0156 121.838C22.2571 120.574 21.111 119.242 20.9762 117.725C20.9762 115.703 23.9595 115.5 24.2797 117.472C24.3977 117.725 24.5325 118.029 24.7179 118.349C25.2236 119.107 25.8641 119.933 25.9821 120.759C26.6225 120.506 27.2462 120.321 27.8867 120.186C28.2069 120.119 28.4597 120.001 28.7631 119.933C30.1621 119.562 31.4936 119.175 32.9431 119.175C33.1454 119.175 33.2633 119.175 33.4487 119.175C34.0218 119.175 34.5949 119.242 35.1005 119.31C35.1679 119.31 35.2354 119.31 35.2354 119.31C37.0557 119.495 38.8423 119.866 40.612 120.321C40.2918 119.815 40.039 119.31 39.7187 118.855C38.8423 117.22 37.949 115.5 36.6174 114.118C35.9938 113.36 35.4208 112.534 34.9151 111.708C34.5275 111.152 34.2072 110.579 33.9038 110.006C33.5836 109.433 33.1959 108.877 32.8251 108.303C32.6903 108.169 32.6397 108.051 32.5049 107.916C31.4936 106.534 30.4823 105.135 29.5216 103.618C29.2688 103.18 29.0159 102.741 28.7631 102.286C28.2575 101.477 27.499 100.972 26.6731 100.651C26.0495 100.399 25.3584 100.213 24.7179 99.9603C24.2123 99.8255 23.7741 99.7581 23.2684 99.7581C21.8021 99.7075 20.3525 100.078 18.8862 100.466C18.0772 100.584 17.2513 100.769 16.4928 101.09C17.2513 102.792 17.9423 104.511 18.6334 106.213C19.2738 107.663 19.9143 109.062 20.6728 110.393C20.9256 110.832 21.1784 111.202 21.4313 111.658C21.4818 111.843 21.5492 111.961 21.5492 112.096C21.7346 113.866 19.2064 114.742 18.3805 112.922C16.4928 110.191 15.6669 106.972 14.2005 104.056C14.15 104.005 14.15 103.871 14.0826 103.803C13.8972 103.432 13.6949 102.994 13.5769 102.607C13.5095 102.674 13.4421 102.674 13.3241 102.741C12.8185 102.994 12.3802 103.247 11.8746 103.55C12.751 105.708 13.3241 108.051 14.268 110.141C15.2793 111.961 12.6836 113.545 11.4869 111.961C11.4195 111.91 11.4195 111.843 11.3521 111.776C10.4082 109.888 9.83515 107.865 9.1441 105.893C9.07668 106.028 8.9587 106.146 8.89128 106.281C8.89128 106.466 8.82386 106.601 8.82386 106.719C8.70588 107.107 8.45306 107.41 8.13281 107.612C8.45306 111.017 9.00926 114.371 9.64975 117.725C9.64975 117.776 9.64975 117.843 9.71716 117.978C10.5936 122.714 11.4195 127.518 12.3128 132.322C12.3128 132.389 12.3128 132.456 12.3802 132.524C12.8185 134.546 13.1893 136.62 13.9477 138.592C13.8297 134.732 15.7849 129.473 17.6895 127.012ZM12.9364 115.753C12.9364 114.877 13.6949 114.118 14.5882 114.118C15.0264 114.118 15.4815 114.304 15.7849 114.624C16.1051 114.944 16.2905 115.315 16.2905 115.821C16.2905 116.714 15.5321 117.472 14.6556 117.472C14.3354 117.472 14.0151 117.338 13.6949 117.22C13.2567 116.832 12.9364 116.326 12.9364 115.753ZM42.9549 126.574C42.1964 126.068 41.8762 125.125 41.3031 124.417C41.2357 124.299 41.1177 124.231 40.9828 124.113C40.6795 123.86 40.2244 123.726 39.8536 123.608C39.3479 123.473 38.7749 123.355 38.2692 123.287C38.3872 123.911 38.2692 124.619 38.0164 125.428C37.5782 126.641 36.8028 127.906 35.9264 129.035C35.0331 130.181 34.1566 131.192 33.3982 131.816C32.5723 132.524 31.6116 133.282 30.6003 134.041C30.5497 134.091 30.4823 134.159 30.3475 134.226C30.2969 134.294 30.2295 134.294 30.1621 134.344C28.3923 135.608 26.4203 136.754 24.4651 137.513C25.7292 137.698 26.1169 139.097 25.6113 139.974C25.3584 140.412 24.9034 140.8 24.2123 140.8C23.319 140.867 22.4426 140.665 21.6167 140.412C21.4818 140.412 21.3638 140.361 21.2964 140.361C20.0323 140.041 18.448 139.283 17.3187 138.204C17.3187 138.844 17.4367 139.401 17.5715 140.041C17.8243 140.294 17.9423 140.665 17.9423 141.052C17.9423 141.373 17.8749 141.676 17.7569 141.929C17.7569 141.929 17.7569 141.929 17.7569 141.996C17.6895 142.064 17.6221 142.182 17.5715 142.249C18.2626 142.384 19.021 142.434 19.8469 142.569C20.0997 142.637 20.3526 142.637 20.6728 142.755C21.4818 142.94 22.2571 143.193 23.1336 143.328C24.0775 143.328 25.0382 143.328 25.9821 143.328C28.0721 143.26 30.2295 143.008 32.2521 142.502C35.4208 141.423 37.949 139.097 39.8536 136.316C40.6795 135.17 41.7413 134.041 42.3144 132.777C42.6346 132.069 42.7695 131.31 42.6346 130.434C42.6346 129.928 42.7695 129.423 42.82 128.849C42.8874 128.462 42.9549 128.158 43.0223 127.771C43.0223 127.703 43.0223 127.585 43.0223 127.451C43.0223 127.333 43.0223 127.265 43.0223 127.147C43.0223 127.147 43.0223 127.147 43.0223 127.08C42.9549 126.945 42.9549 126.759 42.9549 126.574ZM30.2295 139.283C29.7912 139.283 29.3362 139.097 29.0833 138.777C28.8305 138.457 28.5777 138.086 28.5777 137.58C28.5777 136.687 29.3362 135.928 30.2295 135.928C30.8025 135.928 31.3082 136.249 31.6116 136.687C31.8138 136.94 31.9318 137.26 31.9318 137.631C31.8644 138.524 31.1059 139.283 30.2295 139.283ZM38.2692 133.906C37.4433 134.85 36.4995 135.743 35.741 136.434C35.2354 137.007 34.46 137.327 33.769 137.193C33.0105 137.125 32.5049 136.569 32.3195 135.996C32.1846 135.558 32.1846 135.052 32.3195 134.597C32.5723 133.973 33.1454 133.535 33.9544 133.586C34.2746 133.282 34.6623 132.962 34.9825 132.574C35.3533 132.204 35.6736 131.883 35.9938 131.513C36.2972 131.125 36.55 130.805 36.8028 130.366C37.3085 129.355 38.1344 128.462 39.2805 128.917C39.3479 128.967 39.4659 128.967 39.5333 129.035C41.4885 130.366 39.2805 132.642 38.2692 133.906Z" fill="#595552"/>
<path d="M225.846 115.197C224.902 113.68 223.891 112.096 222.93 110.579C221.043 107.107 219.964 103.247 218.194 99.7583C216.93 97.2975 215.396 94.9547 214.014 92.5613C212.548 90.0331 211.419 87.3026 210.087 84.6564C208.503 81.5551 206.8 78.5212 205.267 75.3525C205.149 75.42 204.963 75.42 204.828 75.42C204.643 75.42 204.458 75.42 204.205 75.42C202.738 75.4874 201.289 75.3525 199.772 75.4874C198.44 75.5548 197.176 75.7402 195.845 75.9256C194.833 76.0604 193.873 76.2458 192.861 76.3638C191.985 76.4312 191.092 76.4987 190.215 76.6167C188.816 76.8189 187.485 77.0043 186.153 77.3751C185.9 77.4425 185.648 77.51 185.395 77.5774C184.198 77.8302 183.052 78.1336 181.855 78.4538C179.125 79.2123 176.462 80.1056 173.816 81.0495C168.422 82.9541 163.18 85.2295 157.989 87.6228C154.938 89.2746 151.719 90.5387 148.668 92.1736C148.044 92.5613 147.471 92.9995 146.848 93.3872C141.201 97.1795 135.69 101.157 130.701 105.708C129.555 106.787 128.426 107.865 127.279 108.995C123.42 112.854 119.998 117.018 118.228 122.209C118.093 122.647 117.908 123.102 117.79 123.54C117.976 124.046 117.908 124.552 117.655 124.923C119.105 127.08 120.504 129.288 121.953 131.513C122.661 132.322 123.285 133.215 123.858 134.092C124.802 135.423 125.762 136.822 126.639 138.204C127.785 139.906 128.982 141.558 130.313 143.075C131.577 144.474 132.909 145.738 134.24 147.12C134.493 147.373 134.746 147.626 134.999 147.946C136.465 149.649 137.595 151.486 138.741 153.373C138.993 153.761 139.246 154.199 139.432 154.587C139.752 155.143 140.072 155.716 140.376 156.289C140.443 156.475 140.578 156.66 140.628 156.862C141.336 158.312 142.027 159.761 142.668 161.228C143.612 159.391 144.623 157.621 145.769 155.902C148.803 151.553 152.595 147.693 156.455 144.086C157.669 143.075 158.865 142.131 160.011 141.12C163.939 137.951 168.051 134.917 172.299 132.271C173.495 131.513 174.625 130.805 175.838 130.114C180.777 127.653 185.58 124.923 190.839 123.288C191.985 122.782 193.182 122.276 194.378 121.838C197.227 120.692 200.21 119.681 203.126 118.737C204.07 118.484 205.014 118.164 205.974 117.911C208.941 117.018 212.042 116.714 215.093 115.956C217.689 115.568 220.335 115.062 222.93 115.062C224.009 114.995 224.902 115.062 225.846 115.197C225.846 115.248 225.846 115.248 225.914 115.248C225.846 115.197 225.846 115.197 225.846 115.197ZM145.129 137.631C141.151 132.895 137.021 128.344 133.482 123.288C132.656 122.024 131.139 121.08 131.021 119.495C130.633 115.197 134.881 112.602 138.555 111.658C142.095 110.512 145.129 112.72 146.46 115.956C148.297 120.507 145.955 126.254 142.853 129.794C144.252 131.378 145.634 133.03 146.966 134.597C147.539 134.85 147.977 135.423 147.977 136.064C148.297 137.631 146.207 138.845 145.129 137.631ZM168.371 122.394C165.961 124.484 163.298 119.057 161.916 117.658C161.141 116.832 160.382 116.074 159.624 115.248C159.051 115.754 158.36 116.209 157.854 116.579C157.23 116.967 156.59 117.658 155.831 118.029C157.416 121.012 158.933 123.979 160.45 126.945C160.888 127.265 161.208 127.771 161.208 128.344C161.208 129.288 160.45 130.114 159.506 130.114C158.36 130.114 157.736 128.968 157.281 128.159C154.685 122.9 151.719 117.911 149.443 112.534C148.55 110.512 147.286 108.489 147.286 106.146C147.101 103.433 150.252 101.73 152.545 102.994C155.006 104.764 157.416 106.719 159.186 109.18C159.944 110.394 160.635 111.59 161.646 112.669C163.736 114.624 165.456 116.832 167.107 119.108C168.371 119.816 169.568 121.08 168.371 122.394ZM173.748 118.349C170.647 114.119 167.984 109.568 165.068 105.135C163.939 103.5 162.725 101.916 161.646 100.264C161.09 99.4549 160.382 98.5616 160.77 97.5503C161.208 96.3536 163.113 96.2188 163.736 97.3649C164.057 97.7357 164.191 98.1908 164.444 98.4942C168.624 104.124 172.164 110.259 176.158 116.074C176.158 116.006 176.091 116.006 176.091 116.006C176.091 115.956 176.023 115.956 176.023 115.956C177.675 117.473 175.4 119.866 173.748 118.349ZM196.974 110.512C195.777 111.59 194.699 110.647 193.755 109.753C192.861 108.877 191.85 108.118 190.771 107.36C187.299 105.068 183.49 103.5 179.883 101.41C178.113 100.079 176.411 98.6965 174.439 97.5503C177.288 102.86 181.215 107.478 184.501 112.534C186.473 113.175 185.833 116.006 183.743 115.754C182.226 115.754 181.602 114.051 180.844 112.972C178.939 110.191 176.849 107.478 174.945 104.629C172.922 101.781 171.22 98.8144 169.956 95.5278C168.995 94.0782 169.248 92.1062 171.27 92.2411C175.147 93.64 178.552 96.1682 181.788 98.6965C183.945 99.8931 186.221 100.904 188.378 102.034C187.047 100.331 186.035 98.4436 184.889 96.6739C183.49 94.3985 181.72 92.3085 180.591 89.8982C179.833 87.8757 182.799 86.6116 183.625 88.6341C184.249 89.9657 185.075 91.2298 186.035 92.359C188.429 96.2188 190.839 100.011 193.502 103.685C194.378 105.017 195.339 106.349 196.35 107.613C197.362 108.304 197.935 109.568 196.974 110.512ZM210.02 107.916C209.396 108.557 208.317 108.557 207.677 107.916C205.469 104.697 204.205 100.77 202.368 97.3649C200.396 93.6906 198.306 90.0836 196.283 86.4936C195.339 86.679 194.446 86.9318 193.569 87.37C193.182 88.0611 192.288 88.1959 191.53 88.1285C190.771 88.0611 190.148 87.6228 189.946 86.9318C189.642 85.7857 190.586 84.9766 191.53 84.6564C193.114 83.8979 194.766 83.2574 196.536 83.072C198.44 83.072 200.278 82.8192 202.165 82.8192C203.699 82.7518 206.227 82.6338 206.042 84.7744C205.907 85.6677 205.081 86.3587 204.137 86.2407C202.738 86.1059 201.289 86.1733 199.89 86.2913C203.244 92.0557 206.345 97.9886 209.076 104.056C209.699 105.202 211.284 106.601 210.02 107.916ZM143.612 118.349C143.359 116.832 142.466 115.45 141.083 114.742C140.19 114.557 139.246 114.944 138.42 115.13C136.718 115.888 134.24 116.832 134.308 119.057C134.679 119.563 135.134 120.001 135.505 120.507C137.274 122.647 138.808 125.057 140.628 127.198C142.533 124.805 144.05 121.45 143.612 118.349ZM151.011 105.893C150.96 105.893 150.893 105.893 150.826 105.893C150.758 105.893 150.758 105.893 150.708 105.893C150.708 105.893 150.708 105.893 150.708 105.961C150.708 107.916 151.904 109.635 152.663 111.338C153.236 112.602 153.809 113.866 154.382 115.13C154.938 114.624 155.579 114.237 156.084 113.866C156.522 113.546 157.096 113.04 157.601 112.72C157.163 112.163 156.775 111.523 156.404 110.832C154.888 108.927 152.983 107.36 151.011 105.893Z" fill="#ED9347"/>
<path d="M131.527 235.457C128.796 234.497 126.133 233.3 123.74 231.648C122.712 231.025 121.768 230.013 121.009 229.12C120.891 229.002 120.824 228.867 120.689 228.749C120.638 228.682 120.638 228.614 120.571 228.614C120.504 228.564 120.386 228.496 120.318 228.362C119.813 227.856 119.239 227.418 118.666 227.047C118.296 226.727 117.84 226.474 117.402 226.221C117.149 226.036 116.829 225.783 116.509 225.58C116.071 225.277 115.7 224.957 115.245 224.637C114.368 223.878 113.543 223.002 113.037 221.856C112.329 220.912 111.52 220.086 110.761 219.142C110.054 219.007 109.295 218.501 108.671 218.063C105.435 216.226 102.149 214.524 98.7946 213.125C98.4743 213.074 98.1541 212.939 97.8338 212.872C96.0641 212.434 94.2943 212.248 92.5246 212.063C91.6987 212.063 90.8728 212.063 90.0469 211.995C88.7154 211.928 87.4007 211.861 86.0692 211.743C84.2994 211.743 82.5128 211.861 80.6756 211.995C80.17 211.995 79.6643 212.063 79.1587 212.063C77.1361 212.248 75.181 212.619 73.2764 213.007C72.2651 213.26 71.2538 213.445 70.2425 213.698C69.029 214.018 67.8323 214.338 66.6356 214.642C59.1015 216.867 51.5 220.086 45.9884 225.833C45.5502 226.339 45.0446 226.727 44.5389 227.165C44.0838 227.552 43.6456 227.923 43.2074 228.362C42.2467 229.626 41.5556 231.025 40.6117 232.356C41.8084 233.873 42.8871 235.508 43.831 237.16C44.1513 237.665 44.4041 238.104 44.7243 238.609C45.1625 239.115 45.5502 239.621 45.9884 240.126C46.6795 240.952 47.3874 241.711 47.893 242.654C47.9604 242.722 47.9604 242.84 48.011 242.907C49.2751 244.559 50.5561 246.076 51.9382 247.66C52.073 247.711 52.191 247.846 52.3258 247.964C52.4438 248.099 52.5112 248.216 52.5787 248.351C53.0843 248.924 53.59 249.481 54.0282 249.986C54.0282 249.986 54.0282 249.986 54.0956 250.054C54.163 250.121 54.2136 250.189 54.281 250.239C54.4664 250.441 54.6687 250.559 54.7866 250.745C54.9215 250.88 54.972 250.998 55.1069 251.065C55.1069 251.065 55.1069 251.065 55.1069 251.132C55.1743 251.25 55.2249 251.385 55.2923 251.503C56.253 252.649 57.1969 253.728 58.343 254.79C58.3936 254.857 58.461 254.925 58.5284 254.992C59.6577 254.031 60.8712 253.088 62.0005 252.144C64.4782 250.441 66.3153 254.604 63.4669 255.245C62.641 255.936 61.8151 256.627 61.0566 257.268C61.5623 257.638 62.1353 258.026 62.641 258.397C62.7084 258.397 62.7084 258.464 62.759 258.464C62.8938 258.582 63.0792 258.717 63.2141 258.784C63.3995 258.902 63.5849 259.037 63.7197 259.155C63.8377 259.223 63.9051 259.341 64.0399 259.408C64.2928 259.661 64.5961 259.846 64.849 260.099C64.9164 260.099 64.9164 260.167 64.9838 260.167C66.0625 258.902 67.394 257.891 68.911 257.2C74.2877 254.604 79.7318 252.211 85.2433 250.054C86.5748 249.43 87.9063 248.857 89.221 248.284C89.2884 248.284 89.3559 248.216 89.4233 248.216C90.7548 247.66 92.0189 247.087 93.3505 246.582C93.4684 246.514 93.6033 246.514 93.7213 246.447C95.0528 245.874 96.3169 245.368 97.7159 244.862C97.7833 244.862 97.9013 244.812 97.9687 244.812C99.3002 244.306 100.682 243.801 102.081 243.345C101.508 242.907 101.07 242.402 100.564 241.963C98.7946 240.312 96.8225 238.929 94.9854 237.345C91.8167 234.884 89.1705 231.901 86.3726 229.12C84.6028 227.552 83.0185 225.833 81.6364 224.013C81.1307 223.305 81.2487 222.243 81.9566 221.67C83.4735 220.659 84.4174 222.041 85.2433 223.187C86.5074 224.957 88.2097 226.221 89.6761 227.805C91.1256 229.373 92.6426 230.89 94.1595 232.356C95.491 231.648 98.0867 232.103 99.3508 231.716C99.671 231.648 99.9238 231.598 100.244 231.53C98.6597 228.429 96.7551 225.395 96.3169 221.99C95.9461 220.018 98.7271 219.142 99.4856 221.03C100.126 224.822 102.334 228.176 103.986 231.648C104.862 233.418 105.688 235.205 106.767 236.839C107.458 237.733 108.166 238.677 108.537 239.806C108.857 240.261 109.042 240.767 108.975 241.272C110.374 240.817 111.823 240.379 113.29 240.008C112.599 239.553 112.026 238.997 111.385 238.424C110.306 237.48 109.177 236.469 108.469 235.137C107.525 233.165 107.087 230.637 108.419 228.682C108.789 228.176 109.295 227.856 109.801 227.603C108.537 226.474 107.087 225.53 106.126 224.013C105.317 223.002 104.862 221.215 106.379 220.591C107.205 220.271 108.216 220.659 108.537 221.535C109.481 223.507 111.52 224.569 113.037 226.036C116.256 229.76 120.824 231.85 124.296 235.255C125.189 235.508 125.577 236.401 125.509 237.278C127.599 236.519 129.555 236.014 131.527 235.457ZM78.2148 249.228C76.1923 248.099 74.3551 246.632 72.3325 245.435C70.1077 243.919 67.8997 242.284 65.8603 240.514C63.6523 238.609 61.0566 237.16 58.7812 235.255C59.6071 236.722 60.4162 238.171 61.4443 239.435C62.3882 240.312 63.3995 241.137 64.1579 242.216C66.0625 245.065 68.7761 247.205 70.9336 249.868C72.5853 251.453 70.2931 253.913 68.6582 252.329C66.2479 249.481 63.4669 247.087 61.3095 244.053C59.6577 242.469 57.9553 240.885 56.9441 238.795C55.5451 236.401 54.0282 233.924 53.59 231.21C53.59 229.878 55.0395 229.12 56.253 229.626C58.3936 230.334 59.9105 232.103 61.7477 233.418C66.5682 236.654 70.7987 240.699 75.8046 243.733C73.8494 240.767 72.0797 237.598 70.2931 234.497C69.0964 232.407 67.6974 230.384 66.5007 228.362C66.0625 227.603 65.4895 226.727 65.4895 225.783C65.6749 223.373 68.911 223.811 69.029 226.036C71.0515 229.508 73.3438 232.862 75.2315 236.401C76.6979 239.115 78.2148 241.272 79.7992 243.801C80.4902 244.812 81.2487 245.874 81.3161 247.138C81.5015 248.857 79.7318 250.054 78.2148 249.228ZM81.5689 230.013C84.5522 233.924 87.4513 237.851 90.62 241.643C91.6987 241.896 92.2043 243.093 92.8448 243.919C93.7213 245.435 91.7661 247.138 90.3672 246.076C87.8389 243.851 85.8669 241.07 83.7769 238.424C81.8218 235.896 79.8666 233.367 77.962 230.704C77.0181 229.322 75.99 228.429 75.0461 227.232C74.2877 226.659 74.2877 225.462 74.9787 224.771C76.1248 223.693 77.4564 224.637 78.1474 225.715C79.4115 227.047 80.4902 228.496 81.5689 230.013ZM58.6464 259.341C57.6351 260.301 56.7587 261.38 56.0002 262.577C55.7474 263.268 55.4271 263.908 55.0395 264.532C54.9215 265.358 54.2136 266.049 53.3371 266.049C50.9943 265.729 51.6179 263.403 52.6292 262.004C52.9495 261.245 53.3371 260.487 53.8428 259.846C54.5338 258.835 55.3597 257.959 56.1856 257.065C54.5338 255.498 53.0169 253.846 51.5674 252.076C50.8595 251.453 50.1684 250.745 49.7808 249.986C49.4774 249.615 49.0897 249.177 48.7695 248.79C47.1851 247.273 45.9884 245.503 44.6569 243.801C44.5389 243.598 44.4041 243.345 44.3367 243.093C44.0333 242.722 43.713 242.334 43.3254 241.963L43.2748 241.896C43.14 241.711 42.9546 241.576 42.8197 241.39C42.6343 241.137 42.4489 240.952 42.2467 240.699C42.1961 240.632 42.1287 240.564 42.0613 240.446C41.8759 240.194 41.6905 239.941 41.5556 239.621C41.3028 239.115 40.932 238.609 40.6792 238.104C40.1061 237.227 39.533 236.266 38.8926 235.457L38.842 235.39C38.842 235.323 38.7746 235.323 38.7072 235.255C38.0161 236.148 37.2576 236.974 36.6172 237.851C36.4992 238.036 36.3643 238.171 36.2969 238.356C34.4597 241.39 32.3192 244.171 30.8022 247.407C30.1618 248.537 29.5213 249.733 28.9651 250.947C28.0043 252.97 27.2459 255.11 26.8751 257.386C26.8077 257.706 26.7402 258.026 26.7402 258.397C26.7402 258.464 26.7402 258.464 26.7402 258.532C26.7402 258.97 26.7402 259.408 26.7402 259.796C26.7402 260.116 26.8077 260.419 26.9256 260.74C26.9931 260.807 26.9931 260.925 26.9931 260.992C27.1279 261.431 27.0605 261.886 26.8077 262.189C27.4987 263.015 28.2572 263.841 29.1505 264.532C31.3079 266.689 33.4485 268.206 35.6059 270.279C37.8813 272.69 40.5443 274.594 42.9546 276.92C45.921 279.516 49.0897 281.926 51.9382 284.707L52.0056 284.758C52.4438 285.213 52.882 285.651 53.3371 286.089C53.3371 285.971 53.3371 285.904 53.3371 285.769C53.3371 285.263 53.4046 284.758 53.5225 284.202C53.59 283.628 53.6574 283.055 53.7079 282.482C53.9608 280.78 54.281 279.01 54.7866 277.375C55.1069 276.297 55.4271 275.285 55.8654 274.274C57.5171 270.482 58.9666 266.689 61.242 263.2C61.4949 262.762 61.6971 262.442 61.9499 262.139C61.3769 261.683 60.8038 261.313 60.2982 260.925C59.7251 260.167 59.152 259.796 58.6464 259.341ZM118.599 234.497C116.509 233.233 114.739 231.783 112.969 230.199C112.717 230.199 112.531 230.199 112.211 230.131C112.076 230.199 111.958 230.266 111.823 230.266C111.638 230.334 111.385 230.452 111.2 230.519C110.374 233.62 113.795 236.014 116.071 237.48C116.829 237.733 117.217 238.289 117.217 238.862C118.548 238.609 119.931 238.356 121.329 238.289C121.768 238.171 122.155 238.104 122.594 237.986C122.459 237.851 122.408 237.733 122.273 237.598C121.144 236.401 119.813 235.457 118.599 234.497ZM101.896 234.379C100.632 234.884 98.7946 234.952 97.581 235.002C99.6204 236.654 101.643 238.356 103.531 240.059C104.036 240.514 104.542 241.019 105.183 241.323C105.317 241.205 105.435 241.07 105.621 241.019C105.183 239.941 104.424 239.047 103.784 238.036C103.16 236.839 102.519 235.643 101.896 234.379Z" fill="#458DFF"/>
</svg>
