<svg width="440" height="384" viewBox="0 0 440 384" fill="none" xmlns="http://www.w3.org/2000/svg">
<mask id="mask0_315_103222" style="mask-type:luminance" maskUnits="userSpaceOnUse" x="0" y="0" width="440" height="384">
<path d="M440 0V383.948H-1.3113e-05V0L440 0Z" fill="white"/>
</mask>
<g mask="url(#mask0_315_103222)">
<path fill-rule="evenodd" clip-rule="evenodd" d="M268.161 235.531C263.943 240.917 267.141 248.802 265.937 254.016C263.844 263.089 254.198 264.37 246.682 269.536C234.896 267.703 225.937 269.307 211.875 265.104C191.818 281.057 170.823 300.536 147.437 318.328C136.286 326.807 125.01 335.156 114.109 344.198C108.724 348.667 103.984 353.839 98.5573 358.245C93.1146 362.661 86.3958 365.672 81.526 370.073C78.1667 373.104 77.0364 377.01 71.8958 378.943C64.526 381.724 55.2031 381.307 43.7552 382.641C32.4114 383.964 16.9427 385.094 18.5729 371.552C3.84374 371.083 -0.125013 356.906 0.0572786 342.724C0.14582 335.729 0.55728 323.74 3.7604 320.547C11.2969 313.026 19.4323 319 27.4583 314.63C27.0989 304.5 33.0625 291.083 46.7135 292.453C49.0521 282.75 50.4219 273.266 51.1614 267.323C55.1614 265.646 58.6458 263.458 64.4896 263.625C67.8854 260.115 67.4687 252.802 70.4167 248.839C80.6719 248.844 89.5521 253.234 97.0781 248.839C106.036 243.609 105.443 232.083 111.151 222.969C125.219 225.443 140.844 222.49 137.073 207.443C146.359 198.729 156.396 190.755 167.437 183.786C164.719 177.474 165.016 170.224 167.437 163.828C172.943 155.547 183.802 153.323 191.88 146.828C202.682 138.141 213.484 125.62 216.323 110.604C218.99 96.4635 214.01 71.7083 217.062 52.9427C218.547 43.8125 221.276 32.4531 225.948 24.8541C235.88 8.7031 259.38 0.036436 279.276 0.458311C304.104 0.984353 318.911 15.2291 340.005 18.1979C362.583 15.3281 391.609 7.17185 418.5 26.3281C433.26 36.8385 443.687 59.8854 437.016 87.6823C434.203 99.4114 426.292 108.859 425.167 120.948C423.724 136.484 429 150.125 426.651 165.302C425.557 172.354 422.536 184.344 419.245 190.437C409.031 209.307 394.177 226.568 378.51 237.01C362.661 244.484 351.016 247.901 331.849 242.922C321.615 240.266 314.49 234.781 304.448 231.833C299.229 230.302 293.943 227.297 290.375 227.401C282.13 227.63 276.208 233.812 268.172 235.531H268.161ZM269.641 221.479C299.526 196.318 337.38 238.75 374.068 230.354C388.906 223.156 398.427 208.609 407.396 195.609C408.328 194.26 410.255 193.203 411.099 191.911C426.667 168.021 417.547 146.474 419.984 115.031C420.854 103.802 426.214 96.3229 429.609 87.6875C433.875 76.8646 432.891 66.0833 431.094 54.4271C423.24 42.2083 414.604 26.4114 399.245 27.0729C388.24 27.5469 377.771 36.9219 365.177 36.6823C334.427 32.8698 306.906 6.49998 272.599 10.8073C253.755 17.8073 231.312 30.4271 228.906 52.9427C228.083 60.6198 228.365 66.6302 228.906 73.6458C229.932 86.9635 238.604 99.9531 236.312 116.521C234.318 130.917 223.724 143.286 214.094 148.307C207.906 151.526 205.453 153.484 199.281 156.437C186.333 162.63 170.094 163.641 180.76 181.573C172.021 190.344 161.276 197.115 151.88 205.229C163.177 207.464 164.141 224.745 155.583 230.359C148.302 235.135 135.797 232.776 125.958 234.057C127.406 250.495 112.115 272.531 87.4427 265.104C82.0312 269.068 76.9323 273.339 69.6667 275.453C69.5677 284.297 71.4271 290.599 67.4479 299.109C60.4896 300.995 58.026 300.391 52.6354 302.068C50.6875 309.75 50.9687 315.073 48.9323 324.245C108.484 282.411 157.74 230.297 217.797 188.969C225.995 184.589 233.391 179.401 239.271 172.708C235.818 168.021 232.693 163.01 228.161 159.401C204.276 174.984 181.859 192.036 159.286 208.932C162.687 199.76 172.323 196.807 179.281 191.187C185.536 184.615 194.318 180.568 200.76 174.187C211.411 168.802 218.625 159.984 229.646 154.964C233.885 160.589 238.094 166.245 242.974 171.229C254.708 162.854 267.042 150.177 283.708 151.271C267.255 129.792 250.01 99.2656 256.307 67.7344C258.026 65.0156 259.573 62.1302 260.01 58.125C279.531 42.1041 305.99 37.9219 328.146 48.5156C337.812 53.1354 338.062 62.1823 341.479 72.1719C348.375 92.3541 364.083 107.25 379.25 117.266C384.37 117.49 385.385 117.427 389.62 118.745C394.448 140.365 396.198 156.635 383.693 177.141C376.016 183.505 370.917 190.937 361.474 194.146C334.359 203.359 307.974 177.167 291.854 163.839C286.109 167.214 283.818 174.047 277.786 177.146C263.646 195.406 243.745 207.995 225.198 221.5C206.651 235 188.776 249.953 170.391 263.635C133.125 291.37 97.4323 320.682 62.2604 350.125C57.1458 352.839 51.6406 357.531 46.7083 361.953C42.3542 365.854 33.8437 371.068 34.8594 375.26C40.8333 374.995 58.4739 372.266 69.6667 370.083C105.516 338.63 147.984 309.12 185.948 276.203C191.312 271.547 197.307 265.411 204.464 259.937C210.083 255.641 219.661 245.359 224.464 244.417C241.786 241.005 249.437 266.755 259.271 251.068C256.891 241.385 261.74 228.141 269.646 221.479H269.641ZM376.286 25.5833C369.271 26.901 360.385 26.9791 355.547 31.4948C370.396 34.7396 381.547 30.9219 394.062 24.8437C386.698 22.1666 381.406 24.6198 376.286 25.5833ZM387.396 159.38C389.802 151.193 388.219 133.177 381.469 125.375C377.193 120.427 368.036 118.651 362.214 113.547C361.12 112.589 360.516 110.422 359.25 109.109C350.823 100.385 342.25 89.0364 337.776 77.3229C335.432 71.1927 335.818 64.5833 331.849 60.3229C325.271 53.2656 304.219 50.526 291.854 51.4531C283.625 52.0677 269.448 54.6927 264.453 58.8437C257.708 64.4427 257.531 88.5937 258.526 95.0677C261.401 113.74 272.422 130.969 282.969 145.333C293.885 160.214 306.479 173.609 320 183.036C349.833 198.943 379.167 187.37 387.396 159.375V159.38ZM298.521 216.297C316.062 224.719 339.385 244.115 362.958 233.302C337.677 234.557 322.354 219.406 298.521 216.302V216.297ZM46.7135 358.964C89.1198 325.182 130.245 290.172 173.354 257.693C206.135 232.995 239.505 209.401 270.375 183.026C272.464 178.208 275.833 175.818 280.005 171.203C282.729 168.187 289.964 162.521 288.891 157.896C287.354 151.219 274.542 154.344 271.12 155.677C256.594 161.328 240.859 176.359 228.901 185.245C215.115 195.495 197.182 207.307 185.203 215.557C129.641 263.833 72.9271 310.964 14.125 356.01C18.6927 362.51 25.3021 354.068 29.6771 351.573C34.4375 347.458 40.1719 344.307 43.75 339.01C95.1927 298.63 146.021 254.062 198.536 214.818C216.51 201.385 233.526 186.932 251.12 174.156C259.828 167.833 273.443 157.875 284.448 159.375C281.26 165.573 276.771 171.359 271.859 175.635C264.057 182.427 254.443 188.63 245.937 194.854C186.932 238.057 132.333 287.349 73.3698 330.13C61.5521 339.667 48.5781 350.375 37.0781 359.698C33.4635 362.625 27.6979 365.708 27.4479 370.786C35.6406 371.182 41.2708 363.281 46.6979 358.958L46.7135 358.964ZM266.672 169.724C244.828 182.417 225.891 198.01 208.161 214.818C187.349 230.505 166.672 246.339 145.214 261.385C127.177 279.109 105.635 294.969 85.2187 311.656C67.6562 326.01 49.7708 342.12 32.6354 356.01C31.1406 357.224 26.5 359.646 28.1927 362.661C40.625 355.031 51.3281 344.594 63 335.312C81.5989 320.521 100.646 305.365 119.292 291.698C126.443 286.453 134.068 281.089 140.771 275.432C176.271 245.464 210.156 218.687 247.417 190.422C252.786 186.349 267.88 176.875 268.896 172.682C269.156 171.599 269.234 170.099 268.156 168.984C267.99 169.578 267.526 169.854 266.667 169.734L266.672 169.724ZM221.495 83.2344C222.323 90.7916 225.609 99.2656 225.943 106.891C226.391 117.333 221.682 132.005 216.312 142.375C225.474 135.62 231.932 126.667 233.349 115.026C235.786 94.9844 222.354 75.1979 225.943 51.4479C229.115 30.4479 245.401 20.4948 262.234 11.5312C225.734 15.5521 218.984 60.2239 221.5 83.2344H221.495ZM220.021 251.781C227.437 252.219 238.385 256.292 246.682 255.479C240.859 251.516 226.167 241.771 220.016 251.781H220.021ZM151.13 209.641C152.109 218.5 150.016 224.297 147.427 229.599C156.771 227.807 158.562 221.948 157.797 211.12C155.12 210.568 153.818 208.214 151.13 209.646V209.641ZM120.771 233.297C115.448 248.146 107.068 261.5 88.1823 260.651C103.01 272.552 129.411 249.604 120.771 233.297ZM78.5521 259.177C76.8594 265.125 72.2812 268.193 68.1823 271.745C76.6823 272.141 88.4427 263.953 78.5469 259.177H78.5521ZM65.9635 275.437C57.4896 278.531 60.1771 289.594 57.8125 297.615C60.0104 298.625 61.0417 297.182 64.4792 297.615C67.3594 291.74 67.125 285.766 65.9583 275.432L65.9635 275.437ZM37.8281 319.047C41.8229 319.948 41.401 318.922 45.9739 319.786C49.5677 315.714 47.2292 307.083 49.6771 303.521C41.0885 302.016 40.0781 312.062 37.8281 319.047ZM20.7864 324.964C21 333.25 22.3073 333.609 22.2656 344.927C31.0156 338.625 40.0885 332.651 47.4479 324.964C40.4167 319.417 33.0052 323.797 20.7917 324.964H20.7864ZM17.8333 324.964C14.3021 324.646 12.2917 325.844 10.4219 327.182C11.0573 340.141 8.99999 344.354 13.3854 351.578C23.0885 345.87 17.9062 336.083 17.8281 324.964H17.8333Z" fill="black"/>
</g>
<path fill-rule="evenodd" clip-rule="evenodd" d="M259.266 251.057C249.432 266.745 241.781 240.995 224.453 244.406C219.656 245.349 210.073 255.63 204.458 259.927C197.302 265.401 191.307 271.537 185.943 276.188C147.984 309.109 105.51 338.62 69.6614 370.073C58.4687 372.255 40.8229 374.984 34.8542 375.245C33.8385 371.057 42.3437 365.844 46.7031 361.938C51.6354 357.521 57.1406 352.828 62.2552 350.115C97.4271 320.672 133.115 291.359 170.385 263.625C188.771 249.938 206.646 234.99 225.193 221.484C243.74 207.984 263.635 195.391 277.776 177.135C283.812 174.042 286.099 167.208 291.849 163.828C307.969 177.156 334.354 203.349 361.469 194.135C370.911 190.927 376.01 183.49 383.687 177.13C396.187 156.625 394.437 140.354 389.609 118.734C385.38 117.417 384.365 117.479 379.245 117.255C364.078 107.24 348.37 92.3438 341.474 72.1615C338.057 62.1719 337.802 53.125 328.141 48.5053C305.979 37.9115 279.526 42.0938 260.005 58.1146C259.568 62.1198 258.021 65.0053 256.302 67.724C250.005 99.2553 267.25 129.781 283.703 151.26C267.036 150.167 254.698 162.844 242.969 171.219C238.089 166.234 233.88 160.578 229.635 154.953C218.62 159.974 211.406 168.792 200.755 174.177C194.312 180.557 185.526 184.604 179.276 191.177C172.318 196.797 162.682 199.75 159.276 208.917C181.854 192.026 204.266 174.974 228.156 159.391C232.687 163 235.812 168.01 239.266 172.698C233.385 179.391 225.99 184.578 217.786 188.958C157.734 230.292 108.479 282.406 48.9219 324.234C50.9635 315.063 50.6823 309.74 52.625 302.057C58.0208 300.38 60.4844 300.984 67.4375 299.099C71.4219 290.589 69.5625 284.287 69.6614 275.443C76.9271 273.328 82.026 269.052 87.4375 265.094C112.109 272.521 127.401 250.484 125.948 234.047C135.786 232.766 148.297 235.125 155.573 230.349C164.135 224.734 163.172 207.453 151.87 205.219C161.271 197.104 172.016 190.328 180.755 181.563C170.089 163.63 186.328 162.62 199.271 156.427C205.448 153.474 207.901 151.516 214.083 148.297C223.719 143.276 234.312 130.901 236.302 116.51C238.594 99.9428 229.922 86.9532 228.896 73.6355C228.359 66.6198 228.078 60.6094 228.896 52.9323C231.307 30.4167 253.75 17.7969 272.594 10.7969C306.901 6.48963 334.422 32.8594 365.172 36.6719C377.76 36.9115 388.229 27.5365 399.24 27.0625C414.599 26.4011 423.234 42.1928 431.089 54.4115C432.885 66.0678 433.865 76.8542 429.604 87.6771C426.208 96.3073 420.849 103.792 419.979 115.031C417.542 146.474 426.656 168.016 411.089 191.912C410.25 193.198 408.318 194.255 407.385 195.604C398.417 208.604 388.896 223.151 374.057 230.349C337.375 238.75 299.521 196.313 269.63 221.479C261.714 228.115 256.865 241.359 259.245 251.031L259.266 251.057ZM366.656 57.3698C360.849 70.1823 372.458 91.3021 390.359 93.5938C404.557 95.4115 411.849 87.0521 417.76 78.8073C418.448 72.0157 418.573 66.9011 417.76 64.7605C409.927 38.4375 377.125 34.2969 366.656 57.3698Z" fill="#B1953A"/>
<path fill-rule="evenodd" clip-rule="evenodd" d="M417.76 64.7656C418.573 66.9062 418.448 72.0208 417.76 78.8125C411.849 87.0573 404.557 95.4167 390.359 93.5989C372.458 91.3073 360.849 70.1875 366.656 57.375C377.125 34.2969 409.927 38.4427 417.76 64.7656ZM408.135 54.4167C411.807 73.8698 401.271 84.8333 385.917 87.6823C408.901 100.703 424.901 67.2031 408.135 54.4167ZM394.802 52.1979C387.88 47.8073 373.599 53.9479 371.844 62.5521C367.078 85.8958 404.984 79.8854 400.729 61.8125C399.969 58.5833 397.151 53.6875 394.802 52.1979Z" fill="black"/>
<path fill-rule="evenodd" clip-rule="evenodd" d="M385.917 87.6823C401.271 84.8333 411.807 73.8698 408.135 54.4166C424.901 67.2031 408.901 100.703 385.917 87.6823Z" fill="#9C7D0D"/>
<path fill-rule="evenodd" clip-rule="evenodd" d="M394.062 24.8489C381.547 30.9271 370.396 34.7448 355.547 31.5C360.38 26.9843 369.271 26.9062 376.286 25.5885C381.406 24.625 386.698 22.1718 394.062 24.8489Z" fill="#9C7D0D"/>
<path fill-rule="evenodd" clip-rule="evenodd" d="M362.958 233.307C339.385 244.125 316.062 224.724 298.521 216.307C322.354 219.411 337.677 234.562 362.958 233.307Z" fill="#9C7D0D"/>
<path fill-rule="evenodd" clip-rule="evenodd" d="M27.4531 370.807C27.7083 365.729 33.4687 362.646 37.0833 359.714C48.5833 350.396 61.5573 339.687 73.375 330.146C132.339 287.365 186.932 238.068 245.943 194.875C254.448 188.646 264.062 182.448 271.865 175.656C276.776 171.375 281.266 165.588 284.453 159.391C273.448 157.896 259.833 167.854 251.125 174.177C233.531 186.953 216.516 201.406 198.542 214.833C146.021 254.078 95.1927 298.646 43.7552 339.026C40.1771 344.328 34.4479 347.474 29.6823 351.594C25.3021 354.089 18.6979 362.531 14.1302 356.031C72.9323 310.984 129.651 263.854 185.214 215.573C197.187 207.323 215.12 195.51 228.906 185.266C240.87 176.375 256.599 161.349 271.125 155.698C274.547 154.365 287.359 151.24 288.896 157.911C289.969 162.542 282.734 168.208 280.01 171.219C275.839 175.838 272.469 178.229 270.38 183.047C239.51 209.422 206.141 233.01 173.359 257.708C130.245 290.193 89.125 325.203 46.7187 358.984C41.3073 363.297 35.6718 371.198 27.4739 370.802L27.4531 370.807Z" fill="#B1953A"/>
<path fill-rule="evenodd" clip-rule="evenodd" d="M268.161 168.995C269.24 170.115 269.161 171.615 268.901 172.693C267.885 176.885 252.792 186.359 247.422 190.432C210.161 218.698 176.281 245.474 140.776 275.443C134.073 281.104 126.448 286.469 119.297 291.708C100.651 305.375 81.6042 320.531 63.0104 335.323C51.3385 344.609 40.6302 355.047 28.1979 362.672C26.5104 359.656 31.151 357.234 32.6458 356.021C49.776 342.13 67.6667 326.021 85.2292 311.667C105.641 294.984 127.182 279.12 145.219 261.401C166.682 246.354 187.354 230.516 208.172 214.828C225.896 198.026 244.839 182.432 266.682 169.734C267.531 169.854 267.99 169.578 268.156 169L268.161 168.995Z" fill="#9C7D0D"/>
<path fill-rule="evenodd" clip-rule="evenodd" d="M246.677 255.49C238.375 256.302 227.432 252.229 220.016 251.797C226.177 241.781 240.87 251.531 246.682 255.495L246.677 255.49Z" fill="#9C7D0D"/>
<path fill-rule="evenodd" clip-rule="evenodd" d="M157.802 211.141C158.568 221.969 156.771 227.828 147.432 229.62C150.021 224.318 152.109 218.521 151.135 209.661C153.823 208.219 155.125 210.573 157.802 211.135V211.141Z" fill="#9C7D0D"/>
<path fill-rule="evenodd" clip-rule="evenodd" d="M88.1875 260.661C107.068 261.51 115.448 248.161 120.771 233.312C129.417 249.62 103.016 272.573 88.1875 260.667V260.661Z" fill="#9C7D0D"/>
<path fill-rule="evenodd" clip-rule="evenodd" d="M68.1875 271.755C72.2865 268.203 76.8646 265.135 78.5573 259.188C88.4531 263.964 76.6927 272.151 68.1927 271.755H68.1875Z" fill="#9C7D0D"/>
<path fill-rule="evenodd" clip-rule="evenodd" d="M64.4844 297.625C61.0416 297.188 60.0104 298.635 57.8177 297.625C60.1823 289.599 57.4948 278.537 65.9635 275.448C67.1354 285.776 67.3646 291.755 64.4896 297.62L64.4844 297.625Z" fill="#9C7D0D"/>
<path fill-rule="evenodd" clip-rule="evenodd" d="M49.6666 303.542C47.2187 307.104 49.552 315.734 45.9635 319.807C41.3958 318.943 41.8125 319.969 37.8177 319.068C40.0781 312.068 41.0937 302.021 49.6666 303.542Z" fill="#9C7D0D"/>
<path fill-rule="evenodd" clip-rule="evenodd" d="M47.4531 324.979C40.0937 332.662 31.0208 338.641 22.2708 344.938C22.3125 333.625 21 333.266 20.7865 324.979C32.9896 323.813 40.401 319.432 47.4427 324.979H47.4531Z" fill="#B1953A"/>
<path fill-rule="evenodd" clip-rule="evenodd" d="M13.375 351.594C8.98955 344.375 11.0468 340.156 10.4166 327.198C12.2812 325.859 14.2968 324.661 17.8229 324.979C17.9114 336.104 23.0885 345.885 13.3802 351.599L13.375 351.594Z" fill="#9C7D0D"/>
<path fill-rule="evenodd" clip-rule="evenodd" d="M262.229 11.5417C245.401 20.5053 229.115 30.4584 225.937 51.4584C222.354 75.2084 235.781 94.9948 233.344 115.031C231.932 126.677 225.474 135.63 216.312 142.385C221.682 132.016 226.391 117.344 225.937 106.901C225.609 99.2761 222.318 90.8021 221.495 83.2448C218.979 60.2292 225.729 15.5625 262.229 11.5365V11.5417Z" fill="#9C7D0D"/>
</svg>
