<svg width="293" height="203" viewBox="0 0 293 203" fill="none" xmlns="http://www.w3.org/2000/svg">
<mask id="mask0_283_107533" style="mask-type:luminance" maskUnits="userSpaceOnUse" x="0" y="0" width="293" height="203">
<path d="M0 0.346191H293V203H0V0.346191Z" fill="white"/>
</mask>
<g mask="url(#mask0_283_107533)">
<path d="M292.454 43.5935C292.411 49.4299 292.336 55.277 292.175 61.1134C292.025 67.3575 291.789 73.6016 291.553 79.8457C291.392 84.2873 291.177 88.7397 290.952 93.1707C290.716 97.3978 290.426 101.636 290.169 105.863C290.029 108.223 289.901 110.605 289.761 112.976C289.6 115.293 289.439 117.621 289.268 119.928C289.15 121.677 289.021 123.436 288.914 125.196C288.774 127.46 288.656 129.734 288.506 131.998C288.259 135.506 287.97 139.014 287.701 142.501C287.583 143.939 287.444 145.387 287.369 146.825C287.304 148.284 286.961 149.679 286.682 151.105C286.414 152.425 285.749 153.412 284.654 154.27C274.913 161.781 264.742 168.69 254.475 175.47C245.366 181.468 236.107 187.197 226.816 192.894C221.795 195.973 216.731 198.988 211.678 201.992C211.024 202.389 210.294 202.71 209.575 202.957C208.91 203.172 208.213 203.483 207.472 203.097C205.97 203.129 204.49 202.989 202.999 202.775C200.402 202.399 197.784 202.077 195.177 201.68C192.817 201.337 190.478 200.962 188.139 200.575C184.728 200.018 181.327 199.449 177.904 198.87C174.707 198.312 171.51 197.743 168.313 197.174C164.601 196.509 160.899 195.866 157.187 195.168C153.078 194.406 148.98 193.623 144.881 192.808C140.01 191.853 135.161 190.898 130.312 189.89C124.658 188.731 118.993 187.54 113.36 186.306C107.009 184.933 100.658 183.528 94.3171 182.122C90.9912 181.382 87.676 180.62 84.436 179.558C83.685 179.311 82.9876 179.021 82.3653 178.549C82.0435 178.303 81.668 178.099 81.3032 177.906C70.0166 171.726 58.9983 165.106 48.1301 158.229C36.5217 150.891 24.9562 143.467 13.5731 135.774C12.8543 135.281 12.1891 134.637 11.3844 134.326C10.6013 134.015 9.66786 134.015 8.79883 133.897C7.56504 133.736 6.39561 133.35 5.23691 132.92C4.23915 132.556 3.47741 131.858 2.6513 131.257C2.34017 131.032 2.11487 130.624 1.93248 130.27C1.64281 129.67 1.40678 129.037 1.11711 128.425C0.387555 126.827 0.290998 125.131 0.473385 123.426C0.559214 122.514 1.06346 121.795 1.77155 121.215C2.24362 120.808 2.81223 120.84 3.39158 120.904C4.51809 121.022 5.6446 121.162 6.78184 121.269C8.99195 121.473 11.2128 121.655 13.4229 121.848C16.5664 122.117 19.6884 122.406 22.8319 122.664C24.688 122.814 26.5441 122.921 28.4001 123.061C30.2991 123.222 32.1981 123.383 34.097 123.565C35.3845 123.683 36.6719 123.812 37.9594 123.93C40.427 124.166 42.8945 124.37 45.3514 124.638C48.5915 124.992 51.8208 125.389 55.0394 125.754C57.3032 126.011 59.5562 126.226 61.8199 126.494C63.9657 126.73 66.1221 127.02 68.2679 127.277C70.317 127.524 72.3662 127.76 74.4261 128.007C76.6791 128.275 78.9322 128.554 81.1959 128.833C83.1807 129.08 85.1762 129.305 87.1825 129.552C85.7663 129.369 84.3501 129.208 82.934 129.037L83.0412 127.513C82.8696 127.417 82.6872 127.223 82.6443 127.063C82.5263 126.666 82.4619 126.247 82.4726 125.839C82.5906 122.943 82.7086 120.057 82.8481 117.181C82.934 115.261 83.0842 113.362 83.1914 111.452C83.3416 108.92 83.4597 106.388 83.6206 103.867C83.8673 100.155 84.1356 96.4429 84.4145 92.7308C84.5325 91.1859 84.6505 89.641 84.7471 88.1068C84.9939 84.5448 85.2299 80.9936 85.4874 77.4317C85.7341 74.0307 86.0131 70.6297 86.2706 67.2395C86.3779 65.8984 86.4637 64.568 86.571 63.2162C86.7104 61.2636 86.8821 59.3003 87.0108 57.3477C87.0538 56.7898 86.9894 56.2211 86.9357 55.6633C86.8821 55.1483 87.0108 54.7084 87.3005 54.3973C87.2791 54.4187 87.2576 54.4402 87.2361 54.4616C86.6783 53.9681 86.6139 53.1313 86.6246 52.2945C86.6461 52.3052 86.6783 52.3052 86.7104 52.3159C86.3564 52.2408 86.0989 51.9619 86.056 51.5542C86.0131 51.243 86.0024 50.9319 86.0238 50.6208C86.1955 47.37 86.3671 44.1192 86.5388 40.8684C86.5817 39.9887 86.6139 39.1089 86.6783 38.2399C86.7748 36.695 86.925 35.15 87.0108 33.6158C87.0538 32.8648 87.3864 32.3177 87.9872 31.9422C88.4056 31.6739 88.8884 31.4701 89.3712 31.2555C96.9456 28.1013 104.692 25.4299 112.427 22.6941C128.477 17.0186 144.592 11.5577 160.781 6.31137C165.738 4.70207 170.716 3.15715 175.694 1.66586C177.421 1.15088 179.213 0.861211 180.973 0.485707C181.327 0.410608 181.702 0.410608 182.056 0.442792C183.912 0.539349 185.768 0.657366 187.624 0.796838C189.212 0.914854 190.821 1.05433 192.409 1.21526C194.051 1.36546 195.692 1.53712 197.334 1.70877C198.664 1.83752 200.016 1.95554 201.346 2.07355C203.095 2.21302 204.855 2.33104 206.593 2.47051C208.395 2.62071 210.187 2.79237 211.989 2.96403C213.427 3.09277 214.875 3.21079 216.313 3.31808C219.145 3.55411 221.978 3.75795 224.788 4.0369C227.267 4.2622 229.724 4.57333 232.181 4.83082C234.444 5.07758 236.697 5.30288 238.961 5.56037C241.171 5.80712 243.371 6.08607 245.57 6.35429C247.565 6.59032 249.561 6.82635 251.567 7.07311C253.82 7.34133 256.084 7.631 258.326 7.90995C260.837 8.24254 263.347 8.57512 265.847 8.9399C268.25 9.27249 270.643 9.63726 273.035 10.0128C275.996 10.4741 278.947 10.9354 281.897 11.4504C284.236 11.8474 286.607 12.0512 288.871 12.8344C289.482 13.049 290.266 13.0597 290.652 13.6605C291.263 14.6046 291.928 15.5273 291.961 16.7504C291.982 18.1987 292.111 19.6364 292.154 21.0848C292.218 24.1853 292.25 27.2752 292.283 30.3758C292.368 34.8174 292.465 39.2055 292.454 43.5935Z" fill="black"/>
</g>
<path d="M209.958 72.067C209.507 72.0134 209.046 71.949 208.595 71.9061C206.235 71.713 203.864 71.5306 201.493 71.3482C199.797 71.2195 198.092 71.0907 196.396 70.9512C194.755 70.8118 193.114 70.6294 191.472 70.4577C190.195 70.329 188.897 70.2002 187.62 70.0822C185.046 69.8354 182.471 69.6423 179.907 69.3741C176.677 69.0201 173.448 68.6231 170.219 68.2583C168.835 68.1081 167.451 67.9794 166.067 67.8185C165.594 67.7755 165.155 67.8077 164.747 68.1189C163.341 69.1917 161.754 69.932 160.209 70.7688C141.315 81.122 122.186 91.0138 102.885 100.562C99.6561 102.161 96.3194 103.556 93.0365 105.047C92.5644 105.251 92.0816 105.433 91.5881 105.573C91.3521 105.637 91.0731 105.669 90.8371 105.605C90.6762 105.562 90.526 105.358 90.4509 105.186C90.4079 105.079 90.5045 104.865 90.6011 104.789C90.8478 104.607 91.1375 104.478 91.4057 104.339C111.694 94.3505 131.692 83.8042 151.572 73.0433C154.662 71.3804 157.73 69.6745 160.809 67.9901C161.078 67.8506 161.335 67.679 161.625 67.5073C161.442 67.1104 161.088 67.2177 160.842 67.1533C160.552 67.0567 160.241 67.0245 159.93 66.9816C156.239 66.4774 152.57 65.9731 148.879 65.4582C144.438 64.8252 139.996 64.1707 135.565 63.5055C131.939 62.9476 128.334 62.3468 124.708 61.7782C121.8 61.3276 118.903 60.8877 115.996 60.4157C113.185 59.9543 110.395 59.4716 107.595 59.0102C104.645 58.5382 101.684 58.0876 98.7227 57.6155C97.049 57.358 95.3646 57.1005 93.6802 56.843C93.1759 56.7679 92.661 56.725 92.1138 56.6606C92.0387 56.9181 91.9207 57.1005 91.9207 57.2936C91.7061 61.628 91.4808 65.9624 91.2877 70.2968C91.116 73.9553 90.9658 77.6245 90.8156 81.2829C90.7834 81.755 90.7727 82.2163 90.762 82.6884C90.6118 87.3232 90.5152 91.9794 90.3436 96.6249C90.2256 99.7148 90.0324 102.815 89.8715 105.916C89.732 108.276 89.6355 110.658 89.4531 113.029C89.2063 116.269 88.9059 119.509 88.627 122.749C88.5197 123.983 88.4017 125.217 88.2193 126.451C88.1227 127.159 87.876 127.845 87.6721 128.532C87.6078 128.757 87.4039 128.908 87.1679 128.929L87.1035 129.605C87.1357 129.605 87.1679 129.616 87.2001 129.616C89.099 129.852 90.9873 130.098 92.8755 130.345C94.9784 130.613 97.0705 130.903 99.184 131.171C101.222 131.439 103.261 131.718 105.321 131.976C107.37 132.233 109.419 132.469 111.468 132.705C113.614 132.974 115.771 133.242 117.916 133.499C120.062 133.757 122.229 134.004 124.375 134.25C125.555 134.379 126.724 134.529 127.915 134.637C129.235 134.744 130.383 135.366 131.595 135.774C131.767 135.838 131.949 135.978 132.1 136.128C133.752 137.844 135.715 139.186 137.593 140.655C140.929 143.262 144.287 145.837 147.71 148.477C154.78 145.58 161.41 141.996 168.202 138.746C169.639 138.07 171.152 137.512 172.632 136.911C172.954 136.782 173.33 136.75 173.673 136.707C173.791 136.697 173.984 136.815 174.038 136.922C174.102 137.04 174.092 137.276 174.016 137.351C173.77 137.608 173.491 137.866 173.201 138.038C172.032 138.714 170.894 139.432 169.693 140.001C164.382 142.544 159.061 145.033 153.718 147.522C152.505 148.09 151.229 148.498 149.984 148.981C149.705 149.088 149.437 149.228 149.201 149.313C149.137 149.743 149.437 149.839 149.619 149.979C154.351 153.723 159.136 157.424 163.824 161.254C169.264 165.696 174.66 170.202 180.025 174.74C187.363 180.952 194.658 187.207 201.965 193.462C202.426 193.859 202.92 194.245 203.413 194.631C203.434 194.664 203.51 194.621 203.66 194.61C203.681 194.084 203.703 193.537 203.746 192.99C203.789 192.421 203.874 191.863 203.907 191.295C204.185 186.864 204.486 182.422 204.754 178.002C204.915 175.427 205.022 172.841 205.183 170.267C205.323 168.003 205.494 165.728 205.666 163.465C205.773 161.769 205.902 160.064 206.009 158.368C206.149 156.105 206.278 153.83 206.439 151.566C206.578 149.41 206.76 147.232 206.9 145.076C207.007 143.584 207.061 142.104 207.147 140.527C205.645 140.376 204.228 140.258 202.801 140.119C200.13 139.851 197.459 139.593 194.798 139.304C192.738 139.089 190.7 138.799 188.65 138.574C185.164 138.156 181.687 137.769 178.19 137.34C177.739 137.287 177.299 137.104 176.881 136.922C176.613 136.815 176.634 136.289 176.892 136.139C177.031 136.064 177.171 135.967 177.31 135.946C177.568 135.903 177.825 135.881 178.083 135.892C180.314 136.01 182.524 136.096 184.734 136.257C186.483 136.375 188.221 136.568 189.97 136.75C191.408 136.9 192.845 137.083 194.283 137.233C195.356 137.362 196.429 137.512 197.512 137.598C200.709 137.887 203.885 138.145 207.093 138.413C207.19 138.263 207.308 138.134 207.318 137.995C207.522 135.066 207.726 132.126 207.919 129.197C207.951 128.779 207.919 128.382 207.919 127.899C207.275 127.534 206.557 127.524 205.859 127.459C201.589 127.105 197.308 126.783 193.038 126.44C189.788 126.182 186.558 125.893 183.308 125.625C181.258 125.453 179.198 125.281 177.042 125.12C176.978 125.399 176.86 125.689 176.849 125.968C176.742 128.296 176.666 130.613 176.548 132.941C176.527 133.499 176.42 134.068 176.259 134.615C176.216 134.798 175.905 134.948 175.669 135.012C175.411 135.087 175.046 134.798 175.004 134.486C174.961 134.079 174.928 133.65 174.961 133.253C175.143 130.581 175.336 127.899 175.54 125.12C175.293 125.056 175.025 124.938 174.735 124.895C172.987 124.691 171.248 124.509 169.5 124.305C167.44 124.058 165.401 123.811 163.352 123.565C161.367 123.318 159.361 123.05 157.366 122.781C155.327 122.502 153.278 122.234 151.229 121.945C148.718 121.612 146.218 121.269 143.708 120.915C141.112 120.55 138.494 120.164 135.898 119.788C133.548 119.456 131.198 119.102 128.849 118.758C126.295 118.383 123.742 117.996 121.189 117.599C118.893 117.256 116.597 116.924 114.301 116.57C111.34 116.119 108.378 115.668 105.428 115.207C102.413 114.746 99.4093 114.252 96.416 113.78C94.9354 113.544 93.4442 113.34 91.9743 113.072C91.2126 112.943 90.4616 112.75 89.8822 112.16C89.5926 111.87 89.6462 111.409 90.0217 111.27C90.3972 111.119 90.8264 110.991 91.2126 111.034C92.3391 111.141 93.4656 111.291 94.5921 111.463C97.5318 111.924 100.493 112.418 103.443 112.9C106.34 113.362 109.258 113.844 112.155 114.306C115.116 114.767 118.066 115.228 121.028 115.69C123.366 116.055 125.716 116.43 128.055 116.784C130.404 117.149 132.754 117.503 135.093 117.846C137.485 118.211 139.889 118.565 142.292 118.908C144.888 119.284 147.495 119.659 150.102 120.035C152.699 120.41 155.306 120.775 157.923 121.14C159.758 121.397 161.614 121.644 163.449 121.869C165.691 122.159 167.944 122.449 170.208 122.717C172.514 122.985 174.832 123.2 177.139 123.447C178.683 123.618 180.218 123.768 181.763 123.929C183.039 124.058 184.337 124.198 185.614 124.305C188.554 124.552 191.483 124.734 194.412 125.024C198.113 125.399 201.814 125.582 205.494 126.215C206.245 126.343 206.996 126.504 207.715 126.633C208.155 126.215 208.08 125.721 208.101 125.27C208.219 123.575 208.327 121.869 208.413 120.164C208.563 117.535 208.692 114.896 208.82 112.278C208.981 108.716 209.153 105.144 209.325 101.592C209.378 100.562 209.41 99.5217 209.421 98.4917C209.539 91.2606 209.646 84.0188 209.775 76.7876C209.797 75.3929 209.925 74.0089 210.011 72.6034C210.043 72.464 209.99 72.3138 209.958 72.067ZM206.138 123.919C203.617 123.736 201.096 123.565 198.574 123.35C196.203 123.135 193.843 122.889 191.483 122.631C189.219 122.384 186.977 122.106 184.724 121.848C182.32 121.558 179.896 121.279 177.493 120.99C175.379 120.743 173.287 120.518 171.184 120.271C169.081 120.024 166.978 119.734 164.886 119.477C162.837 119.22 160.777 118.973 158.739 118.715C156.69 118.458 154.64 118.19 152.591 117.932C150.703 117.685 148.804 117.439 146.916 117.181C144.212 116.806 141.498 116.441 138.794 116.044C135.887 115.615 132.979 115.164 130.072 114.703C126.971 114.22 123.86 113.726 120.749 113.233C117.283 112.675 113.818 112.149 110.353 111.581C107.037 111.034 103.733 110.476 100.429 109.896C97.8429 109.446 95.2573 108.952 92.6717 108.469C92.2855 108.394 91.8456 108.351 91.7061 107.89C91.7383 107.59 91.9743 107.557 92.1674 107.568C92.897 107.579 93.6158 107.568 94.3239 107.675C97.6927 108.201 101.04 108.77 104.409 109.338C107.767 109.896 111.114 110.465 114.483 111.023C117.326 111.495 120.18 111.978 123.023 112.428C125.931 112.9 128.838 113.351 131.746 113.812C134.75 114.295 137.764 114.789 140.758 115.228C143.311 115.604 145.864 115.937 148.429 116.269C151.197 116.645 153.954 117.009 156.722 117.374C158.717 117.632 160.713 117.878 162.708 118.136C164.801 118.393 166.914 118.662 169.006 118.919C171.055 119.177 173.105 119.423 175.154 119.67C177.45 119.96 179.756 120.228 182.074 120.496C184.219 120.743 186.376 120.99 188.532 121.237C190.839 121.494 193.156 121.784 195.452 122.03C196.997 122.191 198.542 122.309 200.087 122.47C201.89 122.663 203.671 122.867 205.462 123.071C205.924 123.125 206.363 123.221 206.75 123.726C206.471 123.822 206.299 123.929 206.138 123.919Z" fill="#637079"/>
<path d="M289.758 14.6043C289.511 14.5614 289.211 14.497 288.911 14.4756C286.282 14.3146 283.686 13.8426 281.089 13.4671C278.74 13.113 276.39 12.7375 274.051 12.3942C271.401 11.9865 268.751 11.6003 266.091 11.2248C263.473 10.86 260.877 10.5274 258.259 10.1734C255.394 9.79785 252.53 9.41162 249.665 9.04685C247.562 8.78936 245.459 8.57478 243.346 8.3173C241.254 8.05981 239.151 7.78086 237.048 7.5341C234.902 7.27662 232.746 7.02986 230.59 6.80455C227.972 6.51488 225.343 6.24666 222.736 5.95699C221.556 5.82824 220.365 5.71023 219.185 5.61367C216.353 5.36691 213.52 5.14161 210.709 4.88412C207.973 4.63736 205.259 4.35842 202.534 4.0902C200.109 3.85417 197.706 3.61814 195.292 3.36065C193.34 3.15681 191.387 2.9315 189.445 2.68474C187.299 2.41653 185.121 2.22341 182.997 1.78354C181.527 1.4724 180.315 1.69771 179.049 2.45944C177.858 3.17826 176.506 3.59668 175.176 4.02583C163.063 7.95252 150.918 11.8148 138.838 15.8381C123.421 20.9771 108.036 26.2449 92.651 31.4376C91.5245 31.8131 90.398 32.1779 89.2715 32.5534C88.778 32.725 88.499 33.0362 88.499 33.5726C88.499 33.6906 88.499 33.8193 88.499 33.9374L91.6103 34.6562C91.6103 34.6455 91.6103 34.6347 91.6103 34.624C91.7605 34.5811 91.9 34.4845 92.0288 34.506C94.4534 35.0317 96.921 35.257 99.3994 35.4072C102.382 35.6003 105.375 35.7827 108.347 36.1904C110.546 36.4801 112.757 36.6624 114.967 36.9199C117.123 37.1667 119.28 37.4671 121.425 37.7246C123.625 37.9821 125.835 38.2181 128.045 38.4649C130.244 38.7223 132.454 38.9798 134.654 39.2481C135.834 39.3983 137.014 39.527 138.205 39.6665C140.758 39.9669 143.323 40.2565 145.897 40.5569C148.923 40.911 151.948 41.2329 154.974 41.5976C157.903 41.9409 160.81 42.3594 163.728 42.7134C166.604 43.0782 169.468 43.4 172.344 43.7541C174.393 44.0116 176.431 44.3013 178.491 44.5587C180.476 44.8162 182.482 45.0415 184.478 45.2883C186.42 45.5351 188.372 45.7818 190.314 46.0286C192.353 46.2861 194.412 46.5543 196.451 46.8332C198.446 47.0907 200.453 47.3589 202.437 47.6379C205.002 47.9812 207.555 48.3352 210.108 48.6893C210.924 48.8073 211.729 49.0004 212.533 49.1828C212.565 49.1935 212.598 49.2257 212.619 49.2794C215.441 48.936 216.084 52.1439 215.623 54.5901C215.644 54.7617 215.655 54.9119 215.634 55.0621C215.248 57.7228 215.366 60.4265 215.172 63.0979C215.13 63.57 215.13 64.0313 215.13 64.5033C214.99 70.6938 214.872 76.9057 214.7 83.0961C214.582 87.688 214.4 92.2906 214.25 96.8825C214.239 97.3545 214.207 97.8159 214.196 98.2772C214.057 102.976 213.939 107.686 213.767 112.375C213.595 117.385 213.37 122.385 213.134 127.406C212.952 131.536 212.748 135.656 212.533 139.797C212.286 144.389 211.997 148.981 211.729 153.573C211.492 157.596 211.267 161.619 210.988 165.643C210.752 169.044 210.463 172.444 210.205 175.835C210.055 177.734 209.926 179.643 209.787 181.542C209.529 184.954 209.261 188.355 209.003 191.735C208.853 193.591 208.714 195.447 208.596 197.303C208.564 197.989 208.456 198.633 208.006 199.202C208.156 199.567 208.338 199.931 208.446 200.296C208.531 200.639 208.521 201.015 208.564 201.315C208.939 201.541 209.079 201.262 209.272 201.133C209.883 200.736 210.463 200.318 211.085 199.942C220.923 193.859 230.761 187.797 240.599 181.693C251.307 175.041 261.767 168.024 272.227 160.986C276.047 158.422 279.888 155.901 283.718 153.347C284.147 153.069 284.565 152.779 285.038 152.457C285.048 152.103 285.091 151.738 285.091 151.384C285.038 148.691 285.123 146.02 285.402 143.338C285.552 141.75 285.638 140.151 285.746 138.553C285.992 134.744 286.228 130.925 286.486 127.105C286.733 123.393 287.012 119.681 287.269 115.98C287.387 114.284 287.505 112.568 287.612 110.862C287.859 106.688 288.095 102.515 288.342 98.3308C288.621 93.5888 288.889 88.836 289.136 84.0939C289.265 81.6692 289.372 79.2445 289.458 76.8091C289.619 72.7322 289.747 68.6553 289.876 64.5784C290.037 59.1068 290.209 53.6245 290.337 48.1529C290.413 44.6875 290.455 41.2329 290.455 37.7675C290.477 30.9011 290.466 24.0133 290.477 17.147C290.423 16.2672 290.327 15.4197 289.758 14.6043ZM287.065 17.7049C285.917 18.2842 284.759 18.8529 283.6 19.4215C270.243 25.9123 256.864 32.4139 243.507 38.9047C236.823 42.1448 230.182 45.4814 223.391 48.4962C222.446 48.9146 221.492 49.3115 220.526 49.6656C220.097 49.8158 219.625 49.8587 219.163 49.8802C219.035 49.9016 218.895 49.6871 218.649 49.4832C219.55 49.1184 220.311 48.8395 221.052 48.4962C222.822 47.6701 224.592 46.8332 226.352 45.9642C240.32 39.0871 254.289 32.1779 268.269 25.3008C272.946 22.9941 277.645 20.7411 282.366 18.5417C283.954 17.8122 285.628 17.265 287.258 16.632C287.569 16.514 287.569 16.5355 288.063 16.8359C287.934 17.3723 287.462 17.501 287.065 17.7049Z" fill="#ABADB0"/>
<path d="M166.992 48.9041C166.745 48.9792 166.488 48.9792 166.23 49.0221C165.565 49.1294 164.889 49.1937 164.267 49.4083C160.898 50.5348 160.126 53.614 160.566 56.0494C160.673 56.6073 160.866 57.1544 161.113 57.6587C162.078 59.6327 163.913 60.5554 166.295 59.5576C168.601 58.5921 169.76 56.7145 169.996 54.2684C170.082 53.3243 169.749 52.4445 169.374 51.5755C169.116 50.9532 168.827 50.3524 168.612 49.7194C168.526 49.4834 168.58 49.2796 168.698 49.1294C168.269 48.8719 167.797 48.6895 167.239 48.5286C167.239 48.5393 167.239 48.55 167.239 48.5608C167.239 48.6895 167.11 48.8612 166.992 48.9041ZM166.338 56.4034C166.273 56.7467 166.112 57.09 165.93 57.4012C165.608 57.9376 164.954 58.1522 164.31 57.9591C163.741 57.7874 163.505 57.3153 163.484 56.7789C163.452 55.0194 163.613 53.3028 164.171 51.6184C164.181 51.5648 164.203 51.5111 164.224 51.4789C164.482 50.8674 164.975 50.5348 165.522 50.5563C166.102 50.5992 166.574 51.082 166.66 51.8115C166.713 52.3694 166.67 52.938 166.67 53.5067C166.713 53.5067 166.745 53.5174 166.788 53.5174C166.627 54.4722 166.509 55.4486 166.338 56.4034ZM183.589 51.4575C183.235 51.5219 182.871 51.5111 182.517 51.5111C179.931 51.5433 178.086 52.7449 176.991 55.0731C176.305 56.5429 175.908 58.0878 176.187 59.7293C176.509 61.639 177.699 62.7441 179.62 62.9372C180.661 63.0337 181.69 62.8835 182.667 62.5509C183.847 62.1325 184.931 61.521 185.81 60.6198C186.304 60.1048 186.733 59.504 187.066 58.871C187.548 57.9805 187.613 57.0149 187.237 56.0279C186.915 55.1589 186.583 54.2791 186.046 53.5174C185.875 53.2706 185.746 53.0024 185.531 52.6162C185.853 52.4553 186.121 52.4016 186.357 52.4338C185.735 51.8115 184.813 51.4789 183.965 51.1034C183.901 51.2429 183.74 51.4253 183.589 51.4575ZM183.042 58.8174C182.903 59.4504 182.635 60.0833 182.302 60.6627C182.012 61.1884 181.476 61.3922 180.854 61.3386C180.328 61.3064 179.867 60.9309 179.77 60.4159C179.727 60.1692 179.716 59.8902 179.759 59.6435C179.942 58.0234 180.135 56.3927 180.339 54.7619C180.392 54.4079 180.521 54.0646 180.639 53.7212C181.015 52.702 182.366 52.7127 182.86 53.5389C183.096 53.9358 183.225 54.3864 183.311 54.837C183.396 55.234 183.332 55.6524 183.332 56.0708C183.353 56.0708 183.375 56.0708 183.407 56.0815C183.3 56.9935 183.235 57.9269 183.042 58.8174ZM203.191 54.0002C201.667 53.8822 200.219 54.2148 198.835 54.837C195.981 56.1352 194.919 59.6757 195.852 62.0145C196.614 63.9349 198.009 64.9756 200.069 65.1365C201.914 65.276 203.534 64.7181 204.854 63.3985C206.055 62.1862 206.549 60.7056 206.238 59.0105C206.13 58.4097 205.948 57.8089 205.83 57.2081C205.755 56.8004 205.701 56.3927 205.691 55.985C205.691 55.6739 206.066 55.4271 206.377 55.5129C206.066 54.7941 205.465 54.2469 204.671 53.9358C204.585 54.0109 204.5 54.0646 204.425 54.0753C204.006 54.0646 203.598 54.0216 203.191 54.0002ZM204.553 58.5384C204.349 58.8817 204.081 59.225 203.792 59.4933C202.633 60.5125 201.453 61.5103 200.273 62.508C200.036 62.7011 199.758 62.8513 199.479 62.9694C198.653 63.3449 197.912 62.9586 197.719 62.0789C197.676 61.8321 197.644 61.5746 197.623 61.3601C197.59 60.8773 197.762 60.491 198.084 60.2228C199.532 58.989 200.981 57.7338 202.472 56.5536C203.159 56.0172 203.738 56.0923 204.296 56.5751C204.864 57.0793 204.993 57.8303 204.553 58.5384ZM185.478 193.087C183.504 192.658 181.605 192.218 179.695 191.831C175.747 191.027 171.799 190.244 167.861 189.471C163.602 188.666 159.332 187.883 155.083 187.111C151.489 186.446 147.874 185.802 144.269 185.147C140.16 184.375 136.051 183.613 131.942 182.841C127.951 182.079 123.938 181.285 119.936 180.502C114.572 179.44 109.218 178.378 103.854 177.294C99.1977 176.35 94.5629 175.352 89.9067 174.43C88.9518 174.236 87.9541 174.269 86.9778 174.236C86.5486 174.226 86.1838 174.151 85.8083 173.915C77.2361 168.346 68.6425 162.778 60.081 157.21C50.8651 151.202 41.6706 145.183 32.4439 139.164C31.1029 138.285 29.7296 137.469 28.367 136.622C28.0774 136.439 27.8092 136.203 27.3907 135.871C28.5602 135.956 29.5472 136.021 30.5128 136.128C33.0877 136.386 35.6518 136.665 38.216 136.922C39.6536 137.072 41.102 137.201 42.5289 137.34C44.0738 137.491 45.608 137.652 47.1529 137.823C48.376 137.952 49.6098 138.092 50.8543 138.22C54.3412 138.574 57.828 138.896 61.3255 139.25C64.7694 139.615 68.2026 140.023 71.6358 140.398C74.8651 140.741 78.1052 141.053 81.3345 141.417C84.4136 141.761 87.482 142.168 90.5504 142.544C93.4793 142.887 96.3975 143.209 99.3265 143.585C102.191 143.949 105.056 144.346 107.92 144.7C110.795 145.065 113.671 145.387 116.535 145.73C118.638 145.999 120.741 146.267 122.833 146.524C123.863 146.653 124.882 146.825 125.912 146.857C126.567 146.889 127.221 146.76 127.865 146.632L129.538 148.048C129.528 148.058 129.506 148.08 129.495 148.091C129.656 148.713 130.182 149.067 130.654 149.464C132.553 151.052 134.431 152.672 136.383 154.195C143.754 159.946 151.157 165.653 158.506 171.436C167.196 178.26 175.854 185.158 184.501 192.035C184.877 192.303 185.317 192.507 185.478 193.087ZM130.794 136.815C129.495 137.072 128.272 137.083 127.039 136.793C126.792 136.75 126.524 136.75 126.266 136.718C124.153 136.471 122.061 136.246 119.958 135.978C117.801 135.72 115.645 135.442 113.499 135.184C111.461 134.937 109.401 134.701 107.341 134.444C105.195 134.176 103.049 133.886 100.893 133.607C99.0475 133.36 97.2022 133.113 95.3676 132.867C93.3721 132.598 91.3873 132.319 89.3917 132.051C87.5035 131.794 85.6045 131.547 83.7163 131.311C81.6134 131.043 79.5106 130.775 77.4185 130.517C75.423 130.27 73.4167 130.024 71.4212 129.777C69.2755 129.498 67.119 129.23 64.9733 128.972C62.8812 128.715 60.7676 128.479 58.6648 128.232C56.3581 127.964 54.0407 127.674 51.7448 127.416C49.5776 127.17 47.4319 126.944 45.2754 126.698C42.9688 126.44 40.6621 126.14 38.3554 125.904C35.7269 125.646 33.1198 125.432 30.4913 125.185C29.161 125.067 27.8092 124.949 26.4788 124.82C24.7408 124.648 22.992 124.488 21.2432 124.316C19.7519 124.176 18.2606 124.058 16.7694 123.897C14.1516 123.629 11.5338 123.372 8.91596 123.039C7.135 122.814 5.32186 122.696 3.56236 122.213C3.28341 122.127 2.95082 122.159 2.66115 122.127C1.77067 123.125 1.49173 124.134 1.94233 125.432C2.54313 127.148 3.35851 128.758 4.10952 130.399C4.33482 130.903 4.73178 131.225 5.23603 131.386C6.01922 131.654 6.80242 131.923 7.59634 132.094C10.4931 132.695 13.4435 132.749 16.3724 133.006C18.2177 133.178 20.0845 133.253 21.9298 133.425C24.7622 133.671 27.5839 133.961 30.4162 134.218C33.1413 134.465 35.8771 134.691 38.5915 134.937C39.8682 135.055 41.1663 135.195 42.4431 135.324C44.0845 135.495 45.726 135.656 47.3675 135.817C48.8588 135.956 50.3608 136.075 51.8414 136.214C54.4699 136.471 57.0877 136.772 59.6948 137.029C62.216 137.276 64.7372 137.491 67.2477 137.737C70.123 138.027 73.009 138.338 75.8736 138.639C77.0537 138.767 78.2446 138.896 79.4141 139.025C81.8816 139.293 84.3492 139.583 86.8061 139.851C88.9089 140.098 91.0118 140.345 93.1038 140.591C95.2496 140.849 97.406 141.117 99.5518 141.385C101.655 141.643 103.757 141.922 105.86 142.179C107.791 142.426 109.744 142.683 111.686 142.93C113.628 143.177 115.58 143.424 117.522 143.67C119.668 143.939 121.814 144.239 123.97 144.497C125.515 144.679 127.039 144.915 128.498 145.462C128.744 145.559 128.991 145.666 128.991 146.009C129.549 145.966 130.118 145.945 130.676 145.999C130.686 145.977 130.719 145.966 130.729 145.956C131.427 145.58 132.199 145.516 132.982 145.505C133.583 145.484 134.195 145.441 134.871 145.398C135.45 144.303 136.008 143.263 136.587 142.179C134.667 140.345 132.424 138.918 130.794 136.815ZM129.109 139.894C128.809 139.937 128.498 139.98 128.208 139.969C124.904 139.819 121.61 139.497 118.338 139.121C114.808 138.724 111.278 138.199 107.759 137.716C104.487 137.276 101.215 136.826 97.9425 136.353C95.3891 135.999 92.8356 135.592 90.2822 135.248C87.5786 134.873 84.8642 134.551 82.1499 134.197C79.3282 133.821 76.5173 133.435 73.7171 133.07C70.8955 132.706 68.0739 132.384 65.2737 132.03C63.2245 131.762 61.186 131.483 59.1261 131.225C57.1306 130.968 55.1351 130.732 53.1395 130.485C51.0904 130.227 49.0412 129.959 46.992 129.712C44.8999 129.455 42.7864 129.197 40.6943 128.961C38.0336 128.661 35.3514 128.382 32.6907 128.114C30.1158 127.856 27.5517 127.631 24.9768 127.384C22.2517 127.127 19.5373 126.848 16.823 126.58C15.5356 126.451 14.2481 126.322 12.9714 126.204C10.3965 125.968 7.82164 125.743 5.25749 125.496C4.50648 125.421 3.72329 125.389 3.18685 124.541C4.01296 124.606 4.88198 124.638 5.74028 124.713C7.32812 124.863 8.91596 125.056 10.5038 125.196C12.2526 125.357 14.0121 125.453 15.7609 125.614C17.456 125.754 19.1511 125.936 20.8462 126.097C22.123 126.215 23.4211 126.333 24.6978 126.451C27.5302 126.698 30.3626 126.902 33.1842 127.17C35.6518 127.406 38.1087 127.695 40.5655 127.953C42.7757 128.189 44.975 128.425 47.1851 128.693C49.245 128.918 51.2835 129.165 53.3327 129.423C55.4247 129.68 57.5276 129.97 59.6304 130.227C61.8298 130.517 64.0291 130.785 66.2285 131.053C68.1168 131.29 70.0157 131.526 71.904 131.762C74.157 132.051 76.41 132.352 78.6523 132.62C81.4203 132.974 84.1883 133.296 86.9456 133.65C89.6063 134.004 92.267 134.379 94.917 134.744C97.5241 135.098 100.131 135.452 102.738 135.817C105.388 136.182 108.049 136.568 110.71 136.911C112.802 137.19 114.904 137.448 117.007 137.673C119.926 137.995 122.865 138.263 125.773 138.617C126.899 138.746 127.993 139.057 129.099 139.315C129.184 139.347 129.249 139.551 129.27 139.679C129.313 139.744 129.184 139.872 129.109 139.894ZM134.828 144.507C134.731 144.593 134.527 144.657 134.431 144.615C134.195 144.507 133.959 144.368 133.808 144.185C132.95 143.155 132.113 142.115 131.287 141.063C131.062 140.795 130.847 140.473 131.191 139.937C131.427 140.119 131.598 140.227 131.727 140.366C132.564 141.267 133.401 142.168 134.216 143.091C134.495 143.391 134.71 143.746 134.913 144.089C134.999 144.196 134.913 144.432 134.828 144.507Z" fill="#4F4F51"/>
<path d="M87.1389 128.929L87.0745 129.605C85.6905 129.433 84.3066 129.272 82.9118 129.101L83.0191 127.577C83.0513 127.599 83.0942 127.609 83.1264 127.609C83.341 127.642 83.6521 127.481 83.7808 127.309C83.9847 127.03 84.1349 126.665 84.1885 126.333C84.4138 124.917 84.6499 123.479 84.7464 122.041C84.9288 119.724 85.0039 117.396 85.1327 115.078C85.2507 112.965 85.3687 110.851 85.4974 108.727C85.6584 106.259 85.83 103.781 85.9802 101.303C86.1304 98.6849 86.2484 96.0456 86.3986 93.4171C86.5059 91.4538 86.6239 89.5012 86.742 87.5378C86.8922 85.0058 87.0745 82.4739 87.214 79.9526C87.375 77.3778 87.5037 74.7922 87.6432 72.2173C87.7612 70.2539 87.8792 68.3013 87.9972 66.338C88.1796 63.2481 88.4585 60.1475 88.2547 57.0469C88.244 56.768 88.3191 56.4676 88.3513 56.1565C89.2632 56.1565 90.0464 56.3067 90.851 56.5534C90.7545 57.916 90.6579 59.1927 90.5506 60.4801C90.2931 63.8275 90.0035 67.1641 89.7674 70.5114C89.5851 73.1399 89.4563 75.7792 89.3383 78.397C89.1559 82.1627 88.995 85.9392 88.834 89.705C88.6946 93.0524 88.5766 96.4212 88.4264 99.7685C88.3405 101.635 88.244 103.481 88.0938 105.347C87.847 108.791 87.5895 112.246 87.2998 115.69C87.0209 118.78 86.699 121.859 86.3879 124.938C86.2699 126.075 86.1841 127.202 86.3879 128.339C86.4416 128.672 86.742 128.929 87.0102 128.929C87.0853 128.95 87.1175 128.95 87.1389 128.929ZM215.583 54.5901C215.572 54.4828 215.561 54.3755 215.55 54.2468C215.336 54.3755 215.132 54.4184 215.11 54.515C214.96 55.0085 214.821 55.5127 214.778 56.0277C214.563 58.7528 214.306 61.4886 214.188 64.2137C213.952 69.6317 213.791 75.0496 213.608 80.4891C213.383 86.9907 213.169 93.4922 212.943 100.005C212.804 104.028 212.675 108.062 212.536 112.085C212.514 112.396 212.503 112.707 212.482 113.008C212.31 116.312 212.16 119.617 211.988 122.921C211.849 125.904 211.72 128.908 211.57 131.89C211.473 133.918 211.366 135.913 211.248 137.93C210.991 142.372 210.722 146.803 210.454 151.245C210.304 153.616 210.175 155.987 210.036 158.358C209.929 159.956 209.832 161.555 209.703 163.153C209.446 166.501 209.167 169.859 208.909 173.196C208.652 176.489 208.416 179.794 208.169 183.087C208.062 184.622 207.901 186.177 207.794 187.711C207.568 190.909 207.128 194.095 207.343 197.303C207.354 197.507 207.461 197.807 207.118 197.936C206.764 197.625 206.431 197.314 206.088 197.002C205.755 196.691 205.422 196.38 205.176 196.144C205.369 194.696 205.616 193.387 205.712 192.046C205.895 189.739 206.002 187.411 206.131 185.094C206.249 183.077 206.345 181.07 206.474 179.053C206.742 174.869 207.01 170.696 207.268 166.522C207.407 164.098 207.536 161.673 207.686 159.248C207.794 157.392 207.922 155.536 208.062 153.691C208.212 151.427 208.384 149.153 208.523 146.889C208.673 144.368 208.802 141.825 208.952 139.304C209.049 137.491 209.167 135.699 209.285 133.886C209.446 131.472 209.617 129.036 209.746 126.622C209.907 123.79 210.036 120.936 210.175 118.104C210.293 115.679 210.433 113.254 210.529 110.83C210.712 106.495 210.958 102.15 211.001 97.8159C211.087 90.9495 211.023 84.0617 211.023 77.1954C211.023 75.8543 211.023 74.5132 211.034 73.1614C211.034 72.8717 211.119 72.5713 211.173 72.2495C211.591 72.2173 211.946 72.2173 212.3 72.1529C212.482 72.1207 212.739 71.9598 212.761 71.831C212.815 71.5306 212.536 71.4126 212.289 71.3483C212.139 71.3161 211.978 71.3053 211.838 71.2732C209.542 70.8869 207.268 70.4256 204.961 70.1466C200.863 69.6424 196.754 69.2562 192.655 68.8163C191.475 68.6875 190.284 68.5695 189.104 68.4408C186.701 68.1726 184.287 67.9043 181.884 67.6254C179.663 67.3786 177.474 67.1533 175.253 66.9066C172.958 66.6276 170.64 66.3487 168.333 66.0483C166.435 65.823 164.546 65.5762 162.658 65.308C160.716 65.0505 158.785 64.7823 156.843 64.5141C154.386 64.16 151.94 63.8167 149.483 63.4519C147.091 63.0872 144.688 62.7224 142.284 62.3469C139.323 61.8963 136.384 61.4457 133.422 60.9844C130.418 60.5123 127.404 60.0188 124.4 59.5467C121.599 59.0961 118.799 58.6562 115.999 58.1842C113.199 57.7228 110.399 57.2293 107.598 56.7787C104.702 56.3067 101.794 55.8561 98.8868 55.4162C95.8184 54.9548 92.7715 54.4721 89.7031 54.0322C89.2525 53.9678 88.7697 53.9571 88.3191 54.0107C87.8685 54.0751 87.5144 54.2575 87.2998 54.5364C86.742 54.0429 86.6776 53.2061 86.6883 52.3692C86.7098 52.38 86.742 52.38 86.7741 52.3907C87.1926 52.4872 87.611 52.2619 87.7719 51.8328C87.8685 51.6075 87.9328 51.35 87.9543 51.0818C88.0616 49.966 88.2011 48.818 88.244 47.6808C88.3727 43.4537 88.4585 39.2159 88.5658 34.9673C88.5766 34.624 88.5766 34.2807 88.5658 33.9374L91.6771 34.6562C91.6664 34.742 91.6557 34.8171 91.6557 34.8922C92.0312 35.0317 92.3745 35.2463 92.7715 35.3214C94.5417 35.654 96.3119 35.9973 98.0929 36.2333C99.8846 36.4801 101.687 36.5981 103.489 36.7805C105.646 37.0165 107.792 37.2525 109.959 37.4886C111.911 37.7246 113.853 37.9821 115.784 38.2288C117.834 38.4863 119.894 38.7653 121.932 39.0228C123.97 39.2803 126.03 39.527 128.08 39.7738C130.322 40.042 132.586 40.3102 134.839 40.5892C136.984 40.8466 139.152 41.0719 141.308 41.3294C143.507 41.5976 145.717 41.8659 147.917 42.1341C149.955 42.3808 152.015 42.6276 154.064 42.8851C156.21 43.1533 158.367 43.4323 160.512 43.6897C162.508 43.9365 164.514 44.1833 166.499 44.4407C168.548 44.6982 170.597 44.9665 172.646 45.2239C174.631 45.4814 176.637 45.7175 178.633 45.9749C180.629 46.2324 182.635 46.5114 184.62 46.7689C186.765 47.0478 188.911 47.3268 191.068 47.6057C193.621 47.9383 196.185 48.2816 198.728 48.6249C200.723 48.9039 202.719 49.215 204.725 49.4296C206.978 49.6656 209.242 49.8158 211.506 49.9767C211.86 49.9982 212.214 49.8695 212.557 49.7836C212.632 49.7622 212.739 49.612 212.729 49.5476C212.718 49.4725 212.675 49.3545 212.621 49.2794C215.411 48.9361 216.055 52.1439 215.583 54.5901ZM171.938 52.337C171.734 51.4251 171.348 50.5775 170.78 49.8265C170.436 49.3652 170.018 49.0004 169.406 48.9039C169.117 48.8502 168.87 48.9575 168.73 49.1292C168.301 48.8717 167.819 48.6893 167.261 48.5284C167.261 48.3996 167.196 48.228 167.11 48.1743C166.799 47.9919 166.477 47.7988 166.134 47.7666C165.372 47.6701 164.6 47.713 163.838 47.9276C160.094 49.0004 158.624 52.2083 158.635 55.5664C158.699 57.0147 159.203 58.8708 160.695 60.3299C162.165 61.7783 163.913 62.2825 165.941 61.8105C167.497 61.4457 168.827 60.684 169.889 59.5038C171.702 57.4332 172.528 55.0836 171.938 52.337ZM187.398 52.9057C187.109 52.6804 186.776 52.4443 186.368 52.4014C185.746 51.7899 184.823 51.4466 183.976 51.0711V51.0603C184.008 50.9745 183.922 50.7492 183.815 50.6634C183.214 50.0948 182.431 49.966 181.658 49.9982C179.556 50.1162 177.753 50.9316 176.455 52.6482C174.91 54.7081 174.159 57.0255 174.352 59.6111C174.567 62.6258 176.67 64.6106 179.706 64.7716C182.678 64.9432 185.167 63.8489 187.27 61.8641C188.503 60.6947 189.319 59.257 189.415 57.519C189.533 55.6522 188.9 54.0858 187.398 52.9057ZM207.096 56.017C206.935 55.8346 206.71 55.6737 206.495 55.5449C206.452 55.5235 206.41 55.5127 206.377 55.5127C206.066 54.7939 205.465 54.2468 204.671 53.9356C204.704 53.8927 204.736 53.8498 204.747 53.8176C204.79 53.7103 204.725 53.5065 204.629 53.4314C204.435 53.2704 204.199 53.1417 203.953 53.0666C199.854 51.6504 195.187 54.1395 194.029 58.3022C192.902 62.304 195.134 66.5525 199.779 67.1641C200.723 67.2928 201.625 67.1641 202.536 66.9388C205.777 66.177 208.062 63.6451 208.362 60.3299C208.534 58.7421 208.233 57.2293 207.096 56.017ZM207.085 200.092C207.032 200.403 206.978 200.704 206.957 201.015C206.935 201.262 206.914 201.508 206.892 201.841C206.452 201.82 206.109 201.83 205.766 201.777C201.088 200.983 196.4 200.189 191.733 199.373C187.366 198.612 183 197.818 178.633 197.024C174.921 196.369 171.22 195.715 167.507 195.039C163.452 194.299 159.386 193.548 155.341 192.765C150.824 191.896 146.329 191.005 141.823 190.093C137.081 189.138 132.317 188.173 127.575 187.175C120.966 185.78 114.358 184.353 107.749 182.948C102.245 181.768 96.7411 180.63 91.2587 179.429C89.0272 178.935 86.7741 178.635 84.5319 178.356C83.9954 178.292 83.5663 178.141 83.1264 177.809C82.3647 177.197 81.5278 176.672 80.7017 176.167C72.7625 171.329 64.7804 166.565 56.8733 161.684C45.3293 154.538 33.9891 147.039 22.6274 139.593C20.6319 138.284 18.6578 136.976 16.6837 135.677C16.3941 135.474 16.1259 135.259 15.6431 134.905C16.4584 134.905 17.0271 134.873 17.585 134.926C19.3337 135.077 21.0718 135.28 22.8205 135.452C23.3033 135.506 23.6896 135.645 24.0973 135.913C25.7173 137.018 27.3695 138.091 29.0217 139.153C36.8858 144.207 44.7392 149.271 52.6033 154.313C59.695 158.851 66.7652 163.432 73.889 167.906C77.4617 170.149 81.1523 172.251 84.7893 174.419C85.1327 174.633 85.5189 174.805 85.83 175.073C86.2484 175.416 86.7312 175.599 87.2355 175.717C89.0808 176.167 90.9261 176.629 92.8037 177.004C98.2645 178.131 103.725 179.236 109.176 180.33C113.574 181.21 117.984 182.079 122.393 182.916C127.715 183.935 133.047 184.933 138.368 185.92C142.07 186.606 145.782 187.239 149.494 187.915C153.292 188.591 157.111 189.278 160.909 189.964C165.233 190.748 169.557 191.477 173.859 192.271C177.367 192.915 180.843 193.612 184.351 194.256C185.617 194.492 186.894 194.61 188.182 194.771C188.375 194.792 188.589 194.749 188.782 194.717C189.072 194.653 189.329 194.234 189.19 193.988C188.965 193.591 188.739 193.162 188.407 192.861C187.699 192.196 186.948 191.563 186.175 190.951C172.646 180.319 159.171 169.623 145.428 159.28C141.383 156.223 137.36 153.154 133.315 150.118C132.317 149.378 131.255 148.734 130.225 148.048C130 147.908 129.785 147.854 129.549 148.09L127.886 146.664C127.951 146.653 128.015 146.642 128.08 146.631C128.412 146.567 128.734 146.363 129.024 146.256C129.034 146.17 129.045 146.106 129.045 146.063C129.603 146.02 130.172 145.998 130.73 146.041C130.59 146.149 130.451 146.331 130.451 146.47C130.451 146.631 130.611 146.846 130.762 146.953C131.33 147.339 131.985 147.522 132.65 147.575C133.176 147.597 133.691 147.597 134.206 147.597C135.547 147.597 136.459 146.953 136.898 145.687C137.167 144.904 137.424 144.132 137.682 143.359C138.293 143.241 138.561 143.702 138.905 143.971C141.576 146.095 144.226 148.23 146.876 150.376C153.12 155.407 159.386 160.385 165.565 165.471C170.715 169.709 175.779 174.054 180.843 178.377C188.031 184.525 195.198 190.683 202.397 196.831C203.137 197.464 203.942 198.043 204.693 198.676C205.444 199.288 206.238 199.717 207.225 199.449C207.45 199.749 207.118 199.878 207.085 200.092ZM202.805 199.47C201.871 198.58 200.97 197.646 200.005 196.809C196.185 193.483 192.334 190.2 188.503 186.885C177.603 177.476 166.424 168.378 155.03 159.57C149.676 155.44 144.226 151.427 139.119 146.985C138.905 146.792 138.69 146.513 138.336 146.706C138.089 146.835 138.164 147.168 138.626 147.586C139.892 148.723 141.136 149.882 142.467 150.944C147.359 154.839 152.251 158.733 157.176 162.563C165.437 169.001 173.612 175.577 181.573 182.401C186.937 187.003 192.269 191.66 197.623 196.284C198.985 197.453 200.412 198.558 201.839 199.685C202.107 199.899 202.429 200.028 202.719 200.189C203.03 199.931 203.009 199.685 202.805 199.47Z" fill="#BCBEC0"/>
</svg>
