<svg width="216" height="208" viewBox="0 0 216 208" fill="none" xmlns="http://www.w3.org/2000/svg">
<mask id="mask0_283_107532" style="mask-type:luminance" maskUnits="userSpaceOnUse" x="0" y="0" width="216" height="208">
<path d="M0 0H215.999V207.919H0V0Z" fill="white"/>
</mask>
<g mask="url(#mask0_283_107532)">
<path d="M215.473 80.9626C215.453 85.6827 215.311 90.3927 215.169 95.1128C215.047 98.8991 214.824 102.675 214.641 106.451C214.509 109.192 214.387 111.923 214.265 114.653C214.103 118.378 213.971 122.104 213.788 125.819C213.616 129.189 213.372 132.569 213.21 135.939C213.007 140.061 212.854 144.192 212.692 148.323C212.611 150.069 212.529 151.825 212.052 153.52C211.981 153.795 211.86 154.058 211.728 154.312C211.656 154.434 211.525 154.495 211.382 154.515C211.291 154.931 211.169 155.327 211.017 155.713C211.007 155.703 210.987 155.703 210.976 155.693C210.997 155.703 211.027 155.713 211.058 155.723C211.21 155.825 211.352 156.129 211.311 156.312C211.22 156.759 211.088 157.215 210.875 157.621C210.205 158.86 209.312 159.926 208.307 160.92C204.277 164.9 200.176 168.787 195.882 172.482C188.462 178.877 180.92 185.12 173.134 191.078C167.572 195.321 161.928 199.463 156.061 203.29C154.792 204.112 153.503 204.914 152.183 205.665C151.219 206.203 150.204 206.65 149.189 207.096C148.275 207.502 147.331 207.645 146.296 207.573C141.352 207.218 136.399 206.944 131.445 206.64C128.826 206.487 126.207 206.355 123.588 206.183C121.081 206.02 118.584 205.817 116.077 205.635C114.036 205.482 112.006 205.33 109.966 205.147C108.159 204.995 106.362 204.802 104.576 204.609C103.114 204.457 101.673 204.295 100.221 204.142C96.2826 203.706 92.3441 203.239 88.4056 202.803C85.9694 202.529 83.5332 202.275 81.1173 201.991C78.9653 201.727 76.8337 201.453 74.6918 201.168C72.5602 200.874 70.4184 200.58 68.2867 200.285C65.343 199.869 62.3992 199.443 59.4555 199.006C56.8671 198.62 54.2684 198.225 51.6698 197.839C49.0205 197.443 46.361 197.078 43.7116 196.671C40.4329 196.154 37.1542 195.626 33.8755 195.068C29.6223 194.347 25.3691 193.657 21.1261 192.855C16.7207 192.022 12.3355 191.078 7.95038 190.165C7.50374 190.073 7.02666 189.962 6.60032 189.799C5.19951 189.221 4.34685 188.267 4.26564 186.643C4.13368 183.912 3.86976 181.192 3.7175 178.461C3.53478 175.142 3.42312 171.833 3.26071 168.513C3.078 164.686 2.87498 160.849 2.68212 157.012C2.65166 156.322 2.63136 155.612 2.60091 154.911C2.23548 145.075 2.17458 135.229 2.25578 125.393C2.34714 113.811 2.5197 102.218 2.69227 90.6363C2.77347 84.7082 2.93589 78.7599 3.06785 72.8217C3.078 72.5374 3.06785 72.2634 3.06785 71.8979C2.31669 71.634 1.74824 71.4818 1.23055 71.2381C0.55045 70.9235 0.16472 70.3753 0.083514 69.6039C-0.00784248 68.5989 0.134267 67.6041 0.641808 66.7413C1.34221 65.5334 2.10352 64.3559 2.94604 63.2596C3.40283 62.6709 3.65659 62.1227 3.6972 61.3817C3.89006 57.2605 4.10323 53.119 4.3773 48.9977C4.48896 47.4345 4.75288 45.8916 5.04725 44.3385C5.20966 43.4148 5.6157 42.5723 6.58002 42.1764C6.59017 42.146 6.54957 42.1663 6.51912 42.1764C6.79319 41.3339 7.44284 40.7147 8.18385 40.1463C8.13309 39.9229 8.2549 39.6083 8.55943 39.4052C9.39179 38.8774 10.214 38.3191 11.0971 37.8725C16.5481 35.0912 21.9889 32.2692 27.4704 29.5793C45.8636 20.5045 64.4395 11.8154 83.32 3.80641C85.3096 2.97405 87.2991 2.15183 89.3191 1.38037C90.2835 1.00479 91.3188 0.72057 92.3238 0.517554C93.2373 0.334841 94.1509 0.22318 95.0848 0.619062C95.4908 0.781475 96.0085 0.720569 96.4653 0.740871C101.297 0.954038 106.139 1.1672 110.981 1.38037C114.371 1.53263 117.741 1.66459 121.132 1.83716C124.857 2.01987 128.582 2.23304 132.318 2.43605C134.521 2.55786 136.733 2.69998 138.957 2.83194C141.636 2.9842 144.316 3.10601 147.006 3.28872C149.158 3.44098 151.31 3.65415 153.452 3.83686C155.025 3.95867 156.599 4.10078 158.162 4.22259C161.471 4.49666 164.8 4.74028 168.11 5.03466C171.135 5.30873 174.149 5.65386 177.154 5.95838C179.824 6.2426 182.503 6.48622 185.163 6.78059C188.574 7.17648 191.984 7.61296 195.405 8.02914C197.608 8.29306 199.8 8.50623 202.003 8.83105C205.008 9.26754 207.982 9.77508 210.976 10.2725C211.809 10.4044 212.458 10.8409 213.037 11.4703C214.184 12.729 214.915 14.1095 214.986 15.8453C215.037 17.2359 215.179 18.6367 215.23 20.0274C216.011 40.3188 215.595 60.6407 215.473 80.9626Z" fill="black"/>
</g>
<mask id="mask1_283_107532" style="mask-type:luminance" maskUnits="userSpaceOnUse" x="5" y="0" width="211" height="208">
<path d="M5.61328 0H215.999V207.503H5.61328V0Z" fill="white"/>
</mask>
<g mask="url(#mask1_283_107532)">
<path d="M213.533 34.0966C213.523 28.737 213.432 23.3773 213.381 18.0279C213.371 17.094 213.28 16.1601 213.229 15.2364C213.168 14.1604 212.843 13.1859 212.021 12.2419C209.412 12.0084 206.854 11.7953 204.306 11.5212C201.88 11.2674 199.454 10.9629 197.018 10.6685C194.694 10.3945 192.389 10.1102 190.075 9.83618C187.466 9.5215 184.857 9.20683 182.249 8.91246C179.65 8.62823 177.041 8.35416 174.422 8.08009C171.225 7.76542 168.038 7.45074 164.85 7.14622C163.46 7.0041 162.059 6.87215 160.678 6.76049C157.298 6.48641 153.928 6.23265 150.558 5.94842C148.406 5.78601 146.254 5.58299 144.102 5.41043C142.295 5.26832 140.498 5.13636 138.692 5.0247C136.073 4.86229 133.444 4.74048 130.825 4.56792C128.328 4.4055 125.831 4.19234 123.313 4.00962C121.577 3.88781 119.821 3.75585 118.086 3.64419C115.873 3.49193 113.66 3.34982 111.447 3.20771C108.716 3.01485 105.976 2.82198 103.245 2.61896C101.032 2.45655 98.8193 2.30429 96.6065 2.15203C96.038 2.10127 95.4493 2.04037 94.891 1.91856C94.4646 1.81705 94.0992 1.83735 93.7135 2.05052C90.384 3.87766 86.7602 5.05515 83.2785 6.53717C67.1793 13.3687 51.3035 20.6975 35.5088 28.1685C27.6521 31.8735 19.8157 35.609 11.9692 39.3141C11.015 39.7607 10.0303 40.1261 9.05587 40.5119C8.7818 40.6134 8.47728 40.5931 8.26411 40.3393C8.23366 40.2987 8.20321 40.2378 8.19306 40.1769C7.58401 40.5931 7.05617 41.0905 6.72119 41.7097L13.9283 42.1868C13.9892 41.7604 14.2531 41.6894 14.5475 41.7198C15.4103 41.8213 16.2832 41.9533 17.1562 42.0548C18.9021 42.2578 20.6278 42.4608 22.3737 42.6131C24.3937 42.7958 26.434 42.9176 28.4743 43.0902C30.5045 43.2526 32.5448 43.4455 34.575 43.6282C36.1483 43.7703 37.7217 43.9022 39.2849 44.024C41.3862 44.1865 43.4772 44.3184 45.5683 44.4808C47.5984 44.6432 49.6387 44.8361 51.6689 45.0188C53.2423 45.1508 54.8156 45.2929 56.3789 45.4147C58.4192 45.5771 60.4493 45.7192 62.4896 45.8918C64.4691 46.0542 66.4485 46.2572 68.4076 46.4399C69.8591 46.582 71.3107 46.7039 72.7724 46.8358C75.909 47.0997 79.0456 47.3637 82.1822 47.6479C85.1361 47.922 88.1001 48.2468 91.054 48.5412C92.3939 48.6833 93.7236 48.8152 95.0635 48.9472C99.1848 49.3431 103.306 49.6983 107.437 50.1044C110.34 50.3987 113.233 50.7337 116.126 51.0281C119.09 51.3123 122.055 51.5458 125.019 51.83C129.891 52.3172 134.784 52.6827 139.595 53.5658C139.93 53.6368 140.295 53.6571 140.498 54.1038C143.97 53.6267 147.421 55.3523 147.168 58.5904C147.178 58.6107 147.178 58.631 147.188 58.6615C147.249 59.1893 147.239 59.707 147.239 60.2349C147.279 64.7114 147.228 69.198 147.381 73.6745C147.706 82.2316 147.503 90.7888 147.462 99.356C147.442 103.782 147.36 108.208 147.33 112.633C147.269 122.297 147.239 131.96 147.168 141.624C147.056 157.642 146.934 173.65 146.782 189.657C146.751 193.322 146.65 196.986 146.538 200.651C146.508 201.585 146.356 202.508 146.234 203.422C146.213 203.574 146.061 203.706 145.878 203.929C145.878 204.681 145.878 205.442 145.878 206.193C146.68 206.305 147.431 206.284 148.162 205.848C149.665 204.945 151.218 204.143 152.669 203.178C158.273 199.483 163.642 195.464 168.961 191.393C178.422 184.156 187.578 176.583 196.49 168.696C199.86 165.722 203.038 162.555 206.296 159.459C207.311 158.505 208.306 157.51 209.321 156.556C209.666 156.231 210.021 155.937 210.407 155.693C210.559 155.591 210.864 155.602 211.016 155.693C211.168 155.307 211.29 154.911 211.381 154.495C211.158 154.526 210.915 154.455 210.823 154.272C210.701 154.018 210.549 153.744 210.519 153.46C210.377 152.191 210.214 150.922 210.163 149.643C210.123 148.608 210.224 147.552 210.285 146.506C210.498 142.314 210.712 138.132 210.935 133.95C211.057 131.625 211.199 129.311 211.31 126.976C211.483 123.424 211.615 119.881 211.777 116.328C211.95 112.846 212.143 109.355 212.315 105.863C212.468 102.554 212.65 99.2342 212.742 95.9251C212.924 88.6469 213.016 81.3688 213.178 74.0907C213.493 60.7627 213.564 47.4347 213.533 34.0966ZM209.585 14.6375C209.463 14.8811 209.29 15.1349 209.067 15.3176C208.661 15.6424 208.204 15.9165 207.758 16.1906C200.713 20.7381 193.668 25.306 186.624 29.8434C176.625 36.279 166.87 43.0496 157.095 49.8202C155.42 50.9773 153.684 52.0432 151.959 53.1293C151.543 53.4034 151.086 53.7181 150.406 53.3932C150.588 53.1801 150.7 52.977 150.852 52.8552C166.454 41.7198 182.208 30.8179 198.449 20.6265C201.505 18.708 204.509 16.7184 207.555 14.7796C208.042 14.4649 208.58 14.2315 209.108 14.0082C209.209 13.9676 209.473 14.0589 209.544 14.1706C209.646 14.2721 209.656 14.5055 209.585 14.6375Z" fill="#ABADB0"/>
</g>
<path d="M140.507 54.0935C140.548 54.1747 140.578 54.2661 140.609 54.3778C140.243 54.4488 139.969 54.5402 139.705 54.5402C136.721 54.5909 133.757 54.2966 130.793 54.0529C128.935 53.8905 127.078 53.6774 125.23 53.4845C123.484 53.3018 121.749 53.1191 120.003 52.9465C118.612 52.7942 117.221 52.642 115.831 52.51C111.821 52.1141 107.812 51.7487 103.812 51.3427C99.8636 50.9366 95.9251 50.4799 91.9866 50.084C89.0225 49.7896 86.0585 49.5561 83.0945 49.2618C80.0695 48.9775 77.0649 48.6527 74.0501 48.3583C70.9744 48.0741 67.8886 47.8204 64.8129 47.5361C62.9451 47.3737 61.0875 47.1707 59.2299 46.988C57.7784 46.8459 56.3268 46.7038 54.8753 46.582C51.6169 46.3079 48.3584 46.0541 45.1102 45.7699C41.9127 45.4857 38.7253 45.1608 35.5278 44.8766C33.6702 44.7041 31.8127 44.5823 29.9551 44.4097C28.0975 44.2371 26.2297 44.0544 24.3721 43.8717C22.8698 43.7296 21.3573 43.6078 19.8449 43.4048C18.1192 43.1713 16.3834 42.8871 14.668 42.5927C14.3939 42.5521 14.1604 42.3592 13.9371 42.2476C13.9371 42.2374 13.9473 42.2171 13.9473 42.1968L6.74019 41.7197C6.64883 41.872 6.57778 42.0344 6.52702 42.1968C6.56763 42.1765 6.59808 42.1562 6.63868 42.1461C7.18683 42.3085 7.42029 42.7247 7.45075 43.2017C7.5015 43.8412 7.55225 44.4909 7.43045 45.1101C7.02441 47.2925 6.87215 49.4851 6.76049 51.7081C6.61838 54.733 6.42552 57.7478 6.27325 60.7728C6.2631 61.057 6.27325 61.3412 6.27325 61.6965C7.32894 62.0315 8.36432 62.1736 9.38955 62.2548C14.0386 62.6608 18.6978 63.0059 23.3367 63.3917C26.8895 63.6962 30.4321 64.0109 33.9646 64.3154C35.944 64.4778 37.9234 64.5996 39.8927 64.7722C41.6995 64.9244 43.4962 65.1275 45.2929 65.3102C46.6227 65.4523 47.9626 65.5944 49.3025 65.7162C53.1902 66.1019 57.078 66.4775 60.9657 66.8835C64.7824 67.2794 68.6093 67.7362 72.4361 68.1321C75.2276 68.4265 78.0089 68.6701 80.7902 68.9543C83.5817 69.2487 86.3529 69.5532 89.1342 69.8577C90.4639 69.9998 91.8038 70.1521 93.1336 70.2739C97.0823 70.6596 101.031 71.0251 104.969 71.4311C108.918 71.8371 112.857 72.2939 116.795 72.6999C119.587 72.9842 122.378 73.2075 125.149 73.5019C127.646 73.7759 130.133 74.0906 132.62 74.3951C134.995 74.6692 137.371 74.9433 139.746 75.2173C141.187 75.3899 142.639 75.5929 144.08 75.7655C144.649 75.8264 145.217 75.8467 145.715 75.8974C146.141 75.3798 145.999 74.9027 145.999 74.456C145.968 71.9488 145.887 69.4517 145.928 66.9444C145.968 64.4372 146.151 61.9503 146.283 59.443C146.303 58.9862 146.293 58.4888 146.841 58.1437C146.943 58.2858 147.105 58.4381 147.166 58.5903C147.43 55.3421 143.979 53.6266 140.507 54.0935ZM102.949 66.7922C100.737 67.7058 98.5338 67.7362 96.3209 66.7922C94.2096 65.8989 93.0118 64.2748 92.7073 62.0315C92.4941 60.387 92.758 58.7832 93.4077 57.2606C94.0573 55.7481 95.1333 54.6823 96.727 54.124C97.9552 53.6977 99.1835 53.4439 100.483 53.5048C101.143 53.5353 101.752 53.718 102.31 54.0326C102.452 54.1037 102.554 54.256 102.797 54.5503C103.081 54.6823 103.376 54.8041 103.64 54.9564C103.741 54.7432 103.985 54.5706 104.198 54.6214C104.523 54.7026 104.868 54.8041 105.142 54.997C106.36 55.8395 106.989 57.0677 107.304 58.4584C108.126 62.1025 106.411 65.3508 102.949 66.7922ZM124.581 65.838C124.195 66.3354 123.748 66.8226 123.231 67.1982C120.805 68.9746 118.125 69.675 115.141 68.9036C112.552 68.2336 111.141 66.5892 110.958 63.95C110.674 59.8084 112.775 55.8801 118.389 55.3928C119.069 55.3421 119.79 55.5147 120.449 55.7075C120.866 55.8395 121.261 56.0729 121.363 56.55C121.83 56.8546 122.307 57.0982 122.754 57.4027C122.875 57.3824 123.018 57.3824 123.16 57.4129C123.769 57.5245 124.215 57.8899 124.571 58.3772C126.042 60.4682 126.489 63.3612 124.581 65.838ZM143.279 64.8331C142.903 68.4265 140.203 70.9845 136.569 71.2991C135.036 71.4311 133.554 71.289 132.143 70.6089C129.179 69.1878 127.89 66.0918 128.966 62.9856C130.265 59.2298 133.899 56.9358 137.868 57.4129C138.772 57.5245 139.705 57.7174 140.304 58.6919C140.243 58.7528 140.193 58.7832 140.142 58.8238C140.487 59.0674 140.761 59.3821 140.964 59.7171C141.248 59.6968 141.583 59.8389 141.857 60.1434C143.065 61.4732 143.461 63.1074 143.279 64.8331ZM145.755 204.072C145.623 203.686 145.502 203.493 145.491 203.29C145.349 201.31 145.116 199.341 145.116 197.362C145.136 188.389 145.217 179.425 145.288 170.462C145.4 157.764 145.522 145.075 145.644 132.376C145.786 117.414 145.908 102.442 146.04 87.4897C146.04 87.1547 145.999 86.8095 145.968 86.4543C144.486 86.7486 143.106 86.6979 141.725 86.4847C140.345 86.2716 138.944 86.1497 137.543 86.0178C133.605 85.6219 129.646 85.2565 125.707 84.8606C121.698 84.4647 117.709 83.9978 113.699 83.612C110.694 83.3075 107.659 83.0741 104.645 82.7898C101.62 82.4955 98.6049 82.1706 95.6002 81.8763C92.687 81.592 89.7838 81.3484 86.8909 81.0642C84.0994 80.7698 81.3282 80.4552 78.5469 80.1506C77.2781 80.0187 75.9889 79.8867 74.7201 79.7547C70.4872 79.2878 66.2644 78.831 62.0316 78.3742C58.4991 77.9885 54.9565 77.6129 51.424 77.2069C47.7697 76.7907 44.1256 76.3441 40.4713 75.9482C37.8016 75.6437 35.132 75.4102 32.4725 75.126C29.752 74.8418 27.0215 74.5068 24.3011 74.2226C21.5807 73.9282 18.8399 73.6744 16.1195 73.3902C13.3281 73.0857 10.5569 72.7812 7.77557 72.4766C7.14622 72.3954 6.51687 72.3244 5.76571 72.4056C5.70481 72.7913 5.6236 73.1161 5.61345 73.441C5.5424 75.0752 5.48149 76.6994 5.45104 78.3336C5.27848 87.6419 5.15667 96.9603 4.9435 106.279C4.56792 122.52 4.51717 138.771 4.77094 155.023C4.87245 160.9 5.14652 166.767 5.28863 172.655C5.39013 177.304 5.41044 181.963 5.49164 186.622C5.49164 186.947 5.57285 187.282 5.64391 187.708C8.02934 187.262 10.2118 188.064 12.4145 188.51C19.1546 189.881 25.8846 191.261 32.6755 192.337C37.7407 193.139 42.806 193.951 47.8712 194.753C52.0635 195.413 56.2761 196.083 60.4785 196.712C64.1125 197.25 67.7566 197.748 71.3906 198.245C75.3697 198.793 79.359 199.341 83.3381 199.859C85.7134 200.163 88.0988 200.397 90.4639 200.671C92.9001 200.965 95.3262 201.26 97.7624 201.564C99.1023 201.717 100.422 201.879 101.762 202.021C104.837 202.346 107.903 202.681 110.979 202.985C112.369 203.127 113.77 203.249 115.161 203.371C118.419 203.645 121.667 203.899 124.926 204.193C128.296 204.488 131.666 204.813 135.036 205.107C136.955 205.279 138.883 205.381 140.792 205.574C142.416 205.736 144.04 205.939 145.644 206.183C145.725 206.193 145.816 206.203 145.887 206.213C145.887 205.462 145.887 204.701 145.887 203.95C145.847 203.98 145.806 204.021 145.755 204.072ZM139.807 149.501C139.756 154.221 139.614 158.931 139.523 163.651C139.391 169.934 139.289 176.218 139.147 182.511C139.076 185.942 138.954 189.383 138.873 192.814C138.853 193.525 138.751 194.195 138.305 194.784C138.183 194.946 138.051 195.047 137.909 195.139C137.858 195.748 137.462 196.276 136.924 196.732C136.995 196.763 137.076 196.804 137.147 196.844C137.675 197.128 137.716 197.849 137.188 198.103C136.782 198.296 136.315 198.428 135.868 198.468C135.229 198.529 134.589 198.509 133.95 198.478C131.26 198.316 128.59 198.143 125.911 197.951C124.053 197.808 122.195 197.646 120.338 197.484C116.856 197.159 113.374 196.824 109.893 196.499C107.101 196.235 104.31 195.981 101.538 195.687C98.9297 195.413 96.3209 195.098 93.7122 194.804C91.3471 194.53 88.9616 194.246 86.5863 193.971C84.3329 193.708 82.0692 193.444 79.8158 193.149C77.3288 192.845 74.8419 192.52 72.3651 192.195C69.2386 191.779 66.1223 191.353 63.006 190.936C59.9405 190.53 56.875 190.155 53.8094 189.759C50.8048 189.363 47.8002 188.937 44.8057 188.52C42.7857 188.236 40.7555 187.972 38.7355 187.698C35.8527 187.302 32.9495 186.937 30.0667 186.521C27.3057 186.125 24.5345 185.709 21.7837 185.211C19.317 184.775 16.8707 184.237 14.4142 183.729C14.0183 183.648 13.6224 183.526 13.2367 183.394C10.9223 182.532 10.6279 181.73 10.4858 179.831C10.4351 179.141 10.4452 178.441 10.4452 177.73C10.4452 167.082 10.4249 156.424 10.4757 145.765C10.5569 129.818 10.6787 113.861 10.8208 97.9044C10.8614 93.1842 10.9731 88.4743 11.0746 83.7542C11.0949 82.8812 11.1862 82.0082 11.3283 81.1556C11.572 79.8055 12.2825 79.298 13.6833 79.4401C14.9522 79.572 16.2312 79.7243 17.5102 79.8461C19.8246 80.0694 22.1491 80.2724 24.4736 80.4958C26.382 80.6785 28.3106 80.8713 30.219 81.0439C32.0258 81.1962 33.8327 81.318 35.6294 81.4905C39.0502 81.8052 42.471 82.1503 45.902 82.4752C48.7442 82.7594 51.5966 83.003 54.4388 83.2872C57.2201 83.5613 60.0014 83.8861 62.7929 84.1805C64.1226 84.3226 65.4625 84.4749 66.7923 84.6068C71.2079 85.0636 75.6133 85.5407 80.0188 85.9873C82.8102 86.2716 85.5916 86.505 88.383 86.7892C91.1745 87.0836 93.9457 87.3983 96.7371 87.6927C98.3105 87.8449 99.8636 87.9972 101.437 88.1495C103.416 88.3423 105.375 88.5453 107.355 88.728C108.746 88.8702 110.146 89.0123 111.537 89.1341C114.674 89.4183 117.81 89.6619 120.947 89.9461C124.083 90.2304 127.22 90.5653 130.346 90.8597C131.971 91.0221 133.595 91.1744 135.229 91.286C136.366 91.3673 137.35 91.7327 138.294 92.4026C139.137 92.9812 139.584 93.6715 139.604 94.7069C139.675 96.6964 139.827 98.6657 139.848 100.645C139.949 107.69 140.081 114.734 140.071 121.789C140.03 130.986 139.919 140.253 139.807 149.501Z" fill="#BCBEC0"/>
<path d="M101.061 54.8041C99.7011 54.7635 98.4119 55.1492 97.1735 55.6669C96.2193 56.0729 95.5189 56.7632 95.1434 57.7275C94.5851 59.1588 94.3414 60.6205 94.6866 62.1634C94.9403 63.3206 95.5798 64.153 96.5949 64.7214C98.8992 66.0004 102.229 65.5335 104.025 63.6251C105.507 62.0619 105.67 60.2145 104.99 58.2757C104.695 57.4737 104.238 56.7124 103.853 55.9207C103.761 55.7278 103.66 55.4943 103.599 55.271C103.569 55.1695 103.589 55.0477 103.64 54.9462C103.376 54.8041 103.081 54.6721 102.797 54.5402C102.858 54.6112 102.929 54.7026 103.02 54.8041C102.097 54.8142 101.589 54.8244 101.061 54.8041ZM101.66 61.5442C101.63 62.1025 101.498 62.6912 101.285 63.2089C100.939 64.0413 99.8432 64.2849 99.0717 63.7875C98.7469 63.5845 98.6048 63.28 98.6048 62.9044C98.5946 62.1431 98.6048 61.4021 98.6048 60.8844C98.6657 59.8389 98.6961 59.0268 98.7469 58.2249C98.7672 57.9407 98.8078 57.6565 98.8789 57.3722C99.0311 56.6617 99.5691 56.0526 100.036 56.012C100.655 55.9613 101.437 56.6211 101.62 57.3925C101.68 57.6768 101.701 57.9711 101.701 58.2554C101.701 59.3313 101.731 60.4479 101.66 61.5442ZM121.353 57.0779C120.368 57.0373 119.556 56.9357 118.754 56.9764C118.074 57.0271 117.353 57.1388 116.714 57.3722C113.851 58.3772 112.288 61.1991 112.806 64.1834C113.06 65.6654 113.882 66.7617 115.638 67.117C117.709 67.5332 119.708 67.2084 121.505 66.0207C121.688 65.8887 121.881 65.7466 122.053 65.5944C123.616 64.1936 124.286 62.4984 123.21 60.2652C122.936 59.6866 122.54 59.1689 122.266 58.5903C122.165 58.367 122.165 58.0117 122.256 57.7783C122.358 57.5549 122.54 57.4534 122.754 57.4027C122.327 57.1083 121.83 56.8545 121.363 56.55C121.383 56.7023 121.383 56.8748 121.353 57.0779ZM120.734 60.9656C120.033 62.4273 119.302 63.8586 118.582 65.3102C118.561 65.3609 118.531 65.4218 118.5 65.4624C117.972 66.1831 117.435 66.4572 116.927 66.244C116.186 65.9192 115.739 65.2391 115.81 64.4473C115.831 64.1631 115.881 63.8586 115.983 63.6048C116.612 62.1837 117.231 60.7524 117.891 59.3313C118.176 58.702 118.703 58.367 119.363 58.4279C120.348 58.4381 120.977 59.0573 120.957 59.9505C120.947 60.2957 120.876 60.6611 120.734 60.9656ZM140.396 60.9555C140.284 60.5494 140.213 60.1434 140.609 59.8389C140.71 59.7577 140.822 59.7171 140.944 59.7069C140.741 59.3516 140.457 59.0573 140.122 58.8136C139.584 59.1994 139.096 59.0674 138.65 58.9659C137.706 58.7426 136.792 58.8441 135.868 59.037C133.067 59.6359 131.382 61.3818 130.651 64.0921C130.204 65.7872 130.945 67.5433 132.417 68.4772C134.518 69.8273 137.899 69.5227 139.746 67.7565C140.913 66.6298 141.39 65.2086 141.137 63.615C141.005 62.7217 140.649 61.8487 140.396 60.9555ZM137.838 63.5947C137.827 63.5947 137.807 63.5947 137.797 63.5947C137.797 64.1225 137.848 64.6402 137.787 65.168C137.726 65.7872 137.624 66.4267 137.492 67.0459C137.34 67.7666 136.995 68.3554 136.244 68.5686C135.381 68.8325 134.782 68.3351 134.285 67.7463C134.082 67.4926 133.96 67.1271 133.919 66.8023C133.889 66.4064 133.99 65.9903 134.051 65.6045C134.265 64.4067 134.498 63.1988 134.731 62.0111C134.803 61.666 134.884 61.331 135.006 60.9961C135.249 60.2855 135.797 59.8998 136.427 59.9708C137.086 60.052 137.635 60.5088 137.767 61.1585C137.827 61.4325 137.838 61.7371 137.848 62.0213C137.848 62.5491 137.838 63.077 137.838 63.5947ZM145.887 78.0088C145.958 78.1306 146.07 78.222 146.07 78.3235C146.09 79.8359 146.121 81.3484 146.11 82.8609C146.11 83.4192 145.857 83.7541 145.309 83.8557C144.679 83.9572 144.03 84.0384 143.4 83.9876C141.421 83.8455 139.441 83.6526 137.482 83.4496C135.686 83.2669 133.889 83.074 132.082 82.8812C130.346 82.6985 128.6 82.5157 126.875 82.3432C125.535 82.2011 124.215 82.0387 122.875 81.9168C119.972 81.6326 117.069 81.389 114.176 81.1048C111.212 80.8206 108.258 80.4957 105.294 80.2014C103.843 80.0491 102.391 79.9273 100.939 79.7953C97.3968 79.4502 93.8542 79.1051 90.3217 78.7701C87.4795 78.496 84.6271 78.2524 81.7849 77.958C79.0544 77.684 76.3339 77.3388 73.6135 77.0546C70.9439 76.7704 68.2742 76.5369 65.6147 76.2324C63.006 75.9482 60.3972 75.6132 57.7884 75.3188C55.3015 75.0346 52.8146 74.7707 50.3175 74.4966C47.5361 74.2022 44.7447 73.8977 41.9735 73.5932C40.5828 73.4409 39.1922 73.2785 37.7914 73.1466C33.8529 72.7507 29.8941 72.3853 25.9556 71.9894C21.7836 71.5732 17.6015 71.1367 13.4295 70.7205C10.6989 70.4566 7.96835 70.2333 5.24794 69.9592C4.37497 69.8679 3.5223 69.6547 2.67978 69.4618C2.3042 69.3705 2.08089 69.0659 2.14179 68.6701C2.2433 68.2133 2.33466 67.7565 2.51737 67.3302C3.23808 65.7263 4.17195 64.2646 5.4408 62.9552C6.88221 63.1886 8.31347 63.4526 9.74474 63.6657C11.1151 63.8789 12.5058 64.1124 13.8964 64.2342C17.0229 64.5387 20.1696 64.7722 23.3062 65.0564C26.4326 65.3406 29.5794 65.6756 32.7058 65.9598C35.6699 66.244 38.6339 66.4876 41.5878 66.782C44.3691 67.0561 47.1504 67.3809 49.9317 67.6753C52.5303 67.9595 55.1391 68.2336 57.7478 68.5178C60.4683 68.8223 63.1988 69.1268 65.9192 69.4314C67.1881 69.5735 68.4772 69.7257 69.7461 69.8476C73.5729 70.2434 77.3998 70.6089 81.2266 71.0149C85.0535 71.4209 88.8803 71.8676 92.697 72.2736C95.4276 72.5578 98.1581 72.7913 100.879 73.0755C103.609 73.3699 106.33 73.6947 109.05 73.9891C111.73 74.2733 114.399 74.5169 117.059 74.8011C119.84 75.0955 122.622 75.4 125.403 75.7046C127.89 75.9786 130.377 76.2527 132.874 76.5369C135.361 76.811 137.858 77.0749 140.355 77.3591C142.202 77.5723 144.05 77.7956 145.887 78.0088Z" fill="#77787B"/>
<path d="M137.9 195.139C137.849 195.748 137.453 196.276 136.915 196.732C136.458 196.529 135.961 196.468 135.464 196.448C133.373 196.326 131.261 196.204 129.17 196.032C125.628 195.738 122.075 195.423 118.532 195.108C115.456 194.844 112.371 194.59 109.295 194.316C107.843 194.184 106.382 194.032 104.93 193.89C101.925 193.575 98.9005 193.261 95.8857 192.936C93.3988 192.672 90.8915 192.398 88.4046 192.104C85.9684 191.819 83.5424 191.515 81.1163 191.22C78.7918 190.946 76.4774 190.693 74.163 190.408C70.9351 190.002 67.697 189.556 64.4589 189.15C61.2715 188.744 58.0943 188.388 54.907 187.982C50.8568 187.465 46.8168 186.906 42.7768 186.378C38.3815 185.79 33.9964 185.181 29.6011 184.653C24.7896 184.064 20.0187 183.313 15.258 182.47C14.4256 182.318 13.5324 182.278 12.6797 181.74C12.8421 181.232 12.9944 180.755 13.0857 180.471C14.1109 179.933 14.9535 179.537 15.7554 179.06C19.7548 176.654 23.7847 174.319 27.7232 171.812C41.6805 162.91 55.8916 154.403 70.123 145.938C73.0262 144.212 75.9597 142.527 78.4771 140.182C79.1369 140.243 79.7764 140.284 80.4058 140.334C81.1671 140.395 81.9081 140.477 82.6694 140.517C85.1157 140.68 87.5621 140.822 90.0084 140.974C93.0943 141.167 96.1801 141.37 99.2761 141.542C102.301 141.705 105.326 141.837 108.361 141.999C110.574 142.111 112.797 142.243 115.01 142.395C117.69 142.558 120.359 142.771 123.039 142.933C126.013 143.116 128.977 143.258 131.962 143.4C133.474 143.481 134.997 143.532 136.499 143.603C136.672 143.613 136.834 143.674 137.149 143.725C137.189 144.06 137.24 144.283 137.24 144.517C137.149 149.115 137.088 153.703 136.976 158.312C136.824 164.889 136.641 171.457 136.469 178.045C136.367 181.993 136.286 185.962 136.195 189.911C136.164 190.957 136.144 192.012 136.123 193.058C136.103 193.657 136.245 194.215 136.56 194.722C136.915 195.24 137.453 195.382 137.9 195.139ZM72.5795 87.1342C70.2042 86.8703 67.8188 86.6165 65.4435 86.3627C62.7739 86.0887 60.094 85.845 57.4244 85.5608C53.6077 85.1446 49.7808 84.6878 45.954 84.292C41.8328 83.8758 37.7115 83.5002 33.5903 83.1145C32.1286 82.9825 30.677 82.8709 29.2255 82.7084C26.5558 82.4242 23.8963 82.1197 21.2368 81.805C18.7499 81.531 16.2528 81.2975 13.7861 80.7696C13.573 80.729 13.3395 80.8001 13.1466 80.8204C12.7203 81.5208 12.8218 82.2314 12.8319 82.9115C12.8624 86.1191 12.9639 89.3166 12.9741 92.5141C13.0248 103.863 13.0654 115.221 13.0654 126.57C13.0654 138.264 13.0045 149.978 12.9741 161.682C12.9639 166.859 13.0045 172.046 13.0248 177.222C13.0248 177.781 12.8929 178.37 13.2786 179.019C14.05 178.552 14.7504 178.055 15.4813 177.588C16.2122 177.111 16.9532 176.634 17.684 176.167C18.4149 175.7 19.1559 175.223 19.8766 174.756C20.6176 174.269 21.3485 173.792 22.0692 173.314C22.8 172.837 23.5309 172.35 24.2617 171.873C24.9824 171.396 25.7235 170.919 26.4645 170.432C27.1852 169.955 27.9262 169.477 28.6469 168.99C29.3777 168.503 30.0984 168.016 30.8395 167.539C31.5703 167.062 32.3012 166.574 33.0422 166.107C33.773 165.63 34.5039 165.163 35.2449 164.696C35.9758 164.219 36.7168 163.742 37.4476 163.275C38.1886 162.808 38.9296 162.341 39.6706 161.864C40.4117 161.397 41.1628 160.941 41.8937 160.484C42.5941 160.057 43.2843 159.621 43.9746 159.195C44.7257 158.738 45.4667 158.281 46.2078 157.824C46.9589 157.357 47.6999 156.901 48.4409 156.444C49.1921 155.987 49.9432 155.53 50.6741 155.073C51.4253 154.617 52.1764 154.15 52.9073 153.693C53.6584 153.236 54.4096 152.779 55.1405 152.333C55.8916 151.876 56.6428 151.419 57.3838 150.973C58.1349 150.516 58.8658 150.049 59.617 149.592C60.3681 149.135 61.1091 148.689 61.8603 148.232C62.6114 147.775 63.3423 147.318 64.0935 146.851C64.8446 146.395 65.5856 145.948 66.3368 145.501C67.0879 145.055 67.8289 144.598 68.5801 144.151C69.3313 143.705 70.0824 143.258 70.8336 142.811C71.5847 142.355 72.346 141.918 73.0769 141.441C73.7875 140.974 74.6503 140.73 75.371 139.928C74.9142 139.878 74.6503 139.837 74.3661 139.817C73.554 139.756 72.7318 139.725 71.9197 139.665C69.9505 139.492 67.9711 139.289 65.9917 139.116C64.0224 138.954 62.043 138.832 60.0636 138.66C58.5613 138.538 57.0488 138.386 55.5363 138.243C53.5569 138.061 51.5877 137.878 49.6184 137.685C47.9334 137.523 46.2484 137.391 44.5633 137.218C41.8937 136.924 39.2342 136.599 36.5747 136.305C33.9659 136.031 31.3571 135.787 28.7484 135.503C24.6881 135.056 20.6379 134.589 16.5776 134.132C15.7046 134.041 14.852 133.879 14.0805 133.422C13.7557 133.229 13.7455 132.732 14.05 132.539C14.5576 132.214 15.1159 132.082 15.7148 132.102C16.6385 132.143 17.5825 132.163 18.5164 132.234C20.5466 132.407 22.5869 132.589 24.617 132.782C27.5201 133.046 30.4233 133.3 33.3162 133.605C36.2803 133.909 39.224 134.264 42.188 134.589C43.5686 134.752 44.9694 134.894 46.36 135.036C48.2785 135.229 50.1869 135.432 52.1054 135.614C53.7295 135.777 55.3638 135.899 56.9879 136.061C60.1245 136.366 63.2611 136.69 66.3875 136.964C69.7576 137.269 73.1277 137.513 76.5079 137.776C78.132 137.908 79.7663 138.04 81.3904 138.183C83.6033 138.365 85.7959 138.578 88.0087 138.731C90.6276 138.903 93.2567 139.025 95.8756 139.187C97.855 139.299 99.8344 139.411 101.814 139.543C104.311 139.715 106.808 139.928 109.315 140.111C111.64 140.274 113.974 140.406 116.299 140.568C118.045 140.69 119.791 140.822 121.537 140.974C123.679 141.157 125.831 141.36 127.983 141.532C130.723 141.745 133.454 141.959 136.195 142.151C136.519 142.172 136.854 142.101 137.23 142.08C137.423 141.187 137.382 140.375 137.382 139.563C137.494 128.509 137.585 117.444 137.697 106.38C137.727 102.716 137.778 99.0512 137.829 95.3665C137.829 95.0214 137.859 94.6661 137.839 94.3311C137.798 93.5495 137.555 93.3262 136.743 93.316C135.403 93.2856 134.053 93.316 132.733 93.1942C129.708 92.9404 126.693 92.5852 123.679 92.3009C120.603 92.0167 117.517 91.7731 114.441 91.4889C113.051 91.3671 111.65 91.2148 110.259 91.0727C108.473 90.9001 106.666 90.7073 104.869 90.5246C102.078 90.2403 99.2964 89.9866 96.5151 89.7023C93.7947 89.4181 91.0641 89.0933 88.3437 88.7989C85.268 88.4639 82.2025 88.1391 79.1268 87.8041C78.5482 87.7432 77.9696 87.7331 77.523 87.7128C76.4876 88.403 75.5842 89.0628 74.6401 89.6313C55.2724 101.081 35.9047 112.521 16.5268 123.971C15.9279 124.317 15.3087 124.662 14.6794 124.966C14.4256 125.098 14.1211 125.149 13.847 125.159C13.7151 125.169 13.5425 125.027 13.4511 124.895C13.4004 124.834 13.4105 124.652 13.4511 124.57C13.5628 124.377 13.6948 124.164 13.8775 124.032C14.6286 123.474 15.3696 122.916 16.1614 122.428C23.0842 118.094 29.9563 113.699 36.9401 109.486C48.5018 102.553 60.1143 95.7116 71.6761 88.8294C72.3257 88.4436 72.9652 88.0478 73.9296 87.4692C73.2393 87.2966 72.9145 87.1646 72.5795 87.1342ZM134.022 140.385C131.637 140.182 129.262 139.928 126.876 139.776C122.389 139.502 117.903 139.309 113.426 139.035C109.001 138.771 104.585 138.436 100.159 138.142C97.6621 137.969 95.1447 137.848 92.6476 137.675C90.2622 137.513 87.8869 137.31 85.4913 137.127C83.6845 136.985 81.8776 136.873 80.081 136.701C76.5383 136.386 73.0059 136.02 69.4632 135.696C66.2251 135.411 62.9667 135.168 59.7083 134.873C56.5108 134.579 53.3133 134.254 50.1361 133.95C46.9995 133.665 43.8629 133.402 40.7162 133.117C37.2345 132.813 33.7527 132.508 30.2609 132.214C28.2307 132.041 26.1904 131.94 24.1501 131.747C21.9474 131.534 19.7548 131.28 17.5521 131.006C17.0445 130.935 16.5268 130.833 16.1614 130.488C16.1107 130.021 16.405 129.889 16.6791 129.869C17.3186 129.818 17.9581 129.798 18.5976 129.839C22.1402 130.102 25.693 130.397 29.2356 130.671C31.2658 130.833 33.3061 130.955 35.3464 131.128C37.3258 131.3 39.3052 131.493 41.2643 131.686C42.8884 131.828 44.5227 131.97 46.1469 132.133C48.0044 132.315 49.8519 132.529 51.7095 132.721C53.1001 132.864 54.501 133.006 55.8916 133.127C58.9673 133.412 62.0531 133.655 65.1187 133.939C68.0218 134.224 70.9249 134.559 73.8179 134.843C76.8936 135.147 79.9693 135.411 83.045 135.675C85.197 135.868 87.3388 136.051 89.5009 136.223C91.1859 136.366 92.871 136.487 94.556 136.609C96.9414 136.761 99.337 136.904 101.722 137.076C104.22 137.249 106.717 137.452 109.214 137.614C111.477 137.776 113.761 137.919 116.035 138.04C118.654 138.193 121.273 138.274 123.892 138.487C126.511 138.7 129.119 139.025 131.728 139.309C132.997 139.451 134.266 139.634 135.535 139.817C135.738 139.847 135.92 139.969 136.458 140.192C135.393 140.609 134.692 140.446 134.022 140.385Z" fill="#4F4F51"/>
</svg>
