<svg width="50" height="68" viewBox="0 0 50 68" fill="none" xmlns="http://www.w3.org/2000/svg">
<path d="M48.0534 5.35938C48.2982 8.54167 48.1992 10.9219 47.8607 13.6563C47.5638 16.3125 46.9232 18.9479 46.1315 21.5521C44.4388 26.724 41.4492 31.776 37.2357 35.5833C33.0482 39.3594 28.0273 42.0729 22.9232 43.474C20.3815 44.3125 17.8242 44.5417 15.2669 45.0677L7.71484 45.5156V33.3594C15.9961 33.4167 23.8659 31.375 29.0273 26.6615C31.6315 24.3333 33.4961 21.2396 34.668 17.7135C35.1888 15.9219 35.6628 14.0938 35.8659 12.1823C36.1367 10.3698 36.1419 8.13542 36.0482 6.73958L48.0534 5.35938Z" fill="#78AAC9"/>
<path d="M36.3086 6.71289C36.4076 8.13997 36.4023 10.3796 36.1263 12.2129C35.918 14.14 35.444 15.9889 34.918 17.7962C33.7357 21.3587 31.8451 24.4941 29.2044 26.8587C23.9753 31.6348 16.0326 33.6816 7.71484 33.6243V33.3587C15.9961 33.416 23.8659 31.3743 29.0273 26.6608C31.6315 24.3327 33.4961 21.2389 34.668 17.7129C35.1888 15.9212 35.6628 14.0931 35.8659 12.1816C36.1367 10.3691 36.1419 8.13477 36.0482 6.73893L36.3086 6.71289Z" fill="#5F859F"/>
<path d="M16.834 37.5671V36.1452C22.3288 35.0931 27.459 32.9316 31.4486 29.2962C36.9746 24.4056 39.5163 16.5671 39.6517 9.10352H41.0319C40.9017 16.9421 38.2559 25.0671 32.3913 30.3171C28.0892 34.2389 22.61 36.4941 16.834 37.5671ZM16.834 34.5358V33.1139C21.709 32.0983 26.1048 30.1608 29.4434 27.1139C32.1257 24.7077 34.0475 21.515 35.2454 17.9056C36.1413 15.2025 36.6361 11.9785 36.7038 9.10352H38.084C37.9538 16.14 35.5267 23.6556 30.3861 28.14C26.7402 31.4577 22.0007 33.5046 16.834 34.5358Z" fill="#89B9D2"/>
<path d="M16.834 36.1452V34.5358C22.0007 33.5046 26.7402 31.4577 30.3861 28.14C35.5267 23.6556 37.9538 16.14 38.084 9.10352H39.6517C39.5163 16.5671 36.9746 24.4056 31.4486 29.2962C27.459 32.9316 22.3288 35.0931 16.834 36.1452Z" fill="#B0D6E7"/>
<path d="M16.834 43.916V40.5671C23.1986 39.4681 29.4121 37.015 34.3861 32.4889C38.0423 29.1921 40.6413 24.8223 42.1517 20.2181C43.2975 16.5879 43.9277 12.9108 43.9798 9.10352H47.3444C47.3288 10.6087 47.2142 12.0306 47.0215 13.5566C46.735 16.1608 46.1048 18.7337 45.334 21.2858C43.6725 26.3431 40.7663 31.2598 36.6621 34.9629C32.584 38.6348 27.6934 41.2858 22.6829 42.6608C20.7454 43.3014 18.7871 43.5775 16.834 43.916Z" fill="#699ABC"/>
<path d="M16.834 44.4889V43.916C18.7871 43.5775 20.7454 43.3014 22.6829 42.6608C27.6934 41.2858 32.584 38.6348 36.6621 34.9629C40.7663 31.2598 43.6725 26.3431 45.334 21.2858C46.1048 18.7337 46.735 16.1608 47.0215 13.5566C47.2142 12.0306 47.3288 10.6087 47.3444 9.10352H47.9069C47.8913 10.6348 47.7767 12.0723 47.584 13.6243C47.2871 16.265 46.6517 18.8743 45.8652 21.4629C44.1829 26.5983 41.2246 31.6035 37.0475 35.3796C32.8965 39.1191 27.9173 41.8119 22.8444 43.2025C20.8496 43.8587 18.8392 44.14 16.834 44.4889Z" fill="#76ADD0"/>
<path d="M16.834 44.776V44.4896C18.8392 44.1406 20.8496 43.8594 22.8444 43.2031C27.9173 41.8125 32.8965 39.1198 37.0475 35.3802C41.2246 31.6042 44.1829 26.599 45.8652 21.4635C46.6517 18.875 47.2871 16.2656 47.584 13.625C47.7767 12.0729 47.8913 10.6354 47.9069 9.10417H48.1777C48.1829 8.63021 48.1882 8.16667 48.1725 7.67188H48.1777C48.1829 8.02083 48.1882 8.36458 48.1882 8.70313C48.1882 10.401 48.0684 11.9583 47.86 13.6563C47.5632 16.3125 46.9225 18.9479 46.1309 21.5521C44.4382 26.724 41.4486 31.776 37.235 35.5833C33.0475 39.3594 28.0267 42.0729 22.9225 43.474C20.8965 44.1406 18.8652 44.4219 16.834 44.776Z" fill="#B8DFEE"/>
<path d="M1.67188 61.3643H13.7552V6.05176H1.67188V61.3643Z" fill="#78AAC9"/>
<path d="M13.4902 61.3643H13.7559V6.05176H13.4902V61.3643Z" fill="#5F859F"/>
<path d="M13.1413 58.1869H11.7559V9.10352H13.1413V58.1869ZM10.1882 58.1869H8.80273V9.10352H10.1882V58.1869Z" fill="#89B9D2"/>
<path d="M10.1875 58.1869H11.7552V9.10352H10.1875V58.1869Z" fill="#B0D6E7"/>
<path d="M2.51172 58.1869H5.86589V9.10352H2.51172V58.1869Z" fill="#699ABC"/>
<path d="M1.94922 58.1869H2.51172V9.10352H1.94922V58.1869Z" fill="#76ADD0"/>
<path d="M1.67188 59.6875V7.67188V9.10417H1.94792V58.1875H1.67188V59.6875Z" fill="#B8DFEE"/>
<mask id="mask0_292_113696" style="mask-type:luminance" maskUnits="userSpaceOnUse" x="0" y="0" width="15" height="8">
<path d="M0.246094 0H14.9128V7.78125H0.246094V0Z" fill="white"/>
</mask>
<g mask="url(#mask0_292_113696)">
<path d="M0.574219 7.63021V0.0416667C0.574219 0.0156253 0.595052 0 0.615885 0H14.8086C14.8294 0 14.8503 0.0156253 14.8503 0.0416667V7.63021C14.8503 7.65104 14.8294 7.67188 14.8086 7.67188H0.615885C0.595052 7.67188 0.574219 7.65104 0.574219 7.63021Z" fill="#567890"/>
<path d="M14.0163 7.67155H13.7559V7.60384H1.67253V7.67155H1.4069C1.04753 7.67155 0.745443 7.43718 0.630859 7.11426C0.781902 7.31738 1.01107 7.4528 1.28711 7.4528H13.8965C14.1309 7.4528 14.3392 7.35905 14.4902 7.2028C14.4798 7.35384 14.4225 7.48405 14.3444 7.60384C14.6257 7.48405 14.8288 7.2028 14.8496 6.87988C14.8236 7.31738 14.459 7.67155 14.0163 7.67155Z" fill="#719FBB"/>
</g>
<path d="M14.4902 7.2028C14.4902 7.18718 14.4954 7.16634 14.4954 7.15072V7.09863H14.5736C14.5475 7.13509 14.5215 7.17155 14.4902 7.2028Z" fill="#6A94B0"/>
<path d="M14.3438 7.60384C14.4219 7.48405 14.4792 7.35384 14.4896 7.2028C14.5208 7.17155 14.5469 7.13509 14.5729 7.09863H14.6458C14.7031 7.09863 14.75 7.08301 14.8021 7.06738C14.8229 6.99447 14.849 6.91634 14.849 6.83301C14.849 6.83301 14.849 6.83301 14.849 6.83822V6.84342C14.849 6.84342 14.849 6.84342 14.849 6.84863C14.849 6.84863 14.849 6.84863 14.849 6.85384V6.85905C14.849 6.86426 14.849 6.86426 14.849 6.86426C14.849 6.86426 14.849 6.86426 14.849 6.86947C14.849 6.86947 14.849 6.86947 14.849 6.87467C14.849 6.87467 14.849 6.87467 14.849 6.87988C14.8281 7.2028 14.625 7.48405 14.3438 7.60384Z" fill="#7CB0D0"/>
<mask id="mask1_292_113696" style="mask-type:luminance" maskUnits="userSpaceOnUse" x="0" y="0" width="15" height="2">
<path d="M0.246094 0H14.9128V1.11458H0.246094V0Z" fill="white"/>
</mask>
<g mask="url(#mask1_292_113696)">
<path d="M14.8496 0.833333C14.8496 0.645835 14.7767 0.484375 14.6725 0.34375C14.6986 0.427083 14.7246 0.515625 14.7246 0.614583C14.6986 0.604167 14.6725 0.598958 14.6465 0.598958H14.2819C14.1309 0.427084 13.9069 0.317708 13.6621 0.317708H1.05273C0.932942 0.317708 0.823568 0.34375 0.724609 0.385417C0.875651 0.15625 1.11523 0 1.4069 0H14.0163C14.4746 0 14.8496 0.375 14.8496 0.833333Z" fill="#6A94B0"/>
</g>
<mask id="mask2_292_113696" style="mask-type:luminance" maskUnits="userSpaceOnUse" x="13" y="0" width="2" height="2">
<path d="M13.5781 0H14.9115V1.11458H13.5781V0Z" fill="white"/>
</mask>
<g mask="url(#mask2_292_113696)">
<path d="M14.849 0.838542C14.849 0.765624 14.8229 0.697917 14.8073 0.635417C14.7813 0.624999 14.7552 0.619791 14.724 0.614583C14.724 0.515625 14.6979 0.427083 14.6719 0.34375C14.776 0.484375 14.849 0.645835 14.849 0.833333V0.838542Z" fill="#7CB0D0"/>
</g>
<path d="M14.4961 7.09896H0.777344C0.72526 7.09896 0.673176 7.08333 0.621094 7.06771C0.60026 6.99479 0.574219 6.91667 0.574219 6.83333V6.73438H14.4961V7.09896Z" fill="#314453"/>
<path d="M14.5742 7.09896H14.4961V6.73438H14.7201C14.6992 6.86979 14.6523 6.99479 14.5742 7.09896Z" fill="#3D5566"/>
<path d="M14.6471 7.09896H14.5742C14.6523 6.99479 14.6992 6.86979 14.7201 6.73438H14.8503V6.83333C14.8503 6.91667 14.8242 6.99479 14.8034 7.06771C14.7513 7.08333 14.7044 7.09896 14.6471 7.09896Z" fill="#486479"/>
<mask id="mask3_292_113696" style="mask-type:luminance" maskUnits="userSpaceOnUse" x="0" y="0" width="15" height="2">
<path d="M0.246094 0H14.9128V1.11458H0.246094V0Z" fill="white"/>
</mask>
<g mask="url(#mask3_292_113696)">
<path d="M14.4648 0.937174H0.574219V0.838216C0.574219 0.765299 0.60026 0.697591 0.615885 0.635091C0.667968 0.619466 0.720052 0.598633 0.777344 0.598633H14.2826C14.3711 0.697591 14.4336 0.812174 14.4648 0.937174Z" fill="#6A8EA3"/>
</g>
<mask id="mask4_292_113696" style="mask-type:luminance" maskUnits="userSpaceOnUse" x="13" y="0" width="2" height="2">
<path d="M13.5781 0H14.9115V1.11458H13.5781V0Z" fill="white"/>
</mask>
<g mask="url(#mask4_292_113696)">
<path d="M14.724 0.937174H14.4635C14.4323 0.812174 14.3698 0.697591 14.2812 0.598633H14.6458C14.6719 0.598633 14.6979 0.603842 14.724 0.614258V0.619466V0.937174Z" fill="#7AA7BF"/>
<path d="M14.8496 0.937174H14.7246V0.619466V0.614258C14.7559 0.619466 14.7819 0.624674 14.8079 0.635091C14.8236 0.697591 14.8496 0.765299 14.8496 0.838216V0.937174Z" fill="#8ABED8"/>
</g>
<mask id="mask5_292_113696" style="mask-type:luminance" maskUnits="userSpaceOnUse" x="0" y="0" width="17" height="8">
<path d="M0 0H16.2448V7.78125H0V0Z" fill="white"/>
</mask>
<g mask="url(#mask5_292_113696)">
<path d="M0.0253906 6.69792V0.973958C0.0253906 0.953125 0.0410156 0.9375 0.061849 0.9375H15.3587C15.3796 0.9375 15.3952 0.953125 15.3952 0.973958V6.69792C15.3952 6.71875 15.3796 6.73438 15.3587 6.73438H0.061849C0.0410156 6.73438 0.0253906 6.71875 0.0253906 6.69792Z" fill="#3F586A"/>
<path d="M14.6452 6.73438H0.775391C0.363932 6.73438 0.0305986 6.39583 0.0253906 5.98438C0.0305986 6.18229 0.108724 6.36458 0.238932 6.49479C0.254556 6.51042 0.270182 6.52604 0.291016 6.54167C0.374349 6.60938 0.478515 6.66667 0.593099 6.69792V1.31771H2.04622V4.38542C2.04622 4.80208 2.38477 5.14063 2.79622 5.14063H14.8483V6.35938C14.8483 6.48958 14.8066 6.60417 14.7493 6.71354C15.1087 6.65625 15.39 6.36458 15.3952 5.98438C15.39 6.40104 15.0566 6.73438 14.6452 6.73438ZM0.0253906 1.69271C0.0253906 1.69271 0.0253906 1.69271 0.0253906 1.6875V1.69271ZM0.0253906 1.6875C0.0305986 1.27604 0.363932 0.942708 0.775391 0.9375C0.572265 0.9375 0.389974 1.02083 0.259766 1.15625C0.254556 1.16146 0.249349 1.16667 0.244141 1.17708C0.108725 1.30729 0.0305986 1.48437 0.0253906 1.6875Z" fill="#374D5D"/>
</g>
<mask id="mask6_292_113696" style="mask-type:luminance" maskUnits="userSpaceOnUse" x="0" y="0" width="17" height="7">
<path d="M0.246094 0H16.2461V6.44792H0.246094V0Z" fill="white"/>
</mask>
<g mask="url(#mask6_292_113696)">
<path d="M15.3978 5.14063H14.8509V2.07292C14.8509 1.65625 14.5124 1.31771 14.1009 1.31771H2.04883V0.9375H14.6478C15.0645 0.9375 15.3978 1.27604 15.3978 1.69271V5.14063Z" fill="#527189"/>
</g>
<mask id="mask7_292_113696" style="mask-type:luminance" maskUnits="userSpaceOnUse" x="0" y="0" width="17" height="8">
<path d="M0.246094 0H16.2461V7.78125H0.246094V0Z" fill="white"/>
</mask>
<g mask="url(#mask7_292_113696)">
<path d="M14.7513 6.71354C14.8086 6.60417 14.8503 6.48958 14.8503 6.35938V5.14063H15.3971V5.97917C15.3971 5.97917 15.3971 5.97917 15.3971 5.98438C15.3919 6.36458 15.1107 6.65625 14.7513 6.71354ZM2.04818 1.31771H0.595052V0.973958C0.480468 1.00521 0.376302 1.05729 0.292969 1.13021C0.282553 1.14062 0.272135 1.14583 0.261719 1.15625C0.391927 1.02083 0.574218 0.9375 0.777344 0.9375H2.04818V1.31771Z" fill="#4B687D"/>
</g>
<mask id="mask8_292_113696" style="mask-type:luminance" maskUnits="userSpaceOnUse" x="0" y="1" width="2" height="7">
<path d="M0 1.11426H1.57813V7.78092H0V1.11426Z" fill="white"/>
</mask>
<g mask="url(#mask8_292_113696)">
<path d="M0.593099 6.69759C0.478515 6.66634 0.374349 6.60905 0.291016 6.54134V1.31738H0.593099V6.69759ZM0.238932 6.49447C0.108724 6.36426 0.0305986 6.18197 0.0253906 5.98405C0.0305986 6.18197 0.108724 6.35905 0.238932 6.49447ZM0.0253906 5.98405C0.0253906 5.97884 0.0253906 5.97884 0.0253906 5.97884V5.98405ZM0.0253906 1.69238V1.68717C0.0253906 1.68717 0.0253906 1.68717 0.0253906 1.69238ZM0.0253906 1.68717C0.0305986 1.48405 0.108725 1.30697 0.244141 1.17676C0.113933 1.30697 0.0305986 1.48405 0.0253906 1.68717Z" fill="#485C6C"/>
</g>
<mask id="mask9_292_113696" style="mask-type:luminance" maskUnits="userSpaceOnUse" x="0" y="0" width="2" height="3">
<path d="M0.246094 0H1.57943V2.44792H0.246094V0Z" fill="white"/>
</mask>
<g mask="url(#mask9_292_113696)">
<path d="M0.595052 1.31738H0.292969V1.12988C0.376302 1.05697 0.480468 1.00488 0.595052 0.973633V1.31738Z" fill="#5A7789"/>
</g>
<mask id="mask10_292_113696" style="mask-type:luminance" maskUnits="userSpaceOnUse" x="0" y="1" width="2" height="7">
<path d="M0 1.11426H1.57813V7.78092H0V1.11426Z" fill="white"/>
</mask>
<g mask="url(#mask10_292_113696)">
<path d="M0.245443 1.17708C0.250651 1.16667 0.255858 1.16146 0.261068 1.15625C0.261068 1.15625 0.255859 1.16146 0.255859 1.16667C0.250651 1.16667 0.245443 1.17188 0.245443 1.17708Z" fill="#596D7A"/>
</g>
<path d="M0.255859 1.16634C0.255859 1.16113 0.261068 1.15592 0.261068 1.15592C0.271484 1.14551 0.281902 1.1403 0.292318 1.12988C0.276694 1.1403 0.266277 1.15072 0.255859 1.16634Z" fill="#698493"/>
<mask id="mask11_292_113696" style="mask-type:luminance" maskUnits="userSpaceOnUse" x="0" y="1" width="2" height="7">
<path d="M0 1.11426H1.57813V7.78092H0V1.11426Z" fill="white"/>
</mask>
<g mask="url(#mask11_292_113696)">
<path d="M0.291016 6.54102C0.270182 6.52539 0.254556 6.50977 0.238932 6.49414C0.108724 6.35872 0.0305986 6.18164 0.0253906 5.98372V5.97852V1.69206C0.0253906 1.68685 0.0253906 1.68685 0.0253906 1.68685C0.0305986 1.48372 0.113933 1.30664 0.244141 1.17643C0.244141 1.17122 0.249349 1.16602 0.254557 1.16602C0.202475 1.2181 0.160808 1.27539 0.124349 1.33789C0.160808 1.33268 0.192058 1.31706 0.228516 1.31706H0.291016V6.54102Z" fill="#677A87"/>
</g>
<mask id="mask12_292_113696" style="mask-type:luminance" maskUnits="userSpaceOnUse" x="0" y="1" width="2" height="2">
<path d="M0 1.11426H1.57813V2.44759H0V1.11426Z" fill="white"/>
</mask>
<g mask="url(#mask12_292_113696)">
<path d="M0.125 1.33822C0.161459 1.27572 0.203126 1.21843 0.255208 1.16634C0.265626 1.15072 0.276043 1.1403 0.291667 1.12988V1.31738H0.229167C0.192709 1.31738 0.161459 1.33301 0.125 1.33822Z" fill="#76909D"/>
</g>
<mask id="mask13_292_113696" style="mask-type:luminance" maskUnits="userSpaceOnUse" x="0" y="58" width="15" height="10">
<path d="M0.246094 58.4473H14.9128V67.3587H0.246094V58.4473Z" fill="white"/>
</mask>
<g mask="url(#mask13_292_113696)">
<path d="M0.574219 67.3167V59.7282C0.574219 59.7021 0.595052 59.6865 0.615885 59.6865H14.8086C14.8294 59.6865 14.8503 59.7021 14.8503 59.7282V67.3167C14.8503 67.3376 14.8294 67.3584 14.8086 67.3584H0.615885C0.595052 67.3584 0.574219 67.3376 0.574219 67.3167Z" fill="#567890"/>
</g>
<mask id="mask14_292_113696" style="mask-type:luminance" maskUnits="userSpaceOnUse" x="0" y="59" width="15" height="9">
<path d="M0.246094 59.7812H14.9128V67.3594H0.246094V59.7812Z" fill="white"/>
</mask>
<g mask="url(#mask14_292_113696)">
<path d="M14.0163 67.359H1.4069C1.04753 67.359 0.745443 67.1247 0.630859 66.8018C0.781902 67.0049 1.01107 67.1403 1.28711 67.1403H13.8965C14.1309 67.1403 14.3392 67.0466 14.4902 66.8903C14.4798 67.0413 14.4225 67.1716 14.3444 67.2913C14.6309 67.1663 14.8392 66.8851 14.8496 66.5518C14.834 66.9997 14.4694 67.359 14.0163 67.359Z" fill="#719FBB"/>
</g>
<mask id="mask15_292_113696" style="mask-type:luminance" maskUnits="userSpaceOnUse" x="13" y="66" width="2" height="2">
<path d="M13.5781 66.4473H14.9115V67.3587H13.5781V66.4473Z" fill="white"/>
</mask>
<g mask="url(#mask15_292_113696)">
<path d="M14.4902 66.89C14.4902 66.8743 14.4954 66.8535 14.4954 66.8379V66.7858H14.5736C14.5475 66.8223 14.5215 66.8587 14.4902 66.89Z" fill="#6A94B0"/>
<path d="M14.3438 67.2913C14.4219 67.1716 14.4792 67.0413 14.4896 66.8903C14.5208 66.8591 14.5469 66.8226 14.5729 66.7861H14.6458C14.7031 66.7861 14.75 66.7705 14.8021 66.7549C14.8229 66.682 14.849 66.6038 14.849 66.5205C14.849 66.5257 14.849 66.5257 14.849 66.5257V66.5309C14.849 66.5361 14.849 66.5361 14.849 66.5361C14.849 66.5361 14.849 66.5361 14.849 66.5413C14.849 66.5466 14.849 66.5465 14.849 66.5465V66.5518C14.8385 66.8851 14.6302 67.1663 14.3438 67.2913Z" fill="#7CB0D0"/>
</g>
<path d="M14.8496 60.5208C14.8496 60.3333 14.7767 60.1719 14.6725 60.0313C14.6986 60.1146 14.7246 60.2031 14.7246 60.2969C14.6986 60.2917 14.6725 60.2865 14.6465 60.2865H14.2819C14.1309 60.1146 13.9069 60.0052 13.6621 60.0052H1.05273C0.932942 60.0052 0.823568 60.0313 0.724609 60.0729C0.875651 59.8438 1.11523 59.6875 1.4069 59.6875H14.0163C14.4746 59.6875 14.8496 60.0625 14.8496 60.5208Z" fill="#6A94B0"/>
<path d="M14.849 60.526C14.849 60.4531 14.8229 60.3854 14.8073 60.3229C14.7813 60.3125 14.7552 60.3073 14.724 60.2969C14.724 60.2031 14.6979 60.1146 14.6719 60.0312C14.776 60.1719 14.849 60.3333 14.849 60.5208V60.526Z" fill="#7CB0D0"/>
<mask id="mask16_292_113696" style="mask-type:luminance" maskUnits="userSpaceOnUse" x="0" y="65" width="15" height="3">
<path d="M0.246094 65.1143H14.9128V67.359H0.246094V65.1143Z" fill="white"/>
</mask>
<g mask="url(#mask16_292_113696)">
<path d="M14.4961 66.7865H0.777344C0.72526 66.7865 0.673176 66.7708 0.621094 66.7552C0.60026 66.6823 0.574219 66.6042 0.574219 66.5208V66.4219H14.4961V66.7865Z" fill="#314453"/>
</g>
<mask id="mask17_292_113696" style="mask-type:luminance" maskUnits="userSpaceOnUse" x="13" y="65" width="2" height="3">
<path d="M13.5781 65.1143H14.9115V67.359H13.5781V65.1143Z" fill="white"/>
</mask>
<g mask="url(#mask17_292_113696)">
<path d="M14.5723 66.7865H14.4941V66.4219H14.7181C14.6973 66.5573 14.6504 66.6823 14.5723 66.7865Z" fill="#3D5566"/>
<path d="M14.6452 66.7865H14.5723C14.6504 66.6823 14.6973 66.5573 14.7181 66.4219H14.8483V66.5208C14.8483 66.6042 14.8223 66.6823 14.8014 66.7552C14.7493 66.7708 14.7025 66.7865 14.6452 66.7865Z" fill="#486479"/>
</g>
<path d="M14.4648 60.6247H0.574219V60.5257C0.574219 60.4528 0.60026 60.3851 0.615885 60.3226C0.667968 60.307 0.720052 60.2861 0.777344 60.2861H14.2826C14.3711 60.3851 14.4336 60.4997 14.4648 60.6247Z" fill="#6A8EA3"/>
<path d="M14.724 60.6247H14.4635C14.4323 60.4997 14.3698 60.3851 14.2812 60.2861H14.6458C14.6719 60.2861 14.6979 60.2913 14.724 60.2965C14.724 60.3018 14.724 60.307 14.724 60.307V60.6247Z" fill="#7AA7BF"/>
<path d="M14.8496 60.625H14.7246V60.3073C14.7246 60.3073 14.7246 60.3021 14.7246 60.2969C14.7559 60.3073 14.7819 60.3125 14.8079 60.3229C14.8236 60.3854 14.8496 60.4531 14.8496 60.526V60.625Z" fill="#8ABED8"/>
<mask id="mask18_292_113696" style="mask-type:luminance" maskUnits="userSpaceOnUse" x="0" y="59" width="17" height="8">
<path d="M0 59.7812H16.2448V66.4479H0V59.7812Z" fill="white"/>
</mask>
<g mask="url(#mask18_292_113696)">
<path d="M0.0253906 66.3854V60.6615C0.0253906 60.6406 0.0410156 60.625 0.061849 60.625H15.3587C15.3796 60.625 15.3952 60.6406 15.3952 60.6615V66.3854C15.3952 66.401 15.3796 66.4219 15.3587 66.4219H0.061849C0.0410156 66.4219 0.0253906 66.401 0.0253906 66.3854Z" fill="#3F586A"/>
<path d="M14.6452 66.4219H0.775391C0.363932 66.4219 0.0305986 66.0833 0.0253906 65.6719C0.0305986 65.8698 0.108724 66.0469 0.233724 66.1771C0.254556 66.1927 0.270182 66.2135 0.291016 66.2292C0.374349 66.2969 0.478515 66.3542 0.593099 66.3802V61.0052H2.04622V64.0729C2.04622 64.4896 2.38477 64.8281 2.79622 64.8281H14.8483V66.0469C14.8483 66.1771 14.8066 66.2917 14.7493 66.3958C15.1087 66.3437 15.39 66.0469 15.3952 65.6719C15.39 66.0885 15.0566 66.4219 14.6452 66.4219ZM0.0253906 61.375C0.0305986 60.9635 0.363932 60.6302 0.775391 60.625C0.572265 60.625 0.395182 60.7083 0.264974 60.8385C0.254557 60.849 0.249348 60.8594 0.238932 60.8646C0.108724 60.9948 0.0305986 61.1719 0.0253906 61.375Z" fill="#374D5D"/>
</g>
<path d="M15.3958 64.8281H14.849V61.7604C14.849 61.3438 14.5104 61.0052 14.099 61.0052H2.04688V60.625H14.6458C15.0625 60.625 15.3958 60.9635 15.3958 61.3802V64.8281Z" fill="#527189"/>
<path d="M14.75 66.3958C14.8073 66.2917 14.849 66.1771 14.849 66.0469V64.8281H15.3958V65.6667C15.3958 65.6667 15.3958 65.6667 15.3958 65.6719C15.3906 66.0469 15.1094 66.3437 14.75 66.3958ZM2.04688 61.0052H0.59375V60.6615C0.479166 60.6927 0.375 60.7448 0.291667 60.8177C0.281251 60.8229 0.276042 60.8333 0.265625 60.8385C0.395833 60.7083 0.572916 60.625 0.776042 60.625H2.04688V61.0052Z" fill="#4B687D"/>
<mask id="mask19_292_113696" style="mask-type:luminance" maskUnits="userSpaceOnUse" x="0" y="59" width="2" height="8">
<path d="M0 59.7812H1.57813V66.4479H0V59.7812Z" fill="white"/>
</mask>
<g mask="url(#mask19_292_113696)">
<path d="M0.593099 66.3799C0.478515 66.3538 0.374349 66.2965 0.291016 66.2288V61.0049H0.593099V66.3799ZM0.233724 66.1768C0.108724 66.0465 0.0305986 65.8695 0.0253906 65.6715C0.0305986 65.8695 0.108724 66.0413 0.233724 66.1768ZM0.0253906 65.6715C0.0253906 65.6663 0.0253906 65.6663 0.0253906 65.6663V65.6715ZM0.0253906 61.3747C0.0305986 61.1716 0.108724 60.9945 0.238932 60.8643C0.108724 60.9997 0.0305986 61.1768 0.0253906 61.3747Z" fill="#485C6C"/>
</g>
<path d="M0.595052 61.0049H0.292969V60.8174C0.376302 60.7445 0.480468 60.6924 0.595052 60.6611V61.0049Z" fill="#5A7789"/>
<mask id="mask20_292_113696" style="mask-type:luminance" maskUnits="userSpaceOnUse" x="0" y="59" width="2" height="8">
<path d="M0 59.7812H1.57813V66.4479H0V59.7812Z" fill="white"/>
</mask>
<g mask="url(#mask20_292_113696)">
<path d="M0.238932 60.8649C0.249348 60.8597 0.254557 60.8493 0.264974 60.8389C0.259766 60.8441 0.259767 60.8493 0.254557 60.8493C0.249349 60.8545 0.24414 60.8597 0.238932 60.8649Z" fill="#596D7A"/>
</g>
<path d="M0.255859 60.8486C0.261069 60.8486 0.261068 60.8434 0.266276 60.8382C0.276693 60.833 0.281902 60.8226 0.292318 60.8174C0.276694 60.8278 0.266277 60.8382 0.255859 60.8486Z" fill="#698493"/>
<mask id="mask21_292_113696" style="mask-type:luminance" maskUnits="userSpaceOnUse" x="0" y="59" width="2" height="8">
<path d="M0 59.7812H1.57813V66.4479H0V59.7812Z" fill="white"/>
</mask>
<g mask="url(#mask21_292_113696)">
<path d="M0.291016 66.2288C0.270182 66.2132 0.254556 66.1924 0.233724 66.1768C0.108724 66.0413 0.0305986 65.8695 0.0253906 65.6715V65.6663V61.3799C0.0253906 61.3799 0.0253906 61.3799 0.0253906 61.3747C0.0305986 61.1768 0.108724 60.9997 0.238932 60.8643C0.24414 60.859 0.249349 60.8538 0.254557 60.8486C0.202475 60.9007 0.160808 60.9632 0.124349 61.0257C0.160808 61.0205 0.192058 61.0049 0.228516 61.0049H0.291016V66.2288Z" fill="#677A87"/>
</g>
<mask id="mask22_292_113696" style="mask-type:luminance" maskUnits="userSpaceOnUse" x="0" y="59" width="2" height="3">
<path d="M0 59.7812H1.57813V61.1146H0V59.7812Z" fill="white"/>
</mask>
<g mask="url(#mask22_292_113696)">
<path d="M0.125 61.0257C0.161459 60.9632 0.203126 60.9007 0.255208 60.8486C0.265626 60.8382 0.276043 60.8278 0.291667 60.8174V61.0049H0.229167C0.192709 61.0049 0.161459 61.0205 0.125 61.0257Z" fill="#76909D"/>
</g>
<mask id="mask23_292_113696" style="mask-type:luminance" maskUnits="userSpaceOnUse" x="34" y="0" width="16" height="8">
<path d="M34.9121 0H49.5788V7.78125H34.9121V0Z" fill="white"/>
</mask>
<g mask="url(#mask23_292_113696)">
<path d="M35.0156 7.63021V0.0416667C35.0156 0.0156253 35.0313 0 35.0573 0H49.25C49.2708 0 49.2865 0.0156253 49.2865 0.0416667V7.63021C49.2865 7.65104 49.2708 7.67188 49.25 7.67188H35.0573C35.0313 7.67188 35.0156 7.65104 35.0156 7.63021Z" fill="#567890"/>
<path d="M48.4577 7.67155H48.1712C48.1712 7.65072 48.1712 7.62467 48.1712 7.60384H36.0827C36.0827 7.62467 36.0827 7.65072 36.0827 7.67155H35.8483C35.4837 7.67155 35.1868 7.43718 35.0723 7.11426C35.2233 7.31738 35.4525 7.4528 35.7233 7.4528H48.3327C48.5671 7.4528 48.7806 7.35905 48.9316 7.2028C48.9212 7.35384 48.8587 7.48405 48.7806 7.60384C49.0618 7.48405 49.2598 7.21842 49.2858 6.90072C49.2493 7.33301 48.8952 7.67155 48.4577 7.67155Z" fill="#719FBB"/>
</g>
<path d="M48.9336 7.2028C48.9336 7.18718 48.9336 7.16634 48.9336 7.15072V7.09863H49.0169C48.9909 7.13509 48.9648 7.17155 48.9336 7.2028Z" fill="#6A94B0"/>
<path d="M48.7812 7.60384C48.8594 7.48405 48.9219 7.35384 48.9323 7.2028C48.9635 7.17155 48.9896 7.13509 49.0156 7.09863H49.0885C49.1406 7.09863 49.1875 7.08301 49.2396 7.06738C49.2656 6.99447 49.2865 6.91634 49.2865 6.83301C49.2865 6.83301 49.2865 6.83301 49.2865 6.83822V6.84342C49.2865 6.84342 49.2865 6.84342 49.2865 6.84863C49.2865 6.84863 49.2865 6.84863 49.2865 6.85384C49.2865 6.85905 49.2865 6.85905 49.2865 6.85905C49.2865 6.86426 49.2865 6.86426 49.2865 6.86426C49.2865 6.86947 49.2865 6.86947 49.2865 6.86947C49.2865 6.87467 49.2865 6.87467 49.2865 6.87467C49.2865 6.87467 49.2865 6.87467 49.2865 6.87988C49.2865 6.87988 49.2865 6.87988 49.2865 6.88509C49.2865 6.8903 49.2865 6.8903 49.2865 6.8903C49.2865 6.8903 49.2865 6.8903 49.2865 6.89551V6.90072C49.2604 7.21842 49.0625 7.48405 48.7812 7.60384Z" fill="#7CB0D0"/>
<mask id="mask24_292_113696" style="mask-type:luminance" maskUnits="userSpaceOnUse" x="34" y="0" width="16" height="2">
<path d="M34.9121 0H49.5788V1.11458H34.9121V0Z" fill="white"/>
</mask>
<g mask="url(#mask24_292_113696)">
<path d="M49.2878 0.833333C49.2878 0.645835 49.2148 0.484375 49.1107 0.34375C49.1419 0.427083 49.168 0.515625 49.168 0.614583C49.1419 0.604167 49.1159 0.598958 49.0898 0.598958H48.7253C48.5742 0.427084 48.3503 0.317708 48.1003 0.317708H35.4909C35.3763 0.317708 35.2669 0.34375 35.168 0.385417C35.3138 0.15625 35.5586 0 35.8503 0H48.4596C48.918 0 49.2878 0.375 49.2878 0.833333Z" fill="#6A94B0"/>
</g>
<mask id="mask25_292_113696" style="mask-type:luminance" maskUnits="userSpaceOnUse" x="48" y="0" width="2" height="2">
<path d="M48.2461 0H49.5794V1.11458H48.2461V0Z" fill="white"/>
</mask>
<g mask="url(#mask25_292_113696)">
<path d="M49.2884 0.838542C49.2884 0.765624 49.2676 0.697917 49.252 0.635417C49.2207 0.624999 49.1947 0.619791 49.1686 0.614583C49.1686 0.515625 49.1426 0.427083 49.1113 0.34375C49.2155 0.484375 49.2884 0.645835 49.2884 0.833333V0.838542Z" fill="#7CB0D0"/>
</g>
<path d="M48.9323 7.09896H35.2188C35.1615 7.09896 35.1146 7.08333 35.0625 7.06771C35.0417 6.99479 35.0156 6.91667 35.0156 6.83333V6.73438H48.9323V7.09896Z" fill="#314453"/>
<path d="M49.0169 7.09896H48.9336V6.73438H49.1628C49.1419 6.86979 49.0898 6.99479 49.0169 7.09896Z" fill="#3D5566"/>
<path d="M49.0885 7.09896H49.0156C49.0885 6.99479 49.1406 6.86979 49.1615 6.73438H49.2865V6.83333C49.2865 6.91667 49.2656 6.99479 49.2396 7.06771C49.1875 7.08333 49.1406 7.09896 49.0885 7.09896Z" fill="#486479"/>
<mask id="mask26_292_113696" style="mask-type:luminance" maskUnits="userSpaceOnUse" x="34" y="0" width="16" height="2">
<path d="M34.9121 0H49.5788V1.11458H34.9121V0Z" fill="white"/>
</mask>
<g mask="url(#mask26_292_113696)">
<path d="M48.9063 0.937174H35.0156V0.838216C35.0156 0.765299 35.0417 0.697591 35.0573 0.635091C35.1094 0.619466 35.1615 0.598633 35.2188 0.598633H48.724C48.8073 0.697591 48.8698 0.812174 48.9063 0.937174Z" fill="#6A8EA3"/>
</g>
<mask id="mask27_292_113696" style="mask-type:luminance" maskUnits="userSpaceOnUse" x="48" y="0" width="2" height="2">
<path d="M48.2461 0H49.5794V1.11458H48.2461V0Z" fill="white"/>
</mask>
<g mask="url(#mask27_292_113696)">
<path d="M49.1673 0.937174H48.9069C48.8704 0.812174 48.8079 0.697591 48.7246 0.598633H49.0892C49.1152 0.598633 49.1413 0.603842 49.1673 0.614258V0.619466V0.937174Z" fill="#7AA7BF"/>
<path d="M49.2878 0.937174H49.168V0.619466V0.614258C49.194 0.619466 49.2201 0.624674 49.2513 0.635091C49.2669 0.697591 49.2878 0.765299 49.2878 0.838216V0.937174Z" fill="#8ABED8"/>
</g>
<mask id="mask28_292_113696" style="mask-type:luminance" maskUnits="userSpaceOnUse" x="34" y="0" width="16" height="7">
<path d="M34.3906 0.895508H49.8385V6.73405H34.3906V0.895508Z" fill="white"/>
</mask>
<g mask="url(#mask28_292_113696)">
<path d="M34.4688 6.69792V0.973958C34.4688 0.953125 34.4844 0.9375 34.5052 0.9375H49.8021C49.8229 0.9375 49.8385 0.953125 49.8385 0.973958V6.69792C49.8385 6.71875 49.8229 6.73438 49.8021 6.73438H34.5052C34.4844 6.73438 34.4688 6.71875 34.4688 6.69792Z" fill="#3F586A"/>
<path d="M49.0885 6.73438H35.2188C34.8073 6.73438 34.474 6.39583 34.4688 5.98438C34.4688 6.1875 34.5521 6.36458 34.6823 6.49479C34.6979 6.51042 34.7135 6.52604 34.7344 6.54167C34.8177 6.61458 34.9219 6.66667 35.0365 6.69792V1.31771H36.4896V4.38542C36.4896 4.80208 36.8229 5.14063 37.2396 5.14063H49.2865V6.35938C49.2865 6.48958 49.25 6.60417 49.1927 6.71354C49.5521 6.65625 49.8333 6.36458 49.8385 5.98438C49.8333 6.40104 49.5 6.73438 49.0885 6.73438ZM34.4688 1.6875C34.474 1.27604 34.8021 0.942708 35.2135 0.9375C35.0104 0.9375 34.8333 1.02604 34.6979 1.16146C34.6927 1.16667 34.6927 1.16667 34.6875 1.17188C34.5521 1.30208 34.4688 1.48437 34.4688 1.6875Z" fill="#374D5D"/>
</g>
<mask id="mask29_292_113696" style="mask-type:luminance" maskUnits="userSpaceOnUse" x="35" y="0" width="15" height="6">
<path d="M35.1367 0.895508H49.8398V5.98926H35.1367V0.895508Z" fill="white"/>
</mask>
<g mask="url(#mask29_292_113696)">
<path d="M49.8392 5.14063H49.2871V2.07292C49.2871 1.65625 48.9538 1.31771 48.5423 1.31771H36.4902V0.9375H49.0892C49.5007 0.9375 49.8392 1.27604 49.8392 1.69271V5.14063Z" fill="#527189"/>
</g>
<mask id="mask30_292_113696" style="mask-type:luminance" maskUnits="userSpaceOnUse" x="34" y="0" width="16" height="7">
<path d="M34.6875 0.895508H49.8385V6.73405H34.6875V0.895508Z" fill="white"/>
</mask>
<g mask="url(#mask30_292_113696)">
<path d="M49.1921 6.71354C49.2493 6.60417 49.2858 6.48958 49.2858 6.35938V5.14063H49.8379V5.97917C49.8379 5.97917 49.8379 5.97917 49.8379 5.98438C49.8327 6.36458 49.5514 6.65625 49.1921 6.71354ZM36.4889 1.31771H35.0358V0.973958C34.9212 1.00521 34.8171 1.05729 34.7337 1.13021C34.7181 1.14062 34.7077 1.15104 34.6973 1.16146C34.8327 1.02604 35.0098 0.9375 35.2129 0.9375C35.2181 0.9375 35.2181 0.9375 35.2181 0.9375H36.4889V1.31771Z" fill="#4B687D"/>
</g>
<path d="M35.0365 6.69792C34.9219 6.66667 34.8177 6.61458 34.7344 6.54167V1.31771H35.0365V6.69792ZM34.6823 6.49479C34.5521 6.36458 34.4688 6.1875 34.4688 5.98438C34.4688 6.18229 34.5521 6.36458 34.6823 6.49479ZM34.4688 5.98438C34.4688 5.97917 34.4688 5.97917 34.4688 5.97917V5.98438ZM34.4688 1.69271C34.4688 1.69271 34.4688 1.69271 34.4688 1.6875C34.4688 1.6875 34.4688 1.6875 34.4688 1.69271ZM34.4688 1.6875C34.4688 1.48437 34.5521 1.30208 34.6875 1.17188C34.5521 1.30729 34.4688 1.48437 34.4688 1.6875Z" fill="#485C6C"/>
<mask id="mask31_292_113696" style="mask-type:luminance" maskUnits="userSpaceOnUse" x="33" y="0" width="4" height="3">
<path d="M33.5781 0H36.2448V2.44792H33.5781V0Z" fill="white"/>
</mask>
<g mask="url(#mask31_292_113696)">
<path d="M35.0365 1.31738H34.7344V1.12988C34.8177 1.05697 34.9219 1.00488 35.0365 0.973633V1.31738Z" fill="#5A7789"/>
</g>
<path d="M34.6888 1.17155C34.694 1.16634 34.694 1.16634 34.6992 1.16113C34.6992 1.16113 34.6992 1.16113 34.694 1.16634L34.6888 1.17155Z" fill="#596D7A"/>
<path d="M34.6934 1.16634C34.6986 1.16113 34.6986 1.16113 34.6986 1.16113C34.709 1.15072 34.7194 1.1403 34.735 1.12988C34.7194 1.1403 34.709 1.15072 34.6934 1.16634Z" fill="#698493"/>
<path d="M34.7344 6.54102C34.7135 6.52539 34.6979 6.50977 34.6823 6.49414C34.5521 6.36393 34.4688 6.18164 34.4688 5.98372V5.97852V1.69206C34.4688 1.68685 34.4688 1.68685 34.4688 1.68685C34.4688 1.48372 34.5521 1.30664 34.6875 1.17122L34.6927 1.16602C34.6458 1.2181 34.599 1.27539 34.5677 1.33789C34.6042 1.33268 34.6354 1.31706 34.6719 1.31706H34.7344V6.54102Z" fill="#677A87"/>
<path d="M34.5684 1.33822C34.5996 1.27572 34.6465 1.21843 34.6934 1.16634C34.709 1.15072 34.7194 1.1403 34.735 1.12988V1.31738H34.6725C34.6361 1.31738 34.6048 1.33301 34.5684 1.33822Z" fill="#76909D"/>
<path d="M15.3444 45.0521C15.8392 44.9531 16.334 44.8594 16.834 44.776V44.7813C16.334 44.8646 15.8392 44.9531 15.3444 45.0521Z" fill="#C2C3C1"/>
<path d="M13.7559 40.9993V38.0254C14.7871 37.9056 15.8132 37.7546 16.834 37.5671V40.5671C15.8079 40.7441 14.7819 40.89 13.7559 40.9993ZM13.7559 33.6243V33.2754C14.7975 33.14 15.8288 32.9681 16.834 32.7598V33.1139C15.8236 33.3223 14.7975 33.4941 13.7559 33.6243Z" fill="#5F859F"/>
<path d="M13.7559 33.276V33.0052C14.7975 32.8698 15.8288 32.6979 16.834 32.4844V32.7604C15.8288 32.9688 14.7975 33.1406 13.7559 33.276Z" fill="#4B687D"/>
<path d="M13.7559 38.0257V36.6195C14.7871 36.4997 15.8184 36.3434 16.834 36.1455V37.5674C15.8132 37.7549 14.7871 37.9059 13.7559 38.0257ZM13.7559 35.0309V33.6247C14.7975 33.4945 15.8236 33.3226 16.834 33.1143V34.5361C15.8236 34.7393 14.7923 34.9059 13.7559 35.0309Z" fill="#6C8FA5"/>
<path d="M13.7559 36.6195V35.0309C14.7923 34.9059 15.8236 34.7393 16.834 34.5361V36.1455C15.8184 36.3434 14.7871 36.4997 13.7559 36.6195Z" fill="#89A6B4"/>
<path d="M13.7559 44.3122V40.9997C14.7819 40.8903 15.8079 40.7445 16.834 40.5674V43.9163C16.2767 44.0101 15.7194 44.1143 15.1673 44.2288L13.7559 44.3122Z" fill="#537995"/>
<path d="M13.7559 44.8796V44.3118L15.1673 44.2285C15.7194 44.1139 16.2767 44.0098 16.834 43.916V44.4889C16.3027 44.5827 15.7663 44.6816 15.235 44.791L13.7559 44.8796Z" fill="#5F88A4"/>
<path d="M13.7559 45.1559V44.8799L15.235 44.7913C15.7663 44.682 16.3027 44.583 16.834 44.4893V44.7757C16.334 44.859 15.8392 44.9528 15.3444 45.0518C15.3184 45.057 15.2923 45.0622 15.2663 45.0674L14.9746 45.0882L13.7559 45.1559Z" fill="#8FACBB"/>
<path d="M13.4902 9.10417H13.1413V7.67188H13.4902V9.10417ZM8.80273 9.10417H5.86523V7.67188H8.80273V9.10417Z" fill="#537389"/>
<path d="M13.4902 9.10417H13.7559V7.67188H13.4902V9.10417Z" fill="#405A6C"/>
<path d="M13.1413 9.10417H11.7559V7.67188H13.1413V9.10417ZM10.1882 9.10417H8.80273V7.67188H10.1882V9.10417Z" fill="#5E7C8E"/>
<path d="M10.1875 9.10417H11.7552V7.67188H10.1875V9.10417Z" fill="#758F9C"/>
<path d="M2.51172 9.10417H5.86589V7.67188H2.51172V9.10417Z" fill="#486881"/>
<path d="M1.94922 9.10417H2.51172V7.67188H1.94922V9.10417Z" fill="#527690"/>
<path d="M1.67188 9.10417H1.94792V7.67188H1.67188V9.10417Z" fill="#7A94A0"/>
<path d="M13.7552 7.67122H1.67188V7.60352H13.7552V7.67122Z" fill="#4D6B80"/>
<path d="M13.4902 59.6875H13.1413V58.1875H13.4902V59.6875ZM8.80273 59.6875H5.86523V58.1875H8.80273V59.6875Z" fill="#537389"/>
<path d="M13.4902 59.6875H13.7559V58.1875H13.4902V59.6875Z" fill="#405A6C"/>
<path d="M13.1413 59.6875H11.7559V58.1875H13.1413V59.6875ZM10.1882 59.6875H8.80273V58.1875H10.1882V59.6875Z" fill="#5E7C8E"/>
<path d="M10.1875 59.6875H11.7552V58.1875H10.1875V59.6875Z" fill="#758F9C"/>
<path d="M2.51172 59.6875H5.86589V58.1875H2.51172V59.6875Z" fill="#486881"/>
<path d="M1.94922 59.6875H2.51172V58.1875H1.94922V59.6875Z" fill="#527690"/>
<path d="M1.67188 59.6875H1.94792V58.1875H1.67188V59.6875Z" fill="#7A94A0"/>
<path d="M36.0996 9.10417H36.0944C36.1048 8.59375 36.0996 8.11979 36.084 7.67188H36.0892C36.0996 7.94792 36.1048 8.23958 36.1048 8.54167C36.1048 8.72396 36.0996 8.91146 36.0996 9.10417Z" fill="#8A8D8D"/>
<path d="M43.9805 9.10417H41.0326C41.043 8.625 41.0378 8.14583 41.0273 7.67188H43.9753C43.9857 8.15104 43.9857 8.63021 43.9805 9.10417ZM36.7044 9.10417H36.3607C36.3711 8.60417 36.3659 8.11458 36.3555 7.67188H36.7044C36.7148 8.13542 36.7201 8.61458 36.7044 9.10417Z" fill="#466174"/>
<path d="M36.3607 9.10417H36.1003C36.1003 8.91146 36.1055 8.72396 36.1055 8.54167C36.1055 8.23958 36.1003 7.94792 36.0898 7.67188H36.3555C36.3659 8.11458 36.3711 8.60417 36.3607 9.10417Z" fill="#364C5C"/>
<path d="M41.0313 9.10417H39.651C39.6562 8.625 39.6563 8.14583 39.6458 7.67188H41.026C41.0365 8.14583 41.0417 8.625 41.0313 9.10417ZM38.0833 9.10417H36.7031C36.7188 8.61458 36.7135 8.13542 36.7031 7.67188H38.0781C38.0938 8.14583 38.0938 8.625 38.0833 9.10417Z" fill="#4F6979"/>
<path d="M39.651 9.10417H38.0833C38.0938 8.625 38.0938 8.14583 38.0781 7.67188H39.6458C39.6563 8.14583 39.6562 8.625 39.651 9.10417Z" fill="#637985"/>
<path d="M47.3444 9.10417H43.9798C43.985 8.63021 43.985 8.15104 43.9746 7.67188H47.334C47.3444 8.16146 47.3496 8.63542 47.3444 9.10417Z" fill="#3C586D"/>
<path d="M47.9069 9.10417H47.3444C47.3496 8.63542 47.3444 8.16146 47.334 7.67188H47.8965C47.9121 8.16146 47.9121 8.63542 47.9069 9.10417Z" fill="#456379"/>
<path d="M48.1777 9.10417H47.9069C47.9121 8.63542 47.9121 8.16146 47.8965 7.67188H48.1725C48.1882 8.16667 48.1829 8.63021 48.1777 9.10417Z" fill="#677D89"/>
<path d="M48.1725 7.67122H36.084C36.084 7.65039 36.084 7.62435 36.084 7.60352H48.1725C48.1725 7.62435 48.1725 7.65039 48.1725 7.67122Z" fill="#415B6D"/>
</svg>
