<svg width="147" height="168" viewBox="0 0 147 168" fill="none" xmlns="http://www.w3.org/2000/svg">
<path d="M145.627 68.2362C145.622 74.0643 113.242 78.7362 73.3145 78.6685C33.3874 78.606 1.02279 73.83 1.03321 68.0018C1.04362 62.1737 33.4186 57.5018 73.3457 57.5643C113.278 57.632 145.637 62.4081 145.627 68.2362Z" fill="#A1CCCA"/>
<path d="M26.1322 67.283C35.127 64.934 44.5072 64.0695 53.7781 64.7465" stroke="#EFE7E7" stroke-width="1.01143" stroke-linecap="round" stroke-linejoin="round"/>
<path d="M64.5798 64.7049C67.9808 64.3768 71.4288 64.5174 74.7933 65.1164" stroke="#EFE7E7" stroke-width="1.01143" stroke-linecap="round" stroke-linejoin="round"/>
<path d="M3.48151 9.05914C4.38255 20.6581 13.9242 39.1685 15.1794 42.0331C20.8617 55.0123 30.8409 69.6373 28.7992 84.6216C28.2211 88.8456 26.9711 92.9758 26.7003 97.2258C26.018 107.882 32.1169 117.195 39.018 124.752C46.6273 133.09 57.7419 138.882 63.7367 126.07C69.9138 112.861 65.794 95.3248 56.2263 85.0019C50.7888 79.1321 43.4919 75.0956 38.5336 68.7623C33.8773 62.8144 31.1013 55.1269 28.3357 48.1737C22.4815 33.4446 20.8096 15.0539 10.794 2.35081C9.99713 1.34039 9.05443 0.309143 7.79401 0.0799767C4.01276 -0.617941 3.03359 3.32477 3.48151 9.05914Z" fill="#542307"/>
<path d="M1.03221 68.002C1.03221 68.002 -13.973 165.288 70.4385 166.205C70.4385 166.205 154.053 174.153 145.626 68.2363C145.626 68.2363 72.126 88.0488 1.03221 68.002Z" fill="#A1CCCA"/>
<path d="M1.0332 68.002C46.5072 81.7676 99.4656 79.0957 144.658 68.6009" stroke="#542307" stroke-width="1.01143" stroke-linecap="round" stroke-linejoin="round"/>
<path d="M3.27734 85.1113C16.0899 89.5332 29.6628 91.2155 43.1315 92.7468C67.3034 95.4915 92.1264 97.7676 115.678 91.6842" stroke="#542307" stroke-width="1.01143" stroke-linecap="round" stroke-linejoin="round"/>
<path d="M123.293 90.0332C129.84 88.8822 136.163 86.5019 141.846 83.0488" stroke="#542307" stroke-width="1.01143" stroke-linecap="round" stroke-linejoin="round"/>
<path d="M40.3503 159.518C62.043 170.268 88.7722 168.148 110.58 157.627" stroke="#542307" stroke-width="1.01143" stroke-linecap="round" stroke-linejoin="round"/>
<path d="M138.903 98.3456C138.674 100.538 138.445 102.731 138.216 104.929" stroke="#EFE7E7" stroke-width="1.01143" stroke-linecap="round" stroke-linejoin="round"/>
<path d="M135.157 115.945C131.402 124.57 124.006 136.262 116.595 142.054" stroke="#EFE7E7" stroke-width="1.01143" stroke-linejoin="round"/>
</svg>
