<svg width="68" height="27" viewBox="0 0 68 27" fill="none" xmlns="http://www.w3.org/2000/svg">
<mask id="mask0_292_113712" style="mask-type:luminance" maskUnits="userSpaceOnUse" x="0" y="1" width="68" height="22">
<path d="M0 1.33301H67.3542V22.6663H0V1.33301Z" fill="white"/>
</mask>
<g mask="url(#mask0_292_113712)">
<path d="M67.2088 9.94716C67.3547 7.38466 55.3338 6.47841 50.714 5.92633C46.0942 5.37424 47.4328 2.10341 39.188 1.49924C30.938 0.895077 28.2036 3.56174 21.2505 3.56174C14.2922 3.56174 10.7922 3.58258 11.214 5.92633C11.464 7.31695 13.4484 7.2857 13.5474 8.13987C13.6307 8.85341 3.31821 9.80654 0.318207 11.619C0.00570678 11.8065 0.18279 12.6972 0.18279 13.0149C0.187998 14.7388 3.51092 15.4784 8.53175 16.5878C13.5474 17.692 13.5005 20.7597 18.6672 20.2076C23.8338 19.6555 24.7297 17.8951 33.6203 20.4107C42.5161 22.9211 51.6567 20.0045 53.4432 18.5982C55.2349 17.192 53.4432 17.192 53.1463 15.3274C52.8495 13.468 67.0578 12.5149 67.2088 9.94716Z" fill="#77C8FF"/>
</g>
<mask id="mask1_292_113712" style="mask-type:luminance" maskUnits="userSpaceOnUse" x="0" y="0" width="68" height="22">
<path d="M0 0H67.3542V21.3333H0V0Z" fill="white"/>
</mask>
<g mask="url(#mask1_292_113712)">
<path d="M67.2077 8.89052C67.3535 6.32802 55.3327 5.42177 50.7129 4.86969C46.0931 4.3176 47.4316 1.04677 39.1869 0.442603C30.9369 -0.161564 28.2025 2.5051 21.2494 2.5051C14.291 2.5051 11.6087 3.51031 11.2129 4.86969C10.8118 6.22906 13.4473 6.22906 13.5462 7.08323C13.6452 7.93739 0.176434 10.052 0.181642 11.9582C0.18685 13.6822 3.50977 14.4218 8.5306 15.5311C13.5462 16.6353 13.4994 19.703 18.666 19.1509C23.8327 18.5989 24.7285 16.8384 33.6191 19.3541C42.515 21.8645 51.6556 18.9478 53.4421 17.5416C55.2337 16.1353 53.4421 16.1353 53.1452 14.2759C52.8483 12.4114 67.0566 11.4582 67.2077 8.89052Z" fill="#ABE0FF"/>
</g>
<mask id="mask2_292_113712" style="mask-type:luminance" maskUnits="userSpaceOnUse" x="0" y="4" width="68" height="18">
<path d="M0 4H67.3542V21.3333H0V4Z" fill="white"/>
</mask>
<g mask="url(#mask2_292_113712)">
<path d="M54.0566 16.0465C54.3379 16.4684 54.3639 16.8174 53.4421 17.5413C51.6556 18.9476 42.515 21.8643 33.6191 19.3538C24.7285 16.8382 23.8327 18.5986 18.666 19.1507C13.4994 19.7028 13.5462 16.6351 8.5306 15.5309C3.50977 14.4215 0.186849 13.682 0.181641 11.958C0.181641 11.8486 0.228515 11.734 0.317057 11.6195C0.988932 12.9528 4.0931 13.6455 8.5306 14.6247C13.5462 15.7288 13.4994 18.7965 18.666 18.2445C23.8327 17.6924 24.7285 15.932 33.6191 18.4476C42.515 20.9632 51.6556 18.0466 53.4421 16.6351C53.7389 16.4059 53.9316 16.2132 54.0566 16.0465ZM13.0306 6.54134C13.3691 6.40072 13.5566 6.28093 13.5462 6.17676C13.4681 5.49447 11.7858 5.35905 11.3014 4.64551C11.265 4.71842 11.2337 4.79134 11.2129 4.86947C10.9212 5.86426 12.2598 6.12988 13.0306 6.54134ZM53.1452 13.3695C53.1764 13.5622 53.2285 13.7393 53.2858 13.9007C54.7494 12.2705 67.0671 11.2809 67.2077 8.8903C67.2181 8.71322 67.166 8.54655 67.0671 8.37988C65.5879 10.6559 52.8639 11.6038 53.1452 13.3695Z" fill="#E2F4FF"/>
</g>
<path d="M22.5899 7.63536C23.7514 6.63015 18.1212 4.84369 24.3035 5.07286C27.0014 5.17182 32.3555 2.58328 36.3035 3.56244C40.2566 4.54161 40.4024 6.05203 45.3972 6.20307C50.392 6.35411 52.8503 7.4114 52.1785 8.61453C51.5066 9.82286 42.7149 8.54161 44.2045 11.1041C45.6941 13.6718 51.2826 14.1249 46.4389 15.1041C41.5951 16.0833 34.2201 16.9895 31.9805 14.276C29.7462 11.5572 23.0378 17.6666 21.4753 15.026C19.9076 12.3854 19.1628 13.2916 16.3295 11.8593C13.5014 10.427 21.5483 8.54161 22.5899 7.63536Z" fill="#BDEAFF"/>
<mask id="mask3_292_113712" style="mask-type:luminance" maskUnits="userSpaceOnUse" x="19" y="21" width="16" height="6">
<path d="M19.8027 21.333H34.4694V26.0726H19.8027V21.333Z" fill="white"/>
</mask>
<g mask="url(#mask3_292_113712)">
<path d="M34.0104 24.1139C34.0104 24.3743 33.8333 24.6243 33.4896 24.8639C33.1458 25.1087 32.651 25.3171 32.0156 25.5046C31.375 25.6868 30.6406 25.8275 29.8073 25.9264C28.9688 26.0306 28.1042 26.0775 27.1979 26.0775C26.2969 26.0775 25.4271 26.0306 24.5938 25.9264C23.7604 25.8275 23.026 25.6868 22.3854 25.5046C21.7448 25.3171 21.2552 25.1087 20.9115 24.8639C20.5625 24.6243 20.3906 24.3743 20.3906 24.1139C20.3906 23.8535 20.5625 23.6035 20.9115 23.3639C21.2552 23.1243 21.7448 22.9108 22.3854 22.7233C23.026 22.541 23.7604 22.4004 24.5938 22.3014C25.4271 22.2025 26.2969 22.1504 27.1979 22.1504C28.1042 22.1504 28.9688 22.2025 29.8073 22.3014C30.6406 22.4004 31.375 22.541 32.0156 22.7233C32.651 22.9108 33.1458 23.1243 33.4896 23.3639C33.8333 23.6035 34.0104 23.8535 34.0104 24.1139Z" fill="#77C8FF"/>
</g>
<path d="M34.0104 23.359C34.0104 23.6195 33.8333 23.8695 33.4896 24.109C33.1458 24.3538 32.651 24.5622 32.0156 24.7497C31.375 24.932 30.6406 25.0726 29.8073 25.1768C28.9688 25.2757 28.1042 25.3226 27.1979 25.3226C26.2969 25.3226 25.4271 25.2757 24.5938 25.1768C23.7604 25.0726 23.026 24.932 22.3854 24.7497C21.7448 24.5622 21.2552 24.3538 20.9115 24.109C20.5625 23.8695 20.3906 23.6195 20.3906 23.359C20.3906 23.0986 20.5625 22.8486 20.9115 22.609C21.2552 22.3695 21.7448 22.1559 22.3854 21.9736C23.026 21.7861 23.7604 21.6455 24.5938 21.5465C25.4271 21.4476 26.2969 21.3955 27.1979 21.3955C28.1042 21.3955 28.9688 21.4476 29.8073 21.5465C30.6406 21.6455 31.375 21.7861 32.0156 21.9736C32.651 22.1559 33.1458 22.3695 33.4896 22.609C33.8333 22.8486 34.0104 23.0986 34.0104 23.359Z" fill="#ABE0FF"/>
<path d="M33.5684 22.6611C33.6517 22.7861 33.6934 22.9111 33.6934 23.0413C33.6934 24.1247 30.6465 25.0049 26.8861 25.0049C23.9746 25.0049 21.4954 24.4788 20.5215 23.7393C21.1309 24.6403 23.8913 25.3226 27.1986 25.3226C30.959 25.3226 34.0111 24.4424 34.0111 23.359C34.0111 23.1143 33.8496 22.8799 33.5684 22.6611Z" fill="#E2F4FF"/>
<path d="M60.1361 2.82259C60.1361 3.01009 60.0111 3.18717 59.7611 3.35905C59.5163 3.53093 59.1621 3.68717 58.7038 3.81738C58.2454 3.94759 57.7194 4.05176 57.1204 4.12467C56.5215 4.19238 55.8965 4.22884 55.2507 4.22884C54.5996 4.22884 53.9798 4.19238 53.3809 4.12467C52.7819 4.05176 52.2559 3.94759 51.7975 3.81738C51.3392 3.68717 50.985 3.53093 50.735 3.35905C50.4902 3.18717 50.3652 3.01009 50.3652 2.82259C50.3652 2.63509 50.4902 2.4528 50.735 2.28092C50.985 2.10905 51.3392 1.95801 51.7975 1.82259C52.2559 1.69238 52.7819 1.58822 53.3809 1.52051C53.9798 1.44759 54.5996 1.41113 55.2507 1.41113C55.8965 1.41113 56.5215 1.44759 57.1204 1.52051C57.7194 1.58822 58.2454 1.69238 58.7038 1.82259C59.1621 1.95801 59.5163 2.10905 59.7611 2.28092C60.0111 2.4528 60.1361 2.63509 60.1361 2.82259Z" fill="#77C8FF"/>
<path d="M60.1361 2.28158C60.1361 2.46907 60.0111 2.64616 59.7611 2.81803C59.5163 2.98991 59.1621 3.14616 58.7038 3.27637C58.2454 3.40658 57.7194 3.51074 57.1204 3.58366C56.5215 3.65137 55.8965 3.68783 55.2507 3.68783C54.5996 3.68783 53.9798 3.65137 53.3809 3.58366C52.7819 3.51074 52.2559 3.40658 51.7975 3.27637C51.3392 3.14616 50.985 2.98991 50.735 2.81803C50.4902 2.64616 50.3652 2.46907 50.3652 2.28158C50.3652 2.09407 50.4902 1.91178 50.735 1.73991C50.985 1.56803 51.3392 1.41699 51.7975 1.28158C52.2559 1.15137 52.7819 1.05241 53.3809 0.979492C53.9798 0.906576 54.5996 0.870117 55.2507 0.870117C55.8965 0.870117 56.5215 0.906576 57.1204 0.979492C57.7194 1.05241 58.2454 1.15137 58.7038 1.28158C59.1621 1.41699 59.5163 1.56803 59.7611 1.73991C60.0111 1.91178 60.1361 2.09407 60.1361 2.28158Z" fill="#ABE0FF"/>
<path d="M59.8184 1.78125C59.8757 1.86979 59.9069 1.95833 59.9069 2.05208C59.9069 2.82813 57.7194 3.45833 55.0215 3.45833C52.9382 3.45833 51.1569 3.08333 50.459 2.55208C50.8965 3.19792 52.8757 3.6875 55.2507 3.6875C57.9486 3.6875 60.1361 3.05729 60.1361 2.28125C60.1361 2.10417 60.0215 1.9375 59.8184 1.78125Z" fill="#E2F4FF"/>
</svg>
