<svg width="217" height="332" viewBox="0 0 217 332" fill="none" xmlns="http://www.w3.org/2000/svg">
<mask id="mask0_283_107522" style="mask-type:luminance" maskUnits="userSpaceOnUse" x="0" y="0" width="217" height="332">
<path d="M0 0H216.318V331.891H0V0Z" fill="white"/>
</mask>
<g mask="url(#mask0_283_107522)">
<path d="M118.573 331.844C117.042 331.844 115.792 330.599 115.792 329.063C115.792 328.109 116.271 327.271 117.005 326.771C104.635 301.859 110.969 280.927 116.771 269.5C116.172 268.99 115.792 268.229 115.792 267.38C115.792 265.911 116.937 264.708 118.375 264.604V191.38H97.9842V240.583C99.4269 240.682 100.573 241.891 100.573 243.359C100.573 244.208 100.193 244.964 99.5936 245.474C105.396 256.901 111.734 277.833 99.3592 302.745C100.094 303.25 100.573 304.089 100.573 305.042C100.573 306.573 99.328 307.823 97.7967 307.823H89.0728C87.5415 307.823 86.2967 306.573 86.2967 305.042C86.2967 304.089 86.7759 303.25 87.5103 302.745C75.1353 277.833 81.4738 256.901 87.2759 245.474C86.6769 244.964 86.2967 244.208 86.2967 243.359C86.2967 241.891 87.4425 240.682 88.8853 240.583V191.38H30.5103V183H16.5467V174.62H2.479V162.714H34.9321V97.1354L31.3592 100.974H0.197754L94.2394 -0.03125H122.125L216.172 100.974H185.01L181.432 97.1354V162.714H210.875V174.62H196.807V183H182.844V191.38H127.484V264.604C128.927 264.708 130.068 265.911 130.068 267.38C130.068 268.229 129.687 268.99 129.088 269.5C134.89 280.927 141.229 301.859 128.854 326.771C129.588 327.271 130.068 328.109 130.068 329.063C130.068 330.599 128.823 331.844 127.292 331.844H118.573Z" fill="#393536"/>
</g>
<path d="M96.2288 247.255H90.6455V168.667H96.2288V247.255Z" fill="#6F4323"/>
<path d="M125.724 283.912H120.136V168.667H125.724V283.912Z" fill="#6F4323"/>
<path d="M30.5934 99.2136H4.23926L95.0049 1.72925H121.359L30.5934 99.2136Z" fill="#6F4323"/>
<path d="M121.359 1.72925H95.0049L185.776 99.2136H212.125L121.359 1.72925Z" fill="#6F4323"/>
<path d="M108.182 15.8804L36.6924 92.6616V164.474H179.677V92.6616L108.182 15.8804Z" fill="#A47343"/>
<path d="M122.932 68.3959V44.9115C122.932 38.5886 116.297 33.4167 108.182 33.4167C100.073 33.4167 93.4375 38.5886 93.4375 44.9115V68.3959H122.932Z" fill="#393536"/>
<path d="M128.354 73.396H88.0156V68.396H128.354V73.396Z" fill="#6F4323"/>
<path d="M122.933 68.3959V44.9115C122.933 38.5886 129.568 33.4167 137.683 33.4167V68.3959H122.933Z" fill="#5A3114"/>
<path d="M124.692 67.0262V44.9116C124.692 39.7918 129.588 35.5522 135.922 34.8804V67.0314L124.692 67.0262Z" fill="#6F4323"/>
<path d="M135.219 45.9115H125.391V44.5417H135.219V45.9115Z" fill="#5A3114"/>
<path d="M135.219 48.3283H125.391V46.9585H135.219V48.3283Z" fill="#5A3114"/>
<path d="M135.219 50.745H125.391V49.3804H135.219V50.745Z" fill="#5A3114"/>
<path d="M135.219 53.1669H125.391V51.7971H135.219V53.1669Z" fill="#5A3114"/>
<path d="M135.219 55.5834H125.391V54.2136H135.219V55.5834Z" fill="#5A3114"/>
<path d="M135.219 58.0002H125.391V56.6304H135.219V58.0002Z" fill="#5A3114"/>
<path d="M135.219 60.4221H125.391V59.0471H135.219V60.4221Z" fill="#5A3114"/>
<path d="M135.219 62.8388H125.391V61.469H135.219V62.8388Z" fill="#5A3114"/>
<path d="M93.4375 68.3959V44.9115C93.4375 38.5886 86.7969 33.4167 78.6875 33.4167V68.3959H93.4375Z" fill="#5A3114"/>
<path d="M91.6774 67.0262V44.9116C91.6774 39.7918 86.7816 35.5522 80.4482 34.8804V67.0314L91.6774 67.0262Z" fill="#6F4323"/>
<path d="M81.1455 45.9115H90.9736V44.5417H81.1455V45.9115Z" fill="#5A3114"/>
<path d="M81.1455 48.3283H90.9736V46.9585H81.1455V48.3283Z" fill="#5A3114"/>
<path d="M81.1455 50.745H90.9736V49.3804H81.1455V50.745Z" fill="#5A3114"/>
<path d="M81.1455 53.1669H90.9736V51.7971H81.1455V53.1669Z" fill="#5A3114"/>
<path d="M81.1455 55.5834H90.9736V54.2136H81.1455V55.5834Z" fill="#5A3114"/>
<path d="M81.1455 58.0002H90.9736V56.6304H81.1455V58.0002Z" fill="#5A3114"/>
<path d="M81.1455 60.4221H90.9736V59.0471H81.1455V60.4221Z" fill="#5A3114"/>
<path d="M81.1455 62.8388H90.9736V61.469H81.1455V62.8388Z" fill="#5A3114"/>
<path d="M144.88 116.938C144.88 137.224 128.448 153.672 108.182 153.672C87.9167 153.672 71.4844 137.224 71.4844 116.938C71.4844 96.6459 87.9167 80.198 108.182 80.198C128.448 80.198 144.88 96.6459 144.88 116.938Z" fill="#6F4323"/>
<path d="M108.183 151.005C89.417 151.005 74.1514 135.724 74.1514 116.938C74.1514 98.1512 89.417 82.8647 108.183 82.8647C126.948 82.8647 142.214 98.1512 142.214 116.938C142.214 135.724 126.948 151.005 108.183 151.005Z" fill="#E9E9E9"/>
<path d="M108.183 119.031C107.026 119.031 106.089 118.094 106.089 116.938C106.089 115.781 107.026 114.839 108.183 114.839C109.339 114.839 110.276 115.781 110.276 116.938C110.276 118.094 109.339 119.031 108.183 119.031Z" fill="#6F4323"/>
<path d="M209.114 172.854H4.23926V164.474H209.114V172.854Z" fill="#6F4323"/>
<path d="M195.047 181.24H18.3076V172.854H195.047V181.24Z" fill="#845333"/>
<path d="M181.083 189.62H32.2705V181.24H181.083V189.62Z" fill="#A47343"/>
<path d="M90.1454 304.021H96.7236C111.166 277.011 102.567 254.422 97.0204 244.38H89.8486C84.3017 254.422 75.7027 277.011 90.1454 304.021Z" fill="#A47343"/>
<path d="M97.7972 244.38H89.0732C88.516 244.38 88.0576 243.922 88.0576 243.359C88.0576 242.797 88.516 242.339 89.0732 242.339H97.7972C98.3545 242.339 98.8128 242.797 98.8128 243.359C98.8128 243.922 98.3545 244.38 97.7972 244.38Z" fill="#5A3114"/>
<path d="M97.7972 306.063H89.0732C88.516 306.063 88.0576 305.604 88.0576 305.042C88.0576 304.479 88.516 304.021 89.0732 304.021H97.7972C98.3545 304.021 98.8128 304.479 98.8128 305.042C98.8128 305.604 98.3545 306.063 97.7972 306.063Z" fill="#5A3114"/>
<path d="M119.641 328.047H126.219C140.661 301.037 132.062 278.443 126.521 268.401H119.344C113.797 278.443 105.198 301.037 119.641 328.047Z" fill="#A47343"/>
<path d="M127.291 268.401H118.573C118.01 268.401 117.552 267.943 117.552 267.38C117.552 266.818 118.01 266.36 118.573 266.36H127.291C127.854 266.36 128.307 266.818 128.307 267.38C128.307 267.943 127.854 268.401 127.291 268.401Z" fill="#5A3114"/>
<path d="M127.291 330.084H118.573C118.01 330.084 117.552 329.625 117.552 329.063C117.552 328.505 118.01 328.047 118.573 328.047H127.291C127.854 328.047 128.307 328.505 128.307 329.063C128.307 329.625 127.854 330.084 127.291 330.084Z" fill="#5A3114"/>
<path d="M107.984 116.938L101.187 114.474C101.187 114.474 94.9216 116.656 90.9736 116.938C94.9216 117.219 101.187 119.396 101.187 119.396L107.984 116.938Z" fill="#6F4323"/>
<path d="M108.182 117.109L110.64 105.896C110.64 105.896 108.463 95.5678 108.182 89.0574C107.901 95.5678 105.724 105.896 105.724 105.896L108.182 117.109Z" fill="#6F4323"/>
</svg>
