<svg width="652" height="585" viewBox="0 0 652 585" fill="none" xmlns="http://www.w3.org/2000/svg">
<mask id="mask0_287_104853" style="mask-type:luminance" maskUnits="userSpaceOnUse" x="0" y="0" width="652" height="567">
<path d="M0 0H652V566.14H0V0Z" fill="white"/>
</mask>
<g mask="url(#mask0_287_104853)">
<path d="M338.957 438.932C350.119 438.723 360.03 434.724 369.35 429.16C377.07 424.535 384.13 419.04 389.033 411.251C394.075 403.183 393.206 393.654 386.425 388.438C383.156 385.969 379.365 383.848 375.47 382.526C372.445 381.483 368.759 381.24 365.594 381.831C354.292 383.882 343.756 388.09 334.053 394.211C326.055 399.288 320.074 405.86 317.813 415.354C315.275 426.239 320.7 435.28 331.584 437.923C333.984 438.514 336.487 438.619 338.957 438.932ZM293.401 261.091C293.401 274.202 299.278 281.226 308.911 283.174C315.24 284.425 321.117 282.826 326.82 280.461C336.731 276.358 346.538 272.045 356.448 267.907C361.004 265.96 365.073 263.421 368.411 259.7C373.975 253.545 375.227 244.051 370.845 237.027C365.699 228.716 357.422 224.995 348.102 224.89C332.071 224.647 317.813 230.35 305.642 240.678C298.443 246.799 293.61 254.588 293.401 261.091ZM297.609 460.736C299.104 460.562 301.504 460.492 303.834 459.936C317.257 456.632 323.377 442.583 315.866 431.142C311.206 424.013 304.181 419.77 295.348 419.736C287.976 419.701 281.299 418.171 274.97 414.067C266.833 408.781 258.104 404.608 247.88 405.234C238.943 405.791 231.64 409.164 226.563 416.745C222.703 422.552 222.077 428.916 223.086 435.558C224.303 443.626 227.363 450.755 234.735 455.137C243.116 460.179 252.192 461.501 261.86 459.866C266.276 459.136 270.832 458.719 275.283 458.893C282.412 459.171 289.541 460.04 297.609 460.736ZM539.644 133.849C539.505 120.182 535.715 112.706 528.307 106.968C521.213 101.438 513.076 98.6563 504.139 98.7954C496.697 98.8998 489.637 101.195 482.856 104.116C473.606 108.08 464.043 109.158 454.062 108.289C449.055 107.837 443.908 107.281 438.935 107.907C425.651 109.645 414.106 115.835 403.951 124.112C392.928 133.119 381.417 141.221 368.689 147.62C359.578 152.21 352.554 158.783 348.102 168.207C340.973 183.438 347.198 199.365 361.317 207.12C371.124 212.51 381.904 213.971 392.823 214.458C398.109 214.701 403.465 214.284 408.75 213.971C413.515 213.727 418.314 213.484 423.043 212.823C433.649 211.328 444.151 211.989 454.688 213.727C463.313 215.118 471.902 216.857 480.77 215.675C488.594 214.597 495.375 211.467 501.113 206.181C507.025 200.756 509.911 193.488 512.798 186.255C514.536 181.804 516.032 177.179 518.466 173.145C522.57 166.364 527.508 160.104 531.75 153.392C536.306 146.159 539.818 138.439 539.644 133.849ZM114.761 357.523C113.857 358.218 112.953 358.879 112.048 359.609C108.119 362.878 103.772 365.799 100.294 369.52C93.3046 376.997 90.3487 386.282 92.0179 396.262C95.1129 414.519 105.719 428.256 121.472 437.471C137.26 446.721 153.779 444.669 169.914 437.784C183.824 431.872 193.109 421.022 200.934 408.503C206.011 400.366 211.332 392.263 217.243 384.682C221.312 379.501 226.737 375.363 231.327 370.564C236.926 364.721 241.725 358.288 244.02 350.29C247.359 338.605 243.499 328.625 232.823 322.782C226.424 319.235 219.26 318.54 212.062 318.366C213.766 312.419 215.852 306.577 217.069 300.526C220.721 282.408 227.085 265.403 236.996 249.72C245.655 235.984 247.602 221.448 241.656 206.146C236.926 193.94 225.694 186.046 212.549 186.533C206.706 186.742 200.76 188.029 195.126 189.628C182.329 193.28 169.671 197.174 156.595 199.817C135.765 204.06 119.734 215.153 110.484 234.697C106.623 242.834 103.598 251.389 99.7728 259.526C92.5047 274.967 87.9492 290.824 89.4445 308.142C90.2096 316.975 92.1918 325.356 95.9127 333.354C99.8771 341.839 106.936 348.029 112.396 355.402C113.022 356.236 113.961 356.827 114.761 357.523ZM318.613 125.016C319.03 125.155 319.448 125.259 319.865 125.433C326.437 128.041 332.906 130.997 339.617 133.223C345.842 135.309 352.38 136.144 359.022 134.927C366.325 133.605 372.515 129.954 378.183 125.503C383.851 121.086 389.137 116.218 394.632 111.593C401.761 105.611 410.315 101.96 418.348 97.474C422.626 95.0745 426.764 92.0838 430.172 88.5715C439.457 79.0431 437.996 64.5071 427.459 56.4045C421.096 51.536 413.793 49.2408 405.934 48.8235C386.842 47.7455 369.559 53.7964 353.006 62.5945C347.163 65.7242 342.156 70.1407 335.757 72.4706C329.776 74.6267 323.934 77.4087 318.3 80.3646C310.441 84.4333 305.259 90.6233 304.494 99.8039C304.251 99.7691 303.938 99.8387 303.729 99.6996C298.478 96.7089 292.879 95.0397 286.933 94.2747C278.274 93.1619 269.928 94.1008 261.895 97.2653C251.879 101.195 244.229 108.254 237.587 116.496C231.884 123.555 226.007 130.476 220.512 137.709C217.139 142.125 214.079 146.82 211.471 151.689C209.141 155.966 208.828 160.904 210.184 165.599C213.662 177.666 223.885 182.847 236.335 180.795C242.768 179.717 249.202 178.57 255.635 177.353C261.512 176.24 267.563 175.544 273.231 173.736C286.307 169.598 297.678 162.504 306.755 152.106C313.571 144.351 318.265 135.622 318.613 125.016ZM390.146 334.536C403.708 337.318 414.836 333.006 424.26 323.235C428.711 318.609 431.632 313.045 434.101 307.273C437.614 299.101 443.595 293.119 450.481 287.799C457.401 282.408 463.174 276.045 466.825 267.907C471.172 258.17 468.494 247.355 460.113 240.817C451.906 234.419 442.691 232.958 432.745 235.045C429.024 235.81 425.408 237.235 421.687 237.827C416.088 238.731 410.906 240.609 405.899 243.182C396.857 247.807 391.745 255.666 387.885 264.673C384.895 271.767 381.556 278.688 378.392 285.677C376.131 290.65 373.94 295.658 371.75 300.631C371.402 300.492 371.019 300.457 370.776 300.213C365.803 296.145 360.343 292.911 354.292 290.824C348.033 288.668 341.773 286.303 335.305 284.982C327.585 283.382 320.769 285.677 315.796 292.25C310.684 298.961 309.989 306.751 310.684 314.68C311.588 325.53 316.387 335.128 322.786 343.648C331.793 355.645 343.582 363.504 358.952 365.591C369.872 367.086 379.052 361.696 384.547 353.524C388.407 347.821 390.111 341.387 390.146 334.536ZM442.065 472.733C443.804 472.907 445.577 473.255 447.316 473.255C456.879 473.289 466.164 471.69 475.24 468.838C493.81 462.996 510.92 454.198 526.743 442.931C534.115 437.68 541.035 431.907 546.704 424.813C547.782 423.491 548.303 421.822 549.103 420.292C550.459 418.136 552.198 416.119 553.102 413.789C554.771 409.477 553.693 406.347 549.764 403.983C546.982 402.313 543.921 400.957 540.792 400.122C530.255 397.375 519.614 398.245 509.112 400.401C493.845 403.496 480.526 410.659 468.216 420.014C455.14 429.994 442.969 440.74 434.588 455.067C432.745 458.232 432.05 462.161 431.389 465.848C431.18 467.065 432.397 469.256 433.58 469.847C436.188 471.203 439.213 471.829 442.065 472.733ZM574.385 334.363C575.706 335.58 576.854 337.145 578.384 337.979C586.347 342.291 594.415 346.325 602.413 350.568C612.811 356.028 622.583 362.357 630.686 371.016C637.988 378.771 642.892 387.847 645.013 398.314C645.222 399.357 645.152 400.435 645.222 401.513C645.291 403.774 645.396 406.069 645.465 408.364C645.396 409.303 645.326 410.242 645.222 411.181C645.152 411.842 645.083 412.502 645.013 413.163C644.909 413.754 644.804 414.311 644.7 414.902C644.63 415.354 644.526 415.841 644.457 416.328C644.352 416.745 644.248 417.128 644.178 417.545C644.109 417.858 644.039 418.171 643.935 418.484C643.865 418.866 643.726 419.284 643.622 419.666C643.518 420.083 643.379 420.501 643.239 420.918C642.857 422.1 642.474 423.283 642.092 424.43C641.953 424.848 641.779 425.265 641.605 425.647C641.431 426.134 641.222 426.621 641.049 427.108C640.701 427.873 640.353 428.603 640.005 429.368C639.31 430.725 638.614 432.116 637.919 433.472C637.502 434.202 637.119 434.898 636.702 435.593C636.041 436.636 635.38 437.714 634.72 438.792C634.476 439.14 634.233 439.488 634.024 439.836C633.885 440.01 633.781 440.218 633.641 440.392C633.398 440.74 633.155 441.053 632.946 441.366C632.146 442.479 631.346 443.557 630.546 444.669C630.268 444.982 629.99 445.295 629.747 445.643C629.295 446.2 628.843 446.756 628.425 447.312C628.147 447.625 627.869 447.938 627.591 448.251C626.443 449.538 625.33 450.79 624.217 452.077C623.731 452.563 623.244 453.085 622.757 453.572C621.296 455.032 619.836 456.493 618.375 457.919C617.888 458.406 617.401 458.858 616.915 459.345C615.628 460.457 614.341 461.605 613.055 462.718C612.742 462.996 612.429 463.309 612.116 463.587C610.481 464.909 608.847 466.195 607.247 467.517C606.899 467.795 606.552 468.073 606.239 468.351C603.7 470.194 601.196 472.038 598.692 473.881C598.345 474.124 598.032 474.367 597.684 474.611C597.51 474.75 597.301 474.854 597.128 474.993C596.78 475.237 596.432 475.48 596.084 475.724C594.311 476.906 592.537 478.088 590.764 479.271C590.416 479.514 590.033 479.758 589.686 480.001C589.512 480.105 589.303 480.21 589.129 480.314C588.781 480.557 588.434 480.801 588.086 481.044C587.877 481.149 587.703 481.253 587.53 481.357C587.182 481.566 586.834 481.809 586.486 482.053C585.408 482.714 584.33 483.374 583.252 484.035C582.904 484.244 582.557 484.452 582.209 484.696C581.653 485.009 581.131 485.322 580.609 485.635C580.262 485.843 579.914 486.087 579.531 486.295C579.01 486.608 578.488 486.921 577.932 487.234C577.584 487.443 577.236 487.686 576.854 487.895C576.332 488.208 575.776 488.486 575.254 488.799C574.558 489.217 573.828 489.634 573.133 490.051C572.611 490.364 572.055 490.642 571.533 490.955C570.837 491.338 570.107 491.755 569.412 492.172C568.508 492.624 567.638 493.111 566.734 493.598C565.656 494.189 564.613 494.781 563.535 495.372C561.935 496.206 560.335 497.006 558.736 497.841C555.536 499.44 552.302 501.075 549.103 502.675C546.46 503.926 543.817 505.144 541.209 506.395C540.444 506.743 539.714 507.126 538.983 507.473C537.766 507.995 536.549 508.552 535.367 509.073C534.602 509.421 533.837 509.769 533.106 510.116C532.237 510.464 531.402 510.847 530.568 511.194C529.803 511.542 529.072 511.89 528.307 512.238C527.821 512.412 527.334 512.62 526.847 512.829C526.082 513.142 525.317 513.49 524.552 513.837C524.1 514.011 523.613 514.22 523.126 514.394C522.361 514.741 521.596 515.089 520.831 515.402C520.344 515.611 519.857 515.785 519.37 515.993C517.701 516.689 516.067 517.35 514.432 518.045C513.911 518.254 513.424 518.428 512.937 518.636C512.554 518.775 512.137 518.949 511.754 519.123C511.268 519.332 510.746 519.506 510.259 519.68C509.877 519.853 509.459 520.027 509.077 520.166C508.59 520.375 508.068 520.549 507.581 520.723C504.347 521.975 501.113 523.227 497.879 524.444C497.392 524.652 496.871 524.826 496.349 525C491.898 526.6 487.412 528.199 482.961 529.799C481.917 530.147 480.874 530.495 479.831 530.842C474.649 532.581 469.468 534.285 464.252 536.024C463.869 536.163 463.486 536.267 463.069 536.406C460.635 537.171 458.166 537.937 455.732 538.702C455.314 538.806 454.932 538.945 454.549 539.049C453.158 539.467 451.767 539.884 450.376 540.301C449.994 540.44 449.611 540.545 449.194 540.684C447.803 541.066 446.447 541.484 445.056 541.866C444.673 542.005 444.256 542.11 443.839 542.214C443.004 542.457 442.169 542.701 441.335 542.944C440.917 543.049 440.535 543.188 440.118 543.292C438.553 543.709 436.988 544.127 435.458 544.579C435.04 544.683 434.658 544.787 434.241 544.892C432.71 545.309 431.146 545.726 429.581 546.143C429.163 546.248 428.781 546.352 428.364 546.456C428.051 546.526 427.738 546.63 427.425 546.7C427.042 546.804 426.66 546.909 426.242 547.013C425.929 547.082 425.616 547.152 425.303 547.256C424.921 547.361 424.503 547.465 424.121 547.569C423.808 547.639 423.495 547.708 423.182 547.778C422.765 547.882 422.382 547.987 421.965 548.091C421.652 548.16 421.339 548.23 421.026 548.334C420.643 548.439 420.226 548.508 419.844 548.613C419.531 548.682 419.218 548.786 418.905 548.856C418.487 548.96 418.105 549.065 417.722 549.134C417.409 549.238 417.096 549.308 416.749 549.378C416.366 549.482 415.984 549.586 415.566 549.691C415.253 549.76 414.94 549.83 414.627 549.899C414.245 550.004 413.828 550.073 413.445 550.177C413.132 550.247 412.819 550.317 412.506 550.386C412.089 550.49 411.706 550.595 411.289 550.699C411.011 550.769 410.698 550.838 410.385 550.908C410.072 550.942 409.759 551.012 409.446 551.082C408.855 551.221 408.263 551.36 407.707 551.499C407.29 551.603 406.907 551.708 406.49 551.777C406.177 551.847 405.864 551.916 405.551 551.986C405.168 552.09 404.751 552.194 404.334 552.264C403.847 552.368 403.36 552.473 402.873 552.577C402.491 552.681 402.108 552.786 401.691 552.855C401.378 552.925 401.1 552.994 400.787 553.029C400.474 553.099 400.161 553.133 399.848 553.203C399.257 553.342 398.7 553.481 398.109 553.62C397.692 553.724 397.275 553.794 396.892 553.898C396.405 554.003 395.918 554.107 395.431 554.177C395.014 554.281 394.632 554.35 394.214 554.455C393.901 554.524 393.588 554.559 393.275 554.629C392.719 554.733 392.128 554.872 391.571 554.976C391.258 555.046 390.911 555.115 390.598 555.185C390.041 555.289 389.45 555.394 388.894 555.533C388.581 555.568 388.268 555.637 387.99 555.707C387.503 555.741 387.051 555.811 386.564 555.881C385.973 556.02 385.347 556.159 384.755 556.298C384.338 556.402 383.956 556.472 383.538 556.541C383.051 556.646 382.565 556.715 382.078 556.785C381.66 556.889 381.278 556.959 380.861 557.063C380.2 557.167 379.539 557.272 378.878 557.376C378.461 557.445 378.079 557.515 377.661 557.619C377.174 557.689 376.688 557.758 376.201 557.828C375.644 557.932 375.053 558.037 374.462 558.141C373.801 558.245 373.141 558.35 372.48 558.454C372.063 558.523 371.68 558.593 371.263 558.663C370.776 558.732 370.289 558.836 369.802 558.906C369.211 558.976 368.62 559.08 368.063 559.184C367.403 559.289 366.742 559.358 366.081 559.462C365.49 559.567 364.899 559.636 364.342 559.741C363.647 559.845 362.986 559.914 362.325 560.019C361.943 560.088 361.526 560.158 361.108 560.227C360.274 560.332 359.439 560.436 358.639 560.54C358.152 560.575 357.666 560.61 357.214 560.68C356.414 560.784 355.649 560.923 354.884 561.027C354.397 561.062 353.91 561.132 353.423 561.166C352.31 561.305 351.197 561.445 350.085 561.618C349.493 561.688 348.902 561.758 348.311 561.827C347.303 561.931 346.259 562.036 345.251 562.14C344.486 562.21 343.721 562.279 342.956 562.384C341.773 562.488 340.591 562.557 339.409 562.662C338.817 562.731 338.191 562.801 337.6 562.87C336.07 562.975 334.54 563.079 333.01 563.183C332.036 563.253 331.097 563.322 330.158 563.427C328.42 563.496 326.716 563.601 325.012 563.705C323.516 563.775 322.021 563.879 320.526 563.948C318.022 563.844 315.518 563.67 312.979 563.705C311.31 563.705 309.606 564.053 307.937 564.227C305.746 564.227 303.59 564.227 301.399 564.227C297.052 564.122 292.671 564.018 288.289 563.914C287.315 563.844 286.376 563.775 285.403 563.74C283.351 563.601 281.264 563.496 279.213 563.392C278.448 563.322 277.648 563.253 276.883 563.183C275.422 563.044 273.927 562.905 272.432 562.766C271.771 562.731 271.11 562.696 270.449 562.662C269.267 562.557 268.085 562.453 266.902 562.349C266.346 562.279 265.72 562.21 265.164 562.175C263.842 562.001 262.555 561.862 261.234 561.688C260.747 561.653 260.26 561.618 259.808 561.584C258.8 561.479 257.791 561.375 256.783 561.305C256.192 561.201 255.6 561.132 255.009 561.062C254.175 560.958 253.34 560.853 252.505 560.784C251.914 560.68 251.323 560.61 250.732 560.54C249.897 560.436 249.063 560.332 248.228 560.227C247.637 560.158 247.046 560.054 246.489 559.984C245.794 559.914 245.133 559.81 244.472 559.741C243.916 559.636 243.325 559.567 242.734 559.462C242.073 559.393 241.412 559.289 240.751 559.219C240.334 559.149 239.952 559.045 239.534 558.976C238.7 558.871 237.865 558.767 237.03 558.628C236.613 558.558 236.196 558.489 235.813 558.419C235.153 558.315 234.492 558.21 233.831 558.141C233.414 558.071 232.997 558.002 232.614 557.932C231.953 557.828 231.258 557.689 230.597 557.619C230.214 557.515 229.797 557.445 229.38 557.376C227.85 557.098 226.285 556.819 224.72 556.541C224.337 556.472 223.92 556.402 223.538 556.298C223.051 556.228 222.564 556.124 222.042 556.054C221.66 555.95 221.242 555.881 220.86 555.776C219.469 555.533 218.113 555.255 216.722 554.976C216.339 554.872 215.922 554.803 215.539 554.733C215.053 554.629 214.531 554.524 214.079 554.42C213.662 554.316 213.244 554.246 212.862 554.142C210.949 553.69 209.036 553.272 207.124 552.82C206.706 552.751 206.324 552.646 205.907 552.542C204.898 552.299 203.855 552.055 202.846 551.812C202.429 551.708 202.047 551.603 201.629 551.499C200.969 551.151 200.308 550.664 199.578 550.49C185.389 547.013 171.653 542.214 158.126 536.719C154.474 535.224 150.753 533.868 147.067 532.477C146.58 532.268 146.093 532.06 145.606 531.851C144.146 531.19 142.685 530.495 141.19 529.799C140.703 529.59 140.216 529.382 139.764 529.173C136.913 527.747 134.096 526.322 131.244 524.931C130.688 524.652 130.132 524.339 129.575 524.061C128.184 523.296 126.793 522.496 125.367 521.731C125.193 521.627 124.985 521.523 124.776 521.418C123.733 520.827 122.69 520.201 121.646 519.61C121.472 519.506 121.264 519.401 121.055 519.297C120.36 518.845 119.664 518.428 118.969 518.01C118.795 517.906 118.586 517.802 118.377 517.697C117.682 517.245 117.021 516.828 116.326 516.411C116.117 516.272 115.943 516.167 115.735 516.063C115.387 515.82 115.039 515.576 114.691 515.367C114.483 515.263 114.309 515.159 114.1 515.054C113.752 514.811 113.405 514.568 113.057 514.324C112.883 514.22 112.709 514.116 112.5 514.011C112.153 513.768 111.805 513.524 111.422 513.246C111.249 513.177 111.075 513.072 110.901 512.968C110.553 512.725 110.205 512.446 109.823 512.203C109.649 512.099 109.475 511.994 109.301 511.89C108.953 511.646 108.606 511.403 108.223 511.125C108.049 511.021 107.875 510.916 107.702 510.812C107.354 510.568 107.006 510.325 106.658 510.047C106.484 509.943 106.276 509.838 106.102 509.734C105.789 509.49 105.441 509.212 105.093 508.969C104.919 508.864 104.711 508.725 104.537 508.621C103.981 508.204 103.459 507.821 102.903 507.404C102.729 507.3 102.555 507.195 102.381 507.056C102.033 506.813 101.72 506.569 101.372 506.326C100.99 506.048 100.607 505.769 100.225 505.491C99.9119 505.248 99.5641 504.97 99.2511 504.726C98.8686 504.448 98.4861 504.17 98.1036 503.926C97.7558 503.648 97.4428 503.37 97.0951 503.127C96.7126 502.848 96.3648 502.57 95.9823 502.292C95.4606 501.875 94.939 501.423 94.4174 501.005C94.0349 500.727 93.6871 500.484 93.3046 500.205C92.7829 499.753 92.2613 499.336 91.7049 498.884C91.3572 498.641 91.0094 498.362 90.6269 498.084C90.1053 497.632 89.5836 497.18 89.062 496.763C88.7143 496.485 88.3317 496.172 87.984 495.893C87.2885 495.302 86.593 494.676 85.8975 494.085C85.3411 493.633 84.7847 493.181 84.2283 492.729C83.5675 492.103 82.872 491.512 82.1765 490.886C81.0637 489.947 79.9857 488.973 78.8729 487.999C77.8644 487.026 76.8211 486.052 75.7779 485.043C72.3699 481.67 68.9619 478.262 65.554 474.854C64.4064 473.637 63.2588 472.42 62.1112 471.203C61.4853 470.473 60.8246 469.742 60.1986 469.012C59.3988 468.143 58.6337 467.308 57.8687 466.439C57.3818 465.882 56.9297 465.326 56.4777 464.77C56.0256 464.248 55.5735 463.761 55.1562 463.239C54.7041 462.683 54.252 462.127 53.8 461.57C53.3479 461.083 52.9306 460.562 52.5133 460.04C52.2351 459.692 51.9221 459.31 51.6439 458.962C51.2266 458.44 50.7745 457.919 50.3572 457.397C50.079 457.015 49.8008 456.632 49.5226 456.284C49.1053 455.763 48.688 455.241 48.2707 454.72C48.1664 454.546 48.0273 454.372 47.8882 454.198C47.4709 453.676 47.0536 453.12 46.6363 452.598C46.5319 452.424 46.3928 452.25 46.2885 452.077C45.8712 451.555 45.4539 450.999 45.0714 450.477C44.9323 450.303 44.828 450.129 44.6889 449.955C44.4454 449.608 44.1672 449.26 43.889 448.912C43.6456 448.53 43.3674 448.147 43.124 447.764C42.8458 447.452 42.6023 447.104 42.3589 446.756C42.2546 446.582 42.1155 446.408 42.0112 446.234C41.6287 445.713 41.2461 445.156 40.8288 444.635C40.7245 444.426 40.5854 444.252 40.4463 444.044C40.2029 443.696 39.9594 443.383 39.716 443.035C39.6117 442.861 39.5074 442.653 39.3683 442.479C39.1248 442.131 38.8814 441.783 38.638 441.47C38.5337 441.262 38.3945 441.088 38.2902 440.914C38.0468 440.566 37.8034 440.218 37.5599 439.871C37.4556 439.697 37.3165 439.488 37.2122 439.314C36.9688 438.966 36.7253 438.619 36.4819 438.271C36.3776 438.097 36.2733 437.888 36.1689 437.714C35.9255 437.367 35.6821 437.019 35.4387 436.671C35.3343 436.497 35.23 436.289 35.0909 436.08C34.8823 435.767 34.6388 435.419 34.3954 435.072C34.2911 434.863 34.1868 434.654 34.0477 434.446C33.6304 433.785 33.1783 433.089 32.7262 432.429C32.6219 432.255 32.5175 432.046 32.4132 431.872C31.9959 431.177 31.5438 430.481 31.1265 429.786C31.0222 429.577 30.9179 429.403 30.8136 429.229C30.3963 428.499 29.979 427.804 29.5269 427.108C29.4226 426.934 29.3182 426.725 29.2139 426.517C28.6227 425.474 28.0315 424.43 27.4056 423.387C27.1274 422.865 26.8492 422.309 26.5362 421.787C26.2232 420.883 25.9103 419.979 25.5277 419.11C22.2936 412.085 19.0595 405.095 15.7907 398.106C15.2343 396.958 14.5388 395.88 13.9128 394.767C10.9222 383.882 7.40986 373.102 5.11469 362.078C2.61088 350.22 0.280939 338.223 0.489594 325.982C0.767796 309.568 3.48026 293.537 7.86193 277.749C12.5218 260.917 20.4853 245.686 29.979 231.185C36.2385 221.587 42.5328 211.919 49.4531 202.773C56.582 193.349 64.1977 184.203 72.1613 175.475C82.6981 163.86 93.4437 152.384 104.711 141.534C115.908 130.719 127.767 120.565 139.521 110.376C155.344 96.7089 172.383 84.6072 189.945 73.2357C208.028 61.4817 226.911 51.1187 246.455 41.9032C265.233 33.0703 284.603 25.5937 304.425 19.3689C324.316 13.1094 344.521 8.1713 365.073 4.83288C374.497 3.30277 383.99 2.25951 393.519 1.49446C403.847 0.659859 414.21 -0.000871567 424.573 -0.0356445C443.004 -0.0356445 461.261 2.12042 479.344 5.98046C496.453 9.63186 512.798 15.3698 528.412 23.1246C542.913 30.3579 556.197 39.3646 568.16 50.3536C580.262 61.4121 589.686 74.4528 597.893 88.502C605.439 101.508 610.725 115.453 615.245 129.745C616.045 132.249 616.706 134.788 617.436 137.326C617.923 140.491 618.34 143.69 618.932 146.89C621.783 162.712 622.896 178.639 620.949 194.671C618.758 212.997 612.811 230.246 604.326 246.486C596.362 261.682 587.564 276.462 579.079 291.38C574.837 298.857 570.385 306.229 567.986 314.575C565.969 321.565 566.282 328.103 572.194 333.319C572.785 333.841 573.654 334.015 574.385 334.363Z" fill="#F8E0AA"/>
</g>
<path d="M303.826 459.935C317.249 456.631 323.369 442.582 315.858 431.141C311.198 424.012 304.173 419.77 295.341 419.735C287.968 419.7 281.291 418.17 274.962 414.067C266.825 408.781 258.096 404.608 247.872 405.234C238.935 405.79 231.632 409.163 226.555 416.744C222.695 422.552 222.069 428.916 223.078 435.558C224.295 443.625 227.355 450.754 234.727 455.136C243.108 460.178 252.185 461.5 261.852 459.866C266.268 459.135 270.824 458.718 275.275 458.892C282.404 459.17 289.533 460.039 297.601 460.735C299.096 460.561 301.496 460.491 303.826 459.935ZM378.349 307.759C385.443 315.305 389.651 324.103 390.138 334.536C403.7 337.318 414.828 333.006 424.252 323.234C428.703 318.609 431.624 313.045 434.094 307.272C437.606 299.1 443.587 293.118 450.473 287.798C457.393 282.408 463.166 276.044 466.817 267.906C471.164 258.169 468.486 247.354 460.105 240.817C451.898 234.418 442.683 232.957 432.737 235.044C429.016 235.809 425.4 237.235 421.679 237.826C416.08 238.73 410.898 240.608 405.891 243.181C396.849 247.806 391.737 255.666 387.877 264.672C384.887 271.767 381.548 278.687 378.384 285.677C376.123 290.649 373.932 295.657 371.742 300.63C373.932 303.029 376.123 305.394 378.349 307.759ZM114.753 357.522C113.953 356.827 113.014 356.235 112.388 355.401C106.929 348.029 99.8692 341.839 95.9048 333.353C92.1839 325.355 90.2017 316.974 89.4366 308.141C87.9413 290.823 92.4968 274.966 99.7649 259.526C103.59 251.388 106.616 242.834 110.476 234.696C119.726 215.153 135.757 204.059 156.588 199.817C169.663 197.174 182.321 193.279 195.118 189.628C200.752 188.028 206.699 186.741 212.541 186.533C225.686 186.046 236.918 193.94 241.648 206.146C247.594 221.447 245.647 235.983 236.988 249.719C227.077 265.403 220.713 282.408 217.062 300.526C215.844 306.576 213.758 312.419 212.054 318.365C210.941 318.574 209.794 318.748 208.681 318.922C196.753 321.043 185.764 325.633 174.984 330.919C170.08 333.353 165.351 336.309 160.239 338.291C145.216 344.099 130.019 349.524 115.761 357.209C115.448 357.383 115.101 357.418 114.753 357.522Z" fill="#8BCB9F"/>
<path d="M369.346 429.161C377.066 424.536 384.125 419.042 389.029 411.252C394.071 403.184 393.202 393.656 386.421 388.439C383.152 385.97 379.361 383.849 375.466 382.528C372.441 381.484 368.755 381.241 365.59 381.832C354.288 383.884 343.752 388.092 334.049 394.212C326.051 399.289 320.07 405.862 317.809 415.355C315.271 426.24 320.696 435.282 331.58 437.924C333.98 438.516 336.484 438.62 338.953 438.933C350.115 438.724 360.026 434.725 369.346 429.161ZM308.907 283.175C315.236 284.427 321.113 282.827 326.816 280.462C336.727 276.359 346.534 272.047 356.444 267.909C361 265.961 365.069 263.423 368.407 259.702C373.971 253.546 375.223 244.053 370.841 237.028C365.695 228.717 357.418 224.996 348.098 224.892C332.067 224.648 317.809 230.351 305.638 240.68C298.439 246.8 293.606 254.59 293.397 261.093C293.397 274.203 299.274 281.227 308.907 283.175ZM311.271 118.514C313.497 120.914 316.14 122.861 318.609 125.017C319.026 125.156 319.444 125.261 319.861 125.435C326.433 128.043 332.902 130.999 339.613 133.224C345.838 135.311 352.376 136.145 359.018 134.928C366.321 133.607 372.511 129.955 378.179 125.504C383.847 121.088 389.133 116.219 394.628 111.594C401.757 105.613 410.311 101.961 418.344 97.4754C422.622 95.0759 426.76 92.0852 430.168 88.5729C439.453 79.0445 437.992 64.5085 427.455 56.4059C421.092 51.5374 413.789 49.2422 405.93 48.8249C386.838 47.7469 369.555 53.7978 353.002 62.5959C347.159 65.7256 342.152 70.1421 335.753 72.472C329.772 74.6281 323.93 77.4101 318.296 80.366C310.437 84.4347 305.255 90.6247 304.49 99.8053C304.456 106.865 306.438 113.263 311.271 118.514ZM114.757 357.524C115.105 357.42 115.452 357.385 115.765 357.211C130.023 349.526 145.22 344.101 160.243 338.294C165.355 336.311 170.084 333.355 174.988 330.921C185.768 325.635 196.757 321.045 208.685 318.924C209.798 318.75 210.945 318.576 212.058 318.367C219.256 318.541 226.42 319.237 232.819 322.784C243.495 328.626 247.355 338.607 244.016 350.291C241.721 358.289 236.922 364.723 231.323 370.565C226.733 375.364 221.308 379.502 217.239 384.684C211.328 392.265 206.007 400.367 200.93 408.505C193.105 421.024 183.82 431.874 169.91 437.785C153.775 444.671 137.256 446.723 121.469 437.472C105.715 428.257 95.1089 414.521 92.0139 396.264C90.3447 386.283 93.3006 376.998 100.29 369.522C103.768 365.801 108.115 362.88 112.044 359.611C112.949 358.88 113.853 358.22 114.757 357.524Z" fill="#5F91A9"/>
<mask id="mask1_287_104853" style="mask-type:luminance" maskUnits="userSpaceOnUse" x="13" y="93" width="639" height="492">
<path d="M13.6992 93.4399H651.824V584.222H13.6992V93.4399Z" fill="white"/>
</mask>
<g mask="url(#mask1_287_104853)">
<path d="M579.526 486.294C579.874 486.085 580.256 485.842 580.604 485.633C580.256 485.842 579.909 486.085 579.526 486.294ZM43.8839 448.911C44.1621 449.259 44.4056 449.606 44.6838 449.954C44.4403 449.606 44.1621 449.259 43.8839 448.911ZM416.744 549.376C417.056 549.307 417.404 549.237 417.717 549.133C417.404 549.237 417.091 549.307 416.744 549.376ZM412.501 550.385C412.779 550.315 413.127 550.246 413.44 550.176C413.127 550.246 412.814 550.315 412.501 550.385ZM644.451 416.361C644.521 415.874 644.625 415.388 644.695 414.901C644.625 415.353 644.521 415.84 644.451 416.361ZM398.104 553.619C398.66 553.48 399.252 553.341 399.843 553.202C399.252 553.341 398.695 553.48 398.104 553.619ZM384.75 556.297C385.342 556.192 385.967 556.018 386.559 555.879C385.967 556.018 385.342 556.158 384.75 556.297ZM528.302 512.236C529.033 511.889 529.798 511.541 530.563 511.193C529.798 511.541 529.067 511.889 528.302 512.236ZM230.592 557.618C231.253 557.688 231.913 557.827 232.609 557.931C231.948 557.827 231.253 557.688 230.592 557.618ZM345.246 562.139C346.254 562.035 347.263 561.93 348.306 561.826C347.297 561.93 346.254 562.035 345.246 562.139ZM57.8636 466.438C58.6286 467.272 59.3937 468.142 60.1935 469.011C59.3937 468.142 58.6286 467.307 57.8636 466.438ZM514.427 518.044C516.061 517.383 517.696 516.688 519.365 515.992C517.696 516.688 516.061 517.348 514.427 518.044ZM549.098 502.673C552.297 501.074 555.497 499.439 558.731 497.84C555.531 499.439 552.297 501.074 549.098 502.673ZM312.974 563.704C311.305 563.704 309.601 564.051 307.932 564.225C312.14 564.156 316.313 564.051 320.521 563.947C318.017 563.843 315.513 563.669 312.974 563.704ZM199.572 550.489C185.384 547.012 171.648 542.213 158.12 536.718C154.469 535.223 150.748 533.867 147.062 532.476C147.723 532.893 148.349 533.449 149.044 533.728C160.694 538.109 172.239 542.63 183.993 546.733C189.731 548.716 195.747 549.933 201.624 551.498C200.963 551.15 200.303 550.663 199.572 550.489ZM370.771 300.212C365.798 296.143 360.338 292.909 354.287 290.823C348.028 288.667 341.768 286.302 335.3 284.981C327.58 283.381 320.764 285.676 315.791 292.249C310.679 298.96 309.984 306.75 310.679 314.679C311.583 325.528 316.382 335.126 322.781 343.646C331.788 355.644 343.577 363.503 358.947 365.589C369.867 367.085 379.047 361.695 384.542 353.522C388.402 347.819 390.106 341.386 390.14 334.535C389.654 324.103 385.446 315.305 378.352 307.758C376.126 305.394 373.935 303.029 371.744 300.629C371.397 300.49 371.014 300.456 370.771 300.212ZM303.724 99.6984C298.473 96.7077 292.874 95.0385 286.928 94.2735C278.269 93.1607 269.923 94.0996 261.89 97.2641C251.874 101.194 244.224 108.253 237.582 116.495C231.879 123.554 226.002 130.474 220.507 137.708C217.134 142.124 214.074 146.819 211.466 151.687C209.136 155.965 208.823 160.903 210.179 165.597C213.656 177.664 223.88 182.846 236.33 180.794C242.763 179.716 249.197 178.569 255.63 177.351C261.507 176.239 267.558 175.543 273.226 173.735C286.302 169.597 297.673 162.502 306.75 152.105C313.566 144.35 318.26 135.621 318.608 125.015C316.139 122.859 313.496 120.911 311.27 118.512C306.437 113.261 304.454 106.862 304.489 99.8027C304.246 99.7679 303.933 99.8375 303.724 99.6984ZM528.302 106.966C521.208 101.437 513.071 98.6551 504.134 98.7943C496.692 98.8986 489.632 101.194 482.851 104.115C473.601 108.079 464.038 109.157 454.057 108.288C449.05 107.836 443.903 107.279 438.93 107.905C425.646 109.644 414.101 115.834 403.946 124.111C392.923 133.117 381.412 141.22 368.684 147.619C359.573 152.209 352.549 158.781 348.097 168.206C340.968 183.437 347.193 199.364 361.312 207.119C371.118 212.509 381.899 213.97 392.818 214.457C398.104 214.7 403.459 214.283 408.745 213.97C413.509 213.726 418.308 213.483 423.038 212.822C433.644 211.327 444.146 211.987 454.683 213.726C463.307 215.117 471.897 216.856 480.765 215.674C488.589 214.596 495.37 211.466 501.108 206.18C507.02 200.755 509.906 193.487 512.793 186.254C514.531 181.803 516.027 177.178 518.461 173.144C522.564 166.362 527.502 160.103 531.745 153.391C536.301 146.158 539.813 138.438 539.639 133.848C539.5 120.181 535.709 112.704 528.302 106.966ZM595.418 500.169C595.801 499.926 596.183 499.683 596.531 499.474C596.149 499.683 595.801 499.926 595.418 500.169ZM585.334 506.394C584.986 506.638 584.603 506.846 584.221 507.09C584.603 506.846 584.951 506.638 585.334 506.394ZM426.898 568.224C426.585 568.294 426.237 568.398 425.889 568.468C426.237 568.398 426.55 568.294 426.898 568.224ZM116.842 532.406C117.225 532.649 117.607 532.928 117.955 533.171C117.573 532.928 117.225 532.649 116.842 532.406ZM617.362 484.312C617.918 483.86 618.44 483.408 618.961 482.956C618.44 483.408 617.883 483.86 617.362 484.312ZM360.164 580.917C359.156 581.057 358.113 581.161 357.069 581.3C358.113 581.161 359.121 581.057 360.164 580.917ZM644.73 452.527C645.46 451.067 646.19 449.606 646.92 448.181C646.19 449.641 645.46 451.067 644.73 452.527ZM70.2783 492.936C69.1307 491.684 68.0179 490.432 66.8703 489.18C67.9831 490.432 69.1307 491.684 70.2783 492.936ZM326.119 584.221C327.337 584.186 328.554 583.769 329.736 583.56C326.05 583.699 322.329 583.839 318.643 583.943C321.147 584.047 323.616 584.256 326.119 584.221ZM645.217 401.512C645.286 403.773 645.39 406.068 645.46 408.363C645.703 407.215 645.947 406.068 646.329 404.329C647.407 406.416 648.242 408.05 649.111 409.684C647.79 406.972 646.503 404.225 645.217 401.512ZM44.8576 461.778C45.6922 463.064 46.8398 464.142 47.8483 465.29C45.1011 461.221 42.3886 457.118 39.6414 453.049C41.3801 455.97 43.0493 458.926 44.8576 461.778ZM434.583 566.66C438.095 565.721 441.573 564.538 445.051 563.46C439.382 564.956 433.714 566.451 428.045 567.946C430.202 567.529 432.462 567.251 434.583 566.66ZM550.663 525.242C556.818 522.217 562.973 519.157 569.094 516.062C569.615 515.818 569.963 515.262 570.38 514.879C563.217 518.426 556.088 522.008 548.924 525.555C549.515 525.451 550.141 525.486 550.663 525.242ZM451.345 562.035C474.853 555.253 498.013 547.394 520.687 538.283C524.164 536.892 527.537 535.153 530.945 533.588C530.424 533.728 529.902 533.762 529.415 533.971C507.576 543.256 485.216 551.046 462.542 558.07C458.3 559.357 454.127 560.748 449.919 562.104C450.371 562.069 450.893 562.174 451.345 562.035ZM20.2368 410.449C20.1672 410.658 20.0629 410.867 19.9586 411.075C19.8543 410.936 19.7152 410.832 19.6804 410.658C19.6456 410.554 19.7847 410.38 19.8543 410.241C19.9934 410.31 20.2368 410.415 20.2368 410.449ZM25.5226 419.108C22.2885 412.084 19.0544 405.094 15.7856 398.104C15.2292 396.957 14.5337 395.879 13.9077 394.766C13.9773 395.183 13.9773 395.635 14.1164 396.053C18.6719 412.745 25.0358 428.706 33.5905 443.799C35.2945 446.824 37.4157 449.641 39.3284 452.527C39.0502 451.901 38.8415 451.206 38.4938 450.65C31.504 439.243 25.5574 427.315 20.8975 414.762C20.5498 413.823 20.3759 412.779 20.0977 411.806C20.3411 411.736 20.5498 411.667 20.7932 411.562C21.2801 412.466 21.7669 413.371 22.2538 414.24C23.6795 416.779 25.1053 419.248 26.5311 421.786C26.2181 420.882 25.9051 419.978 25.5226 419.108ZM134.473 543.012C140.072 545.655 145.636 548.403 151.27 550.941C175.751 562.069 201.207 570.241 227.636 575.388C228.227 575.493 228.749 575.771 229.34 575.945C227.114 575.701 224.819 575.597 222.628 575.11C197.799 569.755 173.665 562.069 150.574 551.393C145.845 549.202 141.15 546.873 136.455 544.577C135.725 544.195 135.134 543.534 134.473 543.012Z" fill="#F3A998"/>
</g>
<mask id="mask2_287_104853" style="mask-type:luminance" maskUnits="userSpaceOnUse" x="18" y="136" width="634" height="448">
<path d="M18.9873 136.875H651.826V583.945H18.9873V136.875Z" fill="white"/>
</mask>
<g mask="url(#mask2_287_104853)">
<path d="M19.6837 410.661C19.7185 410.835 19.8576 410.939 19.9619 411.078C20.0662 410.87 20.1706 410.661 20.2401 410.452C20.2401 410.418 19.9967 410.313 19.8576 410.244C19.788 410.383 19.6489 410.557 19.6837 410.661ZM481.011 435.108C493.461 426.31 507.162 421.024 522.185 418.938C531.192 417.651 540.233 417.477 549.101 420.294C550.457 418.138 552.196 416.121 553.1 413.791C554.77 409.479 553.691 406.349 549.762 403.984C546.98 402.315 543.92 400.959 540.79 400.124C530.253 397.377 519.612 398.246 509.11 400.402C493.843 403.497 480.524 410.661 468.214 420.016C455.139 429.996 442.967 440.742 434.586 455.069C432.743 458.234 432.048 462.163 431.387 465.849C431.178 467.066 432.396 469.257 433.578 469.848C436.186 471.205 439.212 471.831 442.063 472.735C452.078 457.19 466.058 445.714 481.011 435.108ZM582.068 317.22C590.553 301.884 599.63 286.861 608.08 271.526C625.537 239.671 632.596 205.94 625.92 169.843C623.868 158.784 621.607 147.795 617.434 137.328C617.921 140.493 618.339 143.692 618.93 146.891C621.781 162.714 622.894 178.641 620.947 194.672C618.756 212.999 612.809 230.247 604.324 246.487C596.361 261.684 587.563 276.464 579.077 291.382C574.835 298.859 570.384 306.231 567.984 314.577C565.967 321.567 566.28 328.105 572.192 333.321C572.783 333.843 573.652 334.017 574.383 334.364C576.921 328.626 579.043 322.68 582.068 317.22ZM428.362 546.458C428.779 546.354 429.162 546.25 429.579 546.145C431.144 545.728 432.709 545.311 434.239 544.893C434.656 544.789 435.039 544.685 435.456 544.58C436.986 544.128 438.551 543.711 440.116 543.294C440.533 543.189 440.916 543.05 441.333 542.946C442.167 542.702 443.002 542.459 443.837 542.216C444.254 542.111 444.671 542.007 445.054 541.868C446.445 541.485 447.801 541.068 449.192 540.686C449.609 540.546 449.992 540.442 450.374 540.303C451.765 539.886 453.156 539.468 454.547 539.051C454.93 538.947 455.312 538.808 455.73 538.703C458.164 537.938 460.633 537.173 463.067 536.408C463.485 536.269 463.867 536.165 464.25 536.026C469.466 534.287 474.647 532.583 479.829 530.844C480.872 530.496 481.916 530.149 482.959 529.801C487.41 528.201 491.896 526.602 496.347 525.002C496.869 524.828 497.39 524.654 497.877 524.445C501.111 523.228 504.345 521.976 507.58 520.725C508.066 520.551 508.588 520.377 509.075 520.168C509.457 520.029 509.875 519.855 510.257 519.681C510.744 519.507 511.266 519.334 511.753 519.125C512.135 518.951 512.552 518.777 512.935 518.638C513.422 518.429 513.909 518.256 514.43 518.047C516.065 517.386 517.699 516.691 519.368 515.995C519.855 515.786 520.342 515.613 520.829 515.404C521.594 515.091 522.359 514.743 523.124 514.395C523.611 514.222 524.098 514.013 524.55 513.839C525.315 513.491 526.08 513.144 526.845 512.831C527.332 512.622 527.819 512.413 528.306 512.239C529.036 511.892 529.801 511.544 530.566 511.196C531.401 510.848 532.235 510.466 533.105 510.118C533.835 509.77 534.6 509.423 535.365 509.075C536.547 508.553 537.764 507.997 538.982 507.475C539.712 507.127 540.442 506.745 541.207 506.397C543.815 505.145 546.458 503.928 549.101 502.676C552.3 501.077 555.5 499.442 558.734 497.842C560.334 497.008 561.933 496.208 563.533 495.373C564.611 494.782 565.654 494.191 566.732 493.6C567.636 493.113 568.506 492.626 569.41 492.174C570.105 491.757 570.836 491.34 571.531 490.957C572.053 490.644 572.609 490.366 573.131 490.053C573.826 489.636 574.557 489.218 575.252 488.801C575.774 488.488 576.33 488.21 576.852 487.897C577.234 487.688 577.582 487.445 577.93 487.236C578.486 486.923 579.008 486.61 579.529 486.297C579.877 486.088 580.26 485.845 580.607 485.636C581.129 485.323 581.651 485.01 582.207 484.697C582.555 484.454 582.903 484.245 583.25 484.037C584.328 483.376 585.406 482.715 586.484 482.055C586.832 481.811 587.18 481.568 587.528 481.359C587.702 481.255 587.875 481.15 588.084 481.046C588.432 480.803 588.78 480.559 589.127 480.316C589.301 480.211 589.51 480.107 589.684 480.003C590.032 479.759 590.414 479.516 590.762 479.273C592.535 478.09 594.309 476.908 596.082 475.725C596.43 475.482 596.778 475.239 597.126 474.995C597.3 474.856 597.508 474.752 597.682 474.613C598.03 474.369 598.343 474.126 598.691 473.882C601.194 472.039 603.698 470.196 606.237 468.353C606.55 468.075 606.898 467.797 607.245 467.519C608.845 466.197 610.479 464.91 612.114 463.589C612.427 463.311 612.74 462.998 613.053 462.72C614.339 461.607 615.626 460.459 616.913 459.346C617.4 458.86 617.886 458.407 618.373 457.921C619.834 456.495 621.294 455.034 622.755 453.574C623.242 453.087 623.729 452.565 624.216 452.078C625.328 450.792 626.441 449.54 627.589 448.253C627.867 447.94 628.145 447.627 628.423 447.314C628.841 446.758 629.293 446.201 629.745 445.645C629.988 445.297 630.266 444.984 630.545 444.671C631.344 443.558 632.144 442.48 632.944 441.368C633.153 441.055 633.396 440.742 633.64 440.394C633.779 440.22 633.883 440.011 634.022 439.837C634.231 439.49 634.474 439.142 634.718 438.794C635.378 437.716 636.039 436.638 636.7 435.595C637.117 434.899 637.5 434.204 637.917 433.474C638.612 432.117 639.308 430.726 640.003 429.37C640.351 428.605 640.699 427.875 641.047 427.11C641.221 426.623 641.429 426.136 641.603 425.649C641.777 425.267 641.951 424.849 642.09 424.432C642.473 423.284 642.855 422.102 643.238 420.92C643.377 420.502 643.516 420.085 643.62 419.668C643.724 419.285 643.864 418.868 643.933 418.486C644.037 418.173 644.107 417.86 644.177 417.547C644.246 417.129 644.35 416.747 644.455 416.364C644.524 415.877 644.629 415.391 644.698 414.904C644.802 414.312 644.907 413.756 645.011 413.165C645.081 412.504 645.15 411.843 645.22 411.183C645.324 410.244 645.394 409.305 645.463 408.366C645.707 407.218 645.95 406.071 646.333 404.332C647.411 406.419 648.245 408.053 649.115 409.687C649.288 410.174 649.462 410.661 649.636 411.148C649.949 412.191 650.262 413.2 650.575 414.243C650.645 414.625 650.749 414.973 650.853 415.356C650.923 415.703 650.992 416.051 651.062 416.364C651.166 416.921 651.271 417.477 651.375 417.999C651.479 418.52 651.549 419.042 651.618 419.564C651.688 420.294 651.758 421.024 651.827 421.754C651.827 424.432 651.827 427.075 651.827 429.753C651.758 430.483 651.688 431.213 651.618 431.944C651.514 432.639 651.41 433.335 651.305 433.995C651.236 434.378 651.166 434.76 651.097 435.143C650.992 435.63 650.888 436.151 650.784 436.673C650.714 437.021 650.61 437.403 650.54 437.786C650.471 438.133 650.367 438.446 650.297 438.794C650.193 439.177 650.088 439.525 649.984 439.907C649.184 442.202 648.35 444.463 647.55 446.758C647.341 447.21 647.132 447.697 646.924 448.184C646.193 449.609 645.463 451.07 644.733 452.53C644.455 453.087 644.177 453.608 643.898 454.13C643.446 454.826 643.029 455.556 642.612 456.251C642.507 456.425 642.403 456.599 642.299 456.773C642.055 457.156 641.812 457.503 641.603 457.886C641.116 458.581 640.664 459.312 640.212 460.007C639.969 460.355 639.691 460.703 639.447 461.05C639.343 461.224 639.204 461.398 639.099 461.572C638.821 461.92 638.578 462.302 638.3 462.65C638.056 462.998 637.778 463.345 637.534 463.728C637.256 464.076 636.978 464.424 636.7 464.771C636.283 465.328 635.83 465.849 635.413 466.406C635.135 466.753 634.857 467.066 634.544 467.414C633.953 468.144 633.327 468.84 632.735 469.57C632.075 470.266 631.449 470.961 630.823 471.657C628.458 474.021 626.093 476.351 623.763 478.716C623.068 479.342 622.372 480.003 621.677 480.629C620.773 481.394 619.869 482.194 618.965 482.959C618.443 483.411 617.921 483.863 617.365 484.315C616.843 484.767 616.287 485.184 615.765 485.636C615.209 486.054 614.687 486.506 614.131 486.958C613.783 487.201 613.435 487.479 613.088 487.758C612.74 488.036 612.392 488.314 612.044 488.592C611.697 488.836 611.314 489.114 610.966 489.392C610.618 489.636 610.271 489.914 609.923 490.192C609.54 490.435 609.193 490.714 608.81 490.992C608.462 491.235 608.115 491.513 607.767 491.757C607.419 492.035 607.037 492.278 606.689 492.557C606.306 492.8 605.959 493.078 605.611 493.322C605.437 493.426 605.263 493.53 605.089 493.669C604.741 493.913 604.394 494.156 604.046 494.435C603.663 494.678 603.316 494.921 602.933 495.2C602.585 495.443 602.203 495.686 601.82 495.93C601.681 496.034 601.507 496.173 601.333 496.278C600.986 496.521 600.603 496.764 600.255 497.008C600.082 497.112 599.908 497.251 599.734 497.356C599.386 497.599 599.004 497.842 598.656 498.086C598.482 498.19 598.308 498.295 598.134 498.399C597.786 498.642 597.404 498.886 597.021 499.129C596.882 499.233 596.708 499.338 596.535 499.477C596.187 499.686 595.804 499.929 595.422 500.172C595.248 500.277 595.109 500.381 594.935 500.485C594.239 500.937 593.509 501.39 592.814 501.842C592.64 501.946 592.466 502.05 592.292 502.155C591.909 502.398 591.562 502.641 591.179 502.885C591.005 502.989 590.831 503.094 590.658 503.198C589.962 503.615 589.266 504.067 588.536 504.485C588.362 504.589 588.188 504.693 588.015 504.798C587.632 505.041 587.25 505.25 586.902 505.493C586.38 505.806 585.859 506.119 585.337 506.397C584.989 506.641 584.607 506.849 584.224 507.093C583.702 507.406 583.181 507.684 582.694 507.997C581.964 508.414 581.233 508.831 580.538 509.249C580.364 509.353 580.155 509.457 579.982 509.562C578.938 510.153 577.86 510.779 576.782 511.37C576.261 511.683 575.739 511.961 575.217 512.239C574.139 512.831 573.061 513.422 571.983 514.013C571.462 514.291 570.905 514.569 570.384 514.882C563.22 518.429 556.091 522.011 548.927 525.558C548.093 525.976 547.258 526.358 546.423 526.741C544.58 527.575 542.737 528.41 540.929 529.244C540.442 529.453 539.955 529.662 539.468 529.87C537.104 530.914 534.739 531.957 532.374 532.965C531.887 533.174 531.435 533.383 530.949 533.591C530.427 533.73 529.905 533.765 529.418 533.974C507.58 543.259 485.219 551.049 462.546 558.073C458.303 559.36 454.13 560.751 449.922 562.107C449.54 562.211 449.157 562.316 448.81 562.42C447.905 562.663 447.036 562.907 446.167 563.15C445.784 563.255 445.436 563.359 445.054 563.463C439.385 564.959 433.717 566.454 428.049 567.949C427.666 568.054 427.284 568.123 426.901 568.227C426.588 568.297 426.24 568.401 425.893 568.471C425.51 568.575 425.128 568.645 424.78 568.749C421.407 569.549 418.033 570.349 414.695 571.149C414.313 571.218 413.93 571.322 413.547 571.392C412.33 571.67 411.113 571.948 409.896 572.227C409.514 572.296 409.131 572.4 408.749 572.47C407.531 572.748 406.314 572.992 405.097 573.27C404.715 573.339 404.332 573.409 403.95 573.513C403.428 573.618 402.941 573.722 402.419 573.826C402.037 573.896 401.654 574 401.272 574.07C398.107 574.696 394.943 575.322 391.743 575.948C391.361 576.017 390.978 576.087 390.596 576.191C390.109 576.261 389.587 576.365 389.066 576.469C388.683 576.539 388.301 576.608 387.918 576.643C387.257 576.782 386.562 576.921 385.866 577.026C385.484 577.095 385.101 577.165 384.754 577.234C384.058 577.339 383.363 577.478 382.667 577.582C382.285 577.652 381.937 577.721 381.554 577.791C380.859 577.895 380.163 577.999 379.468 578.138C379.085 578.208 378.703 578.277 378.32 578.312C377.659 578.417 376.964 578.521 376.268 578.625C375.886 578.695 375.503 578.764 375.121 578.834C374.46 578.938 373.765 579.043 373.069 579.147C372.687 579.182 372.304 579.251 371.922 579.321C371.052 579.425 370.183 579.564 369.348 579.703C368.966 579.738 368.583 579.808 368.201 579.842C367.331 579.981 366.462 580.086 365.593 580.225C365.21 580.26 364.827 580.329 364.445 580.364C363.576 580.503 362.706 580.607 361.872 580.712C361.315 580.781 360.724 580.851 360.168 580.92C359.159 581.06 358.116 581.164 357.073 581.303C356.69 581.338 356.273 581.372 355.89 581.407C354.673 581.546 353.491 581.685 352.274 581.825C351.682 581.894 351.126 581.929 350.57 581.998C349.352 582.103 348.135 582.242 346.918 582.346C346.362 582.381 345.805 582.416 345.214 582.485C343.649 582.624 342.084 582.763 340.52 582.903C339.789 582.937 339.024 582.972 338.294 583.042C336.381 583.146 334.434 583.285 332.521 583.424C331.582 583.459 330.678 583.494 329.739 583.563C326.053 583.702 322.332 583.842 318.646 583.946C313.43 583.946 308.179 583.946 302.962 583.946C299.624 583.842 296.286 583.702 292.947 583.563C292.008 583.494 291.104 583.459 290.165 583.424C288.252 583.285 286.305 583.181 284.392 583.042C283.836 583.007 283.245 582.972 282.688 582.903C280.95 582.763 279.211 582.624 277.472 582.451C277.055 582.451 276.672 582.416 276.29 582.381C274.725 582.242 273.16 582.068 271.595 581.929C271.213 581.894 270.795 581.859 270.413 581.825C269.196 581.685 267.979 581.546 266.796 581.407C266.379 581.372 265.996 581.338 265.614 581.303C264.397 581.164 263.18 581.025 261.962 580.886C261.58 580.851 261.197 580.781 260.815 580.747C259.772 580.642 258.728 580.503 257.72 580.364C257.337 580.329 256.92 580.26 256.538 580.225C255.529 580.086 254.486 579.947 253.443 579.808C253.06 579.773 252.677 579.703 252.295 579.668C251.426 579.529 250.556 579.425 249.722 579.286C249.304 579.251 248.922 579.182 248.539 579.147C246.627 578.869 244.679 578.556 242.767 578.277C242.384 578.208 242.001 578.138 241.619 578.104C237.898 577.443 234.177 576.817 230.456 576.191C230.108 576.087 229.726 576.052 229.343 575.948C228.752 575.774 228.23 575.495 227.639 575.391C201.21 570.244 175.755 562.072 151.273 550.944C145.639 548.406 140.075 545.658 134.477 543.015C134.303 542.911 134.129 542.842 133.955 542.737C131.625 541.416 129.33 540.094 127 538.773C126.826 538.669 126.652 538.564 126.478 538.46C125.783 538.043 125.053 537.591 124.357 537.173C124.183 537.069 124.009 536.965 123.835 536.86C122.584 536.095 121.332 535.295 120.08 534.53C119.906 534.426 119.732 534.322 119.558 534.217C119.21 533.974 118.828 533.73 118.445 533.487C118.306 533.383 118.132 533.278 117.958 533.174C117.611 532.931 117.228 532.652 116.846 532.409C116.672 532.305 116.498 532.2 116.359 532.096C115.976 531.853 115.628 531.609 115.246 531.366C115.107 531.261 114.933 531.122 114.759 531.018C114.377 530.775 114.029 530.531 113.681 530.288C113.507 530.149 113.333 530.044 113.159 529.94C112.081 529.175 111.003 528.41 109.925 527.645C109.751 527.54 109.578 527.436 109.404 527.297C108.882 526.915 108.326 526.497 107.769 526.08C107.595 525.976 107.422 525.871 107.248 525.732C106.9 525.489 106.552 525.211 106.204 524.932C106.03 524.828 105.891 524.724 105.718 524.585C105.161 524.167 104.605 523.75 104.048 523.333C103.701 523.089 103.353 522.811 103.005 522.533C102.449 522.116 101.927 521.698 101.371 521.281C101.232 521.142 101.058 521.038 100.884 520.933C100.153 520.342 99.4232 519.751 98.6929 519.16C98.5538 519.055 98.38 518.916 98.2061 518.812C97.4758 518.221 96.7803 517.63 96.05 517.038C95.7023 516.725 95.3198 516.447 94.972 516.169C94.2765 515.578 93.5462 514.987 92.8507 514.361C92.503 514.082 92.1552 513.804 91.8075 513.526C90.9033 512.726 89.9991 511.961 89.095 511.161C88.5734 510.709 88.0517 510.257 87.5301 509.805C86.4521 508.831 85.374 507.858 84.296 506.884C82.905 505.563 81.4792 504.206 80.0534 502.885C77.9669 500.798 75.8804 498.712 73.7939 496.625C72.6115 495.408 71.464 494.156 70.2816 492.939C69.134 491.687 68.0212 490.435 66.8736 489.183C66.3868 488.662 65.9347 488.14 65.4826 487.619C64.6828 486.714 63.9178 485.81 63.1179 484.906C62.8397 484.593 62.5615 484.245 62.2833 483.898C61.6574 483.202 61.0662 482.472 60.4402 481.742C60.162 481.394 59.8838 481.046 59.6056 480.733C59.0144 480.003 58.4233 479.273 57.8321 478.542C57.693 478.368 57.5887 478.195 57.4496 478.055C57.0323 477.534 56.5802 476.977 56.1629 476.456C55.8847 476.108 55.6065 475.76 55.3631 475.412C54.911 474.856 54.4937 474.3 54.0764 473.743C53.972 473.604 53.8329 473.43 53.7286 473.291C53.3113 472.735 52.894 472.178 52.4419 471.622C52.3376 471.483 52.2333 471.309 52.0942 471.135C51.7117 470.614 51.2944 470.057 50.8771 469.501C50.7727 469.327 50.6336 469.188 50.5293 469.014C50.2511 468.666 50.0077 468.318 49.7295 467.971C49.6251 467.797 49.5208 467.623 49.3817 467.449C48.9992 466.893 48.5819 466.336 48.1994 465.78C48.0603 465.641 47.9559 465.467 47.8516 465.293C45.1044 461.224 42.3919 457.121 39.6447 453.052C39.5403 452.878 39.436 452.704 39.3317 452.53C39.0535 451.904 38.8448 451.209 38.4971 450.653C31.5073 439.246 25.5607 427.318 20.9008 414.765C20.5531 413.826 20.3792 412.782 20.101 411.809C20.3444 411.739 20.5531 411.67 20.7965 411.565C21.2834 412.469 21.7702 413.374 22.2571 414.243C23.6829 416.782 25.1086 419.251 26.5344 421.789C26.8474 422.311 27.1256 422.867 27.4038 423.389C28.0298 424.432 28.6209 425.475 29.2121 426.519C29.3164 426.727 29.4208 426.936 29.5251 427.11C29.9772 427.805 30.3945 428.501 30.8118 429.231C30.9161 429.405 31.0204 429.579 31.1247 429.787C31.5421 430.483 31.9941 431.178 32.4114 431.874C32.5158 432.048 32.6201 432.256 32.7244 432.43C33.1765 433.091 33.6286 433.787 34.0459 434.447C34.185 434.656 34.2893 434.865 34.3936 435.073C34.637 435.421 34.8805 435.769 35.0891 436.082C35.2282 436.29 35.3325 436.499 35.4369 436.673C35.6803 437.021 35.9237 437.368 36.1671 437.716C36.2715 437.89 36.3758 438.099 36.4801 438.273C36.7236 438.62 36.967 438.968 37.2104 439.316C37.3147 439.49 37.4538 439.698 37.5582 439.872C37.8016 440.22 38.045 440.568 38.2884 440.916C38.3928 441.089 38.5319 441.263 38.6362 441.472C38.8796 441.785 39.123 442.133 39.3665 442.48C39.5056 442.654 39.6099 442.863 39.7142 443.037C39.9576 443.385 40.2011 443.698 40.4445 444.045C40.5836 444.254 40.7227 444.428 40.827 444.636C41.2443 445.158 41.6269 445.714 42.0094 446.236C42.1137 446.41 42.2528 446.584 42.3571 446.758C42.6006 447.105 42.844 447.453 43.1222 447.766C43.3656 448.149 43.6438 448.531 43.8872 448.914C44.1654 449.262 44.4089 449.609 44.6871 449.957C44.8262 450.131 44.9305 450.305 45.0696 450.479C45.4521 451 45.8694 451.557 46.2867 452.078C46.3911 452.252 46.5302 452.426 46.6345 452.6C47.0518 453.122 47.4691 453.678 47.8864 454.2C48.0255 454.373 48.1646 454.547 48.2689 454.721C48.6862 455.243 49.1035 455.765 49.5208 456.286C49.799 456.634 50.0772 457.016 50.3554 457.399C50.7727 457.921 51.2248 458.442 51.6421 458.964C51.9203 459.312 52.2333 459.694 52.5115 460.042C52.9288 460.563 53.3461 461.085 53.7982 461.572C54.2502 462.128 54.7023 462.685 55.1544 463.241C55.5717 463.763 56.0238 464.25 56.4759 464.771C56.9279 465.328 57.38 465.884 57.8669 466.44C58.6319 467.275 59.397 468.144 60.1968 469.014C60.8228 469.744 61.4835 470.474 62.1094 471.205C63.257 472.422 64.4046 473.639 65.5522 474.856C68.9601 478.264 72.3681 481.672 75.7761 485.045C76.8193 486.054 77.8626 487.027 78.8711 488.001C79.9839 488.975 81.0619 489.949 82.1747 490.887C82.8702 491.513 83.5657 492.105 84.2265 492.731C84.7829 493.183 85.3393 493.635 85.8957 494.087C86.5912 494.678 87.2867 495.304 87.9822 495.895C88.3299 496.173 88.7125 496.486 89.0602 496.764C89.5818 497.182 90.1035 497.634 90.6251 498.086C91.0076 498.364 91.3554 498.642 91.7031 498.886C92.2595 499.338 92.7812 499.755 93.3028 500.207C93.6853 500.485 94.0331 500.729 94.4156 501.007C94.9372 501.424 95.4588 501.876 95.9805 502.294C96.363 502.572 96.7108 502.85 97.0933 503.128C97.441 503.372 97.754 503.65 98.1018 503.928C98.4843 504.172 98.8668 504.45 99.2493 504.728C99.5623 504.971 99.9101 505.25 100.223 505.493C100.606 505.771 100.988 506.049 101.371 506.328C101.718 506.571 102.031 506.814 102.379 507.058C102.553 507.197 102.727 507.301 102.901 507.406C103.457 507.823 103.979 508.205 104.535 508.623C104.709 508.727 104.918 508.866 105.092 508.971C105.439 509.214 105.787 509.492 106.1 509.736C106.274 509.84 106.483 509.944 106.656 510.049C107.004 510.327 107.352 510.57 107.7 510.814C107.874 510.918 108.047 511.022 108.221 511.127C108.604 511.405 108.952 511.648 109.299 511.892C109.473 511.996 109.647 512.1 109.821 512.205C110.204 512.448 110.551 512.726 110.899 512.97C111.073 513.074 111.247 513.178 111.421 513.248C111.803 513.526 112.151 513.77 112.499 514.013C112.707 514.117 112.881 514.222 113.055 514.326C113.403 514.569 113.751 514.813 114.098 515.056C114.307 515.161 114.481 515.265 114.69 515.369C115.037 515.578 115.385 515.821 115.733 516.065C115.941 516.169 116.115 516.273 116.324 516.412C117.019 516.83 117.68 517.247 118.376 517.699C118.584 517.803 118.793 517.908 118.967 518.012C119.662 518.429 120.358 518.847 121.053 519.299C121.262 519.403 121.471 519.507 121.645 519.612C122.688 520.203 123.731 520.829 124.774 521.42C124.983 521.524 125.192 521.629 125.366 521.733C126.791 522.498 128.182 523.298 129.573 524.063C130.13 524.341 130.686 524.654 131.243 524.932C134.094 526.323 136.911 527.749 139.762 529.175C140.215 529.384 140.701 529.592 141.188 529.801C142.684 530.496 144.144 531.192 145.605 531.853C146.092 532.061 146.578 532.27 147.065 532.479C147.726 532.896 148.352 533.452 149.047 533.73C160.697 538.112 172.242 542.633 183.996 546.736C189.734 548.719 195.75 549.936 201.627 551.501C202.045 551.605 202.427 551.709 202.845 551.814C203.853 552.057 204.896 552.3 205.905 552.544C206.322 552.648 206.705 552.753 207.122 552.822C209.035 553.274 210.947 553.691 212.86 554.144C213.242 554.248 213.66 554.317 214.042 554.422C214.529 554.526 215.051 554.63 215.538 554.735C215.92 554.804 216.337 554.874 216.72 554.978C218.111 555.256 219.467 555.535 220.858 555.778C221.241 555.882 221.658 555.952 222.041 556.056C222.562 556.126 223.049 556.23 223.536 556.3C223.918 556.404 224.336 556.473 224.718 556.543C226.283 556.821 227.848 557.099 229.378 557.378C229.795 557.447 230.213 557.517 230.595 557.621C231.256 557.691 231.917 557.83 232.612 557.934C232.995 558.004 233.412 558.073 233.829 558.143C234.49 558.212 235.151 558.317 235.811 558.421C236.194 558.49 236.611 558.56 237.029 558.63C237.863 558.769 238.698 558.873 239.532 558.977C239.95 559.047 240.332 559.151 240.75 559.221C241.41 559.29 242.071 559.395 242.732 559.464C243.323 559.568 243.914 559.638 244.471 559.742C245.131 559.812 245.792 559.916 246.487 559.986C247.044 560.055 247.635 560.16 248.226 560.229C249.061 560.333 249.895 560.438 250.73 560.542C251.321 560.612 251.912 560.681 252.504 560.786C253.338 560.855 254.173 560.959 255.007 561.064C255.599 561.133 256.19 561.203 256.781 561.307C257.789 561.377 258.798 561.481 259.806 561.585C260.258 561.62 260.745 561.655 261.232 561.69C262.554 561.864 263.84 562.003 265.162 562.177C265.718 562.211 266.344 562.281 266.901 562.35C268.083 562.455 269.265 562.559 270.448 562.663C271.108 562.698 271.769 562.733 272.43 562.768C273.925 562.907 275.42 563.046 276.881 563.185C277.646 563.255 278.446 563.324 279.211 563.394C281.263 563.498 283.349 563.602 285.401 563.741C286.375 563.776 287.314 563.846 288.287 563.915C292.669 564.02 297.051 564.124 301.397 564.228C303.588 564.228 305.744 564.228 307.935 564.228C312.143 564.159 316.316 564.054 320.524 563.95C322.019 563.881 323.515 563.776 325.01 563.707C326.714 563.602 328.418 563.498 330.157 563.428C331.096 563.324 332.034 563.255 333.008 563.185C334.538 563.081 336.068 562.976 337.598 562.872C338.19 562.803 338.816 562.733 339.372 562.663C340.589 562.559 341.771 562.49 342.954 562.385C343.719 562.281 344.484 562.211 345.249 562.142C346.258 562.037 347.266 561.933 348.309 561.829C348.9 561.759 349.492 561.69 350.083 561.62C351.196 561.446 352.308 561.307 353.421 561.168C353.908 561.133 354.395 561.064 354.882 561.029C355.647 560.925 356.412 560.786 357.212 560.681C357.664 560.612 358.151 560.577 358.637 560.542C359.437 560.438 360.272 560.333 361.107 560.229C361.524 560.16 361.941 560.09 362.324 560.021C362.984 559.916 363.645 559.847 364.341 559.742C364.897 559.638 365.488 559.568 366.079 559.464C366.74 559.36 367.401 559.29 368.062 559.186C368.618 559.082 369.209 558.977 369.8 558.908C370.287 558.838 370.774 558.734 371.261 558.664C371.678 558.595 372.061 558.525 372.478 558.456C373.139 558.351 373.799 558.247 374.46 558.143C375.051 558.038 375.643 557.934 376.199 557.83C376.686 557.76 377.173 557.691 377.659 557.621C378.077 557.517 378.459 557.447 378.877 557.378C379.537 557.273 380.198 557.169 380.859 557.065C381.276 556.96 381.659 556.891 382.076 556.786C382.563 556.717 383.05 556.647 383.536 556.543C383.954 556.473 384.336 556.404 384.754 556.3C385.345 556.195 385.971 556.021 386.562 555.882C387.049 555.813 387.501 555.743 387.988 555.708C388.266 555.639 388.579 555.569 388.892 555.535C389.448 555.395 390.039 555.291 390.596 555.187C390.909 555.117 391.257 555.048 391.57 554.978C392.126 554.874 392.717 554.735 393.274 554.63C393.587 554.561 393.9 554.526 394.212 554.456C394.63 554.352 395.012 554.283 395.43 554.178C395.916 554.109 396.403 554.004 396.89 553.9C397.273 553.796 397.69 553.726 398.107 553.622C398.664 553.483 399.255 553.344 399.846 553.205C400.159 553.135 400.472 553.1 400.785 553.031C401.098 552.996 401.376 552.926 401.689 552.857C402.106 552.787 402.489 552.683 402.872 552.579C403.358 552.474 403.845 552.37 404.332 552.266C404.749 552.196 405.167 552.092 405.549 551.987C405.862 551.918 406.175 551.848 406.488 551.779C406.905 551.709 407.288 551.605 407.705 551.501C408.262 551.361 408.853 551.222 409.444 551.083C409.757 551.014 410.07 550.944 410.383 550.909C410.696 550.84 411.009 550.77 411.287 550.701C411.704 550.596 412.087 550.492 412.504 550.388C412.782 550.318 413.13 550.249 413.443 550.179C413.826 550.075 414.243 550.005 414.626 549.901C414.938 549.831 415.251 549.762 415.564 549.692C415.982 549.588 416.364 549.484 416.747 549.379C417.06 549.31 417.408 549.24 417.721 549.136C418.103 549.066 418.486 548.962 418.903 548.858C419.216 548.788 419.529 548.684 419.842 548.614C420.224 548.51 420.642 548.44 421.024 548.336C421.337 548.232 421.65 548.162 421.963 548.093C422.38 547.988 422.763 547.884 423.18 547.78C423.493 547.71 423.806 547.641 424.119 547.571C424.502 547.467 424.919 547.362 425.301 547.258C425.614 547.154 425.927 547.084 426.24 547.015C426.658 546.91 427.04 546.806 427.423 546.702C427.736 546.632 428.049 546.528 428.362 546.458Z" fill="#866538"/>
</g>
</svg>
