<svg width="142" height="216" viewBox="0 0 142 216" fill="none" xmlns="http://www.w3.org/2000/svg">
<mask id="mask0_6_4949" style="mask-type:luminance" maskUnits="userSpaceOnUse" x="0" y="70" width="142" height="146">
<path d="M0 70.5292H141.526V215.792H0V70.5292Z" fill="white"/>
</mask>
<g mask="url(#mask0_6_4949)">
<path d="M0.124023 215.803H141.402V70.719H0.124023V215.803Z" fill="#B79756"/>
</g>
<path d="M4.56152 211.245H136.965V75.2769H4.56152V211.245Z" fill="#B19253"/>
<path d="M13.9028 204.37H127.623V82.1517H13.9028V204.37Z" fill="white"/>
<path d="M39.0012 72.2338C38.5925 72.2338 38.2167 72.0696 37.9284 71.7813C37.6583 71.5076 37.4941 71.1135 37.4941 70.7194C37.4941 70.3144 37.6583 69.9203 37.9466 69.6502C38.4721 69.0883 39.5121 69.0883 40.0704 69.6502C40.3404 69.9349 40.5083 70.3144 40.5083 70.7194C40.5083 71.1135 40.3404 71.5076 40.0704 71.7813C39.7858 72.0696 39.3917 72.2338 39.0012 72.2338Z" fill="#DEDDDE"/>
<path d="M40.9427 66.5665C40.191 66.2162 39.8589 65.3075 40.2202 64.5522C40.5669 63.7968 41.4718 63.4867 42.2272 63.8297C42.9789 64.1763 43.2964 65.085 42.9497 65.8403C42.6943 66.384 42.1506 66.7161 41.5777 66.7161C41.366 66.7161 41.158 66.6687 40.9427 66.5665ZM39.6473 69.3325C38.8956 68.9639 38.5781 68.0772 38.9248 67.3218C39.286 66.5665 40.1801 66.2344 40.9318 66.592C41.6835 66.9423 42.0155 67.8473 41.6543 68.6063C41.3988 69.1537 40.8551 69.4639 40.2968 69.4639C40.0706 69.4639 39.8589 69.4201 39.6473 69.3325Z" fill="#DEDDDE"/>
<path d="M68.0625 8.60801C67.3108 8.26134 66.9751 7.35637 67.34 6.61196C67.6867 5.84565 68.5917 5.52453 69.3434 5.8712C70.0987 6.2361 70.4199 7.12648 70.0695 7.88549C69.8141 8.44015 69.2704 8.76127 68.6975 8.76127C68.4858 8.76127 68.2778 8.71748 68.0625 8.60801ZM66.7708 11.374C66.0154 11.0127 65.6979 10.1187 66.0446 9.36337C66.4059 8.60801 67.2962 8.29054 68.0479 8.64085C68.8033 8.99846 69.1354 9.89248 68.7741 10.6515C68.5187 11.1916 67.9713 11.5127 67.4167 11.5127C67.205 11.5127 66.9751 11.4689 66.7708 11.374ZM65.4717 14.14C64.7309 13.7788 64.3989 12.8884 64.7492 12.1294C65.1068 11.374 66.0008 11.0383 66.7708 11.4032C67.5079 11.7499 67.8363 12.6439 67.4896 13.4138C67.2196 13.9576 66.6759 14.275 66.1212 14.275C65.9096 14.275 65.6797 14.2312 65.4717 14.14ZM64.1909 16.8914C63.4355 16.5411 63.1034 15.6398 63.4684 14.8808C63.8114 14.1254 64.7163 13.8079 65.4717 14.1546C66.2234 14.5195 66.5409 15.4062 66.1942 16.1653C65.9388 16.7053 65.3987 17.041 64.8222 17.041C64.6142 17.041 64.3989 16.9972 64.1909 16.8914ZM62.8954 19.6538C62.1401 19.2925 61.8226 18.4021 62.1729 17.6468C62.5305 16.8914 63.4209 16.5594 64.1763 16.9206C64.928 17.2709 65.2601 18.1759 64.8988 18.9313C64.6434 19.475 64.0996 19.7924 63.5413 19.7924C63.3151 19.7924 63.1034 19.745 62.8954 19.6538ZM61.6 22.4052C60.8447 22.0585 60.5272 21.1535 60.8775 20.4128C61.2351 19.6428 62.1255 19.3217 62.8809 19.6684C63.6326 20.0333 63.9646 20.9273 63.5997 21.6827C63.3443 22.241 62.8152 22.5584 62.2496 22.5584C62.0343 22.5584 61.808 22.5146 61.6 22.4052ZM60.3155 25.1712C59.5638 24.8245 59.2318 23.9159 59.593 23.1642C59.9397 22.4052 60.8447 22.0877 61.6 22.438C62.3517 22.7847 62.6692 23.6897 62.3189 24.445C62.0635 24.9887 61.5197 25.3208 60.9468 25.3208C60.7388 25.3208 60.5272 25.277 60.3155 25.1712ZM59.0201 27.9372C58.2684 27.5759 57.9473 26.6855 58.294 25.9265C58.6552 25.1712 59.5456 24.8391 60.301 25.2004C61.0563 25.547 61.3884 26.4557 61.0235 27.211C60.768 27.7547 60.228 28.0722 59.666 28.0722C59.4398 28.0722 59.2318 28.0284 59.0201 27.9372ZM57.7393 30.6886C56.9839 30.3419 56.6519 29.4333 56.9985 28.6816C57.3598 27.9189 58.2502 27.6051 59.0055 27.9518C59.7609 28.3167 60.093 29.2071 59.7426 29.9624C59.4726 30.5061 58.9289 30.8382 58.3706 30.8382C58.1589 30.8382 57.9363 30.7908 57.7393 30.6886ZM56.4439 33.4546C55.6849 33.0897 55.3564 32.1993 55.7214 31.4439C56.0607 30.6886 56.9693 30.3565 57.7211 30.7214C58.4764 31.0681 58.7939 31.9767 58.4472 32.7284C58.1918 33.2758 57.6481 33.586 57.0752 33.586C56.8635 33.586 56.6519 33.5422 56.4439 33.4546ZM55.1448 36.2169C54.3894 35.8557 54.0756 34.9507 54.4223 34.1954C54.7835 33.4546 55.6739 33.1225 56.4256 33.4728C57.1773 33.8304 57.5131 34.7245 57.1518 35.4798C56.8964 36.0381 56.3526 36.3556 55.7797 36.3556C55.5717 36.3556 55.3564 36.3118 55.1448 36.2169ZM53.864 38.972C53.1086 38.6217 52.7765 37.7131 53.1232 36.9577C53.4881 36.2023 54.3785 35.8703 55.1302 36.2352C55.8819 36.5819 56.2176 37.4905 55.871 38.2458C55.6119 38.7895 55.0718 39.1216 54.4953 39.1216C54.2873 39.1216 54.061 39.0632 53.864 38.972ZM52.5686 41.7344C51.8168 41.3731 51.4848 40.4827 51.846 39.7274C52.1927 38.972 53.094 38.6399 53.8494 38.9975C54.6047 39.3479 54.9186 40.2528 54.5755 41.0082C54.3165 41.5555 53.7727 41.8694 53.1998 41.8694C52.9882 41.8694 52.7765 41.8256 52.5686 41.7344ZM51.2695 44.4858C50.5178 44.1391 50.2003 43.2341 50.5506 42.4788C50.9082 41.7198 51.7986 41.4023 52.554 41.7489C53.3093 42.1139 53.6377 43.0042 53.2765 43.7596C53.0174 44.3179 52.4773 44.639 51.9044 44.639C51.6928 44.639 51.4848 44.5916 51.2695 44.4858ZM49.9923 47.2518C49.2223 46.8869 48.9049 45.9965 49.2515 45.2411C49.6128 44.4858 50.4995 44.1537 51.2549 44.5186C52.0102 44.8653 52.3423 45.7702 51.981 46.5292C51.722 47.0693 51.1819 47.3868 50.6236 47.3868C50.4083 47.3868 50.1894 47.3393 49.9923 47.2518ZM48.6932 50.0032C47.9415 49.6565 47.6095 48.7625 47.9671 47.9925C48.3174 47.2372 49.2223 46.916 49.9741 47.2664C50.7294 47.6276 51.0469 48.5216 50.7002 49.277C50.4448 49.8353 49.8974 50.1528 49.3282 50.1528C49.1165 50.1528 48.9049 50.109 48.6932 50.0032ZM47.3942 52.7692C46.6424 52.4189 46.3286 51.5102 46.6716 50.7585C47.0365 50.0032 47.9269 49.6857 48.6786 50.0324C49.434 50.3973 49.7624 51.284 49.4011 52.0394C49.1421 52.5831 48.602 52.9188 48.0437 52.9188C47.8211 52.9188 47.6095 52.8604 47.3942 52.7692ZM46.117 55.5315C45.347 55.1703 45.0332 54.2799 45.3762 53.5245C45.7375 52.7692 46.6278 52.4371 47.3832 52.7984C48.1349 53.1487 48.467 54.05 48.1203 54.7908C47.8466 55.3527 47.3066 55.6702 46.7483 55.6702C46.5403 55.6702 46.3104 55.6228 46.117 55.5315ZM44.8179 58.2829C44.0662 57.9399 43.7305 57.0276 44.0954 56.2759C44.4421 55.5206 45.347 55.1995 46.0987 55.5461C46.8541 55.911 47.1716 56.8014 46.8249 57.5568C46.5658 58.1187 46.0294 58.4362 45.4528 58.4362C45.2412 58.4362 45.0332 58.3888 44.8179 58.2829ZM43.5225 61.0489C42.7708 60.684 42.4533 59.7936 42.8 59.0383C43.1649 58.2829 44.0516 57.9509 44.8033 58.3158C45.5587 58.6624 45.8871 59.5711 45.5295 60.3228C45.2704 60.8665 44.7267 61.1839 44.172 61.1839C43.9458 61.1839 43.7305 61.1402 43.5225 61.0489ZM42.2271 63.8149C41.4863 63.4537 41.1579 62.5451 41.5045 61.8006C41.8622 61.0489 42.7562 60.7169 43.5079 61.0781C44.2632 61.4248 44.5917 62.3188 44.245 63.0742C43.9859 63.6325 43.4313 63.95 42.8729 63.95C42.6649 63.95 42.4387 63.9062 42.2271 63.8149Z" fill="#DEDDDE"/>
<path d="M69.9929 5.99177C69.6025 5.99177 69.2084 5.84581 68.9237 5.55753C68.6537 5.26926 68.4858 4.87516 68.4858 4.4847C68.4858 4.0906 68.6537 3.6965 68.9237 3.42647C69.4966 2.84992 70.5074 2.86451 71.0657 3.42647C71.3358 3.6965 71.5 4.0906 71.5 4.4847C71.5 4.8934 71.3358 5.26926 71.0657 5.55753C70.7775 5.84581 70.3834 5.99177 69.9929 5.99177Z" fill="#DEDDDE"/>
<path d="M102.525 72.2338C102.93 72.2338 103.306 72.0696 103.597 71.7813C103.868 71.5076 104.032 71.1135 104.032 70.7194C104.032 70.3144 103.868 69.9203 103.579 69.6502C103.05 69.0883 102.014 69.0883 101.452 69.6502C101.182 69.9349 101.018 70.3144 101.018 70.7194C101.018 71.1135 101.182 71.5076 101.452 71.7813C101.74 72.0696 102.134 72.2338 102.525 72.2338Z" fill="#DEDDDE"/>
<path d="M99.9445 66.7161C99.3752 66.7161 98.8279 66.384 98.5724 65.8403C98.2294 65.085 98.5469 64.1763 99.2986 63.8297C100.05 63.4867 100.955 63.7968 101.302 64.5522C101.667 65.3075 101.331 66.2162 100.579 66.5665C100.368 66.6687 100.156 66.7161 99.9445 66.7161ZM101.229 69.4639C100.671 69.4639 100.131 69.1537 99.8715 68.6063C99.5102 67.8473 99.8387 66.9423 100.594 66.592C101.346 66.2344 102.24 66.5665 102.597 67.3218C102.944 68.0772 102.63 68.9639 101.878 69.3325C101.667 69.4201 101.452 69.4639 101.229 69.4639Z" fill="#DEDDDE"/>
<path d="M72.8245 8.76127C72.2553 8.76127 71.7152 8.44015 71.4561 7.88549C71.1095 7.12648 71.4233 6.2361 72.1787 5.8712C72.9304 5.52453 73.8353 5.84565 74.182 6.61196C74.5433 7.35637 74.2112 8.26134 73.4595 8.60801C73.2478 8.71748 73.0398 8.76127 72.8245 8.76127ZM74.109 11.5127C73.5507 11.5127 73.007 11.1916 72.7516 10.6515C72.3903 9.89248 72.7224 8.99846 73.4777 8.64085C74.2331 8.29054 75.1198 8.60801 75.4811 9.36337C75.8277 10.1187 75.5103 11.0127 74.7585 11.374C74.5433 11.4689 74.317 11.5127 74.109 11.5127ZM75.4044 14.275C74.8498 14.275 74.3024 13.9576 74.0324 13.4138C73.6857 12.6439 74.0178 11.7499 74.7585 11.4032C75.5249 11.0383 76.4152 11.374 76.7765 12.1294C77.1232 12.8884 76.7911 13.7788 76.054 14.14C75.8387 14.2312 75.6161 14.275 75.4044 14.275ZM76.6999 17.041C76.127 17.041 75.5832 16.7053 75.3278 16.1653C74.9848 15.4062 75.2986 14.5195 76.054 14.1546C76.8057 13.8079 77.7107 14.1254 78.0573 14.8808C78.4186 15.6398 78.0865 16.5411 77.3312 16.8914C77.1232 16.9972 76.9115 17.041 76.6999 17.041ZM77.9807 19.7924C77.4224 19.7924 76.8823 19.475 76.6269 18.9313C76.2656 18.1759 76.594 17.2709 77.3457 16.9206C78.1011 16.5594 78.9915 16.8914 79.3527 17.6468C79.6994 18.4021 79.3856 19.2925 78.6339 19.6538C78.4186 19.745 78.2069 19.7924 77.9807 19.7924ZM79.2798 22.5584C78.7032 22.5584 78.1777 22.241 77.9223 21.6827C77.561 20.9273 77.8931 20.0333 78.6448 19.6684C79.4002 19.3217 80.2869 19.6428 80.6482 20.4128C80.9985 21.1535 80.681 22.0585 79.9293 22.4052C79.7176 22.5146 79.4878 22.5584 79.2798 22.5584ZM80.5752 25.3208C80.0059 25.3208 79.4586 24.9887 79.2031 24.445C78.8565 23.6897 79.1739 22.7847 79.9293 22.438C80.681 22.0877 81.586 22.4052 81.9326 23.1642C82.2975 23.9159 81.9618 24.8245 81.2101 25.1712C80.9985 25.277 80.7868 25.3208 80.5752 25.3208ZM81.856 28.0722C81.3014 28.0722 80.7576 27.7547 80.5022 27.211C80.1409 26.4557 80.4694 25.547 81.2211 25.2004C81.9764 24.8391 82.8632 25.1712 83.2281 25.9265C83.5747 26.6855 83.2573 27.5759 82.5055 27.9372C82.2975 28.0284 82.0823 28.0722 81.856 28.0722ZM83.1551 30.8382C82.5968 30.8382 82.0531 30.5061 81.783 29.9624C81.4364 29.2071 81.7648 28.3167 82.5201 27.9518C83.2755 27.6051 84.1659 27.9189 84.5271 28.6816C84.8701 29.4333 84.5417 30.3419 83.79 30.6886C83.5893 30.7908 83.3631 30.8382 83.1551 30.8382ZM84.4505 33.586C83.874 33.586 83.3339 33.2758 83.0785 32.7284C82.7281 31.9767 83.0493 31.0681 83.801 30.7214C84.5563 30.3565 85.4613 30.6886 85.808 31.4439C86.1692 32.1993 85.8372 33.0897 85.0818 33.4546C84.8701 33.5422 84.6622 33.586 84.4505 33.586ZM85.7459 36.3556C85.173 36.3556 84.6293 36.0381 84.3739 35.4798C84.009 34.7245 84.3447 33.8304 85.0964 33.4728C85.8481 33.1225 86.7421 33.4546 87.1034 34.1954C87.45 34.9507 87.1326 35.8557 86.3772 36.2169C86.1692 36.3118 85.9576 36.3556 85.7459 36.3556ZM87.0268 39.1216C86.4539 39.1216 85.9138 38.7895 85.6584 38.2458C85.308 37.4905 85.6401 36.5819 86.3918 36.2352C87.1472 35.8703 88.0376 36.2023 88.3988 36.9577C88.7491 37.7131 88.4171 38.6217 87.6617 38.972C87.4646 39.0632 87.2384 39.1216 87.0268 39.1216ZM88.3258 41.8694C87.7493 41.8694 87.2092 41.5555 86.9538 41.0082C86.6035 40.2528 86.9246 39.3479 87.6763 38.9975C88.4317 38.6399 89.3366 38.972 89.6833 39.7274C90.0409 40.4827 89.7125 41.3731 88.9571 41.7344C88.7491 41.8256 88.5338 41.8694 88.3258 41.8694ZM89.6213 44.639C89.0483 44.639 88.5046 44.3179 88.2492 43.7596C87.8879 43.0042 88.22 42.1139 88.9717 41.7489C89.7271 41.4023 90.6175 41.7198 90.9751 42.4788C91.3254 43.2341 91.0079 44.1391 90.2525 44.4858C90.0409 44.5916 89.8329 44.639 89.6213 44.639ZM90.9021 47.3868C90.3438 47.3868 89.8037 47.0693 89.5483 46.5292C89.1834 45.7702 89.5118 44.8653 90.2671 44.5186C91.0225 44.1537 91.9129 44.4858 92.2705 45.2411C92.6208 45.9965 92.3033 46.8869 91.5334 47.2518C91.34 47.3393 91.1137 47.3868 90.9021 47.3868ZM92.2012 50.1528C91.6246 50.1528 91.0845 49.8353 90.8291 49.277C90.4788 48.5216 90.7963 47.6276 91.548 47.2664C92.3033 46.916 93.2083 47.2372 93.5513 47.9925C93.9162 48.7625 93.5842 49.6565 92.8324 50.0032C92.6208 50.109 92.4091 50.1528 92.2012 50.1528ZM93.482 52.9188C92.92 52.9188 92.3763 52.5831 92.1209 52.0394C91.7596 51.284 92.0917 50.3973 92.847 50.0324C93.6024 49.6857 94.4891 50.0032 94.854 50.7585C95.2007 51.5102 94.8796 52.4189 94.1279 52.7692C93.9162 52.8604 93.7082 52.9188 93.482 52.9188ZM94.7774 55.6702C94.2191 55.6702 93.6754 55.3527 93.4053 54.7908C93.055 54.05 93.3871 53.1487 94.1425 52.7984C94.8942 52.4371 95.7845 52.7692 96.1495 53.5245C96.4925 54.2799 96.1786 55.1703 95.4087 55.5315C95.2116 55.6228 94.9854 55.6702 94.7774 55.6702ZM96.0728 58.4362C95.4963 58.4362 94.9562 58.1187 94.7008 57.5568C94.3541 56.8014 94.6679 55.911 95.4233 55.5461C96.1786 55.1995 97.0836 55.5206 97.4303 56.2759C97.7879 57.0276 97.4631 57.9399 96.7041 58.2829C96.4925 58.3888 96.2845 58.4362 96.0728 58.4362ZM97.3537 61.1839C96.7917 61.1839 96.2516 60.8665 95.9962 60.3228C95.6349 59.5711 95.9707 58.6624 96.7224 58.3158C97.4741 57.9509 98.3644 58.2829 98.7257 59.0383C99.0687 59.7936 98.7549 60.684 98.0032 61.0489C97.7879 61.1402 97.5762 61.1839 97.3537 61.1839ZM98.6491 63.95C98.0944 63.95 97.5325 63.6325 97.277 63.0742C96.9304 62.3188 97.2661 61.4248 98.0178 61.0781C98.7695 60.7169 99.6562 61.0489 100.021 61.8006C100.368 62.5451 100.039 63.4537 99.2986 63.8149C99.087 63.9062 98.8607 63.95 98.6491 63.95Z" fill="#DEDDDE"/>
<path d="M71.529 5.99177C71.9231 5.99177 72.3136 5.84581 72.6019 5.55753C72.8719 5.26926 73.0398 4.87516 73.0398 4.4847C73.0398 4.0906 72.8719 3.6965 72.6019 3.42647C72.0253 2.84992 71.0182 2.86451 70.4599 3.42647C70.1862 3.6965 70.022 4.0906 70.022 4.4847C70.022 4.8934 70.1862 5.26926 70.4599 5.55753C70.7445 5.84581 71.1386 5.99177 71.529 5.99177Z" fill="#DEDDDE"/>
<mask id="mask1_6_4949" style="mask-type:luminance" maskUnits="userSpaceOnUse" x="67" y="0" width="8" height="8">
<path d="M67.0264 0H74.4997V7.00623H67.0264V0Z" fill="white"/>
</mask>
<g mask="url(#mask1_6_4949)">
<path d="M74.1894 3.42632C74.1894 5.32385 72.6531 6.86011 70.7629 6.86011C68.869 6.86011 67.3364 5.32385 67.3364 3.42632C67.3364 1.5288 68.869 -0.0111084 70.7629 -0.0111084C72.6531 -0.0111084 74.1894 1.5288 74.1894 3.42632Z" fill="#ABAAAA"/>
</g>
<path d="M72.8354 2.7659H71.4159V1.35006C71.4159 0.9888 71.1276 0.689575 70.7627 0.689575C70.3978 0.689575 70.1059 0.9888 70.1059 1.35006V2.7659H68.6937C68.3251 2.7659 68.0332 3.06148 68.0332 3.42638C68.0332 3.79129 68.3251 4.08322 68.6937 4.08322H70.1059V5.50271C70.1059 5.86762 70.3978 6.15955 70.7627 6.15955C71.1276 6.15955 71.4159 5.86762 71.4159 5.50271V4.08322H72.8354C73.1967 4.08322 73.4922 3.79129 73.4922 3.42638C73.4922 3.06148 73.1967 2.7659 72.8354 2.7659Z" fill="white"/>
<path d="M64.271 124.375C64.0958 124.835 63.7565 125.287 63.2274 125.744C59.3849 129.013 56.3452 132.451 51.6269 134.505C46.5182 136.731 40.2819 139.544 34.8485 140.723C29.6084 141.858 29.8237 136.902 29.2508 132.969C28.1488 125.459 26.0615 118.642 24.3209 111.337C23.0327 105.936 22.8904 97.1384 31.006 98.5433C37.3554 99.6453 42.0809 105.265 46.9926 109.013C50.3425 111.574 53.8273 113.953 57.1516 116.552C59.2061 118.161 65.4898 121.259 64.271 124.375Z" fill="#5A5651"/>
<path d="M59.9833 125.017C59.8482 125.368 59.5891 125.718 59.1805 126.065C56.2211 128.583 53.8893 131.221 50.2585 132.808C46.332 134.52 41.5335 136.68 37.3553 137.585C33.3304 138.461 33.4946 134.651 33.0494 131.626C32.2065 125.846 30.5972 120.609 29.2617 114.993C28.2691 110.833 28.1633 104.072 34.4032 105.155C39.2857 105.998 42.9202 110.323 46.6933 113.205C49.2732 115.172 51.948 117.004 54.506 119C56.0933 120.237 60.9138 122.616 59.9833 125.017Z" fill="#F7918A"/>
<path d="M40.7015 134.801C36.5197 134.574 35.903 129.59 35.8409 126.265C35.7862 123.302 35.5928 120.595 34.3886 117.851C33.6515 116.161 32.7392 114.362 32.8305 112.465C32.9618 109.487 34.9104 105.754 38.3807 106.655C37.1364 105.944 35.8227 105.396 34.4032 105.155C28.1633 104.072 28.2691 110.833 29.2617 114.993C30.5972 120.609 32.2065 125.846 33.0494 131.626C33.4946 134.651 33.3304 138.461 37.3553 137.585C40.0812 136.994 43.0698 135.87 45.9088 134.68C44.1645 134.574 42.4385 134.888 40.7015 134.801Z" fill="#E4857F"/>
<path d="M78.3603 124.375C78.5355 124.835 78.8712 125.287 79.4003 125.744C83.2501 129.013 86.2861 132.451 91.0044 134.505C96.1131 136.731 102.349 139.544 107.783 140.723C113.019 141.858 112.804 136.902 113.381 132.969C114.483 125.459 116.573 118.642 118.314 111.337C119.599 105.936 119.741 97.1384 111.625 98.5433C105.272 99.6453 100.55 105.265 95.6387 109.013C92.2889 111.574 88.804 113.953 85.4833 116.552C83.4216 118.161 77.1452 121.259 78.3603 124.375Z" fill="#5A5651"/>
<path d="M82.6517 125.017C82.7831 125.368 83.0385 125.718 83.4472 126.065C86.4103 128.583 88.742 131.221 92.3729 132.808C96.3029 134.52 101.098 136.68 105.272 137.585C109.301 138.461 109.137 134.651 109.578 131.626C110.425 125.846 112.034 120.609 113.366 114.993C114.362 110.833 114.468 104.072 108.224 105.155C103.346 105.998 99.7112 110.323 95.938 113.205C93.3618 115.172 90.6797 117.004 88.1253 119C86.5416 120.237 81.7175 122.616 82.6517 125.017Z" fill="#F7918A"/>
<path d="M101.93 134.801C106.115 134.574 106.728 129.59 106.794 126.265C106.845 123.302 107.042 120.595 108.243 117.851C108.98 116.161 109.889 114.362 109.805 112.465C109.67 109.487 107.721 105.754 104.254 106.655C105.495 105.944 106.809 105.396 108.225 105.155C114.468 104.072 114.362 110.833 113.366 114.993C112.034 120.609 110.425 125.846 109.578 131.626C109.137 134.651 109.301 138.461 105.272 137.585C102.55 136.994 99.558 135.87 96.7227 134.68C98.4596 134.574 100.193 134.888 101.93 134.801Z" fill="#E4857F"/>
<path d="M118.029 155.867C118.029 177.623 97.1166 195.259 71.3139 195.259C45.5149 195.259 24.6021 177.623 24.6021 155.867C24.6021 134.115 45.5149 116.479 71.3139 116.479C97.1166 116.479 118.029 134.115 118.029 155.867Z" fill="#EEEBDC"/>
<path d="M31.8674 175.962C37.3008 175.867 41.3112 173.652 44.4932 169.292C47.3139 165.431 49.7588 161.322 53.1014 157.874C57.2504 153.593 62.5415 149.871 65.6214 144.675C68.745 139.42 68.869 133.899 69.1464 127.962C69.1683 127.4 69.701 127.149 70.1791 127.364C74.1383 129.137 74.2405 135.633 75.2805 139.191C76.1854 142.267 78.1122 145.084 79.7542 147.813C81.8196 151.258 83.9981 154.695 86.7386 157.648C89.0849 160.173 90.2089 163.69 92.7048 166.062C95.1169 168.343 98.2952 169.19 101.47 169.865C104.013 170.412 106.571 170.974 109.129 171.448C110.512 171.7 112.238 172.065 113.902 172.08C116.555 167.135 118.029 161.647 118.029 155.867C118.029 134.115 97.1166 116.479 71.3139 116.479C45.5149 116.479 24.6021 134.115 24.6021 155.867C24.6021 163.322 27.0615 170.299 31.3273 176.24C31.4404 176.083 31.6156 175.962 31.8674 175.962Z" fill="#5A5651"/>
<path d="M55.539 151.623C54.8785 151.623 54.2107 151.484 53.5685 151.192C52.9883 150.926 52.4847 150.557 52.076 150.119C51.9264 149.984 51.6126 149.671 51.3389 149.185C50.5397 147.766 49.4888 145.23 49.9376 144.237C50.3755 143.27 52.8715 142.471 54.4698 142.139C54.9186 142.044 55.3054 142.022 55.5499 142.022C55.7251 142.022 55.8272 142.033 55.8272 142.033H55.8236C56.4001 142.07 56.984 142.205 57.546 142.464C58.6334 142.96 59.4471 143.817 59.9069 144.836C60.6769 146.277 61.5563 148.463 61.144 149.364C60.6915 150.357 58.097 151.221 56.4914 151.55C56.214 151.601 55.9586 151.619 55.7506 151.619C55.7287 151.619 55.7068 151.619 55.6886 151.619C55.6375 151.623 55.5864 151.623 55.539 151.623Z" fill="#4B4742"/>
<path d="M59.3197 145.098C58.922 144.222 58.2177 143.478 57.2763 143.044C56.7909 142.825 56.2837 142.704 55.7874 142.683V142.675C55.7874 142.675 55.2875 142.62 54.6124 142.766C53.2294 143.055 51.0692 143.752 50.6897 144.584C50.2992 145.441 51.2078 147.634 51.9048 148.868C52.1384 149.287 52.412 149.561 52.5361 149.674C52.8974 150.057 53.3316 150.375 53.8352 150.605C54.4263 150.875 55.0576 150.991 55.6707 150.977C55.8531 150.977 56.0976 150.962 56.3676 150.911C57.7506 150.627 59.9985 149.882 60.3926 149.017C60.7465 148.236 59.9875 146.35 59.3197 145.098Z" fill="black"/>
<path d="M58.9691 145.441C58.9691 146.704 57.951 147.726 56.6921 147.726C55.4331 147.726 54.415 146.704 54.415 145.441C54.415 144.182 55.4331 143.164 56.6921 143.164C57.951 143.164 58.9691 144.182 58.9691 145.441Z" fill="white"/>
<path d="M55.5026 148.175C55.5026 148.583 55.1742 148.912 54.7691 148.912C54.3677 148.912 54.0356 148.583 54.0356 148.175C54.0356 147.769 54.3677 147.441 54.7691 147.441C55.1742 147.441 55.5026 147.769 55.5026 148.175Z" fill="white"/>
<path d="M87.0999 151.623C87.0488 151.623 86.9977 151.623 86.9502 151.619C86.9283 151.619 86.9064 151.619 86.8846 151.619C86.6766 151.619 86.4248 151.601 86.1474 151.55C84.5382 151.221 81.9437 150.357 81.4912 149.364C81.0825 148.463 81.9583 146.277 82.7283 144.836C83.188 143.817 84.0018 142.96 85.0929 142.464C85.6512 142.205 86.235 142.07 86.8079 142.033C86.8079 142.033 86.9137 142.022 87.0853 142.022C87.3297 142.022 87.7129 142.044 88.169 142.139C89.7637 142.471 92.2596 143.27 92.6975 144.237C93.15 145.23 92.0991 147.766 91.2963 149.185C91.0226 149.671 90.7088 149.984 90.5628 150.119C90.1505 150.557 89.6469 150.926 89.0631 151.192C88.4281 151.484 87.7603 151.623 87.0999 151.623Z" fill="#4B4742"/>
<path d="M83.3123 145.098C83.7174 144.222 84.418 143.478 85.3631 143.044C85.8448 142.825 86.352 142.704 86.8519 142.683V142.675C86.8519 142.675 87.3519 142.62 88.027 142.766C89.4063 143.055 91.5666 143.752 91.9497 144.584C92.3365 145.441 91.4279 147.634 90.7346 148.868C90.501 149.287 90.2237 149.561 90.096 149.674C89.742 150.057 89.3078 150.375 88.8006 150.605C88.2094 150.875 87.5818 150.991 86.9651 150.977C86.779 150.977 86.5418 150.962 86.2717 150.911C84.8851 150.627 82.6373 149.882 82.2468 149.017C81.8928 148.236 82.6519 146.35 83.3123 145.098Z" fill="black"/>
<path d="M83.666 145.441C83.666 146.704 84.6841 147.726 85.943 147.726C87.202 147.726 88.2237 146.704 88.2237 145.441C88.2237 144.182 87.202 143.164 85.943 143.164C84.6841 143.164 83.666 144.182 83.666 145.441Z" fill="white"/>
<path d="M87.1362 148.175C87.1362 148.583 87.4646 148.912 87.8697 148.912C88.2711 148.912 88.5995 148.583 88.5995 148.175C88.5995 147.769 88.2711 147.441 87.8697 147.441C87.4646 147.441 87.1362 147.769 87.1362 148.175Z" fill="white"/>
<path d="M81.6116 163.786L107.312 157.491L107.188 156.991L81.4912 163.286" fill="#DEDBCD"/>
<path d="M107.312 173.744L81.6116 167.453L81.4912 167.953L107.188 174.244" fill="#DEDBCD"/>
<path d="M81.5532 165.803H106.279V165.289H81.5532V165.803Z" fill="#DEDBCD"/>
<path d="M61.1475 163.286L35.4507 156.991L35.3267 157.491L61.0271 163.786" fill="#DEDBCD"/>
<path d="M35.4507 174.244L61.1475 167.953L61.0271 167.453L35.3267 173.744" fill="#DEDBCD"/>
<path d="M36.3594 165.803H61.0892V165.289H36.3594V165.803Z" fill="#DEDBCD"/>
<path d="M77.3895 159.337C77.3895 158.224 76.7108 157.918 75.6087 157.881C74.5104 157.852 72.9887 158.096 71.3138 158.096C69.6388 158.096 68.1208 157.852 67.0188 157.881C65.9204 157.918 65.2417 158.224 65.2417 159.337C65.2417 161.468 68.7047 165.409 71.0109 165.938C71.1313 165.982 71.2298 166.004 71.3138 165.993H71.3174C71.3977 166.004 71.4999 165.982 71.6239 165.938C73.9265 165.409 77.3895 161.468 77.3895 159.337Z" fill="black"/>
<path d="M71.314 171.029C70.752 171.029 70.2886 170.569 70.2886 169.996V165.53C70.2886 164.96 70.752 164.5 71.314 164.5C71.8832 164.5 72.343 164.96 72.343 165.53V169.996C72.343 170.569 71.8832 171.029 71.314 171.029Z" fill="black"/>
<path d="M68.8179 172.189C68.7668 172.189 68.7157 172.189 68.6646 172.186C66.851 172.12 65.6541 170.832 65.5228 170.686C65.1469 170.263 65.1797 169.609 65.603 169.233C66.0227 168.858 66.6722 168.89 67.0481 169.31C67.07 169.332 67.8034 170.102 68.7595 170.131C69.3652 170.142 69.9856 169.857 70.6023 169.259C71.011 168.865 71.6605 168.88 72.051 169.285C72.4451 169.69 72.4378 170.343 72.0254 170.737C71.0329 171.7 69.9527 172.189 68.8179 172.189Z" fill="black"/>
<path d="M73.8462 172.189C73.7951 172.189 73.744 172.189 73.6929 172.186C71.8793 172.12 70.6788 170.832 70.5511 170.686C70.1752 170.263 70.2081 169.609 70.6314 169.233C71.051 168.858 71.6969 168.89 72.0764 169.31C72.1019 169.336 72.8281 170.102 73.7878 170.131C74.3936 170.142 75.0103 169.857 75.6269 169.259C76.0356 168.865 76.6888 168.88 77.0793 169.285C77.4734 169.69 77.4624 170.343 77.0537 170.737C76.0612 171.7 74.9774 172.189 73.8462 172.189Z" fill="black"/>
</svg>
