<svg width="191" height="150" viewBox="0 0 191 150" fill="none" xmlns="http://www.w3.org/2000/svg">
<path d="M180.325 134.281C179.549 131.505 178.413 128.75 176.382 126.646C173.663 123.823 169.611 122.531 165.695 122.615C161.778 122.698 157.976 124.036 154.491 125.833C153.096 126.557 151.71 127.38 150.669 128.568C150.518 128.734 150.299 128.599 150.21 128.807C150.07 129.141 150.158 129.833 150.231 130.188C150.58 131.776 152.09 132.792 153.471 133.641C154.778 134.438 156.08 135.24 157.382 136.036C158.965 137.01 160.554 137.984 162.205 138.833C165.09 140.318 168.163 141.422 171.278 142.323C174.278 143.193 177.601 143.859 180.429 142.542C180.752 142.396 181.075 142.208 181.262 141.911C181.835 141.01 181.268 139.375 181.205 138.365C181.127 136.995 180.695 135.599 180.325 134.281Z" fill="#F03F2C"/>
<mask id="mask0_283_107530" style="mask-type:luminance" maskUnits="userSpaceOnUse" x="153" y="107" width="27" height="43">
<path d="M153.085 107.682H179.408V149.943H153.085V107.682Z" fill="white"/>
</mask>
<g mask="url(#mask0_283_107530)">
<path d="M165.007 109.792C163.653 111.151 162.908 112.99 162.199 114.781C159.574 121.391 156.949 128 154.324 134.609C153.705 136.167 153.074 137.781 153.147 139.453C153.21 140.964 153.845 142.401 154.679 143.662C157.345 147.703 162.22 150.172 167.054 149.927C168.335 149.859 169.663 149.589 170.689 148.813C172.179 147.677 172.741 145.724 173.215 143.912C175.33 135.787 183.455 118.073 176.752 110.578C173.819 107.297 168.106 106.672 165.007 109.792Z" fill="#F9A986"/>
</g>
<mask id="mask1_283_107530" style="mask-type:luminance" maskUnits="userSpaceOnUse" x="156" y="118" width="25" height="32">
<path d="M156.512 118.099H180.512V149.943H156.512V118.099Z" fill="white"/>
</mask>
<g mask="url(#mask1_283_107530)">
<path d="M160.834 119.99C160.512 120.13 160.194 120.276 159.881 120.438C158.824 123.099 157.767 125.761 156.709 128.422C156.751 128.417 156.788 128.417 156.824 128.417C158.288 128.349 159.673 128.802 161.027 129.318C163.506 130.261 166.012 131.344 167.928 133.188C170.131 135.302 171.387 138.333 171.527 141.391C171.652 144.214 170.85 147.047 169.413 149.484C169.84 149.323 170.246 149.109 170.616 148.828C172.105 147.698 172.668 145.745 173.142 143.927C174.564 138.458 178.715 128.641 179.225 120.521C178.782 120.349 178.334 120.193 177.892 120.042C172.376 118.219 166.189 117.729 160.834 119.99Z" fill="#F78F75"/>
</g>
<mask id="mask2_283_107530" style="mask-type:luminance" maskUnits="userSpaceOnUse" x="150" y="62" width="41" height="80">
<path d="M150.168 62.2866H190.47V141.141H150.168V62.2866Z" fill="white"/>
</mask>
<g mask="url(#mask2_283_107530)">
<path d="M184.897 68.4482C180.418 62.6774 171.887 60.8284 165.095 63.4847C162.053 64.6722 159.871 66.7294 158.793 69.8024C157.569 73.2659 159.444 76.094 160.762 79.318C164.064 87.4117 163.616 96.6565 161.194 105.063C158.772 113.464 154.501 121.193 150.209 128.808C152.131 128.443 154.032 127.917 155.98 127.714C171.157 126.125 181.475 141.36 181.527 141.073C182.621 135.209 183.293 128.787 184.584 124.766C185.683 121.349 185.6 117.318 186.876 113.959C190.892 103.36 191.262 91.6097 189.361 80.4326C188.642 76.1826 187.538 71.8492 184.897 68.4482Z" fill="#F3623F"/>
</g>
<path d="M171.793 70.5575C168.913 69.3543 164.574 69.4533 163.288 66.6043C162.985 65.9429 162.928 65.1877 163.084 64.4741C161.084 65.7033 159.616 67.4533 158.793 69.8022C157.569 73.2658 159.444 76.0991 160.761 79.3179C161.329 80.7137 161.788 82.1512 162.142 83.6095C164.001 85.5262 165.798 87.5054 167.517 89.547C168.423 90.6252 169.47 91.8075 170.871 91.896C171.704 91.9533 172.511 91.5991 173.23 91.172C176.892 89.0054 179.163 84.672 178.866 80.422C178.574 76.1668 175.72 72.1929 171.793 70.5575Z" fill="#F25137"/>
<path d="M172.428 75.9584C170.939 74.9324 169.22 74.2865 167.486 73.7605C165.845 73.2657 164.168 72.8751 162.48 72.5782C161.621 72.4272 160.704 72.3074 159.908 72.6511C158.043 73.448 158.449 77.1668 159.491 78.4636C161.777 81.3282 165.923 82.0001 168.548 84.5574C171.329 87.2657 171.861 91.4845 172.236 95.3543C172.298 92.7136 173.548 90.2761 174.585 87.8438C175.621 85.4168 176.465 82.698 175.699 80.172C175.168 78.4376 173.918 76.9897 172.428 75.9584Z" fill="#F03F2C"/>
<path d="M181.716 67.9115C179.705 65.7969 176.997 64.25 174.101 63.8073C172.908 63.6198 166.83 63.2969 168.158 66.0469C168.455 66.6562 169.096 67.0208 169.737 67.224C171.028 67.6354 172.424 67.5521 173.763 67.7604C176.95 68.2552 179.716 70.4427 181.419 73.1875C183.122 75.9323 183.862 79.1823 184.08 82.4115C184.205 84.1979 184.184 86.0208 184.71 87.7292C184.872 88.2604 185.096 88.7917 185.502 89.1667C185.903 89.5417 186.523 89.7344 187.023 89.5C187.684 89.2031 187.877 88.3646 187.945 87.6406C188.19 84.9687 187.846 82.2708 187.278 79.651C186.346 75.3646 184.737 71.0885 181.716 67.9115Z" fill="#F46F42"/>
<path d="M38.4492 127.682C37.4544 126.458 36.1002 125.583 34.7304 124.807C31.319 122.87 27.5742 121.385 23.6627 121.151C19.7565 120.917 15.6575 122.042 12.8242 124.76C10.7148 126.781 9.47522 129.495 8.5898 132.234C8.16793 133.536 7.68355 134.917 7.54813 136.281C7.45438 137.292 6.81897 138.896 7.35542 139.823C7.53251 140.125 7.85022 140.323 8.16272 140.484C10.9388 141.911 14.2877 141.375 17.319 140.625C20.4648 139.844 23.5742 138.865 26.5169 137.495C28.1992 136.708 29.8242 135.797 31.444 134.885C32.7773 134.141 34.1158 133.391 35.4492 132.641C36.8606 131.849 38.4075 130.891 38.819 129.318C38.9075 128.974 39.0221 128.281 38.8971 127.943C38.819 127.729 38.5898 127.859 38.4492 127.682Z" fill="#F03F2C"/>
<path d="M27.465 113.459C26.8244 111.646 26.1525 109.776 24.8504 108.36C21.8713 105.125 16.1421 105.526 13.0848 108.688C6.09522 115.917 13.5223 133.938 15.3192 142.136C15.7202 143.969 16.2046 145.938 17.6525 147.13C18.6473 147.948 19.9598 148.266 21.2463 148.386C26.0588 148.823 31.0327 146.547 33.8504 142.61C34.7306 141.38 35.4233 139.974 35.5431 138.464C35.6786 136.797 35.1161 135.156 34.5588 133.578C32.1942 126.87 29.8296 120.167 27.465 113.459Z" fill="#F9A986"/>
<path d="M28.6214 118.719C23.361 116.245 17.1579 116.495 11.5745 118.104C11.1214 118.234 10.6735 118.375 10.2256 118.526C10.4183 126.662 14.1839 136.635 15.3923 142.156C15.7985 143.99 16.2829 145.964 17.7256 147.151C18.085 147.443 18.4808 147.672 18.9027 147.849C17.5589 145.359 16.8714 142.5 17.1058 139.682C17.361 136.63 18.736 133.656 21.0173 131.625C23.0068 129.859 25.5485 128.875 28.0693 128.026C29.4391 127.568 30.8402 127.167 32.3037 127.292C32.3402 127.297 32.3766 127.297 32.4131 127.302C31.46 124.599 30.5068 121.901 29.5537 119.198C29.2516 119.026 28.9391 118.865 28.6214 118.719Z" fill="#F78F75"/>
<path d="M30.2773 78.0782C31.7148 74.9116 33.6992 72.1564 32.6159 68.646C31.6523 65.5314 29.5534 63.3907 26.5638 62.0835C19.8763 59.1668 11.2825 60.6824 6.57942 66.2762C3.80858 69.5678 2.53775 73.8543 1.65233 78.073C-0.675792 89.172 -0.769543 100.922 2.83463 111.672C3.97525 115.078 3.73567 119.099 4.70442 122.563C5.83983 126.63 6.26171 133.073 7.12108 138.974C7.16275 139.261 18.0638 124.443 33.168 126.62C35.1055 126.901 36.9857 127.505 38.8971 127.943C34.9023 120.167 30.9388 112.276 28.845 103.787C26.7513 95.297 26.6628 86.0366 30.2773 78.0782Z" fill="#F3623F"/>
<path d="M28.5333 63.1562C28.6583 63.875 28.575 64.625 28.2469 65.276C26.851 68.0729 22.5177 67.8073 19.5906 68.8906C15.6062 70.375 12.601 74.2344 12.1427 78.474C11.6792 82.7083 13.7833 87.1302 17.3562 89.4375C18.0594 89.8906 18.851 90.276 19.6844 90.2552C21.0854 90.2188 22.1792 89.0781 23.1271 88.0365C24.9239 86.0625 26.7937 84.1563 28.726 82.3125C29.1427 80.8698 29.6531 79.4531 30.2781 78.0781C31.7156 74.9115 33.7 72.1563 32.6167 68.6458C31.8823 66.2708 30.4812 64.4583 28.5333 63.1562Z" fill="#F25137"/>
<path d="M31.3923 71.4481C30.6006 71.0731 29.684 71.1564 28.8194 71.2762C27.1215 71.5106 25.434 71.8335 23.7725 72.2658C22.0173 72.7189 20.2777 73.297 18.7517 74.2658C17.2204 75.2397 15.9131 76.6356 15.3194 78.3491C14.4496 80.8387 15.1944 83.5939 16.1319 86.0574C17.0694 88.5262 18.2256 91.0158 18.1892 93.6564C18.71 89.8022 19.4079 85.6095 22.2934 83.0106C25.0121 80.5574 29.1788 80.047 31.5798 77.2762C32.6684 76.021 33.2204 72.3231 31.3923 71.4481Z" fill="#F03F2C"/>
<path d="M30.179 105.891C30.0957 105.354 30.0488 104.807 30.054 104.266C30.0592 104.073 30.0332 103.828 29.8509 103.766C29.7102 103.714 29.5644 103.813 29.4446 103.901C28.3457 104.714 27.0123 105.203 25.6529 105.292C24.5748 105.365 24.1529 106.495 23.8821 107.411C23.6061 108.328 23.4759 109.318 23.6894 110.25C23.9186 111.255 24.5279 112.135 25.2623 112.849C26.0019 113.563 26.8665 114.125 27.7259 114.688C30.5436 116.516 33.4134 118.401 35.4602 121.068C33.9602 117.453 32.6634 113.76 31.3613 110.068C30.8821 108.698 30.3977 107.323 30.179 105.891Z" fill="#F25137"/>
<path d="M16.1423 86.0417C15.6475 85.3907 14.736 84.4949 14.4912 83.7136C15.0537 85.5261 15.6162 87.3855 15.5068 89.2761C15.4391 90.5105 15.085 91.7084 14.861 92.922C14.512 94.8542 14.512 96.849 14.8506 98.7813C14.7516 96.8907 15.611 95.0938 16.4027 93.3699C17.0589 91.9376 18.1735 89.7032 17.6631 88.073C17.4339 87.3386 16.6058 86.6511 16.1423 86.0417Z" fill="#F25137"/>
<path d="M17.5482 62.0573C14.6367 62.3854 11.8711 63.8281 9.78258 65.8594C6.64195 68.9167 4.86591 73.125 3.76695 77.375C3.10029 79.9688 2.64716 82.6511 2.793 85.3334C2.82945 86.0573 2.99091 86.9011 3.63675 87.2292C4.12633 87.4792 4.75654 87.3125 5.1732 86.9531C5.58987 86.5886 5.83466 86.0729 6.01695 85.5469C6.6107 83.8594 6.66279 82.0365 6.8555 80.2552C7.19925 77.0417 8.06383 73.8177 9.87112 71.1459C11.6836 68.4688 14.5326 66.3906 17.7357 66.0209C19.0795 65.8646 20.4701 66.0052 21.7774 65.6406C22.4284 65.4636 23.0795 65.125 23.3972 64.5261C24.8347 61.8334 18.7513 61.9167 17.5482 62.0573Z" fill="#F46F42"/>
<path d="M164.325 106.693C162.965 106.552 161.653 106.011 160.59 105.156C160.471 105.063 160.33 104.959 160.184 105C160.002 105.057 159.971 105.297 159.965 105.495C159.95 106.037 159.882 106.578 159.778 107.115C159.502 108.537 158.965 109.891 158.434 111.24C156.992 114.88 155.549 118.521 153.908 122.073C156.059 119.49 159.002 117.719 161.887 116C162.768 115.474 163.653 114.943 164.419 114.261C165.184 113.573 165.825 112.714 166.09 111.724C166.34 110.797 166.247 109.807 166.012 108.88C165.778 107.953 165.398 106.802 164.325 106.693Z" fill="#F25137"/>
<path d="M174.575 87.8283C174.09 88.4168 173.231 89.0731 172.976 89.797C172.403 91.4064 173.429 93.6877 174.028 95.1408C174.752 96.8908 175.544 98.7189 175.366 100.61C175.783 98.6929 175.861 96.6981 175.585 94.7554C175.413 93.5314 175.106 92.3231 175.08 91.0887C175.049 89.1877 175.684 87.3543 176.314 85.5679C176.044 86.3387 175.096 87.1981 174.575 87.8283Z" fill="#F25137"/>
<mask id="mask3_283_107530" style="mask-type:luminance" maskUnits="userSpaceOnUse" x="17" y="0" width="156" height="97">
<path d="M17.8457 0H172.512V96.7656H17.8457V0Z" fill="white"/>
</mask>
<g mask="url(#mask3_283_107530)">
<path d="M163.294 0H27.7782C22.7521 0 18.6792 4.08333 18.6792 9.11979V87.25C18.6792 92.2865 22.7521 96.3698 27.7782 96.3698H163.294C168.315 96.3698 172.388 92.2865 172.388 87.25V9.11979C172.388 4.08333 168.315 0 163.294 0Z" fill="#575976"/>
</g>
<path d="M158.877 6.09375H32.861C28.3402 6.09375 24.6787 9.77083 24.6787 14.3021V82.151C24.6787 86.6823 28.3402 90.3594 32.861 90.3594H158.877C163.397 90.3594 167.064 86.6823 167.064 82.151V14.3021C167.064 9.77083 163.397 6.09375 158.877 6.09375Z" fill="#626483"/>
<path d="M163.345 7.40625C163.627 8.30729 163.783 9.27604 163.783 10.2865V77.1771C163.783 81.974 160.319 85.8646 156.049 85.8646H29.1318C27.5693 85.8646 26.111 85.3385 24.8975 84.4427C25.9548 87.8229 28.8193 90.25 32.1943 90.25H159.106C163.382 90.25 166.845 86.3594 166.845 81.5625V14.6719C166.845 11.6302 165.45 8.95833 163.345 7.40625Z" fill="#717495"/>
<path d="M159.325 6.09375H32.4131C28.1423 6.09375 24.6787 9.98437 24.6787 14.7813V81.6719C24.6787 85.1667 26.5173 88.1823 29.1683 89.5573C28.3454 88.1771 27.8662 86.5208 27.8662 84.7344V17.8385C27.8662 13.0417 31.3298 9.15625 35.6006 9.15625H162.512C163.674 9.15625 164.772 9.44271 165.757 9.95833C164.371 7.625 162.007 6.09375 159.325 6.09375Z" fill="#42455A"/>
<path d="M27.5169 82.4324C27.5117 80.9324 27.4128 79.6042 26.1003 78.6824C24.5169 77.5626 22.1419 77.474 20.6992 78.8751C19.9648 79.5938 19.5378 80.5626 19.194 81.5261C18.5586 83.3074 18.1315 85.1615 17.9128 87.0417C17.5221 90.448 17.8398 93.8907 17.8815 97.323C17.9232 100.75 17.668 104.276 16.2148 107.385C17.7773 106.328 19.918 106.724 21.5898 107.594C23.2617 108.464 24.694 109.755 26.4023 110.552C26.5273 110.609 26.6628 110.667 26.793 110.635C26.9648 110.599 30.7669 110.224 30.7357 110.052C29.9961 105.912 30.819 105.365 30.9805 98.2032C31.0898 93.3438 27.5326 87.3074 27.5169 82.4324Z" fill="#F3623F"/>
<path d="M27.4445 82.4116C27.4393 80.9116 27.3404 79.5835 26.0279 78.6616C25.6008 78.3595 25.1112 78.1304 24.6008 77.9897C24.5018 78.6772 25.2102 79.6512 25.2206 80.3856C25.2362 81.4845 24.7883 82.5522 24.3456 83.5366C23.8716 84.5991 23.3456 85.672 23.2258 86.8283C22.8664 90.3127 26.1216 93.0418 27.2206 96.37C27.9498 98.5575 27.6737 101.063 26.4966 103.042C25.606 104.537 24.2102 105.818 23.9289 107.537C23.8456 108.073 23.8768 108.61 23.9966 109.141C24.7466 109.651 25.507 110.146 26.33 110.531C26.4498 110.589 26.5852 110.641 26.7206 110.615C26.8873 110.573 30.6945 110.203 30.6633 110.031C29.9237 105.891 30.7466 105.339 30.9081 98.1772C31.0175 93.3179 27.4602 87.2866 27.4445 82.4116Z" fill="#F25137"/>
<path d="M22.559 79.6928C21.0851 79.3855 20.3507 81.823 20.1319 82.8699C19.3924 86.3543 19.7049 90.047 18.559 93.4168C17.4028 96.8283 14.7621 100 15.3194 103.557C15.3611 102.037 16.1528 100.636 17.1007 99.4533C18.0486 98.271 19.1736 97.2293 20.059 95.9949C21.0538 94.6095 21.7309 92.9897 22.0174 91.3074C22.4705 88.6512 21.9809 85.823 22.9653 83.3178C23.3455 82.3387 24.3142 80.0626 22.559 79.6928Z" fill="#F46F42"/>
<path d="M172.397 99.0314C172.569 95.6043 173.022 92.1772 172.767 88.7554C172.621 86.8699 172.262 85.0054 171.7 83.1981C171.392 82.2189 171.007 81.2345 170.304 80.4897C168.913 79.0314 166.538 79.0262 164.908 80.0835C163.564 80.9585 163.413 82.2814 163.351 83.7762C163.142 88.646 159.356 94.5366 159.272 99.396C159.158 106.563 159.96 107.141 159.059 111.25C159.017 111.422 162.809 111.943 162.976 111.985C163.106 112.021 163.241 111.969 163.371 111.917C165.106 111.193 166.59 109.953 168.293 109.151C169.996 108.344 172.147 108.037 173.674 109.151C172.34 105.99 172.22 102.453 172.397 99.0314Z" fill="#F3623F"/>
<path d="M167.465 88.3385C167.393 87.1719 166.908 86.0833 166.476 85C166.07 84 165.663 82.9167 165.721 81.8177C165.762 81.0885 166.507 80.1406 166.434 79.4531C165.919 79.5729 165.424 79.7813 164.981 80.0625C163.637 80.9375 163.486 82.2604 163.424 83.7604C163.215 88.6302 159.429 94.5156 159.351 99.375C159.231 106.542 160.033 107.12 159.132 111.229C159.096 111.401 162.882 111.922 163.049 111.969C163.184 112 163.32 111.953 163.445 111.901C164.283 111.547 165.059 111.078 165.83 110.599C165.965 110.078 166.023 109.542 165.955 109C165.747 107.271 164.398 105.938 163.57 104.411C162.465 102.385 162.294 99.875 163.101 97.7135C164.33 94.4323 167.689 91.8333 167.465 88.3385Z" fill="#F25137"/>
<path d="M170.715 84.5053C170.532 83.448 169.892 80.9792 168.407 81.2344C166.642 81.5313 167.517 83.8438 167.866 84.8386C168.746 87.3803 168.152 90.1876 168.501 92.8594C168.72 94.5522 169.335 96.198 170.277 97.6199C171.111 98.8855 172.194 99.9688 173.095 101.193C173.996 102.412 174.73 103.844 174.715 105.359C175.407 101.828 172.897 98.5574 171.871 95.1042C170.855 91.6928 171.314 88.0157 170.715 84.5053Z" fill="#F46F42"/>
</svg>
