<svg width="99" height="66" viewBox="0 0 99 66" fill="none" xmlns="http://www.w3.org/2000/svg">
<mask id="mask0_292_113724" style="mask-type:luminance" maskUnits="userSpaceOnUse" x="0" y="0" width="99" height="66">
<path d="M0 0H98.849V65.6042H0V0Z" fill="white"/>
</mask>
<g mask="url(#mask0_292_113724)">
<path d="M98.6102 33.9846C98.2456 37.7659 97.2352 41.1409 95.1571 44.37C93.5581 47.068 91.7821 49.7086 89.4591 51.8544C85.1206 55.6252 80.2769 58.9586 74.9487 61.1513C73.2352 61.8336 65.1883 64.8388 55.2144 65.3232C49.881 65.5836 38.3133 65.2919 32.7508 64.3232C17.1883 61.6252 8.59456 54.0627 6.70394 52.2919C6.06331 51.693 5.52685 50.9794 5.04248 50.245C2.29769 46.2034 0.782064 41.3857 0.506021 36.4794C0.381021 34.3648 0.00602006 28.8857 2.65706 21.4846C3.3654 19.5107 4.31852 17.594 5.58415 15.8961C7.52685 13.2659 9.64665 10.7398 12.0894 8.56275C12.4123 8.29712 13.7352 7.1617 14.8237 6.44816C14.881 6.35441 14.9696 6.28149 15.0789 6.27629C17.5789 4.79191 20.1623 3.4742 22.9175 2.53149C28.381 0.656495 45.7977 0.0262866 52.0685 0.656495C58.355 1.29191 70.256 2.47941 75.5321 4.47941C81.6154 6.78149 93.1883 14.3909 97.1519 23.2398C97.8706 24.8492 98.2352 26.5992 98.4852 28.3388C98.7664 30.2034 98.855 32.1044 98.6102 33.9846Z" fill="#BD6656"/>
</g>
<path d="M90.1147 31.1562C90.3074 33.0364 89.797 35.4844 88.0782 35.4167C87.9064 35.401 87.7449 35.3698 87.5887 35.3229C87.4689 36.9114 86.7501 39.3073 84.8595 38.8229C84.7449 39.9792 84.073 42.151 82.5991 41.7344C82.4845 41.6927 82.3803 41.6354 82.2866 41.5729C81.7189 42.9062 80.7501 44.151 79.4585 43.8698C79.4272 43.8542 79.4012 43.8437 79.3699 43.8281C78.9585 45.2396 78.146 46.6302 76.922 46.5833C76.5991 46.5052 76.3803 46.3125 76.2189 46.0625C75.5366 46.9271 74.6407 47.6614 73.547 47.7135C73.1564 47.7239 72.8282 47.5833 72.5366 47.375C71.4532 48.75 69.4272 49.7864 68.073 49.2917C67.9793 49.2604 67.8907 49.2187 67.8022 49.1771C67.5001 49.6719 67.2137 50.0573 67.073 50.1614C66.4949 50.8177 65.6876 51.3437 64.7866 51.3073C64.0262 51.3073 63.4793 50.8802 63.0157 50.3542C62.073 51.5625 60.5626 52.5208 59.3022 52.1719C58.7605 52.0469 58.2762 51.7604 57.8699 51.3854C56.2762 53.0104 53.646 54.0625 51.5782 52.8437C51.2345 52.6198 50.9428 52.3281 50.6876 52.0104C49.6199 53.2135 48.0105 54.0312 46.4532 53.7292C45.9064 53.6042 45.4168 53.2969 45.021 52.901C44.021 53.4427 42.797 53.6406 41.7137 53.5989C40.2345 53.5208 39.021 53.0677 38.0835 52.1771C38.047 52.1979 38.0157 52.2187 37.9949 52.2344C37.1772 52.75 36.2085 53.0364 35.2501 52.9635C33.7866 52.9167 32.7553 51.9271 32.0157 50.7604C31.1512 51.2656 29.9741 51.4323 29.1303 51.3594C28.198 51.2812 27.5887 50.7083 27.2918 49.901C26.4532 50.0156 25.5887 49.9583 24.7762 49.7396C23.521 49.4427 22.3126 48.6823 21.7814 47.5C20.9897 47.651 20.1251 47.6458 19.698 47.5677C18.1564 47.3333 17.396 46.2031 16.9428 44.875C16.8543 44.901 16.7657 44.9219 16.6824 44.9375C15.7762 45.0729 14.823 44.6562 14.3178 43.9062C14.0835 43.5469 13.9637 43.1562 13.9168 42.7552C13.8751 42.7552 13.8387 42.7552 13.797 42.75C12.3855 42.7344 11.8543 41.8333 11.8439 40.7292C11.7085 40.7292 11.5782 40.7239 11.4585 40.7083C9.9272 40.5521 8.2397 39.2083 8.90116 37.6042C6.66679 37.2135 5.01574 35.1302 5.77616 33.1406C5.04179 32.5573 4.51574 31.7135 4.41679 30.75C4.26574 29.6042 4.45324 28.7864 5.06783 28.1875C4.33866 27.2135 4.15116 25.6875 4.72929 24.6458C4.95845 24.2604 5.27095 24.0052 5.63033 23.8281C5.27095 22.8229 5.21366 21.6823 5.43241 20.6406C5.77095 19.4114 6.83345 18.4062 8.01054 17.9844C8.19283 17.9271 8.37512 17.8906 8.56262 17.8646C8.49491 17.4479 8.49491 17.0208 8.50533 16.651C8.63554 15.0989 9.65637 14.0625 10.9116 13.7135C11.2085 12.8437 11.823 12.0729 12.672 11.7239C12.9741 11.5989 13.2814 11.5521 13.5835 11.5573C13.7657 10.776 14.2866 10.0729 14.9741 9.6354C15.4585 9.29686 15.9689 9.17186 16.4897 9.16144C16.5678 8.85415 16.698 8.55728 16.8751 8.30728C17.4012 7.6354 18.0991 7.37498 18.823 7.3854C19.1512 6.79165 19.6355 6.27082 20.1147 5.82811C21.3022 4.84894 22.0782 4.96352 22.573 5.64061C22.7866 5.35936 23.0105 5.09894 23.2241 4.84894C24.0314 3.8854 25.6512 2.84373 26.6824 3.99998C27.6772 2.89061 29.1512 1.89061 30.6407 2.36978C30.9376 2.45311 31.1876 2.60936 31.4064 2.80207C31.7293 2.58332 32.0314 2.41144 32.2137 2.35415C33.2762 1.8854 34.4064 2.04165 35.1772 2.71353C36.047 1.70311 38.0366 0.843734 38.6564 2.42186C38.6824 2.50519 38.7032 2.59373 38.7189 2.68228C38.8282 2.63019 38.9324 2.58332 39.0418 2.53123C40.1147 2.03644 41.3126 1.99998 41.7293 3.28644C41.7605 3.36457 41.7814 3.44269 41.8074 3.52082C43.2657 2.77602 45.1303 2.49998 46.4272 3.46873C46.6199 3.65623 46.7449 3.88019 46.8335 4.11978C48.5262 2.83852 51.4272 1.91665 52.6355 3.82811C52.9532 3.55728 53.271 3.33853 53.5053 3.23436C55.0262 2.55207 56.4845 3.10936 56.8855 4.28644C56.9168 4.27082 56.9532 4.25519 56.9793 4.23957C58.7762 3.40103 61.2553 3.56769 61.7345 5.10415C63.5626 3.99998 65.8074 3.48957 66.3543 4.98957C66.896 4.75519 67.4585 4.57811 68.0157 4.49998C69.9064 4.1354 72.9324 4.70311 72.6355 6.45832C74.5835 6.39582 76.7241 7.16665 76.771 8.86457C77.0314 8.79165 77.297 8.73957 77.5626 8.70832C79.047 8.5104 80.6095 9.39582 80.9272 10.8802C81.0314 11.2708 81.0314 11.6562 80.9793 12.0417C81.1824 12.0521 81.3855 12.0677 81.5574 12.0885C83.0522 12.2552 84.5887 13.4479 84.0262 14.9375C84.4741 15.0469 84.8751 15.1719 85.1251 15.2656C87.4897 16.0833 89.047 18.0989 88.0418 20.1146C88.6772 20.3073 89.2814 20.625 89.8074 21.0364C91.2657 22.1667 91.8699 23.9323 90.7085 24.8125C91.0782 25.1667 91.396 25.5781 91.6303 26.0312C92.5522 27.7396 92.521 30.9583 90.1147 31.1562ZM41.7449 53.6042C41.7345 53.6042 41.7241 53.5989 41.7137 53.5989C41.7085 53.5989 41.7032 53.5989 41.698 53.5989L41.7449 53.6042Z" fill="#F4ECE4"/>
<path d="M66.5523 54.5212C63.6304 55.0733 60.7762 55.9222 57.8648 56.4743C54.5262 57.0264 51.1356 57.1097 47.7762 57.0993C45.4064 57.0524 43.047 56.9066 40.7033 56.6514C38.495 56.4118 36.297 55.9951 34.0939 55.7868C33.9064 55.792 33.7345 55.667 33.7189 55.4639C33.7085 55.2816 33.8543 55.0889 34.047 55.0837C34.6981 55.0837 35.3439 55.2191 35.9898 55.3024C40.7762 56.0212 45.62 56.5316 50.495 56.3753C54.1512 56.2972 57.797 55.9743 61.3283 54.9691C63.0106 54.5524 64.7085 54.1878 66.4064 53.8285C66.8439 53.7399 67.021 54.4066 66.5523 54.5212ZM8.08871 41.917C7.55225 41.4118 7.14079 40.7868 6.72413 40.1774C4.86475 37.1305 3.51579 33.7191 2.95329 30.1566C2.84392 29.8076 2.98454 29.1045 2.46371 29.1201C2.28663 29.141 2.12517 29.318 2.15121 29.5055C2.55746 32.7139 3.60434 35.7764 5.06267 38.6566C5.80746 40.042 6.56267 41.5316 7.77621 42.5524C8.21371 42.766 8.53142 42.0993 8.08871 41.917ZM94.1304 27.1045C93.6825 28.6826 93.3283 30.2712 92.6981 31.7972C91.3543 34.7608 89.6564 37.5316 87.4637 39.9899C86.3439 41.2451 85.0939 42.3858 83.7606 43.4222C83.3335 43.7503 82.9012 44.0889 82.4429 44.3858C82.12 44.4951 82.146 44.9847 82.4741 45.0628C82.646 45.1149 82.8023 45.0003 82.9377 44.9066C83.3491 44.6201 83.7502 44.3233 84.146 44.0212C85.9012 42.667 87.5054 41.1253 88.896 39.4066C90.7866 37.0524 92.3439 34.4274 93.521 31.667C94.0523 30.2347 94.4116 28.7451 94.8231 27.2816C94.9377 26.8233 94.2502 26.667 94.1304 27.1045Z" fill="#87413C"/>
<path d="M68.4275 22.7863C66.2713 20.7811 63.7504 19.0728 60.8806 18.2082C58.3702 17.328 55.6983 17.0571 53.0577 16.8228C49.8494 16.5676 46.5942 16.6457 43.3806 16.9321C39.3702 17.3071 35.2765 18.1561 31.641 19.9946C30.3962 20.6249 29.1931 21.5155 28.0369 22.3176C25.9744 23.7394 24.0681 25.453 22.6983 27.5676C22.589 27.5988 22.49 27.6769 22.4431 27.7863C22.2817 28.1717 22.1619 28.578 22.0525 28.9842C21.4535 30.8071 21.4796 32.8436 22.4275 34.5155C23.5629 36.3176 25.3442 37.6301 27.0421 38.8801C28.3077 39.7342 29.7556 40.1717 31.1254 40.8592C35.8077 42.7082 40.9223 43.1665 45.964 43.2342C49.3754 43.2967 52.7869 43.078 56.1775 42.6301C60.9483 42.1561 65.9275 41.4009 69.99 38.5988C72.4848 37.0155 73.865 34.104 73.9015 31.2134C73.9119 29.7655 73.2765 28.4165 72.516 27.2238C71.3806 25.5519 69.8963 24.1613 68.4275 22.7863ZM71.8338 35.7967C70.8858 37.2967 69.3338 38.2603 67.8077 39.0936C64.9119 40.5571 61.7244 41.2863 58.5317 41.6509C54.5317 42.1457 50.5265 42.6144 46.5056 42.5311C41.5317 42.5103 36.5108 42.0884 31.8546 40.3905C30.5004 39.7967 29.1046 39.2342 27.7817 38.5259C26.2973 37.5415 24.9327 36.4009 23.714 35.0988C21.5056 32.6769 22.1358 28.8019 24.3494 26.4946C25.5369 25.0571 27.0369 23.8436 28.5681 22.7811C29.6775 22.0207 30.7765 21.203 31.9848 20.5936C34.0108 19.5467 36.1827 18.8905 38.4067 18.4061C39.9796 18.0363 41.6723 17.7603 43.3025 17.6353C46.4848 17.3488 49.6775 17.2655 52.865 17.5103C55.2452 17.729 57.6515 17.9426 59.9379 18.6457C62.5213 19.3905 64.8598 20.6196 66.891 22.3853C68.6306 23.9009 70.3754 25.4842 71.7608 27.3801C72.4483 28.4113 73.0681 29.5624 73.1775 30.8228C73.2765 32.5519 72.74 34.3071 71.8338 35.7967ZM44.7608 33.354C44.8077 33.5415 44.6879 33.7238 44.5056 33.7811C42.9744 34.3071 41.365 34.6353 39.7765 34.7082C37.5004 34.8124 34.9796 34.4686 32.9848 35.8332C32.8546 35.9582 32.6619 35.9842 32.5212 35.8749C32.0681 35.4321 32.8546 35.0728 33.1983 34.9009C35.2244 33.8488 37.5004 34.0884 39.6879 34.0155C41.2869 33.9321 42.8233 33.6249 44.3337 33.104C44.516 33.0467 44.714 33.1769 44.7608 33.354ZM59.2088 26.6874C58.5733 26.9269 57.9275 27.1509 57.2713 27.3384C56.2765 27.6092 55.266 27.8488 54.2296 27.8384C53.266 27.8332 52.3077 27.6874 51.3442 27.6196C49.2452 27.479 47.0317 27.5884 45.1306 28.578C44.964 28.5936 44.7869 28.4165 44.7869 28.2759C44.7504 27.7134 46.0629 27.4738 46.4848 27.3019C47.6358 26.9582 48.839 26.8644 50.0265 26.8801C51.6619 26.8384 53.2348 27.2082 54.8442 27.1144C56.2713 26.979 57.6098 26.5259 58.9483 26.0415C59.1306 25.9738 59.3338 26.0467 59.4067 26.229C59.4744 26.4009 59.391 26.6196 59.2088 26.6874ZM19.3546 33.2759C19.0785 33.3749 18.6358 33.4842 18.5681 33.0936C18.5369 32.9009 18.6723 32.7238 18.8598 32.6874C19.0212 32.6405 19.2712 32.6457 19.339 32.453C19.4327 31.9999 18.7296 31.9374 18.4796 32.1821C18.4379 32.229 18.3806 32.2707 18.3702 32.3384C18.3285 32.5155 18.1358 32.6561 17.9535 32.604C17.24 32.3019 18.089 31.4478 18.5681 31.3801C18.9327 31.3019 19.3285 31.3592 19.6358 31.5624C20.2712 31.979 20.1254 33.078 19.3546 33.2759ZM11.5577 26.104C11.9848 27.104 10.7608 28.2655 9.82854 27.6665C9.52125 27.4686 9.13062 26.8124 9.615 26.578C9.78166 26.5207 9.96916 26.5832 10.0473 26.7499C10.0837 26.8749 10.1046 27.0155 10.2192 27.0884C10.6619 27.2863 11.0942 26.729 10.8962 26.3176C10.7765 25.8801 11.4327 25.6769 11.5577 26.104ZM21.7192 17.5519C21.7608 15.8488 24.089 15.229 24.5317 17.0571C24.6515 17.4894 23.9952 17.6978 23.865 17.2655C23.615 16.0207 22.0942 16.8644 22.4744 17.8384C22.7452 18.0467 22.5369 18.5051 22.1983 18.4634C21.8025 18.3957 21.7556 17.8853 21.7192 17.5519ZM32.6462 14.2238C32.5942 13.9269 32.6931 13.4738 33.0004 13.3592C33.1567 13.3071 33.3442 13.3853 33.4171 13.5415C33.4744 13.6665 33.4431 13.8124 33.3546 13.9113C33.266 14.078 33.4067 14.2394 33.5681 14.2655C33.8337 14.2446 34.0004 13.9894 34.141 13.7967C34.1827 13.7394 34.1931 13.6717 34.214 13.604C34.3077 13.3384 34.6879 13.2915 34.8337 13.5311C34.9223 13.6457 34.8546 13.8019 34.9692 13.8957C35.365 14.2811 35.6202 13.5519 35.6723 13.2342C35.6827 13.0311 35.8442 12.8436 36.0629 12.8644C36.6827 12.9894 36.214 13.8592 36.0212 14.2082C35.7087 14.7446 34.9535 14.8749 34.5212 14.4374C34.1827 14.8749 33.5473 15.1457 33.0629 14.8019C32.8598 14.6717 32.6879 14.4686 32.6462 14.2238ZM41.589 9.07798C41.4796 7.66652 43.4483 6.99986 44.115 8.2759C44.3546 8.64048 44.1358 9.61965 43.5681 9.4009C43.4067 9.32277 43.3285 9.09881 43.4223 8.93735C43.4692 8.85402 43.5317 8.77069 43.5212 8.67694C43.3546 8.18735 42.641 8.16131 42.391 8.60923C42.2296 8.80715 42.339 8.97902 42.2921 9.18735C42.1462 9.56235 41.6202 9.44777 41.589 9.07798ZM58.5994 12.6978C58.3858 12.5155 58.5108 12.203 58.641 12.0051C58.9327 11.5311 59.5056 11.2655 60.0525 11.3488C60.7088 11.3957 61.2192 12.1249 60.839 12.729C60.6463 13.0051 60.2244 13.5207 59.8858 13.1717C59.766 13.0311 59.7817 12.8019 59.9275 12.6821C60.0733 12.5519 60.3285 12.3957 60.2452 12.1926C59.9588 11.8905 59.4119 12.0415 59.214 12.3905C59.1567 12.703 58.8858 12.9061 58.5994 12.6978ZM73.3285 20.4946C73.0056 20.7394 72.5473 20.7499 72.1827 20.6144C71.339 20.2655 71.4015 19.1665 72.0421 18.6457C72.2765 18.5051 72.589 18.6769 72.5785 18.9478C72.5525 19.1978 72.2869 19.3228 72.2608 19.5988C72.1723 19.9582 72.7244 20.1249 72.9535 19.9009C73.2088 19.6874 73.3285 19.1144 73.7556 19.3384C74.214 19.6717 73.6098 20.2394 73.3285 20.4946ZM85.0369 26.8644C85.0108 26.9582 84.9692 27.0363 84.8858 27.0884C84.6463 27.2707 84.2608 27.0311 84.339 26.7342C84.464 26.3696 84.5681 25.8176 84.0942 25.6665C83.839 25.6301 83.7973 26.0571 83.7921 26.2238C83.766 26.479 83.9588 26.7863 83.7296 26.9894C83.5369 27.1717 83.2556 27.0519 83.141 26.8696C82.8702 26.6665 82.4796 26.3176 82.1358 26.5207C81.9692 26.6613 81.9327 26.9009 81.9327 27.104C82.1983 27.479 81.6775 27.8801 81.365 27.5519C81.2452 27.4321 81.2244 27.2446 81.2192 27.0832C81.1775 26.0311 82.1931 25.3801 83.0994 25.9738C83.2088 24.8957 84.3806 24.5936 84.9692 25.4999C85.2608 25.9061 85.1775 26.4165 85.0369 26.8644ZM80.8077 36.5884C81.0733 36.9478 80.5994 37.2082 80.3338 37.3749C79.9327 37.6405 79.3806 37.7342 78.9848 37.4113C78.7035 37.1821 78.5577 36.7707 78.714 36.4217C78.9015 36.078 79.2973 35.6978 79.7244 35.7655C80.1515 35.8696 80.0525 36.5155 79.6098 36.4738C79.3233 36.6196 79.2608 36.9269 79.6567 36.9113C79.9119 36.8384 80.115 36.6769 80.3077 36.5311C80.4588 36.4061 80.6931 36.4374 80.8077 36.5884ZM73.5942 43.328C73.5785 43.7082 73.2504 44.4478 72.7765 44.1561C72.6254 44.0415 72.5942 43.8176 72.7088 43.6613C72.7921 43.5519 72.891 43.4321 72.8858 43.2915C72.6775 42.4999 71.5994 43.0884 71.714 43.7446C71.9588 44.078 71.5004 44.4842 71.1827 44.2342C70.8129 43.828 71.0369 43.1561 71.3181 42.7655C71.9588 41.8488 73.6046 42.1196 73.5942 43.328ZM63.4744 47.1457C63.4535 48.0259 62.4952 48.8957 61.6671 48.3176C61.2869 48.7551 60.5629 48.8749 60.1931 48.3749C59.9483 48.0832 59.7817 47.6821 59.964 47.3124C60.0421 47.1353 60.2504 47.0467 60.4275 47.1196C60.6463 47.2082 60.6827 47.4582 60.589 47.6509C60.7244 48.0832 61.0004 48.0884 61.2348 47.7186C61.2713 47.6353 61.2973 47.5519 61.3754 47.4946C61.5421 47.3801 61.7452 47.4113 61.8754 47.5571C62.2556 48.0936 62.7504 47.5936 62.766 47.0936C62.7817 46.9999 62.7088 46.9269 62.7244 46.828C62.7348 46.6249 62.9379 46.4426 63.1463 46.4999C63.4379 46.5676 63.49 46.8801 63.4744 47.1457ZM55.9952 47.5415C55.9588 47.9634 55.5994 48.4634 55.1567 48.4894C54.8598 48.4582 54.74 48.0311 54.99 47.8592C55.1098 47.7707 55.2608 47.6821 55.2869 47.5259C55.3025 47.3332 55.0473 47.3071 54.9015 47.3124C54.6515 47.3071 54.3963 47.4894 54.4796 47.7603C54.4796 48.1196 53.9744 48.2394 53.8077 47.9269C53.6619 47.6405 53.8025 47.2863 53.9744 47.0415C54.5056 46.3071 56.0421 46.5103 55.9952 47.5415ZM45.0056 48.9165C45.0369 49.2759 44.7712 49.9686 44.3129 49.7446C43.7869 49.4009 44.6931 48.9374 44.0785 48.8644L44.0733 48.8592C43.891 48.8644 43.7192 48.953 43.5942 49.0884C43.5212 49.9426 42.4223 49.6196 42.8858 48.8749C42.7921 48.2551 42.1515 48.4165 41.865 48.8176C41.8442 49.3124 41.115 49.2446 41.1515 48.7707C41.2452 48.2342 41.8285 47.8488 42.3337 47.7603C42.7869 47.6821 43.2244 47.9426 43.4431 48.328C44.0056 47.979 44.9327 48.1821 45.0056 48.9165ZM31.0525 46.3176C30.8962 46.6353 30.6358 47.2863 30.2035 46.9999C29.7817 46.6457 30.4796 46.2915 30.4119 45.9009C30.3025 45.4582 29.6879 45.8071 29.6202 46.1249C29.5733 46.2394 29.589 46.3488 29.6202 46.4634C29.641 46.6249 29.5473 46.7863 29.3962 46.8488C29.1462 46.9582 28.891 46.7446 28.8858 46.4894C28.6827 46.1353 28.3025 45.6144 27.9692 46.1769C27.9379 46.2499 27.964 46.3176 27.9692 46.3905C27.964 46.5363 27.8702 46.6613 27.7452 46.7134C27.3754 46.8592 27.1775 46.4426 27.266 46.1301C27.391 45.2811 28.589 44.8957 29.1098 45.5988C29.7765 44.5207 31.4692 44.9738 31.0525 46.3176ZM21.2087 41.5363C20.9067 41.7551 20.5629 41.9999 20.1723 41.9842C19.0421 41.9165 18.8233 40.5467 19.8754 40.0832C20.0525 39.9999 20.266 39.9478 20.4483 40.0363C20.615 40.1196 20.6619 40.354 20.5681 40.5155C20.4744 40.6978 20.2869 40.6613 20.1358 40.729C19.9952 40.7915 19.7921 40.9946 19.9223 41.1457C20.1827 41.4478 20.5473 41.1665 20.7921 40.9842C21.1619 40.7082 21.5733 41.2551 21.2087 41.5363ZM32.4744 29.828C32.3233 29.9478 32.0994 29.9321 31.9796 29.7863C31.8077 29.5728 31.9119 29.2551 32.0212 29.0311C32.3233 28.3801 33.3025 27.9478 33.7973 28.5988C34.3233 28.0832 35.2921 28.354 35.3858 29.0936C35.4535 29.4686 35.1202 30.1613 34.6723 29.8957C34.5212 29.7863 34.4796 29.5624 34.5942 29.4113C34.641 29.3436 34.714 29.2707 34.6931 29.1821C34.5525 28.8592 34.1983 29.1144 34.0577 29.3176C34.0733 30.0988 33.0056 29.9217 33.3337 29.1874C33.2192 28.7707 32.7556 29.0728 32.641 29.3384C32.5577 29.4999 32.6462 29.703 32.4744 29.828ZM47.214 37.979C46.891 38.6561 46.1619 39.0103 45.4796 38.6353C44.7244 38.3488 44.6515 37.2134 45.464 36.9426C45.8962 36.8696 46.0473 37.4894 45.641 37.6301C45.4171 37.8749 45.8494 38.0519 46.0473 38.0832C46.3129 38.1301 46.4796 37.854 46.5942 37.6509C46.6879 37.4842 46.9015 37.4165 47.0733 37.5051C47.24 37.5936 47.3077 37.8071 47.214 37.979ZM50.9796 22.7967C50.3442 21.8488 51.8285 20.2082 52.714 21.1978C53.589 20.1144 55.0577 21.4842 54.1723 22.479C54.0577 22.6353 53.8285 22.6613 53.6827 22.5467C53.5265 22.4321 53.5056 22.2134 53.6202 22.0571C53.6827 21.979 53.7504 21.8853 53.74 21.7811C53.6202 21.3176 53.2504 21.5051 53.115 21.8592C53.3494 22.5988 52.2817 22.7082 52.3806 21.9269C52.2973 21.7915 52.1931 21.5884 52.0108 21.5832C51.7504 21.7238 51.4952 22.0155 51.5369 22.3228C51.8598 22.7342 51.3233 23.203 50.9796 22.7967ZM61.2713 28.5103C61.5681 28.7967 61.6827 29.2603 61.4848 29.6353C61.4119 29.8124 61.1983 29.9009 61.0213 29.828C60.7504 29.7082 60.8025 29.453 60.8806 29.2238C60.6983 28.5676 59.9327 29.0884 59.9744 29.5936C60.1671 29.854 59.8754 30.2342 59.5733 30.1301C59.3181 30.0467 59.2556 29.7551 59.2713 29.5155C59.2817 28.5571 60.5265 27.7499 61.2713 28.5103ZM59.5629 30.1249C59.5681 30.1301 59.5681 30.1301 59.5733 30.1301C59.5733 30.1301 59.5785 30.1353 59.5838 30.1353L59.5629 30.1249ZM65.891 37.5467C65.4952 38.1249 64.8025 38.5728 64.0994 38.2915C63.3077 38.0571 63.2296 37.0936 63.9327 36.6821C64.4015 36.5363 64.6046 37.1144 64.2035 37.3696C64.0577 37.5311 64.2921 37.6249 64.4275 37.6509C64.8338 37.7603 65.1046 37.3957 65.3338 37.1196C65.4535 36.9686 65.6723 36.9321 65.8285 37.0519C65.9796 37.1665 66.0108 37.3957 65.891 37.5467Z" fill="#E2D7CF"/>
</svg>
