<svg width="240" height="174" viewBox="0 0 240 174" fill="none" xmlns="http://www.w3.org/2000/svg">
<mask id="mask0_317_103370" style="mask-type:luminance" maskUnits="userSpaceOnUse" x="20" y="20" width="200" height="134">
<path d="M20 20H219.714V154H20V20Z" fill="white"/>
</mask>
<g mask="url(#mask0_317_103370)">
<g filter="url(#filter0_dddddd_317_103370)">
<path d="M218.953 73.5204C218.833 67.3798 218.593 61.2339 218.385 55.0985C218.364 54.4475 218.255 53.7547 218.015 53.1506C217.89 52.8433 217.39 52.6766 217.067 52.4475C217.13 52.4891 217.192 52.5308 217.265 52.5672C217.218 52.2443 217.151 51.911 217.073 51.5777C217.171 51.5464 217.276 51.4891 217.375 51.4006C218.302 50.5829 217.078 49.7391 216.578 49.036C215.796 47.9527 214.942 46.9058 214.015 45.9422C208.63 40.3641 203.265 34.7495 197.776 29.286C195.291 26.812 192.526 24.6193 189.849 22.3433C189.369 21.9422 188.692 21.6037 188.083 21.5464C183.698 21.1766 179.312 20.7704 174.911 20.6193C167.442 20.3641 159.974 20.2495 152.505 20.1662C139.286 20.0047 126.083 20.4943 112.88 20.9683C107.869 21.1506 102.859 21.4006 97.8486 21.687C91.7809 22.0412 85.7184 22.4475 79.6611 22.8902C73.8798 23.3225 68.1194 23.8954 62.3381 24.2912C59.5881 24.4787 57.3277 25.5933 55.2184 27.2495C51.7027 29.9995 48.1298 32.6714 44.635 35.4422C38.0361 40.6766 31.4579 45.9527 25.5309 51.9631C24.7131 52.7964 24.135 53.6662 24.01 54.8433C23.7861 56.7808 23.4423 58.7027 23.2965 60.6506C22.4267 72.5777 21.4371 84.4891 20.7965 96.4162C20.0309 110.807 19.9579 125.224 20.4319 139.63C20.5256 142.479 20.6194 145.322 20.734 148.166C20.7913 149.604 21.0152 149.901 22.3538 150.322C22.7236 150.437 23.1194 150.51 23.4996 150.541C30.3277 151.093 37.1506 151.786 43.9944 152.145C54.9006 152.718 65.8173 153.317 76.7392 153.474C97.0256 153.77 117.323 153.979 137.614 153.812C156.51 153.656 175.395 153.005 194.286 152.484C199.625 152.333 204.968 151.88 210.302 151.51C212.026 151.39 213.734 151.145 215.442 150.864C216.984 150.614 217.713 149.343 217.312 147.406C217.281 147.432 217.25 147.453 217.224 147.474C217.354 146.994 217.437 146.51 217.468 146.01C217.666 145.895 217.849 145.776 217.89 145.619C218.229 144.39 218.588 143.14 218.682 141.875C218.869 139.312 218.911 136.739 218.968 134.171C219.406 113.958 219.354 93.7391 218.953 73.5204Z" fill="black"/>
</g>
</g>
<g filter="url(#filter1_dddddd_317_103370)">
<path d="M217.052 146.26C216.849 145.963 216.479 145.677 216.464 145.375C216.406 143.812 216.412 142.244 216.443 140.687C216.688 126.89 216.938 113.104 217.13 102.234C216.953 84.6714 216.807 70.0308 216.651 55.4006C216.641 54.7339 216.526 54.0568 216.578 53.3954C216.604 53.062 216.896 52.76 217.057 52.437C217.125 52.4839 217.188 52.5256 217.261 52.562C217.209 52.2391 217.146 51.9058 217.068 51.5673C216.714 51.6662 216.354 51.4527 216.016 51.1506C214.573 51.036 213.052 51.0048 211.594 50.9995C211.214 51.6558 210.568 51.5985 209.99 51.6037C208.255 51.6089 206.526 51.6402 204.802 51.562C174.839 50.2443 144.854 50.1245 114.87 50.4318C105.229 50.5308 95.5835 50.7131 85.9533 51.0725C76.1512 51.437 66.3648 52.0725 56.5731 52.6089C49.5106 52.9995 42.4429 53.437 35.3804 53.8277C34.3804 53.885 33.3752 53.7704 32.3804 53.6766C32.0419 53.6402 31.7242 53.4162 31.4012 53.2704C31.4117 53.2443 31.4169 53.2235 31.4221 53.1923C29.7814 53.1193 28.1148 53.1714 26.4585 53.2391C25.9273 53.8745 25.7033 54.5673 25.6721 55.536C25.5419 59.9058 25.2346 64.2495 24.9273 68.5933C24.5679 73.7131 24.0939 78.8381 23.7554 83.9579C22.9689 95.9423 22.3908 107.937 22.3439 119.942C22.3075 129.046 22.4221 138.145 22.4742 147.255C22.4742 147.526 22.5054 147.791 22.5419 148.265C28.6617 148.729 34.5992 149.229 40.5419 149.599C47.8856 150.057 55.2294 150.432 62.5731 150.791C66.6408 150.994 70.7085 151.125 74.771 151.224C96.4533 151.739 118.141 151.947 139.823 151.64C154.37 151.432 168.922 151.203 183.469 150.854C191.599 150.661 199.729 150.244 207.865 149.869C210.146 149.765 212.412 149.453 214.688 149.276C215.365 149.224 215.818 148.958 216.203 148.411C216.443 148.072 216.807 147.828 217.219 147.484C217.344 147 217.432 146.51 217.459 146.015C217.323 146.093 217.172 146.171 217.052 146.26ZM213.334 96.661C213.167 108.671 212.781 120.666 211.74 132.635C211.422 136.25 211.042 139.859 210.667 143.463C210.625 143.895 210.464 144.317 210.323 144.843C208.854 144.953 207.422 145.13 205.99 145.161C162.948 145.979 119.906 145.791 76.8752 145.281C65.0002 145.145 53.1252 145.052 41.2502 144.843C37.7502 144.781 34.245 144.416 30.7502 144.13C29.9325 144.067 29.0002 144.052 28.396 143.359C28.4169 143.27 28.4429 143.177 28.4689 143.072C28.2919 142.968 28.1408 142.822 28.0002 142.656C27.6981 142.859 27.2658 142.755 27.0783 142.354C26.8856 141.916 26.8127 141.395 26.8075 140.911C26.7814 139.182 26.7919 137.458 26.7919 135.724C25.1929 134.968 24.9273 133.703 24.9429 132.197C24.9846 126.838 24.9273 121.489 24.9637 116.13C24.9689 114.583 25.0575 114.583 26.6669 114.052C26.6669 113.599 26.6721 113.104 26.6669 112.604C26.5992 106.911 26.521 101.218 26.4689 95.5204C26.4637 94.5204 26.5262 93.5152 26.5731 92.5152C26.5783 92.2912 26.6981 92.0048 26.6044 91.8641C25.6044 90.3173 26.0158 88.6037 26.0887 86.9631C26.271 82.9475 26.5783 78.9423 26.8231 74.9318C26.8804 73.9891 26.9742 73.1037 28.4012 73.0256C28.4012 70.0985 28.396 67.2548 28.4012 64.4058C28.4012 63.1766 28.4221 61.9527 28.4429 60.7235C28.4533 60.4995 28.4689 60.2808 28.5106 60.062C28.6304 59.5256 28.7189 58.8277 29.4117 58.8485C29.4794 58.8485 29.5367 58.8537 29.5887 58.8693C29.6773 58.6089 29.8544 58.4058 30.0731 58.2912C30.0106 58.2131 29.9429 58.1141 29.8804 57.9995C30.3335 57.9527 30.7867 57.885 31.245 57.8693C35.5887 57.7548 39.9325 57.7027 44.2762 57.5256C48.8387 57.3381 53.4012 56.9579 57.9637 56.7912C69.8335 56.3537 81.6929 55.7912 93.5679 55.6298C109.563 55.4214 125.568 55.4891 141.568 55.562C150.485 55.6037 159.412 55.8329 168.328 56.0933C175.292 56.2912 182.245 56.6454 189.209 56.9839C195.5 57.2912 201.787 57.6766 208.078 58.0464C209.13 58.1141 210.172 58.3277 211.229 58.4006C212.141 58.4683 212.427 58.8902 212.469 59.7912C213.12 72.0881 213.505 84.3693 213.334 96.661Z" fill="#5A5B5D"/>
</g>
<g filter="url(#filter2_dddddd_317_103370)">
<path d="M26.4639 53.2504C26.6045 53.0733 26.7816 52.9014 26.9743 52.7191C35.3441 45.24 44.1878 38.3546 53.1045 31.5525C55.2295 29.9327 57.2816 28.2139 59.318 26.4796C59.8545 26.0212 60.391 25.99 61.0055 25.9535C67.0055 25.5681 73.016 25.1671 79.016 24.7816C85.5785 24.365 92.141 23.9118 98.7087 23.5889C105.61 23.2504 112.521 23.0577 119.427 22.7816C131.516 22.3077 143.615 22.0577 155.714 22.2348C162.172 22.3389 168.641 22.5993 175.104 22.7921C178.943 22.9066 182.792 23.141 186.636 23.1098C187.854 23.0993 188.688 23.3546 189.558 24.1723C197.172 31.3129 204.459 38.7712 211.5 46.4848C212.709 47.8025 213.943 49.0889 215.219 50.3389C215.464 50.5785 215.74 50.9014 216.032 51.1566C214.589 51.0421 213.068 51.016 211.61 51.0056C211.646 50.9431 211.683 50.8806 211.709 50.7973C210.735 50.0421 209.578 50.1671 208.521 50.1098C203.183 49.8337 197.839 49.5316 192.49 49.4327C178.006 49.1671 163.516 48.9014 149.021 48.8285C126.11 48.7087 103.209 49.0212 80.3232 50.0056C73.141 50.3181 65.9639 50.6827 58.792 51.1358C49.8389 51.7035 40.9222 52.7139 31.943 52.7921C31.7972 52.7921 31.6566 52.891 31.5107 52.9431C31.4899 53.0316 31.4587 53.115 31.4378 53.2035C29.7868 53.1462 28.1305 53.1879 26.4639 53.2504Z" fill="#4D4D4F"/>
</g>
<g filter="url(#filter3_dddddd_317_103370)">
<path d="M29.8018 142.922C38.8591 143.792 47.958 143.594 57.0413 143.615C94.3382 143.708 131.63 143.849 168.937 143.844C181.979 143.844 195.026 143.453 208.062 143.24C208.286 143.234 208.5 143.203 208.797 143.177C211.687 115.474 211.896 87.7188 210.963 59.7969C210.109 59.7969 209.224 59.8386 208.359 59.7917C202.901 59.4896 197.453 59.1667 191.994 58.8646C187.323 58.6042 182.646 58.2865 177.968 58.1146C156.854 57.3229 135.724 56.8646 114.593 56.9115C100.661 56.9479 86.7184 57.1563 72.7913 57.4792C63.9893 57.6875 55.1924 58.2552 46.4007 58.6459C42.9476 58.7969 39.4945 58.9531 36.0413 59C34.2601 59.0209 32.4788 58.8177 30.708 58.6823C30.4893 58.6667 30.2809 58.5469 30.0882 58.3021C29.8643 58.4219 29.6924 58.6198 29.5986 58.875C30.2601 59 30.2913 59.6771 30.2549 60.2344C29.9788 64.4063 29.6872 68.5781 29.3903 72.75C29.3851 72.8021 29.4007 72.8594 29.4059 72.9167C29.4684 72.9948 29.5205 73.125 29.609 73.1563C31.3903 73.75 31.9268 73.4115 31.7445 76.4063C31.5309 80.0781 31.182 83.75 30.8799 87.4167C30.7965 88.3594 30.7497 89.3073 30.6143 90.25C30.3851 91.8959 30.0257 92.2552 28.2288 92.6979C28.1143 99.9011 27.9945 107.13 27.8747 114.318C28.4059 114.729 29.0413 114.995 29.2965 115.469C29.5986 116.021 29.6768 116.75 29.6768 117.401C29.6872 122.151 29.6715 126.891 29.6143 131.635C29.5986 132.578 29.3903 133.521 29.2497 134.458C29.2028 134.729 29.1768 135.135 28.9997 135.234C27.7913 135.948 28.2028 137.026 28.2705 138.042C28.3434 139.036 28.4059 140.047 28.432 141.047C28.4372 141.479 28.4059 141.953 28.2445 142.349C28.1872 142.49 28.0934 142.594 27.984 142.667C28.1299 142.828 28.2809 142.969 28.4528 143.083C28.4684 143.026 28.4788 142.974 28.4945 142.917C28.932 142.917 29.3695 142.88 29.8018 142.922ZM156.255 120.813C156.281 108.698 156.406 96.5781 156.578 84.4688C156.625 81.349 156.963 78.2344 157.198 75.1094C157.312 73.6146 157.463 73.4323 158.885 73.1823C160.25 72.9427 161.614 72.6511 162.989 72.6094C172.849 72.3334 182.713 72.0886 192.567 71.8959C194.682 71.8542 196.797 72.0521 198.916 72.1459C199.635 72.1771 200.302 72.3177 200.906 73.1459C201.213 73.2396 201.474 73.4219 201.635 73.6771C201.651 73.6094 201.666 73.5365 201.682 73.4636C202.01 73.5729 202.536 73.5834 202.635 73.8021C203.031 74.6406 203.494 75.5365 203.562 76.4323C203.875 80.6615 204.271 84.9011 204.265 89.1354C204.26 101.026 204.078 112.922 203.942 124.813C203.922 126.375 203.771 127.932 203.619 129.49C203.39 131.891 202.317 132.729 199.948 132.844C186.411 133.479 172.885 132.557 159.343 132.625C158.583 132.63 157.823 132.5 157.083 132.438C156.328 128.49 156.25 124.641 156.255 120.813ZM199.297 74.125C198.875 74.224 198.406 74.1771 197.963 74.1459C187.151 73.4896 176.343 74.0677 165.531 74.1771C163.364 74.1979 161.203 74.1771 158.948 74.1771C158.906 74.4323 158.833 74.6979 158.823 74.9584C158.198 92.375 158.093 109.792 158.619 127.214C158.656 128.432 158.505 129.651 158.437 130.969C158.755 131 159.073 131.047 159.396 131.047C168.312 131.01 177.229 130.964 186.146 130.938C190.38 130.932 194.614 130.99 198.854 131.01C200.744 131.021 201.25 130.594 201.359 128.708C201.578 125.083 201.838 121.469 201.911 117.844C202.078 109.13 202.198 100.422 202.224 91.7136C202.239 86.5156 202.062 81.3229 201.937 76.1406C201.927 75.5417 201.646 74.9584 201.567 74.3646C201.536 74.1406 201.593 73.9115 201.651 73.6771C201.484 73.4219 201.229 73.2396 200.922 73.1459C200.984 73.2344 201.047 73.3334 201.114 73.4323C200.375 73.724 199.849 73.9948 199.297 74.125ZM162.036 88.5261C162.172 85.4584 162.276 82.3959 162.39 79.3334C162.458 77.5417 162.646 77.3177 164.432 77.2396C172.666 76.875 180.906 76.7084 189.14 77.0729C191.192 77.1667 193.26 77.1406 195.312 77.224C196.354 77.2656 197.385 77.4479 198.614 77.5834C198.739 78.5938 198.901 79.3542 198.911 80.125C198.937 83.1875 198.937 86.25 198.901 89.3229C198.885 90.7396 198.427 91.1667 196.948 91.1927C195.286 91.224 193.609 91.1719 191.937 91.1511C183.979 91.0365 176.021 90.9271 168.062 90.7969C166.614 90.7761 165.161 90.7396 163.724 90.5886C162.156 90.4219 161.974 90.0834 162.036 88.5261ZM199.416 121.599C199.411 123.656 199.203 125.724 198.979 127.776C198.797 129.474 198.416 129.703 196.677 129.661C191.161 129.521 185.64 129.396 180.13 129.255C180.13 129.276 180.13 129.292 180.13 129.313C174.672 129.141 169.208 128.969 163.75 128.797C163.474 128.792 163.192 128.792 162.922 128.766C161.744 128.667 161.567 128.531 161.479 127.38C161.396 126.438 161.349 125.479 161.354 124.536C161.406 116.167 161.453 107.786 161.562 99.4167C161.583 97.8594 161.786 96.3021 162.021 94.7552C162.229 93.3854 162.375 93.2917 163.739 93.2292C167.135 93.0729 170.531 92.8177 173.927 92.849C181.39 92.9219 188.859 93.1302 196.323 93.3125C199.031 93.3802 199.369 93.6146 199.39 96.3021C199.463 104.74 199.453 113.167 199.416 121.599ZM197.224 128.286C193.948 128.177 190.838 128.083 187.557 127.979C187.666 125.745 187.776 123.698 187.88 121.453C188.541 121.453 189.13 121.453 189.729 121.453C191.177 121.453 192.625 121.479 194.073 121.422C194.557 121.401 195.031 121.167 195.771 120.943C194.427 119.698 193.088 120.208 191.896 120.057C190.63 119.891 189.354 119.885 187.984 119.797C187.984 117.333 187.984 114.953 187.984 112.474C190.354 112.115 192.786 112.693 195.14 112C194.14 111.083 192.927 111.161 191.765 111.109C190.552 111.057 189.333 111.094 187.994 111.094C187.994 108.464 187.994 105.979 187.994 103.349C188.479 103.318 188.953 103.26 189.427 103.26C191.437 103.276 193.437 103.318 195.448 103.313C195.953 103.313 196.453 103.141 197.057 103.026C196.646 101.984 195.937 102.047 195.297 102.016C193.401 101.917 191.515 101.839 189.619 101.745C189.125 101.724 188.63 101.688 188.078 101.651C187.593 99.625 188.317 97.4427 187.213 95.3229C186.224 96.4531 186.734 97.5469 186.646 98.5209C186.562 99.5104 186.625 100.5 186.625 101.531C182.604 101.531 178.791 101.531 174.958 101.531C174.823 99.25 174.703 97.1042 174.557 94.9636C174.557 94.9167 174.38 94.8854 174.182 94.8021C173.515 95.7761 173.729 96.9167 173.614 97.9844C173.494 99.0834 173.5 100.203 173.442 101.474C172.901 101.521 172.427 101.599 171.942 101.609C169.771 101.651 167.593 101.656 165.427 101.708C164.849 101.724 164.203 101.609 163.744 102.297C164.198 102.922 164.838 102.859 165.411 102.875C167.411 102.911 169.422 102.917 171.432 102.938C171.979 102.948 172.526 102.938 173.109 102.938C173.109 105.672 173.109 108.255 173.109 110.958C169.875 110.958 166.812 110.958 163.75 110.958C163.729 111.068 163.703 111.177 163.682 111.281C163.984 111.427 164.271 111.661 164.578 111.688C166.468 111.828 168.354 111.938 170.25 112.021C171.083 112.057 171.916 112.031 172.703 112.031C173.114 113.198 173.099 117.495 172.698 119.51C171.182 119.563 169.625 119.583 168.083 119.677C166.614 119.76 165.114 119.51 163.604 120.005C163.817 120.75 164.354 120.719 164.817 120.74C166.76 120.833 168.713 120.906 170.666 120.969C171.328 120.995 171.989 120.969 172.76 120.969C172.76 123.271 172.76 125.417 172.76 127.677C169.422 127.677 166.109 127.677 162.781 127.677C162.448 126.604 162.838 102.198 163.328 94.4792C163.718 94.4219 164.135 94.3125 164.557 94.3073C172.198 94.099 179.828 94.1042 187.458 94.4636C190.896 94.625 194.359 94.4948 197.948 94.4948C198.041 95.2292 198.198 95.8177 198.177 96.4011C197.911 106.786 197.63 117.167 197.343 127.547C197.359 127.745 197.286 127.953 197.224 128.286ZM174.744 103.12C178.807 103.12 182.562 103.12 186.396 103.12C186.396 105.802 186.396 108.328 186.396 110.943C182.484 110.943 178.729 110.943 174.88 110.943C174.479 109.656 174.786 108.328 174.76 107.016C174.724 105.745 174.744 104.469 174.744 103.12ZM174.677 119.458C174.677 116.958 174.677 114.693 174.677 112.188C178.541 112.167 182.297 112.161 186.036 112.302C186.401 113.547 186.411 117.792 186.036 119.786C182.302 119.682 178.547 119.578 174.677 119.458ZM174.307 127.755C174.422 125.516 174.521 123.422 174.63 121.328C176.015 120.901 183.271 121.016 186.088 121.526C186.088 123.547 186.088 125.589 186.088 127.745C182.109 127.755 178.213 127.755 174.307 127.755ZM27.7393 134.135C26.859 134.047 26.5413 133.74 26.5361 133.146C26.4268 127.531 26.3278 121.911 26.2236 116.297C26.2236 116.193 26.2965 116.089 26.333 115.984C27.9215 116.089 27.9945 116.089 27.9788 117.505C27.9372 121.344 27.8174 125.177 27.7497 129.021C27.7132 130.688 27.7393 132.349 27.7393 134.135ZM28.1872 90.4167C27.7497 89.1771 27.8695 79.0104 28.3382 74.4792C28.9059 74.5834 29.458 74.6875 29.9684 74.7865C30.1768 77.1042 28.8382 89.0625 28.1872 90.4167Z" fill="#A7A9AC"/>
</g>
<g filter="url(#filter4_dddddd_317_103370)">
<path d="M163.536 89.3599C163.536 85.7036 163.536 82.0422 163.536 78.2765C174.911 77.9432 186.187 78.3911 197.609 78.938C197.651 79.2765 197.755 79.6984 197.739 80.1151C197.677 82.5682 197.583 85.0213 197.51 87.4745C197.494 88.0213 197.51 88.5682 197.51 89.3547C186.286 89.3599 175.01 89.3599 163.536 89.3599Z" fill="#00B6B9"/>
</g>
<defs>
<filter id="filter0_dddddd_317_103370" x="0.0613785" y="0.0613785" width="239.287" height="173.883" filterUnits="userSpaceOnUse" color-interpolation-filters="sRGB">
<feFlood flood-opacity="0" result="BackgroundImageFix"/>
<feColorMatrix in="SourceAlpha" type="matrix" values="0 0 0 0 0 0 0 0 0 0 0 0 0 0 0 0 0 0 127 0" result="hardAlpha"/>
<feOffset/>
<feGaussianBlur stdDeviation="0.238969"/>
<feColorMatrix type="matrix" values="0 0 0 0 0.960784 0 0 0 0 0.941176 0 0 0 0 0.443137 0 0 0 1 0"/>
<feBlend mode="normal" in2="BackgroundImageFix" result="effect1_dropShadow_317_103370"/>
<feColorMatrix in="SourceAlpha" type="matrix" values="0 0 0 0 0 0 0 0 0 0 0 0 0 0 0 0 0 0 127 0" result="hardAlpha"/>
<feOffset/>
<feGaussianBlur stdDeviation="0.477938"/>
<feColorMatrix type="matrix" values="0 0 0 0 0.960784 0 0 0 0 0.941176 0 0 0 0 0.443137 0 0 0 1 0"/>
<feBlend mode="normal" in2="effect1_dropShadow_317_103370" result="effect2_dropShadow_317_103370"/>
<feColorMatrix in="SourceAlpha" type="matrix" values="0 0 0 0 0 0 0 0 0 0 0 0 0 0 0 0 0 0 127 0" result="hardAlpha"/>
<feOffset/>
<feGaussianBlur stdDeviation="1.67278"/>
<feColorMatrix type="matrix" values="0 0 0 0 0.960784 0 0 0 0 0.941176 0 0 0 0 0.443137 0 0 0 1 0"/>
<feBlend mode="normal" in2="effect2_dropShadow_317_103370" result="effect3_dropShadow_317_103370"/>
<feColorMatrix in="SourceAlpha" type="matrix" values="0 0 0 0 0 0 0 0 0 0 0 0 0 0 0 0 0 0 127 0" result="hardAlpha"/>
<feOffset/>
<feGaussianBlur stdDeviation="3.34556"/>
<feColorMatrix type="matrix" values="0 0 0 0 0.960784 0 0 0 0 0.941176 0 0 0 0 0.443137 0 0 0 1 0"/>
<feBlend mode="normal" in2="effect3_dropShadow_317_103370" result="effect4_dropShadow_317_103370"/>
<feColorMatrix in="SourceAlpha" type="matrix" values="0 0 0 0 0 0 0 0 0 0 0 0 0 0 0 0 0 0 127 0" result="hardAlpha"/>
<feOffset/>
<feGaussianBlur stdDeviation="5.73525"/>
<feColorMatrix type="matrix" values="0 0 0 0 0.960784 0 0 0 0 0.941176 0 0 0 0 0.443137 0 0 0 1 0"/>
<feBlend mode="normal" in2="effect4_dropShadow_317_103370" result="effect5_dropShadow_317_103370"/>
<feColorMatrix in="SourceAlpha" type="matrix" values="0 0 0 0 0 0 0 0 0 0 0 0 0 0 0 0 0 0 127 0" result="hardAlpha"/>
<feOffset/>
<feGaussianBlur stdDeviation="10.0367"/>
<feColorMatrix type="matrix" values="0 0 0 0 0.960784 0 0 0 0 0.941176 0 0 0 0 0.443137 0 0 0 1 0"/>
<feBlend mode="normal" in2="effect5_dropShadow_317_103370" result="effect6_dropShadow_317_103370"/>
<feBlend mode="normal" in="SourceGraphic" in2="effect6_dropShadow_317_103370" result="shape"/>
</filter>
<filter id="filter1_dddddd_317_103370" x="2.66865" y="30.6228" width="234.459" height="140.829" filterUnits="userSpaceOnUse" color-interpolation-filters="sRGB">
<feFlood flood-opacity="0" result="BackgroundImageFix"/>
<feColorMatrix in="SourceAlpha" type="matrix" values="0 0 0 0 0 0 0 0 0 0 0 0 0 0 0 0 0 0 127 0" result="hardAlpha"/>
<feOffset/>
<feGaussianBlur stdDeviation="0.234146"/>
<feColorMatrix type="matrix" values="0 0 0 0 0.960784 0 0 0 0 0.941176 0 0 0 0 0.443137 0 0 0 1 0"/>
<feBlend mode="normal" in2="BackgroundImageFix" result="effect1_dropShadow_317_103370"/>
<feColorMatrix in="SourceAlpha" type="matrix" values="0 0 0 0 0 0 0 0 0 0 0 0 0 0 0 0 0 0 127 0" result="hardAlpha"/>
<feOffset/>
<feGaussianBlur stdDeviation="0.468292"/>
<feColorMatrix type="matrix" values="0 0 0 0 0.960784 0 0 0 0 0.941176 0 0 0 0 0.443137 0 0 0 1 0"/>
<feBlend mode="normal" in2="effect1_dropShadow_317_103370" result="effect2_dropShadow_317_103370"/>
<feColorMatrix in="SourceAlpha" type="matrix" values="0 0 0 0 0 0 0 0 0 0 0 0 0 0 0 0 0 0 127 0" result="hardAlpha"/>
<feOffset/>
<feGaussianBlur stdDeviation="1.63902"/>
<feColorMatrix type="matrix" values="0 0 0 0 0.960784 0 0 0 0 0.941176 0 0 0 0 0.443137 0 0 0 1 0"/>
<feBlend mode="normal" in2="effect2_dropShadow_317_103370" result="effect3_dropShadow_317_103370"/>
<feColorMatrix in="SourceAlpha" type="matrix" values="0 0 0 0 0 0 0 0 0 0 0 0 0 0 0 0 0 0 127 0" result="hardAlpha"/>
<feOffset/>
<feGaussianBlur stdDeviation="3.27804"/>
<feColorMatrix type="matrix" values="0 0 0 0 0.960784 0 0 0 0 0.941176 0 0 0 0 0.443137 0 0 0 1 0"/>
<feBlend mode="normal" in2="effect3_dropShadow_317_103370" result="effect4_dropShadow_317_103370"/>
<feColorMatrix in="SourceAlpha" type="matrix" values="0 0 0 0 0 0 0 0 0 0 0 0 0 0 0 0 0 0 127 0" result="hardAlpha"/>
<feOffset/>
<feGaussianBlur stdDeviation="5.6195"/>
<feColorMatrix type="matrix" values="0 0 0 0 0.960784 0 0 0 0 0.941176 0 0 0 0 0.443137 0 0 0 1 0"/>
<feBlend mode="normal" in2="effect4_dropShadow_317_103370" result="effect5_dropShadow_317_103370"/>
<feColorMatrix in="SourceAlpha" type="matrix" values="0 0 0 0 0 0 0 0 0 0 0 0 0 0 0 0 0 0 127 0" result="hardAlpha"/>
<feOffset/>
<feGaussianBlur stdDeviation="9.83413"/>
<feColorMatrix type="matrix" values="0 0 0 0 0.960784 0 0 0 0 0.941176 0 0 0 0 0.443137 0 0 0 1 0"/>
<feBlend mode="normal" in2="effect5_dropShadow_317_103370" result="effect6_dropShadow_317_103370"/>
<feBlend mode="normal" in="SourceGraphic" in2="effect6_dropShadow_317_103370" result="shape"/>
</filter>
<filter id="filter2_dddddd_317_103370" x="7.35544" y="3.06931" width="227.784" height="69.2891" filterUnits="userSpaceOnUse" color-interpolation-filters="sRGB">
<feFlood flood-opacity="0" result="BackgroundImageFix"/>
<feColorMatrix in="SourceAlpha" type="matrix" values="0 0 0 0 0 0 0 0 0 0 0 0 0 0 0 0 0 0 127 0" result="hardAlpha"/>
<feOffset/>
<feGaussianBlur stdDeviation="0.227481"/>
<feColorMatrix type="matrix" values="0 0 0 0 0.960784 0 0 0 0 0.941176 0 0 0 0 0.443137 0 0 0 1 0"/>
<feBlend mode="normal" in2="BackgroundImageFix" result="effect1_dropShadow_317_103370"/>
<feColorMatrix in="SourceAlpha" type="matrix" values="0 0 0 0 0 0 0 0 0 0 0 0 0 0 0 0 0 0 127 0" result="hardAlpha"/>
<feOffset/>
<feGaussianBlur stdDeviation="0.454963"/>
<feColorMatrix type="matrix" values="0 0 0 0 0.960784 0 0 0 0 0.941176 0 0 0 0 0.443137 0 0 0 1 0"/>
<feBlend mode="normal" in2="effect1_dropShadow_317_103370" result="effect2_dropShadow_317_103370"/>
<feColorMatrix in="SourceAlpha" type="matrix" values="0 0 0 0 0 0 0 0 0 0 0 0 0 0 0 0 0 0 127 0" result="hardAlpha"/>
<feOffset/>
<feGaussianBlur stdDeviation="1.59237"/>
<feColorMatrix type="matrix" values="0 0 0 0 0.960784 0 0 0 0 0.941176 0 0 0 0 0.443137 0 0 0 1 0"/>
<feBlend mode="normal" in2="effect2_dropShadow_317_103370" result="effect3_dropShadow_317_103370"/>
<feColorMatrix in="SourceAlpha" type="matrix" values="0 0 0 0 0 0 0 0 0 0 0 0 0 0 0 0 0 0 127 0" result="hardAlpha"/>
<feOffset/>
<feGaussianBlur stdDeviation="3.18474"/>
<feColorMatrix type="matrix" values="0 0 0 0 0.960784 0 0 0 0 0.941176 0 0 0 0 0.443137 0 0 0 1 0"/>
<feBlend mode="normal" in2="effect3_dropShadow_317_103370" result="effect4_dropShadow_317_103370"/>
<feColorMatrix in="SourceAlpha" type="matrix" values="0 0 0 0 0 0 0 0 0 0 0 0 0 0 0 0 0 0 127 0" result="hardAlpha"/>
<feOffset/>
<feGaussianBlur stdDeviation="5.45955"/>
<feColorMatrix type="matrix" values="0 0 0 0 0.960784 0 0 0 0 0.941176 0 0 0 0 0.443137 0 0 0 1 0"/>
<feBlend mode="normal" in2="effect4_dropShadow_317_103370" result="effect5_dropShadow_317_103370"/>
<feColorMatrix in="SourceAlpha" type="matrix" values="0 0 0 0 0 0 0 0 0 0 0 0 0 0 0 0 0 0 127 0" result="hardAlpha"/>
<feOffset/>
<feGaussianBlur stdDeviation="9.55421"/>
<feColorMatrix type="matrix" values="0 0 0 0 0.960784 0 0 0 0 0.941176 0 0 0 0 0.443137 0 0 0 1 0"/>
<feBlend mode="normal" in2="effect5_dropShadow_317_103370" result="effect6_dropShadow_317_103370"/>
<feBlend mode="normal" in="SourceGraphic" in2="effect6_dropShadow_317_103370" result="shape"/>
</filter>
<filter id="filter3_dddddd_317_103370" x="7.55199" y="38.2366" width="222.578" height="124.279" filterUnits="userSpaceOnUse" color-interpolation-filters="sRGB">
<feFlood flood-opacity="0" result="BackgroundImageFix"/>
<feColorMatrix in="SourceAlpha" type="matrix" values="0 0 0 0 0 0 0 0 0 0 0 0 0 0 0 0 0 0 127 0" result="hardAlpha"/>
<feOffset/>
<feGaussianBlur stdDeviation="0.222281"/>
<feColorMatrix type="matrix" values="0 0 0 0 0.960784 0 0 0 0 0.941176 0 0 0 0 0.443137 0 0 0 1 0"/>
<feBlend mode="normal" in2="BackgroundImageFix" result="effect1_dropShadow_317_103370"/>
<feColorMatrix in="SourceAlpha" type="matrix" values="0 0 0 0 0 0 0 0 0 0 0 0 0 0 0 0 0 0 127 0" result="hardAlpha"/>
<feOffset/>
<feGaussianBlur stdDeviation="0.444563"/>
<feColorMatrix type="matrix" values="0 0 0 0 0.960784 0 0 0 0 0.941176 0 0 0 0 0.443137 0 0 0 1 0"/>
<feBlend mode="normal" in2="effect1_dropShadow_317_103370" result="effect2_dropShadow_317_103370"/>
<feColorMatrix in="SourceAlpha" type="matrix" values="0 0 0 0 0 0 0 0 0 0 0 0 0 0 0 0 0 0 127 0" result="hardAlpha"/>
<feOffset/>
<feGaussianBlur stdDeviation="1.55597"/>
<feColorMatrix type="matrix" values="0 0 0 0 0.960784 0 0 0 0 0.941176 0 0 0 0 0.443137 0 0 0 1 0"/>
<feBlend mode="normal" in2="effect2_dropShadow_317_103370" result="effect3_dropShadow_317_103370"/>
<feColorMatrix in="SourceAlpha" type="matrix" values="0 0 0 0 0 0 0 0 0 0 0 0 0 0 0 0 0 0 127 0" result="hardAlpha"/>
<feOffset/>
<feGaussianBlur stdDeviation="3.11194"/>
<feColorMatrix type="matrix" values="0 0 0 0 0.960784 0 0 0 0 0.941176 0 0 0 0 0.443137 0 0 0 1 0"/>
<feBlend mode="normal" in2="effect3_dropShadow_317_103370" result="effect4_dropShadow_317_103370"/>
<feColorMatrix in="SourceAlpha" type="matrix" values="0 0 0 0 0 0 0 0 0 0 0 0 0 0 0 0 0 0 127 0" result="hardAlpha"/>
<feOffset/>
<feGaussianBlur stdDeviation="5.33476"/>
<feColorMatrix type="matrix" values="0 0 0 0 0.960784 0 0 0 0 0.941176 0 0 0 0 0.443137 0 0 0 1 0"/>
<feBlend mode="normal" in2="effect4_dropShadow_317_103370" result="effect5_dropShadow_317_103370"/>
<feColorMatrix in="SourceAlpha" type="matrix" values="0 0 0 0 0 0 0 0 0 0 0 0 0 0 0 0 0 0 127 0" result="hardAlpha"/>
<feOffset/>
<feGaussianBlur stdDeviation="9.33582"/>
<feColorMatrix type="matrix" values="0 0 0 0 0.960784 0 0 0 0 0.941176 0 0 0 0 0.443137 0 0 0 1 0"/>
<feBlend mode="normal" in2="effect5_dropShadow_317_103370" result="effect6_dropShadow_317_103370"/>
<feBlend mode="normal" in="SourceGraphic" in2="effect6_dropShadow_317_103370" result="shape"/>
</filter>
<filter id="filter4_dddddd_317_103370" x="160.088" y="74.7143" width="41.1007" height="18.0939" filterUnits="userSpaceOnUse" color-interpolation-filters="sRGB">
<feFlood flood-opacity="0" result="BackgroundImageFix"/>
<feColorMatrix in="SourceAlpha" type="matrix" values="0 0 0 0 0 0 0 0 0 0 0 0 0 0 0 0 0 0 127 0" result="hardAlpha"/>
<feOffset/>
<feGaussianBlur stdDeviation="0.0410457"/>
<feColorMatrix type="matrix" values="0 0 0 0 0.960784 0 0 0 0 0.941176 0 0 0 0 0.443137 0 0 0 1 0"/>
<feBlend mode="normal" in2="BackgroundImageFix" result="effect1_dropShadow_317_103370"/>
<feColorMatrix in="SourceAlpha" type="matrix" values="0 0 0 0 0 0 0 0 0 0 0 0 0 0 0 0 0 0 127 0" result="hardAlpha"/>
<feOffset/>
<feGaussianBlur stdDeviation="0.0820913"/>
<feColorMatrix type="matrix" values="0 0 0 0 0.960784 0 0 0 0 0.941176 0 0 0 0 0.443137 0 0 0 1 0"/>
<feBlend mode="normal" in2="effect1_dropShadow_317_103370" result="effect2_dropShadow_317_103370"/>
<feColorMatrix in="SourceAlpha" type="matrix" values="0 0 0 0 0 0 0 0 0 0 0 0 0 0 0 0 0 0 127 0" result="hardAlpha"/>
<feOffset/>
<feGaussianBlur stdDeviation="0.28732"/>
<feColorMatrix type="matrix" values="0 0 0 0 0.960784 0 0 0 0 0.941176 0 0 0 0 0.443137 0 0 0 1 0"/>
<feBlend mode="normal" in2="effect2_dropShadow_317_103370" result="effect3_dropShadow_317_103370"/>
<feColorMatrix in="SourceAlpha" type="matrix" values="0 0 0 0 0 0 0 0 0 0 0 0 0 0 0 0 0 0 127 0" result="hardAlpha"/>
<feOffset/>
<feGaussianBlur stdDeviation="0.574639"/>
<feColorMatrix type="matrix" values="0 0 0 0 0.960784 0 0 0 0 0.941176 0 0 0 0 0.443137 0 0 0 1 0"/>
<feBlend mode="normal" in2="effect3_dropShadow_317_103370" result="effect4_dropShadow_317_103370"/>
<feColorMatrix in="SourceAlpha" type="matrix" values="0 0 0 0 0 0 0 0 0 0 0 0 0 0 0 0 0 0 127 0" result="hardAlpha"/>
<feOffset/>
<feGaussianBlur stdDeviation="0.985096"/>
<feColorMatrix type="matrix" values="0 0 0 0 0.960784 0 0 0 0 0.941176 0 0 0 0 0.443137 0 0 0 1 0"/>
<feBlend mode="normal" in2="effect4_dropShadow_317_103370" result="effect5_dropShadow_317_103370"/>
<feColorMatrix in="SourceAlpha" type="matrix" values="0 0 0 0 0 0 0 0 0 0 0 0 0 0 0 0 0 0 127 0" result="hardAlpha"/>
<feOffset/>
<feGaussianBlur stdDeviation="1.72392"/>
<feColorMatrix type="matrix" values="0 0 0 0 0.960784 0 0 0 0 0.941176 0 0 0 0 0.443137 0 0 0 1 0"/>
<feBlend mode="normal" in2="effect5_dropShadow_317_103370" result="effect6_dropShadow_317_103370"/>
<feBlend mode="normal" in="SourceGraphic" in2="effect6_dropShadow_317_103370" result="shape"/>
</filter>
</defs>
</svg>
