<svg width="45" height="68" viewBox="0 0 45 68" fill="none" xmlns="http://www.w3.org/2000/svg">
<mask id="mask0_292_113723" style="mask-type:luminance" maskUnits="userSpaceOnUse" x="0" y="0" width="45" height="68">
<path d="M0 0.00488281H44.6146V67.3538H0V0.00488281Z" fill="white"/>
</mask>
<g mask="url(#mask0_292_113723)">
<path fill-rule="evenodd" clip-rule="evenodd" d="M33.5739 65.4529C34.3082 64.9008 34.9905 64.2394 35.7614 63.7342C36.0218 63.5623 37.7509 62.2602 37.9332 62.0779L38.8864 61.0779C40.1416 59.5779 40.8759 57.781 40.527 55.7446C40.2926 54.38 39.9228 53.6821 39.2405 52.5675C38.8447 51.9112 38.3499 51.2602 37.7405 50.7915C37.1416 50.3279 36.803 50.0206 35.9332 50.0206C35.0582 50.0258 34.5582 50.3175 33.7562 50.4217C33.4801 50.4581 33.4176 50.4477 33.2041 50.4998C32.1832 50.7758 31.7093 50.7967 30.6989 51.2706C30.4124 51.406 30.1259 51.6196 29.7353 51.63C29.8447 51.4685 29.8864 51.38 29.9905 51.1925C30.5895 50.0883 30.2562 50.7654 30.8082 49.9165C31.3707 49.0571 32.6937 47.9529 32.8187 47.7446C33.0009 47.4425 33.2249 47.2394 33.553 47.0831C35.6051 46.1144 35.7978 46.0258 37.9801 46.6456C39.7145 47.1404 41.2978 48.6665 43.1051 47.3748C44.7509 46.1977 44.8603 40.8956 44.3395 39.2237C44.178 38.7081 43.5374 37.9321 43.1572 37.5519C42.7145 37.1144 42.0166 36.7342 41.4332 36.4894C40.0426 35.9112 38.0374 35.8904 36.652 36.5154C36.2978 36.6717 36.027 36.7758 35.6937 36.9477L35.2301 37.1821C35.0374 37.2862 34.902 37.3279 34.6103 37.3279C34.6103 36.6404 34.9645 35.2602 35.402 34.7758C35.8187 34.3123 36.6728 34.6977 36.9749 34.3956C37.3395 33.6404 36.6416 33.505 36.6259 32.8644C36.9384 32.7914 37.2874 32.7967 37.5999 32.7237C37.7509 32.0675 37.6155 32.3956 37.4853 31.9164C37.3395 31.3904 37.7093 31.6144 38.0166 31.4685C38.2614 30.9633 37.7301 30.8539 37.5322 30.4217C37.4645 30.2758 37.4124 29.9112 37.4801 29.6717C37.6572 29.031 38.2874 29.4529 37.5114 28.4164L36.1884 26.8123C36.0426 26.6456 36.0322 26.6456 35.8447 26.531C34.9176 25.9685 34.5739 27.0154 33.7614 28.1821C33.6259 28.3748 33.6676 28.3696 33.4957 28.5362C33.1937 28.5102 33.1572 28.4321 33.0166 28.2498L32.402 27.6092C30.9176 26.3123 30.5478 27.1873 29.8759 28.4685C29.1624 27.9894 28.1989 26.38 27.1832 27.656C27.0634 27.8123 26.9957 27.8748 26.9489 28.0467C26.6624 27.7185 26.4489 27.3539 26.0634 27.1196C25.8447 26.9894 25.8655 27.0154 25.6259 27.0727C25.6364 26.7602 25.7301 26.6456 25.8343 26.4425C26.6364 26.4425 26.4176 27.1456 27.0426 27.0258C27.4957 26.9321 27.3551 26.7029 27.4957 26.505C27.652 26.281 27.9957 26.3956 28.3395 26.3696C29.3343 26.3071 29.3551 25.6092 29.6832 24.8592C30.4384 23.1092 31.1884 26.8227 32.1468 24.8852L32.7353 23.7967C33.0062 23.3956 33.527 23.7342 33.8655 23.9112C34.2249 24.0987 34.2926 24.0935 34.8187 24.0779C35.9489 24.0467 35.9124 22.9164 36.3499 22.2602C36.652 22.2654 37.2249 22.5102 37.4853 22.656C37.8291 22.8487 38.2562 23.0987 38.5322 22.6352C38.9801 21.8904 38.8499 21.0727 39.7562 21.2914C39.8968 21.3279 39.7614 21.3227 39.902 21.3175C40.3759 21.3071 40.3655 20.4842 40.3864 20.1664C40.4176 19.6456 40.527 19.281 40.3187 18.8383C39.1207 18.8383 39.7405 18.9789 39.1937 17.8019C38.7978 16.9581 38.7405 16.8592 37.8291 17.0623C37.2509 17.1925 37.803 16.1248 37.0687 15.6039C36.5374 15.2289 35.8343 15.63 35.1624 15.63C35.3134 15.3487 35.2197 15.4581 35.4801 15.255L35.8343 14.906C36.9905 13.7394 36.4645 14.1248 36.6364 12.5727C36.6884 12.0675 36.8395 11.9477 36.8343 11.2394C36.8291 9.65082 36.7197 8.66645 36.0062 7.46332C35.1624 6.04145 33.6937 4.42165 32.1937 3.67686C30.0895 2.6352 29.4905 2.59353 27.0895 2.79665C26.8239 2.40082 26.8291 1.78103 26.5739 1.35915C25.6312 -0.172097 23.6884 -0.172097 22.1676 0.234154C20.4541 0.687278 18.8134 1.75499 18.6155 3.36957C18.5739 3.70811 18.5947 4.06228 18.5947 4.40082C18.2405 4.6404 17.9957 4.68207 17.553 4.81749C15.8082 5.34874 16.152 5.39561 14.5426 6.27061C14.2301 6.44249 13.9697 6.65603 13.6832 6.86957C13.3812 7.09353 13.152 7.28624 12.9072 7.56228L12.8447 7.6352C12.8343 7.64561 12.8187 7.66124 12.8082 7.67165C12.7978 7.68207 12.7874 7.6977 12.777 7.70811L11.7666 8.78624C11.7562 8.79665 11.7405 8.81228 11.7301 8.8227L10.527 10.13C10.1416 10.5467 9.75095 10.9894 9.43324 11.4737C9.20928 11.8123 9.00615 12.0362 8.79782 12.3748C8.69365 12.5519 8.63636 12.6248 8.54261 12.8175C8.1624 13.6092 8.2874 13.5935 7.32907 13.8956C6.51657 14.156 5.63115 14.0362 5.0374 14.5987C4.52178 15.0831 4.06345 15.5779 4.04261 16.5362C4.0322 17.1248 3.96449 17.2706 4.0322 17.8748C4.08428 18.3279 4.1572 18.7081 4.32386 19.1196C4.7822 20.2498 5.46449 20.8279 6.4697 21.4373C6.73532 21.5987 7.37074 21.7342 7.44365 21.9946C7.67282 22.7967 7.26657 24.9842 7.7249 26.1092C8.1624 27.1873 9.23532 28.2185 10.1207 28.9373C10.5114 29.2498 11.1103 29.5414 11.3551 29.9998C11.1989 30.2342 10.8239 30.5102 10.5687 30.6821C10.0218 31.0467 8.56345 30.9685 7.9124 30.7967C6.69886 30.4842 3.83949 29.9581 2.7197 29.9269C1.39678 29.8904 1.3499 32.0414 1.18845 32.9321C1.06345 33.6612 0.870738 36.3019 1.23532 37.0727C1.33428 37.2862 1.38636 37.3904 1.52178 37.5571C1.87074 37.9789 2.24574 38.3487 2.63636 38.7394C3.18324 39.2914 3.71449 39.7029 4.4749 39.8956C5.02178 40.0362 5.29261 40.0206 5.74053 39.7967C6.30824 39.5102 7.69886 38.4373 8.15199 38.5102C8.46449 38.5675 8.30824 38.7029 8.18845 38.8904L7.64157 39.8852C7.24574 40.6144 7.10511 41.3904 6.8447 42.156C6.61553 42.8487 6.55303 44.104 6.55303 44.8592C6.55303 46.0206 6.68324 46.6404 7.0374 47.4425C7.68845 48.9008 9.29261 50.104 9.75615 50.7915C9.38636 50.8696 8.99574 50.6404 8.64157 50.5102C8.26136 50.3748 7.88115 50.2862 7.50095 50.1196C7.14678 49.9581 6.75615 49.8696 6.44886 49.6352C5.79261 49.1404 5.25616 48.656 4.41761 48.5362C3.9072 48.4633 3.2822 48.479 2.82386 48.729C2.4124 48.9581 2.00615 49.2081 1.6624 49.5154C1.49053 49.6665 1.36553 49.729 1.2197 49.9112C0.974904 50.2185 0.761363 50.4581 0.579071 50.8019C0.36032 51.2029 0.115529 52.104 0.0790707 52.6092C0.0217787 53.4112 -0.00426329 54.0987 0.00615404 54.9112C0.011362 55.3904 0.11032 56.5206 0.209279 57.005C0.256155 57.2342 0.271779 57.4946 0.329071 57.7237C0.469696 58.281 1.54782 60.2446 2.19886 60.5206C2.90199 60.8175 5.7874 60.8435 6.61032 60.755C8.0374 60.6092 9.35511 59.4321 10.777 58.6508C11.4489 58.281 12.1259 57.9737 12.8655 57.6717C13.152 57.5571 13.8499 57.4425 14.2405 57.5987C14.3916 57.656 14.6051 57.7967 14.7822 57.8175C15.2249 57.88 15.152 57.854 15.4801 57.9581C16.8447 58.4008 18.303 58.3904 19.7093 58.3956C20.3239 58.4008 20.5791 58.255 21.1728 58.255C21.4072 58.6092 21.5999 59.1873 21.7093 59.5987C21.8499 60.1092 21.8603 60.7029 21.8655 61.3279C21.8759 62.104 21.9697 63.0727 22.2874 63.7654C22.8551 64.9894 24.1364 65.8331 25.2926 66.4737C25.5322 66.604 25.6728 66.6821 25.9437 66.7967C28.5791 67.9008 31.0478 67.3383 33.5739 65.4529Z" fill="black"/>
</g>
<mask id="mask1_292_113723" style="mask-type:luminance" maskUnits="userSpaceOnUse" x="0" y="26" width="45" height="42">
<path d="M0 26.2861H44.6146V67.3538H0V26.2861Z" fill="white"/>
</mask>
<g mask="url(#mask1_292_113723)">
<path fill-rule="evenodd" clip-rule="evenodd" d="M2.37589 56.0931C2.37589 55.9004 2.59985 55.7546 2.72485 55.6764C3.0686 56.3275 2.79776 56.8639 3.04776 57.4368C3.17797 57.7285 3.55297 58.1139 3.72485 58.3691C3.86547 58.5827 3.82901 58.3743 3.83422 58.7441C3.30297 58.7441 3.16235 58.6087 2.78735 58.1191C2.26651 57.4368 2.37589 57.0046 2.37589 56.0931ZM4.32381 56.8587C4.73006 56.8691 4.62068 56.8952 4.76651 57.2546C5.05818 57.9785 5.95401 58.6035 5.36547 58.6035C5.08943 58.6035 4.71964 58.1296 4.57901 57.9264C4.36547 57.6191 4.23526 57.2441 4.32381 56.8587ZM28.6884 61.5358C28.6884 61.2858 28.9957 60.7493 29.1155 60.4941C30.1207 58.416 31.8707 56.7389 33.6259 55.2493L33.7405 55.1556C34.3134 54.666 35.5998 53.5827 36.3498 53.5827C37.2196 53.5827 37.3342 54.1296 37.8238 54.8952L38.5426 56.1243C38.6676 56.3639 38.6623 56.265 38.7196 56.5775C38.9228 57.6087 37.8967 58.2441 37.0842 59.0618L36.6155 59.4993C36.4436 59.64 36.4384 59.7077 36.2873 59.8691L35.9748 60.1816C35.5686 60.64 34.0269 61.6191 33.4436 62.1816L32.4384 63.0566C32.1623 63.265 31.9853 63.4473 31.6988 63.6452C31.1676 64.0046 30.0217 63.9629 29.6571 63.7754C29.4957 63.6921 29.3186 63.5306 29.2144 63.3796C28.6363 62.5254 28.6884 62.3171 28.6884 61.5358ZM7.52693 58.1139C7.28214 58.2441 7.21964 58.3014 6.95401 58.14C6.51131 57.8691 5.99568 57.1712 5.99568 56.7181C5.99568 56.5931 6.11026 56.5775 6.23526 56.6087C6.34985 56.6452 6.8811 57.3535 7.19881 57.6764C7.36026 57.8483 7.40193 57.9316 7.52693 58.1139ZM19.0842 53.5827C19.0842 53.4473 19.1051 53.4577 19.1519 53.3743H19.428C19.4384 53.666 19.5009 53.9264 19.5009 54.6296C18.9905 54.6296 19.0842 54.7181 19.0842 53.5827ZM20.4071 52.8118C20.7405 52.7806 20.5842 52.7025 20.7353 52.8379C20.8238 52.916 20.8551 53.0306 20.8863 53.166C20.954 53.4525 20.9644 53.6556 20.9644 53.9993C20.4853 53.9993 20.4071 53.8171 20.4071 52.8118ZM16.579 53.3743C16.579 53.1139 16.7769 52.8535 16.9228 52.7441L16.9957 52.8171C17.079 52.9264 17.0946 52.9577 17.0946 53.0775C17.0946 53.64 16.579 54.3848 16.579 53.3743ZM9.17276 40.7233C9.49047 40.0671 9.52172 39.7806 9.73526 39.3275C9.80297 39.1868 9.82381 39.166 9.92276 39.0306C10.2873 38.5358 10.4905 37.8171 11.3759 37.0671C11.5634 36.9108 11.7353 36.8014 11.9384 36.6556C12.1676 36.4993 12.2665 36.3952 12.5165 36.2598C13.1259 35.9212 13.9696 35.6973 14.6832 35.4993L17.2717 35.166C18.4071 35.166 18.9436 35.2233 20.0269 35.4004C20.4696 35.4733 20.5113 35.4993 21.0321 35.5098C22.0165 35.5306 22.9488 36.0306 23.6259 36.6816L23.8082 36.8483C25.1936 38.1243 24.3603 37.3014 25.4384 38.5618C25.5426 38.6816 25.6103 38.7285 25.7092 38.8483L26.3394 39.7546C26.553 40.1191 26.6988 40.5202 26.8446 40.9212C27.0998 41.6452 27.2978 42.0358 27.2978 43.0462C27.2978 44.6921 27.3186 44.5879 26.8446 45.9421C26.4696 46.9993 26.2509 47.5514 25.4696 48.3327C25.0946 48.7077 24.7457 49.015 24.3603 49.3796C23.8811 49.8275 21.5478 51.0566 20.8759 51.3327C20.4644 51.4993 18.928 51.9056 18.3915 52.0462C18.0582 52.1348 17.7613 52.1191 17.3394 52.1139C15.4176 52.1035 11.8915 50.7025 10.6676 49.1764C8.88631 46.9525 7.84985 43.4577 9.17276 40.7233ZM30.0582 42.9525C30.1415 42.6868 30.1155 42.6973 30.3603 42.6296C30.6571 43.0723 30.4176 43.3952 30.3707 43.6504C30.3134 43.9941 30.329 44.2077 29.954 44.3952C29.2821 44.7285 29.9801 43.1921 30.0582 42.9525ZM40.178 41.3743C40.178 40.8014 40.2248 39.515 40.5582 39.1035C40.7144 38.9108 40.829 38.8639 41.1519 38.8639C42.4384 38.8639 43.2561 41.3952 43.3811 42.4889C43.428 42.9108 43.4644 43.7493 43.3446 44.265C43.2769 44.5514 42.829 45.3587 42.6832 45.5618C42.0165 46.5046 40.6988 46.166 40.4019 45.0514C40.0946 43.9056 40.178 42.5671 40.178 41.3743ZM38.0894 41.166C38.0894 40.8327 38.2353 40.7389 38.5061 40.6764C38.9384 41.3223 38.6051 41.5983 38.7301 42.6243C38.7561 42.8275 38.8498 42.8848 38.7301 43.0671C38.6363 43.2129 38.5009 43.2025 38.3759 43.1191C37.9853 42.8587 38.0894 41.6868 38.0894 41.166ZM36.9748 41.5827C36.9748 41.291 37.0165 41.1452 37.1832 41.0254C37.2978 41.265 37.3134 41.3639 37.3238 41.7233C37.329 42.0775 37.3915 42.0671 37.3915 42.4212C36.8967 42.4108 36.9748 42.1608 36.9748 41.5827ZM28.0634 45.3483C27.9853 45.2181 28.2301 44.9733 28.3863 44.5566C28.5842 44.0202 28.5894 43.2077 28.4853 42.6243C28.4332 42.3431 28.3655 42.265 28.3551 42.015L28.553 41.791C28.8967 41.9733 28.8811 41.9525 29.0165 42.3743C29.2144 42.9889 29.178 43.041 29.178 43.6764C29.178 44.4941 28.3707 45.8691 28.0634 45.3483ZM26.5321 37.5358C26.2196 37.5358 26.2196 37.5514 26.0478 37.8171C26.2926 37.9837 26.1519 38.0254 26.5321 38.0254L26.6728 37.7493L26.5321 37.5358ZM3.83422 36.9108C3.83422 36.4368 4.18839 36.9941 4.26131 37.1139C5.18839 38.7181 5.71443 37.8431 5.71443 38.791C5.18839 38.791 4.89151 38.6296 4.48006 38.2858C3.93839 37.8275 3.83422 37.4733 3.83422 36.9108ZM5.70401 36.4993C5.6936 36.4837 5.65193 36.4368 5.64151 36.4264L5.57901 36.3483C5.53214 36.5566 5.52172 36.5566 5.60506 36.8066C5.61026 36.8275 5.67797 36.9837 5.68318 37.0098C5.75089 37.2077 5.81339 37.4889 5.98006 37.6921C6.07381 37.8066 6.34464 37.9733 6.34464 37.7441C6.34464 37.7025 5.84985 36.6712 5.70401 36.4993ZM6.92797 35.9733C6.9436 35.9889 7.19881 36.2598 7.11026 36.6973C6.92277 36.5775 6.76131 36.4525 6.76131 36.14C6.76131 35.9941 6.78735 36.0462 6.82901 35.8639C6.86547 35.9056 6.84985 35.8691 6.92797 35.9733ZM24.7196 36.0723C24.7196 37.0098 26.2509 35.5827 25.3498 35.5827C25.1519 35.5827 25.0582 35.6348 24.9436 35.7389C24.8863 35.7858 24.7196 36.0046 24.7196 36.0723ZM10.3134 36.4212C10.3134 36.8275 10.7717 36.5306 11.0894 36.1504L11.3863 35.8223C11.5478 35.6296 11.6415 35.6035 11.704 35.3743C11.3811 35.3483 11.5165 35.291 11.2821 35.4368C11.0061 35.6139 10.3134 36.0618 10.3134 36.4212ZM19.428 34.6035C19.5842 34.5723 20.5426 34.4525 20.6571 34.4941C21.0165 34.6296 20.6415 35.0931 20.1988 35.0931C19.8498 35.0931 19.5738 34.8171 19.428 34.6035ZM23.329 35.3743C23.329 35.5775 23.4853 35.6973 23.6988 35.6139C23.9332 35.5254 24.1623 34.9421 24.3446 34.6452C24.5061 34.3848 24.5113 34.4785 24.5113 34.1191C23.6415 33.916 23.329 35.0462 23.329 35.3743ZM15.7405 34.5358C15.7405 34.4264 15.829 34.291 15.8655 34.1712C15.9853 33.7546 15.9957 33.4993 16.5061 33.7702C16.4801 34.9108 15.7405 35.015 15.7405 34.5358ZM29.5269 39.14C29.5269 38.5462 29.8498 37.4264 29.9384 36.765C30.178 34.9785 30.2196 34.6712 30.2196 32.8639C30.2196 32.5358 29.7144 32.7285 29.4384 31.8327L28.9488 30.5775C28.4019 28.9993 28.1676 30.3848 27.4696 30.8066C27.2509 30.9421 26.9853 30.8639 26.8446 30.666C26.7561 30.5462 26.6311 30.1191 26.5946 29.9421C26.0634 27.2962 26.4644 29.0618 25.4853 27.2129C24.8394 27.6504 23.9905 27.5514 23.6051 27.765C23.2092 27.9889 23.3915 29.2337 23.2613 29.791L22.9801 29.9316C22.8811 29.8639 22.8498 29.8431 22.7457 29.7493L22.6415 29.6452C22.6311 29.6348 22.6155 29.6191 22.6051 29.6139C22.4748 29.4941 22.2821 29.3743 22.1259 29.3223C21.8655 29.2389 21.2196 29.166 20.8915 29.166L19.7196 29.9421L18.8863 30.3639C18.7561 30.4316 18.8707 30.3743 18.7509 30.4368C18.1311 30.7598 16.8394 31.1296 16.0946 31.1973C12.3394 31.5358 12.4748 29.9056 11.6519 30.7129C10.4957 31.8431 10.178 31.6764 8.5686 31.6764C7.04777 31.6764 4.31339 30.7702 2.65193 30.7702C2.53214 30.9473 2.5061 30.9108 2.40193 31.1452C2.03214 31.9941 2.04256 32.9368 1.93839 33.8223C1.81339 34.8327 1.64672 36.166 2.20922 37.0723C2.53214 37.5879 3.37068 38.3171 3.86547 38.6921C4.97485 39.5306 5.17276 39.0566 5.57901 38.8639C5.59985 38.8535 5.66235 38.8327 5.68318 38.8275C5.76651 38.791 5.80297 38.7858 5.88631 38.7546C6.74568 38.4004 7.29777 37.6764 8.36026 37.6764C9.36547 37.6764 9.52693 38.3535 9.05818 38.9993C8.65714 39.5566 8.30818 40.2233 8.06339 40.8639C7.98006 41.0879 7.90193 41.3743 7.83422 41.6139C7.59464 42.4577 7.38631 43.041 7.38631 43.9525C7.38631 46.2233 7.2561 46.6556 8.68839 48.4421C9.11547 48.9733 9.55818 49.5358 10.0946 49.9629C10.7821 50.5202 11.6051 51.2546 12.3811 51.6452C12.4644 51.6868 12.6311 51.765 12.7144 51.8014C13.1519 51.9941 13.2144 52.1191 13.6311 52.3483C14.8082 52.9993 15.7405 52.6868 15.7405 53.1608C15.7405 53.7233 14.5634 53.4212 14.2248 53.3535C13.7613 53.2598 13.2665 52.9421 12.8394 52.7181L10.8082 51.6868C10.5478 51.6348 10.2926 51.5827 9.99047 51.5254C9.81339 51.4941 6.96443 50.8014 6.78214 50.7025C6.22485 50.39 5.79776 49.9577 5.26131 49.64C4.72485 49.3171 4.27172 49.2546 3.62589 49.2546C3.02172 49.2546 1.91235 50.2337 1.5686 50.6764C0.552974 51.9785 0.704014 54.3223 0.839431 55.8848C0.896722 56.5098 0.96964 57.0462 1.12589 57.6921C1.24047 58.1868 1.94881 59.2025 2.32381 59.6348C2.55818 59.9108 2.68318 59.8223 3.12068 59.8796C3.40193 59.9108 3.59464 59.9993 3.97485 59.9993H6.62068C6.91756 59.9993 7.79256 59.541 8.03735 59.3952C9.43318 58.5514 9.49047 58.3327 11.1311 57.5462C11.3394 57.4473 11.5373 57.3483 11.7978 57.2337C12.2873 57.015 12.7509 56.7389 13.303 56.7181C13.8707 56.6973 14.6728 56.5879 15.1207 56.7129C15.6051 56.8483 15.3446 56.9473 15.6988 57.1816C16.1936 57.515 17.6155 57.5566 18.2457 57.5566C20.079 57.5566 21.2769 57.6035 22.9488 56.7546C23.3811 56.5358 23.8342 56.3952 24.2821 56.2077C24.6363 56.0566 25.4957 55.6556 25.9071 55.8848C25.803 56.265 25.3759 56.4681 25.0686 56.6452C24.8967 56.7441 24.7248 56.8431 24.5686 56.916C24.3759 57.0098 24.2353 57.0566 24.0373 57.1504C22.2092 58.0358 21.8238 57.7181 22.0738 58.8118C22.5373 58.9212 22.7561 58.7077 23.2457 58.5879C23.7717 58.4577 23.9332 58.3796 24.3759 58.6712C23.9957 59.2389 23.0217 59.0879 22.4957 59.4421C22.5165 59.7129 22.6363 59.8535 22.704 60.14C23.0321 59.9004 23.178 59.5462 23.7457 59.9264C23.6467 60.3118 23.3186 60.3483 22.8446 60.3483C22.8551 60.9316 23.1832 60.8796 23.5373 61.1139C23.4801 61.3691 23.5009 61.416 23.2561 61.4629C23.0478 61.5046 22.8186 61.4525 22.704 61.3952C22.6728 61.7493 22.6363 61.5671 22.6988 61.9525C22.9592 63.5566 23.4123 64.2441 24.7248 65.0879C25.5946 65.6452 26.7717 66.416 27.8551 66.416C28.4176 66.416 29.0998 66.4368 29.6207 66.3066C30.5426 66.0723 31.4696 65.6556 32.3082 65.2285C33.3915 64.6712 34.1728 63.666 35.2144 63.0462C35.5009 62.8744 35.6832 62.6816 35.9748 62.4837C36.6936 61.9889 37.4853 61.4577 38.0217 60.765C38.2092 60.5202 38.4071 60.3066 38.6155 60.0358C39.1311 59.39 39.7613 58.2077 39.7613 57.416C39.7613 55.2181 39.6884 54.7025 38.4801 52.8431C37.928 51.9993 37.7248 51.6712 36.8655 51.041C35.928 50.3483 34.954 50.9681 33.9123 51.0723C32.8603 51.1764 31.6467 51.5098 30.7144 51.9785C30.5165 52.0827 30.2144 52.2129 29.9592 52.2754C29.6519 52.3483 29.4957 52.2546 29.1051 52.2546C28.5009 52.2546 27.0894 53.1504 27.0894 52.5358C27.0894 52.2025 28.0061 51.8796 28.2926 51.7181C29.0269 51.3118 29.2769 50.765 29.7873 50.1452L30.6884 49.0254C30.8446 48.8431 30.9957 48.6608 31.1259 48.4889L31.5738 48.0306C32.6728 47.1035 32.0269 47.5723 32.6051 46.9004C32.9176 46.541 34.0426 45.9368 34.4644 45.765C35.5113 45.3431 36.4853 45.3639 37.5738 45.7233C38.0426 45.8796 38.5009 45.9473 38.9228 46.1191C40.1103 46.6035 41.5738 47.7129 42.6884 46.6087C43.2717 46.0358 43.7769 44.765 43.8863 43.4681C44.0321 41.8118 43.8811 39.1973 42.5165 38.0566L42.1155 37.7598C41.6676 37.4629 41.2353 37.2493 40.7092 37.0723C39.0634 36.5202 37.3967 36.7702 35.8655 37.541C35.4644 37.7441 35.0009 37.8952 34.579 38.0618C34.0686 38.265 34.2873 38.89 33.5634 38.7233C33.579 38.14 33.9123 38.2754 33.6311 37.7441C33.1467 37.8587 32.6259 38.666 32.1415 38.9733C31.1311 39.6191 31.3342 38.0254 31.3342 37.4681C31.1623 37.5566 31.1415 37.5254 31.0217 37.7077C31.0113 37.7233 30.9332 37.8743 30.928 37.89L30.5373 38.6921C30.3446 39.1452 30.4019 38.9108 30.3603 39.4889C30.3238 40.015 29.5269 40.4681 29.5269 39.14Z" fill="#A8804C"/>
</g>
<mask id="mask2_292_113723" style="mask-type:luminance" maskUnits="userSpaceOnUse" x="3" y="0" width="34" height="32">
<path d="M3.55664 0H36.89V31.6198H3.55664V0Z" fill="white"/>
</mask>
<g mask="url(#mask2_292_113723)">
<path fill-rule="evenodd" clip-rule="evenodd" d="M15.3216 28.3963C14.7643 28.3963 14.5768 28.1619 14.2747 27.9119C13.9102 27.5994 13.6602 27.4484 13.6497 27.0057C14.1393 26.813 14.3685 27.1984 14.6445 27.4744C14.9049 27.7349 15.2279 28.0005 15.3216 28.3963ZM11.4206 26.0265C11.8945 26.3442 11.5143 26.3182 12.0299 26.8807C12.2539 27.1255 12.5299 27.4171 12.5352 27.7713C12.2122 27.7609 12.1081 27.6515 11.9414 27.464L11.7799 27.2713C11.707 27.1828 11.6966 27.1619 11.6289 27.0734C11.5143 26.9119 11.4102 26.7921 11.3529 26.5786C11.2747 26.3026 11.3112 26.2349 11.4206 26.0265ZM17.5508 23.4432C17.3164 23.3338 16.957 23.3338 17.2331 22.4328C17.332 22.1151 17.5143 21.6307 17.8112 21.5317C18.0977 21.4328 18.1654 21.5994 18.1237 21.7817C18.082 21.964 17.9466 22.1151 17.8789 22.3078C17.7695 22.6099 17.7018 23.1255 17.5508 23.4432ZM24.9987 21.1463C25.0091 21.1359 25.1029 21.063 25.1185 21.0526C25.4674 20.8286 25.5195 20.9536 25.6966 21.0734C25.6966 21.4328 24.8581 22.3078 24.8581 21.2817L24.9987 21.1463ZM11.5456 21.5786C11.4518 21.5161 11.5091 21.5786 11.3685 21.4744C11.2747 21.4015 11.1445 21.2869 11.1445 21.1411C11.1445 20.9432 11.1654 21.0161 11.2852 20.9328C11.332 21.5213 11.6862 21.1203 11.7018 21.7036L11.5456 21.5786ZM12.3945 18.214C12.3945 17.589 13.9987 16.1515 15.2695 17.5682C15.8112 18.1671 15.8945 18.8755 15.4935 19.5734C15.0768 20.3026 13.7852 20.438 13.1341 19.9171C12.4258 19.3442 12.3945 18.9224 12.3945 18.214ZM11.1445 18.4224C11.1445 18.0005 11.6966 17.5578 11.7799 18.4849C11.8268 19.0057 11.9779 19.3182 11.9779 19.8859C11.5404 19.8859 11.457 19.8234 11.3424 19.4796C11.1549 18.9484 11.1445 18.9692 11.1445 18.4224ZM9.05599 17.2349C9.05599 16.9901 9.10807 16.9276 9.16536 16.7192C9.21224 16.5213 9.22266 16.4119 9.25391 16.2505C9.34245 15.8494 9.51432 15.7869 9.54557 15.4224C9.70182 15.464 9.82161 15.4901 9.82161 15.7036C9.82161 17.589 9.05599 18.0213 9.05599 17.2349ZM6.13411 17.4484C6.13411 16.7453 6.85807 15.8338 7.32682 15.5734C7.6862 15.3703 8.68099 15.1671 8.84766 15.9119C8.89453 16.1255 8.84766 18.5369 8.84766 18.9119C8.84766 19.4588 8.91536 19.7036 8.91536 20.2349C8.4362 20.5578 8.54557 20.4588 8.03516 20.214C7.83203 20.1099 7.77995 20.1255 7.57682 20.0474C7.43099 19.9901 7.29036 19.9171 7.15495 19.839C6.07161 19.2401 6.13411 18.464 6.13411 17.4484ZM17.7591 17.4484C17.7591 18.2817 17.8841 18.2401 18.6341 18.4536C19.4154 18.6724 20.4466 18.9849 21.2852 18.6046C21.7852 18.3755 21.8529 18.6411 22.4414 19.1046C22.9779 19.5265 22.9987 19.7974 22.4154 20.5786C21.7747 21.4276 21.7852 21.5109 20.8841 21.8338C19.4622 22.339 20.0039 22.964 21.0508 22.5578C21.9831 22.1984 22.2383 22.0994 22.7904 21.1671C22.9779 20.8494 23.2174 20.7036 23.3841 20.1515C23.7487 18.964 23.1862 19.8286 24.5456 19.0161C25.3008 18.5578 26.3216 17.7921 26.3216 16.8182C26.3216 16.0994 26.4206 15.8026 25.832 15.4953C25.4206 16.2817 26.3685 16.7974 25.0872 17.8859C24.3372 18.5265 24.4049 18.5474 23.3268 19.1203L22.3008 18.3338C21.6237 17.8338 21.9518 17.9015 21.8581 16.9692C21.7852 16.2713 21.5612 14.5838 20.6133 14.5838C19.5612 14.5838 19.3529 14.6515 18.6914 15.7296C18.4779 16.0838 17.7591 17.1515 17.7591 17.4484ZM24.9987 13.3286C25.6393 12.3703 27.0195 12.5474 27.0195 12.9796C27.0195 13.339 26.4049 13.1359 26.0143 13.2349C25.5039 13.3599 25.2904 13.5005 25.1393 13.5369C25.0716 13.4171 25.082 13.4224 24.9987 13.3286ZM34.8841 12.2817C34.9779 12.6932 34.9154 12.4536 34.8841 12.8442C34.431 12.7349 34.707 12.7817 34.5352 12.4224C34.6654 12.3494 34.7174 12.3234 34.8841 12.2817ZM33.1289 12.339C33.1758 12.2036 33.2174 12.1932 33.3529 12.0734C33.5872 12.2296 33.6445 12.3859 33.6966 12.714C33.7383 13.0005 33.8216 13.3286 33.4935 13.3286C33.2383 13.3286 33.207 12.9067 33.1549 12.688C33.1029 12.4849 33.0872 12.4588 33.1289 12.339ZM20.6133 12.2817C21.0091 12.2505 20.7435 12.1515 20.9779 12.3338C21.0924 12.4224 21.0872 12.4953 21.2591 12.5317C21.6497 12.6046 22.2643 11.8338 22.4779 11.7088C22.7904 11.5213 22.8164 11.6932 23.1758 11.7296L23.2591 12.4224C23.3164 12.8651 22.2695 12.1567 22.2122 12.1463V12.9119C21.3372 12.9328 20.6341 13.3338 20.6133 12.2817ZM19.9154 11.8651C19.9154 12.2817 19.6133 12.2244 19.4622 11.9015C19.3945 11.7557 19.3581 11.6828 19.3581 11.5161C19.3581 11.0786 19.9154 11.3755 19.9154 11.8651ZM20.2643 10.3286C20.3008 9.91193 20.582 9.63068 20.9622 9.84423C20.9622 10.0838 20.957 10.1359 20.4987 10.2869C20.2539 10.3703 20.1602 10.4484 19.9154 10.4692C19.9466 10.0942 20.0404 10.214 20.2643 10.3286ZM26.4622 8.79735C26.0456 8.79735 25.7799 8.5161 25.1393 8.5161C23.8581 8.5161 24.0299 9.25048 23.6081 10.0526C23.5247 10.0109 23.457 9.99527 23.3633 9.94839C21.3841 8.94319 21.5612 10.4953 21.3789 10.6776C21.1185 10.938 20.681 10.4067 20.681 11.5161C20.681 11.9849 21.582 12.0734 21.832 11.7557C22.0247 11.5057 21.8372 11.6411 21.9362 11.3078C21.9779 11.1515 22.056 10.9953 22.1133 10.7869C22.4049 9.70881 22.8737 10.8182 23.6081 10.8182C24.3008 10.8182 24.3685 10.1724 24.4935 9.75568C24.6133 9.36506 24.6341 9.60464 24.7174 9.28693C25.1549 9.28693 25.7174 9.20881 25.9935 9.54735C26.2122 9.81819 25.8112 10.4171 26.6133 11.2921C27.5352 12.2974 29.7695 12.0474 29.4206 10.0942C29.1706 8.69319 27.9518 8.1411 26.9362 8.5786C26.7591 8.65152 26.6237 8.79735 26.4622 8.79735ZM34.2018 8.78173C34.2331 9.04735 34.3945 9.63589 33.9883 9.62027C33.0143 9.58902 33.9206 6.49006 34.2018 8.78173ZM32.5143 7.19318C32.5143 8.0786 33.1445 8.63589 33.1445 7.75048C33.1445 7.53694 33.0404 6.99006 32.5143 7.19318ZM21.6549 8.16714C21.806 7.52652 22.056 7.93277 22.3529 7.46923C22.4779 7.27652 22.4258 7.23485 22.6549 7.0786C23.4414 6.52652 24.332 7.5161 24.0924 7.75048C23.8112 7.86506 23.582 7.61506 23.2852 7.51089C22.8424 7.34943 22.8529 7.51089 22.4206 7.60985C22.9935 8.15152 23.0195 7.99006 23.0508 8.37548C22.7279 8.53173 21.9362 8.58381 21.6549 8.16714ZM31.6133 7.26089C31.6133 7.41714 31.556 7.41194 31.4727 7.54214C31.056 7.50568 31.1289 7.27652 30.7279 6.8911C30.0143 6.20881 30.2174 6.73485 30.2174 6.14631C31.0612 6.05777 31.6133 6.83381 31.6133 7.26089ZM20.1237 5.5161C20.2539 5.45881 22.582 4.85464 22.5195 5.35985C22.4831 5.64631 21.6081 5.69839 21.306 5.72443C20.3581 5.79735 20.2956 5.83902 20.1237 5.5161ZM20.8893 3.84423C20.8893 4.2036 20.9779 5.02652 21.3789 5.02652C21.6706 5.02652 21.4518 4.88068 21.7747 4.72964C21.9414 4.65152 23.3893 4.42756 23.6654 4.3911C24.1029 4.32339 24.5404 4.34943 25.056 4.31818C25.6706 4.28173 25.9727 4.58381 25.9727 3.84423C25.9727 3.53173 25.5456 2.75048 25.1966 2.45881C24.556 1.91193 24.2747 2.03173 23.3268 2.03173C22.5768 2.03173 20.8893 2.86506 20.8893 3.84423ZM19.3581 4.12027C19.3581 4.53693 19.6966 4.07339 20.056 4.60985C19.9206 5.18798 19.5143 5.09423 18.9935 5.21923C15.4258 6.09943 12.2018 8.77652 10.0091 11.7088C9.67057 12.1567 9.20703 12.7088 8.95703 13.1619C8.86849 13.313 8.89453 13.2765 8.81641 13.438C8.30078 14.4953 8.8737 14.1463 7.72266 14.5057C5.26432 15.2765 4.73828 14.5942 4.73828 17.8651C4.73828 19.1203 5.93099 20.4849 7.19661 21.0526C7.51953 21.2036 8.63932 21.0994 8.63932 21.563C8.63932 21.8182 8.35807 21.7713 8.35807 22.188C8.35807 23.8182 8.13412 25.3703 8.91536 26.4484C9.21224 26.8546 10.082 27.7557 10.4779 28.089C10.582 28.1776 10.5612 28.1619 10.6706 28.2453L12.0091 29.2765C12.0977 29.3494 13.7279 30.2505 13.7956 30.2765C14.9466 30.6776 16.3424 30.3911 17.4779 30.0734C17.6497 30.0265 17.6237 30.0161 17.7904 29.9692C17.9518 29.9224 18.0612 29.9119 18.1862 29.8755C18.3737 29.813 19.7643 29.2713 20.0508 29.0213C20.2227 28.8703 20.082 28.938 20.3424 28.8234C21.082 28.5057 20.6185 28.7921 21.7279 28.8182C22.1654 28.8286 22.3477 28.9588 22.7695 28.9588C22.7695 28.2765 22.7174 27.4015 23.207 27.2296C23.4518 27.1411 23.7174 27.1724 23.9935 27.1151C24.1654 27.0786 24.6185 26.964 24.7487 26.8911C25.3581 26.5682 25.0091 25.3963 25.9518 24.2609C26.3529 23.7817 26.3268 23.3442 26.4883 22.9119C26.6029 22.6046 26.9883 21.9171 27.181 21.6567C27.3529 21.4328 27.4727 21.3963 27.7122 21.2817C29.0143 20.6619 28.6393 19.2661 29.7852 18.5474L31.1237 17.9328C31.6602 17.6932 31.9935 17.7817 32.207 17.1359C32.4622 16.3755 32.4102 15.9484 33.4518 15.5213C33.6914 15.4224 33.9362 15.3546 34.1445 15.2401C34.3164 15.1411 34.5143 14.9432 34.6862 14.8078L35.0872 14.438C35.0977 14.4276 35.1133 14.4171 35.1237 14.4067L35.1914 14.3338C36.2383 13.2036 35.5612 13.1671 35.832 12.1151C36.1185 10.9901 36.0352 10.2505 35.7747 9.09423C35.0247 5.82339 31.1497 3.56298 27.8529 3.56298C27.3164 3.56298 26.806 3.74006 26.4466 3.50568C26.2279 3.37027 26.2174 3.30256 26.1602 3.02652C26.1185 2.81818 26.0352 2.55256 25.9935 2.35985C25.8581 1.7661 25.8164 1.67756 25.3945 1.34943C23.9674 0.234852 21.9258 0.948393 20.5352 1.74006C20.1862 1.96923 19.9049 2.28693 19.707 2.65673C19.4414 3.14631 19.3581 3.47964 19.3581 4.12027Z" fill="#A8804C"/>
</g>
<path fill-rule="evenodd" clip-rule="evenodd" d="M13.9318 48.6976C13.9214 48.6924 13.9474 48.6768 13.9526 48.6768L13.9318 48.6976ZM12.0099 48.4581C11.9995 48.4528 11.9839 48.4372 11.9735 48.4268L11.8328 48.2862C11.5985 48.0258 11.3537 47.6664 11.3537 47.2341C11.3537 47.1403 11.4318 47.1299 11.4943 47.0935C11.5151 47.3643 11.7339 47.8174 11.8797 48.031C12.2495 48.5726 12.4422 48.4841 12.3276 48.7706C12.1922 48.6664 12.2547 48.7081 12.1506 48.5987C12.0828 48.531 12.0724 48.5258 12.0099 48.4581ZM13.1662 47.0935C13.0256 47.1612 13.0881 47.1403 12.8849 47.1612C12.9683 48.1664 14.5516 49.307 13.5828 47.8591C13.4266 47.6299 13.2391 47.406 13.1662 47.0935ZM17.3433 46.0466C17.3433 45.8487 17.6922 45.7237 18.1766 45.8383C18.161 46.0518 18.1297 46.1091 17.9839 46.2028C17.786 46.3331 17.3433 46.4372 17.3433 46.0466ZM18.5933 46.8122C18.7495 46.4945 18.5568 46.6039 18.9266 46.4528C19.6193 46.1716 19.8589 45.906 20.2651 45.906C19.8849 46.6351 19.5256 46.8122 18.5933 46.8122ZM19.9891 47.6508C20.6089 47.7966 21.1297 47.1872 21.5464 46.7758C21.7131 46.6091 22.6349 45.3799 22.6349 45.2081C22.6349 44.6299 22.0568 45.3747 21.9839 45.4685C21.7339 45.781 21.5881 45.9216 21.3276 46.2028C21.2599 46.2758 21.2183 46.3331 21.161 46.3903L20.9839 46.557C20.2912 47.182 19.9943 47.2341 19.9891 47.6508ZM24.6401 44.4997C24.8953 43.9268 24.9318 43.2549 24.9318 42.4893C24.9318 42.1039 24.8381 42.0153 24.7808 41.7133C24.7026 41.3174 24.937 41.3799 25.0881 41.6247C25.2599 41.8956 25.3485 42.6768 25.3485 43.1195C25.3485 44.4476 25.187 44.6976 24.4839 45.8747C24.1037 46.5153 22.5464 48.531 21.7287 48.1403C21.8016 47.8539 21.937 47.9164 22.3797 47.4685L22.5464 47.2862C23.0412 46.7445 23.6193 46.1716 24.062 45.5258C24.1401 45.4216 24.2026 45.3018 24.2756 45.182C24.3901 44.9841 24.5672 44.6664 24.6401 44.4997ZM22.6349 39.9789C22.6349 39.7185 22.9318 39.6351 23.187 39.6299C23.1245 39.9164 22.9787 40.1143 22.7026 40.1872C22.6089 40.0049 22.6349 40.2445 22.6349 39.9789ZM21.8641 39.1403C21.8641 38.9008 22.187 38.7445 22.3537 38.6508C22.4474 39.0518 22.286 38.9372 22.286 39.6976C21.9631 39.6716 22.0933 39.6403 21.8641 39.4893V39.1403ZM20.6141 38.3018C20.8172 38.2237 21.0308 38.2289 21.0308 38.5153C21.0308 38.6716 20.9735 38.6664 20.8901 38.7966L20.6141 38.6508V38.3018ZM11.3797 49.2289C11.911 49.6403 12.5985 50.031 13.2287 50.4476C14.5203 51.2862 15.8485 51.4841 17.3433 51.4893C18.1558 51.4945 20.2651 50.906 21.0099 50.557C21.1974 50.4685 21.3433 50.406 21.5308 50.3122C22.6245 49.7914 23.8641 49.0414 24.7026 48.1924C25.8016 47.0778 25.5881 47.5049 26.4214 45.3122C26.7235 44.5153 26.7495 43.4893 26.6297 42.6716C26.5933 42.4164 26.5828 42.1768 26.5412 41.9893C26.4839 41.7393 26.4318 41.656 26.3485 41.4164C25.6453 39.4841 25.9266 40.307 24.9995 39.0049C24.5881 38.4216 23.2756 37.057 22.687 36.7133C21.2912 35.8903 20.7026 36.182 19.5985 35.9737C17.7183 35.6091 15.5151 35.7393 13.7391 36.3695C13.6141 36.4164 13.4631 36.4476 13.3641 36.4841C12.8224 36.656 12.6245 36.8435 12.2026 37.1299C11.3381 37.7237 10.9683 38.2237 10.4943 39.1195C10.3693 39.3591 10.2339 39.4789 10.1297 39.7289C10.0256 39.9685 9.9891 40.1768 9.89014 40.3956C8.74431 42.9528 9.01514 47.3903 11.3797 49.2289Z" fill="#DBB37F"/>
<path fill-rule="evenodd" clip-rule="evenodd" d="M25.9746 25.8855C26.5579 25.9376 26.5788 26.0574 26.9486 26.3074C27.0163 26.0053 27.2142 25.823 27.5215 25.7605C27.7402 25.7137 28.36 25.7449 28.6204 25.7449C28.7298 25.5418 28.8079 25.4428 28.9225 25.2137C29.1465 24.7762 29.3965 23.7918 30.084 23.7918C30.9069 23.7918 30.9329 24.4324 31.5423 24.8387C31.7923 24.3699 31.9538 24.2137 32.1309 23.8959C32.5111 23.2084 32.4329 23.0939 33.2142 23.0939C33.5996 23.0939 34.6569 24.0834 35.36 23.2918C35.8027 22.8022 35.6048 21.7709 36.4902 21.7709C36.8757 21.7709 37.8027 22.4012 38.0163 22.4012C38.334 22.4012 38.5267 21.4741 38.8079 21.1668C39.235 20.7084 39.6361 21.1095 39.8027 20.6303C39.9121 20.323 39.8965 19.8595 39.8965 19.4689C39.6725 19.4168 39.4434 19.3855 39.2871 19.2449C38.8809 18.8907 38.7038 17.448 38.3652 17.448C38.1048 17.448 38.11 17.5522 37.7507 17.5991C37.4746 17.6355 37.4225 17.5887 37.1152 17.5157C36.9954 17.0105 36.9746 16.8334 36.9746 16.1876C36.3652 15.7814 36.2611 16.047 35.3704 16.1147C32.8079 16.3126 33.36 16.5834 32.959 17.5366C32.86 17.7709 32.6413 18.1564 32.4694 18.3022L30.6986 19.0418C30.3184 19.1928 30.1361 19.2397 29.9121 19.5782C29.7246 19.8543 29.5944 20.1043 29.5371 20.4532C29.4434 20.9845 29.3704 20.9272 29.0267 21.2032C28.7767 21.4012 28.6569 21.6095 28.3757 21.8022C27.9694 22.073 27.9017 21.9116 27.6204 22.3751C26.8861 23.5991 27.2038 23.5626 26.86 24.1928C26.6986 24.4845 26.5215 24.6512 26.3027 24.8907C26.0632 25.1668 25.9746 25.3907 25.9746 25.8855Z" fill="#D4CFBD"/>
<path fill-rule="evenodd" clip-rule="evenodd" d="M33.5628 29.0941C33.2034 29.0941 33.1513 29.1253 32.7763 28.766C32.4065 28.4066 32.443 28.2868 31.9013 27.8337C31.8909 27.8232 31.8753 27.8076 31.8649 27.8024C30.1097 26.3597 30.8336 30.5732 29.0784 28.2868C28.3336 27.318 27.693 27.4326 27.1305 28.3701C26.8232 28.8753 26.6618 28.7503 26.8857 29.4378C26.9743 29.7087 27.0159 29.9847 27.2295 30.141C27.5993 30.042 27.7243 29.3493 28.4534 29.2816C29.0263 29.2243 29.2711 29.8545 29.443 30.3597C29.4951 30.5055 29.5055 30.5837 29.5576 30.7399C29.6045 30.8805 29.6774 31.0212 29.7243 31.1253L30.0368 31.8649C30.3336 32.2972 30.917 31.6982 30.917 33.141V34.3285C30.917 34.8962 30.6201 36.2972 30.7763 36.6305C31.2086 36.516 30.9013 36.2139 31.542 36.2139C32.0628 36.2139 31.8909 37.5107 31.8909 38.2347C32.693 38.2191 32.9534 36.6618 34.0524 37.1878C34.0524 36.3597 34.6826 33.9118 36.1409 33.9118H36.3493C36.3493 33.0837 35.3701 32.542 36.9743 32.167C36.6513 31.4951 37.1149 31.1618 37.1357 31.0472C37.2138 30.568 36.3545 30.3024 37.2503 28.9587C37.1357 28.8701 36.917 28.5785 36.8024 28.4274C36.6253 28.1878 36.5628 28.1045 36.3649 27.891C36.1149 27.6305 35.8024 26.9326 35.3753 26.9326C34.9274 26.9326 34.1045 29.0941 33.5628 29.0941Z" fill="#D4CFBD"/>
<path fill-rule="evenodd" clip-rule="evenodd" d="M29.3848 61.8801C29.3848 62.1718 29.4941 62.427 29.6243 62.6197C30.0462 63.2655 29.9889 63.1405 30.8483 63.1405C31.291 63.1405 32.3379 62.0416 32.7285 61.7447L35.2337 59.7916C35.4368 59.6301 35.5618 59.4218 35.7702 59.2135C38.4577 56.5468 38.4889 57.5208 36.9108 54.8333C36.4525 54.052 36.0254 54.1145 35.0202 54.8333C34.8014 54.9947 34.791 55.0624 34.515 55.2343L32.5827 56.9218C31.4681 57.8593 29.3848 60.4635 29.3848 61.8801Z" fill="#DBB37F"/>
<path fill-rule="evenodd" clip-rule="evenodd" d="M41.0839 39.5577C40.8651 40.4848 40.9433 42.4327 40.9433 43.4691C40.9433 44.1983 41.0058 45.3493 41.6412 45.3493C41.8287 45.3493 41.8912 45.3129 41.9953 45.2191C43.1933 44.1618 42.4693 39.6618 41.5318 39.5212C41.3339 39.49 41.2401 39.5004 41.0839 39.5577Z" fill="#DBB37F"/>
<path fill-rule="evenodd" clip-rule="evenodd" d="M20.6829 18.2812H21.3079C21.3079 17.2551 21.3027 16.9999 21.0996 16.052C20.8287 14.8072 19.886 15.026 19.3652 15.9114C19.0162 16.4999 18.2975 17.3645 18.4277 17.6822C18.5162 17.9114 19.511 18.1874 19.7766 18.2135C20.1256 18.2499 20.2662 18.2812 20.6829 18.2812Z" fill="#825A26"/>
<path fill-rule="evenodd" clip-rule="evenodd" d="M6.82813 17.6561C6.82813 18.1405 6.82292 18.6509 7.1875 19.0364C7.23959 19.0936 7.31771 19.1561 7.375 19.1978L7.51042 19.2759C7.8073 19.4426 7.78126 19.4686 8.15105 19.4686V16.1874C7.9323 16.1405 7.86459 16.1041 7.65625 16.2447C7.58334 16.2916 7.53646 16.3489 7.46875 16.4114C7.125 16.7291 6.82813 17.0884 6.82813 17.6561Z" fill="#DBB37F"/>
<path fill-rule="evenodd" clip-rule="evenodd" d="M21.4473 4.11971C22.0098 4.27075 21.7285 4.13013 22.3691 3.99992C23.4421 3.77596 23.8848 3.79159 24.9316 3.70305C24.9316 2.6718 23.8483 2.72909 23.2598 2.72909C22.8483 2.72909 22.39 2.99471 22.1035 3.1718C21.7181 3.41138 21.4473 3.51555 21.4473 4.11971Z" fill="#DBB37F"/>
<path fill-rule="evenodd" clip-rule="evenodd" d="M28.2028 9.42188C27.708 9.42188 27.7966 10.1719 27.833 10.4219C27.8955 10.8906 27.8747 11.2344 28.4111 11.2344C28.682 11.2344 28.8955 10.9792 28.8955 10.6771C28.8955 9.80208 28.8851 9.42188 28.2028 9.42188Z" fill="white"/>
<path fill-rule="evenodd" clip-rule="evenodd" d="M13.4434 18.703C13.4434 19.4686 14.4902 19.8124 14.4902 18.979C14.4902 18.2551 13.4434 17.8488 13.4434 18.703Z" fill="white"/>
</svg>
