<svg width="200" height="134" viewBox="0 0 200 134" fill="none" xmlns="http://www.w3.org/2000/svg">
<mask id="mask0_317_103370" style="mask-type:luminance" maskUnits="userSpaceOnUse" x="0" y="0" width="200" height="134">
<path d="M0 0H199.714V134H0V0Z" fill="white"/>
</mask>
<g mask="url(#mask0_317_103370)">
<path d="M198.953 53.5209C198.833 47.3802 198.594 41.2344 198.386 35.099C198.365 34.4479 198.255 33.7552 198.016 33.1511C197.891 32.8438 197.391 32.6771 197.068 32.4479C197.13 32.4896 197.193 32.5313 197.266 32.5677C197.219 32.2448 197.151 31.9115 197.073 31.5782C197.172 31.5469 197.276 31.4896 197.375 31.4011C198.302 30.5834 197.078 29.7396 196.578 29.0365C195.797 27.9532 194.943 26.9063 194.016 25.9427C188.63 20.3646 183.266 14.75 177.776 9.28649C175.292 6.81253 172.526 4.61982 169.849 2.34378C169.37 1.94274 168.693 1.6042 168.083 1.5469C163.698 1.17711 159.313 0.770862 154.912 0.619821C147.443 0.364613 139.974 0.250029 132.505 0.166696C119.287 0.00523683 106.083 0.49482 92.8803 0.968779C87.8699 1.15107 82.8595 1.40107 77.8491 1.68753C71.7813 2.0417 65.7188 2.44795 59.6616 2.89065C53.8803 3.32295 48.1199 3.89586 42.3386 4.2917C39.5886 4.4792 37.3282 5.59378 35.2188 7.25003C31.7032 10 28.1303 12.6719 24.6355 15.4427C18.0366 20.6771 11.4584 25.9532 5.53134 31.9636C4.71363 32.7969 4.13551 33.6667 4.01051 34.8438C3.78655 36.7813 3.4428 38.7032 3.29697 40.6511C2.42717 52.5782 1.43759 64.4896 0.796967 76.4167C0.0313431 90.8073 -0.041575 105.224 0.432384 119.63C0.526133 122.479 0.619884 125.323 0.734467 128.167C0.791759 129.604 1.01572 129.901 2.35426 130.323C2.72405 130.438 3.11988 130.51 3.50009 130.542C10.3282 131.094 17.1511 131.786 23.9949 132.146C34.9011 132.719 45.8178 133.318 56.7397 133.474C77.0261 133.771 97.323 133.979 117.615 133.813C136.511 133.656 155.396 133.005 174.287 132.484C179.625 132.333 184.969 131.88 190.302 131.51C192.026 131.391 193.734 131.146 195.443 130.865C196.984 130.615 197.714 129.344 197.313 127.406C197.281 127.432 197.25 127.453 197.224 127.474C197.354 126.995 197.438 126.51 197.469 126.01C197.667 125.896 197.849 125.776 197.891 125.62C198.229 124.391 198.589 123.141 198.682 121.875C198.87 119.313 198.912 116.74 198.969 114.172C199.406 93.9584 199.354 73.7396 198.953 53.5209Z" fill="black"/>
</g>
<path d="M197.052 126.26C196.849 125.963 196.479 125.677 196.464 125.375C196.406 123.812 196.411 122.245 196.443 120.687C196.687 106.89 196.937 93.104 197.13 82.2342C196.953 64.6717 196.807 50.031 196.651 35.4008C196.641 34.7342 196.526 34.0571 196.578 33.3956C196.604 33.0623 196.896 32.7602 197.057 32.4373C197.125 32.4842 197.187 32.5258 197.26 32.5623C197.208 32.2394 197.146 31.906 197.068 31.5675C196.714 31.6665 196.354 31.4529 196.016 31.1508C194.573 31.0362 193.052 31.005 191.594 30.9998C191.214 31.656 190.568 31.5987 189.99 31.604C188.255 31.6092 186.526 31.6404 184.802 31.5623C154.839 30.2446 124.854 30.1248 94.8697 30.4321C85.2291 30.531 75.5833 30.7133 65.9531 31.0727C56.151 31.4373 46.3645 32.0727 36.5729 32.6092C29.5104 32.9998 22.4427 33.4373 15.3802 33.8279C14.3802 33.8852 13.375 33.7706 12.3802 33.6769C12.0416 33.6404 11.7239 33.4165 11.401 33.2706C11.4114 33.2446 11.4166 33.2237 11.4218 33.1925C9.7812 33.1196 8.11454 33.1717 6.45829 33.2394C5.92704 33.8748 5.70308 34.5675 5.67183 35.5362C5.54162 39.906 5.23433 44.2498 4.92704 48.5935C4.56766 53.7133 4.0937 58.8383 3.75516 63.9581C2.9687 75.9425 2.39058 87.9373 2.3437 99.9425C2.30725 109.047 2.42183 118.146 2.47391 127.255C2.47391 127.526 2.50516 127.791 2.54162 128.265C8.66141 128.729 14.5989 129.229 20.5416 129.599C27.8854 130.057 35.2291 130.432 42.5729 130.791C46.6406 130.995 50.7083 131.125 54.7708 131.224C76.4531 131.739 98.1406 131.948 119.823 131.64C134.37 131.432 148.922 131.203 163.469 130.854C171.599 130.661 179.729 130.245 187.865 129.87C190.146 129.765 192.411 129.453 194.687 129.276C195.365 129.224 195.818 128.958 196.203 128.411C196.443 128.073 196.807 127.828 197.219 127.484C197.344 127 197.432 126.51 197.458 126.015C197.323 126.094 197.172 126.172 197.052 126.26ZM193.333 76.6613C193.167 88.6717 192.781 100.666 191.74 112.635C191.422 116.25 191.042 119.859 190.667 123.463C190.625 123.896 190.464 124.317 190.323 124.844C188.854 124.953 187.422 125.13 185.99 125.161C142.948 125.979 99.9062 125.791 56.875 125.281C45 125.146 33.125 125.052 21.25 124.844C17.75 124.781 14.2447 124.416 10.75 124.13C9.93225 124.067 8.99995 124.052 8.39579 123.359C8.41662 123.271 8.44266 123.177 8.4687 123.073C8.29162 122.969 8.14058 122.823 7.99995 122.656C7.69787 122.859 7.26558 122.755 7.07808 122.354C6.88537 121.916 6.81245 121.396 6.80725 120.911C6.7812 119.182 6.79162 117.458 6.79162 115.724C5.19266 114.969 4.92704 113.703 4.94266 112.198C4.98433 106.838 4.92704 101.489 4.9635 96.13C4.9687 94.5831 5.05725 94.5831 6.66662 94.0519C6.66662 93.5988 6.67183 93.104 6.66662 92.604C6.59891 86.9113 6.52079 81.2185 6.4687 75.5206C6.4635 74.5206 6.52599 73.5154 6.57287 72.5154C6.57808 72.2915 6.69787 72.005 6.60412 71.8644C5.60412 70.3175 6.01558 68.604 6.0885 66.9633C6.27079 62.9477 6.57808 58.9425 6.82287 54.9321C6.88016 53.9894 6.97391 53.104 8.401 53.0258C8.401 50.0987 8.39579 47.255 8.401 44.406C8.401 43.1769 8.42183 41.9529 8.44266 40.7237C8.45308 40.4998 8.4687 40.281 8.51037 40.0623C8.63016 39.5258 8.7187 38.8279 9.41141 38.8487C9.47912 38.8487 9.53641 38.854 9.5885 38.8696C9.67704 38.6092 9.85412 38.406 10.0729 38.2915C10.0104 38.2133 9.94266 38.1144 9.88016 37.9998C10.3333 37.9529 10.7864 37.8852 11.2447 37.8696C15.5885 37.755 19.9322 37.7029 24.276 37.5258C28.8385 37.3383 33.401 36.9581 37.9635 36.7915C49.8333 36.354 61.6927 35.7915 73.5677 35.63C89.5625 35.4217 105.568 35.4894 121.568 35.5623C130.484 35.604 139.411 35.8331 148.328 36.0935C155.292 36.2915 162.245 36.6456 169.208 36.9842C175.5 37.2915 181.786 37.6769 188.078 38.0467C189.13 38.1144 190.172 38.3279 191.229 38.4008C192.141 38.4685 192.427 38.8904 192.469 39.7915C193.12 52.0883 193.505 64.3696 193.333 76.6613Z" fill="#5A5B5D"/>
<path d="M6.46362 33.2499C6.60425 33.0728 6.78133 32.9009 6.97404 32.7186C15.3438 25.2395 24.1876 18.3541 33.1042 11.552C35.2292 9.93219 37.2813 8.21344 39.3178 6.47907C39.8542 6.02073 40.3907 5.98948 41.0053 5.95302C47.0053 5.56761 53.0157 5.16656 59.0157 4.78115C65.5782 4.36448 72.1407 3.91136 78.7084 3.58844C85.6095 3.2499 92.5209 3.05719 99.4272 2.78115C111.516 2.30719 123.615 2.05719 135.714 2.23427C142.172 2.33844 148.641 2.59886 155.104 2.79157C158.943 2.90615 162.792 3.14052 166.636 3.10927C167.854 3.09886 168.688 3.35407 169.557 4.17177C177.172 11.3124 184.458 18.7707 191.5 26.4843C192.708 27.802 193.943 29.0884 195.219 30.3384C195.464 30.578 195.74 30.9009 196.031 31.1561C194.589 31.0416 193.068 31.0155 191.609 31.0051C191.646 30.9426 191.682 30.8801 191.708 30.7968C190.734 30.0416 189.578 30.1666 188.521 30.1093C183.182 29.8332 177.839 29.5311 172.49 29.4322C158.005 29.1666 143.516 28.9009 129.021 28.828C106.109 28.7082 83.2084 29.0207 60.323 30.0051C53.1407 30.3176 45.9636 30.6822 38.7917 31.1353C29.8386 31.703 20.922 32.7134 11.9428 32.7916C11.797 32.7916 11.6563 32.8905 11.5105 32.9426C11.4897 33.0311 11.4584 33.1145 11.4376 33.203C9.78654 33.1457 8.13029 33.1874 6.46362 33.2499Z" fill="#4D4D4F"/>
<path d="M9.802 122.922C18.8593 123.792 27.9583 123.594 37.0416 123.615C74.3385 123.708 111.63 123.849 148.937 123.844C161.979 123.844 175.026 123.453 188.062 123.24C188.286 123.234 188.5 123.203 188.797 123.177C191.687 95.474 191.896 67.7188 190.963 39.7969C190.109 39.7969 189.224 39.8386 188.359 39.7917C182.901 39.4896 177.453 39.1667 171.995 38.8646C167.323 38.6042 162.646 38.2865 157.969 38.1146C136.854 37.3229 115.724 36.8646 94.5937 36.9115C80.6614 36.9479 66.7187 37.1563 52.7916 37.4792C43.9895 37.6875 35.1926 38.2552 26.401 38.6459C22.9478 38.7969 19.4947 38.9531 16.0416 39C14.2603 39.0209 12.4791 38.8177 10.7083 38.6823C10.4895 38.6667 10.2812 38.5469 10.0885 38.3021C9.8645 38.4219 9.69263 38.6198 9.59888 38.875C10.2603 39 10.2916 39.6771 10.2551 40.2344C9.97909 44.4063 9.68742 48.5781 9.39054 52.75C9.38533 52.8021 9.40096 52.8594 9.40617 52.9167C9.46867 52.9948 9.52075 53.125 9.60929 53.1563C11.3905 53.75 11.927 53.4115 11.7447 56.4063C11.5312 60.0781 11.1822 63.75 10.8801 67.4167C10.7968 68.3594 10.7499 69.3073 10.6145 70.25C10.3853 71.8959 10.026 72.2552 8.22909 72.6979C8.1145 79.9011 7.99471 87.1302 7.87492 94.3177C8.40617 94.7292 9.04159 94.9948 9.29679 95.4688C9.59888 96.0209 9.677 96.75 9.677 97.4011C9.68742 102.151 9.67179 106.891 9.6145 111.635C9.59888 112.578 9.39054 113.521 9.24992 114.458C9.20304 114.729 9.177 115.135 8.99992 115.234C7.79159 115.948 8.20304 117.026 8.27075 118.042C8.34367 119.036 8.40617 120.047 8.43221 121.047C8.43742 121.479 8.40617 121.953 8.24471 122.349C8.18742 122.49 8.09367 122.594 7.98429 122.667C8.13013 122.828 8.28117 122.969 8.45304 123.083C8.46867 123.026 8.47909 122.974 8.49471 122.917C8.93221 122.917 9.36971 122.88 9.802 122.922ZM136.255 100.813C136.281 88.6979 136.406 76.5781 136.578 64.4688C136.625 61.349 136.963 58.2344 137.198 55.1094C137.312 53.6146 137.463 53.4323 138.885 53.1823C140.25 52.9427 141.615 52.6511 142.99 52.6094C152.849 52.3334 162.713 52.0886 172.568 51.8959C174.682 51.8542 176.797 52.0521 178.917 52.1459C179.635 52.1771 180.302 52.3177 180.906 53.1459C181.213 53.2396 181.474 53.4219 181.635 53.6771C181.651 53.6094 181.667 53.5365 181.682 53.4636C182.01 53.5729 182.536 53.5834 182.635 53.8021C183.031 54.6406 183.495 55.5365 183.562 56.4323C183.875 60.6615 184.271 64.9011 184.266 69.1354C184.26 81.0261 184.078 92.9219 183.943 104.813C183.922 106.375 183.771 107.932 183.62 109.49C183.391 111.891 182.318 112.729 179.948 112.844C166.411 113.479 152.885 112.557 139.344 112.625C138.583 112.63 137.823 112.5 137.083 112.438C136.328 108.49 136.25 104.641 136.255 100.813ZM179.297 54.125C178.875 54.224 178.406 54.1771 177.963 54.1459C167.151 53.4896 156.344 54.0677 145.531 54.1771C143.365 54.1979 141.203 54.1771 138.948 54.1771C138.906 54.4323 138.833 54.6979 138.823 54.9584C138.198 72.375 138.094 89.7917 138.62 107.214C138.656 108.432 138.505 109.651 138.437 110.969C138.755 111 139.073 111.047 139.396 111.047C148.312 111.01 157.229 110.964 166.146 110.938C170.38 110.932 174.615 110.99 178.854 111.01C180.745 111.021 181.25 110.594 181.359 108.708C181.578 105.083 181.838 101.469 181.911 97.8438C182.078 89.1302 182.198 80.4219 182.224 71.7136C182.24 66.5156 182.062 61.3229 181.937 56.1406C181.927 55.5417 181.646 54.9584 181.568 54.3646C181.536 54.1406 181.594 53.9115 181.651 53.6771C181.484 53.4219 181.229 53.2396 180.922 53.1459C180.984 53.2344 181.047 53.3334 181.115 53.4323C180.375 53.724 179.849 53.9948 179.297 54.125ZM142.036 68.5261C142.172 65.4584 142.276 62.3959 142.391 59.3334C142.458 57.5417 142.646 57.3177 144.432 57.2396C152.667 56.875 160.906 56.7084 169.141 57.0729C171.193 57.1667 173.26 57.1406 175.312 57.224C176.354 57.2656 177.385 57.4479 178.615 57.5834C178.74 58.5938 178.901 59.3542 178.911 60.125C178.937 63.1875 178.937 66.25 178.901 69.3229C178.885 70.7396 178.427 71.1667 176.948 71.1927C175.286 71.224 173.609 71.1719 171.937 71.1511C163.979 71.0365 156.021 70.9271 148.062 70.7969C146.615 70.7761 145.161 70.7396 143.724 70.5886C142.156 70.4219 141.974 70.0834 142.036 68.5261ZM179.417 101.599C179.411 103.656 179.203 105.724 178.979 107.776C178.797 109.474 178.417 109.703 176.677 109.661C171.161 109.521 165.641 109.396 160.13 109.255C160.13 109.276 160.13 109.292 160.13 109.313C154.672 109.141 149.208 108.969 143.75 108.797C143.474 108.792 143.193 108.792 142.922 108.766C141.745 108.667 141.568 108.531 141.479 107.38C141.396 106.438 141.349 105.479 141.354 104.536C141.406 96.1667 141.453 87.7865 141.562 79.4167C141.583 77.8594 141.786 76.3021 142.021 74.7552C142.229 73.3854 142.375 73.2917 143.74 73.2292C147.135 73.0729 150.531 72.8177 153.927 72.849C161.391 72.9219 168.859 73.1302 176.323 73.3125C179.031 73.3802 179.37 73.6146 179.391 76.3021C179.463 84.7396 179.453 93.1667 179.417 101.599ZM177.224 108.286C173.948 108.177 170.838 108.083 167.557 107.979C167.667 105.745 167.776 103.698 167.88 101.453C168.542 101.453 169.13 101.453 169.729 101.453C171.177 101.453 172.625 101.479 174.073 101.422C174.557 101.401 175.031 101.167 175.771 100.943C174.427 99.6979 173.088 100.208 171.896 100.057C170.63 99.8907 169.354 99.8854 167.984 99.7969C167.984 97.3334 167.984 94.9532 167.984 92.474C170.354 92.1146 172.786 92.6927 175.141 92C174.141 91.0834 172.927 91.1615 171.766 91.1094C170.552 91.0573 169.333 91.0938 167.995 91.0938C167.995 88.4636 167.995 85.9792 167.995 83.349C168.479 83.3177 168.953 83.2604 169.427 83.2604C171.437 83.2761 173.437 83.3177 175.448 83.3125C175.953 83.3125 176.453 83.1407 177.057 83.0261C176.646 81.9844 175.937 82.0469 175.297 82.0157C173.401 81.9167 171.516 81.8386 169.62 81.7448C169.125 81.724 168.63 81.6875 168.078 81.6511C167.594 79.625 168.318 77.4427 167.213 75.3229C166.224 76.4531 166.734 77.5469 166.646 78.5209C166.562 79.5104 166.625 80.5 166.625 81.5313C162.604 81.5313 158.792 81.5313 154.958 81.5313C154.823 79.25 154.703 77.1042 154.557 74.9636C154.557 74.9167 154.38 74.8854 154.182 74.8021C153.516 75.7761 153.729 76.9167 153.615 77.9844C153.495 79.0834 153.5 80.2032 153.443 81.474C152.901 81.5209 152.427 81.599 151.943 81.6094C149.771 81.6511 147.594 81.6563 145.427 81.7084C144.849 81.724 144.203 81.6094 143.745 82.2969C144.198 82.9219 144.838 82.8594 145.411 82.875C147.411 82.9115 149.422 82.9167 151.432 82.9375C151.979 82.9479 152.526 82.9375 153.109 82.9375C153.109 85.6719 153.109 88.2552 153.109 90.9584C149.875 90.9584 146.812 90.9584 143.75 90.9584C143.729 91.0677 143.703 91.1771 143.682 91.2813C143.984 91.4271 144.271 91.6615 144.578 91.6875C146.469 91.8282 148.354 91.9375 150.25 92.0209C151.083 92.0573 151.917 92.0313 152.703 92.0313C153.115 93.1979 153.099 97.4948 152.698 99.5104C151.182 99.5625 149.625 99.5834 148.083 99.6771C146.615 99.7604 145.115 99.5104 143.604 100.005C143.818 100.75 144.354 100.719 144.818 100.74C146.76 100.833 148.713 100.906 150.667 100.969C151.328 100.995 151.99 100.969 152.76 100.969C152.76 103.271 152.76 105.417 152.76 107.677C149.422 107.677 146.109 107.677 142.781 107.677C142.448 106.604 142.838 82.1979 143.328 74.4792C143.719 74.4219 144.135 74.3125 144.557 74.3073C152.198 74.099 159.828 74.1042 167.458 74.4636C170.896 74.625 174.359 74.4948 177.948 74.4948C178.042 75.2292 178.198 75.8177 178.177 76.4011C177.911 86.7865 177.63 97.1667 177.344 107.547C177.359 107.745 177.286 107.953 177.224 108.286ZM154.745 83.1198C158.807 83.1198 162.562 83.1198 166.396 83.1198C166.396 85.8021 166.396 88.3282 166.396 90.9427C162.484 90.9427 158.729 90.9427 154.88 90.9427C154.479 89.6563 154.786 88.3282 154.76 87.0157C154.724 85.7448 154.745 84.4688 154.745 83.1198ZM154.677 99.4584C154.677 96.9584 154.677 94.6927 154.677 92.1875C158.542 92.1667 162.297 92.1615 166.036 92.3021C166.401 93.5469 166.411 97.7917 166.036 99.7865C162.302 99.6823 158.547 99.5782 154.677 99.4584ZM154.307 107.755C154.422 105.516 154.521 103.422 154.63 101.328C156.016 100.901 163.271 101.016 166.088 101.526C166.088 103.547 166.088 105.589 166.088 107.745C162.109 107.755 158.213 107.755 154.307 107.755ZM7.7395 114.135C6.85929 114.047 6.54158 113.74 6.53638 113.146C6.427 107.531 6.32804 101.911 6.22388 96.2969C6.22388 96.1927 6.29679 96.0886 6.33325 95.9844C7.92179 96.0886 7.99471 96.0886 7.97909 97.5052C7.93742 101.344 7.81763 105.177 7.74992 109.021C7.71346 110.688 7.7395 112.349 7.7395 114.135ZM8.18742 70.4167C7.74992 69.1771 7.86971 59.0104 8.33846 54.4792C8.90617 54.5834 9.45825 54.6875 9.96867 54.7865C10.177 57.1042 8.83846 69.0625 8.18742 70.4167Z" fill="#A7A9AC"/>
<path d="M143.536 69.3594C143.536 65.7031 143.536 62.0417 143.536 58.2761C154.911 57.9427 166.187 58.3906 177.609 58.9375C177.651 59.2761 177.755 59.6979 177.74 60.1146C177.677 62.5677 177.583 65.0209 177.51 67.474C177.495 68.0209 177.51 68.5677 177.51 69.3542C166.286 69.3594 155.01 69.3594 143.536 69.3594Z" fill="#00B6B9"/>
</svg>
