<svg width="58" height="68" viewBox="0 0 58 68" fill="none" xmlns="http://www.w3.org/2000/svg">
<mask id="mask0_292_113715" style="mask-type:luminance" maskUnits="userSpaceOnUse" x="0" y="0" width="58" height="68">
<path d="M0 0.0205078H57.2604V67.3538H0V0.0205078Z" fill="white"/>
</mask>
<g mask="url(#mask0_292_113715)">
<path d="M56.4954 27.7184C56.9017 28.6403 57.0319 30.0153 56.1986 30.8747V35.7653C56.1986 38.6351 55.4382 41.4268 54.0319 43.8747L54.1673 43.8955L56.1986 54.958C56.1986 56.3226 55.6673 57.6351 54.7142 58.6143L49.0684 64.307C47.459 65.9632 45.2507 66.8955 42.9434 66.8955H14.9329C12.4329 66.8955 10.4017 64.8747 10.4017 62.3799L11.1986 57.0361C12.0892 51.0101 10.0892 41.0413 4.88086 37.6455L4.88607 37.6507C3.82357 37.1768 3.08398 36.1143 3.08398 34.8799V17.9684L3.24023 17.7497H0.505859L0.542318 15.5153L0.578776 15.4788H0.505859L0.646484 15.4111L15.3757 0.458008H30.4694V2.72884L29.1725 4.03613V23.458L54.2142 23.5309C56.459 23.4841 57.7038 25.9945 56.4746 27.7236L56.4954 27.7184Z" fill="#EDEDE2"/>
</g>
<path d="M18.3379 7.47884C18.3379 8.11426 17.3483 8.62467 16.1296 8.62467C14.9056 8.62467 13.916 8.11426 13.916 7.47884C13.916 6.84863 14.9056 6.33301 16.1296 6.33301C17.3483 6.33301 18.3379 6.84863 18.3379 7.47884Z" fill="#C2BBA8"/>
<mask id="mask1_292_113715" style="mask-type:luminance" maskUnits="userSpaceOnUse" x="0" y="0" width="58" height="68">
<path d="M0 0H57.7396V67.3542H0V0Z" fill="white"/>
</mask>
<g mask="url(#mask1_292_113715)">
<path d="M57.151 24.9427C56.6302 23.7604 55.5104 23.0417 54.2188 23.0677L29.6354 23V4.22396L30.9271 2.91667V0H15.1771L0.078125 15.3229L0.03125 18.2083H2.61979V34.8802C2.61979 36.276 3.44271 37.474 4.63021 38.0365C6.89062 39.5104 8.75521 42.5104 9.88021 46.4792C10.875 49.9792 11.1927 53.901 10.7396 56.9688L9.94792 62.3125L9.94271 62.3802C9.94271 65.125 12.1771 67.3542 14.9323 67.3542H42.9427C45.3594 67.3542 47.7135 66.3646 49.3958 64.6354L55.0469 58.9375C56.0885 57.8646 56.6615 56.4479 56.6615 54.9583V54.9167L54.6198 43.8125L54.599 43.8177C55.9427 41.3698 56.6615 38.6198 56.6615 35.7656V31.0469C57.4635 30.0729 57.3698 28.724 57.0052 27.75C57.5 26.901 57.5625 25.8802 57.151 24.9427ZM30.0052 2.53646L16.0573 16.625V15.6719L30.0052 1.58333V2.53646ZM28.7083 5.16146V23.2708L15.276 36.7917V18.2083H15.7917L28.7083 5.16146ZM15.5677 0.921875H29.3594L15.401 15.0208H1.67708L15.5677 0.921875ZM0.973958 17.2865L0.994792 15.9427H15.1354V17.2865H0.973958ZM3.54688 34.8802V18.2083H14.349V37.4479H6.11979C4.70313 37.4479 3.54688 36.2969 3.54688 34.8802ZM45.6302 65.9688C44.7708 66.2708 43.8646 66.4323 42.9427 66.4323H14.9323C12.7031 66.4323 10.8854 64.6354 10.8646 62.4115L11.651 57.1042C12.4375 51.8021 10.9896 42.6823 6.51563 38.375H14.349V41.2396C14.349 47.5417 19.4948 52.6719 25.8177 52.6719H37.2135C40.4219 52.6719 43.151 52.4323 45.6354 51.5677L45.6302 65.9688ZM55.7396 55C55.7292 56.2344 55.2448 57.4063 54.3854 58.2917L48.7344 63.9896C48.099 64.6406 47.3594 65.1771 46.5521 65.5781L46.5573 51.2135C48.4479 50.4167 50.2031 49.2083 51.9427 47.4115C52.6771 46.6563 53.3281 45.8438 53.8958 44.9844L55.7396 55ZM55.7396 35.7656C55.7396 39.8906 54.151 43.8021 51.276 46.7708C47.2448 50.9323 43.0677 51.75 37.2135 51.75H25.8177C20.0052 51.75 15.276 47.0313 15.276 41.2396V41.1927H42.2604C45.1094 41.1927 47.8802 40.0208 49.8542 37.9792L55.7396 32V35.7656ZM55.8698 30.5521L49.1927 37.3333C47.3854 39.1979 44.8594 40.2708 42.2604 40.2708H15.276V38.375H42.2604C45.1094 38.375 47.8802 37.2031 49.8542 35.1615L56.2917 28.6198C56.4271 29.3125 56.3438 30.0573 55.8698 30.5521ZM55.8698 27.7292L49.1927 34.5156C47.3854 36.3802 44.8594 37.4479 42.2604 37.4479H15.9219L29.3646 23.9219L54.224 23.9948C55.3177 23.9688 56.0156 24.6615 56.3021 25.3125C56.5885 25.9688 56.625 26.9479 55.8698 27.7292ZM18.8021 7.47917C18.8021 6.5625 17.651 5.86979 16.1302 5.86979C14.6042 5.86979 13.4531 6.5625 13.4531 7.47917C13.4531 8.39583 14.6042 9.08854 16.1302 9.08854C17.651 9.08854 18.8021 8.39583 18.8021 7.47917ZM14.3802 7.47917C14.3802 7.23958 15.0417 6.79688 16.1302 6.79688C17.2135 6.79688 17.875 7.23958 17.875 7.47917C17.875 7.71875 17.2135 8.16146 16.1302 8.16146C15.0417 8.16146 14.3802 7.71875 14.3802 7.47917Z" fill="#32312B"/>
</g>
</svg>
