<svg width="221" height="144" viewBox="0 0 221 144" fill="none" xmlns="http://www.w3.org/2000/svg">
<mask id="mask0_317_103321" style="mask-type:luminance" maskUnits="userSpaceOnUse" x="21" y="0" width="200" height="134">
<path d="M21 0H220.714V134H21V0Z" fill="white"/>
</mask>
<g mask="url(#mask0_317_103321)">
<path d="M219.953 53.5209C219.833 47.3802 219.594 41.2344 219.386 35.099C219.365 34.4479 219.255 33.7552 219.016 33.1511C218.891 32.8438 218.391 32.6771 218.068 32.4479C218.13 32.4896 218.193 32.5313 218.266 32.5677C218.219 32.2448 218.151 31.9115 218.073 31.5782C218.172 31.5469 218.276 31.4896 218.375 31.4011C219.302 30.5834 218.078 29.7396 217.578 29.0365C216.797 27.9532 215.943 26.9063 215.016 25.9427C209.63 20.3646 204.266 14.75 198.776 9.28649C196.292 6.81253 193.526 4.61982 190.849 2.34378C190.37 1.94274 189.693 1.6042 189.083 1.5469C184.698 1.17711 180.313 0.770862 175.912 0.619821C168.443 0.364613 160.974 0.250029 153.505 0.166696C140.287 0.00523683 127.083 0.49482 113.88 0.968779C108.87 1.15107 103.859 1.40107 98.8491 1.68753C92.7813 2.0417 86.7188 2.44795 80.6616 2.89065C74.8803 3.32295 69.1199 3.89586 63.3386 4.2917C60.5886 4.4792 58.3282 5.59378 56.2188 7.25003C52.7032 10 49.1303 12.6719 45.6355 15.4427C39.0366 20.6771 32.4584 25.9532 26.5313 31.9636C25.7136 32.7969 25.1355 33.6667 25.0105 34.8438C24.7866 36.7813 24.4428 38.7032 24.297 40.6511C23.4272 52.5782 22.4376 64.4896 21.797 76.4167C21.0313 90.8073 20.9584 105.224 21.4324 119.63C21.5261 122.479 21.6199 125.323 21.7345 128.167C21.7918 129.604 22.0157 129.901 23.3543 130.323C23.7241 130.438 24.1199 130.51 24.5001 130.542C31.3282 131.094 38.1511 131.786 44.9949 132.146C55.9011 132.719 66.8178 133.318 77.7397 133.474C98.0261 133.771 118.323 133.979 138.615 133.813C157.511 133.656 176.396 133.005 195.287 132.484C200.625 132.333 205.969 131.88 211.302 131.51C213.026 131.391 214.734 131.146 216.443 130.865C217.984 130.615 218.714 129.344 218.313 127.406C218.281 127.432 218.25 127.453 218.224 127.474C218.354 126.995 218.438 126.51 218.469 126.01C218.667 125.896 218.849 125.776 218.891 125.62C219.229 124.391 219.589 123.141 219.682 121.875C219.87 119.313 219.912 116.74 219.969 114.172C220.406 93.9584 220.354 73.7396 219.953 53.5209Z" fill="black"/>
</g>
<path d="M218.052 126.26C217.849 125.964 217.479 125.677 217.464 125.375C217.406 123.813 217.411 122.245 217.443 120.688C217.687 106.891 217.937 93.1042 218.13 82.2344C217.953 64.6719 217.807 50.0313 217.651 35.4011C217.641 34.7344 217.526 34.0573 217.578 33.3959C217.604 33.0625 217.896 32.7605 218.057 32.4375C218.125 32.4844 218.187 32.5261 218.26 32.5625C218.208 32.2396 218.146 31.9063 218.068 31.5677C217.714 31.6667 217.354 31.4532 217.016 31.1511C215.573 31.0365 214.052 31.0052 212.594 31C212.214 31.6563 211.568 31.599 210.99 31.6042C209.255 31.6094 207.526 31.6407 205.802 31.5625C175.839 30.2448 145.854 30.125 115.87 30.4323C106.229 30.5313 96.5833 30.7136 86.9531 31.073C77.151 31.4375 67.3645 32.073 57.5729 32.6094C50.5104 33 43.4427 33.4375 36.3802 33.8282C35.3802 33.8855 34.375 33.7709 33.3802 33.6771C33.0416 33.6407 32.7239 33.4167 32.401 33.2709C32.4114 33.2448 32.4166 33.224 32.4218 33.1927C30.7812 33.1198 29.1145 33.1719 27.4583 33.2396C26.927 33.875 26.7031 34.5677 26.6718 35.5365C26.5416 39.9063 26.2343 44.25 25.927 48.5938C25.5677 53.7136 25.0937 58.8386 24.7552 63.9584C23.9687 75.9427 23.3906 87.9375 23.3437 99.9427C23.3072 109.047 23.4218 118.146 23.4739 127.255C23.4739 127.526 23.5052 127.792 23.5416 128.266C29.6614 128.729 35.5989 129.229 41.5416 129.599C48.8854 130.057 56.2291 130.432 63.5729 130.792C67.6406 130.995 71.7083 131.125 75.7708 131.224C97.4531 131.74 119.141 131.948 140.823 131.641C155.37 131.432 169.922 131.203 184.469 130.854C192.599 130.661 200.729 130.245 208.865 129.87C211.146 129.766 213.411 129.453 215.687 129.276C216.365 129.224 216.818 128.958 217.203 128.411C217.443 128.073 217.807 127.828 218.219 127.484C218.344 127 218.432 126.51 218.458 126.016C218.323 126.094 218.172 126.172 218.052 126.26ZM214.333 76.6615C214.167 88.6719 213.781 100.667 212.74 112.635C212.422 116.25 212.042 119.859 211.667 123.464C211.625 123.896 211.464 124.318 211.323 124.844C209.854 124.953 208.422 125.13 206.99 125.161C163.948 125.979 120.906 125.792 77.875 125.281C66 125.146 54.125 125.052 42.25 124.844C38.75 124.781 35.2447 124.417 31.75 124.13C30.9322 124.068 30 124.052 29.3958 123.359C29.4166 123.271 29.4427 123.177 29.4687 123.073C29.2916 122.969 29.1406 122.823 29 122.656C28.6979 122.859 28.2656 122.755 28.0781 122.354C27.8854 121.917 27.8125 121.396 27.8072 120.911C27.7812 119.182 27.7916 117.458 27.7916 115.724C26.1927 114.969 25.927 113.703 25.9427 112.198C25.9843 106.839 25.927 101.49 25.9635 96.1302C25.9687 94.5834 26.0572 94.5834 27.6666 94.0521C27.6666 93.599 27.6718 93.1042 27.6666 92.6042C27.5989 86.9115 27.5208 81.2188 27.4687 75.5209C27.4635 74.5209 27.526 73.5157 27.5729 72.5157C27.5781 72.2917 27.6979 72.0052 27.6041 71.8646C26.6041 70.3177 27.0156 68.6042 27.0885 66.9636C27.2708 62.948 27.5781 58.9427 27.8229 54.9323C27.8802 53.9896 27.9739 53.1042 29.401 53.0261C29.401 50.099 29.3958 47.2552 29.401 44.4063C29.401 43.1771 29.4218 41.9532 29.4427 40.724C29.4531 40.5 29.4687 40.2813 29.5104 40.0625C29.6302 39.5261 29.7187 38.8282 30.4114 38.849C30.4791 38.849 30.5364 38.8542 30.5885 38.8698C30.677 38.6094 30.8541 38.4063 31.0729 38.2917C31.0104 38.2136 30.9427 38.1146 30.8802 38C31.3333 37.9532 31.7864 37.8855 32.2447 37.8698C36.5885 37.7552 40.9322 37.7032 45.276 37.5261C49.8385 37.3386 54.401 36.9584 58.9635 36.7917C70.8333 36.3542 82.6927 35.7917 94.5677 35.6302C110.562 35.4219 126.568 35.4896 142.568 35.5625C151.484 35.6042 160.411 35.8334 169.328 36.0938C176.292 36.2917 183.245 36.6459 190.208 36.9844C196.5 37.2917 202.786 37.6771 209.078 38.0469C210.13 38.1146 211.172 38.3282 212.229 38.4011C213.141 38.4688 213.427 38.8907 213.469 39.7917C214.12 52.0886 214.505 64.3698 214.333 76.6615Z" fill="#5A5B5D"/>
<path d="M27.4636 33.2499C27.6042 33.0728 27.7813 32.9009 27.974 32.7186C36.3438 25.2395 45.1876 18.3541 54.1042 11.552C56.2292 9.93219 58.2813 8.21344 60.3178 6.47907C60.8542 6.02073 61.3907 5.98948 62.0053 5.95302C68.0053 5.56761 74.0157 5.16656 80.0157 4.78115C86.5782 4.36448 93.1407 3.91136 99.7084 3.58844C106.609 3.2499 113.521 3.05719 120.427 2.78115C132.516 2.30719 144.615 2.05719 156.714 2.23427C163.172 2.33844 169.641 2.59886 176.104 2.79157C179.943 2.90615 183.792 3.14052 187.636 3.10927C188.854 3.09886 189.688 3.35407 190.557 4.17177C198.172 11.3124 205.458 18.7707 212.5 26.4843C213.708 27.802 214.943 29.0884 216.219 30.3384C216.464 30.578 216.74 30.9009 217.031 31.1561C215.589 31.0416 214.068 31.0155 212.609 31.0051C212.646 30.9426 212.682 30.8801 212.708 30.7968C211.734 30.0416 210.578 30.1666 209.521 30.1093C204.182 29.8332 198.839 29.5311 193.49 29.4322C179.005 29.1666 164.516 28.9009 150.021 28.828C127.109 28.7082 104.208 29.0207 81.323 30.0051C74.1407 30.3176 66.9636 30.6822 59.7917 31.1353C50.8386 31.703 41.922 32.7134 32.9428 32.7916C32.797 32.7916 32.6563 32.8905 32.5105 32.9426C32.4897 33.0311 32.4584 33.1145 32.4376 33.203C30.7865 33.1457 29.1303 33.1874 27.4636 33.2499Z" fill="#4D4D4F"/>
<path d="M10.6257 23.0303L26.1173 37.4965V129.343L10.6257 142.939V23.0303Z" fill="#393536"/>
<path d="M12.9336 30.4414L23.8095 41.4696V125.79L12.9336 135.526V30.4414Z" fill="#4F4C4C"/>
<mask id="mask1_317_103321" style="mask-type:luminance" maskUnits="userSpaceOnUse" x="0" y="23" width="11" height="121">
<path d="M0 23H10.8285V143.413H0V23Z" fill="white"/>
</mask>
<g mask="url(#mask1_317_103321)">
<path d="M10.6254 142.939H0.0134277V23.0303H10.6254V142.939Z" fill="#656263"/>
</g>
<path d="M30.9999 62.4463H26.1169V47.3811H30.9999V62.4463Z" fill="black"/>
<path d="M26.1171 62.4461L21.2341 70.4254V39.4016L26.1171 47.3809V62.4461Z" fill="#2E2A2B"/>
<path d="M30.9999 112.745H26.1169V97.6829H30.9999V112.745Z" fill="black"/>
<path d="M26.1171 112.745L21.2341 120.727V89.7036L26.1171 97.6829V112.745Z" fill="#2E2A2B"/>
</svg>
