<svg width="257" height="317" viewBox="0 0 257 317" fill="none" xmlns="http://www.w3.org/2000/svg">
<path d="M108.409 203.145C105.139 202.74 103.37 203.769 102.409 205.505C101.094 204.493 98.7177 204.746 98.3132 206.718C94.8579 223.286 96.3917 239.619 94.7568 256.305C93.0208 274.239 88.9251 291.818 89.0599 309.92C89.0599 311.134 89.7341 312.566 90.8802 313.106L93.577 314.404C95.2793 315.229 97.6558 314.977 98.6166 313.089C101.684 306.971 100.251 298.392 100.589 291.683C101.094 282.143 101.853 272.62 102.864 263.131C103.842 253.895 105.207 244.726 106.403 235.523C107.01 230.837 107.566 226.152 107.937 221.466C108.005 220.59 108.072 219.73 108.123 218.854C109.505 215.129 111.123 211.488 111.696 207.493C112.05 205.1 110.803 203.448 108.409 203.145Z" fill="#D6C9B0"/>
<mask id="mask0_287_104852" style="mask-type:luminance" maskUnits="userSpaceOnUse" x="0" y="12" width="256" height="295">
<path d="M0.572266 12.8545H255.046V306.263H0.572266V12.8545Z" fill="white"/>
</mask>
<g mask="url(#mask0_287_104852)">
<path d="M223.056 154.131C216.77 154.839 210.533 156.036 204.938 156.609C188.622 158.261 172.559 160.064 156.615 164.177C143.839 167.48 131.063 170.784 118.354 174.324C115.944 174.728 113.534 175.133 111.124 175.52C100.724 177.189 90.3248 178.992 79.8917 180.408C75.1555 181.065 70.9923 182.313 67.8068 178.268C66.9135 177.138 66.0876 175.84 65.3123 174.492C65.2954 174.408 65.2786 174.324 65.2617 174.239C64.7224 167.396 62.8683 160.435 61.5031 154.165C58.9074 142.148 56.9354 130.012 55.2331 117.843C53.5813 106.078 52.1992 94.2295 49.1654 82.7345C48.4238 79.9703 47.817 76.8353 46.6203 74.2397C46.5697 74.1385 46.5023 74.0374 46.4517 73.9363C45.727 70.3968 44.8674 66.8741 43.9067 63.3852C43.9067 63.3683 43.9067 63.3683 43.9067 63.3683C50.1598 59.4411 56.868 56.1882 63.8628 54.0307C68.245 52.6824 79.3186 52.3958 79.8243 46.2438C84.4425 44.9966 89.0439 43.7493 93.6789 42.5358C93.7295 42.8897 93.8306 43.2437 93.9655 43.5639C99.2747 41.9627 104.921 41.0188 110.264 39.9233C114.208 38.5075 118.253 37.4456 122.72 37.2433C131.231 36.8557 139.827 37.7658 148.356 37.7153C163.744 37.631 179.52 34.1589 194.521 37.7153C194.757 39.6873 195.28 41.6424 196.072 43.5639C196.864 45.4853 198.01 47.2551 199.224 48.9574C199.072 50.2384 199.342 51.4688 199.982 52.8003C200.876 54.6544 201.465 56.3736 201.971 58.2276C202.915 69.554 205.78 81.049 208.511 91.9709C211.427 103.567 214.41 115.18 217.494 126.742C219.382 133.788 222.433 140.277 224.961 146.968C224.169 149.412 223.309 151.772 223.056 154.131ZM56.0253 204.831C55.9747 204.746 55.9579 204.645 55.8904 204.561C54.2555 202.05 51.1037 200.904 49.2159 198.561C47.0585 195.915 45.9461 192.476 44.9517 189.223C40.1817 173.531 37.8052 156.677 34.6197 140.597C33.8443 136.67 33.4061 132.355 32.1926 128.563C31.097 125.124 28.8722 122.428 28.198 118.804C26.8833 111.624 26.917 104.022 25.8214 96.7577C25.4506 94.2632 24.9619 91.7687 24.4225 89.2742C24.7596 89.9989 25.1135 90.7068 25.4843 91.4147C25.6023 91.617 25.7203 91.7855 25.8552 91.9541C28.4339 103.028 32.0746 114 35.3107 124.838C36.1366 127.636 37.0299 130.434 37.9063 133.248C40.6031 154.418 45.8618 175.537 53.851 195.122C54.5252 196.791 55.5702 198.021 56.75 198.898C58.6209 202.286 61.7222 204.544 65.3628 205.842C62.0087 206.348 58.6883 206.331 56.0253 204.831ZM12.3545 54.9915C12.9949 54.6881 13.6354 54.351 14.2422 53.997C14.3602 54.5364 14.495 55.0757 14.6636 55.5814C15.0681 58.5478 15.9277 61.548 16.5513 64.3964C15.2366 61.1772 13.8377 58.0422 12.3545 54.9915ZM250.277 157.401C249.215 155.143 248.052 152.935 246.839 150.761C246.063 146.041 244.462 141.423 243.029 136.855C240.771 129.709 238.63 122.293 235.226 115.585C232.074 109.365 229.933 103.281 228.045 96.7408C227.405 93.5216 226.781 90.3023 226.175 87.083C224.321 77.2735 223.174 66.7393 220.478 56.9803C220.259 55.5477 220.023 54.1487 219.854 52.8172C219.146 47.6596 218.084 42.7043 216.331 37.9007C216.247 36.9737 216.18 36.0635 216.112 35.1533C215.775 29.9789 216.736 19.2087 211.46 15.9557C209.471 14.7253 207.432 14.9107 205.831 15.9052C204.735 15.2141 203.387 14.7759 201.752 14.7759C186.785 14.8264 171.835 15.2815 156.901 16.4108C141.597 17.5569 127.54 22.3268 112.506 24.7539C105.359 25.9001 98.2297 27.2147 91.117 28.6474C88.6225 28.58 86.0774 28.7654 83.2121 29.3216C75.796 30.7711 68.363 32.0689 60.93 33.4004C56.6995 34.1421 52.5026 35.2882 48.3395 36.5017C41.8672 37.0748 35.4624 38.5412 29.125 39.9401C22.5516 41.3896 12.1185 42.0807 6.89349 46.7495C3.15172 50.0867 3.16858 55.3117 3.69108 59.9299C4.63495 68.2225 6.26986 76.3802 7.7868 84.5717C7.90478 85.1784 8.32615 85.5155 8.83179 85.6672C9.03405 90.5888 9.85994 95.4262 12.3882 99.9938C14.6298 104.073 17.3603 107.494 18.2368 112.214C18.7593 114.995 18.7087 117.86 19.2818 120.641C19.9054 123.725 21.119 126.388 22.6359 129.102C24.8439 133.012 25.7877 136.923 26.7316 141.288C30.0857 156.609 32.7656 172.149 36.5074 187.369C37.7715 192.544 39.5076 197.448 42.8448 201.645C44.2438 203.398 45.9967 204.578 47.5473 206.145C48.6092 207.224 49.2665 208.219 49.6204 209.196C49.1822 209.247 48.744 209.314 48.2721 209.432C44.2606 210.427 43.5527 215.078 42.6088 218.382C40.8559 224.551 39.0188 230.703 37.0468 236.821C34.8051 243.816 32.378 250.743 29.7655 257.603C28.1137 261.969 24.1865 267.548 25.7203 272.301C26.0574 273.379 26.9002 274.424 28.08 274.66C31.3667 275.351 33.423 274.037 35.1253 271.154C37.8726 266.486 39.6761 260.89 41.5638 255.564C46.6203 246.277 50.1935 235.675 53.3959 225.95C54.1207 223.759 55.4522 218.753 55.1825 214.775C56.2612 212.348 57.1377 209.769 56.868 207.393C62.6155 210.005 70.689 208.05 76.5544 207.292C77.1106 207.207 77.6669 207.123 78.2231 207.039C84.6447 206.803 92.1114 206.078 98.4488 203.853C104.112 202.859 109.775 201.814 115.422 200.786C129.361 198.257 143.283 195.729 157.205 193.201C164.115 191.937 171.329 191.162 178.122 189.392C179.706 188.987 180.987 188.6 181.981 187.858C183.262 187.689 184.526 187.487 185.79 187.251C185.285 188.06 185.521 189.392 186.38 189.864V189.881C190.173 200.061 192.701 210.679 197.403 220.506C199.949 225.832 203.623 230.45 206.454 235.608C209.05 240.344 211.444 245.198 213.904 249.985C219.146 260.165 224.759 270.261 229.394 280.728C232.495 287.706 232.849 299.858 241.074 302.69C242.591 303.212 244.53 302.1 244.867 300.532C246.636 292.172 240.653 283.088 237.063 275.874C231.99 265.693 226.343 255.8 221.809 245.367C218.792 238.456 216.331 231.748 213.095 225.225C213.095 225.191 213.095 225.141 213.078 225.09C211.342 220.607 208.342 217 205.966 212.854C202.949 207.561 201.078 202.016 198.971 196.336C197.909 193.487 196.544 188.027 193.813 186.493C193.223 186.156 192.6 186.004 191.942 185.953C197.184 184.672 202.359 183.004 207.617 181.049C214.949 179.919 222.214 178.015 229.394 175.857C232.124 175.621 234.872 175.318 237.585 174.795C241.85 173.97 250.041 172.537 252.603 168.374C254.659 165.07 251.743 160.503 250.277 157.401Z" fill="#D6C9B0"/>
</g>
<mask id="mask1_287_104852" style="mask-type:luminance" maskUnits="userSpaceOnUse" x="95" y="0" width="27" height="26">
<path d="M95.3965 0.347656H121.285V25.7984H95.3965V0.347656Z" fill="white"/>
</mask>
<g mask="url(#mask1_287_104852)">
<path d="M120.779 11.5727C119.296 7.12305 114.627 2.97677 109.823 3.21274C104.801 3.48241 99.0868 6.98821 96.9799 11.6233C94.7383 16.528 96.5754 22.8317 102.525 23.0171C103.941 23.0677 105.458 22.8486 106.857 22.3767C107.666 22.7306 108.525 22.9834 109.419 23.1014C110.851 23.5565 112.453 23.5396 114.104 22.9329C118.689 21.2137 122.448 16.6292 120.779 11.5727Z" fill="#D6C9B0"/>
</g>
<path d="M118.151 6.46667C116.482 4.41039 113.735 3.5845 111.83 5.84304C111.814 5.87675 111.797 5.91046 111.763 5.94417C109.976 6.83748 109.167 8.37127 109.976 10.5118C110.802 12.6861 112.437 15.0795 114.679 15.9222C116.853 16.7313 119.381 15.8042 120.072 13.4614C120.78 11.0849 119.651 8.30385 118.151 6.46667Z" fill="#A59B8B"/>
<path d="M46.1811 199.083C44.7485 191.398 42.8102 183.948 40.7707 176.515C40.4505 174.105 40.1302 171.661 39.7257 169.149C39.4223 167.228 39.0178 165.289 38.5627 163.351C39.2201 160.958 39.5066 158.8 38.4953 156.087C37.6526 153.828 36.6919 151.654 35.7311 149.463C37.2818 142.35 34.1805 132.793 32.2759 125.967C29.6634 116.613 26.3261 107.461 23.8991 98.0387C19.7696 81.9592 18.2527 64.4302 9.60617 49.9351C9.08367 49.0249 7.73529 49.8171 8.22408 50.7441C16.365 66.0314 14.2075 84.42 18.5055 100.904C20.1404 107.208 22.0113 113.444 23.9496 119.647C24.371 123.422 25.1969 127.214 25.7868 130.737C27.2363 139.367 29.0735 147.912 31.2646 156.373C33.0007 163.081 34.9052 169.672 36.7087 176.262C37.4166 184.605 39.0684 192.291 42.4225 200.095C42.4393 200.111 42.4393 200.111 42.4393 200.128C42.5068 200.28 42.5573 200.432 42.6248 200.583C43.5686 202.741 46.5519 201.106 46.1811 199.083Z" fill="#A59B8B"/>
<path d="M58.1484 215.685C55.8393 211.674 52.2829 208.724 47.9681 207.14C46.1309 206.465 44.7994 209.55 46.6197 210.342C50.1255 211.859 52.8391 214.37 54.5583 217.792C55.755 220.185 59.5136 218.028 58.1484 215.685Z" fill="#A59B8B"/>
<path d="M110.885 203.01C106.756 203.802 103.031 205.117 98.7499 205.185C97.1993 205.201 97.1993 207.561 98.7499 207.612C100.756 207.662 102.761 207.578 104.75 207.291C106.908 206.988 109.116 206.044 111.307 206.061C113.481 206.061 113.161 202.572 110.885 203.01Z" fill="#A59B8B"/>
<path d="M195.058 185.296C193.019 185.886 191.131 186.072 189.041 186.291C187.322 186.459 186.226 187.521 184.642 187.892C183.344 188.195 183.58 190.42 184.962 190.285C185.653 190.218 186.243 190.049 186.883 189.78C187.996 189.341 188.822 189.308 190.018 189.341C192.024 189.375 193.979 188.92 195.918 188.414C197.923 187.892 197.064 184.706 195.058 185.296Z" fill="#A59B8B"/>
<path d="M219.649 154.754C207.581 155.412 195.597 158.766 183.782 161.176C172.32 163.519 160.893 165.929 149.415 168.137C125.363 172.772 101.294 177.087 77.3436 182.245C76.838 182.346 76.9391 183.239 77.4616 183.172C101.041 180.07 124.571 176.683 147.965 172.385C159.376 170.278 170.719 167.8 182.063 165.44C194.636 162.845 207.85 161.142 219.918 156.743C220.93 156.372 220.862 154.687 219.649 154.754Z" fill="#A59B8B"/>
<path d="M166.506 76.2114C166.489 75.4361 166.321 74.7282 166.017 74.0877C165.461 72.2168 164.534 70.5819 163.219 69.5032C157.708 65.0366 140.921 66.7221 140.651 74.8124C139.606 76.717 139.016 78.8576 139.083 81.0656C139.286 87.3524 144.511 91.4313 150.427 91.4313C150.848 91.7684 151.37 91.9875 151.994 92.0043C157.455 92.1729 163.506 89.9818 165.765 84.5377C166.675 82.3297 166.978 79.1778 166.506 76.2114Z" fill="#FF9700"/>
<path d="M157.977 42.2991C154.033 46.8667 152.836 52.4457 152.87 58.4123C152.87 59.4573 154.437 59.4573 154.471 58.4123C154.69 52.9007 156.561 47.7263 158.533 42.6362C158.651 42.3159 158.179 42.0462 157.977 42.2991Z" fill="#FF9700"/>
<path d="M183.818 46.5979C177.919 47.8958 172.728 50.7779 167.857 54.3174C166.727 55.1265 167.857 57.0142 168.935 56.1715C173.621 52.5645 178.829 49.8846 184.071 47.2216C184.425 47.0362 184.172 46.5305 183.818 46.5979Z" fill="#FF9700"/>
<path d="M191.42 66.0321C186.953 65.5265 182.267 66.2006 177.801 66.4703C175.728 66.6052 175.728 69.8413 177.801 69.7065C182.369 69.4368 187.324 69.1334 191.605 67.3636C192.313 67.0602 192.195 66.1164 191.42 66.0321Z" fill="#FF9700"/>
<path d="M191.116 89.2581C189.515 88.2974 187.509 88.112 185.739 87.5895C183.801 87.0333 181.913 86.3422 180.043 85.5838C178.02 84.7747 177.177 88.0277 179.132 88.8367C181.003 89.6289 182.891 90.32 184.829 90.9267C186.565 91.4492 188.537 92.2583 190.358 92.0223C191.74 91.8538 192.481 90.084 191.116 89.2581Z" fill="#FF9700"/>
<path d="M174.193 100.416C173.94 99.1346 171.985 99.6739 172.255 100.955C172.963 104.528 172.929 108.186 173.603 111.742C173.806 112.804 175.205 112.399 175.323 111.506C175.794 107.967 174.884 103.888 174.193 100.416Z" fill="#FF9700"/>
<path d="M144.376 100.246C143.87 103.971 141.814 107.022 139.875 110.14C139.286 111.084 140.398 111.91 141.241 111.539C143.466 110.528 144.747 109.263 145.859 107.089C146.887 105.067 147.443 102.943 147.679 100.701C147.882 98.8303 144.629 98.3584 144.376 100.246Z" fill="#FF9700"/>
<path d="M132.089 85.7001C128.212 85.5147 123.83 84.7226 120.004 85.3462C119.043 85.5147 119.195 86.9305 120.004 87.1665C123.712 88.2958 128.246 88.0767 132.089 88.3969C133.791 88.5317 133.825 85.7844 132.089 85.7001Z" fill="#FF9700"/>
<path d="M136.487 61.9019C135.038 60.5872 133.605 59.2388 132.223 57.8399C130.942 56.5421 129.796 55.1937 128.279 54.1487C127.908 53.8958 127.588 54.3846 127.723 54.7049C129.189 58.0758 132.358 60.9243 134.869 63.5199C135.914 64.5987 137.583 62.8795 136.487 61.9019Z" fill="#FF9700"/>
<path d="M73.048 79.1107C74.211 79.4478 75.5256 79.3298 76.756 79.4815C75.5088 80.2231 74.2784 80.1052 73.048 79.1107ZM94.0154 62.8795C94.2345 60.7895 93.5771 58.7838 91.3354 57.604C88.9758 56.3736 86.8689 56.8624 85.1329 58.1265C84.7284 56.9635 83.9362 55.9522 82.5709 55.3286C79.7393 53.9971 76.3515 55.7668 74.6155 58.0591C73.4862 59.5254 73.5873 61.1098 72.9637 62.6604C71.767 65.5932 71.2445 64.1605 68.7668 64.8516C64.57 66.0145 62.5643 68.3911 62.4294 72.8239C62.3789 74.5768 64.9914 74.5431 65.1262 72.8239C65.5307 66.9753 69.0534 68.2225 72.0704 68.4922C71.9861 69.4361 72.0872 70.2957 72.3401 71.0878C72.0704 71.2564 71.8344 71.4755 71.649 71.762C70.9074 72.8576 70.4018 74.3408 70.5029 75.7398C70.4523 75.6386 70.3849 75.5375 70.3343 75.4195C70.722 72.4362 65.5307 71.6946 65.0588 74.7116C63.9801 81.5378 69.0028 86.5606 75.9301 85.6673C79.5708 85.1953 81.863 83.021 85.5374 82.8188C88.3353 82.6671 91.4871 82.566 93.3917 80.1726C94.2176 79.1444 94.0154 77.459 94.6053 76.6836C94.6053 76.6668 94.6053 76.6668 94.6221 76.6668C95.3132 76.5657 95.9874 76.414 96.6616 76.178C99.0044 75.2004 100.319 72.9082 100.774 70.4979C101.87 64.5145 98.2965 62.5087 94.0154 62.8795Z" fill="#A6D7FF"/>
<path d="M144.698 47.1703C143.99 45.5354 143.096 42.1307 141.428 41.2711C140.602 40.8498 139.675 41.0689 138.866 40.8498C137.602 40.5127 136.928 39.8385 135.546 39.9902C133.169 40.243 130.961 41.7936 129.309 43.6139C129.208 43.6477 129.124 43.6814 129.04 43.7151C126.714 42.4847 123.933 44.5241 122.331 46.8164C122.095 47.1535 122.146 47.5074 122.348 47.8108C122.18 48.0299 122.028 48.249 121.859 48.4681C121.354 47.8782 120.477 47.6422 119.769 48.3839C118.236 49.9851 115.471 52.2099 116.247 54.7213C116.837 56.5753 118.505 57.3338 120.241 57.4349C121.185 59.9125 125.719 60.7216 126.663 56.5921C127.051 54.9235 126.056 53.6257 128.332 54.0639C129.95 54.3842 131.028 55.2943 132.815 55.1426C133.725 55.0584 134.602 54.7718 135.377 54.3505C135.748 56.5584 138.023 57.0809 139.49 56.0528C140.518 57.0641 142.304 57.3506 143.332 55.6651C144.934 53.0358 145.979 50.1705 144.698 47.1703Z" fill="#A6D7FF"/>
<path d="M223.964 144.896C223.138 143.092 222.228 141.306 221.335 139.502C221.048 138.575 220.678 137.699 220.189 136.89C219.683 134.277 218.048 132.069 215.739 130.451C214.542 123.322 198.615 123.221 193.693 123.12C181.288 122.884 171.091 127.249 159.832 131.766C153.697 134.227 146.786 136.148 140.466 133.199C136.269 131.244 133.353 128.985 128.448 129.592C122.599 130.317 117.459 133.923 112.537 136.924C106.368 140.665 100.301 144.019 93.171 145.536C82.7378 147.778 71.3608 148.385 65.3942 158.616C64.72 159.779 66.3044 160.706 67.1471 159.812C66.6078 163.874 67.6528 168.779 69.6248 172.403C67.1134 174.341 68.2258 179.364 71.9508 179.212C84.9627 178.69 98.1431 175.707 110.953 173.515C124.352 171.206 137.735 168.745 151.101 166.318C162.36 164.279 173.686 162.695 184.811 160.065C185.94 159.964 187.137 159.711 188.485 159.475C194.182 158.464 199.862 157.554 205.609 156.93C207.211 156.745 208.862 156.576 210.48 156.307C219.548 156.323 228.212 154.132 223.964 144.896Z" fill="#5B8951"/>
<mask id="mask2_287_104852" style="mask-type:luminance" maskUnits="userSpaceOnUse" x="7" y="13" width="250" height="198">
<path d="M7.37988 13.8657H257V210.174H7.37988V13.8657Z" fill="white"/>
</mask>
<g mask="url(#mask2_287_104852)">
<path d="M256.999 170.581C226.61 178.25 196.221 186.004 165.612 192.83C134.987 199.589 104.109 205.353 72.9783 209.415C69.1185 209.921 65.0902 210.527 60.9608 209.921C56.8314 209.348 52.9042 207.156 50.14 204.055C48.7073 202.521 47.6286 200.752 46.6173 198.982C45.6903 197.162 44.8476 195.307 44.2071 193.386C42.8756 189.577 42.0497 185.65 41.3586 181.756C38.9147 166.166 36.2685 150.71 33.1503 135.304C26.9141 104.527 18.9755 74.054 8.03668 44.6592L7.48047 43.1591L9.01426 42.7714C42.4373 34.0069 76.3829 27.1807 110.581 22.3603C127.689 19.9332 144.864 18.0117 162.073 16.5959C179.282 15.2138 196.541 14.3374 213.8 13.9666L214.677 13.9497L214.812 14.8093C218.789 41.4736 224.334 67.8851 231.312 93.9258C238.307 119.95 246.903 145.569 256.999 170.581ZM256.999 170.581C246.532 145.721 237.549 120.219 230.149 94.246C222.75 68.2728 217.104 41.7939 212.84 15.1127L213.851 15.9554C196.625 16.4779 179.433 17.5061 162.275 19.023C145.117 20.4894 127.992 22.4445 110.952 24.9053C76.8549 29.8269 43.0441 36.7037 9.73901 45.5356L10.7166 43.6479C21.6891 73.2449 29.5434 103.904 35.7123 134.782C38.7967 150.221 41.4092 165.812 43.8026 181.318C44.4768 185.161 45.269 188.953 46.5331 192.577C47.123 194.397 47.9152 196.133 48.7579 197.819C49.6849 199.454 50.6625 201.072 51.9266 202.42C54.3706 205.168 57.691 207.072 61.3147 207.612C64.9722 208.185 68.832 207.679 72.7086 207.207C103.789 203.415 134.65 197.92 165.309 191.448C196.002 185.077 226.492 177.778 256.999 170.581Z" fill="black"/>
</g>
<mask id="mask3_287_104852" style="mask-type:luminance" maskUnits="userSpaceOnUse" x="0" y="43" width="57" height="169">
<path d="M0.572266 43.0586H56.564V211.337H0.572266V43.0586Z" fill="white"/>
</mask>
<g mask="url(#mask3_287_104852)">
<path d="M6.82478 44.7271C2.47624 50.2217 1.31325 57.4861 2.08858 64.2112C2.84704 71.0037 5.39212 77.4422 7.9372 83.8639L11.7295 93.5554C12.9262 96.8253 14.1566 100.078 15.2859 103.348C17.6456 109.888 19.7861 116.495 21.8424 123.136C25.955 136.417 29.5282 149.851 32.5115 163.436C35.5285 176.987 37.9388 190.69 39.7422 204.46L39.2366 203.988C45.1695 204.494 50.8496 207.089 54.9621 211.253C50.5293 207.477 44.8661 205.252 39.1692 205.101L38.7478 205.084L38.6635 204.629C36.0847 191.01 33.2868 177.459 30.0339 164.009C28.4327 157.283 26.6629 150.592 24.8931 143.901C23.0728 137.226 21.1514 130.585 19.1625 123.962C15.1342 110.731 10.7351 97.6175 5.98204 84.6224C3.60551 78.1164 1.24584 71.3914 0.807612 64.3123C0.622208 60.7897 0.925596 57.2333 1.86947 53.8455C2.77962 50.4577 4.44825 47.2553 6.82478 44.7271Z" fill="black"/>
</g>
<mask id="mask4_287_104852" style="mask-type:luminance" maskUnits="userSpaceOnUse" x="83" y="203" width="30" height="114">
<path d="M83.3271 203.735H112.874V316.342H83.3271V203.735Z" fill="white"/>
</mask>
<g mask="url(#mask4_287_104852)">
<path d="M94.485 208.235C92.7658 216.882 91.94 225.629 91.6534 234.411C91.35 243.192 91.4175 251.974 91.4849 260.789C91.5186 265.188 91.5186 269.604 91.468 274.02L91.2489 280.644L90.8444 287.268C90.1702 296.099 88.8892 304.948 86.4621 313.527L85.2655 311.774C90.8781 312.297 96.5076 312.786 102.12 313.392L100.586 314.791C100.688 305.454 101.008 296.133 101.53 286.829C102.053 277.509 102.778 268.205 103.839 258.951C104.868 249.681 106.081 240.445 107.548 231.242C109.098 222.039 110.75 212.887 112.789 203.786C111.357 212.988 109.975 222.191 108.879 231.428C107.733 240.647 106.722 249.9 105.963 259.154C105.222 268.424 104.547 277.677 104.109 286.964C103.654 296.234 103.435 305.521 103.401 314.808V316.342L101.851 316.207C96.2379 315.702 90.6084 315.095 84.9958 314.539L83.3271 314.37L83.7991 312.769C86.243 304.426 87.5914 295.779 88.333 287.065L88.7713 280.509L89.0746 273.952C89.2263 269.553 89.3612 265.171 89.4454 260.772C89.6308 251.974 89.7151 243.142 90.3893 234.343C91.0804 225.545 92.2096 216.747 94.485 208.235Z" fill="black"/>
</g>
<path d="M181.947 188.987C186.852 198.325 191.622 207.764 196.459 217.152L210.718 245.434C215.488 254.856 220.157 264.328 224.826 273.801L238.849 302.218L238.933 302.42C239.085 302.825 239.304 303.162 239.624 303.398C239.962 303.634 240.417 303.785 240.922 303.853C241.967 303.937 243.147 303.651 244.091 303.061C244.563 302.757 244.984 302.403 245.271 301.982C245.456 301.797 245.54 301.561 245.658 301.342C245.76 301.089 245.878 300.802 245.945 300.516C246.265 299.386 246.265 298.139 246.063 296.875C245.625 294.313 244.462 291.785 243.282 289.172L239.759 281.352C235.09 270.902 230.337 260.502 225.753 250.035L211.932 218.635C207.432 208.134 202.83 197.651 198.414 187.1C203.437 197.381 208.308 207.73 213.247 218.028L227.809 249.092C232.68 259.44 237.383 269.857 242.17 280.239L245.743 288.043C246.923 290.622 248.237 293.302 248.81 296.403C249.063 297.954 249.097 299.622 248.659 301.257C248.557 301.679 248.406 302.049 248.254 302.471C248.035 302.875 247.85 303.314 247.563 303.667C247.024 304.426 246.333 304.999 245.608 305.471C244.142 306.398 242.439 306.87 240.636 306.701C239.726 306.583 238.782 306.314 237.956 305.707C237.13 305.1 236.54 304.19 236.22 303.246L236.304 303.465L222.517 274.947C217.915 265.441 213.297 255.935 208.797 246.378L195.246 217.742C190.813 208.151 186.296 198.611 181.947 188.987Z" fill="black"/>
<mask id="mask5_287_104852" style="mask-type:luminance" maskUnits="userSpaceOnUse" x="91" y="0" width="35" height="26">
<path d="M91.083 0.347656H125.602V25.7984H91.083V0.347656Z" fill="white"/>
</mask>
<g mask="url(#mask5_287_104852)">
<path d="M97.9423 25.6966C93.9309 22.7301 92.0263 17.0838 93.0207 11.9093C93.2904 10.6115 93.7118 9.33055 94.3185 8.117C94.9422 6.93716 95.7512 5.82475 96.6782 4.84717C97.6221 3.88644 98.7177 3.07741 99.8806 2.40322C101.044 1.74588 102.291 1.24024 103.572 0.869432C104.87 0.532336 106.201 0.36379 107.55 0.330078C108.881 0.346932 110.229 0.498627 111.527 0.852577C112.825 1.24024 114.056 1.79645 115.202 2.50435C116.331 3.24597 117.342 4.13927 118.202 5.15055C121.64 9.12829 122.803 14.9769 120.797 19.5614C121.59 14.6904 119.769 9.85305 116.567 6.68434C113.381 3.44822 108.595 2.43693 104.313 3.63362C99.9986 4.72919 96.358 8.01587 95.195 12.415C93.9983 16.7635 94.8242 21.8705 97.9423 25.6966Z" fill="black"/>
</g>
<path d="M46.6871 206.448C42.9454 218.466 39.035 230.416 34.9562 242.282C32.9504 248.248 30.8436 254.164 28.7873 260.097L27.2198 264.53C26.7142 266.013 26.1242 267.53 25.7197 268.912C25.2984 270.294 25.0792 271.71 25.3826 272.806C25.6355 273.918 26.4108 274.677 27.5063 274.997C28.6019 275.334 29.9671 275.216 31.0964 274.693C32.192 274.205 33.2538 273.227 34.0797 272.098C35.7652 269.822 36.9788 266.822 38.3946 264.058C41.1587 258.445 43.7544 252.748 46.3163 247.035C51.3728 235.573 56.0753 223.944 60.4238 212.145C57.1371 224.281 53.1088 236.231 48.3895 247.911C46.0466 253.76 43.4847 259.507 40.8385 265.238L38.7991 269.502C38.108 270.935 37.3496 272.401 36.3214 273.783C35.2933 275.165 34.0292 276.463 32.2763 277.289C30.5571 278.064 28.6188 278.317 26.6973 277.761C25.7534 277.474 24.8096 276.952 24.0848 276.193C23.3432 275.435 22.8544 274.474 22.6184 273.497C22.1634 271.525 22.5679 269.721 23.023 268.12C23.5286 266.502 24.1017 265.086 24.6242 263.586L26.2422 259.17C28.4502 253.288 30.6076 247.389 32.8493 241.523C37.299 229.775 41.9004 218.078 46.6871 206.448Z" fill="black"/>
<path d="M197.434 41.0854C184.608 38.6751 171.596 37.3099 158.567 37.0402C145.522 36.7537 132.493 37.6301 119.616 39.4336C93.8279 43.0574 68.6973 50.8443 45.168 61.9348L45.8422 60.5864L65.8994 156.642L68.4108 168.643C68.8153 170.598 69.2873 172.502 70.1131 174.12C70.9222 175.755 72.0851 177.003 73.6526 177.592C75.2201 178.233 77.1079 178.267 79.0293 178.081C80.9339 177.879 82.9565 177.475 84.9622 177.154L145.218 167.041L193.423 158.985L217.542 155.041C219.514 154.721 221.486 154.333 222.649 153.187C223.846 152.108 223.88 150.22 223.458 148.333L220.576 136.484L208.98 88.9362L197.434 41.0854ZM197.434 41.0854L209.856 88.38L222.245 135.978L225.312 147.928C225.531 148.973 225.7 150.102 225.565 151.282C225.464 152.462 224.925 153.726 224.031 154.586C222.177 156.339 219.868 156.659 217.879 157.046L193.811 161.277L145.656 169.586L97.4685 177.862L85.4342 179.935C83.4284 180.256 81.4396 180.66 79.299 180.896C77.1922 181.098 74.8662 181.132 72.6076 180.256C71.4952 179.817 70.4502 179.143 69.5906 178.284C68.731 177.441 68.0737 176.446 67.5512 175.418C66.5399 173.379 66.0511 171.272 65.6129 169.233L43.4657 61.0752L43.2803 60.1313L44.1399 59.7268C67.9894 48.8049 93.4233 41.2708 119.397 37.8998C132.392 36.2143 145.522 35.675 158.584 36.1806C171.663 36.6863 184.675 38.3043 197.434 41.0854Z" fill="black"/>
</svg>
