<svg width="76" height="102" viewBox="0 0 76 102" fill="none" xmlns="http://www.w3.org/2000/svg">
<path d="M75.1367 101.474C75.2305 101.391 75.3451 101.328 75.4701 101.328H75.4753C75.4232 101.328 75.3815 101.349 75.3346 101.365C75.3294 101.385 75.3242 101.406 75.319 101.427C75.2565 101.432 75.194 101.448 75.1367 101.474Z" fill="#7CB0D0"/>
<path d="M75.3125 101.791V101.494C75.3125 101.474 75.3125 101.448 75.3177 101.427C75.3229 101.427 75.3229 101.427 75.3229 101.427H75.5417V101.646C75.4531 101.672 75.375 101.724 75.3125 101.791Z" fill="#7AA7BF"/>
<path d="M75.3184 101.427C75.3236 101.406 75.3288 101.385 75.334 101.365C75.3809 101.349 75.4225 101.328 75.4746 101.328H75.5423V101.427H75.3236C75.3236 101.427 75.3236 101.427 75.3184 101.427Z" fill="#8ABED8"/>
<mask id="mask0_292_113717" style="mask-type:luminance" maskUnits="userSpaceOnUse" x="0" y="0" width="59" height="68">
<path d="M0 0H58.6094V67.3594H0V0Z" fill="white"/>
</mask>
<g mask="url(#mask0_292_113717)">
<path d="M56.921 48.1096L56.9106 48.0159C56.5668 44.3023 56.2074 40.4638 55.197 36.719C54.4678 34.0315 53.4574 31.6721 52.1866 29.6565C52.9574 29.0471 53.4887 28.0471 53.6449 26.8752C53.7439 26.0992 53.5824 25.3284 53.4262 24.5784C53.3637 24.2971 53.3064 24.0159 53.2647 23.745C53.2231 23.469 52.9991 23.2502 52.7178 23.2138C51.9731 23.1304 51.2178 23.219 50.3481 23.4898C50.1866 23.5419 50.0564 23.6565 49.9731 23.8023C49.9001 23.9534 49.8897 24.1304 49.9418 24.2867C50.1814 25.0107 50.0772 25.8388 49.671 26.4846C46.9522 23.7398 43.4053 22.1096 40.1553 22.1096C40.1397 22.1096 40.1241 22.1096 40.1085 22.1096C39.5303 22.1148 39.0251 22.2919 38.546 22.4586C38.3116 22.5419 38.0876 22.6252 37.8585 22.6773L28.3845 24.9794C26.4626 25.4482 24.6501 25.8909 22.7908 26.5732C20.7647 27.3232 18.7647 28.0992 16.8272 28.8544L12.1553 30.6669C11.9835 30.7398 11.8064 30.8075 11.6293 30.8909C11.4158 30.9846 11.2126 31.0836 11.0147 31.1982C10.6866 31.3752 10.4158 31.6148 10.1814 31.8804C9.78555 32.2867 9.46264 32.8179 9.24389 33.5002C7.65535 32.4065 6.11889 31.2398 4.63451 29.995C4.26993 29.6929 4.23868 29.5315 4.23347 29.5315C4.2543 29.5002 4.33764 29.4377 4.59805 29.3284C8.89493 27.5523 12.4991 26.1773 15.947 24.9898C17.9262 24.3127 19.8689 23.6982 21.7178 23.1617C22.7283 22.8752 23.7335 22.5992 24.6918 22.3492C24.7647 22.3336 24.8272 22.3179 24.8845 22.3023C25.4053 22.1825 25.8376 22.0159 25.8949 21.1357C25.921 20.6773 25.8012 20.0315 25.3637 19.6044C24.9939 19.2346 24.4366 19.0627 23.8324 19.1357C23.4001 19.1929 23.0199 19.3544 22.6762 19.5002L22.6293 19.5211C21.8897 19.8388 21.1293 20.12 20.3637 20.3752L20.3428 18.3909C20.4939 18.4429 20.6606 18.4377 20.8116 18.3648C22.2439 17.7086 23.4678 16.3804 24.2595 14.6304C24.8585 13.3127 25.822 10.7294 25.5616 8.25545C25.3949 6.67732 25.0095 4.39086 23.5668 2.71899C21.4574 0.281489 18.0616 0.0835704 16.2178 0.182529C14.3533 0.286696 11.671 0.781488 9.50951 2.54711C8.05118 3.73461 6.91576 5.46899 6.3168 7.42732C5.78555 9.17211 5.65534 11.1721 5.9418 13.1982C6.20743 15.094 6.80639 16.6669 7.70743 17.8544C9.06159 19.6357 11.3116 20.6565 13.5356 20.6565C14.2491 20.6565 14.9574 20.5471 15.6345 20.3284L15.6241 21.7607C14.6241 22.0315 13.6085 22.3232 12.5981 22.6461C9.16576 23.7502 5.75951 25.0523 2.47826 26.5263C1.84805 26.8075 0.530345 27.3961 0.217845 28.6357C-0.000906109 29.5211 0.327219 30.4534 1.21784 31.495C3.03034 33.6148 5.39493 35.1044 7.47826 36.4221C7.72826 36.5784 7.98347 36.7346 8.23347 36.8961C6.97826 42.344 7.65535 48.3804 10.1658 53.9273C10.8689 55.495 11.6189 56.7815 12.4574 57.8492C12.4731 57.9221 12.5095 58.0002 12.5668 58.0523C12.6345 58.1148 12.7022 58.1721 12.7699 58.2294C13.2126 58.7607 13.6866 59.245 14.1866 59.6669C16.3949 61.5315 19.447 62.5575 22.7856 62.5575C22.7856 62.5575 22.7856 62.5575 22.7908 62.5575C25.2335 62.5575 27.8012 62.0471 30.8012 60.969C30.6293 61.6304 30.4418 62.2919 30.2335 62.9429C30.046 63.5211 29.8428 64.1044 29.6293 64.6721C29.6137 64.719 29.5772 64.8179 29.5303 64.9534C29.3272 65.594 29.1762 65.9898 29.0928 66.1565C28.9366 66.2867 28.8533 66.495 28.8793 66.7138C28.9262 67.0263 29.1918 67.2554 29.4939 67.2554C29.5251 67.2554 29.5564 67.2502 29.5824 67.245C29.5824 67.245 29.5824 67.245 29.5876 67.245C38.3689 66.0159 47.7074 63.5992 58.1501 59.8648C58.4522 59.7554 58.6293 59.4273 58.546 59.1096C57.6033 55.5367 57.2543 51.7607 56.921 48.1096Z" fill="black"/>
<path d="M12.0616 2.84399C12.3637 2.5419 12.697 2.27107 13.0512 2.03149C12.1033 2.3492 11.1501 2.82315 10.296 3.51586C9.02514 4.55232 8.03555 6.07315 7.50951 7.7919C7.03034 9.37003 6.91055 11.1773 7.17097 13.0211C7.41055 14.7034 7.92097 16.0784 8.69701 17.094C9.48347 18.1252 10.6241 18.8492 11.8741 19.1877C11.6137 19.0419 11.3585 18.8752 11.1241 18.6877C9.91576 17.7138 9.03035 16.1669 8.64493 14.3336C8.39493 13.1617 8.34805 11.87 8.49909 10.3909C8.66055 8.73982 8.98347 7.37524 9.48347 6.19815C10.046 4.89607 10.9106 4.01586 11.8272 3.08878L12.0616 2.84399ZM19.1189 20.7711L19.0928 17.8804C18.9731 17.8909 18.8481 17.8961 18.7283 17.8961C18.1137 17.8961 17.4939 17.8232 16.8897 17.6825L16.8741 21.3492C16.8897 21.37 16.9001 21.3857 16.9106 21.4065C17.6501 21.1982 18.3845 20.9898 19.1189 20.7711ZM19.2491 6.08878C19.2543 6.08878 19.2543 6.08357 19.2595 6.08357C18.7283 5.95336 18.1553 5.88565 17.5356 5.88565C16.6606 5.89607 15.9574 6.03149 15.4001 6.31795C14.5356 6.75545 13.8064 7.65128 13.3533 8.84399C12.9939 9.78149 12.8324 10.8284 12.8793 11.87C12.921 12.8388 13.0876 13.6357 13.3741 14.2346C13.5356 14.5784 13.9366 14.8596 14.322 15.1357L14.4887 15.2607C14.6814 15.4013 14.8845 15.5315 15.0928 15.6513C15.0251 15.5471 14.9574 15.4429 14.9001 15.3232C14.4626 14.4742 14.4522 13.4794 14.5043 12.6148C14.572 11.4586 14.7751 9.75545 15.697 8.37524C16.4991 7.18253 17.8272 6.32315 19.2491 6.08878ZM22.5408 14.0367C22.8533 13.2294 23.0408 12.4534 23.1033 11.719C23.0251 10.9169 22.8324 10.0627 22.5147 9.15128C22.2856 8.46378 21.9262 7.61482 21.2647 7.18774C20.9158 6.9742 20.4783 6.85961 19.9783 6.85961C19.7908 6.85961 19.5928 6.87524 19.3845 6.9117C18.1814 7.10961 17.0616 7.83357 16.3845 8.84399C15.572 10.0523 15.3949 11.6096 15.3324 12.6669C15.2856 13.4534 15.2908 14.2711 15.6397 14.9429C16.4991 16.6044 18.3793 16.4846 20.197 16.3648C20.3116 16.3544 20.4262 16.3492 20.5356 16.344C20.796 16.2398 21.0356 16.12 21.2439 15.969C21.7595 15.5784 22.1762 14.9638 22.5408 14.0367ZM23.322 49.2138C23.6814 48.219 23.6814 47.0784 23.6345 46.094C23.5564 44.6148 23.3481 42.7138 22.3793 41.2034C22.3168 41.1044 22.2491 41.0107 22.1814 40.9169C21.9835 41.1252 21.697 41.3023 21.2751 41.4169C20.322 41.6929 19.2647 41.9898 18.1658 41.9898C17.9314 41.9898 17.6918 41.9794 17.4522 41.9482C17.0251 41.8909 16.6189 41.7815 16.2283 41.6357C15.5564 44.2242 16.1085 47.1461 17.6866 49.2919C18.2283 50.0367 18.7908 50.5575 19.4001 50.8857C20.0824 51.2607 20.8376 51.3648 21.4678 51.1773C22.2647 50.9482 22.9783 50.1929 23.322 49.2138ZM24.2803 10.1773C24.3637 9.5367 24.3845 8.93253 24.3272 8.38045C24.2647 7.8492 24.1866 7.2242 24.0356 6.57315C23.9939 6.52628 23.9626 6.46899 23.947 6.40128C23.5356 4.31795 21.7126 2.5367 19.421 1.95857C16.7074 1.28149 14.2387 1.81795 12.6553 3.43253L12.4158 3.67732C11.5199 4.58357 10.7491 5.37003 10.2491 6.53149C9.78555 7.62524 9.47826 8.9117 9.32201 10.4742C9.18139 11.87 9.22305 13.0732 9.45743 14.1617C9.80639 15.8075 10.5824 17.1825 11.6397 18.0315C12.8272 18.9846 14.421 19.245 15.6397 18.7138L15.6449 17.2971C14.9731 17.0367 14.3376 16.6982 13.7595 16.2711L13.5981 16.1565C13.1345 15.8284 12.5512 15.4117 12.2491 14.7763C11.8949 14.0211 11.6814 13.0627 11.6345 11.9221C11.5824 10.7138 11.7699 9.49503 12.1918 8.40128C12.7543 6.9117 13.697 5.77628 14.8376 5.19815C15.5772 4.82836 16.4522 4.64607 17.5251 4.63565C18.6866 4.63045 19.7074 4.82315 20.5928 5.20857C22.5251 6.06274 23.9418 8.00024 24.2803 10.1773ZM24.6501 21.0523C24.6658 20.8388 24.5928 20.5992 24.4887 20.495C24.4106 20.4221 24.2647 20.3752 24.1033 20.3752C24.0616 20.3752 24.0251 20.3804 23.9835 20.3804C23.7283 20.4117 23.4522 20.5315 23.1658 20.6513L23.1137 20.6773C20.9887 21.5784 18.7543 22.1929 16.5981 22.7867C15.4053 23.1148 14.171 23.4534 12.9731 23.8388C9.58764 24.9273 6.22305 26.219 2.98347 27.6669C2.25951 27.9898 1.57201 28.37 1.42618 28.9377C1.31159 29.3961 1.55639 29.969 2.16055 30.6825C3.84805 32.6513 6.1293 34.094 8.13972 35.3596C10.2126 36.6721 12.2908 37.969 14.3689 39.2607C15.3481 39.8648 16.4574 40.5575 17.6137 40.7086C18.7126 40.844 19.8428 40.5263 20.9366 40.2138C21.0251 40.1929 21.0981 40.1617 21.1501 40.1409C20.4783 39.5523 19.572 39.2294 18.6814 39.2659C18.1658 39.6357 17.3116 39.5836 16.9106 39.3857C12.2283 37.1409 7.82722 34.3023 3.83764 30.9586C2.91576 30.1877 2.91055 29.5211 3.0668 29.094C3.28034 28.5211 3.83243 28.2919 4.1293 28.1721C8.4418 26.3804 12.072 25.0002 15.546 23.8023C17.546 23.12 19.5043 22.5002 21.3793 21.9586C22.3949 21.6617 23.4106 21.3857 24.3845 21.1409C24.4731 21.1148 24.5408 21.0992 24.6085 21.0836C24.6241 21.0784 24.6345 21.0784 24.6501 21.0732C24.6501 21.0679 24.6501 21.0627 24.6501 21.0523ZM31.5512 49.12C31.6137 48.6565 31.6762 48.219 31.6397 47.7971C31.6293 47.6825 31.6137 47.5784 31.5981 47.469C31.322 45.3388 30.8637 43.245 30.2178 41.2034L30.0408 40.6409C29.4522 38.7502 28.7178 36.3961 27.1606 35.3544C26.5356 34.9377 25.9574 34.4482 25.4053 33.9742C25.1918 33.7971 24.9835 33.62 24.7699 33.4429C24.1918 32.969 23.3481 32.6513 22.5303 32.3388C22.3116 32.2554 22.0928 32.1721 21.8897 32.094C19.7074 31.2086 17.1033 31.0054 14.1345 31.495C13.3324 31.6304 12.697 31.8023 12.1553 32.0263C11.7178 32.2346 11.3741 32.4586 11.0981 32.7294C10.7647 33.1304 10.5251 33.6721 10.3272 34.2242C12.6085 35.7242 14.9887 37.0784 17.447 38.2607C17.5199 38.2919 17.6762 38.2919 17.8064 38.2763C17.8897 38.1304 18.0356 38.0211 18.2178 37.9794C20.4053 37.5471 22.4106 38.9429 23.4262 40.5263C24.5564 42.2867 24.7908 44.3909 24.8741 46.0315C24.9314 47.1409 24.9262 48.4325 24.4991 49.6409C24.0095 51.0107 23.0043 52.0367 21.8168 52.3857C21.5043 52.4794 21.171 52.5211 20.8324 52.5211C20.1606 52.5211 19.4522 52.3388 18.8116 51.9898C18.0356 51.5732 17.3376 50.9325 16.6814 50.0367C14.8585 47.5523 14.2387 44.1617 15.0564 41.1825C15.0616 41.1617 15.072 41.1461 15.0772 41.1252C14.5981 40.87 14.1449 40.5888 13.7126 40.3232C12.2595 39.4169 10.8064 38.5054 9.35326 37.594C8.29076 42.6669 8.96784 48.2554 11.3012 53.4117C12.3845 55.8127 13.5564 57.5002 14.9887 58.7086C15.197 58.8804 15.4158 59.0419 15.6345 59.1982C17.4158 60.1357 19.4522 60.6461 21.5303 60.6461C21.6085 60.6461 21.6762 60.6409 21.7543 60.6409C23.2856 60.6148 24.6397 60.3284 25.7908 59.7763C26.0095 59.6669 26.2387 59.5732 26.4678 59.469C27.2543 59.1252 27.9991 58.8023 28.5095 58.1825C29.6501 56.7815 30.3481 55.5679 30.7231 54.37L30.7699 54.219C31.1397 53.0211 31.5199 51.7867 31.4522 50.5471C31.421 50.0523 31.4887 49.5784 31.5512 49.12ZM31.8741 53.4221C31.7751 53.7711 31.671 54.12 31.5616 54.4638L31.5095 54.62C31.1137 55.9221 30.3637 57.219 29.1501 58.7034C28.5147 59.4898 27.6397 59.87 26.796 60.2398C26.5772 60.3284 26.3585 60.4273 26.1449 60.5263C25.4366 60.87 24.6553 61.1148 23.8168 61.2711C26.0199 61.1409 28.3689 60.5732 31.1345 59.5107C31.1501 59.4377 31.1658 59.3544 31.1814 59.2815C31.572 57.3648 31.8012 55.3961 31.8741 53.4221ZM52.4053 26.7138C52.4835 26.1513 52.3428 25.4794 52.2074 24.8388C52.1762 24.6982 52.1501 24.5732 52.1241 24.4377C51.8533 24.4429 51.572 24.469 51.2751 24.5367C51.4158 25.5419 51.1501 26.6096 50.5356 27.4221C50.8637 27.8075 51.1814 28.2034 51.4835 28.62C51.9678 28.2034 52.3012 27.5211 52.4053 26.7138ZM57.197 58.8752C56.3376 55.3752 55.9991 51.745 55.6762 48.2242L55.6658 48.1304C55.3272 44.4742 54.9783 40.6877 53.9939 37.0471C52.9106 33.0419 51.1866 29.8127 48.8689 27.4482C46.3689 24.8909 43.1137 23.3596 40.1553 23.3596C40.1449 23.3596 40.1293 23.3596 40.1189 23.3596C39.7439 23.3648 39.3637 23.5002 38.9574 23.6409C38.697 23.7346 38.4366 23.8232 38.1501 23.8961L28.6762 26.1982C26.7908 26.6565 25.0095 27.0888 23.2178 27.7502C21.2335 28.4794 19.2699 29.245 17.3689 29.9846C19.1866 30.0054 20.8585 30.3232 22.3533 30.9273C22.5512 31.0107 22.7595 31.0888 22.9783 31.1669C23.8376 31.5002 24.8168 31.8752 25.5564 32.4742C25.7751 32.6513 25.9887 32.8388 26.2022 33.0211C26.7335 33.4742 27.2908 33.9325 27.8481 34.3127C29.7803 35.5992 30.5824 38.1877 31.2283 40.2659L31.4001 40.8232C32.5303 44.37 33.1137 48.0784 33.1449 51.8492C33.1658 54.4325 32.9158 57.0211 32.4053 59.5315C32.1449 60.8127 31.8168 62.0888 31.421 63.3232C31.2283 63.9273 31.0147 64.5315 30.7908 65.12C30.7751 65.1565 30.7543 65.2398 30.7178 65.344C30.6553 65.5263 30.6033 65.6877 30.5512 65.8388C38.7647 64.5992 47.5043 62.3179 57.197 58.8752ZM58.546 59.1096C58.6293 59.4273 58.4522 59.7554 58.1501 59.8648C47.7074 63.5992 38.3689 66.0159 29.5876 67.245C29.5824 67.245 29.5824 67.245 29.5824 67.245C29.5564 67.2502 29.5251 67.2554 29.4939 67.2554C29.1918 67.2554 28.921 67.0263 28.8793 66.7138C28.8533 66.495 28.9366 66.2867 29.0928 66.1565C29.1762 65.9898 29.3272 65.594 29.5303 64.9534C29.5772 64.8179 29.6137 64.719 29.6293 64.6721C29.8428 64.1044 30.046 63.5211 30.2335 62.9429C30.4418 62.2919 30.6293 61.6304 30.8012 60.969C27.8012 62.0471 25.2335 62.5575 22.7908 62.5575C22.7856 62.5575 22.7856 62.5575 22.7856 62.5575C19.447 62.5575 16.3949 61.5315 14.1866 59.6669C13.6866 59.245 13.2126 58.7607 12.7699 58.2294C12.7022 58.1721 12.6345 58.1148 12.5668 58.0523C12.5095 58.0002 12.4731 57.9221 12.4574 57.8492C11.6189 56.7815 10.8689 55.495 10.1658 53.9273C7.65535 48.3804 6.97826 42.344 8.23347 36.8961C7.98347 36.7346 7.72826 36.5784 7.47826 36.4221C5.39493 35.1044 3.03034 33.6148 1.21784 31.495C0.327219 30.4534 -0.000906109 29.5211 0.217845 28.6357C0.530345 27.3961 1.84805 26.8075 2.47826 26.5263C5.75951 25.0523 9.16576 23.7502 12.5981 22.6461C13.6085 22.3232 14.6241 22.0315 15.6241 21.7607L15.6345 20.3284C14.9574 20.5471 14.2491 20.6565 13.5356 20.6565C11.3116 20.6565 9.06159 19.6357 7.70743 17.8544C6.80639 16.6669 6.20743 15.094 5.9418 13.1982C5.65534 11.1721 5.78555 9.17211 6.3168 7.42732C6.91576 5.46899 8.05118 3.73461 9.50951 2.54711C11.671 0.781488 14.3533 0.286696 16.2178 0.182529C18.0616 0.0835704 21.4574 0.281489 23.5668 2.71899C25.0095 4.39086 25.3949 6.67732 25.5616 8.25545C25.822 10.7294 24.8585 13.3127 24.2595 14.6304C23.4678 16.3804 22.2439 17.7086 20.8116 18.3648C20.6606 18.4377 20.4939 18.4429 20.3428 18.3909L20.3637 20.3752C21.1293 20.12 21.8897 19.8388 22.6293 19.5211L22.6762 19.5002C23.0199 19.3544 23.4001 19.1929 23.8324 19.1357C24.4366 19.0627 24.9939 19.2346 25.3637 19.6044C25.8012 20.0315 25.921 20.6773 25.8949 21.1357C25.8376 22.0159 25.4053 22.1825 24.8845 22.3023C24.8324 22.3179 24.7647 22.3336 24.6918 22.3492C23.7283 22.5992 22.7283 22.8752 21.7178 23.1617C19.8689 23.6982 17.9262 24.3127 15.947 24.9898C12.4991 26.1773 8.89493 27.5523 4.59805 29.3284C4.33764 29.4377 4.2543 29.5002 4.23347 29.5315C4.23868 29.5315 4.26993 29.6929 4.63451 29.995C6.11889 31.2398 7.65535 32.4065 9.24389 33.5002C9.46264 32.8179 9.78555 32.2867 10.1814 31.8804C10.4158 31.6148 10.6866 31.3752 11.0147 31.1982C11.2126 31.0836 11.4158 30.9846 11.6293 30.8909C11.8064 30.8075 11.9835 30.7398 12.1553 30.6669L16.8272 28.8544C18.7647 28.0992 20.7647 27.3232 22.7908 26.5732C24.6501 25.8909 26.4626 25.4482 28.3845 24.9794L37.8585 22.6773C38.0876 22.6252 38.3116 22.5419 38.546 22.4586C39.0251 22.2919 39.5303 22.1148 40.1085 22.1096C40.1241 22.1096 40.1397 22.1096 40.1553 22.1096C43.4053 22.1096 46.9522 23.7398 49.671 26.4846C50.0772 25.8388 50.1814 25.0107 49.9418 24.2867C49.8897 24.1304 49.9001 23.9534 49.9731 23.8023C50.0564 23.6565 50.1866 23.5419 50.3481 23.4898C51.2178 23.219 51.9731 23.1304 52.7178 23.2138C52.9991 23.2502 53.2231 23.469 53.2647 23.745C53.3064 24.0159 53.3637 24.2971 53.4262 24.5784C53.5824 25.3284 53.7439 26.0992 53.6449 26.8752C53.4887 28.0471 52.9574 29.0471 52.1866 29.6565C53.4574 31.6721 54.4678 34.0315 55.197 36.719C56.2074 40.4638 56.5668 44.3023 56.9106 48.0159L56.9158 48.1096C57.2543 51.7607 57.6033 55.5367 58.546 59.1096Z" fill="black"/>
</g>
<path d="M55.6784 48.224C56.0013 51.7448 56.3398 55.375 57.1992 58.875C47.5065 62.3177 38.7669 64.599 30.5534 65.8385C30.6055 65.6875 30.6576 65.526 30.7201 65.3438C30.7565 65.2396 30.7773 65.1563 30.793 65.1198C31.0169 64.5313 31.2305 63.9271 31.4232 63.3229C31.819 62.0885 32.1471 60.8125 32.4076 59.5313C32.918 57.0208 33.168 54.4323 33.1471 51.849C33.1159 48.0781 32.5326 44.3698 31.4023 40.8229L31.2305 40.2656C30.5846 38.1875 29.7826 35.599 27.8503 34.3125C27.293 33.9323 26.7357 33.474 26.2044 33.0208C25.9909 32.8385 25.7773 32.651 25.5586 32.474C24.819 31.875 23.8398 31.5 22.9805 31.1667C22.7617 31.0885 22.5534 31.0104 22.3555 30.9271C20.8607 30.3229 19.1888 30.0052 17.3711 29.9844C19.2721 29.2448 21.2357 28.4792 23.2201 27.75C25.0117 27.0885 26.793 26.6563 28.6784 26.1979L38.1523 23.8958C38.4388 23.8229 38.6992 23.7344 38.9596 23.6406C39.3659 23.5 39.7461 23.3646 40.1211 23.3594C40.1315 23.3594 40.1471 23.3594 40.1576 23.3594C43.1159 23.3594 46.3711 24.8906 48.8711 27.4479C51.1888 29.8125 52.9128 33.0417 53.9961 37.0469C54.9805 40.6875 55.3294 44.474 55.668 48.1302L55.6784 48.224Z" fill="#F2F2F2"/>
<path d="M52.209 24.8385C52.3444 25.4792 52.485 26.151 52.4069 26.7135C52.3027 27.5208 51.9694 28.2031 51.485 28.6198C51.1829 28.2031 50.8652 27.8073 50.5371 27.4219C51.1517 26.6094 51.4173 25.5417 51.2767 24.5365C51.5736 24.4687 51.8548 24.4427 52.1257 24.4375C52.1517 24.5729 52.1777 24.6979 52.209 24.8385Z" fill="#B3B3B3"/>
<path d="M31.5632 54.4635C31.6725 54.1198 31.7767 53.7708 31.8757 53.4219C31.8027 55.3958 31.5736 57.3646 31.1829 59.2813C31.1673 59.3542 31.1517 59.4375 31.1361 59.5104C28.3704 60.5729 26.0215 61.1406 23.8184 61.2708C24.6569 61.1146 25.4382 60.8698 26.1465 60.526C26.36 60.4271 26.5788 60.3281 26.7975 60.2396C27.6413 59.8698 28.5163 59.4896 29.1517 58.7031C30.3652 57.2187 31.1152 55.9219 31.5111 54.6198L31.5632 54.4635Z" fill="#CCCCCC"/>
<path d="M31.6408 47.7964C31.6773 48.2183 31.6148 48.6558 31.5523 49.1194C31.4898 49.5777 31.4221 50.0516 31.4533 50.5464C31.521 51.786 31.1408 53.0204 30.771 54.2183L30.7241 54.3694C30.3491 55.5673 29.6512 56.7808 28.5106 58.1819C28.0002 58.8016 27.2554 59.1246 26.4689 59.4683C26.2398 59.5725 26.0106 59.6662 25.7918 59.7756C24.6408 60.3277 23.2866 60.6141 21.7554 60.6402C21.6773 60.6402 21.6096 60.6454 21.5314 60.6454C19.4533 60.6454 17.4168 60.135 15.6356 59.1975C15.4168 59.0412 15.1981 58.8798 14.9898 58.7079C13.5575 57.4996 12.3856 55.8121 11.3023 53.411C8.96893 48.2548 8.29185 42.6662 9.35435 37.5933C10.8075 38.5048 12.2606 39.4162 13.7137 40.3225C14.146 40.5881 14.5991 40.8694 15.0783 41.1246C15.0731 41.1454 15.0627 41.161 15.0575 41.1819C14.2398 44.161 14.8596 47.5516 16.6825 50.036C17.3387 50.9319 18.0366 51.5725 18.8127 51.9891C19.4533 52.3381 20.1616 52.5204 20.8335 52.5204C21.1721 52.5204 21.5054 52.4787 21.8179 52.385C23.0054 52.036 24.0106 51.01 24.5002 49.6402C24.9273 48.4319 24.9325 47.1402 24.8752 46.0308C24.7918 44.3902 24.5575 42.286 23.4273 40.5256C22.4116 38.9423 20.4064 37.5464 18.2189 37.9787C18.0366 38.0204 17.8908 38.1298 17.8075 38.2756C17.6773 38.2912 17.521 38.2912 17.4481 38.26C14.9898 37.0777 12.6096 35.7235 10.3283 34.2235C10.5262 33.6714 10.7658 33.1298 11.0991 32.7287C11.3752 32.4579 11.7189 32.2339 12.1564 32.0256C12.6981 31.8016 13.3335 31.6298 14.1356 31.4944C17.1043 31.0048 19.7085 31.2079 21.8908 32.0933C22.0939 32.1714 22.3127 32.2548 22.5314 32.3381C23.3491 32.6506 24.1929 32.9683 24.771 33.4423C24.9846 33.6194 25.1929 33.7964 25.4064 33.9735C25.9585 34.4475 26.5366 34.9371 27.1616 35.3537C28.7189 36.3954 29.4533 38.7496 30.0418 40.6402L30.2189 41.2027C30.8648 43.2444 31.3231 45.3381 31.5991 47.4683C31.6148 47.5777 31.6304 47.6819 31.6408 47.7964Z" fill="#F2F2F2"/>
<path d="M24.4903 20.4948C24.5945 20.599 24.6674 20.8385 24.6517 21.0521C24.6517 21.0625 24.6517 21.0677 24.6517 21.0729C24.6361 21.0781 24.6257 21.0781 24.6101 21.0833C24.5424 21.099 24.4747 21.1146 24.3861 21.1406C23.4122 21.3854 22.3965 21.6615 21.3809 21.9583C19.5059 22.5 17.5476 23.1198 15.5476 23.8021C12.0736 25 8.44342 26.3802 4.13092 28.1719C3.83404 28.2917 3.28196 28.5208 3.06842 29.0938C2.91217 29.5208 2.91737 30.1875 3.83925 30.9583C7.82883 34.3021 12.2299 37.1406 16.9122 39.3854C17.3132 39.5833 18.1674 39.6354 18.683 39.2656C19.5736 39.2292 20.4799 39.5521 21.1518 40.1406C21.0997 40.1615 21.0268 40.1927 20.9382 40.2135C19.8445 40.526 18.7142 40.8437 17.6153 40.7083C16.459 40.5573 15.3497 39.8646 14.3705 39.2604C12.2924 37.9688 10.2142 36.6719 8.14133 35.3594C6.13092 34.0938 3.84967 32.651 2.16217 30.6823C1.558 29.9687 1.31321 29.3958 1.42779 28.9375C1.57362 28.3698 2.26112 27.9896 2.98508 27.6667C6.22467 26.2187 9.58925 24.9271 12.9747 23.8385C14.1726 23.4531 15.407 23.1146 16.5997 22.7865C18.7559 22.1927 20.9903 21.5781 23.1153 20.6771L23.1674 20.651C23.4538 20.5313 23.7299 20.4115 23.9851 20.3802C24.0267 20.3802 24.0632 20.375 24.1049 20.375C24.2663 20.375 24.4122 20.4219 24.4903 20.4948Z" fill="#999999"/>
<path d="M24.3282 8.38009C24.3855 8.93217 24.3646 9.53634 24.2813 10.177C23.9428 7.99988 22.5261 6.06238 20.5938 5.20821C19.7084 4.8228 18.6875 4.63009 17.5261 4.6353C16.4532 4.64572 15.5782 4.82801 14.8386 5.1978C13.698 5.77592 12.7553 6.91134 12.1928 8.40092C11.7709 9.49467 11.5834 10.7134 11.6355 11.9218C11.6823 13.0624 11.8959 14.0207 12.25 14.7759C12.5521 15.4113 13.1355 15.828 13.599 16.1561L13.7605 16.2707C14.3386 16.6978 14.974 17.0363 15.6459 17.2968L15.6407 18.7134C14.4219 19.2447 12.8282 18.9843 11.6407 18.0311C10.5834 17.1822 9.80734 15.8072 9.45838 14.1613C9.224 13.0728 9.18234 11.8697 9.32296 10.4738C9.47921 8.91134 9.7865 7.62488 10.25 6.53113C10.75 5.36967 11.5209 4.58322 12.4167 3.67696L12.6563 3.43217C14.2396 1.81759 16.7084 1.28113 19.4219 1.95821C21.7136 2.53634 23.5365 4.31759 23.948 6.40092C23.9636 6.46863 23.9948 6.52592 24.0365 6.5728C24.1875 7.22384 24.2657 7.84884 24.3282 8.38009Z" fill="#999999"/>
<path d="M23.6363 46.0931C23.6832 47.0775 23.6832 48.2181 23.3238 49.2129C22.9801 50.1921 22.2665 50.9473 21.4696 51.1764C20.8394 51.3639 20.0842 51.2598 19.4019 50.8848C18.7926 50.5566 18.2301 50.0358 17.6884 49.291C16.1103 47.1452 15.5582 44.2233 16.2301 41.6348C16.6207 41.7806 17.0269 41.89 17.454 41.9473C17.6936 41.9785 17.9332 41.9889 18.1676 41.9889C19.2665 41.9889 20.3238 41.6921 21.2769 41.416C21.6988 41.3014 21.9853 41.1243 22.1832 40.916C22.2509 41.0098 22.3186 41.1035 22.3811 41.2025C23.3499 42.7129 23.5582 44.6139 23.6363 46.0931Z" fill="#8C6239"/>
<path d="M23.1042 11.7188C23.0417 12.4531 22.8542 13.2292 22.5417 14.0365C22.1771 14.9635 21.7605 15.5781 21.2448 15.9688C21.0365 16.1198 20.7969 16.2396 20.5365 16.3438C20.4271 16.349 20.3125 16.3542 20.198 16.3646C18.3802 16.4844 16.5 16.6042 15.6407 14.9427C15.2917 14.2708 15.2865 13.4531 15.3334 12.6667C15.3959 11.6094 15.573 10.0521 16.3855 8.84375C17.0625 7.83333 18.1823 7.10937 19.3855 6.91146C19.5938 6.875 19.7917 6.85938 19.9792 6.85938C20.4792 6.85938 20.9167 6.97396 21.2657 7.1875C21.9271 7.61458 22.2865 8.46354 22.5157 9.15104C22.8334 10.0625 23.0261 10.9167 23.1042 11.7188Z" fill="#B3B3B3"/>
<path d="M19.2612 6.08268C19.256 6.08268 19.256 6.08789 19.2508 6.08789C17.8289 6.32227 16.5008 7.18164 15.6987 8.37435C14.7768 9.75456 14.5737 11.4577 14.506 12.6139C14.4539 13.4785 14.4643 14.4733 14.9018 15.3223C14.9591 15.4421 15.0268 15.5462 15.0945 15.6504C14.8862 15.5306 14.6831 15.4004 14.4903 15.2598L14.3237 15.1348C13.9383 14.8587 13.5372 14.5775 13.3758 14.2337C13.0893 13.6348 12.9226 12.8379 12.881 11.8691C12.8341 10.8275 12.9956 9.7806 13.3549 8.8431C13.8081 7.65039 14.5372 6.75456 15.4018 6.31706C15.9591 6.0306 16.6622 5.89518 17.5372 5.88477C18.157 5.88477 18.7299 5.95247 19.2612 6.08268Z" fill="#666666"/>
<path d="M19.0938 17.8796L19.1198 20.7702C18.3854 20.9889 17.651 21.1973 16.9115 21.4056C16.901 21.3848 16.8906 21.3691 16.875 21.3483L16.8906 17.6816C17.4948 17.8223 18.1146 17.8952 18.7292 17.8952C18.849 17.8952 18.974 17.89 19.0938 17.8796Z" fill="#B3B3B3"/>
<path d="M13.0519 2.03125C12.6978 2.27083 12.3644 2.54167 12.0624 2.84375L11.828 3.08854C10.9113 4.01563 10.0467 4.89583 9.48423 6.19792C8.98423 7.375 8.66132 8.73958 8.49986 10.3906C8.34882 11.8698 8.39569 13.1615 8.64569 14.3333C9.03111 16.1667 9.91653 17.7135 11.1249 18.6875C11.3592 18.875 11.6144 19.0417 11.8749 19.1875C10.6249 18.849 9.48423 18.125 8.69778 17.0938C7.92173 16.0781 7.41132 14.7031 7.17173 13.0208C6.91132 11.1771 7.03111 9.36979 7.51028 7.79167C8.03632 6.07292 9.0259 4.55208 10.2967 3.51563C11.1509 2.82292 12.104 2.34896 13.0519 2.03125Z" fill="#666666"/>
</svg>
