<svg width="216" height="161" viewBox="0 0 216 161" fill="none" xmlns="http://www.w3.org/2000/svg">
<path d="M211.641 2.76568C209.058 3.2761 206.495 3.86985 203.953 4.54693C203.907 4.69797 202.813 5.13026 202.412 5.06256C201.552 4.92193 200.875 4.02089 200.256 3.50527C198.047 1.67193 195.61 1.77089 192.875 1.77089C191.266 1.77089 189.855 1.91152 188.282 2.20839C186.412 2.56256 184.511 2.44277 182.641 2.63547C179.151 3.00006 175.693 3.51568 172.167 3.50006C171.203 3.50006 169.672 3.21881 168.943 3.73443C168.235 4.23443 168.266 5.39589 167.271 5.50527C166.401 5.59902 164.787 4.84902 163.927 4.61985C162.641 4.2761 161.365 4.22401 160.073 3.96881C157.042 3.38026 153.844 3.01047 150.75 3.01047C145.141 3.01047 139.37 2.7136 133.792 2.20839C131.579 2.01047 129.302 1.28651 127.355 2.2761C125.49 3.22401 123.693 2.44797 121.605 2.23443C113.146 1.39068 104.266 0.255264 95.7764 1.21881C91.4848 1.7136 86.865 1.13547 82.5993 0.838598C77.365 0.474016 72.016 0.760473 66.8129 1.1511C60.9327 1.5886 54.891 0.979223 49.0837 1.82818C47.3754 2.07818 45.7868 2.72922 44.1097 3.07818C42.5212 3.41672 40.8441 3.5261 39.2139 3.69797C36.2243 4.01568 33.4379 2.97922 30.4847 3.01047C29.24 3.0261 28.4691 2.37506 27.2191 2.26047C25.1514 2.08339 23.0941 2.52089 21.0316 2.51568C17.266 2.50526 13.5004 2.5261 9.73475 2.51568C7.76079 2.51568 6.52121 2.72922 4.75037 3.23964C3.85454 3.49485 1.99516 3.84381 1.22954 3.28651C0.823289 5.38026 1.17746 7.9011 1.17746 10.0261C1.17746 11.8542 1.08371 12.9167 1.92225 14.4948C3.12537 16.7448 5.30767 18.2396 6.28162 20.6719C6.84933 22.0938 6.85975 24.2084 7.59933 25.448C7.34412 25.2865 7.14621 25.3959 6.92225 25.3334C6.85454 26.0417 6.12537 26.8751 5.78683 27.5209C5.3285 28.4115 4.92746 29.2865 4.641 30.2657C4.05766 32.2501 4.25558 34.5157 4.03162 36.5678C3.47954 41.6198 2.53683 46.4063 2.93787 51.4115C3.08371 53.224 3.26079 54.9011 3.00558 56.7188C2.75558 58.5417 1.766 60.2865 1.67746 62.2032C1.59412 63.9376 2.0785 65.5053 3.15662 66.9063C3.87537 67.8386 5.07329 68.849 5.39621 70.0157C5.65141 70.948 5.19829 71.3386 4.64621 72.1667C3.99516 73.1459 3.63579 74.0521 3.16704 75.099C2.80766 75.8959 2.65662 75.9115 2.66183 76.8594C2.67746 78.0626 2.66183 79.2605 2.66183 80.4636C2.66183 83.4949 2.60975 86.4532 3.03683 89.448C3.18266 90.4532 3.08891 91.4376 3.14621 92.4532C3.22954 93.9428 3.5785 95.3751 3.35454 96.8855C3.05766 98.9219 3.31808 99.849 2.67225 101.714C2.02121 103.594 2.67225 106.214 2.85975 108.245C3.04204 110.276 1.91183 112.151 1.11496 113.948C0.422248 115.495 0.292039 117.083 0.557664 118.745C0.776414 120.141 0.94308 121.427 0.927456 122.854C0.901413 124.964 1.40141 127.042 1.64621 129.141C1.76079 130.089 1.86496 130.953 2.22433 131.771C2.54725 132.495 3.00558 133.021 2.90662 133.896C2.71391 135.583 1.73475 137.078 1.66183 138.859C1.60975 140.193 1.71912 141.51 1.86496 142.828C2.2035 145.818 2.34933 148.542 2.15662 151.542C2.06287 152.948 2.09412 154.453 2.41704 155.818C2.66704 156.87 3.12016 157.734 3.45871 158.755C8.67746 159.339 14.1618 159.359 19.4275 159.292C21.5577 159.26 23.4379 158.578 25.5108 158.318C27.365 158.083 29.3545 158.276 31.2087 158.281C33.0785 158.281 34.4118 157.625 36.1514 156.865C37.1931 156.406 37.9118 155.677 38.8597 155.057C40.2139 154.167 41.891 153.891 43.5056 153.813C45.9014 153.698 47.766 155.005 50.1097 155.505C51.2816 155.755 51.8077 155.719 52.9066 155.406C55.1097 154.787 57.365 154.823 59.6306 154.813C61.8545 154.807 64.1306 154.938 66.3493 155.047C67.5577 155.109 68.6618 155.62 69.8597 155.76C70.5681 155.844 71.6879 155.703 72.3285 156.099C73.0733 156.552 73.865 157.521 74.5629 158.104C74.9222 158.401 75.3702 159.094 75.7868 159.245C76.7035 159.583 78.6983 158.599 79.7295 158.531C85.0316 158.203 90.3337 157.984 95.6358 157.547C98.2973 157.333 100.938 157.052 103.615 157.052C104.24 157.052 105.365 156.828 105.964 157.068C106.292 157.203 106.667 158.037 107.026 158.255C107.427 158.505 108.073 158.724 108.552 158.797C111.381 159.193 114.537 158.781 117.391 158.781C122.865 158.781 128.355 159.203 133.797 158.714C138.855 158.255 141.099 156.229 146.157 155.724C146.954 155.641 157.693 156.849 157.032 156.734C155.141 156.412 162.964 157.281 164.829 156.87C166.058 156.599 167.011 156.094 168.318 156.052C173.865 155.865 175.828 156.552 181.448 153.302C182.131 152.901 186.115 153.807 186.886 153.729C187.974 153.62 190.995 149.849 191.953 149.438C193.328 151.745 196.776 154.885 199.297 154.938C201.188 154.979 201.188 155.505 203.073 155.662C204.662 155.792 206.495 154.807 208.078 154.938C210.302 155.135 209.511 156.906 210.683 154.625C212.334 151.417 212.375 150.573 212.391 147.031C212.407 144.792 211.927 142.646 211.881 140.422C211.823 137.828 212 135.38 211.526 132.818C210.964 129.792 210.62 126.693 210.339 123.635C210.141 121.563 209.974 119.458 210.464 117.412C210.849 115.813 213.308 115.193 212.657 113.542C211.823 111.458 206.98 111.271 205.745 109.266C207.162 107.745 209.578 106.839 210.802 105.052C211.287 104.349 211.151 103.662 211.151 102.823C211.146 100.677 211.016 98.4792 211.188 96.3386C211.412 93.5886 212.631 91.0313 212.657 88.2917C212.667 86.5886 212.834 84.7553 212.412 83.1094C211.266 78.6355 209.61 73.8386 210.214 69.1719C210.328 68.3126 210.771 67.4376 210.667 66.5365C210.589 65.8282 210.11 65.1407 209.964 64.4323C209.74 63.3594 210.094 62.6823 210.74 61.8073C211.86 60.3021 212.797 58.7865 213.532 57.0365C214.98 53.5626 214.474 49.9011 213.417 46.3959C211.323 39.4428 211.011 32.0365 209.313 24.9844C208.308 20.8282 208.563 16.6198 209.224 12.4584C209.5 10.7292 210.151 8.89589 210.891 7.32297C211.365 6.30735 212.058 3.03131 211.651 2.80214L211.641 2.76568Z" fill="#DAC6B2"/>
<path d="M203.802 142.177C203.208 136.901 201.865 131.198 201.911 125.833C201.927 123.687 202.312 121.698 202.062 119.541C201.771 117.078 200.917 114.609 199.213 112.734C197.708 111.073 194.833 109.672 193.953 107.562C192.641 104.442 195.875 100.411 196.76 97.5519C197.401 95.479 197.583 93.4477 197.526 91.2915C197.427 87.6352 198.031 84.0571 198.542 80.4633C198.844 78.3435 199.312 76.1821 199.521 74.0675C199.885 70.406 198.786 66.8435 198.453 63.229C198.099 59.3227 198.583 55.479 199.422 51.6612C200.276 47.7915 202.312 44.2029 202.891 40.2602C203.469 36.3227 202.406 31.8435 201.588 27.9998C201.161 25.9633 200.38 24.0571 199.896 22.0415C199.547 20.5987 199.562 19.1196 199.203 17.6769C198.458 14.6612 196.213 11.3696 193.521 9.78624C190.036 7.73416 183.755 7.87999 180.417 10.3279C178.042 12.0675 176.187 14.5571 173.656 16.0623C171.193 17.5258 168.495 17.2029 165.995 16.1248C162.667 14.6873 159.323 13.0675 155.786 12.2029C153.661 11.6873 151.844 11.0779 150.078 12.6873C148.161 14.4321 147.13 17.0519 143.896 16.2758C141.953 15.8071 140.599 13.8956 139.141 12.7029C136.734 10.7342 133.677 8.92166 130.75 7.83833C128.344 6.9477 125.323 7.26541 123.073 8.45291C120.937 9.58312 119.146 11.229 116.536 10.781C113.885 10.3175 111.167 7.98416 109.125 6.39562C107.838 5.39041 106.635 4.40083 105.24 3.54666C104.432 3.04145 103.073 1.78625 102.099 1.85395C99.6874 2.02583 98.2864 6.17687 95.7656 6.52062C93.8854 6.78104 92.0051 5.36437 89.9947 5.99979C88.6666 6.41645 87.3749 7.01541 85.9687 7.3852C84.0468 7.90083 82.0781 8.17166 80.1354 8.59874C76.0156 9.51541 72.9322 8.95812 68.7916 8.06749C65.651 7.39041 64.9218 8.98416 62.7864 11.2706C61.7499 12.3852 60.4062 14.0987 58.8124 14.5206C56.3333 15.1769 53.5937 13.1769 51.5989 12.0102C49.8124 10.9633 47.5624 8.92166 45.3072 9.03624C44.6197 9.0727 43.9999 9.47374 43.3281 9.57791C42.0312 9.77583 40.7812 9.34874 39.526 9.0727C36.927 8.49458 35.1145 8.43729 32.4791 8.5727C28.5676 8.76541 26.9426 5.25499 23.677 3.73937C21.7135 2.82791 19.7135 3.1352 17.6666 3.53104C14.5885 4.12479 12.0885 4.80708 8.9114 4.14041C8.19785 3.99458 6.30202 2.9477 5.7239 3.33833C4.2916 4.3175 6.12494 7.18208 6.34369 8.21333C6.40619 8.53104 6.25515 9.5102 6.29681 9.83833C6.54681 11.7133 7.37494 13.505 7.80723 15.3435C8.3541 17.6717 8.31765 20.0987 8.63015 22.4581C9.01556 25.3696 8.74473 28.2915 8.98431 31.2185C9.14056 33.1769 9.13015 35.1456 9.35411 37.0935C9.65098 39.6612 10.3124 42.1665 10.2551 44.7706C10.1458 49.255 8.26556 53.1196 7.69265 57.4269C7.15619 61.531 7.66661 65.0102 8.15619 69.0206C8.53119 72.0935 8.28119 75.3227 8.34369 78.4217C8.42181 82.3748 8.12494 86.4425 7.86452 90.3904C7.73431 92.3331 7.3489 93.5519 7.81244 95.3071C8.65619 98.4998 10.1614 101.63 10.7395 104.859C11.2135 107.489 10.5051 110.026 11.0468 112.573C12.1458 117.734 15.2083 122.5 15.3749 127.87C15.4322 129.854 14.5729 131.677 14.8072 133.646C15.0676 135.776 15.8906 137.797 16.1249 139.927C16.3333 141.833 16.9479 143.443 18.4374 144.713C19.5833 145.687 21.4583 146.713 22.9374 147C24.7187 147.338 25.0312 146.781 26.802 145.849C31.3697 143.458 35.0676 144.458 39.276 147.344C41.0833 148.578 42.927 150.088 45.0468 150.765C46.8437 151.338 46.177 150.932 47.3333 150.552C49.3541 149.88 51.4999 149.953 53.5885 150.297C56.1874 150.724 58.651 152.198 61.3176 152.166C64.7447 152.13 67.8124 149.963 71.0833 149.182C75.7447 148.073 80.2447 151.443 84.9426 151.047C86.6249 150.911 88.1718 150.291 89.7395 149.724C94.0312 148.166 98.0729 148.463 102.542 149.245C106.083 149.87 109.536 150.76 113.109 151.219C115.99 151.583 119.943 152.422 122.599 150.776C126.187 148.552 128.01 146.406 132.505 147.344C137.531 148.396 142.443 149.89 147.437 150.974C150.547 151.651 155.286 151.146 158.036 149.515C161.677 147.354 162.495 143.39 164.411 140.047C165.969 137.333 168.776 136.453 171.328 138.484C173.63 140.312 175.734 144.151 179 144.495C181.292 144.734 181.411 142.416 183.338 141.833C187 140.734 187.776 146.203 190.437 146.927C191.12 147.109 191.557 146.687 192.213 146.625C193.203 146.536 193.49 146.713 194.391 147.198C196.547 148.344 196.229 148.005 198.443 147.38C200.417 146.818 204.526 148.526 203.807 142.177H203.802Z" fill="#D8C1AD"/>
<path d="M192.411 28.7708C189.426 25.2239 185.822 22.6249 181.593 20.9843C179.421 19.6405 177.077 18.7395 174.572 18.276C169.27 16.8489 163.926 16.052 158.442 15.7655C152.244 15.4478 145.895 16.3072 139.713 16.776C136.01 17.052 132.286 17.1562 128.598 17.5676C123.145 18.1666 118.15 20.1197 113.057 22.0728C109.458 23.4478 107.447 22.6562 104.14 20.7291C100.635 18.6874 97.3483 16.2239 93.6921 14.453C89.5879 12.4687 87.6556 14.1978 84.4525 16.9791C78.2858 22.328 72.0567 27.2864 63.4265 26.1562C57.5515 25.3853 50.5619 20.7239 45.2962 25.4687C43.015 27.5208 42.4785 31.2603 41.7077 34.052C40.6087 38.0208 39.5567 42.0051 38.3848 45.9478C37.0046 50.578 34.8327 54.776 32.8379 59.151C31.015 63.151 30.6869 66.8124 30.5358 71.1353C30.4473 73.526 30.14 75.953 30.7702 78.2968C31.2285 79.9947 32.0098 81.4478 32.1556 83.2395C32.3275 85.4374 31.89 87.401 30.7025 89.1874C34.7285 88.3228 37.6087 86.9635 41.8119 87.927C43.5567 88.328 45.1869 89.5103 47.0775 88.953C48.9525 88.401 50.4265 87.2655 52.4369 88.4322C54.3015 89.5103 54.5254 91.8697 55.2025 93.7291C56.3015 96.7603 57.791 99.427 59.64 102.047C60.8796 103.802 62.1556 105.922 64.0619 107.047C65.4317 107.865 67.0306 107.963 68.489 108.599C71.9421 110.109 72.4369 113.297 72.1504 116.786C72.0254 118.224 71.7754 119.521 71.0931 120.818C70.864 121.25 69.9473 122.255 69.9056 122.833C69.7858 124.302 71.2025 125.245 72.1556 126.13C74.1765 128.005 76.416 129.375 78.8848 130.552C80.9837 131.552 83.5202 131.995 84.4473 134.307C85.7494 137.547 84.5827 144.338 88.1348 146.151C89.9004 147.052 91.6556 145.646 93.1817 144.963C94.765 144.26 96.5306 143.891 98.1973 143.49C103.812 142.125 110.723 140.338 116.218 142.755C118.921 143.948 121.296 146.167 124.119 147.01C127.005 147.87 130.229 146.708 133.015 145.943C138.364 144.474 143.088 142.016 148.775 142.266C152.702 142.437 156.817 143.557 160.447 145.026C163.265 146.172 164.077 146.807 166.874 145.646C169.119 144.708 170.994 143.042 173.546 143C177.505 142.943 182.968 146.266 182.333 150.792C184.166 151.828 187.499 151.323 189.473 151.068C192.176 150.708 194.952 150.526 197.619 149.99C201.213 149.271 204.14 147.583 205.15 143.76C206.656 138.042 206.182 131.151 206.229 125.26C206.255 121.87 205.827 118.458 205.999 115.068C206.098 113.094 206.645 111.234 206.926 109.297C207.426 105.911 206.119 103.01 205.729 99.6926C205.479 97.6353 205.546 95.552 205.307 93.4947C205.114 91.7916 204.739 90.1353 204.734 88.4166C204.729 85.552 206.218 82.7968 206.083 80.0468C205.89 76.1562 203.38 71.7291 201.916 68.1718C200.015 63.5312 197.541 59.9322 193.723 56.6353C191.708 54.8958 189.89 52.9114 187.656 51.4739C185.531 50.1041 184.406 48.7343 182.822 46.7916C181.666 45.3749 180.442 44.4374 180.739 42.5155C181.26 39.1301 184.551 36.8333 186.437 34.2291C187.135 33.2655 187.598 32.1718 192.421 28.7655L192.411 28.7708Z" fill="#DFCBB5"/>
<path d="M186.099 57.9687C187.573 55.0312 190.515 50.927 190.604 47.276C190.656 45.1145 191.036 42.9166 191.458 40.8072C192.198 37.1197 193.036 33.4791 194.099 29.8749C194.557 28.3124 194.703 26.651 195.182 25.1041C195.317 24.6822 195.911 23.8385 195.953 23.3697C196.13 21.4218 193.87 19.2968 192.541 18.1093C190.39 16.1822 188.245 14.0937 185.557 12.9843C183.281 12.0468 180.614 12.026 178.604 10.5364C176.974 9.32284 175.484 7.94784 173.37 7.68221C170.745 7.34888 168.198 9.17179 166.208 10.6718C164.333 12.0937 162.942 14.3749 161.245 16.0676C160.213 17.0885 159.151 18.1093 157.927 18.901C154.677 21.0103 151.5 21.3593 147.906 22.0728C146.828 22.2812 145.76 22.802 144.666 22.8228C141.547 22.8801 138.484 20.401 135.489 19.8697C133.734 19.5624 133.39 20.2916 132.448 21.7395C130.984 24.0051 129.739 25.5937 127.526 27.0468C126.609 26.677 126.192 25.5208 125.338 24.927C124.401 24.2812 123.442 24.0833 122.286 23.9687C117.062 23.427 113.385 26.7603 110.531 30.7083C108.265 33.8437 106.229 34.8124 102.521 33.9739C100.213 33.4478 97.8695 32.3176 95.4893 32.2187C91.5154 32.0624 87.4789 32.4791 83.4945 32.4687C81.4008 32.4635 79.3956 31.9635 77.3435 31.8958C76.0831 31.8593 75.3174 32.1822 74.7237 33.2916C73.656 35.2864 73.4008 38.427 72.6716 40.526C71.6456 43.4895 70.6872 46.4687 68.6612 48.8801C68.2602 49.3593 67.3279 49.9843 67.3643 50.6614C67.4372 51.9166 69.4581 53.3489 70.2966 54.0572C72.6768 56.0624 75.3435 58.0885 78.0935 59.5572C81.9268 61.6041 84.8122 62.1197 88.6091 60.151C92.1508 58.3124 95.2862 54.6562 99.156 53.5051C102.067 52.6405 105.521 53.4635 108.396 54.1562C113.958 55.5103 119.177 58.3437 124.406 60.5572C127.104 61.6978 129.817 62.5833 132.328 60.8333C134.708 59.177 136.531 57.552 139.536 58.9374C141.755 59.9531 141.453 61.0468 140.276 62.7187C139.026 64.4947 138.021 66.1978 137.307 68.2499C136.474 70.6197 136.151 75.276 133.521 76.5728C132.448 77.0989 131.166 76.7239 130.078 76.4635C127.151 75.7603 123.859 74.0051 120.776 74.4999C115.036 75.427 113.677 81.1301 111.021 85.2864C110.114 86.6978 109.51 87.5728 107.859 87.6926C105.963 87.8281 103.859 87.4843 101.974 87.2395C98.2549 86.7603 95.8747 85.3697 94.4737 89.5416C93.7654 91.6666 93.6508 93.9166 93.3227 96.1041C92.9893 98.3489 91.6508 100.677 90.4216 102.531C89.2341 104.312 87.7497 105.943 86.6352 107.76C85.4112 109.755 84.9789 112.448 84.7966 114.745C84.3956 119.901 86.1872 124.349 89.7966 128.031C91.1612 129.422 92.8383 130.422 94.2289 131.792C95.4633 133.005 96.4112 134.469 97.4789 135.828C98.531 137.177 99.8799 139.141 101.474 139.901C102.354 140.318 103.036 140.125 103.963 140.047C106.312 139.849 108.541 139.38 110.932 139.401C113.588 139.417 115.823 139.875 118.38 140.37C121.187 140.922 124.104 141.031 126.942 141.432C128.406 141.635 131.547 142.734 133.015 142.198C135.031 141.458 136.771 137.693 138.245 136.229C142.286 132.213 147.703 132.146 152.937 131.177C156.354 130.552 157.64 133 159.937 135.328C162.343 137.76 162.932 137.437 165.463 134.844C167.989 132.26 169.578 129.896 173.453 131.328C175.172 131.969 176.474 133.338 178.099 134.156C179.745 134.984 181.442 135.745 183.093 136.552C184.781 137.38 186.442 137.818 188.286 138.167C190.849 138.661 192.567 138.062 195 136.948C197.656 135.713 198.463 134.531 199.666 132.047C200.692 129.937 201.323 127.578 202.422 125.458C202.885 124.573 203.687 123.719 203.703 122.656C203.734 120.604 201.208 119.109 199.932 117.776C196.531 114.224 193.109 109.615 193.698 104.422C194.005 101.719 193.239 99.8645 192.213 97.3072C191.666 95.9478 191.067 94.4374 189.896 93.4687C188.948 92.6822 188.047 92.8853 187.62 91.6978C187.073 90.1822 188.604 87.552 189.099 86.2239C189.916 84.0312 190.057 81.9531 190.401 79.677C190.656 78.0051 191.281 76.5728 190.937 74.9062C190.604 73.302 189.797 72.0468 189.172 70.5676C188.427 68.8072 188.276 66.8645 187.541 65.0624C186.594 62.7343 184.849 60.4322 186.083 57.9687H186.099Z" fill="#E6D2BE"/>
<path d="M67.3436 122.698C67.4999 117.932 67.953 113.094 67.0415 108.37C66.7915 107.109 66.6822 106.24 66.8228 104.984C67.1197 102.354 67.9634 101.411 70.1561 99.8958C73.0103 97.927 76.0103 97.25 74.0155 93.5885C72.9582 91.6562 71.729 89.9427 70.8853 87.875C69.9217 85.4947 69.5155 82.9062 68.4738 80.5468C67.6978 78.7968 67.3176 77.7916 67.4217 75.8072C67.5624 73.1875 67.9061 70.7291 67.5728 68.0989C67.1665 64.9062 66.328 61.9531 65.5155 58.8697C64.729 55.901 64.1978 53.1354 62.9061 50.302C60.8072 45.6979 55.2967 40.1718 57.078 34.5364C57.7134 32.5312 60.1769 30.1822 61.453 28.5572C62.8488 26.7708 64.1717 24.927 64.729 22.6822C65.5572 19.3541 64.7707 15.7812 65.5936 12.3593C65.9894 10.75 67.0624 9.3437 67.2655 7.73433C67.5519 5.47912 65.0676 4.9062 63.1457 5.38016C60.854 5.94266 59.4374 6.44266 57.0572 5.87495C54.8853 5.35412 53.3749 4.07287 51.1301 3.5937C47.4113 2.79162 43.3124 2.07287 39.4999 2.13016C36.4113 2.17704 33.104 2.29162 30.0988 3.06245C28.5155 3.4687 27.1926 4.26037 25.6717 4.75516C23.0936 5.59891 20.0988 5.0312 17.4947 4.61454C16.2499 4.41662 14.9686 4.66141 13.7342 4.50516C12.8801 4.39058 12.1665 4.05725 11.2603 4.17183C6.61444 4.76037 7.56757 11.9114 8.06236 15.1145C8.39049 17.2708 7.09882 19.3072 7.49986 21.4479C8.07799 24.5052 13.0415 26.6718 12.4894 30.1302C12.3176 31.2083 11.0832 31.8854 10.6353 33C10.2499 33.9687 10.1249 35.1406 9.91653 36.1614C9.29153 39.1302 8.10403 41.8593 7.8384 44.9479C7.61444 47.5572 7.49465 50.25 7.36965 52.8437C7.24465 55.6927 8.3384 58.5572 8.05715 61.401C7.84882 63.5208 6.20298 65.2291 6.09882 67.4322C6.01548 69.2239 6.91653 71.8125 7.40611 73.4895C7.85403 75.0156 8.42173 76.7708 9.51549 78C10.3749 78.9635 11.7394 79.8125 11.078 81.3072C10.7707 81.9947 9.27069 82.8489 8.69257 83.3072C7.64049 84.1302 6.94778 84.6927 6.23944 85.8437C5.01028 87.8593 5.44778 89.8697 5.97382 92.1666C6.81236 95.776 7.63528 100.151 6.28111 103.776C4.92174 107.422 5.1509 110.099 6.37486 113.833C7.17173 116.25 6.94778 117.651 6.38007 120.156C5.60403 123.573 7.28632 127.635 8.07799 131.052C8.5884 133.25 8.93736 134.641 8.41132 136.891C8.19778 137.802 8.02069 138.724 7.81757 139.641C7.63007 140.516 7.1509 141.682 7.14569 142.573C7.13528 143.885 7.91653 145.052 8.38528 146.24C8.88007 147.484 9.01028 149.088 10.0363 150C11.5415 151.338 13.5363 149.526 14.8749 148.406C17.9269 145.865 19.8592 143.104 24.1822 143.219C25.4634 143.255 26.828 143.443 28.0884 143.724C29.1926 143.943 30.2603 144.297 31.2707 144.786C31.6926 145.031 32.1197 145.266 32.5519 145.49C33.0467 145.417 33.2394 144.698 33.5624 144.375C34.5311 143.411 35.6353 142.505 36.6926 141.635C39.2394 139.552 42.5884 139.021 45.479 140.901C47.5884 142.276 49.0415 144.828 51.4322 145.792C54.2863 146.937 57.479 146.661 60.2238 145.375C63.0572 144.052 65.2186 141.729 66.4426 138.88C68.0624 135.115 67.1144 129.911 67.3436 122.682V122.698Z" fill="#E6D2BE"/>
<path d="M192.749 56.4114C187.796 58.1926 183.395 60.7499 178.171 59.5937C176.848 59.302 175.624 58.9791 174.416 58.3541C173.963 58.1197 173.463 57.5989 172.978 57.4999C170.556 57.0051 169.176 60.0416 168.26 61.7135C166.583 64.7812 164.864 67.9999 162.364 70.4791C160.598 72.2239 159.588 71.8489 157.291 71.3489C154.661 70.7812 152.145 69.9895 149.447 70.578C145.994 71.328 147.671 75.4322 147.145 78.1562C146.905 79.3853 146.718 79.7395 147.583 80.8645C148.536 82.1093 150.161 83.7655 151.603 84.401C153.114 85.0624 154.911 84.5728 156.437 84.2343C157.734 83.9478 159.093 83.6614 160.348 83.2395C160.911 83.0468 161.9 82.4062 162.551 82.4062C165.306 82.4114 165.926 86.3333 165.879 88.4895C165.859 89.401 165.442 90.5312 165.166 91.3749C164.541 93.2708 164.786 94.8228 164.447 96.7447C162.504 97.177 160.025 94.8853 157.947 94.7708C155.53 94.6353 153.291 95.828 150.968 96.177C148.26 96.5833 145.421 96.1978 143.64 98.802C141.833 101.437 143.114 104.078 145.577 105.745C147.827 107.271 150.046 106.13 152.171 104.917C155.78 102.844 159.197 100.411 163.463 99.9687C165.833 99.7239 168.676 100.906 170.822 99.5676C172.228 98.6874 173.385 96.8645 174.395 95.6249C175.312 94.4947 176.426 93.401 177.28 92.2708C178.14 91.1458 178.567 89.5885 179.504 88.4114C180.661 86.9583 180.895 86.7655 182.14 88.078C184.541 90.6041 186.28 93.6926 187.713 96.8385C189.02 99.7135 190.093 101.469 189.296 104.875C188.494 108.286 186.468 111.948 184.489 114.74C182.848 117.057 180.463 118.932 179.588 121.724C179.098 123.286 179.546 123.823 178.171 124.677C175.973 126.031 172.515 125.234 170.119 125.281C167.624 125.338 164.859 125.885 162.379 125.578C159.9 125.276 159.536 123.63 158.129 121.833C157.129 120.552 155.833 119.161 154.353 118.443C152.265 117.437 150.801 118.396 148.838 119.37C147.056 120.255 143.598 122.963 141.52 122.76C139.843 122.599 138.426 120.328 137.405 119.213C135.963 117.625 134.603 115.349 132.994 113.995C131.213 112.495 128.64 112.693 126.833 111.51C123.64 109.422 124.562 104.594 126.275 101.927C127.379 100.213 137.338 92.4635 133.9 90.2291C132.437 89.2708 129.853 89.5989 128.176 88.9374C127.317 88.6041 126.645 88.0728 125.76 87.8124C122.343 86.8176 118.286 89.4426 115.53 91.2603C113.317 92.7187 111.161 95.0103 108.53 95.6614C107.619 95.8905 106.911 95.6718 106.03 95.5155C103.723 95.1093 100.968 94.8958 98.8013 95.9739C94.2752 98.2343 93.7492 103.76 93.6919 108.167C93.6606 110.463 92.9992 112.557 94.27 114.578C95.6711 116.823 97.4106 117.568 96.7752 120.385C96.3273 122.37 95.6398 124.109 96.5669 126.052C97.5825 128.187 99.994 129.937 101.572 131.698C103.843 134.219 106.447 136.63 109.723 137.786C111.926 138.562 112.999 138.422 114.749 136.87C115.671 136.052 116.03 135.354 117.28 134.88C119.541 134.026 122.609 134.24 124.791 135.229C126.468 135.99 128.614 138.026 130.536 138.036C131.567 138.036 132.848 137.203 133.728 136.833C135.588 136.052 137.593 135.229 139.551 134.745C143.223 133.844 145.254 135.292 148.452 136.521C150.468 137.297 152.181 136.948 154.15 136.083C156.421 135.088 158.77 133.536 161.333 133.401C163.343 133.292 166.187 133.922 168.155 134.474C169.958 134.979 171.541 136.12 173.333 136.635C175.515 137.266 177.692 136.838 179.911 136.937C181.713 137.016 183.812 137.109 185.421 137.87C186.801 138.521 187.879 139.594 189.15 140.375C191.041 141.536 192.921 141.682 194.885 140.708C196.984 139.672 198.202 138.177 199.676 136.443C200.786 135.141 202.994 134.365 203.822 132.974C204.223 132.297 204.306 130.526 204.405 129.859C204.692 127.927 204.911 125.969 205.067 124.021C205.223 122.078 205.249 119.568 206.14 117.776C207.004 116.042 208.26 115.297 208.452 113.167C208.666 110.875 207.822 108.016 206.926 105.911C205.489 102.5 202.062 100.349 200.791 96.776C200.275 95.328 200.327 93.8176 201.03 92.4166C202.53 89.4114 205.119 87.151 206.452 83.953C207.176 82.2083 208.239 80.1822 206.562 78.7499C204.317 76.828 200.197 77.3853 198.176 74.9791C195.786 72.1301 198.161 67.9739 198.885 64.9999C199.848 61.026 199.577 59.1353 192.744 56.4478L192.749 56.4114Z" fill="#D3C1AE"/>
<path d="M65.2873 132.219C65.9279 128.687 66.7352 125.156 67.0685 121.578C67.3081 119.062 67.1466 120.484 66.5946 118.906C66.256 117.948 65.7664 116.989 65.3706 116.047C64.6935 114.417 64.4956 112.974 64.0581 111.359C63.6414 109.818 62.381 109.057 61.1623 108.078C59.1102 106.422 56.7404 104.359 56.0581 101.698C54.5998 95.9791 61.1571 90.9218 63.5321 86.5259C64.1518 85.3749 64.1466 85.4009 63.6727 84.4009C63.0737 83.1405 62.1831 82.052 61.605 80.7655C60.3966 78.0624 59.6571 75.5624 59.5529 72.5416C59.4748 70.2864 60.1571 67.7603 59.6831 65.5312C59.3654 64.0676 58.2091 63.177 57.1883 62.1405C53.8133 58.703 49.6727 56.0884 46.23 52.7082C44.5633 51.0728 42.7664 49.5728 41.1102 47.9218C39.6727 46.4895 37.5893 44.6926 36.5425 42.9843C35.2925 40.9374 37.006 38.8489 37.8289 36.9478C39.1623 33.8593 40.9852 31.2603 42.5529 28.3176C44.0841 25.4374 43.5633 22.1249 43.9279 18.9947C44.1831 16.7916 44.7716 14.4999 45.2977 12.3489C47.5373 11.9478 50.0633 13.1822 52.2925 12.7655C53.8498 12.4791 54.7664 11.328 55.6206 10.0416C56.5425 8.66136 57.0893 7.23948 58.1362 5.96344C58.5946 5.40094 59.2612 4.83323 59.4123 4.11448C56.7925 2.8801 53.355 3.15094 50.5581 3.17177C48.2456 3.1874 45.9956 3.11448 43.6831 3.32281C41.0893 3.5624 38.4591 3.99469 36.1571 5.28635C34.7143 6.09885 33.4643 7.23427 32.0112 8.05719C29.7508 9.33844 27.9852 8.2499 26.1102 6.5624C24.6414 5.23948 22.355 1.48427 20.3185 1.30198C18.3393 1.1249 16.1883 3.35406 14.2977 3.91135C12.5008 4.4374 10.9123 4.67698 9.19351 5.53115C6.4956 6.8749 5.45393 9.15615 5.1883 12.1405C4.95393 14.7343 4.77685 17.3436 5.08414 19.9374C5.28726 21.677 5.55289 23.4374 5.64664 25.1874C5.7508 27.1301 5.42789 29.1301 5.97476 31.0311C6.64143 33.3228 8.94351 35.1561 8.88101 37.6614C8.84455 39.2082 7.41226 40.3593 6.6206 41.6197C5.07893 44.0624 3.3081 46.3801 2.09976 48.9999C1.3081 50.7239 1.91226 50.8957 2.75601 52.7655C4.75601 57.2291 4.03726 61.4687 3.11539 65.9999C2.4331 69.3332 2.89664 73.802 3.71435 77.1041C4.40185 79.8697 6.76643 83.1874 5.79247 86.0676C5.26643 87.6249 4.1831 89.1041 3.3081 90.4791C1.99039 92.5312 2.1883 93.1926 3.86018 95.0103C6.38622 97.7603 7.51643 100.667 8.22476 104.323C8.88622 107.713 6.9956 110.823 7.77685 114.156C8.8081 118.536 11.3862 122.26 13.0946 126.307C13.7821 127.927 14.7925 130.333 14.4175 132.068C14.1779 133.182 13.605 134.469 13.3289 135.677C12.9591 137.333 12.9539 138.818 13.1258 140.526C13.3706 142.927 14.4331 143.104 16.8706 143.906C22.4071 145.719 29.5946 146.911 34.4435 142.745C35.9071 141.484 36.7925 139.349 38.6414 138.5C40.6623 137.578 43.4539 138.729 45.1206 139.969C47.23 141.531 48.23 143.713 50.8966 143.187C54.605 142.448 58.1987 144.036 61.8185 143.349C65.8914 142.573 65.0268 137.792 65.7508 134.75C66.5164 134.739 67.2612 134.87 65.2873 132.245V132.219Z" fill="#D3C1AE"/>
<path d="M51.5928 106.344C52.4001 100.062 54.4366 93.1719 52.9626 86.8437C52.4522 84.6614 52.3637 82.4219 52.0564 80.2187C51.4783 75.9791 52.2491 71.6406 49.572 68.0625C46.8064 64.3646 43.0668 64.3385 38.9939 63.1198C35.4887 62.0625 34.9001 58.6666 33.6501 55.651C33.1762 54.5 32.4835 53.4635 32.0043 52.3125C31.5199 51.1458 31.3324 49.8177 30.5981 48.7552C30.1085 48.0416 29.3897 47.1719 28.447 47.2604C26.8324 47.4062 24.9366 49.9479 23.8793 51.125C23.0824 52.0156 22.6658 52.6458 22.9626 54.1198C23.2439 55.4948 25.7491 58 25.4158 59.5364C25.1137 60.901 22.4574 61.4687 21.421 62.6041C20.3585 62.1146 20.3376 60.9375 19.9626 60.0052C19.5772 59.0364 18.9314 58.5156 18.3845 57.6666C16.8428 55.2812 19.572 52.4219 19.1866 49.8437C19.0668 49.0573 18.3272 48.5521 18.0095 47.8958C16.8064 45.4114 18.1866 43.2916 19.7491 41.3229C22.1293 38.3177 25.4731 35.1094 25.296 31.0781C25.2022 29.0469 26.171 26.1198 23.2022 26.8281C18.2439 28.0104 19.5668 34.1927 17.1449 37.2864C16.2491 38.4271 14.8949 38.9062 13.8949 39.9114C12.1553 41.651 11.0772 44.4739 11.0356 46.9271C11.0095 48.5364 11.2022 50.3333 11.5043 51.8854C11.7387 53.1198 12.0303 54.2812 12.046 55.5677C12.0616 56.7344 11.6866 57.75 11.6137 58.875C11.5095 60.4948 12.2335 62.3229 12.3585 63.9948C12.5303 66.151 12.7283 68.2291 12.7335 70.4114C12.7335 72.5416 13.322 73.0625 15.4887 73.6562C16.9366 74.0521 21.6137 75.7969 23.0199 74.9427C23.6658 76.4531 24.6501 77.7916 25.3428 79.276C25.7543 80.1666 26.0772 81.3646 27.0303 81.8073C28.8637 82.651 31.1397 81.526 32.9522 82.6771C34.0772 83.3906 34.5512 83.901 34.572 85.1041C34.5981 86.6614 33.8272 88.5469 33.4939 90.0521C33.1293 91.7083 33.3428 93.8646 32.921 95.3333C31.6033 95.1614 30.572 94.2448 29.4418 93.6458C28.3168 93.0416 27.1762 92.7604 25.9001 92.4896C24.822 92.2604 23.7074 92.4062 22.6814 92.1614C21.2178 91.8125 20.7335 90.151 19.4783 89.6198C17.796 88.9062 17.3012 91.0677 16.9678 92.5521C15.9418 97.0312 17.8533 102.25 16.1501 106.484C15.671 107.672 14.8272 108.786 15.0512 110.135C15.4626 112.625 18.5303 114.068 20.6137 114.797C22.7647 115.547 24.6397 115.776 26.8637 115.599C28.5147 115.474 28.4418 115.917 28.7283 117.667C29.4731 122.271 28.0772 128.031 34.1553 128.844C36.5095 129.156 39.8168 128.516 41.7595 127.135C44.0928 125.479 45.2751 124.094 47.8324 126.302C49.0928 127.396 51.6085 130.943 53.5616 130.76C55.9314 130.542 56.9158 125.693 58.0824 124.026C59.3689 122.177 59.6866 122.266 58.7908 119.979C57.9158 117.75 57.8376 116.391 56.1137 114.604C54.3845 112.818 54.3949 110.339 53.9106 107.865C53.6241 106.411 51.8585 101.297 51.6033 106.328L51.5928 106.344Z" fill="#E6D2BE"/>
<path d="M188.916 69.5415C186.479 71.13 177.63 75.0207 180.38 79.9946C181.489 82.005 184.484 83.953 186.781 83.3228C189.312 82.63 189.359 79.6196 191.906 82.3019C193.942 84.4582 194.557 88.6509 196.828 90.1769C197.473 90.6196 198.041 90.4738 198.52 91.2394C199.291 92.453 198.833 94.1509 198.692 95.4478C198.458 97.5623 197.098 101.885 200.447 99.2811C202.343 97.8071 204.499 94.7915 204.109 92.2394C203.973 91.3332 202.932 87.729 188.916 69.5415Z" fill="#D5C1AA"/>
<path d="M143.396 123.161C139.131 122.802 134.808 122.422 130.657 122.562C130.214 122.583 129.521 122.677 129.099 122.588C126.849 122.13 124.474 116.984 123.61 114.911C122.724 112.807 122.641 110.739 121.427 108.807C120.219 106.88 119.229 104.719 117.964 102.875C117.459 102.135 116.287 100.916 115.511 100.432C113.292 99.0467 107.922 100.901 105.584 101.838C104.891 102.114 102.391 102.755 101.99 103.568C101.558 104.432 102.693 106.927 102.912 107.765C103.433 109.771 103.86 111.781 104.479 113.755C104.818 114.828 104.834 116.161 105.563 116.677C106.339 117.229 108.073 117.406 108.974 117.797C110.334 118.385 111.698 119.083 113.016 119.765C114.537 120.557 115.016 120.724 115.349 122.146C115.839 124.213 116.006 126.875 117.584 128.562C119.104 130.198 120.401 130.198 122.24 129.14C123.922 128.166 125.459 127.531 127.229 128.599C129.037 129.693 129.912 131.458 132.203 131.005C135.193 130.416 137.766 128.708 140.698 128.01C141.948 127.713 143.308 127.62 144.521 128.068C145.823 128.547 146.709 130.156 147.985 130.463C149.443 130.823 151.292 129.63 152.698 129.135C153.438 128.875 155.792 128.229 155.834 127.172C155.912 125.281 148.651 123.604 143.401 123.161H143.396Z" fill="#DAC3AD"/>
<path d="M58.6457 124.474C58.7342 121.167 59.1821 117.922 59.9946 114.729C60.3957 114.484 60.703 114.151 60.9217 113.74C61.2811 113.042 61.1821 112.844 61.005 112.302C60.5207 110.838 57.8071 109.88 56.63 109.088C56.1248 108.75 54.9373 107.594 54.3071 107.635C53.13 107.719 52.2498 110.109 51.88 111.016C49.2238 111 47.6665 108.187 46.4582 106.24C45.4529 104.625 44.3175 104.109 43.0207 102.865C41.6925 101.599 40.0675 101.01 39.0623 103.036C37.3904 106.427 41.5311 109.5 43.5832 111.859C44.2967 112.672 45.1457 113.281 45.4686 114.307C45.755 115.229 45.2186 116.146 45.4738 117C46.2186 119.437 49.1821 118.766 50.854 119.875C53.0675 121.338 50.4321 124.109 51.4113 125.87C52.3175 127.5 54.9009 127.198 58.6457 124.474Z" fill="#DAC3AD"/>
<path d="M95.219 72.2447C92.1826 70.2968 89.0524 68.5416 85.8128 66.9739C84.042 68.0572 84.969 69.1041 86.0576 70.3333C86.9378 71.328 87.7659 73.2499 89.1253 73.6353C90.1774 73.9374 90.4847 72.9843 91.2086 73.052C92.844 73.2083 93.0836 76.7812 94.7399 77.6093C96.3232 78.3958 99.3805 74.9166 95.219 72.2447Z" fill="#D7BD9F"/>
<path d="M139.928 37.7082C137.037 36.6457 134.074 36.0675 131.037 35.979C131.381 37.6196 130.464 38.8696 132.407 39.7655C134.225 40.6092 135.938 39.4946 137.74 39.88C138.417 40.0259 138.995 40.2446 139.594 40.6092C140.173 40.9634 140.855 42.0103 141.443 42.1925C142.636 42.5623 144.886 39.5415 139.933 37.7082H139.928Z" fill="#D7BD9F"/>
<path d="M92.1927 32.3905C89.0573 33.3905 85.9115 34.7135 82.7448 35.5624C82.5625 35.6093 82.474 35.802 82.1771 35.8228C81.3177 35.8749 80.2917 35.4791 79.4635 35.2916C78.0885 34.9843 77.4375 34.7864 76.1875 35.453C76.8698 33.4062 78.4062 30.9687 79.8802 29.3541C81.2031 27.8957 82.474 28.2291 84.3594 28.2916C86.6927 28.3697 88.7917 28.0624 91 27.2291C92.2292 26.7655 94.6094 24.8905 92.1927 32.3853V32.3905Z" fill="#D7BD9F"/>
<path d="M26.7715 41.1979C24.3132 42.3177 22.0215 43.7031 19.8965 45.349C20.1204 46.1146 19.8809 46.5104 20.4121 47.1563C21.0007 47.8646 23.4277 48.4167 24.334 48.0365C26.4069 47.151 25.5736 43.9271 26.6777 42.4896C28.4434 40.1823 32.1569 43.4167 33.584 41.6823C34.6204 40.4271 33.8913 37.9583 26.7767 41.1979H26.7715Z" fill="#D7BD9F"/>
<path d="M58.8127 51.4322C55.5262 50.8333 52.2241 50.5155 48.9012 50.4895C48.4637 51.3801 46.5366 52.7655 47.6668 53.9947C48.3179 54.703 52.4793 55.2343 53.3543 55.0624C55.5835 54.6249 56.1669 52.9687 58.4012 54.9895C60.8023 57.1562 63.7189 58.6249 58.8127 51.4322Z" fill="#D7BD9F"/>
<path d="M191.271 86.3229C189.896 85 181.354 74.4791 178.62 80.4479C177.87 82.0781 177.578 83.8593 179.891 83.8541C181.088 83.8541 182.099 83.3021 183.286 83.9687C185.057 84.9687 186.167 87.651 187.328 89.1614C187.963 88.8021 188.536 88.9948 191.271 86.3177V86.3229Z" fill="#D7BD9F"/>
<path d="M163.714 83.0365C161.563 83.5156 159.5 84.2344 157.531 85.1979C158.146 86.2292 157.427 87.1562 158.62 88.1094C160.484 89.6042 161.568 86.9583 163.068 85.9792C164.302 85.1771 166.161 84.474 167.651 84.8646C168.922 85.1979 169.646 86.401 163.714 83.0312V83.0365Z" fill="#D7BD9F"/>
<path d="M194.88 129.62C193.786 129.76 185.682 129.37 184.682 132.495C184.187 134.047 186.494 135.396 187.749 136.094C190.541 137.64 191.76 136.125 194.541 135.557C196.239 135.208 198.13 136.13 194.88 129.62Z" fill="#D7BD9F"/>
<path d="M114.078 143.411C113.974 143.39 102.797 139.786 103.12 141.979C103.23 142.75 106.474 143.672 107.026 143.859C108.823 144.458 110.912 144.385 112.797 144.797C113.938 145.041 115.756 145.791 114.084 143.411H114.078Z" fill="#D7BD9F"/>
<path d="M6.52026 151.943C7.70776 148.328 8.84839 144.698 9.94735 141.052C9.83797 137.818 7.57234 133.927 6.52026 130.333C5.83797 127.984 5.89526 125.771 6.37443 123.411C6.81193 121.229 5.99943 119.557 5.30151 117.542C4.60359 115.531 5.52026 113.708 5.17651 111.708C4.85359 109.776 3.09839 108.536 3.30672 106.776C3.53068 104.911 5.4786 103.193 5.1088 101.208C4.81714 99.6406 3.52547 99.25 2.62964 100.656C1.5411 102.365 2.38485 109.51 2.76505 111.276C3.03068 112.526 2.83797 113.698 2.87964 114.927C2.94214 116.62 3.26505 118.224 3.43172 119.901C3.6713 122.333 2.32234 124.318 1.98901 126.719C1.61401 129.443 2.88485 137.609 2.94734 139.219C2.99422 140.51 2.65568 141.63 2.47859 142.937C2.2338 144.703 2.97339 149.062 2.89526 150.203C2.85359 150.839 3.03068 151.469 2.87443 152.109C3.9838 152.484 5.06193 153.047 6.52026 151.948V151.943Z" fill="#BDA88C"/>
<path d="M24.0478 152.219C21.9905 149.088 19.8395 146.016 17.6103 143.005C13.6572 143.641 10.5426 148.583 11.4124 152.578C11.8551 154.615 14.053 155.578 16.0218 155.828C17.4437 156.01 18.5635 155.271 19.8968 154.901C20.9905 154.599 21.6468 154.359 24.0478 152.224V152.219Z" fill="#BDA88C"/>
<path d="M31.7088 147.563C30.8338 145.198 29.6203 143.036 28.0786 141.078C26.7974 142.88 25.5526 144.75 25.4849 147.057C25.4536 148.036 26.8599 151.292 31.7088 147.563Z" fill="#BDA88C"/>
<path d="M14.3444 115.583C12.6725 113.99 10.8861 113.51 8.99023 114.135C9.39649 115.729 10.0163 117.849 14.3444 115.583Z" fill="#BDA88C"/>
<path d="M210.005 153.479C207.005 154.073 203.984 154.49 200.948 154.74C200.515 153.995 198.187 154.016 197.291 153.724C195.005 152.995 194.854 150.922 193.14 149.578C190.828 147.755 189.515 151.49 187.64 152.724C185.005 154.448 183.151 150.698 180.245 151.443C178.161 151.979 176.776 154.443 174.781 155.271C171.437 156.651 167.26 155.443 163.713 155.359C161.817 155.318 159.969 155.672 158.078 155.662C157.156 155.662 156.297 155.354 155.401 155.307C153.802 155.24 152.166 156.151 150.573 156.198C148.651 156.266 147.812 154.068 146.052 154.271C144.807 154.417 137.109 157.031 134.713 156.901C132.62 156.792 130.448 157.531 128.364 157.547C127.234 157.557 125.922 157.214 124.687 157.401C123.343 157.609 122.073 158.162 120.802 158.49C119.13 158.922 117.515 158.531 115.802 158.427C113.208 158.276 111.25 156.875 108.609 156.505C106.489 156.208 104.463 156.917 102.349 156.49C100.885 156.198 99.5466 155.74 98.0779 155.901C91.0622 156.672 84.2393 156.115 77.1143 156.026C75.1664 156 74.4841 155.563 72.8331 154.51C71.3383 153.552 70.2758 153.651 68.6508 154.391C65.5623 155.787 56.406 153.62 53.5258 153.859C51.9789 153.99 49.4893 154.656 48.0518 154.344C46.9789 154.115 46.6456 153.307 45.7914 152.823C44.7237 152.208 44.2654 152.552 43.1873 153.005C41.182 153.854 36.2654 154.318 35.5675 154.344C34.3279 154.396 33.1508 155.354 32.13 155.958C29.7133 157.385 27.2914 157.453 24.5258 157.875C20.4112 158.5 16.2133 158.74 12.156 158.214C10.5154 158.005 8.91121 157.672 7.27058 157.557C6.54662 157.505 4.41121 157.042 3.94246 157.438C-0.833583 159.875 11.1872 160.635 14.6456 160.432C16.2341 160.344 17.6925 159.542 19.3018 159.547C20.7758 159.547 22.281 159.938 23.7602 160.052C25.4477 160.188 27.3227 160.167 28.8175 159.589C29.8435 159.193 45.5883 154.984 46.8539 155.146C48.1195 155.307 53.8487 155.729 55.3591 155.979C56.8643 156.234 58.4477 155.896 59.755 156.26C60.8331 156.563 61.2654 157.823 62.3279 158.156C64.1248 158.724 65.4998 156.901 67.0466 156.333C69.7966 155.328 74.406 160.589 79.6091 160.037C84.4998 159.516 100.609 158.302 105.489 157.906C107.573 157.734 106.432 159.255 108.484 159.724C110.724 160.234 115.859 159.932 118.021 160.542C120.573 161.266 123.745 159.943 126.114 159.323C129.661 158.401 133.192 159.089 136.745 158.677C138.677 158.458 140.401 156.693 142.359 156.844C143.192 156.912 144.161 157.453 144.984 157.391C145.771 157.339 145.703 156.927 146.39 156.745C147.567 156.443 149.562 157.547 150.646 157.682C152.291 157.885 153.948 157.974 155.609 157.776C156.786 157.635 157.864 157.401 159.041 157.339C161.62 157.188 164.265 157.609 166.823 157.292C169.375 156.974 171.989 156.495 174.635 156.797C176.317 156.99 176.969 156.995 178.203 156.094C179.698 155.01 180.271 153.745 182.276 154.135C184.495 154.563 185.88 154.786 187.974 153.943C189.573 153.302 189.849 151.979 190.969 150.755C192.76 148.792 193.479 151.708 194.807 152.948C195.765 153.833 197.015 154.276 198 155.208C199.291 156.422 199.713 156.719 201.594 156.563C203.442 156.406 205.291 156.224 207.125 156.089C208.942 155.953 210.802 157.354 210.01 153.479H210.005Z" fill="#94897C"/>
<path d="M5.16102 13.4321C5.18707 13.9582 5.08811 14.2082 5.19227 14.8071C5.30686 15.4894 5.94748 16.2238 6.02561 16.8644C6.19748 18.2603 8.86936 23.4894 7.49957 26.1561C6.78082 27.5519 4.91623 28.4894 4.87457 30.1613C4.85373 31.1925 5.60373 31.9582 5.8329 33.0259C6.42144 35.7915 5.67144 37.9946 5.26519 40.7082C5.0829 41.9269 5.02561 42.5728 4.60373 43.6978C3.92665 45.4946 4.7079 46.9373 4.55165 48.6769C4.43707 49.8696 3.67665 50.953 4.31207 51.979C5.0204 53.1196 6.60894 53.38 6.57248 55.1092C6.55165 56.2707 5.29123 57.4842 4.72352 58.6144C4.20269 59.6509 3.62457 60.9634 3.29644 62.0415C2.51519 64.604 3.94227 72.0311 3.56727 73.0832C3.10894 74.3853 3.32769 75.4373 3.46832 76.6978C3.70269 78.7915 3.90582 81.4009 3.91623 83.5103C3.93186 85.4425 4.23394 87.4842 4.04123 89.3019C3.93707 90.255 3.17665 91.4165 3.15582 92.2342C3.12977 93.13 3.97352 94.7134 4.29123 95.5467C5.07769 97.5832 5.5829 99.2759 3.92665 101.125C3.27561 101.849 2.75998 102.109 2.43186 103.047C1.92144 104.505 2.75477 105.349 3.14019 106.687C3.87977 109.245 2.75477 112.052 2.24436 114.661C1.74957 117.193 3.13498 141.979 2.78602 144.359C2.54644 146.005 2.41102 147.922 3.29123 149.417C3.82248 150.323 4.50477 150.963 4.71311 152.109C4.91102 153.203 4.82769 154.614 4.69748 155.682C4.60373 156.427 3.60373 158.463 2.85894 158.625C1.68707 158.88 0.530815 153.719 0.421441 152.682C0.239149 150.838 0.421441 149.042 0.442274 147.198C0.473525 144.521 0.145399 114.51 0.0672741 114.172C-0.406683 112.109 1.75998 110.083 2.30686 108.297C2.7079 106.974 2.17144 106.479 1.94748 105.239C1.68186 103.781 2.3954 102.229 2.24436 100.656C2.12977 99.4478 1.83811 98.5832 2.38498 97.4009C2.68186 96.7603 3.23394 96.3175 3.37977 95.604C3.61415 94.453 3.22873 94.7915 2.82769 93.8436C1.87977 91.6092 2.28602 88.1144 2.43707 85.7707C2.53602 84.229 1.96311 83.1092 2.49436 81.6353C3.00477 80.2186 2.65582 80.0832 2.24957 78.7498C1.8954 77.5988 2.71832 75.6144 2.62457 74.5207C2.4579 72.5832 1.61415 63.3853 1.41623 62.0623C1.12977 60.1353 1.59332 58.7082 2.73915 57.4269C5.05165 54.854 2.10894 53.9321 1.17144 51.3228C0.733941 50.0936 1.40581 46.6196 1.25998 45.3384C1.06207 43.5832 2.55165 41.63 3.09852 40.0623C3.5204 38.8488 3.53082 37.4686 3.8954 36.2394C4.41102 34.4946 3.88498 32.9686 4.05165 31.1144C4.17665 29.703 4.52561 29.0363 4.32248 27.7967C4.11415 26.5363 4.51519 24.8436 4.92665 23.5884C5.96311 20.4009 4.57769 20.4321 3.05686 17.4946C2.45269 16.328 1.68707 14.4269 1.38498 13.1509C1.07769 11.8488 0.676649 4.80713 1.07769 3.54671C1.88498 0.994628 5.01519 10.1353 5.17144 13.4321H5.16102Z" fill="#94897C"/>
<path d="M7.70313 4.38541C10.3073 3.84375 18.401 2.83854 19.2604 2.43229C20.7083 1.73437 22.4844 2.3802 23.3906 3.34895C24.625 4.67187 25.3229 4.85937 26.9948 5.03645C29.3802 5.29166 29.2865 5.44791 31.4323 4.33854C33.776 3.125 34.724 3.93229 37.0417 4.8125C38.0313 5.1875 38.1406 5.03645 38.9948 4.64583C40.7292 3.84375 41.4792 3.83333 43.4688 4.27604C45.5729 4.74479 46.7344 5.1302 48.6875 4.40625C50.4115 3.76562 52.5365 3.88541 54.4479 3.84375C56.0469 3.8125 57.2396 4.53645 58.8125 3.83333C60.4583 3.09895 62.5469 2.18229 64.4688 2.23437C66.4167 2.28125 68.3542 3.02083 70.2969 3.10937C71.1563 3.15104 72.1458 2.86979 73.151 3.02604C74.026 3.16666 74.8438 3.49479 75.7344 3.53645C77.6615 3.61979 79.5365 2.8802 81.4531 2.90104C82.3854 2.91145 83.3229 3.26041 84.2396 3.4427C85.7656 3.74479 86.8229 3.45312 88.3177 2.99479C90.5365 2.3125 92.9375 1.55729 95.1927 1.14583C97.3698 0.755204 99.3125 1.60416 101.458 1.8125C102.922 1.95833 103.411 2.01562 104.786 2.8177C105.323 3.1302 105.943 3.81771 106.724 3.66666C107.505 3.51041 107.839 2.77604 108.635 2.47916C109.427 2.18229 109.823 2.30729 110.708 2.5052C114.734 3.39583 122.474 3.89062 126.432 2.60937C123.406 2.05729 108.125 1.29166 106.984 1.04166C105.542 0.723955 104.125 0.692705 102.682 0.447913C100.854 0.130203 99.2344 0.484372 97.4167 0.473954C94.9063 0.463537 92.375 -0.0572943 89.8229 0.0052044C87.0104 0.0781217 84.8385 0.687496 82.026 0.520829C59.8594 -0.781253 50.9323 1.05208 49.5833 1.28645C47.7448 1.60416 45.9479 2.54166 44.1198 2.41666C42.5469 2.30729 40.2292 1.34375 38.651 1.59375C36.4167 1.94791 36.1458 2.29687 33.8281 2.13541C31.2344 1.95833 28.224 1.59895 25.8646 0.739579C22.5156 -0.484379 18.3021 0.843747 14.7708 1.08333C10.9531 1.34375 4.95312 2.46354 1.21875 3.28645C1.76042 3.60937 2.54167 5.45833 7.70313 4.38541Z" fill="#94897C"/>
<path d="M132.537 2.42189C137.521 2.69793 144.688 4.00001 149.6 3.90106C150.49 3.88543 151.402 3.8646 152.261 4.15626C153.589 4.6146 154.068 5.88543 155.324 6.57814C156.506 7.23439 157.261 6.84897 158.49 6.24481C159.751 5.61981 160.1 5.54168 161.646 5.84897C162.881 6.09897 164.396 6.75001 165.657 6.47918C166.928 6.20835 167.251 5.40626 168.626 5.69272C170.199 6.02085 170.1 6.52085 171.501 5.51043C172.438 4.83335 173.084 4.39585 174.173 4.16668C177.235 3.52085 180.146 5.45314 183.209 5.10939C185.761 4.82814 188.303 4.02085 190.824 3.82293C191.745 3.75001 192.771 4.07814 193.704 4.05731C194.594 4.03647 195.131 3.71876 196.1 4.05731C197.824 4.65106 199.042 6.78126 200.751 7.15106C201.938 7.41147 201.62 6.24481 202.626 5.57814C203.73 4.84897 204.98 5.70314 206.188 5.82814C207.6 5.97397 208.199 5.25522 209.365 4.8021C210.245 4.46355 211.532 3.79168 212.188 2.91668C210.818 2.30731 208.469 3.76043 206.954 3.59376C206.126 3.50001 205.292 3.1771 204.469 3.10939C203.048 3.00001 201.537 3.44793 200.558 4.57814C199.818 4.16668 199.751 3.03126 198.756 2.53647C197.6 1.96356 195.818 1.94793 194.558 1.89585C191.662 1.78647 188.969 1.31772 186.105 1.48439C179.141 1.88022 172.146 1.94272 165.193 2.45835C164.256 2.52606 162.813 2.20314 162.079 2.59376C161.12 3.10418 154.563 3.10939 153.344 2.72397C152.35 2.40626 151.74 1.32814 150.824 1.14585C149.673 0.911473 148.85 2.34376 147.829 2.78647C146.199 3.49481 144.167 2.31772 142.433 2.46876C141.407 2.55731 136.86 2.10939 132.542 2.40626L132.537 2.42189Z" fill="#94897C"/>
<mask id="mask0_283_107513" style="mask-type:luminance" maskUnits="userSpaceOnUse" x="204" y="2" width="12" height="105">
<path d="M204.521 2.36963H215.589V106.37H204.521V2.36963Z" fill="white"/>
</mask>
<g mask="url(#mask0_283_107513)">
<path d="M211.641 2.76545C210.688 5.5519 207.678 13.0884 206.126 15.7707C205.761 16.3957 205.355 16.8852 205.136 17.5623C204.548 19.4009 205.792 20.6769 206.548 22.2707C208.173 25.7082 209.094 30.1977 208.579 34.0154C208.214 36.7186 208.771 38.6248 209.761 41.1665C210.542 43.1821 211.24 45.0259 211.699 47.229C212.094 49.13 212.079 51.5363 211.292 53.4165C210.469 55.38 209.469 57.1665 208.761 59.2082C208.344 60.38 207.751 61.4686 207.381 62.5519C206.256 65.8748 207.261 69.1717 207.574 72.5102C207.709 73.979 207.798 75.5102 207.6 76.9738C207.475 77.9217 207.068 78.8227 207.048 79.7915C207.027 81.4842 207.532 81.2134 208.745 82.104C212.261 84.6769 210.777 87.9529 211.037 91.4165C211.188 93.3227 210.787 95.9425 210.771 97.8436C210.766 99.1352 210.646 104.771 210.37 106.036C212.917 104.323 211.995 94.4582 213.12 91.0571C214.131 87.9998 213.938 85.3748 213.423 82.3019C212.318 75.7759 210.464 69.6665 212.594 63.0467C213.532 60.13 214.506 57.2498 215.183 54.1873C215.417 53.1404 215.594 52.6092 215.12 51.6457C213.933 49.2238 211.49 37.5102 210.933 34.1769C210.428 31.1457 210.85 28.0988 210.173 25.0363C209.313 21.13 209.662 16.6509 210.511 12.7602C210.808 11.3957 213.568 1.85399 211.641 2.78107V2.76545Z" fill="#C4AE9B"/>
</g>
<path d="M208.193 109.573C208.833 111.568 210.12 121.443 209.932 123.073C209.76 124.547 209.005 125.823 208.688 127.286C208.318 128.99 208.37 130.458 208.557 132.161C208.812 134.427 208.656 136.453 209.219 138.677C209.818 141.068 210.318 143.458 210.578 145.896C210.906 148.953 208.031 153.151 209.969 155.906C212.495 153.927 212.911 146.453 213.833 141.927C214.219 140.021 214.292 137.818 213.948 135.891C213.729 134.646 213.151 133.437 212.932 132.182C212.682 130.75 212.896 129.281 212.885 127.833C212.88 126.516 212.594 125.146 212.729 123.839C212.849 122.677 213.302 121.5 213.516 120.349C213.854 118.521 214.266 116.422 214.432 114.557C214.667 112.026 212.953 112.526 211.135 111.208C209.708 110.177 208.797 108.312 208.188 109.573H208.193Z" fill="#C4AE9B"/>
</svg>
