<svg width="231" height="307" viewBox="0 0 231 307" fill="none" xmlns="http://www.w3.org/2000/svg">
<mask id="mask0_284_107609" style="mask-type:luminance" maskUnits="userSpaceOnUse" x="0" y="103" width="231" height="204">
<path d="M0 103.984H231V307H0V103.984Z" fill="white"/>
</mask>
<g mask="url(#mask0_284_107609)">
<path d="M10.2397 137.245C10.2397 137.245 20.4168 129.385 28.8127 127.297C37.2033 125.213 43.9272 122.948 48.422 117.917C52.9116 112.885 56.1564 104.995 64.7241 104.875C73.297 104.75 100.62 103.906 112.615 105.12C124.61 106.333 156.521 112.333 162.86 116.708C169.203 121.078 188.432 132.859 190.578 134.646C192.724 136.427 210.141 157.286 216.156 165.318C222.172 173.354 230.24 182.187 230.24 182.187C230.24 182.187 221.938 196.219 218.25 200.167C214.479 204.193 200.761 213.604 200.761 213.604C200.761 213.604 194.573 206.12 186.547 202C181.604 199.458 174.235 200.292 172.328 198.703C167.328 194.536 160.797 242.338 160.828 246.297C160.86 250.255 143.589 296.073 133.714 307.208C133.714 307.208 78.2918 304.016 68.672 296.307C59.0575 288.604 49.4429 288.161 33.2814 284.687C17.1147 281.208 0.114746 268.568 0.114746 268.568C0.114746 268.568 26.771 242.364 35.4012 228.375C44.0262 214.38 49.2554 192.114 48.5991 188.542C47.9429 184.974 49.1877 173.302 49.1877 173.302C49.1877 173.302 40.0835 178.427 32.6095 179.771C25.1408 181.109 22.8804 185.281 18.5054 177.099C14.1252 168.911 6.25537 140.057 10.2397 137.245Z" fill="#E83D3D"/>
</g>
<path d="M148.432 111.713C136.333 108.672 120.344 105.906 112.615 105.12C109.307 104.786 104.838 104.604 99.9166 104.526C98.6926 106.375 98.0728 109.005 99.6562 112.557C103.359 120.849 132.286 126.417 142.057 122.786C147.974 120.588 149.484 115.864 148.432 111.713Z" fill="#240E0D"/>
<path d="M49.1875 173.302C49.1875 173.302 48.3542 163.328 50.3855 156.896C52.4167 150.469 53.5521 140.797 53.0157 136.516C52.4792 132.234 49.3125 132 49.0053 136.219C48.698 140.443 48.0209 149.724 48.0209 149.724C48.0209 149.724 45.6303 135.974 43.7032 141.984C41.7813 147.995 49.1875 173.302 49.1875 173.302Z" fill="#240E0D"/>
<path d="M170.422 198.047C170.422 198.047 176.146 162.265 177.547 158.547C178.948 154.833 189.135 137.052 190.615 138.292C192.089 139.531 191.01 140.724 187.323 146.677C183.635 152.63 178.12 158.448 178.281 163.979C178.443 169.505 172.141 193.094 170.422 198.047Z" fill="#240E0D"/>
<path d="M180.818 200.323C180.823 196.177 180.88 184.198 181.302 181.995C181.818 179.318 183.573 174.974 177.812 172.958C172.057 170.943 170.849 174.365 168.995 171.359C167.141 168.349 165.083 157.193 159.609 162.214C154.135 167.24 161.818 186.635 159.234 197.932C156.651 209.234 149.979 211.62 153.984 217.656C156.213 221.021 159.719 225.359 163.338 227.161C165.687 212.818 169.292 196.172 172.328 198.703C173.573 199.734 177.125 199.745 180.818 200.323Z" fill="#240E0D"/>
<path d="M55.1146 151.432C49.6979 148.521 45.5313 154.802 43.7917 162.214C42.724 166.781 43.0729 172.443 43.4948 176.125C46.8125 174.641 49.1875 173.302 49.1875 173.302C49.1875 173.302 47.9427 184.974 48.599 188.542C48.9896 190.672 47.2865 199.443 44.026 209.146C46.6823 209.417 49.7031 209.047 51.9115 208.406C57.1667 206.875 60.2135 194.651 59.8698 183.016C59.5208 171.38 60.8646 172.677 61.5104 167.099C62.1563 161.521 60.526 154.339 55.1146 151.432Z" fill="#240E0D"/>
<path d="M171.844 111.333C171.844 111.333 166.984 102.604 171.328 89.0364C175.667 75.4687 183.036 72.8958 193.417 58.5729C203.802 44.25 206.771 36.3229 205.677 31.6979C204.578 27.0729 207.219 23.6823 209.542 27.9166C211.865 32.151 217.875 38.3385 218.354 48.1875C218.833 58.0364 207.484 69.1771 196.724 75.5729C185.964 81.9687 171.927 106.797 171.844 111.333Z" fill="#EFE7D0"/>
<mask id="mask1_284_107609" style="mask-type:luminance" maskUnits="userSpaceOnUse" x="130" y="0" width="35" height="95">
<path d="M130 0H164.667V94.651H130V0Z" fill="white"/>
</mask>
<g mask="url(#mask1_284_107609)">
<path d="M138.208 93.0313C139.979 95.4219 143.792 94.1511 143.776 91.1771C143.745 87.0052 144.328 82.2552 146.489 78.5365C151.417 70.0417 158.042 74.3542 163.161 63.2396C168.281 52.125 147.984 35.0834 150.88 21.6511C152.333 14.9011 157.047 9.78648 161.385 6.3594C163.958 4.32815 162.583 0.208356 159.302 0.151064C151.901 0.0156481 142.265 1.27606 136.583 7.67711C126.406 19.1459 140.14 37.6198 144.583 45.6042C149.026 53.5886 132.297 62.1823 130.443 73.2969C129.411 79.4584 133.953 87.2813 138.208 93.0313Z" fill="#EFE7D0"/>
</g>
<path d="M109.115 15.5468C109.115 15.5468 119.177 27.5208 117.453 41.552C115.729 55.5885 99.5521 60.1979 98.9011 71.0676C98.25 81.9322 101.526 90.3489 99.6198 95.5051C97.7136 100.656 86.9844 86.1874 88.6302 71.6249C90.2813 57.0624 98.2761 52.7083 101.151 45.3645C104.031 38.0208 97.2552 16.3229 101.651 13.0208C106.042 9.71868 109.115 15.5468 109.115 15.5468Z" fill="#EFE7D0"/>
<mask id="mask2_284_107609" style="mask-type:luminance" maskUnits="userSpaceOnUse" x="84" y="166" width="44" height="58">
<path d="M84.6667 166.719H127.333V223.719H84.6667V166.719Z" fill="white"/>
</mask>
<g mask="url(#mask2_284_107609)">
<path d="M101.672 169.38C102.953 169.38 104.245 169.536 105.505 169.849C105.526 169.844 105.552 169.844 105.573 169.844C105.88 169.818 106.193 169.802 106.505 169.802C111.344 169.802 116.24 172.792 119.203 177.615C121.729 181.724 122.656 186.396 123.458 191.224C124.453 197.24 125.188 203.589 122.302 209.24C119.323 215.063 112.995 219.005 103.5 220.953C102.266 221.208 101.177 221.318 100.208 221.318C96.5001 221.318 94.6042 219.693 93.6303 218.141C92.7397 216.714 93.1719 214.833 94.599 213.943C95.099 213.625 95.6615 213.479 96.2136 213.479C97.224 213.479 98.2188 213.984 98.7969 214.911C98.8855 215.047 99.3334 215.224 100.214 215.224C100.74 215.224 101.422 215.161 102.271 214.984C109.87 213.427 114.781 210.557 116.875 206.464C118.922 202.469 118.281 197.234 117.448 192.219C117.307 191.375 117.167 190.552 117.016 189.745C116.714 190.302 116.359 190.828 115.948 191.318C113.578 194.151 109.896 195.536 104.729 195.536C104.162 195.536 103.583 195.521 102.979 195.49C96.8438 195.151 92.573 193.443 89.9219 190.255C86.2136 185.807 86.5261 178.521 90.6147 174.021C93.3178 171.042 97.4376 169.38 101.672 169.38ZM104.719 189.448C107.938 189.448 110.141 188.766 111.276 187.406C112.542 185.896 112.542 183.141 111.276 180.995C110.13 179.063 108.141 177.406 105.193 175.958C104.917 175.953 104.625 175.922 104.339 175.839C103.464 175.594 102.557 175.474 101.662 175.474C99.1251 175.474 96.6563 176.427 95.1199 178.115C93.0678 180.375 92.823 184.229 94.599 186.365C96.1094 188.177 98.9584 189.172 103.313 189.406C103.802 189.432 104.271 189.448 104.719 189.448ZM101.672 166.719C96.573 166.719 91.823 168.724 88.6407 172.224C86.2449 174.865 84.8386 178.349 84.6824 182.042C84.5209 185.776 85.6563 189.302 87.8751 191.964C91.0261 195.75 95.9167 197.776 102.833 198.151C103.479 198.188 104.115 198.208 104.724 198.208C109.016 198.208 112.537 197.292 115.25 195.484C115.729 199.12 115.833 202.651 114.505 205.25C112.797 208.589 108.5 210.984 101.734 212.375C101.083 212.51 100.625 212.552 100.328 212.563C99.2657 211.453 97.7917 210.813 96.2136 210.813C95.1407 210.813 94.099 211.115 93.1876 211.682C90.5157 213.349 89.7032 216.88 91.3699 219.552C93.1615 222.411 96.2969 223.984 100.208 223.984C101.396 223.984 102.682 223.844 104.037 223.568C114.365 221.443 121.313 217.031 124.672 210.453C127.932 204.083 127.156 197.245 126.089 190.786C125.245 185.693 124.255 180.745 121.479 176.224C118.037 170.62 112.297 167.141 106.505 167.141C106.245 167.141 105.984 167.146 105.724 167.161C104.401 166.865 103.042 166.719 101.672 166.719ZM104.719 186.781C104.318 186.781 103.896 186.771 103.458 186.745C99.9844 186.557 97.6303 185.833 96.6511 184.656C95.8126 183.646 95.823 181.307 97.0938 179.906C98.0886 178.813 99.8334 178.135 101.662 178.135C102.333 178.135 102.99 178.229 103.615 178.401C103.885 178.479 104.172 178.536 104.469 178.573C106.682 179.724 108.162 180.964 108.979 182.349C109.76 183.677 109.656 185.193 109.234 185.693C109.021 185.953 108.063 186.781 104.719 186.781Z" fill="#49494A"/>
</g>
<path d="M100.208 221.318C96.5 221.318 94.599 219.693 93.6302 218.14C92.7396 216.713 93.1719 214.833 94.599 213.943C96.0261 213.047 97.9063 213.484 98.7969 214.911C98.9323 215.13 100 215.453 102.271 214.989C109.87 213.427 114.781 210.557 116.875 206.463C118.922 202.469 118.281 197.234 117.448 192.219C117.307 191.375 117.167 190.552 117.016 189.745C116.714 190.302 116.354 190.828 115.948 191.318C113.318 194.458 109.073 195.828 102.979 195.489C96.8438 195.156 92.5729 193.443 89.9219 190.26C86.2136 185.807 86.5261 178.521 90.6146 174.021C94.1354 170.14 100.063 168.5 105.505 169.849C105.526 169.849 105.552 169.844 105.573 169.844C110.703 169.427 116.052 172.484 119.203 177.62C121.729 181.729 122.656 186.401 123.458 191.224C124.453 197.245 125.188 203.594 122.302 209.239C119.323 215.062 112.995 219.005 103.5 220.958C102.266 221.208 101.177 221.318 100.208 221.318ZM101.661 175.474C99.125 175.474 96.6563 176.427 95.125 178.114C93.0677 180.375 92.8281 184.229 94.6042 186.359C96.1094 188.172 98.9584 189.172 103.313 189.406C107.302 189.625 109.979 188.953 111.276 187.406C112.542 185.896 112.542 183.14 111.276 180.995C110.13 179.062 108.141 177.406 105.193 175.953C104.917 175.953 104.625 175.922 104.339 175.838C103.464 175.594 102.557 175.474 101.661 175.474Z" fill="white"/>
<mask id="mask3_284_107609" style="mask-type:luminance" maskUnits="userSpaceOnUse" x="64" y="174" width="14" height="12">
<path d="M64 174.651H78V185.318H64V174.651Z" fill="white"/>
</mask>
<g mask="url(#mask3_284_107609)">
<path d="M76.8281 182.297C76.9531 182.036 77.0365 181.755 77.0729 181.458C77.4479 178.375 72.3542 175.792 69.6354 175.333C66.8281 174.854 64.7604 176.047 64.2292 178.49L64.1823 178.776C64.0573 179.802 64.2344 182.328 68.5625 183.594C68.599 183.604 70.5833 184.172 72.6302 184.172C74.3594 184.172 76.1302 183.766 76.8281 182.297Z" fill="#49494A"/>
</g>
<path d="M127.844 219.495C127.536 219.411 127.208 219.37 126.88 219.37C124.807 219.37 122.958 221.042 122.271 222.609C121.667 223.984 121.854 225.406 122.771 226.406C123.667 227.385 125.078 227.969 126.542 227.969C128.302 227.969 129.823 227.161 130.62 225.802C131.266 224.693 131.349 223.417 130.854 222.203C130.312 220.885 129.161 219.849 127.844 219.495Z" fill="#49494A"/>
<mask id="mask4_284_107609" style="mask-type:luminance" maskUnits="userSpaceOnUse" x="119" y="153" width="15" height="15">
<path d="M119.333 153.599H134V167.984H119.333V153.599Z" fill="white"/>
</mask>
<g mask="url(#mask4_284_107609)">
<path d="M121.495 166.651C121.708 166.859 121.943 167.047 122.198 167.203C122.833 167.588 123.536 167.76 124.276 167.76C126.88 167.76 129.885 165.667 131.489 163.625C133.979 160.453 133.125 157.583 131.64 156.094C131.083 155.531 130.364 155.068 129.521 154.719C126.812 153.604 123.953 154.687 122.052 157.547C120.453 159.958 119.224 164.37 121.495 166.646V166.651Z" fill="#49494A"/>
</g>
<mask id="mask5_284_107609" style="mask-type:luminance" maskUnits="userSpaceOnUse" x="75" y="167" width="67" height="57">
<path d="M75.104 167.094H141.943V223.401H75.104V167.094Z" fill="white"/>
</mask>
<g mask="url(#mask5_284_107609)">
<path d="M131.625 193.854C131.703 189.958 134.776 186.854 137.489 184.12C140.432 181.151 143.208 178.349 141.328 175.114C140.182 173.141 136.51 170.599 124.807 175.75C121.14 177.364 119.156 175.453 116.229 172.198C114.057 169.781 111.604 167.042 107.844 167.292C104.833 167.495 103.51 169.286 102.229 171.016C101.193 172.417 100.213 173.734 98.2655 174.432C94.1509 175.901 92.6248 173.797 90.8592 171.364C89.38 169.328 87.7082 167.026 84.4425 167.495C82.7759 167.729 81.4894 168.719 80.9165 170.203C79.9425 172.708 81.0207 176.146 83.8748 179.63C85.078 181.104 85.5884 182.323 85.4373 183.349C85.1925 184.948 83.2863 186.219 81.2603 187.557C78.38 189.474 75.1092 191.646 75.6873 195.62C76.1717 198.953 79.2655 200.208 81.9894 201.318C84.9946 202.536 86.828 203.406 86.5988 205.693C86.4478 207.177 84.1405 208.583 81.9009 209.948C78.9321 211.755 75.5675 213.802 75.1613 217.099C74.8957 219.245 75.9582 221.198 77.9998 222.323C79.0675 222.917 80.453 223.286 82.0884 223.281C85.2446 223.281 89.3332 221.917 93.9061 218.156C95.5675 216.781 97.5832 217.943 100.703 220.026C102.786 221.417 104.937 222.849 107.161 222.989C112.146 223.307 114.312 219.786 116.229 216.687C118.125 213.609 119.75 210.963 123.729 211.057C125.005 211.094 126.771 211.854 128.646 212.661C132.411 214.281 136.687 216.12 139.338 212.943C142.672 208.943 139.078 204.76 135.906 201.062C133.781 198.588 131.583 196.031 131.625 193.854Z" fill="#49494A"/>
</g>
<mask id="mask6_284_107609" style="mask-type:luminance" maskUnits="userSpaceOnUse" x="90" y="223" width="11" height="13">
<path d="M90 223.984H100.667V235.599H90V223.984Z" fill="white"/>
</mask>
<g mask="url(#mask6_284_107609)">
<path d="M96.9635 224.208C96.7292 224.14 96.4896 224.094 96.2396 224.083C93.4167 223.917 91.4844 227.536 91.0469 230.026C90.4896 233.208 92.1875 234.911 93.8125 235.401C94.2448 235.531 94.7135 235.599 95.2083 235.599C95.4063 235.599 95.6094 235.588 95.8177 235.568C98.151 235.328 99.7604 233.484 100.026 230.76C100.24 228.489 99.4323 224.958 96.9635 224.208Z" fill="#49494A"/>
</g>
<path d="M96.2865 165.635C97.7136 165.635 98.9532 164.974 99.6042 163.865C100.135 162.953 100.203 161.901 99.797 160.911C99.3595 159.838 98.4167 158.99 97.3438 158.703C97.0886 158.635 96.8178 158.599 96.547 158.599C94.8647 158.599 93.3699 159.948 92.8126 161.213C92.3178 162.333 92.4845 163.547 93.2345 164.365C93.9636 165.161 95.1042 165.635 96.2865 165.635Z" fill="#49494A"/>
</svg>
