<svg width="52" height="68" viewBox="0 0 52 68" fill="none" xmlns="http://www.w3.org/2000/svg">
<mask id="mask0_292_113705" style="mask-type:luminance" maskUnits="userSpaceOnUse" x="22" y="0" width="5" height="4">
<path d="M22.5 0H26.5V3.00521H22.5V0Z" fill="white"/>
</mask>
<g mask="url(#mask0_292_113705)">
<path d="M23.7292 2.04167H24.3229C24.401 1.6875 24.5104 1.34896 24.651 1.02604C24.8073 0.661459 25 0.317708 25.2135 0C25.0469 0.0937493 24.8854 0.208334 24.7292 0.348958C24.5781 0.484376 24.4323 0.645834 24.3021 0.822917C24.1927 0.973958 24.0937 1.13542 24.0156 1.30729C24.0104 1.29688 24.0052 1.29167 24 1.28125C23.8594 1.0625 23.6771 0.885417 23.4844 0.760417C23.5365 0.984375 23.5833 1.20833 23.625 1.4375C23.6615 1.63542 23.6979 1.83854 23.7292 2.04167Z" fill="#A0CA48"/>
</g>
<path d="M35.3385 12.3073H35.9323C36.0104 11.9531 36.1198 11.6146 36.2604 11.2917C36.4167 10.9271 36.6094 10.5833 36.8229 10.2656C36.6563 10.3594 36.4948 10.474 36.3385 10.6146C36.1875 10.75 36.0417 10.9115 35.9115 11.0885C35.8021 11.2396 35.7083 11.401 35.625 11.5729C35.6198 11.5625 35.6146 11.5521 35.6094 11.5469C35.4687 11.3281 35.2865 11.151 35.0938 11.026C35.1458 11.25 35.1927 11.474 35.2344 11.7031C35.2708 11.901 35.3073 12.1042 35.3385 12.3073Z" fill="#A0CA48"/>
<path d="M6.45313 50.6507H4.65104C4.41667 49.5778 4.07292 48.5518 3.66146 47.583C3.18229 46.4632 2.59896 45.4268 1.95312 44.4736C2.45313 44.7549 2.94792 45.1038 3.41667 45.5205C3.88021 45.9372 4.32292 46.4215 4.71875 46.9632C5.04167 47.4111 5.33333 47.9007 5.58333 48.4215C5.59896 48.3955 5.61458 48.3695 5.63021 48.3486C6.05729 47.682 6.59896 47.1507 7.18229 46.7757C7.03125 47.458 6.89063 48.1351 6.76042 48.8174C6.65104 49.4215 6.54687 50.0309 6.45313 50.6507Z" fill="#A0CA48"/>
<mask id="mask1_292_113705" style="mask-type:luminance" maskUnits="userSpaceOnUse" x="0" y="48" width="27" height="20">
<path d="M0 48.3389H26.5V67.0055H0V48.3389Z" fill="white"/>
</mask>
<g mask="url(#mask1_292_113705)">
<path d="M1.30229 63.2452C2.17208 65.7764 4.44291 66.0056 6.54187 66.0889C11.5887 66.2817 16.6565 66.4796 21.745 66.6775C22.4846 66.7087 23.2554 66.7244 23.9429 66.1931C25.7606 64.7921 26.0054 60.7452 25.9846 57.6879C25.969 54.9431 25.8856 52.1098 24.7971 50.3389C23.6356 48.4639 21.7033 48.3806 19.9846 48.4275C17.5575 48.49 15.1252 48.5473 12.6929 48.6098C10.6617 48.6619 8.27625 48.1358 6.12 48.9952C2.70333 50.365 0.0158306 59.516 1.30229 63.2452Z" fill="#9F9F9F"/>
</g>
<mask id="mask2_292_113705" style="mask-type:luminance" maskUnits="userSpaceOnUse" x="0" y="53" width="27" height="15">
<path d="M0 53.6719H26.5V67.0052H0V53.6719Z" fill="white"/>
</mask>
<g mask="url(#mask2_292_113705)">
<path d="M25.9684 56.4479C25.9059 59.1094 25.5205 62.1302 23.9997 63.2708C23.333 63.7708 22.5882 63.75 21.8695 63.724C16.932 63.5365 12.0153 63.3542 7.11945 63.1667C5.08299 63.0937 2.87987 62.875 2.01528 60.4948C1.53091 59.151 1.61424 56.9792 2.0882 54.7812C1.06737 57.8021 0.635076 61.3177 1.30174 63.2448C2.17153 65.776 4.44237 66.0052 6.54133 66.0885C11.5882 66.2813 16.6559 66.4792 21.7445 66.6771C22.484 66.7083 23.2549 66.7292 23.9424 66.1979C25.7601 64.7917 26.0049 60.75 25.984 57.6875C25.984 57.276 25.9788 56.8594 25.9684 56.4479Z" fill="#7F7F7F"/>
</g>
<mask id="mask3_292_113705" style="mask-type:luminance" maskUnits="userSpaceOnUse" x="27" y="44" width="25" height="24">
<path d="M27.834 44.3389H51.6152V67.3597H27.834V44.3389Z" fill="white"/>
</mask>
<g mask="url(#mask3_292_113705)">
<path d="M30.0736 63.0321C31.5424 66.1676 33.5684 66.454 35.407 66.553C39.834 66.803 44.2872 67.0478 48.7559 67.2978C49.407 67.3342 50.0788 67.3551 50.5007 66.6936C51.5997 64.9436 50.4642 59.9696 49.4486 56.2717C48.5476 53.0061 47.5788 49.6728 46.1153 47.6207C44.5788 45.4592 42.9538 45.3655 41.5424 45.4176C39.5476 45.4853 37.5528 45.5582 35.558 45.6259C33.8861 45.6884 31.7663 45.079 30.2195 46.0686C27.7455 47.6467 27.9434 58.4749 30.0736 63.0321Z" fill="#9F9F9F"/>
</g>
<mask id="mask4_292_113705" style="mask-type:luminance" maskUnits="userSpaceOnUse" x="27" y="52" width="25" height="16">
<path d="M27.834 52.3389H51.6152V67.3597H27.834V52.3389Z" fill="white"/>
</mask>
<g mask="url(#mask4_292_113705)">
<path d="M49.032 54.7868C49.8445 57.9795 50.5059 61.6566 49.5737 63.0576C49.1674 63.6774 48.5216 63.6514 47.8966 63.6201C43.5893 63.3909 39.308 63.1618 35.0476 62.9326C33.2768 62.8389 31.3237 62.5732 29.9174 59.6618C29.1362 58.0368 28.6101 55.4222 28.4122 52.8076C28.3705 56.4066 28.9695 60.6618 30.0737 63.0316C31.5424 66.167 33.5684 66.4535 35.407 66.5524C39.8341 66.8024 44.2872 67.0472 48.7559 67.2972C49.407 67.3337 50.0789 67.3597 50.5007 66.693C51.5997 64.943 50.4643 59.9691 49.4487 56.2712C49.3132 55.7764 49.1726 55.2816 49.032 54.7868Z" fill="#7F7F7F"/>
</g>
<path d="M12.2504 24.0262C12.6358 25.0783 13.5993 25.1773 14.4899 25.2085C16.6306 25.2919 18.7712 25.37 20.9222 25.4533C21.2347 25.4637 21.5577 25.4742 21.8597 25.2554C22.667 24.6721 22.865 22.9637 22.9327 21.6512C22.99 20.4481 23.0264 19.1825 22.5889 18.3856C22.115 17.5262 21.2504 17.4898 20.4847 17.5106C19.3962 17.5367 18.3129 17.5627 17.2243 17.594C16.3181 17.62 15.2504 17.3752 14.2868 17.771C12.7712 18.396 11.667 22.4377 12.2504 24.0262Z" fill="#9F9F9F"/>
<path d="M22.9537 21.1094C22.8652 22.2656 22.6256 23.5521 21.9485 24.0365C21.6516 24.2448 21.3339 24.2344 21.0266 24.224C18.9277 24.1458 16.8287 24.0677 14.7349 23.9896C13.8652 23.9583 12.9224 23.8698 12.537 22.8594C12.3183 22.2812 12.3391 21.3385 12.5318 20.375C12.1047 21.6979 11.9485 23.2083 12.2506 24.026C12.636 25.0781 13.5995 25.1719 14.4902 25.2083C16.6308 25.2865 18.7714 25.3698 20.9224 25.4531C21.2349 25.4635 21.5579 25.474 21.8599 25.2552C22.6672 24.6719 22.8652 22.9635 22.9329 21.6458C22.9381 21.4687 22.9485 21.2865 22.9537 21.1042V21.1094Z" fill="#7F7F7F"/>
<path d="M5.48561 44.9323C5.70956 46.599 6.68873 46.75 7.60019 46.8021C9.79811 46.9271 11.996 47.0573 14.2044 47.1875C14.5273 47.2084 14.8606 47.2188 15.2044 46.8698C16.1158 45.9532 16.5585 43.2761 16.8085 41.2188C17.0377 39.3594 17.246 37.4115 16.9075 36.1875C16.5481 34.8802 15.6783 34.823 14.8971 34.8542C13.7929 34.8959 12.6887 34.9375 11.5846 34.9844C10.6627 35.0157 9.62102 34.6459 8.58456 35.25C6.94915 36.2032 5.15227 42.4532 5.48561 44.9323Z" fill="#9F9F9F"/>
<path d="M16.9063 40.3805C16.6511 42.1774 16.2293 44.193 15.4636 44.9482C15.1303 45.2816 14.8022 45.2659 14.4897 45.2503C12.3386 45.1253 10.1876 45.0055 8.05218 44.8805C7.16156 44.8285 6.20322 44.6878 5.97405 43.1045C5.84385 42.2035 6.02614 40.7399 6.3751 39.2451C5.72405 41.2972 5.3126 43.6514 5.48447 44.9326C5.70843 46.5993 6.6876 46.7451 7.59905 46.8024C9.79176 46.9274 11.9949 47.0576 14.2032 47.1878C14.5261 47.2087 14.8595 47.2191 15.2032 46.8701C16.1147 45.9535 16.5574 43.2764 16.8074 41.2191C16.8438 40.943 16.8751 40.6618 16.9063 40.3805Z" fill="#7F7F7F"/>
<path d="M18.4741 45.0106C18.922 46.4898 19.8179 46.6252 20.6356 46.672C22.5991 46.7866 24.5731 46.896 26.5522 47.0106C26.8387 47.0314 27.1356 47.0418 27.3908 46.7345C28.0731 45.9168 28.0991 43.5314 28.0366 41.6825C27.9793 40.0054 27.8908 38.2345 27.4168 37.12C26.9012 35.922 26.1095 35.87 25.4064 35.896C24.4168 35.9377 23.4272 35.9741 22.4377 36.0158C21.6095 36.047 20.6147 35.7085 19.771 36.2606C18.4377 37.1356 17.7918 42.7918 18.4741 45.0106Z" fill="#9F9F9F"/>
<path d="M28.0067 40.9274C28.0327 42.5472 27.9338 44.3545 27.3556 45.0264C27.1056 45.318 26.814 45.3076 26.5327 45.292C24.6004 45.1826 22.6733 45.0732 20.7463 44.9639C19.9494 44.9222 19.0744 44.792 18.6317 43.3805C18.3765 42.5732 18.3088 41.2503 18.3973 39.9014C18.1317 41.7503 18.1265 43.8701 18.4754 45.0107C18.9233 46.4899 19.8192 46.6253 20.6369 46.6722C22.6004 46.7868 24.5744 46.8962 26.5535 47.0107C26.84 47.0316 27.1369 47.042 27.3921 46.7347C28.0744 45.917 28.1004 43.5316 28.0379 41.6826C28.0275 41.4326 28.0171 41.1774 28.0067 40.9274Z" fill="#7F7F7F"/>
<path d="M24.2343 23.2342C24.6353 23.9789 25.2707 24.0467 25.8541 24.0675C27.2499 24.1248 28.6509 24.1821 30.052 24.2394C30.2551 24.2498 30.4686 24.255 30.6405 24.0987C31.0989 23.6925 31.0468 22.4737 30.953 21.5206C30.8593 20.6404 30.7447 19.7029 30.3593 19.1039C29.9426 18.4529 29.3593 18.4217 28.8436 18.4373C28.1145 18.4581 27.3853 18.4842 26.6509 18.505C26.0416 18.5206 25.2916 18.3383 24.6978 18.6404C23.7707 19.1092 23.6249 22.0935 24.2343 23.2342Z" fill="#9F9F9F"/>
<path d="M30.9066 21.1253C30.9743 21.9691 30.9535 22.8962 30.5629 23.2399C30.3962 23.391 30.1879 23.3857 29.9847 23.3753C28.6045 23.318 27.2295 23.2659 25.8545 23.2087C25.2816 23.1878 24.6514 23.1201 24.2556 22.3962C24.0316 21.9847 23.9118 21.2972 23.8962 20.5889C23.8076 21.5576 23.9222 22.6514 24.2347 23.2347C24.6358 23.9795 25.2712 24.0472 25.8545 24.068C27.2504 24.1253 28.6514 24.1826 30.0524 24.2399C30.2556 24.2503 30.4691 24.2555 30.641 24.0993C31.0993 23.693 31.0472 22.4743 30.9535 21.5212C30.9379 21.3909 30.9222 21.2607 30.9066 21.1253Z" fill="#7F7F7F"/>
<path d="M32.2357 23.8853C32.7514 24.651 33.4076 24.7187 34.0014 24.7447C35.4232 24.802 36.8451 24.8593 38.2774 24.9218C38.4857 24.927 38.6993 24.9322 38.8503 24.776C39.2514 24.3593 39.017 23.1093 38.7722 22.1353C38.5482 21.2343 38.2878 20.2708 37.8087 19.6614C37.293 18.9947 36.6941 18.9687 36.1732 18.9843C35.4389 19.0051 34.7045 19.026 33.9701 19.0468C33.3555 19.0676 32.5691 18.8801 32.017 19.1874C31.1472 19.6666 31.4493 22.7239 32.2357 23.8853Z" fill="#9F9F9F"/>
<path d="M38.668 21.7288C38.8607 22.5934 38.9857 23.5413 38.6419 23.8955C38.4909 24.0465 38.2826 24.0413 38.0794 24.0309C36.6732 23.9736 35.2669 23.9215 33.8711 23.8643C33.2878 23.8382 32.6419 23.7705 32.1315 23.0309C31.8398 22.609 31.6159 21.9059 31.4961 21.1768C31.5534 22.1715 31.8294 23.2913 32.2357 23.8851C32.7513 24.6507 33.4076 24.7184 34.0013 24.7445C35.4232 24.8018 36.8451 24.859 38.2773 24.9215C38.4857 24.9268 38.6992 24.932 38.8503 24.7757C39.2513 24.359 39.0169 23.1143 38.7721 22.1351C38.7409 21.9997 38.7044 21.8643 38.668 21.7288Z" fill="#7F7F7F"/>
<path d="M34.1725 1.57798C33.5892 1.29152 32.8132 1.26548 32.1152 1.25506C30.4329 1.23423 28.7559 1.2134 27.0788 1.19256C26.8392 1.18736 26.584 1.18735 26.3652 1.24465C25.7663 1.4009 25.6777 1.88527 25.6777 2.29152C25.6829 2.69256 25.7142 3.14569 26.1725 3.44777C26.6882 3.79152 27.5371 3.80715 28.2819 3.80194C29.3392 3.78631 30.3913 3.7759 31.4434 3.76548C32.3236 3.75506 33.4329 3.85402 34.2402 3.69256C35.4798 3.44256 35.11 2.04152 34.1725 1.57798Z" fill="#9F9F9F"/>
<path d="M34.2402 3.15137C33.4329 3.31283 32.3236 3.21387 31.4434 3.22428C30.3913 3.2347 29.3392 3.25033 28.2819 3.26074C27.5371 3.26595 26.6882 3.25033 26.1725 2.90658C25.8236 2.67741 25.7194 2.3597 25.6934 2.04199C25.6829 2.12533 25.6777 2.21387 25.6777 2.29199C25.6829 2.69303 25.7142 3.14616 26.1725 3.44824C26.6882 3.79199 27.5371 3.80762 28.2819 3.80241C29.3392 3.78678 30.3913 3.77637 31.4434 3.76595C32.3236 3.75553 33.4329 3.85449 34.2402 3.69303C34.9329 3.55241 35.1204 3.05762 34.9954 2.56283C34.9069 2.83887 34.6725 3.06803 34.2402 3.15137Z" fill="#7F7F7F"/>
<path d="M35.0901 7.76071C34.387 7.35446 33.4651 7.318 32.6318 7.30237C30.6318 7.27633 28.637 7.24508 26.6474 7.21383C26.3557 7.20862 26.0589 7.20862 25.7932 7.28675C25.0745 7.5055 24.9599 8.19821 24.9547 8.77633C24.9443 9.34925 24.9703 10.0055 25.5172 10.443C26.1318 10.9482 27.0953 11.0732 28.0068 11.0628C29.2828 11.0472 30.6734 10.7659 31.9391 10.7451C32.9964 10.7347 34.2724 11.0367 35.2464 10.8024C36.7255 10.4378 36.2307 8.42217 35.0901 7.76071Z" fill="#9F9F9F"/>
<path d="M35.9277 8.6875C36.0579 9.35937 35.8288 10.0156 35.0423 10.2083C34.0684 10.4479 32.7923 10.1406 31.7402 10.1563C30.4694 10.1719 29.0788 10.4531 27.8027 10.4688C26.8965 10.4844 25.9277 10.3542 25.3132 9.85417C25.1725 9.73958 25.0684 9.61458 24.9902 9.47917C25.0475 9.83854 25.1882 10.1771 25.5163 10.4479C26.1309 10.9479 27.0944 11.0729 28.0059 11.0625C29.2819 11.0469 30.6725 10.7656 31.9382 10.7448C32.9954 10.7344 34.2715 11.0365 35.2454 10.8021C36.2611 10.5521 36.3444 9.52083 35.9277 8.6875Z" fill="#7F7F7F"/>
<path d="M18.0477 5.27574C17.1311 5.58824 16.9383 6.07262 16.8029 6.52574C16.4592 7.66116 16.0998 8.86428 15.7144 10.1507C15.6571 10.3435 15.5998 10.5466 15.7508 10.7237C16.1623 11.2185 17.7821 11.2914 19.1154 11.2862C20.3967 11.281 21.8081 11.2601 22.7613 10.906C23.8029 10.5153 23.8758 9.89554 23.8758 9.36428C23.8811 8.63512 23.8811 7.92678 23.8811 7.2497C23.8811 6.70283 24.1779 6.04658 23.7821 5.55178C23.1883 4.80699 19.4592 4.79137 18.0477 5.27574Z" fill="#9F9F9F"/>
<path d="M22.9071 10.2028C21.954 10.557 20.5425 10.583 19.2613 10.583C17.9279 10.5882 16.3081 10.5153 15.8967 10.0257C15.8446 9.96322 15.8186 9.90072 15.8081 9.83822C15.7769 9.94238 15.7456 10.0465 15.7144 10.1507C15.6571 10.3434 15.5998 10.5466 15.7508 10.7236C16.1623 11.2184 17.7821 11.2913 19.1154 11.2861C20.3967 11.2809 21.8081 11.2601 22.7613 10.9059C23.7508 10.5361 23.8654 9.95801 23.8758 9.44238C23.7352 9.72884 23.454 9.99967 22.9071 10.2028Z" fill="#7F7F7F"/>
<path d="M24.2773 1.60418C23.8606 1.2448 23.1991 1.21355 22.6002 1.20314C21.1627 1.17709 19.7252 1.15105 18.2929 1.12501C18.0845 1.1198 17.871 1.1198 17.6627 1.19272C17.095 1.38022 16.8554 1.98439 16.72 2.4948C16.5898 2.9948 16.4595 3.56772 16.7564 3.95835C17.0898 4.39585 17.8241 4.41668 18.4856 4.40626C19.4127 4.39064 20.3398 4.37501 21.2668 4.35939C22.0377 4.34897 22.9752 4.47918 23.7356 4.27085C24.8866 3.94793 24.9595 2.1823 24.2773 1.60418Z" fill="#9F9F9F"/>
<path d="M23.7347 3.66178C22.9743 3.87012 22.0368 3.74512 21.266 3.75553C20.3389 3.77116 19.4118 3.78678 18.4847 3.80241C17.8233 3.81283 17.0889 3.79199 16.7556 3.34928C16.6774 3.25033 16.6306 3.13574 16.6045 3.01595C16.5472 3.36491 16.5576 3.69824 16.7556 3.95866C17.0889 4.39616 17.8233 4.41699 18.4847 4.40658C19.4118 4.39095 20.3389 4.37533 21.266 4.3597C22.0368 4.34928 22.9743 4.47949 23.7347 4.27116C24.516 4.05241 24.7972 3.1722 24.6878 2.44824C24.6097 2.99512 24.3024 3.50553 23.7347 3.66178Z" fill="#7F7F7F"/>
<path d="M36.3386 12.1305C35.698 11.5055 34.9376 11.4534 34.2605 11.4326C32.6303 11.3857 31.0053 11.344 29.3855 11.2972C29.1511 11.2868 28.9063 11.2868 28.698 11.4065C28.1407 11.7451 28.1146 12.8024 28.1667 13.7086C28.2188 14.6149 28.3073 15.6513 28.8073 16.3649C29.3855 17.1826 30.2501 17.219 31.0105 17.1982C32.0782 17.1722 33.1511 17.1409 34.2188 17.1149C35.1094 17.094 36.2657 17.3336 37.0417 16.943C38.2136 16.3545 37.3959 13.1565 36.3386 12.1305Z" fill="#9F9F9F"/>
<path d="M37.0421 16.0573C36.2661 16.4479 35.1098 16.2083 34.2192 16.2292C33.1515 16.2552 32.0786 16.2865 31.0109 16.3125C30.2505 16.3333 29.3859 16.2969 28.8078 15.4792C28.3078 14.7656 28.2192 13.7292 28.1671 12.8229C28.1619 12.7865 28.1619 12.7552 28.1619 12.7188C28.1359 13.0417 28.1463 13.3854 28.1671 13.7083C28.2192 14.6146 28.3078 15.651 28.8078 16.3646C29.3859 17.1823 30.2505 17.2188 31.0109 17.1979C32.0786 17.1719 33.1515 17.1406 34.2192 17.1146C35.1098 17.0938 36.2661 17.3333 37.0421 16.9427C37.5473 16.6875 37.6828 15.9531 37.589 15.1094C37.5265 15.5521 37.3546 15.901 37.0421 16.0573Z" fill="#7F7F7F"/>
<path d="M35.2089 4.4744C34.8131 4.15149 34.3443 4.12544 33.9277 4.11503C32.9225 4.08899 31.9225 4.06294 30.9225 4.04211C30.7766 4.0369 30.6256 4.0369 30.5058 4.0994C30.1725 4.27128 30.1933 4.81294 30.2558 5.27128C30.3183 5.71919 30.4068 6.22961 30.7297 6.57336C31.0943 6.96399 31.6047 6.98482 32.0527 6.9744C32.6829 6.95878 33.3131 6.94836 33.9433 6.93274C34.4693 6.92232 35.1516 7.0369 35.61 6.85461C36.3079 6.56815 35.8495 4.99524 35.2089 4.4744Z" fill="#9F9F9F"/>
<path d="M35.6361 5.02051C35.8236 5.59863 35.8132 6.2028 35.4069 6.36947C34.9434 6.55176 34.2611 6.43717 33.7402 6.4528C33.11 6.46322 32.4798 6.47884 31.8444 6.48926C31.3965 6.49968 30.8861 6.48405 30.5215 6.09342C30.4694 6.03613 30.4225 5.97363 30.3809 5.90592C30.4486 6.15072 30.5527 6.3903 30.7298 6.57259C31.0944 6.96322 31.6048 6.98405 32.0527 6.97363C32.6829 6.95801 33.3132 6.94759 33.9434 6.93197C34.4694 6.92155 35.1517 7.03613 35.61 6.84863C36.1361 6.6403 36.0059 5.69759 35.6361 5.02051Z" fill="#7F7F7F"/>
<path d="M29.1517 4.49497C28.8549 4.18247 28.4434 4.15643 28.0736 4.14601C27.1882 4.11997 26.2976 4.09914 25.4122 4.07831C25.282 4.0731 25.1517 4.0731 25.032 4.13039C24.709 4.30226 24.6465 4.8231 24.6361 5.2606C24.6257 5.69289 24.6257 6.17726 24.8601 6.50539C25.1205 6.88039 25.5684 6.89601 25.9642 6.8856C26.5215 6.87518 27.0788 6.85956 27.6361 6.84914C28.0997 6.83872 28.683 6.9481 29.1205 6.77101C29.782 6.50018 29.6361 4.99497 29.1517 4.49497Z" fill="#9F9F9F"/>
<path d="M29.4753 5.125C29.5013 5.61979 29.3763 6.09375 29.0326 6.23438C28.6003 6.41146 28.0169 6.30208 27.5482 6.3125C26.9909 6.32292 26.4336 6.33854 25.8763 6.34896C25.4805 6.35938 25.0326 6.34375 24.7721 5.97396C24.7148 5.89063 24.668 5.79688 24.6367 5.69792C24.6523 5.99479 24.7044 6.28646 24.8555 6.50521C25.1211 6.88021 25.569 6.89583 25.9648 6.88542C26.5221 6.875 27.0794 6.85938 27.6367 6.84896C28.1003 6.83854 28.6836 6.94792 29.1211 6.77083C29.5898 6.57813 29.6523 5.76042 29.4753 5.125Z" fill="#7F7F7F"/>
<path d="M26.9902 12.6306C26.6464 12.1619 26.1464 12.1202 25.6933 12.1046C24.6047 12.0681 23.5162 12.0369 22.4277 12.0004C22.2714 11.9952 22.11 11.99 21.9537 12.0838C21.5422 12.339 21.4068 13.1306 21.3443 13.8025C21.2818 14.464 21.2245 15.214 21.4797 15.7244C21.7662 16.3025 22.3235 16.3286 22.8183 16.3129C23.5162 16.2973 24.2193 16.2765 24.9172 16.2556C25.4954 16.24 26.2141 16.4067 26.7766 16.1359C27.6204 15.714 27.5475 13.3911 26.9902 12.6306Z" fill="#9F9F9F"/>
<path d="M26.7724 15.4268C26.2151 15.7028 25.4963 15.5309 24.913 15.5518C24.2151 15.5674 23.5172 15.5882 22.8193 15.609C22.3245 15.6247 21.7672 15.5986 21.4807 15.0153C21.3765 14.8122 21.3245 14.5622 21.3036 14.2965C21.2724 14.8122 21.288 15.3382 21.4807 15.7236C21.7672 16.3018 22.3245 16.3278 22.8193 16.3122C23.5172 16.2965 24.2151 16.2757 24.913 16.2549C25.4963 16.2393 26.2151 16.4059 26.7724 16.1351C27.288 15.8799 27.4651 14.9215 27.3974 14.0361C27.3453 14.6768 27.1526 15.2393 26.7724 15.4268Z" fill="#7F7F7F"/>
<path d="M20.6769 12.2189C20.4061 11.7553 19.9113 11.7137 19.4634 11.7032C18.3905 11.6668 17.3176 11.6303 16.2446 11.5991C16.0936 11.5939 15.9321 11.5887 15.7655 11.6824C15.3176 11.9324 15.0728 12.7084 14.9113 13.3647C14.7551 14.0105 14.5936 14.7501 14.7707 15.2501C14.9738 15.8178 15.5207 15.8439 16.0155 15.8282C16.7082 15.8074 17.4009 15.7866 18.0988 15.7709C18.6769 15.7553 19.3644 15.922 19.953 15.6512C20.854 15.2397 21.1196 12.9637 20.6769 12.2189Z" fill="#9F9F9F"/>
<path d="M19.9529 15C19.3644 15.2656 18.6769 15.099 18.0988 15.1146C17.4009 15.1354 16.7081 15.1563 16.0154 15.1771C15.5206 15.1875 14.9738 15.1615 14.7706 14.5938C14.7446 14.526 14.729 14.4479 14.7186 14.3698C14.6769 14.6927 14.6821 15 14.7706 15.25C14.9738 15.8177 15.5206 15.8437 16.0154 15.8281C16.7081 15.8073 17.4009 15.7865 18.0988 15.7708C18.6769 15.7552 19.3644 15.9219 19.9529 15.651C20.6404 15.3385 20.9529 13.9427 20.8748 12.9688C20.8071 13.8281 20.4946 14.75 19.9529 15Z" fill="#7F7F7F"/>
<path d="M41.2759 41.6356C42.677 40.4012 42.3957 38.6095 42.0728 37.0522C41.3541 33.5939 40.703 30.4741 40.1145 27.6408C40.0311 27.2502 39.9426 26.8543 39.5884 26.5054C38.6509 25.5887 36.4374 25.4637 34.6509 25.4689C32.9426 25.4741 31.0624 25.5158 29.8645 26.1668C28.5051 26.9064 28.4999 28.1616 28.5884 29.3231C28.7239 31.0418 28.8593 32.8543 29.0103 34.7814C29.1405 36.4793 28.7603 38.7033 29.6613 40.547C31.1457 43.5939 38.9686 43.672 41.2759 41.6356Z" fill="#9F9F9F"/>
<path d="M41.2865 39.9896C38.8802 41.9115 30.7969 41.7708 29.2656 38.8594C29.2083 38.75 29.1563 38.6406 29.1094 38.5313C29.1927 39.224 29.349 39.9115 29.6615 40.5469C31.1458 43.5937 38.9687 43.6719 41.276 41.6354C42.2813 40.75 42.4167 39.5781 42.2969 38.4062C42.1563 38.9896 41.8542 39.5312 41.2865 39.9844V39.9896Z" fill="#7F7F7F"/>
<path d="M23.4115 26.6559H24.5313C24.6823 25.9893 24.8906 25.3486 25.151 24.7445C25.4479 24.0465 25.8125 23.4007 26.2188 22.8018C25.9063 22.9788 25.5938 23.1976 25.3021 23.458C25.0104 23.7184 24.7396 24.0205 24.4948 24.359C24.2917 24.6351 24.1094 24.9424 23.9479 25.2705C23.9427 25.2497 23.9323 25.234 23.9219 25.2184C23.6563 24.807 23.3177 24.4736 22.9531 24.2393C23.0521 24.6663 23.1354 25.0882 23.2188 25.5153C23.2865 25.8903 23.3542 26.2705 23.4115 26.6559Z" fill="#A0CA48"/>
<path d="M10.2447 33.318C10.9947 34.4794 12.5416 34.5836 13.9635 34.6253C17.3802 34.7138 20.8072 34.8024 24.2395 34.8909C24.7395 34.9065 25.2552 34.9117 25.7135 34.6721C26.927 34.0315 27.0624 32.1461 27.0208 30.6878C26.9895 29.3492 26.9062 27.943 26.1145 27.0471C25.2604 26.0888 23.9583 25.8544 22.7291 25.8753C20.9947 25.9065 18.9947 26.4326 17.2447 26.4638C15.7812 26.4951 14.2239 25.9169 12.7291 26.3649C10.3697 27.0628 9.11453 31.5628 10.2447 33.318Z" fill="#9F9F9F"/>
<path d="M27.0009 30.0833C26.98 31.3646 26.7405 32.7969 25.7144 33.3281C25.2665 33.5573 24.7613 33.5521 24.2717 33.5365C20.9071 33.4531 17.553 33.3646 14.2092 33.2813C12.8134 33.2448 11.2978 33.1458 10.5582 32.026C10.1363 31.3854 10.0478 30.3385 10.2353 29.2656C9.72484 30.7396 9.66234 32.4167 10.2457 33.3177C10.9957 34.4792 12.5426 34.5833 13.9644 34.6198C17.3811 34.7135 20.8082 34.8021 24.2405 34.8906C24.7405 34.9063 25.2561 34.9115 25.7144 34.6719C26.928 34.0312 27.0634 32.1458 27.0217 30.6823C27.0165 30.4844 27.0113 30.2865 27.0009 30.0833Z" fill="#7F7F7F"/>
</svg>
