<svg width="226" height="322" viewBox="0 0 226 322" fill="none" xmlns="http://www.w3.org/2000/svg">
<path d="M62.5373 178.588C67.8307 171.444 92.191 166.048 121.434 166.048C150.077 166.048 174.026 171.221 179.987 178.142C180.929 179.239 181.426 180.369 181.426 181.517C181.426 190.065 154.565 197.004 121.434 197.004C88.3194 197.004 61.458 190.065 61.458 181.517C61.458 180.524 61.8178 179.547 62.5373 178.588Z" fill="#587B6A"/>
<path d="M130.463 254.598C126.386 253.741 131.559 190.785 134.78 162.81C138.018 134.835 143.448 92.813 143.448 92.813L149.615 93.8066C149.615 93.8066 148.502 129.388 144.819 163.958C141.153 198.528 134.54 255.437 130.463 254.598Z" fill="#D9AC76"/>
<mask id="mask0_287_104851" style="mask-type:luminance" maskUnits="userSpaceOnUse" x="148" y="0" width="14" height="47">
<path d="M148.039 0.613281H161.196V46.6956H148.039V0.613281Z" fill="white"/>
</mask>
<g mask="url(#mask0_287_104851)">
<path d="M156.262 2.94326C155.406 4.05677 152.87 13.6159 151.517 20.8623C150.164 28.1258 150.078 36.8969 149.89 45.7707L153.607 46.3532C153.607 46.3532 157.547 29.0166 157.342 22.7124C157.136 16.4253 158.061 0.613448 156.262 2.94326Z" fill="#C5996E"/>
</g>
<path d="M146.427 69.4616C144.611 82.1043 143.326 93.5992 143.326 93.5992C144.354 94.5757 148.311 95.2095 149.596 94.6099C149.596 94.6099 150.795 81.7274 151.583 71.7572C152.354 61.7698 154.084 44.8958 153.896 44.9986C153.091 45.4783 150.778 45.307 149.922 44.3647C149.922 44.3647 147.472 62.1467 146.427 69.4616Z" fill="#9E9C9A"/>
<path d="M148.433 89.1121C147.97 89.5746 149.05 75.3388 149.752 68.7776C150.454 62.2336 151.791 50.653 152.27 50.9271C152.767 51.2012 151.705 63.9124 151.174 69.3429C150.66 74.7906 149.067 88.4611 148.433 89.1121Z" fill="#B3B2B2"/>
<path d="M145.488 133.824C146.036 132.848 143.569 162.244 142.079 175.007C140.588 187.77 138.001 209.029 137.539 208.567C137.076 208.104 139.68 182.921 140.845 172.352C142.027 161.765 144.768 135.16 145.488 133.824Z" fill="#E8B786"/>
<path d="M118.591 243.427C111.859 244.232 102.539 203.46 97.5029 171.854C92.4664 140.264 90.9932 117.6 90.9932 117.6L105.383 115.853C105.383 115.853 112.544 149.703 116.707 171.408C120.852 193.096 124.107 242.742 118.591 243.427Z" fill="#CD4B45"/>
<path d="M111.378 173.619C112.731 185.97 115.781 210.296 117.425 211.033C119.07 211.77 116.5 185.182 114.753 173.208C113.006 161.216 107.301 131.888 105.811 132.385C104.32 132.881 110.059 161.593 111.378 173.619Z" fill="#DC5657"/>
<path d="M90.1364 70.5581C87.6867 70.8322 85.2198 71.9971 85.1513 73.4703C85.0656 74.9436 91.0615 122.79 91.0615 122.79C91.0615 122.79 93.2543 120.649 97.9481 120.084C102.642 119.501 106.651 120.889 106.651 120.889C106.651 120.889 102.299 102.028 100.569 93.2738C98.8561 84.5198 96.6805 73.3162 96.1151 72.1341C95.5669 70.9521 92.2607 70.3182 90.1364 70.5581Z" fill="#9E9C9A"/>
<path d="M96.3372 95.4673C97.1938 100.778 98.4615 111.468 99.181 111.485C99.9176 111.502 100.055 104.906 98.4272 95.7243C96.8169 86.5421 95.652 81.9852 94.7612 82.3107C93.8532 82.6191 95.789 92.0754 96.3372 95.4673Z" fill="#B5B5B4"/>
<path d="M103.497 52.1944C105.382 63.518 101.476 72.4604 90.5634 73.5053C79.6338 74.5503 74.0149 67.3211 72.5073 55.1238C71.4795 46.781 75.6594 36.708 77.2184 31.346C79.1713 24.5621 80.97 13.684 81.3641 11.7824C81.7067 10.0865 88.6961 25.7784 91.694 29.9927C94.6748 34.224 102.007 43.2006 103.497 52.1944Z" fill="#67413F"/>
<path d="M96.2674 69.2739C96.3017 69.2567 96.3188 69.2567 96.3531 69.2225C96.4045 69.1882 101.921 65.1967 100.841 56.2715C99.8821 48.3056 96.9527 44.0913 93.8519 39.603C92.5843 37.77 91.2652 35.8685 89.9803 33.59C86.9482 28.1767 82.2714 18.5833 81.826 17.5212C81.7917 17.4013 81.6718 17.367 81.569 17.4013C81.4491 17.4527 81.4149 17.5726 81.4491 17.6754C81.8945 18.7375 86.5713 28.3822 89.6377 33.7956C90.9054 36.074 92.2416 37.9927 93.5265 39.8428C96.73 44.4682 99.488 48.4597 100.43 56.3229C101.475 64.9911 96.1646 68.8456 96.1132 68.897C96.0276 68.9655 96.0105 69.0854 96.0618 69.1711C96.1132 69.2396 96.1989 69.2739 96.2674 69.2739Z" fill="#533432"/>
<path d="M85.785 70.5411C85.8706 70.524 85.922 70.4726 85.9563 70.4041C85.9905 70.2842 85.9391 70.1814 85.8192 70.13C82.7699 69.1021 77.4422 63.4832 76.1231 52.742C75.4036 46.7804 77.2195 40.7503 78.984 34.9087C80.166 31.0028 81.3823 26.977 81.8106 23.0369C81.8277 22.9341 81.742 22.8313 81.6221 22.8142C81.5193 22.7971 81.4166 22.8827 81.3994 23.0026C80.9711 26.8914 79.772 30.9 78.5899 34.7716C76.8255 40.6647 74.9753 46.7462 75.7119 52.7934C77.2195 65.0935 83.4209 69.7702 85.6993 70.524C85.7336 70.5411 85.7678 70.5411 85.785 70.5411Z" fill="#533432"/>
<path d="M93.7864 68.4515C93.8207 68.4515 93.8549 68.4344 93.8721 68.4173C93.9235 68.4001 97.7779 65.5735 97.8979 60.5541C98.1377 51.8859 95.5167 47.9457 92.4845 43.3889C91.3881 41.7443 90.2574 40.0483 89.1953 38.0098C87.0026 33.8641 84.8098 29.153 82.6684 24.0137L82.5828 23.8253C82.5485 23.7054 82.4286 23.654 82.3258 23.7054C82.223 23.7568 82.1716 23.8767 82.2059 23.9795L82.2915 24.1679C84.4329 29.3244 86.6428 34.0354 88.8184 38.1982C89.8977 40.2539 91.0455 41.967 92.1419 43.6116C95.1398 48.117 97.7266 52.0058 97.5038 60.537C97.3668 65.3679 93.6836 68.0575 93.6322 68.0746C93.5466 68.1432 93.5295 68.2802 93.598 68.3659C93.6322 68.4344 93.7179 68.4686 93.7864 68.4515Z" fill="#533432"/>
<path d="M89.724 67.6985C89.7412 67.6985 89.7583 67.6814 89.7754 67.6814C93.7841 65.8826 95.7884 60.3322 94.4522 54.7989C93.7155 51.7667 91.9339 48.7516 89.8611 45.2912C87.5484 41.3853 84.9102 36.9826 82.7688 31.0382C82.7174 30.9183 82.6147 30.8669 82.4947 30.9183C82.392 30.9525 82.3406 31.0725 82.3748 31.1752C84.5333 37.154 87.1715 41.5909 89.5013 45.4967C91.557 48.9401 93.3387 51.9209 94.0582 54.9017C95.343 60.2465 93.4414 65.5743 89.6212 67.3045C89.5184 67.3559 89.4671 67.4758 89.5184 67.5786C89.5527 67.6642 89.6384 67.7156 89.724 67.6985Z" fill="#533432"/>
<path d="M87.0003 68.0236C87.0689 68.0236 87.1374 67.9722 87.1717 67.9037C87.2059 67.8009 87.1717 67.681 87.0689 67.6296C87.0003 67.6125 80.422 64.4433 78.983 52.4002C78.2807 46.6099 79.5655 42.5841 80.7989 38.6954C81.4156 36.7082 82.0152 34.8409 82.2893 32.8537C82.3065 32.7509 82.2379 32.6482 82.118 32.631C81.9981 32.6139 81.8953 32.6824 81.8782 32.8023C81.6041 34.7553 81.0216 36.6054 80.4049 38.5583C79.2229 42.31 77.8695 46.5585 78.5719 52.4516C80.0452 64.7345 86.829 67.9894 86.8976 68.0065C86.9318 68.0236 86.9661 68.0408 87.0003 68.0236Z" fill="#533432"/>
<path d="M87.5166 66.4297C87.5508 66.4297 87.5851 66.4126 87.6194 66.3783C87.7393 66.2755 90.5316 63.5346 90.3089 56.5965C90.1376 51.0975 86.3688 43.5085 84.5701 39.8596C84.0733 38.8488 83.6964 38.1122 83.5765 37.7524C83.5422 37.6325 83.4223 37.5811 83.3024 37.6154C83.1996 37.6668 83.1482 37.7867 83.1824 37.8895C83.3195 38.2664 83.6964 39.0201 84.2103 40.048C85.9919 43.6626 89.7265 51.2003 89.8978 56.6137C90.1205 63.3461 87.3624 66.0528 87.3453 66.0871C87.2596 66.1556 87.2596 66.2927 87.3281 66.3783C87.3795 66.4297 87.4481 66.4468 87.5166 66.4297Z" fill="#533432"/>
<path d="M86.5389 64.049C86.556 64.049 86.5903 64.0319 86.6245 64.0147C86.7102 63.9633 86.7273 63.8263 86.6759 63.7406C81.1084 55.5863 82.5131 45.5647 83.1127 41.2819L83.147 41.0935C83.1641 40.9907 83.0784 40.8708 82.9756 40.8708C82.8557 40.8536 82.7529 40.9222 82.7358 41.0421L82.7016 41.2305C82.102 45.5475 80.6801 55.6891 86.3333 63.9633C86.3847 64.0319 86.4532 64.0661 86.5389 64.049Z" fill="#533432"/>
<mask id="mask1_287_104851" style="mask-type:luminance" maskUnits="userSpaceOnUse" x="185" y="35" width="41" height="72">
<path d="M185.367 35.0283H225.813V106.533H185.367V35.0283Z" fill="white"/>
</mask>
<g mask="url(#mask1_287_104851)">
<path d="M223.518 35.0968C223.535 35.0796 223.569 35.0625 223.586 35.0625C223.466 35.4051 223.364 35.7991 223.261 36.2274C223.244 36.2788 223.227 36.3302 223.209 36.3987C218.738 45.8893 209.316 55.5854 203.988 61.0673C202.224 62.8832 200.939 64.2023 200.391 64.9389C198.472 67.5257 195.406 78.284 193.162 86.1471C192.579 88.1857 192.082 89.9502 191.688 91.2693C191.654 91.372 191.706 91.4748 191.808 91.5091C191.808 91.5091 191.808 91.5262 191.825 91.5262C191.928 91.5605 192.048 91.492 192.082 91.3892C192.476 90.0701 192.973 88.3056 193.556 86.267C195.663 78.8664 198.849 67.697 200.716 65.1959C201.248 64.4764 202.532 63.1573 204.28 61.3586C208.939 56.579 216.7 48.5788 221.599 40.2874C217.625 49.3155 208.186 65.7612 206.113 68.5193C204.194 71.0547 201.282 80.5795 199.346 86.8837C198.866 88.4255 198.472 89.7617 198.13 90.8238C198.095 90.9266 198.147 91.0294 198.232 91.0808C198.25 91.0808 198.25 91.0808 198.267 91.0808C198.37 91.1151 198.489 91.0637 198.524 90.9438C198.849 89.8816 199.26 88.5454 199.74 87.0036C201.659 80.7337 204.571 71.2431 206.438 68.7591C208.562 65.9497 218.276 49.0243 222.147 40.0647C219.149 50.7716 217.676 59.0459 216.7 64.5449C216.323 66.652 216.032 68.3309 215.757 69.4958C215.089 72.3566 212.109 77.8214 209.231 83.1149C206.986 87.2435 204.862 91.1493 204.074 93.4106C204.04 93.5134 204.074 93.6162 204.177 93.6676C204.194 93.6676 204.194 93.6676 204.194 93.6676C204.297 93.7018 204.417 93.6505 204.451 93.5477C205.239 91.3206 207.363 87.4319 209.59 83.3205C212.485 78.0099 215.466 72.5108 216.151 69.5986C216.443 68.4165 216.734 66.7377 217.111 64.6134C218.087 59.0973 219.578 50.7716 222.593 39.9962C221.205 50.7031 221.599 70.5922 222.01 73.3331C222.507 76.7079 213.325 93.0337 210.207 97.4364C210.139 97.5221 210.156 97.6591 210.241 97.7276C210.258 97.7276 210.276 97.7448 210.293 97.7448C210.378 97.779 210.481 97.7619 210.533 97.6762C213.53 93.4449 222.952 76.8792 222.421 73.2646C221.959 70.181 221.513 45.3582 223.621 36.5015C223.775 36.1589 223.929 35.8334 224.066 35.5079C225.882 39.7735 226.413 72.665 225.06 78.3868C223.569 84.6396 212.485 102.953 210.824 105.865C209.162 108.794 200.408 100.109 198.712 99.3722C197.033 98.6356 185.401 95.6034 185.401 95.6034C185.401 95.6034 191.38 71.4144 194.464 64.2366C197.547 57.0587 220.982 37.0326 223.518 35.0968Z" fill="#67413F"/>
</g>
<mask id="mask2_287_104851" style="mask-type:luminance" maskUnits="userSpaceOnUse" x="187" y="33" width="39" height="62">
<path d="M187.51 33.5391H225.832V94.9365H187.51V33.5391Z" fill="white"/>
</mask>
<g mask="url(#mask2_287_104851)">
<path d="M222.387 38.4037C222.164 38.9862 221.89 39.62 221.599 40.2881C216.7 48.5795 208.939 56.5797 204.28 61.3593C202.532 63.158 201.247 64.4771 200.716 65.1966C198.849 67.6977 195.663 78.8671 193.556 86.2677C192.973 88.3063 192.476 90.0708 192.082 91.3899C192.048 91.4927 191.928 91.5612 191.825 91.5269C191.825 91.5269 191.808 91.5269 191.808 91.5098C191.705 91.4755 191.654 91.3727 191.688 91.2699C192.082 89.9509 192.579 88.1864 193.162 86.1478C195.406 78.2847 198.472 67.5093 200.391 64.9396C200.939 64.203 202.224 62.8839 203.988 61.068C209.316 55.5861 218.738 45.89 223.209 36.3994C223.021 37.0333 222.832 37.6671 222.661 38.2838C222.558 38.2496 222.438 38.301 222.387 38.4037Z" fill="#503331"/>
</g>
<mask id="mask3_287_104851" style="mask-type:luminance" maskUnits="userSpaceOnUse" x="222" y="33" width="4" height="5">
<path d="M222.594 33.5391H225.832V37.9246H222.594V33.5391Z" fill="white"/>
</mask>
<g mask="url(#mask3_287_104851)">
<path d="M223.638 36.3996C223.741 36.0399 223.861 35.663 223.964 35.3032C223.998 35.3546 224.032 35.4231 224.066 35.5088C223.929 35.8343 223.775 36.1598 223.621 36.5024C223.621 36.4681 223.638 36.4339 223.638 36.3996Z" fill="#67413F"/>
<path d="M223.262 36.2294C223.365 35.8011 223.467 35.4071 223.587 35.0645C223.604 35.0645 223.604 35.0474 223.621 35.0474C223.502 35.4414 223.382 35.8354 223.262 36.2294Z" fill="#67413F"/>
</g>
<mask id="mask4_287_104851" style="mask-type:luminance" maskUnits="userSpaceOnUse" x="209" y="33" width="17" height="67">
<path d="M209.437 33.5386H225.831V99.3215H209.437V33.5386Z" fill="white"/>
</mask>
<g mask="url(#mask4_287_104851)">
<path d="M223.622 36.5024C221.515 45.3592 221.96 70.182 222.406 73.2655C222.954 76.8802 213.532 93.4458 210.534 97.6772C210.482 97.7628 210.38 97.78 210.294 97.7457C210.277 97.7457 210.26 97.7286 210.243 97.7286C210.157 97.66 210.14 97.523 210.208 97.4373C213.326 93.0347 222.508 76.7089 222.012 73.3341C221.6 70.5931 221.206 50.704 222.594 39.9972C222.919 38.8665 223.245 37.7187 223.605 36.5367C223.605 36.5196 223.605 36.5196 223.622 36.5024Z" fill="#503331"/>
</g>
<mask id="mask5_287_104851" style="mask-type:luminance" maskUnits="userSpaceOnUse" x="222" y="33" width="4" height="5">
<path d="M222.594 33.5391H225.832V37.9246H222.594V33.5391Z" fill="white"/>
</mask>
<g mask="url(#mask5_287_104851)">
<path d="M223.639 36.3994C223.639 36.4337 223.622 36.4679 223.622 36.5022C223.604 36.5193 223.604 36.5193 223.604 36.5365C223.604 36.4851 223.622 36.4337 223.639 36.3994Z" fill="#503331"/>
</g>
<mask id="mask6_287_104851" style="mask-type:luminance" maskUnits="userSpaceOnUse" x="200" y="37" width="26" height="58">
<path d="M200.665 37.9248H225.83V94.9367H200.665V37.9248Z" fill="white"/>
</mask>
<g mask="url(#mask6_287_104851)">
<path d="M222.781 38.5587C222.816 38.473 222.781 38.3702 222.713 38.3188C222.781 38.1989 222.85 38.0619 222.901 37.9248C222.799 38.5758 222.696 39.261 222.593 39.9977C219.578 50.773 218.088 59.0987 217.111 64.6149C216.734 66.7391 216.443 68.418 216.152 69.6C215.484 72.5123 212.486 78.0113 209.591 83.3219C207.346 87.4333 205.239 91.3221 204.451 93.5491C204.417 93.6519 204.297 93.7033 204.194 93.669C204.194 93.669 204.194 93.669 204.177 93.669C204.074 93.6176 204.04 93.5148 204.074 93.4121C204.862 91.1508 206.987 87.2449 209.231 83.1163C212.109 77.8229 215.09 72.3581 215.758 69.4972C216.032 68.3323 216.323 66.6535 216.7 64.5464C217.694 59.0473 219.15 50.773 222.148 40.0662C222.387 39.5351 222.593 39.0383 222.781 38.5587Z" fill="#503331"/>
</g>
<mask id="mask7_287_104851" style="mask-type:luminance" maskUnits="userSpaceOnUse" x="222" y="33" width="4" height="5">
<path d="M222.594 33.5391H225.832V37.9246H222.594V33.5391Z" fill="white"/>
</mask>
<g mask="url(#mask7_287_104851)">
<path d="M223.211 36.3998C223.228 36.3313 223.245 36.2799 223.262 36.2285C223.245 36.2628 223.245 36.3142 223.228 36.3484C223.228 36.3656 223.211 36.3827 223.211 36.3998Z" fill="#67413F"/>
<path d="M223.963 35.3033C223.86 35.663 223.74 36.0399 223.638 36.3996C223.74 35.9885 223.843 35.6116 223.946 35.2861C223.963 35.2861 223.963 35.3033 223.963 35.3033Z" fill="#503331"/>
</g>
<mask id="mask8_287_104851" style="mask-type:luminance" maskUnits="userSpaceOnUse" x="222" y="33" width="4" height="10">
<path d="M222.594 33.5391H225.832V42.3101H222.594V33.5391Z" fill="white"/>
</mask>
<g mask="url(#mask8_287_104851)">
<path d="M222.902 37.9242C222.851 38.0612 222.782 38.1983 222.714 38.3182C222.696 38.3182 222.679 38.3011 222.662 38.2839C222.833 37.6672 223.022 37.0334 223.21 36.3824C223.21 36.3824 223.227 36.3653 223.227 36.3481C223.125 36.8278 223.005 37.3589 222.902 37.9242Z" fill="#503331"/>
<path d="M223.604 36.5366C223.245 37.7187 222.919 38.8664 222.594 39.9971C222.697 39.2605 222.799 38.5752 222.902 37.9242C223.142 37.4617 223.382 36.9992 223.604 36.5366Z" fill="#503331"/>
</g>
<mask id="mask9_287_104851" style="mask-type:luminance" maskUnits="userSpaceOnUse" x="222" y="33" width="4" height="5">
<path d="M222.594 33.5391H225.832V37.9246H222.594V33.5391Z" fill="white"/>
</mask>
<g mask="url(#mask9_287_104851)">
<path d="M223.792 35.0983C223.621 35.5095 223.432 35.9378 223.227 36.3489C223.244 36.3146 223.244 36.2633 223.261 36.229C223.381 35.835 223.501 35.441 223.621 35.047C223.672 35.0298 223.74 35.047 223.792 35.0983Z" fill="#67413F"/>
<path d="M222.902 37.9252C223.005 37.3599 223.125 36.8289 223.228 36.3492C223.433 35.9381 223.622 35.5098 223.793 35.0986C223.845 35.1329 223.896 35.2014 223.947 35.2871C223.845 35.6126 223.742 35.9894 223.639 36.4006C223.622 36.4348 223.605 36.4862 223.605 36.5376C223.382 37.0002 223.142 37.4627 222.902 37.9252Z" fill="#503331"/>
</g>
<path d="M222.147 40.0656C218.275 49.0251 208.562 65.9505 206.437 68.76C204.57 71.244 201.658 80.7346 199.739 87.0045C199.26 88.5463 198.848 89.8825 198.523 90.9446C198.489 91.0646 198.369 91.116 198.249 91.0817C198.249 91.0817 198.249 91.0817 198.232 91.0817C198.146 91.0303 198.095 90.9275 198.129 90.8247C198.472 89.7626 198.866 88.4264 199.345 86.8846C201.281 80.5804 204.193 71.0556 206.112 68.5202C208.185 65.7621 217.624 49.3164 221.598 40.2883C221.941 39.723 222.266 39.1406 222.575 38.5581C222.438 39.072 222.284 39.5688 222.147 40.0656Z" fill="#503331"/>
<mask id="mask10_287_104851" style="mask-type:luminance" maskUnits="userSpaceOnUse" x="218" y="37" width="8" height="6">
<path d="M218.205 37.9243H225.828V42.3098H218.205V37.9243Z" fill="white"/>
</mask>
<g mask="url(#mask10_287_104851)">
<path d="M222.388 38.4034C222.439 38.3007 222.559 38.2493 222.662 38.2835C222.627 38.3863 222.61 38.472 222.576 38.5576C222.268 39.1401 221.942 39.7225 221.6 40.2878C221.891 39.6197 222.165 38.9859 222.388 38.4034Z" fill="#503331"/>
<path d="M222.715 38.3174C222.783 38.3688 222.818 38.4716 222.783 38.5572C222.595 39.0198 222.389 39.5337 222.149 40.0647C222.286 39.5679 222.441 39.0711 222.578 38.5572C222.629 38.4716 222.663 38.403 222.715 38.3174Z" fill="#503331"/>
<path d="M222.662 38.2837C222.662 38.2837 222.662 38.2837 222.662 38.3008C222.679 38.3008 222.696 38.318 222.713 38.318C222.662 38.4036 222.628 38.4893 222.576 38.5578C222.593 38.4721 222.628 38.3865 222.662 38.2837Z" fill="#503331"/>
</g>
<path d="M201.368 127.776C181.393 171.923 136.322 266.966 130.549 264.447C124.467 261.809 159.603 162.175 176.648 117.207C192.015 118.234 199.518 125.652 201.368 127.776Z" fill="#9E6250"/>
<path d="M185.42 95.5707C187.288 94.4743 195.87 96.6499 199.862 98.363C203.956 100.11 210.106 103.794 210.843 105.832C211.014 106.295 207.211 114.877 201.369 127.777C199.536 125.653 192.016 118.235 176.649 117.19C181.515 104.359 184.855 95.8961 185.42 95.5707Z" fill="#B9AAA4"/>
<path d="M190.096 144.686C186.378 153.217 177.984 172.78 175.911 173.003C174.781 173.14 183.5 152.566 185.419 146.878C187.783 139.889 192.734 126.355 193.762 126.801C194.772 127.246 196.468 127.983 196.571 129.662C196.657 131.323 192.477 139.238 190.096 144.686Z" fill="#B2726A"/>
<path d="M208.768 111.108C209.076 111.246 209.453 111.194 209.727 110.971C210.121 110.646 210.173 110.046 209.847 109.652C209.522 109.258 201.624 99.9048 183.739 98.3459C183.243 98.3116 182.78 98.6885 182.746 99.2025C182.695 99.7164 183.071 100.162 183.585 100.213C200.648 101.686 208.34 110.749 208.425 110.852C208.511 110.971 208.631 111.057 208.768 111.108Z" fill="#615C5F"/>
<path d="M180.451 106.963C180.554 107.015 180.674 107.032 180.794 107.049C196.486 107.289 205.531 117.362 205.616 117.465C205.959 117.859 206.542 117.893 206.918 117.55C207.312 117.208 207.347 116.608 207.004 116.231C206.901 116.111 204.554 113.473 200.152 110.784C196.092 108.3 189.445 105.319 180.828 105.182C180.314 105.165 179.903 105.576 179.886 106.09C179.886 106.484 180.126 106.826 180.451 106.963Z" fill="#615C5F"/>
<path d="M178.155 113.626C178.258 113.677 178.361 113.712 178.481 113.712C194.618 114.106 202.824 123.802 202.909 123.904C203.235 124.298 203.817 124.35 204.211 124.024C204.605 123.699 204.657 123.116 204.331 122.722C204.246 122.603 202.087 120.033 197.821 117.395C193.898 114.979 187.389 112.067 178.532 111.844C178.018 111.827 177.59 112.238 177.59 112.752C177.573 113.146 177.812 113.489 178.155 113.626Z" fill="#615C5F"/>
<path d="M127.052 249.578C121.519 247.968 132.157 197.62 139.952 167.555C147.763 137.507 160.217 97.1807 160.217 97.1807L170.102 100.059C170.102 100.059 161.622 142.852 155.078 171.546C148.534 200.241 133.373 251.411 127.052 249.578Z" fill="#CD4B45"/>
<path d="M147.49 174.921C142.984 191.709 132.843 224.978 134.436 225.44C136.012 225.886 146.736 197.551 152.372 172.043C158.008 146.535 162.65 121.592 161.194 122.894C159.721 124.179 152.971 154.518 147.49 174.921Z" fill="#DC5657"/>
<path d="M186.329 56.0828C186.569 57.7273 170.551 103.193 169.369 103.724C168.187 104.238 159.347 102.079 159.142 100.726C159.039 100.178 165.258 50.8578 166.063 50.1554C167.382 49.0077 186.02 54.1298 186.329 56.0828Z" fill="#B1B0AF"/>
<path d="M168.941 17.8134C169.574 16.6999 170.756 16.6485 172.007 16.6656C171.904 22.9355 171.065 36.2292 168.838 45.2401C168.804 45.3429 168.872 45.4628 168.975 45.4799C169.095 45.5142 169.198 45.4457 169.232 45.3257C171.476 36.3148 172.315 22.9869 172.418 16.6656C172.795 16.6827 173.189 16.6827 173.566 16.6656C174.971 16.5628 175.108 17.8305 176.153 17.7791C176.495 23.9463 175.622 36.2977 172.384 46.2508C172.35 46.3707 172.418 46.4735 172.521 46.5249C172.521 46.5249 172.521 46.5249 172.538 46.5249C172.641 46.542 172.744 46.4906 172.778 46.3879C176.016 36.3834 176.889 23.9977 176.564 17.7449C176.701 17.7277 176.855 17.7106 177.009 17.6763C178.808 17.4194 180.144 18.0703 181.035 18.9612C181.155 19.0811 181.292 19.201 181.429 19.3209C181.309 28.1091 178.003 42.4649 176.238 47.3815C176.204 47.4842 176.255 47.6042 176.375 47.6384C176.375 47.6384 176.375 47.6384 176.393 47.6384C176.495 47.6727 176.598 47.6213 176.632 47.5185C178.38 42.6362 181.635 28.5031 181.84 19.6121C182.491 20.0233 183.176 20.1603 183.793 19.7663C184.495 19.3209 185.112 19.3552 186.02 20.1946C184.65 29.925 180.898 43.7326 179.048 48.9061C179.014 49.026 179.065 49.1459 179.168 49.1802H179.185C179.288 49.2145 179.39 49.1459 179.425 49.0603C181.275 43.8867 184.992 30.2333 186.397 20.4858C186.5 20.5715 186.637 20.64 186.757 20.7085C188.264 21.428 189.361 21.3424 190.68 21.2224C190.765 21.2224 190.851 21.2224 190.937 21.2224C190.32 27.7665 186.243 43.0302 183.194 49.3858C183.142 49.4886 183.194 49.6085 183.279 49.6599C183.296 49.6599 183.313 49.6599 183.331 49.677C183.416 49.6941 183.519 49.6427 183.553 49.5571C186.62 43.2015 190.697 27.9549 191.348 21.291C192.067 21.4794 192.307 22.1133 193.027 21.9762C193.609 21.8734 194.74 22.4901 195.648 23.2782C194.517 29.2226 191.314 40.4091 186.5 50.7734C186.448 50.8762 186.5 51.0132 186.603 51.0475C186.603 51.0646 186.62 51.0646 186.637 51.0646C186.723 51.0989 186.825 51.0475 186.877 50.9618C191.639 40.6832 194.825 29.6166 196.008 23.5694C196.367 23.8435 196.71 24.0148 196.984 23.9805C202.123 23.4152 188.641 54.4565 186.329 56.084C183.999 57.6943 167.382 52.9833 166.063 50.1567C164.726 47.3301 168.067 19.3894 168.941 17.8134Z" fill="#F79360"/>
<path d="M179.423 49.0425C179.388 49.1453 179.286 49.2138 179.183 49.1795H179.166C179.063 49.1453 179.011 49.0253 179.046 48.9054C180.896 43.7319 184.648 29.9243 186.018 20.1768C186.138 20.2967 186.258 20.3995 186.395 20.4851C184.99 30.2155 181.273 43.9032 179.423 49.0425Z" fill="#E6855D"/>
<path d="M176.629 47.5179C176.595 47.6207 176.492 47.6721 176.389 47.655C176.372 47.6378 176.372 47.6378 176.372 47.6378C176.252 47.6036 176.201 47.4836 176.235 47.3809C178 42.4643 181.306 28.1085 181.426 19.3203C181.563 19.4231 181.7 19.5259 181.837 19.6115C181.631 28.5025 178.376 42.6356 176.629 47.5179Z" fill="#E6855D"/>
<path d="M172.776 46.3871C172.742 46.4899 172.639 46.5413 172.536 46.5242C172.519 46.5242 172.519 46.5242 172.519 46.5242C172.416 46.4728 172.348 46.37 172.382 46.2501C175.62 36.297 176.493 23.9456 176.151 17.7784C176.271 17.7613 176.408 17.7441 176.562 17.7441C176.887 23.9969 176.014 36.3998 172.776 46.3871Z" fill="#E6855D"/>
<path d="M168.974 45.4789C168.871 45.4617 168.803 45.3418 168.837 45.239C171.064 36.2281 171.903 22.9345 172.006 16.6646C172.143 16.6646 172.28 16.6646 172.417 16.6646C172.315 22.9859 171.475 36.3138 169.231 45.3247C169.197 45.4446 169.094 45.5131 168.974 45.4789Z" fill="#E6855D"/>
<path d="M183.551 49.5568C183.517 49.6596 183.414 49.6939 183.329 49.6767C183.311 49.6767 183.294 49.6596 183.277 49.6596C183.174 49.6082 183.14 49.4883 183.192 49.3855C186.241 43.0299 190.318 27.7833 190.935 21.2222C191.089 21.2393 191.226 21.2564 191.346 21.2907C190.695 27.9546 186.601 43.2012 183.551 49.5568Z" fill="#E6855D"/>
<path d="M186.876 50.9615C186.824 51.0472 186.721 51.0985 186.636 51.0643C186.619 51.0643 186.601 51.0643 186.601 51.0643C186.499 51.0129 186.447 50.8758 186.499 50.7731C191.312 40.4088 194.516 29.2223 195.647 23.2778C195.767 23.3806 195.886 23.4834 196.006 23.5691C194.824 29.6163 191.638 40.6829 186.876 50.9615Z" fill="#E6855D"/>
<path d="M176.785 74.9959C175.123 74.4991 167.757 95.7757 169.761 96.3582C171.183 96.7865 178.583 75.5269 176.785 74.9959Z" fill="#C4C2C0"/>
<path d="M178.616 66.9616C178.565 69.1887 166.659 65.2828 167.104 63.7239C167.961 60.6917 178.667 63.9637 178.616 66.9616Z" fill="#A0A1A0"/>
<path d="M182.591 58.2929C181.101 57.8646 179.508 63.7234 180.775 64.0831C182.06 64.46 184.064 58.7212 182.591 58.2929Z" fill="#C4C2C0"/>
<mask id="mask11_287_104851" style="mask-type:luminance" maskUnits="userSpaceOnUse" x="0" y="33" width="61" height="71">
<path d="M0.576172 33.5391H60.329V103.708H0.576172V33.5391Z" fill="white"/>
</mask>
<g mask="url(#mask11_287_104851)">
<path d="M0.746026 50.1555C0.900208 49.0591 2.85314 49.9328 2.85314 49.9328C2.85314 49.9328 2.8874 49.5902 2.92166 49.1619C5.61123 53.8215 10.9904 63.2778 14.8106 71.1923C19.4359 80.7 21.6972 86.6959 23.7015 91.9722C24.027 92.8116 24.3354 93.6168 24.6437 94.422C24.678 94.5247 24.7979 94.5761 24.9007 94.5419C25.0206 94.5076 25.072 94.3877 25.0206 94.2678C24.7123 93.4626 24.4039 92.6575 24.0956 91.818C22.0741 86.5417 19.8128 80.5459 15.1874 71.0039C11.2131 62.7982 5.57696 52.9307 2.99018 48.4595C3.04158 48.0655 3.09297 47.7229 3.16149 47.5858C3.34993 47.209 5.38852 48.4938 6.21081 48.3225C6.96457 48.1683 6.99884 46.7636 7.56416 46.2325C9.31152 49.6244 13.0118 56.7681 16.6093 63.2436C21.2175 71.5007 26.117 82.7215 29.4062 92.5547C29.4576 92.6575 29.5603 92.726 29.6803 92.6746C29.783 92.6403 29.8344 92.5204 29.8002 92.4176C26.511 82.5673 21.5944 71.3123 16.9691 63.038C13.3716 56.5796 9.67127 49.4531 7.92391 46.0441C8.62628 45.9755 9.56848 47.1747 10.5278 46.9349C11.5899 46.6608 11.1617 44.7592 11.7955 44.5194C12.4465 44.2624 12.9775 45.6843 13.6799 45.5644C14.0054 45.4959 14.1938 45.256 14.3309 44.9305C17.1232 50.0527 21.7486 59.1835 25.2091 67.218C29.5089 77.2738 32.9523 86.2333 34.4255 90.0536C34.4598 90.1563 34.5797 90.2077 34.6825 90.1735C34.8024 90.1221 34.8538 90.0022 34.8024 89.8994C33.3292 86.0792 29.8858 77.1197 25.5859 67.0638C22.057 58.8238 17.2774 49.4531 14.5193 44.3824C14.5707 44.1597 14.6393 43.9198 14.7078 43.68C14.9819 42.8234 16.6093 45.1533 17.4145 44.9819C18.2368 44.8106 17.2603 42.6693 17.62 41.6757C17.9627 40.6992 19.5216 42.1553 20.2411 41.9498C20.6865 42.9091 21.2175 44.0055 21.7829 45.2389C24.2155 50.3268 27.5217 57.3162 29.4576 62.5069C30.8109 66.1558 32.524 70.5071 34.2028 74.7042C36.2414 79.8606 38.1772 84.7258 39.3593 88.1178C39.3935 88.2205 39.5134 88.2891 39.6162 88.2377C39.6334 88.2377 39.6334 88.2377 39.6334 88.2377C39.7361 88.2034 39.7875 88.0835 39.7533 87.9807C38.5712 84.5716 36.6354 79.7064 34.5797 74.55C32.918 70.3529 31.1878 66.0188 29.8344 62.3528C27.8986 57.1449 24.5752 50.1555 22.1598 45.0505C21.5602 43.7999 21.0291 42.6693 20.5837 41.7099C21.012 41.2131 21.0805 40.1853 21.4403 40.2024C21.8685 40.2367 22.2111 42.5322 22.7936 42.1553C23.3761 41.7784 22.8621 40.7848 23.2219 40.2024C23.5816 39.6199 25.2947 41.0247 25.4832 40.3566C25.5688 40.0825 25.86 39.8598 26.1684 39.6028C28.2755 43.9883 33.1065 55.1235 35.9331 63.0209C37.3378 66.9267 38.9652 70.9011 40.5242 74.7556C42.3401 79.1754 44.0531 83.3553 44.9954 86.4732C45.0296 86.576 45.1495 86.6445 45.2523 86.6102C45.2523 86.6102 45.2523 86.5931 45.2694 86.5931C45.3722 86.5588 45.4236 86.456 45.3894 86.3533C44.43 83.2183 42.7169 79.0212 40.9182 74.5843C39.3421 70.7469 37.7147 66.7897 36.3099 62.8838C33.4662 54.9179 28.601 43.6629 26.511 39.3287C26.8708 39.0204 27.2134 38.6435 27.2648 38.1124C27.419 36.9646 29.6803 40.2024 30.9137 40.3223C32.13 40.4251 31.2734 37.0674 31.8902 36.3822C32.0443 36.2109 32.267 36.1595 32.524 36.1766C35.402 41.6414 37.7318 47.9285 39.4449 54.9522C42.066 65.7618 46.6057 76.4344 49.3124 82.8243C49.5693 83.4239 49.8092 84.0063 50.0319 84.5202C50.0661 84.623 50.186 84.6744 50.2888 84.6402C50.4087 84.5888 50.443 84.4689 50.4087 84.3661C50.186 83.835 49.9462 83.2697 49.6892 82.6701C46.9825 76.2802 42.46 65.6248 39.8389 54.8494C38.1601 47.9285 35.8645 41.6928 33.0379 36.2623C33.6546 36.4164 34.3399 36.6391 34.7339 36.1252C35.4191 35.2344 37.1494 35.5085 37.4235 35.1145C37.629 34.8233 38.7425 35.3201 39.6505 35.4057C41.2437 43.0119 45.2523 58.1385 48.2845 66.4813C52.0362 76.7942 55.1883 83.441 55.2225 83.5095C55.2739 83.6123 55.3939 83.6466 55.4795 83.6123C55.4966 83.6123 55.4966 83.6123 55.4966 83.6123C55.5994 83.5609 55.6508 83.441 55.5994 83.3382C55.5652 83.2697 52.4131 76.64 48.6785 66.3443C45.6463 58.0357 41.6719 43.0119 40.0616 35.4228C40.2843 35.4057 40.4728 35.3372 40.6098 35.2001C41.2779 34.4978 41.9632 36.5878 42.4771 37.1359C42.9739 37.6841 43.4193 36.1766 43.6077 35.5085C43.7962 34.8404 48.3359 54.3012 52.0191 65.0423C54.7257 72.974 57.8436 82.0534 60.2077 87.7751L24.1298 100.246C24.1298 100.246 20.0869 90.1221 14.1082 76.0233C8.12948 61.9245 0.574718 51.2519 0.746026 50.1555Z" fill="#E27840"/>
</g>
<path d="M29.8346 62.3542C31.1879 66.0203 32.9181 70.3544 34.5798 74.5515C36.6356 79.7079 38.5714 84.5731 39.7534 87.9822C39.7877 88.085 39.7363 88.2049 39.6335 88.2391C39.6335 88.2391 39.6335 88.2391 39.6164 88.2563C39.5136 88.2905 39.3936 88.222 39.3594 88.1192C38.1774 84.7273 36.2415 79.8621 34.203 74.7057C32.5241 70.5086 30.811 66.1573 29.4577 62.5084C27.5219 57.3177 24.2156 50.3283 21.783 45.2404C21.2177 44.0069 20.6866 42.9106 20.2412 41.9512C20.2583 41.9512 20.2755 41.9512 20.2926 41.9512C20.4125 41.8998 20.4982 41.8142 20.5838 41.7285C21.0292 42.6879 21.5603 43.8014 22.1599 45.0519C24.5753 50.157 27.8988 57.1464 29.8346 62.3542Z" fill="#CB6D3E"/>
<path d="M34.8016 89.9003C34.853 90.0031 34.8016 90.123 34.6817 90.1744C34.5789 90.2087 34.459 90.1573 34.4247 90.0545C32.9515 86.2343 29.5081 77.2748 25.2083 67.2189C21.7478 59.1673 17.1224 50.0537 14.3301 44.9315C14.3986 44.7602 14.45 44.5889 14.5185 44.3833C17.2766 49.4541 22.0562 58.8247 25.5851 67.0647C29.885 77.1206 33.3283 86.0801 34.8016 89.9003Z" fill="#CB6D3E"/>
<path d="M36.3115 62.8837C37.7162 66.7896 39.3436 70.7468 40.9197 74.5842C42.7184 79.0211 44.4315 83.2182 45.3909 86.3532C45.4251 86.4559 45.3738 86.5587 45.271 86.593L45.2538 86.6101C45.151 86.6444 45.0311 86.5759 44.9969 86.4731C44.0547 83.3552 42.3416 79.1753 40.5257 74.7555C38.9668 70.901 37.3393 66.9266 35.9346 63.0208C33.108 55.1234 28.277 43.9882 26.1699 39.6027C26.2898 39.5171 26.3926 39.4314 26.5125 39.3286C28.6025 43.6628 33.4677 54.9178 36.3115 62.8837Z" fill="#CB6D3E"/>
<path d="M39.8393 54.851C42.4604 65.6264 46.983 76.299 49.6897 82.6717C49.9466 83.2713 50.1865 83.8366 50.4092 84.3677C50.4434 84.4705 50.4092 84.5904 50.2892 84.6418C50.1865 84.676 50.0665 84.6418 50.0323 84.5219C49.8096 84.0079 49.5697 83.4255 49.3128 82.8259C46.6061 76.436 42.0664 65.7634 39.4453 54.9538C37.7322 47.9301 35.4024 41.643 32.5244 36.1782C32.6786 36.1954 32.867 36.2296 33.0383 36.2639C35.865 41.6944 38.1605 47.9301 39.8393 54.851Z" fill="#CB6D3E"/>
<path d="M29.8024 92.4185C29.8367 92.5213 29.7853 92.6412 29.6825 92.6755C29.5626 92.7269 29.4598 92.6583 29.4084 92.5555C26.1193 82.7224 21.2198 71.5016 16.6116 63.2444C13.0141 56.7689 9.31377 49.6253 7.56641 46.2162C7.6178 46.182 7.65206 46.1477 7.72059 46.1134C7.78911 46.0621 7.85763 46.0449 7.92616 46.0449C9.67352 49.454 13.3738 56.5805 16.9713 63.0389C21.5967 71.3131 26.5133 82.5682 29.8024 92.4185Z" fill="#CB6D3E"/>
<path d="M55.5993 83.3387C55.6507 83.4415 55.5993 83.5614 55.4965 83.6128C55.4965 83.6128 55.4966 83.6128 55.4794 83.6128C55.3938 83.6471 55.2738 83.6128 55.2225 83.51C55.1882 83.4415 52.0361 76.7947 48.2844 66.499C45.2522 58.1391 41.2436 43.0124 39.6504 35.4062C39.7874 35.4234 39.9416 35.4405 40.0615 35.4234C41.6718 43.0124 45.6462 58.0363 48.6784 66.3448C52.413 76.6405 55.5651 83.2702 55.5993 83.3387Z" fill="#CB6D3E"/>
<mask id="mask12_287_104851" style="mask-type:luminance" maskUnits="userSpaceOnUse" x="0" y="46" width="26" height="49">
<path d="M0.576172 46.6958H25.2448V94.9366H0.576172V46.6958Z" fill="white"/>
</mask>
<g mask="url(#mask12_287_104851)">
<path d="M24.0987 91.819C24.4071 92.6584 24.7154 93.4635 25.0238 94.2687C25.0752 94.3715 25.0238 94.5085 24.9039 94.5428C24.8011 94.5771 24.6812 94.5257 24.6469 94.4229C24.3385 93.6177 24.0302 92.8126 23.7047 91.9731C21.7004 86.6968 19.4391 80.701 14.8137 71.1933C10.9935 63.2787 5.61437 53.8224 2.9248 49.1628C2.94193 48.9401 2.95907 48.7003 2.99333 48.4604C5.58011 52.9316 11.2162 62.7991 15.1906 71.0048C19.816 80.5468 22.0772 86.5426 24.0987 91.819Z" fill="#CB6D3E"/>
</g>
<path d="M95.7211 233.046C101.289 230.871 106.565 249.235 102.556 250.794C98.5306 252.37 90.1535 235.222 95.7211 233.046ZM38.418 138.552C39.206 140.333 39.857 141.652 40.3195 142.321C43.386 146.895 55.1721 145.404 59.8831 154.227C64.5941 163.049 68.5514 199.692 77.3909 221.534C86.2477 243.393 99.1987 263.882 106.479 261.038C113.76 258.195 113.332 238.168 103.533 212.678C93.7339 187.204 73.2624 163.015 69.0824 150.629C67.1295 144.839 75.5922 134.338 75.4894 129.489C75.4723 128.65 75.044 126.886 74.3416 124.521C69.9047 126.817 55.7545 133.789 38.418 138.552Z" fill="#D9AC76"/>
<path d="M72.1662 117.892C73.0399 120.376 73.7936 122.654 74.3418 124.522C69.9049 126.817 55.7547 133.79 38.4182 138.552C37.6301 136.805 36.7051 134.578 35.6943 132.077C42.1013 130.363 48.2856 128.222 53.7333 126.098C62.5215 122.654 69.391 119.297 72.1662 117.892Z" fill="#C0BDC9"/>
<path d="M25.8442 105.815C24.765 102.714 24.0969 100.59 24.1311 100.247C24.2339 98.3116 57.8106 84.6582 59.6094 86.3885C59.8321 86.6112 60.7572 88.6498 62.0591 91.7333C57.1597 93.258 39.7717 98.8598 25.8442 105.815Z" fill="#C0BDC9"/>
<path d="M62.7767 93.4629C65.3121 99.5958 68.8582 108.607 71.5306 116.11C67.402 118.234 51.9499 125.823 35.0073 130.346C32.0608 122.98 28.6689 113.866 26.459 107.596C40.4721 100.555 58.1684 94.8848 62.7767 93.4629Z" fill="#C0BDC9"/>
<path d="M62.0567 91.7334C62.2794 92.2816 62.5364 92.864 62.7762 93.4636C58.168 94.8855 40.4717 100.556 26.4585 107.597C26.2358 106.98 26.0302 106.38 25.8418 105.815C39.7693 98.8599 57.1572 93.2581 62.0567 91.7334Z" fill="#A4A3A9"/>
<path d="M71.532 116.11C71.7547 116.727 71.9603 117.309 72.1659 117.891C69.3907 119.296 62.5211 122.654 53.733 126.097C48.2853 128.221 42.101 130.363 35.694 132.076C35.4713 131.511 35.2315 130.928 35.0088 130.346C51.9513 125.823 67.3863 118.234 71.532 116.11Z" fill="#A4A3A9"/>
<path d="M60.6184 96.2731C59.0081 96.9413 65.8434 116.556 67.762 115.751C69.1496 115.169 62.3315 95.5365 60.6184 96.2731Z" fill="#D4D3DA"/>
<path d="M96.9359 203.272C101.356 211.974 105.039 221.756 104.542 223.058C104.045 224.36 101.698 225.114 100.876 224.702C99.2486 223.897 100.345 221.585 92.1221 201.918C85.2868 185.592 77.5436 173.515 78.383 172.539C79.291 171.511 89.0556 187.734 96.9359 203.272Z" fill="#E6B485"/>
<path d="M91.6934 28.5023C91.899 28.0911 92.1731 27.9027 92.4815 27.7999C94.5029 30.3695 99.3167 37.3076 102.623 42.07C103.462 43.3034 104.216 44.3998 104.833 45.2735C107.728 49.4192 115.814 61.2224 117.698 64.3917C117.733 64.4602 117.801 64.4945 117.87 64.4945C117.904 64.4945 117.938 64.4945 117.972 64.4773C118.075 64.4088 118.109 64.2889 118.041 64.1861C116.156 60.9997 108.071 49.1965 105.176 45.0337C104.559 44.16 103.805 43.0636 102.949 41.8302C99.7279 37.1705 95.034 30.4209 92.9269 27.6971C93.4408 27.6286 93.989 27.6457 94.4344 27.2346C95.1882 26.5322 94.9483 25.3844 95.6164 24.7506C99.1283 29.6843 106.135 40.7167 108.328 44.5197C109.15 45.9416 110.281 47.826 111.497 49.8475C114.358 54.6099 117.595 60.0061 118.812 62.73C118.846 62.8156 118.915 62.8499 119 62.8499C119.034 62.8499 119.052 62.8499 119.086 62.8328C119.189 62.7985 119.24 62.6614 119.189 62.5587C117.955 59.8006 114.7 54.4043 111.839 49.6248C110.64 47.6204 109.493 45.7189 108.687 44.3142C106.495 40.494 99.488 29.4787 95.9591 24.5108C96.5073 24.3223 98.3745 24.7677 99.0598 24.3908C99.7621 24.014 99.5223 23.1745 100.379 22.2323C100.619 21.9754 100.91 21.8726 101.218 21.8726C103.325 25.4872 106.46 31.8257 108.876 36.7423C109.835 38.6609 110.64 40.3226 111.291 41.5903C114.015 46.9352 118.846 57.8476 120.079 61.6679C120.114 61.7535 120.199 61.8049 120.285 61.8049C120.302 61.8049 120.319 61.8049 120.336 61.7878C120.456 61.7535 120.508 61.6336 120.473 61.5308C119.24 57.6935 114.375 46.7639 111.668 41.4019C111.017 40.1342 110.195 38.4725 109.253 36.5538C106.871 31.74 103.822 25.5729 101.715 21.8897C102.366 21.9925 103.068 22.2495 103.548 21.9582C104.388 21.4272 104.062 19.6284 104.901 19.1145C105.518 18.7205 106.563 18.9603 107.351 18.9603C109.681 23.9626 113.758 34.4296 115.591 40.5625C115.9 41.5732 116.259 42.8066 116.688 44.1771C118.418 49.8817 120.782 57.6935 121.416 60.9312C121.433 61.034 121.518 61.1025 121.604 61.1025C121.621 61.1025 121.638 61.1025 121.656 61.0854C121.758 61.0683 121.827 60.9655 121.81 60.8456C121.193 57.5907 118.812 49.7789 117.082 44.0572C116.653 42.6867 116.294 41.4533 115.985 40.4426C114.169 34.3611 110.126 24.014 107.779 18.9261C107.882 18.8918 107.985 18.8747 108.071 18.8233C108.773 18.4464 108.687 16.8189 109.647 16.4421C110.623 16.0652 111.445 16.8875 112.542 16.7847C113.176 16.7333 113.741 16.168 114.255 15.654C115.694 20.9132 117.733 29.77 119.12 35.7829C119.377 36.8451 119.583 37.8215 119.788 38.6267C120.765 42.8752 121.81 52.1259 122.375 57.0939C122.563 58.7385 122.701 59.9376 122.769 60.4002C122.786 60.5029 122.872 60.5715 122.975 60.5715H122.992C123.112 60.5543 123.197 60.4344 123.163 60.3316C123.112 59.8862 122.975 58.6871 122.786 57.0425C122.221 52.0745 121.176 42.8066 120.182 38.541C119.994 37.7187 119.771 36.7594 119.514 35.6802C118.109 29.5987 116.037 20.5706 114.598 15.3285C114.855 15.0887 115.112 14.8831 115.368 14.8146C116.191 14.5576 117.613 15.911 118.589 15.6712C119.548 15.4313 120.285 14.0437 121.364 13.821C121.673 13.7525 121.981 13.8381 122.289 14.0095C123.077 21.3586 124.191 49.5562 124.311 59.9719C124.311 60.0918 124.414 60.1775 124.516 60.1775C124.516 60.1775 124.516 60.1775 124.534 60.1775C124.636 60.1775 124.722 60.0918 124.722 59.9719C124.602 49.7104 123.523 22.1638 122.735 14.2664C123.283 14.6604 123.797 15.123 124.259 15.0716C125.099 14.9688 125.87 13.7868 126.418 13.8039C127.566 13.8381 128.559 15.2943 129.741 15.4656C129.776 23.5685 128.696 37.359 128.097 43.5775C127.669 48.0145 126.966 52.5199 126.452 55.8091C126.161 57.6763 125.938 59.1667 125.853 60.0233C125.835 60.1261 125.921 60.2289 126.024 60.246C126.041 60.246 126.041 60.246 126.058 60.246C126.161 60.246 126.247 60.1603 126.247 60.0575C126.332 59.2181 126.572 57.7449 126.863 55.8776C127.36 52.5884 128.063 48.0659 128.508 43.6118C129.108 37.3932 130.187 23.5857 130.153 15.4656C131.078 15.3285 132.191 14.4549 132.876 14.5919C133.63 14.7632 133.767 16.2022 134.983 16.4592C135.669 16.5962 136.217 16.3735 136.782 16.2536C136.063 22.5064 133.544 35.1491 132.397 39.98C132.105 41.1963 131.763 42.7039 131.369 44.3484C130.05 50.0873 128.388 57.2309 127.412 60.2802C127.377 60.383 127.446 60.5029 127.549 60.5372C127.583 60.5543 127.6 60.5543 127.617 60.5543C127.703 60.5543 127.788 60.5029 127.806 60.4002C128.782 57.3337 130.444 50.1901 131.78 44.4341C132.157 42.7895 132.499 41.282 132.791 40.0657C133.956 35.2005 136.508 22.4208 137.193 16.168C137.502 16.1508 137.827 16.168 138.17 16.3393C138.924 16.699 139.9 18.5149 140.431 18.7205C141.236 19.0117 142.196 18.8747 142.881 18.8575C137.981 35.8515 131.129 55.7748 128.953 60.9484C128.919 61.0511 128.97 61.1711 129.073 61.2224C129.09 61.2396 129.125 61.2396 129.142 61.2396C129.227 61.2396 129.296 61.1882 129.33 61.1025C131.523 55.9118 138.393 35.9029 143.309 18.8575C143.429 18.8575 143.549 18.8747 143.617 18.9089C144.508 19.3201 144.902 20.8447 145.947 21.5642C146.307 21.8041 146.924 21.8726 147.575 21.924C145.056 29.77 135.823 52.2458 130.341 61.6679C130.29 61.7706 130.324 61.8906 130.427 61.9591C130.461 61.9762 130.495 61.9762 130.529 61.9762C130.598 61.9762 130.666 61.9419 130.701 61.8734C136.217 52.4171 145.502 29.77 148.003 21.9411C148.654 21.9925 149.305 22.0439 149.699 22.2837C150.23 22.6092 150.624 24.151 151.515 24.9562C148.585 31.8428 144.131 41.0764 140.894 46.8838C136.936 53.9589 131.54 62.6957 131.489 62.7814C131.437 62.8841 131.454 63.0041 131.557 63.0726C131.592 63.0897 131.626 63.1069 131.66 63.1069C131.729 63.1069 131.797 63.0555 131.831 63.0041C131.9 62.9184 137.296 54.1645 141.253 47.0894C144.474 41.2991 148.911 32.0998 151.84 25.2131C152.92 25.8641 154.616 25.4701 155.386 26.1725C155.575 26.3438 155.695 26.5322 155.78 26.7549C151.823 34.5666 138.53 56.1003 132.397 64.0491C132.328 64.1347 132.328 64.2718 132.431 64.3403C132.465 64.3745 132.517 64.3745 132.551 64.3745C132.619 64.3745 132.671 64.3574 132.722 64.306C138.769 56.4772 151.755 35.4574 155.969 27.3031C156.089 27.8513 156.174 28.3995 156.603 28.7421C156.997 29.0505 157.682 29.2389 158.316 29.4273C155.712 34.618 148.86 45.6332 145.365 50.3614C141.921 55.0039 137.005 60.7942 134.367 63.8949C133.887 64.4602 133.476 64.9399 133.168 65.3168C133.099 65.4024 133.099 65.5395 133.185 65.608C133.236 65.6422 133.27 65.6594 133.322 65.6594C133.373 65.6594 133.442 65.6251 133.476 65.5908C133.784 65.214 134.195 64.7343 134.675 64.169C137.33 61.0511 142.247 55.2609 145.69 50.6012C149.288 45.736 156.123 34.7722 158.727 29.5473C159.19 29.7014 159.584 29.8556 159.721 30.0783C160.097 30.6094 160.235 31.7058 159.601 33.179C158.162 36.5367 147.438 52.5028 143.412 56.8198C139.403 61.1368 132.054 69.6852 130.29 72.3062C129.159 73.985 121.536 73.7966 120.559 72.1691C119.291 69.9935 112.422 60.5543 107.625 53.3422C101.972 44.8624 94.3316 34.7893 93.0982 32.6308C91.9675 30.6436 91.0253 29.8214 91.6934 28.5023Z" fill="#F8D97F"/>
<path d="M124.519 60.1778C124.416 60.1778 124.313 60.0921 124.313 59.9722C124.194 49.5566 123.08 21.359 122.292 14.0098C122.446 14.0783 122.583 14.1639 122.737 14.2667C123.525 22.1812 124.605 49.7107 124.725 59.9722C124.725 60.0921 124.639 60.1778 124.519 60.1778Z" fill="#EDC766"/>
<path d="M129.141 61.2406C129.124 61.2406 129.09 61.2406 129.073 61.2235C128.97 61.1721 128.919 61.0522 128.953 60.9494C131.129 55.7758 137.981 35.8525 142.88 18.8586C143.052 18.8414 143.189 18.8414 143.309 18.8586C138.392 35.9039 131.523 55.9129 129.33 61.1036C129.296 61.1892 129.227 61.2406 129.141 61.2406Z" fill="#EDC766"/>
<path d="M128.512 43.612C128.067 48.0661 127.364 52.5887 126.867 55.8778C126.576 57.7451 126.336 59.2184 126.251 60.0578C126.251 60.1606 126.165 60.2462 126.062 60.2462C126.045 60.2462 126.045 60.2462 126.028 60.2462C125.925 60.2291 125.84 60.1263 125.857 60.0235C125.942 59.167 126.165 57.6937 126.456 55.8093C126.97 52.5201 127.673 48.0147 128.101 43.5778C128.7 37.3592 129.78 23.5688 129.745 15.4658C129.78 15.4658 129.797 15.4658 129.831 15.483C129.934 15.483 130.054 15.483 130.157 15.4658C130.191 23.5859 129.112 37.3935 128.512 43.612Z" fill="#EDC766"/>
<path d="M111.841 49.6257C114.702 54.4053 117.957 59.8015 119.19 62.5596C119.242 62.6624 119.19 62.7995 119.088 62.8337C119.053 62.8509 119.036 62.8509 119.002 62.8509C118.916 62.8509 118.848 62.8166 118.814 62.7309C117.597 60.0071 114.342 54.6109 111.481 49.8484C110.282 47.827 109.152 45.9426 108.329 44.5207C106.137 40.7176 99.13 29.6853 95.6182 24.7516C95.7038 24.6659 95.7895 24.5974 95.8923 24.546C95.9094 24.5288 95.9437 24.5288 95.9608 24.5117C99.4898 29.4797 106.496 40.4949 108.689 44.3151C109.494 45.7199 110.642 47.6214 111.841 49.6257Z" fill="#EDC766"/>
<path d="M117.082 44.0564C118.812 49.7782 121.193 57.5899 121.81 60.8448C121.827 60.9647 121.759 61.0675 121.656 61.1018C121.639 61.1018 121.622 61.1018 121.605 61.1018C121.519 61.1018 121.433 61.0332 121.416 60.9305C120.782 57.6927 118.418 49.881 116.688 44.1764C116.26 42.8059 115.9 41.5725 115.592 40.5617C113.759 34.4288 109.681 23.9618 107.352 18.9596C107.506 18.9596 107.643 18.9424 107.78 18.9253C110.127 24.0132 114.17 34.3603 115.986 40.4418C116.294 41.4525 116.654 42.686 117.082 44.0564Z" fill="#EDC766"/>
<path d="M120.186 38.5406C121.18 42.8062 122.225 52.0741 122.79 57.0421C122.978 58.6866 123.116 59.8858 123.167 60.3312C123.201 60.434 123.116 60.5539 122.996 60.5711H122.978C122.876 60.5711 122.79 60.5025 122.773 60.3826C122.704 59.9372 122.567 58.738 122.379 57.0935C121.814 52.1255 120.769 42.8747 119.792 38.6263C119.587 37.8211 119.364 36.8446 119.124 35.7825C117.736 29.7695 115.698 20.9128 114.259 15.6536C114.379 15.5337 114.481 15.4309 114.601 15.3281C116.04 20.5702 118.113 29.5982 119.518 35.6797C119.775 36.759 119.998 37.7183 120.186 38.5406Z" fill="#EDC766"/>
<path d="M111.671 41.4026C114.377 46.7646 119.242 57.6942 120.476 61.5315C120.51 61.6343 120.459 61.7542 120.339 61.7885C120.322 61.8056 120.305 61.8056 120.287 61.8056C120.185 61.8056 120.116 61.7542 120.082 61.6686C118.848 57.8484 114.018 46.9359 111.294 41.5911C110.643 40.3234 109.838 38.6617 108.878 36.743C106.463 31.8264 103.328 25.4879 101.221 21.8733C101.375 21.8562 101.546 21.8733 101.718 21.8904C103.825 25.5736 106.874 31.7579 109.255 36.5546C110.197 38.4732 111.02 40.1349 111.671 41.4026Z" fill="#EDC766"/>
<path d="M131.783 44.4336C130.446 50.1896 128.785 57.3332 127.808 60.4168C127.791 60.5025 127.705 60.5539 127.62 60.5539C127.603 60.5539 127.585 60.5539 127.551 60.5367C127.448 60.5025 127.38 60.3997 127.414 60.2798C128.391 57.2304 130.052 50.0868 131.371 44.3479C131.765 42.7034 132.108 41.1958 132.399 39.9795C133.547 35.1486 136.065 22.5059 136.785 16.2531C136.922 16.2189 137.059 16.1846 137.196 16.1675C136.494 22.4374 133.958 35.2 132.793 40.0652C132.502 41.2815 132.159 42.789 131.783 44.4336Z" fill="#EDC766"/>
<path d="M134.676 64.1689C134.196 64.7342 133.785 65.2139 133.477 65.5907C133.443 65.625 133.374 65.6593 133.323 65.6593C133.271 65.6593 133.237 65.6421 133.186 65.6079C133.1 65.5394 133.1 65.4023 133.169 65.3166C133.477 64.9398 133.888 64.4601 134.368 63.8948C137.006 60.7941 141.923 55.0038 145.366 50.3613C148.861 45.6331 155.713 34.6179 158.317 29.4272C158.454 29.4615 158.591 29.5129 158.728 29.5472C156.124 34.7721 149.289 45.7359 145.691 50.6011C142.248 55.2608 137.331 61.051 134.676 64.1689Z" fill="#EDC766"/>
<path d="M131.832 63.004C131.797 63.0554 131.729 63.1068 131.66 63.1068C131.626 63.1068 131.592 63.0896 131.558 63.0725C131.455 63.004 131.438 62.8841 131.489 62.7813C131.54 62.6956 136.937 53.9588 140.894 46.8837C144.132 41.0934 148.586 31.8427 151.515 24.9561C151.584 25.0246 151.669 25.0931 151.755 25.1445C151.772 25.1788 151.806 25.1959 151.841 25.213C148.911 32.0997 144.474 41.299 141.254 47.0893C137.296 54.1644 131.9 62.9183 131.832 63.004Z" fill="#EDC766"/>
<path d="M132.553 64.3917C132.502 64.3917 132.468 64.3745 132.434 64.3403C132.331 64.2717 132.331 64.1347 132.399 64.049C138.532 56.1003 151.826 34.5666 155.783 26.7549C155.869 26.9262 155.92 27.1146 155.972 27.3031C151.757 35.4574 138.772 56.4771 132.725 64.306C132.673 64.3574 132.622 64.3917 132.553 64.3917Z" fill="#EDC766"/>
<path d="M130.529 61.9761C130.495 61.9761 130.444 61.9761 130.427 61.9589C130.324 61.8904 130.29 61.7705 130.341 61.6677C135.823 52.2457 145.057 29.7698 147.575 21.9238C147.729 21.9238 147.866 21.941 148.003 21.941C145.502 29.7698 136.217 52.417 130.701 61.8904C130.666 61.9418 130.598 61.9761 130.529 61.9761Z" fill="#EDC766"/>
<path d="M105.176 45.0338C108.072 49.1966 116.157 60.9999 118.042 64.1863C118.11 64.289 118.076 64.409 117.973 64.4775C117.939 64.4946 117.905 64.4946 117.871 64.4946C117.802 64.4946 117.733 64.4604 117.699 64.3918C115.815 61.2226 107.729 49.4365 104.834 45.2737C104.217 44.4 103.463 43.3036 102.624 42.0702C99.3177 37.3077 94.5039 30.3697 92.4824 27.8001C92.6195 27.7487 92.7736 27.7315 92.9278 27.6973C95.0349 30.4211 99.7288 37.1707 102.949 41.8303C103.806 43.0638 104.56 44.1601 105.176 45.0338Z" fill="#EDC766"/>
<path d="M125.527 252.097C119.976 252.028 118.486 214.22 118.589 177.611C118.657 144.394 120.216 118.561 120.216 118.561L131.968 118.458C131.968 118.458 133.938 147.358 134.007 181.346C134.058 215.317 132.311 252.165 125.527 252.097Z" fill="#9E6250"/>
<path d="M128.782 180.453C128.474 200.137 127.977 218.004 129.502 218.073C131.044 218.141 132.551 197.361 132.089 178.278C131.626 159.194 131.061 144.324 130.307 147.253C129.588 150.063 129.022 164.933 128.782 180.453Z" fill="#B2726A"/>
<path d="M119.824 110.44C119.601 97.0948 119.704 72.9744 120.783 68.4518C121.828 64.152 123.267 62.8157 125.477 62.9185C127.567 63.0042 129.314 64.7173 130.12 68.4861C131.148 73.3856 132.09 97.2319 132.21 110.474C128.664 111.485 123.781 111.879 119.824 110.44Z" fill="#919395"/>
<path d="M119.945 115.528C119.911 114.62 119.877 113.575 119.859 112.41C121.71 112.975 123.714 113.215 125.684 113.215C127.997 113.215 130.275 112.889 132.228 112.375C132.228 113.489 132.228 114.5 132.211 115.373C128.733 116.401 123.919 116.847 119.945 115.528Z" fill="#919395"/>
<path d="M125.479 118.183C127.861 118.183 130.19 117.841 132.178 117.31C132.126 118.509 132.058 119.245 131.972 119.365C131.355 120.102 128.614 121.198 126.079 121.096C123.698 120.993 120.803 120.273 120.186 119.348C120.135 119.263 120.066 118.594 120.015 117.481C121.779 117.978 123.646 118.183 125.479 118.183Z" fill="#919395"/>
<path d="M120.011 117.481C119.994 116.933 119.96 116.282 119.942 115.528C123.917 116.847 128.731 116.402 132.208 115.374C132.208 116.111 132.191 116.762 132.174 117.31C130.187 117.841 127.857 118.184 125.476 118.184C123.643 118.184 121.775 117.978 120.011 117.481Z" fill="#797B7C"/>
<path d="M119.858 112.41C119.841 111.793 119.824 111.125 119.824 110.44C123.781 111.879 128.647 111.485 132.21 110.474C132.21 111.142 132.227 111.776 132.227 112.376C130.274 112.89 127.996 113.215 125.683 113.215C123.713 113.215 121.709 112.975 119.858 112.41Z" fill="#797B7C"/>
<path d="M125.189 76.846C123.527 76.7775 120.255 72.9402 120.341 72.1693C120.409 71.3984 122.876 70.1307 125.463 70.2506C128.032 70.3534 130.071 71.4669 130.294 72.3063C130.499 73.1457 127.022 76.9317 125.189 76.846Z" fill="#797B7C"/>
<path d="M129.211 93.5989C129.211 101.274 128.92 108.623 128.474 107.852C128.029 107.081 127.258 97.3506 127.207 92.5539C127.155 87.7744 127.481 78.7635 127.96 79.1232C128.457 79.4659 129.211 88.2198 129.211 93.5989Z" fill="#B1B0AF"/>
<path d="M111.994 270.203C107.712 270.802 91.1632 207.401 84.7219 178.912C78.2807 150.44 69.167 107.424 69.167 107.424L75.5397 106.259C75.5397 106.259 86.6577 141.463 94.932 176.548C103.206 211.649 116.277 269.62 111.994 270.203Z" fill="#9E6250"/>
<path d="M50.8554 15.055C50.3928 16.4426 51.198 26.6698 52.3629 34.2417C53.5449 41.8136 56.4572 50.4305 59.3181 59.1673L63.1554 58.4478C63.1554 58.4478 61.0654 40.1005 58.7014 34.019C56.3373 27.9375 51.8147 12.1427 50.8554 15.055Z" fill="#67413F"/>
<path d="M64.0643 83.544C66.6339 96.5464 69.3235 108.247 69.3235 108.247C70.6597 108.846 74.754 108.093 75.799 107.048C75.799 107.048 72.5612 94.0281 69.8888 84.0065C67.2335 73.9677 63.1221 56.8539 62.985 57.0252C62.3512 57.7618 60.0385 58.4128 58.8564 57.779C58.8564 57.779 62.591 76.0406 64.0643 83.544Z" fill="#9E9C9A"/>
<path d="M72.7647 102.062C72.4735 102.696 68.6361 88.3918 67.0772 81.7278C65.5183 75.081 62.8458 63.2778 63.4283 63.3805C63.9936 63.4833 67.317 76.2802 68.6704 81.7964C70.0237 87.2954 73.1758 101.223 72.7647 102.062Z" fill="#B3B2B2"/>
<path d="M85.2545 146.842C85.4258 145.695 93.1176 175.314 96.0299 188.317C98.9593 201.319 103.739 223.007 103.122 222.716C102.505 222.424 96.4068 196.899 93.9228 186.141C91.4559 175.383 84.9976 148.401 85.2545 146.842Z" fill="#AB6D5F"/>
<mask id="mask13_287_104851" style="mask-type:luminance" maskUnits="userSpaceOnUse" x="58" y="178" width="126" height="144">
<path d="M58.3438 178.055H183.897V321.784H58.3438V178.055Z" fill="white"/>
</mask>
<g mask="url(#mask13_287_104851)">
<path d="M62.54 178.586C61.8205 179.545 61.4607 180.521 61.4607 181.515C61.4607 190.063 88.3221 197.001 121.436 197.001C154.568 197.001 181.429 190.063 181.429 181.515C181.429 180.367 180.932 179.237 179.99 178.14C183.776 181.481 186.054 208.068 180.847 242.364C175.639 276.643 158.165 312.036 153.42 314.948C138.447 324.148 101.393 323.993 90.0352 314.948C83.9708 310.117 71.1226 290.468 63.071 244.266C55.0366 198.063 59.2166 182.389 62.54 178.586Z" fill="#6CA288"/>
</g>
<path d="M170.428 244.267C165.854 274.229 150.573 293.793 148.209 292.851C145.845 291.891 153.879 265.218 154.821 244.267C155.781 223.316 152.937 209.012 154.359 206.168C155.781 203.307 166.659 200.292 170.428 202.279C174.214 204.249 174.214 219.496 170.428 244.267Z" fill="#7BB295"/>
</svg>
