<svg width="143" height="102" viewBox="0 0 143 102" fill="none" xmlns="http://www.w3.org/2000/svg">
<path d="M78.6357 60.3125C76.8389 60.4479 75.0212 60.5156 73.1878 60.5156C72.7451 60.5156 72.3024 60.5104 71.8545 60.5104C74.1462 60.4896 76.4066 60.4271 78.6357 60.3125Z" fill="#606060"/>
<path d="M45.8805 44.7761L44.4118 58.4167C35.3493 56.8907 27.2295 54.5938 20.5107 51.7136C20.9795 51.5157 21.4482 51.3178 21.9326 51.1199C22.1462 51.0365 22.3597 50.9532 22.5732 50.8647C24.5472 50.0886 26.6201 49.3595 28.7972 48.6824C29.1618 48.5678 29.5316 48.4532 29.9066 48.3438C30.2295 48.2449 30.5576 48.1511 30.8857 48.0574C31.3597 47.9167 31.8441 47.7813 32.3285 47.6511C32.8232 47.5157 33.3232 47.3803 33.8337 47.2501C34.3389 47.1199 34.8493 46.9949 35.3597 46.8699C35.6201 46.8074 35.8753 46.7449 36.1357 46.6824C36.6514 46.5574 37.1722 46.4376 37.6982 46.323C38.2295 46.2032 38.7607 46.0886 39.3024 45.9792C39.8337 45.8647 40.3649 45.7605 40.9014 45.6563C41.7191 45.4897 42.5368 45.3386 43.3701 45.1928C43.6253 45.1459 43.8805 45.1042 44.141 45.0574C44.4378 45.0105 44.7347 44.9584 45.0368 44.9115C45.318 44.8699 45.5941 44.823 45.8805 44.7761Z" fill="#E8D3B5"/>
<path d="M120.328 51.7136C114.104 54.3803 106.672 56.5522 98.4063 58.0678L96.8594 45.0886C97.2604 45.1563 97.6615 45.2292 98.0573 45.3022C98.3073 45.3438 98.5521 45.3855 98.7969 45.4324C99.1094 45.4897 99.4167 45.5522 99.724 45.6147C100.099 45.6824 100.474 45.7553 100.844 45.8334C100.969 45.8595 101.094 45.8855 101.219 45.9115C101.474 45.9636 101.734 46.0157 101.995 46.073C102.245 46.1251 102.5 46.1824 102.75 46.2345C103.901 46.4897 105.026 46.7553 106.135 47.0313C106.505 47.1251 106.875 47.2188 107.24 47.3126C107.656 47.422 108.073 47.5313 108.484 47.6459C108.75 47.7136 109.01 47.7917 109.276 47.8647C109.542 47.9376 109.813 48.0157 110.078 48.0938C110.391 48.1824 110.698 48.2709 111.01 48.3647C111.292 48.448 111.573 48.5365 111.849 48.6251C112.052 48.6876 112.26 48.7501 112.464 48.8126C113.177 49.0365 113.875 49.2709 114.568 49.5053C116.589 50.198 118.51 50.9324 120.328 51.7136Z" fill="#E8D3B5"/>
<mask id="mask0_283_107524" style="mask-type:luminance" maskUnits="userSpaceOnUse" x="0" y="0" width="142" height="53">
<path d="M0 0.786621H141.036V52.7866H0V0.786621Z" fill="white"/>
</mask>
<g mask="url(#mask0_283_107524)">
<path d="M70.4219 1.92725C31.8385 1.92725 0.5625 15.0418 0.5625 31.2189C0.5625 31.896 0.614584 32.5679 0.723958 33.2345C0.875 34.1772 1.13021 35.0939 1.47917 35.9793L1.48438 35.995C2.44271 38.4429 4.125 40.7918 6.4375 42.995C9.85417 46.2554 14.6458 49.2033 20.5052 51.7137H20.5104C20.9792 51.5158 21.4479 51.3179 21.9323 51.12C22.1458 51.0366 22.3594 50.9533 22.5781 50.8647C24.5469 50.0887 26.6198 49.3595 28.7969 48.6772C29.1615 48.5679 29.5313 48.4533 29.9063 48.3439C30.2292 48.245 30.5573 48.1512 30.8854 48.0575C31.3594 47.9168 31.8385 47.7814 32.3281 47.6512C32.8229 47.5158 33.3229 47.3804 33.8333 47.2554C34.3385 47.12 34.849 46.995 35.3594 46.87C35.6198 46.8075 35.875 46.745 36.1354 46.6825C36.651 46.5575 37.1719 46.4377 37.6979 46.3231C38.2292 46.2085 38.7604 46.0887 39.2969 45.9793C39.8333 45.8647 40.3646 45.7606 40.901 45.6512C41.7188 45.495 42.5365 45.3439 43.3698 45.1929C43.625 45.146 43.8802 45.1043 44.1406 45.0627C44.4375 45.0106 44.7344 44.9637 45.0365 44.9116C45.3177 44.87 45.599 44.8231 45.8802 44.7762L46.7604 36.5627L47.1146 33.2814C47.0313 33.1408 46.9583 33.0002 46.8958 32.8543C46.5938 32.2189 46.4427 31.5522 46.4375 30.8439C46.4375 25.0887 57.349 20.422 70.8021 20.422C84.2552 20.422 95.1615 25.0887 95.1615 30.8439L96.8594 45.0887C97.2604 45.1564 97.6615 45.2293 98.0625 45.3022C98.3073 45.3439 98.5521 45.3856 98.7969 45.4325C99.1094 45.4897 99.4167 45.5522 99.724 45.6095C100.104 45.6825 100.474 45.7554 100.844 45.8335C100.969 45.8595 101.094 45.8856 101.219 45.9116C101.479 45.9637 101.734 46.0158 101.995 46.0731C102.245 46.1252 102.5 46.1825 102.75 46.2345C103.901 46.4897 105.026 46.7554 106.135 47.0314C106.505 47.1252 106.875 47.2189 107.24 47.3127C107.661 47.422 108.073 47.5314 108.484 47.646C108.75 47.7137 109.016 47.7918 109.276 47.8647C109.547 47.9377 109.813 48.0158 110.078 48.0939C110.391 48.1825 110.703 48.271 111.01 48.3647C111.292 48.4481 111.573 48.5366 111.849 48.6252C112.052 48.6877 112.26 48.7502 112.464 48.8127C113.177 49.0366 113.875 49.271 114.568 49.5054C116.589 50.1981 118.51 50.9377 120.328 51.7137H120.333C125.87 49.3439 130.443 46.5835 133.818 43.5418C134.094 43.2866 134.365 43.0366 134.625 42.7814C137.667 39.8179 139.573 36.6043 140.115 33.2345C140.224 32.5679 140.281 31.896 140.281 31.2189C140.281 15.0418 109 1.92725 70.4219 1.92725Z" fill="#D39423"/>
</g>
<mask id="mask1_283_107524" style="mask-type:luminance" maskUnits="userSpaceOnUse" x="0" y="4" width="142" height="49">
<path d="M0 4.78662H141.036V52.7866H0V4.78662Z" fill="white"/>
</mask>
<g mask="url(#mask1_283_107524)">
<path d="M70.422 5.95312C33.4533 5.95312 3.18766 17.9948 0.724121 33.2344C0.875162 34.1771 1.13037 35.0938 1.47933 35.9792L1.48454 35.9948C2.44287 38.4427 4.12516 40.7917 6.43766 42.9948C9.85433 46.2552 14.646 49.2031 20.5054 51.7135H20.5106C20.9793 51.5156 21.4481 51.3177 21.9325 51.1198C22.146 51.0365 22.3595 50.9531 22.5783 50.8646C24.547 50.0885 26.62 49.3594 28.797 48.6771C29.1616 48.5677 29.5314 48.4531 29.9064 48.3438C30.2293 48.2448 30.5575 48.151 30.8856 48.0573C31.3595 47.9167 31.8387 47.7813 32.3283 47.651C32.8231 47.5156 33.3231 47.3802 33.8335 47.2552C34.3387 47.1198 34.8491 46.9948 35.3595 46.8698C35.62 46.8073 35.8752 46.7448 36.1356 46.6823C36.6512 46.5573 37.172 46.4375 37.6981 46.3229C38.2293 46.2083 38.7606 46.0885 39.297 45.9792C39.8335 45.8646 40.3647 45.7604 40.9012 45.651C41.7189 45.4948 42.5366 45.3438 43.37 45.1979C43.6252 45.1458 43.8804 45.1042 44.1408 45.0625C44.4377 45.0104 44.7345 44.9635 45.0366 44.9115C45.3179 44.8698 45.5991 44.8229 45.8804 44.776L46.7606 36.5625C46.547 36.0208 46.4429 35.4583 46.4377 34.8698C46.4429 34.1667 46.5939 33.4948 46.896 32.8542C46.5939 32.2188 46.4429 31.5521 46.4377 30.849C46.4377 25.0885 57.3491 20.4219 70.8022 20.4219C84.2554 20.4219 95.1616 25.0885 95.1616 30.849L96.8595 45.0885C97.2606 45.1563 97.6616 45.2292 98.0627 45.3021C98.3075 45.3438 98.5523 45.3854 98.797 45.4323C99.1095 45.4896 99.4168 45.5521 99.7241 45.6094C100.104 45.6823 100.474 45.7552 100.844 45.8333C100.969 45.8594 101.094 45.8854 101.219 45.9115C101.479 45.9635 101.735 46.0156 101.995 46.0729C102.245 46.125 102.5 46.1823 102.75 46.2344C103.901 46.4896 105.026 46.7552 106.136 47.0313C106.505 47.125 106.875 47.2188 107.24 47.3125C107.662 47.4219 108.073 47.5313 108.485 47.6458C108.75 47.7135 109.016 47.7917 109.276 47.8646C109.547 47.9375 109.813 48.0156 110.078 48.0938C110.391 48.1823 110.703 48.2708 111.011 48.3646C111.292 48.4479 111.573 48.5365 111.849 48.625C112.052 48.6875 112.261 48.75 112.464 48.8125C113.177 49.0365 113.875 49.2708 114.568 49.5052C116.589 50.1979 118.511 50.9375 120.328 51.7135H120.333C125.87 49.349 130.443 46.5833 133.818 43.5417C134.094 43.2865 134.365 43.0365 134.625 42.7813C137.667 39.8177 139.573 36.6042 140.115 33.2344C137.651 17.9948 107.386 5.95312 70.422 5.95312Z" fill="#F1A827"/>
</g>
<mask id="mask2_283_107524" style="mask-type:luminance" maskUnits="userSpaceOnUse" x="39" y="98" width="31" height="4">
<path d="M39.7031 98.1199H69.0365V101.938H39.7031V98.1199Z" fill="white"/>
</mask>
<g mask="url(#mask2_283_107524)">
<path d="M68.6877 101.495C68.1252 101.5 67.5575 101.505 66.9845 101.505C56.0262 101.505 47.5575 100.422 41.021 98.7866C49.4637 100.438 58.8179 101.391 68.6877 101.495Z" fill="#606060"/>
</g>
<path d="M95.1615 30.8438C95.1615 36.6042 84.2552 41.2708 70.8021 41.2708C59.3073 41.2708 49.6771 37.8646 47.1146 33.2813C46.6719 32.5313 46.4479 31.7188 46.4375 30.8438C46.4375 25.0885 57.349 20.4219 70.8021 20.4219C84.2552 20.4219 95.1615 25.0885 95.1615 30.8438Z" fill="white"/>
<path d="M98.4069 58.0677C91.8704 59.25 85.2819 60 78.6465 60.3125H78.6361C76.4069 60.4271 74.1517 60.4896 71.8548 60.5104H71.735C71.2975 60.5104 70.86 60.5156 70.4225 60.5156C61.2298 60.5156 52.4538 59.7708 44.4121 58.4167L45.8809 44.776L47.1152 33.2813C49.6777 37.8646 59.3079 41.2708 70.8027 41.2708C84.2559 41.2708 95.1621 36.6042 95.1621 30.8438L96.86 45.0885L98.4069 58.0677Z" fill="#F6E3C2"/>
<mask id="mask3_283_107524" style="mask-type:luminance" maskUnits="userSpaceOnUse" x="6" y="42" width="130" height="60">
<path d="M6.37012 42.1199H135.703V101.938H6.37012V42.1199Z" fill="white"/>
</mask>
<g mask="url(#mask3_283_107524)">
<path d="M134.625 42.7812L132.995 49.8281L131.162 57.7292L125.834 80.7083C125.834 80.7083 112.568 100.984 68.688 101.495C58.8182 101.391 49.464 100.438 41.0213 98.7917C41.0161 98.7917 41.0161 98.7865 41.0109 98.7865C20.5526 93.6719 18.9432 83.1094 18.9432 83.1094L10.7869 56.9427L8.81299 50.6094L6.43799 42.9948C9.85466 46.2552 14.6463 49.2031 20.5057 51.7135H20.5109C27.2297 54.5938 35.3494 56.8906 44.4119 58.4167C52.4536 59.7708 61.2297 60.5156 70.4224 60.5156C70.8599 60.5156 71.2974 60.5156 71.7349 60.5104H71.8547C72.3026 60.5104 72.7453 60.5156 73.1932 60.5156C75.0213 60.5156 76.839 60.4479 78.6359 60.3125H78.6515C85.2817 60 91.8703 59.25 98.4067 58.0677C106.672 56.5521 114.105 54.3802 120.329 51.7135H120.334C125.87 49.3438 130.443 46.5833 133.818 43.5417C134.094 43.2865 134.365 43.0365 134.625 42.7812Z" fill="#B83542"/>
</g>
<mask id="mask4_283_107524" style="mask-type:luminance" maskUnits="userSpaceOnUse" x="7" y="48" width="127" height="54">
<path d="M7.70312 48.7866H133.036V101.938H7.70312V48.7866Z" fill="white"/>
</mask>
<g mask="url(#mask4_283_107524)">
<path d="M132.995 49.8281L131.161 57.7292L125.833 80.7083C125.833 80.7083 112.568 100.984 68.6875 101.495C58.8177 101.391 49.4635 100.438 41.0208 98.7917C41.0156 98.7917 41.0156 98.7865 41.0104 98.7865C20.5521 93.6719 18.9427 83.1094 18.9427 83.1094L10.7865 56.9427L8.8125 50.6094C11.9479 53.0625 15.8958 55.3073 20.5052 57.2813H20.5104C27.2292 60.1615 35.349 62.4583 44.4115 63.9844C52.4531 65.3385 61.2292 66.0833 70.4219 66.0833C70.8594 66.0833 71.2969 66.0833 71.7344 66.0781H71.8542C72.3021 66.0833 72.7448 66.0833 73.1927 66.0833C75.0208 66.0833 76.8385 66.0156 78.6354 65.8802H78.651C85.2813 65.5677 91.8698 64.8177 98.4063 63.6354C106.672 62.1198 114.104 59.9479 120.328 57.2813H120.333C125.427 55.1042 129.714 52.5885 132.995 49.8281Z" fill="#E84357"/>
</g>
<path d="M78.6357 60.3125C76.8389 60.4479 75.0212 60.5156 73.1878 60.5156C72.7451 60.5156 72.3024 60.5104 71.8545 60.5104C74.1462 60.4896 76.4066 60.4271 78.6357 60.3125Z" fill="#606060"/>
<path d="M73.8854 60.9533C73.4583 60.9533 73.0313 60.9481 72.6042 60.9481H72.5469C72.2188 60.9481 71.9375 60.8283 71.7083 60.5992C71.474 60.37 71.3594 60.0888 71.3594 59.7658C71.3594 59.4377 71.474 59.1565 71.7083 58.9273C71.9375 58.6929 72.2188 58.5783 72.5417 58.5783C74.7865 58.5627 77.0521 58.495 79.276 58.3856C79.599 58.37 79.8802 58.469 80.125 58.6825C80.3698 58.9013 80.5 59.1721 80.5208 59.495C80.5417 59.8179 80.4427 60.1044 80.2292 60.3492C80.0156 60.5888 79.7448 60.7242 79.4219 60.745C77.5781 60.8804 75.7135 60.9533 73.8854 60.9533Z" fill="#231F20"/>
<path d="M45.11 58.849C45.0423 58.849 44.9798 58.8438 44.9121 58.8334C35.7923 57.3022 27.6621 55.0209 20.7402 52.0574C20.2611 51.849 20.0215 51.4897 20.0215 50.9688C20.0215 50.448 20.2611 50.0886 20.7402 49.8803C21.2715 49.6563 21.7454 49.4584 22.1882 49.2761C22.4017 49.1876 22.6204 49.1043 22.8444 49.0157C24.8184 48.2397 26.9434 47.4949 29.1413 46.8022C29.5111 46.6876 29.8861 46.573 30.2611 46.4636C30.584 46.3647 30.9225 46.2657 31.2611 46.172C31.735 46.0313 32.2246 45.8959 32.7142 45.7605C33.1934 45.6355 33.7038 45.4949 34.2402 45.3595C34.735 45.2292 35.2507 45.1043 35.7767 44.974C35.9069 44.9428 36.0423 44.9115 36.1725 44.8803C36.2975 44.849 36.4277 44.8178 36.5527 44.7865C37.0579 44.6668 37.5736 44.547 38.1413 44.422C38.6725 44.3022 39.2142 44.1824 39.7559 44.073C40.2975 43.9584 40.8392 43.849 41.3757 43.7449C42.1934 43.5834 43.0267 43.4272 43.8548 43.2865C44.1204 43.2345 44.3809 43.1876 44.6465 43.1459C44.7871 43.1251 44.9225 43.099 45.0632 43.0782C45.2246 43.0522 45.3861 43.0261 45.5475 43.0001L46.3913 42.8647C46.5736 42.8334 46.7507 42.849 46.9277 42.9011C47.1048 42.9584 47.2611 43.047 47.3913 43.172C47.5267 43.3022 47.6257 43.4532 47.6882 43.6251C47.7507 43.797 47.7767 43.974 47.7559 44.1563L46.2871 57.797C46.2559 58.099 46.1257 58.349 45.9017 58.5522C45.6777 58.7501 45.4121 58.8543 45.11 58.8543V58.849ZM24.3496 50.9688C30.1673 53.2084 36.7819 54.9949 44.0684 56.2865L45.2298 45.448L45.0267 45.4793C44.7767 45.5209 44.5319 45.5626 44.2819 45.6095L44.2663 45.6147C43.459 45.7553 42.6361 45.9063 41.834 46.0678C41.3027 46.172 40.7715 46.2761 40.2402 46.3907C39.709 46.5001 39.1725 46.6147 38.6569 46.7293C38.0996 46.8543 37.5944 46.9688 37.1048 47.0886C36.9798 47.1147 36.8496 47.1459 36.7194 47.1772C36.5944 47.2084 36.4642 47.2397 36.3392 47.2709C35.8236 47.3959 35.3236 47.5209 34.8288 47.6511C34.3079 47.7813 33.8027 47.9168 33.3392 48.047C32.86 48.1772 32.3809 48.3074 31.9173 48.4428C31.5788 48.5418 31.2559 48.6355 30.9486 48.7293C30.5736 48.8386 30.209 48.948 29.8444 49.0626C27.9382 49.6563 26.0944 50.297 24.3496 50.9688Z" fill="#231F20"/>
<path d="M99.1048 58.5052C98.8027 58.5052 98.5423 58.4062 98.3184 58.2031C98.0892 58.0052 97.9642 57.7552 97.9277 57.4583L96.3809 44.4791C96.36 44.2916 96.3809 44.1146 96.4434 43.9375C96.5059 43.7604 96.6048 43.6094 96.7402 43.4791C96.8757 43.3541 97.0319 43.2604 97.209 43.2083C97.3913 43.151 97.5736 43.1406 97.7559 43.1719C98.1621 43.2448 98.5684 43.3125 98.9694 43.3854C99.209 43.4271 99.4642 43.4739 99.7142 43.526C100.027 43.5833 100.339 43.6406 100.652 43.7031C101.006 43.7708 101.386 43.8437 101.771 43.9271C101.839 43.9375 101.902 43.9531 101.964 43.9635C102.021 43.9739 102.079 43.9844 102.136 44C102.146 44 102.152 44 102.157 44L102.245 44.0208C102.475 44.0677 102.709 44.1146 102.938 44.1666C103.131 44.2083 103.329 44.25 103.521 44.2916L103.699 44.3333C104.891 44.5937 106.042 44.8646 107.126 45.1354C107.495 45.2291 107.87 45.3229 108.24 45.4219C108.636 45.5208 109.053 45.6354 109.49 45.7552C109.761 45.8281 110.032 45.901 110.287 45.9739C110.568 46.0521 110.844 46.1302 111.11 46.2083C111.423 46.2969 111.735 46.3906 112.048 46.4844C112.303 46.5625 112.558 46.6406 112.818 46.7187L113.511 46.9323C114.251 47.1666 114.969 47.4062 115.652 47.6354C117.678 48.3333 119.646 49.0885 121.495 49.8802C121.969 50.0833 122.209 50.4479 122.209 50.9687C122.209 51.4896 121.969 51.8489 121.495 52.0521C115.094 54.7916 107.636 56.9583 99.3184 58.4844C99.2454 58.4948 99.1725 58.5052 99.1048 58.5052ZM98.9225 45.7812L100.131 55.9219C106.646 54.6614 112.6 53 117.881 50.9687C116.907 50.5885 115.902 50.2239 114.881 49.875C114.219 49.6458 113.516 49.4166 112.803 49.1927L112.115 48.9791C111.865 48.901 111.62 48.8281 111.37 48.75C111.063 48.6562 110.756 48.5677 110.449 48.4791C110.178 48.401 109.923 48.3281 109.667 48.2604L109.646 48.2552C109.402 48.1823 109.136 48.1094 108.881 48.0416L108.865 48.0364C108.438 47.9166 108.037 47.8125 107.641 47.7083C107.277 47.6146 106.912 47.5208 106.548 47.4323C105.49 47.1614 104.36 46.901 103.193 46.6458L103.016 46.6041C102.829 46.5625 102.641 46.5208 102.454 46.4844L102.438 46.4791C102.209 46.4323 101.985 46.3854 101.761 46.3385L101.683 46.3229C101.62 46.3073 101.558 46.2969 101.49 46.2812C101.433 46.2708 101.376 46.2604 101.318 46.25L101.298 46.2448C100.928 46.1666 100.553 46.0937 100.204 46.026C99.8913 45.9687 99.5892 45.9062 99.2819 45.8489H99.2663C99.1517 45.8281 99.0371 45.8021 98.9225 45.7812Z" fill="#231F20"/>
<mask id="mask5_283_107524" style="mask-type:luminance" maskUnits="userSpaceOnUse" x="0" y="0" width="143" height="53">
<path d="M0 0H142.234V52.7865H0V0Z" fill="white"/>
</mask>
<g mask="url(#mask5_283_107524)">
<path d="M121.031 52.1511C120.864 52.1511 120.708 52.1199 120.557 52.0574C118.771 51.2865 116.859 50.5574 114.88 49.8751C114.208 49.6459 113.51 49.4167 112.802 49.1928L112.724 49.1667C112.547 49.1147 112.37 49.0574 112.193 49.0053L112.083 48.9688C111.844 48.8959 111.604 48.823 111.364 48.7501C111.099 48.672 110.833 48.5938 110.562 48.5157L110.427 48.474C110.177 48.4011 109.922 48.3282 109.667 48.2605L109.625 48.2501C109.38 48.1772 109.13 48.1095 108.88 48.0417L108.864 48.0365C108.417 47.9115 108.015 47.8074 107.64 47.7136C107.276 47.6147 106.911 47.5209 106.542 47.4324C105.5 47.1667 104.401 46.9115 103.193 46.6407L102.911 46.5834C102.76 46.5522 102.604 46.5157 102.453 46.4845L102.432 46.4792C102.182 46.4272 101.932 46.3699 101.677 46.323L101.542 46.2917C101.469 46.2761 101.396 46.2657 101.323 46.2501L101.297 46.2449C100.917 46.1667 100.531 46.0886 100.198 46.0261C99.8905 45.9688 99.5884 45.9063 99.2811 45.849C99.0311 45.8022 98.7967 45.7605 98.5571 45.7188L98.3592 45.6824C98.0259 45.6251 97.6873 45.5626 97.354 45.5053C97.0936 45.4584 96.8748 45.3438 96.6978 45.1511C96.5155 44.9636 96.4113 44.7397 96.38 44.4792L94.6821 30.2397C94.6769 30.1928 94.6769 30.1459 94.6769 30.099C94.6769 27.8542 92.3384 25.5626 88.2603 23.8178C83.8019 21.9115 77.8488 20.8595 71.4998 20.8595C65.1509 20.8595 59.1978 21.9115 54.7394 23.8178C50.6613 25.5626 48.3228 27.8542 48.3228 30.099C48.3228 30.6303 48.4425 31.1355 48.6665 31.6147L48.6717 31.6251C48.7186 31.724 48.7707 31.8334 48.8436 31.9532C48.9634 32.172 49.0155 32.4115 48.9894 32.6615L47.755 44.1563C47.7238 44.422 47.6196 44.6511 47.4373 44.8438C47.2498 45.0365 47.0311 45.1563 46.7655 45.198C46.4842 45.2449 46.203 45.2917 45.9165 45.3334C45.7394 45.3647 45.5571 45.3959 45.38 45.422L45.0311 45.4792C44.7707 45.5209 44.5311 45.5626 44.2863 45.6095L44.2707 45.6147C43.4842 45.7501 42.6821 45.9011 41.828 46.0678C41.2342 46.1824 40.7186 46.2917 40.2394 46.3907C39.7238 46.4949 39.2134 46.6095 38.6509 46.7345C38.1248 46.849 37.604 46.9688 37.104 47.0886C36.9478 47.1251 36.7759 47.1667 36.604 47.2084L36.2238 47.297C35.7655 47.4115 35.2863 47.5313 34.828 47.6511C34.3071 47.7865 33.8019 47.922 33.3332 48.047C32.8696 48.172 32.3905 48.3074 31.9113 48.448C31.5832 48.5365 31.2655 48.6355 30.9425 48.7292C30.5728 48.8386 30.203 48.9532 29.8384 49.0626C27.6873 49.7397 25.6248 50.4636 23.7082 51.2188L23.6717 51.2345C23.4738 51.3126 23.2707 51.3907 23.0728 51.4688C22.5623 51.6772 22.078 51.8803 21.6717 52.0574C21.3592 52.1876 21.0467 52.1876 20.7342 52.0574C14.6665 49.4584 9.81234 46.4428 6.31234 43.1042C3.85921 40.7657 2.104 38.2761 1.09359 35.7188C1.08838 35.698 1.07796 35.6824 1.07275 35.6615C0.692546 34.698 0.416504 33.7032 0.249837 32.6772C0.130045 31.948 0.0727539 31.2136 0.0727539 30.474C0.0727539 22.1407 7.5988 14.3959 21.2603 8.66675C34.5988 3.07821 52.3019 -0.00512695 71.1196 -0.00512695C89.9321 -0.00512695 107.635 3.07821 120.974 8.66675C134.635 14.3959 142.161 22.1407 142.161 30.474C142.161 31.2136 142.099 31.948 141.984 32.6772C141.406 36.2345 139.443 39.672 136.151 42.8803C135.89 43.1355 135.614 43.3907 135.312 43.6667C131.849 46.7917 127.203 49.6147 121.495 52.0574C121.349 52.1199 121.193 52.1511 121.031 52.1511ZM110.286 45.974C110.557 46.047 110.823 46.1251 111.094 46.2032L111.224 46.2449C111.5 46.323 111.776 46.4011 112.052 46.4845C112.297 46.5574 112.536 46.6355 112.781 46.7084L112.896 46.7449C113.073 46.8022 113.25 46.8542 113.422 46.9063L113.51 46.9324C114.239 47.1667 114.958 47.4011 115.651 47.6407C117.51 48.2761 119.318 48.9636 121.026 49.6824C126.276 47.3907 130.547 44.7761 133.719 41.9167C134 41.6615 134.255 41.422 134.495 41.1824C137.417 38.3386 139.151 35.349 139.646 32.297C139.739 31.6928 139.792 31.0834 139.792 30.474C139.792 26.8438 138.062 23.2917 134.651 19.9115C131.239 16.5313 126.333 13.4792 120.057 10.849C107.005 5.37508 89.6248 2.36466 71.1196 2.36466C52.6144 2.36466 35.229 5.37508 22.1769 10.849C15.9009 13.4792 10.9894 16.5313 7.58317 19.9115C4.17171 23.2917 2.44255 26.8438 2.44255 30.474C2.44255 31.0834 2.48942 31.6928 2.58838 32.297C2.729 33.1407 2.95296 33.9636 3.26546 34.7605C3.27067 34.7813 3.28109 34.797 3.2863 34.8178C4.1665 37.0678 5.73421 39.2813 7.95296 41.3907C11.1561 44.4532 15.6144 47.2397 21.2082 49.6824C21.5103 49.5522 21.8436 49.4167 22.1873 49.2761C22.3905 49.1928 22.5988 49.1147 22.8071 49.0313L22.8384 49.0157C24.8071 48.2397 26.9269 47.4949 29.1405 46.8022C29.5155 46.6876 29.8853 46.5782 30.2603 46.4636C30.5884 46.3647 30.9269 46.2657 31.2603 46.172C31.7446 46.0313 32.2342 45.8907 32.7186 45.7605C33.1873 45.6355 33.703 45.4949 34.2342 45.3595C34.703 45.2345 35.1873 45.1147 35.6561 45.0001L36.0571 44.9063C36.2186 44.8647 36.3853 44.8282 36.5467 44.7865C37.0675 44.6615 37.5988 44.5417 38.1405 44.422C38.7134 44.2917 39.229 44.1824 39.755 44.073C40.2394 43.9688 40.7707 43.8647 41.3696 43.7449C42.2394 43.5782 43.0519 43.4272 43.854 43.2865C44.1144 43.2345 44.3748 43.1876 44.6509 43.1459L44.9894 43.0886C45.1561 43.0626 45.328 43.0313 45.4946 43.0053L46.5936 32.7657C46.5675 32.7084 46.5415 32.6563 46.5155 32.599C46.1405 31.8074 45.953 30.974 45.953 30.099C45.953 26.8126 48.7394 23.8074 53.8071 21.6407C58.5519 19.6095 64.8384 18.4949 71.4998 18.4949C78.1665 18.4949 84.4478 19.6095 89.1925 21.6407C94.2186 23.7917 96.9998 26.7657 97.0415 30.0261L98.63 43.3282L98.7759 43.3542L98.9686 43.3855C99.1873 43.4272 99.4373 43.474 99.7186 43.5261C100.021 43.5834 100.333 43.6407 100.646 43.7032C100.984 43.7657 101.38 43.8438 101.771 43.9272C101.854 43.9428 101.937 43.9584 102.015 43.974L102.146 44.0001C102.417 44.0574 102.677 44.1095 102.937 44.1667C103.094 44.2032 103.255 44.2345 103.411 44.2709L103.693 44.3282C104.937 44.6042 106.052 44.8647 107.12 45.1355C107.5 45.2292 107.87 45.323 108.239 45.422C108.614 45.5157 109.026 45.6251 109.489 45.7553C109.75 45.823 110.01 45.8959 110.271 45.9688L110.286 45.974Z" fill="#231F20"/>
</g>
<mask id="mask6_283_107524" style="mask-type:luminance" maskUnits="userSpaceOnUse" x="39" y="96" width="33" height="6">
<path d="M39.7031 96.7866H71.7031V101.938H39.7031V96.7866Z" fill="white"/>
</mask>
<g mask="url(#mask6_283_107524)">
<path d="M67.6821 101.938C57.5623 101.938 48.729 101.016 41.4269 99.1877C41.1196 99.1148 40.8748 98.9377 40.7081 98.6669C40.5363 98.3908 40.4894 98.0992 40.5571 97.7867C40.63 97.469 40.7967 97.2242 41.0675 97.0523C41.3383 96.8752 41.63 96.8179 41.9425 96.8804C50.5675 98.5627 59.8019 99.4637 69.3956 99.5627C69.7238 99.5627 69.9998 99.6773 70.2342 99.9117C70.4633 100.141 70.5779 100.422 70.5779 100.745C70.5779 101.073 70.4633 101.354 70.2342 101.584C69.9998 101.813 69.7238 101.932 69.3956 101.932C68.8383 101.938 68.2602 101.938 67.6821 101.938Z" fill="#231F20"/>
</g>
<path d="M71.5 41.7032C65.7865 41.7032 60.3958 40.8959 55.9219 39.3647C51.3542 37.8022 48.1927 35.6407 46.776 33.1095C46.2344 32.1824 45.9583 31.1772 45.9531 30.099C45.9531 26.8126 48.7396 23.8074 53.8073 21.6407C58.5521 19.6095 64.8333 18.4949 71.5 18.4949C78.1615 18.4949 84.4479 19.6095 89.1927 21.6407C94.2552 23.8074 97.0417 26.8126 97.0417 30.099C97.0417 33.3855 94.2552 36.3907 89.1927 38.5574C84.4479 40.5886 78.1615 41.7032 71.5 41.7032ZM71.5 20.8595C65.151 20.8595 59.1979 21.9115 54.7396 23.8178C50.6615 25.5626 48.3229 27.849 48.3229 30.099C48.3281 30.7605 48.5052 31.3803 48.8385 31.9532C51.2344 36.2345 60.7656 39.3386 71.5 39.3386C77.849 39.3386 83.8021 38.2865 88.2604 36.3803C92.3333 34.6355 94.6771 32.349 94.6771 30.099C94.6771 27.849 92.3333 25.5626 88.2604 23.8178C83.8021 21.9115 77.849 20.8595 71.5 20.8595Z" fill="#231F20"/>
<path d="M71.12 60.9533C62.0523 60.9533 53.2346 60.2397 44.9116 58.8335C44.6044 58.7814 44.3544 58.6303 44.1669 58.3855C43.9794 58.1355 43.9012 57.8543 43.9325 57.5418L46.6304 32.4064C46.6616 32.1512 46.7606 31.9272 46.9325 31.7397C47.1044 31.547 47.3179 31.4272 47.5731 31.3751C47.8231 31.323 48.0679 31.3491 48.3023 31.4585C48.5366 31.5678 48.7189 31.7345 48.8439 31.9585C51.2346 36.2345 60.7658 39.3387 71.5002 39.3387C77.8491 39.3387 83.8023 38.2866 88.2606 36.3803C92.3335 34.6355 94.6773 32.3491 94.6773 30.0991C94.6773 29.7866 94.7814 29.5158 95.0002 29.2866C95.2137 29.0626 95.4741 28.9376 95.7919 28.9168C96.1044 28.9012 96.3804 28.9897 96.62 29.1928C96.8596 29.3907 97.0002 29.6512 97.0366 29.9585L100.276 57.1824C100.313 57.4897 100.24 57.771 100.057 58.021C99.87 58.2762 99.6252 58.4272 99.3179 58.4845C92.7294 59.6772 86.0939 60.4324 79.4064 60.7501C79.3908 60.7501 79.3804 60.7501 79.3648 60.7501C77.12 60.8595 74.8283 60.9272 72.5627 60.948H72.3908C71.9689 60.948 71.5419 60.9533 71.12 60.9533ZM46.4064 56.6824C54.5939 57.9689 62.8283 58.6043 71.12 58.5835C71.5366 58.5835 71.9585 58.5835 72.3752 58.5783H72.5523C74.7866 58.5626 77.0523 58.4949 79.2762 58.3855C79.2866 58.3855 79.3023 58.3855 79.3127 58.3855C85.5158 58.0887 91.6773 57.4116 97.7919 56.3543L95.1981 34.547C93.8648 36.0626 91.8387 37.422 89.1929 38.5574C84.4481 40.5887 78.1616 41.7033 71.5002 41.7033C65.7866 41.7033 60.396 40.896 55.9221 39.3647C52.8335 38.3074 50.3856 36.9793 48.6877 35.448L46.4064 56.6824Z" fill="#231F20"/>
<mask id="mask7_283_107524" style="mask-type:luminance" maskUnits="userSpaceOnUse" x="5" y="40" width="133" height="62">
<path d="M5.03711 40.7866H137.037V101.938H5.03711V40.7866Z" fill="white"/>
</mask>
<g mask="url(#mask7_283_107524)">
<path d="M69.3861 101.932H69.3705C59.6361 101.828 50.2507 100.912 41.4903 99.2032C41.4642 99.198 41.433 99.1928 41.4069 99.1824C21.2663 94.1407 18.7194 83.8595 18.4851 82.6459L6.00068 42.5991C5.92256 42.3438 5.92776 42.0886 6.02672 41.8334C6.12047 41.5834 6.28193 41.3855 6.5111 41.2449C6.74026 41.0991 6.99027 41.0418 7.25589 41.073C7.52672 41.0991 7.75589 41.2084 7.95381 41.3907C11.2351 44.5261 15.834 47.3751 21.6153 49.8595C21.6361 49.8647 21.6569 49.8751 21.6726 49.8803C28.4278 52.7709 36.3757 55.0001 45.308 56.5001C53.5059 57.8855 62.1882 58.5834 71.1205 58.5834C71.5528 58.5834 71.9851 58.5834 72.4174 58.5782H72.5528C73.0059 58.5834 73.4486 58.5834 73.8861 58.5834C75.6517 58.5834 77.4538 58.5209 79.2455 58.3855C79.2663 58.3855 79.2924 58.3855 79.3132 58.3855C85.8861 58.073 92.4121 57.3282 98.8861 56.1563C107.032 54.6616 114.324 52.5522 120.558 49.8803C120.579 49.8751 120.6 49.8647 120.62 49.8595C126.058 47.5209 130.464 44.8491 133.719 41.9168C134.001 41.6616 134.256 41.422 134.495 41.1876C134.683 41.0001 134.912 40.8959 135.173 40.8595C135.433 40.8282 135.678 40.8751 135.907 41.0001C136.131 41.1303 136.303 41.3178 136.407 41.5574C136.511 41.797 136.537 42.0418 136.475 42.3022L127.683 80.2293C127.652 80.3647 127.6 80.4949 127.522 80.6095C127.381 80.8282 123.949 85.9741 115.011 91.1824C109.808 94.2188 103.792 96.6563 97.1309 98.4272C88.834 100.636 79.5059 101.813 69.3965 101.932H69.3861ZM41.9799 96.8855C50.5892 98.5626 59.808 99.4636 69.3809 99.5626C91.7819 99.3022 105.907 93.7501 113.813 89.1407C121.417 84.7084 124.798 80.3491 125.428 79.4741L130.704 56.7136L133.35 45.3074C130.157 47.7866 126.183 50.047 121.495 52.0574C121.48 52.0626 121.459 52.073 121.438 52.0782C115.053 54.8074 107.61 56.9636 99.3184 58.4845C92.7299 59.6772 86.0944 60.4324 79.4069 60.7501H79.3861C77.5476 60.8855 75.6986 60.9532 73.8861 60.9532C73.4382 60.9532 72.9903 60.948 72.5424 60.9428H72.433C72.0007 60.948 71.5632 60.9532 71.1205 60.9532C62.058 60.9532 53.2403 60.2397 44.9121 58.8334C35.8236 57.3074 27.709 55.0313 20.7923 52.0782C20.7767 52.073 20.7559 52.0626 20.7351 52.0574C16.3184 50.1616 12.5423 48.0522 9.46943 45.7553L20.7715 82.0105C20.7871 82.0678 20.8028 82.1251 20.8132 82.1824C20.8132 82.198 21.2507 84.6459 24.0319 87.6511C26.6309 90.4636 31.8549 94.3543 41.9799 96.8855Z" fill="#231F20"/>
</g>
<path d="M73.8854 60.9533C73.4583 60.9533 73.0313 60.9481 72.6042 60.9481H72.5469C72.2188 60.9481 71.9375 60.8283 71.7083 60.5992C71.474 60.37 71.3594 60.0888 71.3594 59.7658C71.3594 59.4377 71.474 59.1565 71.7083 58.9273C71.9375 58.6929 72.2188 58.5783 72.5417 58.5783C74.7865 58.5627 77.0521 58.495 79.276 58.3856C79.599 58.37 79.8802 58.469 80.125 58.6825C80.3698 58.9013 80.5 59.1721 80.5208 59.495C80.5417 59.8179 80.4427 60.1044 80.2292 60.3492C80.0156 60.5888 79.7448 60.7242 79.4219 60.745C77.5781 60.8804 75.7135 60.9533 73.8854 60.9533Z" fill="#231F20"/>
</svg>
