<svg width="65" height="67" viewBox="0 0 65 67" fill="none" xmlns="http://www.w3.org/2000/svg">
<mask id="mask0_292_113718" style="mask-type:luminance" maskUnits="userSpaceOnUse" x="30" y="53" width="14" height="15">
<path d="M30.666 53.0098H43.9993V67.0098H30.666V53.0098Z" fill="white"/>
</mask>
<g mask="url(#mask0_292_113718)">
<path fill-rule="evenodd" clip-rule="evenodd" d="M31.2556 63.8532C31.5316 62.8741 31.8806 61.6501 33.8024 60.9626C37.9587 59.4834 38.3024 55.6032 38.4639 54.1345C38.5889 53.0407 42.917 53.3272 42.9483 54.4313C43.0108 56.9418 41.3024 61.8741 39.9535 63.5303C38.3962 65.4418 35.0316 66.8636 32.1358 66.8376C30.3181 66.822 30.9743 64.8324 31.2556 63.8532Z" fill="#868686"/>
</g>
<mask id="mask1_292_113718" style="mask-type:luminance" maskUnits="userSpaceOnUse" x="26" y="45" width="10" height="23">
<path d="M26.666 45.0098H35.9993V67.0098H26.666V45.0098Z" fill="white"/>
</mask>
<g mask="url(#mask1_292_113718)">
<path fill-rule="evenodd" clip-rule="evenodd" d="M27.2085 47.4573C27.4377 51.3896 27.5575 61.0407 28.1044 64.2542C28.3335 65.6084 30.219 66.9782 31.896 66.8896C34.3231 66.7646 35.219 64.848 35.1929 63.4677C35.1408 60.8219 34.9377 50.8219 34.7971 46.6917C34.7398 44.9625 27.0835 45.3375 27.2085 47.4573Z" fill="#BABABA"/>
</g>
<path fill-rule="evenodd" clip-rule="evenodd" d="M2.45272 47.3535C5.34335 49.2337 17.7756 50.2389 31.9996 50.541C46.609 50.8483 56.4892 50.1972 61.3381 48.317C63.6767 47.4056 63.7965 37.4941 63.8069 35.1608C63.8121 33.7233 56.4579 20.4264 53.6558 19.9264C50.0517 19.2753 17.109 18.2441 13.9163 19.8795C10.26 21.7649 0.536057 32.7128 0.483973 35.5149C0.421473 38.8639 -0.120194 45.6816 2.45272 47.3535Z" fill="#D1D1D1"/>
<path fill-rule="evenodd" clip-rule="evenodd" d="M48.2402 28.39C51.5579 30.14 57.11 34.7181 56.8913 34.8795C55.6256 35.791 17.5371 34.6452 12.735 34.6452C11.3704 34.6452 17.4538 28.8379 19.0267 28.4056C20.8183 27.916 46.3652 27.4004 48.2402 28.39Z" fill="#BABABA"/>
<mask id="mask2_292_113718" style="mask-type:luminance" maskUnits="userSpaceOnUse" x="0" y="18" width="65" height="22">
<path d="M0 18.3438H64.3958V39.6771H0V18.3438Z" fill="white"/>
</mask>
<g mask="url(#mask2_292_113718)">
<path fill-rule="evenodd" clip-rule="evenodd" d="M53.7399 19.8751C51.3337 17.9585 15.4795 18.1512 13.5941 19.6095C9.14618 23.0574 -0.343406 33.5522 0.370135 35.3179C1.6618 38.521 21.0524 39.1095 31.5108 39.1043C42.141 39.1043 64.3858 38.5679 64.1514 35.297C63.9378 32.3126 59.1878 24.2189 53.7399 19.8751ZM49.5837 21.1095C47.6931 19.7085 19.4014 19.9897 17.9066 21.0679C14.3858 23.6199 8.45868 29.3543 8.46909 31.5679C8.48472 34.0783 23.6722 34.271 31.9222 34.2293C40.3128 34.1876 57.0003 33.8439 56.8285 31.4429C56.6722 29.2449 53.8649 24.2814 49.5837 21.1095Z" fill="#EBE8E4"/>
</g>
<path fill-rule="evenodd" clip-rule="evenodd" d="M18.3498 21.3638C18.381 23.77 18.5112 25.744 18.6571 27.8586C18.6675 28.0148 18.8029 28.1346 18.9591 28.1242C19.1154 28.1138 19.2352 27.9783 19.2248 27.8169C19.0841 25.7127 18.9539 23.7492 18.9175 21.3586C18.9175 21.1971 18.7873 21.0721 18.631 21.0773C18.4696 21.0773 18.3446 21.2075 18.3498 21.3638Z" fill="#BABABA"/>
<path fill-rule="evenodd" clip-rule="evenodd" d="M48.4895 21.5002C48.2811 23.1148 48.0989 26.0523 47.7811 27.6356C47.7499 27.7918 47.8489 27.9429 48.0051 27.9741C48.1614 28.0054 48.3124 27.9012 48.3436 27.7502C48.6614 26.1564 48.8436 23.1981 49.0572 21.5783C49.078 21.422 48.9634 21.2762 48.8072 21.2554C48.6509 21.2345 48.5103 21.3491 48.4895 21.5002Z" fill="#BABABA"/>
<path fill-rule="evenodd" clip-rule="evenodd" d="M33.9319 21.5935C34.9215 21.5571 35.7392 21.8956 35.7548 22.3487C35.7704 22.8018 34.9787 23.1925 33.9892 23.2289C32.9996 23.2602 32.1819 22.9216 32.1662 22.4737C32.1506 22.0206 32.9423 21.6248 33.9319 21.5935Z" fill="#BABABA"/>
<path fill-rule="evenodd" clip-rule="evenodd" d="M1.23923 39.3488C0.978808 40.4582 1.22881 42.8645 1.72881 44.5051C1.95798 45.2603 2.24964 45.854 2.54652 46.1353C2.74964 46.328 3.12985 46.5207 3.68193 46.6874C4.4111 46.9113 5.45798 47.1145 6.73402 47.2967C15.0986 48.4947 33.5309 48.8749 36.734 48.9582C36.9424 48.9634 37.1142 48.802 37.1194 48.5988C37.1246 48.3905 36.9632 48.2186 36.7549 48.2134C33.5569 48.1301 15.1767 47.7551 6.83818 46.5572C5.60902 46.3801 4.60381 46.1874 3.90068 45.9738C3.49443 45.8488 3.20277 45.729 3.05693 45.5884C2.73402 45.2863 2.46839 44.4999 2.25485 43.5936C1.91631 42.1509 1.75485 40.3957 1.96318 39.5207C2.01006 39.3176 1.88506 39.1197 1.68714 39.0676C1.48923 39.0259 1.2861 39.1509 1.23923 39.3488Z" fill="#EBE8E4"/>
<path fill-rule="evenodd" clip-rule="evenodd" d="M16.9894 46.8172C28.2602 47.588 32.8539 47.7182 42.6456 47.4526C42.8539 47.4474 43.0154 47.2807 43.0102 47.0724C43.005 46.8692 42.8331 46.7026 42.6248 46.713C32.8592 46.9734 28.2758 46.8432 17.0414 46.0724C16.8383 46.0567 16.6612 46.213 16.6456 46.4161C16.63 46.6244 16.7862 46.8015 16.9894 46.8172Z" fill="#EBE8E4"/>
<path fill-rule="evenodd" clip-rule="evenodd" d="M11.9642 48.974C18.5787 49.6511 23.9381 49.9011 30.1256 49.8386C30.3287 49.8334 30.4954 49.6667 30.4954 49.4584C30.4902 49.2552 30.3235 49.0886 30.1204 49.0938C23.959 49.1563 18.6256 48.9063 12.0423 48.2344C11.834 48.2136 11.6517 48.3594 11.6308 48.5677C11.61 48.7709 11.761 48.9532 11.9642 48.974Z" fill="#EBE8E4"/>
<path fill-rule="evenodd" clip-rule="evenodd" d="M44.8333 49.6974C48.5833 49.6245 56.2813 48.9995 60.8906 47.7703C61.0885 47.7182 61.2083 47.5099 61.1563 47.312C61.1042 47.1141 60.901 46.9943 60.7031 47.0464C56.1406 48.2651 48.526 48.8797 44.8177 48.9526C44.6146 48.9578 44.4531 49.1245 44.4531 49.3328C44.4583 49.5359 44.625 49.7026 44.8333 49.6974Z" fill="#EBE8E4"/>
<path fill-rule="evenodd" clip-rule="evenodd" d="M47.7611 48.2494C51.0371 48.2025 55.0527 47.463 58.6986 46.838C58.9017 46.8015 59.0371 46.6088 59.0007 46.4057C58.9694 46.2025 58.7767 46.0671 58.5736 46.1036C54.9694 46.7182 50.9954 47.4578 47.7507 47.4994C47.5423 47.5046 47.3809 47.6713 47.3809 47.8796C47.3861 48.088 47.5527 48.2494 47.7611 48.2494Z" fill="#EBE8E4"/>
<path fill-rule="evenodd" clip-rule="evenodd" d="M27.9216 56.5775C29.1976 57.4265 30.9528 57.614 32.3799 57.4369C33.3539 57.3171 34.1716 57.0254 34.6039 56.6817C34.7289 56.5827 34.7497 56.4004 34.6507 56.2754C34.5518 56.1556 34.3747 56.1348 34.2497 56.2337C33.8747 56.5306 33.1559 56.765 32.307 56.8692C31.0049 57.0306 29.4007 56.8744 28.2393 56.0983C28.1091 56.0098 27.932 56.0462 27.8434 56.1765C27.7549 56.3119 27.7914 56.489 27.9216 56.5775Z" fill="#868686"/>
<path fill-rule="evenodd" clip-rule="evenodd" d="M28.2811 59.4317C29.2967 60.1608 31.0102 60.3587 32.4582 60.1556C33.4477 60.015 34.3071 59.6817 34.755 59.2337C34.8644 59.1244 34.8644 58.9421 34.7498 58.8275C34.6404 58.7181 34.4582 58.7181 34.3488 58.8327C33.9686 59.2129 33.2238 59.4681 32.38 59.5879C31.0779 59.7702 29.5311 59.6192 28.6144 58.9629C28.4894 58.8744 28.3071 58.9056 28.2186 59.0306C28.1248 59.1608 28.1561 59.3379 28.2811 59.4317Z" fill="#868686"/>
<path fill-rule="evenodd" clip-rule="evenodd" d="M28.1414 61.8178C29.1883 62.5521 30.881 62.8386 32.3341 62.6876C33.3289 62.5886 34.2091 62.2761 34.7196 61.7917C34.8341 61.6876 34.8394 61.5053 34.73 61.3907C34.6206 61.2761 34.4383 61.2709 34.3237 61.3803C33.8914 61.7917 33.1258 62.0313 32.2716 62.1198C30.9539 62.2553 29.4175 62.0157 28.4696 61.349C28.3394 61.2605 28.1623 61.2917 28.0737 61.4219C27.98 61.5521 28.0112 61.7292 28.1414 61.8178Z" fill="#868686"/>
<path fill-rule="evenodd" clip-rule="evenodd" d="M28.0781 54.4265C29.2968 55.1713 31.0208 55.2754 32.4114 55.0723C33.3593 54.9369 34.1562 54.6504 34.552 54.3535C34.677 54.2598 34.7031 54.0775 34.6093 53.9525C34.5104 53.8275 34.3333 53.8015 34.2083 53.8952C33.8593 54.1556 33.1614 54.3848 32.3333 54.5046C31.0624 54.6921 29.4895 54.614 28.3801 53.9369C28.2447 53.8588 28.0676 53.9004 27.9843 54.0358C27.901 54.166 27.9426 54.3431 28.0781 54.4265Z" fill="#868686"/>
<path fill-rule="evenodd" clip-rule="evenodd" d="M27.7611 52.2707C29.0476 52.9998 30.8705 53.0936 32.3497 52.8852C33.3549 52.7446 34.1986 52.4634 34.6205 52.1613C34.7455 52.0728 34.7767 51.8957 34.6882 51.7655C34.5945 51.6353 34.4174 51.604 34.2872 51.6977C33.9122 51.9582 33.1622 52.1925 32.2715 52.3175C30.9122 52.5102 29.2299 52.4477 28.0424 51.7759C27.907 51.6977 27.7299 51.7446 27.657 51.88C27.5788 52.0207 27.6257 52.1925 27.7611 52.2707Z" fill="#868686"/>
<path fill-rule="evenodd" clip-rule="evenodd" d="M23.0568 5.64549C23.0568 5.64549 24.0359 3.1507 24.8797 2.26007C26.3016 0.754862 28.338 -0.328472 30.9214 0.332987C34.2703 1.18715 34.6818 6.14549 34.7859 9.74965C34.9526 15.1767 34.9526 18.0049 35.0151 19.3382C35.0411 19.859 32.6453 19.8851 32.6193 19.4476C32.5307 17.6819 32.6089 14.4892 32.3536 9.9007C32.1714 6.70799 31.8849 3.31736 30.1193 2.55694C28.4734 1.84861 26.8276 3.06215 26.0568 4.07257C25.5776 4.70278 24.7495 6.37465 24.7495 6.37465C24.7495 6.37465 25.3328 6.7184 25.4474 6.95278C25.6297 7.33299 25.1453 8.06215 24.9109 7.98403C24.4266 7.81215 22.8484 7.14549 21.8432 6.59861C21.5464 6.43715 21.937 5.79132 22.1766 5.56215C22.3589 5.38507 23.0568 5.64549 23.0568 5.64549Z" fill="#727272"/>
<path fill-rule="evenodd" clip-rule="evenodd" d="M37.4997 13.2549L38.4684 12.4111C38.734 12.1768 39.1351 12.2132 39.359 12.4945C39.583 12.7757 39.5465 13.1976 39.2757 13.432L38.5934 14.0257C38.5986 14.0413 38.6038 14.057 38.609 14.0674L39.5101 14.6455C39.807 14.8382 39.9059 15.2445 39.7184 15.557C39.5413 15.8695 39.1507 15.9684 38.8486 15.7757L38.3017 15.4268L38.3174 19.8018L36.8226 19.807L36.807 15.5882L36.557 15.807C36.2861 16.0361 35.8903 15.9997 35.6663 15.7184C35.4424 15.4372 35.4736 15.0205 35.7445 14.7861L36.4007 14.2132L35.8226 13.8434C35.5257 13.6507 35.432 13.2445 35.6142 12.932C35.7965 12.6195 36.1872 12.5205 36.484 12.7132L37.359 13.2705C37.4059 13.2653 37.4528 13.2601 37.4997 13.2549Z" fill="#727272"/>
<path fill-rule="evenodd" clip-rule="evenodd" d="M37.6883 13.4526C38.105 13.4786 38.4175 13.8484 38.3967 14.2859C38.3706 14.7234 38.0113 15.0568 37.5946 15.0307C37.1779 15.0099 36.8602 14.6349 36.8863 14.1974C36.9123 13.7599 37.2717 13.4266 37.6883 13.4526Z" fill="#D1D1D1"/>
<path fill-rule="evenodd" clip-rule="evenodd" d="M29.5633 13.1875L30.5268 12.3437C30.7976 12.1094 31.1935 12.1458 31.4174 12.4271C31.6414 12.7083 31.6049 13.125 31.3393 13.3594L30.657 13.9583C30.6622 13.974 30.6622 13.9896 30.6674 14L31.5737 14.5781C31.8706 14.7708 31.9643 15.1771 31.782 15.4896C31.6049 15.8021 31.2143 15.901 30.9122 15.7135L30.3653 15.3594L30.3862 19.7396L28.8862 19.7448L28.8706 15.5208L28.6206 15.7396C28.3497 15.974 27.9487 15.9375 27.7247 15.6563C27.5008 15.375 27.5372 14.9531 27.8081 14.724L28.4643 14.1458L27.8862 13.7813C27.5893 13.5885 27.4956 13.1771 27.6778 12.8698C27.8549 12.5521 28.2456 12.4583 28.5476 12.6458L29.4174 13.2031C29.4695 13.1927 29.5112 13.1875 29.5633 13.1875Z" fill="#727272"/>
<path fill-rule="evenodd" clip-rule="evenodd" d="M29.584 13.3907C30.0007 13.3855 30.3392 13.7396 30.3444 14.1771C30.3444 14.6146 30.0111 14.9688 29.5944 14.9688C29.1777 14.974 28.8392 14.6198 28.834 14.1823C28.834 13.7448 29.1673 13.3907 29.584 13.3907Z" fill="#D1D1D1"/>
</svg>
