<svg width="200" height="185" viewBox="0 0 200 185" fill="none" xmlns="http://www.w3.org/2000/svg">
<mask id="mask0_317_103270" style="mask-type:luminance" maskUnits="userSpaceOnUse" x="0" y="0" width="200" height="185">
<path d="M0 0H200V185H0V0Z" fill="white"/>
</mask>
<g mask="url(#mask0_317_103270)">
<path d="M199.667 122.37C199.651 121.729 199.609 121.089 199.531 120.443C198.781 113.885 198.099 107.318 197.24 100.771C196.333 93.8229 195.38 86.875 194.219 79.9688C192.771 71.3959 191.094 62.8542 189.495 54.3021C188.755 50.3386 187.953 46.3959 187.172 42.4375C187.052 41.8438 187.104 41.1094 186.208 40.9323C186.182 40.9479 186.162 40.974 186.136 41L185.922 39.8594C186.057 39.75 186.182 39.6302 186.318 39.5209C186.766 39.1406 187.052 38.6459 186.776 38.0313C186.005 38.3229 185.208 38.5625 184.448 38.875C185.208 38.5625 186.005 38.3177 186.776 38.0209C186.781 38.0209 186.792 38.0156 186.797 38.0156C186.781 37.9948 186.766 37.9792 186.75 37.9636C187.063 37.7084 187.547 37.5156 187.651 37.1979C187.896 36.3698 188.115 35.474 188.078 34.625C187.984 32.3542 187.917 30.0625 187.531 27.8281C187.146 25.6198 187.422 23.1719 185.677 21.3438C185.823 20.3906 185.073 20.1563 184.448 19.8854C182.63 19.099 180.823 18.2917 178.953 17.6406C167.5 13.6459 155.802 10.5 144.063 7.46356C134.636 5.02606 125.136 2.93752 115.511 1.44273C112.401 0.963564 109.287 0.505231 106.162 0.109396C105.563 0.0364801 104.891 0.197938 104.302 0.395854C99.9376 1.88023 95.5626 3.2969 91.2605 4.9271C79.2605 9.46356 67.4376 14.4219 55.698 19.5886C45.1355 24.2344 34.4949 28.7136 24.2813 34.1354C22.4793 35.0886 20.6824 36.0677 18.9011 37.0625C18.0157 37.5573 17.2397 38.2084 17.047 39.2709C16.8334 40.4063 16.5418 41.5729 16.573 42.7188C16.6772 46.2761 16.9428 49.8334 17.0782 53.4011C17.1407 54.9948 17.5366 56.2761 19.2605 56.7761C18.797 58.9271 18.4376 60.9896 17.9063 63.0156C16.3751 68.8334 14.7241 74.6094 13.2241 80.4271C8.90114 97.224 4.63551 114.021 0.375096 130.823C0.281347 131.203 0.416763 131.771 0.661555 132.073C1.13031 132.656 1.71364 133.177 2.33343 133.609C5.30739 135.667 8.3126 137.672 11.297 139.729C13.1407 141.005 15.0574 141.104 17.1147 140.339C21.1147 138.833 24.8438 136.797 28.6095 134.807C31.5157 133.271 32.0782 130.615 32.547 127.833C32.6095 127.495 32.2813 126.844 31.9845 126.745C32.0105 126.75 32.0366 126.771 32.0626 126.776C32.0938 126.531 32.1355 126.286 32.172 126.042C39.1616 129.318 46.1407 132.594 53.198 135.698C65.2553 141.01 77.4063 146.089 89.7657 151.375C89.7918 151.854 89.8334 152.438 89.8438 153.01C89.9949 159.151 90.1876 165.281 90.2553 171.417C90.2709 173.063 90.9376 174.198 92.1355 175.151C92.4532 175.406 92.7553 175.682 93.0938 175.911C97.1616 178.646 101.276 181.318 105.297 184.135C106.396 184.906 107.609 184.359 108.729 184.833C109.151 185.01 110.026 184.411 110.552 183.99C113.87 181.318 117.141 178.599 120.427 175.885C120.688 175.667 120.901 175.354 121.031 175.042C121.219 174.615 121.271 174.208 121.094 173.87C122.042 172.87 122.255 171.323 122.203 169.818C122.901 169.688 122.927 169.042 122.927 168.458C122.927 168.109 122.859 167.766 122.818 167.411C122.636 165.844 122.406 164.281 122.281 162.714C121.833 156.948 121.412 151.182 121.011 145.411C120.901 143.911 120.865 142.401 120.813 141.182C126.214 138 131.406 135.083 136.458 131.948C148.365 124.552 160.24 117.089 172.104 109.62L172.214 110.422C172.099 110.359 171.969 110.302 171.828 110.25C171.693 110.969 171.464 111.547 171.49 112.125C171.583 114.161 171.776 116.203 171.922 118.245C172.156 121.682 172.427 125.125 172.609 128.568C172.729 130.75 173.005 131.266 175.063 131.932C176.333 132.344 177.636 132.661 178.927 133.026C180.609 133.5 182.396 133.75 183.943 134.5C185.307 135.161 186.38 135.068 187.531 134.318C190.552 132.333 193.511 130.234 196.625 128.396C199 126.974 199.724 124.917 199.667 122.37ZM5.27614 119.714C5.01572 120.74 4.70843 121.771 4.39593 122.792C4.71885 121.771 5.01572 120.75 5.27614 119.714ZM13.7188 138.922C12.6824 138.354 11.6511 137.771 10.6407 137.177C11.6511 137.771 12.6772 138.354 13.7188 138.922C13.922 139.031 14.1147 139.115 14.3074 139.167C14.1147 139.12 13.922 139.036 13.7188 138.922ZM13.9116 133.859C13.8959 133.964 13.8699 134.073 13.8543 134.182C13.8699 134.073 13.8959 133.969 13.9116 133.859C14.1095 132.766 14.3022 131.677 14.4845 130.578C14.3022 131.677 14.1095 132.771 13.9116 133.859ZM15.1095 134.141C15.0261 134.568 14.823 134.964 14.6355 135.469C14.823 134.974 15.0261 134.568 15.1095 134.141ZM88.8751 83.2031C88.7501 83.0313 88.6043 82.8802 88.4636 82.7188C88.6147 82.8698 88.7501 83.0313 88.8751 83.2031ZM42.4272 65.4844C47.9272 67.4167 53.3751 69.5052 58.9324 71.2604C68.6459 74.3281 78.3907 77.2969 88.1407 80.2761L88.2241 82.5677C88.2449 82.5417 88.2605 82.5156 88.2761 82.4948C88.0834 82.8021 87.8126 83.0938 87.7032 83.4271C87.7032 83.4271 87.7032 83.4271 87.7032 83.4219L86.1824 83.9948C86.2293 84.0886 86.2709 84.1771 86.323 84.2656C86.2657 84.1511 86.2032 84.0417 86.1459 83.9323C85.6563 83.974 85.1459 83.9323 84.672 84.0677C83.5522 84.3802 82.4272 84.7084 81.3491 85.1406C67.1772 90.8334 53.0105 96.5417 38.8491 102.25C38.323 102.458 37.8022 102.646 36.9793 102.948C38.3595 90.1563 39.7136 77.6615 41.0782 65.0573C41.6511 65.2396 42.047 65.349 42.4272 65.4844ZM74.5782 89.5938C77.422 88.4792 80.2709 87.3594 83.1147 86.2448C83.5522 86.0781 83.9845 85.8906 84.4011 85.7031C83.9845 85.9011 83.547 86.0781 83.1147 86.2448C80.2709 87.3646 77.422 88.4792 74.5782 89.5938ZM81.3699 94.4063C80.672 94.7031 79.9845 95.0052 79.2918 95.3177C79.9845 95.0156 80.672 94.7084 81.3699 94.4063ZM52.3647 107.401C49.3751 108.74 46.3751 110.083 43.3855 111.422C43.1563 111.526 42.922 111.625 42.698 111.719C42.9324 111.625 43.1563 111.526 43.3855 111.422C46.3751 110.089 49.3751 108.75 52.3647 107.401ZM39.0157 109.297C39.6043 109.026 40.1928 108.766 40.7918 108.495C40.2032 108.766 39.6147 109.026 39.0157 109.297ZM36.6147 106.813C36.7241 105.984 36.8334 105.151 36.9428 104.333C36.8334 105.151 36.7241 105.974 36.6147 106.813ZM37.2918 81.2188C37.6095 78.0834 37.9376 74.9479 38.2605 71.8021C37.9376 74.9375 37.6095 78.0729 37.2918 81.2188ZM38.6459 68.0417C38.7709 66.8334 38.8959 65.6042 39.0313 64.3386C38.9063 65.6042 38.7709 66.8281 38.6459 68.0417ZM40.7501 46.7396C35.3022 44.8542 29.8959 42.8542 24.448 40.9584C29.8855 42.8438 35.3022 44.8542 40.7501 46.7396ZM33.1824 111.078C32.3543 110.75 31.5209 110.443 30.6876 110.125C30.5209 110.057 30.3178 110.005 30.1147 109.979C30.3178 110.005 30.5105 110.057 30.6876 110.125C31.5209 110.438 32.3543 110.75 33.1824 111.078ZM28.5886 66.0938C28.547 66.2084 28.5053 66.3281 28.4636 66.4479C28.5001 66.3281 28.5418 66.2084 28.5886 66.0938ZM18.5886 46.2031C18.5626 45.6511 18.5626 45.1042 18.5522 44.5573C18.5626 45.1042 18.573 45.6511 18.5886 46.2031ZM19.0313 39.1875C19.3178 38.9011 19.7345 38.6302 20.323 38.3229C20.9532 37.9948 21.5834 37.6615 22.2241 37.3281C21.5938 37.6615 20.9636 37.9896 20.323 38.3229C19.7345 38.6354 19.3178 38.9011 19.0313 39.1875ZM22.1095 41.5365C22.0313 41.5104 21.9532 41.4688 21.8803 41.4375C21.9532 41.4792 22.0313 41.5104 22.1095 41.5365ZM21.4584 41.1823C21.323 41.0886 21.1824 41 21.047 40.9063C21.073 40.8281 21.1043 40.7552 21.1303 40.6719C21.1043 40.7448 21.073 40.8229 21.047 40.9063C21.1824 40.9896 21.3178 41.0886 21.4584 41.1823ZM20.0209 54.9219C21.8282 55.6302 23.6459 56.3281 25.4584 57.0261C23.6407 56.3281 21.8282 55.6302 20.0209 54.9219ZM20.5418 58.1719C20.573 57.8854 20.6147 57.599 20.6563 57.3125C22.2241 57.9115 23.7761 58.5052 25.3178 59.0938C23.7761 58.5052 22.2188 57.9115 20.6563 57.3125C20.6147 57.599 20.5834 57.8854 20.5418 58.1719ZM21.8647 118.208C21.8543 118.339 21.8438 118.453 21.8543 118.583C21.8438 118.464 21.8543 118.339 21.8647 118.208C21.948 117.104 22.0574 115.995 22.2345 114.906C22.0574 116 21.948 117.104 21.8647 118.208ZM23.5366 118.339C23.5313 118.406 23.5313 118.479 23.5209 118.557C23.5313 118.479 23.5366 118.406 23.5366 118.339C23.5991 117.672 23.6459 117.016 23.7084 116.349C23.6563 117.016 23.5991 117.672 23.5366 118.339ZM24.7657 120.776C24.5157 120.724 24.0366 120.974 23.9428 121.203C23.9168 121.266 23.9116 121.328 23.9168 121.417C23.9116 121.339 23.9168 121.266 23.9428 121.203C24.0418 120.969 24.5157 120.724 24.7657 120.776C24.9272 120.807 25.0782 120.833 25.2397 120.875C25.0886 120.833 24.9272 120.797 24.7657 120.776ZM29.1616 110.073C29.2136 110.047 29.2709 110.031 29.3334 110.016C29.2709 110.031 29.2241 110.047 29.1616 110.073C27.8491 110.667 26.547 111.281 25.2709 111.948C26.5522 111.281 27.8491 110.656 29.1616 110.073ZM26.5782 114.552C26.6563 114.568 26.7293 114.594 26.8074 114.62C27.1199 114.734 27.4376 114.854 27.7501 114.964C27.4376 114.849 27.1199 114.729 26.8074 114.62C26.7397 114.583 26.6563 114.568 26.5782 114.552ZM26.6147 121.307C26.3959 121.214 26.1668 121.13 25.9376 121.063C26.1668 121.135 26.3959 121.214 26.6147 121.307ZM25.3334 114.646C25.3178 114.542 25.297 114.432 25.297 114.318C25.3595 114.323 25.4168 114.333 25.4845 114.349C25.4272 114.339 25.3647 114.333 25.297 114.318C25.3074 114.432 25.3178 114.542 25.3334 114.646ZM30.9584 127.62C30.9063 127.865 30.8647 128.109 30.823 128.354C30.8647 128.104 30.9063 127.859 30.9584 127.62C30.9741 127.552 30.9845 127.484 31.0053 127.417C30.9845 127.479 30.9636 127.552 30.9584 127.62ZM26.0209 123.167C25.8647 123.094 25.7136 123.016 25.5522 122.932C25.7136 123.016 25.8699 123.094 26.0209 123.167C28.0678 124.12 30.1147 125.073 32.1616 126.026C30.1147 125.073 28.0782 124.115 26.0209 123.167ZM47.7241 131.422C49.3491 132.156 50.9793 132.88 52.6147 133.609C50.9793 132.88 49.3543 132.156 47.7241 131.422ZM30.5366 116.109C29.8543 115.792 29.1563 115.505 28.4584 115.234C29.1616 115.505 29.8647 115.792 30.5366 116.109ZM72.7136 137.344C69.5261 135.875 66.3334 134.391 63.1511 132.906C66.3334 134.391 69.5261 135.87 72.7136 137.344C73.2136 137.573 73.7084 137.797 74.2084 138.016C73.7084 137.792 73.2032 137.573 72.7136 137.344ZM74.0366 132.849C72.4688 132.099 70.9063 131.349 69.3491 130.599C70.9116 131.349 72.4688 132.099 74.0366 132.849C75.4845 133.542 76.9584 134.208 78.4324 134.854C76.9584 134.208 75.4949 133.542 74.0366 132.849ZM86.9532 148.667C87.2241 148.786 87.4949 148.885 87.7657 148.995C87.4949 148.885 87.2136 148.776 86.9532 148.667ZM86.9376 142.286C87.0313 142.344 87.1251 142.401 87.2136 142.453C87.1668 142.578 87.1251 142.714 87.073 142.839C86.9793 142.818 86.8855 142.797 86.797 142.776C86.8855 142.792 86.9793 142.818 87.073 142.839C87.1251 142.714 87.1668 142.578 87.2136 142.453C87.1147 142.401 87.0313 142.344 86.9376 142.286ZM40.1355 114.339C56.323 107.781 72.0001 100.552 87.8907 93.4271C88.4376 108.313 88.9845 123.052 89.5418 138.083C72.573 130.807 56.4532 122.505 40.1355 114.339ZM90.0366 104.854C89.9532 103.141 89.8699 101.438 89.7918 99.7292C89.8699 101.438 89.9532 103.151 90.0366 104.854C90.1459 107.208 90.2657 109.552 90.3803 111.901C90.2657 109.557 90.1459 107.208 90.0366 104.854ZM91.4428 137.771C91.6876 146.974 91.8386 156.172 92.0261 165.365C91.8491 156.172 91.698 146.974 91.4428 137.771ZM92.1928 172.49C92.2761 172.667 92.3803 172.833 92.5053 172.995C92.3855 172.823 92.2761 172.656 92.1928 172.49ZM122.151 169.818C122.172 169.818 122.188 169.807 122.198 169.807C122.177 169.807 122.162 169.807 122.151 169.818C122.109 169.823 122.068 169.823 122.026 169.823C122.063 169.823 122.104 169.818 122.151 169.818ZM180.938 23.6615C180.896 23.7136 180.865 23.7552 180.823 23.8073C180.865 23.7604 180.896 23.7136 180.938 23.6615ZM180.844 87.3177C180.761 86.6979 180.677 86.0834 180.594 85.4688C180.688 86.0834 180.771 86.6979 180.844 87.3177ZM179.896 103.135C179.833 103.094 179.776 103.042 179.719 103C179.776 103.052 179.833 103.094 179.896 103.135ZM178.74 105.141C178.464 105.411 178.167 105.682 177.865 105.917C178.167 105.682 178.464 105.422 178.74 105.141ZM176.906 97.0104C177.386 97.0781 177.875 97.1563 178.354 97.224C178.427 97.2292 178.505 97.2656 178.589 97.2969C178.505 97.2552 178.427 97.2292 178.354 97.224C177.875 97.1459 177.391 97.0781 176.906 97.0104ZM175.24 49.4063C176.13 49.4479 176.156 50.0469 176.255 50.5261C176.516 51.75 176.787 52.9636 177.047 54.1875C176.776 52.9636 176.511 51.75 176.255 50.5261C176.156 50.0469 176.13 49.4531 175.24 49.4063ZM175.396 50.7188C175.365 50.5156 175.339 50.3229 175.313 50.1146C175.339 50.3177 175.365 50.5156 175.396 50.7188ZM174.495 44.3125C171.464 46 168.432 47.6823 165.375 49.3438C168.427 47.6823 171.458 46 174.495 44.3125ZM166.682 57.8698C166.448 55.7031 166.234 53.5365 166 51.3802C166.229 53.5469 166.448 55.7136 166.682 57.8698ZM149.396 10.9479C147.005 10.3073 144.604 9.68231 142.203 9.05731C144.604 9.6719 146.995 10.3073 149.396 10.9479ZM107.511 62.8542C111.594 60.5209 115.688 58.2084 119.787 55.9167C115.677 58.2084 111.583 60.5209 107.511 62.8542ZM107.167 64.3906C106.948 64.5052 106.734 64.625 106.516 64.7448C106.734 64.6354 106.948 64.5156 107.167 64.3906ZM102.38 82.1563C102.172 82.2552 101.901 82.3073 101.766 82.4688C101.901 82.3073 102.177 82.2552 102.38 82.1563ZM98.7761 66.875C98.448 66.75 98.1563 66.6302 97.8751 66.5156C98.1563 66.6302 98.4584 66.75 98.7761 66.875ZM96.8386 67.0625C96.9272 67.0886 97.0105 67.1198 97.0938 67.1563C97.0157 67.1198 96.9272 67.0886 96.8386 67.0625ZM94.2136 174.464C93.9168 174.266 93.6407 174.073 93.3907 173.87C93.6407 174.073 93.9272 174.266 94.2136 174.464C96.1928 175.76 98.1563 177.068 100.125 178.38C98.1616 177.073 96.1928 175.76 94.2136 174.464ZM100.615 76.4636C100.505 74.724 100.375 72.9896 100.266 71.2604C100.37 73 100.505 74.724 100.615 76.4636ZM100.63 76.8281C100.63 77.0886 100.615 77.3594 100.615 77.6094C100.615 77.3594 100.63 77.0938 100.63 76.8281ZM100.662 78.1927C100.641 78.0729 100.62 77.9479 100.62 77.8281C100.62 77.9584 100.641 78.0729 100.662 78.1927C100.672 78.2344 100.688 78.2761 100.708 78.3281C100.688 78.2865 100.672 78.2344 100.662 78.1927ZM101.531 70.8646C101.521 70.7969 101.521 70.7292 101.516 70.6615C101.521 70.7292 101.531 70.7969 101.531 70.8646C101.583 71.474 101.63 72.0781 101.672 72.6771C101.63 72.0729 101.589 71.474 101.531 70.8646ZM104.136 83.0729C104.099 83.0938 104.068 83.1094 104.031 83.125C104.057 83.1094 104.099 83.0938 104.136 83.0729C109.297 80.6302 114.458 78.1667 119.62 75.724C119.745 75.6615 119.88 75.6094 120.005 75.5625C119.87 75.6094 119.745 75.6615 119.62 75.724C114.448 78.1667 109.297 80.6302 104.136 83.0729ZM114.662 81.8334C114.625 81.8438 114.594 81.8542 114.568 81.8594C114.594 81.8542 114.625 81.8334 114.662 81.8334C114.682 81.8281 114.719 81.8334 114.75 81.8334C114.719 81.8281 114.682 81.8281 114.662 81.8334ZM115.078 81.9792C115.208 82.0625 115.318 82.1719 115.386 82.2813C115.318 82.1823 115.198 82.0625 115.078 81.9792ZM115.823 85.5781C116.208 89.2969 116.604 93.0573 116.99 96.8334C116.604 93.0677 116.208 89.3073 115.823 85.5781ZM118.177 108.219C117.984 106.323 117.781 104.417 117.589 102.526C117.781 104.417 117.984 106.313 118.177 108.219ZM119.979 129.073C119.432 122.568 118.901 116.328 118.406 110.354C120.287 109.104 121.974 108 123.651 106.87C124.266 106.458 124.453 105.901 124.526 105.109C124.891 101.458 124.182 97.8959 123.844 94.3073C123.823 94.0261 123.844 93.75 123.844 93.2448C135.865 97.0052 147.75 100.729 159.844 104.516C146.761 113.083 133.094 120.37 119.979 129.073ZM118.99 90.3177C119.141 90.3594 119.281 90.4115 119.432 90.4531C120.401 90.7292 121.359 91 122.328 91.2813C121.359 91.0104 120.396 90.7292 119.432 90.4531C119.281 90.4115 119.13 90.3594 118.99 90.3177ZM160.719 103.016C160.828 103.052 160.938 103.073 161.042 103.099C160.932 103.073 160.828 103.052 160.719 103.016ZM150.953 97.1563C153.484 97.8906 156.021 98.625 158.557 99.349C156.021 98.6146 153.484 97.8802 150.953 97.1563ZM161.771 100.125C161.505 100.073 161.234 100.016 160.964 99.9531C161.234 100.016 161.505 100.063 161.771 100.125C161.807 100.13 161.839 100.13 161.875 100.13C161.839 100.13 161.807 100.125 161.771 100.125ZM119.052 86.8177C133.37 90.9063 147.693 95.0156 162 99.1354C147.682 95.0156 133.37 90.9063 119.052 86.8177ZM162.094 100.083C162.229 100.042 162.38 99.9636 162.563 99.8854C162.38 99.9636 162.229 100.031 162.094 100.083ZM162.849 99.7761C162.615 99.5938 162.453 99.4427 162.318 99.3229C162.453 99.4427 162.615 99.599 162.849 99.7761ZM164.417 96C164.672 96.0677 164.922 96.1354 165.177 96.1875C164.922 96.125 164.672 96.0677 164.417 96ZM126.354 83.9271C125.12 83.6667 123.906 83.2761 122.651 82.9479C122.5 80.8542 122.37 78.9323 122.214 77.0209C122.151 76.2865 122.188 75.4584 121.203 75.25C121.068 75.7292 120.88 76.2084 120.745 76.6927C120.88 76.2084 121.057 75.7292 121.203 75.25C121.203 75.2344 121.208 75.224 121.219 75.2084C121.646 74.8854 122.042 74.5052 122.505 74.2604C126.13 72.3802 129.781 70.5625 133.386 68.6563C143.026 63.5729 152.651 58.4636 162.297 53.3698C162.87 53.0625 163.391 52.4844 164.172 52.6927C164.516 55.5261 164.839 58.3073 165.193 61.0834C166.188 68.9011 167.188 76.7188 168.198 84.5313C168.646 88.0052 169.125 91.474 169.62 94.9375C169.672 95.3073 169.714 95.7031 169.854 96.0521L168.208 95.6979C167.573 94.9531 167.281 94.8177 165.865 94.4219C152.755 90.6875 139.693 86.7865 126.354 83.9271ZM170.734 97.8906C169.458 98.7136 168.172 99.5104 166.875 100.302C168.172 99.5156 169.458 98.724 170.734 97.8906C170.886 97.7865 171.037 97.6979 171.198 97.6198C171.042 97.7031 170.886 97.7969 170.734 97.8906ZM171.13 94.9896C170.495 89.7709 169.865 84.5573 169.234 79.3386C169.854 84.5573 170.49 89.7709 171.13 94.9896C171.151 95.1979 171.203 95.4115 171.229 95.6198C171.198 95.4115 171.151 95.1927 171.13 94.9896ZM173.755 123.125C173.656 121.313 173.547 119.51 173.443 117.698C173.552 119.51 173.656 121.313 173.755 123.125ZM176.281 104.771C176.417 104.688 176.552 104.599 176.677 104.516C176.542 104.599 176.406 104.677 176.281 104.771ZM175.542 130.167C175.479 130.151 175.432 130.135 175.37 130.115C175.422 130.135 175.479 130.151 175.542 130.167C177.839 130.818 180.162 131.38 182.469 131.995C180.156 131.391 177.839 130.823 175.542 130.167ZM184.636 132.641C184.557 132.589 184.474 132.552 184.391 132.51C184.474 132.547 184.557 132.589 184.636 132.641ZM185.656 129.964C185.568 129.224 185.495 128.49 185.412 127.75C185.484 128.479 185.568 129.224 185.656 129.964ZM186.208 118.422C185.922 115.63 185.604 112.849 185.276 110.068C185.609 112.849 185.922 115.641 186.208 118.422C186.438 120.63 186.604 122.859 186.75 125.073C186.604 122.859 186.448 120.641 186.208 118.422ZM191.125 73.6875C190.708 71.1511 190.276 68.6198 189.828 66.0938C190.276 68.6198 190.708 71.1615 191.125 73.6875ZM194.839 98.4636C194.698 97.4271 194.552 96.3959 194.401 95.3594C194.552 96.3959 194.698 97.4323 194.839 98.4636C194.948 99.2448 195.057 100.021 195.162 100.807C195.057 100.031 194.948 99.2448 194.839 98.4636Z" fill="black"/>
</g>
<path d="M21.1717 40.5416L18.7134 39.5989C18.9738 39.1249 19.4634 38.7656 20.3123 38.3176C22.8384 36.9843 25.38 35.677 27.9425 34.4062C40.0155 28.4114 52.4217 23.1562 64.8332 17.9374C77.4634 12.6249 90.1978 7.58327 102.88 2.38535C104.359 1.78118 105.734 1.45306 107.39 1.78639C111.729 2.67181 116.125 3.26556 120.479 4.08848C130.219 5.92702 139.812 8.38535 149.385 10.9374C161.224 14.0937 172.932 17.677 184.312 21.7135L180.651 24.0156C180.745 23.8906 180.838 23.7708 180.932 23.651C180.818 23.4999 180.703 23.3489 180.594 23.1979C180.13 23.3645 179.64 23.4843 179.213 23.7135C177.302 24.7083 175.39 25.7083 173.495 26.7395C151.443 38.6718 129.26 50.3749 107.5 62.8385C106.135 63.6197 104.687 64.2395 103.297 64.9687C103.005 65.1197 102.792 65.4322 102.552 65.6614C102.62 65.7864 102.677 65.9218 102.745 66.052C102.854 66.026 102.969 66.0052 103.078 65.9895C101.708 66.8593 100.057 67.3906 98.354 67.1718C98.4894 67.1041 98.6248 66.9947 98.7759 66.8489C97.9113 66.5156 97.2446 66.2291 96.5623 65.9895C77.9634 59.5676 59.3436 53.1562 40.7498 46.7135C35.3019 44.8281 29.8957 42.8281 24.4478 40.9322C23.4373 40.5781 22.3332 40.4843 21.2655 40.2708C21.229 40.3801 21.2082 40.4687 21.1717 40.5416Z" fill="#D7995F"/>
<path d="M197.167 117.25C196.406 110.984 195.719 104.713 194.838 98.4635C193.687 90.1926 192.49 81.927 191.125 73.6874C189.443 63.552 187.568 53.4426 185.807 43.3176C185.672 42.5416 185.349 41.6458 186.135 40.9895L185.922 39.8489C185.302 40.3801 184.667 40.9114 183.969 41.3124C178.599 44.3645 173.193 47.3645 167.802 50.3853C167.245 50.6926 166.682 51.0051 166.01 51.3801C166.312 54.2603 166.588 57.1562 166.932 60.0364C167.693 66.4739 168.469 72.9062 169.24 79.3385C169.875 84.5572 170.505 89.7708 171.135 94.9895C171.213 95.5885 171.463 96.2291 170.865 96.6822L171 97.7395C173.37 96.3489 175.875 96.8697 178.359 97.2239C178.766 97.2812 179.281 97.8072 179.417 98.2291C179.724 99.1458 179.708 100.13 179.161 101.312C178.766 100.807 178.427 100.505 178.25 100.125C177.854 99.2551 177.208 99.052 176.297 98.9687C174.125 98.7655 172.229 99.2291 170.338 100.396C159.838 106.828 149.286 113.167 138.74 119.516C133.245 122.833 127.729 126.104 122.213 129.385C121.573 129.76 120.901 130.099 120.083 130.547C120.266 133.411 120.453 136.354 120.656 139.552C121.344 139.182 121.859 138.948 122.328 138.651C140.479 127.615 158.562 116.484 176.292 104.771C177.333 104.078 178.463 103.495 179.547 102.865C179.667 102.958 179.786 103.042 179.901 103.135C179.802 103.531 179.818 104.047 179.573 104.297C178.859 105.047 178.109 105.818 177.24 106.365C175.526 107.443 173.812 108.521 172.099 109.604L172.208 110.401C173.13 110.875 173.099 111.594 173.141 112.255C173.349 115.875 173.552 119.495 173.766 123.109C173.865 124.802 173.974 126.49 174.073 128.187C174.161 129.63 174.208 129.781 175.547 130.161C177.849 130.807 180.172 131.375 182.479 131.99C183.213 132.182 184.021 132.26 184.651 132.63C185.745 133.271 186.578 132.974 187.521 132.333C191.036 129.932 194.573 127.573 198.088 125.208C197.76 122.453 197.474 119.849 197.167 117.25ZM174.479 103.005C173 103.943 171.5 104.844 170.01 105.766C155.953 114.443 141.901 123.12 127.838 131.786C126.844 132.401 125.844 133 124.807 133.531C124.224 133.828 123.557 133.969 122.927 134.182C122.885 134.088 122.844 133.995 122.792 133.901C122.943 133.745 123.062 133.542 123.24 133.422C139.974 122.974 156.713 112.536 173.453 102.104C174.068 101.724 174.667 101.146 175.505 101.547C175.682 102.443 174.984 102.687 174.479 103.005ZM186.437 131.281C185.588 131.068 185.703 130.448 185.646 129.963C185.307 127.005 185.005 124.047 184.677 121.088C184.021 115.047 183.37 109.01 182.687 102.974C182.099 97.7551 181.526 92.526 180.838 87.3176C180.187 82.401 179.354 77.4999 178.672 72.5833C177.948 67.3801 177.333 62.1614 176.594 56.9583C176.297 54.8853 175.792 52.8385 175.396 50.7708C175.312 50.3385 175.286 49.8958 175.229 49.4062C176.12 49.4478 176.146 50.0468 176.25 50.526C176.937 53.7812 177.713 57.0208 178.25 60.2916C179.667 68.9322 181.042 77.5833 182.312 86.2447C183.068 91.3905 183.641 96.5468 184.266 101.708C184.937 107.276 185.62 112.838 186.203 118.411C186.573 121.953 186.766 125.51 186.995 129.062C187.062 129.854 187.052 130.682 186.437 131.281ZM74.0364 132.849C61.5155 126.865 49.0676 120.713 36.5989 114.625C34.8749 113.786 33.1562 112.906 31.427 112.062C30.9218 111.812 30.4687 111.542 29.802 111.844C27.901 112.724 25.9478 113.479 23.8853 114.338C23.7655 115.687 23.6562 117.016 23.5364 118.344C23.4895 118.927 23.5364 119.661 22.7395 119.651C21.8645 119.646 21.8124 118.875 21.8645 118.219C21.9478 117.115 22.0572 116 22.2343 114.911C22.4114 113.859 23.1405 113.12 24.0103 112.635C25.6874 111.708 27.4218 110.859 29.1718 110.083C29.5937 109.896 30.2343 109.963 30.6978 110.135C32.203 110.698 33.7187 111.255 35.1822 111.911L35.276 110.865C34.276 110.755 34.6458 109.781 34.703 109.146C35.2343 102.974 35.776 96.8124 36.3645 90.6458C36.9687 84.3645 37.6249 78.0885 38.2655 71.8176C38.5208 69.3801 38.7708 66.9426 39.0416 64.3541C32.9947 62.0468 26.9218 59.7187 20.6666 57.3333C20.4895 58.4947 20.4062 59.5885 20.151 60.6353C19.1926 64.6093 18.1926 68.5728 17.1978 72.526C13.2395 88.2603 9.31763 104.01 5.28117 119.729C4.33846 123.396 3.01034 126.953 1.78638 130.802C2.16658 131.156 2.64575 131.641 3.177 132.062C6.45304 134.719 10.0312 136.922 13.7291 138.937C14.2655 139.234 14.7499 139.344 15.3645 139.078C17.2812 138.245 19.2864 137.578 21.1614 136.667C23.8905 135.344 26.5364 133.859 29.2291 132.479C30.0416 132.062 30.4583 131.51 30.5208 130.578C30.5885 129.594 30.7708 128.615 30.9583 127.635C31.0572 127.099 31.3541 126.526 31.9843 126.75C32.0103 126.76 32.0364 126.776 32.0624 126.786C32.0937 126.542 32.1353 126.297 32.1718 126.042C30.1249 125.083 28.078 124.13 26.0208 123.177C25.3905 122.88 24.7864 122.521 24.2395 122.088C24.0208 121.922 23.8489 121.432 23.9426 121.213C24.0364 120.984 24.5155 120.734 24.7655 120.781C25.4999 120.917 26.2395 121.12 26.9062 121.443C33.8437 124.76 40.7083 128.281 47.7239 131.432C60.7499 137.292 73.8697 142.943 86.953 148.677C87.7864 149.036 88.6666 149.318 89.5885 149.661C89.5885 146.161 89.5885 142.859 89.5885 139.62C84.2916 137.318 79.0833 135.26 74.0364 132.849ZM16.4843 127.276C16.0416 129.568 15.5833 131.865 15.1093 134.146C15.026 134.578 14.8228 134.974 14.6353 135.479C13.5624 135.031 13.8228 134.427 13.9114 133.87C14.6874 129.5 15.4218 125.125 16.2447 120.766C19.2968 104.703 22.8333 88.7499 26.677 72.8645C27.203 70.7135 27.8176 68.578 28.4635 66.453C28.6926 65.7135 29.1197 65.0364 29.4478 64.3385C29.5937 64.3801 29.7343 64.4166 29.8801 64.4583C29.8801 64.8697 29.953 65.2968 29.8697 65.6874C28.8749 70.1301 27.8853 74.5728 26.8333 78.9999C22.9999 94.9947 19.5989 111.104 16.4843 127.276ZM87.0728 142.838C86.3333 142.661 85.5676 142.562 84.8593 142.286C80.7968 140.667 76.6822 139.167 72.7083 137.333C59.9426 131.448 47.2343 125.448 34.5103 119.484C31.8176 118.219 29.1405 116.927 26.4687 115.615C25.9999 115.385 25.2968 115.292 25.2968 114.307C25.8385 114.417 26.3489 114.443 26.8072 114.609C28.0624 115.073 29.3228 115.536 30.5364 116.104C43.5051 122.24 56.4322 128.458 69.4218 134.526C74.9114 137.088 80.5364 139.375 86.0937 141.797C86.4843 141.963 86.8385 142.224 87.2083 142.443C87.1666 142.588 87.1145 142.713 87.0728 142.838ZM186.74 37.9635C186.224 37.3958 186.005 36.7551 186.052 35.9635C186.234 32.3905 185.838 28.8489 185.333 25.3124C185.172 24.1926 184.979 23.078 184.786 21.8801C184.635 21.8333 184.484 21.7708 184.333 21.7239L180.667 24.026C180.469 24.302 180.266 24.5728 179.995 24.7603C178.995 25.4583 177.974 26.1405 176.896 26.7135C158.146 36.776 139.365 46.8072 120.62 56.8853C116.099 59.3124 111.661 61.8905 107.172 64.3905C106.307 64.8697 105.432 65.3333 104.51 65.703C104.073 65.8801 103.578 65.9322 103.088 66.0051C101.719 66.8749 100.068 67.4062 98.3645 67.1874C97.7655 67.5103 97.2864 67.1978 96.8489 67.0624C91.4583 65.3593 86.0468 63.7499 80.6978 61.9114C62.578 55.6718 44.4791 49.3541 26.3853 43.0624C24.953 42.5676 23.5208 42.0676 22.1093 41.5364C21.7291 41.3958 21.401 41.1145 21.0468 40.9062C21.0885 40.7864 21.1405 40.6614 21.1822 40.5416L18.7239 39.5989C18.4374 40.1145 18.4114 40.7603 18.4947 41.8072C18.6041 43.2603 18.5364 44.7239 18.5937 46.1926C18.6978 48.5885 18.8489 50.9739 18.9478 53.3697C18.9843 54.1353 19.1926 54.5833 20.0208 54.9114C43.2083 63.9478 66.651 72.2655 90.526 79.3489C93.0937 80.1041 95.6458 80.9426 98.1978 81.7499C98.7499 81.927 99.4739 82.1458 99.2812 82.8645C99.0364 83.7916 98.2812 83.3801 97.6822 83.203C94.4999 82.2239 91.3176 81.2551 88.1353 80.276L88.2187 82.5676C88.2343 82.5416 88.2499 82.5155 88.2708 82.4947C88.5051 82.7603 88.776 83.0155 88.9687 83.3124C89.052 83.4374 88.9999 83.6562 89.0103 83.8228C89.3541 90.8333 89.7083 97.8385 90.0364 104.844C90.4843 114.25 91.0208 123.641 91.3072 133.052C91.6874 145.318 91.8541 157.599 92.1145 169.865C92.1145 169.984 92.1405 170.109 92.1093 170.213C91.4583 172.302 92.6562 173.422 94.2135 174.453C98.1614 177.052 102.088 179.698 106.01 182.328C106.635 182.75 107.224 183.213 107.911 183.719C112.495 180.896 116.26 176.854 120.437 173.271C120.766 173.422 120.974 173.62 121.083 173.838C122.036 172.833 122.245 171.292 122.198 169.781C122.177 169.781 122.161 169.792 122.146 169.792C121.448 169.88 121.042 169.333 120.922 168.76C120.635 167.338 120.349 165.896 120.25 164.443C119.62 155.474 119.052 146.49 118.422 137.51C117.792 128.599 117.161 119.677 116.427 110.776C115.687 101.812 114.818 92.8541 114.01 83.8905C113.969 83.427 113.917 82.9374 114.021 82.4999C114.088 82.2239 114.396 81.8593 114.651 81.8176L114.109 78.3176C110.786 79.8958 107.458 81.4791 104.135 83.0572C103.552 83.328 102.953 83.6041 102.338 83.7135C102.036 83.7655 101.667 83.4426 101.328 83.2916C101.474 83.0051 101.583 82.6874 101.781 82.4426C101.917 82.2812 102.187 82.2291 102.396 82.1301C123.729 71.8333 144.578 60.6093 165.396 49.3124C171.49 45.9999 177.526 42.5676 183.615 39.2343C184.599 38.6978 185.719 38.401 186.781 37.9947C186.755 38.0051 186.75 37.9895 186.74 37.9635ZM102.297 87.7395C102.516 90.302 102.708 92.8541 102.922 95.4166C103.74 105.37 104.547 115.318 105.385 125.26C106.286 135.911 106.948 146.578 107.167 157.266C107.266 162 107.224 166.729 107.224 171.458C107.224 172.042 107.036 172.615 106.937 173.224C105.937 172.958 105.943 172.312 105.901 171.755C105.724 169.484 105.521 167.219 105.437 164.943C105.068 154.969 104.849 144.974 104.359 135.005C104.057 128.766 103.323 122.552 102.859 116.328C102.297 108.818 101.807 101.302 101.302 93.7916C101.177 91.927 101.094 90.0572 101.042 88.1926C101.026 87.6041 101.167 87.0103 101.245 86.3958C102.297 86.5208 102.245 87.1718 102.297 87.7395ZM101.297 79.052C101.026 78.9999 100.729 78.5312 100.661 78.203C100.552 77.703 100.656 77.1614 100.62 76.6405C100.51 74.8437 100.375 73.0572 100.266 71.2708C100.234 70.7291 100.26 70.1874 100.26 69.5468C101.396 69.677 101.49 70.3489 101.531 70.8749C101.74 73.2916 101.87 75.7239 102.01 78.151C102.036 78.6197 101.917 79.1718 101.297 79.052Z" fill="#CB915A"/>
<path d="M170.614 96.8333C170.208 96.651 169.989 96.3698 169.854 96.0521L168.208 95.6979C168.307 95.8177 168.417 95.9479 168.542 96.1042C168.161 96.2604 167.812 96.5469 167.5 96.5156C166.463 96.4063 165.417 96.2708 164.417 95.9948C155 93.3281 145.599 90.6042 136.172 87.9635C132.635 86.9792 129.052 86.1927 125.495 85.2813C124.307 84.9792 123.088 84.7031 122.01 84.151C120.703 83.4948 119.646 83.599 118.463 84.375C117.75 84.8438 116.89 85.1042 115.828 85.5781C116.604 93.026 117.396 100.615 118.187 108.208C119.443 107.917 121.125 106.776 123.224 104.828C122.703 100.729 122.187 96.6927 121.667 92.5677C120.484 91.776 118.802 91.901 117.625 90.8229C118.219 89.974 118.844 90.2813 119.427 90.4427C123.292 91.5469 127.161 92.6094 131.005 93.7917C140.917 96.8281 150.818 99.9063 160.713 103.005C161.594 103.286 162.255 103.161 163 102.688C165.573 101.068 168.187 99.5417 170.734 97.8906C170.818 97.8281 170.911 97.7865 170.995 97.7396L170.859 96.6823C170.781 96.7344 170.708 96.7917 170.614 96.8333ZM161.771 100.125C160.687 99.9115 159.609 99.651 158.547 99.349C146.354 95.8333 134.172 92.3177 121.984 88.776C120.792 88.4271 119.515 88.1563 118.375 87.1563C118.76 86.9635 118.937 86.7917 119.047 86.8177C133.359 90.9063 147.687 95.0156 161.989 99.1354C162.234 99.2031 162.422 99.4583 162.844 99.7865C162.338 99.9531 162.026 100.177 161.771 100.125ZM36.479 112.521C37.5571 113.057 38.5259 113.219 39.6144 112.833C40.8748 112.375 42.1561 111.979 43.38 111.432C55.354 106.078 67.3071 100.682 79.2811 95.3281C82.0467 94.0885 84.8592 92.9635 87.7811 91.7344C87.8071 91.3438 87.8748 90.8906 87.8644 90.4427C87.8123 88.4531 87.7394 86.474 87.6717 84.4844C87.6613 84.1302 87.5884 83.7552 87.6873 83.4375V83.4271L86.1613 84C86.2134 84.0938 86.255 84.1875 86.3071 84.2708C86.0884 84.5521 85.9373 84.9271 85.6509 85.0833C84.8332 85.5208 83.9738 85.901 83.104 86.2448C68.5623 91.9531 54.0155 97.6458 39.4686 103.344C38.6561 103.667 37.8384 103.979 36.9373 104.323C36.7082 105.969 36.5155 107.635 36.2394 109.297C36.1248 109.922 36.255 110.969 35.2603 110.859L35.1665 111.901C35.6144 112.099 36.0519 112.302 36.479 112.521ZM84.2707 88.9115C84.5988 88.7552 85.0259 88.8438 85.6925 88.7917C85.4582 89.3385 85.4061 89.7865 85.1613 89.974C84.6144 90.3854 83.9894 90.7292 83.3488 91.0104C69.7082 96.8958 56.0571 102.771 42.4009 108.63C41.4425 109.047 40.4478 109.526 39.0259 109.297C54.2811 102.417 69.2707 95.6458 84.2707 88.9115ZM114.651 81.8333L114.109 78.3333C115.948 77.4688 117.781 76.5885 119.62 75.724C120.125 75.4844 120.687 75.3594 121.229 75.1719C121.229 75.1823 121.229 75.1927 121.219 75.1927C121.203 75.1979 121.187 75.2135 121.167 75.224C121.177 75.224 121.193 75.2344 121.203 75.2344C120.974 76.0313 120.63 76.8281 120.562 77.6354C120.453 79.0208 120.526 80.4167 120.526 81.9271C118.667 81.651 117.463 83.3594 115.755 83.7969C115.635 83.2344 115.609 82.7448 115.417 82.3385C115.297 82.0885 114.885 81.7917 114.661 81.8281C114.661 81.8333 114.651 81.8333 114.651 81.8333Z" fill="#BA8552"/>
</svg>
