<svg width="139" height="24" viewBox="0 0 139 24" fill="none" xmlns="http://www.w3.org/2000/svg">
<mask id="mask0_283_107519" style="mask-type:luminance" maskUnits="userSpaceOnUse" x="0" y="7" width="62" height="14">
<path d="M0 7.3125H61.901V20.6458H0V7.3125Z" fill="white"/>
</mask>
<g mask="url(#mask0_283_107519)">
<path fill-rule="evenodd" clip-rule="evenodd" d="M0.15625 13.6927C1.95834 12.224 3.95834 11.1667 6.15105 10.4167C8.34897 9.67188 10.5417 9.47917 13.1979 9.28646C15.7604 9.02083 17.7344 9.04688 21.5625 9.06771C25.3646 9.11979 31.724 9.21354 35.6771 9.35938C39.5261 9.35938 42.573 9.38542 44.4532 9.43229C46.1563 9.40625 45.9167 9.43229 46.448 9.50521C46.9376 9.52604 47.3751 9.50521 47.7657 9.69792C48.0834 9.83854 48.3542 10.224 48.6667 10.3958C48.9845 10.4688 49.3751 10.4167 49.7397 10.25C49.9115 9.59896 50.1095 9.06771 50.422 8.75521C50.6199 8.36979 50.6928 8.27604 51.4011 8.20313C52.0834 8.10937 53.0574 8.10937 54.7136 8.20313C56.349 8.17708 58.4688 8.22917 61.1772 8.25L61.4897 17.4271C60.9584 17.6927 59.9063 17.9584 58.2501 18.125C56.5418 18.2188 55.0574 18.2917 51.5209 18.4375C47.8386 18.5573 41.698 18.8229 37.0417 19.0417C32.4063 19.2344 27.823 19.5 24.0469 19.6406C20.1719 19.6927 17.125 19.8594 14.3438 19.5938C11.5417 19.2813 9.42189 18.7031 7.51564 18.0521C5.56772 17.3281 4.00521 16.4636 2.83855 15.7396C1.56771 14.9688 0.739584 14.3177 0.15625 13.6927Z" fill="black" stroke="black" stroke-width="0.0121311" stroke-miterlimit="10"/>
</g>
<path fill-rule="evenodd" clip-rule="evenodd" d="M60.8327 8.58872C59.3223 8.54184 57.9577 8.46893 56.64 8.46893C55.3483 8.46893 53.8848 8.44288 53.0098 8.49497C52.0566 8.42205 51.4733 8.36997 51.0566 8.61476C50.5723 8.88039 50.3744 9.40643 50.2025 10.1043C49.9629 10.6825 49.9369 11.2137 49.8639 12.3439C49.7441 13.3804 49.6921 16.0523 49.6191 16.4637C49.5202 16.7762 49.2806 15.2814 49.2806 14.4898C49.2285 13.6721 49.3275 12.2241 49.3014 11.646C49.1816 11.021 49.0358 11.1408 48.765 10.9012C48.4004 10.5887 47.9369 10.2241 47.4733 10.0835C47.0098 9.93768 47.4994 9.8908 46.1087 9.93768C44.5462 9.83872 41.6244 9.77101 38.8431 9.71893C36.0879 9.64601 32.5306 9.55226 29.7754 9.52622C26.8744 9.50539 24.3171 9.4533 21.9993 9.47934C19.6816 9.40643 17.8066 9.28664 16.0723 9.38559C14.2441 9.40643 13.0046 9.64601 11.416 9.91164C9.75977 10.1304 7.95768 10.1773 6.4681 10.7085C4.93164 11.1408 3.27539 12.1512 2.34831 12.7293C1.37435 13.2137 0.884765 13.5731 0.791016 13.8127C1.20247 14.3179 1.98372 14.7762 3.0306 15.4533C4.05664 16.0054 5.32227 16.87 7.10352 17.5002C8.81185 18.0523 11.2493 18.6773 13.3952 19.0158C15.4629 19.3023 17.0514 19.1096 19.7337 19.1825C22.3379 19.1825 25.5098 19.0887 29.3379 18.9898C33.2389 18.7971 39.015 18.4846 42.8171 18.3179C46.4264 18.1252 49.2285 18.0262 51.5202 18.0262C53.765 17.9325 55.3483 17.9064 56.7389 17.8596C58.1296 17.7398 59.0775 17.6668 59.8848 17.5471C60.6139 17.4273 61.0046 17.2814 61.1504 17.1148C61.0566 14.271 60.9629 11.4325 60.8379 8.58872H60.8327Z" fill="#A1A1A1"/>
<path fill-rule="evenodd" clip-rule="evenodd" d="M3.69141 11.9584C4.27474 11.4792 5.02995 11.0938 5.95703 10.8021C6.83724 10.4688 7.8112 10.3438 9.07682 10.1511C10.3216 9.91148 12.0039 9.69794 13.3685 9.59898C14.6602 9.43232 15.2227 9.38544 16.7591 9.3594C18.2435 9.28648 20.2695 9.3594 22.1706 9.38544C23.8997 9.3594 25.4622 9.40627 27.6029 9.43232C29.8008 9.45315 32.1393 9.45315 35.0143 9.52607C33.5768 9.57815 31.6289 9.64586 28.8945 9.74482C26.1654 9.76565 21.8529 9.74482 18.7799 9.86461C15.5612 9.89065 12.4414 10.0104 10.2695 10.224C8.12891 10.3438 7.00391 10.7813 5.95703 11.0677C4.85807 11.3594 4.10286 11.625 3.69141 11.9584Z" fill="#C0C0C0"/>
<path fill-rule="evenodd" clip-rule="evenodd" d="M48.7644 10.9011C48.9102 10.8282 49.2019 11.1199 49.3738 11.4793C49.4727 11.6928 49.3477 11.9376 49.3998 12.4636C49.3477 12.922 49.2279 13.9845 49.3269 14.6095C49.3738 15.2345 49.5665 15.7918 49.6394 16.1772C49.5925 16.4168 49.5456 16.5626 49.3998 16.5105C49.2019 16.4636 48.9831 16.5626 48.8373 15.8855C48.6446 15.1147 48.4936 12.922 48.4936 12.1043C48.4779 11.2605 48.5977 10.9272 48.7696 10.9011H48.7644Z" fill="#808080"/>
<mask id="mask1_283_107519" style="mask-type:luminance" maskUnits="userSpaceOnUse" x="84" y="0" width="42" height="13">
<path d="M84.5664 0H125.9V12.6458H84.5664V0Z" fill="white"/>
</mask>
<g mask="url(#mask1_283_107519)">
<path fill-rule="evenodd" clip-rule="evenodd" d="M85.0872 3.67712C86.0143 2.83337 87.1862 2.20837 88.7956 1.6042C90.306 0.927115 91.5977 0.328156 94.4466 0.182322C97.2539 0.015655 100.931 0.354197 105.858 0.833365C110.78 1.21878 116.587 1.84378 123.655 2.71358L124.655 2.92712L123.093 12.1771C122.311 12.224 121.655 12.2501 121.02 12.2501C120.316 12.224 119.728 12.2709 119.264 12.0313C118.801 11.6719 118.535 10.8542 118.363 10.323C118.119 9.7188 118.119 9.11984 117.9 8.87505C117.608 8.63546 117.098 8.87505 116.827 8.94796C116.587 8.94796 116.415 9.0938 116.124 9.11984C115.707 9.0938 116.296 9.14067 114.488 9.06776C112.561 9.02088 108.322 8.87505 105.15 8.73442C101.884 8.54171 98.0352 8.25005 95.4727 7.96359C92.8893 7.62504 91.3998 7.14067 90.0612 6.80733C88.6966 6.46879 87.9675 6.0365 87.207 5.60421C86.3737 5.099 85.6706 4.42191 85.082 3.67712H85.0872Z" fill="black" stroke="black" stroke-width="0.0121311" stroke-miterlimit="10"/>
</g>
<mask id="mask2_283_107519" style="mask-type:luminance" maskUnits="userSpaceOnUse" x="84" y="0" width="41" height="13">
<path d="M84.5664 0H124.566V12.6458H84.5664V0Z" fill="white"/>
</mask>
<g mask="url(#mask2_283_107519)">
<path fill-rule="evenodd" clip-rule="evenodd" d="M85.4053 3.67709C86.4053 3.04688 87.2594 2.52084 88.2594 2.08855C89.1605 1.65105 90.0147 1.26563 91.0147 1.02605C91.9626 0.713546 92.5511 0.494795 93.9886 0.473962C95.4001 0.401045 97.1345 0.44792 99.3793 0.614587C101.52 0.666671 103.838 0.906254 107.176 1.2448C110.588 1.5573 116.468 2.1823 119.442 2.56772C122.317 2.90626 123.827 3.07292 124.244 3.17188L122.879 11.8854C121.952 11.9844 121.218 11.9584 120.681 12.0104C120.098 12.0104 119.806 12.1042 119.536 11.9115C119.197 11.599 118.952 10.974 118.806 10.5886C118.661 10.1771 118.463 9.89065 118.489 9.62502C118.343 9.45315 118.244 9.06773 118.197 8.27606C118.15 7.47918 118.051 6.37501 118.098 4.95314C117.978 5.19272 117.832 5.72397 117.759 6.27606C117.661 6.82814 117.541 7.5521 117.489 8.44273C117.15 8.63544 116.713 8.80731 116.077 8.85419C115.468 8.85419 115.124 8.73439 113.733 8.68231C112.202 8.56252 109.421 8.46877 107.176 8.39585C104.864 8.22919 102.202 8.29689 100.134 8.15627C98.1084 8.01043 96.3793 7.8646 94.8428 7.62502C93.2595 7.33335 91.598 7.04689 90.4313 6.66147C89.2126 6.27606 88.0928 5.84376 87.3324 5.35939C86.4521 4.83334 85.8428 4.30209 85.4053 3.67709Z" fill="#A1A1A1" stroke="black" stroke-width="0.0121311" stroke-miterlimit="10"/>
</g>
<path fill-rule="evenodd" clip-rule="evenodd" d="M85.4062 3.67725C86.3333 4.42204 87.3594 5.09912 88.5781 5.60433C89.75 6.05745 90.4323 6.396 92.599 6.80745C94.6979 7.2137 97.5 7.69808 101.109 8.15641C99.4479 8.20329 97.8646 8.0835 96.2552 7.89079C94.6458 7.62516 92.9896 7.3387 91.5521 6.92725C90.0156 6.49495 88.3594 5.84391 87.3333 5.35954C86.2865 4.78141 85.6771 4.25537 85.4062 3.67725Z" fill="#C0C0C0"/>
<path fill-rule="evenodd" clip-rule="evenodd" d="M93.0098 1.0729C94.4264 1.67707 96.0358 2.1354 97.9368 2.18228C99.8379 2.22915 101.911 2.01561 104.348 1.53124C102.984 1.1979 101.4 1.0729 99.4941 0.979154C97.6191 0.859362 95.4264 0.953114 93.015 1.0729H93.0098Z" fill="#808080"/>
<path fill-rule="evenodd" clip-rule="evenodd" d="M92.6973 1.14591C94.6712 1.21883 96.3066 1.36466 97.6973 1.3855C98.9889 1.43758 99.791 1.36466 100.864 1.43758C101.911 1.48445 103.109 1.5105 104.255 1.60425C103.01 1.29175 101.765 1.12508 100.426 1.00008C99.0098 0.880287 97.6452 0.859453 96.3327 0.93237C94.9889 0.953204 93.8691 1.02612 92.6973 1.14591Z" fill="black" stroke="black" stroke-width="0.0121311" stroke-miterlimit="10"/>
<path fill-rule="evenodd" clip-rule="evenodd" d="M59.1758 4.88021C60.5872 4.27605 62.5404 3.89063 65.2956 3.45834C68.0508 3.02604 72.0977 2.6875 75.3633 2.44792C78.53 2.10938 82.0196 1.82292 84.0404 1.67708C85.9414 1.50521 85.7748 1.53125 86.8217 1.65104C87.8425 1.75 88.9154 2.03646 90.1394 2.42188L90.4519 4.85417L89.1133 5.62501C88.8685 6.27605 88.5508 6.90105 87.9675 7.59897C87.3789 8.27605 86.405 9.11981 85.7019 9.74481C84.8477 10.2969 84.0925 10.6823 83.431 10.9948C82.8008 11.2604 82.2123 11.4531 81.7748 11.4792C81.5769 10.4636 81.3373 9.57293 81.2383 8.80731C81.1185 8.01043 81.0196 7.21355 80.9466 6.78126C80.7487 6.27605 80.7279 5.96355 80.3112 5.84376C79.8008 5.72397 79.3633 5.69792 78.2383 5.86459C77.0456 5.91667 74.78 6.08334 73.6081 6.27605C72.4883 6.34897 71.806 6.34897 71.2904 6.73438C70.6081 7.04689 70.0977 7.83855 69.9518 8.46876C69.8529 9.09376 70.0248 9.79168 70.4623 10.3698C70.8268 10.8281 71.4883 11.2865 72.1445 11.4792C72.707 11.6459 73.5091 11.5469 74.0977 11.4531C74.6081 11.2344 75.1914 10.7813 75.556 10.7292C75.8529 10.7084 76.0456 10.974 76.0456 11.3334C75.9727 11.599 75.655 12.1042 75.1914 12.4636C74.681 12.7761 74.0196 13.0886 73.1185 13.3073C72.1706 13.4271 70.78 13.6198 69.5143 13.6198C68.1966 13.599 66.832 13.6459 65.4154 13.5C63.3425 10.6354 61.2695 7.77085 59.1758 4.88021Z" fill="black" stroke="black" stroke-width="0.0121311" stroke-miterlimit="10"/>
<path fill-rule="evenodd" clip-rule="evenodd" d="M60.0254 4.92726C61.6869 4.49497 63.5879 4.10955 65.8275 3.77101C67.9733 3.43247 70.5827 3.14601 73.265 2.90642C75.9681 2.61476 79.7233 2.28142 81.8952 2.15642C83.989 1.96371 84.6244 1.79705 85.6713 1.84392C86.6504 1.82309 86.9681 2.0158 87.7442 2.15642C88.4525 2.30226 89.1348 2.42205 89.89 2.61476L90.1088 4.6408L88.5723 5.79705C88.3067 6.44289 87.9421 7.0731 87.4786 7.67206C86.9161 8.25018 86.3067 8.90123 85.7442 9.35956C85.2338 9.79185 84.6713 10.0314 84.1608 10.3439C83.4786 10.6616 82.8692 10.8544 82.041 11.12C81.8431 9.77102 81.7233 8.68769 81.5775 7.86477C81.4786 7.04706 81.3588 6.42206 81.2129 6.08351C81.041 5.62518 80.7025 5.53143 80.2858 5.43247C79.7754 5.33872 78.9942 5.3856 78.2129 5.48455C77.3588 5.45851 76.4317 5.53143 75.3379 5.6981C74.2181 5.81789 72.4629 5.98976 71.5827 6.30226C70.7077 6.56789 70.1921 6.85435 69.9473 7.43248C69.5827 7.98456 69.5827 8.9481 69.7546 9.67206C69.9264 10.3231 70.5567 11.0679 71.0983 11.4533C71.5567 11.7189 72.0931 11.8648 72.6087 11.8856C73.1452 11.8856 73.7285 11.8387 74.265 11.745C74.6765 11.5991 74.9733 11.3127 75.239 11.2606C75.4577 11.1408 75.6556 11.1408 75.7285 11.2606C75.7494 11.3335 75.6088 11.6252 75.3848 11.8648C75.0671 12.0783 74.9212 12.37 74.291 12.6356C73.5306 12.8492 72.265 13.0679 71.4369 13.1877C70.6087 13.2137 70.3379 13.2137 69.4108 13.1877C68.416 13.1408 67.1712 13.2398 65.5879 13.2137C63.7337 10.4689 61.8796 7.6981 60.0254 4.92726Z" fill="#A1A1A1" stroke="black" stroke-width="0.0121311" stroke-miterlimit="10"/>
<path fill-rule="evenodd" clip-rule="evenodd" d="M87.0405 5.09906C86.9415 5.02614 84.9675 4.46885 83.9467 4.34906C82.8946 4.08343 81.655 3.9428 80.9727 4.01572C80.1915 4.08343 79.629 4.66156 79.6811 4.90635C79.7019 5.07301 80.4363 5.21885 81.2123 5.23968C81.9936 5.14593 83.0665 4.80739 84.1394 4.78656C85.1342 4.73447 87.0144 5.11989 87.0405 5.09906Z" fill="#808080"/>
<path fill-rule="evenodd" clip-rule="evenodd" d="M87.3796 5.31249C86.5775 4.7604 85.7494 4.39582 84.7962 4.1354C83.7702 3.81769 82.4056 3.57811 81.6296 3.6979C80.8483 3.77082 80.2389 4.10936 79.9941 4.71353C80.4577 4.39582 81.0202 4.27603 81.8744 4.25519C82.7285 4.22915 83.7962 4.3229 84.8223 4.54165C85.7233 4.68749 86.5775 4.97395 87.3796 5.31249Z" fill="black" stroke="black" stroke-width="0.0121311" stroke-miterlimit="10"/>
<mask id="mask3_283_107519" style="mask-type:luminance" maskUnits="userSpaceOnUse" x="52" y="1" width="87" height="23">
<path d="M52.5664 1.97925H138.858V23.4428H52.5664V1.97925Z" fill="white"/>
</mask>
<g mask="url(#mask3_283_107519)">
<path fill-rule="evenodd" clip-rule="evenodd" d="M132.119 15.1407C131.483 14.2969 130.973 13.4532 130.676 12.5157C130.338 11.5053 130.384 10.4167 130.265 9.55215C130.067 8.63548 129.947 8.10944 129.629 7.40631C129.239 6.61464 128.9 5.86464 128.046 5.16672C127.166 4.4011 126.535 3.55734 124.364 3.09901C122.072 2.56776 119.952 2.40109 114.707 2.32818C109.369 2.2813 99.6708 2.61463 92.8427 2.88026C85.8479 3.07297 79.0458 3.2188 73.6552 3.57818C68.2697 3.8438 64.0041 4.13547 61.051 4.7136C58.1291 5.21881 57.176 5.74485 56.0301 6.95318C54.7645 8.17715 53.9833 10.1771 53.7906 11.7449C53.5197 13.2605 54.202 14.5105 54.8114 15.6928C55.3739 16.7761 56.2281 17.5209 57.2749 18.1251C56.8583 18.8699 57.2229 19.474 58.3687 19.8334C59.4208 20.198 60.7593 20.198 64.0979 20.2918C67.4885 20.2449 72.1187 20.0522 78.3843 20.0053C84.6239 19.8595 95.426 19.8126 101.009 19.8595C106.421 19.9324 107.593 20.0261 110.832 20.2449C113.978 20.3647 117.686 20.4376 120.072 20.4584C122.39 20.3386 123.707 20.2188 124.947 19.9063C126.171 19.5938 127.072 19.0626 127.556 18.6772C128.02 18.198 128.02 17.6928 127.655 17.1615L128.119 16.7032C128.364 17.0417 128.582 17.3282 128.874 17.573C129.14 17.8126 129.483 17.8595 129.801 17.9792C130.046 18.4376 130.41 18.922 130.895 19.5209C131.384 20.0522 131.895 20.724 132.702 21.3543C133.457 21.9532 134.53 22.6511 135.358 23.0626C136.114 23.349 136.697 23.448 137.213 23.448C137.65 23.3751 137.921 23.2084 138.015 22.8438C138.233 22.7709 138.405 22.5782 138.53 22.3647C138.624 22.099 138.697 21.7397 138.65 21.2813C138.405 20.724 138.16 19.8595 137.65 19.2345C137.114 18.4845 136.358 17.8855 135.749 17.3282C135.114 16.8751 134.457 16.4636 133.874 16.198C133.249 15.8386 132.66 15.4532 132.124 15.1407H132.119ZM132.239 17.0157C132.166 17.1147 132.166 17.2345 132.046 17.3803C131.968 17.4532 131.775 17.6667 131.655 17.7657C131.775 18.0782 132.067 18.5105 132.629 19.0626C133.14 19.5938 134.285 20.4636 134.848 20.9168C135.312 21.2813 135.457 21.3543 135.848 21.5209C136.239 21.6668 136.676 21.7136 137.16 21.7605C137.14 21.4011 136.942 21.0157 136.577 20.5105C136.14 20.0053 135.405 19.1615 134.848 18.7292C134.259 18.198 133.629 17.7865 133.213 17.5001C132.801 17.2084 132.416 17.0157 132.244 17.0157H132.239ZM130.65 15.3803C130.457 15.2605 130.312 15.2345 130.114 15.3074C129.822 15.3542 129.629 15.5001 129.53 15.7397C129.41 15.8855 129.431 16.172 129.504 16.4167C129.556 16.1772 129.629 16.0313 129.728 15.9792C129.775 15.8855 129.848 15.8855 129.942 15.9792C129.994 15.8126 130.114 15.6928 130.213 15.6199C130.312 15.5001 130.457 15.4532 130.65 15.3803ZM131.093 16.7553C131.14 16.6303 131.265 16.5365 131.265 16.4636C131.312 16.3178 131.239 16.224 131.239 16.0782C131.067 16.224 131.02 16.2449 130.994 16.4167C130.973 16.5574 130.973 16.5834 131.093 16.7553Z" fill="black" stroke="black" stroke-width="0.0121311" stroke-miterlimit="10"/>
</g>
<mask id="mask4_283_107519" style="mask-type:luminance" maskUnits="userSpaceOnUse" x="129" y="15" width="10" height="9">
<path d="M129.9 15.3125H138.859V23.3125H129.9V15.3125Z" fill="white"/>
</mask>
<g mask="url(#mask4_283_107519)">
<path fill-rule="evenodd" clip-rule="evenodd" d="M132.458 16.4166C132.802 16.4375 133.166 16.5625 133.749 16.875C134.286 17.1614 135.046 17.5468 135.729 18.125C136.359 18.6562 136.994 19.427 137.432 20.052C137.822 20.5833 137.848 21.0885 137.968 21.4739C138.041 21.7604 138.015 21.9791 137.796 22.026C137.458 22.0729 136.723 21.9062 136.26 21.8073C135.775 21.5937 135.432 21.5677 134.968 21.1823C134.333 20.75 133.63 20.0989 133.14 19.6927C132.656 19.3073 132.458 19.1354 132.192 18.8229C131.749 18.3645 131.411 17.7656 131.166 17.3802C130.874 16.9948 130.755 16.8229 130.802 16.6093C130.775 16.3437 130.947 16.1041 131.213 15.8854C131.119 15.6927 131.046 15.6458 130.994 15.5468C130.947 15.5 130.775 15.4062 130.755 15.4531C130.484 15.4739 130.312 15.6198 130.239 15.7916C130.119 15.9114 130.02 16.0781 130.145 16.3906C130.213 16.6302 130.411 17.1614 130.729 17.6198C130.994 18.0312 131.364 18.6562 131.828 19.1354C132.213 19.5937 132.557 19.9323 133.119 20.4114C133.63 20.8958 134.192 21.3281 134.895 21.8073C135.578 22.2448 136.604 22.5052 137.213 22.7031C137.77 22.75 137.968 22.6041 138.26 22.4583C138.479 22.2656 138.505 22.026 138.604 21.8333C138.677 21.6406 138.552 21.4218 138.505 21.1823C138.359 20.776 138.161 20.2187 137.921 19.8125C137.677 19.3541 137.333 18.9687 136.994 18.5573C136.557 18.0989 136.067 17.6666 135.63 17.3541C135.067 16.9427 134.531 16.6823 134.114 16.4635C133.802 16.1979 133.432 16.151 133.286 16.052C132.947 15.9322 132.749 15.8593 132.437 15.8385C132.437 15.9791 132.484 16.1041 132.484 16.1979C132.458 16.2968 132.484 16.3698 132.458 16.4166Z" fill="#C0C0C0"/>
</g>
<mask id="mask5_283_107519" style="mask-type:luminance" maskUnits="userSpaceOnUse" x="129" y="13" width="10" height="11">
<path d="M129.9 13.9792H138.859V23.3126H129.9V13.9792Z" fill="white"/>
</mask>
<g mask="url(#mask5_283_107519)">
<path d="M132.458 16.4167C132.802 16.4376 133.166 16.5626 133.749 16.8751C134.286 17.1615 135.046 17.547 135.729 18.1251C136.359 18.6563 136.994 19.4272 137.432 20.0522C137.822 20.5834 137.848 21.0886 137.968 21.4741C138.041 21.7605 138.015 21.9793 137.796 22.0261C137.458 22.073 136.723 21.9063 136.26 21.8074C135.776 21.5938 135.432 21.5678 134.968 21.1824C134.333 20.7501 133.63 20.099 133.14 19.6928C132.656 19.3074 132.458 19.1355 132.192 18.823C131.749 18.3647 131.411 17.7657 131.166 17.3803C130.874 16.9949 130.755 16.823 130.802 16.6095C130.775 16.3438 130.947 16.1042 131.213 15.8855C131.119 15.6928 131.046 15.6459 130.994 15.547C130.947 15.5001 130.775 15.4063 130.755 15.4532C130.484 15.474 130.312 15.6199 130.239 15.7917C130.119 15.9115 130.02 16.0782 130.145 16.3907C130.213 16.6303 130.411 17.1615 130.729 17.6199C130.994 18.0313 131.364 18.6563 131.828 19.1355C132.213 19.5938 132.557 19.9324 133.119 20.4115C133.63 20.8959 134.192 21.3282 134.895 21.8074C135.578 22.2449 136.604 22.5053 137.213 22.7032C137.77 22.7501 137.968 22.6043 138.26 22.4584C138.479 22.2657 138.505 22.0261 138.604 21.8334C138.677 21.6407 138.552 21.422 138.505 21.1824C138.359 20.7761 138.161 20.2188 137.921 19.8126C137.677 19.3543 137.333 18.9688 136.994 18.5574C136.557 18.099 136.067 17.6668 135.63 17.3543C135.067 16.9428 134.531 16.6824 134.114 16.4636C133.802 16.198 133.432 16.1511 133.286 16.0522C132.947 15.9324 132.749 15.8595 132.437 15.8386C132.437 15.9792 132.484 16.1042 132.484 16.198C132.458 16.297 132.484 16.3699 132.458 16.4167Z" stroke="black" stroke-width="0.0121311" stroke-miterlimit="10"/>
</g>
<path fill-rule="evenodd" clip-rule="evenodd" d="M132.359 16.896C132.557 16.9429 132.849 17.0418 133.24 17.2814C133.604 17.5002 133.995 17.7658 134.505 18.172C134.896 18.5835 135.432 18.9689 135.823 19.4272C136.214 19.7866 136.406 20.146 136.677 20.4116C136.849 20.6304 136.995 20.87 137.115 21.1356C137.214 21.3752 137.286 21.5679 137.333 21.8075C137.432 21.8804 137.578 21.8595 137.677 21.8335C137.724 21.7397 137.844 21.8075 137.844 21.5939C137.797 21.3752 137.698 20.9689 137.552 20.6304C137.333 20.245 136.995 19.7137 136.724 19.4012C136.432 19.0158 136.094 18.6772 135.797 18.3908C135.339 18.0314 134.948 17.62 134.531 17.4272C134.115 17.2085 133.823 16.9481 133.557 16.896C133.167 16.7762 132.995 16.6095 132.776 16.5835C132.63 16.5106 132.438 16.4845 132.458 16.5106C132.438 16.6304 132.406 16.7554 132.359 16.896Z" fill="#C0C0C0"/>
<mask id="mask6_283_107519" style="mask-type:luminance" maskUnits="userSpaceOnUse" x="131" y="15" width="8" height="9">
<path d="M131.234 15.3125H138.859V23.3125H131.234V15.3125Z" fill="white"/>
</mask>
<g mask="url(#mask6_283_107519)">
<path d="M132.359 16.8959C132.557 16.9428 132.849 17.0417 133.24 17.2813C133.604 17.5 133.995 17.7657 134.505 18.1719C134.896 18.5834 135.432 18.9688 135.823 19.4271C136.214 19.7865 136.406 20.1459 136.677 20.4115C136.849 20.6303 136.995 20.8698 137.115 21.1355C137.214 21.3751 137.286 21.5678 137.333 21.8073C137.432 21.8803 137.578 21.8594 137.677 21.8334C137.724 21.7396 137.844 21.8073 137.844 21.5938C137.797 21.3751 137.698 20.9688 137.552 20.6303C137.333 20.2448 136.995 19.7136 136.724 19.4011C136.432 19.0157 136.094 18.6771 135.797 18.3907C135.339 18.0313 134.948 17.6198 134.531 17.4271C134.115 17.2084 133.823 16.948 133.557 16.8959C133.167 16.7761 132.995 16.6094 132.776 16.5834C132.63 16.5105 132.438 16.4844 132.458 16.5105C132.438 16.6303 132.406 16.7553 132.359 16.8959Z" stroke="black" stroke-width="0.0121311" stroke-miterlimit="10"/>
</g>
<path fill-rule="evenodd" clip-rule="evenodd" d="M137.896 22.823C137.724 23.0626 137.531 23.1824 137.312 23.2813C137.041 23.349 136.849 23.3022 136.432 23.2292C135.849 23.1095 135.239 22.823 134.505 22.4584C133.75 22.0001 132.849 21.2553 132.192 20.6772C131.484 19.9792 130.948 19.4011 130.583 18.849C130.192 18.3438 129.901 17.8855 129.802 17.573C129.656 17.1876 129.557 16.849 129.604 16.6563C129.531 16.3699 129.677 16.3699 129.75 16.297C129.802 16.198 129.875 16.1511 129.974 16.1511C129.901 16.172 129.922 16.4845 130.14 16.823C130.265 17.1147 130.677 17.9063 131.021 18.3647C131.338 18.797 131.703 19.3074 132.114 19.6928C132.411 20.0261 132.651 20.2188 133.114 20.6303C133.557 20.9688 134.14 21.547 134.776 21.9063C135.312 22.2188 135.994 22.4845 136.552 22.7032C137.01 22.8699 137.547 22.8438 137.89 22.823H137.896Z" fill="#C0C0C0"/>
<mask id="mask7_283_107519" style="mask-type:luminance" maskUnits="userSpaceOnUse" x="128" y="15" width="11" height="9">
<path d="M128.566 15.3125H138.858V23.4427H128.566V15.3125Z" fill="white"/>
</mask>
<g mask="url(#mask7_283_107519)">
<path d="M137.895 22.823C137.723 23.0626 137.53 23.1824 137.311 23.2813C137.04 23.3491 136.848 23.3022 136.431 23.2293C135.848 23.1095 135.238 22.823 134.504 22.4584C133.749 22.0001 132.848 21.2553 132.191 20.6772C131.483 19.9793 130.947 19.4011 130.582 18.849C130.191 18.3438 129.9 17.8855 129.801 17.573C129.655 17.1876 129.556 16.849 129.603 16.6563C129.53 16.3699 129.676 16.3699 129.749 16.297C129.801 16.198 129.874 16.1511 129.973 16.1511C129.9 16.172 129.921 16.4845 130.139 16.823C130.264 17.1147 130.676 17.9063 131.02 18.3647C131.337 18.797 131.702 19.3074 132.113 19.6928C132.41 20.0261 132.65 20.2188 133.113 20.6303C133.556 20.9688 134.139 21.547 134.775 21.9063C135.311 22.2188 135.994 22.4845 136.551 22.7032C137.009 22.8699 137.546 22.8438 137.889 22.823H137.895Z" stroke="black" stroke-width="0.0121311" stroke-miterlimit="10"/>
</g>
<path fill-rule="evenodd" clip-rule="evenodd" d="M130.484 12.3699C130.531 12.7553 130.723 13.0209 130.874 13.4272C130.994 13.7657 131.265 14.1303 131.484 14.5105C131.656 14.849 131.968 15.2345 132.14 15.573C132.265 15.8386 132.286 15.9793 132.312 16.2709C132.312 16.5365 132.213 16.6824 132.114 16.9688C131.994 17.1615 131.775 17.4011 131.557 17.5938L131.166 16.8959C131.312 16.7293 131.411 16.5365 131.458 16.3178C131.411 16.0522 131.338 15.7657 131.239 15.547C131.14 15.3074 130.947 15.1147 130.749 15.0678C130.505 14.9949 130.02 15.0678 129.848 15.1876C129.63 15.2605 129.458 15.4532 129.432 15.6668C129.312 15.7657 129.312 16.1772 129.338 16.3438C129.286 16.5105 129.385 16.6563 129.432 16.7761C129.385 16.8751 129.359 17.0157 129.458 17.2084C129.51 17.4011 129.604 17.547 129.749 17.8386C129.458 17.7397 129.119 17.5938 128.921 17.4011C128.676 17.1355 128.484 16.948 128.338 16.5626C128.583 16.3438 128.775 16.1251 129.02 15.8126C129.239 15.5001 129.338 15.1876 129.583 14.7761C129.702 14.3699 129.973 13.8126 130.114 13.4792C130.27 13.0938 130.395 12.6563 130.494 12.3699H130.484Z" fill="#C0C0C0" stroke="black" stroke-width="0.0121311" stroke-miterlimit="10"/>
<path fill-rule="evenodd" clip-rule="evenodd" d="M127.509 17.3281C127.681 17.5 127.754 17.7396 127.728 17.9583C127.702 18.1719 127.608 18.4635 127.244 18.7292C126.754 19.0156 126.191 19.3281 125.191 19.6667C124.098 19.8333 122.733 19.9792 121.29 20.099C119.853 20.1719 118.072 20.2448 116.806 20.2188C115.467 20.151 114.613 20.125 113.493 20.0521C112.348 19.9792 111.004 19.8854 109.738 19.7656C112.129 19.7865 114.342 19.7656 116.488 19.6927C118.634 19.6198 120.9 19.4479 122.535 19.2813C124.02 19.0625 124.9 18.7969 125.728 18.4844C126.556 18.151 127.119 17.7656 127.509 17.3281Z" fill="#C0C0C0" stroke="black" stroke-width="0.0121311" stroke-miterlimit="10"/>
<path fill-rule="evenodd" clip-rule="evenodd" d="M130.14 12.6825C130.02 12.9689 129.921 13.3075 129.848 13.5991C129.702 13.8647 129.577 14.1512 129.484 14.4637C129.385 14.7033 129.166 14.922 129.093 15.1148L126.604 14.922L126.801 12.4429C127.895 12.5158 129.015 12.5887 130.135 12.6825H130.14Z" fill="#FBFFD6" stroke="black" stroke-width="0.0121311" stroke-miterlimit="10"/>
<path fill-rule="evenodd" clip-rule="evenodd" d="M57.5209 18.4375C57.3959 18.5104 57.3959 18.6563 57.422 18.776C57.3959 18.9219 57.3959 19.0417 57.6876 19.2344C57.9584 19.375 58.323 19.5469 59.0574 19.7396C59.7136 19.8333 60.6668 19.9063 61.8074 19.9583C62.9324 19.9583 64.3439 20.0052 65.9532 20.0052C67.5626 19.9792 69.3647 19.9323 71.4637 19.8594C70.0991 19.7396 68.5626 19.6406 66.9532 19.5729C65.2709 19.5 62.9324 19.401 61.7136 19.3802C60.4949 19.2344 60.1043 19.2344 59.4949 19.0885C58.7866 18.9219 58.1251 18.7031 57.5157 18.4375H57.5209Z" fill="#C0C0C0" stroke="black" stroke-width="0.0121311" stroke-miterlimit="10"/>
<path fill-rule="evenodd" clip-rule="evenodd" d="M128.9 15.4011C128.51 15.8126 128.119 16.2448 127.63 16.7032C127.145 17.1355 126.775 17.5209 125.973 17.9584C125.119 18.2448 124.046 18.7761 122.39 18.9896C120.536 19.1824 117.833 19.2813 115.588 19.3751C113.322 19.4011 112.395 19.474 108.958 19.5001C105.421 19.5209 99.4733 19.4011 94.7702 19.5001C89.989 19.448 84.3587 19.6199 80.7754 19.6407C77.2181 19.6667 75.5827 19.6667 73.5098 19.6407C71.3431 19.5678 69.7337 19.448 68.0254 19.3751C66.3431 19.2813 64.7597 19.2344 63.2702 19.1355C61.6608 18.9896 59.666 18.849 58.4941 18.5105C57.2285 18.0053 56.5931 17.3803 55.9368 16.6303C55.2024 15.8386 54.7389 14.948 54.4472 14.0521C54.1764 13.1407 54.0097 12.25 54.2024 11.3803C54.2545 10.4428 54.791 9.43233 55.2493 8.63546C55.692 7.724 56.4212 6.97399 57.1764 6.39587C57.8587 5.79691 58.6139 5.57816 59.8327 5.2917C61.0045 4.90628 62.7337 4.66149 64.4681 4.46878C66.1504 4.2292 67.9056 4.20316 70.0983 4.13545C72.265 3.98961 74.5618 3.86982 77.5358 3.77086C80.4837 3.57815 84.0671 3.45836 87.6244 3.31253C91.0619 3.1719 94.2338 3.09899 98.4525 3.00003C102.666 2.83336 109.203 2.68753 112.687 2.66669C116.025 2.56774 117.025 2.68753 118.708 2.76044C120.343 2.83336 121.317 2.8542 122.583 3.09899C123.755 3.23961 124.9 3.4844 125.927 4.01045C126.927 4.56774 127.828 5.41149 128.531 6.27608C129.093 7.07295 129.484 7.83858 129.703 8.68233C129.9 9.47921 129.973 10.3438 130.02 10.9948C130.072 11.573 130.119 11.9844 130.072 12.224L126.437 11.9375L126.171 15.3334L128.9 15.4011Z" fill="#861A0D" stroke="black" stroke-width="0.0121311" stroke-miterlimit="10"/>
</svg>
