<svg width="308" height="272" viewBox="0 0 308 272" fill="none" xmlns="http://www.w3.org/2000/svg">
<mask id="mask0_284_107610" style="mask-type:luminance" maskUnits="userSpaceOnUse" x="0" y="0" width="308" height="272">
<path d="M0 0H307.714V271.99H0V0Z" fill="white"/>
</mask>
<g mask="url(#mask0_284_107610)">
<path fill-rule="evenodd" clip-rule="evenodd" d="M293.812 57.8803C285.75 72.646 275.469 85.198 270.094 102.641C279.833 106.026 282.036 91.271 284.817 83.922C288.463 74.2866 293.797 65.9324 296.265 57.8803C295.448 57.8803 294.63 57.8803 293.812 57.8803ZM197.312 22.8907C189.646 31.2345 176.76 45.1095 161.333 47.3022C149.646 48.9637 134.109 46.5262 126.166 42.422C121.541 40.0262 120.661 34.1407 115.536 34.2866C123.021 64.4741 182.911 71.3491 203.041 46.4897C208.823 39.3491 209.26 31.646 214.489 23.7032C205.974 24.8543 204.609 18.8855 198.13 18.0105C197.192 18.9689 197.208 20.8855 197.312 22.8907ZM109.812 18.0105C110.63 15.896 111.25 12.5574 108.995 11.5001C109.495 13.448 107.969 17.4012 109.812 18.0105ZM10.8643 11.5001C6.11434 35.797 13.5727 64.5678 15.7706 84.7397C16.3748 82.9012 20.3539 84.4168 22.3123 83.922C20.9841 69.771 21.5102 51.7866 19.8591 34.2866C19.1039 26.2918 17.505 16.8178 12.4998 11.5001C11.9529 11.5001 11.406 11.5001 10.8643 11.5001ZM20.6768 9.86991C21.6196 36.8647 25.7393 58.2189 26.4008 83.922C36.531 84.2501 49.2914 77.8647 57.4737 83.922C54.9008 100.688 52.5518 119.49 51.7498 138.443C51.5154 143.979 52.6925 150.052 51.7498 155.531C50.4268 163.245 44.3071 169.417 43.5727 176.693C42.9633 182.688 45.2081 188.323 45.2081 193.776C45.2081 207.776 37.3539 219.547 38.6664 233.651C56.4946 241.537 75.3123 251.787 98.3643 253.995C120.458 256.11 130.729 262.636 152.338 263.761C162.208 264.271 167.088 261.896 173.599 261.318C187.26 260.11 201.927 264.005 215.307 261.318C221.166 255.761 215.844 248.156 217.76 240.974C218.859 236.849 223.453 235 224.302 231.214C225.63 225.261 221.38 218.563 221.031 212.495C220.573 204.557 222.771 194.886 223.484 185.641C225.583 158.297 227.536 117.005 238.203 94.5001C243.229 96.2814 248.771 97.547 255.375 97.7553C258.817 99.2137 259.203 103.708 265.187 102.641C272.875 85.3283 283.265 68.2293 290.541 53.0001C272.166 50.896 266.156 30.698 249.651 26.9585C240.469 24.8803 230.844 29.4012 219.396 25.3335C213.646 32.9012 209.812 42.3803 204.677 50.5574C189.958 63.1564 159.625 69.271 136.802 61.1355C117.713 54.3335 108.62 32.1407 104.906 11.5001C80.3331 7.41158 44.1716 5.89075 20.6768 9.86991ZM189.135 11.5001C198.791 3.91158 206.541 13.3178 215.307 16.3855C229.094 21.2032 244.073 15.4168 258.646 20.448C266.937 23.3126 272.692 32.6772 279.911 38.3543C289.442 45.8543 301.885 45.9168 307.713 54.6251C306.515 60.8387 301.989 70.573 297.083 75.7866C294.026 83.5678 291.515 94.6616 287.271 103.453C285.495 107.13 281.026 113.63 277.458 114.844C267.083 118.375 255.51 106.719 244.745 104.266C236.515 129.432 234.672 165.958 231.661 196.219C231.307 199.771 230.557 205.057 230.844 208.427C231.239 213.151 234.567 217.776 234.932 222.261C235.479 228.922 231.672 237.11 227.573 241.787C235.156 255.886 223.719 270.568 207.13 271.083C202.401 271.229 196.562 270.026 190.771 270.271C171.817 271.078 145.297 274.479 122.896 268.641C116.021 266.849 109.109 263.073 101.635 262.13C97.9164 261.667 93.8383 262.604 90.1873 262.13C65.4581 258.932 45.1404 247.188 29.6716 238.537C26.3487 223.927 34.5466 211.458 35.3956 197.031C35.7862 190.427 32.9737 183.162 33.7602 175.875C34.6143 167.922 41.8591 160.235 42.755 151.464C44.7654 131.818 40.88 112.136 46.0258 92.0574C31.6768 94.4168 18.0362 99.2241 4.31747 92.8751C6.62997 70.1772 -1.44295 39.1355 0.228927 9.86991C2.31747 7.06783 6.7758 6.61991 8.40601 3.3595C29.2602 -2.17175 54.5987 1.61991 82.8279 1.7345C93.5935 1.77616 106.838 -1.56238 113.901 0.921997C119.12 2.75533 121.567 8.1095 125.349 9.86991C123.187 32.4324 140.87 44.2866 162.151 39.9793C167.453 38.9064 184.067 28.0053 186.682 22.8907C188.588 19.1668 187.411 15.3126 189.135 11.5001Z" fill="black"/>
</g>
<path fill-rule="evenodd" clip-rule="evenodd" d="M191.588 236.906C191.406 238.448 192.51 238.703 192.406 240.161C195.797 240.38 195.593 239.094 198.13 240.161C199.177 238.687 202.505 234.818 198.948 233.651C197.073 235.312 194.166 235.943 191.588 236.906ZM191.588 229.583C195.437 230.682 200.172 231.396 200.583 227.141C197.64 225.719 191.234 224.01 191.588 229.583ZM58.2913 195.406C60.307 195.51 62.2341 195.531 63.1976 194.588C62.0309 190.599 58.8434 188.62 56.6559 185.641C53.4736 188.901 56.9788 192.146 58.2913 195.406ZM61.5622 183.198C64.0674 182.609 63.9684 184.604 66.4684 184.01C67.6924 181.094 64.9007 178.25 61.5622 177.5C59.9424 179.042 61.1663 181.349 61.5622 183.198ZM129.437 91.2447C116.651 96.8957 99.8955 126.151 104.906 140.073C109.203 152.01 127.526 151.208 140.067 154.719C137.369 172.151 128.739 187.865 126.984 203.542C135.343 204.453 142.916 207.672 151.521 205.984C161.666 171.599 171.734 137.13 178.505 99.3853C174.203 97.0572 164.031 92.5155 159.698 97.7551C152.401 91.8072 139.916 86.6197 129.437 91.2447ZM61.5622 76.5989C61.7966 81.5989 68.9528 81.3541 68.9216 76.5989C68.2861 76.4218 67.9736 75.9166 68.1038 74.9687C65.1091 74.703 63.5622 75.8749 61.5622 76.5989ZM57.4736 70.0885C58.4007 72.6405 57.2393 72.2395 58.2913 74.1562C62.1091 71.7135 70.1403 73.4739 70.557 67.6457C65.4007 67.6718 61.9893 69.427 57.4736 70.0885ZM104.906 11.4999C108.619 32.1405 117.713 54.3332 136.802 61.1353C159.625 69.2707 189.958 63.1562 204.677 50.5572C209.812 42.3801 213.646 32.901 219.396 25.3332C230.843 29.401 240.468 24.8801 249.651 26.9582C266.156 30.6978 272.166 50.8957 290.541 52.9999C283.265 68.2291 272.875 85.328 265.187 102.641C259.203 103.708 258.817 99.2135 255.375 97.7551C248.771 97.5468 243.229 96.2812 238.203 94.4999C227.536 117.005 225.583 158.297 223.484 185.641C222.771 194.885 220.573 204.557 221.031 212.495C221.38 218.562 225.63 225.26 224.302 231.213C223.453 235 218.859 236.849 217.76 240.974C215.843 248.156 221.166 255.76 215.307 261.318C201.927 264.005 187.26 260.109 173.599 261.318C167.088 261.896 162.208 264.271 152.338 263.76C130.729 262.635 120.458 256.109 98.3643 253.995C75.3122 251.786 56.4945 241.536 38.6663 233.651C37.3538 219.547 45.208 207.776 45.208 193.776C45.208 188.323 42.9632 182.687 43.5726 176.693C44.307 169.417 50.4268 163.245 51.7497 155.531C52.6924 150.052 51.5153 143.979 51.7497 138.443C52.5518 119.489 54.9007 100.687 57.4736 83.9218C49.2913 77.8645 36.5309 84.2499 26.4007 83.9218C25.7393 58.2187 21.6195 36.8645 20.6768 9.8697C44.1716 5.89054 80.333 7.41137 104.906 11.4999Z" fill="#E83D3D"/>
<path fill-rule="evenodd" clip-rule="evenodd" d="M12.4998 11.5C17.505 16.8177 19.104 26.2917 19.8592 34.2865C21.5102 51.7865 20.9842 69.7708 22.3123 83.9219C20.354 84.4167 16.3748 82.901 15.7707 84.7396C13.5727 64.5677 6.11441 35.7969 10.8644 11.5C11.4061 11.5 11.953 11.5 12.4998 11.5Z" fill="white"/>
<path fill-rule="evenodd" clip-rule="evenodd" d="M108.995 11.5C111.25 12.5573 110.63 15.8958 109.812 18.0104C107.969 17.401 109.495 13.4479 108.995 11.5Z" fill="white"/>
<path fill-rule="evenodd" clip-rule="evenodd" d="M198.13 18.0105C204.609 18.8855 205.974 24.8542 214.489 23.7032C209.26 31.6459 208.823 39.349 203.041 46.4897C182.911 71.349 123.021 64.474 115.536 34.2865C120.661 34.1407 121.541 40.0261 126.166 42.422C134.109 46.5261 149.646 48.9636 161.333 47.3022C176.76 45.1095 189.646 31.2345 197.312 22.8907C197.208 20.8855 197.192 18.9688 198.13 18.0105Z" fill="white"/>
<path fill-rule="evenodd" clip-rule="evenodd" d="M296.266 57.8801C293.797 65.9322 288.464 74.2864 284.818 83.9218C282.036 91.2708 279.833 106.026 270.094 102.641C275.469 85.1978 285.75 72.6458 293.813 57.8801C294.63 57.8801 295.448 57.8801 296.266 57.8801Z" fill="white"/>
<path fill-rule="evenodd" clip-rule="evenodd" d="M70.557 67.6458C70.1403 73.4739 62.109 71.7135 58.2913 74.1562C57.2393 72.2395 58.4007 72.6405 57.4736 70.0885C61.9893 69.427 65.4007 67.6718 70.557 67.6458Z" fill="black"/>
<path fill-rule="evenodd" clip-rule="evenodd" d="M68.1042 74.9686C67.974 75.9165 68.2865 76.4218 68.9219 76.5988C68.9531 81.354 61.7969 81.5988 61.5625 76.5988C63.5625 75.8749 65.1094 74.703 68.1042 74.9686Z" fill="black"/>
<path fill-rule="evenodd" clip-rule="evenodd" d="M151.521 96.9427C128.911 84.5104 106.927 113.172 108.995 136C112.135 142.37 120.135 143.901 126.166 147.396C135.76 148.016 144.073 144.88 147.432 151.464C141.916 165.203 135.531 181.562 131.89 199.474C136.265 201.365 142.026 201.87 147.432 202.729C158.698 172.156 167.484 134.818 173.599 101.823C170.875 101.552 169.974 99.4687 166.239 100.198C163.479 101.25 165.458 107.016 161.333 106.708C155.656 104.729 155.541 99.151 151.521 96.9427ZM159.698 97.7552C164.031 92.5156 174.203 97.0573 178.505 99.3854C171.734 137.13 161.666 171.599 151.521 205.984C142.916 207.672 135.344 204.453 126.984 203.542C128.739 187.865 137.37 172.151 140.067 154.719C127.526 151.208 109.203 152.01 104.906 140.073C99.8956 126.151 116.651 96.8958 129.437 91.2448C139.916 86.6198 152.401 91.8073 159.698 97.7552Z" fill="black"/>
<path fill-rule="evenodd" clip-rule="evenodd" d="M130.255 130.307C134.771 133.141 144.224 134.469 149.885 133.563C153.609 126.958 156.38 119.412 158.88 111.589C147.953 97.2761 121.036 111.047 130.255 130.307ZM161.333 106.708C165.458 107.016 163.479 101.25 166.239 100.198C169.974 99.4688 170.875 101.552 173.599 101.823C167.484 134.818 158.698 172.156 147.432 202.729C142.026 201.87 136.265 201.365 131.89 199.474C135.531 181.563 141.916 165.203 147.432 151.464C144.073 144.88 135.76 148.016 126.166 147.396C120.135 143.901 112.135 142.37 108.995 136C106.927 113.172 128.911 84.5105 151.521 96.9428C155.541 99.1511 155.656 104.729 161.333 106.708Z" fill="white"/>
<path fill-rule="evenodd" clip-rule="evenodd" d="M132.714 126.24C135.693 128.969 140.974 129.412 146.615 129.49C148.943 123.943 151.396 118.521 153.156 112.406C143.984 106.031 128.672 114.302 132.714 126.24ZM158.88 111.589C156.38 119.412 153.609 126.958 149.885 133.563C144.224 134.469 134.771 133.141 130.255 130.307C121.037 111.047 147.953 97.2761 158.88 111.589Z" fill="black"/>
<path fill-rule="evenodd" clip-rule="evenodd" d="M153.156 112.406C151.396 118.521 148.943 123.943 146.614 129.49C140.974 129.412 135.693 128.969 132.713 126.24C128.672 114.302 143.984 106.031 153.156 112.406Z" fill="#E83D3D"/>
<path fill-rule="evenodd" clip-rule="evenodd" d="M61.5623 177.5C64.9008 178.25 67.6925 181.094 66.4685 184.01C63.9685 184.604 64.0675 182.609 61.5623 183.198C61.1665 181.349 59.9425 179.042 61.5623 177.5Z" fill="black"/>
<path fill-rule="evenodd" clip-rule="evenodd" d="M56.6563 185.641C58.8438 188.62 62.0313 190.599 63.198 194.589C62.2344 195.531 60.3073 195.51 58.2917 195.406C56.9792 192.146 53.474 188.901 56.6563 185.641Z" fill="black"/>
<path fill-rule="evenodd" clip-rule="evenodd" d="M200.583 227.141C200.172 231.396 195.437 230.682 191.588 229.583C191.234 224.01 197.64 225.719 200.583 227.141Z" fill="black"/>
<path fill-rule="evenodd" clip-rule="evenodd" d="M198.948 233.651C202.505 234.818 199.177 238.688 198.13 240.162C195.594 239.094 195.797 240.38 192.406 240.162C192.511 238.703 191.406 238.448 191.589 236.906C194.167 235.943 197.073 235.313 198.948 233.651Z" fill="black"/>
</svg>
