<svg width="351" height="622" viewBox="0 0 351 622" fill="none" xmlns="http://www.w3.org/2000/svg">
<path d="M130.57 132.404L148.335 326.087C148.781 330.987 153.217 334.91 158.579 335.15L159.83 335.218C165.586 335.475 170.314 331.466 170.451 326.224L175.522 127.676L130.57 132.404Z" fill="#7C4724"/>
<path d="M141.689 140.987L89.6276 348.169C89.3364 349.368 88.8225 350.482 88.1201 351.493C87.4006 352.503 86.5269 353.36 85.4991 354.045C84.4712 354.73 83.3577 355.21 82.1585 355.484C80.9422 355.758 79.7259 355.793 78.5096 355.621L76.2826 355.279C74.9806 355.09 73.7643 354.662 72.6337 353.977C71.5202 353.309 70.5608 352.435 69.7728 351.39C68.9848 350.328 68.4195 349.163 68.094 347.895C67.7685 346.61 67.7 345.326 67.8713 344.024L98.2788 127.008L141.689 140.987Z" fill="#7C4724"/>
<path d="M181.211 140.987L233.152 347.707C233.478 348.974 234.009 350.139 234.745 351.201C235.499 352.281 236.424 353.172 237.503 353.891C238.583 354.611 239.765 355.124 241.032 355.399C242.3 355.69 243.568 355.741 244.853 355.553L246.103 355.364C247.474 355.159 248.741 354.696 249.94 353.994C251.122 353.274 252.133 352.366 252.955 351.253C253.795 350.139 254.377 348.923 254.72 347.57C255.063 346.234 255.148 344.88 254.943 343.51L224.621 127.008L181.211 140.987Z" fill="#7C4724"/>
<path d="M26.6705 133.108V193.34C26.6534 199.114 27.0302 204.852 27.7497 210.591C28.4864 216.313 29.5827 221.966 31.0389 227.551C32.495 233.136 34.2938 238.618 36.4523 243.962C38.6108 249.324 41.0948 254.515 43.9214 259.552C46.748 264.571 49.883 269.402 53.3263 274.045C56.7696 278.67 60.487 283.055 64.4957 287.201C68.5043 291.347 72.77 295.236 77.2583 298.833C81.7637 302.431 86.4919 305.737 91.4085 308.718C101.978 315.125 113.439 318.294 125.79 318.26H197.089C208.944 318.362 219.994 315.416 230.238 309.437C235.24 306.456 240.037 303.167 244.611 299.57C249.185 295.972 253.519 292.101 257.596 287.938C261.673 283.775 265.459 279.372 268.971 274.713C272.466 270.07 275.669 265.205 278.547 260.134C281.425 255.063 283.961 249.838 286.171 244.442C288.363 239.046 290.214 233.513 291.687 227.877C293.177 222.24 294.308 216.536 295.044 210.746C295.798 204.972 296.175 199.165 296.175 193.34V133.108H26.6705Z" fill="#B9825C"/>
<path d="M296.159 132.764C296.159 133.638 295.954 134.495 295.508 135.351C295.08 136.208 294.429 137.064 293.573 137.921C292.716 138.76 291.637 139.6 290.369 140.422C289.084 141.244 287.594 142.067 285.915 142.855C284.219 143.66 282.335 144.448 280.245 145.202C278.172 145.955 275.911 146.709 273.461 147.429C271.011 148.131 268.373 148.833 265.581 149.501C262.771 150.17 259.825 150.803 256.69 151.42C253.572 152.037 250.317 152.602 246.891 153.15C243.482 153.699 239.953 154.212 236.269 154.692C232.603 155.172 228.835 155.617 224.929 156.028C221.04 156.44 217.066 156.799 212.988 157.142C208.911 157.467 204.748 157.759 200.534 157.998C196.303 158.255 192.037 158.461 187.703 158.632C183.369 158.804 179.018 158.923 174.632 159.009C170.23 159.095 165.827 159.146 161.424 159.146C157.004 159.146 152.602 159.095 148.216 159.009C143.814 158.923 139.462 158.804 135.128 158.632C130.794 158.461 126.528 158.255 122.297 157.998C118.083 157.759 113.92 157.467 109.843 157.142C105.766 156.799 101.791 156.44 97.9025 156.028C93.9966 155.617 90.2278 155.172 86.5618 154.692C82.8786 154.212 79.3497 153.699 75.9406 153.15C72.5144 152.602 69.2595 152.037 66.1417 151.42C63.0067 150.803 60.0602 150.17 57.2507 149.501C54.4583 148.833 51.8373 148.131 49.3704 147.429C46.9207 146.709 44.6594 145.955 42.5866 145.202C40.4966 144.448 38.6122 143.66 36.9333 142.855C35.2374 142.067 33.747 141.244 32.4793 140.422C31.1945 139.6 30.1152 138.76 29.2587 137.921C28.4021 137.064 27.7511 136.208 27.3229 135.351C26.8774 134.495 26.6719 133.638 26.6719 132.764C26.6719 131.908 26.8774 131.051 27.3229 130.178C27.7511 129.321 28.4021 128.465 29.2587 127.625C30.1152 126.769 31.1945 125.946 32.4793 125.107C33.747 124.285 35.2374 123.479 36.9333 122.674C38.6122 121.869 40.4966 121.098 42.5866 120.327C44.6594 119.574 46.9207 118.837 49.3704 118.117C51.8373 117.398 54.4583 116.713 57.2507 116.045C60.0602 115.377 63.0067 114.726 66.1417 114.126C69.2595 113.509 72.5144 112.927 75.9406 112.379C79.3497 111.83 82.8786 111.316 86.5618 110.837C90.2278 110.357 93.9966 109.912 97.9025 109.501C101.791 109.107 105.766 108.73 109.843 108.404C113.92 108.079 118.083 107.788 122.297 107.531C126.528 107.274 130.794 107.068 135.128 106.897C139.462 106.725 143.814 106.605 148.216 106.52C152.602 106.434 157.004 106.4 161.424 106.4C165.827 106.4 170.23 106.434 174.632 106.52C179.018 106.605 183.369 106.725 187.703 106.897C192.037 107.068 196.303 107.274 200.534 107.531C204.748 107.788 208.911 108.079 212.988 108.404C217.066 108.73 221.04 109.107 224.929 109.501C228.835 109.912 232.603 110.357 236.269 110.837C239.953 111.316 243.482 111.83 246.891 112.379C250.317 112.927 253.572 113.509 256.69 114.126C259.825 114.726 262.771 115.377 265.581 116.045C268.373 116.713 271.011 117.398 273.461 118.117C275.911 118.837 278.172 119.574 280.245 120.327C282.335 121.098 284.219 121.869 285.915 122.674C287.594 123.479 289.084 124.285 290.369 125.107C291.637 125.946 292.716 126.769 293.573 127.625C294.429 128.465 295.08 129.321 295.508 130.178C295.954 131.051 296.159 131.908 296.159 132.764Z" fill="#B9825C"/>
<path d="M284.168 132.148C284.168 134.238 282.027 136.26 278.052 138.161C261.966 130.469 215.816 124.919 161.425 124.919C107.017 124.919 60.8829 130.469 44.7798 138.161C40.8054 136.26 38.6641 134.238 38.6641 132.148C38.6641 121.51 93.6202 112.91 161.425 112.91C229.229 112.91 284.168 121.51 284.168 132.148Z" fill="#7C4724"/>
<path d="M278.052 138.161C261.966 145.818 215.815 151.369 161.424 151.369C107.016 151.369 60.8824 145.818 44.7793 138.161C60.8824 130.469 107.016 124.918 161.424 124.918C215.815 124.918 261.966 130.469 278.052 138.161Z" fill="#492925"/>
<path d="M97.08 141.656C86.1162 148.885 80.8741 163.309 83.3238 176.226C84.2318 180.355 85.4652 184.398 87.0584 188.321L90.9814 198.839" stroke="#406144" stroke-width="0.771982" stroke-miterlimit="10" stroke-linecap="round"/>
<path d="M75.4454 450.905C78.9229 460.447 76.4732 471.616 70.2204 479.617C68.0276 482.049 66.0062 484.602 64.1046 487.291C61.398 491.694 60.5928 496.97 59.8904 502.11C59.308 506.392 58.7598 510.675 58.2459 514.958C57.7319 509.733 52.6612 506.427 48.4641 503.274C38.648 495.874 31.8127 486.315 27.9583 474.631C25.9882 468.67 25.0631 461.937 27.7698 456.267C29.6029 452.447 32.892 449.569 36.0955 446.794L47.3677 437.012C56.8411 428.789 72.0877 441.671 75.4454 450.905Z" fill="#63805A"/>
<path d="M58.551 385.396C54.0798 383.974 49.1975 384.522 44.6235 385.653C39.7754 386.869 34.876 388.891 31.7239 392.762C29.3598 396.017 27.8865 399.632 27.2698 403.606C26.0193 408.591 25.9165 413.593 26.9443 418.647C28.1092 423.324 30.7645 427.452 32.8716 431.787C38.1994 442.836 39.8782 454.417 37.9253 466.528C40.4093 462.108 43.4929 458.168 47.176 454.691C51.356 450.751 56.2897 447.427 59.2362 442.493C61.0007 439.136 62.2513 435.607 62.9879 431.889C65.3349 422.399 67.6647 412.771 67.8874 402.938C68.0758 395.212 67.0822 388.154 58.551 385.396Z" fill="#406144"/>
<path d="M62.2888 329.428C58.1089 324.272 53.3465 319.201 47.1279 316.923C48.2586 321.394 47.659 326.088 47.8646 330.696C48.2072 338.542 50.8625 346.114 54.1516 353.258C56.6185 358.637 59.9762 364.307 65.6123 366.089C68.2676 366.791 70.94 366.945 73.6638 366.586C78.6661 366.174 83.6341 365.421 88.5335 364.307C89.7841 364.102 90.9147 363.656 91.9597 362.92C94.4951 360.898 95.5915 353.48 94.1696 350.654C92.6792 347.656 88.1052 348.238 85.3472 347.776C74.7945 345.977 68.6102 337.223 62.2888 329.428Z" fill="#63805A"/>
<path d="M89.2707 510.314C87.2664 520.473 87.215 530.632 89.0994 540.825C90.9667 551.001 94.667 560.474 100.149 569.245" stroke="#406144" stroke-width="0.771982" stroke-miterlimit="10" stroke-linecap="round"/>
<path d="M187.977 104.601C194.555 102.648 201.853 106.246 205.861 111.813C209.887 117.398 211.138 124.507 211.309 131.377C211.463 138.246 210.675 145.133 211.069 152.003C211.737 162.847 215.129 172.765 221.279 181.725C223.489 184.928 226.162 188.046 229.793 189.468C233.408 190.89 238.136 190.136 240.226 186.847C241.288 185.34 241.391 183.781 240.534 182.136C240.312 181.793 240.021 181.519 239.678 181.297C239.318 181.074 238.941 180.954 238.53 180.903C238.119 180.851 237.725 180.903 237.331 181.04C236.954 181.177 236.611 181.382 236.32 181.674" stroke="#406144" stroke-width="0.771982" stroke-miterlimit="10" stroke-linecap="round"/>
<path d="M186.932 196.234C190.204 197.279 193.304 198.718 196.234 200.534C199.163 202.35 201.818 204.509 204.2 206.976C206.598 209.46 208.654 212.2 210.367 215.198C212.08 218.179 213.399 221.348 214.324 224.655C214.513 226.094 215.146 227.259 216.243 228.201" stroke="#406144" stroke-width="0.771982" stroke-miterlimit="10" stroke-linecap="round"/>
<path d="M180.729 209.751C183.813 213.845 186.451 218.214 188.627 222.856C190.785 227.516 192.447 232.33 193.595 237.332C194.76 242.334 195.376 247.388 195.462 252.527C195.548 257.649 195.102 262.737 194.109 267.774" stroke="#406144" stroke-width="0.771982" stroke-miterlimit="10" stroke-linecap="round"/>
<path d="M154.519 222.445C149.14 236.304 144.515 250.814 144.909 265.666C145.337 281.375 151.35 296.314 154.537 311.697C160.498 340.614 156.335 370.902 147.102 398.928C137.885 426.972 123.769 453.096 109.448 478.896C98.6724 498.271 87.6914 517.629 74.3635 535.342C71.6054 539.008 68.6418 542.674 64.6845 544.97C60.7101 547.248 55.468 547.882 51.6478 545.381C49.2837 543.839 47.6563 540.79 48.6841 538.169C49.712 535.565 54.0804 534.846 55.2624 537.398" stroke="#406144" stroke-width="0.771982" stroke-miterlimit="10" stroke-linecap="round"/>
<path d="M103.573 138.384C92.3181 147.052 82.0224 156.594 75.1186 169.374C70.4418 178.316 66.8957 187.704 64.4802 197.503C63.1954 202.625 62.0134 207.627 60.917 212.647C61.705 212.424 61.1054 211.979 61.3453 211.139" stroke="#406144" stroke-width="0.771982" stroke-miterlimit="10" stroke-linecap="round"/>
<path d="M89.9032 126.393C86.7682 126.136 83.6333 126.256 80.5154 126.753C77.4147 127.25 74.3996 128.106 71.4874 129.323C68.5751 130.539 65.8513 132.081 63.2988 133.948C60.7634 135.815 58.4849 137.957 56.4464 140.372C49.474 148.869 46.4076 159.85 43.8893 170.557C43.8037 170.968 43.7523 171.516 44.1292 171.705C44.5061 171.893 44.7288 171.019 44.3347 171.156" stroke="#406144" stroke-width="0.771982" stroke-miterlimit="10" stroke-linecap="round"/>
<path d="M86.8372 100.456C77.8948 95.8133 68.3699 93.6034 58.2969 93.8604C53.2947 93.9803 47.7442 95.0938 44.8662 99.2053" stroke="#406144" stroke-width="0.771982" stroke-miterlimit="10" stroke-linecap="round"/>
<path d="M113.389 75.1023C110.391 73.5262 107.239 72.2928 103.967 71.4363C102.134 70.8538 100.249 70.6654 98.3305 70.9052C96.5317 71.3335 94.8186 72.0359 93.2255 72.9952C86.8013 76.2501 79.9832 78.2373 72.8053 78.9568C65.6274 79.6591 58.5694 79.0424 51.6143 77.0895" stroke="#406144" stroke-width="0.771982" stroke-miterlimit="10" stroke-linecap="round"/>
<mask id="mask0_287_104848" style="mask-type:luminance" maskUnits="userSpaceOnUse" x="137" y="0" width="155" height="115">
<path d="M137.596 0.000488281H291.089V114.298H137.596V0.000488281Z" fill="white"/>
</mask>
<g mask="url(#mask0_287_104848)">
<path d="M253.211 41.7995C249.511 37.551 244.971 34.6901 239.558 33.1997C234.247 31.7607 228.851 31.144 223.369 31.3496C219.703 31.2811 216.14 31.7779 212.645 32.8571C209.87 33.9364 207.249 35.324 204.799 37.0199C199.522 40.3776 194.28 43.9237 190.152 48.6347C183.094 56.6863 179.925 67.3589 176.961 77.6718" stroke="#406144" stroke-width="0.771982" stroke-miterlimit="10" stroke-linecap="round"/>
</g>
<path d="M292.75 102.374C285.966 102.905 280.261 107.462 273.854 109.741C266.968 112.19 259.43 111.916 252.149 111.282C243.824 110.563 235.567 109.398 227.378 107.788C223.13 107.068 219.035 105.886 215.061 104.207C210.093 101.929 205.827 98.3828 201.168 95.5391C196.491 92.6953 191.06 90.4854 185.664 91.3762" stroke="#406144" stroke-width="0.771982" stroke-miterlimit="10" stroke-linecap="round"/>
<path d="M158.254 127.573C165.278 144.173 159.744 164.782 169.372 179.994" stroke="#406144" stroke-width="0.771982" stroke-miterlimit="10" stroke-linecap="round"/>
<path d="M153.251 93.2612C144.36 97.5097 137.577 103.968 132.883 112.654C128.292 121.236 125.962 130.401 125.928 140.149C125.636 147.155 126.904 153.854 129.731 160.278C131.409 163.841 133.688 167.062 135.726 170.436C139.924 177.443 142.939 184.912 144.806 192.878" stroke="#406144" stroke-width="0.771982" stroke-miterlimit="10" stroke-linecap="round"/>
<path d="M147.31 280.725C147.018 294.926 142.016 308.717 135.01 321.051C128.003 333.402 119.026 344.486 110.084 355.501" stroke="#406144" stroke-width="0.771982" stroke-miterlimit="10" stroke-linecap="round"/>
<path d="M253.759 111.523C255.352 120.363 260.423 128.243 266.419 134.942C272.414 141.623 279.387 147.379 285.708 153.768" stroke="#406144" stroke-width="0.771982" stroke-miterlimit="10" stroke-linecap="round"/>
<path d="M144.738 100.748C138.245 94.3412 133.14 86.9577 129.423 78.615C128.772 76.9019 127.898 75.3087 126.768 73.8525" stroke="#406144" stroke-width="0.771982" stroke-miterlimit="10" stroke-linecap="round"/>
<path d="M257.664 122.452C261.844 128.825 269.142 132.371 276.303 134.975C282.281 137.151 288.397 138.864 294.633 140.131" stroke="#406144" stroke-width="0.771982" stroke-miterlimit="10" stroke-linecap="round"/>
<mask id="mask1_287_104848" style="mask-type:luminance" maskUnits="userSpaceOnUse" x="71" y="552" width="50" height="70">
<path d="M71.8115 552.85H120.052V621.493H71.8115V552.85Z" fill="white"/>
</mask>
<g mask="url(#mask1_287_104848)">
<path d="M117.947 592.628L117.347 621.494C109.93 605.476 92.8672 596.757 79.5736 585.142C76.5071 582.487 73.4235 579.163 73.3379 575.103C73.3722 573.253 73.8004 571.488 74.6398 569.844C79.9333 558.212 91.7194 552.816 103.78 553.758C121.168 555.128 118.238 579.403 117.947 592.628Z" fill="#406144"/>
</g>
<path d="M105.938 469.867C110.238 466.458 116.336 465.945 121.578 467.589C126.837 469.491 131.309 472.557 134.958 476.823C139.018 481.208 142.307 486.108 144.825 491.521C146.555 495.41 148.028 499.367 149.279 503.427C152.74 513.997 155.943 524.652 158.924 535.376C151.951 530.22 142.581 529.826 133.947 530.58C125.296 531.333 116.525 533.012 108.045 531.265C103.796 530.357 99.8733 528.678 96.2758 526.228C92.6954 523.762 89.6975 520.729 87.2991 517.08C81.7144 508.464 80.738 496.369 86.888 488.129C88.2756 486.056 90.16 484.634 92.5241 483.829C96.5841 482.716 101.175 486.724 101.398 481.157C101.569 476.72 102.22 472.848 105.938 469.867Z" fill="#406144"/>
<path d="M155.616 381.386C158.46 379.947 161.475 379.159 164.644 379.022C168.465 378.611 172.165 379.074 175.78 380.393C184.379 383.887 188.833 393.823 189.125 403.108C189.416 412.411 186.469 421.456 184.448 430.535C182.135 440.865 180.987 451.332 181.022 461.919C177.476 455.855 172.627 451.161 166.426 447.855C161.287 445.114 155.582 443.623 150.272 441.208C147.154 439.752 144.156 438.073 141.278 436.188C135.385 432.385 129.594 427.88 126.528 421.559C124.095 416.573 123.581 410.886 123.633 405.335C123.496 401.652 124.078 398.089 125.363 394.629C126.374 392.316 127.83 390.329 129.732 388.684C131.633 387.022 133.792 385.858 136.224 385.189C140.336 384.076 143.693 385.035 147.599 386.234C150.083 386.988 149.535 387.005 151.299 385.138C152.533 383.648 153.972 382.397 155.616 381.386Z" fill="#406144"/>
<path d="M182.152 350.961C185.338 355.415 188.782 360.092 189.347 365.557C183.249 365.026 177.081 364.495 171.274 362.559C168.31 361.531 165.484 360.178 162.828 358.482C160.19 356.786 157.775 354.799 155.582 352.52C153.406 350.242 151.522 347.741 149.929 345.017C148.353 342.31 147.102 339.432 146.194 336.417C144.618 330.884 144.293 325.265 145.201 319.594C145.817 315.62 147.616 306.112 151.368 303.783C155.651 301.144 159.197 312.793 160.601 315.534C163.582 321.342 166.751 327.029 170.126 332.631C173.895 338.884 177.904 345 182.152 350.961Z" fill="#63805A"/>
<path d="M83.5805 377.79C77.6361 377.396 72.2912 381.439 68.3854 385.944C63.503 391.529 59.9912 397.885 57.8327 404.977C56.9761 407.495 56.5479 410.082 56.5479 412.754C56.702 418.785 60.2481 424.249 64.411 428.618C68.5909 432.969 73.4904 436.618 77.4305 441.175C81.6961 446.108 84.7112 451.967 87.692 457.758C86.39 452.67 88.2916 447.239 91.2552 442.888C94.2018 438.537 98.159 434.973 101.585 430.999C105.011 427.025 108.026 422.348 108.489 417.106C108.9 412.617 107.393 408.18 105.56 404.069C100.335 392.317 91.7863 381.49 80.0173 376.351" fill="#63805A"/>
<path d="M223.8 213.28C226.815 212.372 229.847 212.354 232.879 213.228C244.426 216.123 252.751 226.659 256.674 237.931C257.925 241.306 258.627 244.783 258.798 248.381C259.021 257.375 254.362 265.632 251.398 274.112C248.554 282.232 247.235 290.592 247.441 299.191C244.1 291.859 235.997 288.193 228.597 285.058C217.222 280.21 205.213 274.523 198.943 263.85C192.964 253.64 193.615 240.295 199.148 229.828C200.947 226.076 203.568 223.044 207.012 220.731C208.485 219.824 210.078 219.207 211.774 218.898C213.299 218.642 215.731 219.464 217.05 219.018C219.603 218.11 220.699 214.359 223.8 213.28Z" fill="#63805A"/>
<path d="M93.9815 183.678C96.9966 182.821 100.149 184.466 102.513 186.539C110.462 193.545 112.74 205.092 112.414 215.696C112.089 226.3 109.656 236.835 110.17 247.422C106.453 240.621 102.478 233.546 96.003 229.298C93.399 227.585 90.4868 226.403 87.8486 224.758C84.6109 222.702 81.9213 220.081 79.7628 216.895C77.6214 213.709 76.1995 210.231 75.5143 206.445C74.8633 202.728 75.086 198.65 77.2445 195.584C78.3409 194.059 79.7799 193.032 81.5787 192.466C83.1547 191.987 86.0156 193.169 87.112 192.62C88.1741 192.089 88.8765 188.492 89.5617 187.413C90.5382 185.58 92.0114 184.346 93.9815 183.678Z" fill="#406144"/>
<path d="M194.506 256.554C190.994 253.676 187.774 250.369 183.765 248.245C179.774 246.121 174.651 245.35 170.797 247.748C168.656 249.222 167.045 251.14 165.932 253.487C163.465 258.164 162.163 263.166 162.026 268.46C161.872 273.753 162.9 278.807 165.109 283.603C166.874 287.372 169.306 290.764 171.157 294.482C175.405 302.962 176.467 312.623 177.461 322.045C182.018 315.467 187.345 309.574 193.444 304.401C197.538 300.923 201.941 297.788 205.693 293.968C210.01 289.548 213.299 284.443 215.543 278.687C216.245 277.505 216.519 276.237 216.348 274.867C216.177 273.496 215.612 272.331 214.635 271.372C211.774 267.74 208.485 264.588 204.768 261.881C201.496 259.5 197.658 259.158 194.506 256.554Z" fill="#63805A"/>
<path d="M279.969 152.26C280.106 155.19 279.129 158.016 278.513 160.877C277.039 167.747 277.588 174.462 280.157 181.006C281.493 184.381 283.498 187.67 286.616 189.52C289.819 191.422 293.725 191.542 297.254 192.689C305.134 195.242 310.393 202.505 314.95 209.426C312.792 197.983 312.398 186.18 309.143 174.993C305.871 163.824 299.001 152.843 288.157 148.611C283.875 146.95 279.198 146.333 275.429 143.523C273.716 144.911 276.971 146.025 277.845 146.967C279.198 148.474 279.9 150.239 279.969 152.26Z" fill="#406144"/>
<path d="M273.169 37.072C275.396 39.2647 276.801 41.8858 277.383 44.9693C279.97 55.0424 278.771 65.8006 275.602 75.7023C272.45 85.604 267.413 94.7863 262.223 103.78C254.325 92.0967 244.989 81.681 234.213 72.5674C231.712 70.4431 229.074 68.3189 227.43 65.458C225.597 61.9462 225.048 58.2287 225.819 54.3229C226.573 50.554 227.841 46.9565 229.622 43.5475C231.318 40.0528 233.802 35.8728 238.051 35.376C242.265 34.8792 245.76 38.6309 249.991 37.6544C253.486 36.8493 256.073 34.5194 259.824 34.1254C264.398 33.6115 269.4 34.3139 273.169 37.072Z" fill="#406144"/>
<path d="M28.127 161.767C22.3024 163.943 18.2767 169.408 15.9297 175.181C14.1824 179.378 13.2744 183.746 13.223 188.286C13.1716 192.826 13.9768 197.211 15.6385 201.443C18.0197 207.147 22.0969 211.961 25.5231 217.118C29.6002 223.285 32.7695 229.88 35.0136 236.921C36.4526 231.902 38.8681 227.396 42.2429 223.405C47.0224 217.734 53.6521 213.366 56.513 206.514C58.5345 201.683 58.3974 196.269 58.0719 191.061C57.7293 185.973 57.2154 180.783 55.0226 176.192C53.7549 173.468 51.9048 171.241 49.4893 169.476C47.2451 167.9 44.8982 167.523 42.9453 165.725C38.731 161.836 33.9858 159.558 28.127 161.767Z" fill="#63805A"/>
<path d="M187.961 169.973C190.873 172.714 192.329 176.688 193.151 180.628C193.7 183.215 194.008 185.836 194.094 188.474C194.196 191.113 194.042 193.751 193.682 196.372C193.306 198.976 192.706 201.545 191.884 204.064C191.079 206.582 190.034 208.997 188.8 211.344C187.55 213.674 186.128 215.884 184.5 217.957C182.873 220.047 181.074 221.966 179.104 223.73C177.134 225.495 175.044 227.088 172.8 228.475C170.556 229.88 168.209 231.079 165.776 232.056C167.609 225.923 165.896 219.207 162.949 213.52C160.003 207.832 155.892 202.847 152.465 197.434C149.039 192.038 146.247 185.888 146.469 179.481C146.452 176.089 147.549 173.091 149.776 170.521C152.5 167.66 156.731 166.65 160.671 166.975C165.108 167.335 170.47 172.183 174.564 170.024C176.946 168.757 178.008 167.061 181.023 167.078C183.695 167.164 186.008 168.123 187.961 169.973Z" fill="#63805A"/>
<path d="M150.51 95.9842C146.929 99.4618 145.405 104.652 145.233 109.655C145.131 113.184 145.61 116.644 146.672 120.002C147.734 123.377 149.311 126.477 151.435 129.304C153.559 132.131 156.077 134.512 159.007 136.482C161.953 138.435 165.122 139.857 168.549 140.73C171.187 141.416 173.928 141.741 176.532 142.58C181.688 144.448 185.919 147.566 189.243 151.917C192.481 156.182 195.29 160.705 197.654 165.502C201.097 150.272 202.125 134.889 200.755 119.351C200.018 111.008 198.494 102.494 194.074 95.3846C189.637 88.2752 181.791 82.8276 173.448 83.3072C171.598 83.3758 169.851 83.8383 168.206 84.6948C166.544 85.6713 165.311 87.0247 164.523 88.7891C163.461 91.1018 164.403 92.4038 162.107 92.9348C160.377 93.346 158.099 92.3524 156.094 92.8663C153.953 93.4145 152.103 94.4595 150.51 95.9842Z" fill="#406144"/>
<mask id="mask2_287_104848" style="mask-type:luminance" maskUnits="userSpaceOnUse" x="146" y="0" width="58" height="71">
<path d="M146.367 0H203.379V70.4426H146.367V0Z" fill="white"/>
</mask>
<g mask="url(#mask2_287_104848)">
<path d="M161.632 59.0339C164.236 56.2244 168.398 55.6933 172.013 54.4256C176.039 53.0209 179.465 50.7253 182.309 47.5218C184.416 44.9864 186.232 42.2455 187.722 39.3161C194.369 27.1531 199.868 13.8423 199.662 0.000488281C197.041 4.28323 193.684 7.88074 189.572 10.793C181.332 16.1379 170.557 15.898 161.871 20.4891C158.103 22.5277 154.985 25.2687 152.484 28.7463C149.983 32.2067 148.355 36.0441 147.619 40.2583C146.83 43.9415 147.293 47.4533 149.006 50.7939C150.085 52.3699 151.233 53.8774 152.467 55.3336C155.413 59.3251 155.482 64.2931 157.743 68.3531C160.261 66.4002 159.233 61.6035 161.632 59.0339Z" fill="#406144"/>
</g>
<path d="M155.668 168.312C153.15 167.13 150.683 167.232 148.285 168.62C145.544 170.453 144.739 174.222 142.152 176.26C137.681 179.807 131.017 176.398 125.449 177.699C121.184 178.693 117.98 182.565 116.781 186.796C115.753 191.182 115.856 195.533 117.089 199.85C119.094 208.261 123.325 216.467 130.417 221.401C132.953 223.165 135.796 224.467 138.452 226.06C145.664 230.377 151.18 236.287 154.966 243.808C156.885 238.052 158.169 232.159 158.82 226.129C159.06 222.017 159.643 217.957 160.568 213.949C161.99 209.015 164.902 204.578 165.981 199.559C167.249 193.58 165.793 187.378 164.336 181.434C163.686 178.744 163.463 174.839 161.801 172.56C161.047 171.515 155.668 168.791 155.668 168.312Z" fill="#63805A"/>
<path d="M281.084 100.661C281.992 99.0339 283.054 97.5264 284.27 96.1387C285.487 94.734 286.823 93.4834 288.296 92.3699C289.769 91.2393 291.345 90.28 293.007 89.4919C294.669 88.6868 296.416 88.0701 298.198 87.6246C299.997 87.1792 301.812 86.9223 303.663 86.8538C305.513 86.7852 307.346 86.9051 309.179 87.1964C310.995 87.5047 312.776 88.0015 314.489 88.6696C316.22 89.3377 317.864 90.1772 319.406 91.1879C322.507 93.1922 325.162 95.8133 328.228 97.869C331.295 99.9076 335.012 101.415 338.627 100.73C336.88 101.98 334.653 102.289 332.614 103.008C328.948 104.293 325.95 106.948 322.678 109.056C318.618 111.642 314.232 113.373 309.504 114.263C304.776 115.154 300.065 115.154 295.354 114.229C292.442 113.647 289.632 112.704 286.754 112.002C284.048 111.351 281.221 111.522 278.583 110.923C275.705 110.272 276.253 109.741 277.401 107.565C278.617 105.27 279.799 102.923 281.084 100.661Z" fill="#63805A"/>
<path d="M254.975 168.073L257.733 146.231C258.247 142.787 258.504 139.344 258.504 135.866C258.35 132.217 257.63 128.671 256.345 125.228C255.078 121.802 253.313 118.633 251.069 115.755C248.825 112.859 246.187 110.393 243.172 108.32C240.139 106.264 236.884 104.705 233.39 103.66C230.015 102.769 226.606 102.29 223.128 102.238C220.319 102.153 214.923 101.467 212.387 102.684C208.601 104.499 216.636 114.71 218.366 117.536C225.321 128.945 232.842 139.995 240.927 150.633C243.189 153.614 245.484 156.543 247.831 159.456C248.893 160.775 255.163 166.651 254.975 168.073Z" fill="#406144"/>
<path d="M181.004 68.456C182.923 62.8199 186.932 57.5607 192.585 55.6934C196.148 54.4943 200.122 54.717 203.6 53.2266C207.403 51.3593 210.058 48.447 211.566 44.4726C212.988 40.6696 213.913 36.7294 214.324 32.6865C215.403 38.3397 218.23 43.4962 220.029 48.961C222.256 55.1452 222.615 61.4494 221.125 67.8393C219.48 74.0236 215.232 79.6597 209.339 82.0923C204.268 84.1651 198.529 83.7882 193.321 85.4328C191.009 86.1523 188.816 87.283 186.435 87.814C182.477 88.722 179.034 87.7798 178.897 83.5484C178.709 78.392 179.411 73.3555 181.004 68.456Z" fill="#63805A"/>
<path d="M132.799 59.1699C131.6 50.0219 127.163 41.0624 119.711 35.6148C113.937 31.4005 106.52 29.3277 101.894 23.8629C99.5646 21.1048 98.0913 17.6101 95.3332 15.2803C95.3161 17.5073 95.299 19.7172 95.2304 21.9442C94.9563 30.4583 93.8428 38.9382 93.997 47.4694C94.1512 55.9835 95.693 64.7203 100.267 71.8982C104.447 78.4251 110.785 83.1875 117.004 87.8129C118.083 88.7379 119.317 89.406 120.687 89.7829C126.169 90.8622 129.852 84.7293 131.017 80.4465C133.021 73.4742 133.621 66.382 132.799 59.1699Z" fill="#63805A"/>
<mask id="mask3_287_104848" style="mask-type:luminance" maskUnits="userSpaceOnUse" x="0" y="96" width="42" height="76">
<path d="M0 96.7554H41.1144V171.309H0V96.7554Z" fill="white"/>
</mask>
<g mask="url(#mask3_287_104848)">
<path d="M6.78425 124.302C4.11182 128.38 2.22741 132.799 1.1139 137.562C0.000382506 142.427 0.428655 147.155 2.39872 151.746C3.58076 154.299 5.34525 156.56 6.52729 159.113C8.27465 162.881 8.72005 167.096 9.14833 171.207C15.6238 154.11 28.4892 140.217 36.4551 123.771C39.059 118.409 41.149 112.516 40.3952 106.606C39.9841 103.351 38.3224 98.2977 34.5193 99.0343C30.9903 99.7367 26.6219 103.574 23.7953 105.715C16.9772 110.855 11.3068 117.056 6.78425 124.302Z" fill="#406144"/>
</g>
<path d="M38.6442 64.0528L15.2433 37.1914C14.2668 40.5148 13.77 43.9068 13.77 47.3672C13.7529 50.8277 14.2154 54.2367 15.1576 57.5601C16.0998 60.9007 17.4874 64.0185 19.3204 66.9651C21.1534 69.8945 23.3633 72.5326 25.933 74.8453C27.6632 76.4214 29.6161 77.6719 31.7918 78.5627C34.9439 79.5563 38.1645 79.9503 41.4537 79.779L56.3234 79.8304C59.4755 79.8476 59.287 78.5456 56.9229 77.5177C54.576 76.4727 52.229 76.0445 49.9678 74.6397C45.5822 71.8816 42.019 67.9244 38.6442 64.0528Z" fill="#406144"/>
<path d="M87.3496 56.7202C84.6086 53.9964 81.4394 51.7008 79.1096 48.6173C77.1224 45.7393 75.5977 42.6385 74.5013 39.3151C69.8931 27.1007 65.9187 14.6637 61.9443 2.22656L63.8287 41.8677C63.8459 45.4138 64.3084 48.8914 65.1992 52.3176C67.1179 57.8851 70.527 62.3049 75.4264 65.5769C80.206 68.729 85.3795 71.0075 90.9471 72.3951C92.2319 72.7548 95.7952 73.6628 96.7202 72.0867C97.5425 70.6991 95.7266 69.0888 95.0928 68.0267C92.6773 63.9666 90.7758 60.1121 87.3496 56.7202Z" fill="#406144"/>
<path d="M125.534 90.5716C123.222 86.0833 119.898 81.5436 114.999 80.3787C110.493 79.3165 105.936 81.3723 101.482 82.6399C91.3922 85.4837 79.3834 83.6849 72.4453 75.8047C75.5289 85.2267 78.9037 95.0942 86.2529 101.758C87.5034 102.889 88.8568 103.917 90.2958 104.807C91.7348 105.715 93.2423 106.486 94.8184 107.12C96.3944 107.754 98.0047 108.234 99.6664 108.576C101.328 108.919 103.007 109.124 104.703 109.159C106.399 109.21 108.095 109.107 109.774 108.85C111.453 108.593 113.08 108.199 114.69 107.651C116.301 107.103 117.842 106.418 119.333 105.595C120.823 104.773 122.211 103.831 123.53 102.752C125.055 101.518 128.584 100.302 128.875 98.4861C129.183 96.4647 126.442 92.3361 125.534 90.5716Z" fill="#63805A"/>
<path d="M138.64 94.461C138.554 92.4052 138.691 90.3495 139.034 88.3281C139.377 86.2895 139.925 84.3194 140.679 82.4179C141.432 80.4992 142.375 78.6833 143.522 76.9702C144.653 75.2571 145.955 73.6811 147.428 72.2421C148.884 70.786 150.478 69.5183 152.225 68.4219C153.955 67.3084 155.771 66.4004 157.707 65.6809C159.626 64.9614 161.596 64.4475 163.634 64.1391C165.673 63.8308 167.711 63.7451 169.75 63.865C172.542 64.0363 175.455 64.7045 177.442 66.6745C178.898 68.302 179.823 70.2035 180.217 72.362C180.714 74.3321 180.885 76.3021 180.731 78.3236C180.303 82.5207 177.956 86.2724 175.403 89.6472C169.716 97.2019 163.274 102.221 154.161 104.722C150.478 105.716 147.582 107.789 143.951 105.579C140.113 103.249 138.829 98.7094 138.64 94.461Z" fill="#406144"/>
<path d="M82.7589 110.083C80.292 114.897 81.4569 120.876 83.9409 125.707C86.4078 130.538 90.0738 134.649 92.9004 139.275C96.5664 145.288 98.6907 151.797 99.2903 158.804C100.335 155.121 102.134 151.849 104.652 148.988C108.318 144.808 113.321 141.93 116.884 137.647C122.914 130.384 123.942 120.259 123.993 110.803C123.993 107.942 123.291 104.276 120.481 103.813C118.957 103.556 117.501 104.447 116.061 105.013C108.781 107.771 104.447 101.415 97.8513 101.158C92.4207 100.935 85.2086 105.287 82.7589 110.083Z" fill="#406144"/>
<mask id="mask4_287_104848" style="mask-type:luminance" maskUnits="userSpaceOnUse" x="282" y="127" width="69" height="32">
<path d="M282.317 127.455H350.379V158.154H282.317V127.455Z" fill="white"/>
</mask>
<g mask="url(#mask4_287_104848)">
<path d="M298.197 137.682C302.36 136.175 306.077 133.657 310.017 131.669C313.975 129.682 318.429 128.175 322.78 128.946C328.296 129.939 332.579 134.308 337.821 136.278C341.898 137.614 346.061 138.042 350.326 137.562C344.485 140.355 339.157 143.935 334.36 148.286C330.694 151.627 326.994 155.567 322.078 156.167C317.641 156.715 313.392 154.317 309.915 151.507C306.454 148.698 303.353 145.34 299.362 143.318C295.302 141.28 290.368 140.989 286.548 138.539C288.055 138.042 290.162 138.933 291.824 138.916C294.017 138.882 296.141 138.47 298.197 137.682Z" fill="#63805A"/>
</g>
<path d="M36.8463 242.026C26.7732 247.919 14.9529 250.455 3.26953 250.421C10.259 257.53 18.7902 263.954 28.6919 264.896C36.6064 265.633 44.4353 262.789 51.5275 259.192C53.035 258.506 54.4226 257.616 55.6732 256.519C57.0437 255.08 58.0715 253.419 58.7739 251.551C62.5427 242.386 61.9603 232.193 60.487 222.583C60.2643 221.092 60.5213 217.992 58.6369 218.197C57.0266 218.369 56.0672 221.76 55.4848 222.874C53.4804 226.66 50.9964 230.086 48.0499 233.17C44.7265 236.664 40.992 239.611 36.8463 242.026Z" fill="#63805A"/>
<path d="M64.1206 209.94C64.8573 217.495 67.1871 224.93 66.7931 232.519C66.1935 243.688 59.718 253.727 52.0433 261.83C50.433 255.371 50.4844 248.622 50.7756 241.958C50.8612 235.037 51.7692 228.219 53.5165 221.521C55.3324 215.97 57.5423 210.591 60.1634 205.383C62.3904 200.535 63.4868 194.745 65.9365 190.137C64.1549 196.629 63.5382 203.225 64.1206 209.94Z" fill="#406144"/>
<path d="M33.3854 96.7555C30.5416 99.9418 29.6508 104.379 29.0513 108.61C27.2182 121.51 27.184 134.735 23.5693 147.258C29.4967 139.24 38.3362 133.69 43.801 125.347C49.1288 117.227 50.6706 107.36 51.2873 97.8519C51.4586 95.3336 51.9896 94.3571 49.7626 93.2265C47.8268 92.5241 45.8225 92.2672 43.7496 92.4385C39.6725 92.3871 36.2291 93.8261 33.3854 96.7555Z" fill="#63805A"/>
<path d="M114.247 344.675C113.322 343.356 112.14 342.363 110.684 341.695C109.502 341.249 108.286 341.044 107.035 341.078C103.455 341.078 99.9944 341.746 96.671 343.082C93.3304 344.418 90.3839 346.337 87.78 348.821C82.5379 353.909 79.1974 360.059 77.8098 367.254C76.7991 373.198 76.5421 379.177 77.0218 385.19C77.2445 390.312 77.5699 395.434 77.9811 400.557C77.964 402.732 78.495 404.771 79.5914 406.672C89.2704 401.773 101.125 402.064 110.256 396.188C115.275 392.933 119.044 388.051 122.093 382.895C124.697 378.526 126.89 373.507 125.948 368.505C124.903 362.988 120.62 361.018 117.862 356.77C115.601 353.241 117.057 348.496 114.247 344.675Z" fill="#406144"/>
<path d="M59.9069 248.827C62.8535 248.93 65.1833 250.181 66.8964 252.596C68.5067 254.943 69.2433 257.53 69.1063 260.391C68.9521 264.382 67.5131 267.843 64.7379 270.721C61.0033 274.61 55.47 276.357 51.804 280.297C47.7611 284.648 46.6476 290.901 45.7053 296.777C42.0564 286.104 35.2212 276.494 33.3882 265.376C32.583 260.357 33.0284 254.669 36.5745 251.037C39.0928 248.656 42.0736 247.406 45.534 247.269C48.4977 247.046 50.0909 248.039 52.4721 249.427C54.1167 250.369 53.2087 250.472 55.1274 250.181C56.7891 249.924 58.0739 248.81 59.9069 248.827Z" fill="#406144"/>
<path d="M105.269 592.422C104.995 592.354 104.823 592.714 104.772 592.988C104.378 595.163 104.669 597.253 105.628 599.241C106.639 598.761 107.204 597.973 107.324 596.859C107.736 596.877 108.13 596.791 108.506 596.585C108.9 596.345 109.072 596.003 109.003 595.54C108.918 595.283 108.781 595.061 108.592 594.872L106.571 592.611C106.382 592.354 106.142 592.165 105.851 592.063C105.543 591.977 105.166 592.165 105.149 592.474" fill="white"/>
<path d="M100.317 583.309L100.283 588.072C99.1863 588.774 97.4389 587.849 96.5995 588.826L96.0342 587.661C96.137 587.472 96.3083 587.352 96.531 587.301C96.7537 587.267 96.9421 587.318 97.1306 587.455C97.3533 586.941 97.4732 586.427 97.4561 585.862C97.6102 584.714 98.1756 583.84 99.152 583.207C99.7516 583.412 100.231 583.275 100.608 582.761" fill="white"/>
<path d="M107.716 562.872C106.311 561.965 104.804 561.759 103.211 562.256C103.022 562.324 102.885 562.444 102.782 562.615C102.714 562.872 102.731 563.129 102.868 563.352C103.519 564.877 104.513 566.11 105.883 567.035C106.277 567.258 106.62 567.549 106.928 567.875C107.254 568.371 107.442 568.903 107.493 569.502C107.613 570.65 107.939 571.746 108.436 572.791C108.984 573.922 109.892 574.556 111.142 574.676C112.102 574.693 113.078 574.162 114.003 574.402C114.945 574.641 115.494 575.567 115.956 576.406L119.005 581.905C120.05 579.884 120.205 577.811 119.468 575.652C119.331 575.292 119.108 574.984 118.817 574.744C118.457 574.487 118.046 574.333 117.618 574.265C115.905 573.836 114.311 573.134 112.821 572.175C111.913 571.575 110.971 570.718 111.039 569.639C111.176 568.937 111.468 568.303 111.896 567.738C112.667 566.453 113.284 564.928 112.119 564.14C111.433 564.037 110.765 563.986 110.08 563.952C109.258 563.678 108.47 563.318 107.716 562.872Z" fill="white" fill-opacity="0.65"/>
<path d="M101.686 574.831C101.96 575.122 102.303 575.345 102.56 575.653C102.817 576.013 103.005 576.407 103.142 576.835L104.136 579.456C104.427 580.21 104.684 581.152 104.136 581.752C103.708 580.193 102.217 579.234 101.121 578.035C99.4763 576.27 98.8082 574.18 99.0994 571.799C101.464 572.004 100.384 573.443 101.686 574.831Z" fill="white" fill-opacity="0.65"/>
<path d="M126.562 490.819C125.86 491.35 125.226 491.95 124.66 492.618C124.147 493.218 123.684 494.143 124.215 494.725C124.489 494.965 124.78 495.102 125.14 495.136C126.425 495.41 127.71 495.513 129.029 495.445C129.731 495.462 130.382 495.29 130.982 494.931C131.65 494.502 131.873 493.92 131.616 493.166C131.222 492.292 129.92 492.207 129.406 491.385C129.337 491.213 129.234 491.059 129.097 490.922C128.977 490.853 128.823 490.802 128.669 490.785C127.847 490.562 127.025 490.631 126.236 490.973" fill="white" fill-opacity="0.65"/>
<path d="M130.075 500.191C129.526 501.082 129.561 501.955 130.195 502.795C130.914 503.583 132.216 503.548 133.055 504.217C133.381 504.508 133.655 504.816 133.912 505.159C134.82 506.169 135.831 507.026 136.961 507.763C137.287 508.02 137.647 508.242 138.023 508.414C138.743 508.653 139.462 508.722 140.199 508.619C140.525 508.619 140.816 508.534 141.09 508.362C141.518 507.883 141.621 507.334 141.415 506.735C141.004 504.696 140.028 502.966 138.503 501.561C138.229 501.27 137.886 501.082 137.509 500.979C137.253 500.927 136.996 500.962 136.739 500.91C136.07 500.739 135.779 499.985 135.368 499.454C133.929 497.587 131.12 498.375 130.075 500.191Z" fill="white" fill-opacity="0.65"/>
<path d="M123.292 505.073C125.023 506.067 126.53 507.317 127.798 508.842C130.436 511.617 133.177 514.581 133.965 518.333C134.033 518.778 134.153 519.223 134.325 519.652C135.198 521.433 137.734 521.245 139.635 521.827C141.006 522.239 142.051 523.044 142.822 524.243C142.513 526.556 139.515 527.635 137.305 526.881C135.096 526.144 133.52 524.226 131.978 522.478C131.789 522.204 131.515 522.016 131.173 521.93C130.779 521.964 130.436 522.101 130.128 522.358C128.295 523.403 126.068 522.136 124.354 520.902C123.875 520.611 123.464 520.217 123.155 519.737C122.915 519.155 122.813 518.538 122.864 517.904C122.744 514.958 121.956 512.217 120.483 509.682C119.13 507.369 117.159 505.073 117.485 502.418C119.472 503.206 121.408 504.097 123.292 505.073Z" fill="white" fill-opacity="0.65"/>
<path d="M112.826 494.915C112.415 494.384 111.901 494.024 111.267 493.836C110.958 493.767 110.616 493.784 110.307 493.75C108.937 493.544 108.098 492.208 107.361 491.026C106.624 489.861 105.562 488.594 104.192 488.731C103.883 488.782 103.575 488.816 103.267 488.833C102.667 488.679 102.187 488.354 101.845 487.84C101.228 487 100.406 486.486 99.395 486.281C97.9046 486.178 96.7226 487.669 96.4656 489.142C96.3629 490.632 96.3629 492.123 96.4999 493.63C96.4314 496.268 95.2322 499.129 96.517 501.442L98.4186 500.328C98.8126 500.088 99.258 499.814 99.3608 499.352C99.395 498.941 99.3265 498.564 99.1552 498.187C98.8297 496.902 99.1895 495.874 100.269 495.103C100.834 494.829 101.365 494.487 101.845 494.076C102.033 493.801 102.239 493.544 102.479 493.322C102.924 493.065 103.404 492.996 103.9 493.099C105.031 493.065 105.973 493.459 106.727 494.332C106.933 494.726 107.07 495.138 107.155 495.583C107.549 496.988 108.337 498.118 109.519 498.975C110.427 499.557 111.387 500.003 112.415 500.328L115.652 501.493C115.618 501.493 115.55 498.821 115.413 498.41C114.762 497.091 113.905 495.926 112.826 494.915Z" fill="white" fill-opacity="0.65"/>
<path d="M98.2635 502.915C97.8181 502.846 97.4241 502.932 97.0643 503.172C96.6874 503.412 96.4647 503.754 96.3619 504.183C96.2763 504.611 96.3277 505.022 96.5675 505.399C96.7902 505.776 97.1157 506.016 97.5269 506.136C97.938 506.256 98.3491 506.256 98.7432 506.101C99.0686 505.999 99.5654 505.947 99.5654 506.273C100.216 505.879 100.508 505.313 100.405 504.56C100.319 503.789 99.9081 503.309 99.1714 503.086C98.6746 502.949 98.0408 502.966 97.7838 502.521" fill="white" fill-opacity="0.65"/>
<path d="M97.3889 508.79C97.0291 508.824 96.7208 508.978 96.4809 509.252C96.2411 509.526 96.1212 509.835 96.1383 510.212C96.1897 510.948 96.4981 511.548 97.0634 512.028C97.2861 512.216 97.6116 512.404 97.8686 512.25C97.9885 512.147 98.0741 512.028 98.1255 511.873C98.314 511.325 98.4853 510.777 98.6052 510.229C98.7594 509.852 98.708 509.492 98.4681 509.167C98.1084 508.841 97.3375 508.978 97.2347 508.499" fill="white" fill-opacity="0.65"/>
<path d="M114.69 485.767C113.988 487.171 112.361 488.285 112.583 489.844C114.005 488.405 115.598 487.223 117.397 486.298C118.87 485.544 120.172 483.18 117.911 482.34C115.701 481.535 115.358 484.465 114.69 485.767Z" fill="white" fill-opacity="0.65"/>
<path d="M86.3384 509.578C86.3384 509.681 86.3898 509.766 86.4926 509.818C86.6982 509.92 86.8181 509.595 86.8181 509.355V507.111C86.9209 504.661 86.8695 502.229 86.6468 499.779C84.06 501.406 85.7731 507.316 86.3384 509.578Z" fill="white" fill-opacity="0.65"/>
<path d="M173.862 419.795C174.41 420.24 175.112 420.463 175.66 420.891C176.671 421.679 177.099 423.067 178.162 423.786C178.453 423.958 178.727 424.146 179.001 424.369C179.292 424.712 179.498 425.088 179.635 425.517C180.251 426.939 181.159 428.155 182.359 429.148C182.667 427.538 182.41 426.013 181.588 424.574C180.8 423.204 179.857 421.936 178.761 420.789C177.459 419.315 177.117 416.249 175.626 415.204C173.845 413.936 171.943 416.197 171.292 417.739C172.457 418.082 172.971 419.093 173.862 419.795Z" fill="white" fill-opacity="0.65"/>
<path d="M173.843 403.126C174.323 404.617 175.248 405.713 176.635 406.433C177.098 406.553 177.526 406.724 177.937 406.981C178.383 407.306 178.588 407.889 179.017 408.231C179.394 408.488 179.805 408.642 180.267 408.694C181.364 408.917 182.477 409.139 183.591 409.328C183.282 407.632 182.391 406.33 180.918 405.439C180.558 405.268 180.233 405.028 179.976 404.737C179.411 403.931 179.976 402.612 179.239 401.961C178.982 401.79 178.743 401.653 178.468 401.533C177.903 401.053 177.526 400.471 177.338 399.769C176.396 397.61 170.982 390.963 168.395 394.184C167.093 395.794 168.601 397.079 169.834 397.919C171.736 399.22 173.072 400.951 173.843 403.126Z" fill="white" fill-opacity="0.65"/>
<path d="M141.466 393.979C140.318 394.51 139.136 394.955 137.92 395.315C136.892 395.401 135.881 395.589 134.888 395.863C134.185 396.223 133.569 396.685 133.055 397.268C131.342 398.981 129.8 400.848 128.412 402.835C129.748 402.716 131.067 402.459 132.369 402.065C135.744 401.071 138.931 399.221 142.442 399.118C145.714 399.032 148.867 400.471 152.139 400.626C152.104 400.626 151.076 397.148 150.922 396.822C150.562 395.829 149.894 395.109 148.969 394.647C146.554 393.328 144.053 393.105 141.466 393.979Z" fill="white" fill-opacity="0.65"/>
<path d="M59.5957 471.171C60.2296 471.462 60.7607 471.941 61.4116 472.198C62.1654 472.404 62.9363 472.507 63.7243 472.524C65.3004 472.712 66.688 473.295 67.8871 474.323C68.2983 474.717 68.7437 475.059 69.2405 475.316C69.8229 475.607 70.3197 475.505 70.7651 475.008C70.8679 474.819 70.9536 474.614 70.9878 474.408C71.1763 473.586 71.3305 472.764 71.4675 471.924C71.536 471.65 71.5189 471.376 71.4333 471.102C71.2448 470.811 70.9707 470.605 70.6281 470.52C69.052 469.766 67.3903 469.218 65.6772 468.858C64.6151 468.738 63.553 468.567 62.4909 468.361C61.8056 468.087 61.0861 467.899 60.3495 467.761C59.7842 467.744 59.2189 467.796 58.6535 467.933C55.2273 468.618 51.8697 469.577 48.5977 470.828C50.4649 471.325 52.3836 471.53 54.3194 471.462C54.8847 471.393 59.5957 470.074 59.5957 471.171Z" fill="white" fill-opacity="0.65"/>
<path d="M44.1781 491.18C44.7434 491.762 45.48 492.156 46.1139 492.688C46.9019 493.407 47.57 494.212 48.1353 495.12L51.7842 500.396C52.4009 501.287 53.0176 502.178 53.5658 503.137C51.0818 502.161 49.1632 500.534 47.8098 498.238C47.313 497.416 46.9361 496.542 46.4393 495.737C45.3601 493.938 43.784 492.482 42.7219 490.683C41.7455 489.039 41.2315 487.257 41.1973 485.355C41.1973 485.715 42.7391 487.154 42.9618 487.805C43.39 489.073 43.1159 490.118 44.1781 491.18Z" fill="white" fill-opacity="0.65"/>
<path d="M47.2284 431.975C46.8686 433.037 46.269 433.996 45.8408 435.024C45.3268 436.24 45.0527 437.525 45.0527 438.844C46.5431 438.056 47.4168 436.292 48.9929 435.743C49.7638 435.469 50.6203 435.521 51.3741 435.212C52.3505 434.716 53.0529 433.962 53.4812 432.951C53.7895 432.437 53.9608 431.889 53.978 431.307C53.978 430.81 53.7724 430.33 53.721 429.85C53.5326 427.743 53.721 425.139 50.8773 426.801C48.7359 428.035 47.9993 429.765 47.2284 431.975Z" fill="white" fill-opacity="0.65"/>
<path d="M40.8574 400.814C42.0223 400.026 43.2215 399.272 44.4378 398.57C45.4485 397.987 46.4764 397.473 47.5556 397.045C48.9946 396.497 51.924 395.178 52.8491 396.583C53.7571 397.97 52.575 398.861 51.5129 399.495C50.0739 400.471 48.5321 401.294 46.9218 401.962C45.0716 402.527 42.6562 401.362 40.8574 400.814Z" fill="white" fill-opacity="0.65"/>
<path d="M33.7136 415.443C34.7415 414.381 35.2383 413.096 35.1526 411.605C35.1526 410.166 34.4674 405.198 32.8571 408.453C32.2746 409.652 33.6794 415.46 33.7136 415.443Z" fill="white" fill-opacity="0.65"/>
<path d="M83.0159 408.625C82.5877 409.43 82.3478 410.304 82.3136 411.212C81.8682 414.124 81.8168 417.036 82.1422 419.948C82.7247 423.837 84.5406 427.469 84.9346 431.375C82.0395 428.582 79.0415 425.636 77.791 421.816C77.1057 419.315 77.0715 416.813 77.6882 414.312C78.322 411.811 79.5041 409.618 81.2857 407.734C81.7654 407.083 82.3992 406.672 83.1872 406.501C86.1338 406.209 83.4099 408.025 83.0159 408.625Z" fill="white" fill-opacity="0.65"/>
<path d="M82.7598 434.733C83.051 435.864 83.5307 436.909 84.2159 437.851C84.49 438.211 84.8497 438.588 85.3123 438.536C86.0318 438.468 86.1688 437.405 85.7748 436.789C85.3808 436.189 84.7127 435.795 84.3529 435.161C84.2159 434.819 84.0275 434.527 83.7705 434.253C83.4621 434.048 82.9139 434.236 82.9825 434.596" fill="white" fill-opacity="0.65"/>
<path d="M77.1048 430.313C76.6766 430.296 76.5224 430.947 76.7451 431.323C76.9678 431.7 77.3789 431.94 77.6188 432.317C77.9443 432.848 77.8929 433.636 78.4068 433.996C78.6638 434.133 78.9378 434.236 79.2291 434.287C79.6916 434.424 80.0514 434.715 80.2912 435.126C80.4968 434.835 80.6338 434.51 80.6681 434.15C80.7195 433.79 80.6681 433.431 80.531 433.105C80.394 432.762 80.1713 432.488 79.8972 432.266C79.606 432.043 79.2805 431.906 78.9207 431.837C78.698 431.837 78.4924 431.769 78.2869 431.649C78.167 431.478 78.0813 431.289 78.047 431.084C77.8243 430.313 77.3275 429.833 76.5566 429.627" fill="white" fill-opacity="0.65"/>
<path d="M89.2153 377.48C88.5986 379.896 88.5643 382.448 87.8105 384.846C89.0611 383.613 89.9519 382.174 90.5001 380.512C90.6714 379.844 90.8941 379.176 91.1682 378.542C91.6993 377.617 92.3331 376.743 93.0355 375.955C93.9606 374.722 95.982 370.936 92.967 371.981C90.9455 372.666 89.695 375.596 89.2153 377.48Z" fill="white" fill-opacity="0.65"/>
<path d="M96.4127 353.052C96.6183 353.874 97.5091 354.268 98.28 354.56L100.13 355.262C100.867 355.485 101.535 355.827 102.152 356.273C102.666 356.667 103.042 357.198 103.522 357.626C104.481 358.38 105.526 358.945 106.674 359.322C107.205 358.431 107.377 357.472 107.171 356.461C106.828 355.707 106.314 355.142 105.578 354.782C104.875 354.422 104.224 353.977 103.659 353.429C102.94 352.624 103.419 351.63 102.871 350.996C102.117 350.465 101.278 350.208 100.353 350.191C98.9995 350.174 95.9331 351.219 96.4127 353.052Z" fill="white" fill-opacity="0.65"/>
<path d="M114.741 367.031C114.758 367.425 114.827 367.802 114.981 368.179L115.409 369.567C115.529 370.183 115.838 370.68 116.317 371.057C116.865 371.348 117.397 371.331 117.91 371.04C118.407 370.749 118.818 370.389 119.161 369.943C119.435 369.601 119.709 369.258 119.966 368.916C120.292 368.59 120.394 368.213 120.292 367.751C120.086 367.271 119.418 367.254 118.87 367.305C119.469 367.237 118.664 363.896 117.602 363.759C116.386 363.605 114.741 365.986 114.741 367.031Z" fill="white" fill-opacity="0.65"/>
<path d="M109.859 367.168C109.585 366.877 109.26 366.74 108.866 366.723C108.472 366.706 108.129 366.826 107.838 367.083C107.529 367.34 107.375 367.665 107.324 368.059C107.29 368.453 107.392 368.796 107.632 369.104C107.786 369.275 107.906 369.429 108.043 369.601C108.146 369.841 108.232 370.098 108.266 370.372C108.42 371.177 108.814 371.811 109.465 372.29C110.15 372.804 110.887 372.873 111.658 372.547C112.24 372.17 112.6 371.657 112.754 370.988C112.909 370.337 112.823 369.704 112.463 369.121C111.726 367.99 110.699 367.22 109.38 366.843" fill="white" fill-opacity="0.65"/>
<path d="M106.536 374.226C105.885 373.233 105.045 372.136 103.863 372.119C103.298 372.171 102.801 372.393 102.39 372.787C101.962 373.181 101.722 373.661 101.636 374.226C101.499 375.357 101.636 376.453 102.047 377.498C102.065 377.841 102.202 378.115 102.459 378.321C102.716 378.543 103.007 378.646 103.332 378.629C104.48 378.92 105.525 378.732 106.484 378.046C107.17 377.344 107.272 376.573 106.793 375.717C106.536 375.288 106.09 374.809 106.33 374.363" fill="white" fill-opacity="0.65"/>
<path d="M89.7141 374.448C89.3201 376.984 88.8575 379.485 88.3436 381.986C88.2408 382.517 88.1209 383.048 88.001 383.562L89.577 381.695C90.5364 380.547 91.4957 379.399 92.3522 378.148C93.2945 376.761 96.7549 371.639 94.7335 370.251C92.2323 368.521 89.9882 372.701 89.7141 374.448Z" fill="white" fill-opacity="0.65"/>
<path d="M57.9858 256.331C57.1806 256.314 56.3926 256.468 55.6388 256.776C54.2512 257.65 53.309 258.866 52.7951 260.425C52.6409 260.665 52.6066 260.922 52.658 261.196C52.8122 261.522 53.0692 261.676 53.446 261.607C53.7715 261.539 54.0628 261.419 54.3369 261.265C56.5467 260.168 59.1507 260.425 61.549 259.843C62.1315 259.774 62.594 259.5 62.9537 259.038C64.6497 256.177 59.2192 256.279 57.9858 256.331Z" fill="white" fill-opacity="0.65"/>
<path d="M55.4029 265.461C54.632 266.986 54.1523 268.596 53.9639 270.292L56.602 268.1C57.6984 267.397 58.4179 266.421 58.7948 265.17C58.8291 264.982 58.8291 264.793 58.8119 264.605C58.4008 262.224 55.8825 264.536 55.4029 265.461Z" fill="white" fill-opacity="0.65"/>
<path d="M290.851 159.575C291.279 160.414 291.913 161.151 292.375 161.99C293.095 163.549 293.592 165.177 293.849 166.89C294.568 169.631 295.51 172.286 296.675 174.89C298.817 172.166 298.697 168.329 298.286 164.903C298.2 164.098 298.063 163.327 297.857 162.556C297.275 160.569 295.99 158.838 295.442 156.834C295.322 156.423 295.168 155.926 294.757 155.84C294.568 155.823 294.397 155.823 294.208 155.858C293.557 155.806 293.044 155.515 292.65 154.984C292.255 154.47 291.759 154.144 291.125 154.025C289.343 153.922 290.422 158.736 290.851 159.575Z" fill="white" fill-opacity="0.65"/>
<path d="M179.944 195.945C178.54 195.739 177.426 196.201 176.604 197.349C176.073 197.897 175.576 198.685 175.919 199.371C176.141 199.748 176.467 200.005 176.878 200.142C177.82 200.553 178.814 200.724 179.842 200.656C180.27 200.57 180.681 200.604 181.092 200.758C181.332 200.878 181.503 201.084 181.743 201.204C182.034 201.324 182.343 201.358 182.651 201.324L183.885 201.307C184.022 201.324 184.142 201.289 184.244 201.221C184.33 201.118 184.364 200.998 184.347 200.878C184.364 200.193 184.244 199.559 184.004 198.925C183.748 198.309 183.388 197.76 182.908 197.298C182.428 196.818 181.88 196.476 181.246 196.236C180.63 195.996 179.979 195.876 179.311 195.91C179.139 195.927 178.934 195.91 178.899 195.756C178.848 195.602 179.191 195.602 179.088 195.722" fill="white" fill-opacity="0.65"/>
<path d="M168.652 179.962C168.12 179.431 167.487 179.037 166.784 178.78C166.185 178.557 165.294 178.626 165.174 179.242C165.071 179.825 165.722 180.202 166.168 180.578C166.63 180.972 166.921 181.486 167.007 182.12C167.007 182.566 167.075 182.994 167.178 183.439C167.35 183.85 167.881 184.159 168.24 183.902C168.377 183.782 168.48 183.628 168.514 183.456C168.943 182.292 168.908 181.144 168.429 180.013" fill="white" fill-opacity="0.65"/>
<path d="M175.675 209.683C175.161 210.591 174.818 211.585 174.681 212.63C174.596 213.264 174.647 214.035 175.212 214.36C175.401 214.446 175.606 214.514 175.829 214.531C176.549 214.634 177.439 214.668 177.833 214.052C178.21 213.452 177.816 212.681 177.422 212.082L175.384 208.964" fill="white" fill-opacity="0.65"/>
<path d="M184.962 123.48L187.583 129.305C188.354 131.241 189.347 133.056 190.547 134.752C191.626 133.673 192.02 132.388 191.746 130.898C191.455 129.51 190.941 128.208 190.187 127.009C189.159 125.193 188.028 123.412 186.846 121.699C186.589 121.236 186.23 120.911 185.75 120.722C185.459 120.671 185.185 120.671 184.911 120.722C184.431 120.774 183.985 120.876 183.54 121.065C184.071 121.836 184.551 122.641 184.962 123.48Z" fill="white" fill-opacity="0.65"/>
<path d="M181.689 117.244C182.186 117.586 182.751 117.792 183.265 118.1C183.488 118.271 183.728 118.374 184.002 118.409C184.242 118.391 184.464 118.34 184.67 118.237C185.646 117.912 186.554 118.032 187.411 118.614C187.651 117.843 187.428 117.244 186.726 116.85C186.109 116.507 185.458 116.319 184.773 116.267C184.07 116.216 183.437 115.976 182.871 115.548C182.135 114.897 181.946 112.721 180.747 113.509C179.411 114.383 180.833 116.661 181.689 117.244Z" fill="white" fill-opacity="0.65"/>
<path d="M180.39 100.061C180.715 100.13 181.041 100.164 181.383 100.13C181.64 100.061 181.88 99.9755 182.103 99.8213C182.822 99.4102 183.456 98.9134 184.039 98.3309C184.244 98.1425 184.399 97.9198 184.484 97.6628C184.553 97.2003 184.399 96.8405 184.022 96.5664C183.662 96.3437 183.268 96.2067 182.84 96.1724C181.452 96.0182 180.064 96.0354 178.677 96.2238C176.827 96.3095 175.011 96.6692 173.263 97.2688C171.225 98.0911 168.295 101.62 172.407 101.689C173.572 101.706 174.822 100.661 175.919 100.335C177.392 99.907 178.882 99.8042 180.39 100.061Z" fill="white" fill-opacity="0.65"/>
<path d="M173.946 121.802C172.541 121.682 171.222 121.288 170.006 120.602C169.389 120.243 168.926 119.746 168.635 119.095C168.344 118.427 168.275 117.759 168.43 117.056C168.447 116.953 166.168 116.148 165.98 115.891C165.517 115.052 165.449 114.161 165.74 113.253C166.271 111.968 167.179 111.831 168.447 112.277C171.787 113.442 173.123 118.821 173.946 121.802Z" fill="white" fill-opacity="0.65"/>
<path d="M159.198 106.503C158.341 106.914 157.382 107.479 157.262 108.404C157.091 109.655 158.427 110.477 159.198 111.454C160.02 110.683 160.534 109.741 160.74 108.627C160.825 107.548 159.883 106.332 158.821 106.589" fill="white" fill-opacity="0.65"/>
<path d="M159.3 92.9867C160.277 92.5584 161.15 91.9931 161.921 91.2736C162.88 90.1087 163.531 88.7896 163.874 87.3163C163.343 86.8538 163.566 85.3463 163.292 84.6953C162.88 83.7702 162.332 82.9479 161.63 82.2284C160.482 81.0635 159.643 80.8751 158.289 82.2456C157.655 82.9651 157.244 83.8045 157.073 84.7467C156.902 85.706 157.004 86.6311 157.364 87.5219C157.518 88.053 159.882 92.6783 159.3 92.9867Z" fill="white" fill-opacity="0.65"/>
<path d="M169.475 69.9631C168.533 70.3057 168.43 71.5734 168.498 72.5841L168.636 74.8283C168.636 75.0339 168.687 75.2223 168.824 75.3594C169.132 75.6163 169.561 75.2223 169.715 74.8626C170.52 73.0467 170.366 71.3164 169.252 69.6719" fill="white" fill-opacity="0.65"/>
<path d="M256.382 45.6372C256.536 46.1169 256.742 46.5794 256.981 47.0248C257.478 47.7615 258.438 48.0184 259.157 48.5666C260.356 49.4917 260.904 51.3247 262.395 51.7016C262.652 51.7872 262.892 51.753 263.131 51.6331C263.628 51.3076 263.388 50.5196 263.046 50.0228C262.395 49.0977 261.607 48.3097 260.682 47.6587C260.099 47.3674 259.654 46.922 259.311 46.3739C258.626 44.7807 261.675 38.9904 257.375 40.3095C256.108 40.7892 255.234 41.68 254.737 42.9477C253.915 45.3974 255.611 44.0098 256.382 45.6372Z" fill="white" fill-opacity="0.65"/>
<path d="M121.852 70.2875C122.572 71.2811 123.103 72.3946 123.822 73.3882C123.925 73.5424 124.045 73.6794 124.216 73.7651C124.456 73.8336 124.679 73.7822 124.833 73.5766C125.004 73.3882 125.038 73.1655 124.936 72.9257C124.405 71.5038 122.914 64.9598 121.458 64.6343C118.169 63.9148 121.287 69.5337 121.852 70.2875Z" fill="white" fill-opacity="0.65"/>
<path d="M113.34 37.9451C113.991 38.6133 114.573 39.3499 115.087 40.1379C115.395 41.1829 115.498 42.2622 115.43 43.3414C115.498 44.4378 116.098 45.6712 117.177 45.7569C118.599 45.517 119.627 44.729 120.243 43.4099C120.5 42.2108 119.25 41.3199 118.565 40.3092C118.136 39.367 117.622 38.4762 117.04 37.6197C116.509 37.14 115.892 36.7974 115.207 36.5747C114.727 36.3691 113.511 35.5811 113.014 36.0436C112.637 36.4205 112.963 37.6368 113.34 37.9451Z" fill="white" fill-opacity="0.65"/>
<path d="M107.597 39.3154C107.803 39.6752 108.06 39.9835 108.402 40.2234C108.985 40.9257 109.481 41.6795 109.858 42.5018C110.269 43.3755 110.938 43.9579 111.828 44.2834C112.291 42.8444 112.12 41.4911 111.28 40.2405C110.869 39.4696 109.499 36.506 108.573 36.3175C107.34 36.0777 107.203 38.4075 107.597 39.3154Z" fill="white" fill-opacity="0.65"/>
<path d="M95.8963 45.3967C96.0334 46.613 96.2561 47.795 96.5644 48.977C96.7015 49.4738 97.0784 50.0906 97.5409 49.9021C97.7807 49.7651 97.9178 49.5595 97.9692 49.2854C98.3289 47.8293 98.3118 46.3731 97.9007 44.917C97.3182 42.4501 95.6051 42.9641 95.8963 45.3967Z" fill="white" fill-opacity="0.65"/>
<path d="M103.524 43.974C103.627 44.7791 103.901 45.5158 104.363 46.1667C104.603 46.5094 104.997 46.852 105.391 46.7492C105.648 46.6464 105.819 46.4922 105.922 46.2353C106.367 45.3616 106.23 44.5907 105.477 43.9568C105.134 43.6827 104.74 43.58 104.312 43.6485C103.866 43.717 103.524 43.9226 103.267 44.2823C103.198 44.3509 103.181 44.4365 103.215 44.5222C103.267 44.6078 103.421 44.5736 103.404 44.4879" fill="white" fill-opacity="0.65"/>
<path d="M188.595 15.1258C189.126 16.582 189.366 18.0895 189.349 19.6313C189.349 19.8711 189.417 20.0767 189.554 20.248C189.725 20.4193 190 20.4193 190.239 20.4878C190.479 20.5735 190.702 20.8476 190.548 21.0532C190.428 19.1688 191.096 17.2843 190.856 15.4171C190.77 14.8003 190.599 14.2179 190.325 13.6526C189.434 11.7682 187.91 13.6526 188.595 15.1258Z" fill="white" fill-opacity="0.65"/>
<path d="M192.69 9.98772C192.039 10.6216 191.731 11.3925 191.817 12.3004C191.851 12.8486 192.245 13.4824 192.776 13.3797C193.136 13.3111 193.341 12.9342 193.461 12.5745C193.633 12.0263 193.701 11.4439 193.667 10.8614C193.667 10.4503 193.53 10.0905 193.239 9.79927C192.879 9.43953 192.536 9.47379 192.228 9.88493" fill="white" fill-opacity="0.65"/>
<path d="M187.429 262.738C186.624 262.241 185.801 262.224 184.979 262.704C184.757 260.785 183.883 259.243 182.358 258.078C181.947 257.719 181.467 257.53 180.919 257.53C180.028 257.582 179.446 258.472 179.086 259.295C178.367 260.956 177.973 262.67 177.921 264.468C177.853 265.239 177.973 265.976 178.247 266.695C178.572 267.466 179.155 267.895 179.977 267.997C180.457 267.963 180.936 267.877 181.399 267.706C183.626 267.158 186.213 268.306 188.131 267.072C190.41 265.633 189.313 263.783 187.429 262.738Z" fill="white"/>
<path d="M178.163 273.273C176.364 275.654 178.762 279.783 176.587 281.839C175.645 280.759 175.028 279.526 174.737 278.138C174.36 276.802 174.6 275.569 175.439 274.472C176.09 273.856 176.827 273.427 177.683 273.188C177.649 273.376 177.666 273.633 177.855 273.684C178.026 273.753 178.094 273.342 177.923 273.427" fill="white"/>
<path d="M230.17 265.359C229.93 263.817 229.399 262.395 228.56 261.093C228.32 260.579 227.977 260.134 227.549 259.757C227.138 259.483 226.693 259.294 226.213 259.157C225.031 258.712 223.952 258.078 222.992 257.238C222.324 256.57 221.605 255.971 220.817 255.423C219.977 254.84 219.069 254.772 218.144 255.2C217.185 255.971 216.705 256.981 216.705 258.215C216.414 260.391 216.157 262.583 215.969 264.776C215.746 265.89 215.866 266.952 216.311 267.997C216.945 269.127 218.315 269.778 218.744 271.012C218.898 271.474 218.915 272.022 219.275 272.365C219.754 272.708 220.286 272.776 220.834 272.605C224.722 271.954 228.714 270.721 232.534 271.663C232.877 271.783 233.219 271.817 233.562 271.766C235.464 271.286 236.8 268.511 235.309 267.226C233.87 266.01 230.376 268.048 230.17 265.359Z" fill="white"/>
<path d="M235.104 226.626L241.306 226.883C241.905 226.917 242.642 227.054 242.796 227.619C243.327 227.414 243.55 227.054 243.482 226.489C243.396 226.009 243.207 225.581 242.865 225.221C241.768 223.867 240.381 222.977 238.685 222.583C237.708 222.257 236.8 222.394 235.978 223.011C234.985 223.936 235.344 225.563 235.755 226.848" fill="white"/>
<path d="M227.483 222.719C227.312 224.929 229.35 227.156 228.374 229.143C227.62 229.28 226.986 229.623 226.489 230.205C225.65 229.246 225.119 228.133 224.896 226.865C224.81 226.231 224.965 225.649 225.341 225.118C225.718 224.604 226.232 224.278 226.866 224.175" fill="white"/>
<path d="M240.071 276.889C240.928 278.567 241.904 280.161 243.035 281.651C243.155 281.84 243.326 282.011 243.514 282.131C244.405 282.628 245.913 281.463 246.358 282.388C246.444 280.949 245.981 279.715 245.005 278.67C244.337 278.071 243.6 277.591 242.778 277.231L239.694 275.672C239.437 275.861 239.163 276.101 239.163 276.409C239.163 276.734 239.66 276.957 239.797 276.666" fill="white"/>
</svg>
