<svg width="173" height="106" viewBox="0 0 173 106" fill="none" xmlns="http://www.w3.org/2000/svg">
<mask id="mask0_283_107535" style="mask-type:luminance" maskUnits="userSpaceOnUse" x="15" y="0" width="156" height="33">
<path d="M15.7988 0H170.138V32.1217H15.7988V0Z" fill="white"/>
</mask>
<g mask="url(#mask0_283_107535)">
<path d="M170.084 31.9954H15.8594V0H170.084V31.9954Z" fill="#F68923"/>
</g>
<path d="M91.4964 33.8091C91.4964 33.8091 60.2551 62.1318 61.0328 84.2899C61.8087 106.449 92.6082 110.752 100.865 86.149C100.865 86.149 100.224 96.9418 107.231 94.3685C118.509 90.2205 113.366 44.4757 113.366 44.4757L91.4964 33.8091Z" fill="#CD1E25"/>
<path d="M93.4111 41.1114C92.9681 41.942 91.9359 42.2574 91.1028 41.8163C90.2722 41.3727 89.9549 40.3393 90.3979 39.508C90.8415 38.6749 91.875 38.3595 92.7062 38.8012C93.5393 39.2442 93.8547 40.2783 93.4111 41.1114Z" fill="white"/>
<path d="M78.7866 56.0313C78.3455 56.8644 77.3114 57.1798 76.4789 56.7362C75.6477 56.2951 75.3304 55.2616 75.7734 54.4286C76.217 53.5973 77.2504 53.2819 78.0817 53.723C78.9148 54.1666 79.2302 55.2001 78.7866 56.0313Z" fill="white"/>
<path d="M92.1043 54.2394C91.6607 55.0725 90.6272 55.3873 89.796 54.9443C88.9629 54.5026 88.6475 53.4692 89.0911 52.6361C89.5341 51.8049 90.5656 51.49 91.3987 51.9312C92.2299 52.3741 92.5473 53.4082 92.1043 54.2394Z" fill="white"/>
<path d="M99.8536 51.7207C99.4125 52.5538 98.3784 52.8692 97.5478 52.4275C96.7147 51.9845 96.3993 50.9511 96.8404 50.1199C97.284 49.2868 98.3174 48.9713 99.1487 49.4131C99.9817 49.8561 100.297 50.8895 99.8536 51.7207Z" fill="white"/>
<path d="M108.304 62.3973C107.861 63.2304 106.827 63.5458 105.996 63.1022C105.165 62.6611 104.848 61.6276 105.291 60.7946C105.735 59.9633 106.766 59.6479 107.599 60.0896C108.432 60.5326 108.747 61.5661 108.304 62.3973Z" fill="white"/>
<path d="M98.686 73.0111C98.2424 73.8423 97.209 74.1578 96.3777 73.716C95.5447 73.2731 95.2298 72.239 95.6728 71.4084C96.1139 70.5753 97.148 70.2599 97.9792 70.701C98.8123 71.1446 99.1271 72.178 98.686 73.0111Z" fill="white"/>
<path d="M106.679 85.3767C106.235 86.208 105.203 86.5228 104.37 86.0816C103.539 85.6387 103.222 84.6065 103.665 83.7734C104.108 82.9409 105.142 82.6255 105.973 83.0685C106.804 83.5102 107.122 84.5455 106.679 85.3767Z" fill="white"/>
<path d="M91.3378 64.4113C90.8966 65.2443 89.8626 65.5598 89.0295 65.1162C88.197 64.6751 87.8816 63.641 88.3246 62.8085C88.7682 61.9773 89.8016 61.66 90.6328 62.103C91.4641 62.5466 91.7814 63.58 91.3378 64.4113Z" fill="white"/>
<path d="M77.8928 78.8955C77.4517 79.7268 76.4177 80.0422 75.5846 79.6011C74.7533 79.1575 74.4385 78.124 74.8796 77.2928C75.3233 76.4597 76.3567 76.1443 77.1879 76.5879C78.021 77.029 78.3358 78.0631 77.8928 78.8955Z" fill="white"/>
<path d="M77.3576 93.1821C76.9164 94.0145 75.8824 94.33 75.0493 93.887C74.2187 93.4434 73.9032 92.4118 74.3444 91.5787C74.788 90.7475 75.8214 90.4327 76.6526 90.8738C77.4857 91.3168 77.8012 92.3508 77.3576 93.1821Z" fill="white"/>
<path d="M68.6103 83.0628C68.1691 83.8959 67.1357 84.2113 66.3026 83.7696C65.4714 83.3266 65.1559 82.2931 65.5977 81.46C66.0407 80.6288 67.0741 80.3134 67.9053 80.7545C68.7384 81.1981 69.0539 82.2315 68.6103 83.0628Z" fill="white"/>
<path d="M73.4124 69.889C72.9688 70.7202 71.9353 71.0356 71.1041 70.5939C70.271 70.1509 69.9556 69.1175 70.3992 68.2862C70.8422 67.4531 71.8744 67.1377 72.7074 67.5813C73.538 68.0224 73.8535 69.0559 73.4124 69.889Z" fill="white"/>
<path d="M82.3279 64.7497C81.8843 65.5821 80.8509 65.8976 80.0196 65.4546C79.1865 65.0129 78.8711 63.9794 79.3147 63.1463C79.7558 62.3151 80.7899 62.0003 81.6223 62.4414C82.4536 62.8844 82.7709 63.9185 82.3279 64.7497Z" fill="white"/>
<path d="M86.5845 79.987C86.1427 80.8182 85.1093 81.1355 84.2781 80.6919C83.445 80.2489 83.1295 79.2167 83.5713 78.3836C84.0143 77.553 85.0483 77.2357 85.8789 77.6787C86.712 78.1223 87.0275 79.1557 86.5845 79.987Z" fill="white"/>
<path d="M96.9763 82.8645C96.5333 83.6976 95.4999 84.0124 94.6687 83.5694C93.8374 83.1277 93.5201 82.0943 93.9637 81.2612C94.4067 80.4299 95.4383 80.1133 96.2714 80.5562C97.1026 80.9999 97.4199 82.0333 96.9763 82.8645Z" fill="white"/>
<path d="M91.3662 90.9198C90.9232 91.7523 89.891 92.0677 89.0585 91.6247C88.2273 91.1811 87.91 90.1496 88.353 89.3165C88.7966 88.4834 89.8282 88.1686 90.6613 88.6115C91.4943 89.0545 91.8098 90.0886 91.3662 90.9198Z" fill="white"/>
<path d="M86.8499 48.7786C86.4063 49.6098 85.3728 49.9252 84.5416 49.4816C83.7085 49.0405 83.3931 48.0064 83.8367 47.1758C84.2778 46.3427 85.3112 46.0273 86.1443 46.4703C86.9755 46.912 87.2929 47.9455 86.8499 48.7786Z" fill="white"/>
<path d="M99.4109 44.2542C98.9692 45.0873 97.9357 45.4027 97.1026 44.9591C96.2714 44.518 95.9566 43.4845 96.3977 42.6515C96.8407 41.8202 97.8748 41.5048 98.706 41.9459C99.5391 42.3895 99.8539 43.423 99.4109 44.2542Z" fill="white"/>
<path d="M109.69 49.0056C109.247 49.8369 108.213 50.1523 107.38 49.7112C106.549 49.2676 106.233 48.2342 106.677 47.4029C107.118 46.5698 108.152 46.2544 108.983 46.698C109.816 47.1391 110.131 48.1732 109.69 49.0056Z" fill="white"/>
<path d="M108.547 73.5653C108.103 74.3965 107.07 74.7132 106.237 74.2702C105.406 73.8266 105.091 72.7951 105.532 71.962C105.975 71.1289 107.009 70.8141 107.84 71.2571C108.673 71.7 108.988 72.7341 108.547 73.5653Z" fill="white"/>
<path d="M87.8377 71.8228C87.3947 72.654 86.3607 72.9694 85.5301 72.5277C84.697 72.0847 84.3815 71.0506 84.8245 70.22C85.2681 69.3869 86.2997 69.0715 87.1328 69.5145C87.964 69.9562 88.2813 70.9897 87.8377 71.8228Z" fill="white"/>
<path d="M91.4126 35.0814C91.4126 35.0814 87.5147 15.9806 91.4126 14.4214C95.3124 12.8622 91.4126 35.0814 91.4126 35.0814Z" fill="#CD1E25"/>
<mask id="mask1_283_107535" style="mask-type:luminance" maskUnits="userSpaceOnUse" x="119" y="36" width="54" height="70">
<path d="M119.347 36.5813H172.975V105.65H119.347V36.5813Z" fill="white"/>
</mask>
<g mask="url(#mask1_283_107535)">
<path d="M149.932 36.6304C149.932 36.6304 118.691 64.9518 119.468 87.1093C120.246 109.269 151.044 113.57 159.3 88.9684C159.3 88.9684 158.662 99.7638 165.666 97.1861C176.947 93.0399 171.801 47.2957 171.801 47.2957L149.932 36.6304Z" fill="#213260"/>
</g>
<path d="M149.848 37.901C149.848 37.901 145.95 18.8009 149.848 17.2417C153.747 15.6825 149.848 37.901 149.848 37.901Z" fill="#213260"/>
<path d="M30.476 33.2168C30.476 33.2168 -0.763435 61.5395 0.0142839 83.6976C0.790137 105.857 31.5897 110.157 39.8441 85.5567C39.8441 85.5567 39.2057 96.3496 46.2102 93.7744C57.4909 89.6282 52.3473 43.8834 52.3473 43.8834L30.476 33.2168Z" fill="#40B0BA"/>
<path d="M30.394 34.4891C30.394 34.4891 26.4961 15.3883 30.394 13.8291C34.292 12.2699 30.394 34.4891 30.394 34.4891Z" fill="#40B0BA"/>
<path d="M154.132 15.9979C154.132 18.4723 152.16 20.4782 149.723 20.4782C147.289 20.4782 145.316 18.4723 145.316 15.9979C145.316 13.5236 147.289 11.5195 149.723 11.5195C152.16 11.5195 154.132 13.5236 154.132 15.9979Z" fill="#6D2917"/>
<path d="M95.8206 14.4214C95.8206 16.894 93.8465 18.8999 91.4125 18.8999C88.9786 18.8999 87.0044 16.894 87.0044 14.4214C87.0044 11.9471 88.9786 9.94116 91.4125 9.94116C93.8465 9.94116 95.8206 11.9471 95.8206 14.4214Z" fill="#6D2917"/>
<path d="M34.8014 13.8292C34.8014 16.3017 32.8279 18.3076 30.394 18.3076C27.9594 18.3076 25.9858 16.3017 25.9858 13.8292C25.9858 11.3548 27.9594 9.34888 30.394 9.34888C32.8279 9.34888 34.8014 11.3548 34.8014 13.8292Z" fill="#6D2917"/>
</svg>
