<svg width="188" height="104" viewBox="0 0 188 104" fill="none" xmlns="http://www.w3.org/2000/svg">
<mask id="mask0_283_107512" style="mask-type:luminance" maskUnits="userSpaceOnUse" x="0" y="26" width="188" height="78">
<path d="M0.878906 26.4531H187.546V103.693H0.878906V26.4531Z" fill="white"/>
</mask>
<g mask="url(#mask0_283_107512)">
<path d="M186.644 53.4532C186.535 52.5157 186.123 51.6615 185.373 50.9897C185.295 50.9115 185.15 50.8022 184.998 50.724C184.025 49.9792 182.748 49.8699 182.077 49.8699H181.775C181.623 49.8699 181.436 49.9063 181.285 49.9428L180.915 49.047L180.498 48.1147C179.978 46.9949 179.301 45.573 178.441 44.1928C177.613 42.8126 176.681 41.5417 175.743 40.3855C174.879 39.3438 173.832 38.297 172.592 37.2136C171.358 36.1303 170.347 35.3855 169.373 34.7501C168.321 34.0782 167.123 33.4428 165.551 32.7345C163.04 31.6147 160.228 30.8699 156.931 30.4949L156.592 30.3803C156.035 30.2345 155.509 30.0834 154.946 29.974C154.795 29.9324 154.686 29.8959 154.535 29.823C154.233 29.7084 154.045 29.6355 153.9 29.5626C153.858 29.4115 153.712 29.2605 153.561 29.1511C153.15 28.8542 152.66 28.6303 152.176 28.4792C151.759 28.3282 151.311 28.2917 150.676 28.2553C149.962 28.2553 149.212 28.4063 148.462 28.6667C147.712 28.5886 146.926 28.5522 146.066 28.5522C144.754 28.5522 143.332 28.6303 141.717 28.8542C141.155 28.9272 140.67 29.3751 140.446 30.0105H140.222C138.91 30.0834 137.821 30.2345 136.811 30.4949C135.722 30.7553 134.597 31.0938 133.4 31.6147C132.462 31.9897 131.53 32.5105 130.368 33.2553C129.54 33.7813 128.754 34.4167 127.816 35.2345C126.582 34.599 125.196 33.9688 123.358 33.1824C119.051 31.3542 114.665 29.9324 110.321 28.8907C105.41 27.7345 100.54 27.1355 95.8162 27.1355C91.436 27.1355 87.1651 27.6563 83.1912 28.6667C75.8474 30.5313 68.6131 34.3022 61.6443 39.8282C56.061 44.2292 50.7797 49.7917 44.8943 57.224C41.3006 61.8126 37.2172 67.1876 34.1079 73.1251C33.6183 74.0574 33.1339 74.9897 32.7172 75.9584C31.7849 75.922 30.8058 75.849 29.8735 75.7345C27.7381 75.5522 25.6391 75.1772 23.6912 74.7657L22.6391 74.5782L22.4516 74.5417L22.3006 74.5053C21.3683 74.3178 20.3891 74.1303 19.4568 73.9428L19.1912 73.9063C18.4829 73.7553 17.7693 73.6459 17.0558 73.5313L16.0818 73.3855L15.3683 73.2709C14.9568 73.198 14.5089 73.1251 14.0974 73.047L12.9724 72.9376C12.712 72.9011 12.4464 72.9011 12.2224 72.8595H12.0349L11.6235 72.823C10.837 72.7501 10.087 72.7136 9.33702 72.7136C8.47765 72.7136 7.64952 72.7865 6.90473 72.9376H6.26411C5.74327 72.9376 5.21723 72.974 4.58181 73.0834C3.60265 73.2345 2.62869 73.6459 1.76931 74.2032C1.46723 74.3907 1.27973 74.5417 1.20681 74.8751C1.09223 75.1772 1.1339 75.5105 1.27973 75.7761C1.05577 76.5574 1.01931 77.2657 1.17036 77.9376C1.39431 78.948 2.02973 79.9167 3.19119 81.0001C4.16515 81.8595 5.25369 82.6042 6.48806 83.2761C7.64952 83.9115 8.81098 84.4324 9.89952 84.8074C11.5506 85.4063 13.3839 85.8542 15.7068 86.1876C17.3579 86.448 19.1547 86.5626 21.2172 86.5626H21.8162C23.9151 86.5261 26.087 86.3751 28.2224 86.0365C28.8214 85.9636 29.4204 85.8542 30.0193 85.7397C29.8735 87.198 29.8735 88.6511 30.061 90.0678C29.6443 90.4792 29.5714 91.1511 29.7954 91.7501C29.9829 92.1615 30.2068 92.573 30.5454 92.9793C30.9204 93.4688 31.4829 93.7292 32.0089 93.9532C32.3839 94.099 32.7954 94.1772 33.2797 94.1772C33.4672 94.1772 33.6547 94.1772 33.8422 94.1407C34.3318 94.099 34.8526 93.9532 35.4568 93.6928C35.6026 93.6147 35.7537 93.5417 35.8683 93.3907C36.3162 93.3542 36.7641 93.2449 37.2172 93.1668C38.0037 92.9793 38.7537 92.6824 39.3526 92.422C39.7641 92.2345 40.1391 92.047 40.5141 91.8595C41.1495 92.047 41.8266 92.2345 42.4985 92.422C44.2954 92.8699 46.2849 93.3178 48.3422 93.6928C48.3422 93.7292 48.4204 93.8022 48.4568 93.8751C48.6443 94.099 48.8683 94.1772 49.1287 94.2136L49.8787 94.3647C51.2276 94.6251 52.5401 94.8855 53.8891 95.073C55.5766 95.3334 57.186 95.5574 58.686 95.7084C60.3735 95.8907 62.2433 96.0417 64.3422 96.1563C64.6079 96.2292 64.9047 96.3022 65.2068 96.3803C65.9568 96.5678 66.8162 96.7136 67.7537 96.8282C69.4776 97.0522 71.2016 97.0886 72.5141 97.0886H72.8474C73.6339 97.0886 74.4256 97.0522 75.1704 97.0522C75.2849 97.2761 75.5089 97.4636 75.811 97.5001L76.0714 97.5365C76.8579 97.6459 77.6808 97.7605 78.4724 97.8334C79.4047 97.9115 80.3422 97.948 81.3943 97.948H81.8058C83.2276 97.948 84.6547 97.8699 86.1131 97.6876C86.2641 97.9845 86.561 98.3178 86.936 98.3959C87.2381 98.4688 87.5766 98.5418 87.8735 98.5834C87.7641 98.9532 87.7277 99.3282 87.7277 99.7397C87.7277 100.521 87.9099 101.641 88.7381 102.391C89.1495 102.761 89.5974 103.021 90.0506 103.172C90.3474 103.287 90.686 103.323 91.061 103.323C91.2849 103.323 91.5089 103.323 91.7329 103.287C91.9568 103.245 92.186 103.135 92.3735 102.984C94.5089 102.912 96.6443 102.276 98.4412 101.677L98.6652 101.604C99.9047 101.453 100.952 101.307 101.962 101.12C103.873 100.745 105.821 100.224 108.186 99.5157C112.754 98.0938 117.025 96.3803 120.623 94.922C121.821 94.4376 123.019 93.9532 124.259 93.4688L125.306 93.0574L125.53 92.9428C128.04 91.9376 130.665 90.8907 133.212 89.7709C134.04 89.4376 134.827 89.0626 135.65 88.724C139.019 87.9428 142.243 86.7084 144.941 85.6303C145.915 85.2553 146.853 84.8438 147.827 84.4324L148.238 84.2449C149.061 83.9115 149.926 83.5365 150.748 83.2032L151.759 82.7917L152.061 82.6772L152.551 82.8282C153.295 83.0157 154.009 83.2397 154.759 83.4272C155.66 83.6511 156.483 83.8751 157.306 84.0209L157.53 84.0626C158.504 84.3595 159.665 84.6563 160.905 84.8438C161.014 84.9584 161.165 85.0678 161.316 85.2188C161.801 85.5886 162.405 85.8907 163.113 86.1147C163.525 86.224 163.941 86.3022 164.426 86.3022C164.686 86.3022 164.915 86.3022 165.176 86.2605C165.551 86.224 165.962 86.0365 166.301 85.8907C166.561 85.8907 166.827 85.8126 167.051 85.7032C167.275 85.5886 167.462 85.4428 167.686 85.2917C167.91 85.0678 168.134 84.8438 168.321 84.5834C168.66 84.172 168.811 83.5001 168.811 83.0157C168.811 82.4532 168.66 81.8595 168.358 81.3751C167.988 80.8126 167.571 80.4376 167.123 80.0313C166.863 79.8074 166.41 79.6563 165.962 79.6563C165.811 79.6563 165.665 79.6563 165.551 79.6928C164.613 78.9115 163.415 78.3126 162.29 77.7501C163.676 76.7449 165.139 75.6251 166.863 74.2032C167.16 74.3907 167.535 74.4688 167.873 74.4688C168.212 74.4688 168.545 74.3907 168.847 74.2032L169.597 73.7553C171.394 72.7136 173.457 71.5157 175.254 70.0261C175.816 69.5417 176.118 68.7917 176.04 68.0105C178.217 66.8907 179.827 65.6928 181.103 64.349C182.452 62.9324 183.65 61.3282 184.623 59.573C185.41 58.1928 185.894 57.1095 186.16 56.1042C186.535 55.1303 186.722 54.3126 186.644 53.4532Z" fill="#BEBEBE"/>
</g>
<path d="M151.015 28.2188C150.599 28.3282 150.265 28.5157 150.041 28.8907C149.812 29.224 149.703 29.672 149.812 30.0834C149.963 30.8699 150.828 31.5001 151.651 31.2761C151.838 31.2397 151.989 31.2032 152.177 31.1667C152.401 31.1667 152.588 31.2032 152.812 31.2032C153.562 31.3907 154.312 31.6876 155.021 32.0261H154.984C155.323 32.172 155.62 32.2865 156.036 32.2136C156.411 32.1355 156.745 31.9115 156.968 31.5782C157.198 31.2397 157.271 30.8282 157.198 30.4584C157.12 30.047 156.896 29.7865 156.593 29.5261C156.26 29.2605 155.922 28.9636 155.51 28.7397C155.099 28.4792 154.646 28.2917 154.198 28.1407C153.713 27.9949 153.224 27.9167 152.698 27.9167C152.135 27.9584 151.573 28.0313 151.015 28.2188ZM154.687 31.8386C154.724 31.8386 154.724 31.8751 154.76 31.8751C154.724 31.8751 154.724 31.8751 154.687 31.8386Z" fill="#BEBEBE"/>
<mask id="mask1_283_107512" style="mask-type:luminance" maskUnits="userSpaceOnUse" x="0" y="71" width="169" height="33">
<path d="M0.878906 71.7866H168.879V103.693H0.878906V71.7866Z" fill="white"/>
</mask>
<g mask="url(#mask1_283_107512)">
<path d="M92.7489 100.969C92.5978 100.823 92.3739 100.708 92.2228 100.557C92.0353 100.412 91.8114 100.297 91.6239 100.188C91.2124 99.9272 90.7593 99.7397 90.3114 99.5887C90.1603 99.5522 90.0509 99.5157 89.8999 99.4793C89.7124 99.3647 89.5249 99.2918 89.3009 99.2918H89.2593C89.1864 99.2553 89.0718 99.2553 88.9989 99.2137C88.9624 99.2137 88.9259 99.2137 88.8895 99.2137C88.6603 99.2137 88.3999 99.4012 88.3634 99.6251C88.327 99.7032 88.3634 99.8126 88.3634 99.8855C88.2853 100.037 88.2489 100.188 88.2489 100.375C88.1395 100.484 88.0978 100.636 88.0978 100.781C88.0978 101.156 88.1759 101.531 88.327 101.865C88.4728 102.203 88.702 102.464 88.9624 102.724C89.2593 102.984 89.5978 103.172 89.9728 103.323C90.4207 103.469 90.8739 103.547 91.3218 103.469C91.4364 103.469 91.5093 103.432 91.5874 103.396C91.6968 103.432 91.8114 103.469 91.9207 103.511C92.3739 103.62 92.8582 103.396 93.0822 103.021C93.1603 102.984 93.2332 102.984 93.3062 102.912C93.4937 102.797 93.6082 102.615 93.6447 102.427C93.6812 102.24 93.6812 101.979 93.5353 101.828C93.2697 101.495 93.0457 101.229 92.7489 100.969ZM117.103 88.3178C116.577 87.198 115.905 86.4845 115.004 86.2241C114.702 86.1147 114.369 86.0782 114.067 86.0782C113.994 86.0782 113.879 86.0782 113.806 86.0782C113.395 86.1147 112.978 86.2605 112.603 86.5262C111.858 87.047 111.369 87.8699 111.108 88.4637C110.697 89.323 110.431 90.2553 110.171 91.3387C109.983 92.0835 109.832 92.8335 109.681 93.5782L109.494 94.4376L109.421 94.7345C109.27 95.4845 109.082 96.2657 108.822 97.0157C108.744 97.2397 108.634 97.422 108.52 97.6095C108.41 97.7605 108.41 97.9845 108.447 98.172C108.52 98.396 108.634 98.5835 108.822 98.6564C108.931 98.7293 109.046 98.7293 109.197 98.7293C109.494 98.7293 109.759 98.5835 109.905 98.3178C109.983 98.172 110.056 98.0574 110.134 97.9116C111.218 97.797 112.379 97.5366 113.619 97.1251C114.218 96.9376 114.78 96.7137 115.264 96.4532C115.603 96.3022 115.942 96.1199 116.28 95.9324L116.879 95.6303C116.988 95.5574 117.103 95.4428 117.103 95.2605C117.139 95.297 117.212 95.3335 117.327 95.3335C117.478 95.3335 117.624 95.2605 117.738 95.146C117.853 95.0366 117.889 94.8855 117.889 94.7345C117.962 93.7293 117.962 92.6824 117.889 91.6355C117.775 90.2918 117.514 89.2501 117.103 88.3178ZM15.6343 72.823C15.5562 72.823 15.5197 72.823 15.4468 72.8595C15.3322 72.9012 15.2228 72.9376 15.1447 72.9741C14.8843 72.7137 14.4728 72.5262 14.0197 72.5262C13.7593 72.5262 13.5353 72.5626 13.3114 72.6772C12.6707 72.4532 12.0718 72.3387 11.5093 72.1876C11.1759 72.1147 10.8374 72.0418 10.4989 71.9637C10.3114 71.9272 10.1239 71.8907 9.97282 71.8907C9.7124 71.8907 9.5249 71.9272 9.30094 72.0418C9.11344 72.1512 8.92594 72.3022 8.7749 72.4532C8.51449 72.4116 8.2124 72.4116 7.91553 72.3751C7.76448 72.3751 7.6499 72.3751 7.50407 72.3751C7.05094 72.3751 6.63949 72.4116 6.19157 72.4532C5.03011 72.5626 4.05615 72.9012 3.30615 73.4585C2.8947 73.7553 2.55615 74.0939 2.29574 74.5053C2.10824 74.8022 1.92074 75.1772 1.80615 75.6251C1.80615 75.6251 1.80615 75.6251 1.76969 75.6251C1.69678 75.6251 1.61865 75.6616 1.54574 75.698C1.39469 75.7762 1.24365 75.922 1.20719 76.073C1.13428 76.4845 1.05615 76.8178 1.05615 77.1564C1.05615 77.5262 1.09261 77.9741 1.24365 78.4637C1.43115 79.2449 1.84261 80.0678 2.36865 80.8126C2.89469 81.521 3.53011 82.1928 4.24365 82.7189C4.54053 82.9428 4.91553 83.1251 5.25407 83.2762C5.66553 83.4637 6.07699 83.5366 6.45199 83.6147C6.71761 83.6147 6.94157 83.4637 7.01449 83.2762C7.38949 83.573 7.76449 83.797 8.17594 84.021C8.5874 84.2449 9.04053 84.4324 9.48844 84.6199L9.93636 84.8074C10.0145 84.8439 10.0874 84.8439 10.1603 84.8439C10.3895 85.1824 10.6499 85.3647 10.9103 85.3647C11.0249 85.3647 11.1343 85.3282 11.2489 85.2918C12.1499 84.8074 13.0093 84.1355 13.7228 83.3126C14.4728 82.4949 15.1082 81.521 15.6343 80.3282C16.0822 79.3178 16.4207 78.1616 16.5718 76.896C16.7176 75.7762 16.6447 74.6147 16.3843 73.4949C16.4207 73.1251 16.0457 72.823 15.6343 72.823ZM36.6551 92.1616C36.4676 92.1251 36.2801 92.0835 36.0926 92.047C36.0145 92.0105 35.978 91.9741 35.8687 91.9376C35.2697 91.7866 34.7072 91.6355 34.1082 91.4897C33.4676 91.3022 32.8687 91.0782 32.2697 90.8178C31.7853 90.5574 31.3687 90.2918 30.9572 89.922C30.7332 89.698 30.5093 89.4741 30.3218 89.2137C30.2072 89.0262 30.0978 88.8387 30.0197 88.6147C30.0197 88.5782 30.0197 88.5782 29.9832 88.5418C29.9103 88.3178 29.7228 88.1303 29.4989 88.1303C29.4572 88.1303 29.4207 88.1303 29.3843 88.1303C29.1239 88.1668 28.8999 88.4637 28.9728 88.7241C29.0457 88.9897 29.1603 89.2501 29.2749 89.5105C29.4207 89.8074 29.6082 90.0678 29.7957 90.2918C29.7593 90.2918 29.7228 90.2918 29.6864 90.3335C29.1603 90.5939 28.9364 91.2657 29.1968 91.7501C29.3843 92.1251 29.6082 92.422 29.9103 92.7189C30.2853 93.0939 30.6968 93.3543 31.1812 93.5782C32.0457 93.9897 33.0197 94.2501 33.9572 94.2866C34.4832 94.323 34.9676 93.9897 35.1187 93.5053C35.1187 93.4689 35.1187 93.4272 35.1187 93.3907C35.4937 93.5053 35.8687 93.5782 36.2437 93.5782C36.6187 93.5782 36.9155 93.3907 37.0666 93.0574C37.1395 92.8699 37.103 92.6095 37.0301 92.422C36.9937 92.3855 36.8426 92.198 36.6551 92.1616ZM130.78 83.5366C130.478 82.7189 130.139 82.047 129.692 81.521C129.02 80.6616 128.119 80.1772 127.296 80.1772C127.218 80.1772 127.181 80.1772 127.108 80.1772C126.358 80.2553 125.681 80.7032 125.119 81.5574C124.556 82.3803 124.181 83.3907 123.884 84.2866C123.473 85.4793 123.207 86.7501 122.983 87.9064C122.796 88.8751 122.608 89.8074 122.421 90.7814L122.311 91.3387C122.233 91.7501 122.16 92.198 122.046 92.6095C121.973 92.9793 121.9 93.2814 121.785 93.5418C121.749 93.6512 121.749 93.7657 121.822 93.8751C121.9 94.0262 122.009 94.0991 122.16 94.1407C122.197 94.1407 122.233 94.1407 122.275 94.1407C122.421 94.1407 122.499 94.0991 122.572 94.0626C122.65 94.0262 122.686 93.9532 122.759 93.8751C122.832 93.9168 122.947 93.9532 123.098 93.9532C123.207 93.9532 123.285 93.9532 123.395 93.9168C124.556 93.6147 125.759 93.2032 127.067 92.7553C127.707 92.5314 128.379 92.271 128.978 92.0105C129.244 91.9012 129.504 91.7501 129.764 91.5991C129.916 91.4897 130.03 91.3751 130.181 91.2657L130.442 90.8907C130.666 90.8543 130.853 90.7397 130.968 90.5574C131.041 90.5939 131.113 90.6303 131.192 90.6303C131.343 90.6303 131.488 90.5574 131.567 90.4428C131.676 90.3335 131.718 90.1824 131.718 90.0678C131.827 88.5001 131.603 86.9324 131.379 85.7397C131.228 85.0314 131.041 84.2449 130.78 83.5366ZM168.811 82.1199C168.733 81.5991 168.66 81.4116 168.436 80.9272C168.285 80.6251 168.134 80.4793 167.91 80.2137C167.275 79.4689 166.374 79.1355 165.514 78.6876C165.291 78.573 165.025 78.5001 164.764 78.5001C164.541 78.5001 164.317 78.573 164.087 78.646H164.051C163.9 78.646 163.754 78.646 163.603 78.6876C163.192 78.7605 162.817 78.9116 162.405 79.0574C161.692 79.3595 161.014 79.7657 160.379 80.1772C159.744 80.6251 159.145 81.1095 158.582 81.6355C157.942 82.1928 157.384 82.8282 156.858 83.4637C156.634 83.7241 156.634 84.0991 156.895 84.323C157.119 84.547 157.53 84.547 157.759 84.2866C157.832 84.2085 157.905 84.172 157.942 84.0991C158.02 84.2449 158.129 84.3595 158.317 84.4324C158.692 84.6199 159.067 84.771 159.478 84.8803C159.968 85.0314 160.457 85.0678 160.978 85.1407C161.468 85.1824 161.988 85.1407 162.478 85.1043C162.514 85.1043 162.593 85.0678 162.629 85.0678C162.853 85.3647 163.077 85.6668 163.416 85.8543C163.827 86.0366 164.238 86.1512 164.686 86.1876C165.4 86.1876 166.186 86.0366 166.863 85.7397C167.311 85.5522 167.686 85.3282 167.91 84.8803C167.988 84.7345 168.025 84.5835 168.061 84.4324C168.249 84.2866 168.4 84.0991 168.473 83.9116C168.733 83.3126 168.921 82.7553 168.811 82.1199ZM144.379 79.3595C144.192 78.573 143.895 77.8647 143.483 77.3439C142.994 76.7085 142.171 76.073 141.233 76.073C141.197 76.073 141.119 76.073 141.046 76.073C140.707 76.1095 140.369 76.2241 140.072 76.448C139.733 76.672 139.509 77.0053 139.285 77.3439C138.832 78.0522 138.572 78.8699 138.311 79.6564C137.973 80.7397 137.785 81.8595 137.634 82.7189C137.41 84.0991 137.223 85.5522 137.035 87.3803C136.999 87.646 137.15 87.9064 137.41 87.9793L137.671 87.9428C137.858 88.2032 138.16 88.3543 138.499 88.3543C138.608 88.3543 138.686 88.3543 138.796 88.3178C139.207 88.2032 139.624 88.0939 140.035 87.9793C141.082 87.7189 142.171 87.422 143.108 86.8595C143.218 86.7866 143.296 86.7501 143.369 86.6355H143.405C143.968 86.6355 144.379 86.3022 144.494 85.8907C144.754 84.5835 144.869 83.2397 144.754 81.672C144.681 80.8855 144.567 80.1407 144.379 79.3595Z" fill="#7F7F7F"/>
</g>
<path d="M161.88 30.7917C161.693 30.6042 161.469 30.4948 161.245 30.4948C161.057 30.4948 160.906 30.5677 160.755 30.6823C160.641 30.7552 160.568 30.8698 160.531 30.9792C160.083 30.8698 159.63 30.7917 159.182 30.7188L158.958 30.6823H158.922C158.583 30.6823 158.318 30.7917 158.172 31.0156C156.037 30.1563 153.526 29.5625 150.563 29.151C147.344 28.7031 144.005 28.6302 141.198 28.5885C140.787 28.5885 140.484 28.6667 140.224 28.8906C140.109 28.9635 140.037 29.0781 139.958 29.151C139.885 29.1146 139.849 29.1146 139.771 29.1146C139.438 29.1146 139.135 29.2604 138.948 29.526C138.537 30.1198 138.313 30.7552 138.276 31.3177C138.234 31.9115 138.385 32.5469 138.688 33.0729C139.474 34.375 140.745 35.1615 142.021 35.7969C143.708 36.6563 145.542 37.1406 146.969 37.5104C148.875 38 150.865 38.2969 152.885 38.4844C153.823 38.5573 154.724 38.5938 155.583 38.5938C156.484 38.5938 157.385 38.5573 158.245 38.4844C159.031 38.4062 159.708 38.2969 160.38 38.1094C160.979 37.9583 161.62 37.7344 162.177 37.401C162.781 37.0625 163.193 36.6927 163.49 36.2448C163.792 35.7604 163.979 35.1979 163.979 34.6771C163.943 33.1458 162.854 31.8021 161.88 30.7917ZM126.62 34.0781C125.833 33.7031 124.932 33.5208 123.922 33.5208C123.625 33.5208 123.359 33.5208 123.063 33.5573C123.021 33.1094 122.724 32.7344 122.313 32.5469C122.047 32.4375 121.75 32.3229 121.49 32.1719L121.151 32.026L120.698 31.8385L119.99 31.5417C119.125 31.1667 118.266 30.8281 117.401 30.5313C115.792 29.974 114.068 29.4844 111.969 29C110.281 28.6302 108.521 28.3281 106.537 28.1042C104.662 27.8802 102.792 27.7708 100.99 27.7344C100.427 27.7344 99.9063 27.7344 99.3438 27.7344C96.0469 27.7344 92.7865 27.9167 89.6771 28.3281C86.0782 28.776 82.3698 29.5625 78.7344 30.7188C71.3126 32.9948 64.6459 36.8802 59.3594 41.8802C59.2865 41.8438 59.2136 41.8438 59.099 41.8438C59.0261 41.8438 58.9896 41.8438 58.9115 41.8438C58.6511 41.8802 58.349 42.0677 58.198 42.2917C57.7136 43.151 57.4115 43.9323 57.1876 44.6771C56.9271 45.5729 56.8126 46.4688 56.7761 47.4063C56.7396 49.1198 57.0782 50.875 57.7865 52.6302C58.4271 54.2344 59.474 55.7292 60.7501 57.0365C61.3855 57.6719 62.0573 58.2292 62.7709 58.7135C63.5938 59.276 64.5678 59.7604 65.8073 60.2813C67.6823 61.0677 69.8542 61.5156 72.1042 61.5885C72.3282 61.5885 72.5157 61.5885 72.7396 61.5885C74.5365 61.5885 76.4115 61.3281 78.3594 60.8438C82.0678 59.9115 85.7032 58.1927 90.2396 55.3542C92.1094 54.1615 93.9844 52.8542 95.7448 51.5469L97.3959 50.3906C100.24 48.375 102.641 46.7708 104.964 45.349C107.813 43.6354 110.432 42.2135 112.979 41.0573C114.328 40.4635 115.755 39.8646 117.214 39.3438C118.453 38.8958 119.724 38.5208 120.964 38.1094L121.339 38L121.599 37.9219C123.323 37.4375 124.859 37.0625 126.323 36.8802C126.922 36.8021 127.443 36.2448 127.521 35.6094C127.557 35.349 127.521 35.125 127.406 34.901C127.297 34.4896 127.031 34.2656 126.62 34.0781Z" fill="#FEFEFE"/>
<mask id="mask2_283_107512" style="mask-type:luminance" maskUnits="userSpaceOnUse" x="0" y="0" width="188" height="104">
<path d="M0 0H187.547V103.693H0V0Z" fill="white"/>
</mask>
<g mask="url(#mask2_283_107512)">
<path d="M115.042 13.9219C115.302 14.2188 115.677 14.2188 115.979 13.9948C116.094 13.9219 116.203 13.849 116.318 13.7344C117.776 12.8021 119.349 12.0521 121 11.4583C120.964 11.5313 120.964 11.6042 120.927 11.6458C120.662 12.2813 120.323 12.9115 120.026 13.5469C119.724 14.1823 119.427 14.8177 119.125 15.4531C118.828 16.1615 118.563 16.9063 118.339 17.6563C118.266 17.9531 118.229 18.25 118.375 18.5885C118.453 18.776 118.604 18.9219 118.792 19.0365C118.974 19.1458 119.162 19.224 119.349 19.224C119.688 19.224 120.026 19.1823 120.323 19.1458C120.625 19.1094 120.964 19.0365 121.261 18.9583C121.938 18.776 122.61 18.5521 123.25 18.2865C124.557 17.8021 125.833 17.1667 127.11 16.5365C127.708 16.2344 127.969 15.4531 127.672 14.8542C127.37 14.2188 126.62 13.9583 125.985 14.2552C124.37 15.0417 122.797 15.8229 121.073 16.3854C121.375 15.5625 121.75 14.7448 122.089 13.9583C122.386 13.3229 122.651 12.6875 122.912 12.0156C123.136 11.3802 123.36 10.7083 123.438 10.0365C123.511 9.44271 122.985 9.03125 122.464 9.03125C122.313 9.03125 122.198 9.06771 122.047 9.10417C121.526 9.36458 120.964 9.55208 120.438 9.8125C119.802 10.1146 119.162 10.4115 118.526 10.75C117.292 11.3802 116.167 12.1302 115.042 12.9115C114.818 13.1771 114.818 13.6615 115.042 13.9219ZM128.87 33.6667C128.792 33.7031 128.755 33.8177 128.755 33.8906C128.755 34.0052 128.792 34.151 128.87 34.2292C128.943 34.3021 129.057 34.375 129.167 34.375C129.281 34.375 129.354 34.3385 129.469 34.2656L129.656 34.1146L129.844 33.9688C131.344 32.9583 133.026 32.0625 134.938 31.3906C135.948 31.0521 136.886 30.7552 137.823 30.5677C138.875 30.3438 139.886 30.1563 140.932 30.0469C141.797 29.974 142.735 29.9323 143.745 29.9323C144.604 29.9323 145.469 29.974 146.328 30.0104C148.24 30.1198 150.078 30.4219 152.136 30.7552C152.287 30.7552 152.401 30.7188 152.511 30.6823C152.662 30.6042 152.813 30.4583 152.849 30.2708C152.964 29.8958 152.776 29.526 152.401 29.375C151.912 29.1875 151.427 29.0365 150.938 28.8906C150.453 28.7396 149.964 28.6302 149.438 28.5521L149.625 28.5156C149.703 28.4792 149.854 28.4427 150 28.4063C150.224 28.3646 150.453 28.3281 150.714 28.2917C150.714 28.2917 150.828 28.2917 150.938 28.2917C151.276 28.2917 151.5 28.3281 151.688 28.3646C151.802 28.3646 151.912 28.4063 151.99 28.4427C152.214 28.5156 152.323 28.5521 152.438 28.5885C152.662 28.7031 152.735 28.7396 152.849 28.8125C153 28.8906 153.11 29 153.261 29.1146C153.339 29.151 153.412 29.1875 153.485 29.1875C153.636 29.1875 153.787 29.1146 153.86 29C153.974 28.8125 153.938 28.5885 153.75 28.4427C153.563 28.2917 153.339 28.1823 153.11 28.0313C152.964 27.9583 152.776 27.8438 152.589 27.8073C152.177 27.6198 151.724 27.5833 151.349 27.5469C151.24 27.5469 151.125 27.5469 151.016 27.5469C150.677 27.5469 150.375 27.5833 150.078 27.6563C149.589 27.7344 149.141 27.9167 148.839 28.0677C148.651 28.1406 148.578 28.4063 148.615 28.5521C147.979 28.4063 147.266 28.3281 146.479 28.2552C146.031 28.2188 145.578 28.2188 145.13 28.2188C144.568 28.2188 144.005 28.2188 143.443 28.2917C142.505 28.3646 141.458 28.4792 140.261 28.7031C138.313 29.0781 136.323 29.6719 134.375 30.5313C132.542 31.2396 130.781 32.2865 128.87 33.6667ZM148.464 31.9479C148.276 31.8021 148.089 31.6875 147.865 31.5781C147.677 31.5 147.49 31.4271 147.302 31.3542C146.818 31.2031 146.255 31.1667 145.766 31.1302H145.729C145.432 31.1302 145.203 31.3906 145.203 31.651C145.203 31.9479 145.469 32.1719 145.729 32.1719C145.953 32.1719 146.141 32.2135 146.365 32.2135C146.516 32.25 146.63 32.25 146.781 32.2865C146.969 32.3229 147.156 32.3958 147.344 32.474C147.568 32.5833 147.755 32.6979 147.943 32.8073C148.167 32.9948 148.542 32.8438 148.693 32.6198C148.766 32.5104 148.766 32.3594 148.729 32.2135C148.693 32.099 148.578 32.026 148.464 31.9479ZM127.11 20.1563C127.219 20.4167 127.443 20.6042 127.745 20.7135C128.042 20.8281 128.307 20.7917 128.604 20.6771C129.542 20.3021 130.443 19.9323 131.38 19.5938C131.193 20.0052 131.005 20.3802 130.818 20.7917C130.255 21.9115 129.693 23.0313 129.391 24.2604C129.318 24.4479 129.318 24.6719 129.354 24.8958C129.391 25.1198 129.469 25.3073 129.62 25.4531C129.953 25.8281 130.557 25.9792 131.042 25.7552C131.719 25.4167 132.391 25.1198 133.104 24.7813C133.438 24.6354 133.776 24.4479 134.151 24.2969C134.563 24.0729 135.016 23.8854 135.427 23.6615C135.724 23.4792 135.912 23.1771 135.839 22.8073C135.766 22.3594 135.349 22.1354 134.901 22.1719C134.266 22.2448 133.625 22.4688 132.99 22.6563C132.839 22.6927 132.729 22.7292 132.578 22.8073C132.729 22.5052 132.88 22.2083 133.026 21.9115C133.589 20.7917 134.188 19.6719 134.526 18.4375C134.641 18.026 134.599 17.5781 134.302 17.2448C134.078 16.9844 133.74 16.8333 133.365 16.8333C133.292 16.8333 133.214 16.8333 133.141 16.8698C132.729 16.9427 132.318 17.0208 131.901 17.1302C131.38 17.2813 130.854 17.4688 130.328 17.6563C129.432 17.9896 128.531 18.401 127.63 18.776C127.031 18.8854 126.844 19.6302 127.11 20.1563ZM103.766 5.22396C103.875 5.15104 103.99 5.03646 104.141 4.96354C105.599 4.03125 107.25 3.43229 108.896 2.91146C108.485 3.58333 108.073 4.25521 107.662 4.92708C106.797 6.38021 105.974 7.91146 105.563 9.58854C105.49 9.8125 105.448 10.0365 105.526 10.224C105.563 10.4479 105.677 10.6354 105.823 10.8229C106.125 11.1563 106.573 11.3073 107.026 11.2344C108.823 11.0104 110.547 10.224 112.156 9.36458C112.943 8.95833 113.693 8.51042 114.443 8.0625C115.266 7.57292 116.094 7.125 116.917 6.67708C117.443 6.41667 117.703 5.74479 117.401 5.22396C117.141 4.66146 116.464 4.47917 115.943 4.70313C113.469 5.74479 111.182 7.27604 108.672 8.20833C108.787 7.91146 108.932 7.57292 109.083 7.27604C109.61 6.30729 110.172 5.33333 110.735 4.36458C110.995 3.91667 111.255 3.46875 111.521 3.02083C111.818 2.5 112.12 1.97396 112.271 1.41667C112.38 1.04167 112.344 0.671874 112.083 0.369792C111.896 0.145833 111.557 0 111.255 0C111.11 0 110.958 0.0364577 110.844 0.109375C110.208 0.484375 109.537 0.744792 108.823 1.00521C108.11 1.26563 107.396 1.56771 106.688 1.82813C105.302 2.38542 103.99 3.05729 102.792 3.95313C102.453 4.21354 102.453 4.77604 102.714 5.07292C102.938 5.52083 103.391 5.48438 103.766 5.22396ZM187.287 52.1094C187.172 51.7344 186.985 51.3229 186.724 50.9479C186.458 50.6146 186.047 50.276 185.563 50.0156C184.849 49.6458 184.026 49.4948 182.901 49.4948C182.75 49.4948 182.636 49.4948 182.49 49.4948C182.266 48.9323 182.037 48.3385 181.776 47.7396C181.141 46.3594 180.391 44.9792 179.568 43.6354C177.917 41.0208 175.969 38.6719 173.755 36.7292C172.672 35.7604 171.474 34.8646 170.198 34.0417C169 33.2552 167.688 32.5469 166.224 31.9479C163.453 30.7188 160.344 30.0104 157.047 29.7865H157.011C156.745 29.7865 156.521 30.0104 156.485 30.3073C156.485 30.6042 156.708 30.8281 157.011 30.8698C157.985 30.9427 158.922 31.0521 159.818 31.2031C162.104 31.6146 164.318 32.2865 166.453 33.2552C167.5 33.7448 168.474 34.3021 169.412 34.901C170.313 35.4948 171.245 36.1667 172.219 36.9896C173.083 37.7344 173.943 38.5938 174.771 39.4531C175.557 40.3125 176.38 41.3594 177.203 42.5156C178.74 44.7917 180.016 47.2552 180.99 49.8698C181.141 50.3177 181.328 50.8021 181.474 51.2865L181.625 51.7708C181.74 52.1823 181.891 52.5938 182.037 53.0052C182.151 53.3021 182.49 53.4115 182.75 53.4115H182.901C183.313 53.3021 183.573 52.8906 183.5 52.4792C183.349 51.7708 183.089 51.0625 182.823 50.3906C182.865 50.3906 182.901 50.3906 182.938 50.3906C183.276 50.3906 183.651 50.4271 184.026 50.4635C184.401 50.5417 184.735 50.651 185.073 50.7656C185.261 50.875 185.448 50.9896 185.636 51.1354C185.787 51.25 185.896 51.3958 186.011 51.5469C186.125 51.7344 186.235 51.8854 186.313 52.0677C186.386 52.3333 186.458 52.5938 186.458 52.8542C186.495 53.1875 186.458 53.6771 186.386 54.1979C186.235 55.0573 185.896 56.0625 185.375 57.1458C184.776 58.3802 183.948 59.6458 183.011 60.7656C182.714 61.1406 182.375 61.4792 182.037 61.849C181.474 62.4115 180.917 62.9688 180.354 63.5313C179.417 64.4635 178.328 65.3958 176.943 66.5521C174.844 68.3073 172.485 70.099 169.708 72.0417L169.563 72.151L164.464 75.5885L163.266 76.3698C163.151 76.4479 163.042 76.5208 162.969 76.7083C162.927 76.8542 162.927 77.0417 163.005 77.1563C162.479 76.9323 161.99 76.7813 161.505 76.6302C161.469 76.6302 161.391 76.5938 161.318 76.5938C161.016 76.5938 160.792 76.7813 160.719 77.0417C160.682 77.1927 160.682 77.3802 160.755 77.526C160.828 77.6771 160.979 77.7917 161.13 77.8281C161.844 78.0521 162.667 78.349 163.604 78.7969C164.766 79.3594 165.703 79.9531 166.49 80.5885C166.865 80.9271 167.162 81.224 167.386 81.5573C167.5 81.7448 167.615 81.9323 167.688 82.1198C167.724 82.2292 167.761 82.3438 167.761 82.4948C167.761 82.6042 167.761 82.7188 167.761 82.8281C167.724 82.9792 167.688 83.0885 167.651 83.2396C167.537 83.4271 167.427 83.5729 167.313 83.724C167.162 83.875 167.011 83.9844 166.865 84.1354C166.677 84.2448 166.453 84.3594 166.266 84.4323C165.849 84.5833 165.401 84.6563 164.953 84.7344C164.688 84.7708 164.391 84.7708 164.13 84.7708C163.339 84.7708 162.516 84.6927 161.391 84.5104L161.578 84.6198C159.068 84.1354 156.745 83.3906 154.573 82.6406C153.938 82.4167 153.297 82.1927 152.662 81.9688C151.573 81.599 150.49 81.1875 149.365 80.849C149.292 80.8125 149.214 80.8125 149.141 80.8125C148.802 80.8125 148.542 81 148.427 81.2969C148.354 81.4844 148.391 81.6719 148.464 81.8594C148.578 82.0469 148.729 82.1563 148.875 82.1927C149.214 82.3073 149.552 82.4167 149.891 82.5313C148.839 82.8646 147.792 83.276 146.74 83.6875L145.016 84.3594C143.37 84.9948 141.761 85.6302 140.11 86.3021L139.172 86.6719C135.349 88.2031 131.49 89.7708 127.521 91.2292L124.521 92.3073L122.985 92.8333C122.464 93.0208 121.938 93.1667 121.448 93.3542C119.427 94.0625 117.443 94.7708 115.417 95.5208L114.854 95.7448L114.479 95.8958C110.62 97.3125 106.61 98.7656 102.641 100.036C99.9793 100.896 97.9585 101.495 96.1199 101.979C94.922 102.276 93.6095 102.615 92.2241 102.76C91.8491 102.797 91.5106 102.797 91.172 102.797C90.7606 102.797 90.3126 102.76 89.9012 102.724C89.5991 102.688 89.3387 102.573 89.0731 102.464C88.9272 102.391 88.8126 102.313 88.7033 102.203C88.6251 102.125 88.5522 102.052 88.4741 101.943C88.4012 101.828 88.3647 101.719 88.3283 101.604L88.2866 101.344C88.2866 101.156 88.2866 101.005 88.3283 100.823C88.4012 100.448 88.5158 100.109 88.7033 99.7031C88.8126 99.4792 88.8908 99.2917 89.0001 99.1406C89.1147 98.9531 89.1147 98.6563 88.8491 98.5052C88.7762 98.4688 88.7033 98.4323 88.5887 98.4323C88.4376 98.4323 88.2866 98.5052 88.2137 98.6563C87.9116 99.2135 87.5783 99.8854 87.4272 100.635C87.3908 100.896 87.3543 101.156 87.3543 101.38C87.3543 101.604 87.4272 101.828 87.5418 102.125C87.6512 102.464 87.9116 102.76 88.3283 103.063C88.6616 103.286 89.1147 103.469 89.7501 103.583C90.1981 103.656 90.6512 103.693 91.1356 103.693C91.7345 103.693 92.4116 103.656 93.3074 103.51C93.8699 103.432 94.4324 103.323 94.9949 103.208C96.047 102.984 97.0939 102.724 98.1043 102.427L98.5574 102.313C103.349 101.047 108 99.4792 112.719 97.8698L115.604 96.8646L119.724 95.4427C120.886 95.0729 122.011 94.6615 123.172 94.2865L123.849 94.0625C124.823 93.7292 125.833 93.4271 126.807 93.0573C128.646 92.4219 130.479 91.7865 132.318 91.1146L133.026 90.8542C135.089 90.1094 137.11 89.3594 139.136 88.5781C141.198 87.7917 143.255 86.974 145.245 86.1146C146.255 85.7031 147.266 85.2552 148.276 84.8438L148.802 84.6198C149.667 84.2448 150.49 83.9115 151.313 83.5C151.464 83.4271 151.615 83.276 151.688 83.0885C153 83.6146 154.349 84.099 155.698 84.5469C157.386 85.0677 158.807 85.4792 160.156 85.7396C161.62 86.0365 162.818 86.1875 163.943 86.1875H164.318C165.662 86.151 166.714 85.8542 167.537 85.2917C168.625 84.5833 169.261 83.4271 169.151 82.3438C169.11 81.8229 168.922 81.3333 168.589 80.8125C168.214 80.2552 167.724 79.8073 167.24 79.3958C166.115 78.5 164.802 77.8646 163.677 77.3438C163.714 77.3438 163.755 77.3021 163.792 77.3021C164.688 76.7813 165.589 76.224 166.49 75.6615C167.464 75.026 168.438 74.3906 169.375 73.7188C171.323 72.375 173.12 71.0677 174.771 69.8021C176.568 68.4219 178.292 66.9635 179.938 65.4323C180.729 64.724 181.474 63.9792 182.224 63.1927C182.901 62.4844 183.427 61.8854 183.948 61.2917C184.625 60.4688 185.224 59.5365 185.823 58.4167C186.458 57.224 186.87 56.1406 187.136 55.0573C187.474 54.0104 187.511 53.0052 187.287 52.1094ZM88.7397 97.9479C88.7397 97.8333 88.7033 97.6875 88.5887 97.5729C88.5158 97.4635 88.4012 97.4219 88.2501 97.4219C87.8387 97.4219 87.3908 97.4219 86.9793 97.4635H85.0314C84.4689 97.4635 83.9064 97.4635 83.3803 97.4635C81.8803 97.4635 80.2345 97.3854 78.3595 97.2396C75.4376 97.0521 72.2137 96.7135 68.2814 96.1927L66.521 95.9688C65.6564 95.8542 64.797 95.7448 63.9324 95.6302C62.6616 95.4844 61.3855 95.3333 60.1512 95.2188L59.7762 95.1823C56.5522 94.849 53.8178 94.5104 51.1199 94.026C46.323 93.1667 42.7605 92.1615 39.6147 90.7031C39.1303 90.4792 38.6408 90.2188 38.1564 89.9583C38.0053 89.8854 37.8908 89.8438 37.7397 89.8438C37.4064 89.9219 37.2553 90.0313 37.1408 90.1823C37.0314 90.3333 36.9949 90.5573 37.0678 90.7813C37.1043 90.9635 37.2189 91.1146 37.3647 91.1875C37.8543 91.4531 38.3439 91.7135 38.8283 91.9375C38.7553 91.9375 38.6772 91.9375 38.6408 91.9375C38.5262 91.9375 38.4533 91.974 38.3803 91.974L37.7814 92.2344C37.4064 92.3854 36.9949 92.5729 36.6199 92.7188C35.5678 93.0573 34.7449 93.2813 33.9585 93.3542C33.8074 93.3542 33.6928 93.3542 33.547 93.3542C33.2814 93.3542 32.9845 93.3542 32.7189 93.3177H32.5314L32.198 93.2031L31.896 93.0938C31.6355 92.9427 31.448 92.8333 31.2605 92.6823C31.1095 92.5313 30.9585 92.3854 30.8074 92.1979C30.6616 91.9375 30.5105 91.6354 30.3595 91.3385C30.2085 90.8542 30.0991 90.2917 30.021 89.6615C29.948 88.5 30.021 87.2708 30.2501 85.776C30.4741 84.6198 30.8074 83.349 31.2605 82.0052C31.4845 81.375 31.7449 80.7396 32.047 80.1042L32.1199 79.9167L32.198 79.7656L32.3074 79.5417C32.7189 78.5365 33.172 77.5677 33.6199 76.5938C37.4064 68.6042 42.4272 60.9531 48.5314 53.7865C51.0418 50.875 53.7033 48.1146 56.4793 45.5365C59.3595 42.849 62.2866 40.4635 65.2085 38.4479L65.3178 38.2969C69.0678 35.7969 73.0366 33.7813 77.1616 32.25H76.8595C81.4324 30.7188 86.1928 29.6354 90.9845 29.1875L91.1356 29.151C93.1199 29 94.9585 28.9271 96.7553 28.9271C100.615 28.9271 104.516 29.2604 108.375 29.9323C115.078 31.0938 121.672 33.1823 127.969 36.1302C133.927 38.9323 139.25 42.3281 143.781 46.1719L143.745 45.9844C146.891 48.7865 149.365 51.5104 151.313 54.2344C152.698 56.25 153.714 58.1563 154.458 60.1719C155.063 61.8854 155.432 63.4531 155.583 64.9115L155.62 65.3229V65.5104C155.62 65.7344 155.771 65.9948 156.073 65.9948C156.224 65.9948 156.333 65.9583 156.448 65.8438C156.521 65.7708 156.557 65.6563 156.557 65.5469C156.448 63.7552 156.11 62.0729 155.62 60.5052C155.136 58.974 154.458 57.3333 153.526 55.6927C152.735 54.2708 151.761 52.8177 150.49 51.1719C150.078 50.651 149.667 50.1667 149.214 49.6458C149.25 49.6458 149.25 49.6458 149.292 49.6458C148.953 49.4219 148.651 49.1198 148.464 48.8229C148.464 48.8594 148.464 48.8958 148.464 48.9323C148.052 48.375 147.49 47.776 146.703 46.9948C144.193 44.5313 141.271 42.1771 138.089 39.974C135.313 38.0729 132.13 36.2448 128.646 34.5625C118.229 29.526 107.063 26.8385 96.3439 26.8385C91.547 26.8385 86.8283 27.3594 82.2918 28.4427C78.4324 29.375 74.6876 30.7188 71.0887 32.4375C69.2918 33.2969 67.5314 34.3021 65.8074 35.3854C64.271 36.3542 62.6199 37.5521 60.7866 38.9688C57.5991 41.4688 54.5262 44.2708 51.3803 47.5521C48.4585 50.6146 45.6095 53.974 42.8751 57.5573C40.3283 60.9896 37.8908 64.651 35.6824 68.5313C34.297 70.9583 33.0574 73.3854 31.9689 75.6979C31.9324 75.5521 31.7866 75.474 31.5991 75.4375C30.771 75.401 29.948 75.3646 29.1616 75.3281C28.3387 75.2865 27.4376 75.1771 26.4272 74.9896C24.3283 74.6146 22.3022 74.0573 19.8699 73.349C18.8178 73.0469 17.771 72.7135 16.6824 72.4531C15.5991 72.151 14.5105 71.8906 13.3855 71.6667C12.3022 71.4427 11.2866 71.2552 10.2762 71.1094C9.75013 71.0313 9.22929 70.9948 8.70325 70.9948C8.58867 70.9948 8.51575 70.9948 8.40117 70.9948C7.9168 70.9948 7.42721 71.0313 6.90638 71.0677C5.96888 71.1823 4.95325 71.4427 3.94284 71.8906C3.56784 72.0417 3.19284 72.2656 2.70846 72.599C2.33346 72.8594 1.95846 73.1615 1.58346 73.4948C1.05742 74.0208 0.645962 74.6146 0.385544 75.3281C0.270962 75.625 0.198043 75.9583 0.119919 76.3333C0.0834608 76.7448 0.0470025 77.1198 0.0834611 77.4896C0.234502 78.8698 0.948044 80.2552 2.14596 81.5573C2.63034 82.0469 3.19284 82.5313 4.02096 83.0885C4.61992 83.5 5.2918 83.875 6.15638 84.2448C7.61471 84.9167 9.18763 85.4427 11.0262 85.8125C13.3126 86.3021 15.7866 86.526 18.521 86.526C19.1928 86.526 19.8699 86.526 20.5418 86.4844C23.3178 86.375 26.0522 86 28.5991 85.4063C28.448 86 28.3387 86.75 28.297 87.6042C28.2241 88.875 28.3387 90.0313 28.6355 91.0781C28.9376 92.125 29.422 93.0573 30.1355 93.6927C30.5835 94.0625 31.073 94.3646 31.6355 94.5885C32.1199 94.7708 32.6824 94.849 33.3178 94.849H33.547C34.3335 94.8125 35.1199 94.6615 35.9428 94.401C36.9168 94.1406 37.9272 93.7292 38.9793 93.1667C39.1303 93.0938 39.2762 92.9427 39.3178 92.7552C39.3908 92.5729 39.3543 92.3854 39.2762 92.2344C39.2397 92.1615 39.1668 92.0833 39.0887 92.0104C40.2137 92.5729 41.3387 93.0208 42.573 93.4271C44.2605 93.9896 46.172 94.474 48.3855 94.9219C52.4689 95.7448 56.5887 96.1563 60.5991 96.5677L61.271 96.6406L61.8699 96.7135C63.4064 96.8646 64.9428 97.0156 66.4428 97.2396C68.6564 97.5 71.2033 97.8333 73.823 98.0573C76.073 98.2448 78.4741 98.3958 80.9064 98.4688C81.8803 98.5052 82.8178 98.5052 83.7918 98.5052C85.2553 98.5052 86.7501 98.4688 88.2137 98.4323C88.5158 98.3958 88.7397 98.2083 88.7397 97.9479ZM28.8595 83.7969C28.7866 84.0625 28.7501 84.3229 28.672 84.5833C27.0262 84.9583 25.2293 85.2188 23.2397 85.4063C21.9689 85.5156 20.5783 85.5885 19.271 85.5885C16.948 85.5885 14.7345 85.4063 12.7137 85.0313L12.672 85.0677C10.4272 84.6198 8.55221 84.0208 6.94284 83.3125C5.81784 82.7917 4.88034 82.1563 4.02096 81.4844C3.38034 80.9271 2.89596 80.3646 2.4845 79.7656C2.21888 79.3594 2.03138 78.9844 1.88554 78.5729C1.7345 78.1615 1.69804 77.8281 1.65638 77.4896C1.61992 77.1563 1.65638 76.8177 1.69804 76.5208C1.7345 76.2969 1.80742 76.0729 1.922 75.8125C2.1095 75.474 2.297 75.1771 2.52096 74.9167C2.78138 74.6146 3.08346 74.3542 3.41679 74.1302C3.90638 73.8333 4.39596 73.5313 4.95325 73.3073C5.66679 73.0469 6.38034 72.901 7.20325 72.8229C7.50534 72.7865 7.80221 72.7865 8.06784 72.7865C9.00013 72.7865 9.97409 72.8594 11.0991 73.0469H11.2866C12.7137 73.349 14.1355 73.6823 15.8595 74.1302C16.8699 74.3906 17.8439 74.6927 18.8595 74.9896L19.646 75.2135L20.8803 75.5521L21.2189 75.6615C23.1668 76.224 24.8126 76.5573 26.3908 76.7813C27.2866 76.8958 28.1876 76.9688 29.0105 76.9688C29.573 76.9688 29.9845 76.9323 30.4376 76.8958C30.8074 76.8542 31.2241 76.7813 31.7085 76.6302C31.2605 77.4531 30.8074 78.4635 30.2866 79.8802C29.5366 81.3333 29.1616 82.5677 28.8595 83.7969ZM57.1876 87.6823C57.3387 87.8698 57.5626 87.9792 57.7866 87.9792C58.0105 87.9792 58.198 87.9063 58.3491 87.7552C58.5366 87.6042 58.573 87.4219 58.6147 87.1979C58.6147 87.0833 58.6512 86.9323 58.6876 86.8229C58.8022 86.2604 58.948 85.7031 59.0991 85.1406C59.172 85.1823 59.2866 85.1823 59.4012 85.2188L59.6251 85.2552C59.7762 85.2552 59.922 85.2188 60.073 85.1406C60.297 85.0313 60.448 84.8438 60.4845 84.6198C60.5626 84.3958 60.521 84.1354 60.4116 83.9115C60.297 83.724 60.1095 83.5729 59.922 83.5L59.6616 83.4271C59.7762 83.2031 59.8855 82.9792 60.0001 82.7188C60.073 82.5677 60.073 82.3802 60.0001 82.1927C59.8855 82.0052 59.698 81.8229 59.5105 81.7813C59.4376 81.7448 59.3595 81.7448 59.2866 81.7448C59.172 81.7448 59.0262 81.7813 58.948 81.8229C58.7605 81.8958 58.6512 82.0469 58.573 82.2708C58.4272 82.6042 58.3126 82.901 58.198 83.2396C58.0887 83.2031 57.9012 83.2031 57.7501 83.2031C57.3022 83.2031 56.8908 83.2396 56.4376 83.276C56.2137 83.276 55.9897 83.5 55.8751 83.6875C55.7293 83.875 55.6876 84.1354 55.7293 84.3958C55.8022 84.6198 55.9533 84.8438 56.1408 84.9583C56.2918 85.0677 56.4376 85.1042 56.6251 85.1042C56.7033 85.1042 56.7762 85.1042 56.8491 85.1042H57.0783C57.3022 85.1042 57.4533 85.1042 57.5991 85.1042C57.4533 85.6667 57.2658 86.4479 57.1876 87.1979C57.0001 87.3438 57.0783 87.5313 57.1876 87.6823Z" fill="#404040"/>
</g>
</svg>
