<svg width="300" height="308" viewBox="0 0 300 308" fill="none" xmlns="http://www.w3.org/2000/svg">
<path d="M37.6191 125.297H69.7285V40.896H37.6191V125.297Z" fill="#F5E8CD"/>
<path d="M25.7754 125.297V296.771H263.426C269.333 296.771 274.114 291.974 274.114 286.047V125.297H25.7754Z" fill="#F5E8CD"/>
<path d="M48.4531 259.823H137.318V177.38H48.4531V259.823Z" fill="#67281E"/>
<mask id="mask0_471_285" style="mask-type:luminance" maskUnits="userSpaceOnUse" x="0" y="0" width="300" height="136">
<path d="M0 0H300V135.333H0V0Z" fill="white"/>
</mask>
<g mask="url(#mask0_471_285)">
<path d="M149.942 0.15625L-0.0527344 134.734H299.937L149.942 0.15625Z" fill="#67281E"/>
</g>
<path d="M149.942 11.9844L13.1348 134.734H286.755L149.942 11.9844Z" fill="#C2BCA9"/>
<path d="M149.943 21.5054L23.75 134.735H276.135L149.943 21.5054Z" fill="#F5E8CD"/>
<path d="M53.9062 214.854H71.0573V181.203H53.9062V214.854Z" fill="#40BFBC"/>
<path d="M76.3535 214.854H109.885V181.203H76.3535V214.854Z" fill="#40BFBC"/>
<path d="M71.0573 254.573H53.9062V220.922H71.0573V254.573Z" fill="#40BFBC"/>
<path d="M76.1191 254.573H109.65V220.922H76.1191V254.573Z" fill="#40BFBC"/>
<path d="M115.182 214.854H131.869V181.203H115.182V214.854Z" fill="#40BFBC"/>
<path d="M131.635 254.573H114.947V220.922H131.635V254.573Z" fill="#40BFBC"/>
<path d="M176.949 78.646C176.949 63.6877 164.855 51.5522 149.943 51.5522C135.032 51.5522 122.943 63.6877 122.943 78.646C122.943 93.6147 135.032 105.745 149.943 105.745C164.855 105.745 176.949 93.6147 176.949 78.646Z" fill="#67281E"/>
<path d="M171.499 78.6457C171.499 66.6978 161.854 57.0103 149.942 57.0103C138.036 57.0103 128.385 66.6978 128.385 78.6457C128.385 90.5988 138.036 100.286 149.942 100.286C161.854 100.286 171.499 90.5988 171.499 78.6457Z" fill="#40BFBC"/>
<path d="M77.7552 34.7134H29.5938V47.078H77.7552V34.7134Z" fill="#67281E"/>
<path d="M186.432 296.771H261.848V185.729H186.432V296.771Z" fill="#35181D"/>
<path d="M210.015 270.859H190.057V290.891H210.015V270.859Z" fill="#4F272F"/>
<path d="M234.12 270.859H214.162V290.891H234.12V270.859Z" fill="#4F272F"/>
<path d="M258.23 270.859H238.271V290.891H258.23V270.859Z" fill="#4F272F"/>
<path d="M190.057 210.344H210.015V190.312H190.057V210.344Z" fill="#4F272F"/>
<path d="M214.162 210.344H234.12V190.312H214.162V210.344Z" fill="#4F272F"/>
<path d="M238.271 210.344H258.23V190.312H238.271V210.344Z" fill="#4F272F"/>
<path d="M252.688 246.708H260.156V229.849H252.688V246.708Z" fill="#9D5B29"/>
<path d="M269.896 196.51H261.849V185.729H186.432V196.51H178.385V195H179.047V188.818H178.385H180.255V182.641H161.531H274.115H268.036V188.818H269.896H269.24V195H269.896V196.51Z" fill="#B6AC98"/>
<path d="M261.848 196.51H258.229V190.318H238.27V196.51H234.119V190.318H214.161V196.51H210.015V190.318H190.057V196.51H186.432V185.729H261.848V196.51Z" fill="#291215"/>
<path d="M190.057 196.511H210.015V190.318H190.057V196.511Z" fill="#3B1C21"/>
<path d="M214.162 196.511H234.12V190.318H214.162V196.511Z" fill="#3B1C21"/>
<path d="M238.271 196.511H258.23V190.318H238.271V196.511Z" fill="#3B1C21"/>
<path d="M224.146 135.474L161.531 177.38H286.755L224.146 135.474Z" fill="#67281E"/>
<path d="M224.146 142.641L172.24 177.38H276.053L224.146 142.641Z" fill="#F5E8CD"/>
<path d="M92.8913 135.474L38.1152 177.38H147.657L92.8913 135.474Z" fill="#67281E"/>
<path d="M92.8906 142.641L47.4844 177.38H138.292L92.8906 142.641Z" fill="#D7D3D5"/>
<path d="M161.531 182.641H286.755V177.38H161.531V182.641Z" fill="#351D1C"/>
<path d="M37.6191 182.641H147.656V177.38H37.6191V182.641Z" fill="#351D1C"/>
<path d="M163.4 296.771H178.385V182.641H163.4V296.771Z" fill="#67281E"/>
<path d="M161.531 188.818H180.255V182.641H161.531V188.818Z" fill="#9D5B29"/>
<path d="M161.531 184.141H180.255V182.641H161.531V184.141Z" fill="#76431D"/>
<path d="M161.531 296.771H180.255V290.588H161.531V296.771Z" fill="#9D5B29"/>
<path d="M180.255 292.088H161.531V290.588H180.255V292.088Z" fill="#76431D"/>
<path d="M162.771 290.589H179.021V284.406H162.771V290.589Z" fill="#9D5B29"/>
<path d="M162.771 285.906H179.021V284.406H162.771V285.906Z" fill="#76431D"/>
<path d="M162.744 195H179.046V188.818H162.744V195Z" fill="#9D5B29"/>
<path d="M162.744 190.318H179.046V188.818H162.744V190.318Z" fill="#76431D"/>
<path d="M178.385 198.026H163.4V195H178.385V198.026Z" fill="#4E1D15"/>
<mask id="mask1_471_285" style="mask-type:luminance" maskUnits="userSpaceOnUse" x="0" y="134" width="16" height="10">
<path d="M0 134H15.3333V143.333H0V134Z" fill="white"/>
</mask>
<g mask="url(#mask1_471_285)">
<path d="M-0.0527344 134.734L3.6556 142.641H15.041V134.734H-0.0527344Z" fill="#351D1C"/>
</g>
<path d="M25.7767 134.734H8.97461V142.641H25.7767V134.734Z" fill="#351D1C"/>
<mask id="mask2_471_285" style="mask-type:luminance" maskUnits="userSpaceOnUse" x="284" y="134" width="16" height="10">
<path d="M284.666 134H299.999V143.333H284.666V134Z" fill="white"/>
</mask>
<g mask="url(#mask2_471_285)">
<path d="M299.936 134.734L296.238 142.641H284.848V134.734H299.936Z" fill="#351D1C"/>
</g>
<path d="M274.115 134.734H290.917V142.641H274.115V134.734Z" fill="#351D1C"/>
<path d="M137.318 190.276H131.87V182.641H137.318V190.276ZM115.182 190.276H109.885V182.641H115.182V190.276ZM76.3542 190.276H71.0573V182.641H76.3542V190.276ZM53.9063 190.276H48.4531V182.641H53.9063V190.276Z" fill="#4E1D15"/>
<path d="M53.9062 190.276H71.0573V182.641H53.9062V190.276Z" fill="#308C8B"/>
<path d="M109.885 190.276H102.468C102.421 190.214 102.374 190.161 102.317 190.109C101.963 189.75 101.505 189.578 101.041 189.578C100.572 189.578 100.109 189.75 99.7546 190.109L99.5879 190.276H76.3535V182.641H109.885V190.276Z" fill="#308C8B"/>
<path d="M115.182 190.276H131.869V182.641H115.182V190.276Z" fill="#308C8B"/>
<path d="M131.531 270.687H54.2396L48.4531 259.823H137.318L131.531 270.687Z" fill="#B6AC98"/>
<path d="M37.6191 57.0104H69.7285V47.0781H37.6191V57.0104Z" fill="#B6AC98"/>
<path d="M269.896 296.771H284.881V182.641H269.896V296.771Z" fill="#67281E"/>
<path d="M268.037 188.818H286.756V182.641H268.037V188.818Z" fill="#9D5B29"/>
<path d="M268.037 184.141H286.756V182.641H268.037V184.141Z" fill="#76431D"/>
<path d="M268.037 296.771H286.756V290.588H268.037V296.771Z" fill="#9D5B29"/>
<path d="M286.756 292.088H268.037V290.588H286.756V292.088Z" fill="#76431D"/>
<path d="M269.266 290.589H285.516V284.406H269.266V290.589Z" fill="#9D5B29"/>
<path d="M269.266 285.906H285.516V284.406H269.266V285.906Z" fill="#76431D"/>
<path d="M269.24 195H285.537V188.818H269.24V195Z" fill="#9D5B29"/>
<path d="M269.24 190.318H285.537V188.818H269.24V190.318Z" fill="#76431D"/>
<path d="M269.896 198.026H284.881V195H269.896V198.026Z" fill="#4E1D15"/>
<path d="M85.2025 209.109C84.7389 209.109 84.2702 208.932 83.916 208.578C83.2129 207.87 83.2129 206.713 83.916 206.005L99.5879 190.276H102.468C103.025 190.989 102.973 192.026 102.317 192.677L86.4785 208.578C86.1243 208.932 85.6608 209.109 85.2025 209.109Z" fill="#80D5D5"/>
<path d="M102.468 190.276H99.5879L99.7546 190.109C100.109 189.75 100.572 189.578 101.041 189.578C101.505 189.578 101.963 189.75 102.317 190.109C102.374 190.161 102.421 190.214 102.468 190.276Z" fill="#6EB6B7"/>
<path d="M96.3125 204.167C96.026 204.167 95.75 204.057 95.5313 203.839C95.1042 203.411 95.1042 202.719 95.5313 202.292L105.104 192.677C105.318 192.469 105.599 192.359 105.88 192.359C106.156 192.359 106.437 192.469 106.656 192.677C107.083 193.109 107.083 193.807 106.656 194.234L97.0833 203.839C96.8646 204.057 96.5885 204.167 96.3125 204.167Z" fill="#80D5D5"/>
<path d="M81.9681 205.24C81.6921 205.24 81.4108 205.141 81.1973 204.922C80.765 204.49 80.765 203.797 81.1973 203.37L90.765 193.761C90.9837 193.547 91.2598 193.443 91.541 193.443C91.8223 193.443 92.1035 193.547 92.3171 193.761C92.7389 194.193 92.7389 194.886 92.3171 195.313L82.7441 204.922C82.5306 205.141 82.2546 205.24 81.9681 205.24Z" fill="#80D5D5"/>
<path d="M85.2025 247.516C84.7337 247.516 84.2702 247.339 83.916 246.984C83.2129 246.266 83.2129 245.12 83.916 244.406L99.7546 228.51C100.109 228.161 100.572 227.984 101.041 227.984C101.505 227.984 101.963 228.161 102.317 228.51C103.031 229.224 103.031 230.375 102.317 231.089L86.4785 246.984C86.1243 247.339 85.6608 247.516 85.2025 247.516Z" fill="#80D5D5"/>
<path d="M96.3125 242.568C96.026 242.568 95.75 242.464 95.5313 242.245C95.1042 241.823 95.1042 241.125 95.5313 240.698L105.104 231.089C105.318 230.87 105.599 230.766 105.88 230.766C106.156 230.766 106.437 230.87 106.656 231.089C107.083 231.516 107.083 232.214 106.656 232.641L97.0833 242.245C96.8646 242.464 96.5885 242.568 96.3125 242.568Z" fill="#80D5D5"/>
<path d="M81.9681 243.651C81.6921 243.651 81.4108 243.542 81.1973 243.328C80.765 242.896 80.765 242.203 81.1973 241.771L90.765 232.167C90.9837 231.953 91.2598 231.844 91.541 231.844C91.8223 231.844 92.1035 231.953 92.3171 232.167C92.7389 232.599 92.7389 233.292 92.3171 233.724L82.7441 243.328C82.5306 243.542 82.2546 243.651 81.9681 243.651Z" fill="#80D5D5"/>
<path d="M141.219 87.8905C140.75 87.8905 140.292 87.7134 139.937 87.3592C139.224 86.6457 139.224 85.4946 139.937 84.7811L155.776 68.8853C156.13 68.5363 156.594 68.354 157.057 68.354C157.521 68.354 157.99 68.5363 158.344 68.8853C159.047 69.5988 159.047 70.7498 158.344 71.4634L142.5 87.3592C142.146 87.7134 141.682 87.8905 141.219 87.8905Z" fill="#80D5D5"/>
<path d="M152.329 82.9479C152.048 82.9479 151.766 82.8437 151.553 82.625C151.126 82.1927 151.126 81.5 151.553 81.0729L161.12 71.4635C161.334 71.25 161.62 71.1406 161.896 71.1406C162.178 71.1406 162.459 71.25 162.673 71.4635C163.1 71.8958 163.1 72.5833 162.678 73.0156L153.1 82.625C152.886 82.8437 152.605 82.9479 152.329 82.9479Z" fill="#80D5D5"/>
<path d="M137.989 84.026C137.708 84.026 137.426 83.9167 137.213 83.7083C136.786 83.276 136.786 82.5781 137.213 82.1458L146.791 72.5417C146.999 72.3281 147.275 72.2188 147.562 72.2188C147.838 72.2188 148.119 72.3281 148.333 72.5417C148.765 72.974 148.765 73.6719 148.333 74.099L138.765 83.7083C138.546 83.9167 138.265 84.026 137.989 84.026Z" fill="#80D5D5"/>
<path d="M295.437 307.318H25.7754V296.771H295.437V307.318Z" fill="#D7D3D5"/>
<path d="M295.437 307.318H158.51V302.042H295.437V307.318Z" fill="#B1AAAD"/>
<mask id="mask3_471_285" style="mask-type:luminance" maskUnits="userSpaceOnUse" x="11" y="268" width="157" height="40">
<path d="M11.334 268.667H167.334V308H11.334V268.667Z" fill="white"/>
</mask>
<g mask="url(#mask3_471_285)">
<path d="M165.276 307.958C166.005 307.291 166.609 306.495 166.979 305.609C167.708 303.875 167.193 301.719 165.609 300.64C165.385 300.489 165.12 300.411 164.87 300.307C165.396 298.677 165.13 296.76 163.849 295.594C163.109 294.911 162.182 294.646 161.24 294.661C161.995 292.114 161.24 289.312 159.042 287.62C157.448 286.396 154.906 286.344 153.047 286.859C152.307 287.062 151.604 287.495 151.094 288.047C150.339 287.286 149.375 286.765 148.25 286.698C147.177 286.635 145.88 286.885 144.906 287.469C143.776 285.12 141.109 283.75 138.807 282.88C137.682 282.463 134.911 282.552 132.896 283.281C132.135 281.552 130.771 280.172 129.234 279.015C127.578 277.776 123.625 277.271 122 278.984C121.734 278.312 121.427 277.682 121.078 277.219C120.583 276.541 119.776 275.854 118.875 275.385C118.094 273.364 116.698 271.802 113.943 271.552C111.589 271.354 109.719 271.916 108.344 273.005C106.339 271.87 103.365 272.161 101.354 273.151C99.8802 273.885 98.6042 275.156 98.0625 276.724C96.8177 276.557 95.4219 277 94.4688 277.708C93.2448 278.62 92.3125 280.047 92.2292 281.614C90.901 281.239 89.0052 281.146 87.9063 281.88C87.4167 282.203 87.0521 282.614 86.8333 283.052C86.6927 282.677 86.5417 282.297 86.3229 281.958C84.3594 278.963 79.2656 277.719 76.599 280.224C76.5 280.151 76.4219 280.041 76.3125 279.974C75.4844 279.416 74.0833 279.177 72.8542 279.338C71.5885 275.416 69.1719 272.177 64.4063 271.609C63.099 271.453 61.7292 271.448 60.3594 271.552C60.25 271.458 60.1458 271.354 60.0417 271.271C57.5417 269.375 53.1667 269.203 50.7552 271.286C49.1198 272.698 47.6354 275.047 47.151 277.151C47.125 277.26 47.1406 277.39 47.1302 277.51C44.7969 276.739 41.8906 277.448 40.2344 279.344C37.474 278.651 34.5417 280.708 33.3333 283.213C32.0313 282.849 30.6302 283.469 29.6406 284.276L29.5208 284.406C28.8125 283.661 27.9063 283.187 26.7031 283.161C24.6042 283.12 22.276 284.651 21.349 286.495C20.9635 287.255 20.8073 288.135 20.8281 289.041C20.4271 289.031 20.0156 289.073 19.6146 289.161C17.5573 289.599 16.099 291.698 15.4792 293.547C15.026 294.906 15.3854 296.26 16.0677 297.432C14.9479 298.177 14.4115 299.276 14.25 300.594C14.1979 301.01 14.2344 301.463 14.3125 301.906C12.6406 303.156 11.6302 305.192 11.5938 307.849L11.6042 307.958H165.276Z" fill="#2F5830"/>
</g>
</svg>
