<svg width="955" height="955" viewBox="0 0 955 955" fill="none" xmlns="http://www.w3.org/2000/svg">
<mask id="mask0_503_307" style="mask-type:luminance" maskUnits="userSpaceOnUse" x="0" y="0" width="955" height="955">
<path d="M0 0H954.417V954.422H0V0Z" fill="white"/>
</mask>
<g mask="url(#mask0_503_307)">
<path fill-rule="evenodd" clip-rule="evenodd" d="M477.208 954.422C740.766 954.422 954.417 740.766 954.417 477.208C954.417 213.656 740.766 0 477.208 0C213.656 0 0 213.656 0 477.208C0 740.766 213.656 954.422 477.208 954.422ZM425.839 567.516V664.589C425.839 678.651 414.297 690.156 400.182 690.156H323.214C309.104 690.156 297.557 678.651 297.557 664.589V516.37C297.557 499.37 283.776 485.583 266.771 485.583H253.943C242.141 485.583 236.755 471.01 245.479 463.339L459.964 270.786C469.714 262.089 484.594 262.089 494.344 270.786L708.828 463.339C717.807 471.01 712.161 485.583 700.359 485.583H687.531C670.531 485.583 656.745 499.37 656.745 516.37V664.589C656.745 678.651 645.198 690.156 631.089 690.156H554.12C540.01 690.156 528.464 678.651 528.464 664.589V567.516C528.464 550.516 514.682 536.729 497.677 536.729H456.63C439.625 536.729 425.839 550.516 425.839 567.516Z" fill="#112752"/>
</g>
</svg>
