<svg width="46" height="14" viewBox="0 0 46 14" fill="none" xmlns="http://www.w3.org/2000/svg">
<mask id="mask0_70_104674" style="mask-type:luminance" maskUnits="userSpaceOnUse" x="0" y="0" width="46" height="14">
<path d="M0.189941 0.319824H45.3498V13.5445H0.189941V0.319824Z" fill="white"/>
</mask>
<g mask="url(#mask0_70_104674)">
<path d="M44.7033 9.11414C44.5174 9.42256 44.31 9.71415 44.0283 9.94833C43.8668 10.0823 43.6946 10.1726 43.488 10.2261C42.924 10.3792 42.3462 10.4083 41.7699 10.4435C40.0862 10.5468 38.3986 10.5185 36.7134 10.5483C34.9746 10.5813 33.2381 10.5981 31.4993 10.6264C30.5725 10.6417 29.6449 10.657 28.7197 10.6876C27.8457 10.7182 26.9709 10.7711 26.0969 10.8101C25.3385 10.8438 24.5801 10.8705 23.8209 10.908C23.051 10.9455 22.2788 10.993 21.5081 11.0351C20.9815 11.0642 20.455 11.0932 19.9285 11.12C19.2213 11.156 18.5142 11.1828 17.8085 11.2203C17.1657 11.2555 16.5251 11.3029 15.8822 11.3435C15.4713 11.3695 15.061 11.3933 14.6485 11.4132C13.8779 11.4522 13.1057 11.4882 12.3357 11.5218C12.2347 11.5272 12.1276 11.5149 12.0334 11.4828C12.0013 11.4713 11.9707 11.4269 11.9516 11.381C11.8528 11.3978 11.7526 11.4116 11.6485 11.4185C11.5888 11.5662 11.5237 11.7116 11.4579 11.8578C11.35 12.0951 11.2054 12.3032 10.9651 12.4303C10.9207 12.4548 10.8748 12.4846 10.8457 12.5236C10.6972 12.7257 10.4829 12.79 10.2495 12.8374C9.12753 13.0647 7.99945 13.243 6.86296 13.3838C5.72034 13.5239 4.57848 13.5377 3.43357 13.5193C3.30729 13.5178 3.17948 13.4902 3.05856 13.4527C3.01723 13.4397 2.97973 13.377 2.9629 13.3242C2.87948 13.3211 2.79759 13.3104 2.72106 13.2867C2.69197 13.3088 2.656 13.3257 2.62539 13.3326C2.39733 13.3747 2.19299 13.2989 2.00855 13.1696C1.79579 13.0188 1.6366 12.819 1.49884 12.5986C1.17511 12.0851 0.950111 11.5272 0.791691 10.944C0.52536 9.96517 0.366939 8.97026 0.301122 7.95621C0.256733 7.26283 0.259795 6.57252 0.32102 5.8845C0.435052 4.61483 0.70674 3.38191 1.23098 2.21174C1.44298 1.7426 1.71849 1.31325 2.03916 0.9084C2.35983 0.504312 2.78075 0.335177 3.28203 0.321401C3.3976 0.31834 3.51316 0.31987 3.62949 0.328289C4.55323 0.400994 5.47697 0.466046 6.39917 0.555588C7.19128 0.63212 7.98262 0.738499 8.77472 0.831868C9.06784 0.865542 9.36325 0.896155 9.65637 0.932125C10.1064 0.987993 10.5319 1.12192 10.9375 1.32014C11.1985 1.44718 11.4028 1.63928 11.5513 1.88801C11.676 2.09694 11.7985 2.3051 11.9248 2.51863C12.1459 2.58368 12.3748 2.61047 12.6067 2.61047C13.2373 2.612 13.8679 2.61353 14.4985 2.62042C17.0738 2.6495 19.6476 2.68011 22.2229 2.71225C23.8454 2.73215 25.4663 2.75664 27.0888 2.78343C28.4794 2.80715 29.8684 2.83624 31.259 2.86455C32.2118 2.88522 33.1631 2.90894 34.1159 2.93802C35.2356 2.9717 36.3537 3.01379 37.4734 3.05282C37.6012 3.05818 37.7305 3.06124 37.8583 3.0666C38.8624 3.09874 39.8665 3.12246 40.8683 3.16456C41.3444 3.18522 41.8181 3.23956 42.2918 3.27706C42.4839 3.29236 42.6768 3.31379 42.8696 3.3092C43.0181 3.30538 43.149 3.34135 43.2783 3.39874C44.1906 3.80054 44.8021 4.46866 45.0936 5.42148C45.2215 5.83858 45.3133 6.26409 45.3393 6.69956C45.3906 7.57279 45.1518 8.37178 44.7033 9.11414Z" fill="black"/>
</g>
<path d="M3.09573 13.1496C3.12098 13.1442 3.14701 13.1427 3.17226 13.1411C3.51818 13.1189 3.86564 13.0853 4.21233 13.0799C5.01132 13.0661 5.80572 12.9881 6.59629 12.8985C7.71978 12.77 8.83561 12.5848 9.94226 12.349C9.97976 12.3406 10.0157 12.32 10.0532 12.3184C10.5369 12.3054 10.7803 11.9679 10.9632 11.5998C11.1492 11.2233 11.2885 10.8199 11.4178 10.4197C11.7109 9.51583 11.916 8.59209 12.0369 7.65075C12.1272 6.95049 12.1579 6.24716 12.1234 5.54154C12.0966 4.99051 11.9704 4.45325 11.8479 3.916C11.7078 3.28691 11.4706 2.69379 11.1522 2.13358C11.0703 1.99123 10.9594 1.86418 10.8522 1.73867C10.7007 1.56112 10.5147 1.49147 10.2713 1.52515C9.85655 1.58484 9.45322 1.46775 9.04531 1.4203C8.53408 1.36061 8.02667 1.28484 7.51697 1.21979C6.98125 1.15244 6.44476 1.08586 5.9098 1.02157C5.64194 0.989427 5.37255 0.957283 5.10469 0.930497C4.49167 0.865445 3.87482 0.817995 3.26257 0.736872C2.9595 0.697841 2.73756 0.796567 2.5447 1.01162C2.31128 1.27106 2.12378 1.56112 1.95694 1.86418C1.58193 2.54226 1.34698 3.27314 1.16636 4.02085C0.884726 5.18566 0.789827 6.36885 0.835746 7.56427C0.880134 8.73444 1.05386 9.88089 1.38984 11.0028C1.50693 11.3962 1.66535 11.7728 1.86663 12.134C2.03041 12.4302 2.2401 12.685 2.51409 12.8863C2.58603 12.9391 2.66409 12.9919 2.72225 13.0577C2.75822 13.1006 2.79037 13.1802 2.77353 13.2238C2.76511 13.246 2.74598 13.2667 2.72378 13.285C2.80108 13.3087 2.88221 13.321 2.96639 13.3225C2.96409 13.3172 2.96256 13.3118 2.96103 13.3072C2.93884 13.2429 3.0169 13.1649 3.09573 13.1496ZM2.54011 11.9067C2.38169 11.9036 2.26919 11.837 2.20566 11.6932C2.20107 11.6809 2.19418 11.6694 2.19036 11.6572C1.90796 10.849 1.59877 10.05 1.46637 9.19746C1.35846 8.50026 1.2957 7.80152 1.26203 7.13034C1.27886 6.34206 1.36075 5.59281 1.50693 4.85199C1.62096 4.27494 1.74724 3.70018 1.94546 3.14456C2.02658 2.91573 2.13755 2.69838 2.22097 2.47108C2.34036 2.15118 2.61511 2.05934 2.90823 1.99658C3.0016 1.97592 3.08195 2.0272 3.1516 2.08842C3.31002 2.22695 3.40951 2.40526 3.48757 2.59659C3.64752 2.98844 3.77227 3.39176 3.85033 3.80733C3.946 4.31091 3.99345 4.81984 4.00722 5.33184C4.04013 6.48441 3.96513 7.63238 3.80135 8.77347C3.74472 9.16532 3.69191 9.55869 3.6238 9.94824C3.54727 10.3891 3.42482 10.8199 3.24573 11.2332C3.16384 11.4215 3.06512 11.6013 2.91358 11.7475C2.81256 11.8493 2.69164 11.9097 2.54011 11.9067ZM44.7864 7.21835C44.6877 8.24923 44.1527 9.06353 43.4984 9.79747C43.0614 9.81278 42.6512 9.82426 42.2402 9.84339C41.9831 9.85487 41.7274 9.89237 41.4695 9.90079C40.7746 9.92604 40.0805 9.94364 39.3856 9.96048C39.3289 9.96201 39.2578 9.99109 39.2203 9.91609C39.3565 9.6689 39.5065 9.43088 39.622 9.1768C39.8731 8.6273 40.069 8.0579 40.1402 7.45636C40.2236 6.74079 40.2289 6.02981 40.0246 5.32342C39.8846 4.83974 39.6083 4.4479 39.2953 4.07213C39.28 4.05299 39.2578 4.02774 39.2356 4.02621C39.2095 4.02238 39.1828 4.02085 39.1567 4.02085C39.0817 3.89534 39.0021 3.78054 38.9187 3.65962C39.3427 3.6734 39.7652 3.68717 40.1899 3.70018C40.2412 3.70248 40.2917 3.70554 40.3453 3.70937C41.1565 3.76294 41.9655 3.77365 42.7736 3.67646C42.8792 3.66345 42.9734 3.67493 43.0683 3.7308C43.8114 4.16014 44.3471 4.75173 44.5836 5.58899C44.7336 6.12318 44.8408 6.66273 44.7864 7.21835ZM18.6638 3.19737C18.7656 3.19737 18.8506 3.19737 18.9393 3.19737C18.96 3.23257 18.9837 3.26319 18.9975 3.29686C19.0251 3.3665 19.0434 3.4415 19.074 3.50885C19.0947 3.55324 19.1865 3.54253 19.2003 3.49508C19.224 3.41242 19.2393 3.32594 19.26 3.22569C19.3381 3.22569 19.41 3.22569 19.4865 3.22569C19.5057 3.26319 19.5279 3.2938 19.5363 3.329C19.5562 3.41548 19.5615 3.50732 19.5906 3.58998C19.6044 3.62901 19.6572 3.65273 19.7062 3.69559C19.8363 3.55171 19.7353 3.38028 19.8003 3.23563C19.8631 3.23563 19.9212 3.23563 19.9756 3.23563C19.9932 3.26319 20.0115 3.28155 20.0184 3.30375C20.0437 3.40247 20.0559 3.50579 20.0904 3.60069C20.1034 3.63972 20.1615 3.6887 20.1975 3.68717C20.2297 3.68564 20.2825 3.62595 20.2878 3.58692C20.3016 3.48666 20.2932 3.38334 20.2932 3.26625C20.3644 3.19048 20.4669 3.22415 20.5656 3.23793C20.6728 3.31217 20.5963 3.50732 20.7784 3.5364C20.9269 3.5035 20.8228 3.33283 20.9269 3.24635C20.995 3.24635 21.0784 3.24635 21.1725 3.24635C21.1993 3.39712 21.22 3.53411 21.2506 3.67033C21.2575 3.69865 21.3072 3.74457 21.3241 3.73921C21.3669 3.72773 21.4266 3.69559 21.4327 3.66192C21.4603 3.53793 21.4702 3.41242 21.4855 3.29533C21.556 3.20885 21.6294 3.24635 21.7128 3.25936C21.7419 3.3887 21.7672 3.51038 21.7978 3.63283C21.8032 3.64967 21.8407 3.67493 21.856 3.67187C21.8881 3.66345 21.9356 3.64278 21.9424 3.61906C21.96 3.54635 21.96 3.46829 21.9685 3.39176C21.9799 3.29227 22.0312 3.24635 22.1131 3.25324C22.2049 3.26166 22.2478 3.31599 22.2578 3.40018C22.2853 3.60375 22.2868 3.80733 22.2256 4.02774C22.1575 4.04151 22.084 4.06983 22.0144 4.0683C21.5896 4.05835 21.1672 4.04151 20.7424 4.02468C20.5366 4.01626 20.3307 4.01779 20.1279 3.99253C19.7575 3.94815 19.3909 3.89075 19.0228 3.83794C19.0113 3.83641 18.9975 3.83411 18.9853 3.82952C18.6669 3.71549 18.5307 3.64814 18.6638 3.19737Z" fill="#525D65"/>
<path d="M38.9191 3.66203C39.0002 3.78218 39.0806 3.89928 39.1571 4.02249C39.1349 4.02479 39.115 4.02632 39.0974 4.03474C39.0752 4.04469 39.0568 4.10898 39.0683 4.135C39.1196 4.25132 39.1793 4.36536 39.2443 4.47556C39.4058 4.75184 39.5528 5.03348 39.6415 5.34496C39.8696 6.15544 39.8405 6.96591 39.6668 7.77791C39.4984 8.56466 39.1165 9.26186 38.6834 9.96748C38.5862 9.97208 38.5096 9.97896 38.4331 9.98049C36.219 10.0111 34.005 10.0417 31.7909 10.0723C31.2253 10.0808 30.6575 10.0723 30.0919 10.0961C28.6768 10.1535 27.264 10.2246 25.8497 10.2889C25.1043 10.3234 24.3581 10.3555 23.612 10.3892C23.5469 10.393 23.4841 10.3961 23.4191 10.4014C22.7257 10.4435 22.0316 10.4879 21.3382 10.5269C20.7091 10.5621 20.0785 10.5897 19.4494 10.6249C19.0132 10.6501 18.5769 10.6792 18.1407 10.7098C17.5767 10.7489 17.0126 10.7948 16.4463 10.8338C15.9335 10.869 15.4185 10.8981 14.9057 10.9333C14.5713 10.957 14.2391 10.9846 13.9054 11.0167C13.4447 11.0588 12.9832 11.1047 12.5233 11.1537C12.3572 11.1706 12.1919 11.1966 12.0289 11.2303C11.9891 11.2387 11.9332 11.3045 11.9363 11.3374C11.9386 11.3504 11.9432 11.3673 11.95 11.3826C11.8513 11.4002 11.7511 11.4132 11.647 11.4201C11.6791 11.342 11.7097 11.2639 11.7373 11.1859C12.1835 9.93993 12.4804 8.66185 12.6166 7.34244C12.7651 5.89446 12.6488 4.48092 12.1567 3.10411C12.1414 3.05972 12.1391 3.01074 12.1307 2.95105C14.1863 3.10411 16.2266 3.0934 18.2785 3.17299C18.2616 3.27325 18.2494 3.34825 18.2364 3.42095C18.1728 3.75463 18.3075 3.99418 18.5991 4.15336C18.6772 4.19546 18.7591 4.24138 18.8448 4.26357C19.105 4.32939 19.3675 4.41587 19.6338 4.43959C20.3632 4.50618 21.0956 4.55209 21.8288 4.58883C22.6913 4.63322 23.5523 4.5498 24.414 4.51459C24.6069 4.50618 24.7997 4.47862 24.9888 4.43959C25.125 4.41128 25.2635 4.36383 25.386 4.29954C25.6775 4.14801 25.8054 3.89698 25.7832 3.57172C25.7778 3.49749 25.761 3.42402 25.7441 3.3207C25.8888 3.31764 26.015 3.31075 26.1406 3.31381C26.899 3.33294 27.6597 3.35514 28.4181 3.37197C29.9756 3.40565 31.5322 3.43779 33.0896 3.47147C33.18 3.47376 33.2703 3.47835 33.3606 3.48218C34.5705 3.52274 35.779 3.5633 36.9897 3.60234C37.6318 3.6207 38.2762 3.64137 38.9191 3.66203ZM22.8857 4.06535C23.4359 4.03627 23.987 4.00948 24.5372 3.97505C24.665 3.96663 24.7913 3.9429 24.9168 3.91459C25.1709 3.85872 25.2375 3.78372 25.2681 3.52963C25.275 3.4684 25.2696 3.40565 25.2696 3.34825C24.9918 3.28702 23.8209 3.25335 22.8413 3.27478C22.7816 3.27708 22.7219 3.29391 22.6591 3.30539C22.679 3.55335 22.6982 3.78065 22.7204 4.04622C22.7869 4.05464 22.8359 4.06688 22.8857 4.06535Z" fill="#3B464E"/>
<path d="M2.7462 2.35791C3.22529 2.95792 3.56968 4.80463 3.45182 5.73526C3.38907 5.74674 3.31253 5.75056 3.24442 5.77582C2.76686 5.95031 2.49441 6.30159 2.41405 6.79293C2.39033 6.94216 2.39568 7.10212 2.41558 7.25059C2.47528 7.68835 2.73625 7.96157 3.17095 8.06489C3.23218 8.07866 3.2934 8.08708 3.3684 8.10009C3.37529 8.16132 3.38907 8.2103 3.38371 8.25775C3.3156 8.82944 3.25054 9.40113 3.16942 9.97053C3.11126 10.3754 3.01406 10.7741 2.8587 11.1537C2.79748 11.3068 2.73242 11.4629 2.59849 11.5731C2.54492 11.6152 2.4615 11.5984 2.43625 11.5387C2.4263 11.5149 2.41405 11.4927 2.40869 11.4675C2.26099 10.8468 2.09185 10.2284 1.9694 9.60241C1.82246 8.84781 1.74057 8.08325 1.71838 7.31564C1.69848 6.58323 1.7972 5.8623 1.92807 5.14367C2.09032 4.25819 2.4041 3.17144 2.7462 2.35791ZM3.42963 6.07736C3.20462 6.17302 3.04467 6.32838 2.93906 6.5419C2.83191 6.75925 2.83191 6.98961 2.88778 7.21691C2.91151 7.31181 2.96814 7.41054 3.03778 7.47789C3.12809 7.56437 3.24595 7.62712 3.41126 7.5835C3.50004 7.0914 3.50999 6.36435 3.42963 6.07736Z" fill="#FFEC56"/>
</svg>
