<svg width="137" height="100" viewBox="0 0 137 100" fill="none" xmlns="http://www.w3.org/2000/svg">
<mask id="mask0_71_104893" style="mask-type:luminance" maskUnits="userSpaceOnUse" x="0" y="46" width="137" height="54">
<path d="M0.303711 46.4253H136.11V99.0663H0.303711V46.4253Z" fill="white"/>
</mask>
<g mask="url(#mask0_71_104893)">
<path d="M127.629 97.6144C127.692 97.8028 127.675 97.9704 127.588 98.0925C127.497 98.2147 127.343 98.2845 127.144 98.2845H124.53C124.049 98.2845 123.466 97.9145 123.26 97.4783L112.566 75.1661L112.807 75.044C114.196 74.3529 115.536 73.634 116.793 72.901C117.445 72.5206 118.108 72.1193 118.82 71.6656L119.117 71.4771L127.629 97.6144ZM20.5255 72.901C19.7751 72.4683 19.0178 72.0111 18.2709 71.5364L17.9743 71.348L9.42005 97.6144C9.35723 97.7993 9.37468 97.9704 9.46193 98.0925C9.54918 98.2147 9.70624 98.2845 9.90517 98.2845H12.5193C13.0009 98.2845 13.5837 97.9145 13.7931 97.4818L24.5391 75.0509L24.2983 74.9323C23.0035 74.2831 21.7331 73.6026 20.5255 72.901ZM135.981 47.6782L135.451 47.5595C132.913 55.3075 126.467 62.3714 116.814 67.9905C103.995 75.4558 86.9245 79.5636 68.7446 79.5636C50.5647 79.5636 33.4493 75.4558 20.5465 67.994C10.6276 62.2563 4.05229 55.0318 1.53245 47.1023L1.00195 47.2175C2.03502 56.7245 9.05708 65.694 20.7733 72.4683C33.5994 79.8882 50.631 83.9751 68.7237 83.9751C86.8163 83.9751 103.799 79.8882 116.541 72.4683C127.975 65.8162 134.878 57.0107 135.981 47.6782Z" fill="#EAA890"/>
</g>
<mask id="mask1_71_104893" style="mask-type:luminance" maskUnits="userSpaceOnUse" x="0" y="0" width="137" height="80">
<path d="M0.303711 0H137V79.4833H0.303711V0Z" fill="white"/>
</mask>
<g mask="url(#mask1_71_104893)">
<path d="M136.442 40.0173C136.456 50.512 129.448 60.3785 116.702 67.7984C103.914 75.2393 86.8825 79.3402 68.7445 79.3402C50.6065 79.3402 33.526 75.2393 20.658 67.7984C7.74468 60.3261 0.621403 50.3933 0.607443 39.8254C0.593482 29.3272 7.60507 19.4607 20.3509 12.0408C33.1351 4.59639 50.1667 0.499023 68.3012 0.499023C86.4392 0.499023 103.516 4.59639 116.384 12.0408C129.305 19.513 136.428 29.4493 136.442 40.0173Z" fill="white"/>
</g>
<path d="M16.8257 79.0434C16.5221 78.8724 16.222 78.6944 15.9253 78.5164L18.124 71.7666C18.857 72.2343 19.6108 72.6915 20.3856 73.1382C21.6141 73.8502 22.8776 74.5273 24.1759 75.1764L21.2023 81.3818C19.7051 80.6419 18.2392 79.8601 16.8257 79.0434ZM121.172 78.67L118.967 71.8992C118.304 72.318 117.627 72.7334 116.928 73.1382C115.637 73.8921 114.3 74.6075 112.929 75.2881L115.913 81.5179C117.501 80.7361 119.043 79.9125 120.541 79.0434C120.75 78.9213 120.963 78.7956 121.172 78.67Z" fill="#090001" fill-opacity="0.3"/>
<mask id="mask2_71_104893" style="mask-type:luminance" maskUnits="userSpaceOnUse" x="0" y="0" width="137" height="100">
<path d="M0 0H137V99.0662H0V0Z" fill="white"/>
</mask>
<g mask="url(#mask2_71_104893)">
<path d="M136.94 40.0174C136.933 36.6599 136.228 33.3653 134.86 30.1928C131.862 23.2126 125.657 16.8257 116.632 11.608C115.968 11.2241 115.291 10.8507 114.607 10.4842C114.429 10.39 114.251 10.2923 114.07 10.198C101.464 3.60526 85.3464 0 68.3008 0C50.0791 0 32.9602 4.1218 20.0992 11.608C18.0854 12.7807 16.2112 14.0162 14.4836 15.304C14.4487 15.332 14.4138 15.3564 14.3789 15.3843C14.0718 15.6147 13.7682 15.845 13.4715 16.0788C13.3738 16.1556 13.2796 16.2359 13.1818 16.3127C12.9515 16.4977 12.7176 16.6826 12.4943 16.8676C12.3547 16.9828 12.2221 17.0979 12.0825 17.2131C11.9045 17.3667 11.7265 17.5168 11.552 17.6668C11.3809 17.8169 11.2169 17.967 11.0494 18.1136C10.9168 18.2357 10.7772 18.3579 10.6445 18.4765C10.4526 18.6545 10.2641 18.836 10.0756 19.014C9.97444 19.1117 9.87322 19.206 9.7755 19.3002C9.5661 19.5026 9.36367 19.705 9.16474 19.911C9.08795 19.9843 9.01466 20.0575 8.94137 20.1343C8.72498 20.3577 8.51209 20.5811 8.30617 20.8044C8.25033 20.8638 8.19449 20.9196 8.14214 20.9789C7.91877 21.2197 7.70239 21.4641 7.48949 21.7119C7.4511 21.7502 7.4162 21.7921 7.3813 21.8305C7.15444 22.0923 6.93806 22.354 6.72167 22.6158C6.70073 22.6437 6.6763 22.6716 6.65536 22.6961C6.4285 22.9718 6.21212 23.251 5.99922 23.5302C5.98875 23.5441 5.97479 23.5581 5.96432 23.5721C5.74445 23.8617 5.53155 24.1514 5.32215 24.4446C5.31866 24.4481 5.31517 24.4516 5.31517 24.4551C1.9228 29.2121 0.139362 34.3599 0.111441 39.6753C0.111441 39.6928 0.107951 39.7068 0.107951 39.7242L0.0870102 44.6348C0.0590895 54.5257 6.1109 63.8477 17.2164 71.1769L8.68659 97.3735C8.54699 97.7958 8.60283 98.2216 8.83667 98.5462C9.0705 98.8708 9.4579 99.0557 9.90114 99.0557H12.5152C13.2865 99.0557 14.1521 98.5113 14.4871 97.8133L25.1144 75.6337C37.3751 81.5355 52.6338 84.7499 68.7231 84.7499C84.7043 84.7499 99.8338 81.5774 111.99 75.7489L122.561 97.8133C122.896 98.5113 123.758 99.0557 124.53 99.0557H127.144C127.59 99.0557 127.978 98.8708 128.212 98.5462C128.446 98.2251 128.501 97.7958 128.362 97.3735L119.874 71.3095C130.864 64.0641 136.888 54.8258 136.916 45.0291L136.94 40.1291C136.94 40.1256 136.94 40.1221 136.94 40.1186C136.94 40.1151 136.937 40.1116 136.937 40.1081C136.937 40.0767 136.94 40.0488 136.94 40.0174ZM127.367 97.9319C127.329 97.9808 127.248 98.0087 127.144 98.0087H124.53C124.156 98.0087 123.668 97.7016 123.504 97.3596L115.913 81.518L112.929 75.2882C114.3 74.6077 115.637 73.8922 116.928 73.1383C117.626 72.7335 118.303 72.3182 118.966 71.8993L121.172 78.6701L127.371 97.6981C127.402 97.7993 127.402 97.8831 127.367 97.9319ZM116.405 72.2344C103.701 79.6299 86.7669 83.7028 68.7231 83.7028C50.6759 83.7028 33.6966 79.6299 20.9089 72.2309C9.17521 65.4462 2.29973 56.6302 1.27364 47.186C3.79349 55.1295 10.3688 62.4238 20.4098 68.2313C33.3511 75.7175 50.5188 79.8393 68.7441 79.8393C86.9693 79.8393 104.092 75.7175 116.953 68.2278C126.725 62.5389 133.164 55.4087 135.708 47.6432C134.613 56.9164 127.856 65.5648 116.405 72.2344ZM12.5187 98.0087H9.90463C9.79993 98.0087 9.71966 97.9808 9.68127 97.9319C9.64986 97.8831 9.64637 97.7993 9.67778 97.6981L15.925 78.5166L18.1238 71.7667C18.8567 72.2344 19.6106 72.6916 20.3854 73.1383C21.6139 73.8503 22.8773 74.5274 24.1756 75.1765L21.2021 81.3784L13.5448 97.3596C13.3808 97.7016 12.8922 98.0087 12.5187 98.0087ZM116.426 67.3238C103.725 74.7193 86.7913 78.7923 68.7441 78.7923C50.7003 78.7923 33.7175 74.7193 20.9298 67.3238C8.19449 59.9563 1.16894 50.1875 1.15498 39.8254C1.14102 29.5297 8.05488 19.8307 20.6262 12.512C33.3266 5.11996 50.2605 1.04703 68.3008 1.04703C86.3446 1.04703 103.324 5.11996 116.108 12.5155C128.854 19.8865 135.879 29.6518 135.893 40.0174C135.907 50.3097 128.993 60.0051 116.426 67.3238Z" fill="#090001"/>
</g>
</svg>
