<svg width="26" height="26" viewBox="0 0 26 26" fill="none" xmlns="http://www.w3.org/2000/svg">
<mask id="mask0_70_104670" style="mask-type:luminance" maskUnits="userSpaceOnUse" x="0" y="0" width="26" height="26">
<path d="M0 0H26V26H0V0Z" fill="white"/>
</mask>
<g mask="url(#mask0_70_104670)">
<path d="M15.175 13.3412L14.8374 12.8L14.4597 12.2807L14.122 11.7351L13.8046 11.178L13.4854 10.6214L13.1609 10.0534L12.8277 9.49104L12.526 8.91068L12.2328 8.32593L11.8885 7.71216L11.572 7.08387L11.2405 6.46263L10.8861 5.71432L10.5291 4.96865L10.2244 4.39401L9.90169 3.82816L9.53677 3.28913L9.14898 2.76725L8.70096 2.20008L8.21601 1.66325L7.67259 1.18797L7.10322 0.742593L6.48857 0.409328L5.83127 0.171909L5.14672 0.0334145L4.44809 0L3.73759 0.107718L3.0372 0.276989L2.38079 0.577719L1.87341 0.920658L1.39989 1.30668L1.37088 1.35197H1.35945L0.827451 2.04664L0.483194 2.60765L0.255887 3.22538L0.204447 3.41356L0.194774 3.41619L0.185541 3.41839L0.194774 3.45049L0.0830993 3.85938L0.00395966 4.52767L0.0536417 5.19903L0.190817 5.85809L0.444943 6.48022L0.775571 7.11377L1.19985 7.69017L1.6848 8.21689L2.2014 8.71283L2.73911 9.14678L3.3098 9.53456L3.88796 9.91136L4.47843 10.2688L5.02229 10.5519L5.57627 10.8166L6.12541 11.0883L6.69697 11.3609L7.27029 11.6313L7.82515 11.9373L8.39232 12.2319L8.96037 12.526L9.51302 12.8474L10.0648 13.1702L10.643 13.4788L11.2053 13.8147L11.7716 14.1436L12.3304 14.4856L12.9173 14.8769L13.4955 15.2819L14.0565 15.7105L14.3269 15.9924L14.5265 15.7923L14.0618 15.3518L13.5566 14.9565L13.0158 14.6114L12.49 14.2662L11.9527 13.9396L11.4115 13.619L10.8747 13.2906L10.3207 12.9494L9.74824 12.6412L9.17272 12.3383L8.60995 12.0116L7.97464 11.6902L7.34636 11.3557L6.69697 11.0633L5.98779 10.6979L5.26323 10.3625L4.71365 10.0525L4.15571 9.75791L3.63955 9.39475L3.11854 9.04214L2.5505 8.6227L2.02598 8.1505L1.51992 7.6572L1.1062 7.08387L0.748751 6.5044L0.50166 5.8704L0.340303 5.20827L0.312164 4.5281L0.363166 4.04491L0.364045 4.04711L0.594869 4.65737L0.874056 5.24828L1.21392 5.80753L1.61049 6.32765L2.04049 6.82052L2.56325 7.34811L3.11547 7.84493L3.70066 8.30219L4.31223 8.72426L4.91985 9.15206L5.54417 9.55435L6.09903 9.89025L6.66268 10.2121L7.21138 10.559L7.76316 10.8993L8.32681 11.2207L8.88474 11.5597L9.44356 11.8969L9.99621 12.2451L10.5458 12.5977L11.0725 12.9842L11.6045 13.3557L12.1251 13.7435L12.6619 14.1097L13.1512 14.5375L13.6696 14.9288L13.6846 14.9429C13.696 14.9411 13.7074 14.9451 13.7167 14.9534C13.725 14.9609 13.725 14.9688 13.7193 14.9732L14.1502 15.365L14.578 15.7404L14.7697 15.5496L14.2838 15.0853L13.7611 14.6641L13.2475 14.2319L12.7151 13.8222L12.1967 13.3948L11.6326 13.029L11.1002 12.6373L10.5445 12.2794L10.0054 11.8947L9.42729 11.572L8.861 11.2312L8.32373 10.8909L7.76887 10.5801L7.22193 10.2552L6.68686 9.91004L6.1342 9.59392L5.54813 9.19075L4.93436 8.83066L4.34433 8.43365L3.77628 8.00541L3.2289 7.55212L2.69383 7.08387L2.22383 6.62047L1.80746 6.10826L1.41924 5.57539L1.06927 5.01613L0.806787 4.41159L0.56717 3.79694L0.493746 3.38234L0.546506 3.16163L0.817779 2.62612L0.978696 3.03808L1.30844 3.72L1.67996 4.3795L2.11303 5.00162L2.53511 5.54725L3.01126 6.04715L3.49929 6.53605L4.0137 6.9955L4.51756 7.39692L5.04295 7.77019L5.57407 8.13379L6.14871 8.56862L6.73215 8.99246L7.31294 9.41893L7.8955 9.84365L8.47014 10.2785L9.0206 10.7124L9.58953 11.1222L10.1334 11.5641L10.6948 11.9839L11.2374 12.4267L11.7918 12.8558L12.3673 13.3122L12.9376 13.7756L13.4779 14.2746L14.0389 14.749L14.5894 15.2357L14.8435 15.4854L15.0251 15.3038L14.5305 14.8L13.9932 14.3427L13.4581 13.8833L12.9376 13.4063L12.3788 12.9749L12.1739 12.8048C12.18 12.8329 12.18 12.858 12.1708 12.8663C12.1594 12.8778 12.1383 12.8558 12.1229 12.8167C12.1136 12.7929 12.1101 12.7701 12.1101 12.752L11.8388 12.5269L11.2915 12.0899L10.7428 11.6542L10.18 11.2365L9.78781 10.9468C9.7777 10.952 9.7566 10.9564 9.7311 10.9564C9.6968 10.9564 9.66866 10.938 9.66866 10.916C9.66866 10.8962 9.69153 10.8892 9.72054 10.8971L9.61766 10.8206L9.06325 10.3924L8.46926 9.93906L7.86252 9.50291L7.27953 9.03598L6.66927 8.60467L6.06342 8.16853L5.52439 7.76711L4.99239 7.35647L4.61516 7.06849L4.46172 6.97923L4.43226 6.95857L4.44061 6.93879L4.38697 6.89702L3.83036 6.43801L3.30056 5.94822L2.82661 5.40392L2.34957 4.86181L1.94508 4.26343L1.59467 3.63295L1.26272 2.99236L0.99936 2.29857L1.06399 2.18381L1.17654 2.03872L1.21611 1.97102L1.22886 1.93364L1.2359 1.91826L1.45705 1.66633L1.83516 2.0506L2.32143 2.53511L2.80594 3.02137L2.80858 3.02357L2.81386 3.02973L3.30056 3.51688L3.57184 3.77012L3.78024 3.98996L4.26871 4.47271L4.58482 4.77168L4.78004 4.9603L5.25399 5.46107L5.63914 5.82292L5.73499 5.92052L6.2107 6.41602L6.61915 6.80996L6.72071 6.91768L7.20478 7.40307L7.54904 7.73282L7.67918 7.8612L7.87263 8.06433L8.16545 8.38001L8.6526 8.86276L8.94805 9.1459L9.12348 9.33056L9.61678 9.80848L10.0925 10.3044L10.1672 10.3756L10.5906 10.8017L11.0787 11.2822L11.5597 11.7711L11.8406 12.0481L12.0358 12.246L12.322 12.5093L12.5656 12.7375L12.6338 12.807L13.0457 13.2449L13.4731 13.667L13.5557 13.7527L14.0543 14.2566L14.5613 14.7521L15.062 15.2533L15.2542 15.0611L15.2634 15.051L15.2594 15.0475L15.2704 15.0361L15.2594 15.0466L14.8734 14.6685L14.7727 14.5643L14.6017 14.3907L14.2961 14.0701L14.1726 13.9506L13.8182 13.5764L13.3214 13.1016L13.1948 12.9815L12.8246 12.6184L12.3533 12.1154L11.8687 11.6252L11.3781 11.142L10.8786 10.6671L10.3998 10.1712L10.1914 9.97555L9.92367 9.69944L9.5671 9.3565L9.42157 9.20438L8.94498 8.71151L8.45431 8.2336L8.41518 8.19711L7.98563 7.75173L7.60136 7.39252L7.48265 7.26721L6.98759 6.79238L6.52594 6.28456L6.03572 5.80533L5.55736 5.31466L5.45492 5.21926L5.07461 4.83455L4.56328 4.37422L4.53602 4.34564L4.07393 3.85586L3.84751 3.64218L3.56788 3.36036L3.07018 2.85342L3.04424 2.82748L2.95323 2.73339C2.94136 2.74131 2.92729 2.74658 2.91542 2.74658C2.89256 2.74658 2.88464 2.72768 2.89915 2.70438C2.90223 2.6991 2.90706 2.6947 2.91146 2.68987L2.57732 2.34429L2.39837 2.17854L2.07698 1.83648L1.68787 1.48079L1.66501 1.45705L1.74063 1.39769L1.9442 1.23194L1.95343 1.22754L1.98157 1.2016L2.03741 1.13346L2.19305 1.03453L2.32231 0.966383L2.96334 1.24865L3.63911 1.58015L4.30476 1.93584L4.92073 2.37243L5.02757 2.46476C5.03504 2.45816 5.04515 2.45333 5.0557 2.45333C5.07857 2.45333 5.09791 2.47267 5.09791 2.49554C5.09791 2.50477 5.09483 2.51224 5.08912 2.51928L5.43733 2.8244L5.9513 3.2755L6.42042 3.77232L6.84734 4.30607L6.92208 4.36631L6.95286 4.41775L6.94274 4.43138L6.98715 4.45204L7.22765 4.76772L7.58949 5.26103L7.93815 5.764L8.37385 6.33732L8.79549 6.92076L9.20922 7.50991L9.65723 8.074L10.0969 8.64424L10.5207 9.20833L10.9494 9.76891L11.3688 10.3365L11.8032 10.8931L12.2288 11.4559L12.6725 12.0046L13.1214 12.5801L13.6129 13.1205L14.0864 13.6758L14.5665 14.2245L15.0541 14.767L15.3047 15.0198L15.4969 14.8277L15 14.3221L14.5252 13.7962L14.0693 13.2532L13.6076 12.716L13.1741 12.1558L12.7397 11.6067L12.2908 11.0694L11.8648 10.5146L11.4238 9.97115L11.0017 9.41278L10.5854 8.84957L10.1527 8.23975L9.6779 7.66027L9.24043 7.05354L8.78934 6.45647L8.36858 5.83743L7.94738 5.27553L7.53673 4.70617L7.1085 4.14955L6.69258 3.65273L6.23752 3.19152L5.77236 2.74131L5.29093 2.3078L4.76025 1.942C4.75409 1.95255 4.73915 1.96662 4.72156 1.97717C4.6987 1.99168 4.67935 1.98333 4.67935 1.95871C4.67935 1.93452 4.6987 1.9143 4.72156 1.9143L4.22914 1.56257L3.65493 1.26052L3.07502 0.970779L2.71053 0.828328C2.68547 0.855147 2.66789 0.884605 2.66789 0.90395C2.66789 0.955831 2.54434 0.971659 2.53907 0.919778C2.53731 0.902192 2.52763 0.838 2.51664 0.776448C2.49466 0.640591 2.55489 0.592228 2.64063 0.678842C2.67536 0.713576 2.72812 0.742593 2.7589 0.743473L3.30364 0.503856C3.3054 0.495502 3.30672 0.487588 3.30936 0.481872C3.32123 0.451096 3.32958 0.455932 3.33266 0.490666L3.34365 0.486269L3.40828 0.470441L3.97413 0.612892L4.57867 0.836682L5.1366 1.15896L5.6941 1.48079L6.21158 1.86506L6.22829 1.88001C6.22829 1.87781 6.22741 1.87561 6.22741 1.87253C6.22741 1.84219 6.2406 1.829 6.25555 1.84439C6.27094 1.85934 6.27094 1.88484 6.25555 1.89979C6.25511 1.90067 6.25335 1.90067 6.25247 1.90155L6.68686 2.29857L7.21929 2.80682L7.69457 3.36871L8.1338 3.95874L8.56423 4.55405L8.98938 5.15507L9.36662 5.78686L9.72054 6.32194L10.0551 6.8702L10.3734 7.42769L10.6856 7.98782L11.0373 8.52509L11.3526 9.09314L11.7144 9.63217L12.0464 10.1901L12.3849 10.7441L12.7534 11.2796L13.1556 11.7944L13.5307 12.33L13.9352 12.8422L14.29 13.288C14.2887 13.2735 14.297 13.2634 14.3155 13.2634C14.3397 13.2634 14.3594 13.2823 14.3594 13.3051C14.3594 13.3284 14.3511 13.3473 14.3414 13.3473C14.3397 13.3473 14.3383 13.3465 14.3366 13.346L14.3427 13.3535L14.738 13.8741L15.1803 14.355L15.5312 14.7802L15.7426 14.57L15.2854 14.0763L14.8611 13.5544L14.439 13.0303L14.0257 12.4992L13.6177 11.965L13.2313 11.4137L12.8457 10.8764L12.4724 10.3304L12.1145 9.77418L11.8679 9.37101C11.8199 9.36353 11.7878 9.35035 11.7878 9.33496C11.7878 9.31209 11.7487 9.29319 11.7017 9.29319C11.6542 9.29319 11.6269 9.27384 11.6414 9.25098C11.6559 9.22812 11.7131 9.20921 11.7694 9.20921L11.4383 8.63589L11.1108 8.08323L10.7841 7.52969L10.1105 6.43493L9.77726 5.88535L9.39256 5.27114L8.99026 4.66704L8.58401 4.06646L8.13424 3.49753L7.67391 2.93872L7.19907 2.39177L6.72995 1.92617L6.20763 1.5208L5.66552 1.14489L5.10627 0.795353L4.50393 0.528037L3.99611 0.331507L4.61912 0.292377L5.26806 0.355689L5.89986 0.51089L6.51671 0.728084L7.12521 1.08993L7.66555 1.54498L8.17249 2.03521L8.65744 2.54874L9.0483 3.08776L9.40926 3.6457L9.7755 4.20055L10.0916 4.78619L10.3519 5.30763L10.6381 5.81588L10.8923 6.3404L11.1719 6.92296L11.4612 7.50068L11.739 8.08455L12.0666 8.62886L12.3541 9.1947L12.6672 9.74648L12.9741 10.3013L13.306 10.8566L13.623 11.4207L13.9673 11.9681L14.3032 12.5208L14.6795 13.1174L15.0787 13.6999L15.536 14.2381L15.7914 14.5199L15.977 14.3344L15.5549 13.8556L15.175 13.3412ZM4.89171 10.3299C4.91457 10.3299 4.93348 10.3383 4.93348 10.3479C4.93348 10.3581 4.91457 10.3787 4.89171 10.3924C4.86885 10.406 4.8495 10.3985 4.8495 10.3739C4.8495 10.3497 4.86885 10.3299 4.89171 10.3299ZM0.313044 5.70465C0.354372 5.64881 0.394821 5.62155 0.403175 5.64353C0.420762 5.69102 0.33151 5.80621 0.276991 5.80621C0.255008 5.80533 0.271715 5.75961 0.313044 5.70465ZM12.1809 12.9688C12.2038 12.9688 12.2231 12.9864 12.2231 13.0084C12.2231 13.0303 12.2038 13.0594 12.1809 13.0739C12.158 13.0884 12.1391 13.0703 12.1391 13.0343C12.1391 12.9987 12.158 12.9688 12.1809 12.9688ZM1.55026 3.93808C1.56565 3.92269 1.59071 3.92269 1.6061 3.93808C1.62149 3.95346 1.60917 3.96621 1.57796 3.96621C1.54718 3.96621 1.53531 3.95346 1.55026 3.93808ZM1.58851 4.01897C1.6483 4.03876 1.64127 4.10603 1.57796 4.12757C1.5551 4.13505 1.53575 4.10998 1.53575 4.07173C1.53575 4.03304 1.55949 4.0093 1.58851 4.01897ZM3.48083 3.34717C3.49621 3.33222 3.52128 3.33222 3.53666 3.34717C3.55205 3.36255 3.53974 3.37574 3.50853 3.37574C3.47731 3.37574 3.46544 3.36255 3.48083 3.34717ZM2.16491 0.991444C2.14205 0.991444 2.1227 0.972538 2.1227 0.949675C2.1227 0.926813 2.14205 0.907468 2.16491 0.907468C2.18777 0.907468 2.20668 0.926813 2.20668 0.949675C2.20668 0.973417 2.18777 0.991444 2.16491 0.991444ZM14.206 13.5694C14.2214 13.5544 14.2465 13.5544 14.2618 13.5694C14.2772 13.5848 14.2649 13.5975 14.2337 13.5975C14.2029 13.5971 14.1911 13.5848 14.206 13.5694ZM6.28852 3.50545C6.29864 3.50545 6.31842 3.52435 6.33293 3.54721C6.34744 3.57008 6.33909 3.58942 6.31446 3.58942C6.29028 3.58942 6.27006 3.57008 6.27006 3.54721C6.27006 3.52435 6.27841 3.50545 6.28852 3.50545ZM13.4656 12.1449C13.481 12.1602 13.481 12.1853 13.4656 12.2007C13.4502 12.2161 13.4375 12.2038 13.4375 12.1726C13.4383 12.1418 13.4502 12.1299 13.4656 12.1449ZM6.16278 1.62984C6.17773 1.61445 6.20323 1.61445 6.21818 1.62984C6.23357 1.64522 6.22126 1.65797 6.19004 1.65797C6.1597 1.65797 6.14739 1.64522 6.16278 1.62984ZM5.45096 1.03365C5.46108 1.03365 5.48086 1.05256 5.49537 1.07542C5.50988 1.09828 5.50152 1.11763 5.4769 1.11763C5.45272 1.11763 5.43294 1.09828 5.43294 1.07542C5.43206 1.05256 5.44041 1.03365 5.45096 1.03365ZM8.7036 2.45333C8.67326 2.45333 8.66051 2.44102 8.67546 2.42519C8.69085 2.4098 8.71591 2.4098 8.7313 2.42519C8.74713 2.44102 8.73438 2.45333 8.7036 2.45333ZM25.8685 24.1464C25.8219 24.0246 25.7718 23.9002 25.6962 23.7854C25.6245 23.6764 25.5353 23.5761 25.4381 23.4794C25.3414 23.3822 25.2372 23.2983 25.1281 23.2266C25.0138 23.1519 24.8947 23.0907 24.7725 23.0441C24.645 22.9953 24.5166 22.9518 24.3869 22.9351C24.2519 22.9175 24.1169 22.9311 23.9872 22.9496C23.8536 22.9681 23.7265 23.0085 23.6078 23.0657C23.4886 23.1228 23.3765 23.1932 23.2802 23.2899C23.184 23.3862 23.1061 23.4952 23.049 23.6144C22.9918 23.7344 22.9558 23.8632 22.9373 23.9969C22.9193 24.1266 22.9193 24.2602 22.9364 24.3952C22.9536 24.5245 22.9879 24.6542 23.0367 24.7817C23.0833 24.9039 23.1365 25.0266 23.2117 25.1413C23.2833 25.2504 23.3734 25.3497 23.4702 25.4465C23.5673 25.5436 23.6693 25.6298 23.7779 25.7015C23.8923 25.7762 24.0105 25.8404 24.1327 25.887C24.2603 25.9358 24.3921 25.9635 24.5214 25.9802C24.6564 25.9978 24.7909 25.9991 24.9206 25.9815C25.0543 25.9635 25.1818 25.9222 25.3014 25.8641C25.4205 25.807 25.5353 25.7375 25.632 25.6404C25.7283 25.5441 25.8022 25.4311 25.8597 25.3124C25.9169 25.1923 25.9512 25.0635 25.9701 24.9299C25.9886 24.8002 25.9947 24.6656 25.9771 24.5306C25.9587 24.4023 25.9173 24.2748 25.8685 24.1464ZM25.3603 25.3708C25.2732 25.4579 25.1695 25.5221 25.0565 25.5625C24.9457 25.603 24.8252 25.6228 24.7017 25.6215C24.5856 25.6193 24.4673 25.5907 24.3482 25.5529C24.2374 25.5177 24.1244 25.4733 24.0189 25.4078C23.9199 25.3458 23.8267 25.268 23.7388 25.18C23.6513 25.0925 23.5788 24.9962 23.5168 24.8969C23.4513 24.7918 23.3946 24.6841 23.3594 24.5733C23.3216 24.4541 23.3031 24.3346 23.3009 24.2176C23.3 24.1723 23.3022 24.1283 23.3071 24.0839C23.2925 24.0963 23.2754 24.1028 23.2596 24.1024L23.2059 24.0993L23.2578 24.0778C23.2908 24.065 23.3009 24.0184 23.2838 23.952L23.2578 23.8474L23.3541 23.8619C23.3954 23.7489 23.4658 23.6504 23.5528 23.5634C23.6399 23.4763 23.741 23.4143 23.854 23.3734C23.9648 23.333 24.0831 23.3075 24.2071 23.3101C24.3227 23.3123 24.4436 23.333 24.5619 23.3704C24.6727 23.4055 24.783 23.4565 24.8885 23.5221C24.9879 23.584 25.0749 23.6671 25.1624 23.7551C25.2504 23.8426 25.3357 23.9292 25.3977 24.0277C25.4632 24.1327 25.5181 24.2435 25.5533 24.3543C25.5916 24.4735 25.6052 24.5953 25.6078 24.7113C25.61 24.8358 25.5894 24.9558 25.5498 25.0657C25.5093 25.1796 25.4465 25.2838 25.3603 25.3708ZM25.7129 25.3788C25.6434 25.3884 25.5872 25.3818 25.5872 25.3625C25.5872 25.3436 25.6434 25.3282 25.7129 25.3282C25.7824 25.3282 25.8391 25.3357 25.8391 25.3445C25.8382 25.3528 25.7815 25.3678 25.7129 25.3788Z" fill="#314EA4"/>
</g>
<path d="M23.9314 21.9634C23.7902 21.8223 23.8017 21.8113 23.6601 21.6693C23.519 21.5282 23.5177 21.5304 23.3756 21.3892C23.2336 21.2481 23.2275 21.2551 23.0863 21.1136C22.9452 20.9724 22.9373 20.9804 22.7962 20.8388C22.655 20.6976 22.6709 20.6818 22.5297 20.5398C22.3886 20.3987 22.378 20.4101 22.2365 20.2681C22.0953 20.1265 22.1059 20.116 21.9648 19.9748C21.8236 19.8337 21.8109 19.8465 21.6693 19.7044C21.5282 19.5633 21.5273 19.5651 21.3862 19.4235C21.245 19.2824 21.2573 19.2696 21.1162 19.128C20.9746 18.9869 20.9601 19.0023 20.8181 18.8612C20.8067 18.8497 20.7983 18.8405 20.7887 18.8304C20.7834 18.8322 20.7763 18.833 20.7689 18.833C20.7381 18.833 20.7253 18.8198 20.7403 18.8045C20.7451 18.8001 20.7504 18.7979 20.7557 18.7952C20.6787 18.7099 20.6673 18.6769 20.5521 18.5609C20.4105 18.4197 20.407 18.4228 20.2655 18.2817C20.1243 18.1406 20.1265 18.1375 19.9854 17.9963C19.8443 17.8548 19.8368 17.8636 19.6952 17.722C19.5541 17.5809 19.5602 17.5747 19.4191 17.4336C19.3395 17.354 19.303 17.3206 19.2613 17.2819H19.2604C19.2296 17.2819 19.2177 17.2696 19.2322 17.2542C19.2063 17.2296 19.1755 17.2001 19.1307 17.1557C18.9891 17.0146 18.9856 17.019 18.8445 16.8778C18.7029 16.7367 18.7077 16.7314 18.567 16.5907C18.4259 16.4496 18.4277 16.4483 18.2861 16.3063C18.145 16.1643 18.145 16.1647 18.0029 16.0227C17.9168 15.9365 17.8794 15.9071 17.8306 15.8649C17.7998 15.8376 17.7655 15.8055 17.7106 15.7505C17.5694 15.609 17.5725 15.6055 17.4314 15.4643C17.2902 15.3227 17.2885 15.3245 17.1465 15.1834C17.0788 15.1838 17.0031 15.1513 16.9776 15.1113C16.9451 15.059 16.964 15.0374 17.0115 15.0449C16.9754 15.0071 16.9412 14.9701 16.8673 14.8963C16.7262 14.7551 16.7266 14.7534 16.5855 14.6123C16.4443 14.4711 16.4518 14.4632 16.3098 14.3221C16.235 14.2473 16.13 14.2152 16.0319 14.2144C15.9334 14.2144 15.8306 14.2486 15.7558 14.3238C15.6367 14.4425 15.6389 14.4443 15.5206 14.5634C15.4014 14.6826 15.3984 14.6786 15.2801 14.7969C15.1609 14.9161 15.1631 14.9174 15.0449 15.0365C15.0361 15.0458 15.0436 15.0532 15.0343 15.0625C14.9152 15.1816 14.9183 15.1838 14.7991 15.303C14.68 15.4221 14.6826 15.4239 14.5643 15.5426C14.4452 15.6617 14.432 15.649 14.3146 15.7664C14.2399 15.8411 14.2161 15.9444 14.2161 16.042C14.2161 16.1405 14.2372 16.2452 14.3128 16.3199C14.4544 16.461 14.4544 16.461 14.5955 16.6022C14.7367 16.7433 14.7441 16.7358 14.8853 16.877C15.0269 17.0185 15.029 17.0159 15.1702 17.157C15.3113 17.2986 15.3038 17.307 15.445 17.4481C15.5861 17.5892 15.5887 17.5861 15.7299 17.7273C15.7686 17.7664 15.7963 17.7945 15.8191 17.8192C15.8802 17.8825 15.9053 17.9128 16.0077 18.0153C16.1489 18.1564 16.1581 18.1472 16.3001 18.2892C16.4413 18.4307 16.4443 18.4268 16.5855 18.5688C16.7266 18.7099 16.7152 18.7214 16.8563 18.8625C16.9979 19.0036 17.0067 18.9948 17.1487 19.1368C17.2902 19.278 17.2955 19.2718 17.4367 19.4138C17.5778 19.555 17.5611 19.5717 17.7022 19.7128C17.8433 19.8544 17.8557 19.8429 17.9968 19.9841C18.1384 20.1252 18.1326 20.1305 18.2742 20.2725C18.4153 20.4136 18.4219 20.4062 18.5635 20.5482C18.7046 20.6893 18.6976 20.6963 18.8387 20.8375C18.9803 20.9786 18.9838 20.9755 19.1254 21.1166C19.2665 21.2582 19.2586 21.2648 19.4006 21.4059C19.5418 21.5475 19.5396 21.5506 19.6803 21.6909C19.8214 21.832 19.8341 21.8197 19.9757 21.9612C20.1168 22.1024 20.116 22.1037 20.2571 22.2448C20.3987 22.3864 20.3872 22.397 20.5284 22.539C20.6695 22.6801 20.6765 22.6735 20.8181 22.8146C20.9597 22.9558 20.965 22.9509 21.1061 23.0925C21.2472 23.2336 21.2472 23.2345 21.3884 23.3756C21.5299 23.5168 21.5312 23.5155 21.6733 23.6566C21.8144 23.7977 21.8082 23.8039 21.9502 23.945C22.0452 24.0395 22.1556 24.1152 22.2747 24.1618C22.3961 24.2092 22.5297 24.2273 22.6603 24.2216C22.7878 24.2154 22.9144 24.1763 23.0336 24.1169C23.045 24.1108 23.045 24.1108 23.0556 24.1055C23.1343 24.065 23.2143 24.0246 23.2899 23.9793C23.2886 23.9701 23.2877 23.9617 23.2855 23.952L23.2596 23.8474L23.3559 23.8619C23.3822 23.8654 23.406 23.8747 23.4253 23.887C23.5137 23.8197 23.5986 23.7467 23.6764 23.668C23.7656 23.5779 23.832 23.4671 23.9063 23.3642C23.9802 23.2609 24.0598 23.1611 24.1169 23.0472C24.1763 22.9281 24.2013 22.7979 24.2075 22.6695C24.2136 22.539 24.2062 22.4044 24.1587 22.2826C24.1099 22.1617 24.0268 22.058 23.9314 21.9634ZM15.1979 16.7389C15.1671 16.7389 15.1544 16.7262 15.1693 16.7108C15.1847 16.6954 15.2098 16.6954 15.2251 16.7108C15.2405 16.7266 15.2282 16.7389 15.1979 16.7389ZM16.607 17.1368C16.5666 17.1368 16.5336 17.0854 16.5336 17.0229C16.5336 16.9605 16.5666 16.9297 16.607 16.9543C16.6475 16.9785 16.68 17.03 16.68 17.0678C16.6796 17.1051 16.6466 17.1368 16.607 17.1368ZM18.1718 19.3246C18.1313 19.3246 18.0983 19.2749 18.0983 19.2151C18.0983 19.1549 18.1313 19.1061 18.1718 19.1061C18.2122 19.1061 18.2452 19.1549 18.2452 19.2151C18.2443 19.2749 18.2113 19.3246 18.1718 19.3246ZM18.717 20.0909C18.6862 20.0909 18.6734 20.0777 18.6884 20.0628C18.7038 20.0474 18.7288 20.0474 18.7442 20.0628C18.7596 20.0777 18.7473 20.0909 18.717 20.0909ZM19.0894 19.8289C19.0124 19.8319 18.9693 19.8152 18.9939 19.7911C19.0181 19.7664 19.081 19.7642 19.1338 19.7849C19.1918 19.8082 19.1742 19.8258 19.0894 19.8289ZM19.2969 19.1052C19.2846 19.1175 19.2626 19.1144 19.2472 19.099C19.2322 19.0841 19.2191 19.052 19.2191 19.0282C19.2191 19.0023 19.2388 19.0045 19.2687 19.0344C19.296 19.0617 19.3083 19.0938 19.2969 19.1052ZM19.5123 20.9702C19.4894 20.9702 19.4701 20.9513 19.4701 20.928C19.4701 20.9052 19.4894 20.8863 19.5123 20.8863C19.5352 20.8863 19.5541 20.9052 19.5541 20.928C19.5541 20.9518 19.5361 20.9702 19.5123 20.9702ZM21.5022 22.1015L21.4183 22.0654L21.4895 22.0628C21.5282 22.061 21.5717 22.0786 21.5862 22.1015C21.6161 22.1494 21.6143 22.1494 21.5022 22.1015ZM22.3345 20.4466C22.3213 20.4809 22.2941 20.509 22.2738 20.509C22.2541 20.509 22.2488 20.4809 22.262 20.4466C22.2747 20.4123 22.3024 20.3842 22.3222 20.3842C22.342 20.3842 22.3481 20.4123 22.3345 20.4466Z" fill="#F4701C"/>
<path d="M22.0724 20.0962C22.0694 20.09 22.0663 20.0847 22.0632 20.0786C22.0681 20.0839 22.0724 20.0887 22.0773 20.094C22.0755 20.0949 22.0742 20.0953 22.0724 20.0962ZM19.8763 18.5116C19.8939 18.4641 19.9168 18.3639 19.8548 18.4008C19.8627 18.4105 19.8341 18.4452 19.8174 18.4716C19.8192 18.516 19.8513 18.483 19.8763 18.5116ZM19.5901 18.7319C19.5853 18.7306 19.5809 18.7297 19.5725 18.7451C19.6024 18.7504 19.6174 18.8198 19.6679 18.7367C19.6376 18.7319 19.5901 18.7649 19.6112 18.6994C19.6046 18.709 19.5976 18.7205 19.5901 18.7319ZM22.1815 20.2114C22.1679 20.1969 22.1564 20.1845 22.1459 20.1731C22.138 20.1762 22.1305 20.181 22.1213 20.1863C22.1199 20.2184 22.1481 20.2175 22.1815 20.2114ZM19.704 18.1863C19.762 18.0517 19.7756 18.1854 19.8192 18.1397C19.8192 18.0992 19.7822 18.1441 19.7945 18.1005C19.8649 18.0214 19.8557 18.0183 19.9067 17.9207C19.9023 17.9168 19.8983 17.9128 19.8948 17.9093C19.8948 17.9146 19.8948 17.919 19.893 17.9251C19.8451 17.9985 19.8253 17.8838 19.7818 17.9282C19.7871 17.9563 19.7901 17.9862 19.7831 18.0227C19.7299 18.0733 19.7022 18.0487 19.7013 17.9968C19.6327 18.1124 19.6389 17.9739 19.5694 18.0596C19.6015 18.1322 19.6939 18.1032 19.704 18.1863ZM19.788 17.8855C19.7717 17.8688 19.7497 17.8952 19.7251 17.9414C19.7413 17.9581 19.7633 17.9313 19.788 17.8855ZM19.8266 18.097C19.8306 18.1375 19.8609 18.1014 19.8719 18.1498C19.9159 18.0953 19.8442 18.0755 19.8266 18.097ZM19.9458 18.1726C19.9251 18.1726 19.9128 18.1221 19.8864 18.1581C19.8922 18.1665 19.8763 18.1893 19.8601 18.2131C19.8825 18.2359 19.9097 18.2258 19.9458 18.1726ZM19.3725 18.3406C19.3923 18.3687 19.3923 18.3687 19.4265 18.3709C19.4718 18.2909 19.4068 18.2975 19.3725 18.3406ZM19.4059 18.6158C19.4015 18.6528 19.4542 18.6435 19.3923 18.7244C19.4235 18.7086 19.4542 18.7512 19.3975 18.7992C19.4463 18.7847 19.4059 18.884 19.4428 18.851C19.4367 18.8374 19.4582 18.8299 19.4753 18.8C19.4389 18.7978 19.4481 18.7543 19.4894 18.7372C19.4991 18.6879 19.4002 18.7086 19.4916 18.6207C19.4595 18.6299 19.4564 18.571 19.4059 18.6158ZM21.0788 19.2665C21.099 19.2916 21.1856 19.2634 21.2292 19.2503C21.212 19.2305 21.1931 19.2085 21.1672 19.1817C21.1663 19.1825 21.1663 19.1825 21.1654 19.183C21.1443 19.2107 21.194 19.2107 21.165 19.241C21.1474 19.2243 21.1105 19.2503 21.0788 19.2665ZM22.0733 20.4105C22.1085 20.3969 22.1098 20.3855 22.1437 20.3718C22.1617 20.3833 22.1802 20.4013 22.2567 20.3815C22.2474 20.3604 22.2391 20.338 22.229 20.3169C22.2505 20.3098 22.2593 20.3033 22.2655 20.2962C22.2567 20.2879 22.2474 20.2786 22.2373 20.2681C22.2197 20.2505 22.2043 20.2342 22.1907 20.2206C22.1503 20.2716 22.1397 20.3191 22.1406 20.3639C22.0826 20.3811 22.0962 20.3292 22.0276 20.3586C22.0153 20.4022 22.0557 20.3784 22.0733 20.4105ZM20.9403 19.8297C20.8876 19.8319 20.9047 19.7787 20.8352 19.8319C20.8528 19.864 20.8792 19.8777 20.9403 19.8297ZM22.2061 20.6594C22.1784 20.7266 22.2984 20.7319 22.2061 20.6594V20.6594ZM20.9328 19.1474C20.9746 19.0907 20.9627 19.0572 20.9495 19.0238C20.9619 19.0124 20.9711 19.0084 20.9803 19.0062C21.0151 19.0344 21.0524 19.0665 21.1144 19.128C21.0938 19.1505 21.0999 19.1628 21.0612 19.1922C21.1496 19.1214 21.0902 19.2274 21.1421 19.2177C21.1113 19.2313 21.0564 19.2595 21.0788 19.2098C21.0696 19.2261 21.0595 19.2419 21.0498 19.2379C21.0727 19.3162 21.1786 19.4024 21.2182 19.449C21.2336 19.4314 21.2463 19.4037 21.2221 19.423C21.274 19.3602 21.2437 19.4463 21.2191 19.4802C21.3703 19.6534 21.5413 19.7704 21.635 19.9687C21.5664 19.9603 21.4978 19.8992 21.467 19.8741C21.4411 19.8803 21.3993 19.9115 21.3734 19.9168C21.3809 19.9001 21.3826 19.8847 21.3663 19.8746C21.3373 19.8961 21.3391 19.9084 21.3074 19.9295C21.3466 19.8495 21.1694 19.9388 21.1861 19.8429C21.1197 19.8992 21.2283 19.8557 21.1588 19.9045C21.0159 19.7299 20.8862 19.678 20.7649 19.4938C20.8031 19.4679 20.8045 19.5228 20.8273 19.5299C20.8097 19.4666 20.7649 19.4151 20.7196 19.3632C20.7908 19.3131 20.7442 19.4182 20.8124 19.3703C20.7891 19.2955 20.7548 19.2749 20.7306 19.2054C20.7429 19.1526 20.7605 19.2472 20.7921 19.2098C20.8067 19.081 20.6106 19.077 20.6176 18.9381C20.7306 19.0282 20.8023 19.0458 20.9328 19.1474ZM21.2024 19.8289C21.2564 19.7572 21.1747 19.7436 21.1632 19.7198C21.0986 19.8077 21.238 19.7726 21.2024 19.8289ZM20.9425 19.591C20.8937 19.6547 20.986 19.6785 21.0098 19.6662L20.9425 19.591ZM21.6389 19.7334C21.6486 19.7251 21.6618 19.7159 21.671 19.7075C21.6702 19.7071 21.6702 19.7071 21.6693 19.7062C21.664 19.7009 21.6587 19.6952 21.6543 19.6908C21.6275 19.6877 21.6046 19.6785 21.5739 19.6824C21.5849 19.7185 21.6284 19.697 21.6389 19.7334ZM20.7587 19.4556C20.6704 19.3712 20.7381 19.5092 20.7587 19.4556V19.4556ZM20.5648 18.8884C20.5657 18.8625 20.5666 18.8374 20.567 18.8115C20.5481 18.833 20.538 18.8418 20.5288 18.8313C20.4998 18.797 20.4189 18.7635 20.3855 18.7389C20.3855 18.7389 20.4167 18.7112 20.4167 18.713C20.3947 18.6053 20.2039 18.651 20.1502 18.6083C20.1581 18.636 20.1749 18.6571 20.1656 18.6945C20.1366 18.6725 20.1093 18.6391 20.0658 18.6703C20.0693 18.706 20.1252 18.7077 20.0931 18.7657C20.0579 18.7389 19.9313 18.6593 19.9687 18.7235C19.9985 18.8357 20.0663 18.8273 20.0878 18.9381C20.0496 18.9588 20.0715 18.877 20.0205 18.9122C20.0175 19.0181 20.1419 18.9025 20.1718 18.9803C20.2259 18.9319 20.1586 18.9544 20.1916 18.9183C20.2237 18.9258 20.2021 19.052 20.2395 18.9574C20.3969 19.0093 20.2395 18.9574 20.2536 18.8906C20.3617 18.8238 20.3657 19.0533 20.3815 18.9702C20.4136 18.9579 20.4373 18.9724 20.462 18.9856C20.5305 18.906 20.4413 18.9482 20.465 18.8831C20.5037 18.8647 20.5121 18.9399 20.5648 18.8884ZM19.7009 18.6602C19.7075 18.7099 19.7642 18.7191 19.8069 18.7086C19.806 18.6853 19.806 18.662 19.8451 18.6123C19.7787 18.571 19.7405 18.5121 19.6824 18.5046C19.6864 18.5099 19.6662 18.5723 19.6565 18.5595C19.6864 18.429 19.6015 18.2984 19.4833 18.3824C19.5198 18.3824 19.5299 18.4276 19.4753 18.4712C19.5457 18.5068 19.6059 18.5525 19.62 18.6312C19.664 18.5679 19.6846 18.6158 19.7071 18.5688C19.7022 18.6321 19.8258 18.549 19.7686 18.6571C19.7642 18.6229 19.7396 18.6189 19.7009 18.6602ZM20.3512 18.5846C20.4558 18.6457 20.487 18.7235 20.5991 18.7605C20.5969 18.7526 20.5868 18.7495 20.6 18.7345C20.6343 18.7336 20.6128 18.7526 20.6444 18.746C20.6646 18.7816 20.6963 18.7451 20.6572 18.7306C20.6594 18.6994 20.6334 18.6831 20.6361 18.651C20.6321 18.6475 20.629 18.6426 20.6251 18.6391C20.6136 18.6391 20.6009 18.6343 20.6053 18.6167C20.5983 18.6101 20.5917 18.6022 20.5837 18.5938C20.4998 18.5472 20.4259 18.5811 20.3512 18.5846ZM19.2212 19.0449C19.2199 19.0388 19.219 19.0335 19.219 19.0282C19.219 19.0032 19.2375 19.0045 19.2656 19.0322C19.2669 19.0304 19.2687 19.0295 19.2709 19.0282C19.2647 18.9785 19.2335 18.9205 19.161 19.0076C19.194 19.0067 19.2032 19.0357 19.2212 19.0449ZM20.3877 19.9098C20.4 19.9106 20.4167 19.9023 20.4413 19.8785C20.4382 19.8631 20.4474 19.839 20.4158 19.8535C20.3991 19.8755 20.4329 19.8746 20.407 19.9014C20.403 19.8948 20.3877 19.8948 20.3877 19.9098ZM20.4602 19.9863C20.4984 19.9098 20.5024 19.9687 20.5235 19.9366C20.4738 19.9357 20.5028 19.8601 20.4312 19.897C20.4839 19.8961 20.4237 19.9304 20.436 19.9612C20.4633 19.9396 20.4664 19.9181 20.4795 19.9199L20.4892 19.9304C20.4694 19.9498 20.4549 19.9581 20.4404 19.9665L20.4602 19.9863ZM20.9311 20.8585C20.9135 20.8533 20.9381 20.8159 20.8946 20.8322C20.9122 20.8366 20.8876 20.8731 20.9311 20.8585ZM20.3665 19.8025C20.3564 19.7383 20.2799 19.7198 20.2597 19.6978C20.2549 19.7159 20.3173 19.8328 20.3665 19.8025ZM24.2039 22.6818C24.1969 22.8054 24.1718 22.9311 24.1147 23.0459C24.0567 23.1593 23.9771 23.2596 23.9037 23.3624C23.8298 23.4658 23.7634 23.5761 23.6741 23.6662C23.5963 23.7449 23.5115 23.8184 23.4227 23.8856C23.4038 23.8742 23.38 23.8641 23.3532 23.8601L23.2573 23.8456L23.2833 23.9503C23.2855 23.9604 23.2864 23.9696 23.2877 23.978C23.2121 24.0237 23.132 24.0633 23.0533 24.1037C23.0428 24.109 23.0428 24.109 23.0314 24.1151C22.9122 24.1749 22.7856 24.2136 22.6581 24.2198C22.5275 24.2259 22.3938 24.2075 22.2725 24.1604C22.1533 24.1143 22.0426 24.0391 21.948 23.9437C21.8069 23.8021 21.813 23.7959 21.671 23.6548C21.5299 23.5137 21.5281 23.5154 21.3861 23.3739C21.2441 23.2327 21.245 23.2319 21.1039 23.0907C20.9627 22.9496 20.957 22.954 20.8159 22.8129C20.6748 22.6717 20.6677 22.6788 20.5257 22.5372C20.3846 22.3961 20.396 22.3846 20.2549 22.2435C20.2105 22.1991 20.1801 22.1687 20.1551 22.1428C20.2452 22.1116 20.3305 22.0755 20.4083 22.0351C20.4883 21.9924 20.5635 21.9441 20.629 21.8948C20.7464 21.8051 20.8581 21.6785 20.9254 21.5449C20.9983 21.4116 21.026 21.2771 21.0252 21.1769C21.0243 21.125 21.0129 21.0894 21.0005 21.0467C20.986 21.0023 20.9588 20.9465 20.9183 20.8792C20.9627 20.8695 20.9702 20.8902 20.9742 20.906C21.041 20.8036 20.881 20.7574 20.8757 20.6361C20.9425 20.6075 20.9289 20.6686 20.9517 20.6849C21.0366 20.5939 20.9359 20.5816 20.9038 20.5328C20.8137 20.4 20.7855 20.21 20.5969 20.1076C20.6299 20.057 20.6449 20.0518 20.6444 20.0091C20.6334 20.0047 20.5741 20.0803 20.6031 20.083C20.549 20.0931 20.5398 20.0236 20.5028 20.0021C20.571 19.9739 20.5297 20.0359 20.6097 20.0016C20.5389 19.8486 20.4145 19.8161 20.3213 19.6732C20.3147 19.664 20.2953 19.6609 20.3147 19.6389L20.3406 19.664C20.5174 19.8214 20.626 19.9498 20.8023 20.1014C20.8229 20.0557 20.7763 20.0456 20.7855 20.0205C20.819 19.9885 20.8159 20.0223 20.8458 19.9986C20.8792 19.9709 20.8357 19.9726 20.8366 19.9572C20.8862 19.9115 20.8832 19.9594 20.9113 19.952C20.983 19.8878 20.9109 19.919 20.9434 19.8658C21.0441 19.9124 21.0938 19.977 21.1237 20.0526C21.0731 20.0658 21.0291 20.0658 21.0625 20.0082C21.0032 20.0298 21.0181 20.0658 20.9421 20.1146C20.9443 20.1076 20.9632 20.0619 20.9245 20.0922C20.9258 20.1208 20.8519 20.1977 20.8902 20.2426C20.8616 20.2549 20.8449 20.2681 20.8269 20.2923C20.8818 20.3648 20.986 20.3648 21.0326 20.4391C21.2283 20.3679 21.1509 20.5402 21.1465 20.5838C21.1839 20.571 21.2089 20.5719 21.2327 20.5732C21.3259 20.6924 21.4046 20.8207 21.4494 20.9504C21.5321 20.8906 21.4345 20.8335 21.4358 20.768C21.4785 20.7543 21.445 20.7917 21.4833 20.7807C21.5444 20.7451 21.4837 20.7434 21.5879 20.7152C21.5901 20.7412 21.5664 20.8229 21.719 20.7891C21.7335 20.8075 21.6702 20.8001 21.6451 20.8221C21.6403 20.8357 21.6833 20.8229 21.671 20.8405C21.7299 20.8199 21.7238 20.8075 21.7321 20.8352C21.7642 20.8282 21.7642 20.8212 21.7893 20.8146C21.8192 20.7733 21.7563 20.7724 21.7625 20.7245C21.6825 20.746 21.7634 20.7605 21.7168 20.7794C21.6754 20.746 21.6341 20.6932 21.6253 20.6427C21.664 20.6304 21.6411 20.6673 21.7084 20.6334C21.7585 20.5732 21.6785 20.5429 21.7541 20.487C21.8082 20.4716 21.8007 20.5169 21.8403 20.5328C21.8794 20.4672 21.8504 20.3947 21.7946 20.3863C21.7313 20.4105 21.7757 20.4189 21.773 20.4343C21.7198 20.4655 21.7304 20.4352 21.6776 20.4672C21.6671 20.4281 21.6464 20.4281 21.7198 20.3727C21.7999 20.3235 21.7044 20.4009 21.7647 20.3718C21.832 20.3204 21.7761 20.3244 21.7884 20.2887C21.8579 20.3336 21.9322 20.4101 21.9814 20.4985C22.0307 20.5864 22.054 20.6853 22.0267 20.7649C21.9709 20.7662 21.9977 20.6792 21.9291 20.7152C21.8544 20.7245 21.9823 20.6849 21.9581 20.6734C21.9098 20.6902 21.9168 20.7038 21.8764 20.6809C21.8495 20.7702 21.9212 20.8471 21.8794 20.9452C21.8328 20.9456 21.835 20.9197 21.8337 20.8906C21.8306 20.8616 21.8276 20.8313 21.7748 20.8304C21.7044 20.8542 21.7585 20.877 21.7497 20.9008C21.7115 20.9047 21.6917 20.8915 21.7229 20.8757C21.6921 20.8832 21.6482 20.8906 21.646 20.8986C21.5849 20.903 21.6306 20.8678 21.5747 20.8634C21.4991 20.881 21.4855 20.9412 21.5664 20.9131C21.5185 20.9601 21.5704 20.9817 21.6266 21.0129C21.6803 21.0428 21.7343 21.0823 21.6754 21.1219C21.6315 21.1193 21.6662 21.0933 21.6526 21.0815C21.6183 21.1144 21.6288 21.1465 21.6359 21.1786C21.6816 21.1769 21.6794 21.1558 21.7357 21.1694C21.7779 21.1681 21.7405 21.1474 21.7757 21.1435C21.8214 21.1496 21.784 21.1795 21.7968 21.1945C21.7528 21.161 21.6574 21.187 21.5954 21.1826L21.5945 21.1558C21.5383 21.223 21.6183 21.2991 21.6205 21.3738C21.7176 21.3466 21.555 21.2701 21.7124 21.2688C21.7031 21.3022 21.6979 21.3277 21.6961 21.3527C21.6948 21.3778 21.6899 21.4046 21.6693 21.4389C21.6257 21.4297 21.6649 21.416 21.6556 21.4046C21.5893 21.4314 21.5677 21.5238 21.6029 21.6192C21.7036 21.6038 21.5418 21.4925 21.6763 21.5044C21.6442 21.5435 21.6702 21.5756 21.7106 21.6108C21.7106 21.6038 21.7757 21.5739 21.7062 21.5457C21.7585 21.5115 21.7678 21.4648 21.7708 21.4182C21.7717 21.3716 21.7616 21.325 21.7717 21.2815L21.7748 21.2292C21.8196 21.2349 21.7809 21.2586 21.7924 21.2727C21.8192 21.3848 21.7906 21.5559 21.7656 21.7009C21.8016 21.668 21.8298 21.6319 21.8473 21.5945C21.868 21.5572 21.8825 21.5198 21.8939 21.4811C21.9001 21.4618 21.9067 21.442 21.9146 21.4231C21.9199 21.4029 21.926 21.3839 21.9335 21.3633C21.9502 21.3228 21.9669 21.2824 21.9946 21.238C22.0206 21.3022 22.0008 21.3716 22.0144 21.4451C22.0588 21.3562 22.0733 21.2314 22.0588 21.1144C22.0465 20.9953 22.0197 20.8884 22.0135 20.7992C22.0364 20.8137 22.0557 20.8295 22.0724 20.8471C22.0878 20.8647 22.0993 20.8832 22.1089 20.9021C22.1191 20.9214 22.1274 20.9412 22.1336 20.9619C22.138 20.9825 22.1419 21.0032 22.145 21.0243C22.1525 21.0656 22.1542 21.1083 22.1595 21.1496C22.167 21.1909 22.1749 21.2318 22.1938 21.274C22.174 21.2727 22.1784 21.2648 22.1749 21.2595C22.1274 21.3734 22.1388 21.4991 22.1608 21.6315C22.2206 21.6099 22.1573 21.5273 22.251 21.4899C22.229 21.4719 22.2444 21.4459 22.178 21.4367C22.1876 21.4275 22.203 21.4429 22.2373 21.4451L22.2466 21.3681C22.1441 21.358 22.2619 21.4099 22.2008 21.4112C22.1604 21.3303 22.2373 21.2947 22.2167 21.22C22.2984 21.2243 22.2145 21.2375 22.2549 21.2556C22.2945 21.2151 22.2976 21.187 22.2914 21.158C22.2852 21.1289 22.2738 21.099 22.2738 21.0533C22.3402 21.0718 22.2694 21.1311 22.4167 21.1351C22.4312 21.0595 22.4404 21.012 22.4044 20.9337C22.3494 20.9421 22.4009 20.9764 22.3275 20.9786C22.3288 20.9267 22.3151 20.9078 22.3327 20.8695C22.4114 20.8603 22.3191 20.906 22.3811 20.9135C22.4154 20.8427 22.4114 20.7557 22.3938 20.6664C22.4954 20.6321 22.5108 20.7403 22.5429 20.7864C22.6084 20.7596 22.5772 20.6519 22.5143 20.6519C22.5227 20.6128 22.5257 20.5732 22.5235 20.5336C22.5253 20.535 22.5266 20.5358 22.5275 20.5376C22.6686 20.6787 22.6528 20.6946 22.7939 20.8366C22.9351 20.9777 22.9421 20.9702 23.0841 21.1114C23.2252 21.2525 23.2318 21.245 23.3734 21.387C23.5145 21.529 23.5167 21.526 23.6579 21.6671C23.799 21.8082 23.7876 21.8197 23.9292 21.9612C24.0237 22.0558 24.1077 22.1604 24.1534 22.2795C24.1701 22.3222 24.1811 22.367 24.1886 22.4128C24.1855 22.4242 24.1837 22.4361 24.1793 22.4475C24.1116 22.4022 24.1288 22.4686 24.0901 22.462C24.0153 22.6955 23.9749 22.8159 23.9379 23.0024C24.1077 22.9944 24.0329 22.8001 24.1512 22.7632C24.1204 22.735 24.0848 22.7082 24.1252 22.6634C24.149 22.677 24.1283 22.7016 24.1235 22.7223C24.1868 22.7627 24.1701 22.6849 24.2039 22.6818ZM21.7321 20.6374C21.697 20.6528 21.6886 20.6475 21.6548 20.662C21.6609 20.7016 21.7357 20.6695 21.722 20.7266C21.8029 20.6924 21.7198 20.6673 21.7321 20.6374ZM20.8695 20.0557C20.8471 20.0755 20.8115 20.1006 20.8124 20.112C20.8528 20.0839 20.8625 20.1063 20.9183 20.0518C20.9016 20.0131 20.8924 19.9849 20.8053 20.0425C20.8128 20.0715 20.8414 20.0641 20.8695 20.0557ZM21.0617 20.7609C21.0573 20.7517 21.0533 20.7429 21.0471 20.7328C20.9715 20.7741 21.0005 20.79 21.0617 20.7609ZM21.0282 20.9342C20.997 20.961 21.0159 20.9808 21.0634 20.9755C21.0647 20.9663 21.0669 20.9342 21.0282 20.9342ZM21.1245 20.8498C21.1017 20.826 21.1237 20.7609 21.0296 20.7878C21.0511 20.797 21.0282 20.8673 21.1245 20.8498ZM21.1047 20.91C21.1206 20.9153 21.0902 20.9443 21.1342 20.9329C21.1509 20.9236 21.1764 20.8819 21.1047 20.91ZM22.6387 22.0021C22.6906 21.974 22.6418 21.9239 22.6937 21.8975C22.6211 21.8803 22.6211 21.9779 22.6387 22.0021ZM22.5886 21.5457C22.5961 21.5312 22.6207 21.5559 22.6299 21.5444C22.5952 21.5299 22.6748 21.4846 22.5785 21.4692C22.5429 21.475 22.5337 21.5374 22.5886 21.5457ZM22.4396 20.7689C22.4818 20.7878 22.4198 20.819 22.4892 20.8221C22.4703 20.8062 22.5169 20.7482 22.4396 20.7689ZM22.3398 21.4376C22.4022 21.4565 22.3956 21.3993 22.3657 21.3954C22.3411 21.4024 22.3398 21.4191 22.3398 21.4376ZM22.3143 21.4785C22.3666 21.4886 22.4 21.4895 22.396 21.4679C22.345 21.4701 22.3521 21.4266 22.3173 21.4495C22.3771 21.4626 22.2976 21.4626 22.3143 21.4785ZM22.1503 22.094C22.1657 22.1336 22.2061 22.1701 22.152 22.1877C22.1854 22.2061 22.1956 22.1991 22.2276 22.2162C22.2276 22.1833 22.2259 22.1512 22.2488 22.1204C22.1925 22.0887 22.1753 22.0953 22.1503 22.094ZM22.123 21.3954C22.1437 21.3809 22.1419 21.3593 22.0887 21.3448C22.0892 21.3642 22.0654 21.3879 22.123 21.3954ZM21.9555 22.4128C22.0105 22.4413 22.0131 22.4589 22.0535 22.4849C22.0654 22.4695 22.0755 22.4532 22.061 22.433C22.0061 22.4013 21.9718 22.3947 21.9555 22.4128ZM21.8618 22.9329C21.912 22.9848 21.9529 22.9083 21.9107 22.8757C21.8939 22.8946 21.8777 22.9135 21.8618 22.9329ZM21.6948 21.6596C21.6921 21.6398 21.7357 21.62 21.6724 21.5994C21.6662 21.6192 21.6482 21.6372 21.6948 21.6596ZM21.5457 21.0212C21.5717 21.0335 21.529 21.0419 21.5884 21.041C21.5769 21.0335 21.617 21.0076 21.5457 21.0212ZM21.5343 21.1426C21.5739 21.1404 21.5739 21.1474 21.5945 21.1505C21.5945 21.1311 21.6244 21.1219 21.5747 21.1114C21.5708 21.1237 21.5374 21.1307 21.5343 21.1426ZM21.5022 22.1015C21.6143 22.1494 21.6161 22.1494 21.5862 22.1015C21.5717 22.0786 21.5281 22.061 21.4895 22.0628L21.4182 22.0654L21.5022 22.1015ZM21.6381 22.8762C21.646 22.8586 21.635 22.8335 21.6609 22.8238C21.6869 22.8472 21.7053 22.8678 21.7137 22.8845C21.7594 22.8603 21.668 22.8212 21.6473 22.7803C21.6275 22.8045 21.5893 22.79 21.5756 22.826C21.6016 22.8529 21.613 22.8502 21.6381 22.8762ZM21.7405 22.9426C21.7678 22.9245 21.7809 22.8748 21.8223 22.8863C21.7445 22.8282 21.7625 22.9733 21.668 22.8731C21.6662 22.8916 21.6192 22.8894 21.6495 22.9215C21.6794 22.9329 21.6631 22.8617 21.7405 22.9426ZM21.9656 23.1734C21.9093 23.1567 21.9291 23.2314 21.8887 23.2231C21.8671 23.1716 21.7533 23.1571 21.7748 23.2191C21.7884 23.2024 21.8029 23.187 21.8341 23.2182C21.8627 23.2991 21.719 23.3281 21.7352 23.3884C21.7739 23.358 21.8482 23.3449 21.9054 23.3167C21.9634 23.2908 22.0021 23.2494 21.9656 23.1734ZM21.9968 23.1404C22.0861 23.1694 22.2083 23.1611 22.1147 23.0397C22.0641 23.074 22.028 23.0815 21.9968 23.1404ZM22.1468 23.216C22.2228 23.2908 22.236 23.1826 22.2092 23.1448C22.1771 23.1655 22.1468 23.1655 22.1468 23.216ZM22.1802 22.7953C22.2101 22.8032 22.2395 22.7724 22.1947 22.7412C22.1586 22.7328 22.1542 22.7671 22.1802 22.7953ZM22.225 23.249C22.2083 23.3361 22.0298 23.3092 22.0909 23.4451C22.1793 23.4077 22.2536 23.3717 22.225 23.249ZM22.2435 22.6686C22.229 22.6906 22.1551 22.6924 22.2162 22.7451C22.2382 22.7368 22.3006 22.7131 22.2435 22.6686ZM22.2672 22.4413C22.1929 22.4413 22.1564 22.4915 22.1261 22.5495C22.0922 22.6053 22.0694 22.6739 22.025 22.7016C22.112 22.7227 22.1573 22.6761 22.1907 22.6176C22.2237 22.5596 22.236 22.484 22.2672 22.4413ZM22.3138 21.9595C22.3182 21.9181 22.3574 21.8777 22.3173 21.8205C22.2976 21.8412 22.32 21.8975 22.2725 21.8953C22.2404 21.839 22.3367 21.8069 22.3173 21.7489C22.3666 21.7687 22.309 21.7977 22.3824 21.8161C22.3982 21.806 22.3349 21.7687 22.393 21.7779C22.4299 21.8161 22.3749 21.8566 22.4448 21.8175C22.429 21.89 22.3587 21.9322 22.4448 22.0083C22.4695 21.9678 22.48 21.9665 22.4312 21.9252C22.4466 21.9208 22.5297 21.9239 22.4818 21.8984C22.4739 21.9054 22.4444 21.9076 22.4413 21.894C22.509 21.9023 22.4123 21.835 22.4945 21.8588C22.5389 21.8825 22.4374 21.8773 22.5227 21.9023C22.546 21.8487 22.5649 21.8192 22.5825 21.7884C22.5992 21.7581 22.619 21.726 22.626 21.6662C22.5433 21.6306 22.5587 21.5937 22.6053 21.5589C22.491 21.5457 22.5908 21.6284 22.5046 21.6574C22.5038 21.617 22.4954 21.6649 22.4457 21.6442C22.4448 21.6319 22.4589 21.617 22.4321 21.6091C22.4167 21.6412 22.393 21.5862 22.3318 21.5967C22.3609 21.5831 22.28 21.555 22.3389 21.5603C22.3846 21.5664 22.3565 21.5862 22.3938 21.5937C22.396 21.5506 22.451 21.5304 22.3925 21.4925C22.3411 21.5158 22.3143 21.4956 22.2738 21.467C22.3068 21.5022 22.2334 21.5778 22.3107 21.6007C22.3059 21.6398 22.2976 21.6236 22.2703 21.5998C22.2672 21.6192 22.2619 21.6381 22.2571 21.6574C22.3464 21.6856 22.2505 21.6306 22.3015 21.6451C22.3595 21.6794 22.2734 21.6886 22.2474 21.693C22.2954 21.7647 22.2184 21.8082 22.2092 21.8918C22.3358 21.9076 22.2364 21.9252 22.3138 21.9595ZM22.5578 22.4075C22.6097 22.4479 22.6273 22.3802 22.6 22.3666C22.5473 22.3626 22.5983 22.4114 22.5578 22.4075ZM22.2795 22.4189C22.3345 22.3314 22.4778 22.2123 22.3886 22.1006C22.349 22.1389 22.3138 22.1938 22.2962 22.2527C22.2747 22.3108 22.2663 22.371 22.2795 22.4189ZM22.3732 22.7992C22.3143 22.7451 22.3116 22.7834 22.2976 22.8032C22.3459 22.841 22.349 22.8023 22.3732 22.7992ZM22.5504 22.9681C22.5139 22.9197 22.5007 22.877 22.5169 22.8388C22.3864 22.7755 22.4734 22.9505 22.3908 22.9496C22.4382 23.0116 22.5082 22.9786 22.5504 22.9681ZM22.6211 22.5025C22.5794 22.4809 22.5763 22.4611 22.5183 22.4387C22.491 22.4312 22.4994 22.4677 22.4655 22.4519C22.4655 22.3824 22.5161 22.3609 22.4532 22.2976C22.4 22.3525 22.4237 22.4396 22.3877 22.4704C22.4506 22.513 22.4418 22.4611 22.4923 22.4871C22.5038 22.52 22.5183 22.5328 22.484 22.5451C22.571 22.5864 22.5495 22.4831 22.6211 22.5025ZM22.706 22.5574C22.6383 22.5143 22.5587 22.5688 22.6519 22.6159C22.7192 22.6322 22.6818 22.5869 22.706 22.5574ZM22.8067 22.2422C22.8388 22.254 22.7473 22.2809 22.823 22.3116C22.8326 22.2914 22.8674 22.2268 22.8067 22.2422ZM22.8177 21.6297C22.7711 21.6174 22.8208 21.6724 22.7535 21.6451C22.7601 21.613 22.768 21.58 22.768 21.5497C22.7662 21.5185 22.7596 21.4895 22.7412 21.464C22.7311 21.5 22.7029 21.5673 22.6871 21.6284C22.6735 21.69 22.6735 21.7471 22.7275 21.7687C22.7275 21.7603 22.7306 21.6702 22.79 21.6719C22.8366 21.7159 22.7689 21.7687 22.8159 21.828C22.8441 21.7818 22.9017 21.6838 22.8177 21.6297ZM22.8542 21.3395C22.8586 21.3901 22.8014 21.3945 22.8665 21.4327C22.8643 21.4077 22.8933 21.322 22.8542 21.3395ZM22.9975 21.2815C22.9839 21.2811 22.9711 21.2802 22.9579 21.2802C22.9654 21.2987 22.9276 21.336 22.9953 21.3299L22.9975 21.2815ZM23.0731 21.3747C23.0296 21.3725 23.081 21.2824 23.016 21.3215C23.0234 21.3215 23.0252 21.3971 23.0731 21.3747ZM23.7955 22.4053C23.7124 22.4158 23.6482 22.5548 23.7159 22.619C23.7572 22.5398 23.7625 22.4558 23.7955 22.4053ZM23.9032 22.6374C23.8518 22.6414 23.8601 22.7284 23.8307 22.7641C23.8918 22.7948 23.9731 22.6726 23.9032 22.6374ZM22.3288 20.9869C22.316 21.0344 22.367 21.0551 22.3565 21.1008C22.4426 21.0815 22.3894 20.9918 22.3288 20.9869ZM20.0579 19.5396C20.0715 19.5681 20.1181 19.6253 20.1533 19.5708C20.1221 19.5796 20.0421 19.5083 20.0579 19.5396ZM19.9075 18.7794C19.9146 18.7152 19.9388 18.691 19.9467 18.6589C19.8979 18.7235 19.8746 18.6848 19.8275 18.7464C19.846 18.7701 19.8495 18.8189 19.9075 18.7794ZM21.9959 21.125C21.9634 21.1162 21.9529 21.0999 21.9159 21.0938C21.8891 21.125 21.9045 21.1197 21.9357 21.1329C21.9282 21.1518 21.8579 21.1197 21.8764 21.1452C21.9243 21.1496 21.9168 21.1786 21.9036 21.2129C21.8891 21.2472 21.8742 21.2846 21.9107 21.3158C21.9458 21.2916 21.9067 21.2314 21.9757 21.238C21.8922 21.1975 21.9656 21.1558 21.9959 21.125ZM21.9564 20.9258C21.9718 20.9078 21.9669 20.8502 21.9238 20.8563C21.9436 20.877 21.9085 20.9197 21.9564 20.9258ZM21.7902 21.0498C21.7269 21.0542 21.7273 21.1289 21.7946 21.1259C21.7748 21.1153 21.8078 21.074 21.7902 21.0498ZM19.4116 18.9267C19.4037 18.9122 19.3923 18.8563 19.3566 18.8924C19.3518 18.917 19.3826 18.9566 19.4116 18.9267ZM19.6917 18.3441C19.7312 18.3085 19.7572 18.345 19.7998 18.294C19.678 18.2724 19.6059 18.1779 19.4956 18.1098C19.4406 18.2192 19.4138 18.1177 19.3641 18.1968C19.452 18.3428 19.6182 18.1902 19.6917 18.3441ZM19.2397 18.8906C19.2533 18.855 19.2929 18.8444 19.2815 18.822C19.2727 18.8352 19.2643 18.8387 19.2586 18.8321C19.2647 18.822 19.2656 18.8093 19.2524 18.8282C19.2595 18.8396 19.2085 18.8831 19.2397 18.8906ZM20.061 18.4694C20.0566 18.4298 20.0166 18.4114 19.9717 18.4567C20.0078 18.436 20.0236 18.4971 20.061 18.4694ZM20.4176 18.4307L20.4167 18.4298C20.4167 18.4307 20.4167 18.4312 20.4167 18.432C20.4167 18.4312 20.4176 18.4312 20.4176 18.4307ZM19.1588 19.1949C19.161 19.2335 19.1962 19.2419 19.2327 19.2177C19.2063 19.216 19.1931 19.1619 19.1588 19.1949ZM19.8016 19.4296C19.8038 19.4336 19.806 19.4376 19.7945 19.4494C19.7862 19.4463 19.7818 19.4345 19.7655 19.4521C19.7501 19.4886 19.788 19.558 19.8196 19.4956C19.7756 19.533 19.8205 19.4085 19.8016 19.4296ZM20.028 19.2511C20.0113 19.3052 20.0711 19.2665 20.1063 19.2375C20.0794 19.245 20.0671 19.2098 20.028 19.2511ZM19.6952 19.3725C19.6618 19.4046 19.6451 19.3861 19.6275 19.3703C19.6306 19.3228 19.6503 19.3945 19.6732 19.3549C19.6525 19.3228 19.6108 19.278 19.5611 19.2718C19.5562 19.3312 19.4987 19.2999 19.4696 19.3048C19.507 19.2353 19.4428 19.1795 19.3733 19.1891C19.325 19.2472 19.3769 19.2296 19.3342 19.2841C19.2617 19.3395 19.2626 19.27 19.2107 19.2749C19.2221 19.2327 19.2344 19.2437 19.2604 19.2116C19.2353 19.1711 19.194 19.1434 19.1825 19.0907C19.2335 19.1135 19.3048 19.1535 19.361 19.1579C19.3518 19.1505 19.3342 19.1175 19.3421 19.0731C19.3808 19.0238 19.4151 18.9961 19.438 19.0168C19.4419 18.9834 19.4235 18.9658 19.4059 18.9473C19.452 18.9456 19.503 18.9038 19.5527 18.9482C19.5681 18.9029 19.5105 18.9113 19.4969 18.8871C19.5008 18.8915 19.5826 18.8229 19.6121 18.8189C19.5571 18.8994 19.6495 18.833 19.6266 18.877C19.6587 18.8176 19.6204 18.8612 19.6068 18.8396L19.6521 18.7732C19.6679 18.7983 19.6917 18.7908 19.7238 18.7482C19.7352 18.7847 19.7594 18.8313 19.8297 18.822C19.8306 18.8475 19.788 18.9007 19.8139 18.91C19.7756 18.9319 19.7954 18.8625 19.7475 18.888C19.7334 18.9451 19.7559 18.939 19.7611 18.9711C19.7396 18.997 19.7532 18.9429 19.7136 18.9869C19.6978 19.0313 19.755 19.026 19.7673 19.0511C19.726 19.0757 19.7581 19.106 19.7136 19.1113C19.667 19.2168 19.7893 19.0915 19.8016 19.1513C19.8275 19.1047 19.7528 19.0968 19.8266 19.0441C19.7871 19.0366 19.7932 19.0159 19.7559 18.9917C19.8337 18.9456 19.8574 19.0397 19.9581 19.0678C19.9739 18.9807 19.846 19.0357 19.8807 18.9341C19.9893 18.968 20.0113 18.9574 20.1151 19.0383C20.1586 18.9662 20.0808 19.0177 20.0922 18.9689C20.1335 18.9421 20.1467 19.0032 20.1762 19.0106C20.1603 19.0062 20.0733 19.0915 20.119 19.0937C20.1129 19.1342 20.0693 19.0876 20.1023 19.0542C20.0328 19.1381 20.0276 19.0273 19.9757 19.0564C20.0047 19.0885 20.0166 19.1526 20.0878 19.1197C20.0975 19.1307 20.0504 19.1746 20.0671 19.1808C20.0733 19.1825 20.0777 19.1764 20.0794 19.1711C20.0786 19.2234 20.0504 19.1628 20.0434 19.1619C19.9849 19.154 19.9414 19.1601 19.8825 19.1878C19.8922 19.2168 19.8838 19.2564 19.9023 19.2793C19.7387 19.2876 19.6679 19.1496 19.5734 19.0841C19.5672 19.0823 19.5176 19.1258 19.5329 19.1289C19.4793 19.1342 19.4534 19.0238 19.4085 19.0212C19.3373 19.1206 19.4318 19.0761 19.4503 19.0731C19.4525 19.1746 19.4987 19.2283 19.6138 19.1619C19.5883 19.2283 19.5945 19.3206 19.6824 19.2366C19.6231 19.325 19.7273 19.303 19.6952 19.3725ZM19.8328 19.0726C19.8429 19.1351 19.8359 19.1878 19.9084 19.1557C19.9067 19.1487 19.9124 19.1373 19.9273 19.1192C19.8763 19.1135 19.8908 19.0229 19.8328 19.0726ZM19.6204 19.0678C19.6512 19.0603 19.6877 19.139 19.7321 19.0489C19.6657 19.1008 19.6877 18.9922 19.6204 19.0678ZM19.5954 19.0014C19.6222 19.0322 19.6534 19.0471 19.7075 18.9816C19.6802 18.9526 19.6429 18.9566 19.5954 19.0014Z" fill="#E8400C"/>
<path d="M17.4323 15.4665C17.2907 15.3254 17.2894 15.3267 17.1474 15.1856C17.0792 15.1865 17.0041 15.1535 16.9786 15.1139C16.946 15.0612 16.9649 15.0396 17.0124 15.0475C16.9764 15.0093 16.9421 14.9724 16.8678 14.8985C16.7266 14.7574 16.7275 14.7556 16.5864 14.6145C16.4452 14.4733 16.4527 14.4659 16.3107 14.3243C16.236 14.2495 16.1304 14.2175 16.0328 14.217C15.9343 14.217 15.8315 14.2513 15.7567 14.326C15.6376 14.4452 15.6398 14.4465 15.5215 14.5657C15.4024 14.6848 15.3993 14.6809 15.281 14.7991C15.1619 14.9183 15.1641 14.92 15.0458 15.0387C15.0366 15.048 15.0445 15.0559 15.0352 15.0647C14.9161 15.1838 14.9192 15.1865 14.8 15.3052C14.6809 15.4243 14.6831 15.4261 14.5648 15.5452C14.4456 15.6639 14.4329 15.6512 14.3155 15.7686C14.2403 15.8433 14.217 15.9467 14.217 16.0443C14.217 16.1427 14.2381 16.2474 14.3137 16.3221C14.4549 16.4633 14.4549 16.4633 14.596 16.6044C14.7376 16.746 14.7451 16.738 14.8862 16.8796C15.0273 17.0208 15.03 17.0186 15.1711 17.1597C15.3122 17.3008 15.3047 17.3092 15.4459 17.4503C15.587 17.5914 15.5892 17.5884 15.7303 17.7299C15.7695 17.7686 15.7972 17.7968 15.82 17.8214L16.017 17.6534L16.3138 17.3962L16.6075 17.1359C16.567 17.1359 16.5345 17.0849 16.5345 17.0221C16.5345 16.9596 16.567 16.9289 16.6075 16.9535C16.6475 16.9777 16.68 17.0291 16.68 17.0665L16.8915 16.8651L17.1588 16.5771L17.4459 16.3085L17.7031 16.0122L17.8315 15.8666C17.8007 15.8389 17.7664 15.8068 17.7115 15.7519C17.5703 15.6116 17.5734 15.6085 17.4323 15.4665ZM15.1979 16.7389C15.1671 16.7389 15.1544 16.7262 15.1693 16.7108C15.1847 16.6954 15.2098 16.6954 15.2252 16.7108C15.2406 16.7266 15.2282 16.7389 15.1979 16.7389Z" fill="#FFB923"/>
</svg>
