<svg width="521" height="678" viewBox="0 0 521 678" fill="none" xmlns="http://www.w3.org/2000/svg">
<path d="M394.524 639.683C379.261 651.136 337.338 660.026 294.918 665.923C253.022 671.751 210.649 674.666 193.063 674.246C157.662 673.413 31.2189 684.368 14.3567 613.544C-0.398381 551.557 -4.60214 341.442 29.7146 235.048V235.043C29.7146 235.043 29.7146 235.033 29.7198 235.022C34.6102 219.869 40.2816 206.828 46.8126 196.617C80.1072 144.573 162.715 139.704 206.126 138.441C285.751 136.124 398.319 178.906 413.499 345.856C428.673 512.795 424.878 616.919 394.524 639.683Z" fill="#47B5A1"/>
<path d="M413.499 345.855C398.319 178.906 285.75 136.124 206.125 138.441C202.126 138.556 197.791 138.703 193.194 138.917C270.225 144.531 365.223 193.467 379.072 345.855C394.251 512.795 390.456 616.919 360.108 639.683C344.844 651.136 302.911 660.026 260.496 665.923C218.595 671.751 176.233 674.666 158.637 674.246C155.182 674.168 150.853 674.194 145.847 674.252C165.833 674.713 183.073 674.011 193.063 674.246C210.649 674.666 253.022 671.751 294.918 665.923C337.338 660.026 379.26 651.136 394.524 639.683C424.878 616.919 428.673 512.795 413.499 345.855Z" fill="#40A296"/>
<path d="M163.281 223.176C172.008 205.716 267.248 211.367 273.428 223.176C279.608 234.98 285.227 278.26 273.428 286.694C261.624 295.122 173.256 299.336 162.296 283.04C151.335 266.739 159.345 231.044 163.281 223.176Z" fill="#FAB322"/>
<path d="M273.427 223.177C271.959 220.378 265.476 217.925 256.324 216.043C262.131 229.949 266.718 269.67 255.469 277.71C246.323 284.247 191.181 288.246 161.739 282.129C161.917 282.433 162.096 282.747 162.295 283.041C173.255 299.337 261.623 295.123 273.427 286.694C285.226 278.261 279.607 234.981 273.427 223.177Z" fill="#F78E2B"/>
<path d="M363.62 462.345C362.634 462.958 356.538 463.702 346.7 464.52C334.24 465.558 315.785 466.695 294.111 467.759C288.188 468.048 282.019 468.331 275.671 468.619C203.777 471.759 108.391 473.803 72.1924 469.751C64.4715 468.892 59.4448 467.749 57.9091 466.281C44.4224 453.35 51.7292 428.054 57.9091 420.753C69.8022 406.695 353.509 403.324 363.62 417.933C373.736 432.557 370.926 457.842 363.62 462.345Z" fill="#FAB322"/>
<path d="M363.619 417.933C361.418 414.751 346.217 412.424 323.673 410.873C332.332 425.685 329.46 449.052 322.462 453.361C321.477 453.979 315.376 454.724 305.548 455.536C293.089 456.574 274.628 457.711 252.959 458.775C247.025 459.069 240.861 459.352 234.509 459.635C175.032 462.235 99.4694 464.08 54.6538 462.35C55.5711 463.75 56.6456 465.071 57.9088 466.281C59.4446 467.749 64.4713 468.892 72.1922 469.751C108.391 473.803 203.777 471.759 275.671 468.619C282.018 468.331 288.188 468.048 294.111 467.76C315.785 466.696 334.24 465.558 346.7 464.52C356.538 463.703 362.634 462.958 363.619 462.345C370.926 457.842 373.736 432.557 363.619 417.933Z" fill="#F78E2B"/>
<path d="M346.7 464.521C346.396 489.418 344.409 571.124 331.588 591.063C316.419 614.671 115.787 601.185 88.8189 591.063C68.6965 583.51 70.1536 507.732 72.1926 469.752C108.391 473.803 203.778 471.759 275.671 468.619C282.019 468.331 288.188 468.048 294.111 467.76C315.785 466.696 334.241 465.558 346.7 464.521Z" fill="#F05045"/>
<path d="M317.195 466.523C316.272 500.231 313.127 560.159 302.403 576.843C289.346 597.164 138.855 589.999 80.0127 581.156C82.3452 586.215 85.2333 589.721 88.8186 591.063C115.787 601.185 316.419 614.671 331.588 591.063C344.409 571.124 346.396 489.418 346.7 464.521C338.958 465.165 328.899 465.847 317.195 466.523Z" fill="#E4322A"/>
<path d="M288.313 520.17C270.235 520.831 273.422 484.486 275.671 468.619C282.018 468.331 288.188 468.048 294.111 467.76C298.335 482.85 306.664 519.494 288.313 520.17Z" fill="#47B5A1"/>
<path d="M294.111 467.76C291.888 467.865 289.619 467.969 287.328 468.085C291.621 484.271 298.105 516.795 281.206 517.901C283.093 519.437 285.436 520.275 288.314 520.17C306.664 519.494 298.336 482.85 294.111 467.76Z" fill="#40A296"/>
<path d="M440.613 620.295C379.921 659.638 333.087 661.373 294.918 665.923C337.338 660.026 379.26 651.137 394.524 639.684C424.878 616.919 428.673 512.795 413.499 345.856C398.319 178.906 285.75 136.124 206.125 138.441C162.715 139.704 80.1071 144.573 46.8126 196.617C40.2815 206.828 34.6101 219.869 29.7197 235.022C30.0447 233.114 50.3192 118.612 218.448 94.3223C229.309 92.7551 240.788 91.5653 252.912 90.8C253.861 90.7423 254.809 90.6899 255.753 90.6323C280.079 89.3481 302.052 91.2875 321.876 95.9053C335.525 99.0765 348.152 103.527 359.84 109.062C362.01 110.084 364.154 111.153 366.256 112.254C382.159 120.562 396.238 130.951 408.702 142.922C436.368 169.492 456.045 203.877 469.93 240.668C483.788 277.422 491.866 316.576 496.358 352.78C498.695 371.713 500.053 389.833 500.74 406.38C505.798 527.964 501.306 580.946 440.613 620.295Z" fill="#40A296"/>
<path d="M165.718 138.441C145.134 139.039 115.75 140.454 86.9789 147.315C38.1482 187.35 29.9241 233.812 29.7197 235.023C34.6101 219.869 40.2815 206.828 46.8126 196.618C76.2336 150.617 144.165 141.476 189.525 139.102C181.359 138.415 173.386 138.216 165.718 138.441Z" fill="#338A7D"/>
<path d="M500.74 406.38C500.053 389.833 498.695 371.713 496.358 352.78C491.866 316.576 483.788 277.422 469.929 240.668C456.044 203.877 436.368 169.492 408.702 142.922C396.238 130.951 382.159 120.562 366.256 112.254C364.154 111.153 362.01 110.084 359.84 109.062C348.152 103.527 335.525 99.0765 321.875 95.9053C302.052 91.2875 280.079 89.3481 255.753 90.6323C254.809 90.6899 253.861 90.7423 252.912 90.8C251.811 90.8681 250.721 90.9467 249.641 91.0254C260.816 91.9164 271.415 93.5623 281.463 95.9053C295.112 99.0765 307.749 103.527 319.433 109.062C321.608 110.084 323.747 111.153 325.849 112.254C341.746 120.562 355.831 130.951 368.29 142.922C395.955 169.492 415.637 203.877 429.517 240.668C443.376 277.422 451.458 316.576 455.95 352.78C458.283 371.713 459.645 389.833 460.332 406.38C465.076 520.432 461.417 574.111 410.857 612.805C406.663 625.615 401.244 634.647 394.524 639.684C379.26 651.137 337.338 660.026 294.918 665.923C333.087 661.373 379.921 659.638 440.613 620.295C501.306 580.946 505.798 527.964 500.74 406.38Z" fill="#338A7D"/>
<path d="M296.186 3.6746C223.176 -0.204175 218.474 75.2223 218.448 94.3227C229.309 92.7554 240.788 91.5656 252.912 90.8003C253.86 90.7427 254.809 90.6903 255.753 90.6326C256.838 72.4967 262.64 31.3607 292.9 32.9751C323.06 34.5738 323.374 76.386 321.875 95.9056C335.524 99.0768 348.151 103.527 359.84 109.062C362.838 89.5843 370.926 7.63725 296.186 3.6746Z" fill="#FAB322"/>
<path d="M277.935 32.9749C247.67 31.3605 241.873 72.4965 240.788 90.6324C239.844 90.6901 238.896 90.7425 237.947 90.8001C231.259 91.2247 224.77 91.7751 218.469 92.4512C218.459 93.1221 218.448 93.7511 218.448 94.3225C229.309 92.7552 240.788 91.5654 252.912 90.8001C253.86 90.7425 254.809 90.6901 255.753 90.6324C256.722 74.4726 261.429 40.072 283.842 33.8869C282.013 33.4047 280.047 33.085 277.935 32.9749Z" fill="#F78E2B"/>
<path d="M296.187 3.67412C291.689 3.433 287.454 3.4959 283.46 3.82612C349.787 8.85805 348.608 76.9411 345.667 103.081C350.537 104.894 355.265 106.892 359.84 109.062C362.839 89.5838 370.926 7.63676 296.187 3.67412Z" fill="#F78E2B"/>
<path d="M454.1 47.5256C402.009 39.2543 375.937 87.8177 366.256 112.254C382.159 120.562 396.238 130.951 408.702 142.923C414.777 123.759 428.17 90.5695 446.368 97.5566C466.192 105.152 469.447 199.982 469.929 240.668C483.788 277.422 491.865 316.576 496.357 352.78C510.316 287.098 550.666 62.8572 454.1 47.5256Z" fill="#F05045"/>
<path d="M429.91 97.557C414.903 91.7965 403.162 113.345 396.102 131.827C400.473 135.354 404.672 139.055 408.702 142.923C413.163 128.86 421.56 107.233 432.913 99.4859C431.954 98.6158 430.958 97.9554 429.91 97.557Z" fill="#E4322A"/>
<path d="M454.1 47.526C447.066 46.4096 440.519 46.3362 434.413 47.091C435.482 47.2115 436.551 47.353 437.636 47.526C517.471 60.2054 503.727 215.655 488.679 306.256C491.971 322.018 494.481 337.659 496.358 352.781C510.316 287.098 550.666 62.8577 454.1 47.526Z" fill="#E4322A"/>
<path d="M145.014 3.53302C50.2771 -1.65616 45.2084 142.488 46.414 194.07C56.3468 177.36 71.9196 157.856 96.1043 140.265C96.3716 120.421 99.4694 66.6051 124.949 61.5732C146.319 57.3484 163.836 85.6216 172.804 103.978C184.582 100.597 197.319 97.7244 211.084 95.4653C206.23 69.9964 189.604 5.97036 145.014 3.53302Z" fill="#F05045"/>
<path d="M131.543 14.0106C172.149 16.2278 189.567 69.5243 196.02 98.2587C200.905 97.247 205.921 96.314 211.084 95.4649C206.23 69.996 189.604 5.96996 145.014 3.53262C121.437 2.23795 103.411 10.1999 89.6572 23.6761C101.183 16.7572 114.99 13.1038 131.543 14.0106Z" fill="#E4322A"/>
<path d="M82.6339 150.743C67.3127 161.887 55.451 173.796 46.2939 185.28C46.3044 188.441 46.3516 191.381 46.4145 194.07C56.3473 177.36 71.9201 157.856 96.1048 140.265C96.304 125.138 98.1595 90.2708 110.315 72.3184C85.9047 78.7393 82.9012 131.202 82.6339 150.743Z" fill="#E4322A"/>
<path d="M32.975 235.982C32.9645 236.019 32.954 236.055 32.9383 236.092C12.5747 299.237 7.9621 391.584 7.02385 441.012C5.69249 511.417 9.96438 580.438 17.659 612.763C31.9109 672.627 129.976 671.458 177.098 670.892C183.445 670.824 188.923 670.761 193.137 670.861C210.67 671.275 253.342 668.287 294.452 662.563C345.054 655.534 379.869 646.435 392.49 636.969C406.386 626.548 414.867 596.153 417.697 546.635C420.46 498.271 417.986 432.699 410.118 346.16C396.395 195.171 300.249 141.743 212.531 141.743C210.429 141.743 208.327 141.769 206.225 141.827C172.684 142.807 83.5983 145.402 49.6694 198.447C43.542 208.023 37.9283 220.65 32.975 235.982ZM160.55 677.806C108.26 677.806 24.9711 672.764 11.0546 614.336C3.24466 581.508 -1.10061 511.805 0.241233 440.881C1.18472 391.101 5.84449 298.053 26.4649 234.084C26.4702 234.053 26.4806 234.016 26.4911 233.98C31.6279 218.061 37.5037 204.873 43.9561 194.788C79.8191 138.729 171.51 136.056 206.026 135.05C233.99 134.232 288.083 138.467 336.07 176.002C357.833 193.017 375.613 214.942 388.916 241.155C403.844 270.571 413.252 305.695 416.874 345.547C424.773 432.421 427.258 498.323 424.469 547.023C421.482 599.355 412.346 630.558 396.563 642.399C379.224 655.403 331.971 664.199 295.39 669.283C252.377 675.274 210.534 678.063 192.98 677.644C188.881 677.544 183.456 677.607 177.182 677.68C172.15 677.743 166.552 677.806 160.55 677.806Z" fill="#593217"/>
<path d="M166.316 224.696C162.29 232.742 155.282 266.524 165.115 281.143C166.007 282.479 169.524 285.85 182.727 288.245C212.41 293.623 263.93 289.304 271.452 283.931C280.892 277.185 276.536 236.422 270.424 224.749C269.869 223.763 264.942 220.655 248.97 218.165C236.244 216.184 220.802 215.23 206.597 215.55C179.933 216.163 168.234 220.859 166.316 224.696ZM217.049 297.512C204.081 297.512 191.334 296.7 181.522 294.918C169.78 292.795 162.568 289.524 159.481 284.932C147.268 266.765 156.462 229.235 160.241 221.661C165.425 211.299 189.987 208.903 209.679 208.72C232.769 208.505 271.3 211.802 276.431 221.598C282.511 233.208 289.734 279.209 275.399 289.451C268.422 294.435 242.303 297.512 217.049 297.512Z" fill="#593217"/>
<path d="M361.848 459.451C361.843 459.456 361.838 459.456 361.838 459.462C361.838 459.456 361.843 459.456 361.843 459.456C361.848 459.456 361.848 459.451 361.848 459.451ZM234.933 411.863C226.987 411.863 218.884 411.905 210.681 411.994C173.177 412.403 137.518 413.697 110.278 415.658C67.1186 418.75 61.2008 422.315 60.4513 422.996C54.8008 429.679 48.6525 452.7 60.2573 463.833C60.4041 463.943 62.3016 465.233 72.5698 466.381C109.188 470.474 204.784 468.325 275.519 465.227C281.867 464.944 288.025 464.656 293.948 464.368C315.371 463.314 334.005 462.166 346.422 461.139C358.221 460.164 361.256 459.556 362.01 459.346C363.206 458.461 364.883 455.756 365.931 450.771C367.75 442.107 366.943 428.783 360.899 419.966C359.977 419.191 353.519 415.705 311.109 413.524C289.949 412.434 263.505 411.863 234.933 411.863ZM138.126 475.412C110.262 475.412 86.4391 474.762 71.815 473.127C60.1892 471.832 57.0757 470.176 55.5661 468.729C40.2502 454.042 48.5529 426.56 55.325 418.556C57.1124 416.444 62.5584 409.997 154.155 406.548C206.466 404.577 267.085 404.598 308.599 406.6C361.67 409.163 364.872 413.786 366.413 416.004C373.694 426.529 374.753 441.75 372.567 452.165C371.618 456.689 369.606 462.633 365.412 465.227C364.458 465.814 363.279 466.554 346.983 467.901C334.497 468.933 315.774 470.086 294.279 471.14C288.345 471.433 282.176 471.717 275.818 472.005C232.884 473.881 180.777 475.412 138.126 475.412Z" fill="#593217"/>
<path d="M75.4002 473.489C72.119 539.548 77.6698 583.258 90.0085 587.886C101.86 592.337 155.995 598.532 214.732 600.319C292.025 602.673 324.302 596.137 328.737 589.228C338.292 574.353 342.485 517.67 343.261 468.2C330.912 469.154 313.735 470.186 294.279 471.14C288.345 471.434 282.176 471.717 275.818 472.005C207.022 475.014 114.707 477.132 75.4002 473.489ZM244.153 607.574C234.797 607.574 224.885 607.417 214.528 607.102C159.889 605.446 101.776 599.549 87.6236 594.239C77.3711 590.392 71.2174 573.331 68.8115 542.075C66.9089 517.392 67.7632 489.025 68.8115 469.573C68.8587 468.64 69.2938 467.77 70.0014 467.162C70.7195 466.565 71.642 466.276 72.5698 466.381C109.188 470.475 204.784 468.326 275.519 465.228C281.866 464.945 288.025 464.657 293.948 464.368C315.371 463.315 334.005 462.167 346.422 461.139C347.381 461.061 348.314 461.386 349.017 462.041C349.714 462.691 350.107 463.603 350.096 464.562C349.703 496.442 347.392 572.759 334.44 592.903C331.777 597.043 324.412 602.893 291.349 605.828C278.271 606.987 262.263 607.574 244.153 607.574Z" fill="#593217"/>
<path d="M278.653 471.88C275.959 492.961 277.348 508.744 282.438 514.405C283.984 516.113 285.819 516.868 288.188 516.784C290.536 516.695 292.219 515.846 293.487 514.111C297.859 508.115 297.125 492.207 291.558 471.277C287.365 471.476 283.051 471.675 278.653 471.88ZM287.847 523.572C283.732 523.572 280.137 521.979 277.401 518.949C268.626 509.21 269.785 485.938 272.306 468.142C272.536 466.523 273.884 465.301 275.519 465.228C281.866 464.945 288.025 464.657 293.948 464.368C295.516 464.29 296.952 465.317 297.382 466.843C302.303 484.47 306.581 507.675 298.965 518.111C296.475 521.512 292.842 523.394 288.434 523.562C288.24 523.567 288.041 523.572 287.847 523.572Z" fill="#593217"/>
<path d="M212.07 134.96C241.302 134.96 291.333 141.019 336.07 176.001C357.833 193.016 375.612 214.941 388.916 241.154C403.844 270.57 413.252 305.694 416.874 345.546C424.773 432.42 427.258 498.323 424.469 547.022C421.791 593.84 414.201 623.743 401.333 638.006C413.216 632.644 425.691 625.924 438.768 617.438C498.428 578.765 502.328 526.182 497.354 406.521C496.604 388.548 495.136 370.606 492.993 353.188C487.872 311.916 479.045 274.459 466.753 241.867C451.647 201.821 431.32 169.355 406.349 145.37C393.733 133.24 379.711 123.108 364.684 115.257C362.66 114.198 360.543 113.144 358.394 112.127C346.705 106.592 334.162 102.242 321.105 99.2068C301.067 94.5418 279.136 92.7911 255.936 94.0229L255.68 94.0334C254.836 94.0806 253.981 94.1277 253.122 94.1854C241.344 94.9297 229.844 96.1038 218.941 97.6815C140.113 109.066 94.9934 140.809 70.0487 167.992C112.977 137.764 178.151 135.861 206.026 135.049C207.929 134.991 209.947 134.96 212.07 134.96ZM294.918 669.319C293.236 669.319 291.778 668.071 291.558 666.357C291.317 664.512 292.612 662.819 294.452 662.563C345.054 655.534 379.869 646.434 392.49 636.968C406.386 626.548 414.867 596.152 417.697 546.634C420.459 498.27 417.985 432.698 410.118 346.159C396.395 195.17 300.249 141.742 212.531 141.742C210.429 141.742 208.327 141.769 206.225 141.826C172.684 142.806 83.5982 145.401 49.6694 198.446C43.5367 208.038 37.9072 220.696 32.9434 236.065C32.4036 237.758 30.6424 238.738 28.9179 238.313C27.1882 237.894 26.0822 236.212 26.3757 234.456C26.5854 233.208 31.8532 203.494 58.5276 170.917C73.9327 152.105 93.4157 136.092 116.432 123.318C145.014 107.457 179.179 96.5703 217.966 90.9671C229.052 89.3631 240.741 88.168 252.697 87.4133C253.567 87.3556 254.437 87.3084 255.302 87.2612L255.564 87.2508C279.419 85.9875 301.984 87.7854 322.641 92.5972C336.164 95.7474 349.174 100.255 361.298 105.995C363.525 107.048 365.727 108.144 367.823 109.244C383.428 117.395 397.968 127.899 411.051 140.474C436.756 165.162 457.633 198.472 473.101 239.477C485.581 272.572 494.539 310.553 499.723 352.36C501.893 369.951 503.376 388.081 504.131 406.238C506.741 468.949 506.673 511.752 498.627 544.978C490.22 579.683 473.426 603.06 442.464 623.141C386.824 659.203 342.203 664.104 306.345 668.045C302.524 668.465 298.912 668.863 295.322 669.293C295.185 669.314 295.049 669.319 294.918 669.319Z" fill="#593217"/>
<path d="M325.456 93.2746C336.432 95.9949 347.046 99.6221 357.099 104.072C359.044 88.012 360.894 51.2842 341.961 27.9958C331.536 15.1696 316.078 8.13014 296.003 7.06086C275.535 5.97585 258.95 11.3065 246.706 22.9062C225.881 42.6408 222.396 75.9301 221.913 90.4179C231.773 89.0918 242.067 88.0854 252.582 87.4249C254.186 67.2867 261.377 27.8857 293.084 29.584C301.46 30.0348 308.394 33.316 313.688 39.3543C325.66 52.9929 326.368 77.8852 325.456 93.2746ZM359.841 112.459C359.348 112.459 358.85 112.349 358.389 112.129C346.705 106.593 334.162 102.243 321.105 99.208C319.475 98.8306 318.364 97.3158 318.495 95.6438C319.564 81.7273 319.706 56.4943 308.594 43.8306C304.489 39.1551 299.3 36.7125 292.717 36.3614C265.45 34.9356 260.145 73.9803 259.139 90.8425C259.039 92.5617 257.661 93.9245 255.947 94.0241L255.68 94.0346C254.836 94.0818 253.981 94.1289 253.122 94.1866C241.344 94.9309 229.844 96.105 218.941 97.6827C217.961 97.8243 216.976 97.536 216.226 96.8912C215.487 96.2413 215.057 95.3083 215.063 94.3229C215.078 79.0384 217.741 41.0054 242.046 17.9843C255.695 5.04809 273.962 -0.906361 296.365 0.283481C318.421 1.4576 335.541 9.34095 347.224 23.7134C369.983 51.7087 365.203 96.5139 363.195 109.581C363.033 110.64 362.377 111.557 361.429 112.06C360.936 112.322 360.391 112.459 359.841 112.459Z" fill="#593217"/>
<path d="M473.31 240.034C483.699 267.725 491.63 298.808 496.955 332.684C502.611 303.315 509.624 260.256 512.239 216.452C516.244 149.438 508.948 101.865 490.539 75.0702C481.167 61.4211 468.729 53.2809 453.57 50.875C406.653 43.4215 381.729 83.8708 370.549 110.697C383.595 117.8 395.871 126.569 407.146 136.821C412.938 119.959 421.895 100.78 433.909 94.9935C438.401 92.8339 443.003 92.6243 447.584 94.3855C453.958 96.8228 463.094 105.912 468.771 156.32C472.021 185.17 473.032 217.652 473.31 240.034ZM496.357 356.166C496.31 356.166 496.258 356.166 496.211 356.166C494.56 356.098 493.192 354.84 492.992 353.194C487.871 311.917 479.044 274.46 466.753 241.868C466.617 241.501 466.538 241.108 466.533 240.71C466.276 218.47 465.28 185.909 462.036 157.08C456.726 110.016 448.46 101.991 445.158 100.717C442.348 99.6428 439.633 99.7686 436.85 101.11C428.348 105.204 419.269 120.819 411.931 143.95C411.58 145.066 410.673 145.926 409.536 146.214C408.404 146.503 407.198 146.183 406.349 145.37C393.732 133.241 379.711 123.109 364.683 115.257C363.148 114.45 362.466 112.616 363.1 110.996C368.227 98.0755 377.373 79.6513 391.882 65.216C409.719 47.4785 430.832 40.3918 454.634 44.1763C471.706 46.8809 485.665 55.9908 496.132 71.2281C515.411 99.3021 523.105 148.295 519.012 216.86C515.704 272.138 505.478 326.184 499.675 353.483C499.34 355.055 497.951 356.166 496.357 356.166Z" fill="#593217"/>
<path d="M140.165 6.79314C121.437 6.79314 105.361 13.1774 92.3302 25.8096C55.0205 61.9766 49.6794 140.69 49.6741 182.685C61.1113 166.059 75.5519 151.241 92.739 138.53C93.2108 114.838 97.3831 63.5596 124.293 58.2446C146.03 53.9517 163.453 77.9477 174.592 99.9572C184.912 97.0953 195.815 94.6579 207.079 92.6976C204.537 80.3746 199.322 60.1106 189.955 42.4517C177.973 19.8552 162.788 7.89912 144.825 6.9137C143.252 6.83508 141.701 6.79314 140.165 6.79314ZM46.4139 197.466C46.1256 197.466 45.8425 197.43 45.5595 197.356C44.0918 196.974 43.0592 195.663 43.0225 194.154C42.1315 155.932 44.6894 62.5375 87.6075 20.935C103.123 5.89683 122.501 -1.10593 145.197 0.141566C191.868 2.69422 209.155 67.213 214.423 94.8257C214.59 95.722 214.391 96.6602 213.867 97.4045C213.343 98.1541 212.541 98.6678 211.639 98.8145C198.404 100.985 185.657 103.82 173.737 107.238C172.154 107.699 170.477 106.949 169.754 105.466C161.561 88.6825 144.909 61.0908 125.609 64.9014C113.716 67.2497 107.494 83.1946 104.37 96.1623C100.428 112.511 99.6212 130.841 99.4954 140.312C99.485 141.381 98.9608 142.383 98.1012 143.012C77.7691 157.793 61.3629 175.557 49.3282 195.805C48.7097 196.853 47.5932 197.466 46.4139 197.466Z" fill="#593217"/>
<path d="M55.4772 261.205C55.5715 259.166 55.7235 257.121 55.928 255.077C56.0118 254.055 56.19 253.043 56.3525 252.032C56.5098 251.015 56.6827 250.003 56.8714 248.986L57.1388 247.461C57.2384 246.953 57.3799 246.455 57.5004 245.946C57.7416 244.94 57.9827 243.928 58.2395 242.922C58.7217 240.899 59.3874 238.912 60.0583 236.92C62.7525 228.969 66.6523 221.227 71.7785 214.182C76.8576 207.127 83.2733 200.853 90.6063 196.073C91.5026 195.444 92.4671 194.925 93.4053 194.38C94.3488 193.824 95.3133 193.321 96.2672 192.786C97.2055 192.246 98.2276 191.853 99.2078 191.402C100.193 190.952 101.189 190.527 102.19 190.118C104.203 189.348 106.273 188.724 108.307 188.1C110.388 187.592 112.49 187.188 114.597 186.868C119.021 186.197 123.146 189.248 123.817 193.677C124.247 196.539 123.13 199.28 121.091 201.036L120.405 201.618C119.005 202.813 117.601 203.893 116.201 204.915C114.854 206.032 113.491 207.08 112.155 208.113C110.876 209.239 109.549 210.246 108.281 211.331C107.668 211.876 107.06 212.447 106.431 212.972C105.812 213.511 105.167 214.009 104.601 214.612C99.7844 219.02 95.4129 223.712 91.3821 228.864C87.3827 234.027 83.8132 239.677 80.4901 245.721C79.6829 247.236 78.7918 248.73 78.0527 250.318C77.2822 251.89 76.4016 253.421 75.673 255.046C74.934 256.66 74.0743 258.243 73.3248 259.894C72.57 261.54 71.7785 263.186 70.9137 264.837L70.6621 265.298C68.6021 269.24 63.7274 270.76 59.7858 268.695C56.9343 267.201 55.3514 264.224 55.4772 261.205Z" fill="white"/>
<path d="M68.6861 286.474C68.2929 292.072 63.434 296.297 57.836 295.899C52.2432 295.511 48.0185 290.652 48.4116 285.054C48.7995 279.451 53.6584 275.231 59.2564 275.619C64.8597 276.012 69.0739 280.876 68.6861 286.474Z" fill="white"/>
</svg>
