<svg width="1500" height="1500" viewBox="0 0 1500 1500" fill="none" xmlns="http://www.w3.org/2000/svg">
<mask id="mask0_319_103188" style="mask-type:luminance" maskUnits="userSpaceOnUse" x="142" y="0" width="1359" height="1402">
<path d="M142.719 0H1500V1401.54H142.719V0Z" fill="white"/>
</mask>
<g mask="url(#mask0_319_103188)">
<path d="M1494.83 559.79C1494.02 495.563 1492.39 431.282 1490.97 367.11C1490.83 360.301 1490.09 353.055 1488.46 346.736C1487.61 343.522 1484.21 341.779 1482.02 339.382C1482.44 339.818 1482.87 340.254 1483.36 340.635C1483.05 337.258 1482.59 333.771 1482.05 330.285C1482.73 329.958 1483.43 329.359 1484.11 328.433C1490.41 319.88 1482.09 311.055 1478.69 303.701C1473.38 292.37 1467.58 281.42 1461.28 271.342C1424.68 212.999 1388.22 154.275 1350.91 97.13C1334.03 71.2541 1315.23 48.32 1297.04 24.5143C1293.78 20.3196 1289.18 16.7787 1285.04 16.1795C1255.23 12.3118 1225.43 8.06267 1195.52 6.48289C1144.76 3.8136 1094 2.61514 1043.24 1.74353C953.407 0.054788 863.676 5.17548 773.946 10.1327C739.894 12.0394 705.843 14.6542 671.792 17.6503C630.555 21.3547 589.353 25.6038 548.187 30.2342C508.897 34.7556 469.748 40.7479 430.458 44.8881C411.768 46.8492 396.406 58.5069 382.071 75.8301C358.178 104.593 333.896 132.539 310.145 161.52C265.297 216.268 220.592 271.451 180.31 334.316C174.753 343.032 170.824 352.129 169.974 364.441C168.452 384.706 166.116 404.807 165.125 425.181C159.214 549.93 152.489 674.515 148.135 799.264C142.932 949.779 142.436 1100.57 145.657 1251.25C146.294 1281.04 146.931 1310.79 147.71 1340.53C148.099 1355.57 149.621 1358.67 158.718 1363.08C161.232 1364.28 163.922 1365.05 166.506 1365.37C212.911 1371.15 259.28 1378.39 305.791 1382.15C379.911 1388.14 454.103 1394.41 528.329 1396.04C666.199 1399.15 804.139 1401.33 942.044 1399.58C1070.46 1397.95 1198.81 1391.14 1327.19 1385.69C1363.48 1384.11 1399.79 1379.37 1436.04 1375.5C1447.75 1374.25 1459.37 1371.69 1470.98 1368.75C1481.45 1366.13 1486.41 1352.84 1483.68 1332.58C1483.47 1332.85 1483.26 1333.07 1483.08 1333.29C1483.97 1328.27 1484.53 1323.21 1484.74 1317.98C1486.09 1316.78 1487.33 1315.53 1487.61 1313.89C1489.91 1301.04 1492.35 1287.96 1492.99 1274.72C1494.27 1247.92 1494.55 1221.01 1494.94 1194.16C1497.91 982.737 1497.56 771.263 1494.83 559.79Z" fill="black"/>
</g>
<path d="M1481.91 1320.59C1480.53 1317.49 1478.02 1314.49 1477.91 1311.33C1477.52 1294.99 1477.56 1278.59 1477.77 1262.3C1479.43 1118 1481.13 973.803 1482.44 860.113C1481.24 676.422 1480.25 523.291 1479.19 370.27C1479.12 363.297 1478.34 356.215 1478.69 349.297C1478.87 345.81 1480.85 342.651 1481.95 339.273C1482.41 339.763 1482.83 340.199 1483.33 340.581C1482.97 337.203 1482.55 333.717 1482.02 330.176C1479.61 331.211 1477.17 328.977 1474.87 325.818C1465.06 324.619 1454.73 324.292 1444.82 324.238C1442.23 331.102 1437.84 330.503 1433.91 330.557C1422.13 330.612 1410.38 330.938 1398.66 330.121C1195.02 316.339 991.245 315.086 787.467 318.3C721.948 319.335 656.394 321.242 590.945 325.001C524.329 328.814 457.819 335.46 391.273 341.071C343.276 345.157 295.242 349.732 247.245 353.818C240.449 354.417 233.617 353.219 226.856 352.238C224.556 351.857 222.396 349.515 220.202 347.989C220.273 347.717 220.308 347.499 220.343 347.172C209.193 346.409 197.867 346.954 186.61 347.662C183 354.308 181.478 361.554 181.266 371.686C180.381 417.391 178.292 462.823 176.204 508.256C173.761 561.805 170.54 615.409 168.24 668.958C162.895 794.306 158.966 919.763 158.647 1045.33C158.399 1140.55 159.178 1235.72 159.532 1331C159.532 1333.83 159.744 1336.61 159.992 1341.57C201.583 1346.41 241.935 1351.64 282.323 1355.51C332.232 1360.31 382.141 1364.23 432.05 1367.99C459.695 1370.11 487.34 1371.47 514.949 1372.51C662.305 1377.9 809.696 1380.08 957.052 1376.87C1055.91 1374.69 1154.81 1372.29 1253.68 1368.64C1308.93 1366.62 1364.18 1362.27 1419.47 1358.34C1434.98 1357.26 1450.37 1353.99 1465.84 1352.13C1470.44 1351.59 1473.52 1348.81 1476.14 1343.09C1477.77 1339.55 1480.25 1336.99 1483.04 1333.39C1483.89 1328.33 1484.5 1323.21 1484.67 1318.03C1483.75 1318.85 1482.73 1319.67 1481.91 1320.59ZM1456.64 801.824C1455.51 927.444 1452.89 1052.9 1445.81 1178.09C1443.65 1215.89 1441.06 1253.64 1438.52 1291.34C1438.23 1295.86 1437.14 1300.27 1436.18 1305.78C1426.2 1306.92 1416.46 1308.77 1406.73 1309.1C1114.21 1317.65 821.695 1315.69 529.249 1310.35C448.545 1308.94 367.841 1307.95 287.137 1305.78C263.35 1305.12 239.528 1301.31 215.777 1298.31C210.22 1297.66 203.884 1297.5 199.778 1290.25C199.92 1289.32 200.097 1288.34 200.274 1287.25C199.07 1286.16 198.044 1284.64 197.088 1282.9C195.035 1285.02 192.097 1283.93 190.823 1279.74C189.513 1275.16 189.017 1269.71 188.982 1264.65C188.805 1246.56 188.876 1228.53 188.876 1210.39C178.009 1202.49 176.204 1189.25 176.31 1173.51C176.593 1117.45 176.204 1061.51 176.452 1005.45C176.487 989.274 177.089 989.274 188.026 983.717C188.026 978.978 188.062 973.803 188.026 968.573C187.566 909.032 187.035 849.49 186.681 789.894C186.646 779.435 187.071 768.921 187.389 758.461C187.425 756.119 188.239 753.123 187.602 751.652C180.805 735.473 183.602 717.55 184.097 700.391C185.336 658.39 187.425 616.499 189.088 574.553C189.478 564.692 190.115 555.432 199.813 554.615C199.813 523.999 199.778 494.256 199.813 464.458C199.813 451.601 199.955 438.8 200.097 425.944C200.167 423.601 200.274 421.313 200.557 419.025C201.371 413.414 201.973 406.115 206.68 406.332C207.14 406.332 207.53 406.387 207.884 406.55C208.486 403.827 209.689 401.702 211.176 400.504C210.751 399.686 210.291 398.651 209.866 397.453C212.945 396.963 216.025 396.254 219.14 396.091C248.661 394.893 278.181 394.348 307.702 392.496C338.709 390.535 369.717 386.558 400.724 384.815C481.393 380.239 561.991 374.355 642.695 372.667C751.398 370.488 860.172 371.196 968.91 371.958C1029.51 372.394 1090.18 374.791 1150.78 377.515C1198.1 379.585 1245.36 383.289 1292.68 386.83C1335.44 390.044 1378.16 394.075 1420.92 397.943C1428.07 398.651 1435.15 400.885 1442.34 401.648C1448.53 402.356 1450.48 406.768 1450.76 416.192C1455.19 544.809 1457.81 673.262 1456.64 801.824Z" fill="#5A5B5D"/>
<path d="M186.647 347.771C187.602 345.919 188.806 344.121 190.116 342.215C246.998 263.988 307.101 191.972 367.7 120.827C382.142 103.885 396.088 85.9079 409.928 67.7676C413.574 62.9738 417.22 62.6469 421.397 62.2656C462.174 58.2344 503.021 54.0398 543.798 50.0086C588.398 45.6506 632.997 40.9112 677.632 37.5338C724.533 33.9929 771.504 31.9773 818.44 29.0901C900.595 24.1328 982.822 21.518 1065.05 23.3701C1108.94 24.4596 1152.9 27.1834 1196.83 29.199C1222.92 30.3975 1249.07 32.8489 1275.2 32.522C1283.48 32.4131 1289.14 35.0824 1295.05 43.635C1346.8 118.321 1396.32 196.33 1444.18 277.008C1452.39 290.79 1460.78 304.245 1469.45 317.319C1471.12 319.825 1472.99 323.203 1474.98 325.872C1465.17 324.674 1454.83 324.401 1444.92 324.292C1445.17 323.639 1445.42 322.985 1445.6 322.113C1438.98 314.214 1431.12 315.522 1423.93 314.923C1387.65 312.035 1351.34 308.876 1314.98 307.841C1216.55 305.062 1118.07 302.284 1019.56 301.522C863.854 300.269 708.215 303.537 552.683 313.833C503.871 317.102 455.094 320.915 406.353 325.654C345.506 331.592 284.908 342.16 223.884 342.977C222.893 342.977 221.937 344.012 220.946 344.557C220.804 345.483 220.592 346.355 220.45 347.281C209.23 346.682 197.974 347.117 186.647 347.771Z" fill="#4D4D4F"/>
<path d="M72.2141 240.88L177.497 392.187V1352.83L72.2141 1495.04V240.88Z" fill="#393536"/>
<path d="M87.8982 318.395L161.812 433.742V1315.67L87.8982 1417.5V318.395Z" fill="#4F4C4C"/>
<mask id="mask1_319_103188" style="mask-type:luminance" maskUnits="userSpaceOnUse" x="0" y="240" width="74" height="1260">
<path d="M0 240.563H73.5922V1500H0V240.563Z" fill="white"/>
</mask>
<g mask="url(#mask1_319_103188)">
<path d="M72.2122 1495.04H0.0917969V240.88H72.2122V1495.04Z" fill="#656263"/>
</g>
<path d="M210.679 653.142H177.494V495.571H210.679V653.142Z" fill="black"/>
<path d="M177.496 653.14L144.311 736.597V412.111L177.496 495.569V653.14Z" fill="#2E2A2B"/>
<path d="M210.679 1179.23H177.494V1021.69H210.679V1179.23Z" fill="black"/>
<path d="M177.496 1179.23L144.311 1262.72V938.236L177.496 1021.69V1179.23Z" fill="#2E2A2B"/>
</svg>
