<svg width="326" height="200" viewBox="0 0 326 200" fill="none" xmlns="http://www.w3.org/2000/svg">
<mask id="mask0_6_4622" style="mask-type:luminance" maskUnits="userSpaceOnUse" x="0" y="0" width="325" height="161">
<path d="M0 3.63086L322.987 0.00787237L324.747 156.937L1.7603 160.56L0 3.63086Z" fill="white"/>
</mask>
<g mask="url(#mask0_6_4622)">
<path fill-rule="evenodd" clip-rule="evenodd" d="M106.626 6.25276C83.8276 5.97085 50.7548 7.26351 41.0162 10.6315C37.2454 11.9412 33.3613 15.3807 31.2293 17.5223C26.7103 22.0716 24.263 29.3628 23.3659 35.4735C21.2616 49.871 20.9107 67.9849 22.9868 80.9035C25.2279 94.8407 27.566 95.9063 26.4082 97.8504C23.4682 102.788 18.7569 107.318 15.4591 112.155C11.9669 117.263 4.30295 126.094 2.80308 132.261C0.815319 140.42 2.43902 157.03 5.90742 159.575C7.32352 160.613 30.3737 158.401 34.9429 158.333C66.1216 157.901 97.678 156.905 128.955 156.461C177.435 155.775 226.286 155.463 274.775 155.681C289.616 155.751 319.275 155.764 321.837 153.36C325.051 150.328 324.157 137.177 323.699 133.506C322.216 121.596 314.748 112.71 307.901 105.353C304.07 101.237 295.723 94.204 295.843 94.093C298.411 91.7216 298.464 86.1579 298.511 84.4786C298.699 77.7943 300.526 26.8949 296.718 17.5562C290.879 3.25331 271.533 2.58156 258.567 1.94796C238.614 0.975783 206.536 1.4563 171.884 5.75666C168.071 6.22735 164.147 7.03944 160.756 9.02507C159.955 9.48941 158.155 11.353 157.222 11.3634C156.015 11.377 146.933 8.20907 143.791 7.86028C131.525 6.51111 118.961 6.41066 106.626 6.25276Z" fill="#F6CA9F"/>
</g>
<path fill-rule="evenodd" clip-rule="evenodd" d="M294.75 18.177C294.392 18.0658 293.922 17.7529 293.431 17.4347C292.856 17.0626 292.27 16.6797 291.78 16.4822C288.462 15.1259 284.989 14.1883 281.476 13.4816C270.605 11.2884 259.404 11.9846 248.389 12.1081C228.773 12.3281 209.282 13.4465 189.728 14.796C181.856 15.3397 172.625 15.9754 165.461 19.523C164.364 20.0675 162.238 21.2434 160.717 22.632C160.354 22.9708 160.028 23.3201 159.753 23.6743C159.733 22.9558 159.703 22.2374 159.679 21.519C159.597 19.5778 159.526 17.631 159.405 15.6957C159.365 15.0653 159.331 14.4402 159.307 13.8096C159.3 13.678 159.26 13.47 159.213 13.2675L159.196 13.1799C159.207 13.1688 159.212 13.1523 159.223 13.1412C159.368 12.8653 159.26 12.5264 158.989 12.3813C158.763 12.2631 158.582 12.2926 158.457 12.3324C158.315 12.3833 158.195 12.478 158.114 12.6325C158.072 12.7262 158.029 12.8693 158.042 13.0502C158.056 13.264 158.175 13.6522 158.183 13.8551C158.207 14.4913 158.241 15.1273 158.281 15.7632C158.402 17.6985 158.478 19.6288 158.555 21.5645C158.571 22.0142 158.587 22.4584 158.603 22.9026C158.064 22.2778 157.475 21.6864 156.849 21.1448C154.755 19.3139 152.234 18.1188 149.565 17.3861C141.933 15.3047 132.878 15.538 125.027 15.5931C100.161 15.7733 74.6746 15.0497 49.9297 17.7961C42.812 18.5891 34.5106 19.0059 28.4267 23.4357C28.1764 23.6195 28.12 23.9713 28.3038 24.2216C28.4822 24.4719 28.834 24.5283 29.0898 24.3444C35.0158 20.0262 43.1205 19.6829 50.0519 18.9139C74.7585 16.1734 100.206 16.8974 125.035 16.7177C132.786 16.6582 141.731 16.4152 149.27 18.4702C151.774 19.1608 154.146 20.2754 156.113 21.9924C156.75 22.5449 157.349 23.1526 157.889 23.7994C158.067 24.0114 158.462 24.572 158.657 24.8441C158.764 29.4184 158.749 33.9996 158.905 38.5733C159.479 55.5576 160.768 73.1429 161.436 90.1317C161.426 90.1702 161.421 90.2086 161.421 90.2525C161.401 91.4158 160.884 92.3049 160.36 92.9801C158.727 95.0941 156.359 96.2838 153.844 97.0252C145.034 99.6093 133.477 100.277 124.353 100.741C101.533 101.908 84.8715 102.917 64.1609 102.409C52.4666 102.123 41.3405 102.605 28.9852 98.6562C28.6879 98.5607 28.3715 98.7289 28.2761 99.0207C28.1806 99.318 28.3433 99.6344 28.6406 99.7298C41.1116 103.716 52.3365 103.244 64.1351 103.534C84.8731 104.042 101.556 103.032 124.41 101.865C133.616 101.394 145.277 100.709 154.163 98.1024C156.903 97.2981 159.472 95.9745 161.251 93.6668C161.537 93.296 161.812 92.8705 162.038 92.3907C162.433 93.3848 162.914 94.2407 163.393 94.8827C163.933 95.6118 164.482 96.0884 164.907 96.2866C173.819 100.428 183.01 100.549 191.856 100.796C211.206 101.325 233.179 100.42 252.81 100.534C262.028 100.585 271.39 100.353 280.496 98.8084C283.727 98.2565 289.387 97.6444 293.879 95.5641C294.163 95.4347 294.285 95.0987 294.156 94.8204C294.021 94.5366 293.691 94.4141 293.407 94.5435C289.013 96.5788 283.468 97.1622 280.303 97.6969C271.268 99.2357 261.971 99.4606 252.82 99.4097C233.194 99.3006 211.232 100.2 191.887 99.6707C183.189 99.4336 174.147 99.3376 165.378 95.2664C165.069 95.1217 164.692 94.7474 164.296 94.2142C163.633 93.3164 162.966 91.9963 162.597 90.4204C162.591 90.382 162.574 90.3493 162.563 90.311C162.563 90.2946 162.568 90.2781 162.568 90.2616C161.899 73.218 160.61 55.5779 160.029 38.5388C159.89 34.4641 159.888 30.3879 159.81 26.3125C159.907 26.2126 159.966 26.0748 159.964 25.9267C159.955 25.0765 160.626 24.2405 161.478 23.4629C162.912 22.1466 164.918 21.0433 165.961 20.5324C172.999 17.0465 182.072 16.451 189.807 15.9198C209.339 14.5706 228.802 13.4525 248.402 13.2326C259.34 13.1099 270.458 12.4037 281.252 14.5813C284.694 15.2724 288.101 16.1943 291.358 17.5238C291.881 17.7374 292.539 18.2018 293.142 18.5846C293.617 18.8865 294.064 19.1393 294.417 19.2506C294.708 19.3405 295.025 19.1779 295.12 18.8806C295.21 18.5833 295.047 18.2669 294.75 18.177Z" fill="#BC9671"/>
<path fill-rule="evenodd" clip-rule="evenodd" d="M320.384 127.492C317.675 126.14 314.49 125.852 312.168 125.73C301.447 125.154 287.703 125.56 276.986 125.823C207.133 127.561 160.57 127.392 93.925 128.474C78.8627 128.72 44.1642 127.897 22.7945 129.278C16.3364 129.696 11.0822 130.32 7.93778 131.228C6.4777 131.65 5.4519 132.15 4.9039 132.693C4.68688 132.91 4.68539 133.266 4.90733 133.489C5.12379 133.711 5.48035 133.707 5.69737 133.491C6.32131 132.87 7.7094 132.388 9.67402 131.949C12.8262 131.249 17.4071 130.754 22.8674 130.402C44.2207 129.021 78.8917 129.845 93.9432 129.604C160.594 128.511 207.157 128.686 277.015 126.947C287.705 126.679 301.416 126.279 312.104 126.85C314.3 126.968 317.32 127.219 319.88 128.496C320.156 128.642 320.495 128.528 320.634 128.247C320.768 127.971 320.66 127.632 320.384 127.492Z" fill="#BC9671"/>
<mask id="mask1_6_4622" style="mask-type:luminance" maskUnits="userSpaceOnUse" x="3" y="152" width="323" height="48">
<path d="M3.11719 156.332L325.402 152.716L325.886 195.898L3.60157 199.513L3.11719 156.332Z" fill="white"/>
</mask>
<g mask="url(#mask1_6_4622)">
<path fill-rule="evenodd" clip-rule="evenodd" d="M320.998 153.418C323.04 153.966 324.637 155.517 324.978 158.048C325.506 162.009 324.148 163.286 321.859 164.595C321.346 164.886 311.648 165.489 311.038 165.375C310.867 165.344 315.992 186.924 316.195 192.304C316.234 193.356 311.289 195.107 309.286 194.559C308.13 194.243 296 165.84 295.364 165.847C281.44 165.91 265.739 166.432 258.12 166.539C202.597 167.299 72.8485 169.232 29.048 169.838C27.5285 169.855 21.9077 187.2 17.2116 197.479C16.371 199.326 10.8866 198.022 10.1692 196.669C9.25008 194.94 14.4821 169.831 14.3231 169.844C10.5835 170.023 5.90556 170.18 4.86371 168.76C3.71615 167.209 3.58625 162.964 4.48844 160.738C5.88158 157.282 13.3373 157.769 21.3569 157.663C21.3569 157.663 318.781 152.829 320.998 153.418Z" fill="#BC9671"/>
</g>
<path fill-rule="evenodd" clip-rule="evenodd" d="M15.2873 170.174C16.5441 170.231 18.0573 170.17 18.7095 170.125C21.8448 169.925 24.8277 170.319 27.9448 169.966C28.2516 169.93 28.4788 169.653 28.4425 169.346C28.4061 169.034 28.1293 168.812 27.8226 168.849C24.7219 169.201 21.7555 168.807 18.6421 169.006C18.0118 169.046 16.5479 169.101 15.3351 169.049C15.0277 169.036 14.7617 169.28 14.7487 169.588C14.7357 169.895 14.9745 170.161 15.2873 170.174Z" fill="#97744C"/>
<path fill-rule="evenodd" clip-rule="evenodd" d="M309.732 165.099C308.844 165.109 307.961 165.097 307.077 165.085C303.72 165.04 300.363 165.04 297.012 165.061C296.699 165.064 296.45 165.314 296.453 165.627C296.451 165.934 296.706 166.183 297.013 166.185C300.359 166.17 303.711 166.165 307.063 166.21C307.951 166.222 308.845 166.234 309.739 166.224C310.052 166.22 310.302 165.965 310.298 165.658C310.295 165.345 310.04 165.101 309.732 165.099Z" fill="#97744C"/>
<path fill-rule="evenodd" clip-rule="evenodd" d="M102.24 51.0533C102.348 50.4266 102.417 49.7072 101.906 49.1698C100.963 48.1764 99.1143 48.2191 97.8881 48.4632C94.4451 49.1602 91.5433 50.663 87.9468 50.8789C79.8985 51.3642 75.5372 49.4272 63.9077 49.5357C59.6947 49.5719 55.6295 50.0674 51.4462 50.3064C48.6445 50.464 45.8476 50.0729 43.0441 50.0659C41.9852 50.0614 40.3767 49.9697 39.5965 50.8398C38.594 51.9537 38.8929 54.1449 39.345 55.3248C40.2831 57.7611 41.0648 59.4695 41.0484 62.4048C41.0347 64.605 38.4954 71.0413 37.7564 79.4984C36.8423 89.9543 37.8437 97.0642 37.8591 99.4176C37.8787 102.139 35.6898 105.575 36.078 108.391C36.3467 110.336 37.9961 110.164 39.4934 109.636C41.1219 109.064 42.479 107.776 44.1872 107.461C48.0743 106.742 55.9558 108.014 60.1106 108.176C66.642 108.427 70.8037 108.215 77.3268 107.731C80.9392 107.46 86.94 106.871 90.5489 106.787C92.9075 106.739 98.0484 110.192 99.9282 108.553C100.787 107.802 100.444 105.628 100.138 104.765C99.3049 102.388 99.5036 100.043 99.8869 97.5368C101.537 86.6721 102.331 81.1605 101.668 69.9377C101.451 66.237 100.364 61.8053 100.334 58.1299C100.317 55.6613 101.983 52.5429 102.24 51.0533Z" fill="#9C4830"/>
<path fill-rule="evenodd" clip-rule="evenodd" d="M54.7479 73.4431C54.2737 73.2017 50.6342 75.2436 50.6011 75.7155C50.5825 76.0063 51.9726 77.2572 52.7667 77.665C53.2576 77.9226 54.2946 78.4812 54.5779 78.3245C54.8558 78.1733 55.1008 73.62 54.7479 73.4431Z" fill="#702D19"/>
<path fill-rule="evenodd" clip-rule="evenodd" d="M65.5463 66.6947C65.0666 66.4534 61.4271 68.4953 61.3941 68.9727C61.3809 69.2634 62.771 70.5143 63.5596 70.9167C64.0559 71.1743 65.0874 71.7329 65.3763 71.5816C65.6542 71.425 65.8991 66.8717 65.5463 66.6947Z" fill="#702D19"/>
<path fill-rule="evenodd" clip-rule="evenodd" d="M75.3803 58.6403C74.906 58.3989 71.2666 60.4409 71.2335 60.9183C71.2149 61.209 72.605 62.4545 73.3991 62.8677C73.8954 63.1198 74.9269 63.6839 75.2103 63.5272C75.4881 63.3706 75.7386 58.8172 75.3803 58.6403Z" fill="#702D19"/>
<path fill-rule="evenodd" clip-rule="evenodd" d="M85.6445 65.4431C85.1649 65.2072 81.5254 67.2437 81.4978 67.721C81.4737 68.0119 82.8693 69.2627 83.6579 69.6705C84.1542 69.9281 85.1857 70.4813 85.4691 70.3301C85.747 70.1789 85.9974 65.62 85.6445 65.4431Z" fill="#702D19"/>
<path fill-rule="evenodd" clip-rule="evenodd" d="M85.1254 51.4319C84.6457 51.1906 81.0062 53.2326 80.9786 53.7099C80.96 54.0007 82.3501 55.2461 83.1442 55.6539C83.635 55.9115 84.672 56.4701 84.9554 56.3189C85.2333 56.1677 85.4782 51.6089 85.1254 51.4319Z" fill="#702D19"/>
<path fill-rule="evenodd" clip-rule="evenodd" d="M94.1908 71.7057C93.7111 71.4644 90.0771 73.5063 90.0441 73.9837C90.0254 74.2745 91.4155 75.5199 92.2096 75.9277C92.7004 76.1853 93.7374 76.7439 94.0208 76.5927C94.2987 76.436 94.5437 71.8827 94.1908 71.7057Z" fill="#702D19"/>
<path fill-rule="evenodd" clip-rule="evenodd" d="M94.3105 85.7931C93.8309 85.5573 90.1913 87.5938 90.1583 88.0711C90.1397 88.3619 91.5298 89.6073 92.3238 90.0151C92.8202 90.2727 93.8517 90.8313 94.1351 90.6801C94.413 90.5289 94.6579 85.9701 94.3105 85.7931Z" fill="#702D19"/>
<path fill-rule="evenodd" clip-rule="evenodd" d="M93.2377 99.2354C92.7635 98.9995 89.124 101.036 89.0909 101.513C89.0723 101.804 90.4624 103.05 91.2565 103.463C91.7473 103.715 92.7843 104.274 93.0677 104.122C93.3456 103.971 93.5905 99.4124 93.2377 99.2354Z" fill="#702D19"/>
<path fill-rule="evenodd" clip-rule="evenodd" d="M84.0726 92.5902C83.5985 92.3542 79.9534 94.3908 79.9259 94.8681C79.9072 95.1589 81.2973 96.4043 82.086 96.8176C82.5823 97.0697 83.6193 97.6283 83.9027 97.4771C84.1806 97.3259 84.4255 92.7671 84.0726 92.5902Z" fill="#702D19"/>
<path fill-rule="evenodd" clip-rule="evenodd" d="M84.5336 78.8914C84.0539 78.6556 80.4199 80.692 80.3868 81.1639C80.3682 81.4602 81.7583 82.7056 82.5469 83.1189C83.0432 83.371 84.0747 83.9296 84.3635 83.7729C84.6415 83.6272 84.8864 79.0684 84.5336 78.8914Z" fill="#702D19"/>
<path fill-rule="evenodd" clip-rule="evenodd" d="M74.955 72.0807C74.4752 71.8339 70.8358 73.8813 70.8027 74.3532C70.7895 74.6439 72.1797 75.8948 72.9683 76.3027C73.4646 76.5603 74.4961 77.1189 74.7795 76.9622C75.0629 76.811 75.3078 72.2577 74.955 72.0807Z" fill="#702D19"/>
<path fill-rule="evenodd" clip-rule="evenodd" d="M65.0096 80.4931C64.5355 80.2572 60.896 82.2991 60.8629 82.771C60.8442 83.0618 62.2344 84.3072 63.0285 84.7205C63.5248 84.9781 64.5563 85.5312 64.8396 85.3745C65.1176 85.2288 65.368 80.67 65.0096 80.4931Z" fill="#702D19"/>
<path fill-rule="evenodd" clip-rule="evenodd" d="M74.6224 87.4457C74.1427 87.2043 70.5033 89.2463 70.4702 89.7237C70.457 90.0089 71.8472 91.2598 72.6357 91.6676C73.1321 91.9252 74.1636 92.4839 74.4469 92.3272C74.7303 92.176 74.9753 87.6226 74.6224 87.4457Z" fill="#702D19"/>
<path fill-rule="evenodd" clip-rule="evenodd" d="M74.0238 101.053C73.5442 100.817 69.9046 102.854 69.877 103.325C69.8584 103.622 71.2485 104.867 72.0372 105.28C72.5334 105.533 73.5649 106.091 73.8483 105.934C74.1263 105.789 74.3767 101.23 74.0238 101.053Z" fill="#702D19"/>
<path fill-rule="evenodd" clip-rule="evenodd" d="M63.8931 93.9741C63.4134 93.7327 59.7739 95.7747 59.7463 96.2465C59.7222 96.5374 61.1123 97.7883 61.9065 98.2015C62.4027 98.4536 63.4342 99.0122 63.7176 98.8556C63.9956 98.7099 64.246 94.151 63.8931 93.9741Z" fill="#702D19"/>
<path fill-rule="evenodd" clip-rule="evenodd" d="M53.9598 86.7943C53.4802 86.5585 49.8407 88.6005 49.8131 89.0723C49.7944 89.3631 51.1846 90.614 51.9732 91.0218C52.4695 91.2794 53.501 91.838 53.7899 91.6813C54.0623 91.5302 54.3128 86.9768 53.9598 86.7943Z" fill="#702D19"/>
<path fill-rule="evenodd" clip-rule="evenodd" d="M43.5184 82.2703C43.0442 82.0289 39.4047 84.0709 39.3717 84.5428C39.353 84.8336 40.7432 86.0845 41.5372 86.4922C42.0335 86.7498 43.0651 87.3085 43.3539 87.1517C43.6263 87.0006 43.8768 82.4472 43.5184 82.2703Z" fill="#702D19"/>
<path fill-rule="evenodd" clip-rule="evenodd" d="M43.4496 95.7505C42.9754 95.5146 39.3359 97.5566 39.3029 98.0285C39.2842 98.3192 40.6744 99.5701 41.4684 99.9779C41.9592 100.23 42.9963 100.794 43.2796 100.637C43.5575 100.486 43.8025 95.9275 43.4496 95.7505Z" fill="#702D19"/>
<path fill-rule="evenodd" clip-rule="evenodd" d="M44.3789 67.5687C43.8992 67.3273 40.2597 69.3693 40.2321 69.8411C40.208 70.132 41.6036 71.3828 42.3922 71.7906C42.8886 72.0482 43.9201 72.6069 44.2089 72.4501C44.4813 72.299 44.7318 67.7456 44.3789 67.5687Z" fill="#702D19"/>
<path fill-rule="evenodd" clip-rule="evenodd" d="M45.2347 52.8666C44.755 52.6252 41.1156 54.6672 41.0825 55.1391C41.0693 55.4298 42.4595 56.6807 43.248 57.0885C43.7444 57.3461 44.7814 57.9047 45.0647 57.748C45.3426 57.5969 45.5876 53.0435 45.2347 52.8666Z" fill="#702D19"/>
<path fill-rule="evenodd" clip-rule="evenodd" d="M65.4974 51.5973C65.0177 51.356 61.3783 53.3979 61.3452 53.8698C61.332 54.1605 62.7222 55.4114 63.5107 55.8193C64.0071 56.0769 65.0386 56.6355 65.3274 56.4787C65.6053 56.3276 65.8503 51.7743 65.4974 51.5973Z" fill="#702D19"/>
<path fill-rule="evenodd" clip-rule="evenodd" d="M94.369 57.7856C93.8948 57.5442 90.2498 59.5862 90.2222 60.058C90.2036 60.3488 91.5937 61.5997 92.3823 62.0076C92.8841 62.2651 93.9157 62.8237 94.199 62.667C94.4769 62.5159 94.7219 57.9625 94.369 57.7856Z" fill="#702D19"/>
<path fill-rule="evenodd" clip-rule="evenodd" d="M100.357 94.3879C100.244 95.1517 100.127 95.943 100.005 96.7619C99.4067 96.2748 98.8793 95.7266 98.8883 95.5455C98.9025 95.3423 99.5663 94.8576 100.357 94.3879ZM101.873 79.4539C101.835 80.9356 101.763 82.3518 101.653 83.7685C101.388 83.6398 101.123 83.5001 100.941 83.4089C100.146 82.9954 98.7555 81.7492 98.7742 81.4582C98.7978 81.1178 100.634 79.9945 101.873 79.4539ZM101.655 69.7622C101.456 69.6602 101.263 69.5581 101.114 69.4885C100.325 69.0749 98.9339 67.8232 98.9526 67.5322C98.9716 67.2687 100.121 66.5097 101.217 65.9378C101.407 67.2523 101.575 68.5452 101.655 69.7622ZM102.316 50.4105C102.313 50.63 102.282 50.8443 102.241 51.0532C102.096 51.8723 101.535 53.1788 101.057 54.5941C101.018 54.5726 100.98 54.5566 100.946 54.5405C100.157 54.1269 98.7608 52.8807 98.7849 52.5842C98.8081 52.2054 101.141 50.8296 102.316 50.4105Z" fill="#702D19"/>
<path fill-rule="evenodd" clip-rule="evenodd" d="M55.2665 58.043C54.7923 57.8016 51.1528 59.8436 51.1197 60.3155C51.101 60.6063 52.4912 61.8572 53.2853 62.2649C53.7761 62.5226 54.8131 63.0812 55.0965 62.9245C55.3744 62.7733 55.6194 58.22 55.2665 58.043Z" fill="#702D19"/>
<path fill-rule="evenodd" clip-rule="evenodd" d="M53.5053 100.57C53.031 100.328 49.3861 102.371 49.3585 102.842C49.3398 103.133 50.73 104.384 51.5186 104.792C52.0149 105.049 53.0464 105.608 53.3352 105.451C53.6131 105.3 53.8581 100.747 53.5053 100.57Z" fill="#702D19"/>
<path fill-rule="evenodd" clip-rule="evenodd" d="M5.11795 66.1708C4.21909 68.2053 6.6393 71.7003 7.59793 74.0157C10.9927 82.2288 13.3353 99.3414 12.5553 110.992C12.4335 112.853 10.2021 119.341 11.4931 120.473C12.9226 121.73 14.2131 120.865 15.1254 120.515C18.4902 119.209 18.7004 117.896 22.4986 118.534C29.4188 119.701 35.3357 119.953 42.3003 118.717C46.467 117.979 51.443 116.508 55.616 115.847C57.9819 115.475 60.0327 116.362 62.3197 116.787C63.1609 116.942 64.53 117.217 65.2245 116.529C66.7277 115.053 64.4366 111.332 63.7733 109.918C62.6379 107.49 61.1039 105.235 60.0394 102.773C58.2932 98.7164 57.6717 94.1754 57.1128 89.842C56.2956 83.4982 55.4716 77.0502 56.437 70.6754C56.8251 68.1035 58.6527 62.295 56.468 61.2113C54.6915 60.326 52.5811 62.9337 51.0136 63.5548C47.8511 64.8027 43.461 64.7038 40.1785 64.5486C34.8594 64.2846 31.5104 64.5526 23.9652 65.8716C20.8496 66.4168 16.0216 66.8879 12.9158 67.3232C10.5769 67.6567 6.3645 63.3424 5.11795 66.1708Z" fill="#527068"/>
<path fill-rule="evenodd" clip-rule="evenodd" d="M8.98059 75.0042C9.03027 75.0311 9.19021 75.1061 9.20125 75.1115C10.0344 75.5355 10.8405 75.9928 11.6468 76.4666C14.5351 78.1568 17.3748 79.9245 20.2145 81.6921C28.2749 86.6874 36.737 90.8113 45.4523 94.521C49.5702 96.2743 53.8788 98.404 58.1885 99.6559C58.4032 99.7193 58.5319 99.9483 58.4685 100.163C58.4051 100.383 58.1761 100.506 57.9614 100.443C53.6187 99.1804 49.2825 97.0401 45.1316 95.2707C36.3832 91.545 27.8825 87.405 19.7834 82.3827C16.9493 80.626 14.115 78.8583 11.2378 77.1734C10.4425 76.705 9.64746 76.2531 8.83087 75.8398C8.8088 75.8291 8.53854 75.7005 8.48874 75.6626C8.31715 75.5274 8.31524 75.3573 8.32541 75.2859C8.35038 75.0662 8.55149 74.8993 8.77671 74.9242C8.85363 74.9343 8.92531 74.9665 8.98059 75.0042Z" fill="#66877D"/>
<path fill-rule="evenodd" clip-rule="evenodd" d="M12.7578 96.2704C12.7247 96.2543 12.6971 96.2381 12.6639 96.2166C12.4814 96.0869 12.4402 95.835 12.5698 95.647C12.6238 95.5751 12.7267 95.4533 12.9464 95.4782C12.9629 95.478 13.0398 95.4936 13.1502 95.5528C13.4868 95.7245 15.1213 96.6663 15.1986 96.7148C17.5232 98.0383 19.8853 99.2846 22.2365 100.548C31.8735 105.723 41.2624 111.279 51.4785 115.263C51.6879 115.348 51.7893 115.583 51.7093 115.792C51.6294 116.002 51.3892 116.109 51.1798 116.023C40.936 112.023 31.5142 106.462 21.8496 101.265C19.4928 100.002 17.1197 98.7506 14.7951 97.4216C14.7178 97.3785 13.1054 96.4475 12.7743 96.2757L12.7578 96.2704Z" fill="#66877D"/>
<path fill-rule="evenodd" clip-rule="evenodd" d="M19.102 67.3199C18.649 68.0106 17.6355 69.5853 16.7288 70.9064C14.7481 73.7919 13.0684 76.1255 10.2234 79.7063C10.0827 79.8834 10.113 80.1409 10.2901 80.276C10.4617 80.4167 10.7192 80.3919 10.8599 80.2148C13.7212 76.6173 15.4117 74.2672 17.4031 71.3651C18.3098 70.044 19.3288 68.4638 19.7818 67.773C19.9059 67.5852 19.8591 67.3334 19.6713 67.2093C19.4779 67.0853 19.2261 67.132 19.102 67.3199Z" fill="#66877D"/>
<path fill-rule="evenodd" clip-rule="evenodd" d="M37.0984 65.8122C35.5233 68.2164 32.2951 73.3822 30.6205 75.7162C25.0568 83.4812 19.0318 90.7138 12.981 98.0892C12.8403 98.2609 12.8651 98.5185 13.0423 98.6646C13.214 98.8053 13.4715 98.7805 13.6177 98.6033C19.6794 91.2167 25.7097 83.9731 31.2842 76.1915C32.9641 73.8465 36.1977 68.6697 37.7782 66.26C37.9022 66.072 37.85 65.8148 37.6621 65.6907C37.4742 65.5721 37.2224 65.6243 37.0984 65.8122Z" fill="#66877D"/>
<path fill-rule="evenodd" clip-rule="evenodd" d="M56.2089 62.0539C55.6823 63.0364 55.1225 64.0027 54.5793 64.9744C52.4064 68.8556 50.0788 72.6397 47.6795 76.3808C38.7235 90.3394 29.2522 104.342 18.7532 117.199C18.6126 117.376 18.6374 117.634 18.8146 117.774C18.9863 117.92 19.2438 117.89 19.3845 117.719C29.9051 104.834 39.3926 90.8092 48.3647 76.823C50.7749 73.0653 53.1133 69.2701 55.2915 65.3724C55.8347 64.3953 56.3999 63.4288 56.9264 62.4409C57.0339 62.2422 56.9598 61.9906 56.7611 61.8832C56.5624 61.7811 56.3109 61.8553 56.2089 62.0539Z" fill="#66877D"/>
<path fill-rule="evenodd" clip-rule="evenodd" d="M56.19 89.8084C55.3269 91.5898 53.9019 94.14 52.9616 95.8838C52.8541 96.077 52.9281 96.323 53.1269 96.436C53.3255 96.538 53.5715 96.4694 53.6789 96.2652C54.6247 94.5158 56.055 91.9547 56.9236 90.1677C57.02 89.9637 56.935 89.7178 56.7365 89.6213C56.5324 89.5249 56.2865 89.6044 56.19 89.8084Z" fill="#66877D"/>
<path fill-rule="evenodd" clip-rule="evenodd" d="M50.2663 100.156C49.9421 100.604 46.2419 106.247 44.6208 108.46C41.5895 112.597 40.4871 114.579 37.9632 117.493C37.817 117.665 37.8308 117.923 38.0026 118.069C38.1743 118.215 38.4319 118.196 38.5781 118.024C41.1183 115.099 42.2316 113.106 45.2791 108.941C46.9002 106.733 50.6004 101.085 50.93 100.637C51.0596 100.454 51.0183 100.197 50.8413 100.067C50.6588 99.9378 50.4014 99.9736 50.2663 100.156Z" fill="#66877D"/>
<path fill-rule="evenodd" clip-rule="evenodd" d="M60.7643 106.386C58.7174 110.709 56.0617 113.076 54.4355 115.288C54.3004 115.471 54.3417 115.728 54.5242 115.858C54.7067 115.993 54.9585 115.951 55.0936 115.769C56.7415 113.529 59.4241 111.118 61.5032 106.734C61.5996 106.53 61.5147 106.29 61.3106 106.193C61.1066 106.097 60.8607 106.182 60.7643 106.386Z" fill="#66877D"/>
<path fill-rule="evenodd" clip-rule="evenodd" d="M25.7557 67.0203C27.1053 67.5099 28.6045 68.124 29.0567 68.3384C30.7721 69.1531 33.5329 70.2468 35.788 71.2474C42.4209 74.1849 48.9962 77.3754 55.4522 80.688C55.6509 80.79 55.8968 80.7105 55.9989 80.5118C56.1063 80.3076 56.0212 80.0617 55.8226 79.9597C49.3501 76.6418 42.7637 73.4459 36.1198 70.4976C33.8647 69.5024 31.1203 68.4085 29.4051 67.5994C28.9473 67.385 27.415 66.7494 26.0324 66.2547C25.823 66.1747 25.5829 66.2871 25.5085 66.4964C25.4341 66.7112 25.5464 66.9459 25.7557 67.0203Z" fill="#66877D"/>
<path fill-rule="evenodd" clip-rule="evenodd" d="M13.2168 109.322C14.2346 110.079 15.904 111.228 16.9543 111.946C20.6524 114.488 24.3266 116.86 28.4872 119.068C28.6858 119.17 28.9373 119.096 29.0393 118.897C29.1468 118.699 29.0727 118.453 28.874 118.345C24.7356 116.154 21.0889 113.798 17.4129 111.272C16.3737 110.559 14.7154 109.421 13.7031 108.664C13.5261 108.529 13.2687 108.565 13.1336 108.747C12.9985 108.93 13.0343 109.182 13.2168 109.322Z" fill="#66877D"/>
<path fill-rule="evenodd" clip-rule="evenodd" d="M229.167 106.159C231.702 106.624 235.531 108.573 236.564 109.198C247.677 115.893 259.06 121.224 260.808 125.368C262.983 130.506 259.647 149.531 261.06 167.389C261.672 175.074 248.609 173.992 235.866 174.129C228.894 174.202 222.581 177.806 215.959 177.304C206.076 176.565 205.544 174.634 197.42 172.832C187.977 170.733 180.512 171.87 180.612 168.544C181.089 152.848 186.403 131.656 181.787 129.486C168.804 123.377 154.142 116.777 154.999 111.55C155.503 108.483 156.845 106.811 175.854 105.358C182.799 104.83 190.534 108.151 199.018 106.898C213.067 104.82 225.039 105.404 229.167 106.159Z" fill="#F9EBE0"/>
<path d="M163.458 107.478C163.287 107.409 163.1 107.405 162.926 107.479C162.756 107.546 162.621 107.679 162.551 107.85C162.407 108.203 162.571 108.607 162.923 108.751C163.144 108.848 185.11 118.043 194.505 126.666C197.266 129.197 198.412 137.496 197.814 150.664C197.348 160.934 196.005 170.32 195.989 170.413C195.939 170.792 196.2 171.14 196.574 171.196C196.612 171.201 196.651 171.207 196.684 171.206C196.689 171.206 196.695 171.206 196.7 171.206C197.035 171.191 197.312 170.941 197.357 170.612C197.373 170.518 198.736 160.957 199.198 150.83C199.828 136.986 198.569 128.513 195.443 125.646C185.881 116.871 163.678 107.569 163.458 107.478Z" fill="#BC9671"/>
<path d="M216.922 118.794C214.939 117.105 211.088 114.734 205.486 111.736C201.302 109.506 197.695 107.758 197.662 107.742C197.491 107.661 197.304 107.652 197.135 107.715C196.954 107.772 196.819 107.899 196.738 108.065C196.658 108.236 196.643 108.422 196.706 108.592C196.768 108.772 196.896 108.908 197.061 108.988C197.205 109.058 211.497 115.991 216.023 119.847C221.324 124.357 223.287 126.711 222.859 133.573C222.346 141.688 222.243 143.691 222.302 151.936C222.304 152.117 222.377 152.292 222.511 152.422C222.644 152.553 222.815 152.622 222.985 152.62L223.023 152.62C223.396 152.604 223.689 152.299 223.685 151.926C223.626 143.725 223.729 141.733 224.237 133.662C224.469 129.923 224.034 127.361 222.775 125.093C221.503 122.792 219.37 120.879 216.922 118.794Z" fill="#BC9671"/>
<path d="M223.412 156.483C223.279 156.359 223.097 156.284 222.911 156.297C222.532 156.312 222.234 156.634 222.249 157.012C222.251 157.122 222.587 168.518 221.504 174.192C221.437 174.566 221.682 174.931 222.051 175.003C222.1 175.008 222.144 175.013 222.194 175.013C222.199 175.013 222.205 175.013 222.21 175.013C222.534 175.004 222.8 174.77 222.862 174.451C223.992 168.541 223.633 157.079 223.632 156.969C223.624 156.783 223.545 156.608 223.412 156.483Z" fill="#BC9671"/>
<path d="M204.789 119.55C204.584 119.41 204.391 119.281 204.214 119.151C202.449 117.87 183.32 107.233 182.503 106.782C182.172 106.599 181.751 106.719 181.568 107.055C181.38 107.387 181.5 107.808 181.831 107.991C187.357 111.061 201.998 119.253 203.403 120.268C203.603 120.414 203.818 120.56 204.023 120.7C206.239 122.195 209.584 124.456 208.946 134.613C208.932 134.794 208.994 134.969 209.116 135.11C209.239 135.251 209.404 135.332 209.591 135.341C209.607 135.346 209.624 135.346 209.646 135.346C209.646 135.346 209.651 135.345 209.657 135.345C210.013 135.33 210.301 135.053 210.324 134.696C210.627 129.92 210.11 126.321 208.747 123.697C207.564 121.423 205.966 120.344 204.789 119.55Z" fill="#BC9671"/>
<path d="M209.57 137.426L209.565 137.426C209.181 137.435 208.883 137.751 208.892 138.135C208.909 139.112 209.436 162.126 208.807 172.096C208.784 172.475 209.073 172.806 209.457 172.829C209.474 172.829 209.49 172.829 209.507 172.829C209.523 172.829 209.539 172.828 209.561 172.828C209.907 172.797 210.167 172.525 210.191 172.185C210.833 161.979 210.277 138.334 210.269 138.098C210.265 137.719 209.949 137.421 209.57 137.426Z" fill="#BC9671"/>
<path d="M217.713 110.639C213.821 108.488 210.34 106.755 210.307 106.733C209.965 106.567 209.55 106.709 209.383 107.045C209.303 107.216 209.289 107.403 209.345 107.578C209.408 107.753 209.53 107.894 209.69 107.974C209.833 108.044 223.521 114.875 226.856 118.217C226.984 118.347 227.165 118.422 227.352 118.42C227.357 118.419 227.368 118.419 227.374 118.419C227.544 118.412 227.708 118.344 227.833 118.222C227.963 118.089 228.038 117.918 228.036 117.732C228.039 117.545 227.966 117.376 227.833 117.24C226.357 115.759 222.952 113.537 217.713 110.639Z" fill="#BC9671"/>
<path d="M237.922 128.982C237.666 126.198 235.795 123.762 234.274 122.204C232.642 120.533 231.112 119.529 231.051 119.492C230.741 119.287 230.325 119.357 230.104 119.656C229.995 119.8 229.954 119.981 229.983 120.162C230.012 120.337 230.118 120.501 230.273 120.603C230.334 120.641 236.11 124.477 236.546 129.108C236.808 131.903 236.515 136.081 236.225 140.128C236.013 143.175 235.809 146.046 235.886 147.982C235.925 149.057 236.041 150.581 236.176 152.351C236.589 157.833 237.214 166.127 236.369 170.991C236.338 171.167 236.378 171.342 236.484 171.489C236.59 171.636 236.761 171.738 236.942 171.764C236.981 171.769 237.019 171.774 237.058 171.774C237.063 171.773 237.069 171.773 237.074 171.773C237.398 171.759 237.675 171.525 237.732 171.212C238.608 166.188 237.971 157.801 237.552 152.237C237.422 150.483 237.307 148.97 237.267 147.928C237.192 146.064 237.396 143.22 237.609 140.205C237.897 136.115 238.196 131.882 237.922 128.982Z" fill="#BC9671"/>
<path d="M250.094 157.67C249.57 153.534 248.985 148.85 249.13 144.158C249.665 127.282 249.615 124.336 244.633 119.4C241.393 116.188 225.638 107.949 224.97 107.605C224.639 107.428 224.234 107.542 224.046 107.852C223.949 108.012 223.923 108.193 223.975 108.368C224.021 108.543 224.143 108.695 224.309 108.781C224.474 108.867 240.583 117.305 243.64 120.338C245.831 122.508 247.041 124.211 247.583 127.508C248.136 130.881 248.007 136.018 247.747 144.118C247.598 148.915 248.194 153.654 248.718 157.839C249.375 163.049 249.941 167.547 248.865 170.396C248.801 170.566 248.808 170.747 248.887 170.911C248.966 171.075 249.115 171.199 249.297 171.258C249.368 171.284 249.445 171.294 249.522 171.294C249.528 171.293 249.533 171.293 249.539 171.293C249.824 171.279 250.069 171.112 250.165 170.853C251.353 167.701 250.768 163.05 250.094 157.67Z" fill="#BC9671"/>
</svg>
