<svg width="176" height="189" viewBox="0 0 176 189" fill="none" xmlns="http://www.w3.org/2000/svg">
<mask id="mask0_142_170334" style="mask-type:luminance" maskUnits="userSpaceOnUse" x="0" y="0" width="176" height="189">
<path d="M0 0H176V188.292H0V0Z" fill="white"/>
</mask>
<g mask="url(#mask0_142_170334)">
<path d="M175.869 9.01945C175.845 65.3789 175.817 121.743 175.783 178.107C175.783 179.638 175.792 181.178 175.667 182.709C175.408 185.981 173.329 187.984 170.042 188.219C169.484 188.258 168.911 188.229 168.348 188.229C116.212 188.205 64.0704 188.166 11.934 188.133C9.66744 188.133 7.40085 188.109 5.1487 188.008C1.78972 187.844 0.230537 186.193 0.119854 182.795C0.0957924 181.987 0.105417 181.178 0.105417 180.369C0.105417 151.867 0.105417 123.36 0.105417 94.8581C0.158351 94.8581 0.206475 94.8581 0.254598 94.8581C0.254598 66.0286 0.254597 37.1992 0.269035 8.3697C0.269035 7.2531 0.331594 6.10763 0.504837 5.00065C1.05344 1.42946 2.4105 0.274352 5.95716 0.274352C36.5826 0.250288 67.2224 0.211784 97.8623 0.17328C121.303 0.149216 144.744 0.125151 168.189 0.125151C169.695 0.125151 171.187 0.014454 172.631 0.885594C175.124 2.38723 175.47 4.83701 175.845 7.3253C175.932 7.8836 175.869 8.45634 175.869 9.01945Z" fill="black"/>
</g>
<path d="M131.563 52.1338C129.571 64.5367 127.627 76.6124 125.658 88.8131C100.312 88.8131 75.0669 88.8131 49.581 88.8131C47.8534 76.6509 46.1354 64.4838 44.3789 52.1338C73.5847 52.1338 102.468 52.1338 131.563 52.1338ZM88.3103 63.2565C88.3103 63.2902 88.3103 63.3287 88.3103 63.3672C91.4623 63.3672 94.5999 63.4057 97.7472 63.3527C99.802 63.3142 100.726 62.2987 100.774 60.2195C100.822 58.3184 100.153 57.5195 98.2477 57.5195C91.7992 57.5098 85.3363 57.5195 78.8878 57.582C76.934 57.5965 75.986 58.5783 75.9764 60.3302C75.962 62.395 76.7704 63.2276 78.8734 63.2565C82.011 63.2661 85.1631 63.2565 88.3103 63.2565Z" fill="#F1FAFE"/>
<path d="M124.826 135.012C99.8886 135.012 75.163 135.012 50.2546 135.012C50.2546 120.463 50.2546 105.913 50.2546 91.1858C75.1534 91.1858 99.9415 91.1858 124.826 91.1858C124.826 105.702 124.826 120.203 124.826 135.012ZM126.135 43.8892C100.052 43.8892 74.0562 43.8892 48.0987 43.8892C45.9332 46.801 45.2498 48.1053 45.0381 49.7224C73.2622 49.7224 101.496 49.7224 130.192 49.7224C128.685 47.5614 127.415 45.7421 126.135 43.8892Z" fill="white"/>
<path d="M3.11815 185.669C5.82266 182.819 8.15181 180.384 10.4665 177.92C10.6638 177.708 10.7264 177.361 10.8756 177.039C9.96604 176.004 9.22014 176.567 8.59935 177.198C7.35297 178.468 6.18358 179.811 4.98532 181.116C4.23942 181.924 3.47908 182.723 2.26157 183.382C2.26157 182.535 2.26157 181.688 2.26157 180.832C2.22307 124.953 2.19901 69.0608 2.18457 13.1827C2.18457 10.5356 2.19901 7.85956 2.53587 5.25096C2.88235 2.62309 3.74375 2.1033 6.46751 2.11292C15.12 2.15143 23.7725 2.20437 32.4154 2.20437C78.0022 2.22843 123.603 2.23806 169.195 2.2525C171.885 2.2525 173.194 3.42204 173.406 6.10766C173.492 7.3157 173.492 8.53338 173.492 9.73661C173.555 65.2923 173.603 120.848 173.666 176.418C173.666 178.107 173.728 179.811 173.767 181.501C173.853 184.648 172.621 185.919 169.508 185.919C119.311 185.928 69.1139 185.943 18.9073 185.967C14.5377 185.967 10.1778 186.054 5.80822 186.054C4.98532 186.068 4.16723 185.832 3.11815 185.669ZM11.1258 175.046C11.6985 175.162 12.0113 175.273 12.3096 175.282C28.8783 175.345 45.4615 175.446 62.0302 175.46C94.4506 175.47 126.881 175.446 159.296 175.431C160.345 175.431 161.428 175.47 162.434 175.234C162.91 175.133 163.358 174.488 163.594 173.992C163.781 173.593 163.632 173.044 163.632 172.563C163.642 141.308 163.666 110.043 163.68 78.7878C163.695 57.6205 163.642 36.4676 163.728 15.3004C163.743 11.503 162.771 10.8195 159.436 10.935C156.77 11.0217 154.094 10.9591 151.428 10.9591C105.99 10.9928 60.548 11.0313 15.1104 11.0842C11.5493 11.0842 11.4386 11.1949 11.4097 14.7613C11.2365 35.4329 10.9862 56.1044 10.9381 76.7856C10.8659 108.45 10.9237 140.114 10.9381 171.764C10.9381 172.861 11.0632 173.954 11.1258 175.046ZM164.291 175.446C164.041 175.557 163.805 175.672 163.555 175.783C163.704 176.317 163.719 176.952 164.031 177.361C165.672 179.638 167.366 181.862 169.084 184.09C169.368 184.46 169.768 184.773 170.182 185C170.389 185.12 170.841 185.086 171.024 184.937C171.211 184.773 171.312 184.374 171.264 184.114C171.211 183.816 171 183.532 170.812 183.281C169.123 181.043 167.429 178.805 165.687 176.601C165.312 176.144 164.753 175.831 164.291 175.446ZM171.909 4.35575C171.885 3.48461 171.125 3.13327 170.451 3.61937C169.421 4.36538 168.459 5.22208 167.54 6.09322C166.308 7.2387 165.1 8.40824 163.979 9.64998C163.757 9.89062 163.829 10.5115 163.954 10.8965C163.993 11.0217 164.652 10.9928 165.013 10.9447C165.225 10.9062 165.437 10.7233 165.61 10.5596C167.554 8.76921 169.484 6.9788 171.399 5.16432C171.649 4.89961 171.799 4.52902 171.909 4.35575ZM3.55607 4.85148C5.53392 6.7189 7.55027 8.72108 9.7928 10.4585C10.043 10.6607 10.6253 10.4249 11.0488 10.396C11.0151 10.0398 11.1114 9.52965 10.9141 9.34195C9.07096 7.58523 7.17973 5.87182 5.25 4.19211C4.72546 3.73007 4.06617 3.706 3.55607 4.85148ZM13.3683 13.1827C62.7761 13.1827 111.89 13.1827 161.255 13.1827C161.255 66.587 161.255 119.765 161.255 173.145C112.064 173.145 62.805 173.145 13.3683 173.145C13.3683 119.905 13.3683 66.6351 13.3683 13.1827ZM133.916 91.5998C133.863 91.5998 133.801 91.5998 133.753 91.5998C133.753 87.8794 133.762 84.1734 133.753 80.453C133.704 67.6939 133.642 54.9349 133.579 42.1758C133.565 39.6105 132.506 38.4939 129.98 38.3206C129.171 38.2677 128.363 38.2917 127.554 38.2917C100.634 38.3543 73.7096 38.4313 46.7945 38.4939C46.2315 38.4939 45.6588 38.4794 45.1006 38.5035C43.5077 38.6046 42.8965 39.0041 42.5741 40.5827C42.2998 41.9111 42.1747 43.3068 42.1747 44.6592C42.1747 58.3905 42.2132 72.1074 42.2373 85.8387C42.2757 103.772 42.2757 121.695 42.372 139.628C42.3961 143.382 41.4529 144.056 46.8186 144.056C72.5258 144.08 98.233 144.118 123.94 144.157C126.37 144.157 128.796 144.167 131.212 144.118C133.281 144.07 133.642 143.772 133.714 141.741C133.839 138.757 133.916 135.773 133.916 132.789C133.926 119.058 133.916 105.326 133.916 91.5998ZM131.265 67.6314C130.254 74.1625 129.157 80.6792 128.3 87.22C128.026 89.2463 127.14 91.0607 127.155 93.241C127.227 106.958 127.054 120.689 126.919 134.406C126.89 136.942 126.592 137.178 124.128 137.265C123.729 137.279 123.32 137.265 122.92 137.265C102.068 137.279 81.2264 137.289 60.3748 137.289C57.2997 137.289 54.2391 137.226 51.164 137.077C47.9879 136.928 47.8628 136.745 47.8147 133.458C47.8003 132.649 47.8003 131.841 47.8003 131.032C47.7762 118.273 47.7521 105.528 47.7281 92.7645C47.7281 92.0474 47.7521 91.311 47.6415 90.5891C47.0303 86.4499 46.3806 82.306 45.7454 78.1765C45.423 76.0781 45.1006 73.9893 44.7781 71.886C43.9649 86.3489 44.1285 140.162 44.653 141.828C73.5941 141.828 102.492 141.828 131.524 141.828C131.524 116.868 131.524 92.1821 131.524 67.5062C131.438 67.5688 131.351 67.5929 131.265 67.6314ZM131.847 47.3834C131.847 45.7325 131.885 44.0624 131.837 42.4116C131.799 40.9052 131.486 40.6308 129.941 40.5346C129.455 40.4961 128.969 40.5201 128.488 40.5201C101.433 40.4961 74.3785 40.4816 47.3287 40.4576C46.5298 40.4576 45.7358 40.4576 44.9995 40.4576C44.2392 42.2624 44.2392 43.0325 44.8888 44.7603C46.8426 41.9496 46.8426 41.9496 50.5288 41.9399C74.6817 41.8389 98.8201 41.7378 122.973 41.6512C123.618 41.6512 124.268 41.6656 124.912 41.6512C126.135 41.6271 127.068 42.0603 127.8 43.0806C128.883 44.5726 130.066 46.0165 131.212 47.47C131.423 47.4363 131.635 47.4122 131.847 47.3834Z" fill="#D8E2E7"/>
<path d="M98.671 60.1089C98.8923 60.9897 98.4352 61.2785 97.6508 61.264C96.1926 61.264 94.749 61.2544 93.2908 61.2544C88.7721 61.2785 84.2534 61.3122 79.7202 61.341C78.9358 61.341 77.9926 61.5239 78.1177 60.2052C79.7202 59.5747 96.005 59.4881 98.671 60.1089Z" fill="#4D4D4F"/>
</svg>
