<svg width="176" height="189" viewBox="0 0 176 189" fill="none" xmlns="http://www.w3.org/2000/svg">
<mask id="mask0_142_170395" style="mask-type:luminance" maskUnits="userSpaceOnUse" x="0" y="0" width="176" height="189">
<path d="M176 188.292L0.000167847 188.292L0.000167847 -4.57764e-05L176 -4.57764e-05L176 188.292Z" fill="white"/>
</mask>
<g mask="url(#mask0_142_170395)">
<path d="M0.130035 179.272C0.154099 122.913 0.182968 66.5484 0.21666 10.1841C0.21666 8.65359 0.207031 7.11345 0.332153 5.58293C0.59201 2.31015 2.67093 0.307968 5.95772 0.0721283C6.51595 0.0336304 7.08861 0.0625 7.65164 0.0625C59.788 0.0865631 111.929 0.125076 164.065 0.158768C166.332 0.158768 168.599 0.182831 170.851 0.283905C174.21 0.44754 175.769 2.09837 175.88 5.49631C175.904 6.30489 175.894 7.11345 175.894 7.92203C175.894 36.4242 175.894 64.9312 175.894 93.4334C175.841 93.4334 175.793 93.4334 175.745 93.4334C175.745 122.263 175.745 151.092 175.73 179.922C175.73 181.038 175.668 182.184 175.495 183.291C174.946 186.862 173.589 188.017 170.042 188.017C139.417 188.041 108.777 188.08 78.1372 188.118C54.6966 188.142 31.2559 188.166 7.81046 188.166C6.3042 188.166 4.81239 188.277 3.36871 187.406C0.875946 185.904 0.529449 183.454 0.154099 180.966C0.0674744 180.408 0.130035 179.835 0.130035 179.272Z" fill="black"/>
</g>
<path d="M44.4369 136.158C46.4291 123.755 48.3733 111.679 50.3415 99.4784C75.6879 99.4784 100.933 99.4784 126.419 99.4784C128.147 111.641 129.865 123.808 131.621 136.158C102.415 136.158 73.532 136.158 44.4369 136.158ZM87.6897 125.035C87.6897 125.001 87.6897 124.963 87.6897 124.924C84.5377 124.924 81.4001 124.886 78.2528 124.939C76.198 124.977 75.274 125.993 75.2259 128.072C75.1778 129.973 75.8467 130.772 77.7523 130.772C84.2008 130.782 90.6637 130.772 97.1122 130.709C99.066 130.695 100.014 129.713 100.024 127.961C100.038 125.897 99.2296 125.064 97.1266 125.035C93.989 125.025 90.8369 125.035 87.6897 125.035Z" fill="white"/>
<path d="M51.1737 53.2791C76.111 53.2791 100.836 53.2791 125.745 53.2791C125.745 67.8286 125.745 82.3781 125.745 97.1057C100.846 97.1057 76.058 97.1057 51.1737 97.1057C51.1737 82.5899 51.1737 68.0885 51.1737 53.2791ZM49.8647 144.402C75.9473 144.402 101.943 144.402 127.901 144.402C130.066 141.491 130.75 140.186 130.961 138.569C102.737 138.569 74.5036 138.569 45.808 138.569C47.3142 140.73 48.5847 142.549 49.8647 144.402Z" fill="#F1FAFE"/>
<path d="M172.882 2.62296C170.177 5.47221 167.848 7.90756 165.533 10.3718C165.336 10.5835 165.274 10.9301 165.124 11.2525C166.034 12.2873 166.78 11.7242 167.401 11.0937C168.647 9.8231 169.816 8.4803 171.015 7.17599C171.761 6.36742 172.521 5.56847 173.738 4.9091C173.738 5.75618 173.738 6.60326 173.738 7.45996C173.777 63.3381 173.801 119.231 173.815 175.109C173.815 177.756 173.801 180.432 173.464 183.041C173.118 185.668 172.256 186.188 169.532 186.179C160.88 186.14 152.228 186.087 143.585 186.087C97.9978 186.063 52.3966 186.053 6.80493 186.039C4.11487 186.039 2.80592 184.869 2.59419 182.184C2.50757 180.976 2.50757 179.758 2.50757 178.555C2.44501 122.999 2.39688 67.4435 2.33432 11.8734C2.33432 10.1841 2.27176 8.4803 2.23326 6.79095C2.14664 3.6433 3.37859 2.37268 6.49214 2.37268C56.6891 2.36305 106.886 2.34862 157.093 2.32455C161.462 2.32455 165.822 2.23792 170.192 2.23792C171.015 2.22348 171.833 2.45932 172.882 2.62296ZM164.874 13.2451C164.302 13.1296 163.989 13.0189 163.69 13.0093C147.122 12.9467 130.539 12.8456 113.97 12.8312C81.5494 12.8216 49.1194 12.8456 16.7038 12.8601C15.6547 12.8601 14.572 12.8216 13.5662 13.0574C13.0898 13.1585 12.6422 13.8034 12.4064 14.2991C12.2188 14.6986 12.368 15.2473 12.368 15.7286C12.3583 46.9837 12.3343 78.2486 12.3198 109.504C12.3054 130.671 12.3583 151.824 12.2717 172.991C12.2573 176.789 13.2293 177.472 16.5643 177.356C19.2303 177.27 21.9059 177.332 24.5719 177.332C70.0095 177.299 115.452 177.26 160.89 177.207C164.451 177.207 164.561 177.097 164.59 173.53C164.764 152.859 165.014 132.187 165.062 111.506C165.134 79.8416 165.076 48.1774 165.062 16.5275C165.062 15.4302 164.937 14.3376 164.874 13.2451ZM11.7087 12.8456C11.9589 12.7349 12.1947 12.6194 12.4449 12.5087C12.2958 11.9745 12.2813 11.3392 11.9685 10.9301C10.3275 8.65356 8.63361 6.42999 6.91562 4.2016C6.6317 3.83101 6.23227 3.51816 5.81842 3.29196C5.6115 3.17163 5.15913 3.20532 4.97627 3.35452C4.78859 3.51816 4.68753 3.91763 4.73566 4.17754C4.78859 4.47594 5.00034 4.7599 5.188 5.01018C6.87712 7.24818 8.57104 9.48621 10.3131 11.6905C10.6885 12.1478 11.2467 12.4606 11.7087 12.8456ZM4.09081 183.936C4.11487 184.807 4.87521 185.158 5.54893 184.672C6.57877 183.926 7.54121 183.069 8.46037 182.198C9.69231 181.053 10.9002 179.883 12.0215 178.642C12.2428 178.401 12.1706 177.78 12.0455 177.395C12.007 177.27 11.3477 177.299 10.9868 177.347C10.7751 177.385 10.5633 177.568 10.3901 177.732C8.44594 179.522 6.5162 181.313 4.60091 183.127C4.35068 183.392 4.20149 183.762 4.09081 183.936ZM172.444 183.44C170.466 181.573 168.45 179.57 166.207 177.833C165.957 177.631 165.375 177.867 164.951 177.896C164.985 178.252 164.889 178.762 165.086 178.95C166.929 180.706 168.82 182.42 170.75 184.099C171.275 184.561 171.934 184.585 172.444 183.44ZM162.632 175.109C113.224 175.109 64.1097 175.109 14.7452 175.109C14.7452 121.705 14.7452 68.5264 14.7452 15.1462C63.9364 15.1462 113.195 15.1462 162.632 15.1462C162.632 68.3869 162.632 121.656 162.632 175.109ZM42.0838 96.6917C42.1368 96.6917 42.1993 96.6917 42.2475 96.6917C42.2475 100.412 42.2378 104.118 42.2475 107.838C42.2956 120.598 42.3581 133.357 42.4207 146.116C42.4351 148.681 43.4938 149.798 46.0203 149.971C46.8287 150.024 47.6372 150 48.4457 150C75.3656 149.937 102.29 149.86 129.206 149.798C129.769 149.798 130.341 149.812 130.899 149.788C132.492 149.687 133.103 149.287 133.426 147.709C133.7 146.38 133.825 144.985 133.825 143.632C133.825 129.901 133.787 116.184 133.763 102.453C133.724 84.5198 133.724 66.5965 133.628 48.6635C133.604 44.9094 134.547 44.2356 129.181 44.2356C103.474 44.2115 77.767 44.173 52.0597 44.1345C49.6295 44.1345 47.2041 44.1249 44.7883 44.173C42.7191 44.2211 42.3581 44.5195 42.2859 46.5506C42.1608 49.5346 42.0838 52.5186 42.0838 55.5026C42.0742 69.2339 42.0838 82.9652 42.0838 96.6917ZM44.7354 120.66C45.746 114.129 46.8432 107.612 47.6998 101.071C47.9741 99.0452 48.8595 97.2308 48.8451 95.0505C48.7729 81.3337 48.9462 67.6024 49.0809 53.8855C49.1098 51.3491 49.4081 51.1133 51.872 51.0266C52.2714 51.0122 52.6805 51.0266 53.0799 51.0266C73.9316 51.0122 94.7736 51.0025 115.625 51.0025C118.7 51.0025 121.761 51.0651 124.836 51.2143C128.012 51.3635 128.137 51.5464 128.185 54.8336C128.2 55.6422 128.2 56.4508 128.2 57.2594C128.224 70.0184 128.248 82.7631 128.272 95.527C128.272 96.2441 128.248 96.9805 128.359 97.7024C128.97 101.842 129.619 105.985 130.255 110.115C130.577 112.213 130.899 114.302 131.222 116.405C132.035 101.943 131.872 48.1292 131.347 46.464C102.406 46.464 73.5081 46.464 44.4755 46.464C44.4755 71.4238 44.4755 96.1094 44.4755 120.785C44.5622 120.723 44.6488 120.699 44.7354 120.66ZM44.1531 140.908C44.1531 142.559 44.1146 144.229 44.1627 145.88C44.2012 147.386 44.514 147.661 46.0588 147.757C46.5448 147.795 47.0309 147.771 47.5121 147.771C74.5668 147.795 101.621 147.81 128.671 147.834C129.47 147.834 130.264 147.834 131 147.834C131.761 146.029 131.761 145.259 131.111 143.531C129.157 146.342 129.157 146.342 125.471 146.352C101.318 146.453 77.1799 146.554 53.027 146.64C52.3821 146.64 51.7325 146.626 51.0876 146.64C49.8653 146.664 48.9317 146.231 48.2002 145.211C47.1175 143.719 45.9337 142.275 44.7883 140.822C44.5766 140.855 44.3649 140.879 44.1531 140.908Z" fill="#D8E2E7"/>
<path d="M77.329 128.183C77.1077 127.302 77.5648 127.013 78.3492 127.027C79.8074 127.027 81.251 127.037 82.7092 127.037C87.2279 127.013 91.7466 126.979 96.2798 126.95C97.0642 126.95 98.0074 126.768 97.8823 128.086C96.2798 128.717 79.995 128.803 77.329 128.183Z" fill="#4D4D4F"/>
<rect x="69" y="118" width="39" height="13" fill="white"/>
<g clip-path="url(#clip0_142_170395)">
<path d="M108 60H69V78H108V60Z" fill="#F5F5F5"/>
<mask id="mask1_142_170395" style="mask-type:luminance" maskUnits="userSpaceOnUse" x="0" y="5" width="176" height="189">
<path d="M0 5H176V193.292H0V5Z" fill="white"/>
</mask>
<g mask="url(#mask1_142_170395)">
<path d="M175.87 14.0195C175.846 70.3789 175.817 126.743 175.783 183.107C175.783 184.638 175.793 186.178 175.668 187.709C175.408 190.981 173.329 192.984 170.042 193.219C169.484 193.258 168.911 193.229 168.348 193.229C116.212 193.205 64.0709 193.166 11.9345 193.133C9.6679 193.133 7.4013 193.109 5.1492 193.008C1.7902 192.844 0.230998 191.193 0.120298 187.795C0.0962983 186.987 0.105902 186.178 0.105902 185.369C0.105902 156.867 0.105902 128.36 0.105902 99.8581C0.158802 99.8581 0.206994 99.8581 0.255094 99.8581C0.255094 71.0286 0.255099 42.1992 0.269499 13.3697C0.269499 12.2531 0.3321 11.1076 0.5053 10.0007C1.0539 6.42946 2.411 5.27435 5.9576 5.27435C36.5831 5.25025 67.2229 5.21175 97.8628 5.17325C121.303 5.14915 144.744 5.12515 168.189 5.12515C169.696 5.12515 171.188 5.01445 172.631 5.88555C175.124 7.38715 175.471 9.83695 175.846 12.3253C175.933 12.8836 175.87 13.4563 175.87 14.0195Z" fill="black"/>
</g>
<path d="M131.564 57.1338C129.571 69.5367 127.627 81.6124 125.659 93.8131C100.313 93.8131 75.0673 93.8131 49.5814 93.8131C47.8538 81.6509 46.1358 69.4838 44.3794 57.1338C73.5851 57.1338 102.468 57.1338 131.564 57.1338ZM88.3107 68.2565C88.3107 68.2902 88.3107 68.3287 88.3107 68.3672C91.4628 68.3672 94.6004 68.4057 97.7476 68.3527C99.8025 68.3142 100.726 67.2987 100.775 65.2195C100.823 63.3184 100.154 62.5195 98.2481 62.5195C91.7996 62.5098 85.3367 62.5195 78.8883 62.582C76.9345 62.5965 75.9865 63.5783 75.9768 65.3302C75.9624 67.395 76.7709 68.2276 78.8738 68.2565C82.0114 68.2661 85.1635 68.2565 88.3107 68.2565Z" fill="#F1FAFE"/>
<path d="M124.826 140.012C99.8886 140.012 75.163 140.012 50.2547 140.012C50.2547 125.463 50.2547 110.913 50.2547 96.1858C75.1534 96.1858 99.9415 96.1858 124.826 96.1858C124.826 110.702 124.826 125.203 124.826 140.012ZM126.135 48.8892C100.052 48.8892 74.0562 48.8892 48.0987 48.8892C45.9332 51.8009 45.2499 53.1053 45.0381 54.7224C73.2622 54.7224 101.496 54.7224 130.192 54.7224C128.685 52.5614 127.415 50.7421 126.135 48.8892Z" fill="white"/>
<path d="M3.11817 190.669C5.82267 187.819 8.15187 185.384 10.4666 182.92C10.6639 182.708 10.7264 182.361 10.8756 182.039C9.96607 181.004 9.22017 181.567 8.59937 182.198C7.35297 183.468 6.18357 184.811 4.98537 186.116C4.23947 186.924 3.47907 187.723 2.26157 188.382C2.26157 187.535 2.26157 186.688 2.26157 185.832C2.22307 129.953 2.19907 74.0608 2.18457 18.1827C2.18457 15.5356 2.19907 12.8596 2.53587 10.251C2.88237 7.62312 3.74377 7.10332 6.46757 7.11292C15.12 7.15142 23.7725 7.20442 32.4154 7.20442C78.0022 7.22842 123.603 7.23812 169.195 7.25252C171.885 7.25252 173.194 8.42202 173.406 11.1077C173.493 12.3157 173.493 13.5334 173.493 14.7366C173.555 70.2923 173.603 125.848 173.666 181.418C173.666 183.107 173.728 184.811 173.767 186.501C173.854 189.648 172.622 190.919 169.508 190.919C119.311 190.928 69.1139 190.943 18.9073 190.967C14.5378 190.967 10.1778 191.054 5.80827 191.054C4.98537 191.068 4.16727 190.832 3.11817 190.669ZM11.1258 180.046C11.6985 180.162 12.0113 180.273 12.3097 180.282C28.8784 180.345 45.4615 180.446 62.0302 180.46C94.4506 180.47 126.881 180.446 159.296 180.431C160.345 180.431 161.428 180.47 162.434 180.234C162.91 180.133 163.358 179.488 163.594 178.992C163.781 178.593 163.632 178.044 163.632 177.563C163.642 146.308 163.666 115.043 163.68 83.7878C163.695 62.6205 163.642 41.4676 163.728 20.3004C163.743 16.503 162.771 15.8195 159.436 15.935C156.77 16.0217 154.094 15.9591 151.428 15.9591C105.99 15.9928 60.548 16.0313 15.1104 16.0842C11.5493 16.0842 11.4386 16.1949 11.4098 19.7613C11.2365 40.4329 10.9863 61.1044 10.9382 81.7856C10.866 113.45 10.9237 145.114 10.9382 176.764C10.9382 177.861 11.0633 178.954 11.1258 180.046ZM164.291 180.446C164.041 180.557 163.805 180.672 163.555 180.783C163.704 181.317 163.719 181.952 164.031 182.361C165.672 184.638 167.366 186.862 169.085 189.09C169.369 189.461 169.768 189.773 170.182 190C170.389 190.12 170.841 190.086 171.024 189.937C171.212 189.773 171.313 189.374 171.265 189.114C171.212 188.816 171 188.532 170.812 188.281C169.123 186.043 167.429 183.805 165.687 181.601C165.312 181.144 164.753 180.831 164.291 180.446ZM171.909 9.35572C171.885 8.48462 171.125 8.13332 170.451 8.61942C169.421 9.36542 168.459 10.2221 167.54 11.0932C166.308 12.2387 165.1 13.4082 163.979 14.65C163.757 14.8906 163.829 15.5115 163.954 15.8965C163.993 16.0217 164.652 15.9928 165.013 15.9447C165.225 15.9062 165.437 15.7233 165.61 15.5596C167.554 13.7692 169.484 11.9788 171.399 10.1643C171.65 9.89962 171.799 9.52902 171.909 9.35572ZM3.55607 9.85152C5.53397 11.7189 7.55027 13.7211 9.79277 15.4585C10.0431 15.6607 10.6254 15.4249 11.0489 15.396C11.0152 15.0398 11.1114 14.5297 10.9141 14.3419C9.07097 12.5852 7.17977 10.8718 5.24997 9.19212C4.72547 8.73012 4.06617 8.70602 3.55607 9.85152ZM13.3684 18.1827C62.7761 18.1827 111.89 18.1827 161.255 18.1827C161.255 71.587 161.255 124.765 161.255 178.145C112.064 178.145 62.805 178.145 13.3684 178.145C13.3684 124.905 13.3684 71.6351 13.3684 18.1827ZM133.916 96.5998C133.863 96.5998 133.801 96.5998 133.753 96.5998C133.753 92.8794 133.762 89.1734 133.753 85.453C133.704 72.6939 133.642 59.9349 133.579 47.1758C133.565 44.6105 132.506 43.4939 129.98 43.3206C129.171 43.2677 128.363 43.2917 127.554 43.2917C100.634 43.3543 73.7096 43.4313 46.7945 43.4939C46.2315 43.4939 45.6588 43.4794 45.1006 43.5035C43.5077 43.6046 42.8966 44.0041 42.5742 45.5827C42.2999 46.9111 42.1747 48.3068 42.1747 49.6592C42.1747 63.3906 42.2132 77.1074 42.2373 90.8387C42.2758 108.772 42.2758 126.695 42.372 144.628C42.3961 148.382 41.4529 149.056 46.8186 149.056C72.5258 149.08 98.2331 149.119 123.94 149.157C126.37 149.157 128.796 149.167 131.212 149.119C133.281 149.07 133.642 148.772 133.714 146.741C133.839 143.757 133.916 140.773 133.916 137.789C133.926 124.058 133.916 110.326 133.916 96.5998ZM131.265 72.6314C130.254 79.1625 129.157 85.6792 128.3 92.22C128.026 94.2463 127.14 96.0607 127.155 98.241C127.227 111.958 127.054 125.689 126.919 139.406C126.89 141.942 126.592 142.178 124.128 142.265C123.729 142.279 123.32 142.265 122.92 142.265C102.068 142.279 81.2265 142.289 60.3748 142.289C57.2998 142.289 54.2391 142.226 51.1641 142.077C47.988 141.928 47.8629 141.745 47.8147 138.458C47.8003 137.649 47.8003 136.841 47.8003 136.032C47.7762 123.273 47.7522 110.528 47.7281 97.7645C47.7281 97.0474 47.7522 96.311 47.6415 95.5891C47.0303 91.4499 46.3807 87.306 45.7455 83.1765C45.423 81.0781 45.1006 78.9893 44.7782 76.886C43.9649 91.3489 44.1285 145.162 44.6531 146.828C73.5941 146.828 102.492 146.828 131.524 146.828C131.524 121.868 131.524 97.1821 131.524 72.5062C131.438 72.5688 131.351 72.5929 131.265 72.6314ZM131.847 52.3834C131.847 50.7326 131.885 49.0624 131.837 47.4116C131.799 45.9052 131.486 45.6308 129.941 45.5346C129.455 45.4961 128.969 45.5201 128.488 45.5201C101.433 45.4961 74.3785 45.4816 47.3287 45.4576C46.5299 45.4576 45.7358 45.4576 44.9995 45.4576C44.2392 47.2624 44.2392 48.0325 44.8889 49.7603C46.8427 46.9496 46.8427 46.9496 50.5289 46.9399C74.6817 46.8389 98.8202 46.7378 122.973 46.6512C123.618 46.6512 124.268 46.6656 124.912 46.6512C126.135 46.6271 127.068 47.0603 127.8 48.0806C128.883 49.5726 130.066 51.0165 131.212 52.47C131.423 52.4363 131.635 52.4123 131.847 52.3834Z" fill="#D8E2E7"/>
<path d="M98.671 65.1087C98.8924 65.9895 98.4352 66.2782 97.6508 66.2638C96.1927 66.2638 94.749 66.2542 93.2909 66.2542C88.7721 66.2782 84.2534 66.3119 79.7202 66.3408C78.9358 66.3408 77.9926 66.5237 78.1177 65.205C79.7202 64.5745 96.005 64.4878 98.671 65.1087Z" fill="#4D4D4F"/>
</g>
<defs>
<clipPath id="clip0_142_170395">
<rect width="39" height="18" fill="white" transform="translate(69 60)"/>
</clipPath>
</defs>
</svg>
