<svg width="105" height="52" viewBox="0 0 105 52" fill="none" xmlns="http://www.w3.org/2000/svg">
<path d="M33.7239 12.9009L13.1375 26.8278L68.2597 42.5368C73.1858 43.9401 78.5387 42.6117 82.2304 39.0701L95.9584 25.8976L37.2812 12.2421C36.0587 11.9585 34.7623 12.1975 33.7239 12.9009Z" fill="#F8F2B3"/>
<path fill-rule="evenodd" clip-rule="evenodd" d="M102.518 16.3429L41.0236 1.32923C39.9817 1.07491 38.9202 0.950002 37.8633 0.950002C36.9241 0.950002 35.9885 1.04966 35.0728 1.24446L35.3059 5.22139C35.6723 5.13619 36.0676 5.06177 36.5 5C40 4.5 49 7.5 49 7.5L64.5 11.3295L86 16.3429L97.5 18.9335L100.964 19.5C101.801 19.8116 101.817 20.2585 101.585 20.5L103.218 18.9335C103.627 18.5393 103.785 17.9788 103.637 17.431C103.488 16.884 103.07 16.4768 102.518 16.3429Z" fill="#6C6C6C"/>
<path fill-rule="evenodd" clip-rule="evenodd" d="M34.2499 1.44783C32.9051 1.82345 31.6147 2.40875 30.4346 3.19652L3.39498 21.2616C2.85181 21.6241 2.58838 22.2252 2.68977 22.8687C2.79161 23.5131 3.2275 24.0046 3.85576 24.1832L7.97454 25.3569C7.97468 25.2198 7.97262 25.0887 7.97063 24.9622C7.95138 23.7376 7.93887 22.9417 10 21.2616L20.5 13.5L29 8C30.0293 7.58829 30.8291 7.1572 31.5856 6.74951C32.5046 6.25417 33.3597 5.79335 34.4843 5.44376L34.2499 1.44783Z" fill="#6C6C6C"/>
<path d="M33.2555 12.2133C33.7434 11.8836 34.2798 11.6411 34.8388 11.4886L34.4843 5.44376C33.3597 5.79335 32.5046 6.25417 31.5856 6.74951C30.8291 7.1572 30.0293 7.58829 29 8L20.5 13.5L10 21.2616C7.93887 22.9417 7.95138 23.7376 7.97063 24.9622C7.97262 25.0887 7.97468 25.2198 7.97454 25.3569L12.0933 26.5307L33.2555 12.2133Z" fill="#F8F2B3"/>
<path d="M37.4704 11.4332L96.6736 25.2126L101.585 20.5C101.817 20.2585 101.801 19.8116 100.964 19.5L97.5 18.9335L86 16.3429L64.5 11.3295L49 7.5C49 7.5 40 4.5 36.5 5C36.0676 5.06177 35.6723 5.13619 35.3059 5.22139L35.664 11.3295C36.2632 11.2627 36.8739 11.2956 37.4704 11.4332Z" fill="#F8F2B3"/>
<path d="M34.8388 11.4886C34.2798 11.6411 33.7434 11.8836 33.2555 12.2133L12.0933 26.5307L13.1375 26.8278L33.7239 12.9009C34.7623 12.1975 36.0587 11.9585 37.2812 12.2421L95.9584 25.8976L96.6736 25.2126L37.4704 11.4332C36.8739 11.2956 36.2632 11.2627 35.664 11.3295L35.3059 5.22139L34.4843 5.44376L34.8388 11.4886Z" fill="#F8F2B3"/>
<path fill-rule="evenodd" clip-rule="evenodd" d="M30.4346 3.19652C31.6147 2.40875 32.9051 1.82345 34.2499 1.44783C34.5786 1.3367 34.7604 1.28411 35.0728 1.24446C35.9885 1.04966 36.9241 0.950002 37.8633 0.950002C38.9202 0.950002 39.9817 1.07491 41.0236 1.32923L102.518 16.3429C103.07 16.4768 103.488 16.884 103.637 17.431C103.785 17.9788 103.627 18.5393 103.218 18.9335L101.585 20.5L96.6736 25.2126L95.9584 25.8976L82.2304 39.0701C78.5387 42.6117 73.1858 43.9401 68.2597 42.5368L13.1375 26.8278L12.0933 26.5307L7.97454 25.3569L3.85576 24.1832C3.2275 24.0046 2.79161 23.5131 2.68977 22.8687C2.58838 22.2252 2.85181 21.6241 3.39498 21.2616L30.4346 3.19652ZM34.4843 5.44376C34.7426 5.36346 35.0151 5.28903 35.3059 5.22139L34.4843 5.44376ZM104.384 16.7289C104.065 16.075 103.477 15.5997 102.745 15.4198L41.25 0.406183C37.3641 -0.541668 33.2283 0.187032 29.9046 2.4074L2.86494 20.4738C2.43403 20.7615 2.1122 21.1552 1.92074 21.6043C0.852512 22.3826 -0.367346 23.6042 0.104303 24.8961C0.897776 27.0704 3.87387 27.2292 3.87387 27.2292L4.88325 31.3349C5.14306 32.3923 5.9474 33.2315 6.99526 33.5386L69.2039 51.7308C71.5061 52.4027 73.9919 51.7966 75.7206 50.1395L99.7923 27.0506C100.924 26.0031 100.964 23.8377 100.964 23.8377L104.595 20.4265C105.321 18.4568 104.96 17.3484 104.384 16.7289Z" fill="#7C797A"/>
<path d="M35.3059 5.22139L35.0728 1.24446C34.7604 1.28411 34.5786 1.3367 34.2499 1.44783L34.4843 5.44376C34.7426 5.36346 35.0151 5.28903 35.3059 5.22139Z" fill="#6C6C6C"/>
</svg>
