<svg width="191" height="479" viewBox="0 0 191 479" fill="none" xmlns="http://www.w3.org/2000/svg">
<mask id="mask0_413_117" style="mask-type:luminance" maskUnits="userSpaceOnUse" x="3" y="0" width="188" height="479">
<path d="M3.65283 0H191V478.022H3.65283V0Z" fill="white"/>
</mask>
<g mask="url(#mask0_413_117)">
<path d="M177.538 53.5318L89.2295 2.67513C85.6418 0.604011 82.3883 0.392007 79.9666 1.63957L79.7709 0.848633L3.9873 44.4808L75.7102 334.642V358.215C75.7102 365.872 80.5781 375.045 86.922 379.978L110.756 476.4L184.167 434.154C188.268 433.827 191.073 430.435 191.073 424.654V76.8931C191.065 68.3314 184.982 57.8127 177.538 53.5318Z" fill="#914E20"/>
</g>
<mask id="mask1_413_117" style="mask-type:luminance" maskUnits="userSpaceOnUse" x="3" y="0" width="188" height="122">
<path d="M3.65283 0H191V121.071H3.65283V0Z" fill="white"/>
</mask>
<g mask="url(#mask1_413_117)">
<path d="M177.538 53.5318L89.2296 2.67513C85.6418 0.604011 82.3883 0.392007 79.9666 1.63957L79.7709 0.848633L3.9873 44.4808L8.18664 61.4575L105.383 109.028C105.383 112.877 106.899 117.182 109.24 120.9L190.821 73.925C189.646 66.0238 184.142 57.3397 177.538 53.5318Z" fill="#A35E2B"/>
</g>
<mask id="mask2_413_117" style="mask-type:luminance" maskUnits="userSpaceOnUse" x="0" y="41" width="117" height="438">
<path d="M0 41.749H116.374V478.022H0V41.749Z" fill="white"/>
</mask>
<g mask="url(#mask2_413_117)">
<path d="M101.77 96.3076L13.4621 45.4428C6.01748 41.1701 -0.0654297 44.6682 -0.0654297 53.2299V400.991C-0.0654297 409.553 6.01748 420.063 13.4621 424.344L101.77 475.209C109.207 479.482 115.29 475.984 115.29 467.422V119.669C115.29 111.099 109.207 100.588 101.77 96.3076Z" fill="#C47E3F"/>
</g>
<path d="M94.1789 110.74L21.0454 68.6165C14.881 65.0777 9.8418 67.9805 9.8418 75.0664V336.99C9.8418 344.076 14.881 352.784 21.0454 356.331L94.1789 398.455C100.335 402.002 105.374 399.099 105.374 392.013V130.09C105.374 122.996 100.335 114.287 94.1789 110.74Z" fill="#72461A"/>
<path d="M105.374 290.308C102.472 283.997 100.718 277.343 100.718 271.211V117.002C98.8757 114.393 96.617 112.15 94.1789 110.74L21.0454 68.6161C14.881 65.0772 9.8418 67.9719 9.8418 75.0659V336.99C9.8418 340.847 11.3584 345.144 13.7068 348.87L105.374 296.073V290.308Z" fill="#603813"/>
<path d="M94.1788 110.74L75.71 100.107V298.715C75.71 307.285 81.7929 317.795 89.2293 322.076L105.374 331.372V130.09C105.374 122.996 100.335 114.287 94.1788 110.74Z" fill="#472F1A"/>
<path d="M99.6423 417.584V459.814L12.5083 409.642V367.412L99.6423 417.584Z" fill="#9E6B39"/>
<path d="M12.5083 367.412L99.6423 417.584V459.814" fill="#916431"/>
<path d="M99.6343 417.658L12.4922 367.494L15.6641 365.66L102.806 415.84L99.6343 417.658Z" fill="#BFA062"/>
<path d="M102.806 415.831V457.963L99.6338 459.806V417.65L102.806 415.831Z" fill="#72461A"/>
<path d="M50.1227 408.093L52.1856 406.91C52.732 406.576 53.4821 406.609 54.3057 407.09C55.9365 408.028 57.2738 410.335 57.2738 412.219C57.2738 413.197 56.915 413.866 56.336 414.151V414.168L54.1426 415.431V415.407C53.6126 415.684 52.9032 415.635 52.1204 415.179C50.4978 414.233 49.1605 411.925 49.1523 410.05C49.1523 409.047 49.5274 408.378 50.1227 408.093Z" fill="#72461A"/>
<path d="M46.6165 410.515L50.0657 408.533C50.9545 407.987 52.202 408.036 53.5882 408.827C56.3035 410.392 58.5377 414.241 58.5377 417.38C58.5377 419.019 57.9262 420.128 56.9722 420.618V420.642L53.3191 422.738V422.697C52.4385 423.162 51.2562 423.088 49.9352 422.322C47.2362 420.748 45.0102 416.899 45.002 413.768C44.9939 412.105 45.6299 410.988 46.6165 410.515Z" fill="#332816" fill-opacity="0.3"/>
<path d="M56.703 415.423C56.703 412.3 54.4851 408.468 51.7698 406.902C50.3918 406.111 49.1524 406.062 48.2636 406.609L44.6514 408.696V415.961L48.3451 418.147V414.6C49.1769 416.027 50.294 417.266 51.5171 418.057V420.756L55.1538 418.669V418.652C56.0996 418.163 56.703 417.054 56.703 415.423Z" fill="#B2902F"/>
<path d="M48.1416 420.373C45.4508 418.807 43.2329 414.975 43.2247 411.852C43.2084 408.737 45.41 407.465 48.1171 409.022C50.8243 410.58 53.0422 414.412 53.0422 417.543C53.0422 420.666 50.8324 421.938 48.1416 420.373Z" fill="#EDC85F"/>
<path d="M48.1167 409.031C50.832 410.588 53.0417 414.413 53.0417 417.544C53.0417 420.675 50.832 421.947 48.1412 420.381" fill="#D1B14A"/>
<path d="M49.6172 419.297C49.1035 419.297 48.5571 419.126 47.9782 418.799C46.0702 417.682 44.5046 414.975 44.4883 412.757C44.4883 411.852 44.7329 411.126 45.214 410.637C45.9315 409.928 47.0976 409.879 48.2718 410.564C50.2043 411.665 51.7698 414.38 51.7698 416.606C51.7698 418.245 50.93 419.297 49.6172 419.297ZM46.6409 410.686C46.2414 410.686 45.9071 410.817 45.6543 411.078C45.2874 411.444 45.108 412.015 45.108 412.749C45.1161 414.739 46.5839 417.266 48.2962 418.261C48.761 418.53 49.2176 418.669 49.6172 418.669C50.563 418.669 51.1501 417.878 51.1501 416.598C51.1501 414.576 49.7232 412.097 47.9619 411.094C47.4971 410.833 47.0405 410.686 46.6409 410.686Z" fill="#B2902F"/>
<path d="M105.375 230.963C105.375 230.457 105.301 229.936 105.252 229.422L75.7837 212.494L10.0703 250.353L105.383 305.091V230.963H105.375Z" fill="#72461A"/>
<path d="M10.0703 250.353L75.7592 288.09V212.51L10.0703 250.353Z" fill="#512F10"/>
<path d="M105.375 305.034L10.0703 250.354V253.485L105.375 308.149V305.034Z" fill="#C47E3F"/>
<path d="M105.375 225.606C105.375 225.092 105.301 224.578 105.252 224.065L75.7837 207.129L10.0703 244.988L105.383 299.734V225.598L105.375 225.606Z" fill="#BAB690"/>
<path d="M10.0703 244.988L75.7592 282.725V207.145L10.0703 244.988Z" fill="#99926D"/>
<path d="M105.375 299.661L10.0703 244.988V248.119L105.375 302.784V299.661Z" fill="#E8E3BC"/>
<path d="M105.375 177.782C105.375 177.269 105.301 176.747 105.252 176.233L75.7837 159.305L10.0703 197.165L105.383 251.911V177.782H105.375Z" fill="#BAB690"/>
<path d="M10.0703 197.165L75.7592 234.902V159.322L10.0703 197.165Z" fill="#99926D"/>
<path d="M105.375 251.838L10.0703 197.165V200.288L105.375 254.961V251.838Z" fill="#E8E3BC"/>
<path d="M105.375 129.951C105.375 129.446 105.301 128.924 105.252 128.41L75.7836 111.482L10.0703 149.341L105.375 204.079V129.951Z" fill="#BAB690"/>
<path d="M10.0703 149.341L75.7592 187.078V111.49L10.0703 149.341Z" fill="#99926D"/>
<path d="M105.375 204.005L10.0703 149.341V152.464L105.375 207.137V204.005Z" fill="#E8E3BC"/>
<path d="M87 451.562V373.331C87 366.655 87.9495 358.452 89.111 355.11L102.891 315.426C104.051 312.085 105 314.819 105 321.495L105 400.501L87.043 452L87 451.562Z" fill="#21ABE8" fill-opacity="0.5"/>
<path d="M100.242 318.426C101.209 315.085 102 317.819 102 324.495L102 403.497L87.0358 455L87 454.554" fill="#21ABE8" fill-opacity="0.2"/>
<path d="M106.818 315.121L104.005 313.498C103.662 313.302 103.352 313.27 103.116 313.367V313.359L103.059 313.384C103.034 313.4 103.002 313.416 102.985 313.433L101.607 314.207L102.61 315.92V344.483C102.61 345.372 103.23 346.465 104.005 346.913L105.448 347.737L106.418 349.4L107.804 348.617C108.057 348.471 108.212 348.161 108.212 347.712V317.542C108.204 316.653 107.576 315.561 106.818 315.121Z" fill="#586363"/>
<path d="M106.475 320.348V349.36L107.796 348.618C108.049 348.471 108.204 348.161 108.204 347.712V317.543C108.204 317.249 108.139 316.939 108.025 316.637L105.244 318.236L106.475 320.348Z" fill="#303535"/>
<path d="M105.382 315.92L102.586 314.305C101.811 313.865 101.183 314.224 101.183 315.113V345.291C101.183 346.171 101.811 347.264 102.586 347.704L105.382 349.327C106.165 349.775 106.793 349.4 106.793 348.52V318.342C106.793 317.453 106.165 316.368 105.382 315.92Z" fill="#4B5151"/>
<path d="M106.818 360.074L104.005 358.46C103.662 358.264 103.352 358.231 103.116 358.321V358.313L103.059 358.345C103.034 358.362 103.002 358.378 102.985 358.394L101.607 359.169L102.61 360.873V389.445C102.61 390.325 103.23 391.426 104.005 391.867L105.448 392.698L106.418 394.354L107.804 393.571C108.057 393.432 108.212 393.122 108.212 392.674V362.496C108.204 361.607 107.576 360.523 106.818 360.074Z" fill="#586363"/>
<path d="M106.475 365.301V394.321L107.796 393.571C108.049 393.432 108.204 393.122 108.204 392.674V362.496C108.204 362.21 108.139 361.9 108.025 361.591L105.244 363.197L106.475 365.301Z" fill="#303535"/>
<path d="M105.382 360.881L102.586 359.259C101.811 358.818 101.183 359.185 101.183 360.066V390.244C101.183 391.133 101.811 392.225 102.586 392.666L105.382 394.28C106.165 394.729 106.793 394.362 106.793 393.473V363.295C106.793 362.414 106.165 361.322 105.382 360.881Z" fill="#4B5151"/>
<path d="M93.2584 384.103L90.8768 384.106C90.2478 384.12 89.6024 383.721 89.1324 382.887C88.1826 381.267 88.1815 378.604 89.1245 376.965C89.6127 376.116 90.2569 375.716 90.8942 375.753L90.9022 375.739L93.4338 375.737L93.4218 375.758C94.0193 375.782 94.6169 376.183 95.0604 376.965C96.0022 378.598 96.0078 381.254 95.0754 382.891C94.5752 383.76 93.924 384.156 93.2584 384.103Z" fill="#72461A"/>
<path d="M97.5122 383.757L93.5271 383.75C92.4805 383.787 91.4235 383.123 90.6205 381.739C89.0478 379.028 89.0302 374.578 90.5915 371.864C91.4088 370.443 92.4959 369.78 93.5743 369.835L93.5863 369.815L97.7907 369.815L97.7703 369.851C98.7656 369.887 99.7495 370.548 100.513 371.87C102.071 374.574 102.077 379.027 100.523 381.745C99.7077 383.195 98.6033 383.839 97.5122 383.757Z" fill="#21ABE8" fill-opacity="0.5"/>
<path d="M91.2169 374.472C89.6596 377.179 89.664 381.602 91.2406 384.307C92.0367 385.686 93.0865 386.347 94.1367 386.32L98.3126 386.306L101.931 380.015L99.8122 376.275L98.0434 379.35C98.0341 377.698 97.6913 376.07 97.0185 374.771L98.3644 372.431L94.1709 372.428L94.163 372.441C93.1023 372.405 92.0263 373.065 91.2169 374.472Z" fill="#B2902F"/>
<path d="M101.087 374.468C102.635 377.175 102.653 381.606 101.1 384.306C99.5567 387.021 97.0141 387.026 95.448 384.319C93.8855 381.623 93.87 377.202 95.4313 374.489C96.9927 371.775 99.5425 371.774 101.087 374.468Z" fill="#EDC85F"/>
<path d="M95.448 384.319C93.8855 381.623 93.87 377.202 95.4313 374.488C96.9927 371.775 99.5424 371.774 101.087 374.468" fill="#D1B14A"/>
<path d="M99.279 374.652C99.7243 374.908 100.12 375.333 100.448 375.907C101.549 377.82 101.552 380.954 100.467 382.888C100.02 383.666 99.4345 384.176 98.7776 384.353C97.8016 384.611 96.7669 384.071 96.0903 382.892C94.9642 380.974 94.9616 377.839 96.0716 375.91C96.8845 374.497 98.1411 373.997 99.279 374.652ZM97.5723 383.603C97.9115 383.798 98.2661 383.852 98.6154 383.752C99.1124 383.624 99.5567 383.212 99.9227 382.575C100.907 380.847 100.899 377.935 99.9079 376.208C99.6392 375.743 99.3126 375.394 98.9664 375.195C98.1465 374.724 97.2431 375.116 96.6043 376.227C95.596 377.979 95.6038 380.844 96.6232 382.588C96.8963 383.045 97.2189 383.4 97.5723 383.603Z" fill="#B2902F"/>
</svg>
