<svg width="140" height="143" viewBox="0 0 140 143" fill="none" xmlns="http://www.w3.org/2000/svg">
<path d="M113.259 93.0327C112.585 82.8169 112.354 72.5604 110.722 62.4248C109.693 56.0515 107.479 49.3766 101.12 46.7373C98.0677 45.4647 94.7442 45.1952 91.4592 45.2484C86.229 45.3667 81.0014 45.6454 75.7719 45.9552C70.5448 46.2651 65.3182 46.6084 60.0885 46.7578C55.0491 46.9041 50.0378 46.7266 44.9999 46.9687C36.0726 47.4055 27.4884 49.1899 19.2487 52.71C17.9106 62.6374 18.3918 72.6623 18.6484 82.6286C18.87 90.4328 17.9165 98.5458 19.3502 106.266C20.0147 109.835 21.3205 113.622 23.9793 116.192C26.6039 118.698 29.882 120.13 33.4319 120.717C41.1738 122.011 49.0613 120.399 56.7692 119.596C61.7382 119.065 66.7739 118.694 71.7847 118.838C76.3169 118.958 80.8229 119.369 85.3551 119.49C89.6655 119.58 94.0666 119.54 98.3281 118.666C102.208 117.892 106.588 116.403 109.41 113.453C114.714 107.947 113.725 100.026 113.259 93.0327Z" fill="#ABBCCE"/>
<path d="M123.778 54.9538C122.436 54.8462 121.461 55.7314 121.642 57.0529C121.751 57.8894 121.346 58.4756 120.777 58.7435C121.203 59.5101 121.915 60.0806 122.903 59.9688C123.89 59.8546 125.22 59.2199 125.487 58.1187C125.818 56.7578 125.376 55.0884 123.778 54.9538ZM105.504 132.293C106.482 133.503 107.581 134.388 108.526 133.664C109.062 133.267 109.501 132.745 109.841 132.158C108.408 132.246 106.971 132.269 105.504 132.293ZM124.963 70.9693C124.214 70.0114 123.102 70.3863 122.64 71.3614C122.148 72.4327 121.978 73.8246 122.602 74.8778C122.668 75.0061 122.731 75.1009 122.767 75.2296C123.445 75.6713 124.559 75.5575 125.158 75.0616C126.229 74.206 125.744 71.9242 124.963 70.9693ZM30.6053 133.346C30.3169 133.317 29.9972 133.26 29.7112 133.231C29.7729 135.134 30.0087 137.937 32.1204 138.161C34.4205 138.414 35.1114 135.821 35.3663 133.783C33.8014 133.682 32.205 133.545 30.6053 133.346ZM126.09 83.4027C124.16 82.531 123.754 84.9254 123.392 86.2222C123.426 86.4156 123.43 86.6407 123.403 86.8663C123.345 87.2863 123.413 87.5128 123.412 87.4792C123.574 87.606 123.445 87.5769 123.799 87.7005C123.574 87.6395 124.214 87.7585 124.309 87.7569C124.916 87.7782 126.059 87.3717 126.59 86.6542C127.18 85.8064 127.214 83.9018 126.09 83.4027ZM77.5065 24.9563C75.0001 23.8664 72.2543 23.7169 69.5447 23.8901C66.229 24.1067 62.8557 24.5805 59.7809 25.8565C56.9918 26.9986 54.5956 28.7475 52.2976 30.6864C56.8678 31.0961 61.4668 31.3785 66.0617 31.3998C71.9011 31.4346 77.6679 30.9532 83.4012 30.3118C81.8647 28.1429 80.0129 26.0437 77.5065 24.9563Z" fill="#F6851F"/>
<path d="M135.091 101.358C134.783 96.1351 134.188 90.9524 133.561 85.7677C132.935 80.5831 132.277 75.399 131.939 70.2097C131.646 65.9561 131.768 61.7604 131.764 57.5333C131.784 50.8557 131.493 42.6958 126.34 37.7473C120.441 32.0997 111.492 31.2459 103.778 31.6607C95.3289 32.0874 87.033 33.8983 78.6184 34.5519C68.517 35.3598 58.3649 34.9447 48.2675 33.9467C39.7974 33.0828 30.893 30.9685 22.3628 32.2683C18.8311 32.8093 15.3718 33.9958 12.5367 36.2667C8.91478 39.1659 7.06813 43.2601 4.86605 47.2978C4.74363 47.525 4.61778 47.6875 4.4605 47.8193C5.136 57.9393 5.07698 68.1023 5.01746 78.2342C4.96796 87.075 4.51168 96.2145 5.89836 104.999C6.89072 111.178 8.97535 117.661 13.4506 122.202C18.836 127.697 26.1713 129.449 33.584 130.102C43.5841 130.973 53.5825 129.683 63.5219 128.715C68.4277 128.247 73.3644 127.781 78.3102 127.732C83.2536 127.686 88.2052 127.991 93.123 128.268C95.5833 128.42 98.2649 128.571 101.043 128.655C101.644 128.291 102.406 128.214 103.021 128.688C105.574 128.711 108.222 128.668 110.802 128.466C110.734 128.239 110.73 127.983 110.791 127.755C112.04 128.058 113.285 128.102 114.494 127.824C114.526 127.888 114.56 127.952 114.561 128.017C123.728 126.611 131.798 122.608 134.312 112.436C135.212 108.776 135.311 105.096 135.091 101.358ZM119.934 85.6005C120.39 84.0435 120.648 82.3628 121.842 81.1819C123.131 79.9348 125.13 79.3875 126.83 79.9084C129.942 80.8902 131.542 85.1226 129.833 87.9884C128.529 90.1723 126.156 91.4681 123.632 91.2192C121.106 90.9703 119.639 88.9296 119.887 86.5042C119.819 86.2466 119.814 85.9569 119.934 85.6005ZM117.068 103.552C116.772 107.042 115.903 110.509 113.973 113.443C111.825 116.704 108.511 118.921 104.961 120.365C96.9094 123.626 88.0631 123.187 79.6022 122.744C74.6821 122.47 69.8285 122.191 64.8893 122.499C59.8829 122.774 54.915 123.369 49.9471 123.967C42.8159 124.823 35.1389 125.625 28.2362 122.963C20.9484 120.176 16.9822 113.724 15.8081 106.162C14.5594 98.1163 15.4147 89.8109 15.1551 81.7175C14.8717 72.0104 14.5207 62.2396 15.7684 52.6058C16.2 51.6312 16.6957 50.6532 17.2229 49.7106C17.2831 49.6115 17.3458 49.5146 17.409 49.4489C17.6012 49.4147 17.7605 49.4121 17.9513 49.4402C24.0352 46.7933 30.4495 45.0105 37.0094 44.1306C46.8151 42.8437 56.811 43.4554 66.6626 42.9413C71.8902 42.6626 77.1168 42.3193 82.3473 42.0741C86.8738 41.8379 91.5255 41.4081 96.064 41.9166C102.137 42.5918 107.765 45.4369 110.791 50.9682C112.6 54.2632 113.55 57.7972 114.153 61.5285C114.969 66.5496 115.433 71.6386 115.803 76.7316C116.141 81.8539 116.383 86.9801 116.723 92.1047C116.975 95.9087 117.355 99.7082 117.068 103.552ZM118.152 56.2378C118.39 53.2665 121.068 51.1562 124.135 51.4299C127.458 51.6993 129.813 55.1771 129.005 58.4809C128.345 61.2028 125.896 63.5321 122.991 63.5145C119.64 63.4729 117.627 61.2471 116.904 58.0638C116.664 57.0043 117.324 56.3805 118.152 56.2378ZM118.79 74.0032C118.534 71.9764 119.01 69.8395 120.456 68.427C122.966 65.9673 126.776 66.7439 128.39 69.848C129.94 72.855 129.501 77.3144 126.012 78.6307C122.841 79.8437 119.401 78.254 118.772 74.7795C118.703 74.4908 118.729 74.2317 118.79 74.0032ZM132.813 112.46C131.63 116.254 126.433 116.501 123.312 114.743C122.301 115.373 120.699 115.013 120.674 113.464C120.557 108.175 119.897 102.958 119.78 97.6691C119.759 96.3785 120.833 95.7168 121.791 95.7971C121.975 95.2145 122.445 94.7543 123.242 94.7414C125.7 94.7351 128.128 94.9544 130.583 94.9458C131.478 94.9313 132.475 95.5282 132.492 96.5602C132.545 99.8501 132.377 103.177 132.526 106.465C132.619 108.239 133.361 110.71 132.813 112.46Z" fill="#127274"/>
<path d="M129.296 109.904C128.818 106.106 128.979 102.262 129.013 98.456C127.194 98.3873 125.405 98.2558 123.588 98.2853C123.49 98.2868 123.395 98.2884 123.299 98.2588C123.433 102.515 123.884 106.766 124.079 111.021C124.209 111.084 124.37 111.179 124.5 111.304C125.729 112.381 127.613 112.513 129.104 111.876C129.704 111.608 129.368 110.516 129.296 109.904Z" fill="#FEBF10"/>
<path d="M138.27 96.6271C137.399 86.2205 135.605 75.9271 135.212 65.4792C134.933 58.0951 135.834 50.7254 133.676 43.5322C131.415 35.9551 125.344 31.4718 118.067 29.3647C110.149 27.0716 101.484 27.988 93.4625 29.0855C91.3306 29.3763 89.1958 29.6385 87.0949 29.9312L87.0943 29.8976C87.0509 29.1247 86.6905 28.6133 86.1392 28.0737C86.1078 28.0431 86.0425 27.9795 86.0111 27.9465C84.2812 25.5867 82.2705 23.5236 79.6614 22.1145C78.3101 21.3939 76.8679 20.9335 75.3623 20.6681C76.5968 18.0016 78.7641 15.9331 80.1905 13.3617C81.99 10.1712 83.0795 6.63764 84.8784 3.41355C85.7477 1.84989 83.6453 0.142777 82.2895 1.19699C82.3537 1.19595 82.418 1.19491 82.5136 1.2245C81.3692 1.37237 80.9049 2.381 81.017 3.28211C79.6253 6.08047 78.5244 9.06573 77.0702 11.8316C75.5235 14.7594 72.9414 16.9304 71.8438 20.112C71.8139 20.1771 71.8149 20.2394 71.785 20.3045C71.2422 20.2822 70.6998 20.291 70.158 20.3309C67.159 20.413 64.1044 20.8816 61.1816 21.7026C60.3917 20.2328 59.1246 18.8331 58.3074 17.589C57.228 16.0234 56.3392 14.3301 55.3896 12.6977C54.1415 10.5577 52.9575 8.41413 51.7118 6.27401C50.9554 4.96422 49.8946 2.49538 47.9897 3.13936C46.5627 3.61514 46.6197 5.22606 47.4326 6.05354C47.464 6.08417 47.4646 6.11769 47.5298 6.1789C47.7243 6.43441 47.8569 6.69093 48.0205 6.94694C48.5117 7.7461 48.9719 8.54337 49.4322 9.34303C50.5138 11.196 51.5342 13.0835 52.6159 14.9389C53.505 16.5052 53.9644 17.4007 54.9796 18.9649C55.6676 20.0172 56.417 21.0373 57.1359 22.0914C57.3304 22.3469 57.4969 22.634 57.6604 22.89C55.3151 23.9603 53.1378 25.4158 51.123 27.0603C50.773 27.1953 50.4579 27.4255 50.2401 27.7859C50.1156 27.8837 49.9892 28.0151 49.8623 28.113C49.1093 28.7718 49.0906 29.675 49.4208 30.3786C44.8525 29.9377 40.3106 29.3646 35.7407 28.8255C28.451 27.976 20.5987 27.653 13.8576 31.1487C11.2953 32.4812 9.09043 34.2916 7.17964 36.4828C5.01906 38.9703 3.60156 42.0901 2.05488 45.0203C1.8005 47.0889 1.45096 49.159 1.13473 51.2287C1.6349 60.5132 1.53139 69.8387 1.52252 79.1315C1.47666 88.1973 1.0544 97.528 2.63453 106.503C3.76295 113.004 6.1629 119.417 10.6463 124.312C14.8676 128.89 20.3622 131.284 26.2215 132.545C26.2225 132.61 26.2231 132.643 26.2241 132.708C26.3167 136.512 27.2468 140.755 31.505 141.591C36.2096 142.514 38.3669 137.768 38.8769 133.856C45.9953 133.968 53.1619 133.239 60.2339 132.542C65.17 132.043 70.1086 131.544 75.0822 131.303C80.0867 131.059 85.0986 131.27 90.1144 131.574C93.5939 131.777 97.3646 132.039 101.259 132.168C102.24 133.67 103.222 135.235 104.74 136.243C106.513 137.471 108.974 137.69 110.739 136.339C111.778 135.547 113.247 133.652 114.045 131.671C122.865 130.529 130.916 127.204 135.47 118.869C139.254 112.131 138.901 104.168 138.27 96.6271ZM59.7814 25.8878C62.8562 24.6117 66.2296 24.1379 69.5452 23.9238C72.2549 23.7505 75.0006 23.9 77.507 24.9875C80.0135 26.0773 81.8647 28.143 83.4332 30.3761C77.669 31.0179 71.9331 31.4988 66.0936 31.4641C61.4988 31.4427 56.8998 31.1604 52.3296 30.7506C54.5961 28.7787 56.9923 27.0299 59.7814 25.8878ZM32.1204 138.161C30.0087 137.937 29.7729 135.134 29.7112 133.231C29.9972 133.26 30.3169 133.317 30.6053 133.346C32.205 133.545 33.7705 133.682 35.3663 133.783C35.1109 135.79 34.4206 138.414 32.1204 138.161ZM108.557 133.664C107.612 134.388 106.482 133.503 105.537 132.292C106.971 132.269 108.439 132.245 109.872 132.157C109.501 132.712 109.062 133.267 108.557 133.664ZM134.281 112.437C131.767 122.608 123.694 126.612 114.528 128.018C114.496 127.953 114.495 127.889 114.461 127.825C113.254 128.103 112.01 128.09 110.76 127.755C110.73 127.983 110.734 128.239 110.771 128.466C108.191 128.669 105.544 128.743 102.99 128.688C102.375 128.214 101.61 128.258 101.01 128.656C98.234 128.571 95.55 128.421 93.0921 128.269C88.141 127.992 83.2227 127.686 78.2793 127.733C73.3335 127.782 68.3963 128.216 63.4887 128.715C53.5516 129.683 43.5532 130.973 33.5531 130.103C26.1409 129.481 18.8051 127.698 13.4197 122.202C8.94206 117.662 6.85928 111.145 5.89788 104.967C4.51115 96.1811 4.96748 87.0439 5.01698 78.2031C5.0432 68.0717 5.13551 57.9082 4.46001 47.7883C4.61729 47.6564 4.7431 47.4915 4.86553 47.2644C7.06765 43.229 8.91426 39.1324 12.5357 36.2021C15.3708 33.9312 18.8296 32.7136 22.3618 32.2037C30.8925 30.9374 39.7969 33.0517 48.2665 33.8821C58.3329 34.8806 68.4851 35.2957 78.6174 34.4873C87.0315 33.8025 95.3279 32.0227 103.777 31.5961C111.492 31.2124 120.439 32.0351 126.339 37.6827C131.492 42.6312 131.783 50.791 131.763 57.4687C131.768 61.7269 131.645 65.925 131.938 70.145C132.276 75.3343 132.934 80.5185 133.56 85.7031C134.187 90.8877 134.782 96.0705 135.09 101.294C135.311 105.096 135.212 108.776 134.281 112.437Z" fill="#010101"/>
<path d="M116.689 92.0741C116.351 86.9494 116.109 81.8232 115.771 76.6986C115.432 71.6075 114.936 66.5501 114.121 61.4978C113.519 57.7977 112.567 54.2637 110.759 50.9376C107.734 45.4038 102.103 42.5276 96.0299 41.8836C91.5248 41.377 86.8398 41.8073 82.3133 42.0411C77.0852 42.2887 71.8591 42.6631 66.631 42.9083C56.7485 43.4229 46.7835 42.8107 36.9754 44.1C30.4174 44.9463 24.0012 46.7603 17.9197 49.4095C17.7265 49.3791 17.5672 49.3817 17.3774 49.4183C17.3147 49.5151 17.2521 49.6119 17.1889 49.6776C16.6612 50.5915 16.1987 51.5666 15.7368 52.5728C14.4891 62.209 14.8382 72.0109 15.1234 81.6845C15.383 89.7779 14.5278 98.0832 15.774 106.129C16.9506 113.693 20.9144 120.146 28.2022 122.93C35.1068 125.561 42.7819 124.792 49.9155 123.934C54.8834 123.339 59.8512 122.741 64.8553 122.466C69.7641 122.192 74.651 122.47 79.5682 122.711C88.0315 123.156 96.8754 123.593 104.927 120.334C108.477 118.888 111.791 116.674 113.942 113.413C115.902 110.476 116.772 107.01 117.034 103.521C117.355 99.7082 116.975 95.9087 116.689 92.0741ZM109.41 113.453C106.588 116.403 102.176 117.862 98.3279 118.666C94.0664 119.54 89.6962 119.58 85.3549 119.49C80.8227 119.369 76.3167 118.958 71.7846 118.838C66.7743 118.725 61.7694 119.096 56.769 119.596C49.0611 120.399 41.1741 122.042 33.4318 120.716C29.8818 120.13 26.6037 118.698 23.9792 116.192C21.2894 113.623 19.9842 109.869 19.35 106.266C17.9163 98.5457 18.8703 90.4638 18.6482 82.6285C18.3583 72.6628 17.9098 62.6038 19.2485 52.7099C27.4549 49.1904 36.0724 47.4054 44.9997 46.9686C50.0376 46.7265 55.0489 46.904 60.0883 46.7577C65.3181 46.6083 70.5446 46.265 75.7717 45.9552C81.0012 45.6453 86.2289 45.3666 91.4591 45.2484C94.744 45.1951 98.0676 45.4646 101.119 46.7372C107.511 49.4095 109.724 56.051 110.722 62.4247C112.32 72.5273 112.551 82.8173 113.259 93.0326C113.725 100.026 114.714 107.947 109.41 113.453ZM124.104 51.4303C121.037 51.1567 118.359 53.267 118.119 56.2383C117.293 56.381 116.632 57.0048 116.873 58.0332C117.593 61.2141 119.576 63.474 122.959 63.4838C125.862 63.5015 128.313 61.1697 128.971 58.4503C129.813 55.1771 127.458 51.6993 124.104 51.4303ZM125.487 58.1188C125.22 59.22 123.921 59.8542 122.902 59.9689C121.948 60.0801 121.203 59.5102 120.777 58.7435C121.346 58.4756 121.75 57.8895 121.642 57.053C121.46 55.7004 122.436 54.8128 123.778 54.9539C125.376 55.0885 125.817 56.7578 125.487 58.1188ZM128.39 69.848C126.809 66.7433 122.966 65.9362 120.455 68.427C119.041 69.839 118.567 71.9759 118.79 74.0032C118.729 74.2317 118.703 74.4908 118.772 74.8106C119.371 78.2857 122.842 79.8748 126.013 78.6619C129.5 77.3144 129.906 72.8555 128.39 69.848ZM125.158 75.0952C124.559 75.5886 123.445 75.7025 122.767 75.2632C122.732 75.1345 122.668 75.0397 122.602 74.9114C122.009 73.8553 122.179 72.4658 122.64 71.3925C123.072 70.418 124.181 70.0455 124.963 71.0004C125.744 71.9242 126.228 74.206 125.158 75.0952ZM126.83 79.9084C125.13 79.3875 123.097 79.9353 121.842 81.1819C120.648 82.3628 120.39 84.0435 119.934 85.6005C119.845 85.9564 119.819 86.2801 119.918 86.5372C119.703 88.9596 121.14 91.0009 123.664 91.2498C126.187 91.5011 128.56 90.1717 129.864 88.0214C131.543 85.1538 129.941 80.8902 126.83 79.9084ZM126.525 86.6553C125.994 87.3417 124.883 87.7788 124.245 87.758C124.15 87.7596 123.541 87.6401 123.735 87.7016C123.381 87.578 123.51 87.6071 123.348 87.4803C123.379 87.4798 123.281 87.2874 123.338 86.8674C123.365 86.6418 123.362 86.4167 123.328 86.2233C123.69 84.96 124.096 82.5656 126.025 83.4038C127.214 83.9018 127.18 85.8064 126.525 86.6553ZM132.557 106.465C132.408 103.177 132.545 99.8501 132.525 96.5597C132.508 95.5277 131.509 94.9619 130.616 94.9452C128.159 94.9539 125.731 94.7346 123.273 94.7408C122.476 94.7538 121.974 95.2145 121.824 95.7966C120.865 95.7474 119.76 96.412 119.811 97.6686C119.93 102.957 120.588 108.175 120.704 113.464C120.729 114.979 122.3 115.342 123.342 114.743C126.497 116.5 131.664 116.253 132.846 112.46C133.361 110.71 132.619 108.239 132.557 106.465ZM129.104 111.876C127.613 112.513 125.698 112.382 124.5 111.304C124.37 111.179 124.24 111.083 124.079 111.021C123.884 106.766 123.432 102.515 123.299 98.2587C123.394 98.2572 123.49 98.2867 123.587 98.2852C125.405 98.2892 127.225 98.3867 129.013 98.4559C129.01 102.262 128.818 106.104 129.296 109.904C129.367 110.516 129.704 111.608 129.104 111.876Z" fill="#010101"/>
</svg>
