<svg width="242" height="118" viewBox="0 0 242 118" fill="none" xmlns="http://www.w3.org/2000/svg">
<mask id="mask0_283_107521" style="mask-type:luminance" maskUnits="userSpaceOnUse" x="0" y="36" width="242" height="82">
<path d="M0 36.1978H241.214V117.349H0V36.1978Z" fill="white"/>
</mask>
<g mask="url(#mask0_283_107521)">
<path d="M0.119629 36.4478H240.734V117.026H0.119629V36.4478Z" fill="#CDCC58"/>
</g>
<mask id="mask1_283_107521" style="mask-type:luminance" maskUnits="userSpaceOnUse" x="0" y="17" width="242" height="100">
<path d="M0 17.5312H241.214V116.198H0V17.5312Z" fill="white"/>
</mask>
<g mask="url(#mask1_283_107521)">
<path d="M240.734 36.448H0.119629L24.7342 18.0521H210.943L240.734 36.448ZM119.583 115.578H181.333V38.3802H119.583V115.578Z" fill="#A0D4D0"/>
</g>
<path d="M1.38477 38.1353H58.4369V115.276H1.38477V38.1353ZM60.9629 113.646H114.77V39.828H60.9629V113.646ZM182.416 38.1353V115.276H239.468V38.1353H182.416ZM120.906 59.005H179.947V46.2186H120.848V59.005H120.906ZM120.906 109.307H179.947V107.979H120.848V109.307H120.906ZM173.926 97.4842C147.327 101.646 126.926 97.4842 126.926 97.4842V62.3228H173.926V97.4842ZM172.786 65.0936H128.13V67.8696H172.786V65.0936Z" fill="#4F7E52"/>
<path d="M120.906 106.109H179.948V60.3333H120.849V106.109H120.906ZM126.927 62.3228H173.927V97.4843C147.328 101.646 126.927 97.4843 126.927 97.4843V62.3228ZM59.7031 115.338H116.755V38.1353H59.7031V115.338ZM60.9635 39.828H114.771V113.646H60.9635V39.828ZM68.0052 33.3124H61.026L71.5573 21.1301H91.4167V5.63013H87.5052V3.69784L91.4167 1.04679L92.5 0.380127H95.6302V19.1978L94.7292 21.1874H120.729L114.828 33.3697H68.0052V33.3124ZM96.3542 19.9843V18.9583C96.3542 18.7187 97.1979 18.5364 98.2813 18.5364C99.3646 18.5364 100.203 18.7187 100.203 18.9583V19.9843C100.203 20.2239 99.3646 20.4062 98.2813 20.4062C97.1979 20.4062 96.3542 20.1614 96.3542 19.9843ZM175.917 21.1301L181.151 33.3124H119.401L124.943 21.1301H175.917ZM30.9323 87.776C30.9323 88.3176 30.4531 88.7968 29.9115 88.7968C29.3698 88.7968 28.8906 88.3176 28.8906 87.776C28.8906 87.2291 29.3698 86.7499 29.9115 86.7499C30.5156 86.7499 30.9323 87.2291 30.9323 87.776ZM30.9323 64.6145C30.9323 65.1562 30.4531 65.6405 29.9115 65.6405C29.3698 65.6405 28.8906 65.1562 28.8906 64.6145C28.8906 64.0728 29.3698 63.5885 29.9115 63.5885C30.5156 63.5885 30.9323 64.0103 30.9323 64.6145ZM30.9323 41.453C30.9323 41.9947 30.4531 42.4791 29.9115 42.4791C29.3698 42.4791 28.8906 41.9947 28.8906 41.453C28.8906 40.9114 29.3698 40.427 29.9115 40.427C30.5156 40.3697 30.9323 40.8489 30.9323 41.453ZM112.12 76.7343C112.12 77.2812 111.641 77.7603 111.099 77.7603C110.557 77.7603 110.073 77.2812 110.073 76.7343C110.073 76.1926 110.557 75.7135 111.099 75.7135C111.641 75.7135 112.12 76.1926 112.12 76.7343ZM211.964 87.776C211.964 88.3176 211.484 88.7968 210.943 88.7968C210.401 88.7968 209.917 88.3176 209.917 87.776C209.917 87.2291 210.401 86.7499 210.943 86.7499C211.542 86.7499 211.964 87.2291 211.964 87.776ZM211.964 64.6145C211.964 65.1562 211.484 65.6405 210.943 65.6405C210.401 65.6405 209.917 65.1562 209.917 64.6145C209.917 64.0728 210.401 63.5885 210.943 63.5885C211.542 63.5885 211.964 64.0103 211.964 64.6145ZM209.917 41.453C209.917 40.9114 210.401 40.427 210.943 40.427C211.484 40.427 211.964 40.9114 211.964 41.453C211.964 41.9947 211.484 42.4791 210.943 42.4791C210.401 42.4791 209.917 41.9947 209.917 41.453Z" fill="#CCD9EA"/>
<mask id="mask2_283_107521" style="mask-type:luminance" maskUnits="userSpaceOnUse" x="0" y="0" width="242" height="118">
<path d="M0 0H241.214V117.349H0V0Z" fill="white"/>
</mask>
<g mask="url(#mask2_283_107521)">
<path d="M150.036 99.3542C157.016 99.3542 165.203 98.8698 173.99 97.5417L174.229 97.4844V61.7813H126.625V97.4844L126.865 97.5417C127.047 97.5417 136.135 99.3542 150.036 99.3542ZM127.229 62.3803H173.63V97C149.073 100.802 129.635 97.4219 127.229 97V62.3803ZM173.089 64.5521H127.828V67.9323H173.089V64.5521ZM172.484 67.3282H128.432V65.1563H172.484V67.3282ZM180.25 107.375H120.547V109.307H180.25V107.375ZM179.646 108.703H121.151V107.979H179.646V108.703ZM30.0938 89.099C30.8125 89.099 31.4167 88.4948 31.4167 87.7761C31.4167 87.0521 30.8125 86.448 30.0938 86.448C29.3698 86.448 28.7708 87.0521 28.7708 87.7761C28.7708 88.4948 29.3698 89.099 30.0938 89.099ZM30.0938 87.0521C30.5156 87.0521 30.8125 87.349 30.8125 87.7761C30.8125 88.198 30.5156 88.4948 30.0938 88.4948C29.6719 88.4948 29.3698 88.198 29.3698 87.7761C29.3698 87.349 29.6719 87.0521 30.0938 87.0521ZM30.0938 65.9428C30.8125 65.9428 31.4167 65.3386 31.4167 64.6146C31.4167 63.8907 30.8125 63.2865 30.0938 63.2865C29.3698 63.2865 28.7708 63.8907 28.7708 64.6146C28.7708 65.3386 29.3698 65.9428 30.0938 65.9428ZM30.0938 63.8907C30.5156 63.8907 30.8125 64.1928 30.8125 64.6146C30.8125 65.0365 30.5156 65.3386 30.0938 65.3386C29.6719 65.3386 29.3698 65.0365 29.3698 64.6146C29.3698 64.1928 29.6719 63.8907 30.0938 63.8907ZM30.0938 42.7813C30.8125 42.7813 31.4167 42.1771 31.4167 41.4532C31.4167 40.7292 30.8125 40.125 30.0938 40.125C29.3698 40.125 28.7708 40.7292 28.7708 41.4532C28.7708 42.1771 29.3698 42.7813 30.0938 42.7813ZM30.0938 40.6719C30.5156 40.6719 30.8125 40.974 30.8125 41.3959C30.8125 41.8177 30.5156 42.1198 30.0938 42.1198C29.6719 42.1198 29.3698 41.8177 29.3698 41.3959C29.3698 40.974 29.6719 40.6719 30.0938 40.6719ZM111.219 75.4115C110.495 75.4115 109.896 76.0105 109.896 76.7344C109.896 77.4584 110.495 78.0625 111.219 78.0625C111.943 78.0625 112.542 77.4584 112.542 76.7344C112.542 76.0105 111.943 75.4115 111.219 75.4115ZM111.219 77.4584C110.797 77.4584 110.495 77.1563 110.495 76.7344C110.495 76.3125 110.797 76.0105 111.219 76.0105C111.641 76.0105 111.943 76.3125 111.943 76.7344C111.943 77.1563 111.641 77.4584 111.219 77.4584ZM60.8438 113.948H115.25V39.5261H60.8438V113.948ZM61.4479 40.125H114.651V113.344H61.4479V40.125ZM180.25 59.7865V45.6771H120.547V106.167H180.25V59.7865ZM121.208 46.2813H179.708V58.4636H121.208V46.2813ZM121.208 59.0625H179.708V59.7865H121.208V59.0625ZM179.646 105.568H121.151V60.3907H179.646V105.568ZM240.974 36.1459L211.245 17.8125C211.182 17.8125 211.12 17.75 211.063 17.75H96.1146V0.322957C96.1146 0.140665 95.9948 0.020874 95.8125 0.020874H92.6823C92.6198 0.020874 92.5625 0.020875 92.5 0.0781657L91.4167 0.744832L87.5052 3.39587C87.4479 3.45837 87.4479 3.45837 87.3854 3.51567V3.57817V5.51046C87.3854 5.68754 87.5052 5.80733 87.6875 5.80733H91.2969V17.6302H24.9167C24.8542 17.6302 24.7969 17.6302 24.7344 17.6927L0.182292 36.1459H0V117.328H241.214V36.1459H240.974ZM100.026 19.8646C99.8438 19.9219 99.3021 20.0417 98.401 20.0417C97.4948 20.0417 96.9531 19.9219 96.776 19.8646V19.4427C97.2552 19.5625 97.9167 19.6198 98.401 19.6198C98.8802 19.6198 99.5417 19.5625 100.026 19.4427V19.8646ZM98.4583 19.0157C97.9167 19.0157 97.4948 18.9584 97.2552 18.8959C97.5573 18.8386 97.9792 18.7761 98.4583 18.7761C98.9427 18.7761 99.4219 18.8386 99.6615 18.8959C99.3646 18.9584 98.9427 19.0157 98.4583 19.0157ZM92.7448 0.625041H95.5104V19.0782L95.2083 19.8021V0.984416V0.921916C95.2083 0.921916 95.2083 0.921916 95.2083 0.864624C95.2083 0.864624 95.2083 0.864624 95.2083 0.802124L95.151 0.744832C95.0885 0.744832 95.0885 0.744832 95.0313 0.744832H92.7448V0.625041ZM71.3802 21.9115V29.0886L68.0052 32.948H61.8073L71.3802 21.9115ZM71.8594 29.573L116.333 29.9323L114.828 33.0105H68.7917L71.8594 29.573ZM116.635 29.3334L71.9792 28.9688V21.4323H120.365L116.635 29.3334ZM91.8385 3.81775L94.5469 1.64587V2.974L91.8385 5.02608V3.81775ZM91.8385 5.80733L94.5469 3.76046V20.8855H91.8385V5.80733ZM91.6615 1.2865H94.0677L91.4792 3.33858H88.651L91.6615 1.2865ZM87.9271 4.00004H91.2396V5.32817H87.9271V4.00004ZM25.0365 18.3542H91.2969V20.8282H71.7396H71.6771C71.6771 20.8282 71.6771 20.8282 71.6198 20.8282C71.6198 20.8282 71.6198 20.8282 71.5573 20.8282L71.5 20.8855L60.9635 33.073C60.9063 33.1303 60.9063 33.1928 60.9063 33.25C60.9063 33.3125 60.9063 33.3698 60.9063 33.4323C60.9635 33.5521 61.0885 33.6146 61.2083 33.6146H115.073C115.193 33.6146 115.313 33.5521 115.37 33.4323L117.115 29.7552L121.208 21.25C121.271 21.1303 121.271 21.0677 121.208 20.948C121.151 20.8855 121.026 20.8282 120.969 20.8282H95.4531L96.1719 19.2605C96.1719 19.198 96.1719 19.198 96.1719 19.1407V18.3542H97.0781C96.7135 18.4167 96.4115 18.5938 96.3542 18.7761C96.3542 18.8386 96.2917 18.8959 96.2917 18.8959V19.9219C96.2917 19.9844 96.2917 20.0417 96.3542 20.0417C96.5938 20.5261 97.7969 20.5886 98.5208 20.5886C99.3021 20.5886 100.505 20.5261 100.688 20.0417C100.688 19.9844 100.745 19.9219 100.745 19.9219V18.8959C100.745 18.8386 100.745 18.7761 100.688 18.7761C100.568 18.5938 100.328 18.4167 99.9635 18.3542H211.12L239.948 36.1459H1.20313L25.0365 18.3542ZM0.604167 116.724V36.75H58.3177V37.8334H1.26563V115.578H58.3177V116.662H0.604167V116.724ZM58.3177 61.2344H1.86458V38.4375H58.3177V61.2344ZM58.3177 84.698H1.86458V61.9011H58.3177V84.698ZM58.3177 115.037H1.86458V85.3021H58.3177V115.037ZM58.9219 116.724V36.75H59.5833V116.724H58.9219ZM60.1823 38.4375H116.635V115.037H60.1823V38.4375ZM117.901 116.724H60.1823V115.635H117.24V37.8334H60.1823V36.75H117.901V116.724ZM118.5 116.724V36.75H181.031V37.8334H119.281V115.635H181.031V116.724H118.5ZM181.031 115.037H119.885V38.4375H181.031V115.037ZM181.63 116.724V36.75H182.417V116.662H181.63V116.724ZM239.349 61.2969H182.958V38.4375H239.349V61.2969ZM239.349 84.698H182.958V61.9011H239.349V84.698ZM182.958 85.3021H239.349V115.037H182.958V85.3021ZM240.609 116.724H182.958V115.635H239.948V37.8334H182.958V36.75H240.552V116.724H240.609ZM211.12 86.448C210.401 86.448 209.797 87.0521 209.797 87.7761C209.797 88.4948 210.401 89.099 211.12 89.099C211.844 89.099 212.448 88.4948 212.448 87.7761C212.448 87.0521 211.844 86.448 211.12 86.448ZM211.12 88.4948C210.703 88.4948 210.401 88.198 210.401 87.7761C210.401 87.349 210.703 87.0521 211.12 87.0521C211.542 87.0521 211.844 87.349 211.844 87.7761C211.844 88.198 211.484 88.4948 211.12 88.4948ZM211.12 65.9428C211.844 65.9428 212.448 65.3386 212.448 64.6146C212.448 63.8907 211.844 63.2865 211.12 63.2865C210.401 63.2865 209.797 63.8907 209.797 64.6146C209.797 65.3386 210.401 65.9428 211.12 65.9428ZM211.12 63.8907C211.542 63.8907 211.844 64.1928 211.844 64.6146C211.844 65.0365 211.542 65.3386 211.12 65.3386C210.703 65.3386 210.401 65.0365 210.401 64.6146C210.401 64.1928 210.703 63.8907 211.12 63.8907ZM211.12 42.7813C211.844 42.7813 212.448 42.1771 212.448 41.4532C212.448 40.7292 211.844 40.125 211.12 40.125C210.401 40.125 209.797 40.7292 209.797 41.4532C209.797 42.1771 210.401 42.7813 211.12 42.7813ZM211.12 40.6719C211.542 40.6719 211.844 40.974 211.844 41.3959C211.844 41.8177 211.542 42.1198 211.12 42.1198C210.703 42.1198 210.401 41.8177 210.401 41.3959C210.401 40.974 210.703 40.6719 211.12 40.6719ZM92.3229 30.599C90.9948 30.599 88.8333 30.7188 88.8333 31.4427C88.8333 32.1667 91.0573 32.2865 92.3229 32.2865C93.6458 32.2865 95.8125 32.1667 95.8125 31.4427C95.8125 30.7188 93.6458 30.599 92.3229 30.599ZM92.3229 31.7448C90.9948 31.7448 90.0938 31.625 89.6146 31.5C90.0365 31.3803 90.9375 31.2605 92.3229 31.2605C93.7031 31.2605 94.6094 31.3803 95.0313 31.5C94.6094 31.5625 93.7031 31.7448 92.3229 31.7448ZM119.583 33.6146H181.333C181.453 33.6146 181.51 33.5521 181.573 33.4948C181.63 33.4323 181.63 33.3125 181.573 33.1928L176.339 21.0105C176.276 20.8855 176.156 20.8282 176.036 20.8282H125.063C124.943 20.8282 124.818 20.8855 124.76 21.0105L119.281 33.1928C119.224 33.3125 119.224 33.3698 119.281 33.4948C119.344 33.5521 119.464 33.6146 119.583 33.6146ZM125.302 21.4323H175.854L180.849 33.0105H120.005L125.302 21.4323ZM137.339 23.1771C136.917 23.1771 126.323 23.1771 126.323 24.9271C126.323 26.6771 136.854 26.6771 137.339 26.6771C137.818 26.6771 148.354 26.6771 148.354 24.9271C148.354 23.1771 137.818 23.1771 137.339 23.1771ZM137.339 26.1355C131.198 26.1355 127.406 25.4688 126.927 24.9896C127.349 24.5053 131.198 23.8438 137.339 23.8438C143.479 23.8438 147.271 24.5053 147.75 24.9896C147.271 25.4115 143.479 26.1355 137.339 26.1355ZM174.531 24.9271C174.531 23.1771 164 23.1771 163.516 23.1771C163.036 23.1771 152.505 23.1771 152.505 24.9271C152.505 26.6771 163.036 26.6771 163.516 26.6771C164 26.6771 174.531 26.6771 174.531 24.9271ZM163.516 23.7813C169.656 23.7813 173.448 24.448 173.927 24.9271C173.51 25.4115 169.656 26.073 163.516 26.073C157.38 26.073 153.589 25.4115 153.104 24.9271C153.589 24.448 157.438 23.7813 163.516 23.7813ZM135.771 27.9427C135.354 27.9427 124.76 27.9427 124.76 29.6927C124.76 31.4427 135.292 31.4427 135.771 31.4427C136.255 31.4427 146.786 31.4427 146.786 29.6927C146.786 27.9427 136.255 27.9427 135.771 27.9427ZM135.771 30.8386C129.635 30.8386 125.844 30.1771 125.359 29.6927C125.781 29.2084 129.635 28.5469 135.771 28.5469C141.911 28.5469 145.703 29.2084 146.188 29.6927C145.766 30.1771 141.911 30.8386 135.771 30.8386ZM165.083 27.9427C164.661 27.9427 154.068 27.9427 154.068 29.6927C154.068 31.4427 164.599 31.4427 165.083 31.4427C165.563 31.4427 176.094 31.4427 176.094 29.6927C176.094 27.9427 165.563 27.9427 165.083 27.9427ZM165.083 30.8386C158.943 30.8386 155.151 30.1771 154.672 29.6927C155.094 29.2084 158.943 28.5469 165.083 28.5469C171.219 28.5469 175.01 29.2084 175.495 29.6927C175.073 30.1771 171.219 30.8386 165.083 30.8386Z" fill="black"/>
</g>
</svg>
