<svg width="313" height="245" viewBox="0 0 313 245" fill="none" xmlns="http://www.w3.org/2000/svg">
<path d="M305.421 89.98H204.871V99.4306H305.421V89.98Z" fill="#55331A"/>
<path d="M309.088 54.2893H201.628V93.2355H309.088V54.2893Z" fill="#6F4323"/>
<path d="M296.877 61.8386V60.8694H210.675V84.8505H297.843V60.8694H296.877V61.8386H295.906V82.9175H212.608V62.8051H296.877V61.8386Z" fill="#5B361C"/>
<path d="M275.379 63.3729V60.2383H233.144V63.3729C233.144 64.0589 233.977 64.6185 235.003 64.6185H273.515C274.537 64.6185 275.379 64.0589 275.379 63.3729Z" fill="#3C2210"/>
<path d="M273.513 65.8544V61.7546H270.31V63.8059C270.31 64.2513 269.711 64.6184 268.982 64.6184H239.653C238.917 64.6184 238.326 64.2513 238.326 63.8059V61.7546H235.119V65.8544C235.119 66.7508 235.864 67.4904 236.778 67.4904H271.854C272.764 67.4904 273.513 66.7508 273.513 65.8544Z" fill="#918F8F"/>
<path d="M273.513 65.8544V63.9956C272.94 65.4034 271.938 66.3727 269.987 66.6669C265.498 67.3282 260.542 67.2938 256.011 67.1893C252.228 67.0972 240.78 67.7063 237.152 66.3479C236.271 66.0221 235.615 65.6028 235.119 65.1051V65.8544C235.119 66.7508 235.864 67.4904 236.778 67.4904H271.854C272.764 67.4904 273.513 66.7508 273.513 65.8544Z" fill="#A7A5A6"/>
<path d="M240.851 65.7705C243.089 65.7774 251.721 65.7884 253.96 65.8159C258.392 65.8723 263.152 66.517 267.55 65.9836C270.397 65.6372 271.049 64.507 272.562 62.3706C272.716 62.1506 272.873 61.9471 273.027 61.7546H270.31V63.8059C270.31 64.2513 269.711 64.6184 268.982 64.6184H239.653C238.918 64.6184 238.326 64.2513 238.326 63.8059V61.7546H235.833C235.991 62.0379 236.134 62.3389 236.26 62.6826C237.136 65.0872 238.41 65.7636 240.851 65.7705Z" fill="#7F7D7E"/>
<path d="M305.421 138.911H204.871V148.366H305.421V138.911Z" fill="#55331A"/>
<path d="M309.088 97.2761H201.628V142.175H309.088V97.2761Z" fill="#6F4323"/>
<path d="M296.877 106.632V105.663H210.675V133.786H297.843V105.663H296.877V106.632H295.906V131.849H212.608V107.598H296.877V106.632Z" fill="#5B361C"/>
<path d="M275.379 108.166V105.029H233.144V108.166C233.144 108.852 233.977 109.416 235.003 109.416H273.515C274.537 109.416 275.379 108.852 275.379 108.166Z" fill="#3C2210"/>
<path d="M273.513 110.649V106.552H270.31V108.6C270.31 109.051 269.711 109.416 268.982 109.416H239.653C238.917 109.416 238.326 109.051 238.326 108.6V106.552H235.119V110.649C235.119 111.544 235.864 112.28 236.778 112.28H271.854C272.764 112.28 273.513 111.544 273.513 110.649Z" fill="#918F8F"/>
<path d="M273.513 110.649V108.793C272.94 110.197 271.938 111.166 269.987 111.457C265.498 112.126 260.542 112.087 256.011 111.978C252.228 111.892 240.78 112.501 237.152 111.145C236.271 110.817 235.615 110.4 235.119 109.902V110.649C235.119 111.544 235.864 112.28 236.778 112.28H271.854C272.764 112.28 273.513 111.544 273.513 110.649Z" fill="#A7A5A6"/>
<path d="M240.851 110.564C243.089 110.571 251.721 110.582 253.96 110.609C258.392 110.665 263.152 111.306 267.55 110.774C270.397 110.432 271.049 109.296 272.562 107.164C272.716 106.94 272.873 106.74 273.027 106.552H270.31V108.6C270.31 109.051 269.711 109.416 268.982 109.416H239.653C238.918 109.416 238.326 109.051 238.326 108.6V106.552H235.833C235.991 106.831 236.134 107.134 236.26 107.48C237.136 109.882 238.41 110.557 240.851 110.564Z" fill="#7F7D7E"/>
<path d="M313 50.3752C313 52.5392 311.244 54.2894 309.087 54.2894H200.326C198.162 54.2894 196.413 52.5392 196.413 50.3752C196.413 48.214 198.162 46.4597 200.326 46.4597H309.087C311.244 46.4597 313 48.214 313 50.3752Z" fill="#B9B7B8"/>
<path d="M196.508 51.2085C196.886 52.9697 198.448 54.2895 200.326 54.2895H309.087C310.961 54.2895 312.523 52.9697 312.908 51.2085H196.508Z" fill="#A09F9F"/>
<path d="M286.496 32.9341H160.389L199.734 46.4596H309.515L286.496 32.9341Z" fill="#A09F9F"/>
<path d="M305.421 185.995H204.871V196.321H305.421V185.995Z" fill="#55331A"/>
<path d="M309.088 145.021H201.628V189.553H309.088V145.021Z" fill="#6F4323"/>
<path d="M296.877 155.239V154.231H210.63V180.341H297.886V154.231H296.877V155.239H295.865V178.321H212.654V156.251H296.877V155.239Z" fill="#5B361C"/>
<path d="M275.379 156.92V153.496H233.144V156.92C233.144 157.672 233.977 158.286 235.003 158.286H273.515C274.537 158.286 275.379 157.672 275.379 156.92Z" fill="#3C2210"/>
<path d="M273.513 159.633V155.151H270.31V157.392C270.31 157.883 269.711 158.285 268.982 158.285H239.653C238.917 158.285 238.326 157.883 238.326 157.392V155.151H235.119V159.633C235.119 160.613 235.864 161.419 236.778 161.419H271.854C272.764 161.419 273.513 160.613 273.513 159.633Z" fill="#918F8F"/>
<path d="M273.513 159.633V157.602C272.94 159.139 271.938 160.201 269.987 160.516C265.498 161.244 260.542 161.202 256.011 161.09C252.228 160.991 240.78 161.657 237.152 160.173C236.271 159.812 235.615 159.357 235.119 158.814V159.633C235.119 160.613 235.864 161.419 236.778 161.419H271.854C272.764 161.419 273.513 160.613 273.513 159.633Z" fill="#A7A5A6"/>
<path d="M240.851 159.539C243.089 159.549 251.721 159.56 253.96 159.592C258.392 159.651 263.152 160.35 267.55 159.77C270.397 159.395 271.049 158.156 272.562 155.823C272.716 155.583 272.873 155.365 273.027 155.151H270.31V157.392C270.31 157.883 269.711 158.285 268.982 158.285H239.653C238.918 158.285 238.326 157.883 238.326 157.392V155.151H235.833C235.991 155.46 236.134 155.792 236.26 156.167C237.136 158.79 238.41 159.531 240.851 159.539Z" fill="#7F7D7E"/>
<mask id="mask0_283_107538" style="mask-type:luminance" maskUnits="userSpaceOnUse" x="204" y="235" width="102" height="11">
<path d="M204.619 235.453H305.631V245H204.619V235.453Z" fill="white"/>
</mask>
<g mask="url(#mask0_283_107538)">
<path d="M305.421 235.607H204.872V245.058H305.421V235.607Z" fill="#55331A"/>
</g>
<path d="M309.088 192.568H201.628V238.867H309.088V192.568Z" fill="#6F4323"/>
<path d="M296.877 201.917V200.951H210.675V224.932H297.843V200.951H296.877V201.917H295.906V222.995H212.608V202.886H296.877V201.917Z" fill="#5B361C"/>
<path d="M275.379 203.454V200.317H233.144V203.454C233.144 204.14 233.977 204.704 235.003 204.704H273.515C274.537 204.704 275.379 204.14 275.379 203.454Z" fill="#3C2210"/>
<path d="M273.513 205.94V201.836H270.31V203.891C270.31 204.335 269.711 204.704 268.982 204.704H239.653C238.917 204.704 238.326 204.335 238.326 203.891V201.836H235.119V205.94C235.119 206.836 235.864 207.568 236.778 207.568H271.854C272.764 207.568 273.513 206.836 273.513 205.94Z" fill="#918F8F"/>
<path d="M273.513 205.94V204.077C272.94 205.485 271.938 206.458 269.987 206.745C265.498 207.409 260.542 207.371 256.011 207.271C252.228 207.179 240.78 207.789 237.152 206.433C236.271 206.101 235.615 205.684 235.119 205.191V205.94C235.119 206.836 235.864 207.568 236.778 207.568H271.854C272.764 207.568 273.513 206.836 273.513 205.94Z" fill="#A7A5A6"/>
<path d="M240.851 205.852C243.089 205.859 251.721 205.87 253.96 205.901C258.392 205.954 263.152 206.598 267.55 206.062C270.397 205.718 271.049 204.588 272.562 202.452C272.716 202.232 272.873 202.028 273.027 201.836H270.31V203.891C270.31 204.335 269.711 204.704 268.982 204.704H239.653C238.918 204.704 238.326 204.335 238.326 203.891V201.836H235.833C235.991 202.119 236.134 202.424 236.26 202.767C237.136 205.17 238.41 205.845 240.851 205.852Z" fill="#7F7D7E"/>
<path d="M190.076 92.6829H14.4639V101.667H190.076V92.6829Z" fill="#55331A"/>
<path d="M199.583 53.1277H4.95801V95.7776H199.583V53.1277Z" fill="#6F4323"/>
<path d="M95.4546 62.0132V61.0962H13.5464V87.8119H96.3729V61.0962H95.4546V62.0132H94.5334V85.9778H15.3845V62.9316H95.4546V62.0132Z" fill="#5B361C"/>
<path d="M187.96 62.0133V61.0784H103.195V87.8298H188.897V61.0784H187.96V62.0133H187.025V85.96H105.065V62.9481H187.96V62.0133Z" fill="#5B361C"/>
<path d="M75.0246 63.4704V60.4939H34.8975V63.4704C34.8975 64.1248 35.6894 64.661 36.66 64.661H73.2552C74.2286 64.661 75.0246 64.1248 75.0246 63.4704Z" fill="#3C2210"/>
<path d="M73.2541 65.8298V61.9363H70.2075V63.883C70.2075 64.3147 69.6397 64.6612 68.944 64.6612H41.0818C40.3875 64.6612 39.821 64.3147 39.821 63.883V61.9363H36.7744V65.8298C36.7744 66.6849 37.4811 67.382 38.3458 67.382H71.6744C72.5406 67.382 73.2541 66.6849 73.2541 65.8298Z" fill="#918F8F"/>
<path d="M73.2541 65.8296V64.0657C72.7111 65.4034 71.7597 66.3273 69.9023 66.6009C65.6334 67.2347 60.9274 67.1962 56.6228 67.0944C53.0263 67.0133 42.1569 67.5907 38.7074 66.2998C37.8702 65.9877 37.2474 65.5917 36.7744 65.1188V65.8296C36.7744 66.6847 37.4811 67.3818 38.3458 67.3818H71.6744C72.5406 67.3818 73.2541 66.6847 73.2541 65.8296Z" fill="#A7A5A6"/>
<path d="M42.2172 65.7501C44.3496 65.7528 52.5408 65.7679 54.6745 65.7913C58.887 65.8477 63.4074 66.4567 67.5966 65.9535C70.2926 65.6236 70.9126 64.5485 72.348 62.522C72.4992 62.3075 72.6422 62.1191 72.7865 61.9363H70.2087V63.883C70.2087 64.3147 69.6409 64.6612 68.9453 64.6612H41.083C40.3887 64.6612 39.8223 64.3147 39.8223 63.883V61.9363H37.4507C37.6019 62.1989 37.7421 62.4903 37.8604 62.8162C38.6908 65.1025 39.8993 65.7432 42.2172 65.7501Z" fill="#7F7D7E"/>
<path d="M169.266 63.4704V60.4939H129.136V63.4704C129.136 64.1248 129.935 64.661 130.906 64.661H167.501C168.467 64.661 169.266 64.1248 169.266 63.4704Z" fill="#3C2210"/>
<path d="M167.501 65.8298V61.9363H164.455V63.883C164.455 64.3147 163.888 64.6612 163.194 64.6612H135.325C134.636 64.6612 134.064 64.3147 134.064 63.883V61.9363H131.018V65.8298C131.018 66.6849 131.732 67.382 132.597 67.382H165.923C166.788 67.382 167.501 66.6849 167.501 65.8298Z" fill="#918F8F"/>
<path d="M167.501 65.8296V64.0657C166.956 65.4034 166.003 66.3273 164.151 66.6009C159.882 67.2347 155.168 67.1962 150.871 67.0944C147.275 67.0133 136.408 67.5907 132.955 66.2998C132.111 65.9877 131.491 65.5917 131.018 65.1188V65.8296C131.018 66.6847 131.732 67.3818 132.597 67.3818H165.923C166.788 67.3818 167.501 66.6847 167.501 65.8296Z" fill="#A7A5A6"/>
<path d="M136.466 65.7501C138.596 65.7528 146.79 65.7679 148.919 65.7913C153.132 65.8477 157.65 66.4567 161.839 65.9535C164.535 65.6236 165.158 64.5485 166.59 62.522C166.744 62.3075 166.888 62.1191 167.036 61.9363H164.454V63.883C164.454 64.3147 163.887 64.6612 163.193 64.6612H135.324C134.635 64.6612 134.063 64.3147 134.063 63.883V61.9363H131.7C131.851 62.1989 131.983 62.4903 132.107 62.8162C132.936 65.1025 134.144 65.7432 136.466 65.7501Z" fill="#7F7D7E"/>
<path d="M204.543 50.3752C204.543 52.4305 202.882 54.0927 200.82 54.0927H3.71891C1.66767 54.0927 0 52.4305 0 50.3752C0 48.3225 1.66767 46.6562 3.71891 46.6562H200.82C202.882 46.6562 204.543 48.3225 204.543 50.3752Z" fill="#B9B7B8"/>
<path d="M0.0874023 51.1699C0.451732 52.8403 1.93655 54.0928 3.71832 54.0928H200.819C202.605 54.0928 204.094 52.8403 204.454 51.1699H0.0874023Z" fill="#A09F9F"/>
<mask id="mask1_283_107538" style="mask-type:luminance" maskUnits="userSpaceOnUse" x="14" y="235" width="177" height="11">
<path d="M14.2109 235.805H190.189V245H14.2109V235.805Z" fill="white"/>
</mask>
<g mask="url(#mask1_283_107538)">
<path d="M190.077 236.08H14.4648V245.058H190.077V236.08Z" fill="#55331A"/>
</g>
<path d="M199.583 101.663H4.95801V239.175H199.583V101.663Z" fill="#6F4323"/>
<path d="M100.409 110.554V109.606H13.5171V231.234H101.355V109.606H100.409V110.554H99.4645V229.344H15.4116V111.499H100.409V110.554Z" fill="#5B361C"/>
<path d="M187.96 110.554V109.595H99.4541V231.245H188.917V109.595H187.96V110.554H187.005V229.333H101.366V111.506H187.96V110.554Z" fill="#5B361C"/>
<path d="M15.9828 138.909H13.1987V127.753H15.9828V138.909Z" fill="#D3D2D2"/>
<path d="M15.9828 219.035H13.1987V207.88H15.9828V219.035Z" fill="#D3D2D2"/>
<path d="M189.354 138.569H186.567V127.414H189.354V138.569Z" fill="#D3D2D2"/>
<path d="M189.354 218.696H186.567V207.543H189.354V218.696Z" fill="#D3D2D2"/>
<path d="M93.5075 190.481H96.4881V150.361H93.5075C92.8531 150.361 92.3169 151.157 92.3169 152.126V188.713C92.3169 189.687 92.8531 190.481 93.5075 190.481Z" fill="#3C2210"/>
<path d="M91.1429 188.713H95.0419V185.667H93.091C92.6676 185.667 92.317 185.099 92.317 184.41V156.545C92.317 155.852 92.6676 155.284 93.091 155.284H95.0419V152.238H91.1429C90.296 152.238 89.5962 152.948 89.5962 153.814V187.136C89.5962 188.005 90.296 188.713 91.1429 188.713Z" fill="#918F8F"/>
<path d="M91.1429 188.713H92.9123C91.5773 188.17 90.6534 187.221 90.3798 185.365C89.746 181.097 89.7777 176.388 89.8794 172.085C89.9674 168.492 89.3886 157.62 90.6741 154.175C90.993 153.335 91.389 152.715 91.8578 152.238H91.1429C90.296 152.238 89.5962 152.948 89.5962 153.814V187.136C89.5962 188.005 90.296 188.713 91.1429 188.713Z" fill="#A7A5A6"/>
<path d="M91.2272 157.683C91.2203 159.816 91.2093 168.008 91.1846 170.134C91.1324 174.346 90.5233 178.867 91.0237 183.05C91.3523 185.75 92.4274 186.373 94.4553 187.806C94.6657 187.956 94.8581 188.1 95.041 188.25V185.667H93.0901C92.6667 185.667 92.3161 185.099 92.3161 184.41V156.545C92.3161 155.852 92.6667 155.284 93.0901 155.284H95.041V152.914C94.7743 153.065 94.4869 153.204 94.1584 153.324C91.8775 154.157 91.2341 155.365 91.2272 157.683Z" fill="#7F7D7E"/>
<path d="M107.313 190.481H104.332V150.361H107.313C107.967 150.361 108.503 151.157 108.503 152.126V188.713C108.503 189.687 107.967 190.481 107.313 190.481Z" fill="#3C2210"/>
<path d="M109.669 188.713H105.776V185.667H107.723C108.15 185.667 108.504 185.099 108.504 184.41V156.545C108.504 155.852 108.15 155.284 107.723 155.284H105.776V152.238H109.669C110.525 152.238 111.222 152.948 111.222 153.814V187.136C111.222 188.005 110.525 188.713 109.669 188.713Z" fill="#918F8F"/>
<path d="M109.668 188.713H107.904C109.242 188.17 110.17 187.221 110.442 185.365C111.076 181.097 111.038 176.388 110.936 172.085C110.852 168.492 111.431 157.62 110.141 154.175C109.826 153.335 109.43 152.715 108.962 152.238H109.668C110.523 152.238 111.22 152.948 111.22 153.814V187.136C111.22 188.005 110.523 188.713 109.668 188.713Z" fill="#A7A5A6"/>
<path d="M109.59 157.683C109.597 159.816 109.61 168.008 109.635 170.134C109.687 174.346 110.296 178.867 109.793 183.05C109.467 185.75 108.392 186.373 106.364 187.806C106.15 187.956 105.961 188.1 105.776 188.25V185.667H107.723C108.15 185.667 108.504 185.099 108.504 184.41V156.545C108.504 155.852 108.15 155.284 107.723 155.284H105.776V152.914C106.045 153.065 106.333 153.204 106.659 153.324C108.942 154.157 109.586 155.365 109.59 157.683Z" fill="#7F7D7E"/>
<path d="M179.44 35.5217H25.0958L3.23193 46.6565H201.313L179.44 35.5217Z" fill="#A09F9F"/>
<path d="M119.177 38.4597C117.465 37.5 117.128 36.8704 114.625 36.8704H31.3706C28.867 36.8704 28.5412 37.6994 26.8185 38.4597L16.4702 43.2386C16.4702 44.1116 17.478 45.3049 19.9829 45.3049H126.012C128.517 45.3049 129.102 44.3316 129.102 43.4558L119.177 38.4597Z" fill="#484253"/>
<path d="M57.6467 38.2492C57.6467 38.6767 52.2189 39.0232 45.5304 39.0232C38.8336 39.0232 33.4058 38.6767 33.4058 38.2492C33.4058 37.8188 38.8336 37.4683 45.5304 37.4683C52.2189 37.4683 57.6467 37.8188 57.6467 38.2492Z" fill="#A7A5A6"/>
<path d="M71.738 41.0897C71.738 41.5159 62.6367 41.8665 51.4126 41.8665C40.1926 41.8665 31.0898 41.5159 31.0898 41.0897C31.0898 40.6621 40.1926 40.3115 51.4126 40.3115C62.6367 40.3115 71.738 40.6621 71.738 41.0897Z" fill="#A7A5A6"/>
<path d="M110.328 38.3687C110.328 38.7991 104.9 39.1455 98.2074 39.1455C91.5147 39.1455 86.0938 38.7991 86.0938 38.3687C86.0938 37.9412 91.5147 37.5906 98.2074 37.5906C104.9 37.5906 110.328 37.9412 110.328 38.3687Z" fill="#A7A5A6"/>
<path d="M112.285 41.2121C112.285 41.6396 105.904 41.9861 98.0276 41.9861C90.1553 41.9861 83.772 41.6396 83.772 41.2121C83.772 40.7845 90.1553 40.4312 98.0276 40.4312C105.904 40.4312 112.285 40.7845 112.285 41.2121Z" fill="#A7A5A6"/>
<path d="M74.4214 21.0432C75.5817 19.4113 77.6082 18.0818 79.0518 18.0502C80.3538 18.0255 80.6796 16.6603 79.0834 16.5901C77.1284 16.5021 74.6001 16.8459 73.2349 18.0915C71.8339 19.2752 73.8439 21.0432 74.4214 21.0432Z" fill="#C13331"/>
<path d="M27.6275 21.0432C26.4685 19.4113 24.4406 18.0818 22.9985 18.0502C21.6992 18.0255 21.3665 16.6603 22.9737 16.5901C24.9205 16.5021 27.4556 16.8459 28.8112 18.0915C30.2232 19.2752 28.2063 21.0432 27.6275 21.0432Z" fill="#C13331"/>
<path d="M28.9204 15.5535V37.6332C28.9204 39.4645 30.4025 40.9452 32.2337 40.9452H69.8697C71.701 40.9452 73.1899 39.4645 73.1899 37.6332V15.5535H28.9204Z" fill="#BDBCBC"/>
<path d="M71.947 20.4838C71.3999 22.8883 71.2954 25.1788 71.2528 27.6232C71.2253 29.2263 71.2569 31.0892 70.6753 32.6152C69.8449 34.7902 68.1883 35.8296 65.8524 35.8901C61.5451 35.9946 57.2584 35.9671 52.9483 36.3094C47.1108 36.7714 39.8365 36.8318 35.147 32.7005C32.6778 30.5255 31.6976 28.0288 31.4418 24.7938C31.27 22.5914 31.0913 20.5429 30.0863 18.526C29.6917 17.7314 29.2957 16.9436 28.9204 16.1489V37.6334C28.9204 39.4646 30.4025 40.9453 32.2337 40.9453H69.8697C71.701 40.9453 73.1899 39.4646 73.1899 37.6334V16.4211C72.6853 17.7492 72.2646 19.1007 71.947 20.4838Z" fill="#A7A5A6"/>
<path d="M74.5763 23.3201H73.0942V16.5752H74.5763V23.3201Z" fill="#962724"/>
<path d="M27.4736 23.3201H28.9557V16.5752H27.4736V23.3201Z" fill="#962724"/>
<path d="M52.6915 9.79298H49.6339L48.0996 6.29542C48.0996 6.29542 48.6812 5.44165 51.1572 5.44165C53.6374 5.44165 54.2148 6.29542 54.2148 6.29542L52.6915 9.79298Z" fill="#29242C"/>
<path d="M50.4712 8.30128C49.9419 8.02494 48.7939 6.32703 48.2013 6.19092L48.0996 6.2954L49.6339 9.79297H52.6915L53.203 8.62436C52.2956 8.84159 51.2975 8.73573 50.4712 8.30128Z" fill="#151114"/>
<path d="M73.9703 14.8634C73.9703 15.2277 73.672 15.5247 73.3049 15.5247H29.0217C28.6464 15.5247 28.3535 15.2277 28.3535 14.8634C28.3535 14.4922 28.6464 14.198 29.0217 14.198H73.3049C73.672 14.198 73.9703 14.4922 73.9703 14.8634Z" fill="#962724"/>
<path d="M72.016 14.198C69.3584 12.5042 61.0311 9.79028 51.1584 9.79028C41.2941 9.79028 32.9585 12.5042 30.3105 14.198H72.016Z" fill="#C13331"/>
<path d="M50.4339 9.79321C40.8844 9.92382 32.8952 12.5497 30.3105 14.1982H44.4039C44.4039 14.1982 40.9187 13.9741 41.1854 12.6405C41.4508 11.3096 50.4339 9.79321 50.4339 9.79321Z" fill="#A82C29"/>
<path d="M70.5346 13.9465L53.1196 10.1575C53.1196 10.1575 53.1224 10.1575 53.1265 10.1575C53.3217 10.1575 57.6469 10.1685 62.1852 11.19C65.2401 11.8774 70.5346 13.9465 70.5346 13.9465Z" fill="#C73F38"/>
<path d="M240.231 39.2583V39.8921C240.231 40.8614 241.145 41.6464 242.274 41.6464H261.769C262.896 41.6464 263.811 40.8614 263.811 39.8921V39.2583H240.231Z" fill="#D3D2D2"/>
<path d="M272.995 6.35454L267.843 5.44165C267.858 6.76836 267.843 8.09919 267.721 9.41216L269.767 9.77649C270.96 9.98546 271.727 11.2572 271.487 12.6114L269.461 24.006C269.221 25.3602 268.061 26.2854 266.87 26.0751L264.903 25.7245C264.835 27.0347 264.674 28.3504 264.496 29.6469L268.723 30.3962C270.722 30.7495 272.635 29.4159 272.985 27.4197L275.975 10.6193C276.329 8.62025 274.998 6.71612 272.995 6.35454Z" fill="#BFBEBE"/>
<mask id="mask2_283_107538" style="mask-type:luminance" maskUnits="userSpaceOnUse" x="232" y="0" width="38" height="41">
<path d="M232.422 0.830566H269.025V40.1177H232.422V0.830566Z" fill="white"/>
</mask>
<g mask="url(#mask2_283_107538)">
<path d="M232.479 0.86084L236.054 7.6085L239.241 38.7264C239.241 38.7264 239.501 39.8922 240.228 39.8922C243.573 39.8922 263.161 39.8922 263.808 39.8922C264.516 39.8922 264.786 38.8377 264.786 38.8377L268.887 0.86084H232.479Z" fill="#D3D2D2"/>
</g>
<path d="M263.185 36.7123C263.185 36.7123 262.943 37.6719 262.32 37.6719C261.745 37.6719 244.382 37.6719 241.42 37.6719C240.775 37.6719 240.544 36.6078 240.544 36.6078L237.721 8.3262L236.254 2.18896H266.82L263.185 36.7123Z" fill="#BFBEBE"/>
<path d="M238.978 16.3977L241.221 36.3066C241.221 36.3066 241.445 37.1989 242.063 37.1989H261.992C262.592 37.1989 262.818 36.3863 262.818 36.3863L265.204 16.3977H238.978Z" fill="#F68712"/>
<path d="M261.994 37.199H242.064C241.447 37.199 241.223 36.3067 241.223 36.3067L240.215 27.3318C241.15 29.2332 241.836 30.8858 243.503 32.2977C245.867 34.2926 249.004 34.5208 252.034 34.5208C252.471 34.5208 252.909 34.5139 253.343 34.5098C253.775 34.5071 254.201 34.5002 254.622 34.5002C254.726 34.5002 254.832 34.5002 254.937 34.503C254.968 34.503 255 34.503 255.031 34.503C258.933 34.503 261.061 33.0401 262.435 29.3625C263.229 27.2274 263.444 24.9273 264.126 22.7633C264.259 22.3426 264.42 21.9329 264.592 21.5232L262.82 36.3865C262.82 36.3865 262.593 37.199 261.994 37.199Z" fill="#DC7810"/>
</svg>
