<svg width="271" height="152" viewBox="0 0 271 152" fill="none" xmlns="http://www.w3.org/2000/svg">
<path fill-rule="evenodd" clip-rule="evenodd" d="M30.7693 47.8237H17.0981L17.4063 150.914L26.864 151.468L30.6672 147.586L30.7693 47.8237Z" fill="black"/>
<mask id="mask0_283_107537" style="mask-type:luminance" maskUnits="userSpaceOnUse" x="244" y="48" width="15" height="104">
<path d="M244.959 48.1548H258.273V152H244.959V48.1548Z" fill="white"/>
</mask>
<g mask="url(#mask0_283_107537)">
<path fill-rule="evenodd" clip-rule="evenodd" d="M245.203 48.3455H258.086L257.795 151.435L248.885 151.989L245.301 148.107L245.203 48.3455Z" fill="black"/>
</g>
<path fill-rule="evenodd" clip-rule="evenodd" d="M59.7527 50.7283H46.5679V119.026L57.2631 119.338L60.3055 116.279L59.7527 50.7283Z" fill="black"/>
<path fill-rule="evenodd" clip-rule="evenodd" d="M217.787 51.2976H230.213V119.597L220.134 119.908L217.266 116.848L217.787 51.2976Z" fill="black"/>
<path fill-rule="evenodd" clip-rule="evenodd" d="M13.5007 33.5718C13.5007 33.5718 39.6132 33.7384 74.7624 33.9599C93.5024 34.0716 114.736 34.1824 136.025 34.2931C148.444 34.349 160.863 34.4039 172.784 34.4039C219.631 34.5146 258.606 34.5705 258.606 34.5705C258.994 34.5705 259.271 34.2931 259.271 33.905C259.271 33.5169 258.994 33.2395 258.606 33.2395C258.606 33.2395 219.631 33.018 172.784 32.7406C160.863 32.6848 148.444 32.6299 136.025 32.574C114.736 32.5181 93.4456 32.4632 74.7075 32.4074C39.5583 32.2966 13.4448 32.2966 13.4448 32.2966C13.1125 32.2966 12.7803 32.574 12.7803 32.9072C12.891 33.2944 13.1674 33.5718 13.5007 33.5718Z" fill="white"/>
<path fill-rule="evenodd" clip-rule="evenodd" d="M25.0324 54.0905C25.0324 54.0905 24.9765 64.4044 24.9216 78.2682C24.9216 85.6436 24.8667 94.0726 24.8667 102.447C24.8667 107.382 24.8667 112.262 24.9216 116.975C24.9765 135.497 25.0882 150.858 25.0882 150.858C25.0882 151.246 25.3656 151.523 25.7537 151.523C26.1409 151.523 26.4183 151.246 26.4183 150.858C26.4183 150.858 26.4731 135.497 26.529 116.975C26.529 112.262 26.529 107.382 26.529 102.447C26.529 94.0177 26.4731 85.6436 26.4183 78.2682C26.3634 64.4044 26.2516 54.0905 26.2516 54.0905C26.2516 53.7573 25.9743 53.425 25.5871 53.425C25.199 53.425 25.0324 53.7573 25.0324 54.0905Z" fill="white"/>
<mask id="mask1_283_107537" style="mask-type:luminance" maskUnits="userSpaceOnUse" x="248" y="53" width="3" height="99">
<path d="M248.903 53.8257H250.876V152H248.903V53.8257Z" fill="white"/>
</mask>
<g mask="url(#mask1_283_107537)">
<path fill-rule="evenodd" clip-rule="evenodd" d="M249.218 54.6115C249.218 54.6115 249.114 64.9263 249.061 78.7901C249.007 86.1655 248.957 94.5946 248.957 102.968C248.957 107.848 248.957 112.783 248.957 117.497C249.01 135.964 249.061 151.379 249.061 151.379C249.061 151.768 249.375 152.044 249.741 152.044C250.106 152.044 250.42 151.768 250.42 151.379C250.42 151.379 250.524 136.018 250.577 117.497C250.577 112.783 250.63 107.904 250.63 102.968C250.63 94.5946 250.63 86.1655 250.577 78.7901C250.524 64.9263 250.473 54.6115 250.473 54.6115C250.473 54.2793 250.212 53.946 249.847 53.946C249.479 54.0019 249.218 54.2793 249.218 54.6115Z" fill="white"/>
</g>
<path fill-rule="evenodd" clip-rule="evenodd" d="M53.3623 54.5894C53.3623 54.5894 53.3623 61.5208 53.4182 70.8378C53.4182 75.7728 53.4731 81.429 53.528 87.0304C53.5838 90.3021 53.5838 93.6286 53.6387 96.7346C53.8053 109.157 54.0268 119.416 54.0268 119.416C54.0268 119.804 54.3042 120.081 54.6914 120.081C55.0795 120.081 55.3559 119.804 55.3559 119.416C55.3559 119.416 55.3559 109.101 55.2461 96.7346C55.2461 93.5737 55.1903 90.3021 55.1903 87.0304C55.1354 81.3741 55.0236 75.7728 54.9688 70.8378C54.8021 61.5208 54.6914 54.6443 54.6914 54.6443C54.6914 54.312 54.414 54.0347 54.0268 54.0347C53.6397 53.9239 53.3623 54.2562 53.3623 54.5894Z" fill="white"/>
<path fill-rule="evenodd" clip-rule="evenodd" d="M222.522 55.1103C222.522 55.1103 222.365 62.0427 222.208 71.3029C222.155 76.2387 222.051 81.895 222 87.4954C221.947 90.7671 221.947 94.0946 221.947 97.2006C221.894 109.567 221.842 119.881 221.842 119.881C221.842 120.269 222.157 120.546 222.522 120.546C222.887 120.546 223.202 120.269 223.202 119.881C223.202 119.881 223.41 109.567 223.567 97.2006C223.62 94.0397 223.671 90.7671 223.671 87.4954C223.724 81.8392 223.724 76.2387 223.775 71.3029C223.828 61.9868 223.828 55.0554 223.828 55.0554C223.828 54.7222 223.567 54.3899 223.202 54.3899C222.837 54.5006 222.522 54.778 222.522 55.1103Z" fill="white"/>
<path fill-rule="evenodd" clip-rule="evenodd" d="M120.446 17.0468C120.337 16.936 120.169 16.8253 120.003 16.7135C119.893 16.6586 119.726 16.6028 119.615 16.5479C119.338 16.4371 119.006 16.3254 118.728 16.2147C117.342 15.7707 115.734 15.5492 115.457 15.4943C112.852 15.1061 110.245 14.9395 107.585 14.8837C104.923 14.8278 102.318 14.8837 99.6561 15.0503C99.1572 15.1061 98.77 15.2169 98.4927 15.3825C98.3819 15.4943 98.2702 15.5492 98.2702 15.6599C98.2702 15.7158 98.3809 15.7707 98.4927 15.8265C98.6593 15.8824 98.8798 15.9373 99.1572 15.9931C99.5453 16.048 99.8217 16.3254 99.7668 16.7135C99.7668 17.1017 99.4346 17.379 99.0464 17.3241C97.1058 17.1575 96.6618 15.9931 97.1058 15.1061C97.3832 14.4955 98.2143 13.83 99.6002 13.7193C102.262 13.4978 104.922 13.4419 107.639 13.4419C110.356 13.4978 113.016 13.6644 115.678 13.9966C116.122 14.0525 119.892 14.6621 121.278 15.6599C121.777 15.9931 122.054 16.4371 122.109 16.8253C122.165 17.1575 122.054 17.5457 121.722 17.9338C120.89 18.9325 119.337 19.6529 117.508 20.0969C114.071 20.9281 109.58 20.8732 107.418 21.0398C100.987 21.5936 94.5565 21.9268 88.0691 21.9817C81.5835 22.0375 75.151 21.8709 68.7204 21.4279L56.4679 20.485C56.3013 20.485 53.9734 20.3184 53.0855 20.2635C52.864 20.2635 52.7542 20.2077 52.6983 20.2077C52.1994 20.0969 52.1436 19.6529 52.1436 19.5422C52.1436 19.2089 52.4209 18.8767 52.7542 18.8767C52.8091 18.8767 52.864 18.8767 52.9208 18.8767C52.9757 18.8767 53.0874 18.8767 53.1423 18.8767C54.0842 18.9325 56.359 19.0433 56.5247 19.0982L68.7763 19.8744C75.152 20.2626 81.5835 20.3743 88.0142 20.2626C94.4448 20.1518 100.876 19.8744 107.196 19.3206C109.026 19.154 112.573 19.2089 115.734 18.71C117.731 18.4885 119.56 17.9896 120.446 17.0468Z" fill="white"/>
<path fill-rule="evenodd" clip-rule="evenodd" d="M78.7549 7.45342C78.4775 7.62004 78.1453 7.50832 77.9228 7.28681C77.7562 7.12019 77.7562 6.89868 77.813 6.73206C77.813 6.56545 77.9796 6.28904 78.3668 6.17732C78.7 6.06656 79.586 6.01166 79.9202 6.01166C80.4191 5.9558 80.9729 5.89994 81.4728 5.89994C82.249 5.84505 83.0253 5.84505 83.8006 5.78919C85.852 5.67843 87.9034 5.67843 89.9538 5.62354C92.0052 5.62354 94.0576 5.62354 96.108 5.67843C99.3787 5.78919 102.65 5.89994 105.977 6.06656C113.629 6.45469 121.224 7.06529 128.875 7.45342C129.263 7.45342 129.54 7.78569 129.54 8.11892C129.54 8.50705 129.207 8.78442 128.819 8.78442C125.547 8.6727 122.275 8.56195 119.006 8.3963C114.404 8.17382 109.858 7.95231 105.256 7.73079C102.206 7.56418 99.1572 7.45342 96.108 7.34267C94.0576 7.28681 92.0601 7.23095 90.0097 7.17605C87.9592 7.17605 85.9618 7.17605 83.9113 7.17605C83.1351 7.17605 82.3578 7.17605 81.5835 7.23095C81.0837 7.23095 80.5848 7.28681 80.0869 7.34267C79.9202 7.34267 79.3655 7.28681 79.0881 7.28681C78.9215 7.45342 78.8108 7.56418 78.7549 7.45342L78.8098 7.39756C78.8647 7.3417 78.9205 7.3417 78.9205 7.28681C78.8108 7.28681 78.7549 7.34267 78.7549 7.45342Z" fill="white"/>
<path fill-rule="evenodd" clip-rule="evenodd" d="M53.4734 6.95349C53.5841 6.95349 53.64 6.8986 53.6959 6.8986C53.9732 6.84274 54.2496 6.78784 54.4721 6.78784C54.971 6.78784 55.4699 6.78784 56.0246 6.78784C56.5245 6.78784 57.0234 6.78784 57.5771 6.84274C58.2985 6.8986 59.0189 6.8986 59.7393 6.95349C60.2392 7.00935 60.6822 7.06521 61.1811 7.12011C62.9551 7.28673 64.7291 7.5641 66.4482 7.78561C66.8354 7.84147 67.1128 8.11884 67.0579 8.50697C67.003 8.8951 66.7256 9.11661 66.3365 9.11661C64.5635 9.00586 62.7875 8.8951 61.0144 8.78434C60.5705 8.72849 60.0725 8.72849 59.6285 8.67263C58.9072 8.61773 58.2426 8.56187 57.5213 8.50697L54.527 8.2845C54.1947 8.2845 53.5283 8.45111 53.2519 8.39622C52.9745 8.39622 52.8069 8.2845 52.6971 8.17374C52.5305 8.00712 52.3649 7.67486 52.5864 7.28673C52.7539 6.95349 53.1411 6.84274 53.4185 7.00935C53.4185 6.8986 53.4185 6.95349 53.4734 6.95349Z" fill="white"/>
<path fill-rule="evenodd" clip-rule="evenodd" d="M138.353 17.4898C138.409 17.7671 138.63 17.9338 138.908 18.1004C139.462 18.4326 140.294 18.71 141.181 18.9325C143.676 19.5421 146.725 19.7636 147.723 19.9303C148.111 19.9861 148.333 20.3184 148.278 20.7065C148.223 21.0946 147.89 21.3162 147.501 21.2613C146.282 21.0946 142.289 21.0397 139.629 20.2076C138.797 19.9303 138.022 19.598 137.522 19.154C136.912 18.6551 136.635 18.0445 136.635 17.3241C136.635 16.936 136.801 16.5479 137.19 16.1597C137.688 15.6599 138.742 15.2169 139.906 14.8836C141.347 14.4955 143.01 14.274 144.064 14.3298C144.674 14.3847 145.118 14.5514 145.395 14.7729C145.672 14.9944 145.672 15.3835 145.45 15.6599C145.228 15.9373 144.84 15.9373 144.563 15.7157C144.508 15.6599 144.453 15.7157 144.397 15.6599C144.23 15.6599 144.009 15.605 143.787 15.605C143.065 15.605 142.069 15.7716 141.126 16.048C140.184 16.3254 139.295 16.6586 138.686 17.0467C138.575 17.2683 138.41 17.4349 138.353 17.4898Z" fill="white"/>
<path fill-rule="evenodd" clip-rule="evenodd" d="M154.654 17.8232C155.707 18.1564 156.981 18.3221 158.312 18.3779C161.084 18.5446 164.3 18.2672 166.629 18.2672C169.123 18.2672 171.674 18.2672 174.169 18.2113C177.939 18.1555 181.708 18.0447 185.424 17.9898C186.976 17.9898 188.528 17.9898 190.136 17.9898C190.523 17.9898 190.801 17.7124 190.801 17.3243C190.801 16.9362 190.523 16.6588 190.136 16.6588C186.976 16.548 183.87 16.4922 180.711 16.4922C177.884 16.4922 175.056 16.4922 172.228 16.548C170.343 16.548 168.458 16.6029 166.574 16.6588C164.189 16.7147 161.084 17.0469 158.312 16.9911C157.093 16.9911 155.928 16.8803 154.986 16.6029C154.654 16.4922 154.265 16.7147 154.154 17.0469C154.154 17.3792 154.321 17.7124 154.654 17.8232Z" fill="white"/>
<path fill-rule="evenodd" clip-rule="evenodd" d="M164.244 24.477C164.078 24.5888 163.8 24.5888 163.635 24.477C163.302 24.3114 163.191 23.9233 163.357 23.59C163.412 23.4234 163.635 23.2578 164.023 23.147C164.41 23.0353 165.298 23.0353 166.296 23.0911C166.628 23.0911 167.016 23.147 167.404 23.2019C167.736 23.2578 168.125 23.3126 168.458 23.3685C169.954 23.6459 171.285 23.9781 171.618 24.034C172.005 24.0889 172.227 24.4221 172.171 24.7544C172.117 25.1425 171.784 25.365 171.45 25.3092C171.118 25.3092 169.565 25.1425 167.958 24.921C167.514 24.8652 167.015 24.8103 166.626 24.6995C165.851 24.5888 165.13 24.4221 164.631 24.4221C164.521 24.4221 164.409 24.3663 164.354 24.3663C164.409 24.3114 164.409 24.2555 164.464 24.1997C164.409 24.2555 164.354 24.3114 164.297 24.3663H164.353C164.299 24.5329 164.244 24.5329 164.244 24.477L164.299 24.4221C164.244 24.4221 164.244 24.4221 164.244 24.477Z" fill="white"/>
<path fill-rule="evenodd" clip-rule="evenodd" d="M199.395 16.9909C199.505 16.8253 199.728 16.6587 199.95 16.7136C200.281 16.7136 200.559 17.0468 200.559 17.3791C200.559 17.6015 200.449 17.823 200.281 17.9897C200.172 18.1004 200.06 18.1563 199.894 18.267C199.783 18.3219 199.673 18.3778 199.617 18.4885C199.617 18.4885 199.617 18.5444 199.673 18.5993C199.894 19.2089 200.615 19.4863 201.391 19.7088C202.777 20.0969 204.495 20.1518 205.327 20.2077C206.823 20.3184 208.376 20.3184 209.873 20.3184C211.369 20.3184 212.922 20.2626 214.418 20.2077C217.467 20.0411 220.517 19.7088 223.511 19.3197C223.898 19.2648 224.233 19.4863 224.288 19.8744C224.342 20.2626 224.12 20.5958 223.733 20.6507C220.738 21.2054 217.634 21.6494 214.53 21.8709C212.977 21.9817 211.425 22.0376 209.873 22.0376C208.319 22.0376 206.768 21.9817 205.215 21.8709C204.107 21.7602 201.779 21.6494 200.225 20.9281C199.284 20.485 198.617 19.9303 198.396 19.0982C198.229 18.6542 198.285 18.3219 198.396 18.0446C198.506 17.823 198.673 17.6006 198.894 17.4349C199.005 17.3242 199.227 17.2683 199.394 17.2124C199.338 17.0468 199.338 16.9909 199.395 16.9909C199.339 17.0468 199.339 17.1017 199.339 17.1575C199.395 17.1017 199.45 17.0468 199.395 16.9909Z" fill="white"/>
<path fill-rule="evenodd" clip-rule="evenodd" d="M241.861 27.3059C241.752 27.3618 241.584 27.4167 241.474 27.4725C241.142 27.6391 240.81 27.8048 240.587 27.8606C239.923 28.0273 239.201 28.138 238.537 28.3037C237.815 28.4703 237.15 28.581 236.485 28.6928C235.764 28.8035 234.99 28.9143 234.268 29.025C233.547 29.1358 232.772 29.1917 232.05 29.3024C229.832 29.5239 227.615 29.6905 225.397 29.8572C225.01 29.912 224.676 29.6347 224.676 29.2465C224.621 28.8584 224.898 28.5261 225.286 28.5261L236.264 27.1393L240.367 26.5845C240.589 26.5296 240.866 26.4189 241.088 26.3081C241.365 26.1964 241.698 26.0857 241.919 26.0308C242.252 26.0308 242.529 26.1415 242.695 26.3081C242.806 26.4189 242.862 26.5845 242.918 26.8619C242.918 27.1951 242.695 27.5274 242.308 27.5274C242.084 27.4167 241.972 27.3618 241.861 27.3059Z" fill="white"/>
<path fill-rule="evenodd" clip-rule="evenodd" d="M31.686 22.9805C31.9633 22.9805 32.4073 22.8697 32.572 22.8697L35.7888 22.759C36.3425 22.759 36.8424 22.7031 37.3971 22.7031C37.9509 22.7031 38.4498 22.7031 39.0046 22.7031C40.612 22.7031 42.2203 22.7031 43.8836 22.7031C44.2717 22.7031 44.5491 22.9805 44.5491 23.3686C44.5491 23.7568 44.2717 24.0341 43.8836 24.0341C42.2752 24.1449 40.6678 24.2556 39.0614 24.3115C38.5066 24.3115 37.9519 24.3664 37.453 24.3664C36.8983 24.3664 36.3435 24.3664 35.8446 24.3664L32.573 24.2556C32.2417 24.2556 31.4096 24.2556 31.1871 24.2007C30.4108 24.0341 30.5784 23.3686 30.6882 23.202C30.7441 23.1471 30.8558 22.9805 31.1322 22.9246C31.1871 22.9246 31.2998 22.9246 31.3547 22.9246C31.3547 22.9246 31.3547 22.9246 31.3547 22.9805C31.3547 23.0354 31.4645 23.0354 31.6311 23.0354L31.5762 22.9805C31.5213 22.9805 31.4654 22.9246 31.4096 22.9246C31.4096 22.8697 31.5203 22.8697 31.5762 22.9805C31.5742 22.9246 31.6291 22.9246 31.686 22.9805Z" fill="white"/>
<path fill-rule="evenodd" clip-rule="evenodd" d="M42.5512 45.6615C42.6071 45.6615 42.6071 45.7164 42.662 45.7164C42.8286 45.7722 43.0501 45.8271 43.3265 45.8271C44.6026 45.883 45.9317 45.7722 47.2078 45.5498C48.4839 45.3282 49.7571 44.996 50.9215 44.4971C51.3096 44.3305 52.1408 43.9972 52.8621 43.5542C53.1395 43.3876 53.361 43.1661 53.5267 42.9995C53.5825 42.8887 53.6942 42.8328 53.6374 42.7221C53.5267 42.5006 53.3052 42.3889 53.0278 42.2781C52.5289 42.0566 51.9193 41.9458 51.1979 41.8351C49.2572 41.5577 46.9294 41.6685 46.0983 41.6685C41.6074 41.447 36.2853 40.8922 31.1288 40.7815C27.6915 40.7256 24.3091 40.8922 21.3158 41.5577C20.9836 41.6685 20.6513 41.447 20.5396 41.1137C20.4847 40.7815 20.6494 40.4482 21.0394 40.3375C24.0886 39.5612 27.5808 39.2838 31.1288 39.3397C36.2853 39.3397 41.6623 39.8935 46.1522 40.0042C47.151 40.0601 50.2001 39.8935 52.3623 40.3924C53.7482 40.6697 54.8018 41.2803 55.1341 42.1115C55.4114 42.8887 55.189 43.6091 54.5793 44.2197C53.7482 45.0509 52.1398 45.7722 51.4753 45.9937C50.1992 46.4926 48.8133 46.8808 47.3725 47.1032C45.9866 47.3247 44.5448 47.3796 43.1589 47.3247C41.4398 47.214 40.9409 46.2153 41.1085 45.439C41.2751 44.8294 41.9945 44.0531 43.3255 43.9972C43.7137 43.9972 43.9901 44.2746 44.0469 44.6078C44.0469 44.996 43.7695 45.2724 43.4372 45.3282C43.105 45.3282 42.8276 45.439 42.661 45.5498C42.662 45.4949 42.5512 45.6056 42.5512 45.6615Z" fill="white"/>
<path fill-rule="evenodd" clip-rule="evenodd" d="M105.977 38.729C106.087 38.6741 106.144 38.6182 106.309 38.5624C106.42 38.5624 106.753 38.5075 106.918 38.5624C107.751 38.6182 107.417 39.6719 107.362 39.7277C107.196 39.8934 106.864 40.0051 106.475 40.06C105.977 40.1158 105.367 40.06 105.089 40.06C104.037 40.1158 103.039 40.1158 101.985 40.1707C100.433 40.2266 98.8814 40.2266 97.3279 40.2266C94.5561 40.2266 91.7843 40.2825 89.0115 40.2825C87.1267 40.2825 85.2978 40.2266 83.4679 40.2266C78.8104 40.1158 74.1528 39.9492 69.5531 39.5611C69.165 39.5611 68.8876 39.2288 68.9425 38.8397C68.9425 38.4516 69.2757 38.1752 69.6638 38.2301C72.4356 38.3967 75.2084 38.4516 77.9802 38.5075C81.196 38.5633 84.4667 38.5633 87.6825 38.5633C90.9531 38.5633 94.1689 38.6182 97.4396 38.6741C98.9921 38.6741 100.545 38.729 102.097 38.729C103.096 38.729 104.148 38.729 105.146 38.729C105.255 38.729 105.643 38.729 105.977 38.729ZM106.697 39.7826C106.642 39.8385 106.586 39.8385 106.53 39.8385C106.53 40.0051 106.64 39.8943 106.752 39.7826C106.697 39.8385 106.697 39.8385 106.697 39.7826ZM106.864 39.6719C106.809 39.7277 106.753 39.7826 106.697 39.7826H106.752C106.752 39.7826 106.863 39.8385 106.863 39.7826C106.863 39.7277 106.808 39.7277 106.752 39.7277C106.809 39.7826 106.809 39.7277 106.864 39.6719ZM106.864 38.8397C107.03 39.0064 107.03 39.2837 106.974 39.4503C107.086 39.2837 107.086 39.0622 106.864 38.8397Z" fill="white"/>
<path fill-rule="evenodd" clip-rule="evenodd" d="M74.3184 43.7198C73.7647 43.7198 72.3788 43.8864 72.3239 43.8864C71.9357 43.8864 71.5466 43.9423 71.1595 43.9423C70.8821 43.9423 70.6606 43.9423 70.3832 43.9423C69.3845 43.9423 68.4426 43.8864 67.4438 43.8315C67.0567 43.8315 66.7793 43.5541 66.7793 43.166C66.7793 42.7779 67.0567 42.5005 67.4438 42.5005C68.5533 42.4447 69.6619 42.3339 70.7704 42.2231C71.2693 42.2231 71.7123 42.2231 72.2112 42.2231C72.267 42.2231 73.7647 42.278 74.3743 42.3898C74.5958 42.3898 74.7066 42.4447 74.7615 42.5005C75.2054 42.722 75.2054 43.0553 75.2054 43.2209C75.1505 43.5541 74.8183 43.7757 74.485 43.7198H74.4292C74.4292 43.7198 74.4292 43.7198 74.3743 43.7198H74.4292C74.4302 43.8306 74.3753 43.7757 74.3184 43.7198C74.3743 43.7198 74.3743 43.7198 74.4292 43.7198C74.3184 43.7198 74.2626 43.6649 74.2077 43.5541C74.2086 43.609 74.2635 43.6649 74.3184 43.7198Z" fill="white"/>
<path fill-rule="evenodd" clip-rule="evenodd" d="M82.6918 46.5486C82.6359 46.6593 82.5252 46.7701 82.4144 46.826C82.0822 46.9926 81.6931 46.8808 81.5274 46.6044C81.3059 46.2163 81.3608 45.9389 81.4725 45.7723C81.5833 45.5508 81.8597 45.2734 82.4144 45.2734C83.079 45.2734 84.3551 45.6616 85.0196 45.6616H90.7308C94.5013 45.7165 98.3258 45.7165 102.096 45.9938C104.646 46.1605 107.141 46.4927 109.635 46.9926C110.468 47.1582 112.685 47.3807 114.293 47.8796C115.347 48.2128 116.123 48.7117 116.4 49.3213C116.678 49.8202 116.511 50.4308 115.791 50.819C115.069 51.2071 113.463 51.4845 113.24 51.4845C112.132 51.6501 111.022 51.706 109.914 51.706C108.251 51.706 106.587 51.6501 104.98 51.5394C104.592 51.5394 104.315 51.2071 104.37 50.819C104.37 50.4308 104.702 50.1535 105.091 50.2084C106.644 50.3191 108.307 50.375 109.859 50.3191C110.913 50.2642 111.966 50.2084 113.019 50.0417C113.185 50.0417 113.85 49.931 114.46 49.7095H114.514C114.127 49.5429 113.683 49.3762 113.184 49.2655C111.743 48.9332 110.025 48.7666 109.303 48.6558C106.864 48.2119 104.368 47.9345 101.929 47.713C98.1582 47.4356 94.4445 47.3248 90.674 47.2141L85.0196 47.0475C84.4649 46.9367 83.3563 46.6035 82.6918 46.5486Z" fill="white"/>
<path fill-rule="evenodd" clip-rule="evenodd" d="M130.926 45.1067L130.87 45.0509C130.538 44.8294 130.483 44.4412 130.648 44.108C130.87 43.7757 131.258 43.7199 131.59 43.8865C132.589 44.4971 132.644 45.1067 132.589 45.4949C132.478 45.7722 132.256 46.0496 131.812 46.2711C131.203 46.5485 130.039 46.6034 129.428 46.5485C128.042 46.4926 126.601 46.327 125.27 45.9937C123.884 45.6605 122.498 45.2175 121.278 44.552C120.89 44.3854 119.227 43.5533 118.617 42.777C118.173 42.2232 118.173 41.6685 118.45 41.2245C118.838 40.6148 119.559 40.1709 120.557 39.9493C122.11 39.5612 124.216 39.672 125.103 39.6161C128.707 39.5053 132.477 39.3946 136.136 39.5053C138.631 39.6161 141.126 39.8386 143.51 40.2267C143.843 40.2816 144.12 40.6148 144.064 40.9471C144.009 41.2803 143.677 41.5577 143.343 41.5019C140.958 41.1686 138.576 41.0579 136.136 41.003C132.477 40.9471 128.762 41.1137 125.158 41.2803C124.437 41.2803 122.83 41.2245 121.499 41.447C121.055 41.5019 120.612 41.6126 120.281 41.7792C120.169 41.8351 120.113 41.89 120.003 41.9458C120.113 42.0566 120.281 42.1674 120.39 42.2781C121 42.7221 121.721 43.0544 121.944 43.1661C123.107 43.7757 124.328 44.2197 125.602 44.552C126.878 44.8852 128.207 45.0509 129.483 45.1626C129.815 45.1626 130.314 45.1626 130.814 45.1067C130.814 45.1616 130.869 45.1067 130.926 45.1067ZM131.258 45.1067C131.313 45.1067 131.369 45.0509 131.313 44.996C131.313 44.9401 131.258 44.996 131.258 45.1067Z" fill="white"/>
<path fill-rule="evenodd" clip-rule="evenodd" d="M178.438 44.1079C177.717 44.3303 176.885 44.3852 176.054 44.3852C174.002 44.3852 171.728 43.9971 170.01 43.9422C168.402 43.9422 166.794 43.8863 165.188 43.8863C162.803 43.8863 160.364 43.8863 157.98 43.8863C156.261 43.8863 154.543 43.8305 152.824 43.7197C152.436 43.7197 152.159 43.9412 152.102 44.3303C152.047 44.7185 152.324 44.9958 152.712 45.0507C154.985 45.2722 157.314 45.4389 159.642 45.4947C161.693 45.5496 163.8 45.6055 165.852 45.6055C167.237 45.6055 168.623 45.6055 170.009 45.6055C171.727 45.6055 174.057 45.8828 176.108 45.827C177.106 45.7721 178.048 45.6604 178.879 45.384C179.212 45.2722 179.378 44.94 179.324 44.5518C179.16 44.1637 178.771 43.9971 178.438 44.1079Z" fill="white"/>
<path fill-rule="evenodd" clip-rule="evenodd" d="M150.496 47.2689C150.661 47.1582 150.939 47.1582 151.104 47.2689C151.438 47.4355 151.548 47.8237 151.382 48.101C151.327 48.2677 151.104 48.4343 150.773 48.545C150.273 48.7116 148.887 48.6558 148.722 48.6558C148.112 48.6558 147.502 48.7116 146.892 48.7116C146.282 48.7116 145.672 48.7116 145.062 48.7116C143.843 48.7116 142.566 48.5999 141.347 48.545C140.959 48.545 140.683 48.2118 140.683 47.8795C140.683 47.4914 141.015 47.214 141.347 47.214C142.789 47.214 144.286 47.1033 145.727 47.1033C146.114 47.1033 146.504 47.1033 146.892 47.1033C147.501 47.1033 148.055 47.1582 148.665 47.1582C148.776 47.1582 149.829 47.4914 150.273 47.4914L150.328 47.4355L150.383 47.3806C150.44 47.3248 150.496 47.2689 150.496 47.2689L150.44 47.3248C150.44 47.3248 150.44 47.3248 150.385 47.3806C150.385 47.3806 150.385 47.3806 150.33 47.4355C150.44 47.4355 150.496 47.4355 150.496 47.2689Z" fill="white"/>
<path fill-rule="evenodd" clip-rule="evenodd" d="M178.105 38.3967C177.884 38.4516 177.606 38.5633 177.385 38.6741C176.941 38.8956 176.442 39.0622 176.109 39.1171C175.333 39.2288 174.613 39.3396 173.836 39.3945C173.06 39.4503 172.283 39.5611 171.564 39.617C170.4 39.6719 169.235 39.7826 168.07 39.8385C167.294 39.8385 166.517 39.8934 165.742 39.8934C162.804 39.8934 159.865 39.8385 156.927 39.7277C156.539 39.7277 156.261 39.3945 156.261 39.0622C156.261 38.6741 156.594 38.3967 156.927 38.3967C158.866 38.3967 160.807 38.3409 162.748 38.3409C164.467 38.286 166.241 38.2301 167.96 38.1742C169.123 38.1193 170.288 38.1193 171.452 38.0635C172.229 38.0086 172.95 38.0086 173.726 37.9527C174.446 37.8978 175.222 37.842 175.943 37.7861C176.553 37.7312 177.662 37.1765 178.216 37.1206C178.66 37.1206 178.937 37.2323 179.103 37.5097C179.213 37.6754 179.27 37.8978 179.27 38.1742C179.215 38.5075 178.937 38.7848 178.548 38.729C178.328 38.6182 178.216 38.5075 178.105 38.3967Z" fill="white"/>
<path fill-rule="evenodd" clip-rule="evenodd" d="M203.774 46.3819C203.941 46.4377 204.051 46.4377 204.162 46.4926C205.493 46.77 207.322 46.8807 207.655 46.8807C209.928 47.0474 212.201 47.1581 214.475 47.214C216.748 47.214 218.966 47.1032 221.238 46.8258C221.792 46.77 223.566 46.5485 224.952 46.1045C225.34 45.9937 225.674 45.8271 225.894 45.6056C226.061 45.4948 226.171 45.439 226.171 45.2733C226.171 45.2175 226.117 45.2175 226.117 45.1616C226.006 45.0509 225.894 44.996 225.783 44.8852C225.396 44.6078 224.786 44.3854 224.176 44.2197C222.346 43.665 220.128 43.3876 219.464 43.2768C216.581 42.7221 213.642 42.2781 210.648 42.0007C206.213 41.5577 201.722 41.3362 197.287 41.1696C196.566 41.1137 194.07 40.6707 192.187 40.6148C191.743 40.6148 191.3 40.6148 190.967 40.6707C190.746 40.7256 190.579 40.7256 190.468 40.8363C190.191 41.0588 189.804 41.0588 189.581 40.7814C189.359 40.5041 189.359 40.1159 189.636 39.8935C190.024 39.5612 191.022 39.3397 192.187 39.3946C194.071 39.3946 196.567 39.8386 197.287 39.8386C201.777 39.9493 206.268 40.1159 210.76 40.5041C213.753 40.7814 216.748 41.1696 219.685 41.7243C220.517 41.89 223.456 42.2781 225.396 42.9995C226.172 43.2768 226.782 43.665 227.169 44.0531C227.503 44.3854 227.669 44.7735 227.724 45.1616C227.835 46.1045 227.169 46.8807 226.061 47.4355C224.508 48.1568 222.014 48.4342 221.348 48.4891C219.02 48.7665 216.747 48.8223 214.418 48.7665C212.09 48.7106 209.816 48.5999 207.488 48.3784C207.044 48.3225 204.661 48.1568 203.275 47.7687C202.61 47.6021 202.11 47.2689 201.944 46.9925C201.777 46.7151 201.777 46.3819 201.944 46.1045C202.055 45.883 202.388 45.5497 203.164 45.2733C203.495 45.1067 203.884 45.2733 204.05 45.6615C204.274 45.8271 204.108 46.2152 203.774 46.3819Z" fill="white"/>
<path fill-rule="evenodd" clip-rule="evenodd" d="M242.859 37.7863C242.637 37.6206 242.194 37.5648 241.64 37.5099C240.42 37.454 238.591 37.7314 237.926 37.7314C237.094 37.7314 236.263 37.7314 235.376 37.7314C234.544 37.7314 233.712 37.7314 232.825 37.7314C230.275 37.7314 227.725 37.7863 225.23 37.8421C224.843 37.8421 224.566 38.1195 224.566 38.5076C224.566 38.8958 224.843 39.1731 225.23 39.1731C227.781 39.2839 230.331 39.3947 232.881 39.3947C233.713 39.3947 234.6 39.3947 235.432 39.3947C236.264 39.3947 237.15 39.3388 237.982 39.3388C238.537 39.3388 240.089 39.0065 241.254 38.9507C241.531 38.9507 241.807 38.8958 241.975 38.9507C242.085 38.9507 242.196 38.9507 242.252 38.9507C242.529 39.1173 242.973 39.0614 243.138 38.7292C243.247 38.3969 243.192 38.0088 242.859 37.7863Z" fill="white"/>
<path fill-rule="evenodd" clip-rule="evenodd" d="M251.73 43.6649C251.343 43.7756 250.788 43.9422 250.511 43.9971C250.012 44.053 249.513 44.1079 249.07 44.1637C248.348 44.2196 247.629 44.2745 246.852 44.3304C246.187 44.3304 245.577 44.3862 244.911 44.3862C244.302 44.3862 243.636 44.3862 242.971 44.3304C241.031 44.2745 239.146 44.1088 237.26 43.8864C236.872 43.8864 236.596 43.5541 236.651 43.166C236.651 42.7778 236.984 42.5005 237.372 42.5554C238.648 42.6112 239.867 42.6661 241.142 42.6661C242.084 42.6661 243.027 42.6661 243.969 42.6661C244.911 42.6661 245.855 42.6661 246.797 42.6661C247.406 42.6661 248.016 42.6661 248.571 42.6112C249.18 42.6112 249.735 42.5554 250.344 42.5005C250.621 42.5005 251.176 42.3338 251.563 42.278C251.84 42.2231 252.063 42.2231 252.173 42.278C252.506 42.3338 252.617 42.5554 252.672 42.722C252.728 42.8886 252.783 43.166 252.45 43.4982C252.284 43.7756 251.952 43.8305 251.73 43.6649Z" fill="white"/>
<path fill-rule="evenodd" clip-rule="evenodd" d="M194.128 45.6613C194.183 45.4389 194.238 45.3281 194.294 45.6613H194.349C194.572 45.6613 194.737 45.7162 194.737 45.7721C195.015 45.9387 195.07 46.1602 195.07 46.3268C195.07 46.4376 195.07 46.5484 195.015 46.6591C195.015 46.715 194.904 46.9924 194.516 47.0472C194.516 47.0472 194.405 47.0472 194.293 47.0472H194.238C193.794 47.0472 192.575 47.2139 192.076 47.2139C191.688 47.2139 191.299 47.2688 190.856 47.2688C190.579 47.2688 190.302 47.2688 190.08 47.2688C189.082 47.2688 188.084 47.2139 187.086 47.158C186.698 47.158 186.421 46.8806 186.421 46.4925C186.421 46.1044 186.698 45.827 187.086 45.827C188.25 45.7721 189.414 45.6613 190.579 45.6055C191.078 45.6055 191.577 45.6055 192.076 45.6055C192.519 45.6055 193.574 45.6055 194.128 45.6613V45.7162C194.183 45.7162 194.238 45.7162 194.238 45.7162C194.293 45.7162 194.348 45.7162 194.293 45.7162V45.6613H194.128Z" fill="white"/>
<path fill-rule="evenodd" clip-rule="evenodd" d="M20.2087 74.0536C20.1538 73.9977 20.1538 73.9977 20.098 73.9428C19.9313 73.6655 19.9882 73.2215 20.3204 73.0558C20.542 72.8892 20.7644 72.8892 20.9301 72.9441C21.0967 72.9441 21.2624 73.0558 21.3741 73.2215C21.4839 73.3881 21.5965 73.6655 21.5407 74.0536C21.4848 74.4976 21.3192 75.218 21.3192 75.6061L21.2633 80.098C21.2633 81.7622 21.1535 83.4814 21.0418 85.1446C20.9859 86.2532 20.931 87.3627 20.8752 88.4722C20.8752 89.1377 20.8193 89.8581 20.8193 90.5236C20.8193 91.2449 20.7644 92.1319 20.8752 92.9082C20.9301 93.1297 20.9301 93.4071 21.0418 93.6295C21.0418 93.5178 21.0967 93.4071 21.0967 93.3522C21.3192 92.6867 21.4839 91.9653 21.5407 91.2998C21.5965 90.6343 21.5965 89.9139 21.4299 89.3033C21.3201 88.971 21.5407 88.5829 21.8739 88.4722C22.2062 88.3614 22.5953 88.5829 22.706 88.9152C22.9834 89.7473 23.0383 90.5794 22.9834 91.4106C22.9275 92.2427 22.7609 93.0748 22.5394 93.7952C22.4836 94.0177 22.3169 94.5166 22.0954 94.8488C21.9279 95.1262 21.7622 95.2928 21.5965 95.4594C21.3741 95.5702 21.2084 95.6251 20.9859 95.6251C20.7086 95.6251 20.3763 95.4594 20.0989 95.0713C19.7118 94.5724 19.4902 93.906 19.3785 93.1856C19.2119 92.2985 19.2678 91.2998 19.2119 90.5794C19.2119 89.5258 19.2119 88.4722 19.2668 87.4185C19.3776 84.978 19.5991 82.5385 19.7108 80.098L19.9333 75.6071C19.9862 75.2739 20.098 74.4417 20.2087 74.0536ZM20.985 94.0726C20.8752 94.0726 20.7076 94.1284 20.8184 94.1833C20.8752 94.2392 20.9301 94.1833 20.985 94.0726Z" fill="white"/>
<path fill-rule="evenodd" clip-rule="evenodd" d="M19.9859 127.123C19.9859 126.957 19.9859 126.624 19.9859 126.568L19.931 125.238L19.6545 120.469C19.5987 119.082 19.3213 117.197 19.1547 115.201C19.0439 114.037 19.0439 112.76 19.0439 111.596C19.1547 109.211 19.5987 107.049 20.7072 105.552C20.9297 105.274 21.1512 105.164 21.3727 105.108C21.5942 105.053 21.8167 105.108 22.0373 105.219C22.2597 105.33 22.4812 105.552 22.6469 105.829C22.8684 106.273 23.0909 106.883 23.0909 106.993C23.3124 107.77 23.4232 108.602 23.4781 109.434C23.5339 110.265 23.5888 111.041 23.5339 111.873C23.5339 112.262 23.2565 112.539 22.8684 112.539C22.4812 112.539 22.2039 112.262 22.2039 111.873C22.2039 111.097 22.149 110.321 22.0373 109.6C21.9265 108.823 21.8148 108.103 21.5933 107.382C21.5933 107.326 21.5384 107.215 21.5384 107.048C20.9278 108.269 20.7063 109.877 20.6514 111.596C20.5965 112.706 20.6514 113.925 20.7063 115.034C20.817 117.031 21.0395 118.916 21.0395 120.357L21.0944 125.127V126.568C21.0944 126.68 21.0944 127.012 21.0395 127.123C20.9836 127.955 19.8192 127.456 19.8192 127.401C19.9859 127.29 19.9859 127.234 19.9859 127.123ZM21.5393 106.605C21.4835 106.495 21.4286 106.439 21.3178 106.495C21.262 106.549 21.4286 106.605 21.5393 106.605Z" fill="white"/>
<path fill-rule="evenodd" clip-rule="evenodd" d="M20.9299 139.268C20.875 138.935 21.0965 138.658 21.4288 138.602C21.5964 138.547 21.7062 138.602 21.8169 138.602C22.0384 138.658 22.1492 138.824 22.2609 138.991C22.3158 139.101 22.3158 139.268 22.3158 139.489C22.3158 139.656 21.9835 140.044 22.1492 140.044L22.2041 141.653C22.2041 142.041 22.26 142.429 22.26 142.817C22.3148 143.372 22.3148 143.981 22.4266 144.536C22.4815 145.202 22.5932 145.811 22.7039 146.422C22.8137 146.754 22.5932 147.142 22.26 147.253C21.9267 147.364 21.5386 147.142 21.4278 146.81C21.1505 145.978 20.928 145.146 20.7633 144.315C20.7074 143.871 20.5967 143.427 20.5967 143.038C20.5967 142.595 20.5967 142.151 20.5967 141.707C20.5967 141.43 20.5967 141.098 20.6516 140.82C20.6516 140.543 20.7065 140.211 20.7623 139.933C20.7623 139.823 20.8172 139.656 20.8721 139.545C20.875 139.435 20.875 139.324 20.9299 139.268Z" fill="white"/>
<path fill-rule="evenodd" clip-rule="evenodd" d="M21.9837 65.5697C22.316 65.6804 22.4826 66.0685 22.316 66.4008C22.1494 66.734 21.8171 66.8997 21.4839 66.7889C21.1516 66.6782 20.8194 66.3459 20.542 65.8461C20.2646 65.3472 20.098 64.6268 19.9882 63.7947C19.9333 63.2399 19.8774 62.6303 19.8774 62.0755C19.9333 60.8553 20.1548 59.7468 20.4322 59.3586C20.5988 59.0254 20.986 58.9146 21.3192 59.0813C21.6515 59.2479 21.7622 59.636 21.5966 59.9683C21.5407 60.0241 21.5407 60.1349 21.5407 60.2456C21.4849 60.523 21.4849 60.8553 21.5407 61.2993C21.5407 61.6874 21.5966 62.0755 21.5966 62.4637C21.5966 62.8518 21.6515 63.2399 21.7064 63.628C21.7613 64.2935 21.8171 64.9042 21.9837 65.2923C21.872 65.403 21.9269 65.4579 21.9837 65.5697Z" fill="white"/>
<path fill-rule="evenodd" clip-rule="evenodd" d="M50.2017 76.549V76.4932C50.2576 76.105 50.6467 75.8835 50.979 75.9394C51.3661 75.9943 51.5886 76.3824 51.5337 76.7156C51.4229 77.4919 51.0897 77.9349 50.8682 78.1015C50.5908 78.3231 50.3135 78.3231 50.0361 78.2682C49.7597 78.2123 49.4274 77.9908 49.0942 77.5468C48.707 76.993 48.3728 75.9394 48.2081 74.8299C48.0974 73.5548 48.0415 72.2786 48.0415 71.0035C48.0415 70.1165 48.0964 69.2295 48.1513 68.3415C48.3179 66.345 48.4845 64.2936 48.5394 62.2971C48.5394 61.9648 48.8158 61.6316 49.1491 61.6316C49.4813 61.6316 49.8136 61.909 49.8136 62.2422C49.8695 64.2387 49.8695 66.2342 49.7577 68.2866C49.7028 69.6176 49.648 70.8927 49.648 72.2237C49.648 73.0559 49.648 73.8321 49.7028 74.6633C49.7577 75.3288 49.8704 75.9394 50.0351 76.3824C50.2017 76.4941 50.2017 76.4941 50.2017 76.549ZM50.1478 76.9372C50.0919 76.9372 49.9802 76.993 50.0361 77.0479C50.0919 77.0479 50.0919 76.993 50.1478 76.9372Z" fill="white"/>
<path fill-rule="evenodd" clip-rule="evenodd" d="M50.7563 101.226C50.8671 101.448 50.8122 101.725 50.6465 101.947C50.4241 102.224 50.0359 102.224 49.7595 102.003C49.5929 101.836 49.4272 101.448 49.4272 100.893C49.4821 100.117 49.8144 98.8418 49.8712 98.5644C49.8712 98.4537 50.0927 97.1785 50.3143 96.7904C50.5916 96.2356 51.0915 96.2356 51.4237 96.4023C51.7002 96.513 52.0334 96.956 52.2 97.5667C52.4774 98.5644 52.5323 100.339 52.5881 100.782C52.643 101.559 52.8096 102.612 52.8645 103.722C52.9753 105.164 53.0321 106.772 52.8645 108.214C52.6979 110.265 52.2 112.096 51.2013 113.204C50.9798 113.482 50.5367 113.482 50.2594 113.26C49.983 113.038 49.983 112.595 50.2045 112.317C50.9807 111.375 51.2581 109.822 51.313 108.103C51.3689 106.661 51.2581 105.164 51.1464 103.833C51.0356 102.724 50.9798 101.67 50.869 100.894C50.869 100.782 50.869 100.506 50.869 100.118C50.7582 100.506 50.7024 100.894 50.7024 101.116C50.7563 101.171 50.7563 101.226 50.7563 101.226ZM50.7014 101.171C50.6465 101.116 50.5907 101.06 50.5348 101.06C50.6465 101.06 50.7014 101.116 50.7014 101.171C50.7014 101.226 50.7014 101.226 50.7014 101.226V101.171Z" fill="white"/>
<path fill-rule="evenodd" clip-rule="evenodd" d="M254.06 75.7169C254.282 75.8835 254.337 76.2168 254.226 76.4383C254.06 76.7705 253.727 76.9372 253.394 76.7705C253.118 76.6598 252.84 76.2717 252.674 75.7169C252.396 74.7191 252.396 73 252.342 72.6677C252.174 70.8927 252.119 69.0629 252.231 67.233C252.286 66.0127 252.508 64.7925 252.786 63.6281C253.173 62.1863 253.894 61.6875 254.449 61.6316C254.781 61.6316 255.057 61.6875 255.391 61.909C255.668 62.1314 255.999 62.5196 256.222 63.0185C256.499 63.684 256.721 64.6268 256.61 65.6246C256.554 66.1793 256.499 66.7341 256.442 67.233C256.387 67.7877 256.276 68.3415 256.166 68.8962C256.111 69.2295 255.721 69.5068 255.39 69.3951C255.002 69.3402 254.779 68.9521 254.89 68.6189C255.001 68.12 255.056 67.6211 255.056 67.0664C255.112 66.5675 255.112 66.0127 255.112 65.5138C255.112 64.7925 255.002 64.0721 254.779 63.6281C254.724 63.5173 254.613 63.4066 254.558 63.2958V63.3507C254.503 63.5173 254.391 63.7389 254.335 63.9613C254.004 65.3472 253.836 66.7341 253.781 68.1758C253.726 69.6176 253.726 71.1143 253.781 72.5011C253.837 72.8892 253.727 74.8858 254.06 75.7169C254.06 75.662 254.06 75.662 254.06 75.7169ZM254.005 75.662C253.949 75.662 253.894 75.6061 253.894 75.6061C253.948 75.6061 254.005 75.662 254.005 75.662Z" fill="white"/>
<path fill-rule="evenodd" clip-rule="evenodd" d="M252.562 85.1446C252.507 85.0339 252.507 84.8672 252.562 84.7565C252.672 84.4233 253.006 84.2017 253.338 84.3125C253.505 84.3684 253.671 84.4791 253.782 84.7006C253.837 84.8114 253.893 84.978 253.893 85.2554C253.948 86.1424 253.893 88.4163 253.893 88.5829C253.893 90.2461 253.893 91.9653 254.004 93.6285C254.059 94.738 254.114 95.8475 254.225 96.9561C254.225 97.2334 254.28 97.5667 254.335 97.9548C254.503 97.1227 254.668 96.1798 254.668 95.2369C254.668 94.5714 254.613 93.9618 254.446 93.3521C254.335 93.0189 254.501 92.6308 254.89 92.52C255.222 92.4093 255.611 92.5759 255.721 92.964C255.998 93.6844 256.109 94.4607 256.109 95.2369C256.164 96.3464 255.998 97.5108 255.777 98.5095C255.777 98.6203 255.61 99.2299 255.445 99.6739C255.334 99.9513 255.167 100.173 255.057 100.284C254.89 100.45 254.669 100.561 254.448 100.561C254.225 100.617 253.948 100.561 253.671 100.339C253.338 100.118 253.117 99.7288 252.949 99.2299C252.728 98.5095 252.672 97.6216 252.617 97.0678C252.507 95.9024 252.396 94.738 252.396 93.6295C252.396 91.9104 252.45 90.1912 252.506 88.4721C252.506 88.3055 252.728 86.0875 252.672 85.2554V85.2005C252.562 85.1995 252.507 85.1446 252.562 85.1446ZM252.562 85.1446V85.1995V85.2554L252.617 85.3112C252.617 85.3112 252.617 85.3112 252.672 85.3661L252.728 85.422C252.672 85.3661 252.617 85.3112 252.617 85.2554C252.619 85.1446 252.619 85.1446 252.562 85.1446Z" fill="white"/>
<path fill-rule="evenodd" clip-rule="evenodd" d="M253.006 142.485C252.895 142.097 252.728 141.597 252.728 141.319C252.673 140.876 252.618 140.377 252.562 139.933C252.507 139.435 252.507 138.991 252.507 138.492C252.507 137.327 252.451 136.162 252.507 134.998C252.562 133.833 252.673 132.669 252.839 131.504C252.949 130.95 253.116 130.451 253.338 130.118C253.56 129.785 253.837 129.564 254.114 129.508C254.613 129.397 255.333 129.564 255.611 130.783C255.721 131.116 255.5 131.504 255.112 131.615C254.835 131.671 254.557 131.559 254.391 131.338C254.391 131.449 254.391 131.615 254.335 131.726C254.28 132.391 254.225 133.057 254.225 133.777C254.17 134.554 254.17 135.386 254.17 136.162C254.17 136.938 254.114 137.77 254.114 138.547C254.114 138.991 254.114 139.435 254.114 139.933C254.114 140.432 254.114 140.82 254.17 141.319C254.17 141.708 254.447 142.65 254.447 142.872C254.392 143.205 254.28 143.372 254.114 143.427C253.948 143.483 253.56 143.704 253.227 143.26C252.95 142.984 252.95 142.706 253.006 142.485ZM254.447 130.894C254.502 130.894 254.613 130.894 254.557 130.839C254.502 130.839 254.447 130.839 254.447 130.894ZM254.17 130.894C254.17 130.839 254.114 130.783 254.114 130.783C254.059 130.839 254.114 130.894 254.17 130.894Z" fill="white"/>
<path fill-rule="evenodd" clip-rule="evenodd" d="M226.227 69.2294C226.227 69.2843 226.227 69.3401 226.227 69.395C226.172 69.7283 225.95 69.839 225.95 69.8949C225.839 69.9498 225.728 70.0056 225.618 70.0056C225.45 70.0056 225.285 69.9498 225.118 69.7832C225.063 69.7283 224.951 69.6175 224.951 69.3401C224.951 69.1186 224.896 68.3973 224.896 68.1199C224.896 67.7318 224.896 67.3436 224.896 67.0114C224.896 66.6223 224.951 66.2342 224.951 65.9019C224.951 65.6804 225.062 65.0149 225.229 64.2386C225.34 63.7388 225.45 63.185 225.561 62.6302C225.948 61.1885 226.448 59.7467 226.837 59.3027C227.114 58.9705 227.391 58.8587 227.612 58.9146C227.89 58.9146 228.167 59.0254 228.39 59.4694C228.5 59.6909 228.611 60.1349 228.667 60.8553C228.722 61.2434 228.445 61.5208 228.057 61.5766C227.89 61.5766 227.724 61.5208 227.558 61.41C227.447 61.9089 227.281 62.4636 227.17 63.0184C227.06 63.5731 226.948 64.1269 226.838 64.5709C226.671 65.2922 226.561 65.9019 226.505 66.1234L226.227 68.2307C226.227 68.3973 226.118 68.7295 226.118 69.0069C226.118 69.0628 226.173 69.1186 226.173 69.1186C226.227 69.1735 226.283 69.2294 226.227 69.2294ZM226.117 69.0069C226.117 69.1735 226.117 69.2294 226.172 69.2294C226.172 69.2294 226.172 69.2294 226.227 69.2294C226.227 69.1735 226.227 69.1186 226.172 69.0628C226.172 69.0628 226.172 69.0628 226.117 69.0069ZM227.835 60.2456C227.946 60.2456 228.057 60.1898 227.946 60.1349C227.89 60.079 227.89 60.1349 227.835 60.2456ZM227.225 60.1898C227.225 60.079 227.17 59.9682 227.115 60.0241C227.004 60.079 227.115 60.1349 227.225 60.1898Z" fill="white"/>
<path fill-rule="evenodd" clip-rule="evenodd" d="M219.354 70.3939C219.354 70.1165 219.132 69.5618 219.077 69.5069C219.077 69.3952 219.077 68.9521 219.132 68.4532C219.132 68.1759 219.187 67.7877 219.243 67.4545C219.353 66.6783 219.574 65.902 219.797 65.4031C220.074 64.7925 220.518 64.5151 220.795 64.5151C221.072 64.5151 221.46 64.571 221.682 65.1806C221.849 65.5139 221.737 65.902 221.405 66.0686C221.294 66.1235 221.237 66.1235 221.128 66.1235C221.017 66.5675 220.961 67.1222 220.906 67.677C220.85 68.0093 220.795 68.3415 220.738 68.6189C220.684 69.0629 220.629 69.3952 220.572 69.5069C220.572 69.6176 220.572 70.3939 220.517 70.6713C220.462 70.9486 220.35 71.1153 220.24 71.226C219.962 71.4475 219.574 71.4475 219.353 71.1701C219.186 71.0035 219.13 70.782 219.243 70.5605C219.354 70.6154 219.408 70.5046 219.354 70.3939C219.354 70.4488 219.299 70.4488 219.299 70.5046V70.5605C219.244 70.5605 219.299 70.5046 219.354 70.5046C219.354 70.4488 219.354 70.4488 219.354 70.3939ZM220.629 65.902C220.629 65.8461 220.573 65.8461 220.573 65.7912C220.573 65.7912 220.573 65.7354 220.518 65.7354C220.406 65.7912 220.518 65.8461 220.629 65.902Z" fill="white"/>
<path fill-rule="evenodd" clip-rule="evenodd" d="M75.761 105.996C75.5944 105.663 75.6512 105.22 75.8718 104.997C76.0933 104.72 76.3158 104.776 76.4814 104.776C76.7029 104.83 76.8686 104.942 76.9803 105.274C77.0362 105.385 77.0362 105.552 77.0362 105.773C77.0362 106.051 76.9254 106.605 76.9254 106.883L76.8705 109.6C76.8146 110.598 76.8146 111.596 76.8146 112.594C76.7597 113.593 76.7039 114.591 76.7039 115.533C76.7039 116.366 76.7039 117.197 76.7039 118.029C76.7597 118.473 76.4824 118.861 76.0942 118.916C75.7071 118.972 75.4297 118.638 75.3738 118.195C75.2072 116.754 75.1514 115.312 75.1514 113.814C75.1514 113.094 75.1514 112.373 75.1514 111.652C75.1514 110.931 75.2072 110.21 75.2621 109.489L75.4836 106.716C75.5944 106.55 75.7051 106.272 75.761 105.996ZM75.8159 105.884C75.8718 105.773 75.8159 105.663 75.761 105.663C75.7051 105.608 75.8159 105.773 75.8159 105.884Z" fill="#FEC50B"/>
<path fill-rule="evenodd" clip-rule="evenodd" d="M82.3569 105.552C82.4128 105.829 82.5245 106.217 82.5245 106.384L82.6343 109.378L82.8567 117.419C82.9116 117.862 82.6343 118.25 82.2471 118.306C81.859 118.362 81.5257 118.029 81.5257 117.586C81.3591 115.977 81.1935 114.313 81.0818 112.706C81.0269 112.151 81.0269 111.596 81.0269 111.041C81.0269 110.487 81.0269 109.933 81.0269 109.433L81.1366 106.384C81.1366 106.051 81.1366 105.385 81.1366 105.108C81.1366 104.886 81.1925 104.72 81.2474 104.609C81.414 104.331 81.5797 104.221 81.8021 104.221C81.9688 104.221 82.1893 104.221 82.4118 104.554C82.5794 104.83 82.5794 105.274 82.3569 105.552ZM82.302 105.441C82.302 105.441 82.302 105.385 82.3569 105.385C82.3569 105.329 82.4677 105.218 82.4128 105.218C82.3569 105.219 82.302 105.274 82.302 105.441Z" fill="#FEC50B"/>
<path fill-rule="evenodd" clip-rule="evenodd" d="M87.7358 106.605C87.2369 107.88 87.0712 109.6 87.2369 111.375C87.2918 112.262 87.4584 113.204 87.5692 114.037C87.7907 115.422 88.1239 116.753 88.2337 117.863C88.2337 118.306 88.566 118.639 88.9551 118.583C89.3432 118.528 89.6196 118.139 89.5647 117.751C89.5647 116.476 89.3432 114.757 89.1207 113.038C89.0658 112.539 89.01 112.04 88.9541 111.541C88.8982 111.041 88.8433 110.542 88.7875 110.098C88.7316 109.046 88.6767 108.047 88.9541 107.215C89.1207 106.827 88.9541 106.384 88.6218 106.217C88.2347 106.051 87.8465 106.217 87.7358 106.605Z" fill="#FEC50B"/>
<path fill-rule="evenodd" clip-rule="evenodd" d="M93.1689 105.441C93.1689 105.718 93.2238 106.051 93.2787 106.439C93.4453 107.215 93.6119 107.991 93.6668 108.269C93.7776 109.101 93.9442 109.988 94.054 110.82C94.1647 111.375 94.2215 111.984 94.2764 112.539C94.4431 114.037 94.5538 115.478 94.5538 116.975C94.5538 117.419 94.2764 117.807 93.9442 117.807C93.556 117.807 93.2787 117.475 93.2228 117.031C93.1121 115.645 92.8905 114.258 92.6681 112.927C92.5583 112.317 92.5015 111.707 92.3917 111.153C92.2809 110.265 92.1692 109.434 92.1143 108.547C92.0584 108.158 91.8369 106.661 91.8369 105.774C91.8369 105.219 91.9467 104.775 92.1143 104.609C92.3358 104.277 92.723 104.221 93.0003 104.498C93.2796 104.665 93.3355 105.108 93.1689 105.441C93.1689 105.441 93.114 105.496 93.114 105.552C93.114 105.496 93.1689 105.496 93.1689 105.441Z" fill="#FEC50B"/>
<path fill-rule="evenodd" clip-rule="evenodd" d="M99.933 105.829C99.9888 105.94 100.044 106.051 100.1 106.107C100.21 106.328 100.322 106.55 100.377 106.772L100.877 109.045C100.987 109.656 101.098 110.265 101.209 110.876C101.264 111.264 101.319 111.707 101.376 112.095C101.542 113.593 101.653 115.145 101.82 116.643C101.875 117.086 101.653 117.474 101.265 117.586C100.878 117.641 100.545 117.363 100.489 116.92C100.267 115.644 100.045 114.425 99.8241 113.149C99.7134 112.539 99.6017 111.929 99.5468 111.319C99.436 110.709 99.3801 110.099 99.2694 109.489L98.9371 107.215C98.8822 106.938 98.6048 106.439 98.549 106.161C98.4941 105.884 98.4941 105.663 98.549 105.496C98.6048 105.274 98.7166 105.108 98.9371 104.997C99.0479 104.941 99.1596 104.886 99.3252 104.941C99.7114 104.942 99.9888 105.33 99.933 105.829C99.933 105.773 99.933 105.773 99.933 105.829Z" fill="#FEC50B"/>
<path fill-rule="evenodd" clip-rule="evenodd" d="M107.806 104.997C107.751 104.886 107.751 104.775 107.751 104.609C107.751 104.165 108.083 103.833 108.415 103.888C108.582 103.888 108.693 103.943 108.802 104.054C108.97 104.165 109.08 104.387 109.136 104.665C109.136 104.83 109.136 104.997 109.136 105.219C109.136 105.33 109.08 105.496 109.08 105.608L109.247 107.826C109.302 108.602 109.414 109.378 109.414 110.154C109.469 110.709 109.469 111.208 109.469 111.707C109.524 113.703 109.524 115.644 109.524 117.586C109.524 118.029 109.247 118.417 108.859 118.417C108.472 118.417 108.195 118.085 108.195 117.641C108.084 115.7 107.917 113.759 107.808 111.818C107.752 111.319 107.752 110.765 107.752 110.265C107.752 109.489 107.696 108.713 107.696 107.936V105.662C107.695 105.552 107.751 105.219 107.806 104.997Z" fill="#FEC50B"/>
<path fill-rule="evenodd" clip-rule="evenodd" d="M116.731 105.94C116.731 106.217 116.841 106.661 116.841 106.716L117.009 109.045C117.063 109.877 117.118 110.764 117.175 111.596C117.231 112.428 117.286 113.315 117.342 114.148C117.397 114.868 117.453 115.589 117.563 116.31C117.619 116.754 117.397 117.142 117.064 117.253C116.732 117.363 116.343 117.031 116.288 116.643C116.011 115.423 115.844 114.147 115.679 112.927C115.624 112.317 115.512 111.707 115.512 111.042C115.456 110.432 115.456 109.766 115.456 109.157V106.716C115.456 106.606 115.456 105.773 115.568 105.441C115.733 104.609 116.288 104.609 116.51 104.72C116.786 104.886 116.954 105.274 116.841 105.663C116.898 105.773 116.788 105.829 116.731 105.94ZM116.454 106.217C116.343 106.272 116.287 106.272 116.176 106.272C116.288 106.272 116.343 106.272 116.454 106.217ZM116.843 105.718C116.788 105.718 116.732 105.773 116.732 105.94V105.884C116.732 105.884 116.732 105.829 116.788 105.773C116.788 105.773 116.788 105.773 116.843 105.718Z" fill="#FEC50B"/>
<path fill-rule="evenodd" clip-rule="evenodd" d="M125.769 105.053C125.713 105.274 125.769 105.552 125.769 105.884C125.824 106.55 125.878 107.215 125.878 107.548C125.878 108.435 125.934 109.267 125.989 110.154C125.989 110.764 125.989 111.375 125.989 111.984C125.989 113.426 125.989 114.813 126.044 116.255C126.044 116.698 125.823 117.086 125.434 117.142C125.047 117.198 124.77 116.864 124.714 116.42C124.546 114.646 124.381 112.927 124.326 111.152C124.326 110.653 124.271 110.21 124.271 109.766C124.271 109.045 124.271 108.325 124.326 107.659C124.326 107.16 124.271 105.94 124.437 105.108C124.492 104.665 124.658 104.332 124.824 104.11C125.045 103.777 125.488 103.777 125.711 104.11C125.99 104.277 125.99 104.776 125.769 105.053C125.769 104.997 125.769 104.997 125.769 105.053C125.824 104.997 125.824 104.997 125.769 105.053Z" fill="#FEC50B"/>
<path fill-rule="evenodd" clip-rule="evenodd" d="M133.697 103.389C133.697 103.777 133.752 104.332 133.752 104.609L133.641 107.438C133.586 108.214 133.586 109.045 133.586 109.822C133.586 110.376 133.531 110.876 133.476 111.43C133.366 113.426 133.198 115.423 133.088 117.419C133.088 117.863 132.756 118.195 132.367 118.195C131.98 118.195 131.703 117.807 131.757 117.363C131.757 115.367 131.812 113.371 131.868 111.375C131.868 110.82 131.923 110.321 131.923 109.766C131.978 108.99 132.034 108.158 132.09 107.382L132.367 104.553C132.423 104.277 132.423 103.611 132.423 103.223C132.423 102.89 132.478 102.668 132.59 102.558C132.756 102.224 132.977 102.114 133.143 102.114C133.311 102.114 133.588 102.114 133.809 102.558C133.863 102.779 133.863 103.167 133.697 103.389Z" fill="#FEC50B"/>
<path fill-rule="evenodd" clip-rule="evenodd" d="M141.292 105.385C141.292 105.662 141.347 106.161 141.347 106.217V108.214C141.347 108.768 141.347 109.378 141.292 109.933C141.292 110.321 141.236 110.709 141.236 111.097C141.127 112.539 141.015 113.981 140.849 115.367C140.849 115.811 140.517 116.144 140.128 116.144C139.741 116.144 139.463 115.756 139.518 115.312C139.518 113.87 139.518 112.428 139.573 110.986C139.573 110.598 139.573 110.21 139.629 109.821C139.684 109.267 139.739 108.657 139.739 108.102L139.961 106.106C139.961 106.051 140.072 105.218 140.128 104.886C140.184 104.72 140.239 104.553 140.239 104.498C140.516 104.054 140.793 104.054 141.015 104.165C141.347 104.331 141.514 104.775 141.402 105.164C141.458 105.164 141.402 105.274 141.347 105.329C141.347 105.33 141.347 105.33 141.292 105.385ZM141.402 105.164C141.347 105.164 141.292 105.274 141.292 105.385C141.236 105.441 141.236 105.496 141.181 105.552C141.236 105.496 141.292 105.496 141.292 105.441V105.385C141.347 105.274 141.402 105.219 141.402 105.164Z" fill="#FEC50B"/>
<path fill-rule="evenodd" clip-rule="evenodd" d="M148.667 104.83C148.667 104.498 148.833 104.165 149.166 104.054C149.332 103.999 149.887 103.999 149.942 104.72C149.942 104.776 149.942 104.83 149.942 104.997C149.942 105.33 149.887 106.107 149.887 106.217L149.719 109.157C149.664 109.766 149.664 110.321 149.61 110.931C149.554 111.874 149.443 112.816 149.332 113.759C149.221 115.145 149.055 116.587 149 117.974C149 118.417 148.668 118.75 148.334 118.75C147.947 118.75 147.67 118.362 147.67 117.918C147.67 116.42 147.67 114.924 147.781 113.371C147.836 112.595 147.89 111.874 147.947 111.152C148.003 110.432 148.114 109.656 148.169 108.934L148.557 105.996C148.557 105.94 148.668 105.274 148.724 104.942C148.61 104.886 148.61 104.83 148.667 104.83ZM148.887 105.385C148.997 105.496 149.11 105.552 149.274 105.552C149.11 105.608 148.998 105.496 148.887 105.385ZM148.667 104.83C148.667 104.886 148.667 104.886 148.667 104.83V104.941C148.667 104.997 148.667 104.997 148.722 105.053C148.667 104.942 148.667 104.886 148.667 104.83Z" fill="#FEC50B"/>
<path fill-rule="evenodd" clip-rule="evenodd" d="M155.597 105.219C155.487 105.94 155.707 107.492 155.764 107.88C155.764 108.657 155.764 109.434 155.764 110.21C155.764 110.709 155.764 111.264 155.708 111.763C155.653 113.703 155.487 115.644 155.431 117.53C155.431 117.974 155.154 118.362 154.767 118.362C154.379 118.362 154.102 118.029 154.102 117.586C154.046 115.977 153.991 114.314 153.991 112.706C153.991 111.873 153.991 111.097 154.046 110.265C154.102 109.434 154.157 108.658 154.157 107.826C154.157 107.437 154.102 106.106 154.212 105.274C154.267 104.775 154.379 104.442 154.544 104.221C154.767 103.888 155.21 103.888 155.431 104.166C155.707 104.442 155.762 104.886 155.597 105.219C155.597 105.219 155.542 105.219 155.542 105.274C155.541 105.274 155.597 105.219 155.597 105.219Z" fill="#FEC50B"/>
<path fill-rule="evenodd" clip-rule="evenodd" d="M160.42 104.498C159.976 105.884 159.81 107.492 159.755 109.211C159.755 110.098 159.81 111.041 159.865 111.984C159.976 113.371 160.087 114.757 160.143 115.977C160.143 116.42 160.42 116.808 160.807 116.808C161.195 116.808 161.472 116.476 161.472 116.032C161.527 114.425 161.527 112.483 161.472 110.542C161.472 109.933 161.417 109.378 161.417 108.768C161.417 108.158 161.417 107.603 161.417 107.049C161.417 106.328 161.472 105.608 161.639 104.997C161.749 104.609 161.584 104.166 161.195 104.054C160.919 103.888 160.53 104.11 160.42 104.498Z" fill="#FEC50B"/>
<path fill-rule="evenodd" clip-rule="evenodd" d="M167.016 105.773C167.016 105.773 167.016 105.718 166.961 105.718C166.795 105.33 166.907 104.886 167.183 104.665C167.516 104.387 167.794 104.554 168.015 104.72C168.125 104.83 168.238 104.997 168.292 105.274C168.347 105.552 168.292 106.161 168.347 106.439L168.625 109.101C168.68 109.766 168.735 110.377 168.791 111.041C168.791 111.485 168.846 111.929 168.846 112.317C168.902 113.926 168.902 115.589 168.957 117.197C168.957 117.641 168.68 118.029 168.347 118.029C167.96 118.029 167.683 117.696 167.626 117.252C167.516 115.368 167.294 113.482 167.182 111.596C167.127 110.765 167.127 109.989 167.072 109.157L166.961 106.495C166.961 106.328 166.961 106.051 167.016 105.829V105.773Z" fill="#FEC50B"/>
<path fill-rule="evenodd" clip-rule="evenodd" d="M173.558 106.71C173.392 106.378 173.448 105.934 173.669 105.713C173.891 105.435 174.113 105.491 174.279 105.491C174.5 105.546 174.667 105.658 174.778 105.99C174.833 106.101 174.833 106.267 174.833 106.489C174.833 106.766 174.723 107.321 174.723 107.598L174.668 110.315C174.612 111.313 174.612 112.312 174.612 113.31C174.557 114.308 174.502 115.306 174.502 116.249C174.502 117.081 174.502 117.912 174.502 118.744C174.557 119.188 174.28 119.576 173.892 119.631C173.504 119.687 173.227 119.354 173.17 118.911C173.005 117.469 172.949 116.027 172.949 114.53C172.949 113.808 172.949 113.088 172.949 112.368C172.949 111.646 173.005 110.925 173.059 110.205L173.282 107.432C173.337 107.265 173.448 106.933 173.558 106.71ZM173.558 106.6C173.613 106.489 173.558 106.378 173.503 106.378C173.448 106.322 173.558 106.489 173.558 106.6Z" fill="#FEC50B"/>
<path fill-rule="evenodd" clip-rule="evenodd" d="M180.102 106.267C180.157 106.545 180.268 106.933 180.268 107.099L180.379 110.094L180.601 118.135C180.656 118.578 180.379 118.966 179.992 119.022C179.604 119.077 179.27 118.744 179.27 118.301C179.104 116.693 178.938 115.029 178.826 113.421C178.771 112.866 178.771 112.312 178.771 111.757C178.771 111.202 178.771 110.648 178.771 110.149L178.881 107.099C178.881 106.766 178.881 106.101 178.881 105.823C178.881 105.602 178.937 105.435 178.992 105.324C179.159 105.047 179.324 104.936 179.546 104.936C179.713 104.936 179.934 104.936 180.156 105.27C180.324 105.546 180.324 105.99 180.102 106.267ZM180.102 106.157C180.102 106.157 180.102 106.101 180.157 106.101C180.157 106.045 180.267 105.934 180.212 105.934C180.102 105.934 180.047 105.99 180.102 106.157Z" fill="#FEC50B"/>
<path fill-rule="evenodd" clip-rule="evenodd" d="M185.479 107.321C184.979 108.596 184.813 110.315 184.979 112.09C185.035 112.977 185.202 113.92 185.312 114.752C185.534 116.138 185.866 117.469 185.977 118.578C185.977 119.022 186.309 119.355 186.698 119.299C187.085 119.243 187.363 118.855 187.307 118.467C187.307 117.192 187.085 115.473 186.864 113.753C186.808 113.255 186.753 112.756 186.697 112.256C186.641 111.757 186.586 111.258 186.53 110.814C186.475 109.76 186.42 108.763 186.697 107.931C186.864 107.542 186.697 107.099 186.364 106.933C185.978 106.766 185.646 106.933 185.479 107.321Z" fill="#FEC50B"/>
<path fill-rule="evenodd" clip-rule="evenodd" d="M190.913 106.156C190.913 106.434 190.968 106.766 191.023 107.154C191.19 107.931 191.356 108.707 191.411 108.984C191.521 109.816 191.689 110.703 191.799 111.535C191.909 112.09 191.966 112.7 192.021 113.255C192.188 114.752 192.297 116.194 192.297 117.691C192.297 118.135 192.021 118.523 191.689 118.523C191.301 118.523 191.023 118.189 190.967 117.746C190.857 116.36 190.634 114.974 190.413 113.643C190.303 113.033 190.246 112.422 190.135 111.869C190.026 110.981 189.914 110.15 189.858 109.262C189.803 108.873 189.582 107.377 189.582 106.489C189.582 105.935 189.691 105.491 189.858 105.324C190.08 104.992 190.469 104.936 190.745 105.214C191.023 105.38 191.078 105.823 190.913 106.156C190.968 106.156 190.968 106.101 190.913 106.156Z" fill="#FEC50B"/>
<path fill-rule="evenodd" clip-rule="evenodd" d="M197.676 106.545C197.731 106.655 197.786 106.766 197.842 106.822C197.953 107.044 198.065 107.265 198.12 107.488L198.619 109.76C198.729 110.371 198.841 110.981 198.951 111.591C199.007 111.979 199.062 112.422 199.118 112.811C199.285 114.308 199.395 115.861 199.562 117.358C199.617 117.801 199.395 118.19 199.008 118.301C198.62 118.356 198.286 118.079 198.231 117.636C198.009 116.36 197.787 115.14 197.566 113.864C197.456 113.255 197.344 112.645 197.289 112.034C197.179 111.425 197.123 110.814 197.012 110.204L196.68 107.931C196.624 107.653 196.347 107.154 196.292 106.877C196.237 106.6 196.237 106.378 196.292 106.211C196.347 105.99 196.458 105.823 196.68 105.713C196.79 105.658 196.901 105.602 197.067 105.658C197.453 105.658 197.731 106.046 197.676 106.545C197.676 106.489 197.676 106.489 197.676 106.545Z" fill="#FEC50B"/>
<path fill-rule="evenodd" clip-rule="evenodd" d="M205.549 105.713C205.494 105.602 205.494 105.491 205.494 105.324C205.494 104.88 205.827 104.548 206.159 104.604C206.326 104.604 206.436 104.659 206.547 104.77C206.713 104.88 206.825 105.103 206.879 105.38C206.879 105.547 206.879 105.713 206.879 105.935C206.879 106.046 206.825 106.211 206.825 106.323L206.99 108.541C207.046 109.317 207.158 110.094 207.158 110.87C207.213 111.425 207.213 111.924 207.213 112.422C207.268 114.419 207.268 116.36 207.268 118.301C207.268 118.744 206.99 119.132 206.603 119.132C206.216 119.132 205.938 118.8 205.938 118.356C205.828 116.415 205.661 114.475 205.55 112.534C205.495 112.034 205.495 111.481 205.495 110.981C205.495 110.204 205.441 109.428 205.441 108.652V106.378C205.438 106.211 205.493 105.934 205.549 105.713Z" fill="#FEC50B"/>
<path fill-rule="evenodd" clip-rule="evenodd" d="M214.475 106.655C214.475 106.933 214.586 107.377 214.586 107.432L214.752 109.76C214.808 110.592 214.863 111.479 214.919 112.312C214.974 113.144 215.029 114.031 215.086 114.863C215.142 115.583 215.197 116.305 215.307 117.025C215.363 117.469 215.142 117.857 214.809 117.968C214.476 118.079 214.087 117.746 214.032 117.358C213.755 116.138 213.588 114.863 213.423 113.643C213.367 113.032 213.256 112.422 213.256 111.757C213.201 111.147 213.201 110.482 213.201 109.872V107.432C213.201 107.321 213.201 106.489 213.311 106.156C213.479 105.324 214.032 105.324 214.253 105.435C214.53 105.602 214.697 105.99 214.586 106.378C214.641 106.489 214.586 106.545 214.475 106.655ZM214.198 106.933C214.087 106.988 214.031 106.988 213.921 106.988C214.031 106.988 214.143 106.988 214.198 106.933ZM214.586 106.434C214.53 106.434 214.475 106.489 214.475 106.655V106.599C214.475 106.599 214.475 106.545 214.53 106.489C214.586 106.489 214.586 106.489 214.586 106.434Z" fill="#FEC50B"/>
<path fill-rule="evenodd" clip-rule="evenodd" d="M223.567 105.768C223.512 105.99 223.567 106.267 223.567 106.6C223.622 107.265 223.677 107.931 223.677 108.264C223.677 109.151 223.733 109.983 223.788 110.87C223.788 111.48 223.788 112.09 223.788 112.7C223.788 114.142 223.788 115.529 223.844 116.97C223.844 117.413 223.621 117.801 223.233 117.857C222.846 117.913 222.569 117.58 222.512 117.136C222.346 115.362 222.181 113.643 222.125 111.868C222.125 111.369 222.07 110.926 222.07 110.482C222.07 109.761 222.07 109.04 222.125 108.375C222.125 107.876 222.07 106.655 222.235 105.823C222.29 105.38 222.457 105.047 222.624 104.826C222.845 104.492 223.288 104.492 223.51 104.826C223.733 104.992 223.733 105.491 223.567 105.768C223.511 105.768 223.511 105.768 223.567 105.768C223.567 105.713 223.511 105.713 223.567 105.768C223.567 105.713 223.567 105.713 223.567 105.768Z" fill="#FEC50B"/>
<path fill-rule="evenodd" clip-rule="evenodd" d="M231.44 104.104C231.44 104.492 231.494 105.047 231.494 105.324L231.384 108.153C231.329 108.929 231.329 109.761 231.329 110.537C231.329 111.092 231.273 111.59 231.218 112.145C231.107 114.142 230.942 116.138 230.831 118.135C230.831 118.578 230.499 118.911 230.109 118.911C229.721 118.911 229.444 118.523 229.5 118.079C229.5 116.082 229.556 114.087 229.611 112.09C229.611 111.536 229.665 111.037 229.665 110.482C229.72 109.706 229.776 108.874 229.832 108.097L230.109 105.269C230.164 104.991 230.164 104.327 230.164 103.939C230.164 103.605 230.22 103.384 230.331 103.273C230.499 102.94 230.719 102.829 230.886 102.829C231.052 102.829 231.33 102.829 231.55 103.273C231.606 103.495 231.606 103.827 231.44 104.104Z" fill="#FEC50B"/>
<path fill-rule="evenodd" clip-rule="evenodd" d="M239.034 106.101C239.034 106.378 239.09 106.877 239.09 106.933V108.929C239.09 109.484 239.09 110.094 239.034 110.648C239.034 111.036 238.979 111.425 238.979 111.813C238.868 113.254 238.758 114.696 238.592 116.083C238.592 116.526 238.26 116.859 237.871 116.859C237.483 116.859 237.205 116.471 237.261 116.027C237.261 114.585 237.261 113.144 237.317 111.702C237.317 111.314 237.317 110.926 237.371 110.537C237.427 109.983 237.482 109.372 237.482 108.818L237.704 106.822C237.704 106.766 237.814 105.934 237.871 105.602C237.926 105.435 237.981 105.268 237.981 105.214C238.259 104.77 238.535 104.77 238.758 104.88C239.09 105.047 239.257 105.491 239.145 105.879C239.201 105.879 239.145 105.99 239.09 106.046C239.091 106.046 239.091 106.046 239.034 106.101ZM238.758 106.322C238.703 106.378 238.59 106.378 238.48 106.378C238.592 106.378 238.703 106.378 238.758 106.322ZM239.146 105.879C239.091 105.879 239.036 105.99 239.036 106.101C238.981 106.156 238.981 106.211 238.925 106.267C238.981 106.211 239.036 106.211 239.036 106.156V106.101C239.146 105.99 239.146 105.934 239.146 105.879Z" fill="#FEC50B"/>
<path fill-rule="evenodd" clip-rule="evenodd" d="M246.408 105.546C246.408 105.214 246.575 104.88 246.907 104.77C247.075 104.715 247.629 104.715 247.685 105.435C247.685 105.491 247.685 105.546 247.685 105.713C247.685 106.046 247.629 106.822 247.629 106.933L247.462 109.872C247.407 110.482 247.407 111.037 247.351 111.646C247.296 112.589 247.185 113.532 247.075 114.475C246.964 115.861 246.798 117.303 246.743 118.689C246.743 119.132 246.409 119.466 246.077 119.466C245.69 119.466 245.413 119.078 245.413 118.634C245.413 117.136 245.413 115.639 245.522 114.087C245.578 113.31 245.633 112.589 245.69 111.868C245.745 111.147 245.857 110.371 245.911 109.65L246.3 106.711C246.3 106.655 246.409 105.99 246.466 105.658C246.408 105.602 246.354 105.546 246.408 105.546ZM246.408 105.546C246.408 105.602 246.408 105.602 246.408 105.546V105.658C246.408 105.713 246.408 105.713 246.464 105.768C246.408 105.658 246.408 105.602 246.408 105.546Z" fill="#FEC50B"/>
<path fill-rule="evenodd" clip-rule="evenodd" d="M253.339 105.934C253.228 106.655 253.449 108.208 253.505 108.596C253.505 109.372 253.505 110.149 253.505 110.926C253.505 111.425 253.505 111.979 253.451 112.478C253.396 114.419 253.228 116.36 253.173 118.245C253.173 118.689 252.896 119.078 252.509 119.078C252.121 119.078 251.843 118.744 251.843 118.301C251.788 116.693 251.733 115.029 251.733 113.421C251.733 112.589 251.733 111.813 251.788 110.981C251.843 110.149 251.898 109.372 251.898 108.541C251.898 108.153 251.843 106.822 251.954 105.99C252.009 105.491 252.121 105.158 252.286 104.936C252.509 104.604 252.951 104.604 253.173 104.88C253.449 105.158 253.505 105.602 253.339 105.934C253.339 105.934 253.283 105.934 253.283 105.99L253.339 105.934Z" fill="#FEC50B"/>
<path fill-rule="evenodd" clip-rule="evenodd" d="M258.218 105.214C257.774 106.6 257.609 108.208 257.554 109.927C257.554 110.814 257.609 111.757 257.664 112.7C257.774 114.087 257.886 115.473 257.941 116.693C257.941 117.136 258.218 117.524 258.606 117.524C258.994 117.524 259.271 117.192 259.271 116.748C259.326 115.14 259.326 113.199 259.271 111.258C259.271 110.648 259.216 110.094 259.216 109.484C259.216 108.873 259.216 108.319 259.216 107.765C259.216 107.044 259.271 106.322 259.438 105.713C259.548 105.324 259.382 104.88 258.994 104.77C258.661 104.604 258.273 104.826 258.218 105.214Z" fill="#FEC50B"/>
<path fill-rule="evenodd" clip-rule="evenodd" d="M264.76 106.489C264.76 106.489 264.76 106.434 264.705 106.434C264.537 106.046 264.649 105.602 264.926 105.38C265.259 105.103 265.536 105.269 265.758 105.435C265.869 105.546 265.98 105.713 266.035 105.99C266.091 106.267 266.035 106.877 266.091 107.154L266.368 109.816C266.423 110.482 266.478 111.091 266.535 111.757C266.535 112.201 266.59 112.645 266.59 113.033C266.645 114.64 266.645 116.305 266.7 117.913C266.7 118.356 266.423 118.744 266.091 118.744C265.704 118.744 265.426 118.412 265.369 117.968C265.259 116.083 265.037 114.197 264.925 112.312C264.87 111.481 264.87 110.704 264.815 109.872L264.705 107.21C264.705 107.044 264.705 106.766 264.76 106.545V106.489Z" fill="#FEC50B"/>
<mask id="mask2_283_107537" style="mask-type:luminance" maskUnits="userSpaceOnUse" x="268" y="104" width="3" height="12">
<path d="M268.379 104.862H270.578V115.464H268.379V104.862Z" fill="white"/>
</mask>
<g mask="url(#mask2_283_107537)">
<path fill-rule="evenodd" clip-rule="evenodd" d="M268.53 105.713C268.419 106.877 268.419 108.097 268.475 109.317C268.53 110.038 268.585 110.703 268.641 111.425C268.752 112.478 268.919 113.476 269.029 114.53C269.029 114.974 269.361 115.306 269.75 115.306C270.138 115.306 270.415 114.918 270.36 114.475C270.36 113.31 270.36 112.09 270.249 110.926C270.194 110.204 270.139 109.539 270.082 108.873C269.972 107.82 269.861 106.822 269.805 105.823C269.805 105.38 269.528 105.047 269.196 105.047C268.862 104.936 268.53 105.269 268.53 105.713Z" fill="#FEC50B"/>
</g>
<path fill-rule="evenodd" clip-rule="evenodd" d="M70.1611 105.252C69.9386 105.53 69.7739 106.084 69.7171 106.75C69.6064 107.693 69.6613 108.912 69.6064 109.356C69.5515 110.41 69.3839 111.463 69.2741 112.573C69.2192 113.293 69.1633 114.069 69.1075 114.791C69.0526 116.122 69.1075 117.397 69.2741 118.561C69.329 119.005 69.6613 119.283 69.9954 119.227C70.3826 119.171 70.6051 118.783 70.5492 118.34C70.4943 117.508 70.4943 116.621 70.5492 115.734C70.6051 114.735 70.7168 113.681 70.8266 112.628C70.9374 111.519 70.9942 110.465 71.0491 109.412C71.0491 108.968 70.9942 108.025 71.0491 107.138C71.0491 106.861 71.0491 106.639 71.104 106.417C71.104 106.362 71.104 106.251 71.1598 106.195C71.3813 105.863 71.3813 105.363 71.104 105.086C70.8256 104.864 70.4385 104.92 70.1611 105.252Z" fill="#FEC50B"/>
<path fill-rule="evenodd" clip-rule="evenodd" d="M62.0112 107.305C62.0661 108.081 62.122 108.912 62.1778 109.688C62.2886 111.297 62.2886 112.905 62.3444 114.568C62.4003 116.232 62.5111 117.896 62.6218 119.504C62.6218 119.948 62.9541 120.28 63.2864 120.28C63.6745 120.28 63.9519 119.892 63.896 119.448C63.896 118.229 63.896 117.009 63.896 115.789C63.896 114.956 63.896 114.125 63.8411 113.349C63.7303 111.242 63.5637 109.189 63.2864 107.138C63.2315 106.694 62.8992 106.417 62.566 106.472C62.1778 106.472 61.9563 106.916 62.0112 107.305Z" fill="#FEC50B"/>
<path fill-rule="evenodd" clip-rule="evenodd" d="M41.221 108.524C41.1661 108.192 41.2759 107.858 41.5532 107.693C41.7198 107.581 41.8855 107.581 42.0531 107.581C42.2187 107.637 42.3304 107.748 42.4961 107.97C42.552 108.025 42.6069 108.192 42.6069 108.469C42.6069 108.801 42.552 109.578 42.552 109.855L42.4961 112.573C42.4961 113.349 42.4961 114.069 42.4412 114.846C42.4412 115.622 42.3863 116.343 42.3863 117.12C42.3314 118.672 42.2187 120.17 42.1089 121.667C42.1089 122.11 41.7767 122.444 41.3876 122.444C41.0004 122.444 40.723 122.055 40.7779 121.611C40.8328 119.782 40.8328 117.952 40.8328 116.177C40.8887 114.956 40.9436 113.737 41.0004 112.517L41.167 109.8C41.167 109.633 41.3336 109.079 41.3885 108.746V108.691V108.635C41.221 108.691 41.1102 108.524 41.221 108.524ZM41.9972 109.135C41.9423 109.135 41.8306 109.135 41.7757 109.135C41.8306 109.189 41.8874 109.189 41.9972 109.135ZM41.221 108.524C41.221 108.58 41.221 108.691 41.2759 108.746V108.801C41.3327 108.635 41.2759 108.524 41.221 108.524Z" fill="#FEC50B"/>
<path fill-rule="evenodd" clip-rule="evenodd" d="M50.2029 109.135C50.2029 109.412 50.2578 109.855 50.2578 109.911L50.3695 113.016C50.4244 114.236 50.4793 115.511 50.4793 116.731C50.4793 117.952 50.4793 119.171 50.5342 120.391C50.5342 121.002 50.59 121.611 50.59 122.221C50.6449 122.665 50.3676 123.053 50.0353 123.109C49.6481 123.164 49.3707 122.832 49.3139 122.388C49.1473 120.835 49.0366 119.283 48.9817 117.674C48.9817 116.898 48.9268 116.122 48.9268 115.346C48.9268 114.568 48.9268 113.792 48.9268 113.016L48.9817 109.855C48.9817 109.744 49.0366 108.912 49.0924 108.58C49.259 107.47 50.2009 107.914 50.3117 108.136C50.4215 108.358 50.4783 108.58 50.4215 108.801C50.4773 108.801 50.4215 108.912 50.3666 108.968C50.2578 109.079 50.2029 109.135 50.2029 109.135ZM49.26 109.245C49.4266 109.412 49.5374 109.467 49.704 109.467C49.5374 109.467 49.3717 109.412 49.26 109.245ZM50.0921 109.3C50.0362 109.356 49.9814 109.356 49.9814 109.412C50.0362 109.356 50.0921 109.3 50.0921 109.3ZM50.3136 108.912C50.2029 108.912 50.2029 109.024 50.2029 109.189V109.135C50.2029 109.135 50.2029 109.135 50.2029 109.079C50.2578 109.024 50.3136 108.968 50.3136 108.912Z" fill="#FEC50B"/>
<path fill-rule="evenodd" clip-rule="evenodd" d="M3.57623 111.019C3.57623 110.964 3.57623 110.908 3.57623 110.853C3.74285 109.688 4.79551 110.576 4.85137 110.687C4.85137 110.687 4.90723 110.853 4.90723 111.075C4.90723 111.297 4.79648 112.073 4.79648 112.406L4.51911 115.844C4.40835 117.064 4.24173 118.284 4.13194 119.448C3.90946 121.278 3.63305 123.053 3.35568 124.828C3.29982 125.271 2.96755 125.548 2.63432 125.493C2.24619 125.438 2.02468 125.05 2.07958 124.606C2.19033 123.109 2.35695 121.555 2.52357 120.059C2.57846 119.448 2.63432 118.839 2.74508 118.229C2.85583 117.341 2.96755 116.454 3.07831 115.511L3.5223 112.129C3.46548 111.962 3.57623 111.297 3.57623 111.019Z" fill="#FEC50B"/>
<path fill-rule="evenodd" clip-rule="evenodd" d="M12.4462 107.858C12.502 108.192 12.502 108.635 12.4462 109.135C12.3364 110.354 12.059 111.796 12.0022 112.684C11.9473 114.069 11.8356 115.511 11.7807 116.898C11.7248 119.005 11.7248 121.113 11.6699 123.22C11.6699 123.663 11.9473 124.051 12.2796 124.051C12.6677 124.051 12.9451 123.719 12.9451 123.275C13.0549 121.501 13.1666 119.782 13.2224 118.007C13.2773 117.12 13.2773 116.233 13.3322 115.4C13.3871 114.513 13.3871 113.681 13.3871 112.794C13.3871 111.907 13.6096 110.466 13.6645 109.245C13.6645 108.524 13.6645 107.914 13.5537 107.47C13.4439 107.027 13.1098 106.805 12.7226 106.917C12.5579 107.027 12.3913 107.47 12.4462 107.858Z" fill="#FEC50B"/>
<path fill-rule="evenodd" clip-rule="evenodd" d="M24.2012 107.637C24.312 108.469 24.3678 109.412 24.4237 110.299C24.4786 112.073 24.313 113.959 24.2012 115.844C24.0905 117.841 24.0905 119.781 24.2012 121.611C24.2012 122.055 24.5335 122.388 24.9226 122.388C25.2549 122.388 25.5322 121.999 25.5322 121.555C25.4764 119.726 25.642 117.729 25.8096 115.734C25.8645 114.403 25.9194 113.016 25.9194 111.741C25.9194 110.188 25.8096 108.746 25.5322 107.359C25.4764 106.916 25.0882 106.639 24.755 106.75C24.3669 106.75 24.1463 107.193 24.2012 107.637Z" fill="#FEC50B"/>
<path fill-rule="evenodd" clip-rule="evenodd" d="M34.6787 107.359C34.6787 107.193 34.6787 107.082 34.7336 106.916C34.8443 106.527 35.0658 106.417 35.1217 106.417C35.2883 106.306 35.454 106.362 35.5657 106.417C35.6764 106.472 35.7872 106.583 35.898 106.694C35.9538 106.75 36.0646 106.971 36.0087 107.305C36.0087 107.581 35.8411 108.58 35.7862 109.024L35.6196 112.628C35.6196 113.626 35.5638 114.568 35.5638 115.567C35.5638 116.565 35.5089 117.508 35.5089 118.506C35.5089 119.781 35.5089 121.112 35.6196 122.388C35.6755 122.832 35.3981 123.22 35.0649 123.275C34.6777 123.331 34.3435 122.997 34.3435 122.554C34.122 120.89 34.0671 119.227 34.0122 117.508C34.0122 116.842 34.0122 116.177 34.0122 115.511C34.0122 114.513 34.0671 113.515 34.122 112.517C34.122 112.018 34.1769 111.519 34.2328 111.075C34.2877 110.354 34.3425 109.633 34.3994 108.857C34.5121 108.469 34.6218 107.748 34.6787 107.359Z" fill="#FEC50B"/>
<mask id="mask3_283_107537" style="mask-type:luminance" maskUnits="userSpaceOnUse" x="0" y="0" width="270" height="117">
<path d="M0.417969 0H269.859V116.697H0.417969V0Z" fill="white"/>
</mask>
<g mask="url(#mask3_283_107537)">
<path fill-rule="evenodd" clip-rule="evenodd" d="M35.3196 0.0222168L4.41284 30.4667L0.588379 116.587L78.9239 111.818L95.4488 107.492L101.721 113.758L115.186 112.927L130.026 109.378L150.069 113.814L162.004 108.49L178.528 115.089L193.674 109.71L269.716 113.482L267.727 34.2931L244.012 1.51983L35.3196 0.0222168Z" fill="#FEC50B"/>
</g>
<path fill-rule="evenodd" clip-rule="evenodd" d="M13.0026 31.9643C12.8918 31.9643 12.7801 31.9643 12.6693 31.9643C12.3371 31.8526 12.1704 31.4645 12.2822 31.1322C12.2822 31.0763 12.3929 30.7441 12.8369 30.6882C12.8918 30.6882 13.0584 30.6882 13.3358 30.6882C14.0572 30.6882 15.6087 30.6333 17.8267 30.6333C25.5883 30.6333 41.8878 30.6882 62.5665 30.8548C74.5966 30.9107 88.1801 31.0214 102.374 31.1322C115.292 31.2429 128.763 31.3537 142.181 31.5203C199.951 32.13 256.39 32.7955 261.546 32.7406C261.934 32.7406 262.211 33.017 262.211 33.4051C262.211 33.7932 261.934 34.0706 261.546 34.0706C257.388 34.1265 219.522 33.8491 174.504 33.5168C162.417 33.4051 149.777 33.2943 137.191 33.1836C121.945 33.017 106.753 32.8513 92.4505 32.7396C64.1209 32.4622 39.3943 32.1858 25.3119 32.0741C19.8223 32.0192 15.9968 32.0192 14.113 32.0192C13.5563 31.9643 13.1682 31.9643 13.0026 31.9643Z" fill="black"/>
<path fill-rule="evenodd" clip-rule="evenodd" d="M121.721 17.9337C121.554 17.6564 121.666 17.2682 121.944 17.1016C122.387 16.7693 122.719 16.936 122.83 17.0467C122.996 17.1575 123.107 17.3241 123.107 17.6564C123.107 17.823 122.996 18.1552 122.83 18.5443C122.663 18.9874 122.386 19.5421 122.331 19.8744C122.275 20.7624 122.275 21.7052 122.275 22.6471C122.275 23.59 122.386 24.477 122.497 25.4199C122.996 29.357 123.495 32.7404 123.495 36.2894C123.495 38.6182 123.33 41.0028 122.831 43.609C122.054 47.7686 121.39 51.9273 120.78 56.0859C120.171 60.2455 119.672 64.4601 119.227 68.6187C118.341 76.9929 117.841 85.4219 117.674 93.9058C117.674 94.294 117.397 94.5713 117.01 94.5713C116.622 94.5713 116.345 94.294 116.345 93.9058C116.345 85.4219 116.789 76.937 117.62 68.508C118.008 64.2934 118.507 60.0789 119.117 55.8644C119.727 51.6499 120.447 47.4912 121.224 43.3316C121.723 40.8362 121.889 38.5074 121.946 36.2894C121.946 32.7953 121.558 29.4688 121.114 25.5865C121.003 24.6436 120.947 23.6459 120.947 22.703C120.947 21.7052 120.947 20.7624 121.058 19.8195C121.058 19.4314 121.335 18.8207 121.557 18.267C121.61 18.1562 121.666 18.0445 121.721 17.9337ZM121.832 17.7122C121.888 17.6015 121.888 17.5456 121.832 17.5456C121.832 17.6564 121.832 17.7122 121.832 17.7122Z" fill="black"/>
<path fill-rule="evenodd" clip-rule="evenodd" d="M99.49 20.9282C95.6087 28.138 93.4456 35.9564 92.2272 44.1081C91.5059 48.8774 91.1736 53.7574 90.9511 58.6374C90.6738 66.0128 90.7296 73.3333 90.564 80.3755C90.564 80.7636 90.8404 81.041 91.2285 81.041C91.6157 81.041 91.893 80.7636 91.893 80.3755C92.1704 73.3333 92.2253 66.0128 92.5585 58.6374C92.7801 53.8132 93.1672 48.9881 93.8337 44.2747C94.9422 36.2897 96.8829 28.5261 100.598 21.4281C100.763 21.0949 100.652 20.7626 100.32 20.596C100.044 20.4852 99.6556 20.596 99.49 20.9282Z" fill="black"/>
<path fill-rule="evenodd" clip-rule="evenodd" d="M151.548 26.4736C151.715 26.8617 152.048 27.3616 152.158 27.639C152.38 28.1927 152.546 28.7475 152.767 29.3022C152.935 29.857 153.155 30.4666 153.322 31.0214C153.877 32.9071 154.209 34.7919 154.43 36.6776C154.653 38.5634 154.708 40.504 154.653 42.3898C154.598 45.7163 154.486 49.0997 154.321 52.4262C153.932 60.1907 153.379 68.0091 152.99 75.7727C152.99 76.1608 152.657 76.4382 152.324 76.4382C151.937 76.4382 151.659 76.1059 151.659 75.7178C151.715 73.4998 151.826 71.2808 151.882 69.0079C152.103 63.6839 152.381 58.305 152.602 52.981C152.77 49.4319 152.936 45.8829 153.046 42.278C153.102 40.3933 153.046 38.5634 152.88 36.7335C152.713 34.9026 152.437 33.0728 151.938 31.2987C151.771 30.744 151.66 30.1892 151.439 29.6345C151.272 29.0807 151.107 28.526 150.884 27.9712C150.774 27.6938 150.44 27.1391 150.275 26.751C150.165 26.4736 150.108 26.1972 150.108 26.0855C150.163 25.8091 150.275 25.6424 150.496 25.5317C150.606 25.4758 150.883 25.3651 151.216 25.5317C151.548 25.8081 151.715 26.1962 151.548 26.4736ZM151.493 26.3079C151.493 26.2521 151.493 26.1962 151.438 26.1962L151.493 26.3079Z" fill="black"/>
<path fill-rule="evenodd" clip-rule="evenodd" d="M70.2718 3.71574C69.8278 3.82649 69.274 4.15972 68.7761 4.71351C67.944 5.54562 67.1677 6.76587 66.7247 7.20986C64.6743 9.37201 62.6219 11.5351 60.5715 13.6424C59.1856 15.0841 57.7987 16.47 56.4128 17.9118C54.6397 19.6868 52.9197 21.4059 51.0907 23.1251C49.3167 24.8442 47.4868 26.5075 45.602 28.1707C44.3827 29.2244 42.94 30.278 41.6658 31.4433C40.7788 32.2745 40.0026 33.2174 39.5037 34.2151C38.5618 36.046 38.007 38.0974 37.6738 40.2046C37.1749 43.1989 37.0083 46.3598 36.6202 49.1884C35.2892 57.839 34.9569 66.3788 33.571 74.8637C32.9614 78.4685 32.24 82.0176 31.1305 85.6215C31.0207 85.9547 31.2413 86.2321 31.5745 86.3428C31.9077 86.4536 32.2959 86.2321 32.4066 85.9547C33.571 82.294 34.3473 78.6901 34.9569 75.0852C36.3977 66.6012 36.8417 58.1164 38.1727 49.4099C38.6167 46.5823 38.7274 43.4214 39.2263 40.4262C39.5586 38.4855 40.0584 36.5449 40.9454 34.8257C41.3885 33.9387 42.054 33.1615 42.8302 32.4411C44.0495 31.2767 45.4913 30.2231 46.7106 29.1695C48.5963 27.5052 50.4252 25.7861 52.2551 24.0679C54.0282 22.3488 55.8032 20.5738 57.5772 18.7998C58.9631 17.3571 60.349 15.9712 61.7359 14.5294C63.7863 12.3663 65.7828 10.2041 67.8342 8.04101C68.1665 7.65288 68.832 6.65511 69.5524 5.87885C69.7748 5.60148 70.0512 5.37901 70.2737 5.15749C70.3835 5.04674 70.5501 4.93598 70.6609 4.93598C70.9932 4.88012 71.2156 4.54785 71.1607 4.27048C70.9932 3.82649 70.6599 3.65988 70.2718 3.71574Z" fill="black"/>
<path fill-rule="evenodd" clip-rule="evenodd" d="M52.5319 58.0054C51.9213 63.2177 51.4783 68.4858 50.9785 73.6991C50.6462 77.1922 50.2571 80.6305 49.815 84.1246C49.3152 87.8393 48.7614 91.5 47.9851 95.1598C47.9293 95.4921 48.1518 95.8802 48.484 95.936C48.8163 95.9909 49.2054 95.7694 49.2603 95.4372C50.3698 90.5571 51.2009 85.5664 51.8106 80.5746C52.087 78.3566 52.3095 76.0837 52.4751 73.8098C52.9191 68.5417 53.3063 63.3284 53.8061 58.1161C53.861 57.7839 53.5836 57.4506 53.2514 57.3948C52.8642 57.3948 52.5868 57.6721 52.5319 58.0054Z" fill="black"/>
<path fill-rule="evenodd" clip-rule="evenodd" d="M17.4928 44.5297C17.2154 44.863 16.993 45.306 16.8832 45.8607C16.6607 46.8036 16.5509 48.0239 16.3843 48.6335L14.5534 56.9518C13.8321 60.2793 13.0577 63.5509 12.3364 66.8775C11.8375 69.0965 11.3376 71.2586 10.7829 73.4766C9.89685 77.1374 9.00984 80.7971 8.06697 84.4569C7.95621 84.7901 8.17676 85.1783 8.51095 85.289C8.84322 85.3998 9.23135 85.1783 9.34211 84.845C10.6173 80.2983 11.8375 75.7505 12.946 71.1479C13.389 69.318 13.8321 67.4881 14.2212 65.6582C14.8308 62.8854 15.4404 60.1127 15.9952 57.3399L17.7134 49.0216C17.8241 48.4669 17.88 47.4691 18.0456 46.637C18.1564 46.1381 18.2681 45.6941 18.4896 45.4168C18.7121 45.1403 18.7121 44.7513 18.4347 44.4748C18.1025 44.1975 17.7134 44.2524 17.4928 44.5297Z" fill="black"/>
<path fill-rule="evenodd" clip-rule="evenodd" d="M192.463 10.3147C192.851 10.9802 193.905 12.4778 194.072 12.6435C194.793 13.5314 195.512 14.3626 196.179 15.2496C196.679 15.8602 197.121 16.4149 197.566 17.0246C199.783 20.0189 202.166 23.069 204.218 26.3406C205.605 28.5587 206.823 30.8884 207.655 33.273C208.654 35.9341 209.041 38.7627 209.208 41.5903C209.43 45.75 209.041 50.0194 208.93 54.0682C208.764 60.2793 208.709 66.4344 208.875 72.6455C208.985 76.7492 209.153 80.852 209.54 84.9558C209.596 85.3439 209.318 85.6213 208.93 85.6771C208.542 85.732 208.266 85.4547 208.21 85.0665C207.822 80.9079 207.544 76.8041 207.433 72.6455C207.211 66.4344 207.266 60.2234 207.378 54.0124C207.488 50.0194 207.877 45.8049 207.655 41.6462C207.544 38.9293 207.155 36.2673 206.269 33.7719C205.437 31.498 204.273 29.28 202.998 27.1169C201.002 23.8453 198.673 20.7951 196.511 17.8008C196.067 17.1912 195.625 16.6365 195.181 16.0268C194.516 15.1388 193.795 14.2518 193.074 13.4197C192.906 13.2541 191.743 11.5898 191.355 10.9243C191.188 10.5921 191.133 10.3705 191.188 10.2588C191.188 10.0373 191.299 9.87069 191.465 9.81579C191.576 9.70504 191.743 9.64918 191.964 9.70504C192.242 9.75993 192.463 10.0373 192.463 10.3147ZM192.02 10.9802C191.964 10.9802 191.854 11.0351 191.798 10.9802C191.909 11.0351 191.964 11.0351 192.02 10.9802Z" fill="black"/>
<path fill-rule="evenodd" clip-rule="evenodd" d="M181.32 48.3562C181.154 48.1347 181.154 47.8015 181.32 47.58C181.653 47.1918 181.986 47.1918 182.153 47.2477C182.319 47.3026 182.54 47.4133 182.651 47.7466C182.706 47.8573 182.706 48.0788 182.651 48.3562C182.597 48.8002 182.485 49.5206 182.485 49.8538L182.318 54.0125L181.874 64.7154C181.708 67.8763 181.597 71.0372 181.541 74.1981C181.431 77.359 181.374 80.5199 181.319 83.6249C181.265 87.7845 181.319 91.999 181.541 96.2135C181.541 96.6017 181.265 96.879 180.932 96.9339C180.544 96.9339 180.267 96.6566 180.211 96.3243C179.878 91.0003 179.711 85.7321 179.767 80.464C179.767 78.3567 179.822 76.2495 179.877 74.1422C179.988 70.9813 180.154 67.8204 180.321 64.6596L180.876 53.9576L181.097 49.798C181.098 49.5206 181.265 48.8551 181.32 48.3562ZM181.32 48.1896C181.32 48.1347 181.32 48.0788 181.32 48.0788C181.265 48.0788 181.265 48.1347 181.32 48.1896Z" fill="black"/>
<path fill-rule="evenodd" clip-rule="evenodd" d="M233.379 42.6441C233.268 43.3096 233.545 44.918 233.545 45.1954L233.713 54.2899C233.768 58.9484 233.88 63.606 234.044 68.2086C234.155 71.3146 234.267 74.3647 234.488 77.4698C234.821 82.5713 235.265 87.6738 235.985 92.8302C236.041 93.1634 235.818 93.5516 235.43 93.6074C235.043 93.6623 234.71 93.4408 234.655 93.0527C233.823 87.8953 233.268 82.7379 232.936 77.5805C232.714 74.4755 232.603 71.3695 232.493 68.2645C232.325 63.606 232.325 59.0033 232.27 54.2899L232.215 45.1954C232.215 44.918 231.993 43.5321 232.048 42.7558C232.048 42.256 232.215 41.9237 232.38 41.7571C232.657 41.4797 233.046 41.4797 233.323 41.7571C233.545 41.9796 233.545 42.3118 233.379 42.6441C233.436 42.5892 233.379 42.5892 233.379 42.6441ZM233.379 42.5892C233.324 42.6441 233.324 42.6441 233.268 42.7C233.324 42.7 233.379 42.6441 233.379 42.5892Z" fill="black"/>
</svg>
