<svg width="777" height="379" viewBox="0 0 777 379" fill="none" xmlns="http://www.w3.org/2000/svg">
<mask id="mask0_283_107521" style="mask-type:luminance" maskUnits="userSpaceOnUse" x="0" y="116" width="777" height="263">
<path d="M0 116.742H777V378.146H0V116.742Z" fill="white"/>
</mask>
<g mask="url(#mask0_283_107521)">
<path d="M0.385254 117.547H775.456V377.106H0.385254V117.547Z" fill="#CDCC58"/>
</g>
<mask id="mask1_283_107521" style="mask-type:luminance" maskUnits="userSpaceOnUse" x="0" y="56" width="777" height="319">
<path d="M0 56.6128H777V374.439H0V56.6128Z" fill="white"/>
</mask>
<g mask="url(#mask1_283_107521)">
<path d="M775.456 117.548H0.385254L79.674 58.291H679.491L775.456 117.548ZM385.203 372.443H584.113V123.772H385.203V372.443Z" fill="#A09F9F"/>
</g>
<path d="M4.46045 122.983H188.237V371.469H4.46045V122.983ZM196.374 366.218H369.699V128.435H196.374V366.218ZM587.601 122.983V371.469H771.377V122.983H587.601ZM389.462 190.209H579.648V149.021H389.278V190.209H389.462ZM389.462 352.243H579.648V347.964H389.278V352.243H389.462ZM560.254 314.158C474.573 327.563 408.857 314.158 408.857 314.158V200.896H560.254V314.158ZM556.58 209.821H412.732V218.764H556.58V209.821Z" fill="#6F4323"/>
<path d="M389.465 341.941H579.651V194.486H389.28V341.941H389.465ZM408.859 200.895H560.256V314.158C474.575 327.563 408.859 314.158 408.859 314.158V200.895ZM192.317 371.67H376.093V122.982H192.317V371.67ZM196.377 128.435H369.701V366.217H196.377V128.435ZM219.059 107.447H196.578L230.501 68.2049H294.473V18.2761H281.873V12.0518L294.473 3.51222L297.962 1.36475H308.045V61.9806L305.143 68.3894H388.894L369.886 107.631H219.059V107.447ZM310.377 64.5139V61.2088C310.377 60.4371 313.095 59.8499 316.585 59.8499C320.075 59.8499 322.776 60.4371 322.776 61.2088V64.5139C322.776 65.2857 320.075 65.8729 316.585 65.8729C313.095 65.8729 310.377 65.0843 310.377 64.5139ZM566.665 68.2049L583.526 107.447H384.616L402.467 68.2049H566.665ZM99.6396 282.885C99.6396 284.63 98.0961 286.174 96.3513 286.174C94.6065 286.174 93.063 284.63 93.063 282.885C93.063 281.124 94.6065 279.58 96.3513 279.58C98.2975 279.58 99.6396 281.124 99.6396 282.885ZM99.6396 208.277C99.6396 210.022 98.0961 211.582 96.3513 211.582C94.6065 211.582 93.063 210.022 93.063 208.277C93.063 206.532 94.6065 204.972 96.3513 204.972C98.2975 204.972 99.6396 206.331 99.6396 208.277ZM99.6396 133.669C99.6396 135.414 98.0961 136.974 96.3513 136.974C94.6065 136.974 93.063 135.414 93.063 133.669C93.063 131.925 94.6065 130.364 96.3513 130.364C98.2975 130.18 99.6396 131.723 99.6396 133.669ZM361.162 247.318C361.162 249.079 359.618 250.623 357.873 250.623C356.129 250.623 354.568 249.079 354.568 247.318C354.568 245.573 356.129 244.029 357.873 244.029C359.618 244.029 361.162 245.573 361.162 247.318ZM682.78 282.885C682.78 284.63 681.236 286.174 679.491 286.174C677.747 286.174 676.186 284.63 676.186 282.885C676.186 281.124 677.747 279.58 679.491 279.58C681.421 279.58 682.78 281.124 682.78 282.885ZM682.78 208.277C682.78 210.022 681.236 211.582 679.491 211.582C677.747 211.582 676.186 210.022 676.186 208.277C676.186 206.532 677.747 204.972 679.491 204.972C681.421 204.972 682.78 206.331 682.78 208.277ZM676.186 133.669C676.186 131.925 677.747 130.364 679.491 130.364C681.236 130.364 682.78 131.925 682.78 133.669C682.78 135.414 681.236 136.974 679.491 136.974C677.747 136.974 676.186 135.414 676.186 133.669Z" fill="#CCD9EA"/>
<mask id="mask2_283_107521" style="mask-type:luminance" maskUnits="userSpaceOnUse" x="0" y="0" width="777" height="379">
<path d="M0 0.141113H777V378.147H0V0.141113Z" fill="white"/>
</mask>
<g mask="url(#mask2_283_107521)">
<path d="M483.299 320.182C505.781 320.182 532.154 318.622 560.457 314.344L561.229 314.159V199.152H407.886V314.159L408.658 314.344C409.245 314.344 438.521 320.182 483.299 320.182ZM409.832 201.081H559.3V312.599C480.195 324.846 417.583 313.958 409.832 312.599V201.081ZM557.555 208.077H411.762V218.966H557.555V208.077ZM555.609 217.02H413.708V210.023H555.609V217.02ZM580.623 346.019H388.307V352.243H580.623V346.019ZM578.677 350.297H390.253V347.965H578.677V350.297ZM96.9384 287.148C99.2536 287.148 101.2 285.202 101.2 282.887C101.2 280.555 99.2536 278.608 96.9384 278.608C94.6063 278.608 92.677 280.555 92.677 282.887C92.677 285.202 94.6063 287.148 96.9384 287.148ZM96.9384 280.555C98.2973 280.555 99.2536 281.511 99.2536 282.887C99.2536 284.246 98.2973 285.202 96.9384 285.202C95.5794 285.202 94.6063 284.246 94.6063 282.887C94.6063 281.511 95.5794 280.555 96.9384 280.555ZM96.9384 212.557C99.2536 212.557 101.2 210.611 101.2 208.279C101.2 205.947 99.2536 204 96.9384 204C94.6063 204 92.677 205.947 92.677 208.279C92.677 210.611 94.6063 212.557 96.9384 212.557ZM96.9384 205.947C98.2973 205.947 99.2536 206.92 99.2536 208.279C99.2536 209.638 98.2973 210.611 96.9384 210.611C95.5794 210.611 94.6063 209.638 94.6063 208.279C94.6063 206.92 95.5794 205.947 96.9384 205.947ZM96.9384 137.949C99.2536 137.949 101.2 136.003 101.2 133.671C101.2 131.339 99.2536 129.393 96.9384 129.393C94.6063 129.393 92.677 131.339 92.677 133.671C92.677 136.003 94.6063 137.949 96.9384 137.949ZM96.9384 131.154C98.2973 131.154 99.2536 132.127 99.2536 133.486C99.2536 134.845 98.2973 135.818 96.9384 135.818C95.5794 135.818 94.6063 134.845 94.6063 133.486C94.6063 132.127 95.5794 131.154 96.9384 131.154ZM358.259 243.058C355.927 243.058 353.998 244.987 353.998 247.319C353.998 249.651 355.927 251.597 358.259 251.597C360.591 251.597 362.521 249.651 362.521 247.319C362.521 244.987 360.591 243.058 358.259 243.058ZM358.259 249.651C356.9 249.651 355.927 248.678 355.927 247.319C355.927 245.96 356.9 244.987 358.259 244.987C359.618 244.987 360.591 245.96 360.591 247.319C360.591 248.678 359.618 249.651 358.259 249.651ZM195.991 367.192H371.245V127.463H195.991V367.192ZM197.937 129.393H369.315V365.246H197.937V129.393ZM580.623 192.726V147.277H388.307V342.127H580.623V192.726ZM390.438 149.223H578.879V188.465H390.438V149.223ZM390.438 190.394H578.879V192.726H390.438V190.394ZM578.677 340.197H390.253V194.672H578.677V340.197ZM776.228 116.575L680.464 57.5192C680.263 57.5192 680.062 57.3179 679.877 57.3179H309.605V1.18157C309.605 0.594369 309.22 0.208496 308.632 0.208496H298.549C298.348 0.208496 298.163 0.208499 297.962 0.393045L294.472 2.54052L281.873 11.0801C281.688 11.2814 281.688 11.2814 281.487 11.466V11.6673V17.8916C281.487 18.462 281.873 18.8479 282.46 18.8479H294.087V56.932H80.2619C80.0605 56.932 79.876 56.932 79.6747 57.1334L0.5872 116.575H0V378.08H777V116.575H776.228ZM322.205 64.1294C321.618 64.314 319.873 64.6998 316.971 64.6998C314.051 64.6998 312.307 64.314 311.736 64.1294V62.7705C313.28 63.1564 315.41 63.3409 316.971 63.3409C318.514 63.3409 320.645 63.1564 322.205 62.7705V64.1294ZM317.155 61.3947C315.41 61.3947 314.051 61.2102 313.28 61.0089C314.253 60.8243 315.612 60.623 317.155 60.623C318.715 60.623 320.259 60.8243 321.031 61.0089C320.074 61.2102 318.715 61.3947 317.155 61.3947ZM298.751 2.15465H307.659V61.5961L306.686 63.9281V3.31227V3.11094C306.686 3.11094 306.686 3.11094 306.686 2.92639C306.686 2.92639 306.686 2.92639 306.686 2.72507L306.502 2.54052C306.3 2.54052 306.3 2.54052 306.116 2.54052H298.751V2.15465ZM229.931 70.7228V93.8418L219.059 106.274H199.094L229.931 70.7228ZM231.474 95.402L374.734 96.5596L369.886 106.475H221.593L231.474 95.402ZM375.707 94.6303L231.86 93.4559V69.1793H387.72L375.707 94.6303ZM295.831 12.439L304.556 5.44297V9.72114L295.831 16.3313V12.439ZM295.831 18.8479L304.556 12.2545V67.4177H295.831V18.8479ZM295.261 4.28534H303.012L294.674 10.8955H285.564L295.261 4.28534ZM283.232 13.0262H293.902V17.3044H283.232V13.0262ZM80.6477 59.2641H294.087V67.2332H231.088H230.887C230.887 67.2332 230.887 67.2332 230.703 67.2332C230.703 67.2332 230.703 67.2332 230.501 67.2332L230.317 67.4177L196.377 106.676C196.192 106.861 196.192 107.062 196.192 107.247C196.192 107.448 196.192 107.633 196.192 107.834C196.377 108.22 196.779 108.421 197.165 108.421H370.674C371.06 108.421 371.446 108.22 371.631 107.834L377.251 95.9892L390.438 68.5921C390.639 68.2063 390.639 68.0049 390.438 67.6191C390.253 67.4177 389.851 67.2332 389.666 67.2332H307.475L309.79 62.1833C309.79 61.9819 309.79 61.982 309.79 61.7974V59.2641H312.709C311.535 59.4654 310.562 60.0358 310.377 60.623C310.377 60.8243 310.176 61.0089 310.176 61.0089V64.314C310.176 64.5153 310.176 64.6998 310.377 64.6998C311.149 66.2601 315.024 66.4614 317.357 66.4614C319.873 66.4614 323.749 66.2601 324.336 64.6998C324.336 64.5153 324.52 64.314 324.52 64.314V61.0089C324.52 60.8243 324.52 60.623 324.336 60.623C323.95 60.0358 323.178 59.4654 322.004 59.2641H680.062L772.923 116.575H3.87552L80.6477 59.2641ZM1.94615 376.134V118.521H187.854V122.011H4.07685V372.443H187.854V375.933H1.94615V376.134ZM187.854 197.39H6.00622V123.957H187.854V197.39ZM187.854 272.971H6.00622V199.538H187.854V272.971ZM187.854 370.698H6.00622V274.917H187.854V370.698ZM189.8 376.134V118.521H191.931V376.134H189.8ZM193.86 123.957H375.707V370.698H193.86V123.957ZM379.784 376.134H193.86V372.628H377.654V122.011H193.86V118.521H379.784V376.134ZM381.714 376.134V118.521H583.14V122.011H384.23V372.628H583.14V376.134H381.714ZM583.14 370.698H386.176V123.957H583.14V370.698ZM585.069 376.134V118.521H587.603V375.933H585.069V376.134ZM770.994 197.592H589.348V123.957H770.994V197.592ZM770.994 272.971H589.348V199.538H770.994V272.971ZM589.348 274.917H770.994V370.698H589.348V274.917ZM775.054 376.134H589.348V372.628H772.923V122.011H589.348V118.521H774.869V376.134H775.054ZM680.062 278.608C677.746 278.608 675.8 280.555 675.8 282.887C675.8 285.202 677.746 287.148 680.062 287.148C682.394 287.148 684.34 285.202 684.34 282.887C684.34 280.555 682.394 278.608 680.062 278.608ZM680.062 285.202C678.719 285.202 677.746 284.246 677.746 282.887C677.746 281.511 678.719 280.555 680.062 280.555C681.421 280.555 682.394 281.511 682.394 282.887C682.394 284.246 681.236 285.202 680.062 285.202ZM680.062 212.557C682.394 212.557 684.34 210.611 684.34 208.279C684.34 205.947 682.394 204 680.062 204C677.746 204 675.8 205.947 675.8 208.279C675.8 210.611 677.746 212.557 680.062 212.557ZM680.062 205.947C681.421 205.947 682.394 206.92 682.394 208.279C682.394 209.638 681.421 210.611 680.062 210.611C678.719 210.611 677.746 209.638 677.746 208.279C677.746 206.92 678.719 205.947 680.062 205.947ZM680.062 137.949C682.394 137.949 684.34 136.003 684.34 133.671C684.34 131.339 682.394 129.393 680.062 129.393C677.746 129.393 675.8 131.339 675.8 133.671C675.8 136.003 677.746 137.949 680.062 137.949ZM680.062 131.154C681.421 131.154 682.394 132.127 682.394 133.486C682.394 134.845 681.421 135.818 680.062 135.818C678.719 135.818 677.746 134.845 677.746 133.486C677.746 132.127 678.719 131.154 680.062 131.154ZM297.392 98.7071C293.114 98.7071 286.151 99.093 286.151 101.425C286.151 103.757 293.315 104.143 297.392 104.143C301.653 104.143 308.632 103.757 308.632 101.425C308.632 99.093 301.653 98.7071 297.392 98.7071ZM297.392 102.398C293.114 102.398 290.211 102.012 288.668 101.61C290.027 101.224 292.929 100.838 297.392 100.838C301.838 100.838 304.757 101.224 306.116 101.61C304.757 101.811 301.838 102.398 297.392 102.398ZM385.203 108.421H584.113C584.499 108.421 584.684 108.22 584.885 108.035C585.069 107.834 585.069 107.448 584.885 107.062L568.024 67.8204C567.823 67.4177 567.437 67.2332 567.051 67.2332H402.853C402.467 67.2332 402.064 67.4177 401.88 67.8204L384.23 107.062C384.046 107.448 384.046 107.633 384.23 108.035C384.432 108.22 384.817 108.421 385.203 108.421ZM403.625 69.1793H566.464L582.553 106.475H386.562L403.625 69.1793ZM442.397 74.7997C441.038 74.7997 406.913 74.7997 406.913 80.4368C406.913 86.0739 440.836 86.0739 442.397 86.0739C443.94 86.0739 477.88 86.0739 477.88 80.4368C477.88 74.7997 443.94 74.7997 442.397 74.7997ZM442.397 84.3291C422.616 84.3291 410.403 82.1816 408.859 80.6381C410.218 79.0779 422.616 76.9472 442.397 76.9472C462.177 76.9472 474.391 79.0779 475.934 80.6381C474.391 81.9971 462.177 84.3291 442.397 84.3291ZM562.202 80.4368C562.202 74.7997 528.279 74.7997 526.719 74.7997C525.175 74.7997 491.252 74.7997 491.252 80.4368C491.252 86.0739 525.175 86.0739 526.719 86.0739C528.279 86.0739 562.202 86.0739 562.202 80.4368ZM526.719 76.7458C546.499 76.7458 558.713 78.8933 560.256 80.4368C558.914 81.9971 546.499 84.1278 526.719 84.1278C506.955 84.1278 494.741 81.9971 493.181 80.4368C494.741 78.8933 507.14 76.7458 526.719 76.7458ZM437.347 90.1508C436.004 90.1508 401.88 90.1508 401.88 95.7879C401.88 101.425 435.803 101.425 437.347 101.425C438.907 101.425 472.83 101.425 472.83 95.7879C472.83 90.1508 438.907 90.1508 437.347 90.1508ZM437.347 99.4789C417.583 99.4789 405.369 97.3482 403.809 95.7879C405.168 94.2276 417.583 92.0969 437.347 92.0969C457.127 92.0969 469.341 94.2276 470.901 95.7879C469.542 97.3482 457.127 99.4789 437.347 99.4789ZM531.768 90.1508C530.409 90.1508 496.285 90.1508 496.285 95.7879C496.285 101.425 530.208 101.425 531.768 101.425C533.312 101.425 567.235 101.425 567.235 95.7879C567.235 90.1508 533.312 90.1508 531.768 90.1508ZM531.768 99.4789C511.988 99.4789 499.774 97.3482 498.231 95.7879C499.59 94.2276 511.988 92.0969 531.768 92.0969C551.532 92.0969 563.746 94.2276 565.306 95.7879C563.947 97.3482 551.532 99.4789 531.768 99.4789Z" fill="#55331A"/>
</g>
</svg>
