<svg width="166" height="126" viewBox="0 0 166 126" fill="none" xmlns="http://www.w3.org/2000/svg">
<path d="M148.818 53.5782L154.484 65.6198L153.375 64.974L150.141 58.099C150.104 58.0261 150.047 57.9636 149.974 57.9219L145.964 55.599C146.427 55.2761 146.896 54.948 147.359 54.6198L147.797 54.875C147.953 54.9636 148.146 54.9428 148.281 54.823C148.412 54.698 148.448 54.5052 148.375 54.3438L148.214 54.0105C148.417 53.8646 148.615 53.724 148.818 53.5782ZM53.8178 124.401L54.6876 124.323L61.5574 101.49C61.2605 101.583 60.9532 101.667 60.6355 101.734L53.8178 124.401ZM149.495 53.0938L155.531 65.9167L156.672 64.698L150.776 52.1719C150.349 52.4792 149.922 52.7865 149.495 53.0938ZM12.573 99.8386L13.4428 99.7605L15.6355 92.4792L14.9116 92.0625L12.573 99.8386ZM16.0418 88.3177L17.0366 87.8073L18.7345 82.1719L18.0157 81.7552L16.0418 88.3177ZM54.1772 111.083L54.2032 111.068L54.5105 110.036L17.3699 88.5625L16.2293 89.1407L54.1772 111.083ZM57.7605 102.094L54.8282 111.839C54.7918 111.958 54.7032 112.057 54.5834 112.099C54.4689 112.146 54.3386 112.135 54.2293 112.073L15.1668 89.474C15.0001 89.375 14.922 89.1823 14.9793 89L17.2866 81.3334L15.6564 80.3907L10.1355 98.7396L11.7605 99.6875L14.2761 91.3282C14.3126 91.2084 14.4011 91.1094 14.5209 91.0677C14.6355 91.0209 14.7657 91.0261 14.8751 91.0938L53.9428 113.682C54.1095 113.776 54.1876 113.974 54.1303 114.156L51.3803 123.302L53.0053 124.25L59.7293 101.906C59.0939 102.005 58.4324 102.073 57.7605 102.094ZM164.813 35.8594C164.724 35.9688 164.625 36.0782 164.516 36.1823C164.49 36.2084 164.464 36.2344 164.438 36.2657C164.318 36.375 164.198 36.4844 164.068 36.5938L164.063 36.599C135.724 59.2917 101.573 79.1719 62.5522 95.6823C62.2293 95.8177 61.8803 95.9375 61.5157 96.0469C60.2866 96.4167 58.8699 96.625 57.4064 96.6407C57.3386 96.6407 57.2761 96.6459 57.2084 96.6459C54.6772 96.6459 52.2605 96.0938 50.5939 95.125L2.76573 67.4688C2.57302 67.3594 2.38552 67.2344 2.20844 67.1094C2.19281 67.099 2.17719 67.0886 2.16156 67.0782C2.00531 66.9688 1.86469 66.8542 1.72406 66.7344C1.6824 66.698 1.64594 66.6615 1.60427 66.6302C1.50011 66.5313 1.39594 66.4323 1.29698 66.3282C1.2449 66.2709 1.18761 66.2084 1.13552 66.1511C1.06261 66.0625 0.98448 65.974 0.916772 65.8802C0.890729 65.8438 0.85948 65.8125 0.833438 65.7761L0.823022 68.8334C0.817814 70.125 1.67198 71.3594 3.16156 72.2188L50.9897 99.875C52.5366 100.771 54.797 101.286 57.1928 101.286C57.2657 101.286 57.3334 101.281 57.4064 101.281C59.1876 101.255 60.8907 100.943 62.2189 100.385C101.167 83.9011 135.25 64.0625 163.531 41.4167C164.464 40.6615 164.958 39.7396 164.964 38.7552L164.974 35.6615C164.953 35.6875 164.932 35.7136 164.912 35.7396C164.88 35.7813 164.849 35.8177 164.813 35.8594ZM0.849063 63.6042C0.927189 64.6563 1.58865 65.6667 2.6824 66.4427L2.68761 66.448C2.84385 66.5573 3.00531 66.6615 3.17719 66.7605L51.0053 94.4167C52.5522 95.3125 54.8126 95.823 57.2084 95.823C59.0626 95.823 60.8491 95.5052 62.2345 94.9271C101.182 78.4427 135.266 58.6042 163.547 35.9584C163.557 35.948 163.573 35.9375 163.583 35.9271C163.693 35.8386 163.792 35.7448 163.891 35.6563C163.912 35.6302 163.932 35.6094 163.953 35.5834C164.037 35.5 164.12 35.4115 164.193 35.323C164.208 35.3073 164.219 35.2917 164.234 35.2709C164.313 35.1771 164.386 35.0782 164.448 34.9792C164.458 34.9636 164.469 34.948 164.474 34.9323C164.542 34.8334 164.604 34.7292 164.656 34.6198C164.662 34.6042 164.672 34.5834 164.677 34.5677C164.729 34.4688 164.771 34.3646 164.807 34.2657C164.818 34.2344 164.823 34.2084 164.833 34.1771C164.865 34.0886 164.886 33.9948 164.906 33.9063C164.917 33.8646 164.927 33.8177 164.932 33.7761C164.948 33.7032 164.953 33.625 164.964 33.5469C164.969 33.4896 164.974 33.4375 164.974 33.3802C164.979 33.2761 164.979 33.1667 164.969 33.0625C164.875 31.8594 164.026 30.7136 162.641 29.9115L114.818 2.25525C113.266 1.35942 111.005 0.848999 108.604 0.848999C106.75 0.848999 104.964 1.16671 103.583 1.74483C64.6355 18.224 30.547 38.0677 2.27094 60.7084C1.27094 61.5209 0.76573 62.5469 0.849063 63.6042Z" fill="#EAA890"/>
<path d="M17.8179 81.2604L19.1304 82.0156L17.3179 88.0417L15.5002 88.9635L17.8179 81.2604ZM12.1147 100.214L13.6929 100.073L16.0262 92.3229L14.7189 91.5625L12.1147 100.214ZM60.5627 101.411L60.3752 101.453L53.3595 124.776L54.9377 124.63L62.0522 100.99L61.4585 101.172C61.1512 101.266 60.8595 101.344 60.5627 101.411ZM150.578 51.901C150.203 52.1771 149.823 52.4479 149.443 52.724L149.078 52.9844L155.438 66.5L157.068 64.7604L150.901 51.6667L150.578 51.901ZM164.708 35.4635L164.646 35.5365C164.62 35.5729 164.589 35.6094 164.557 35.6458C164.474 35.75 164.38 35.849 164.281 35.9479L164.203 36.026C164.094 36.1302 163.979 36.2344 163.854 36.3385C135.542 59.0156 101.412 78.875 62.4272 95.375C62.1304 95.5 61.797 95.6146 61.422 95.7292C60.2137 96.0938 58.8283 96.2917 57.4012 96.3073L57.0731 96.3125V101.615H57.4116C59.2345 101.589 60.9845 101.26 62.3491 100.693C101.323 84.1979 135.438 64.3438 163.74 41.6771C164.755 40.8542 165.292 39.849 165.297 38.7604L165.307 34.6562L164.708 35.4635Z" fill="#090001" fill-opacity="0.3"/>
<mask id="mask0_71_104895" style="mask-type:luminance" maskUnits="userSpaceOnUse" x="0" y="0" width="166" height="126">
<path d="M0 0H165.797V125.292H0V0Z" fill="white"/>
</mask>
<g mask="url(#mask0_71_104895)">
<path d="M165.792 33.2968C165.792 33.1979 165.797 33.0989 165.786 33C165.672 31.5208 164.672 30.1354 163.052 29.1979L115.224 1.54163C113.557 0.578085 111.146 0.026001 108.604 0.026001C106.646 0.026001 104.75 0.364542 103.266 0.984334C64.2448 17.5 30.0938 37.375 1.75521 60.0677C0.630208 60.9843 0.0312497 62.1458 0.0260417 63.3698H0.015625L0 68.8281C0 70.4218 1 71.9166 2.75 72.9323L14.9271 79.9687L9.25521 98.8125C9.20313 98.9948 9.27604 99.1927 9.44271 99.2864L11.8021 100.661C11.8021 100.661 11.8073 100.661 11.8125 100.667C11.8281 100.672 11.8438 100.682 11.8594 100.687C11.875 100.693 11.8854 100.698 11.901 100.698C11.9167 100.703 11.9323 100.708 11.9479 100.708C11.9635 100.708 11.974 100.714 11.9896 100.714C11.9948 100.714 12 100.714 12.0052 100.714C12.0156 100.714 12.0312 100.714 12.0417 100.714L13.7917 100.552C13.9583 100.536 14.099 100.422 14.1458 100.266L16.3646 92.901L53.25 114.229L50.5 123.375C50.4427 123.557 50.5208 123.755 50.6875 123.849L53.0417 125.219C53.0469 125.224 53.0521 125.224 53.0573 125.224C53.0781 125.234 53.099 125.245 53.1198 125.25C53.1302 125.255 53.1406 125.26 53.151 125.26C53.1823 125.271 53.2135 125.276 53.25 125.276C53.2604 125.276 53.276 125.276 53.2865 125.276L55.0365 125.115C55.2031 125.099 55.3438 124.984 55.3906 124.823L62.5156 101.151C62.5208 101.146 62.5312 101.146 62.5365 101.141C93.276 88.1354 120.99 73.0364 145.224 56.1198L149.453 58.5677L152.688 65.4427C152.724 65.5156 152.781 65.5781 152.854 65.6198L155.214 66.9948C155.219 66.9948 155.224 67 155.234 67C155.25 67.0104 155.271 67.0208 155.286 67.026C155.302 67.0312 155.318 67.0312 155.328 67.0364C155.339 67.0364 155.344 67.0416 155.354 67.0416C155.365 67.0468 155.38 67.0416 155.391 67.0468C155.401 67.0468 155.406 67.0468 155.417 67.0468C155.422 67.0468 155.427 67.0468 155.427 67.0468C155.474 67.0468 155.521 67.0364 155.562 67.0208C155.562 67.0208 155.568 67.0156 155.573 67.0156C155.615 67 155.651 66.9739 155.682 66.9479C155.688 66.9427 155.693 66.9427 155.693 66.9375C155.698 66.9375 155.698 66.9375 155.698 66.9323C155.703 66.927 155.714 66.9218 155.719 66.9166L157.458 65.0573C157.573 64.9375 157.604 64.7552 157.531 64.6041L151.448 51.677C155.766 48.5312 159.969 45.3229 164.047 42.0573C165.161 41.151 165.781 39.9791 165.781 38.7552L165.797 33.2968H165.792ZM12.5729 99.8385L14.9115 92.0625L15.6354 92.4791L13.4427 99.7604L12.5729 99.8385ZM53.0052 124.25L51.3802 123.302L54.1302 114.156C54.1875 113.974 54.1094 113.776 53.9427 113.682L14.875 91.0937C14.7656 91.026 14.6354 91.0208 14.5208 91.0625C14.401 91.1093 14.3125 91.2083 14.276 91.3281L11.7604 99.6875L10.1354 98.7395L15.6562 80.3906L17.2865 81.3333L14.9792 89C14.9219 89.1823 15 89.375 15.1667 89.4739L54.2292 112.073C54.3385 112.135 54.4688 112.146 54.5833 112.099C54.7031 112.052 54.7917 111.958 54.8281 111.839L57.7604 102.094C58.4323 102.073 59.0938 102.005 59.7292 101.906L53.0052 124.25ZM17.3698 88.5625L54.5104 110.036L54.2031 111.068L54.1771 111.083L16.2292 89.1406L17.3698 88.5625ZM17.8698 87.901L19.4635 82.5937L50.5781 100.583C52.1823 101.516 54.474 102.057 56.901 102.099L54.7552 109.234L17.8698 87.901ZM17.0365 87.8073L16.0417 88.3177L18.0156 81.7552L18.7344 82.1718L17.0365 87.8073ZM53.8177 124.401L60.6354 101.734C60.9531 101.667 61.2604 101.583 61.5573 101.49L54.6875 124.323L53.8177 124.401ZM153.375 64.9739L150.141 58.0989C150.104 58.026 150.047 57.9635 149.974 57.9218L145.964 55.5989C146.427 55.276 146.896 54.9479 147.359 54.6198L147.797 54.875C147.953 54.9635 148.146 54.9427 148.281 54.8229C148.411 54.6979 148.448 54.5052 148.375 54.3437L148.214 54.0104C148.417 53.8645 148.615 53.7239 148.818 53.5781L154.484 65.6198L153.375 64.9739ZM156.672 64.6979L155.531 65.9166L149.495 53.0937C149.922 52.7864 150.349 52.4791 150.776 52.1718L156.672 64.6979ZM164.964 38.7552C164.958 39.7395 164.464 40.6614 163.531 41.4218C135.25 64.0625 101.167 83.901 62.2188 100.385C60.8854 100.943 59.1875 101.255 57.4062 101.281C57.3333 101.281 57.2656 101.286 57.1927 101.286C54.7969 101.286 52.5365 100.771 50.9844 99.875L3.16146 72.2187C1.67187 71.3593 0.817709 70.125 0.822917 68.8333L0.833333 65.776C0.859375 65.8125 0.890624 65.8489 0.916667 65.8802C0.984375 65.9739 1.0625 66.0625 1.13542 66.151C1.1875 66.2083 1.23958 66.2708 1.29688 66.3281C1.39583 66.4323 1.5 66.5312 1.60417 66.6302C1.64583 66.6666 1.68229 66.6979 1.72396 66.7343C1.86458 66.8541 2.00521 66.9687 2.16146 67.0781C2.17708 67.0885 2.19271 67.0989 2.20833 67.1093C2.38542 67.2395 2.57292 67.3593 2.76562 67.4687L50.5938 95.125C52.2604 96.0937 54.6719 96.6458 57.2083 96.6458C57.276 96.6458 57.3385 96.6406 57.4062 96.6406C58.8646 96.625 60.2813 96.4166 61.5156 96.0468C61.8802 95.9375 62.2292 95.8177 62.5521 95.6823C101.573 79.1718 135.719 59.2916 164.062 36.5989C164.062 36.5989 164.062 36.5937 164.068 36.5937C164.198 36.4843 164.318 36.375 164.438 36.2656C164.464 36.2395 164.49 36.2135 164.516 36.1823C164.625 36.0781 164.724 35.9687 164.812 35.8593C164.849 35.8177 164.88 35.7812 164.906 35.7395C164.927 35.7135 164.953 35.6875 164.974 35.6614L164.964 38.7552ZM164.964 33.5468C164.953 33.625 164.948 33.7031 164.932 33.776C164.927 33.8229 164.917 33.8645 164.906 33.9062C164.885 33.9948 164.865 34.0885 164.833 34.177C164.823 34.2083 164.818 34.2343 164.807 34.2656C164.771 34.3645 164.729 34.4687 164.677 34.5677C164.672 34.5833 164.661 34.6041 164.656 34.6198C164.604 34.7291 164.542 34.8333 164.474 34.9323C164.469 34.9479 164.458 34.9635 164.448 34.9791C164.385 35.0781 164.312 35.177 164.234 35.2708C164.219 35.2916 164.208 35.3073 164.193 35.3229C164.12 35.4114 164.036 35.5 163.953 35.5833C163.932 35.6093 163.911 35.6302 163.891 35.6562C163.792 35.75 163.693 35.8385 163.583 35.927C163.573 35.9375 163.557 35.9479 163.547 35.9583C135.266 58.6041 101.182 78.4427 62.2344 94.927C60.849 95.5052 59.0625 95.8229 57.2083 95.8229C54.8125 95.8229 52.5521 95.3125 51.0052 94.4166L3.17708 66.7604C3.00521 66.6614 2.84375 66.5573 2.6875 66.4479L2.68229 66.4427C1.58854 65.6666 0.927084 64.6562 0.848958 63.6041C0.765625 62.5468 1.27083 61.5208 2.27083 60.7083C30.5469 38.0677 64.6354 18.2239 103.583 1.74475C104.964 1.16663 106.75 0.848918 108.604 0.848918C111.005 0.848918 113.266 1.35933 114.818 2.25517L162.641 29.9114C164.026 30.7135 164.875 31.8593 164.969 33.0625C164.979 33.1666 164.979 33.276 164.974 33.3802C164.974 33.4375 164.969 33.4895 164.964 33.5468Z" fill="#090001"/>
</g>
</svg>
