<svg width="252" height="185" viewBox="0 0 252 185" fill="none" xmlns="http://www.w3.org/2000/svg">
<path d="M107.151 142.179C107.624 142.651 108.07 143.145 108.495 143.66C108.92 144.175 109.319 144.711 109.692 145.265C110.061 145.818 110.404 146.389 110.722 146.977C111.035 147.565 111.323 148.166 111.576 148.784C111.834 149.398 112.061 150.028 112.254 150.664C112.447 151.303 112.61 151.947 112.739 152.603C112.872 153.256 112.971 153.917 113.035 154.578C113.1 155.243 113.134 155.908 113.134 156.573C113.134 157.243 113.1 157.908 113.035 158.569C112.971 159.234 112.872 159.89 112.739 160.547C112.61 161.199 112.447 161.847 112.254 162.483C112.061 163.122 111.834 163.749 111.576 164.367C111.323 164.98 111.035 165.581 110.722 166.169C110.404 166.757 110.061 167.328 109.692 167.886C109.319 168.439 108.92 168.971 108.495 169.491C108.07 170.006 107.624 170.499 107.151 170.967C106.675 171.439 106.182 171.89 105.667 172.31C105.147 172.735 104.611 173.13 104.053 173.499C103.499 173.872 102.924 174.211 102.336 174.529C101.744 174.842 101.143 175.125 100.521 175.383C99.903 175.636 99.2765 175.859 98.637 176.057C97.9976 176.25 97.3453 176.409 96.693 176.542C96.0364 176.67 95.3755 176.769 94.7103 176.834C94.0408 176.898 93.3756 176.932 92.7061 176.932C92.0366 176.932 91.3714 176.898 90.702 176.834C90.0368 176.769 89.3759 176.67 88.7193 176.542C88.0669 176.409 87.4189 176.25 86.7752 176.057C86.1357 175.859 85.5092 175.636 84.8912 175.383C84.2732 175.125 83.6681 174.842 83.0759 174.529C82.4879 174.211 81.9129 173.872 81.3592 173.499C80.8013 173.13 80.2649 172.735 79.7456 172.31C79.2306 171.89 78.7371 171.439 78.2607 170.967C77.7887 170.499 77.3424 170.006 76.9175 169.491C76.4926 168.971 76.0935 168.439 75.7201 167.886C75.3511 167.328 75.0077 166.757 74.6902 166.169C74.3769 165.581 74.0894 164.98 73.8362 164.367C73.5787 163.749 73.3512 163.122 73.1581 162.483C72.965 161.847 72.8019 161.199 72.6731 160.547C72.5401 159.89 72.4414 159.234 72.377 158.569C72.3127 157.908 72.2783 157.243 72.2783 156.573C72.2783 155.908 72.3127 155.243 72.377 154.578C72.4414 153.917 72.5401 153.256 72.6731 152.603C72.8019 151.947 72.965 151.303 73.1581 150.664C73.3512 150.028 73.5787 149.398 73.8362 148.784C74.0894 148.166 74.3769 147.565 74.6902 146.977C75.0077 146.389 75.3511 145.818 75.7201 145.265C76.0935 144.711 76.4926 144.175 76.9175 143.66C77.3424 143.145 77.7887 142.651 78.2607 142.179C78.7371 141.707 79.2306 141.261 79.7456 140.836C80.2649 140.415 80.8013 140.016 81.3592 139.647C81.9129 139.278 82.4879 138.935 83.0759 138.622C83.6681 138.308 84.2732 138.021 84.8912 137.768C85.5092 137.51 86.1357 137.287 86.7752 137.094C87.4189 136.901 88.0669 136.738 88.7193 136.609C89.3759 136.476 90.0368 136.381 90.702 136.313C91.3714 136.248 92.0366 136.218 92.7061 136.218C93.3756 136.218 94.0408 136.248 94.7103 136.313C95.3755 136.381 96.0364 136.476 96.693 136.609C97.3453 136.738 97.9976 136.901 98.637 137.094C99.2765 137.287 99.903 137.51 100.521 137.768C101.143 138.021 101.744 138.308 102.336 138.622C102.924 138.935 103.499 139.278 104.053 139.647C104.611 140.016 105.147 140.415 105.667 140.836C106.182 141.261 106.675 141.707 107.151 142.179Z" fill="#738C7B"/>
<path d="M92.706 177.529C81.1145 177.529 71.6816 168.126 71.6816 156.573C71.6816 145.02 81.1145 135.622 92.706 135.622C104.297 135.622 113.73 145.02 113.73 156.573C113.73 168.126 104.297 177.529 92.706 177.529ZM92.706 136.815C81.7711 136.815 72.879 145.677 72.879 156.573C72.879 167.469 81.7754 176.336 92.706 176.336C103.641 176.336 112.533 167.469 112.533 156.573C112.533 145.677 103.641 136.815 92.706 136.815Z" fill="#231E18"/>
<path d="M113.134 156.573C113.134 167.817 103.988 176.932 92.7059 176.932C81.4234 176.932 72.2781 167.817 72.2781 156.573C72.2781 152.002 73.8102 147.797 76.3637 144.398C70.2783 148.453 66.3687 154.723 66.3687 161.761C66.3687 173.992 78.1576 183.906 92.7059 183.906C107.254 183.906 119.043 173.992 119.043 161.761C119.043 154.723 115.134 148.453 109.048 144.398C111.602 147.797 113.134 152.002 113.134 156.573Z" fill="#BD9173"/>
<path d="M92.7061 184.502C85.5307 184.502 78.7801 182.151 73.6946 177.876C68.5833 173.576 65.7681 167.856 65.7681 161.762C65.7681 154.758 69.5103 148.247 76.0335 143.904C76.2738 143.741 76.5957 143.776 76.7974 143.986C76.9991 144.2 77.0162 144.522 76.8446 144.754C74.2482 148.209 72.8792 152.294 72.8792 156.573C72.8792 167.469 81.7713 176.336 92.7061 176.336C103.641 176.336 112.533 167.469 112.533 156.573C112.533 152.294 111.164 148.209 108.568 144.754C108.396 144.522 108.413 144.2 108.615 143.986C108.817 143.776 109.139 143.741 109.379 143.904C115.902 148.247 119.644 154.758 119.644 161.762C119.644 167.856 116.829 173.576 111.718 177.876C106.632 182.151 99.8816 184.502 92.7061 184.502ZM74.0722 146.9C69.5189 150.887 66.9654 156.161 66.9654 161.762C66.9654 173.645 78.514 183.309 92.7061 183.309C106.898 183.309 118.447 173.645 118.447 161.762C118.447 156.161 115.893 150.887 111.34 146.9C112.911 149.878 113.73 153.166 113.73 156.573C113.73 168.126 104.298 177.529 92.7061 177.529C81.1147 177.529 71.6818 168.126 71.6818 156.573C71.6818 153.17 72.5015 149.878 74.0722 146.9Z" fill="#231E18"/>
<path d="M42.4651 78.0976C42.9414 78.5696 43.3877 79.0632 43.8126 79.5782C44.2375 80.0931 44.6366 80.6296 45.0057 81.1832C45.379 81.7368 45.7224 82.3076 46.0399 82.8955C46.3532 83.4835 46.6407 84.0886 46.8939 84.7023C47.1514 85.3202 47.3746 85.9468 47.572 86.5863C47.7651 87.2214 47.9282 87.8694 48.057 88.5217C48.19 89.1741 48.2844 89.835 48.3531 90.5002C48.4174 91.1611 48.4518 91.8262 48.4518 92.4957C48.4518 93.1609 48.4174 93.8261 48.3531 94.487C48.2844 95.1522 48.19 95.8131 48.057 96.4654C47.9282 97.1177 47.7651 97.7658 47.572 98.4052C47.3746 99.0403 47.1514 99.6669 46.8939 100.285C46.6407 100.899 46.3532 101.504 46.0399 102.092C45.7224 102.68 45.379 103.25 45.0057 103.804C44.6366 104.358 44.2375 104.894 43.8126 105.409C43.3877 105.924 42.9414 106.418 42.4694 106.89C41.993 107.362 41.4995 107.808 40.9802 108.229C40.4652 108.653 39.9288 109.048 39.3709 109.422C38.8172 109.791 38.2422 110.134 37.6542 110.447C37.062 110.761 36.4569 111.048 35.8389 111.301C35.2209 111.555 34.5944 111.782 33.9549 111.975C33.3112 112.168 32.6632 112.331 32.0065 112.46C31.3542 112.589 30.6933 112.687 30.0238 112.752C29.3587 112.821 28.6935 112.851 28.024 112.851C27.3545 112.851 26.685 112.821 26.0198 112.752C25.3546 112.687 24.6937 112.589 24.0371 112.46C23.3805 112.331 22.7325 112.168 22.0931 111.975C21.4536 111.782 20.8228 111.555 20.2048 111.301C19.5868 111.048 18.986 110.761 18.3937 110.447C17.8058 110.134 17.2307 109.791 16.6728 109.422C16.1192 109.048 15.5828 108.653 15.0635 108.229C14.5485 107.808 14.0507 107.362 13.5786 106.89C13.1065 106.418 12.6559 105.924 12.2354 105.409C11.8105 104.894 11.4114 104.358 11.038 103.804C10.6689 103.25 10.3256 102.68 10.008 102.092C9.69476 101.504 9.40723 100.899 9.14973 100.285C8.89653 99.6669 8.66908 99.0403 8.47596 98.4052C8.28284 97.7658 8.11976 97.1177 7.99101 96.4654C7.85798 95.8131 7.75927 95.1522 7.6949 94.487C7.63052 93.8261 7.59619 93.1609 7.59619 92.4957C7.59619 91.8262 7.63052 91.1611 7.6949 90.5002C7.75927 89.835 7.85798 89.1741 7.99101 88.5217C8.11976 87.8694 8.28284 87.2214 8.47596 86.5863C8.66908 85.9468 8.89653 85.3202 9.14973 84.7023C9.40723 84.0886 9.69476 83.4835 10.008 82.8955C10.3256 82.3076 10.6689 81.7368 11.038 81.1832C11.4114 80.6296 11.8105 80.0931 12.2354 79.5782C12.6559 79.0632 13.1065 78.5696 13.5786 78.0976C14.0507 77.6255 14.5485 77.1792 15.0635 76.7586C15.5828 76.3337 16.1192 75.9389 16.6728 75.5655C17.2307 75.1965 17.8058 74.8531 18.3937 74.5399C18.986 74.2266 19.5868 73.939 20.2048 73.6858C20.8228 73.4326 21.4536 73.2052 22.0931 73.0121C22.7325 72.819 23.3805 72.6559 24.0371 72.5271C24.6937 72.3984 25.3546 72.2997 26.0198 72.2353C26.685 72.1709 27.3545 72.1366 28.024 72.1366C28.6935 72.1366 29.3587 72.1709 30.0238 72.2353C30.6933 72.2997 31.3542 72.3984 32.0065 72.5271C32.6632 72.6559 33.3112 72.819 33.9549 73.0121C34.5944 73.2052 35.2209 73.4326 35.8389 73.6858C36.4569 73.939 37.062 74.2266 37.6542 74.5399C38.2422 74.8531 38.8172 75.1965 39.3709 75.5655C39.9288 75.9389 40.4652 76.3337 40.9802 76.7586C41.4995 77.1792 41.993 77.6255 42.4651 78.0976Z" fill="#738C7B"/>
<path d="M28.0238 113.447C16.4281 113.447 6.99951 104.049 6.99951 92.4958C6.99951 80.9387 16.4281 71.5402 28.0238 71.5402C39.6153 71.5402 49.0482 80.9387 49.0482 92.4958C49.0482 104.049 39.6153 113.447 28.0238 113.447ZM28.0238 72.7332C17.089 72.7332 8.19256 81.5953 8.19256 92.4958C8.19256 103.392 17.089 112.254 28.0238 112.254C38.9587 112.254 47.8508 103.392 47.8508 92.4958C47.8508 81.5953 38.9587 72.7332 28.0238 72.7332Z" fill="#231E18"/>
<path d="M28.024 112.851C16.7415 112.851 7.5962 103.735 7.5962 92.4958C7.5962 81.2519 16.7415 72.1367 28.024 72.1367C32.6117 72.1367 36.8303 73.6602 40.2421 76.2051C36.1694 70.1411 29.8822 66.2444 22.8183 66.2444C10.5488 66.2444 0.59668 77.9947 0.59668 92.4958C0.59668 106.993 10.5488 118.743 22.8183 118.743C29.8822 118.743 36.1694 114.846 40.2421 108.782C36.8303 111.327 32.6117 112.851 28.024 112.851Z" fill="#BD9173"/>
<path d="M22.8182 119.339C16.7027 119.339 10.9606 116.533 6.64762 111.439C2.36035 106.375 0 99.6455 0 92.4958C0 85.3418 2.36035 78.6126 6.64762 73.5486C10.9606 68.4545 16.7027 65.6478 22.8182 65.6478C29.8478 65.6478 36.3752 69.3772 40.7397 75.8746C40.8985 76.1149 40.8642 76.4411 40.6539 76.6385C40.4393 76.8402 40.1174 76.8574 39.8814 76.6857C36.4181 74.0979 32.3197 72.7332 28.0238 72.7332C17.089 72.7332 8.19258 81.5952 8.19258 92.4958C8.19258 103.392 17.089 112.254 28.0238 112.254C32.3197 112.254 36.4181 110.889 39.8814 108.302C40.1174 108.13 40.4393 108.147 40.6539 108.349C40.8642 108.546 40.8985 108.872 40.7397 109.113C36.3752 115.61 29.8478 119.339 22.8182 119.339ZM22.8182 66.8409C10.8963 66.8409 1.19305 78.3465 1.19305 92.4958C1.19305 106.641 10.8963 118.146 22.8182 118.146C28.4358 118.146 33.7273 115.602 37.7313 111.065C34.7444 112.632 31.4399 113.447 28.0238 113.447C16.4281 113.447 6.99952 104.049 6.99952 92.4958C6.99952 80.9386 16.4281 71.5401 28.0238 71.5401C31.4399 71.5401 34.7444 72.3555 37.7313 73.9219C33.7273 69.3858 28.4358 66.8409 22.8182 66.8409Z" fill="#231E18"/>
<path d="M238.422 78.0976C238.894 78.5696 239.34 79.0632 239.765 79.5782C240.19 80.0931 240.589 80.6296 240.958 81.1832C241.331 81.7368 241.674 82.3076 241.992 82.8955C242.305 83.4835 242.593 84.0886 242.846 84.7023C243.104 85.3202 243.327 85.9468 243.524 86.5863C243.717 87.2214 243.88 87.8694 244.009 88.5217C244.142 89.1741 244.237 89.835 244.305 90.5002C244.37 91.1611 244.404 91.8262 244.404 92.4957C244.404 93.1609 244.37 93.8261 244.305 94.487C244.237 95.1522 244.142 95.8131 244.009 96.4654C243.88 97.1177 243.717 97.7658 243.524 98.4052C243.327 99.0403 243.104 99.6669 242.846 100.285C242.593 100.899 242.305 101.504 241.992 102.092C241.674 102.68 241.331 103.25 240.958 103.804C240.589 104.358 240.19 104.894 239.765 105.409C239.34 105.924 238.894 106.418 238.422 106.89C237.945 107.362 237.452 107.808 236.932 108.229C236.417 108.653 235.881 109.048 235.323 109.422C234.769 109.791 234.194 110.134 233.606 110.447C233.014 110.761 232.409 111.048 231.791 111.301C231.173 111.555 230.547 111.782 229.907 111.975C229.263 112.168 228.615 112.331 227.959 112.46C227.306 112.589 226.645 112.687 225.976 112.752C225.311 112.816 224.646 112.851 223.976 112.851C223.307 112.851 222.637 112.816 221.972 112.752C221.307 112.687 220.646 112.589 219.989 112.46C219.333 112.331 218.685 112.168 218.045 111.975C217.406 111.782 216.775 111.555 216.157 111.301C215.539 111.048 214.938 110.761 214.346 110.447C213.758 110.134 213.183 109.791 212.625 109.422C212.071 109.048 211.535 108.653 211.016 108.229C210.501 107.808 210.003 107.362 209.531 106.89C209.059 106.418 208.608 105.924 208.188 105.409C207.763 104.894 207.364 104.358 206.99 103.804C206.621 103.25 206.278 102.68 205.96 102.092C205.647 101.504 205.359 100.899 205.102 100.285C204.849 99.6669 204.621 99.0403 204.428 98.4009C204.235 97.7658 204.072 97.1177 203.943 96.4654C203.81 95.8131 203.711 95.1522 203.647 94.487C203.583 93.8261 203.548 93.1609 203.548 92.4957C203.548 91.8262 203.583 91.1611 203.647 90.5002C203.711 89.835 203.81 89.1741 203.943 88.5217C204.072 87.8694 204.235 87.2214 204.428 86.5863C204.621 85.9468 204.849 85.3202 205.102 84.7023C205.359 84.0886 205.647 83.4835 205.96 82.8955C206.278 82.3076 206.621 81.7368 206.99 81.1832C207.364 80.6296 207.763 80.0931 208.188 79.5782C208.608 79.0632 209.059 78.5696 209.531 78.0976C210.003 77.6255 210.501 77.1792 211.016 76.7586C211.535 76.3337 212.071 75.9389 212.625 75.5655C213.183 75.1965 213.758 74.8531 214.346 74.5399C214.938 74.2266 215.539 73.939 216.157 73.6858C216.775 73.4326 217.406 73.2052 218.045 73.0121C218.685 72.819 219.333 72.6559 219.989 72.5271C220.646 72.3984 221.307 72.2997 221.972 72.2353C222.637 72.1709 223.307 72.1366 223.976 72.1366C224.646 72.1366 225.311 72.1709 225.976 72.2353C226.645 72.2997 227.306 72.3984 227.959 72.5271C228.615 72.6559 229.263 72.819 229.907 73.0121C230.547 73.2052 231.173 73.4326 231.791 73.6858C232.409 73.939 233.014 74.2266 233.606 74.5399C234.194 74.8531 234.769 75.1965 235.323 75.5655C235.881 75.9389 236.417 76.3337 236.932 76.7586C237.452 77.1792 237.945 77.6255 238.422 78.0976Z" fill="#738C7B"/>
<path d="M223.976 113.447C212.38 113.447 202.952 104.049 202.952 92.4958C202.952 80.9387 212.38 71.5402 223.976 71.5402C235.567 71.5402 245 80.9387 245 92.4958C245 104.049 235.567 113.447 223.976 113.447ZM223.976 72.7332C213.041 72.7332 204.145 81.5953 204.145 92.4958C204.145 103.392 213.041 112.254 223.976 112.254C234.907 112.254 243.803 103.392 243.803 92.4958C243.803 81.5953 234.907 72.7332 223.976 72.7332Z" fill="#231E18"/>
<path d="M223.976 72.1367C235.258 72.1367 244.404 81.2519 244.404 92.4958C244.404 103.735 235.258 112.851 223.976 112.851C219.388 112.851 215.165 111.327 211.758 108.782C215.826 114.846 222.118 118.743 229.177 118.743C241.451 118.743 251.403 106.993 251.403 92.4958C251.403 77.9947 241.451 66.2444 229.177 66.2444C222.118 66.2444 215.826 70.1411 211.758 76.2051C215.165 73.6602 219.388 72.1367 223.976 72.1367Z" fill="#BD9173"/>
<path d="M229.177 119.339C222.152 119.339 215.62 115.61 211.26 109.113C211.097 108.872 211.136 108.546 211.346 108.349C211.556 108.147 211.882 108.13 212.114 108.302C215.582 110.889 219.68 112.254 223.976 112.254C234.907 112.254 243.803 103.392 243.803 92.4958C243.803 81.5952 234.907 72.7332 223.976 72.7332C219.68 72.7332 215.582 74.0979 212.114 76.6857C211.882 76.8574 211.556 76.8402 211.346 76.6385C211.136 76.4411 211.097 76.1192 211.26 75.8746C215.62 69.3772 222.152 65.6478 229.177 65.6478C235.293 65.6478 241.035 68.4545 245.348 73.5486C249.64 78.6126 252 85.3418 252 92.4958C252 99.6455 249.64 106.375 245.348 111.439C241.035 116.533 235.293 119.339 229.177 119.339ZM214.269 111.065C218.268 115.602 223.56 118.146 229.177 118.146C241.104 118.146 250.803 106.641 250.803 92.4958C250.803 78.3465 241.104 66.8409 229.177 66.8409C223.56 66.8409 218.268 69.3858 214.269 73.9219C217.255 72.3555 220.556 71.5401 223.976 71.5401C235.568 71.5401 245 80.9386 245 92.4958C245 104.049 235.568 113.447 223.976 113.447C220.556 113.447 217.255 112.632 214.269 111.065Z" fill="#231E18"/>
<path d="M170.641 142.179C171.113 142.651 171.559 143.145 171.984 143.66C172.409 144.175 172.808 144.711 173.181 145.265C173.55 145.818 173.894 146.389 174.211 146.977C174.525 147.565 174.812 148.166 175.065 148.784C175.323 149.398 175.55 150.028 175.743 150.664C175.937 151.303 176.1 151.947 176.228 152.603C176.361 153.256 176.46 153.917 176.524 154.578C176.589 155.243 176.623 155.908 176.623 156.573C176.623 157.243 176.589 157.908 176.524 158.569C176.46 159.234 176.361 159.89 176.228 160.547C176.1 161.199 175.937 161.847 175.743 162.483C175.55 163.122 175.323 163.749 175.065 164.362C174.812 164.98 174.525 165.581 174.211 166.169C173.894 166.757 173.55 167.328 173.181 167.886C172.808 168.439 172.409 168.971 171.984 169.491C171.559 170.006 171.113 170.499 170.641 170.967C170.164 171.439 169.671 171.885 169.156 172.31C168.637 172.735 168.1 173.13 167.542 173.499C166.989 173.872 166.414 174.211 165.826 174.529C165.233 174.842 164.633 175.125 164.015 175.383C163.392 175.636 162.766 175.859 162.126 176.057C161.487 176.25 160.839 176.409 160.182 176.542C159.526 176.67 158.865 176.769 158.2 176.834C157.53 176.898 156.865 176.932 156.195 176.932C155.526 176.932 154.861 176.898 154.196 176.834C153.526 176.769 152.865 176.67 152.209 176.542C151.556 176.409 150.908 176.25 150.264 176.057C149.625 175.859 148.998 175.636 148.38 175.383C147.762 175.125 147.157 174.842 146.565 174.529C145.977 174.211 145.402 173.872 144.849 173.499C144.291 173.13 143.754 172.735 143.235 172.31C142.72 171.885 142.226 171.439 141.75 170.967C141.278 170.499 140.832 170.006 140.407 169.491C139.982 168.971 139.583 168.439 139.209 167.886C138.84 167.328 138.497 166.757 138.179 166.169C137.866 165.581 137.579 164.98 137.325 164.367C137.068 163.749 136.845 163.122 136.647 162.483C136.454 161.847 136.291 161.199 136.162 160.547C136.029 159.89 135.931 159.234 135.866 158.569C135.802 157.908 135.768 157.243 135.768 156.573C135.768 155.908 135.802 155.243 135.866 154.578C135.931 153.917 136.029 153.256 136.162 152.603C136.291 151.947 136.454 151.303 136.647 150.664C136.845 150.028 137.068 149.398 137.325 148.784C137.579 148.166 137.866 147.565 138.179 146.977C138.497 146.389 138.84 145.818 139.209 145.265C139.583 144.711 139.982 144.175 140.407 143.66C140.832 143.145 141.278 142.651 141.75 142.179C142.226 141.707 142.72 141.261 143.235 140.836C143.754 140.415 144.291 140.016 144.849 139.647C145.402 139.278 145.977 138.935 146.565 138.622C147.157 138.308 147.762 138.021 148.38 137.768C148.998 137.51 149.625 137.287 150.264 137.094C150.908 136.901 151.556 136.738 152.209 136.609C152.865 136.476 153.526 136.381 154.196 136.313C154.861 136.248 155.526 136.218 156.195 136.218C156.865 136.218 157.53 136.248 158.2 136.313C158.865 136.381 159.526 136.476 160.182 136.609C160.839 136.738 161.487 136.901 162.126 137.094C162.766 137.287 163.397 137.51 164.015 137.768C164.633 138.021 165.233 138.308 165.826 138.622C166.414 138.935 166.989 139.278 167.542 139.647C168.1 140.016 168.637 140.415 169.156 140.836C169.671 141.261 170.164 141.707 170.641 142.179Z" fill="#738C7B"/>
<path d="M156.195 177.529C144.604 177.529 135.171 168.126 135.171 156.573C135.171 145.02 144.604 135.622 156.195 135.622C167.787 135.622 177.22 145.02 177.22 156.573C177.22 168.126 167.787 177.529 156.195 177.529ZM156.195 136.815C145.26 136.815 136.368 145.677 136.368 156.573C136.368 167.469 145.26 176.336 156.195 176.336C167.13 176.336 176.022 167.469 176.022 156.573C176.022 145.677 167.13 136.815 156.195 136.815Z" fill="#231E18"/>
<path d="M176.623 156.573C176.623 167.817 167.478 176.932 156.196 176.932C144.913 176.932 135.768 167.817 135.768 156.573C135.768 152.002 137.3 147.797 139.853 144.398C133.768 148.453 129.858 154.723 129.858 161.761C129.858 173.992 141.647 183.906 156.196 183.906C170.744 183.906 182.533 173.992 182.533 161.761C182.533 154.723 178.623 148.453 172.538 144.398C175.091 147.797 176.623 152.002 176.623 156.573Z" fill="#BD9173"/>
<path d="M156.195 184.502C149.02 184.502 142.269 182.151 137.184 177.876C132.073 173.576 129.257 167.856 129.257 161.762C129.257 154.758 133 148.247 139.523 143.904C139.763 143.741 140.085 143.776 140.287 143.986C140.488 144.2 140.505 144.522 140.334 144.754C137.737 148.209 136.368 152.294 136.368 156.573C136.368 167.469 145.261 176.336 156.195 176.336C167.13 176.336 176.022 167.469 176.022 156.573C176.022 152.294 174.653 148.209 172.057 144.754C171.885 144.522 171.902 144.2 172.104 143.986C172.306 143.776 172.628 143.741 172.868 143.904C179.391 148.247 183.133 154.758 183.133 161.762C183.133 167.856 180.318 173.576 175.207 177.876C170.121 182.151 163.371 184.502 156.195 184.502ZM137.561 146.9C133.008 150.887 130.455 156.161 130.455 161.762C130.455 173.645 142.003 183.309 156.195 183.309C170.388 183.309 181.936 173.645 181.936 161.762C181.936 156.161 179.383 150.887 174.829 146.9C176.4 149.878 177.22 153.166 177.22 156.573C177.22 168.126 167.787 177.529 156.195 177.529C144.604 177.529 135.171 168.126 135.171 156.573C135.171 153.17 135.991 149.878 137.561 146.9Z" fill="#231E18"/>
<path d="M107.151 13.5356C107.624 14.0076 108.07 14.5012 108.495 15.0162C108.92 15.5311 109.319 16.0676 109.692 16.6212C110.061 17.1748 110.404 17.7456 110.722 18.3335C111.035 18.9215 111.323 19.5223 111.576 20.1403C111.834 20.754 112.061 21.3805 112.254 22.02C112.447 22.6594 112.61 23.3031 112.739 23.9598C112.872 24.6121 112.971 25.273 113.035 25.9339C113.1 26.5991 113.134 27.2643 113.134 27.9294C113.134 28.5946 113.1 29.2598 113.035 29.925C112.971 30.5902 112.872 31.2468 112.739 31.9034C112.61 32.5557 112.447 33.1995 112.254 33.8389C112.061 34.4784 111.834 35.1049 111.576 35.7186C111.323 36.3366 111.035 36.9374 110.722 37.5254C110.404 38.1133 110.061 38.6841 109.692 39.2377C109.319 39.7956 108.92 40.3277 108.495 40.8427C108.07 41.3577 107.624 41.8512 107.151 42.3233C106.675 42.7954 106.182 43.2417 105.667 43.6666C105.147 44.0871 104.611 44.4863 104.053 44.8553C103.499 45.2287 102.924 45.5677 102.336 45.8853C101.744 46.1986 101.139 46.4818 100.521 46.7393C99.903 46.9925 99.2765 47.2157 98.637 47.4088C97.9933 47.6019 97.3453 47.765 96.693 47.898C96.0364 48.0268 95.3755 48.1255 94.7103 48.1899C94.0408 48.2542 93.3756 48.2886 92.7061 48.2886C92.0366 48.2886 91.3714 48.2542 90.702 48.1899C90.0368 48.1255 89.3759 48.0268 88.7193 47.898C88.0669 47.765 87.4146 47.6019 86.7752 47.4088C86.1357 47.2157 85.5092 46.9925 84.8912 46.7393C84.2689 46.4818 83.6681 46.1986 83.0759 45.8853C82.4879 45.5677 81.9129 45.2287 81.3592 44.8553C80.8013 44.4863 80.2649 44.0871 79.7456 43.6666C79.2306 43.2417 78.7371 42.7954 78.2607 42.3233C77.7887 41.8512 77.3424 41.3577 76.9175 40.8427C76.4926 40.3277 76.0935 39.7956 75.7201 39.2377C75.3511 38.6841 75.0077 38.1133 74.6902 37.5254C74.3769 36.9374 74.0894 36.3366 73.8362 35.7186C73.5787 35.1049 73.3512 34.4784 73.1581 33.8389C72.965 33.1995 72.8019 32.5557 72.6731 31.8991C72.5401 31.2468 72.4414 30.5902 72.377 29.925C72.3127 29.2598 72.2783 28.5946 72.2783 27.9294C72.2783 27.2643 72.3127 26.5991 72.377 25.9339C72.4414 25.273 72.5401 24.6121 72.6731 23.9598C72.8019 23.3031 72.965 22.6594 73.1581 22.02C73.3512 21.3805 73.5787 20.754 73.8362 20.1403C74.0894 19.5223 74.3769 18.9215 74.6902 18.3335C75.0077 17.7456 75.3511 17.1748 75.7201 16.6212C76.0935 16.0676 76.4926 15.5311 76.9175 15.0162C77.3424 14.5012 77.7887 14.0076 78.2607 13.5356C78.7371 13.0635 79.2306 12.6172 79.7456 12.1923C80.2649 11.7717 80.8013 11.3726 81.3592 11.0036C81.9129 10.6345 82.4879 10.2912 83.0759 9.97787C83.6681 9.6603 84.2689 9.37706 84.8912 9.12385C85.5092 8.86636 86.1357 8.6432 86.7752 8.45008C87.4146 8.25696 88.0669 8.09388 88.7193 7.96514C89.3759 7.8321 90.0368 7.73768 90.702 7.66902C91.3714 7.60465 92.0366 7.57031 92.7061 7.57031C93.3756 7.57031 94.0408 7.60465 94.7103 7.66902C95.3755 7.73768 96.0364 7.8321 96.693 7.96514C97.3453 8.09388 97.9933 8.25696 98.637 8.45008C99.2765 8.6432 99.903 8.86636 100.521 9.12385C101.139 9.37706 101.744 9.6603 102.336 9.97787C102.924 10.2912 103.499 10.6345 104.053 11.0036C104.611 11.3726 105.147 11.7717 105.667 12.1923C106.182 12.6172 106.675 13.0635 107.151 13.5356Z" fill="#738C7B"/>
<path d="M92.706 48.885C81.1145 48.885 71.6816 39.4823 71.6816 27.9294C71.6816 16.3765 81.1145 6.97803 92.706 6.97803C104.297 6.97803 113.73 16.3765 113.73 27.9294C113.73 39.4823 104.297 48.885 92.706 48.885ZM92.706 8.16679C81.7711 8.16679 72.879 17.0331 72.879 27.9294C72.879 38.8256 81.7711 47.692 92.706 47.692C103.641 47.692 112.533 38.8256 112.533 27.9294C112.533 17.0331 103.637 8.17108 92.706 8.16679Z" fill="#231E18"/>
<path d="M113.134 27.9293C113.134 16.6855 103.988 7.5745 92.7059 7.5745C81.4234 7.5745 72.2781 16.6855 72.2781 27.9293C72.2781 32.4998 73.8102 36.7056 76.3637 40.1045C70.2783 36.049 66.3687 29.7833 66.3687 22.7451C66.3687 10.5142 78.1576 0.596436 92.7059 0.596436C107.254 0.596436 119.043 10.5142 119.043 22.7451C119.043 29.7833 115.134 36.049 109.048 40.1045C111.602 36.7056 113.134 32.4998 113.134 27.9293Z" fill="#BD9173"/>
<path d="M109.048 40.7011C108.89 40.7011 108.731 40.6367 108.615 40.5166C108.413 40.3063 108.396 39.9801 108.568 39.7484C111.164 36.298 112.533 32.2081 112.533 27.9294C112.533 17.0332 103.641 8.16683 92.7061 8.16683C81.7713 8.16683 72.8792 17.0332 72.8792 27.9294C72.8792 32.2081 74.2482 36.298 76.8446 39.7484C77.0162 39.9801 76.9991 40.3063 76.7974 40.5166C76.5957 40.7268 76.2738 40.7612 76.0335 40.6024C69.5103 36.255 65.7681 29.7448 65.7681 22.7452C65.7681 16.6512 68.5833 10.9263 73.6946 6.62616C78.7801 2.35606 85.5307 0 92.7061 0C99.8816 0 106.632 2.35606 111.718 6.62616C116.829 10.9263 119.644 16.6512 119.644 22.7452C119.644 29.7448 115.902 36.255 109.379 40.6024C109.28 40.6711 109.164 40.7011 109.048 40.7011ZM92.7061 6.97807C104.298 6.97807 113.73 16.3766 113.73 27.9294C113.73 31.3369 112.911 34.6243 111.34 37.6026C115.893 33.6157 118.447 28.3414 118.447 22.7452C118.447 10.8619 106.898 1.19305 92.7061 1.19305C78.514 1.19305 66.9654 10.8619 66.9654 22.7452C66.9654 28.3414 69.5189 33.6157 74.0722 37.6026C72.5015 34.6285 71.6818 31.3369 71.6818 27.9294C71.6818 16.3766 81.1147 6.97807 92.7061 6.97807Z" fill="#231E18"/>
<path d="M170.641 13.5356C171.113 14.0076 171.559 14.5012 171.984 15.0162C172.409 15.5311 172.808 16.0676 173.181 16.6212C173.55 17.1748 173.894 17.7456 174.211 18.3335C174.525 18.9215 174.812 19.5223 175.065 20.1403C175.323 20.754 175.55 21.3805 175.743 22.02C175.937 22.6594 176.1 23.3031 176.228 23.9598C176.361 24.6121 176.46 25.273 176.524 25.9339C176.589 26.5991 176.623 27.2643 176.623 27.9294C176.623 28.5946 176.589 29.2598 176.524 29.925C176.46 30.5902 176.361 31.2468 176.228 31.9034C176.1 32.5557 175.937 33.1995 175.743 33.8389C175.55 34.4784 175.323 35.1049 175.065 35.7186C174.812 36.3366 174.525 36.9374 174.211 37.5254C173.894 38.1133 173.55 38.6841 173.181 39.2377C172.808 39.7956 172.409 40.3277 171.984 40.8427C171.559 41.3577 171.113 41.8512 170.641 42.3233C170.164 42.7954 169.671 43.2417 169.156 43.6666C168.637 44.0871 168.1 44.4863 167.542 44.8553C166.989 45.2287 166.414 45.5677 165.826 45.8853C165.233 46.1986 164.633 46.4818 164.015 46.7393C163.392 46.9925 162.766 47.2157 162.126 47.4088C161.487 47.6062 160.839 47.765 160.182 47.898C159.526 48.0268 158.865 48.1255 158.2 48.1899C157.53 48.2542 156.865 48.2886 156.195 48.2886C155.526 48.2886 154.861 48.2542 154.196 48.1899C153.526 48.1255 152.865 48.0268 152.209 47.898C151.556 47.765 150.908 47.6062 150.264 47.4088C149.625 47.2157 148.998 46.9925 148.38 46.7393C147.762 46.4818 147.157 46.1986 146.565 45.8853C145.977 45.5677 145.402 45.2287 144.849 44.8553C144.291 44.4863 143.754 44.0871 143.235 43.6666C142.72 43.2417 142.226 42.7954 141.75 42.3233C141.278 41.8512 140.832 41.3577 140.407 40.8427C139.982 40.3277 139.583 39.7956 139.209 39.2377C138.84 38.6841 138.497 38.1133 138.179 37.5254C137.866 36.9374 137.579 36.3366 137.325 35.7186C137.068 35.1049 136.84 34.4784 136.647 33.8389C136.454 33.1995 136.291 32.5557 136.162 31.9034C136.029 31.2468 135.931 30.5902 135.866 29.925C135.802 29.2598 135.768 28.5946 135.768 27.9294C135.768 27.2643 135.802 26.5991 135.866 25.9339C135.931 25.273 136.029 24.6121 136.162 23.9598C136.291 23.3031 136.454 22.6594 136.647 22.02C136.84 21.3805 137.068 20.754 137.325 20.1403C137.579 19.5223 137.866 18.9215 138.179 18.3335C138.497 17.7456 138.84 17.1748 139.209 16.6212C139.583 16.0676 139.982 15.5311 140.407 15.0162C140.832 14.5012 141.278 14.0076 141.75 13.5356C142.226 13.0635 142.72 12.6172 143.235 12.1923C143.754 11.7717 144.291 11.3726 144.849 11.0036C145.402 10.6345 145.977 10.2912 146.565 9.97787C147.157 9.6603 147.762 9.37706 148.38 9.12385C148.998 8.86636 149.625 8.6432 150.264 8.45008C150.908 8.25696 151.556 8.09388 152.209 7.96514C152.865 7.8321 153.526 7.73768 154.196 7.66902C154.861 7.60465 155.526 7.57031 156.195 7.57031C156.865 7.57031 157.53 7.60465 158.2 7.66902C158.865 7.73768 159.526 7.8321 160.182 7.96514C160.839 8.09388 161.487 8.25696 162.126 8.45008C162.766 8.6432 163.392 8.86636 164.015 9.12385C164.633 9.37706 165.233 9.6603 165.826 9.97787C166.414 10.2912 166.989 10.6345 167.542 11.0036C168.1 11.3726 168.637 11.7717 169.156 12.1923C169.671 12.6172 170.164 13.0635 170.641 13.5356Z" fill="#738C7B"/>
<path d="M156.195 48.885C144.604 48.885 135.171 39.4823 135.171 27.9294C135.171 16.3765 144.604 6.97803 156.195 6.97803C167.787 6.97803 177.22 16.3765 177.22 27.9294C177.22 39.4823 167.787 48.885 156.195 48.885ZM156.195 8.16679C145.26 8.16679 136.368 17.0331 136.368 27.9294C136.368 38.8256 145.26 47.692 156.195 47.692C167.13 47.692 176.022 38.8256 176.022 27.9294C176.022 17.0331 167.13 8.16679 156.195 8.16679Z" fill="#231E18"/>
<path d="M176.623 27.9293C176.623 16.6855 167.478 7.5745 156.196 7.5745C144.913 7.5745 135.768 16.6855 135.768 27.9293C135.768 32.4998 137.3 36.7056 139.853 40.1045C133.768 36.049 129.858 29.7833 129.858 22.7451C129.858 10.5142 141.647 0.596436 156.196 0.596436C170.744 0.596436 182.533 10.5142 182.533 22.7451C182.533 29.7833 178.623 36.049 172.538 40.1045C175.091 36.7056 176.623 32.4998 176.623 27.9293Z" fill="#BD9173"/>
<path d="M172.538 40.7011C172.379 40.7011 172.22 40.6367 172.104 40.5166C171.902 40.3063 171.885 39.9801 172.057 39.7484C174.653 36.298 176.022 32.2081 176.022 27.9294C176.022 17.0332 167.13 8.16683 156.195 8.16683C145.261 8.16683 136.368 17.0332 136.368 27.9294C136.368 32.2081 137.737 36.298 140.334 39.7484C140.505 39.9801 140.488 40.3063 140.287 40.5166C140.085 40.7268 139.763 40.7612 139.523 40.6024C133 36.255 129.257 29.7448 129.257 22.7452C129.257 16.6512 132.073 10.9263 137.184 6.62616C142.269 2.35606 149.02 0 156.195 0C163.371 0 170.121 2.35606 175.207 6.62616C180.318 10.9263 183.133 16.6512 183.133 22.7452C183.133 29.7448 179.391 36.255 172.868 40.6024C172.769 40.6711 172.654 40.7011 172.538 40.7011ZM156.195 6.97807C167.787 6.97807 177.22 16.3766 177.22 27.9294C177.22 31.3369 176.4 34.6243 174.829 37.6026C179.383 33.6157 181.936 28.3414 181.936 22.7452C181.936 10.8619 170.388 1.19305 156.195 1.19305C142.003 1.19305 130.455 10.8619 130.455 22.7452C130.455 28.3414 133.008 33.6157 137.561 37.6026C135.991 34.6243 135.171 31.3369 135.171 27.9294C135.171 16.3766 144.604 6.97807 156.195 6.97807Z" fill="#231E18"/>
<path d="M226.105 92.4958C226.105 138.39 209.106 155.333 163.054 155.333H88.947C42.8944 155.333 25.8955 138.39 25.8955 92.4958C25.8955 46.5976 42.8944 29.6545 88.947 29.6545H163.054C209.106 29.6545 226.105 46.5976 226.105 92.4958Z" fill="#BD9173"/>
<path d="M163.053 155.929H88.9468C42.5465 155.929 25.2944 138.737 25.2944 92.4958C25.2944 46.2544 42.5465 29.0581 88.9468 29.0581H163.053C209.454 29.0581 226.701 46.2544 226.701 92.4958C226.701 138.737 209.454 155.929 163.053 155.929ZM88.9468 30.2512C65.5492 30.2512 50.1812 34.7101 40.5724 44.2845C30.9679 53.859 26.4918 69.1798 26.4918 92.4958C26.4918 115.812 30.9679 131.128 40.5724 140.703C50.1812 150.277 65.5492 154.736 88.9468 154.736H163.053C186.447 154.736 201.819 150.277 211.428 140.703C221.032 131.128 225.508 115.812 225.508 92.4958C225.508 69.1755 221.032 53.859 211.428 44.2845C201.819 34.7101 186.447 30.2512 163.053 30.2512H88.9468Z" fill="#231E18"/>
</svg>
