<svg width="68" height="21" viewBox="0 0 68 21" fill="none" xmlns="http://www.w3.org/2000/svg">
<path d="M4.44336 19.2028H62.4329V8.45801H4.44336V19.2028Z" fill="#78AAC9"/>
<path d="M4.44336 8.69238H62.4329V8.45801H4.44336V8.69238Z" fill="#5F859F"/>
<path d="M59.0833 12.8594H52.224V11.6302H59.0833V12.8594ZM45.9635 12.8594H36.2969C36.8594 12.5417 37.3646 12.1198 37.7813 11.6302H45.9635V12.8594ZM30.8385 12.8594H19.4479V11.6302H29.349C29.7708 12.1198 30.2708 12.5417 30.8385 12.8594ZM13.1823 12.8594H8.28125V11.6302H13.1823V12.8594ZM59.0833 10.2344H52.224V9H59.0833V10.2344ZM45.9635 10.2344H38.651C38.8177 9.84375 38.9427 9.43229 39.0208 9H45.9635V10.2344ZM28.4844 10.2344H19.4479V9H28.1146C28.1927 9.43229 28.3177 9.84375 28.4844 10.2344ZM13.1823 10.2344H8.28125V9H13.1823V10.2344Z" fill="#89B9D2"/>
<path d="M59.0833 11.6302H52.224V10.2344H59.0833V11.6302ZM45.9635 11.6302H37.7813C38.1354 11.2135 38.4271 10.7448 38.651 10.2344H45.9635V11.6302ZM29.349 11.6302H19.4479V10.2344H28.4844C28.7031 10.7448 29 11.2135 29.349 11.6302ZM13.1823 11.6302H8.28125V10.2344H13.1823V11.6302Z" fill="#B0D6E7"/>
<path d="M59.0833 18.4528H52.224V15.4736H59.0833V18.4528ZM45.9635 18.4528H19.4479V15.4736H45.9635V18.4528ZM13.1823 18.4528H8.28125V15.4736H13.1823V18.4528Z" fill="#699ABC"/>
<path d="M59.0833 18.9583H52.224V18.4531H59.0833V18.9583ZM45.9635 18.9583H19.4479V18.4531H45.9635V18.9219C45.9635 18.9323 45.9635 18.9427 45.9635 18.9583ZM13.1875 18.9583H8.28125V18.4531H13.1823V18.9219C13.1823 18.9323 13.1823 18.9427 13.1875 18.9583Z" fill="#76ADD0"/>
<path d="M60.918 19.2028H52.2253V18.958H59.0846V19.1872H60.918V19.2028ZM46.0794 19.2028H19.4492V18.958H45.9648C45.9805 19.0466 46.0378 19.1195 46.0794 19.2028ZM13.3034 19.2028H6.44922V18.958V19.1872H8.28255V18.958H13.1888C13.1992 19.0466 13.2617 19.1195 13.3034 19.2028Z" fill="#B8DFEE"/>
<mask id="mask0_292_113697" style="mask-type:luminance" maskUnits="userSpaceOnUse" x="0" y="6" width="8" height="14">
<path d="M0 6.59863H7.07813V19.932H0V6.59863Z" fill="white"/>
</mask>
<g mask="url(#mask0_292_113697)">
<path d="M6.38021 19.64H0.0729167C0.03125 19.64 0 19.6087 0 19.5723V7.5931C0 7.55664 0.03125 7.52539 0.0729167 7.52539H6.38021C6.41667 7.52539 6.44792 7.55664 6.44792 7.5931V19.5723C6.44792 19.6087 6.41667 19.64 6.38021 19.64Z" fill="#567890"/>
</g>
<path d="M5.97917 19.5931C6.15104 19.4629 6.26563 19.2702 6.26563 19.041V8.33268C6.26563 8.13477 6.1875 7.95768 6.05208 7.82747C6.18229 7.83789 6.29167 7.88477 6.39063 7.95247C6.28646 7.70768 6.04687 7.53581 5.77083 7.52539C6.14583 7.53581 6.44792 7.84831 6.44792 8.22852V18.9368C6.44792 19.2389 6.25 19.4941 5.97917 19.5931Z" fill="#719FBB"/>
<mask id="mask1_292_113697" style="mask-type:luminance" maskUnits="userSpaceOnUse" x="0" y="6" width="8" height="14">
<path d="M0 6.59863H7.07813V19.932H0V6.59863Z" fill="white"/>
</mask>
<g mask="url(#mask1_292_113697)">
<path d="M0.322917 19.515C0.135417 19.3848 0 19.1816 0 18.9368V8.22852C0 7.83789 0.317709 7.52539 0.703125 7.52539C0.546874 7.52539 0.406251 7.58789 0.291667 7.67643C0.364584 7.65039 0.4375 7.62956 0.515625 7.62956C0.510417 7.65039 0.505208 7.67122 0.505208 7.69727V8.00456C0.359376 8.12956 0.270833 8.32227 0.270833 8.5306V19.2389C0.270833 19.3327 0.291666 19.4264 0.322917 19.515ZM6.05208 7.82747C6.04167 7.82747 6.02604 7.82747 6.01042 7.82747H5.96875V7.75456C6 7.77539 6.02604 7.80143 6.05208 7.82747Z" fill="#6A94B0"/>
</g>
<mask id="mask2_292_113697" style="mask-type:luminance" maskUnits="userSpaceOnUse" x="0" y="6" width="8" height="4">
<path d="M0 6.59863H7.07813V9.2653H0V6.59863Z" fill="white"/>
</mask>
<g mask="url(#mask2_292_113697)">
<path d="M6.38997 7.95247C6.29102 7.88477 6.18164 7.83789 6.05143 7.82747C6.02539 7.80143 5.99935 7.77539 5.9681 7.75456V7.69727C5.9681 7.65039 5.95247 7.60872 5.94206 7.56185C5.87956 7.54622 5.81706 7.52539 5.74414 7.52539H5.74935C5.74935 7.52539 5.74935 7.52539 5.75456 7.52539H5.75977C5.76497 7.52539 5.76497 7.52539 5.76497 7.52539C5.76497 7.52539 5.76497 7.52539 5.77018 7.52539C6.04622 7.53581 6.28581 7.70768 6.38997 7.95247ZM0.291016 7.67643C0.4056 7.58789 0.546223 7.52539 0.702474 7.52539C0.702474 7.52539 0.702474 7.52539 0.707682 7.52539C0.645182 7.52539 0.58789 7.54102 0.535807 7.55664C0.530599 7.58268 0.520182 7.60351 0.514974 7.62956C0.436849 7.62956 0.363933 7.65039 0.291016 7.67643Z" fill="#7CB0D0"/>
</g>
<path d="M5.74544 19.6406H5.66211V7.82812H5.9694V19.4688C5.9694 19.5156 5.95378 19.5573 5.94336 19.599C5.88086 19.6198 5.81315 19.6406 5.74544 19.6406Z" fill="#314453"/>
<path d="M5.9694 7.82747H5.66211V7.63477C5.77148 7.65039 5.88086 7.69206 5.9694 7.75456V7.82747Z" fill="#3D5566"/>
<path d="M5.9694 7.75456C5.88086 7.69206 5.77148 7.65039 5.66211 7.63477V7.52539H5.74544C5.81836 7.52539 5.88086 7.54622 5.94336 7.56185C5.95378 7.60872 5.9694 7.65039 5.9694 7.69727V7.75456Z" fill="#486479"/>
<path d="M0.792318 19.6403H0.708984C0.646484 19.6403 0.589192 19.6195 0.537109 19.609C0.526693 19.5622 0.505859 19.5205 0.505859 19.4684V8.00488C0.589193 7.93197 0.682943 7.87988 0.792318 7.84863V19.6403Z" fill="#6A8EA3"/>
<path d="M0.505859 8.00488V7.69759C0.505859 7.67155 0.511068 7.65071 0.516276 7.62988C0.521484 7.62988 0.521483 7.62988 0.526693 7.62988H0.792318V7.84863C0.682943 7.87988 0.589193 7.93197 0.505859 8.00488Z" fill="#7AA7BF"/>
<path d="M0.515625 7.62956C0.520833 7.60351 0.53125 7.58268 0.536458 7.55664C0.588541 7.54102 0.645833 7.52539 0.708333 7.52539H0.791667V7.62956H0.526042C0.520832 7.62956 0.520833 7.62956 0.515625 7.62956Z" fill="#8ABED8"/>
<mask id="mask3_292_113697" style="mask-type:luminance" maskUnits="userSpaceOnUse" x="0" y="6" width="6" height="15">
<path d="M0.75 6.92676H5.69271V20.1038H0.75V6.92676Z" fill="white"/>
</mask>
<g mask="url(#mask3_292_113697)">
<path d="M5.5931 20.1035H0.853516C0.817058 20.1035 0.791016 20.0775 0.791016 20.041V7.11914C0.791016 7.08789 0.817058 7.05664 0.853516 7.05664H5.5931C5.62956 7.05664 5.66081 7.08789 5.66081 7.11914V20.041C5.66081 20.0775 5.62956 20.1035 5.5931 20.1035Z" fill="#3F586A"/>
<path d="M5.0306 20.1035C5.20247 20.1035 5.34831 20.0358 5.45768 19.9212C5.47331 19.9108 5.48373 19.8952 5.49935 19.8796H5.49414C5.55664 19.8066 5.60352 19.7181 5.62956 19.6243H1.10872V18.39H3.68685C4.03581 18.39 4.32227 18.1035 4.32227 17.7546V7.52539H5.3431C5.45247 7.52539 5.55143 7.55664 5.63997 7.60872C5.59831 7.30143 5.34831 7.06185 5.0306 7.05664C5.37956 7.06185 5.66081 7.34831 5.66081 7.69727V19.4681C5.66081 19.8171 5.37956 20.1035 5.0306 20.1035ZM1.41602 20.1035C1.07227 20.1035 0.791016 19.8223 0.791016 19.4733C0.791016 19.64 0.858724 19.791 0.968099 19.9056C0.978515 19.9108 0.983724 19.916 0.988932 19.9264C1.09831 20.0358 1.24935 20.1035 1.41602 20.1035Z" fill="#374D5D"/>
</g>
<path d="M1.11068 18.39H0.792969V7.69727C0.792969 7.3431 1.07422 7.05664 1.42839 7.05664H4.32422V7.52539H1.74609C1.39714 7.52539 1.11068 7.80664 1.11068 8.16081V18.39Z" fill="#527189"/>
<path d="M0.970052 19.9056C0.860677 19.791 0.792969 19.64 0.792969 19.4733V19.4681V18.39H1.11068V19.6243H0.824219C0.85026 19.7181 0.891927 19.8066 0.954427 19.8796C0.959635 19.89 0.964843 19.8952 0.970052 19.9056ZM5.64193 7.60872C5.55339 7.55664 5.45443 7.52539 5.34505 7.52539H4.32422V7.05664H5.02734C5.02734 7.05664 5.02734 7.05664 5.03255 7.05664C5.35026 7.06185 5.60026 7.30143 5.64193 7.60872Z" fill="#4B687D"/>
<mask id="mask4_292_113697" style="mask-type:luminance" maskUnits="userSpaceOnUse" x="0" y="19" width="2" height="2">
<path d="M0.902344 19.8535H1.5013V20.1035H0.902344V19.8535Z" fill="white"/>
</mask>
<g mask="url(#mask4_292_113697)">
<path d="M1.42253 20.1038H1.41732C1.25065 20.1038 1.09961 20.0361 0.990234 19.9268C1.10482 20.0361 1.25065 20.1038 1.42253 20.1038Z" fill="#485C6C"/>
</g>
<mask id="mask5_292_113697" style="mask-type:luminance" maskUnits="userSpaceOnUse" x="1" y="19" width="5" height="2">
<path d="M1.05273 19.5566H5.69336V20.1035H1.05273V19.5566Z" fill="white"/>
</mask>
<g mask="url(#mask5_292_113697)">
<path d="M5.03125 20.1032C5.19792 20.1032 5.34896 20.0355 5.45833 19.9209C5.34896 20.0355 5.20312 20.1032 5.03125 20.1032ZM5.49479 19.8792H1.10938V19.624H5.63021C5.60417 19.7178 5.55729 19.8063 5.49479 19.8792Z" fill="#485C6C"/>
</g>
<path d="M1.11068 19.8802H0.954427C0.891927 19.8073 0.85026 19.7188 0.824219 19.625H1.11068V19.8802Z" fill="#5A7789"/>
<mask id="mask6_292_113697" style="mask-type:luminance" maskUnits="userSpaceOnUse" x="0" y="19" width="2" height="2">
<path d="M0.902344 19.8535H1.74609V20.1035H0.902344V19.8535Z" fill="white"/>
</mask>
<g mask="url(#mask6_292_113697)">
<path d="M0.991536 19.9261C0.986328 19.9157 0.981119 19.9105 0.970703 19.9053C0.975911 19.9053 0.98112 19.9105 0.98112 19.9105C0.986329 19.9157 0.991536 19.9209 0.991536 19.9261Z" fill="#596D7A"/>
</g>
<path d="M0.979167 19.9111C0.979167 19.9111 0.973958 19.9059 0.96875 19.9059C0.963541 19.8955 0.958333 19.8903 0.953125 19.8799C0.963541 19.8903 0.968751 19.9007 0.979167 19.9111Z" fill="#698493"/>
<path d="M5.45898 19.9215C5.47461 19.9111 5.48503 19.8955 5.49544 19.8799H5.50065C5.48503 19.8955 5.47461 19.9111 5.45898 19.9215Z" fill="#596D7A"/>
<mask id="mask7_292_113697" style="mask-type:luminance" maskUnits="userSpaceOnUse" x="0" y="19" width="6" height="2">
<path d="M0.902344 19.8535H5.54297V20.1035H0.902344V19.8535Z" fill="white"/>
</mask>
<g mask="url(#mask7_292_113697)">
<path d="M5.02734 20.1038H1.42839H1.42318C1.2513 20.1038 1.10547 20.0361 0.990885 19.9268C0.990885 19.9215 0.985678 19.9163 0.980469 19.9111C1.02734 19.958 1.07422 19.9945 1.13151 20.0205C1.1263 19.9945 1.11068 19.9632 1.11068 19.932V19.8799H5.49609C5.48568 19.8955 5.47526 19.9111 5.45964 19.9215C5.35026 20.0361 5.19922 20.1038 5.03255 20.1038H5.02734Z" fill="#677A87"/>
</g>
<mask id="mask8_292_113697" style="mask-type:luminance" maskUnits="userSpaceOnUse" x="0" y="19" width="2" height="2">
<path d="M0.902344 19.8535H1.19922V20.1035H0.902344V19.8535Z" fill="white"/>
</mask>
<g mask="url(#mask8_292_113697)">
<path d="M1.13216 20.0205C1.07487 19.9945 1.028 19.958 0.98112 19.9111C0.970704 19.9007 0.965494 19.8903 0.955078 19.8799H1.11133V19.932C1.11133 19.9632 1.12695 19.9945 1.13216 20.0205Z" fill="#76909D"/>
</g>
<mask id="mask9_292_113697" style="mask-type:luminance" maskUnits="userSpaceOnUse" x="60" y="6" width="8" height="14">
<path d="M60.4121 6.59863H67.36V19.932H60.4121V6.59863Z" fill="white"/>
</mask>
<g mask="url(#mask9_292_113697)">
<path d="M67.293 19.64H60.9857C60.9492 19.64 60.918 19.6087 60.918 19.5723V7.5931C60.918 7.55664 60.9492 7.52539 60.9857 7.52539H67.293C67.3294 7.52539 67.3607 7.55664 67.3607 7.5931V19.5723C67.3607 19.6087 67.3294 19.64 67.293 19.64Z" fill="#567890"/>
<path d="M66.8919 19.5931C67.0638 19.4629 67.1836 19.2702 67.1836 19.041V8.33268C67.1836 8.13477 67.1003 7.95768 66.9701 7.82747C67.0951 7.83789 67.2044 7.88477 67.3086 7.95247C67.2044 7.71289 66.9701 7.54102 66.6992 7.52539C67.069 7.54623 67.3607 7.85352 67.3607 8.22852V18.9368C67.3607 19.2389 67.1628 19.4941 66.8919 19.5931ZM66.6628 7.52539C66.6576 7.52539 66.6576 7.52539 66.6576 7.52539H66.6628Z" fill="#719FBB"/>
</g>
<path d="M61.2409 19.515C61.0482 19.3848 60.918 19.1816 60.918 18.9368V8.22852C60.918 7.83789 61.2305 7.52539 61.6211 7.52539C61.4596 7.52539 61.3242 7.58789 61.2044 7.67643C61.2773 7.65039 61.3503 7.62956 61.4336 7.62956C61.4284 7.65039 61.4232 7.67122 61.4232 7.69727V8.00456C61.2773 8.12956 61.1836 8.32227 61.1836 8.5306V19.2389C61.1836 19.3327 61.2044 19.4264 61.2409 19.515ZM66.9701 7.82747C66.9544 7.82747 66.9388 7.82747 66.9232 7.82747H66.8815V7.75456C66.9128 7.77539 66.944 7.80143 66.9701 7.82747Z" fill="#6A94B0"/>
<mask id="mask10_292_113697" style="mask-type:luminance" maskUnits="userSpaceOnUse" x="60" y="6" width="8" height="4">
<path d="M60.4121 6.59863H67.36V9.2653H60.4121V6.59863Z" fill="white"/>
</mask>
<g mask="url(#mask10_292_113697)">
<path d="M67.3073 7.95247C67.2031 7.88477 67.0938 7.83789 66.9688 7.82747C66.9427 7.80143 66.9115 7.77539 66.8802 7.75456V7.69727C66.8802 7.65039 66.8646 7.60872 66.8542 7.56185C66.7917 7.54622 66.7292 7.52539 66.6615 7.52539H66.6667C66.6719 7.52539 66.6719 7.52539 66.6719 7.52539H66.6771C66.6771 7.52539 66.6771 7.52539 66.6823 7.52539H66.6875C66.6927 7.52539 66.6927 7.52539 66.6927 7.52539C66.6927 7.52539 66.6927 7.52539 66.6979 7.52539C66.9688 7.54102 67.2031 7.71289 67.3073 7.95247ZM61.2031 7.67643C61.3229 7.58789 61.4583 7.52539 61.6198 7.52539C61.5573 7.52539 61.5052 7.54102 61.4479 7.55664C61.4427 7.58268 61.4375 7.60351 61.4323 7.62956C61.349 7.62956 61.276 7.65039 61.2031 7.67643Z" fill="#7CB0D0"/>
</g>
<path d="M66.6576 19.6406H66.5742V7.82812H66.8815V19.4688C66.8815 19.5156 66.8659 19.5573 66.8555 19.599C66.793 19.6198 66.7305 19.6406 66.6576 19.6406Z" fill="#314453"/>
<path d="M66.8815 7.82747H66.5742V7.63477C66.6888 7.65039 66.793 7.69206 66.8815 7.75456V7.82747Z" fill="#3D5566"/>
<path d="M66.8815 7.75456C66.793 7.69206 66.6888 7.65039 66.5742 7.63477V7.52539H66.6576C66.6576 7.52539 66.6576 7.52539 66.6628 7.52539C66.7305 7.52539 66.793 7.54622 66.8555 7.56185C66.8659 7.60872 66.8815 7.65039 66.8815 7.69727V7.75456Z" fill="#486479"/>
<path d="M61.7031 19.6403H61.6198C61.5573 19.6403 61.5052 19.6195 61.4479 19.609C61.4375 19.5622 61.4219 19.5205 61.4219 19.4684V8.00488C61.5 7.93197 61.599 7.87988 61.7031 7.84863V19.6403Z" fill="#6A8EA3"/>
<path d="M61.4219 8.00488V7.69759C61.4219 7.67155 61.4271 7.65071 61.4323 7.62988H61.4375H61.7031V7.84863C61.599 7.87988 61.5 7.93197 61.4219 8.00488Z" fill="#7AA7BF"/>
<path d="M61.4336 7.62956C61.4388 7.60351 61.444 7.58268 61.4492 7.55664C61.5065 7.54102 61.5586 7.52539 61.6211 7.52539H61.7044V7.62956H61.4388H61.4336Z" fill="#8ABED8"/>
<mask id="mask11_292_113697" style="mask-type:luminance" maskUnits="userSpaceOnUse" x="61" y="6" width="6" height="15">
<path d="M61.6719 6.92676H66.6146V20.1038H61.6719V6.92676Z" fill="white"/>
</mask>
<g mask="url(#mask11_292_113697)">
<path d="M66.5104 20.1035H61.7656C61.7344 20.1035 61.7031 20.0775 61.7031 20.041V7.11914C61.7031 7.08789 61.7344 7.05664 61.7656 7.05664H66.5104C66.5417 7.05664 66.5729 7.08789 66.5729 7.11914V20.041C66.5729 20.0775 66.5417 20.1035 66.5104 20.1035Z" fill="#3F586A"/>
<path d="M62.3385 20.1035H62.3333C62.3333 20.1035 62.3333 20.1035 62.3385 20.1035ZM62.3333 20.1035C61.9844 20.1035 61.7083 19.8223 61.7031 19.4733C61.7031 19.64 61.776 19.791 61.8854 19.9056C61.8906 19.9108 61.901 19.916 61.9063 19.9264C62.0156 20.0358 62.1615 20.1035 62.3333 20.1035ZM65.9427 20.1035C66.1146 20.1035 66.2656 20.0358 66.375 19.9212C66.3854 19.9108 66.401 19.8952 66.4115 19.8796C66.474 19.8066 66.5156 19.7181 66.5417 19.6243H62.026V18.39H64.599C64.9531 18.39 65.2344 18.1035 65.2344 17.7546V7.52539H66.2604C66.3698 7.52539 66.4635 7.55664 66.5521 7.60872C66.5104 7.30143 66.2604 7.06185 65.9479 7.05664C66.2917 7.06185 66.5729 7.34831 66.5729 7.69727V19.4681C66.5729 19.8171 66.2917 20.1035 65.9427 20.1035Z" fill="#374D5D"/>
</g>
<path d="M62.026 18.39H61.7031V7.69727C61.7031 7.3431 61.9896 7.05664 62.3385 7.05664H65.2344V7.52539H62.6563C62.3073 7.52539 62.026 7.80664 62.026 8.16081V18.39Z" fill="#527189"/>
<path d="M61.8854 19.9056C61.776 19.791 61.7031 19.64 61.7031 19.4733V19.4681V18.39H62.026V19.6243H61.7344C61.7604 19.7181 61.8073 19.8066 61.8646 19.8796C61.8698 19.89 61.8802 19.8952 61.8854 19.9056ZM66.5521 7.60872C66.4635 7.55664 66.3698 7.52539 66.2604 7.52539H65.2344V7.05664H65.9375C65.9427 7.05664 65.9427 7.05664 65.9427 7.05664C65.9427 7.05664 65.9427 7.05664 65.9479 7.05664C66.2604 7.06185 66.5104 7.30143 66.5521 7.60872Z" fill="#4B687D"/>
<mask id="mask12_292_113697" style="mask-type:luminance" maskUnits="userSpaceOnUse" x="65" y="19" width="2" height="2">
<path d="M65.8652 19.8535H66.4642V20.1035H65.8652V19.8535Z" fill="white"/>
</mask>
<g mask="url(#mask12_292_113697)">
<path d="M65.9434 20.1032C66.11 20.1032 66.2611 20.0355 66.3757 19.9209C66.2663 20.0355 66.1152 20.1032 65.9434 20.1032Z" fill="#485C6C"/>
</g>
<mask id="mask13_292_113697" style="mask-type:luminance" maskUnits="userSpaceOnUse" x="61" y="19" width="6" height="2">
<path d="M61.8242 19.5566H66.6159V20.1035H61.8242V19.5566Z" fill="white"/>
</mask>
<g mask="url(#mask13_292_113697)">
<path d="M62.3353 20.1032C62.1634 20.1032 62.0176 20.0355 61.9082 19.9261C62.0176 20.0355 62.1686 20.1032 62.3353 20.1032ZM66.4134 19.8792H62.028V19.624H66.5436C66.5176 19.7178 66.4759 19.8063 66.4134 19.8792Z" fill="#485C6C"/>
</g>
<path d="M62.026 19.8802H61.8646C61.8073 19.8073 61.7604 19.7188 61.7344 19.625H62.026V19.8802Z" fill="#5A7789"/>
<mask id="mask14_292_113697" style="mask-type:luminance" maskUnits="userSpaceOnUse" x="61" y="19" width="6" height="2">
<path d="M61.8242 19.8535H66.0169V20.1035H61.8242V19.8535Z" fill="white"/>
</mask>
<g mask="url(#mask14_292_113697)">
<path d="M61.9076 19.9261C61.9023 19.9157 61.8919 19.9105 61.8867 19.9053C61.8867 19.9053 61.8919 19.9105 61.8971 19.9105C61.8971 19.9157 61.9023 19.9209 61.9076 19.9261Z" fill="#596D7A"/>
</g>
<path d="M61.8965 19.9111C61.8913 19.9111 61.8861 19.9059 61.8861 19.9059C61.8809 19.8955 61.8704 19.8903 61.8652 19.8799C61.8757 19.8903 61.8861 19.9007 61.8965 19.9111Z" fill="#698493"/>
<mask id="mask15_292_113697" style="mask-type:luminance" maskUnits="userSpaceOnUse" x="61" y="19" width="6" height="2">
<path d="M61.8242 19.8535H66.4648V20.1035H61.8242V19.8535Z" fill="white"/>
</mask>
<g mask="url(#mask15_292_113697)">
<path d="M65.9382 20.1038H62.3392C62.334 20.1038 62.334 20.1038 62.334 20.1038C62.1673 20.1038 62.0163 20.0361 61.9069 19.9268C61.9017 19.9215 61.8965 19.9163 61.8965 19.9111C61.9382 19.958 61.9902 19.9945 62.0423 20.0205C62.0371 19.9945 62.0267 19.9632 62.0267 19.932V19.8799H66.4121C66.4017 19.8955 66.3861 19.9111 66.3757 19.9215C66.2611 20.0361 66.11 20.1038 65.9434 20.1038C65.9382 20.1038 65.9382 20.1038 65.9382 20.1038Z" fill="#677A87"/>
</g>
<mask id="mask16_292_113697" style="mask-type:luminance" maskUnits="userSpaceOnUse" x="61" y="19" width="2" height="2">
<path d="M61.8242 19.8535H62.1211V20.1035H61.8242V19.8535Z" fill="white"/>
</mask>
<g mask="url(#mask16_292_113697)">
<path d="M62.0423 20.0205C61.9902 19.9945 61.9382 19.958 61.8965 19.9111C61.8861 19.9007 61.8757 19.8903 61.8652 19.8799H62.0267V19.932C62.0267 19.9632 62.0371 19.9945 62.0423 20.0205Z" fill="#76909D"/>
</g>
<path d="M6.44922 8.45833H8.28255V8.4375H6.44922V8.45833Z" fill="#A6B3B7"/>
<path d="M8.28255 15.4736H6.44922V12.859H8.28255V15.4736ZM8.28255 8.99967H6.44922V8.69238H8.28255V8.99967Z" fill="#567E9A"/>
<path d="M6.44922 8.69238H8.28255V8.45801H6.44922V8.69238Z" fill="#44647C"/>
<path d="M8.28255 12.8594H6.44922V11.6302H8.28255V12.8594ZM8.28255 10.2344H6.44922V9H8.28255V10.2344Z" fill="#61879F"/>
<path d="M6.44922 11.6302H8.28255V10.2344H6.44922V11.6302Z" fill="#789AAD"/>
<path d="M6.44922 18.4528H8.28255V15.4736H6.44922V18.4528Z" fill="#4C7491"/>
<path d="M6.44922 18.9583H8.28255V18.4531H6.44922V18.9583Z" fill="#55809F"/>
<path d="M6.44922 19.1872H8.28255V18.958H6.44922V19.1872Z" fill="#7D9FB0"/>
<path d="M59.084 8.45833H60.9173V8.4375H59.084V8.45833Z" fill="#A6B3B7"/>
<path d="M60.9173 15.4736H59.084V12.859H60.9173V15.4736ZM60.9173 8.99967H59.084V8.69238H60.9173V8.99967Z" fill="#567E9A"/>
<path d="M59.084 8.69238H60.9173V8.45801H59.084V8.69238Z" fill="#44647C"/>
<path d="M60.9173 12.8594H59.084V11.6302H60.9173V12.8594ZM60.9173 10.2344H59.084V9H60.9173V10.2344Z" fill="#61879F"/>
<path d="M59.084 11.6302H60.9173V10.2344H59.084V11.6302Z" fill="#789AAD"/>
<path d="M59.084 18.4528H60.9173V15.4736H59.084V18.4528Z" fill="#4C7491"/>
<path d="M59.084 18.9583H60.9173V18.4531H59.084V18.9583Z" fill="#55809F"/>
<path d="M59.084 19.1872H60.9173V18.958H59.084V19.1872Z" fill="#7D9FB0"/>
<path d="M39.0885 8.45801H38.9271C39.0417 8.01009 39.1042 7.54134 39.1042 7.05697V8.02051C39.1042 8.16634 39.099 8.31217 39.0885 8.45801ZM28.2031 8.45801H28.0469C28.0365 8.31217 28.0312 8.16634 28.0312 8.02051V3.95801V7.05697C28.0312 7.54134 28.0885 8.01009 28.2031 8.45801Z" fill="#C2CBCC"/>
<path d="M33.5684 13.583C32.5736 13.583 31.6413 13.3226 30.8392 12.859H36.2975C35.4902 13.3226 34.5579 13.583 33.5684 13.583ZM39.0215 8.99967H38.7611C38.7975 8.90072 38.8288 8.79655 38.8652 8.69238H39.0684C39.0527 8.79655 39.0371 8.90072 39.0215 8.99967ZM28.3757 8.99967H28.1152C28.0944 8.90072 28.084 8.79655 28.0684 8.69238H28.2715C28.3027 8.79655 28.3392 8.90072 28.3757 8.99967Z" fill="#618CA9"/>
<path d="M39.0677 8.69238H38.8646C38.8854 8.61426 38.9063 8.53613 38.9271 8.45801H39.0885C39.0833 8.53613 39.0729 8.61426 39.0677 8.69238ZM28.2708 8.69238H28.0677C28.0573 8.61426 28.0521 8.53613 28.0469 8.45801H28.2031C28.224 8.53613 28.25 8.61426 28.2708 8.69238Z" fill="#4D6F88"/>
<path d="M36.2975 12.8594H30.8392C30.2715 12.5417 29.7715 12.1198 29.3496 11.6302H30.4121C31.11 12.1198 31.9277 12.4479 32.8132 12.5677C32.7975 12.5729 32.7871 12.5729 32.7767 12.5729C32.9121 12.5938 33.0423 12.6198 33.1829 12.6198C33.2402 12.6198 33.2975 12.6198 33.3548 12.6146C33.3809 12.6198 33.4069 12.6198 33.4329 12.6198C33.4798 12.6198 33.5215 12.6198 33.5684 12.6198H33.5736H33.5788H33.584C33.5892 12.6198 33.5944 12.6198 33.5996 12.6198C33.7298 12.6198 33.8548 12.6146 33.9798 12.6042C34.9954 12.5313 35.9329 12.1823 36.7246 11.6302H37.7819C37.3652 12.1198 36.86 12.5417 36.2975 12.8594ZM38.6517 10.2344H38.1152C38.3757 9.85417 38.5944 9.44271 38.7611 9H39.0215C38.9434 9.43229 38.8184 9.84375 38.6517 10.2344ZM29.0215 10.2344H28.485C28.3184 9.84375 28.1934 9.43229 28.1152 9H28.3757C28.5371 9.44271 28.7559 9.85417 29.0215 10.2344Z" fill="#6E99B1"/>
<path d="M37.7813 11.6302H36.724C37.2656 11.25 37.7396 10.776 38.1146 10.2344H38.651C38.4271 10.7448 38.1354 11.2135 37.7813 11.6302ZM30.4115 11.6302H29.349C29 11.2135 28.7031 10.7448 28.4844 10.2344H29.0208C29.3958 10.776 29.8646 11.25 30.4115 11.6302Z" fill="#8BAEC1"/>
<path d="M33.5677 12.6198C30.5104 12.6198 28.0312 10.1302 28.0312 7.05729V1.5H39.1042V7.05729C39.1042 10.1302 36.625 12.6198 33.5677 12.6198Z" fill="#78AAC9"/>
<path d="M33.5996 12.6191C33.5944 12.6191 33.5892 12.6191 33.584 12.6191C33.5892 12.6191 33.5892 12.6191 33.5944 12.6191C33.5944 12.6191 33.5944 12.6191 33.5996 12.6191C33.7246 12.6191 33.8548 12.6139 33.9798 12.6035C33.8548 12.6139 33.7298 12.6191 33.5996 12.6191Z" fill="#76A5C0"/>
<path d="M33.5938 12.6198C33.599 12.6198 33.599 12.6198 33.599 12.6198C33.5938 12.6198 33.5938 12.6198 33.5938 12.6198ZM33.599 12.6198C33.6042 12.6198 33.6042 12.6198 33.6094 12.6198H33.6146C33.7448 12.6198 33.8646 12.6146 33.9896 12.6042C33.9844 12.6042 33.9792 12.6042 33.9792 12.6042C33.8542 12.6146 33.724 12.6198 33.599 12.6198ZM35.4167 10.6146C35.1458 10.6146 34.875 10.5938 34.6094 10.5573C35.3229 9.60417 35.7552 8.39063 35.7552 7.05729V3.95833H36.75V7.05729C36.75 8.41146 36.375 9.64583 35.7448 10.6042C35.6354 10.6094 35.526 10.6146 35.4167 10.6146ZM36.6094 10.4844C37.1823 9.53646 37.526 8.34896 37.526 7.05729V3.95833H38.6823V7.05729C38.6823 8.14583 38.401 9.15625 37.9115 10.0104C37.5 10.2188 37.0677 10.3802 36.6094 10.4844ZM38.6823 2.38021H37.526V2.35938H38.6823V2.38021ZM36.75 2.38021H35.7552V2.35938H36.75V2.38021Z" fill="#7FB5D4"/>
<path d="M33.1836 12.6195C33.043 12.6195 32.9128 12.5934 32.7773 12.5726C32.7878 12.5726 32.7982 12.5726 32.8138 12.5674C32.9909 12.5934 33.1732 12.609 33.3555 12.6143C33.2982 12.6195 33.2409 12.6195 33.1836 12.6195Z" fill="#80A9BF"/>
<path d="M35.7461 10.6042C36.3763 9.64583 36.7513 8.41146 36.7513 7.05729V3.95833H37.5273V7.05729C37.5273 8.34896 37.1836 9.53646 36.6107 10.4844C36.3294 10.5469 36.0378 10.5885 35.7461 10.6042ZM37.5273 2.38021H36.7513V2.35938H37.5273V2.38021Z" fill="#8EC1DA"/>
<path d="M33.9902 12.6035C33.9954 12.6035 34.0059 12.6035 34.0111 12.6035C35.3132 12.4993 36.4798 11.9316 37.3704 11.0775C37.4173 11.0358 37.4694 10.9889 37.5215 10.9473C36.6048 11.8848 35.3704 12.4993 33.9902 12.6035Z" fill="#85BEDF"/>
<path d="M33.6152 12.6191C33.7507 12.6191 33.8809 12.6139 34.0111 12.6035C34.0059 12.6035 33.9954 12.6035 33.9902 12.6035C33.8652 12.6139 33.7454 12.6191 33.6152 12.6191Z" fill="#88C4E5"/>
<path d="M32.5729 12.1875C30.1458 11.599 28.3438 9.40104 28.3438 6.78125V3.95833H29.8802V5.05208C29.8802 7.84896 31.9323 10.1615 34.6094 10.5573C34.0729 11.2708 33.375 11.8333 32.5729 12.1875ZM36.3021 11.7708C36.9531 11.3229 37.5 10.7188 37.9115 10.0104C38.0781 9.92188 38.2396 9.82813 38.3958 9.72917C38.1198 10.2292 37.776 10.6823 37.3698 11.0781C37.0417 11.3438 36.6823 11.5781 36.3021 11.7708ZM29.8802 2.38021H28.3438V2.35938H29.8802V2.38021Z" fill="#6D9EBF"/>
<path d="M33.7044 12.3379C33.319 12.3275 32.9388 12.2754 32.5742 12.1868C33.3763 11.8327 34.0742 11.2702 34.6107 10.5566C34.8763 10.5931 35.1471 10.6139 35.418 10.6139C35.5273 10.6139 35.6367 10.6087 35.7461 10.6035C35.2148 11.4108 34.5117 12.0202 33.7044 12.3379ZM34.6732 12.2858C35.444 11.9264 36.1107 11.2962 36.6107 10.4837C37.069 10.3796 37.5013 10.2181 37.9128 10.0098C37.5013 10.7181 36.9544 11.3223 36.3034 11.7702C35.7982 12.0202 35.2513 12.2025 34.6732 12.2858Z" fill="#71A4C6"/>
<path d="M33.8854 12.3438C33.8229 12.3438 33.7604 12.3437 33.7031 12.3385C34.5104 12.0208 35.2135 11.4115 35.7448 10.6042C36.0365 10.5885 36.3281 10.5469 36.6094 10.4844C36.1094 11.2969 35.4427 11.9271 34.6719 12.2865C34.4115 12.3229 34.151 12.3438 33.8854 12.3438Z" fill="#7BADCA"/>
<path d="M33.5677 12.6198C33.5208 12.6198 33.4792 12.6198 33.4323 12.6198C33.4063 12.6198 33.3802 12.6198 33.3542 12.6146C33.3646 12.6146 33.375 12.6146 33.3906 12.6146C33.4531 12.6198 33.5208 12.6198 33.5833 12.6198H33.5781H33.5729H33.5677ZM34.0104 12.6042C34.849 12.5313 35.6302 12.2344 36.3021 11.7708C36.6823 11.5781 37.0417 11.3438 37.3698 11.0781C36.4792 11.9323 35.3125 12.5 34.0104 12.6042ZM32.8125 12.5677C30.1094 12.1979 28.0312 9.875 28.0312 7.05729V3.95833H28.3438V6.78125C28.3438 9.40104 30.1458 11.599 32.5729 12.1875C32.4323 12.25 32.2865 12.3073 32.1354 12.3594C32.3854 12.4427 32.6406 12.5104 32.901 12.5573C32.875 12.5625 32.8438 12.5677 32.8125 12.5677ZM28.3438 2.38021H28.0312V2.35938H28.3438V2.38021Z" fill="#74ABCD"/>
<path d="M33.5846 12.6195C33.5221 12.6195 33.4544 12.6195 33.3919 12.6143C33.8398 12.5882 34.2669 12.4736 34.6732 12.2861C35.2513 12.2028 35.7982 12.0205 36.3034 11.7705C35.6315 12.234 34.8503 12.5309 34.0117 12.6038C33.8815 12.6143 33.7513 12.6195 33.6159 12.6195H33.6107C33.6055 12.6195 33.6055 12.6195 33.6003 12.6195C33.6003 12.6195 33.6003 12.6195 33.5951 12.6195C33.5898 12.6195 33.5898 12.6195 33.5846 12.6195ZM32.9023 12.557C32.6419 12.5101 32.3867 12.4424 32.1367 12.359C32.2878 12.307 32.4336 12.2497 32.5742 12.1872C32.9388 12.2757 33.319 12.3278 33.7044 12.3382C33.4492 12.4424 33.1784 12.5153 32.9023 12.557Z" fill="#77AFD1"/>
<path d="M33.3542 12.6139C33.1719 12.6087 32.9896 12.5931 32.8125 12.5671C32.8438 12.5671 32.875 12.5618 32.901 12.5566C33.0625 12.5827 33.224 12.6035 33.3906 12.6139C33.375 12.6139 33.3646 12.6139 33.3542 12.6139Z" fill="#7CB2D1"/>
<path d="M33.3919 12.6143C33.2253 12.6038 33.0638 12.583 32.9023 12.557C33.1784 12.5153 33.4492 12.4424 33.7044 12.3382C33.7617 12.3434 33.8242 12.3434 33.8867 12.3434C34.1523 12.3434 34.4128 12.3226 34.6732 12.2861C34.2669 12.4736 33.8398 12.5882 33.3919 12.6143Z" fill="#7EB5D5"/>
<mask id="mask17_292_113697" style="mask-type:luminance" maskUnits="userSpaceOnUse" x="27" y="0" width="14" height="3">
<path d="M27.0781 0H40.4115V2.59896H27.0781V0Z" fill="white"/>
</mask>
<g mask="url(#mask17_292_113697)">
<path d="M27.5312 2.31771V0.0572917C27.5312 0.0312503 27.5521 0.015625 27.5729 0.015625H39.5573C39.5833 0.015625 39.599 0.0312503 39.599 0.0572917V2.31771C39.599 2.34375 39.5833 2.35938 39.5573 2.35938H27.5729C27.5521 2.35938 27.5312 2.34375 27.5312 2.31771Z" fill="#567890"/>
<path d="M38.8958 2.3597H28.2344C27.9323 2.3597 27.6771 2.28678 27.5781 2.18783C27.7083 2.25033 27.9063 2.2972 28.1354 2.2972H38.7917C38.9896 2.2972 39.1719 2.26595 39.2969 2.21908C39.2865 2.26595 39.2396 2.30241 39.1719 2.33887C39.4167 2.30241 39.5885 2.21908 39.599 2.11491C39.5833 2.25032 39.276 2.3597 38.8958 2.3597Z" fill="#719FBB"/>
</g>
<path d="M39.2969 2.21875C39.2969 2.21354 39.2969 2.20833 39.2969 2.20313V2.1875H39.3698C39.349 2.19792 39.3229 2.20833 39.2969 2.21875Z" fill="#6A94B0"/>
<path d="M39.1719 2.33789C39.2396 2.30143 39.2865 2.26497 39.2969 2.2181C39.3229 2.20768 39.349 2.19727 39.3698 2.18685H39.4271C39.474 2.18685 39.5156 2.18164 39.5625 2.17643C39.5781 2.15039 39.599 2.12956 39.599 2.10352C39.599 2.10352 39.599 2.10352 39.599 2.10872V2.11393C39.5885 2.2181 39.4167 2.30143 39.1719 2.33789Z" fill="#7CB0D0"/>
<mask id="mask18_292_113697" style="mask-type:luminance" maskUnits="userSpaceOnUse" x="27" y="0" width="14" height="2">
<path d="M27.0781 0H40.4115V1.26563H27.0781V0Z" fill="white"/>
</mask>
<g mask="url(#mask18_292_113697)">
<path d="M39.5996 0.270833C39.5996 0.213543 39.5371 0.161458 39.4486 0.119792C39.4746 0.145833 39.4954 0.171876 39.4954 0.203125C39.4746 0.197917 39.4538 0.197917 39.4277 0.197917H39.1257C38.9954 0.145833 38.8079 0.109375 38.5944 0.109375H27.9382C27.8392 0.109375 27.7454 0.119791 27.6621 0.130208C27.7871 0.062499 27.9902 0.015625 28.235 0.015625H38.8965C39.2871 0.015625 39.5996 0.130209 39.5996 0.270833Z" fill="#6A94B0"/>
</g>
<mask id="mask19_292_113697" style="mask-type:luminance" maskUnits="userSpaceOnUse" x="39" y="0" width="2" height="2">
<path d="M39.0781 0H40.4115V1.26563H39.0781V0Z" fill="white"/>
</mask>
<g mask="url(#mask19_292_113697)">
<path d="M39.5983 0.271159C39.5983 0.250326 39.5775 0.229492 39.5671 0.208659C39.541 0.208659 39.5202 0.203451 39.4941 0.203451C39.4941 0.172201 39.4733 0.146159 39.4473 0.120117C39.5358 0.161784 39.5983 0.213868 39.5983 0.271159Z" fill="#7CB0D0"/>
</g>
<path d="M39.2969 2.18685H27.7031C27.6563 2.18685 27.6146 2.18164 27.5729 2.17643C27.5521 2.15039 27.5312 2.12956 27.5312 2.10352V2.07227H39.2969V2.18685Z" fill="#314453"/>
<path d="M39.3698 2.18685H39.2969V2.07227H39.4896C39.474 2.11393 39.4323 2.15039 39.3698 2.18685Z" fill="#3D5566"/>
<path d="M39.4284 2.18685H39.3711C39.4336 2.15039 39.4753 2.11393 39.4909 2.07227H39.6003V2.10352C39.6003 2.12956 39.5794 2.15039 39.5638 2.17643C39.5169 2.18164 39.4753 2.18685 39.4284 2.18685Z" fill="#486479"/>
<mask id="mask20_292_113697" style="mask-type:luminance" maskUnits="userSpaceOnUse" x="27" y="0" width="14" height="2">
<path d="M27.0781 0H40.4115V1.26563H27.0781V0Z" fill="white"/>
</mask>
<g mask="url(#mask20_292_113697)">
<path d="M39.276 0.302409H27.5312V0.271159C27.5312 0.250326 27.5521 0.229492 27.5677 0.208659C27.6146 0.203451 27.6563 0.198242 27.7031 0.198242H39.125C39.1927 0.229492 39.2448 0.260742 39.276 0.302409Z" fill="#6A8EA3"/>
</g>
<mask id="mask21_292_113697" style="mask-type:luminance" maskUnits="userSpaceOnUse" x="39" y="0" width="2" height="2">
<path d="M39.0781 0H40.4115V1.26563H39.0781V0Z" fill="white"/>
</mask>
<g mask="url(#mask21_292_113697)">
<path d="M39.4948 0.302409H39.276C39.2448 0.260742 39.1927 0.229492 39.125 0.198242H39.4271C39.4531 0.198242 39.474 0.198243 39.4948 0.203451V0.302409Z" fill="#7AA7BF"/>
<path d="M39.5983 0.302083H39.4941V0.203125C39.5202 0.203125 39.541 0.208333 39.5671 0.208333C39.5775 0.229167 39.5983 0.25 39.5983 0.270833V0.302083Z" fill="#8ABED8"/>
</g>
<mask id="mask22_292_113697" style="mask-type:luminance" maskUnits="userSpaceOnUse" x="25" y="0" width="16" height="3">
<path d="M25.7461 0H40.4128V2.59896H25.7461V0Z" fill="white"/>
</mask>
<g mask="url(#mask22_292_113697)">
<path d="M27.0742 2.03613V0.338216C27.0742 0.317381 27.0898 0.301758 27.1107 0.301758H40.0273C40.0482 0.301758 40.0638 0.317381 40.0638 0.338216V2.03613C40.0638 2.05697 40.0482 2.07259 40.0273 2.07259H27.1107C27.0898 2.07259 27.0742 2.05697 27.0742 2.03613Z" fill="#3F586A"/>
<path d="M39.4284 2.07259H27.7044C27.3555 2.07259 27.0742 1.96842 27.0742 1.84342C27.0742 1.90592 27.1419 1.95801 27.2461 1.99967C27.2617 2.00488 27.2773 2.01009 27.293 2.0153C27.3659 2.03613 27.4544 2.05176 27.5534 2.06217V0.416341H28.7826V1.35384C28.7826 1.48405 29.0638 1.58822 29.4128 1.58822H39.6003V1.95801C39.6003 1.99967 39.569 2.03613 39.5169 2.06738C39.8242 2.05176 40.0586 1.95801 40.0638 1.84342C40.0586 1.97363 39.7773 2.07259 39.4284 2.07259ZM27.0742 0.530924C27.0742 0.405924 27.3555 0.301758 27.7044 0.301758C27.5326 0.301758 27.3867 0.327799 27.2721 0.364258C27.2669 0.369466 27.2565 0.374674 27.2513 0.374674C27.1419 0.416341 27.0742 0.468424 27.0742 0.530924Z" fill="#374D5D"/>
</g>
<mask id="mask23_292_113697" style="mask-type:luminance" maskUnits="userSpaceOnUse" x="28" y="0" width="13" height="3">
<path d="M28.4121 0H40.4121V2.59896H28.4121V0Z" fill="white"/>
</mask>
<g mask="url(#mask23_292_113697)">
<path d="M40.0625 1.58822H39.599V0.650716C39.599 0.520508 39.3177 0.416341 38.9688 0.416341H28.7812V0.301758H39.4271C39.7813 0.301758 40.0625 0.405924 40.0625 0.530924V1.58822Z" fill="#527189"/>
</g>
<mask id="mask24_292_113697" style="mask-type:luminance" maskUnits="userSpaceOnUse" x="27" y="0" width="14" height="3">
<path d="M27.0781 0H40.4115V2.59896H27.0781V0Z" fill="white"/>
</mask>
<g mask="url(#mask24_292_113697)">
<path d="M39.5163 2.06738C39.5684 2.03613 39.5996 1.99967 39.5996 1.95801V1.58822H40.0632V1.84342C40.0579 1.95801 39.8236 2.05176 39.5163 2.06738ZM28.7819 0.416341H27.5527V0.312174C27.4538 0.322592 27.3652 0.338217 27.2923 0.359049C27.2871 0.359049 27.2819 0.364258 27.2715 0.364258C27.3861 0.327799 27.5319 0.301758 27.7038 0.301758H28.7819V0.416341Z" fill="#4B687D"/>
</g>
<mask id="mask25_292_113697" style="mask-type:luminance" maskUnits="userSpaceOnUse" x="25" y="0" width="4" height="3">
<path d="M25.7461 0H28.4128V2.59896H25.7461V0Z" fill="white"/>
</mask>
<g mask="url(#mask25_292_113697)">
<path d="M27.5534 2.0625C27.4544 2.05208 27.3659 2.03646 27.293 2.01563V0.416667H27.5534V2.0625Z" fill="#485C6C"/>
</g>
<mask id="mask26_292_113697" style="mask-type:luminance" maskUnits="userSpaceOnUse" x="27" y="0" width="2" height="2">
<path d="M27.0781 0H28.4115V1.26563H27.0781V0Z" fill="white"/>
</mask>
<g mask="url(#mask26_292_113697)">
<path d="M27.5514 0.416667H27.291V0.359375C27.3639 0.338543 27.4525 0.322917 27.5514 0.3125V0.416667Z" fill="#5A7789"/>
</g>
<mask id="mask27_292_113697" style="mask-type:luminance" maskUnits="userSpaceOnUse" x="27" y="0" width="2" height="3">
<path d="M27.0781 0H28.4115V2.59896H27.0781V0Z" fill="white"/>
</mask>
<g mask="url(#mask27_292_113697)">
<path d="M27.2493 0.374674C27.2546 0.374674 27.265 0.369466 27.2702 0.364258C27.2702 0.369466 27.265 0.369466 27.2598 0.369466C27.2598 0.369466 27.2546 0.374674 27.2493 0.374674Z" fill="#596D7A"/>
</g>
<mask id="mask28_292_113697" style="mask-type:luminance" maskUnits="userSpaceOnUse" x="27" y="0" width="2" height="2">
<path d="M27.0781 0H28.4115V1.26563H27.0781V0Z" fill="white"/>
</mask>
<g mask="url(#mask28_292_113697)">
<path d="M27.2598 0.369792C27.265 0.369792 27.2702 0.369791 27.2702 0.364583C27.2806 0.364583 27.2858 0.359375 27.291 0.359375C27.2806 0.364584 27.2702 0.364584 27.2598 0.369792Z" fill="#698493"/>
</g>
<mask id="mask29_292_113697" style="mask-type:luminance" maskUnits="userSpaceOnUse" x="25" y="0" width="4" height="3">
<path d="M25.7461 0H28.4128V2.59896H25.7461V0Z" fill="white"/>
</mask>
<g mask="url(#mask29_292_113697)">
<path d="M27.293 2.01595C27.2773 2.01074 27.2617 2.00553 27.2461 2.00033C27.1419 1.95866 27.0742 1.90658 27.0742 1.84408V0.531576C27.0742 0.469076 27.1419 0.416992 27.2513 0.375326C27.2565 0.375326 27.2617 0.370117 27.2617 0.370117C27.2201 0.385743 27.1836 0.406576 27.1523 0.427409C27.1836 0.422201 27.2096 0.416992 27.2409 0.416992H27.293V2.01595Z" fill="#677A87"/>
</g>
<mask id="mask30_292_113697" style="mask-type:luminance" maskUnits="userSpaceOnUse" x="27" y="0" width="2" height="2">
<path d="M27.0781 0H28.4115V1.26563H27.0781V0Z" fill="white"/>
</mask>
<g mask="url(#mask30_292_113697)">
<path d="M27.1504 0.427083C27.1816 0.40625 27.2181 0.385417 27.2598 0.369792C27.2702 0.364584 27.2806 0.364584 27.291 0.359375V0.416667H27.2389C27.2077 0.416667 27.1816 0.421875 27.1504 0.427083Z" fill="#76909D"/>
</g>
<path d="M28.0326 3.95801H27.9805V2.37988H28.0326V3.95801Z" fill="#A8B7BD"/>
<path d="M39.1048 3.95801H38.6829V2.37988H39.1048V3.95801ZM35.7559 3.95801H29.8809V2.37988H35.7559V3.95801Z" fill="#6288A3"/>
<path d="M38.6829 3.95801H37.5267V2.37988H38.6829V3.95801ZM36.7507 3.95801H35.7559V2.37988H36.7507V3.95801Z" fill="#658FA9"/>
<path d="M36.75 3.95801H37.526V2.37988H36.75V3.95801Z" fill="#6E96AD"/>
<path d="M28.3438 3.95801H29.8802V2.37988H28.3438V3.95801Z" fill="#5A829D"/>
<path d="M28.0312 3.95801H28.3438V2.37988H28.0312V3.95801Z" fill="#6089A5"/>
<path d="M13.7096 15.4736H13.1836V12.859H13.7096V15.4736ZM13.7096 8.99967H13.1836V8.70801C13.1836 8.7028 13.1836 8.69759 13.1836 8.69238H13.7096V8.99967Z" fill="#537389"/>
<path d="M13.7096 8.69238H13.1836C13.194 8.60384 13.2513 8.53613 13.2878 8.45801H13.7096V8.69238Z" fill="#405A6C"/>
<path d="M13.7096 12.8594H13.1836V11.6302H13.7096V12.8594ZM13.7096 10.2344H13.1836V9H13.7096V10.2344Z" fill="#5E7C8E"/>
<path d="M13.1836 11.6302H13.7096V10.2344H13.1836V11.6302Z" fill="#758F9C"/>
<path d="M13.1836 18.4528H13.7096V15.4736H13.1836V18.4528Z" fill="#486881"/>
<path d="M13.7096 18.9583H13.1888C13.1836 18.9427 13.1836 18.9323 13.1836 18.9219V18.4531H13.7096V18.9583Z" fill="#527690"/>
<path d="M13.7083 19.2028H13.3021C13.2604 19.1195 13.1979 19.0466 13.1875 18.958H13.7083V19.2028Z" fill="#7A94A0"/>
<path d="M19.3809 19.5879H13.7715C13.735 19.5879 13.709 19.5566 13.709 19.5202V8.10872C13.709 8.07227 13.735 8.04102 13.7715 8.04102H19.3809C19.4173 8.04102 19.4486 8.07227 19.4486 8.10872V19.5202C19.4486 19.5566 19.4173 19.5879 19.3809 19.5879Z" fill="#668FA9"/>
<path d="M14.459 19.5879H14.3757C14.2611 19.5879 14.1777 19.5202 14.084 19.4681V8.16081C14.1725 8.11393 14.2559 8.04622 14.3652 8.04102H14.459V19.5879Z" fill="#456074"/>
<mask id="mask31_292_113697" style="mask-type:luminance" maskUnits="userSpaceOnUse" x="14" y="7" width="5" height="14">
<path d="M14.3711 7.37988H18.7148V20.1038H14.3711V7.37988Z" fill="white"/>
</mask>
<g mask="url(#mask31_292_113697)">
<path d="M18.6361 20.1035H14.5163C14.485 20.1035 14.459 20.0775 14.459 20.0462V7.58268C14.459 7.55143 14.485 7.52539 14.5163 7.52539H18.6361C18.6725 7.52539 18.6986 7.55143 18.6986 7.58268V20.0462C18.6986 20.0775 18.6725 20.1035 18.6361 20.1035Z" fill="#78AAC9"/>
<path d="M18.0996 20.1035H18.0111V8.93164C18.0111 8.60352 17.7402 8.33268 17.4121 8.33268H17.1361C17.0163 8.21289 16.8444 8.13997 16.6621 8.13997C16.4798 8.13997 16.3392 8.2181 16.2194 8.33268H14.459V8.12435C14.459 7.79622 14.7194 7.5306 15.0423 7.52539H18.11C18.4382 7.5306 18.6986 7.79622 18.6986 8.12435V19.5046C18.6986 19.8379 18.4277 20.1035 18.0996 20.1035Z" fill="#A8CBDB"/>
</g>
<path d="M16.5781 9.62988C16.1979 9.62988 15.8906 9.32259 15.8906 8.94238C15.8906 8.70801 16.0052 8.49967 16.1823 8.37467C16.1667 8.39551 16.151 8.41634 16.1354 8.43197C16.1771 8.39551 16.224 8.36426 16.276 8.33301H16.9063C17.1198 8.44759 17.2656 8.67676 17.2656 8.94238C17.2656 9.09863 17.1875 9.22363 17.099 9.33822C17.1354 9.30697 17.1719 9.27572 17.1979 9.23926C17.0885 9.46842 16.849 9.62988 16.5781 9.62988Z" fill="#537389"/>
<path d="M16.9076 8.33333H16.2773C16.3659 8.28125 16.4701 8.25 16.5794 8.25C16.6992 8.25 16.8086 8.28125 16.9076 8.33333Z" fill="#6F8794"/>
<path d="M17.1992 9.23926C17.2409 9.14551 17.2669 9.04655 17.2669 8.94238C17.2669 8.67676 17.1211 8.44759 16.9076 8.33301H17.1367C17.2669 8.45801 17.3503 8.63509 17.3503 8.83301C17.3503 8.98926 17.293 9.12467 17.1992 9.23926ZM16.1836 8.37467C16.1992 8.35905 16.2096 8.34863 16.2201 8.33301H16.2513C16.2253 8.34863 16.2044 8.35905 16.1836 8.37467Z" fill="#9FD1E9"/>
<path d="M17.1354 8.33333H16.9063C16.8073 8.28125 16.6979 8.25 16.5781 8.25C16.4583 8.25 16.349 8.28125 16.25 8.33333H16.2188C16.3385 8.21875 16.4792 8.14062 16.6615 8.14062C16.8438 8.14062 17.0156 8.21354 17.1354 8.33333Z" fill="#B3DEF1"/>
<path d="M17.1003 9.33822C17.1888 9.22363 17.2669 9.09863 17.2669 8.94238C17.2669 9.04655 17.2409 9.14551 17.1992 9.23926C17.1732 9.27572 17.1367 9.30697 17.1003 9.33822ZM16.1367 8.43197C16.1523 8.41634 16.168 8.39551 16.1836 8.37467C16.2044 8.35905 16.2253 8.34863 16.2513 8.33301H16.2773C16.2253 8.36426 16.1784 8.39551 16.1367 8.43197Z" fill="#8FB8CD"/>
<path d="M16.5781 8.25C16.4688 8.25 16.3646 8.28125 16.276 8.33333H16.25C16.349 8.28125 16.4583 8.25 16.5781 8.25Z" fill="#9DC1D1"/>
<path d="M16.5781 12.1296C16.1979 12.1296 15.8906 11.8171 15.8906 11.4368C15.8906 11.2025 16.0052 10.9941 16.1823 10.8691C16.1667 10.89 16.151 10.9108 16.1354 10.9316C16.2552 10.8275 16.4063 10.7441 16.5781 10.7441C16.9583 10.7441 17.2656 11.0566 17.2656 11.4368C17.2656 11.5931 17.1875 11.7181 17.099 11.8327C17.1354 11.8014 17.1719 11.7702 17.1979 11.7337C17.0885 11.9681 16.849 12.1296 16.5781 12.1296Z" fill="#537389"/>
<path d="M17.1992 11.7337C17.2409 11.6452 17.2669 11.541 17.2669 11.4368C17.2669 11.0566 16.9596 10.7441 16.5794 10.7441C16.4336 10.7441 16.2982 10.791 16.1836 10.8691C16.3034 10.7337 16.4596 10.6348 16.6628 10.6348C17.043 10.6348 17.3503 10.9473 17.3503 11.3275C17.3503 11.4837 17.293 11.6191 17.1992 11.7337Z" fill="#9FD1E9"/>
<path d="M17.1003 11.8327C17.1888 11.7181 17.2669 11.5931 17.2669 11.4368C17.2669 11.541 17.2409 11.6452 17.1992 11.7337C17.1732 11.7702 17.1367 11.8014 17.1003 11.8327ZM16.5794 10.7441C16.4076 10.7441 16.2565 10.8275 16.1367 10.9316C16.1523 10.9108 16.168 10.89 16.1836 10.8691C16.2982 10.791 16.4336 10.7441 16.5794 10.7441Z" fill="#8FB8CD"/>
<path d="M16.5781 14.6243C16.1979 14.6243 15.8906 14.3171 15.8906 13.9316C15.8906 13.6973 16.0052 13.4941 16.1823 13.3691C16.1667 13.3848 16.151 13.4056 16.1354 13.4264C16.2552 13.3223 16.4063 13.2441 16.5781 13.2441C16.9583 13.2441 17.2656 13.5514 17.2656 13.9316C17.2656 14.0879 17.1875 14.2129 17.099 14.3327C17.1354 14.3014 17.1719 14.265 17.1979 14.2285C17.0885 14.4629 16.849 14.6243 16.5781 14.6243Z" fill="#537389"/>
<path d="M17.1992 14.2288C17.2409 14.1403 17.2669 14.0413 17.2669 13.932C17.2669 13.5518 16.9596 13.2445 16.5794 13.2445C16.4336 13.2445 16.2982 13.2913 16.1836 13.3695C16.3034 13.2288 16.4596 13.1299 16.6628 13.1299C17.043 13.1299 17.3503 13.4424 17.3503 13.8226C17.3503 13.9788 17.293 14.1195 17.1992 14.2288Z" fill="#9FD1E9"/>
<path d="M17.1003 14.3327C17.1888 14.2129 17.2669 14.0879 17.2669 13.9316C17.2669 14.041 17.2409 14.14 17.1992 14.2285C17.1732 14.265 17.1367 14.3014 17.1003 14.3327ZM16.5794 13.2441C16.4076 13.2441 16.2565 13.3223 16.1367 13.4264C16.1523 13.4056 16.168 13.3848 16.1836 13.3691C16.2982 13.291 16.4336 13.2441 16.5794 13.2441Z" fill="#8FB8CD"/>
<path d="M16.5781 17.1195C16.1979 17.1195 15.8906 16.8122 15.8906 16.432C15.8906 16.1976 16.0052 15.9893 16.1823 15.8643C16.1667 15.8851 16.151 15.9007 16.1354 15.9215C16.2552 15.8174 16.4063 15.7393 16.5781 15.7393C16.9583 15.7393 17.2656 16.0466 17.2656 16.432C17.2656 16.583 17.1875 16.7132 17.099 16.8278C17.1354 16.7966 17.1667 16.7601 17.1979 16.7236C17.0885 16.958 16.849 17.1195 16.5781 17.1195Z" fill="#537389"/>
<path d="M17.1992 16.7236C17.2409 16.6351 17.2669 16.5361 17.2669 16.432C17.2669 16.0466 16.9596 15.7393 16.5794 15.7393C16.4336 15.7393 16.2982 15.7861 16.1836 15.8643C16.3034 15.7236 16.4596 15.6299 16.6628 15.6299C17.043 15.6299 17.3503 15.9372 17.3503 16.3174C17.3503 16.4788 17.293 16.6143 17.1992 16.7236Z" fill="#9FD1E9"/>
<path d="M17.1003 16.8278C17.1888 16.7132 17.2669 16.583 17.2669 16.432C17.2669 16.5361 17.2409 16.6351 17.1992 16.7236C17.168 16.7601 17.1367 16.7966 17.1003 16.8278ZM16.5794 15.7393C16.4076 15.7393 16.2565 15.8174 16.1367 15.9215C16.1523 15.9007 16.168 15.8851 16.1836 15.8643C16.2982 15.7861 16.4336 15.7393 16.5794 15.7393Z" fill="#8FB8CD"/>
<path d="M16.5781 19.6198C16.1979 19.6198 15.8906 19.3073 15.8906 18.9271C15.8906 18.6927 16.0052 18.4844 16.1823 18.3594C16.1667 18.3802 16.151 18.401 16.1354 18.4219C16.2552 18.3125 16.4063 18.2344 16.5781 18.2344C16.5833 18.2344 16.5885 18.2344 16.5938 18.2344C16.8802 18.2448 17.1198 18.4271 17.2188 18.6771C17.25 18.7552 17.2656 18.8385 17.2656 18.9271C17.2656 19.0833 17.1875 19.2083 17.099 19.3229C17.1354 19.2917 17.1667 19.2604 17.1979 19.224C17.0885 19.4583 16.849 19.6198 16.5781 19.6198Z" fill="#537389"/>
<path d="M17.1992 19.224C17.2409 19.1354 17.2669 19.0313 17.2669 18.9271C17.2669 18.8385 17.2513 18.7552 17.2201 18.6771C17.1211 18.4271 16.8815 18.2448 16.5951 18.2344C16.5898 18.2344 16.5846 18.2344 16.5794 18.2344C16.4336 18.2344 16.2982 18.2813 16.1836 18.3594C16.3034 18.224 16.4596 18.125 16.6628 18.125C17.043 18.125 17.3503 18.4323 17.3503 18.8177C17.3503 18.974 17.293 19.1094 17.1992 19.224Z" fill="#9FD1E9"/>
<path d="M17.1003 19.3229C17.1888 19.2083 17.2669 19.0833 17.2669 18.9271C17.2669 19.0313 17.2409 19.1354 17.1992 19.224C17.168 19.2604 17.1367 19.2917 17.1003 19.3229ZM16.1367 18.4219C16.1523 18.401 16.168 18.3802 16.1836 18.3594C16.2982 18.2813 16.4336 18.2344 16.5794 18.2344C16.4076 18.2344 16.2565 18.3125 16.1367 18.4219Z" fill="#8FB8CD"/>
<path d="M46.4857 15.4736H45.9648V12.859H46.4857V15.4736ZM46.4857 8.99967H45.9648V8.70801C45.9648 8.7028 45.9648 8.69759 45.9648 8.69238H46.4857V8.99967Z" fill="#537389"/>
<path d="M46.4857 8.69238H45.9648C45.9701 8.60384 46.0326 8.53613 46.069 8.45801H46.4857V8.69238Z" fill="#405A6C"/>
<path d="M46.4857 12.8594H45.9648V11.6302H46.4857V12.8594ZM46.4857 10.2344H45.9648V9H46.4857V10.2344Z" fill="#5E7C8E"/>
<path d="M45.9648 11.6302H46.4857V10.2344H45.9648V11.6302Z" fill="#758F9C"/>
<path d="M45.9648 18.4528H46.4857V15.4736H45.9648V18.4528Z" fill="#486881"/>
<path d="M46.4857 18.9583H45.9648C45.9648 18.9427 45.9648 18.9323 45.9648 18.9219V18.4531H46.4857V18.9583Z" fill="#527690"/>
<path d="M46.4857 19.2028H46.0794C46.0378 19.1195 45.9805 19.0466 45.9648 18.958H46.4857V19.2028Z" fill="#7A94A0"/>
<path d="M52.1615 19.5879H46.5521C46.5156 19.5879 46.4844 19.5566 46.4844 19.5202V8.10872C46.4844 8.07227 46.5156 8.04102 46.5521 8.04102H52.1615C52.1979 8.04102 52.224 8.07227 52.224 8.10872V19.5202C52.224 19.5566 52.1979 19.5879 52.1615 19.5879Z" fill="#668FA9"/>
<path d="M47.2344 19.5879H47.151C47.0365 19.5879 46.9531 19.5202 46.8594 19.4681V8.16081C46.9531 8.11393 47.0313 8.04622 47.1406 8.04102H47.2344V19.5879Z" fill="#456074"/>
<mask id="mask32_292_113697" style="mask-type:luminance" maskUnits="userSpaceOnUse" x="47" y="7" width="5" height="14">
<path d="M47.1523 7.37988H51.4961V20.1038H47.1523V7.37988Z" fill="white"/>
</mask>
<g mask="url(#mask32_292_113697)">
<path d="M51.4186 20.1035H47.2988C47.2624 20.1035 47.2363 20.0775 47.2363 20.0462V7.58268C47.2363 7.55143 47.2624 7.52539 47.2988 7.52539H51.4186C51.4499 7.52539 51.4759 7.55143 51.4759 7.58268V20.0462C51.4759 20.0775 51.4499 20.1035 51.4186 20.1035Z" fill="#78AAC9"/>
<path d="M50.877 20.1035H50.7884V8.93164C50.7884 8.60352 50.5228 8.33268 50.1895 8.33268H49.9186C49.7936 8.21289 49.627 8.13997 49.4395 8.13997C49.2624 8.13997 49.1165 8.2181 49.002 8.33268H47.2363V8.12435C47.2363 7.79622 47.4967 7.5306 47.8249 7.52539H50.8926C51.2155 7.5306 51.4759 7.79622 51.4759 8.12435V19.5046C51.4759 19.8379 51.2103 20.1035 50.877 20.1035Z" fill="#A8CBDB"/>
</g>
<path d="M49.3555 9.62988C48.9753 9.62988 48.668 9.32259 48.668 8.94238C48.668 8.70801 48.7826 8.49967 48.9648 8.37467C48.944 8.39551 48.9284 8.41634 48.9128 8.43197C48.9596 8.39551 49.0065 8.36426 49.0534 8.33301H49.6836C49.8971 8.44759 50.043 8.67676 50.043 8.94238C50.043 9.09863 49.9648 9.22363 49.8815 9.33822C49.918 9.30697 49.9492 9.27572 49.9805 9.23926C49.8659 9.46842 49.6315 9.62988 49.3555 9.62988Z" fill="#537389"/>
<path d="M49.6829 8.33333H49.0527C49.1465 8.28125 49.2454 8.25 49.3548 8.25C49.4746 8.25 49.584 8.28125 49.6829 8.33333Z" fill="#6F8794"/>
<path d="M49.9805 9.23926C50.0221 9.14551 50.043 9.04655 50.043 8.94238C50.043 8.67676 49.8971 8.44759 49.6836 8.33301H49.918C50.0482 8.45801 50.1263 8.63509 50.1263 8.83301C50.1263 8.98926 50.069 9.12467 49.9805 9.23926ZM48.9648 8.37467C48.9753 8.35905 48.9909 8.34863 49.0013 8.33301H49.0273C49.0065 8.34343 48.9857 8.35905 48.9648 8.37467Z" fill="#9FD1E9"/>
<path d="M49.9167 8.33333H49.6823C49.5833 8.28125 49.474 8.25 49.3542 8.25C49.2396 8.25 49.125 8.28125 49.026 8.33333H49C49.1146 8.21875 49.2604 8.14062 49.4375 8.14062C49.625 8.14062 49.7917 8.21354 49.9167 8.33333Z" fill="#B3DEF1"/>
<path d="M49.8809 9.33822C49.9642 9.22363 50.0423 9.09863 50.0423 8.94238C50.0423 9.04655 50.0215 9.14551 49.9798 9.23926C49.9486 9.27572 49.9173 9.30697 49.8809 9.33822ZM48.9121 8.43197C48.9277 8.41634 48.9434 8.39551 48.9642 8.37467C48.985 8.35905 49.0059 8.34343 49.0267 8.33301H49.0527C49.0059 8.36426 48.959 8.39551 48.9121 8.43197Z" fill="#8FB8CD"/>
<path d="M49.3555 8.25C49.2461 8.25 49.1471 8.28125 49.0534 8.33333H49.0273C49.1263 8.28125 49.2409 8.25 49.3555 8.25Z" fill="#9DC1D1"/>
<path d="M49.3555 12.1296C48.9753 12.1296 48.668 11.8171 48.668 11.4368C48.668 11.2025 48.7826 10.9941 48.9648 10.8691C48.944 10.89 48.9284 10.9108 48.9128 10.9316C49.0378 10.8275 49.1836 10.7441 49.3555 10.7441C49.7357 10.7441 50.043 11.0566 50.043 11.4368C50.043 11.5931 49.9648 11.7181 49.8815 11.8327C49.918 11.8014 49.9492 11.7702 49.9805 11.7337C49.8659 11.9681 49.6315 12.1296 49.3555 12.1296Z" fill="#537389"/>
<path d="M49.9805 11.7337C50.0221 11.6452 50.043 11.541 50.043 11.4368C50.043 11.0566 49.7357 10.7441 49.3555 10.7441C49.2096 10.7441 49.0742 10.791 48.9648 10.8691C49.0846 10.7337 49.2409 10.6348 49.4388 10.6348C49.819 10.6348 50.1263 10.9473 50.1263 11.3275C50.1263 11.4837 50.069 11.6191 49.9805 11.7337Z" fill="#9FD1E9"/>
<path d="M49.8809 11.8327C49.9642 11.7181 50.0423 11.5931 50.0423 11.4368C50.0423 11.541 50.0215 11.6452 49.9798 11.7337C49.9486 11.7702 49.9173 11.8014 49.8809 11.8327ZM49.3548 10.7441C49.1829 10.7441 49.0371 10.8275 48.9121 10.9316C48.9277 10.9108 48.9434 10.89 48.9642 10.8691C49.0736 10.791 49.209 10.7441 49.3548 10.7441Z" fill="#8FB8CD"/>
<path d="M49.3555 14.6243C48.9753 14.6243 48.668 14.3171 48.668 13.9316C48.668 13.6973 48.7878 13.4941 48.9648 13.3691C48.944 13.3848 48.9284 13.4056 48.9128 13.4264C49.0378 13.3223 49.1836 13.2441 49.3555 13.2441C49.7357 13.2441 50.043 13.5514 50.043 13.9316C50.043 14.0879 49.9648 14.2129 49.8815 14.3327C49.918 14.3014 49.9492 14.265 49.9805 14.2285C49.8659 14.4629 49.6315 14.6243 49.3555 14.6243Z" fill="#537389"/>
<path d="M49.9805 14.2288C50.0221 14.1403 50.043 14.0413 50.043 13.932C50.043 13.5518 49.7357 13.2445 49.3555 13.2445C49.2096 13.2445 49.0742 13.2913 48.9648 13.3695C49.0846 13.2288 49.2409 13.1299 49.4388 13.1299C49.819 13.1299 50.1263 13.4424 50.1263 13.8226C50.1263 13.9788 50.069 14.1195 49.9805 14.2288Z" fill="#9FD1E9"/>
<path d="M49.8809 14.3327C49.9642 14.2129 50.0423 14.0879 50.0423 13.9316C50.0423 14.041 50.0215 14.14 49.9798 14.2285C49.9486 14.265 49.9173 14.3014 49.8809 14.3327ZM49.3548 13.2441C49.1829 13.2441 49.0371 13.3223 48.9121 13.4264C48.9277 13.4056 48.9434 13.3848 48.9642 13.3691C49.0736 13.291 49.209 13.2441 49.3548 13.2441Z" fill="#8FB8CD"/>
<path d="M49.3555 17.1195C48.9753 17.1195 48.668 16.8122 48.668 16.432C48.668 16.1976 48.7878 15.9893 48.9648 15.8643C48.944 15.8799 48.9284 15.9007 48.9128 15.9215C49.0378 15.8174 49.1836 15.7393 49.3555 15.7393C49.7357 15.7393 50.043 16.0466 50.043 16.432C50.043 16.583 49.9648 16.7132 49.8815 16.8278C49.918 16.7966 49.9492 16.7601 49.9805 16.7236C49.8659 16.958 49.6315 17.1195 49.3555 17.1195Z" fill="#537389"/>
<path d="M49.9805 16.7236C50.0221 16.6351 50.043 16.5361 50.043 16.432C50.043 16.0466 49.7357 15.7393 49.3555 15.7393C49.2096 15.7393 49.0742 15.7861 48.9648 15.8643C49.0846 15.7236 49.2409 15.6299 49.4388 15.6299C49.819 15.6299 50.1263 15.9372 50.1263 16.3174C50.1263 16.4788 50.069 16.6143 49.9805 16.7236Z" fill="#9FD1E9"/>
<path d="M49.8809 16.8278C49.9642 16.7132 50.0423 16.583 50.0423 16.432C50.0423 16.5361 50.0215 16.6351 49.9798 16.7236C49.9486 16.7601 49.9173 16.7966 49.8809 16.8278ZM49.3548 15.7393C49.1829 15.7393 49.0371 15.8174 48.9121 15.9215C48.9277 15.9007 48.9434 15.8799 48.9642 15.8643C49.0736 15.7861 49.209 15.7393 49.3548 15.7393Z" fill="#8FB8CD"/>
<path d="M49.3555 19.6198C48.9753 19.6198 48.668 19.3073 48.668 18.9271C48.668 18.6927 48.7826 18.4844 48.9648 18.3594C48.944 18.3802 48.9284 18.401 48.9128 18.4219C49.0378 18.3125 49.1836 18.2344 49.3555 18.2344C49.3607 18.2344 49.3659 18.2344 49.3711 18.2344C49.6576 18.2448 49.9023 18.4271 50.0013 18.6771C50.0273 18.7552 50.043 18.8385 50.043 18.9271C50.043 19.0833 49.9648 19.2083 49.8815 19.3229C49.918 19.2917 49.9492 19.2604 49.9805 19.224C49.8659 19.4583 49.6315 19.6198 49.3555 19.6198Z" fill="#537389"/>
<path d="M49.9805 19.224C50.0221 19.1354 50.043 19.0313 50.043 18.9271C50.043 18.8385 50.0273 18.7552 50.0013 18.6771C49.9023 18.4271 49.6576 18.2448 49.3711 18.2344C49.3659 18.2344 49.3607 18.2344 49.3555 18.2344C49.2096 18.2344 49.0742 18.2813 48.9648 18.3594C49.0846 18.224 49.2409 18.125 49.4388 18.125C49.819 18.125 50.1263 18.4323 50.1263 18.8177C50.1263 18.974 50.069 19.1094 49.9805 19.224Z" fill="#9FD1E9"/>
<path d="M49.8809 19.3229C49.9642 19.2083 50.0423 19.0833 50.0423 18.9271C50.0423 19.0313 50.0215 19.1354 49.9798 19.224C49.9486 19.2604 49.9173 19.2917 49.8809 19.3229ZM48.9121 18.4219C48.9277 18.401 48.9434 18.3802 48.9642 18.3594C49.0736 18.2813 49.209 18.2344 49.3548 18.2344C49.1829 18.2344 49.0371 18.3125 48.9121 18.4219Z" fill="#8FB8CD"/>
</svg>
