<svg width="68" height="36" viewBox="0 0 68 36" fill="none" xmlns="http://www.w3.org/2000/svg">
<path d="M3.17773 28.9844H60.3965V6.875H3.17773V28.9844Z" fill="#78AAC9"/>
<path d="M3.17773 7.35938H60.3965V6.875H3.17773V7.35938Z" fill="#5F859F"/>
<path d="M55.6257 15.9378H26.3027C26.0579 15.0628 25.7454 14.2139 25.3757 13.4014H55.6257V15.9378ZM55.6257 10.5316H23.7298C23.4069 10.0732 23.0632 9.63053 22.7038 9.20345C22.4694 8.79199 22.2194 8.38574 21.959 7.99512H55.6257V10.5316Z" fill="#89B9D2"/>
<path d="M55.6243 13.401H25.3743C24.916 12.3906 24.3639 11.4323 23.7285 10.5312H55.6243V13.401Z" fill="#B0D6E7"/>
<path d="M55.6243 27.4479H25.5254C26.3327 25.5417 26.8431 23.4896 26.9316 21.3125H55.6243V27.4479Z" fill="#699ABC"/>
<path d="M55.6257 28.4795H25.0527C25.2194 28.141 25.3757 27.7972 25.5267 27.4482H55.6257V28.4795Z" fill="#76ADD0"/>
<path d="M55.6257 28.9847H24.7871C24.8757 28.818 24.9642 28.6462 25.0527 28.4795H55.6257V28.9847Z" fill="#B8DFEE"/>
<path d="M26.9329 21.3125H24.7871C24.8861 20.6302 24.9746 19.9427 24.9746 19.2344C24.9746 19.0156 24.9746 18.7969 24.9642 18.5833C24.9746 18.3698 24.9746 18.151 24.9746 17.9323C24.9746 17.2552 24.9382 16.5938 24.8652 15.9375H26.3027C26.7194 17.4375 26.9434 19.0156 26.9434 20.651C26.9434 20.875 26.9382 21.0938 26.9329 21.3125Z" fill="#658FAA"/>
<path d="M26.3021 15.9375H24.8646C24.7708 15.0729 24.6094 14.224 24.3958 13.401H25.375C25.7448 14.2135 26.0573 15.0625 26.3021 15.9375ZM23.7292 10.5313H23.375C23.1667 10.0781 22.9427 9.63542 22.7031 9.20312C23.0625 9.63021 23.4063 10.0729 23.7292 10.5313Z" fill="#7199B0"/>
<path d="M25.375 13.401H24.3958C24.1354 12.4062 23.7917 11.4479 23.375 10.5312H23.7292C24.3646 11.4323 24.9167 12.3906 25.375 13.401Z" fill="#8BADBE"/>
<path d="M25.526 27.4479H22.2344C23.3854 25.6146 24.2188 23.5625 24.6458 21.3698C24.6719 21.5156 24.6927 21.6615 24.7135 21.8073C24.7396 21.6458 24.7656 21.4792 24.7865 21.3125H26.9323C26.8438 23.4896 26.3333 25.5417 25.526 27.4479Z" fill="#5C84A0"/>
<path d="M25.0521 28.4795H21.5312C21.776 28.141 22.0104 27.7972 22.2344 27.4482H25.526C25.375 27.7972 25.2188 28.141 25.0521 28.4795Z" fill="#6591AE"/>
<path d="M24.7871 28.9847H21.1465C21.2767 28.818 21.4069 28.6514 21.5319 28.4795H25.0527C24.9642 28.6462 24.8757 28.818 24.7871 28.9847Z" fill="#90B2C2"/>
<mask id="mask0_292_113691" style="mask-type:luminance" maskUnits="userSpaceOnUse" x="0" y="0" width="25" height="36">
<path d="M0 0.0361328H24.9948V35.8278H0V0.0361328Z" fill="white"/>
</mask>
<g mask="url(#mask0_292_113691)">
<path d="M7.03646 35.8278H1.57292C0.703125 35.8278 0 35.1247 0 34.2601V1.60384C0 0.734049 0.703125 0.0361328 1.57292 0.0361328H7.03646C16.9427 0.0361328 24.974 8.04655 24.974 17.932C24.974 27.8174 16.9427 35.8278 7.03646 35.8278Z" fill="#78AAC9"/>
</g>
<mask id="mask1_292_113691" style="mask-type:luminance" maskUnits="userSpaceOnUse" x="0" y="0" width="26" height="19">
<path d="M0.556641 0H25.89V18.0625H0.556641V0Z" fill="white"/>
</mask>
<g mask="url(#mask1_292_113691)">
<path d="M24.9733 17.932C24.9733 17.7549 24.9264 17.5934 24.9212 17.4215C24.9212 17.5205 24.916 17.6247 24.9108 17.7236C24.1452 8.54655 16.4368 1.33822 7.03581 1.33822H3.93685V0.0361328H1.57227H7.03581C7.58789 0.0361328 8.13477 0.0621748 8.67643 0.109049C13.7285 0.562175 18.1764 3.11426 21.1452 6.87467C21.2702 7.03613 21.39 7.19759 21.515 7.35905C21.666 7.56738 21.8118 7.78092 21.9577 7.99447C22.2181 8.38509 22.4681 8.79134 22.7025 9.2028C22.9421 9.63509 23.166 10.0778 23.3743 10.5309C23.791 11.4476 24.1348 12.4059 24.3952 13.4007C24.6087 14.2236 24.7702 15.0726 24.8639 15.9372C24.9368 16.5934 24.9733 17.2549 24.9733 17.932Z" fill="#8CBDD7"/>
</g>
<path d="M24.7865 21.3122H24.6562C24.8281 20.4268 24.9323 19.5153 24.9635 18.583C24.974 18.7965 24.974 19.0153 24.974 19.234C24.974 19.9424 24.8854 20.6299 24.7865 21.3122Z" fill="#7FA9C1"/>
<path d="M24.7142 21.8073C24.6934 21.6615 24.6725 21.5156 24.6465 21.3698C24.6517 21.349 24.6517 21.3333 24.6569 21.3125H24.7871C24.7663 21.4792 24.7402 21.6458 24.7142 21.8073Z" fill="#77A1BB"/>
<path d="M24.3594 20.0208C22.4063 12.2552 15.4271 6.48958 7.03646 6.48958H3.9375V5.1875H7.03646C15.7813 5.1875 22.9948 11.4479 24.5781 19.7083C24.5104 19.8125 24.4323 19.9167 24.3594 20.0208Z" fill="#8CBDD7"/>
<path d="M24.5781 19.7087C22.9948 11.4482 15.7813 5.18783 7.03646 5.18783H3.9375V1.33887H7.03646C16.4375 1.33887 24.1458 8.5472 24.9115 17.7243C24.8854 18.3128 24.8333 18.891 24.75 19.4587C24.6927 19.542 24.6354 19.6253 24.5781 19.7087Z" fill="#9BCCE4"/>
<mask id="mask2_292_113691" style="mask-type:luminance" maskUnits="userSpaceOnUse" x="7" y="21" width="18" height="15">
<path d="M7.03711 21.0938H24.6986V35.8281H7.03711V21.0938Z" fill="white"/>
</mask>
<g mask="url(#mask2_292_113691)">
<path d="M7.15169 35.8281C15.9069 35.776 23.0996 29.4427 24.6048 21.125C24.6204 21.2031 24.6309 21.2865 24.6465 21.3698C24.1361 23.9844 23.0527 26.401 21.5319 28.4792C21.4069 28.651 21.2767 28.8177 21.1465 28.9844C17.8809 33.125 12.8288 35.7917 7.15169 35.8281Z" fill="#85BEDF"/>
</g>
<path d="M24.9642 18.5837C24.9642 18.5472 24.9642 18.5107 24.959 18.4691C24.9694 18.292 24.9746 18.1149 24.9746 17.9326C24.9746 18.1514 24.9746 18.3701 24.9642 18.5837Z" fill="#85BEDF"/>
<path d="M24.959 18.4688C24.9486 18.224 24.9329 17.974 24.9121 17.724C24.9173 17.625 24.9225 17.5208 24.9225 17.4219C24.9277 17.5938 24.9746 17.7552 24.9746 17.9323C24.9746 18.1146 24.9694 18.2917 24.959 18.4688Z" fill="#91CAE9"/>
<path d="M24.6452 21.3698C24.6296 21.2865 24.6191 21.2031 24.6035 21.125C24.64 20.9062 24.6764 20.6875 24.7077 20.4635C24.7077 20.4792 24.7129 20.4948 24.7129 20.5052C24.8118 19.8333 24.9212 19.1615 24.9577 18.4688C24.9629 18.5104 24.9629 18.5469 24.9629 18.5833C24.9316 19.5312 24.8223 20.4635 24.6452 21.3698Z" fill="#91CAE9"/>
<path d="M24.7142 20.5049C24.7142 20.4945 24.709 20.4788 24.709 20.4632C24.7611 20.0882 24.8027 19.7132 24.834 19.333C24.8079 19.3747 24.7767 19.4163 24.7507 19.458C24.834 18.8903 24.8861 18.3122 24.9121 17.7236C24.9329 17.9736 24.9486 18.2236 24.959 18.4684C24.9225 19.1611 24.8132 19.833 24.7142 20.5049Z" fill="#9AD2EF"/>
<path d="M7.03646 34.807H3.9375V27.4476H9.83854C15.8229 27.4476 21.1042 24.5101 24.3594 20.0205C24.4167 20.2497 24.474 20.484 24.5208 20.7236C22.776 28.7705 15.6302 34.807 7.03646 34.807Z" fill="#6596B8"/>
<path d="M24.5208 20.7236C24.474 20.484 24.4167 20.2497 24.3594 20.0205C24.4323 19.9163 24.5104 19.8122 24.5781 19.708C24.6042 19.833 24.625 19.958 24.651 20.083C24.6094 20.2965 24.5677 20.5101 24.5208 20.7236Z" fill="#6E9FBE"/>
<path d="M24.651 20.083C24.625 19.958 24.6042 19.833 24.5781 19.708C24.6354 19.6247 24.6927 19.5413 24.75 19.458C24.7188 19.6715 24.6875 19.8799 24.651 20.083Z" fill="#74A5C4"/>
<mask id="mask3_292_113691" style="mask-type:luminance" maskUnits="userSpaceOnUse" x="3" y="20" width="22" height="16">
<path d="M3.89062 20.6455H24.6979V35.8278H3.89062V20.6455Z" fill="white"/>
</mask>
<g mask="url(#mask3_292_113691)">
<path d="M7.03646 35.8278H3.9375V34.807H7.03646C15.6302 34.807 22.776 28.7705 24.5208 20.7236C24.5521 20.8538 24.5781 20.9893 24.6042 21.1247C23.099 29.4424 15.9063 35.7757 7.15104 35.8278C7.14583 35.8278 7.14062 35.8278 7.13542 35.8278C7.13021 35.8278 7.125 35.8278 7.125 35.8278C7.11979 35.8278 7.11979 35.8278 7.11979 35.8278C7.11458 35.8278 7.10938 35.8278 7.10938 35.8278H7.10417C7.09896 35.8278 7.09896 35.8278 7.09375 35.8278H7.08854H7.08333C7.07813 35.8278 7.07812 35.8278 7.07292 35.8278H7.06771C7.0625 35.8278 7.0625 35.8278 7.05729 35.8278H7.05208C7.04688 35.8278 7.04167 35.8278 7.03646 35.8278Z" fill="#6C9EC2"/>
</g>
<path d="M24.6048 21.1247C24.5788 20.9893 24.5527 20.8538 24.5215 20.7236C24.5684 20.5101 24.61 20.2965 24.6517 20.083C24.6725 20.2132 24.6882 20.3382 24.709 20.4632C24.6777 20.6872 24.6413 20.9059 24.6048 21.1247Z" fill="#71A5C6"/>
<path d="M24.7077 20.4632C24.6868 20.3382 24.6712 20.2132 24.6504 20.083C24.6868 19.8799 24.7181 19.6715 24.7493 19.458C24.7754 19.4163 24.8066 19.3747 24.8327 19.333C24.8014 19.7132 24.7598 20.0882 24.7077 20.4632Z" fill="#74A8C9"/>
<mask id="mask4_292_113691" style="mask-type:luminance" maskUnits="userSpaceOnUse" x="0" y="6" width="5" height="23">
<path d="M0 6.0625H4.55729V28.7292H0V6.0625Z" fill="white"/>
</mask>
<g mask="url(#mask4_292_113691)">
<path d="M3.9375 27.4476H1.57292C0.703125 27.4476 0 26.7445 0 25.8799V8.05697C0 7.18717 0.703125 6.48926 1.57292 6.48926H3.9375V27.4476Z" fill="#658FAA"/>
</g>
<mask id="mask5_292_113691" style="mask-type:luminance" maskUnits="userSpaceOnUse" x="0" y="0" width="5" height="4">
<path d="M0 0H4.55729V3.39583H0V0Z" fill="white"/>
</mask>
<g mask="url(#mask5_292_113691)">
<path d="M0 2.90592V1.60384C0 1.17155 0.177084 0.775715 0.458333 0.494466C0.744792 0.208007 1.13542 0.0361328 1.57292 0.0361328H3.9375V1.33822H1.57292C0.703125 1.33822 0 2.03613 0 2.90592Z" fill="#749CB5"/>
</g>
<mask id="mask6_292_113691" style="mask-type:luminance" maskUnits="userSpaceOnUse" x="0" y="4" width="5" height="5">
<path d="M0 4.72949H4.55729V8.72949H0V4.72949Z" fill="white"/>
</mask>
<g mask="url(#mask6_292_113691)">
<path d="M0 8.05729V6.75521C0 5.88542 0.703125 5.1875 1.57292 5.1875H3.9375V6.48958H1.57292C0.703125 6.48958 0 7.1875 0 8.05729Z" fill="#749CB5"/>
</g>
<mask id="mask7_292_113691" style="mask-type:luminance" maskUnits="userSpaceOnUse" x="0" y="0" width="5" height="8">
<path d="M0 0.729492H4.55729V7.39616H0V0.729492Z" fill="white"/>
</mask>
<g mask="url(#mask7_292_113691)">
<path d="M0 6.75553V2.90658C0 2.03678 0.703125 1.33887 1.57292 1.33887H3.9375V5.18783H1.57292C0.703125 5.18783 0 5.88574 0 6.75553Z" fill="#7DA5BB"/>
</g>
<mask id="mask8_292_113691" style="mask-type:luminance" maskUnits="userSpaceOnUse" x="0" y="24" width="5" height="12">
<path d="M0 24.7295H4.55729V35.3962H0V24.7295Z" fill="white"/>
</mask>
<g mask="url(#mask8_292_113691)">
<path d="M3.9375 34.8079H1.57292C0.703125 34.8079 0 34.1048 0 33.2402V25.8809C0 26.7454 0.703125 27.4486 1.57292 27.4486H3.9375V34.8079Z" fill="#58819F"/>
</g>
<path d="M55.625 28.9896H58.4219V28.9844H55.625V28.9896Z" fill="#A6BFCA"/>
<path d="M58.4219 21.3125H55.625V15.9375H58.4219V21.3125ZM58.4219 7.99479H55.625V7.35938H58.4219V7.99479Z" fill="#5782A5"/>
<path d="M55.625 7.35938H58.4219V6.875H55.625V7.35938Z" fill="#446683"/>
<path d="M58.4219 15.9378H55.625V13.4014H58.4219V15.9378ZM58.4219 10.5316H55.625V7.99512H58.4219V10.5316Z" fill="#628CAC"/>
<path d="M55.625 13.401H58.4219V10.5312H55.625V13.401Z" fill="#79A2BC"/>
<path d="M55.625 27.4479H58.4219V21.3125H55.625V27.4479Z" fill="#4D779B"/>
<path d="M55.625 28.4795H58.4219V27.4482H55.625V28.4795Z" fill="#5685AB"/>
<path d="M55.625 28.9847H58.4219V28.4795H55.625V28.9847Z" fill="#7EA7C0"/>
<mask id="mask9_292_113691" style="mask-type:luminance" maskUnits="userSpaceOnUse" x="57" y="6" width="11" height="25">
<path d="M57.8906 6.0625H67.3594V30.0625H57.8906V6.0625Z" fill="white"/>
</mask>
<g mask="url(#mask9_292_113691)">
<path d="M67.2969 30.042H58.4844C58.4531 30.042 58.4219 30.0107 58.4219 29.9795V6.16178C58.4219 6.13053 58.4531 6.10449 58.4844 6.10449H67.2969C67.3333 6.10449 67.3594 6.13053 67.3594 6.16178V29.9795C67.3594 30.0107 67.3333 30.042 67.2969 30.042Z" fill="#567890"/>
</g>
<mask id="mask10_292_113691" style="mask-type:luminance" maskUnits="userSpaceOnUse" x="59" y="6" width="9" height="25">
<path d="M59.2246 6.0625H67.36V30.0625H59.2246V6.0625Z" fill="white"/>
</mask>
<g mask="url(#mask10_292_113691)">
<path d="M66.709 29.9482C66.9434 29.693 67.11 29.3076 67.11 28.8493V7.70345C67.11 7.31283 66.9954 6.95866 66.8132 6.70345C66.985 6.72428 67.1413 6.82324 67.2819 6.95345C67.1361 6.47428 66.8132 6.13053 66.4277 6.10449C66.9434 6.13574 67.36 6.75033 67.36 7.50033V28.6462C67.36 29.2503 67.084 29.7555 66.709 29.9482Z" fill="#719FBB"/>
</g>
<path d="M58.8698 29.7868C58.6094 29.5368 58.4219 29.1305 58.4219 28.6462V7.50033C58.4219 6.72949 58.8594 6.10449 59.3958 6.10449C59.1771 6.10449 58.9844 6.22949 58.8229 6.40137C58.9219 6.34928 59.026 6.31283 59.1354 6.30762C59.1302 6.35449 59.125 6.39616 59.125 6.44303V7.05241C58.9219 7.30762 58.7917 7.67741 58.7917 8.09408V29.2399C58.7917 29.4378 58.8229 29.6201 58.8698 29.7868ZM66.8125 6.70345C66.7917 6.70345 66.7708 6.70345 66.7552 6.70345H66.6927V6.56283C66.7344 6.60449 66.776 6.65137 66.8125 6.70345Z" fill="#6A94B0"/>
<mask id="mask11_292_113691" style="mask-type:luminance" maskUnits="userSpaceOnUse" x="57" y="6" width="11" height="2">
<path d="M57.8906 6.0625H67.3594V7.39583H57.8906V6.0625Z" fill="white"/>
</mask>
<g mask="url(#mask11_292_113691)">
<path d="M67.2806 6.95345C67.14 6.82324 66.9837 6.72428 66.8118 6.70345C66.7754 6.65137 66.7337 6.60449 66.6921 6.56283V6.44303C66.6921 6.34928 66.6712 6.27116 66.6556 6.18262C66.5671 6.14616 66.4785 6.10449 66.3848 6.10449H66.39C66.3952 6.10449 66.3952 6.10449 66.3952 6.10449C66.3952 6.10449 66.3952 6.10449 66.4004 6.10449H66.4056C66.4056 6.10449 66.4056 6.10449 66.4108 6.10449C66.416 6.10449 66.416 6.10449 66.416 6.10449C66.4212 6.10449 66.4212 6.10449 66.4264 6.10449C66.8118 6.13053 67.1348 6.47428 67.2806 6.95345ZM58.8223 6.40137C58.9837 6.22949 59.1764 6.10449 59.3952 6.10449C59.3952 6.10449 59.3952 6.10449 59.4004 6.10449C59.3118 6.10449 59.2389 6.14095 59.1608 6.1722C59.1556 6.21908 59.1452 6.26074 59.1348 6.30762C59.0254 6.31283 58.9212 6.34928 58.8223 6.40137Z" fill="#7CB0D0"/>
</g>
<path d="M66.3854 30.0417H66.2656V6.70312H66.6927V29.6979C66.6927 29.7917 66.6719 29.875 66.6563 29.9583C66.5677 30 66.4792 30.0417 66.3854 30.0417Z" fill="#314453"/>
<path d="M66.6927 6.70345H66.2656V6.32324C66.4219 6.35449 66.5677 6.43783 66.6927 6.56283V6.70345Z" fill="#3D5566"/>
<path d="M66.6927 6.56283C66.5677 6.43783 66.4219 6.35449 66.2656 6.32324V6.10449H66.3854C66.4792 6.10449 66.5677 6.14616 66.6563 6.18262C66.6719 6.27116 66.6927 6.34928 66.6927 6.44303V6.56283Z" fill="#486479"/>
<path d="M59.5156 30.042H59.401C59.3125 30.042 59.2396 30.0003 59.1615 29.9691C59.1458 29.8805 59.125 29.7972 59.125 29.6982V7.05241C59.2344 6.91178 59.3698 6.80241 59.5156 6.74512V30.042Z" fill="#6A8EA3"/>
<path d="M59.125 7.05241V6.44303C59.125 6.39616 59.1302 6.35449 59.1354 6.30762C59.1406 6.30762 59.1458 6.30762 59.1458 6.30762H59.5156V6.74512C59.3698 6.80241 59.2344 6.91178 59.125 7.05241Z" fill="#7AA7BF"/>
<path d="M59.1348 6.30762C59.1452 6.26074 59.1556 6.21908 59.1608 6.1722C59.2389 6.14095 59.3118 6.10449 59.4004 6.10449H59.515V6.30762H59.1452C59.1452 6.30762 59.14 6.30762 59.1348 6.30762Z" fill="#8ABED8"/>
<path d="M66.2135 30.9583H59.5729C59.5417 30.9583 59.5156 30.9323 59.5156 30.9063V5.23958C59.5156 5.20833 59.5417 5.1875 59.5729 5.1875H66.2135C66.2396 5.1875 66.2656 5.20833 66.2656 5.23958V30.9063C66.2656 30.9323 66.2396 30.9583 66.2135 30.9583Z" fill="#3F586A"/>
<path d="M60.3906 30.9583C59.9063 30.9531 59.5208 30.3958 59.5156 29.7083C59.5156 30.0417 59.6146 30.3385 59.7656 30.5573C59.776 30.5729 59.7865 30.5885 59.7969 30.6042C59.9531 30.8229 60.1563 30.9531 60.3906 30.9583ZM65.3958 30.9583C65.625 30.9531 65.8333 30.8177 65.9844 30.6042C66.0052 30.5781 66.0208 30.5469 66.0417 30.5156C66.125 30.3698 66.1875 30.1979 66.224 30.0052H59.9583V27.5677H63.5313C64.0156 27.5677 64.4115 27.0052 64.4115 26.3073V6.10417H65.8281C65.9792 6.10417 66.1146 6.17187 66.2396 6.27083C66.1771 5.66667 65.8333 5.19271 65.3958 5.1875C65.875 5.19271 66.2656 5.75521 66.2656 6.44271V29.6979C66.2656 30.3906 65.875 30.9479 65.3958 30.9583Z" fill="#374D5D"/>
<path d="M59.9583 27.5677H59.5156V6.44271C59.5156 5.75 59.9115 5.1875 60.3958 5.1875H64.4115V6.10417H60.8385C60.3542 6.10417 59.9583 6.66667 59.9583 7.35938V27.5677Z" fill="#527189"/>
<path d="M59.7656 30.5573C59.6146 30.3385 59.5156 30.0417 59.5156 29.7083C59.5156 29.7031 59.5156 29.7031 59.5156 29.7031C59.5156 29.7031 59.5156 29.7031 59.5156 29.6979V27.5677H59.9583V30.0052H59.5625C59.5938 30.1979 59.6563 30.3698 59.7396 30.5156C59.75 30.5312 59.7552 30.5417 59.7656 30.5573ZM66.2396 6.27083C66.1146 6.17187 65.9792 6.10417 65.8281 6.10417H64.4115V5.1875H65.3854C65.3854 5.1875 65.3854 5.1875 65.3906 5.1875H65.3958C65.8333 5.19271 66.1771 5.66667 66.2396 6.27083Z" fill="#4B687D"/>
<path d="M60.3906 30.9587C60.1563 30.9535 59.9531 30.8232 59.7969 30.6045C59.9531 30.818 60.1563 30.9535 60.3906 30.9587Z" fill="#485C6C"/>
<path d="M65.3913 30.958C65.6257 30.9528 65.8288 30.8174 65.985 30.6038C65.834 30.8174 65.6257 30.9528 65.3965 30.958C65.3965 30.958 65.3965 30.958 65.3913 30.958ZM66.0423 30.5153H59.959V30.0049H66.2246C66.1882 30.1976 66.1257 30.3695 66.0423 30.5153Z" fill="#485C6C"/>
<path d="M59.9583 30.5153H59.7396C59.6563 30.3695 59.5938 30.1976 59.5625 30.0049H59.9583V30.5153Z" fill="#5A7789"/>
<path d="M59.7969 30.6045C59.7865 30.5889 59.776 30.5732 59.7656 30.5576C59.7708 30.5628 59.776 30.5732 59.7813 30.5785C59.7865 30.5889 59.7917 30.5941 59.7969 30.6045Z" fill="#596D7A"/>
<path d="M59.7819 30.5781C59.7767 30.5729 59.7715 30.5625 59.7663 30.5573C59.7559 30.5417 59.7507 30.5312 59.7402 30.5156C59.7559 30.5365 59.7663 30.5573 59.7819 30.5781Z" fill="#698493"/>
<path d="M65.3854 30.9583H60.3958C60.3958 30.9583 60.3958 30.9583 60.3906 30.9583C60.1563 30.9531 59.9531 30.8177 59.7969 30.6042C59.7917 30.5938 59.7865 30.5885 59.7812 30.5781C59.8385 30.6615 59.9115 30.7344 59.9844 30.7917C59.9792 30.7344 59.9583 30.6771 59.9583 30.6198V30.5156H66.0417C66.0208 30.5469 66.0052 30.5781 65.9844 30.6042C65.8281 30.8177 65.625 30.9531 65.3906 30.9583C65.3854 30.9583 65.3854 30.9583 65.3854 30.9583Z" fill="#677A87"/>
<path d="M59.985 30.7917C59.9121 30.7344 59.8392 30.6615 59.7819 30.5781C59.7663 30.5573 59.7559 30.5365 59.7402 30.5156H59.959V30.6198C59.959 30.6771 59.9798 30.7344 59.985 30.7917Z" fill="#76909D"/>
</svg>
