<svg width="68" height="16" viewBox="0 0 68 16" fill="none" xmlns="http://www.w3.org/2000/svg">
<path d="M4.90625 14.2715H30.9219V1.47461H4.90625V14.2715Z" fill="#78AAC9"/>
<path d="M4.90625 1.75586H30.9219V1.47461H4.90625V1.75586Z" fill="#5F859F"/>
<path d="M27.8132 6.71908H8.13086V5.25033H27.8132V6.71908ZM27.8132 3.58887H8.13086V2.12012H27.8132V3.58887Z" fill="#89B9D2"/>
<path d="M8.13086 5.25033H27.8132V3.58887H8.13086V5.25033Z" fill="#B0D6E7"/>
<path d="M8.13086 13.3809H27.8132V9.83398H8.13086V13.3809Z" fill="#699ABC"/>
<path d="M8.13086 13.9798H27.8132V13.3809H8.13086V13.9798Z" fill="#76ADD0"/>
<path d="M8.13086 14.2712H27.8132V13.9795H8.13086V14.2712Z" fill="#B8DFEE"/>
<path d="M8.13021 9.83398H6.84375V6.7194H8.13021V9.83398ZM8.13021 2.12044H6.84375V1.75586H8.13021V2.12044Z" fill="#5B8098"/>
<path d="M6.84375 1.75586H8.13021V1.53711H6.84375V1.75586Z" fill="#49667B"/>
<path d="M8.13021 6.71908H6.84375V5.25033H8.13021V6.71908ZM8.13021 3.58887H6.84375V2.12012H8.13021V3.58887Z" fill="#678A9E"/>
<path d="M6.84375 5.25033H8.13021V3.58887H6.84375V5.25033Z" fill="#7F9CAC"/>
<path d="M6.84375 13.3809H8.13021V9.83398H6.84375V13.3809Z" fill="#517690"/>
<path d="M6.84375 13.9798H8.13021V13.3809H6.84375V13.9798Z" fill="#5A829D"/>
<path d="M6.84375 14.2712H8.13021V13.9795H6.84375V14.2712Z" fill="#84A1B0"/>
<path d="M34.4902 14.2715H60.5111V1.47461H34.4902V14.2715Z" fill="#78AAC9"/>
<path d="M34.4902 1.75586H60.5111V1.47461H34.4902V1.75586Z" fill="#5F859F"/>
<path d="M58.5319 6.71908H38.5215V5.25033H58.5319V6.71908ZM58.5319 3.58887H38.5215V2.12012H58.5319V3.58887Z" fill="#89B9D2"/>
<path d="M38.5215 5.25033H58.5319V3.58887H38.5215V5.25033Z" fill="#B0D6E7"/>
<path d="M38.5215 13.3809H58.5319V9.83398H38.5215V13.3809Z" fill="#699ABC"/>
<path d="M38.5215 13.9798H58.5319V13.3809H38.5215V13.9798Z" fill="#76ADD0"/>
<path d="M38.5215 14.2712H58.5319V13.9795H38.5215V14.2712Z" fill="#B8DFEE"/>
<path d="M38.5208 9.83398H36.8594V6.7194H38.5208V9.83398ZM38.5208 2.12044H36.8594V1.75586H38.5208V2.12044Z" fill="#5B8098"/>
<path d="M36.8594 1.75586H38.5208V1.53711H36.8594V1.75586Z" fill="#49667B"/>
<path d="M38.5208 6.71908H36.8594V5.25033H38.5208V6.71908ZM38.5208 3.58887H36.8594V2.12012H38.5208V3.58887Z" fill="#678A9E"/>
<path d="M36.8594 5.25033H38.5208V3.58887H36.8594V5.25033Z" fill="#7F9CAC"/>
<path d="M36.8594 13.3809H38.5208V9.83398H36.8594V13.3809Z" fill="#517690"/>
<path d="M36.8594 13.9798H38.5208V13.3809H36.8594V13.9798Z" fill="#5A829D"/>
<path d="M36.8594 14.2712H38.5208V13.9795H36.8594V14.2712Z" fill="#84A1B0"/>
<path d="M60.5104 9.83398H58.5312V6.7194H60.5104V9.83398ZM60.5104 2.12044H58.5312V1.75586H60.5104V2.12044Z" fill="#5B8098"/>
<path d="M58.5312 1.75586H60.5104V1.53711H58.5312V1.75586Z" fill="#49667B"/>
<path d="M60.5104 6.71908H58.5312V5.25033H60.5104V6.71908ZM60.5104 3.58887H58.5312V2.12012H60.5104V3.58887Z" fill="#678A9E"/>
<path d="M58.5312 5.25033H60.5104V3.58887H58.5312V5.25033Z" fill="#7F9CAC"/>
<path d="M58.5312 13.3809H60.5104V9.83398H58.5312V13.3809Z" fill="#517690"/>
<path d="M58.5312 13.9798H60.5104V13.3809H58.5312V13.9798Z" fill="#5A829D"/>
<path d="M58.5312 14.2712H60.5104V13.9795H58.5312V14.2712Z" fill="#84A1B0"/>
<path d="M30.0938 9.83398H27.8125V6.7194H30.0938V9.83398ZM30.0938 2.12044H27.8125V1.75586H30.0938V2.12044Z" fill="#5B8098"/>
<path d="M27.8125 1.75586H30.0938V1.53711H27.8125V1.75586Z" fill="#49667B"/>
<path d="M30.0938 6.71908H27.8125V5.25033H30.0938V6.71908ZM30.0938 3.58887H27.8125V2.12012H30.0938V3.58887Z" fill="#678A9E"/>
<path d="M27.8125 5.25033H30.0938V3.58887H27.8125V5.25033Z" fill="#7F9CAC"/>
<path d="M27.8125 13.3809H30.0938V9.83398H27.8125V13.3809Z" fill="#517690"/>
<path d="M27.8125 13.9798H30.0938V13.3809H27.8125V13.9798Z" fill="#5A829D"/>
<path d="M27.8125 14.2712H30.0938V13.9795H27.8125V14.2712Z" fill="#84A1B0"/>
<mask id="mask0_292_113692" style="mask-type:luminance" maskUnits="userSpaceOnUse" x="29" y="0" width="9" height="16">
<path d="M29.8965 0.0419922H37.8965V15.7451H29.8965V0.0419922Z" fill="white"/>
</mask>
<g mask="url(#mask0_292_113692)">
<path d="M36.7813 15.1878H30.1719C30.1302 15.1878 30.0938 15.1514 30.0938 15.1097V0.640951C30.0938 0.594075 30.1302 0.557617 30.1719 0.557617H36.7813C36.8229 0.557617 36.8594 0.594075 36.8594 0.640951V15.1097C36.8594 15.1514 36.8229 15.1878 36.7813 15.1878Z" fill="#567890"/>
<path d="M36.3646 15.1305C36.5469 14.9743 36.6667 14.7399 36.6667 14.4587V1.53678C36.6667 1.2972 36.5833 1.08366 36.4479 0.927409C36.5781 0.937826 36.6979 1.00033 36.8021 1.07845C36.6927 0.786784 36.4479 0.578451 36.1615 0.562826C36.5521 0.583659 36.8594 0.953451 36.8594 1.41178V14.3337C36.8594 14.7035 36.651 15.0107 36.3646 15.1305Z" fill="#719FBB"/>
</g>
<mask id="mask1_292_113692" style="mask-type:luminance" maskUnits="userSpaceOnUse" x="29" y="0" width="8" height="16">
<path d="M29.8965 0.0419922H36.5632V15.7451H29.8965V0.0419922Z" fill="white"/>
</mask>
<g mask="url(#mask1_292_113692)">
<path d="M30.4323 15.0316C30.2292 14.8805 30.0938 14.6305 30.0938 14.3337V1.41178C30.0938 0.943033 30.4219 0.562825 30.8281 0.557617C30.6615 0.557617 30.5156 0.635741 30.3958 0.739909C30.4688 0.708658 30.5469 0.687825 30.6302 0.682617C30.625 0.713867 30.6198 0.739909 30.6198 0.765951V1.13574C30.4688 1.29199 30.3698 1.52116 30.3698 1.77637V14.6982C30.3698 14.818 30.3958 14.9326 30.4323 15.0316ZM36.4479 0.927409C36.4323 0.927409 36.4167 0.922201 36.401 0.922201H36.3542V0.838867C36.3906 0.86491 36.4167 0.89616 36.4479 0.927409Z" fill="#6A94B0"/>
</g>
<path d="M36.8027 1.07845C36.6986 1.00033 36.5788 0.937826 36.4486 0.927409C36.4173 0.89616 36.3913 0.86491 36.3548 0.838867V0.765951C36.3548 0.708659 36.3392 0.661785 36.3288 0.609701C36.2611 0.583659 36.1934 0.557617 36.1204 0.557617C36.1204 0.557617 36.1204 0.557617 36.1257 0.557617C36.1257 0.557617 36.1257 0.557617 36.1309 0.557617C36.1361 0.557617 36.1361 0.557617 36.1361 0.557617C36.1413 0.557617 36.1413 0.557617 36.1413 0.557617H36.1465C36.1517 0.557617 36.1517 0.562826 36.1517 0.562826H36.1569C36.1569 0.562826 36.1569 0.562826 36.1621 0.562826C36.4486 0.578451 36.6934 0.786784 36.8027 1.07845ZM30.3965 0.739909C30.5163 0.635741 30.6621 0.557617 30.8288 0.557617C30.8288 0.557617 30.8288 0.557617 30.834 0.557617C30.7663 0.557617 30.709 0.583659 30.6517 0.599284C30.6465 0.630533 30.6361 0.656576 30.6309 0.682617C30.5475 0.687825 30.4694 0.708658 30.3965 0.739909Z" fill="#7CB0D0"/>
<mask id="mask2_292_113692" style="mask-type:luminance" maskUnits="userSpaceOnUse" x="35" y="0" width="2" height="16">
<path d="M35.2305 0.0419922H36.5638V15.7451H35.2305V0.0419922Z" fill="white"/>
</mask>
<g mask="url(#mask2_292_113692)">
<path d="M36.1217 15.1875H36.0332V0.921875H36.3561V14.9792C36.3561 15.0365 36.3405 15.0885 36.3301 15.1406C36.2624 15.1615 36.1947 15.1875 36.1217 15.1875Z" fill="#314453"/>
</g>
<path d="M36.3542 0.922526H36.0312V0.693359C36.151 0.714193 36.2604 0.761067 36.3542 0.839193V0.922526Z" fill="#3D5566"/>
<path d="M36.3542 0.838867C36.2604 0.760742 36.151 0.713867 36.0312 0.693034V0.557617H36.1198C36.1927 0.557617 36.2604 0.583659 36.3281 0.609701C36.3385 0.661785 36.3542 0.708659 36.3542 0.765951V0.838867Z" fill="#486479"/>
<mask id="mask3_292_113692" style="mask-type:luminance" maskUnits="userSpaceOnUse" x="29" y="0" width="3" height="16">
<path d="M29.8965 0.0419922H31.2298V15.7451H29.8965V0.0419922Z" fill="white"/>
</mask>
<g mask="url(#mask3_292_113692)">
<path d="M30.9232 15.1875H30.8346C30.7669 15.1875 30.7096 15.1615 30.6523 15.1458C30.6419 15.0885 30.6211 15.0365 30.6211 14.9792V1.13542C30.7096 1.05208 30.8086 0.989584 30.9232 0.953125V15.1875Z" fill="#6A8EA3"/>
</g>
<path d="M30.6211 1.13574V0.765951C30.6211 0.739909 30.6263 0.713867 30.6315 0.682617C30.6367 0.682617 30.6367 0.682617 30.6419 0.682617H30.9232V0.953451C30.8086 0.989909 30.7096 1.05241 30.6211 1.13574Z" fill="#7AA7BF"/>
<path d="M30.6309 0.682617C30.6361 0.656576 30.6465 0.630533 30.6517 0.599284C30.709 0.583659 30.7663 0.557617 30.834 0.557617H30.9225V0.682617H30.6413C30.6361 0.682617 30.6361 0.682617 30.6309 0.682617Z" fill="#8ABED8"/>
<mask id="mask4_292_113692" style="mask-type:luminance" maskUnits="userSpaceOnUse" x="30" y="0" width="7" height="16">
<path d="M30.8398 0H36.069V15.7448H30.8398V0Z" fill="white"/>
</mask>
<g mask="url(#mask4_292_113692)">
<path d="M35.9603 15.75H30.9967C30.9551 15.75 30.9238 15.7188 30.9238 15.6771V0.0677083C30.9238 0.031251 30.9551 0 30.9967 0H35.9603C36.002 0 36.0332 0.031251 36.0332 0.0677083V15.6771C36.0332 15.7188 36.002 15.75 35.9603 15.75Z" fill="#3F586A"/>
<path d="M31.5801 15.75C31.2155 15.7448 30.9238 15.4063 30.9238 14.9844C30.9238 15.1875 30.9967 15.375 31.1113 15.5052C31.1217 15.5156 31.127 15.526 31.1322 15.5313C31.2467 15.6615 31.403 15.7448 31.5801 15.75ZM35.377 15.75C35.5488 15.7448 35.7103 15.6615 35.8249 15.5313C35.8353 15.5156 35.8509 15.4948 35.8665 15.4792H35.8613C35.929 15.3906 35.9759 15.2813 36.002 15.1667H31.2572V13.6771H33.9655C34.3301 13.6771 34.627 13.3333 34.627 12.9063V0.557292H35.7051C35.8197 0.557292 35.9186 0.598958 36.0124 0.661458C35.9655 0.291666 35.7051 0 35.377 0C35.7415 0.005208 36.0332 0.343749 36.0332 0.765625V14.9792C36.0332 15.401 35.7415 15.7448 35.377 15.75Z" fill="#374D5D"/>
</g>
<mask id="mask5_292_113692" style="mask-type:luminance" maskUnits="userSpaceOnUse" x="29" y="0" width="8" height="16">
<path d="M29.8965 0H36.5632V15.7448H29.8965V0Z" fill="white"/>
</mask>
<g mask="url(#mask5_292_113692)">
<path d="M31.2552 13.6771H30.9219V0.765625C30.9219 0.343749 31.2188 0 31.5833 0H34.625V0.557292H31.9219C31.5521 0.557292 31.2552 0.901041 31.2552 1.32813V13.6771Z" fill="#527189"/>
<path d="M31.1094 15.5052C30.9948 15.375 30.9219 15.1875 30.9219 14.9844V14.9792V13.6771H31.2552V15.1667H30.9531C30.9792 15.2813 31.026 15.3906 31.0885 15.4792C31.0938 15.4896 31.1042 15.5 31.1094 15.5052ZM36.0104 0.661458C35.9167 0.598958 35.8177 0.557292 35.7031 0.557292H34.625V0H35.3646C35.3646 0 35.3646 0 35.3698 0H35.375C35.7031 0 35.9635 0.291666 36.0104 0.661458Z" fill="#4B687D"/>
</g>
<mask id="mask6_292_113692" style="mask-type:luminance" maskUnits="userSpaceOnUse" x="35" y="15" width="1" height="1">
<path d="M35.3184 15.4375H35.9173V15.7448H35.3184V15.4375Z" fill="white"/>
</mask>
<g mask="url(#mask6_292_113692)">
<path d="M35.3711 15.75C35.5482 15.75 35.7044 15.6615 35.8242 15.5312C35.7096 15.6615 35.5482 15.7448 35.3763 15.75C35.3711 15.75 35.3711 15.75 35.3711 15.75Z" fill="#485C6C"/>
</g>
<mask id="mask7_292_113692" style="mask-type:luminance" maskUnits="userSpaceOnUse" x="30" y="15" width="7" height="1">
<path d="M30.9902 15.1406H36.0684V15.7448H30.9902V15.1406Z" fill="white"/>
</mask>
<g mask="url(#mask7_292_113692)">
<path d="M31.584 15.7503H31.5788C31.4017 15.7451 31.2454 15.6618 31.1309 15.5316C31.2507 15.6618 31.4069 15.7503 31.584 15.7503ZM35.86 15.4795H31.2559V15.167H36.0007C35.9746 15.2816 35.9277 15.391 35.86 15.4795Z" fill="#485C6C"/>
</g>
<mask id="mask8_292_113692" style="mask-type:luminance" maskUnits="userSpaceOnUse" x="29" y="14" width="4" height="2">
<path d="M29.8965 14.709H32.5632V15.7454H29.8965V14.709Z" fill="white"/>
</mask>
<g mask="url(#mask8_292_113692)">
<path d="M31.2552 15.4795H31.0885C31.026 15.391 30.9792 15.2816 30.9531 15.167H31.2552V15.4795Z" fill="#5A7789"/>
</g>
<mask id="mask9_292_113692" style="mask-type:luminance" maskUnits="userSpaceOnUse" x="30" y="15" width="6" height="1">
<path d="M30.9902 15.4375H35.4694V15.7448H30.9902V15.4375Z" fill="white"/>
</mask>
<g mask="url(#mask9_292_113692)">
<path d="M31.1302 15.5309C31.125 15.5257 31.1198 15.5153 31.1094 15.5049C31.1146 15.5101 31.1146 15.5153 31.1198 15.5153C31.125 15.5205 31.1302 15.5257 31.1302 15.5309Z" fill="#596D7A"/>
</g>
<mask id="mask10_292_113692" style="mask-type:luminance" maskUnits="userSpaceOnUse" x="29" y="14" width="3" height="2">
<path d="M29.8965 14.709H31.2298V15.7454H29.8965V14.709Z" fill="white"/>
</mask>
<g mask="url(#mask10_292_113692)">
<path d="M31.1211 15.516C31.1159 15.516 31.1159 15.5107 31.1107 15.5055C31.1055 15.5003 31.0951 15.4899 31.0898 15.4795C31.1003 15.4899 31.1107 15.5055 31.1211 15.516Z" fill="#698493"/>
</g>
<mask id="mask11_292_113692" style="mask-type:luminance" maskUnits="userSpaceOnUse" x="35" y="14" width="2" height="2">
<path d="M35.2305 14.709H36.5638V15.7454H35.2305V14.709Z" fill="white"/>
</mask>
<g mask="url(#mask11_292_113692)">
<path d="M35.8242 15.5316C35.8346 15.516 35.8503 15.4951 35.8607 15.4795H35.8659C35.8503 15.4951 35.8346 15.516 35.8242 15.5316Z" fill="#596D7A"/>
</g>
<mask id="mask12_292_113692" style="mask-type:luminance" maskUnits="userSpaceOnUse" x="30" y="15" width="6" height="1">
<path d="M30.9902 15.4375H35.9173V15.7448H30.9902V15.4375Z" fill="white"/>
</mask>
<g mask="url(#mask12_292_113692)">
<path d="M35.3659 15.7503H31.5846C31.4076 15.7503 31.2513 15.6618 31.1315 15.5316C31.1315 15.5264 31.1263 15.5212 31.1211 15.516C31.168 15.568 31.2201 15.6149 31.2773 15.6462C31.2721 15.6097 31.2565 15.5785 31.2565 15.542V15.4795H35.8607C35.8503 15.4951 35.8346 15.516 35.8242 15.5316C35.7044 15.6618 35.5482 15.7503 35.3711 15.7503C35.3659 15.7503 35.3659 15.7503 35.3659 15.7503Z" fill="#677A87"/>
</g>
<mask id="mask13_292_113692" style="mask-type:luminance" maskUnits="userSpaceOnUse" x="29" y="14" width="4" height="2">
<path d="M29.8965 14.709H32.5632V15.7454H29.8965V14.709Z" fill="white"/>
</mask>
<g mask="url(#mask13_292_113692)">
<path d="M31.2773 15.6462C31.2201 15.6149 31.168 15.568 31.1211 15.516C31.1107 15.5055 31.1003 15.4899 31.0898 15.4795H31.2565V15.542C31.2565 15.5785 31.2721 15.6097 31.2773 15.6462Z" fill="#76909D"/>
</g>
<mask id="mask14_292_113692" style="mask-type:luminance" maskUnits="userSpaceOnUse" x="59" y="0" width="9" height="16">
<path d="M59.2305 0.0419922H67.3555V15.7451H59.2305V0.0419922Z" fill="white"/>
</mask>
<g mask="url(#mask14_292_113692)">
<path d="M67.1992 15.1878H60.5898C60.5482 15.1878 60.5117 15.1514 60.5117 15.1097V0.640951C60.5117 0.594075 60.5482 0.557617 60.5898 0.557617H67.1992C67.2409 0.557617 67.2773 0.594075 67.2773 0.640951V15.1097C67.2773 15.1514 67.2409 15.1878 67.1992 15.1878Z" fill="#567890"/>
</g>
<mask id="mask15_292_113692" style="mask-type:luminance" maskUnits="userSpaceOnUse" x="60" y="0" width="8" height="16">
<path d="M60.5625 0.0419922H67.3542V15.7451H60.5625V0.0419922Z" fill="white"/>
</mask>
<g mask="url(#mask15_292_113692)">
<path d="M66.7858 15.1305C66.9629 14.9743 67.0879 14.7399 67.0879 14.4587V1.53678C67.0879 1.2972 66.9993 1.08366 66.8639 0.927409C66.9941 0.937826 67.1139 1.00033 67.2181 1.07845C67.1087 0.786784 66.8639 0.578451 66.5775 0.562826C66.9681 0.583659 67.2754 0.953451 67.2754 1.41178V14.3337C67.2754 14.7035 67.0671 15.0107 66.7858 15.1305Z" fill="#719FBB"/>
</g>
<mask id="mask16_292_113692" style="mask-type:luminance" maskUnits="userSpaceOnUse" x="59" y="0" width="9" height="16">
<path d="M59.2305 0.0419922H67.2305V15.7451H59.2305V0.0419922Z" fill="white"/>
</mask>
<g mask="url(#mask16_292_113692)">
<path d="M60.8503 15.0316C60.6523 14.8805 60.5117 14.6305 60.5117 14.3337V1.41178C60.5117 0.943033 60.8398 0.562825 61.2461 0.557617C61.0794 0.557617 60.9388 0.635741 60.8138 0.739909C60.8867 0.708658 60.9648 0.687825 61.0534 0.682617C61.043 0.713867 61.043 0.739909 61.043 0.765951V1.13574C60.8867 1.29199 60.793 1.52116 60.793 1.77637V14.6982C60.793 14.818 60.8138 14.9326 60.8503 15.0316ZM66.8659 0.927409C66.8503 0.927409 66.8346 0.922201 66.819 0.922201H66.7773V0.838867C66.8086 0.86491 66.8346 0.89616 66.8659 0.927409Z" fill="#6A94B0"/>
</g>
<path d="M67.2188 1.07845C67.1146 1.00033 66.9948 0.937826 66.8646 0.927409C66.8333 0.89616 66.8073 0.86491 66.776 0.838867V0.765951C66.776 0.708659 66.7552 0.661785 66.7448 0.609701C66.6771 0.583659 66.6146 0.557617 66.5365 0.557617H66.5417H66.5469C66.5469 0.557617 66.5469 0.557617 66.5521 0.557617H66.5573C66.5573 0.557617 66.5573 0.557617 66.5625 0.557617H66.5677V0.562826C66.5729 0.562826 66.5729 0.562826 66.5729 0.562826C66.5729 0.562826 66.5729 0.562826 66.5781 0.562826C66.8646 0.578451 67.1094 0.786784 67.2188 1.07845ZM60.8125 0.739909C60.9375 0.635741 61.0781 0.557617 61.2448 0.557617H61.25C61.1823 0.557617 61.125 0.583659 61.0677 0.599284C61.0625 0.630533 61.0573 0.656576 61.0521 0.682617C60.9635 0.687825 60.8854 0.708658 60.8125 0.739909Z" fill="#7CB0D0"/>
<mask id="mask17_292_113692" style="mask-type:luminance" maskUnits="userSpaceOnUse" x="65" y="0" width="3" height="16">
<path d="M65.8965 0.0419922H67.2298V15.7451H65.8965V0.0419922Z" fill="white"/>
</mask>
<g mask="url(#mask17_292_113692)">
<path d="M66.5378 15.1875H66.4492V0.921875H66.7773V14.9792C66.7773 15.0365 66.7565 15.0885 66.7461 15.1406C66.6784 15.1615 66.6159 15.1875 66.5378 15.1875Z" fill="#314453"/>
</g>
<path d="M66.7773 0.922526H66.4492V0.693359C66.569 0.714193 66.6836 0.761067 66.7773 0.839193V0.922526Z" fill="#3D5566"/>
<path d="M66.7773 0.838867C66.6836 0.760742 66.569 0.713867 66.4492 0.693034V0.557617H66.5378C66.6159 0.557617 66.6784 0.583659 66.7461 0.609701C66.7565 0.661785 66.7773 0.708659 66.7773 0.765951V0.838867Z" fill="#486479"/>
<mask id="mask18_292_113692" style="mask-type:luminance" maskUnits="userSpaceOnUse" x="60" y="0" width="2" height="16">
<path d="M60.5625 0.0419922H61.8958V15.7451H60.5625V0.0419922Z" fill="white"/>
</mask>
<g mask="url(#mask18_292_113692)">
<path d="M61.3379 15.1875H61.2493C61.1816 15.1875 61.1243 15.1615 61.0671 15.1458C61.0566 15.0885 61.041 15.0365 61.041 14.9792V1.13542C61.1243 1.05208 61.2233 0.989584 61.3379 0.953125V15.1875Z" fill="#6A8EA3"/>
</g>
<path d="M61.043 1.13574V0.765951C61.043 0.739909 61.043 0.713867 61.0534 0.682617H61.0586H61.3398V0.953451C61.2253 0.989909 61.1263 1.05241 61.043 1.13574Z" fill="#7AA7BF"/>
<path d="M61.0527 0.682617C61.0579 0.656576 61.0632 0.630533 61.0684 0.599284C61.1257 0.583659 61.1829 0.557617 61.2507 0.557617H61.3392V0.682617H61.0579H61.0527Z" fill="#8ABED8"/>
<mask id="mask19_292_113692" style="mask-type:luminance" maskUnits="userSpaceOnUse" x="61" y="0" width="6" height="16">
<path d="M61.3027 0H66.5319V15.7448H61.3027V0Z" fill="white"/>
</mask>
<g mask="url(#mask19_292_113692)">
<path d="M66.3763 15.75H61.4128C61.3711 15.75 61.3398 15.7188 61.3398 15.6771V0.0677083C61.3398 0.031251 61.3711 0 61.4128 0H66.3763C66.418 0 66.4492 0.031251 66.4492 0.0677083V15.6771C66.4492 15.7188 66.418 15.75 66.3763 15.75Z" fill="#3F586A"/>
<path d="M61.9961 15.75C61.6315 15.7448 61.3398 15.4063 61.3398 14.9844C61.3398 15.1927 61.4128 15.375 61.5326 15.5104C61.5378 15.5156 61.543 15.526 61.5482 15.5313C61.6628 15.6615 61.8242 15.7448 61.9961 15.75ZM65.793 15.75C65.9701 15.7448 66.1263 15.6615 66.2409 15.5313C66.2513 15.5156 66.2669 15.4948 66.2826 15.4792C66.3451 15.3906 66.3919 15.2813 66.418 15.1667H61.6732V13.6771H64.3815C64.7461 13.6771 65.0482 13.3333 65.0482 12.9063V0.557292H66.1211C66.2357 0.557292 66.3346 0.598958 66.4336 0.661458C66.3867 0.291666 66.1211 0 65.793 0C66.1576 0.005208 66.4492 0.343749 66.4492 0.765625V14.9792C66.4492 15.401 66.1576 15.7448 65.793 15.75Z" fill="#374D5D"/>
</g>
<mask id="mask20_292_113692" style="mask-type:luminance" maskUnits="userSpaceOnUse" x="60" y="0" width="6" height="16">
<path d="M60.5625 0H65.8958V15.7448H60.5625V0Z" fill="white"/>
</mask>
<g mask="url(#mask20_292_113692)">
<path d="M61.6712 13.6771H61.3379V0.765625C61.3379 0.343749 61.6348 0 62.0046 0H65.0462V0.557292H62.3379C61.9733 0.557292 61.6712 0.901041 61.6712 1.32813V13.6771Z" fill="#527189"/>
</g>
<mask id="mask21_292_113692" style="mask-type:luminance" maskUnits="userSpaceOnUse" x="60" y="0" width="8" height="16">
<path d="M60.5625 0H67.2292V15.7448H60.5625V0Z" fill="white"/>
</mask>
<g mask="url(#mask21_292_113692)">
<path d="M61.5306 15.5104C61.4108 15.375 61.3379 15.1927 61.3379 14.9844V14.9792V13.6771H61.6712V15.1667H61.3691C61.3952 15.2813 61.4421 15.3906 61.5046 15.4792C61.515 15.4896 61.5202 15.5 61.5306 15.5104ZM66.4316 0.661458C66.3327 0.598958 66.2337 0.557292 66.1191 0.557292H65.0462V0H65.7806H65.7858C65.791 0 65.791 0 65.791 0C66.1191 0 66.3848 0.291666 66.4316 0.661458Z" fill="#4B687D"/>
</g>
<mask id="mask22_292_113692" style="mask-type:luminance" maskUnits="userSpaceOnUse" x="65" y="15" width="2" height="1">
<path d="M65.7812 15.4375H66.3802V15.7448H65.7812V15.4375Z" fill="white"/>
</mask>
<g mask="url(#mask22_292_113692)">
<path d="M65.7871 15.75C65.9642 15.75 66.1204 15.6615 66.2402 15.5312C66.1257 15.6615 65.9694 15.7448 65.7923 15.75C65.7923 15.75 65.7923 15.75 65.7871 15.75Z" fill="#485C6C"/>
</g>
<mask id="mask23_292_113692" style="mask-type:luminance" maskUnits="userSpaceOnUse" x="61" y="15" width="6" height="1">
<path d="M61.4531 15.1406H66.5313V15.7448H61.4531V15.1406Z" fill="white"/>
</mask>
<g mask="url(#mask23_292_113692)">
<path d="M62 15.7503C61.9948 15.7503 61.9948 15.7503 61.9948 15.7503C61.8229 15.7451 61.6615 15.6618 61.5469 15.5316C61.6667 15.6618 61.8229 15.7503 62 15.7503ZM66.2813 15.4795H61.6719V15.167H66.4167C66.3906 15.2816 66.3438 15.391 66.2813 15.4795Z" fill="#485C6C"/>
</g>
<mask id="mask24_292_113692" style="mask-type:luminance" maskUnits="userSpaceOnUse" x="60" y="14" width="2" height="2">
<path d="M60.5625 14.709H61.8958V15.7454H60.5625V14.709Z" fill="white"/>
</mask>
<g mask="url(#mask24_292_113692)">
<path d="M61.6712 15.4795H61.5046C61.4421 15.391 61.3952 15.2816 61.3691 15.167H61.6712V15.4795Z" fill="#5A7789"/>
</g>
<mask id="mask25_292_113692" style="mask-type:luminance" maskUnits="userSpaceOnUse" x="61" y="15" width="5" height="1">
<path d="M61.4531 15.4375H65.8958V15.7448H61.4531V15.4375Z" fill="white"/>
</mask>
<g mask="url(#mask25_292_113692)">
<path d="M61.5469 15.5316C61.5417 15.5264 61.5365 15.516 61.5312 15.5107C61.5312 15.5107 61.5365 15.516 61.5365 15.5212C61.5417 15.5212 61.5469 15.5264 61.5469 15.5316Z" fill="#596D7A"/>
</g>
<mask id="mask26_292_113692" style="mask-type:luminance" maskUnits="userSpaceOnUse" x="60" y="14" width="2" height="2">
<path d="M60.5625 14.709H61.8958V15.7454H60.5625V14.709Z" fill="white"/>
</mask>
<g mask="url(#mask26_292_113692)">
<path d="M61.5371 15.5212C61.5371 15.516 61.5319 15.5107 61.5319 15.5107C61.5215 15.5003 61.5163 15.4899 61.5059 15.4795C61.5163 15.4951 61.5267 15.5055 61.5371 15.5212Z" fill="#698493"/>
</g>
<mask id="mask27_292_113692" style="mask-type:luminance" maskUnits="userSpaceOnUse" x="61" y="15" width="6" height="1">
<path d="M61.4531 15.4375H66.3802V15.7448H61.4531V15.4375Z" fill="white"/>
</mask>
<g mask="url(#mask27_292_113692)">
<path d="M65.7819 15.7503H62.0059H62.0007C61.8236 15.7503 61.6673 15.6618 61.5475 15.5316C61.5475 15.5264 61.5423 15.5212 61.5371 15.5212C61.584 15.568 61.6361 15.6149 61.6934 15.6462C61.6882 15.6097 61.6725 15.5785 61.6725 15.542V15.4795H66.2819C66.2663 15.4951 66.2507 15.516 66.2402 15.5316C66.1204 15.6618 65.9642 15.7503 65.7871 15.7503H65.7819Z" fill="#677A87"/>
</g>
<mask id="mask28_292_113692" style="mask-type:luminance" maskUnits="userSpaceOnUse" x="60" y="14" width="2" height="2">
<path d="M60.5625 14.709H61.8958V15.7454H60.5625V14.709Z" fill="white"/>
</mask>
<g mask="url(#mask28_292_113692)">
<path d="M61.6934 15.6462C61.6361 15.6149 61.584 15.568 61.5371 15.5212C61.5267 15.5055 61.5163 15.4951 61.5059 15.4795H61.6725V15.542C61.6725 15.5785 61.6882 15.6097 61.6934 15.6462Z" fill="#76909D"/>
</g>
<mask id="mask29_292_113692" style="mask-type:luminance" maskUnits="userSpaceOnUse" x="0" y="0" width="8" height="16">
<path d="M0 0.0419922H7.22917V15.7451H0V0.0419922Z" fill="white"/>
</mask>
<g mask="url(#mask29_292_113692)">
<path d="M6.76563 15.1878H0.15625C0.114583 15.1878 0.078125 15.1514 0.078125 15.1097V0.640951C0.078125 0.594075 0.114583 0.557617 0.15625 0.557617H6.76563C6.80729 0.557617 6.84375 0.594075 6.84375 0.640951V15.1097C6.84375 15.1514 6.80729 15.1878 6.76563 15.1878Z" fill="#567890"/>
</g>
<mask id="mask30_292_113692" style="mask-type:luminance" maskUnits="userSpaceOnUse" x="0" y="0" width="8" height="16">
<path d="M0.5625 0.0419922H7.22917V15.7451H0.5625V0.0419922Z" fill="white"/>
</mask>
<g mask="url(#mask30_292_113692)">
<path d="M6.35417 15.1305C6.53125 14.9743 6.65625 14.7399 6.65625 14.4587V1.53678C6.65625 1.2972 6.56771 1.08366 6.43229 0.927409C6.5625 0.937826 6.68229 1.00033 6.78646 1.07845C6.67708 0.786784 6.43229 0.578451 6.14583 0.562826C6.53646 0.583659 6.84375 0.953451 6.84375 1.41178V14.3337C6.84375 14.7035 6.63542 15.0107 6.35417 15.1305Z" fill="#719FBB"/>
</g>
<mask id="mask31_292_113692" style="mask-type:luminance" maskUnits="userSpaceOnUse" x="0" y="0" width="8" height="16">
<path d="M0 0.0419922H7.22917V15.7451H0V0.0419922Z" fill="white"/>
</mask>
<g mask="url(#mask31_292_113692)">
<path d="M0.416667 15.0316C0.218751 14.8805 0.078125 14.6305 0.078125 14.3337V1.41178C0.078125 0.943033 0.406249 0.562825 0.8125 0.557617C0.651041 0.557617 0.505208 0.635741 0.380208 0.739909C0.458334 0.708658 0.531249 0.687825 0.619792 0.682617C0.609374 0.713867 0.609375 0.739909 0.609375 0.765951V1.13574C0.453126 1.29199 0.359375 1.52116 0.359375 1.77637V14.6982C0.359375 14.818 0.380208 14.9326 0.416667 15.0316ZM6.43229 0.927409C6.41667 0.927409 6.40104 0.922201 6.38542 0.922201H6.34375V0.838867C6.375 0.86491 6.40625 0.89616 6.43229 0.927409Z" fill="#6A94B0"/>
</g>
<mask id="mask32_292_113692" style="mask-type:luminance" maskUnits="userSpaceOnUse" x="0" y="0" width="8" height="2">
<path d="M0 0.0419922H7.22917V1.37533H0V0.0419922Z" fill="white"/>
</mask>
<g mask="url(#mask32_292_113692)">
<path d="M6.78711 1.07845C6.68294 1.00033 6.56315 0.937826 6.43294 0.927409C6.4069 0.89616 6.37565 0.86491 6.3444 0.838867V0.765951C6.3444 0.708659 6.32357 0.661785 6.31315 0.609701C6.24544 0.583659 6.18294 0.557617 6.10482 0.557617C6.11003 0.557617 6.11003 0.557617 6.11003 0.557617C6.11523 0.557617 6.11523 0.557617 6.11523 0.557617H6.12044C6.12044 0.557617 6.12044 0.557617 6.12565 0.557617C6.12565 0.557617 6.12565 0.557617 6.13086 0.557617H6.13607V0.562826H6.14128C6.14128 0.562826 6.14128 0.562826 6.14648 0.562826C6.43294 0.578451 6.67773 0.786784 6.78711 1.07845ZM0.380859 0.739909C0.505859 0.635741 0.651692 0.557617 0.813151 0.557617C0.818359 0.557617 0.818359 0.557617 0.818359 0.557617C0.755859 0.557617 0.698566 0.583659 0.636068 0.599284C0.630858 0.630533 0.625651 0.656576 0.620443 0.682617C0.5319 0.687825 0.458985 0.708658 0.380859 0.739909Z" fill="#7CB0D0"/>
</g>
<mask id="mask33_292_113692" style="mask-type:luminance" maskUnits="userSpaceOnUse" x="5" y="0" width="3" height="16">
<path d="M5.89648 0.0419922H7.22982V15.7451H5.89648V0.0419922Z" fill="white"/>
</mask>
<g mask="url(#mask33_292_113692)">
<path d="M6.10417 15.1875H6.01562V0.921875H6.34375V14.9792C6.34375 15.0365 6.32292 15.0885 6.3125 15.1406C6.24479 15.1615 6.18229 15.1875 6.10417 15.1875Z" fill="#314453"/>
</g>
<path d="M6.34375 0.922526H6.01562V0.693359C6.13542 0.714193 6.25 0.761067 6.34375 0.839193V0.922526Z" fill="#3D5566"/>
<path d="M6.34375 0.838867C6.25 0.760742 6.13542 0.713867 6.01562 0.693034V0.557617H6.10417C6.18229 0.557617 6.24479 0.583659 6.3125 0.609701C6.32292 0.661785 6.34375 0.708659 6.34375 0.765951V0.838867Z" fill="#486479"/>
<mask id="mask34_292_113692" style="mask-type:luminance" maskUnits="userSpaceOnUse" x="0" y="0" width="2" height="16">
<path d="M0.5625 0.0419922H1.89583V15.7451H0.5625V0.0419922Z" fill="white"/>
</mask>
<g mask="url(#mask34_292_113692)">
<path d="M0.90625 15.1875H0.817708C0.755208 15.1875 0.697915 15.1615 0.635417 15.1458C0.624999 15.0885 0.609375 15.0365 0.609375 14.9792V1.13542C0.692708 1.05208 0.791667 0.989584 0.90625 0.953125V15.1875Z" fill="#6A8EA3"/>
</g>
<path d="M0.609375 1.13574V0.765951C0.609375 0.739909 0.609374 0.713867 0.619792 0.682617H0.625H0.90625V0.953451C0.791667 0.989909 0.692708 1.05241 0.609375 1.13574Z" fill="#7AA7BF"/>
<path d="M0.621094 0.682617C0.626302 0.656576 0.631509 0.630533 0.636719 0.599284C0.699217 0.583659 0.75651 0.557617 0.81901 0.557617H0.907552V0.682617H0.626302H0.621094Z" fill="#8ABED8"/>
<mask id="mask35_292_113692" style="mask-type:luminance" maskUnits="userSpaceOnUse" x="0" y="0" width="7" height="16">
<path d="M0.824219 0H6.05339V15.7448H0.824219V0Z" fill="white"/>
</mask>
<g mask="url(#mask35_292_113692)">
<path d="M5.94466 15.75H0.98112C0.939453 15.75 0.908203 15.7188 0.908203 15.6771V0.0677083C0.908203 0.031251 0.939453 0 0.98112 0H5.94466C5.98633 0 6.01758 0.031251 6.01758 0.0677083V15.6771C6.01758 15.7188 5.98633 15.75 5.94466 15.75Z" fill="#3F586A"/>
<path d="M5.36133 15.75C5.53841 15.7448 5.69466 15.6615 5.80924 15.5313C5.82487 15.5156 5.83529 15.4948 5.85091 15.4792C5.91341 15.3906 5.96029 15.2813 5.98633 15.1667H1.24154V13.6771H3.94987C4.31966 13.6771 4.61654 13.3333 4.61654 12.9063V0.557292H5.68945C5.80404 0.557292 5.9082 0.598958 6.00195 0.661458C5.95508 0.291666 5.69466 0 5.36133 0C5.72591 0.005208 6.01758 0.343749 6.01758 0.765625V14.9792C6.01758 15.401 5.72591 15.7448 5.36133 15.75ZM1.56445 15.75C1.20508 15.7448 0.908203 15.4063 0.908203 14.9844C0.908203 15.1927 0.981119 15.375 1.10091 15.5104C1.10612 15.5156 1.11133 15.5208 1.11654 15.5313C1.23112 15.6615 1.38737 15.7448 1.56445 15.75Z" fill="#374D5D"/>
</g>
<mask id="mask36_292_113692" style="mask-type:luminance" maskUnits="userSpaceOnUse" x="0" y="0" width="6" height="16">
<path d="M0.5625 0H5.89583V15.7448H0.5625V0Z" fill="white"/>
</mask>
<g mask="url(#mask36_292_113692)">
<path d="M1.23958 13.6771H0.90625V0.765625C0.90625 0.343749 1.20313 0 1.57292 0H4.61458V0.557292H1.90625C1.54167 0.557292 1.23958 0.901041 1.23958 1.32813V13.6771Z" fill="#527189"/>
</g>
<mask id="mask37_292_113692" style="mask-type:luminance" maskUnits="userSpaceOnUse" x="0" y="0" width="8" height="16">
<path d="M0.5625 0H7.22917V15.7448H0.5625V0Z" fill="white"/>
</mask>
<g mask="url(#mask37_292_113692)">
<path d="M1.09896 15.5104C0.979166 15.375 0.90625 15.1927 0.90625 14.9844V14.9792V13.6771H1.23958V15.1667H0.9375C0.963541 15.2813 1.01042 15.3906 1.07813 15.4792H1.07292C1.08333 15.4896 1.08854 15.5 1.09896 15.5104ZM6 0.661458C5.90625 0.598958 5.80208 0.557292 5.6875 0.557292H4.61458V0H5.34896C5.35417 0 5.35417 0 5.35417 0C5.35937 0 5.35938 0 5.35938 0C5.69271 0 5.95313 0.291666 6 0.661458Z" fill="#4B687D"/>
</g>
<mask id="mask38_292_113692" style="mask-type:luminance" maskUnits="userSpaceOnUse" x="0" y="15" width="2" height="1">
<path d="M0.974609 15.4375H1.57357V15.7448H0.974609V15.4375Z" fill="white"/>
</mask>
<g mask="url(#mask38_292_113692)">
<path d="M1.56836 15.75H1.56315C1.38607 15.7448 1.22982 15.6615 1.11523 15.5312C1.23503 15.6615 1.39128 15.75 1.56836 15.75Z" fill="#485C6C"/>
</g>
<mask id="mask39_292_113692" style="mask-type:luminance" maskUnits="userSpaceOnUse" x="1" y="15" width="6" height="1">
<path d="M1.125 15.1406H6.05208V15.7448H1.125V15.1406Z" fill="white"/>
</mask>
<g mask="url(#mask39_292_113692)">
<path d="M5.35482 15.7503C5.5319 15.7503 5.68815 15.6618 5.80794 15.5316C5.69336 15.6618 5.53711 15.7451 5.36003 15.7503C5.35482 15.7503 5.35482 15.7503 5.35482 15.7503ZM5.84961 15.4795H1.24023V15.167H5.98503C5.95898 15.2816 5.91211 15.391 5.84961 15.4795Z" fill="#485C6C"/>
</g>
<mask id="mask40_292_113692" style="mask-type:luminance" maskUnits="userSpaceOnUse" x="0" y="14" width="2" height="2">
<path d="M0.5625 14.709H1.89583V15.7454H0.5625V14.709Z" fill="white"/>
</mask>
<g mask="url(#mask40_292_113692)">
<path d="M1.23958 15.4795H1.07813C1.01042 15.391 0.963541 15.2816 0.9375 15.167H1.23958V15.4795Z" fill="#5A7789"/>
</g>
<mask id="mask41_292_113692" style="mask-type:luminance" maskUnits="userSpaceOnUse" x="0" y="15" width="2" height="1">
<path d="M0.974609 15.4375H1.89648V15.7448H0.974609V15.4375Z" fill="white"/>
</mask>
<g mask="url(#mask41_292_113692)">
<path d="M1.11523 15.5316C1.11003 15.5212 1.10482 15.516 1.09961 15.5107L1.10482 15.516C1.11003 15.5212 1.11523 15.5264 1.11523 15.5316Z" fill="#596D7A"/>
</g>
<mask id="mask42_292_113692" style="mask-type:luminance" maskUnits="userSpaceOnUse" x="0" y="14" width="2" height="2">
<path d="M0.5625 14.709H1.89583V15.7454H0.5625V14.709Z" fill="white"/>
</mask>
<g mask="url(#mask42_292_113692)">
<path d="M1.10352 15.516L1.09831 15.5107C1.08789 15.5003 1.08268 15.4899 1.07227 15.4795H1.07747C1.08268 15.4899 1.0931 15.5055 1.10352 15.516Z" fill="#698493"/>
</g>
<mask id="mask43_292_113692" style="mask-type:luminance" maskUnits="userSpaceOnUse" x="0" y="15" width="6" height="1">
<path d="M0.974609 15.4375H5.89648V15.7448H0.974609V15.4375Z" fill="white"/>
</mask>
<g mask="url(#mask43_292_113692)">
<path d="M5.35026 15.7503H1.57422H1.56901C1.39193 15.7503 1.23568 15.6618 1.11589 15.5316C1.11589 15.5264 1.11068 15.5212 1.10547 15.516C1.15234 15.568 1.20443 15.6149 1.26172 15.6462C1.25651 15.6097 1.24089 15.5785 1.24089 15.542V15.4795H5.85026C5.83464 15.4951 5.82422 15.516 5.80859 15.5316C5.6888 15.6618 5.53255 15.7503 5.35547 15.7503C5.35547 15.7503 5.35547 15.7503 5.35026 15.7503Z" fill="#677A87"/>
</g>
<mask id="mask44_292_113692" style="mask-type:luminance" maskUnits="userSpaceOnUse" x="0" y="14" width="2" height="2">
<path d="M0.5625 14.709H1.89583V15.7454H0.5625V14.709Z" fill="white"/>
</mask>
<g mask="url(#mask44_292_113692)">
<path d="M1.26042 15.6462C1.20312 15.6149 1.15104 15.568 1.10417 15.516C1.09375 15.5055 1.08333 15.4899 1.07812 15.4795H1.23958V15.542C1.23958 15.5785 1.25521 15.6097 1.26042 15.6462Z" fill="#76909D"/>
</g>
</svg>
