<svg width="35" height="68" viewBox="0 0 35 68" fill="none" xmlns="http://www.w3.org/2000/svg">
<path d="M10.25 59.7858V36.7962C10.25 34.8327 10.7708 32.9004 11.7552 31.2025L22.3021 13.041L10.25 59.7858Z" fill="#3F586A"/>
<path d="M29.2194 17.0465L22.959 27.8226L19.8288 33.2132L18.5632 35.4111C18.4329 35.6768 18.3444 35.958 18.2923 36.2497L18.2402 59.7861H2.25586V37.9788L2.26628 36.1559C2.29753 35.2653 2.39128 34.3747 2.54232 33.4997C2.85482 31.7445 3.4069 30.0309 4.18815 28.432L4.81315 27.2497L5.21419 26.557L6.00065 25.208L15.3913 9.03613L29.2194 17.0465Z" fill="#78AAC9"/>
<path d="M15.6934 9.21322L6.30273 25.3851L5.51628 26.7288L5.11523 27.4268L4.50065 28.583C3.73503 30.1559 3.19336 31.8382 2.88607 33.557C2.73503 34.4215 2.64648 35.2913 2.61523 36.1663L2.60482 37.9788V59.7861H2.25586V37.9788L2.26628 36.1559C2.29753 35.2653 2.39128 34.3747 2.54232 33.4997C2.85482 31.7445 3.4069 30.0309 4.18815 28.432L4.81315 27.2497L5.21419 26.557L6.00065 25.208L15.3913 9.03613L15.6934 9.21322Z" fill="#5F859F"/>
<path d="M8.80895 54.9528H6.97562V41.0934C7.05895 38.9163 6.7777 37.2497 7.19437 34.3122C7.42353 32.9893 7.8402 31.6976 8.42874 30.4893C9.11103 29.1611 9.5277 28.557 10.0798 27.5726L13.21 22.182L17.96 14.0049L19.5381 14.9424L14.7985 23.0986L11.6683 28.4893C10.6787 30.1715 9.33499 32.2705 9.00166 34.6247C8.63708 37.0726 8.88187 38.9788 8.80895 41.0934V54.9528Z" fill="#89B9D2"/>
<path d="M4.89583 54.9528H3.0625V37.9788L3.07292 36.182C3.10417 35.3278 3.19271 34.4788 3.33854 33.6351C3.63542 31.958 4.16667 30.3174 4.91146 28.7861L5.51042 27.6559L5.91667 26.958L6.69792 25.6143L9.82813 20.2236L14.599 12.0049L16.1771 12.9424L11.4167 21.1403L8.28125 26.5309L7.5 27.8799L7.10417 28.5674L6.5625 29.583C5.89063 30.9684 5.41146 32.4424 5.14583 33.9528C4.85417 35.4736 4.89583 37.1507 4.89583 37.9788V54.9528ZM16.8906 10.7601L15.724 10.0674H15.7292L16.8906 10.7601Z" fill="#89B9D2"/>
<path d="M6.97471 54.9528H4.89659V37.9788C4.89659 37.1507 4.85492 35.4736 5.14659 33.9528C5.41221 32.4424 5.89138 30.9684 6.56326 29.583L7.10492 28.5674L7.50076 27.8799L8.28201 26.5309L11.4174 21.1403L16.1778 12.9424L17.9591 14.0049L13.2091 22.182L10.0789 27.5726C9.5268 28.557 9.11013 29.1611 8.42784 30.4893C7.8393 31.6976 7.42263 32.9893 7.19346 34.3122C6.7768 37.2497 7.05805 38.9163 6.97471 41.0934V54.9528Z" fill="#B0D6E7"/>
<path d="M17.1301 54.9528H12.6926V41.0934C12.7447 39.0986 12.5728 36.6924 12.828 35.2966C13.0624 33.6611 13.8853 32.3851 15.026 30.4372L18.1562 25.0465L22.8749 16.9268L26.6822 19.1976L21.9947 27.2653L18.8645 32.6559L17.5624 34.9216C17.3853 35.2809 17.2603 35.6663 17.1926 36.057C17.1562 36.2549 17.1353 36.4528 17.1301 36.6507V54.9528Z" fill="#699ABC"/>
<path d="M17.8757 54.9525H17.1309V36.6504C17.1361 36.4525 17.1569 36.2546 17.1934 36.0566C17.2611 35.666 17.3861 35.2806 17.5632 34.9212L18.8652 32.6556L21.9954 27.265L26.6829 19.1973L27.3184 19.5775L22.6413 27.64L19.5111 33.0306L18.2298 35.2493C18.0892 35.5462 17.985 35.8639 17.9277 36.1868C17.9017 36.3483 17.8809 36.515 17.8757 36.6764V54.9525Z" fill="#76ADD0"/>
<path d="M18.25 56.1094V54.9531H17.875V36.6771C17.8802 36.5156 17.901 36.349 17.9271 36.1875C17.9844 35.8646 18.0885 35.5469 18.2292 35.25L19.5104 33.0313L22.6406 27.6406L27.3177 19.5781L27.6354 19.7656L28.1927 18.8125L22.9583 27.8229L19.8281 33.2135L18.5625 35.4115C18.4323 35.6771 18.3437 35.9583 18.2917 36.25L18.25 56.1094Z" fill="#B8DFEE"/>
<mask id="mask0_292_113690" style="mask-type:luminance" maskUnits="userSpaceOnUse" x="0" y="57" width="20" height="11">
<path d="M0.59375 57.1299H19.8125V67.3382H0.59375V57.1299Z" fill="white"/>
</mask>
<g mask="url(#mask0_292_113690)">
<path d="M19.765 57.2396V67.2865C19.765 67.3125 19.7441 67.3385 19.7129 67.3385H0.780599C0.754558 67.3385 0.728516 67.3125 0.728516 67.2865V57.2396C0.728516 57.2083 0.754558 57.1875 0.780599 57.1875H19.7129C19.7441 57.1875 19.765 57.2083 19.765 57.2396Z" fill="#567890"/>
</g>
<path d="M0.735677 58.2031C0.782552 57.6354 1.25651 57.1875 1.83984 57.1875H18.6576C19.1419 57.1875 19.543 57.4948 19.694 57.9271C19.4909 57.6563 19.1836 57.4688 18.8242 57.4688H2.0013C1.69401 57.4688 1.40755 57.599 1.20964 57.8073C1.22526 57.6094 1.30339 57.4323 1.40755 57.276C1.03776 57.4323 0.766926 57.7865 0.735677 58.2031Z" fill="#719FBB"/>
<mask id="mask1_292_113690" style="mask-type:luminance" maskUnits="userSpaceOnUse" x="0" y="57" width="20" height="11">
<path d="M0.59375 57.7236H19.6615V67.3382H0.59375V57.7236Z" fill="white"/>
</mask>
<g mask="url(#mask1_292_113690)">
<path d="M18.6556 67.3379H1.83789C1.22851 67.3379 0.733725 66.8431 0.728516 66.2337C0.728516 66.4785 0.827474 66.6973 0.968099 66.8848C0.926432 66.7702 0.895182 66.6504 0.889974 66.5254C0.926433 66.5358 0.96289 66.541 0.999349 66.541H1.48372C1.68685 66.7702 1.98372 66.916 2.31185 66.916H19.1348C19.2858 66.916 19.4316 66.8848 19.5671 66.8275C19.3691 67.1296 19.0462 67.3379 18.6556 67.3379ZM1.20247 57.9421H1.0931C1.12956 57.89 1.16602 57.8483 1.20768 57.8066C1.20247 57.8275 1.20247 57.8483 1.20247 57.8743V57.9421Z" fill="#6A94B0"/>
</g>
<mask id="mask2_292_113690" style="mask-type:luminance" maskUnits="userSpaceOnUse" x="0" y="57" width="2" height="11">
<path d="M0.261719 57.0361H1.59505V67.3538H0.261719V57.0361Z" fill="white"/>
</mask>
<g mask="url(#mask2_292_113690)">
<path d="M0.970052 66.8848C0.829427 66.6973 0.730469 66.4785 0.730469 66.2337C0.730469 66.2285 0.730469 66.2285 0.730469 66.2285C0.730469 66.3275 0.761719 66.4108 0.78776 66.4993C0.824219 66.5046 0.855468 66.5202 0.891927 66.5254C0.897135 66.6504 0.928385 66.7702 0.970052 66.8848ZM0.730469 58.2962C0.730469 58.291 0.730469 58.291 0.730469 58.291V58.2858C0.730469 58.2858 0.730469 58.2858 0.730469 58.2806V58.2754C0.730469 58.2754 0.730469 58.2754 0.730469 58.2702C0.730469 58.265 0.730469 58.265 0.730469 58.265C0.730469 58.265 0.730469 58.265 0.730469 58.2598C0.730469 58.2546 0.730469 58.2546 0.730469 58.2546C0.730469 58.2546 0.730469 58.2546 0.730469 58.2493C0.730469 58.2441 0.730469 58.2441 0.730469 58.2441C0.730469 58.2441 0.730469 58.2441 0.730469 58.2389V58.2337C0.730469 58.2337 0.730468 58.2337 0.735677 58.2337C0.735677 58.2337 0.735677 58.2337 0.735677 58.2285V58.2233C0.735677 58.2181 0.735677 58.2181 0.735677 58.2181V58.2129V58.2077C0.735677 58.2025 0.735677 58.2025 0.735677 58.2025C0.766926 57.7858 1.03776 57.4316 1.40755 57.2754C1.30339 57.4316 1.22526 57.6087 1.20964 57.8066C1.16797 57.8483 1.13151 57.89 1.09505 57.9421H1.0013C0.928385 57.9421 0.865885 57.9681 0.792969 57.9837C0.761718 58.0827 0.730469 58.1816 0.730469 58.2962Z" fill="#7CB0D0"/>
</g>
<path d="M19.7656 58.4268H1.20312V57.9424H19.4948C19.5729 57.9424 19.6354 57.9684 19.7031 57.984C19.7344 58.083 19.7656 58.182 19.7656 58.2965V58.4268Z" fill="#314453"/>
<path d="M1.20443 58.4268H0.902344C0.928385 58.2497 0.996093 58.083 1.09505 57.9424H1.20443V58.4268Z" fill="#3D5566"/>
<path d="M0.902344 58.4268H0.730469V58.2965C0.730469 58.182 0.761718 58.083 0.792969 57.984C0.865885 57.9684 0.928385 57.9424 1.0013 57.9424H1.09505C0.996093 58.083 0.928385 58.2497 0.902344 58.4268Z" fill="#486479"/>
<mask id="mask3_292_113690" style="mask-type:luminance" maskUnits="userSpaceOnUse" x="0" y="65" width="21" height="3">
<path d="M0.261719 65.0361H20.2617V67.3538H0.261719V65.0361Z" fill="white"/>
</mask>
<g mask="url(#mask3_292_113690)">
<path d="M19.4961 66.5417H1.48568C1.37109 66.4167 1.28776 66.2656 1.24609 66.0938H19.7669V66.2292C19.7669 66.3281 19.7357 66.4115 19.7148 66.5C19.6419 66.5156 19.5742 66.5417 19.4961 66.5417Z" fill="#6A8EA3"/>
</g>
<mask id="mask4_292_113690" style="mask-type:luminance" maskUnits="userSpaceOnUse" x="0" y="65" width="2" height="3">
<path d="M0.261719 65.0361H1.59505V67.3538H0.261719V65.0361Z" fill="white"/>
</mask>
<g mask="url(#mask4_292_113690)">
<path d="M1.48633 66.5417H1.00195C0.965494 66.5417 0.929037 66.5365 0.892578 66.526C0.892578 66.5208 0.892578 66.5208 0.892578 66.5156V66.0938H1.24674C1.28841 66.2656 1.37174 66.4167 1.48633 66.5417Z" fill="#7AA7BF"/>
<path d="M0.891927 66.526C0.855468 66.5208 0.824219 66.5052 0.78776 66.5C0.761719 66.4115 0.730469 66.3281 0.730469 66.2292V66.0938H0.891927V66.5156C0.891927 66.5208 0.891927 66.5208 0.891927 66.526Z" fill="#8ABED8"/>
</g>
<mask id="mask5_292_113690" style="mask-type:luminance" maskUnits="userSpaceOnUse" x="0" y="58" width="22" height="9">
<path d="M0 58.3691H21.5938V66.3691H0V58.3691Z" fill="white"/>
</mask>
<g mask="url(#mask5_292_113690)">
<path d="M20.5 58.4736V66.0465C20.5 66.0726 20.474 66.0934 20.4531 66.0934H0.046875C0.0208323 66.0934 0 66.0726 0 66.0465V58.4736C0 58.4476 0.0208323 58.4268 0.046875 58.4268H20.4531C20.474 58.4268 20.5 58.4476 20.5 58.4736Z" fill="#3F586A"/>
<path d="M19.5 66.0934C19.7708 66.0934 20.0104 65.9788 20.1875 65.8018C20.1927 65.7965 20.2031 65.7913 20.2083 65.7809C20.3854 65.6091 20.4948 65.3747 20.5 65.1038C20.4948 65.6507 20.0469 66.0934 19.5 66.0934ZM19.7396 65.5934H17.8021V61.5309C17.8021 60.9788 17.3542 60.5361 16.8021 60.5361H0.729167V58.9215C0.729167 58.7497 0.786458 58.5986 0.859375 58.458C0.380208 58.5257 0.005208 58.9163 0 59.4163C0.005208 58.8695 0.453124 58.4268 1 58.4268H19.4948C20.0469 58.4268 20.4948 58.8695 20.5 59.4163C20.4948 59.1507 20.3854 58.9111 20.2083 58.7393C20.1875 58.7184 20.1667 58.6976 20.1458 58.682C20.0313 58.5882 19.8906 58.5153 19.7396 58.4788V65.5934Z" fill="#374D5D"/>
</g>
<mask id="mask6_292_113690" style="mask-type:luminance" maskUnits="userSpaceOnUse" x="0" y="58" width="21" height="9">
<path d="M0 58.3691H20.2604V66.3691H0V58.3691Z" fill="white"/>
</mask>
<g mask="url(#mask6_292_113690)">
<path d="M17.8021 66.0938H1C0.447916 66.0938 0 65.6458 0 65.099V60.5365H0.729167V64.5938C0.729167 65.1458 1.17708 65.5938 1.72917 65.5938H17.8021V66.0938Z" fill="#527189"/>
<path d="M19.4948 66.0934H17.8021V65.5934H19.7396V66.0465C19.8906 66.0049 20.0313 65.9372 20.1458 65.8382V65.8434C20.1615 65.8278 20.1719 65.8174 20.1875 65.8018C20.0104 65.9788 19.7708 66.0934 19.5 66.0934C19.5 66.0934 19.5 66.0934 19.4948 66.0934ZM0.729167 60.5361H0V59.4268C0 59.4268 0 59.4268 0 59.4215C0 59.4215 0 59.4215 0 59.4163C0.005208 58.9163 0.380208 58.5257 0.859375 58.458C0.786458 58.5986 0.729167 58.7497 0.729167 58.9215V60.5361Z" fill="#4B687D"/>
</g>
<path d="M20.1465 65.5931H19.7402V58.4785C19.8913 58.515 20.0319 58.5879 20.1465 58.6816V65.5931Z" fill="#485C6C"/>
<path d="M19.7402 66.0469V65.5938H20.1465V65.8385C20.0319 65.9375 19.8913 66.0052 19.7402 66.0469Z" fill="#5A7789"/>
<path d="M20.209 65.7806C20.3861 65.6035 20.4954 65.3691 20.5007 65.1035C20.4954 65.3743 20.3861 65.6087 20.209 65.7806Z" fill="#485C6C"/>
<path d="M20.5007 59.4215C20.4954 59.1507 20.3809 58.9163 20.209 58.7393C20.3861 58.9111 20.4954 59.1507 20.5007 59.4163C20.5007 59.4163 20.5007 59.4163 20.5007 59.4215Z" fill="#485C6C"/>
<path d="M20.1875 65.8021C20.1927 65.8021 20.1927 65.7969 20.1979 65.7969C20.1979 65.7917 20.2031 65.7865 20.2083 65.7812C20.2031 65.7917 20.1927 65.7969 20.1875 65.8021Z" fill="#596D7A"/>
<path d="M20.1465 65.8438V65.8385C20.1621 65.8281 20.1829 65.8125 20.1986 65.7969C20.1934 65.7969 20.1934 65.8021 20.1882 65.8021C20.1725 65.8177 20.1621 65.8281 20.1465 65.8438Z" fill="#698493"/>
<path d="M20.209 58.7389C20.1881 58.7181 20.1673 58.7025 20.1465 58.6816C20.1673 58.6973 20.1881 58.7181 20.209 58.7389Z" fill="#596D7A"/>
<path d="M20.1986 65.7962C20.2611 65.7285 20.3184 65.6504 20.3652 65.5618C20.3184 65.5723 20.2767 65.5931 20.2298 65.5931H20.1465V58.6816C20.1673 58.7025 20.1881 58.7181 20.209 58.7389C20.3809 58.916 20.4954 59.1504 20.5007 59.4212C20.5007 59.4264 20.5007 59.4264 20.5007 59.4264V65.0983C20.5007 65.1035 20.5007 65.1035 20.5007 65.1035C20.4954 65.3691 20.3861 65.6035 20.209 65.7806C20.2038 65.7858 20.1986 65.791 20.1986 65.7962Z" fill="#677A87"/>
<path d="M20.1465 65.8385V65.5938H20.2298C20.2767 65.5938 20.3184 65.5729 20.3652 65.5625C20.3184 65.651 20.2611 65.7292 20.1986 65.7969C20.1829 65.8125 20.1621 65.8281 20.1465 65.8385Z" fill="#76909D"/>
<path d="M12.694 57.1875H8.80859V54.9531H12.694V57.1875ZM3.0638 57.1875H2.60547V54.9531H3.0638V57.1875Z" fill="#5C809A"/>
<path d="M2.25586 57.1875H2.60482V54.9531H2.25586V57.1875Z" fill="#506F84"/>
<path d="M6.97461 57.1875H8.80794V54.9531H6.97461V57.1875Z" fill="#63869E"/>
<path d="M3.0625 57.1875H4.89583V54.9531H3.0625V57.1875Z" fill="#63869E"/>
<path d="M4.89648 57.1875H6.97461V54.9531H4.89648V57.1875Z" fill="#7594A7"/>
<path d="M12.6934 57.1875H17.1309V54.9531H12.6934V57.1875Z" fill="#557994"/>
<path d="M17.1309 57.1875H17.8757V54.9531H17.1309V57.1875Z" fill="#5B829D"/>
<path d="M18.2448 57.1875H17.875V54.9531H18.25V56.1094L18.2448 57.1875Z" fill="#7998A9"/>
<path d="M22.8757 16.9268L19.5371 14.9424L20.6517 13.0205L23.985 15.0153L22.8757 16.9268ZM14.5996 12.0049L14.209 11.7705L15.334 9.83301L15.7246 10.0674L14.5996 12.0049Z" fill="#5C809A"/>
<path d="M14.2083 11.7708L13.9062 11.5885L15.0313 9.65625L15.3333 9.83333L14.2083 11.7708Z" fill="#506F84"/>
<path d="M19.5371 14.9421L17.959 14.0046L19.0788 12.0723L20.6517 13.0202L19.5371 14.9421Z" fill="#63869E"/>
<path d="M16.1777 12.9424L14.5996 12.0049L15.7246 10.0674L16.8913 10.7601L17.2975 11.0101L16.1777 12.9424Z" fill="#63869E"/>
<path d="M17.959 14.0046L16.1777 12.9421L17.2975 11.0098L19.0788 12.0723L17.959 14.0046Z" fill="#7594A7"/>
<path d="M26.6823 19.1979L22.875 16.9271L23.9844 15.0156L27.7865 17.2969L26.6823 19.1979Z" fill="#557994"/>
<path d="M27.319 19.5781L26.6836 19.1979L27.7878 17.2969L28.4232 17.6771L27.319 19.5781Z" fill="#5B829D"/>
<path d="M27.6361 19.7653L27.3184 19.5778L28.4225 17.6768L28.7402 17.8695L28.1934 18.8122L27.6361 19.7653Z" fill="#7998A9"/>
<mask id="mask7_292_113690" style="mask-type:luminance" maskUnits="userSpaceOnUse" x="13" y="0" width="22" height="19">
<path d="M13.4062 0.0205078H34.9896V18.6143H13.4062V0.0205078Z" fill="white"/>
</mask>
<g mask="url(#mask7_292_113690)">
<path d="M34.9841 9.83304L29.807 18.4476C29.7914 18.4685 29.7601 18.4789 29.7341 18.4633L13.4997 8.73409C13.4789 8.71846 13.4685 8.68721 13.4841 8.66117L18.6664 0.0465855C18.682 0.0257535 18.7133 0.0153352 18.7341 0.0309605L34.9685 9.76013C34.9945 9.77575 34.9997 9.807 34.9841 9.83304Z" fill="#567890"/>
</g>
<mask id="mask8_292_113690" style="mask-type:luminance" maskUnits="userSpaceOnUse" x="13" y="0" width="22" height="11">
<path d="M13.5938 0H34.9271V10.3698H13.5938V0Z" fill="white"/>
</mask>
<g mask="url(#mask8_292_113690)">
<path d="M34.0671 9.22363L19.6348 0.567383C19.6348 0.572591 19.64 0.572591 19.6452 0.572591L34.0618 9.21842C34.0618 9.21842 34.0671 9.21843 34.0671 9.22363Z" fill="#D2F1FC"/>
</g>
<mask id="mask9_292_113690" style="mask-type:luminance" maskUnits="userSpaceOnUse" x="17" y="0" width="18" height="12">
<path d="M17.5938 0H34.9271V11.7031H17.5938V0Z" fill="white"/>
</mask>
<g mask="url(#mask9_292_113690)">
<path d="M34.5684 10.3857C34.5319 10.0472 34.3652 9.7347 34.0579 9.5472L19.6361 0.901367C19.459 0.797199 19.2611 0.745117 19.0684 0.745117C18.9694 0.745117 18.8757 0.755533 18.7819 0.781576C18.8965 0.620117 19.0579 0.510742 19.2246 0.427409C19.1777 0.4222 19.1257 0.416992 19.0736 0.416992C19.2663 0.416992 19.459 0.463866 19.6361 0.568034L34.0684 9.22428C34.4746 9.46908 34.6569 9.93783 34.5684 10.3857Z" fill="#719FBB"/>
</g>
<path d="M28.8333 17.9268C28.8333 17.9215 28.8281 17.9215 28.8281 17.9215L28.7396 17.8695L28.8333 17.9268ZM15.0313 9.65072L14.4062 9.27572C14.4062 9.27572 14.4062 9.27572 14.4062 9.27051L15.0313 9.65072Z" fill="#DDF4FD"/>
<path d="M16.8971 10.7653L16.8919 10.7601L15.7305 10.0674L16.8971 10.7653Z" fill="#8EC4DF"/>
<path d="M17.2969 11.0098L16.8906 10.7598L16.8958 10.765L17.2969 11.0098Z" fill="#739FBB"/>
<path d="M29.3649 18.0677C29.1826 18.0677 29.0056 18.026 28.8337 17.9271L28.7399 17.8698L28.4222 17.6771L27.7868 17.2969L23.9847 15.0156L20.6514 13.0208L19.0785 12.0729L17.2972 11.0104L16.8962 10.7656L15.7295 10.0677L15.3337 9.82813L15.0316 9.65104L14.4066 9.27083C13.8858 8.95833 13.7191 8.28646 14.0212 7.76562C13.9014 7.97917 13.8701 8.21354 13.8962 8.4375C13.917 8.32292 13.9535 8.20312 14.016 8.09375C14.042 8.11979 14.0681 8.14583 14.0993 8.16146L14.5108 8.41146C14.5681 8.71354 14.7503 8.98958 15.0316 9.16146L29.4535 17.8021C29.5837 17.8854 29.7243 17.9323 29.8701 17.9531C29.7087 18.026 29.5368 18.0677 29.3649 18.0677Z" fill="#6A94B0"/>
<path d="M14.0215 7.76497C14.0267 7.76497 14.0267 7.76497 14.0267 7.75977C14.0267 7.75977 14.0267 7.75977 14.0267 7.76497H14.0215Z" fill="#BFEAFB"/>
<path d="M13.8972 8.4375C13.8712 8.21354 13.9024 7.97917 14.0222 7.76562H14.0274C13.9805 7.84375 13.9649 7.93229 13.9389 8.01563C13.9649 8.04167 13.991 8.06771 14.017 8.09375C13.9545 8.20312 13.918 8.32292 13.8972 8.4375Z" fill="#7CB0D0"/>
<mask id="mask10_292_113690" style="mask-type:luminance" maskUnits="userSpaceOnUse" x="17" y="0" width="2" height="2">
<path d="M17.5938 0H18.9271V1.03646H17.5938V0Z" fill="white"/>
</mask>
<g mask="url(#mask10_292_113690)">
<path d="M18.1191 0.952474C18.1243 0.947266 18.1296 0.942058 18.1296 0.931641V0.936849C18.1296 0.942058 18.1243 0.947266 18.1191 0.952474Z" fill="#DDF4FD"/>
<path d="M18.1289 0.937174V0.931966C18.1706 0.874674 18.2122 0.822592 18.2539 0.770508C18.2122 0.822592 18.1706 0.874674 18.1289 0.937174ZM18.7122 0.895508L18.6133 0.838216C18.6706 0.812175 18.7227 0.796548 18.7799 0.780924C18.7695 0.796548 18.7539 0.817384 18.7435 0.838216L18.7122 0.895508Z" fill="#6A94B0"/>
<path d="M18.1191 0.953125C18.1243 0.947917 18.1296 0.942709 18.1296 0.9375V0.942708C18.1243 0.942708 18.1243 0.947917 18.1191 0.953125Z" fill="#BFEAFB"/>
</g>
<mask id="mask11_292_113690" style="mask-type:luminance" maskUnits="userSpaceOnUse" x="17" y="0" width="4" height="2">
<path d="M17.5938 0H20.2604V1.03646H17.5938V0Z" fill="white"/>
</mask>
<g mask="url(#mask11_292_113690)">
<path d="M18.1309 0.943034V0.937826C18.1725 0.875326 18.2142 0.823243 18.2559 0.771159C18.4694 0.541992 18.7715 0.416992 19.0736 0.416992C19.1257 0.416992 19.1777 0.4222 19.2246 0.427409C19.0579 0.510742 18.8965 0.620117 18.7819 0.781576C18.7246 0.7972 18.6725 0.812826 18.6152 0.838867L18.5371 0.791992C18.4746 0.750326 18.4017 0.739909 18.3392 0.719076C18.2611 0.786784 18.1882 0.854491 18.1309 0.943034Z" fill="#7CB0D0"/>
</g>
<mask id="mask12_292_113690" style="mask-type:luminance" maskUnits="userSpaceOnUse" x="17" y="0" width="18" height="12">
<path d="M17.5938 0H34.9271V11.7031H17.5938V0Z" fill="white"/>
</mask>
<g mask="url(#mask12_292_113690)">
<path d="M34.3757 10.8538L18.459 1.31217L18.7142 0.895508L34.3913 10.2965C34.459 10.333 34.4954 10.3903 34.5475 10.4372C34.5215 10.5413 34.5007 10.6403 34.4434 10.7393L34.3757 10.8538Z" fill="#314453"/>
</g>
<mask id="mask13_292_113690" style="mask-type:luminance" maskUnits="userSpaceOnUse" x="17" y="0" width="2" height="3">
<path d="M17.5938 0H18.9271V2.36979H17.5938V0Z" fill="white"/>
</mask>
<g mask="url(#mask13_292_113690)">
<path d="M18.4596 1.31283L18.1992 1.15658C18.3138 1.01595 18.4596 0.906577 18.6159 0.838867L18.7148 0.896159L18.4596 1.31283Z" fill="#3D5566"/>
<path d="M18.0527 1.06738L18.1204 0.952799C18.1257 0.947591 18.1257 0.942383 18.1309 0.942383L18.0527 1.06738Z" fill="#6B8391"/>
<path d="M18.1986 1.15625L18.0527 1.06771L18.1309 0.942708C18.1882 0.854166 18.2611 0.786458 18.3392 0.71875C18.4017 0.739583 18.4746 0.75 18.5371 0.791667L18.6152 0.838542C18.459 0.906251 18.3132 1.01562 18.1986 1.15625Z" fill="#486479"/>
</g>
<path d="M30.3438 17.5518L30.4167 17.4268L30.349 17.5413C30.349 17.5465 30.3438 17.5518 30.3438 17.5518Z" fill="#F4FBFD"/>
<path d="M30.1627 17.7448C30.095 17.724 30.0221 17.7083 29.9596 17.6719L14.5117 8.41146C14.4856 8.24479 14.4909 8.07292 14.5377 7.90625L23.0273 12.9948L28.7356 16.4167L30.1888 17.2865C30.1888 17.2865 30.1888 17.2865 30.194 17.2917L30.4179 17.4271L30.345 17.5521C30.2929 17.6302 30.2252 17.6823 30.1627 17.7448Z" fill="#6A8EA3"/>
<path d="M14.5104 8.41113L14.099 8.16113C14.0677 8.14551 14.0417 8.11947 14.0156 8.09342C14.0156 8.09342 14.0208 8.08822 14.0208 8.08301L14.2396 7.72363L14.5365 7.90592C14.4896 8.07259 14.4844 8.24447 14.5104 8.41113Z" fill="#7AA7BF"/>
<path d="M14.0273 7.76563C14.0273 7.76042 14.0273 7.76042 14.0273 7.76042L14.0326 7.75521L14.1003 7.64062L14.0273 7.76563Z" fill="#C1EBFB"/>
<path d="M14.0156 8.09375C13.9896 8.06771 13.9635 8.04167 13.9375 8.01563C13.9635 7.93229 13.9792 7.84375 14.026 7.76563L14.099 7.64062L14.2396 7.72396L14.0208 8.08333C14.0208 8.08854 14.0156 8.09375 14.0156 8.09375Z" fill="#8ABED8"/>
<mask id="mask14_292_113690" style="mask-type:luminance" maskUnits="userSpaceOnUse" x="13" y="0" width="22" height="18">
<path d="M13.4062 0.619141H34.9896V17.8691H13.4062V0.619141Z" fill="white"/>
</mask>
<g mask="url(#mask14_292_113690)">
<path d="M34.9746 11.2653L31.0684 17.7601C31.0579 17.781 31.0267 17.7914 31.0059 17.7758L13.5111 7.29138C13.4902 7.27575 13.485 7.24971 13.4954 7.22367L17.4017 0.734086C17.4173 0.713251 17.4434 0.702836 17.4642 0.718461L34.959 11.2028C34.9798 11.2185 34.9902 11.2445 34.9746 11.2653Z" fill="#3F586A"/>
</g>
<path d="M30.7031 17.4323C30.5313 17.4323 30.3542 17.3854 30.1979 17.2917C30.349 17.3802 30.5156 17.4219 30.6823 17.4219C30.7604 17.4219 30.8438 17.4115 30.9219 17.3958C30.9323 17.3906 30.9479 17.3854 30.9635 17.3854C31.1979 17.3281 31.4115 17.1823 31.5521 16.9583C31.5521 16.9583 31.5521 16.9583 31.5521 16.9531C31.3646 17.2604 31.0365 17.4323 30.7031 17.4323ZM30.6563 16.9792L28.9948 15.9844L31.0885 12.5052C31.3698 12.0313 31.2188 11.4167 30.7448 11.1354L16.9688 2.875L17.7969 1.49479C17.8854 1.34375 18.0104 1.23958 18.151 1.16146C18.0208 1.10417 17.8854 1.07813 17.75 1.07813C17.4271 1.07813 17.1094 1.23438 16.9271 1.52604C17.1146 1.22917 17.4375 1.0625 17.7708 1.0625C17.9479 1.0625 18.125 1.10938 18.2865 1.20833L34.1406 10.7135C34.6042 10.9948 34.7604 11.5885 34.5 12.0573C34.625 11.8333 34.651 11.5833 34.5938 11.3542C34.5833 11.3229 34.5781 11.2917 34.5677 11.2656C34.5156 11.125 34.4323 10.9948 34.3229 10.8802L30.6563 16.9792ZM31.5521 16.9531H31.5573C31.5573 16.9531 31.5573 16.9531 31.5521 16.9531Z" fill="#374D5D"/>
<path d="M28.7343 16.416L23.0259 12.9941L14.328 7.7806C13.8593 7.49414 13.703 6.88477 13.9895 6.41081L14.1614 6.12435L16.9114 1.54622L16.3384 2.49935L16.9686 2.87435L14.8749 6.35352C14.5884 6.82747 14.7447 7.43685 15.2134 7.72331L28.9947 15.9837L28.7343 16.416Z" fill="#527189"/>
<path d="M30.1927 17.291C30.1875 17.2858 30.1875 17.2858 30.1875 17.2858L28.7344 16.416L30.1927 17.291Z" fill="#668BA2"/>
<path d="M30.6836 17.4219C30.5169 17.4219 30.3503 17.3802 30.1992 17.2917H30.194L28.7357 16.4167L28.9961 15.9844L30.6576 16.9792L30.4232 17.3698C30.5221 17.401 30.6211 17.4115 30.7201 17.4115C30.7721 17.4115 30.8242 17.4115 30.8763 17.401V17.4063C30.8919 17.401 30.9076 17.3958 30.9232 17.3958C30.8451 17.4115 30.7617 17.4219 30.6836 17.4219ZM16.9701 2.875L16.3398 2.5L16.9128 1.54688C16.918 1.54167 16.918 1.53646 16.9232 1.53125C16.9232 1.53125 16.9232 1.53125 16.9232 1.52604H16.9284C17.1107 1.23438 17.4284 1.07812 17.7513 1.07812C17.8867 1.07812 18.0221 1.10417 18.1523 1.16146C18.0117 1.23958 17.8867 1.34375 17.7982 1.49479L16.9701 2.875Z" fill="#4B687D"/>
<path d="M30.9635 17.3851C31.1979 17.3226 31.4115 17.182 31.5521 16.958C31.4115 17.182 31.1979 17.3278 30.9635 17.3851ZM31.0052 17.1872L30.6562 16.9788L34.3229 10.8799C34.4323 10.9945 34.5156 11.1247 34.5677 11.2653L31.0052 17.1872Z" fill="#485C6C"/>
<path d="M34.4902 12.0775V12.0723C34.4954 12.0671 34.4954 12.0618 34.5007 12.0566C34.4954 12.0618 34.4902 12.0723 34.4902 12.0775Z" fill="#4F6779"/>
<path d="M34.4902 12.0723C34.6257 11.8431 34.6465 11.5879 34.5944 11.3535C34.6517 11.5827 34.6257 11.8327 34.5007 12.0566C34.4954 12.0618 34.4954 12.0671 34.4902 12.0723Z" fill="#485C6C"/>
<path d="M30.7188 17.4108C30.6198 17.4108 30.5208 17.4004 30.4219 17.3691L30.6563 16.9785L31.0052 17.1868L30.875 17.4004C30.8229 17.4108 30.7708 17.4108 30.7188 17.4108Z" fill="#5A7789"/>
<path d="M30.9219 17.3952C30.9271 17.3952 30.9323 17.39 30.9375 17.39C30.9479 17.39 30.9531 17.3848 30.9635 17.3848C30.9479 17.3848 30.9323 17.39 30.9219 17.3952Z" fill="#596D7A"/>
<path d="M34.5944 11.3542C34.584 11.3229 34.5736 11.2969 34.5684 11.2656C34.5788 11.2917 34.584 11.3229 34.5944 11.3542Z" fill="#596D7A"/>
<path d="M30.875 17.4063V17.401C30.8958 17.401 30.9167 17.3958 30.9375 17.3906C30.9323 17.3906 30.9271 17.3958 30.9219 17.3958C30.9062 17.3958 30.8906 17.401 30.875 17.4063Z" fill="#698493"/>
<path d="M31.5586 16.9479L34.4909 12.0781C34.4857 12.0781 34.4857 12.0833 34.4857 12.0833L31.5586 16.9479Z" fill="#D6DAD9"/>
<path d="M30.9375 17.3906C31.0313 17.3646 31.1198 17.3281 31.2083 17.276C31.1615 17.2604 31.1146 17.2552 31.0729 17.2292L31.0052 17.1875L34.5677 11.2656C34.5729 11.2969 34.5833 11.3229 34.5938 11.3542C34.6458 11.5885 34.625 11.8438 34.4896 12.0729C34.4896 12.0729 34.4896 12.0729 34.4896 12.0781L31.5573 16.9479V16.9531C31.5521 16.9531 31.5521 16.9531 31.5521 16.9531C31.5521 16.9583 31.5521 16.9583 31.5521 16.9583C31.4115 17.1823 31.1979 17.3229 30.9635 17.3854C30.9531 17.3854 30.9479 17.3906 30.9375 17.3906Z" fill="#677A87"/>
<path d="M30.875 17.401L31.0052 17.1875L31.0729 17.2292C31.1146 17.2552 31.1615 17.2604 31.2083 17.276C31.1198 17.3281 31.0313 17.3646 30.9375 17.3906C30.9167 17.3958 30.8958 17.401 30.875 17.401Z" fill="#76909D"/>
</svg>
