<svg width="68" height="31" viewBox="0 0 68 31" fill="none" xmlns="http://www.w3.org/2000/svg">
<path d="M5.95898 21.3232H61.6725V9.12012H5.95898V21.3232Z" fill="#78AAC9"/>
<path d="M5.95898 9.38574H61.6725V9.12012H5.95898V9.38574Z" fill="#5F859F"/>
<path d="M59.4479 14.1195H38.4688C39.1302 13.6924 39.8333 13.2184 40.5781 12.7236H59.4479V14.1195ZM26.5052 14.1195H8.04688V12.7236H24.4063C25.1771 13.2288 25.875 13.7028 26.5052 14.1195ZM59.4479 11.1351H43.0052C43.7656 10.6611 44.5521 10.1872 45.3646 9.73926H59.4479V11.1351ZM21.9479 11.1351H8.04688V9.73926H19.5938C20.4323 10.2132 21.2135 10.682 21.9479 11.1351ZM35.3906 10.1768H31.0625C30.9688 10.0361 30.8698 9.88509 30.7656 9.73926H35.6927C35.5885 9.88509 35.4896 10.0361 35.3906 10.1768Z" fill="#89B9D2"/>
<path d="M59.4479 12.7243H40.5781C41.3438 12.2087 42.1563 11.6722 43.0052 11.1357H59.4479V12.7243ZM24.4063 12.7243H8.04688V11.1357H21.9479C22.8438 11.693 23.6615 12.2243 24.4063 12.7243Z" fill="#B0D6E7"/>
<path d="M59.4479 20.4743H42.7917C41.1615 19.4118 39.6823 18.3701 38.4115 17.5889V17.0889H59.4479V20.4743ZM23.7813 20.4743H8.04688V17.0889H26.9479V18.3753C26.0313 18.9899 24.9792 19.7035 23.7813 20.4743Z" fill="#699ABC"/>
<path d="M59.4479 21.0413H43.6771C43.3802 20.8538 43.0833 20.6611 42.7917 20.4736H59.4479V21.0413ZM22.8802 21.0413H8.04688V20.4736H23.7813C23.4896 20.6611 23.1875 20.8486 22.8802 21.0413Z" fill="#76ADD0"/>
<path d="M59.4479 21.3232H44.1302C43.9792 21.2295 43.8281 21.1357 43.6771 21.042H59.4479V21.3232ZM22.4271 21.3232H8.04688V21.042H22.8802C22.7292 21.1357 22.5781 21.2295 22.4271 21.3232Z" fill="#B8DFEE"/>
<path d="M8.04818 17.0889H7.16797V14.1201H8.04818V17.0889ZM8.04818 9.73991H7.16797V9.38574H8.04818V9.73991Z" fill="#537389"/>
<path d="M7.16797 9.38574H8.04818V9.12012H7.16797V9.38574Z" fill="#405A6C"/>
<path d="M8.04818 14.1195H7.16797V12.7236H8.04818V14.1195ZM8.04818 11.1351H7.16797V9.73926H8.04818V11.1351Z" fill="#5E7C8E"/>
<path d="M7.16797 12.7243H8.04818V11.1357H7.16797V12.7243Z" fill="#758F9C"/>
<path d="M7.16797 20.4743H8.04818V17.0889H7.16797V20.4743Z" fill="#486881"/>
<path d="M8.04818 21.0413H7.16797V20.4736H8.04818V21.0413Z" fill="#527690"/>
<path d="M7.16797 21.3232H8.04818V21.042H7.16797V21.3232Z" fill="#7A94A0"/>
<path d="M60.194 17.0889H59.4492V14.1201H60.194V17.0889ZM60.194 9.73991H59.4492V9.38574H60.194V9.73991Z" fill="#537389"/>
<path d="M59.4492 9.38574H60.194V9.12012H59.4492V9.38574Z" fill="#405A6C"/>
<path d="M60.194 14.1195H59.4492V12.7236H60.194V14.1195ZM60.194 11.1351H59.4492V9.73926H60.194V11.1351Z" fill="#5E7C8E"/>
<path d="M59.4492 12.7243H60.194V11.1357H59.4492V12.7243Z" fill="#758F9C"/>
<path d="M59.4492 20.4743H60.194V17.0889H59.4492V20.4743Z" fill="#486881"/>
<path d="M59.4492 21.0413H60.194V20.4736H59.4492V21.0413Z" fill="#527690"/>
<path d="M59.4492 21.3232H60.194V21.042H59.4492V21.3232Z" fill="#7A94A0"/>
<mask id="mask0_292_113689" style="mask-type:luminance" maskUnits="userSpaceOnUse" x="0" y="8" width="8" height="15">
<path d="M0 8.72949H7.42708V22.0628H0V8.72949Z" fill="white"/>
</mask>
<g mask="url(#mask0_292_113689)">
<path d="M7.11914 21.7083H0.176432C0.155599 21.7083 0.134766 21.6875 0.134766 21.6667V8.77604C0.134766 8.75521 0.155599 8.73438 0.176432 8.73438H7.11914C7.14518 8.73438 7.16602 8.75521 7.16602 8.77604V21.6667C7.16602 21.6875 7.14518 21.7083 7.11914 21.7083Z" fill="#567890"/>
</g>
<path d="M6.65755 21.6563C6.83984 21.5208 6.97005 21.3125 6.97005 21.0625V9.60417C6.97005 9.39063 6.88151 9.19792 6.74089 9.0625C6.8763 9.07292 6.99609 9.125 7.10547 9.19792C6.99089 8.93229 6.73047 8.74479 6.42839 8.73438C6.83984 8.75 7.16797 9.08333 7.16797 9.48958V20.9531C7.16797 21.2812 6.95443 21.5521 6.65755 21.6563Z" fill="#719FBB"/>
<mask id="mask1_292_113689" style="mask-type:luminance" maskUnits="userSpaceOnUse" x="0" y="8" width="8" height="15">
<path d="M0 8.72949H7.42708V22.0628H0V8.72949Z" fill="white"/>
</mask>
<g mask="url(#mask1_292_113689)">
<path d="M0.488932 21.5729C0.280599 21.4375 0.134766 21.2188 0.134766 20.9531V9.48958C0.134766 9.07292 0.478515 8.73438 0.900391 8.73438C0.728515 8.73438 0.577474 8.80208 0.447266 8.89583C0.525391 8.86979 0.608724 8.84896 0.697266 8.84896C0.686848 8.86979 0.686849 8.89583 0.686849 8.92188V9.25C0.525392 9.38542 0.426432 9.58854 0.426432 9.81771V21.276C0.426432 21.3802 0.447266 21.4792 0.488932 21.5729ZM6.73893 9.0625C6.72331 9.05729 6.70247 9.05729 6.68685 9.05729H6.64518V8.98438C6.67643 9.01042 6.70768 9.03125 6.73893 9.0625Z" fill="#6A94B0"/>
</g>
<mask id="mask2_292_113689" style="mask-type:luminance" maskUnits="userSpaceOnUse" x="0" y="8" width="8" height="3">
<path d="M0 8.72949H7.42708V10.0628H0V8.72949Z" fill="white"/>
</mask>
<g mask="url(#mask2_292_113689)">
<path d="M7.10352 9.19792C6.99414 9.125 6.87435 9.07292 6.73893 9.0625C6.70768 9.03125 6.67643 9.01042 6.64518 8.98438V8.92188C6.64518 8.86979 6.62435 8.82292 6.61393 8.77604C6.54622 8.75521 6.47331 8.73438 6.40039 8.73438H6.4056H6.41081C6.41081 8.73438 6.41081 8.73438 6.41602 8.73438H6.42122C6.42643 8.73438 6.42643 8.73438 6.42643 8.73438C6.72852 8.74479 6.98893 8.93229 7.10352 9.19792ZM0.447266 8.89583C0.577474 8.80208 0.728515 8.73438 0.900391 8.73438C0.832683 8.73438 0.775391 8.75521 0.712891 8.77083C0.707683 8.79687 0.702474 8.82292 0.697266 8.84896C0.608724 8.84896 0.525391 8.86979 0.447266 8.89583Z" fill="#7CB0D0"/>
</g>
<path d="M6.40234 21.7087H6.30859V9.05762H6.64714V21.5264C6.64714 21.5732 6.6263 21.6201 6.61589 21.667C6.54818 21.6878 6.47526 21.7087 6.40234 21.7087Z" fill="#314453"/>
<path d="M6.64714 9.05762H6.30859V8.85449C6.43359 8.87012 6.54818 8.91699 6.64714 8.9847V9.05762Z" fill="#3D5566"/>
<path d="M6.64714 8.98438C6.54818 8.91667 6.43359 8.86979 6.30859 8.85417V8.73438H6.40234C6.47526 8.73438 6.54818 8.75521 6.61589 8.77604C6.6263 8.82292 6.64714 8.86979 6.64714 8.92188V8.98438Z" fill="#486479"/>
<mask id="mask3_292_113689" style="mask-type:luminance" maskUnits="userSpaceOnUse" x="0" y="8" width="3" height="15">
<path d="M0 8.72949H2.09375V22.0628H0V8.72949Z" fill="white"/>
</mask>
<g mask="url(#mask3_292_113689)">
<path d="M0.994792 21.709H0.901042C0.833334 21.709 0.776042 21.6882 0.713542 21.6725C0.703124 21.6257 0.6875 21.5788 0.6875 21.5267V9.25065C0.770833 9.17253 0.880209 9.11523 0.994792 9.08398V21.709Z" fill="#6A8EA3"/>
</g>
<mask id="mask4_292_113689" style="mask-type:luminance" maskUnits="userSpaceOnUse" x="0" y="8" width="3" height="3">
<path d="M0 8.72949H2.09375V10.0628H0V8.72949Z" fill="white"/>
</mask>
<g mask="url(#mask4_292_113689)">
<path d="M0.6875 9.24967V8.92155C0.6875 8.89551 0.687499 8.86947 0.697917 8.84863H0.703125H0.994792V9.08301C0.880209 9.11426 0.770833 9.17155 0.6875 9.24967Z" fill="#7AA7BF"/>
<path d="M0.697266 8.84896C0.702474 8.82292 0.707683 8.79687 0.712891 8.77083C0.775391 8.75521 0.832683 8.73438 0.900391 8.73438H0.994141V8.84896H0.702474H0.697266Z" fill="#8ABED8"/>
</g>
<path d="M6.26693 22.208H1.03776C1.01172 22.208 0.996094 22.1872 0.996094 22.1663V8.27572C0.996094 8.25488 1.01693 8.23926 1.03776 8.23926H6.26693C6.28776 8.23926 6.30859 8.25488 6.30859 8.27572V22.1663C6.30859 22.1872 6.28776 22.208 6.26693 22.208Z" fill="#3F586A"/>
<path d="M1.6888 22.208C1.68359 22.208 1.68359 22.208 1.68359 22.208H1.6888ZM1.67839 22.208C1.30339 22.2028 0.996094 21.9007 0.996094 21.5257C0.996094 21.7132 1.07422 21.8747 1.19922 21.9945C1.20443 21.9997 1.20964 22.0049 1.21484 22.0101C1.33464 22.1299 1.49609 22.2028 1.67839 22.208ZM5.62109 22.208C5.80859 22.2028 5.97005 22.1299 6.08984 22.0101C6.10547 21.9945 6.12109 21.9788 6.13151 21.9684C6.19922 21.8851 6.24609 21.7913 6.27214 21.6924H1.34505V20.3695H4.15755C4.53776 20.3695 4.85026 20.0622 4.85026 19.6872V8.73405H5.96484C6.08464 8.73405 6.1888 8.77051 6.28776 8.82259C6.24089 8.49968 5.96484 8.24447 5.62109 8.23926C6.0013 8.24447 6.30859 8.54655 6.30859 8.92155V21.5257C6.30859 21.9007 6.0013 22.2028 5.62109 22.208Z" fill="#374D5D"/>
<path d="M1.34505 20.3695H0.996094V8.92155C0.996094 8.54134 1.30859 8.23926 1.6888 8.23926H4.85026V8.73405H2.03776C1.65755 8.73405 1.34505 9.04134 1.34505 9.41634V20.3695Z" fill="#527189"/>
<path d="M1.19922 21.9945C1.07422 21.8747 0.996094 21.7132 0.996094 21.5257V20.3695H1.34505V21.6924H1.03255C1.05859 21.7913 1.10547 21.8851 1.17318 21.9684C1.17839 21.9736 1.1888 21.984 1.19922 21.9945ZM6.28776 8.82259C6.1888 8.77051 6.08464 8.73405 5.96484 8.73405H4.85026V8.23926H5.61589C5.61589 8.23926 5.61589 8.23926 5.62109 8.23926C5.96484 8.24447 6.24089 8.49968 6.28776 8.82259Z" fill="#4B687D"/>
<path d="M1.68359 22.2087C1.68359 22.2087 1.68359 22.2087 1.67839 22.2087C1.49609 22.2035 1.33464 22.1305 1.21484 22.0107C1.33464 22.1305 1.5013 22.2035 1.68359 22.2087Z" fill="#485C6C"/>
<path d="M5.61979 22.208C5.80208 22.2028 5.96875 22.1299 6.08854 22.0101C5.96875 22.1299 5.80729 22.2028 5.61979 22.208ZM6.13021 21.9684H1.34375V21.6924H6.27083C6.24479 21.7913 6.19792 21.8851 6.13021 21.9684Z" fill="#485C6C"/>
<path d="M1.34375 21.9684H1.17188C1.10417 21.8851 1.05729 21.7913 1.03125 21.6924H1.34375V21.9684Z" fill="#5A7789"/>
<path d="M1.21484 22.0107C1.20964 22.0055 1.20443 22.0003 1.19922 21.9951C1.19922 21.9951 1.19922 22.0003 1.20443 22.0003C1.20964 22.0055 1.20964 22.0107 1.21484 22.0107Z" fill="#596D7A"/>
<path d="M1.20313 22C1.19792 22 1.19792 21.9948 1.19792 21.9948C1.1875 21.9844 1.17708 21.974 1.17188 21.9688C1.18229 21.9792 1.19271 21.9896 1.20313 22Z" fill="#698493"/>
<path d="M6.08984 22.0104C6.10547 21.9948 6.11589 21.9792 6.13151 21.9688C6.12109 21.9792 6.10547 21.9948 6.08984 22.0104Z" fill="#596D7A"/>
<path d="M5.61458 22.2083H1.6875C1.6875 22.2083 1.6875 22.2083 1.68229 22.2083C1.5 22.2031 1.33333 22.1302 1.21354 22.0104C1.20833 22.0104 1.20833 22.0052 1.20312 22C1.25 22.0469 1.30729 22.0833 1.36458 22.1198C1.35938 22.0833 1.34375 22.0573 1.34375 22.0208V21.9688H6.13021C6.11458 21.9792 6.10417 21.9948 6.08854 22.0104C5.96875 22.1302 5.80208 22.2031 5.61979 22.2083C5.61979 22.2083 5.61979 22.2083 5.61458 22.2083Z" fill="#677A87"/>
<path d="M1.36458 22.1198C1.30729 22.0833 1.25 22.0469 1.20313 22C1.19271 21.9896 1.18229 21.9792 1.17188 21.9688H1.34375V22.0208C1.34375 22.0573 1.35938 22.0833 1.36458 22.1198Z" fill="#76909D"/>
<mask id="mask5_292_113689" style="mask-type:luminance" maskUnits="userSpaceOnUse" x="59" y="8" width="9" height="15">
<path d="M59.4277 8.72949H67.36V22.0628H59.4277V8.72949Z" fill="white"/>
</mask>
<g mask="url(#mask5_292_113689)">
<path d="M67.1777 21.7083H60.235C60.209 21.7083 60.1934 21.6875 60.1934 21.6667V8.77604C60.1934 8.75521 60.209 8.73438 60.235 8.73438H67.1777C67.2038 8.73438 67.2246 8.75521 67.2246 8.77604V21.6667C67.2246 21.6875 67.2038 21.7083 67.1777 21.7083Z" fill="#567890"/>
</g>
<mask id="mask6_292_113689" style="mask-type:luminance" maskUnits="userSpaceOnUse" x="60" y="8" width="8" height="15">
<path d="M60.7617 8.72949H67.3607V22.0628H60.7617V8.72949Z" fill="white"/>
</mask>
<g mask="url(#mask6_292_113689)">
<path d="M66.7103 21.6563C66.8978 21.5208 67.028 21.3125 67.028 21.0625V9.60417C67.028 9.39063 66.9395 9.19792 66.7936 9.0625C66.929 9.07292 67.054 9.125 67.1634 9.19792C67.0488 8.9375 66.7936 8.75 66.4915 8.73438C66.8978 8.75521 67.2259 9.08333 67.2259 9.48958V20.9531C67.2259 21.2812 67.0072 21.5521 66.7103 21.6563Z" fill="#719FBB"/>
</g>
<mask id="mask7_292_113689" style="mask-type:luminance" maskUnits="userSpaceOnUse" x="59" y="8" width="9" height="15">
<path d="M59.4277 8.72949H67.36V22.0628H59.4277V8.72949Z" fill="white"/>
</mask>
<g mask="url(#mask7_292_113689)">
<path d="M60.5423 21.5729C60.334 21.4375 60.1934 21.2188 60.1934 20.9531V9.48958C60.1934 9.07292 60.5319 8.73438 60.9538 8.73438C60.7819 8.73438 60.6309 8.80208 60.5059 8.89583C60.584 8.86979 60.6673 8.84896 60.7507 8.84896C60.7454 8.86979 60.7402 8.89583 60.7402 8.92188V9.25C60.584 9.38542 60.4798 9.58854 60.4798 9.81771V21.276C60.4798 21.3802 60.5059 21.4792 60.5423 21.5729ZM66.7923 9.0625C66.7767 9.05729 66.7611 9.05729 66.7454 9.05729H66.6986V8.98438C66.735 9.01042 66.7663 9.03125 66.7923 9.0625Z" fill="#6A94B0"/>
</g>
<mask id="mask8_292_113689" style="mask-type:luminance" maskUnits="userSpaceOnUse" x="59" y="8" width="9" height="3">
<path d="M59.4277 8.72949H67.36V10.0628H59.4277V8.72949Z" fill="white"/>
</mask>
<g mask="url(#mask8_292_113689)">
<path d="M67.1621 9.19792C67.0527 9.125 66.9277 9.07292 66.7923 9.0625C66.7663 9.03125 66.735 9.01042 66.6986 8.98438V8.92188C66.6986 8.86979 66.6829 8.82292 66.6725 8.77604C66.5996 8.75521 66.5319 8.73438 66.4538 8.73438C66.4538 8.73438 66.4538 8.73438 66.459 8.73438C66.459 8.73438 66.459 8.73438 66.4642 8.73438C66.4694 8.73438 66.4694 8.73438 66.4694 8.73438H66.4746H66.4798C66.4798 8.73438 66.4798 8.73438 66.485 8.73438H66.4902C66.7923 8.75 67.0475 8.9375 67.1621 9.19792ZM60.5059 8.89583C60.6309 8.80208 60.7819 8.73438 60.9538 8.73438C60.959 8.73438 60.959 8.73438 60.959 8.73438C60.8913 8.73438 60.834 8.75521 60.7715 8.77083C60.7663 8.79687 60.7559 8.82292 60.7507 8.84896C60.6673 8.84896 60.584 8.86979 60.5059 8.89583Z" fill="#7CB0D0"/>
</g>
<mask id="mask9_292_113689" style="mask-type:luminance" maskUnits="userSpaceOnUse" x="66" y="8" width="2" height="15">
<path d="M66.0938 8.72949H67.3594V22.0628H66.0938V8.72949Z" fill="white"/>
</mask>
<g mask="url(#mask9_292_113689)">
<path d="M66.4531 21.7087H66.3594V9.05762H66.6979V21.5264C66.6979 21.5732 66.6823 21.6201 66.6719 21.667C66.599 21.6878 66.5313 21.7087 66.4531 21.7087Z" fill="#314453"/>
</g>
<mask id="mask10_292_113689" style="mask-type:luminance" maskUnits="userSpaceOnUse" x="66" y="8" width="2" height="3">
<path d="M66.0938 8.72949H67.3594V10.0628H66.0938V8.72949Z" fill="white"/>
</mask>
<g mask="url(#mask10_292_113689)">
<path d="M66.6979 9.05762H66.3594V8.85449C66.4844 8.87012 66.599 8.91699 66.6979 8.9847V9.05762Z" fill="#3D5566"/>
<path d="M66.6979 8.98438C66.599 8.91667 66.4844 8.86979 66.3594 8.85417V8.73438H66.4531C66.5313 8.73438 66.599 8.75521 66.6719 8.77604C66.6823 8.82292 66.6979 8.86979 66.6979 8.92188V8.98438Z" fill="#486479"/>
</g>
<path d="M61.0527 21.708H60.959C60.8913 21.708 60.834 21.6872 60.7715 21.6715C60.7611 21.6247 60.7402 21.5778 60.7402 21.5257V9.24967C60.8288 9.17155 60.9329 9.11426 61.0527 9.08301V21.708Z" fill="#6A8EA3"/>
<path d="M60.7402 9.24967V8.92155C60.7402 8.89551 60.7454 8.86947 60.7507 8.84863C60.7559 8.84863 60.7559 8.84863 60.7611 8.84863H61.0527V9.08301C60.9329 9.11426 60.8288 9.17155 60.7402 9.24967Z" fill="#7AA7BF"/>
<path d="M60.75 8.84896C60.7552 8.82292 60.7656 8.79687 60.7708 8.77083C60.8333 8.75521 60.8906 8.73438 60.9583 8.73438H61.0521V8.84896H60.7604C60.7552 8.84896 60.7552 8.84896 60.75 8.84896Z" fill="#8ABED8"/>
<mask id="mask11_292_113689" style="mask-type:luminance" maskUnits="userSpaceOnUse" x="60" y="7" width="8" height="17">
<path d="M60.7617 7.39551H67.3607V23.3955H60.7617V7.39551Z" fill="white"/>
</mask>
<g mask="url(#mask11_292_113689)">
<path d="M66.3236 22.208H61.0892C61.0684 22.208 61.0527 22.1872 61.0527 22.1663V8.27572C61.0527 8.25488 61.0684 8.23926 61.0892 8.23926H66.3236C66.3444 8.23926 66.36 8.25488 66.36 8.27572V22.1663C66.36 22.1872 66.3444 22.208 66.3236 22.208Z" fill="#3F586A"/>
<path d="M65.6725 22.208C65.6777 22.208 65.6777 22.208 65.6777 22.208C65.6725 22.208 65.6725 22.208 65.6725 22.208ZM65.6777 22.208C65.86 22.2028 66.0215 22.1299 66.1413 22.0101C66.1569 21.9997 66.1725 21.984 66.1882 21.9684H66.1829C66.2507 21.8851 66.3027 21.7913 66.3288 21.6924H61.4017V20.3695H64.209C64.5944 20.3695 64.9017 20.0622 64.9017 19.6872V8.73405H66.0215C66.1361 8.73405 66.2454 8.77051 66.3444 8.82259C66.2923 8.49968 66.0215 8.23926 65.6777 8.23926C66.0579 8.23926 66.36 8.54655 66.36 8.92155V21.5257C66.36 21.9007 66.0579 22.2028 65.6777 22.208ZM61.735 22.208C61.36 22.2028 61.0527 21.9007 61.0527 21.5257C61.0527 21.7132 61.1309 21.8747 61.2559 21.9945C61.2559 21.9997 61.2611 22.0049 61.2663 22.0101C61.3861 22.1299 61.5475 22.2028 61.735 22.208Z" fill="#374D5D"/>
</g>
<path d="M61.4017 20.3695H61.0527V8.92155C61.0527 8.54134 61.36 8.23926 61.7454 8.23926H64.9017V8.73405H62.0944C61.709 8.73405 61.4017 9.04134 61.4017 9.41634V20.3695Z" fill="#527189"/>
<mask id="mask12_292_113689" style="mask-type:luminance" maskUnits="userSpaceOnUse" x="60" y="7" width="8" height="16">
<path d="M60.7617 7.39551H67.3607V22.0622H60.7617V7.39551Z" fill="white"/>
</mask>
<g mask="url(#mask12_292_113689)">
<path d="M61.2559 21.9945C61.1309 21.8747 61.0527 21.7132 61.0527 21.5257V20.3695H61.4017V21.6924H61.084C61.11 21.7913 61.1621 21.8851 61.2298 21.9684H61.2246C61.235 21.9788 61.2454 21.984 61.2559 21.9945ZM66.3444 8.82259C66.2454 8.77051 66.1361 8.73405 66.0215 8.73405H64.9017V8.23926H65.6725H65.6777C66.0215 8.23926 66.2923 8.49968 66.3444 8.82259Z" fill="#4B687D"/>
</g>
<mask id="mask13_292_113689" style="mask-type:luminance" maskUnits="userSpaceOnUse" x="64" y="20" width="4" height="4">
<path d="M64.7617 20.7295H67.3607V23.3962H64.7617V20.7295Z" fill="white"/>
</mask>
<g mask="url(#mask13_292_113689)">
<path d="M65.6738 22.2087C65.8613 22.2035 66.0228 22.1305 66.1426 22.0107C66.0228 22.1305 65.8613 22.2035 65.679 22.2087C65.679 22.2087 65.679 22.2087 65.6738 22.2087Z" fill="#485C6C"/>
</g>
<mask id="mask14_292_113689" style="mask-type:luminance" maskUnits="userSpaceOnUse" x="60" y="20" width="8" height="4">
<path d="M60.7617 20.7295H67.3607V23.3962H60.7617V20.7295Z" fill="white"/>
</mask>
<g mask="url(#mask14_292_113689)">
<path d="M61.7415 22.209C61.7363 22.209 61.7363 22.209 61.7363 22.209C61.5488 22.2038 61.3874 22.1309 61.2676 22.0111C61.3874 22.1309 61.554 22.2038 61.7415 22.209ZM66.1842 21.9694H61.403V21.6934H66.3301C66.304 21.7923 66.252 21.8861 66.1842 21.9694Z" fill="#485C6C"/>
</g>
<path d="M61.4017 21.9684H61.2298C61.1621 21.8851 61.11 21.7913 61.084 21.6924H61.4017V21.9684Z" fill="#5A7789"/>
<mask id="mask15_292_113689" style="mask-type:luminance" maskUnits="userSpaceOnUse" x="60" y="20" width="8" height="4">
<path d="M60.7617 20.7295H67.3607V23.3962H60.7617V20.7295Z" fill="white"/>
</mask>
<g mask="url(#mask15_292_113689)">
<path d="M66.1413 22.0104C66.1569 22 66.1725 21.9844 66.1829 21.9688H66.1882C66.1725 21.9844 66.1569 22 66.1413 22.0104ZM61.2663 22.0104C61.2611 22.0052 61.2559 22 61.2559 21.9948C61.2559 22 61.2559 22 61.2611 22C61.2611 22.0052 61.2611 22.0052 61.2663 22.0104Z" fill="#596D7A"/>
</g>
<path d="M61.2611 22C61.2559 22 61.2559 22 61.2559 21.9948C61.2454 21.9844 61.235 21.9792 61.2246 21.9688H61.2298C61.2402 21.9792 61.2507 21.9896 61.2611 22Z" fill="#698493"/>
<mask id="mask16_292_113689" style="mask-type:luminance" maskUnits="userSpaceOnUse" x="60" y="20" width="8" height="4">
<path d="M60.7617 20.7295H67.3607V23.3962H60.7617V20.7295Z" fill="white"/>
</mask>
<g mask="url(#mask16_292_113689)">
<path d="M65.6732 22.2083H61.7461C61.7409 22.2083 61.7409 22.2083 61.7409 22.2083C61.5534 22.2031 61.3867 22.1302 61.2669 22.0104C61.2617 22.0052 61.2617 22.0052 61.2617 22C61.3086 22.0469 61.3607 22.0833 61.418 22.1198C61.418 22.0833 61.4023 22.0573 61.4023 22.0208V21.9688H66.1836C66.1732 21.9844 66.1576 22 66.1419 22.0104C66.0221 22.1302 65.8607 22.2031 65.6732 22.2083Z" fill="#677A87"/>
</g>
<path d="M61.418 22.1198C61.3607 22.0833 61.3086 22.0469 61.2617 22C61.2513 21.9896 61.2409 21.9792 61.2305 21.9688H61.4023V22.0208C61.4023 22.0573 61.418 22.0833 61.418 22.1198Z" fill="#76909D"/>
<path d="M35.709 21.3805H30.8965C30.9069 21.3597 30.9173 21.3441 30.9277 21.3232H35.6725C35.6829 21.3441 35.6934 21.3597 35.709 21.3805Z" fill="#7DA5BE"/>
<path d="M34.0632 21.0413H31.1152C31.2402 20.8486 31.3652 20.6611 31.4798 20.4736H33.7194C33.8288 20.6559 33.9434 20.8434 34.0632 21.0413Z" fill="#5E8FB3"/>
<path d="M34.2402 21.3232H30.9277C30.9954 21.2295 31.0527 21.1357 31.1152 21.042H34.0632C34.1204 21.1357 34.1777 21.2295 34.2402 21.3232Z" fill="#6E9DBB"/>
<path d="M27.5846 17.0889H26.9492V14.417C27.1732 14.5576 27.3815 14.693 27.5846 14.8232V17.0889Z" fill="#5E8EB1"/>
<path d="M26.9492 18.3753V17.0889H27.5846V17.9535C27.3815 18.0889 27.168 18.2295 26.9492 18.3753Z" fill="#5A89AD"/>
<path d="M38.3548 20.4736H27.6413C27.61 20.4736 27.584 20.4476 27.584 20.4163V10.2393C27.584 10.2028 27.61 10.1768 27.6413 10.1768H38.3548C38.3861 10.1768 38.4121 10.2028 38.4121 10.2393V20.4163C38.4121 20.4476 38.3861 20.4736 38.3548 20.4736Z" fill="#78AAC9"/>
<path d="M26.9486 14.417C26.8079 14.3232 26.6569 14.2243 26.5059 14.1201H26.9486V14.417ZM22.0267 9.73991H19.5944C19.3913 9.62012 19.1829 9.50553 18.9746 9.38574H21.4434C21.6413 9.50553 21.8392 9.62012 22.0267 9.73991Z" fill="#466174"/>
<path d="M21.4427 9.38574H18.974C18.9115 9.35449 18.8542 9.32324 18.7917 9.28678C18.7083 9.23991 18.6563 9.1722 18.5781 9.12012H20.9896C21.1406 9.20866 21.2969 9.2972 21.4427 9.38574Z" fill="#364C5C"/>
<path d="M26.9479 14.1195H26.5052C25.875 13.7028 25.1771 13.2288 24.4063 12.7236H26.6406C26.7448 12.7913 26.849 12.859 26.9479 12.9268V14.1195ZM24.2552 11.1351H21.9479C21.2135 10.682 20.4323 10.2132 19.5938 9.73926H22.026C22.8281 10.2184 23.5677 10.6924 24.2552 11.1351Z" fill="#4F6979"/>
<path d="M26.6419 12.7243H24.4076C23.6628 12.2243 22.8451 11.693 21.9492 11.1357H24.2565C25.1367 11.7087 25.9284 12.2399 26.6419 12.7243Z" fill="#637985"/>
<path d="M38.4121 14.1618V14.1201H38.4694C38.4538 14.1357 38.4329 14.1462 38.4121 14.1618ZM45.3652 9.73991H44.5215C44.7142 9.62012 44.9121 9.50553 45.1048 9.38574H46.0163C45.7975 9.50032 45.584 9.62012 45.3652 9.73991Z" fill="#466174"/>
<path d="M46.0169 9.38574H45.1055C45.2565 9.2972 45.4128 9.20866 45.5638 9.12012H46.4388C46.3607 9.16699 46.3086 9.2347 46.2305 9.27637C46.1576 9.31283 46.0898 9.34928 46.0169 9.38574Z" fill="#364C5C"/>
<path d="M38.4694 14.1195H38.4121V13.7184C38.8965 13.4163 39.4121 13.083 39.9538 12.7236H40.5788C39.834 13.2184 39.1309 13.6924 38.4694 14.1195ZM43.0059 11.1351H42.3236C43.0267 10.6715 43.7611 10.1976 44.5215 9.73926H45.3652C44.5527 10.1872 43.7663 10.6611 43.0059 11.1351Z" fill="#4F6979"/>
<path d="M40.5781 12.7243H39.9531C40.6927 12.2295 41.4844 11.693 42.3229 11.1357H43.0052C42.1562 11.6722 41.3438 12.2087 40.5781 12.7243Z" fill="#637985"/>
<path d="M35.834 9.73991H35.6934C35.7715 9.62533 35.8548 9.50553 35.9329 9.38574H36.0788C35.9954 9.50553 35.9121 9.62533 35.834 9.73991Z" fill="#466174"/>
<path d="M36.0794 9.38574H35.9336C35.9961 9.2972 36.0586 9.20866 36.1211 9.12012H36.2617C36.1992 9.21387 36.1367 9.2972 36.0794 9.38574Z" fill="#364C5C"/>
<path d="M35.5365 10.1768H35.3906C35.4896 10.0361 35.5885 9.88509 35.6927 9.73926H35.8333C35.7344 9.8903 35.6302 10.0361 35.5365 10.1768Z" fill="#4F6979"/>
<path d="M35.4792 21.0413H34.0625C33.9427 20.8434 33.8281 20.6559 33.7188 20.4736H35.1042C35.224 20.6559 35.349 20.8486 35.4792 21.0413Z" fill="#365369"/>
<path d="M35.6719 21.3232H34.2396C34.1771 21.2295 34.1198 21.1357 34.0625 21.042H35.4792C35.5417 21.1357 35.6042 21.2295 35.6719 21.3232Z" fill="#405A6C"/>
<path d="M27.5846 14.8232C27.3815 14.693 27.1732 14.5576 26.9492 14.417V14.1201H27.5846V14.8232Z" fill="#365267"/>
<path d="M27.5846 14.1195H26.9492V12.9268C27.168 13.0726 27.3815 13.2132 27.5846 13.3486V14.1195Z" fill="#385469"/>
<path d="M35.1048 20.4736H33.7194C33.584 20.234 33.4694 20.0101 33.3704 19.8018C33.0944 19.8747 32.8079 19.9111 32.5215 19.9111C32.2975 19.9111 32.0788 19.8851 31.8548 19.8434C32.0632 19.484 32.2402 19.1507 32.3757 18.833C32.6829 18.9215 33.0007 18.9632 33.3184 18.9632C33.61 18.9632 33.8965 18.9268 34.1777 18.859C34.3965 19.333 34.7142 19.8643 35.1048 20.4736ZM29.1882 16.9528C29.1465 16.557 29.1725 16.1559 29.2767 15.7653C28.7819 15.5465 28.2246 15.2236 27.584 14.8226V13.3486C28.5631 13.9945 29.3809 14.4997 30.0684 14.807C29.9954 15.083 29.959 15.3695 29.959 15.6507C29.959 15.9372 29.9954 16.2184 30.0684 16.4945C29.7923 16.6195 29.5007 16.7705 29.1882 16.9528ZM36.6569 15.2236C36.6309 15.057 36.5996 14.8903 36.5475 14.7236C37.1048 14.484 37.7298 14.1351 38.4121 13.7184V14.1611C37.7819 14.5674 37.1934 14.932 36.6569 15.2236ZM34.1777 12.4476C34.0944 12.4268 34.0111 12.4059 33.9277 12.3903C34.3132 11.7497 34.8132 11.0153 35.3913 10.1768H35.5371C34.9382 11.0622 34.4694 11.8122 34.1777 12.4476Z" fill="#466174"/>
<mask id="mask17_292_113689" style="mask-type:luminance" maskUnits="userSpaceOnUse" x="18" y="0" width="15" height="16">
<path d="M18.0938 0H32.7604V15.3958H18.0938V0Z" fill="white"/>
</mask>
<g mask="url(#mask17_292_113689)">
<path d="M25.8809 2.14027C29.1101 8.20797 34.1101 13.0257 32.3757 14.734C30.6413 16.4424 27.3705 12.6194 19.5997 8.32777C17.459 7.15068 17.8653 3.8486 19.5997 2.14027C21.334 0.431932 24.7403 -0.000359556 25.8809 2.14027Z" fill="#D91E25"/>
</g>
<path d="M30.0686 14.8073C29.3811 14.5 28.5634 13.9948 27.5842 13.349C27.3811 13.2135 27.1675 13.0729 26.9488 12.9271C26.8498 12.8594 26.7456 12.7917 26.6415 12.724C25.9279 12.2396 25.1363 11.7083 24.2561 11.1354C23.5686 10.6927 22.829 10.2188 22.0269 9.73958C21.8394 9.61979 21.6415 9.50521 21.4436 9.38542C21.2977 9.29687 21.1415 9.20833 20.9904 9.11979C20.6102 8.90104 20.2248 8.67708 19.8186 8.45313C19.8134 8.45313 19.8134 8.44792 19.8081 8.44792C19.7977 8.44271 19.7821 8.43229 19.7717 8.42708C19.7665 8.42187 19.7561 8.41667 19.7509 8.41667C19.7509 8.41146 19.7456 8.41146 19.7456 8.41146C19.7404 8.41146 19.7404 8.40625 19.7352 8.40625C19.73 8.40625 19.73 8.40104 19.7248 8.40104C19.7144 8.39583 19.704 8.39063 19.6936 8.38021C19.6623 8.36458 19.6311 8.34896 19.5998 8.32813C19.5946 8.32813 19.5946 8.32813 19.5946 8.32813C19.5894 8.32813 19.5894 8.32813 19.5894 8.32813C19.5894 8.32292 19.5894 8.32292 19.5842 8.32292C19.5842 8.32292 19.5842 8.32292 19.579 8.32292C19.579 8.31771 19.579 8.31771 19.579 8.31771H19.5738C19.5686 8.3125 19.5686 8.3125 19.5686 8.3125C19.5686 8.3125 19.5686 8.3125 19.5634 8.3125L19.5581 8.30729C19.5529 8.30729 19.5477 8.30208 19.5425 8.30208V8.29688C19.5425 8.29688 19.5425 8.29688 19.5373 8.29688C19.5373 8.29688 19.5373 8.29167 19.5321 8.29167H19.5269C19.5269 8.28646 19.5217 8.28646 19.5217 8.28646C19.5217 8.28646 19.5165 8.28646 19.5165 8.28125C19.5113 8.28125 19.5061 8.27604 19.5009 8.27604C19.5009 8.27083 19.4956 8.27083 19.4956 8.27083C19.4956 8.27083 19.4904 8.27083 19.4904 8.26563H19.4852C19.4852 8.26042 19.48 8.26042 19.48 8.26042C19.4696 8.25521 19.4592 8.25 19.454 8.24479C19.454 8.24479 19.4488 8.24479 19.4488 8.23958C19.4436 8.23958 19.4436 8.23958 19.4436 8.23958C19.4384 8.23438 19.4384 8.23438 19.4384 8.23438C19.4279 8.22917 19.4227 8.22396 19.4123 8.21875L19.4071 8.21354H19.4019C19.4019 8.20833 19.3967 8.20833 19.3967 8.20833L19.3915 8.20313C19.3863 8.19792 19.3759 8.19271 19.3706 8.19271C19.3706 8.19271 19.3706 8.1875 19.3654 8.1875C19.3654 8.1875 19.3654 8.1875 19.3602 8.18229C19.3602 8.18229 19.3602 8.18229 19.355 8.18229C19.355 8.17708 19.355 8.17708 19.3498 8.17708C19.3446 8.17187 19.3394 8.16667 19.3342 8.16146C19.329 8.16146 19.329 8.16146 19.329 8.16146C19.3238 8.15625 19.3238 8.15625 19.3238 8.15625C19.3186 8.15625 19.3186 8.15625 19.3186 8.15104C19.3134 8.15104 19.3134 8.15104 19.3134 8.15104C19.3029 8.14063 19.2977 8.13542 19.2873 8.13021H19.2821V8.125H19.2769C19.2769 8.125 19.2769 8.11979 19.2717 8.11979C19.2717 8.11979 19.2717 8.11979 19.2665 8.11979C19.2665 8.11458 19.2665 8.11458 19.2665 8.11458C19.2613 8.11458 19.2561 8.10937 19.2509 8.10417C19.2456 8.09896 19.2456 8.09896 19.2456 8.09896C19.2404 8.09896 19.2404 8.09896 19.2404 8.09375H19.2352C19.2352 8.09375 19.2352 8.09375 19.2352 8.08854H19.23C19.2248 8.08333 19.2196 8.07813 19.2144 8.07292H19.2092C19.2092 8.07292 19.2092 8.07292 19.2092 8.06771C19.204 8.06771 19.204 8.06771 19.204 8.06771C19.1988 8.0625 19.1988 8.0625 19.1988 8.0625C19.1936 8.0625 19.1936 8.05729 19.1936 8.05729C19.1831 8.05208 19.1779 8.04687 19.1727 8.04167C19.1675 8.04167 19.1675 8.04167 19.1675 8.04167C19.1675 8.03646 19.1675 8.03646 19.1675 8.03646C19.1623 8.03646 19.1623 8.03125 19.1623 8.03125C19.1571 8.03125 19.1571 8.03125 19.1571 8.02604C19.1467 8.02083 19.1363 8.01042 19.1311 8.00521C19.1259 8.00521 19.1259 8 19.1259 8C17.7456 6.80729 17.9175 4.45833 19.0269 2.82812C18.5581 3.52604 18.2665 4.35417 18.1831 5.16667C18.3759 4.71354 18.6363 4.28125 18.9488 3.90625C19.0061 4.93229 19.4436 5.86458 20.3863 6.38542C25.98 9.47396 29.2404 12.3073 31.2769 13.0208C31.1623 13.1094 31.0477 13.2031 30.9436 13.3073C30.5061 13.7396 30.2144 14.2604 30.0686 14.8073Z" fill="#BC1E24"/>
<mask id="mask18_292_113689" style="mask-type:luminance" maskUnits="userSpaceOnUse" x="18" y="0" width="15" height="15">
<path d="M18.0938 0H32.7604V14.0625H18.0938V0Z" fill="white"/>
</mask>
<g mask="url(#mask18_292_113689)">
<path d="M31.4634 12.8903C30.1092 10.5413 27.4842 7.30697 25.5103 3.60384C24.9686 2.59343 23.9269 2.15592 22.7915 2.15592C21.5259 2.15592 20.1457 2.7028 19.229 3.60384C19.13 3.7028 19.0363 3.80176 18.9478 3.90592C18.9321 3.55697 18.9582 3.19238 19.0259 2.8278C19.1925 2.58822 19.3748 2.35905 19.5832 2.15592V2.15072H19.5884V2.14551C19.5936 2.14551 19.5936 2.14551 19.5936 2.14551C19.5936 2.14551 19.5936 2.1403 19.5988 2.1403C19.5988 2.13509 19.604 2.13509 19.6092 2.12988C20.5207 1.23405 21.8957 0.692383 23.1613 0.692383C24.2863 0.692383 25.3228 1.12468 25.8644 2.11426C25.8696 2.12468 25.8748 2.12988 25.88 2.1403C28.1613 6.42676 31.328 10.0882 32.3748 12.4684C32.0571 12.5622 31.7498 12.7028 31.4634 12.8903Z" fill="#ED2027"/>
</g>
<path d="M18.1836 5.16667C18.2669 4.35417 18.5586 3.52604 19.0273 2.82812C18.9596 3.19271 18.9336 3.55729 18.9492 3.90625C18.6367 4.28125 18.3763 4.71354 18.1836 5.16667Z" fill="#DD1E25"/>
<mask id="mask19_292_113689" style="mask-type:luminance" maskUnits="userSpaceOnUse" x="33" y="16" width="16" height="15">
<path d="M33.8281 16.1201H48.5885V30.6097H33.8281V16.1201Z" fill="white"/>
</mask>
<g mask="url(#mask19_292_113689)">
<path d="M47.0305 22.9847C40.8743 19.7972 35.9837 14.8702 34.2493 16.5837C32.5149 18.292 36.3951 21.516 40.7493 29.1775C41.9472 31.2868 45.2962 30.8858 47.0305 29.1775C48.7649 27.4639 49.2024 24.1097 47.0305 22.9847Z" fill="#D91E25"/>
</g>
<mask id="mask20_292_113689" style="mask-type:luminance" maskUnits="userSpaceOnUse" x="34" y="18" width="14" height="13">
<path d="M34.125 18.4688H47.6927V30.6094H34.125V18.4688Z" fill="white"/>
</mask>
<g mask="url(#mask20_292_113689)">
<path d="M43.5007 30.6094C42.3704 30.6094 41.3184 30.1771 40.7507 29.1771C37.8236 24.0312 35.1152 20.8854 34.1777 18.8594C34.1777 18.8542 34.1777 18.8542 34.1829 18.8542C34.2871 19.0833 34.4173 19.3281 34.5632 19.5885C34.8548 19.4375 35.1309 19.2552 35.3757 19.0156C35.5111 18.8802 35.6309 18.7396 35.7402 18.5938C37.0319 20.4896 38.8444 22.9896 40.7507 26.3438C41.3184 27.3385 42.3704 27.776 43.5007 27.776C44.7611 27.776 46.1152 27.2396 47.0319 26.3438C47.209 26.1667 47.3704 25.9688 47.5215 25.7604C47.7715 27.0208 47.334 28.5469 46.459 29.6354C46.6569 29.4896 46.86 29.3438 47.0319 29.1771C46.1204 30.0729 44.7611 30.6094 43.5007 30.6094Z" fill="#C31E25"/>
</g>
<path d="M47.0365 29.1667C48.2969 27.9219 48.8542 25.8125 48.2344 24.3177C48.0625 24.8333 47.8281 25.3229 47.5208 25.7604C47.3594 24.9531 46.9167 24.2552 46.1302 23.8438C42.0885 21.7552 38.599 18.9219 36.1875 17.7031C36.2448 17.526 36.2865 17.3438 36.3125 17.1615C36.4115 16.974 36.4896 16.7812 36.5469 16.5781C38.9687 17.6146 42.6823 20.7344 47.0313 22.9844C48.0573 23.5156 48.5 24.5469 48.5 25.6667C48.5 26.9115 47.9479 28.2656 47.0365 29.1667Z" fill="#ED2228"/>
<path d="M46.459 29.6351C47.334 28.5465 47.7715 27.0205 47.5215 25.7601C47.8288 25.3226 48.0632 24.833 48.235 24.3174C48.8548 25.8122 48.2975 27.9215 47.0371 29.1663C47.0371 29.1715 47.0371 29.1715 47.0371 29.1715C47.0319 29.1715 47.0319 29.1715 47.0319 29.1768C46.86 29.3434 46.6569 29.4893 46.459 29.6351Z" fill="#E91F26"/>
<mask id="mask21_292_113689" style="mask-type:luminance" maskUnits="userSpaceOnUse" x="32" y="0" width="17" height="16">
<path d="M32.7617 0H48.7617V15.3958H32.7617V0Z" fill="white"/>
</mask>
<g mask="url(#mask21_292_113689)">
<path d="M47.0325 8.3174C40.8762 11.5049 35.9856 16.432 34.2512 14.7237C32.5169 13.0153 36.3971 9.79136 40.7512 2.1299C41.9492 0.0205297 45.2981 0.421571 47.0325 2.1299C48.7669 3.83824 49.2044 7.1924 47.0325 8.3174Z" fill="#D91E25"/>
</g>
<path d="M36.5469 14.7236C36.3958 14.2028 36.1094 13.7184 35.6979 13.307C35.4167 13.0309 35.0937 12.8122 34.7552 12.6507C34.8906 12.6976 35.0469 12.7236 35.2083 12.7236C37.4323 12.7236 41.7865 8.7028 47.0677 5.96842C47.3333 5.8278 47.5573 5.65592 47.7396 5.45801C47.9583 6.10905 48.0417 6.79655 47.974 7.43197C48.5156 6.61426 48.599 5.50488 48.3281 4.44238C48.3333 4.44238 48.3333 4.44238 48.3333 4.44238C48.7292 5.96322 48.4219 7.5778 47.0573 8.30176C47.0573 8.30697 47.0521 8.30697 47.0469 8.30697C47.0469 8.31217 47.0469 8.31217 47.0469 8.31217C47.0417 8.31217 47.0417 8.31217 47.0417 8.31217H47.0365C47.0365 8.31738 47.0365 8.31738 47.0365 8.31738C47.0313 8.31738 47.0313 8.31738 47.0313 8.31738C47.0104 8.3278 46.9896 8.33822 46.974 8.34863C46.9688 8.34863 46.9688 8.34863 46.9688 8.34863C46.9531 8.35905 46.9375 8.36426 46.9219 8.37467C46.9167 8.37467 46.9115 8.37988 46.9063 8.38509C46.8906 8.3903 46.875 8.40072 46.8594 8.40592C46.8594 8.40592 46.8594 8.40592 46.8542 8.40592C42.5833 10.6507 38.9323 13.7028 36.5469 14.7236ZM34.5625 12.5726C34.5156 12.5518 34.4687 12.5361 34.4219 12.5205C34.4271 12.5101 34.4323 12.5049 34.4375 12.4945C34.4792 12.5257 34.5208 12.5466 34.5625 12.5726Z" fill="#C31E25"/>
<mask id="mask22_292_113689" style="mask-type:luminance" maskUnits="userSpaceOnUse" x="34" y="0" width="15" height="13">
<path d="M34.0938 0H48.7604V12.7292H34.0938V0Z" fill="white"/>
</mask>
<g mask="url(#mask22_292_113689)">
<path d="M34.4382 12.4945C34.3861 12.458 34.3392 12.4163 34.2923 12.3695C34.2715 12.3538 34.2663 12.333 34.2454 12.3122C34.2246 12.359 34.2038 12.4059 34.1829 12.4476C34.1829 12.4476 34.1829 12.4476 34.1777 12.4476C35.1152 10.4216 37.8132 7.28613 40.735 2.15072C40.735 2.15072 40.735 2.15072 40.7402 2.15072C40.7402 2.14551 40.7402 2.14551 40.7402 2.1403H40.7454C40.7454 2.13509 40.7454 2.12988 40.7507 2.12988C40.7507 2.12467 40.7559 2.11947 40.7559 2.11947C41.3288 1.12467 42.3757 0.692383 43.5007 0.692383C44.7611 0.692383 46.1204 1.22884 47.0319 2.12988C47.0319 2.12988 47.0319 2.12988 47.0371 2.13509C47.6621 2.75488 48.1152 3.58301 48.3288 4.44238C48.2038 4.82259 48.0111 5.16634 47.7402 5.45801C47.4954 4.72363 47.0892 4.03092 46.5475 3.49967C45.6361 2.59863 44.2767 2.06217 43.0215 2.06217C41.8861 2.06217 40.834 2.49967 40.2663 3.49967C37.9121 7.64551 35.6986 10.484 34.4382 12.4945Z" fill="#ED2027"/>
</g>
<path d="M34.4232 12.5205C34.3451 12.4945 34.2617 12.4684 34.1836 12.4476C34.2044 12.4059 34.2253 12.359 34.2461 12.3122C34.2669 12.333 34.2721 12.3538 34.293 12.3695C34.3398 12.4163 34.3867 12.458 34.4388 12.4945C34.4336 12.5049 34.4284 12.5101 34.4232 12.5205ZM47.9753 7.43197C48.043 6.79655 47.9596 6.10905 47.7409 5.45801C48.0117 5.16634 48.2044 4.82259 48.3294 4.44238C48.6003 5.50488 48.5169 6.61426 47.9753 7.43197Z" fill="#E01F25"/>
<mask id="mask23_292_113689" style="mask-type:luminance" maskUnits="userSpaceOnUse" x="18" y="16" width="15" height="15">
<path d="M18.0938 16.1201H32.7604V30.6097H18.0938V16.1201Z" fill="white"/>
</mask>
<g mask="url(#mask23_292_113689)">
<path d="M25.8809 29.1618C29.1101 23.0993 34.1101 18.2816 32.3757 16.568C30.6413 14.8597 27.3705 18.6826 19.5997 22.9743C17.459 24.1566 17.8653 27.4535 19.5997 29.1618C21.334 30.8753 24.7403 31.3024 25.8809 29.1618Z" fill="#D91E25"/>
</g>
<mask id="mask24_292_113689" style="mask-type:luminance" maskUnits="userSpaceOnUse" x="18" y="19" width="15" height="12">
<path d="M18.1719 19.0576H32.0365V30.6097H18.1719V19.0576Z" fill="white"/>
</mask>
<g mask="url(#mask24_292_113689)">
<path d="M23.1608 30.61C21.8952 30.61 20.5098 30.0684 19.5983 29.1621C19.5931 29.1621 19.5931 29.1621 19.5931 29.1621C19.5931 29.1621 19.5931 29.1569 19.5879 29.1569V29.1517C19.5827 29.1517 19.5827 29.1517 19.5827 29.1517C19.5827 29.1517 19.5827 29.1517 19.5827 29.1465C19.5775 29.1465 19.5775 29.1465 19.5775 29.1465C18.8535 28.4225 18.3691 27.4225 18.2129 26.4225C18.2702 26.7663 18.3691 27.1152 18.4993 27.4486C18.3171 26.4486 18.4421 25.4382 18.9837 24.6882C19.2337 25.2715 19.5879 25.8184 20.0358 26.2559C20.9473 27.1569 22.3327 27.7038 23.5983 27.7038C24.7337 27.7038 25.7754 27.2663 26.3171 26.2559C27.7285 23.6048 29.4733 21.1986 30.8483 19.1777C31.1712 19.4382 31.5254 19.6257 31.9004 19.7507C30.5931 22.0736 27.9681 25.2975 25.9681 28.9954C25.9681 29.0007 25.9629 29.0007 25.9629 29.0007C25.9629 29.0059 25.9629 29.0059 25.9629 29.0059C25.9629 29.0059 25.9629 29.0111 25.9577 29.0111V29.0163C25.9316 29.0684 25.9056 29.1152 25.8796 29.1621C25.6764 29.5423 25.4004 29.8444 25.0775 30.0684C24.541 30.4434 23.8691 30.61 23.1608 30.61Z" fill="#C31E25"/>
</g>
<path d="M18.2145 26.4222C17.9906 25.0889 18.3395 23.7503 19.475 23.0472C19.475 23.0472 19.475 23.0472 19.475 23.042C19.4802 23.042 19.4802 23.042 19.4802 23.042C19.4854 23.042 19.4854 23.0368 19.4854 23.0368H19.4906C19.4958 23.0368 19.4958 23.0368 19.4958 23.0368C19.5218 23.016 19.5531 23.0003 19.5843 22.9795C19.5895 22.9795 19.5895 22.9795 19.5895 22.9795C19.5895 22.9795 19.5895 22.9795 19.5947 22.9795C19.5947 22.9743 19.5947 22.9743 19.6 22.9743C24.8187 20.0941 28.0114 17.4222 30.0687 16.4951C29.9333 16.5576 29.7927 16.6253 29.6416 16.7035C29.652 17.0368 29.7093 17.3701 29.8135 17.6878C27.751 18.7868 24.6677 21.2607 19.8656 23.9118C19.4958 24.1149 19.2093 24.3753 18.9854 24.6878C18.8656 24.4066 18.7718 24.1149 18.7041 23.818C18.2093 24.542 18.0687 25.4847 18.2145 26.4222Z" fill="#ED2027"/>
<path d="M18.5012 27.4476C18.371 27.1143 18.2721 26.7653 18.2148 26.4215C18.0689 25.484 18.2096 24.5413 18.7044 23.8174C18.7721 24.1143 18.8658 24.4059 18.9856 24.6872C18.4439 25.4372 18.3189 26.4476 18.5012 27.4476Z" fill="#E01F25"/>
<path d="M35.6986 13.3076C37.0111 14.6045 37.0111 16.7035 35.6986 17.9951C34.3861 19.292 32.2559 19.292 30.9434 17.9951C29.6309 16.7035 29.6309 14.6045 30.9434 13.3076C32.2559 12.016 34.3861 12.016 35.6986 13.3076Z" fill="#D91E25"/>
<path d="M31.9063 19.7549C31.9063 19.7497 31.9062 19.7497 31.901 19.7497C32.0833 19.4268 32.2448 19.1195 32.3698 18.833H32.375C32.25 19.1195 32.0885 19.4268 31.9063 19.7549ZM30.849 19.1768C30.7708 19.1143 30.6927 19.0465 30.6198 18.9736C30.2396 18.5986 29.974 18.1559 29.8125 17.6872C30.0365 17.5674 30.25 17.4632 30.4479 17.3799C30.5625 17.557 30.6927 17.7288 30.8385 17.8903C30.8385 17.8903 30.8385 17.8903 30.8438 17.8903C30.8438 17.8903 30.8438 17.8903 30.8438 17.8955C30.8438 17.8955 30.8438 17.8955 30.849 17.8955V17.9007C30.875 17.9268 30.9063 17.958 30.9323 17.9893C30.9375 17.9893 30.9375 17.9893 30.9375 17.9893C30.9375 17.9945 30.9427 17.9945 30.9427 17.9945C31.0833 18.1351 31.2344 18.2601 31.3958 18.3695C31.2188 18.6299 31.0365 18.9007 30.849 19.1768Z" fill="#A81C22"/>
<path d="M31.9017 19.7503C31.5267 19.6253 31.1725 19.4378 30.8496 19.1774C31.0371 18.9014 31.2194 18.6305 31.3965 18.3701C31.6986 18.5785 32.0267 18.7347 32.3704 18.8337C32.2454 19.1201 32.084 19.4274 31.9017 19.7503Z" fill="#991A20"/>
<path d="M29.8125 17.6878C29.7083 17.3701 29.651 17.0368 29.6406 16.7035C29.7917 16.6253 29.9323 16.5576 30.0677 16.4951C30.151 16.8024 30.276 17.1045 30.4479 17.3805C30.25 17.4639 30.0365 17.568 29.8125 17.6878Z" fill="#B31D23"/>
<path d="M35.7402 18.5938C35.6465 18.4583 35.5579 18.3281 35.4746 18.1979C35.5475 18.1354 35.6257 18.0677 35.6986 17.9948C35.7298 17.9635 35.7559 17.9323 35.7871 17.901H35.7923C35.7923 17.901 35.7923 17.901 35.7923 17.8958H35.7975C35.8757 17.8073 35.9538 17.7188 36.0215 17.625C36.0788 17.651 36.1309 17.6771 36.1882 17.7031C36.084 18.0156 35.9382 18.3177 35.7402 18.5938Z" fill="#A81C22"/>
<path d="M34.5638 19.5889C34.418 19.3285 34.2878 19.0837 34.1836 18.8545C34.6471 18.7347 35.0846 18.516 35.4753 18.1982C35.5586 18.3285 35.6471 18.4587 35.7409 18.5941C35.6315 18.7399 35.5117 18.8805 35.3763 19.016C35.1315 19.2555 34.8555 19.4378 34.5638 19.5889Z" fill="#991A20"/>
<path d="M36.1882 17.7028C36.1309 17.6768 36.0788 17.6507 36.0215 17.6247C36.1361 17.4736 36.2298 17.3226 36.3132 17.1611C36.2871 17.3434 36.2454 17.5257 36.1882 17.7028Z" fill="#B71D24"/>
<path d="M35.6986 13.3076C37.0111 14.6045 37.0111 16.7035 35.6986 17.9951C34.3861 19.292 32.2559 19.292 30.9434 17.9951C29.6309 16.7035 29.6309 14.6045 30.9434 13.3076C32.2559 12.016 34.3861 12.016 35.6986 13.3076Z" fill="#D91E25"/>
<path d="M33.319 18.9632C33.0013 18.9632 32.6784 18.9215 32.3711 18.833C32.0274 18.734 31.6993 18.5778 31.3972 18.3695C31.2357 18.2601 31.0847 18.1351 30.944 17.9945C30.944 17.9945 30.9388 17.9945 30.9388 17.9893C30.9388 17.9893 30.9388 17.9893 30.9336 17.9893C30.9076 17.958 30.8763 17.9268 30.8503 17.9007V17.8955C30.8451 17.8955 30.8451 17.8955 30.8451 17.8955C30.8451 17.8903 30.8451 17.8903 30.8451 17.8903C30.8399 17.8903 30.8399 17.8903 30.8399 17.8903C29.8086 16.7809 29.6888 15.1455 30.4701 13.9111C30.4701 14.0726 30.4857 14.2393 30.5118 14.4007C30.418 14.6143 30.3503 14.8382 30.3086 15.0674C30.392 14.9528 30.4805 14.8382 30.5795 14.734C30.7253 15.2757 31.017 15.7965 31.4493 16.2236C32.1055 16.8695 32.9701 17.1924 33.8295 17.1924C34.5326 17.1924 35.2409 16.9736 35.8347 16.5413C35.8607 16.8122 35.8503 17.083 35.7982 17.3486C36.0795 16.9632 36.2618 16.5309 36.3399 16.083C36.4649 15.9372 36.5795 15.7861 36.6784 15.6247C36.6888 16.4372 36.392 17.2549 35.7982 17.8955H35.793C35.793 17.9007 35.793 17.9007 35.793 17.9007H35.7878C35.7565 17.932 35.7305 17.9632 35.6993 17.9945C35.6263 18.0674 35.5482 18.1351 35.4753 18.1976C35.0847 18.5153 34.6472 18.734 34.1836 18.8538C34.1784 18.8538 34.1784 18.8538 34.1784 18.859C33.8972 18.9268 33.6107 18.9632 33.319 18.9632Z" fill="#A81C22"/>
<path d="M35.8346 16.542C35.7721 15.8649 35.4805 15.2087 34.9544 14.6878C34.3555 14.0993 33.5742 13.8076 32.7878 13.8076C32.0065 13.8076 31.2201 14.0993 30.6211 14.6878C30.6107 14.7035 30.5951 14.7191 30.5794 14.7347C30.5534 14.6201 30.5273 14.5107 30.5117 14.4014C30.6576 14.0576 30.8711 13.7347 31.1576 13.4587C31.7565 12.8649 32.5378 12.5732 33.3242 12.5732C34.1055 12.5732 34.8919 12.8649 35.4909 13.4587C36.2148 14.1722 36.4961 15.1566 36.3398 16.0837C36.293 16.1305 36.2513 16.1774 36.2044 16.2243C36.0898 16.3389 35.9648 16.4482 35.8346 16.542Z" fill="#E92824"/>
<path d="M35.7982 17.3493C35.8503 17.0837 35.8607 16.8128 35.8346 16.542C35.9648 16.4482 36.0898 16.3389 36.2044 16.2243C36.2513 16.1774 36.293 16.1305 36.3398 16.0837C36.2617 16.5316 36.0794 16.9639 35.7982 17.3493ZM30.3086 15.068C30.3503 14.8389 30.418 14.6149 30.5117 14.4014C30.5273 14.5107 30.5534 14.6201 30.5794 14.7347C30.4805 14.8389 30.3919 14.9535 30.3086 15.068Z" fill="#C62524"/>
</svg>
