<svg width="33" height="68" viewBox="0 0 33 68" fill="none" xmlns="http://www.w3.org/2000/svg">
<path d="M3.46289 55.7607H20.791V4.38574H31.3223V55.6253C31.2702 56.943 31.4733 58.8805 31.0931 60.2607C30.4837 63.068 27.9629 65.5472 25.1348 66.0889C24.4004 66.2503 23.5983 66.3024 22.7754 66.2816H3.46289V55.7607Z" fill="#78AAC9"/>
<path d="M3.46289 66.0524H22.7337C23.5358 66.068 24.3223 66.0212 25.041 65.8701C27.8171 65.3597 30.3014 62.9222 30.8691 60.1618C31.2337 58.8076 31.041 56.9222 31.0931 55.6253V4.38574H31.3223V55.6253C31.2702 56.943 31.4733 58.8805 31.0931 60.2607C30.4837 63.068 27.9629 65.5472 25.1348 66.0889C24.4004 66.2503 23.5983 66.3024 22.7754 66.2816H3.46289V66.0524Z" fill="#5F859F"/>
<path d="M22.9792 65.7552C22.8802 65.7552 22.7813 65.75 22.6771 65.75H7.26562V64.5417H20.5625C20.7031 64.5365 20.8542 64.5365 21.0156 64.5365C21.224 64.5365 21.4427 64.5365 21.6719 64.5417C21.901 64.5417 22.1406 64.5469 22.3802 64.5469C23.0885 64.5469 23.8177 64.526 24.4323 64.4167C26.875 64.1406 29.099 61.9688 29.4271 59.5313C29.6823 58.3385 29.5469 56.776 29.5833 55.625V6.54688H30.7917V55.625C30.7448 56.8958 30.9271 58.7135 30.5833 60.0365C30.0625 62.7292 27.6302 65.1146 24.9219 65.5781C24.3125 65.7031 23.6562 65.7552 22.9792 65.7552ZM22.1354 63.1771C21.9323 63.1771 21.7292 63.1771 21.5365 63.1771C21.3385 63.1771 21.151 63.1719 20.9688 63.1719C20.8281 63.1719 20.6927 63.1719 20.5625 63.1771H7.26562V61.9635L23.3906 61.9323C24.3073 61.9323 25.25 61.6302 25.9219 60.9583C26.6042 60.3073 26.9635 59.375 26.9635 58.4583C27.0365 57.5417 27 56.526 27.0052 55.625V6.54688H28.2188V55.625C28.1927 56.6458 28.276 57.9167 28.1198 58.9635C28.0104 61.1042 26.026 63.0365 23.8802 63.099C23.3385 63.1667 22.7292 63.1771 22.1354 63.1771Z" fill="#89B9D2"/>
<path d="M22.3802 64.5469C22.1406 64.5469 21.901 64.5417 21.6719 64.5417C21.4427 64.5365 21.224 64.5365 21.0156 64.5365C20.8542 64.5365 20.7031 64.5365 20.5625 64.5417H7.26562V63.1771H20.5625C20.6927 63.1719 20.8281 63.1719 20.9688 63.1719C21.151 63.1719 21.3385 63.1771 21.5365 63.1771C21.7292 63.1771 21.9323 63.1771 22.1354 63.1771C22.7292 63.1771 23.3385 63.1667 23.8802 63.099C26.026 63.0365 28.0104 61.1042 28.1198 58.9635C28.276 57.9167 28.1927 56.6458 28.2188 55.625V6.54688H29.5833V55.625C29.5469 56.776 29.6823 58.3385 29.4271 59.5313C29.099 61.9688 26.875 64.1406 24.4323 64.4167C23.8177 64.526 23.0885 64.5469 22.3802 64.5469Z" fill="#B0D6E7"/>
<path d="M22.5938 59.4323C22.5052 59.4323 22.4167 59.4271 22.3281 59.4115H7.26562V56.4896H21.099C21.1146 56.4948 21.1354 56.4948 21.151 56.4948C21.3646 56.4948 21.5521 56.2969 21.526 56.0781V6.54688H24.4479V57.3594C24.5938 58.4375 23.6563 59.4323 22.5938 59.4323Z" fill="#699ABC"/>
<path d="M21.151 56.4948C21.1354 56.4948 21.1146 56.4948 21.099 56.4896H7.26562V56H20.8906C20.8958 56.0052 20.9063 56.0052 20.9115 56.0052C20.9792 56.0052 21.0417 55.9375 21.0313 55.8646V6.54688H21.526V56.0781C21.5521 56.2969 21.3646 56.4948 21.151 56.4948Z" fill="#76ADD0"/>
<path d="M20.9115 56.0052C20.9063 56.0052 20.8958 56.0052 20.8906 56H7.26563V55.7604H5.25H20.7917V5.21875V6.54688H21.0313V55.8646C21.0417 55.9375 20.9792 56.0052 20.9115 56.0052Z" fill="#B8DFEE"/>
<mask id="mask0_292_113694" style="mask-type:luminance" maskUnits="userSpaceOnUse" x="0" y="54" width="6" height="14">
<path d="M0 54.3486H5.57292V67.3538H0V54.3486Z" fill="white"/>
</mask>
<g mask="url(#mask0_292_113694)">
<path d="M5.19857 66.9056H0.0735677C0.0475264 66.9056 0.0214844 66.8796 0.0214844 66.8535V55.1868C0.0214844 55.1608 0.0475264 55.1348 0.0735677 55.1348H5.19857C5.22461 55.1348 5.25065 55.1608 5.25065 55.1868V66.8535C5.25065 66.8796 5.22461 66.9056 5.19857 66.9056Z" fill="#567890"/>
</g>
<mask id="mask1_292_113694" style="mask-type:luminance" maskUnits="userSpaceOnUse" x="0" y="54" width="6" height="14">
<path d="M0.240234 54.3486H5.57357V67.3538H0.240234V54.3486Z" fill="white"/>
</mask>
<g mask="url(#mask1_292_113694)">
<path d="M4.87109 66.8587C5.00651 66.7337 5.10547 66.541 5.10547 66.3171V55.9212C5.10547 55.7285 5.03776 55.5566 4.93359 55.4316C5.03255 55.4421 5.1263 55.4889 5.20443 55.5514C5.13151 55.3431 4.97526 55.1868 4.78776 55.1452C5.04818 55.2077 5.2513 55.4837 5.2513 55.8223V66.2181C5.2513 66.515 5.08984 66.765 4.87109 66.8587Z" fill="#719FBB"/>
</g>
<path d="M4.93294 55.4323C4.91732 55.4271 4.9069 55.4271 4.89648 55.4271H4.86003V55.3594C4.88607 55.3802 4.91211 55.4063 4.93294 55.4323Z" fill="#6A94B0"/>
<path d="M5.20247 55.5524C5.12435 55.4899 5.0306 55.443 4.93164 55.4326C4.91081 55.4066 4.88477 55.3805 4.85872 55.3597V55.3024C4.85872 55.2555 4.84831 55.2191 4.83789 55.1722C4.78581 55.1566 4.73372 55.1357 4.68164 55.1357H4.68685C4.68685 55.1357 4.68685 55.1357 4.69206 55.1357C4.69206 55.1357 4.69206 55.1357 4.69727 55.1357C4.69727 55.1357 4.69727 55.1357 4.70247 55.1357C4.70247 55.1357 4.70247 55.1357 4.70768 55.1357H4.71289H4.7181H4.72331H4.72852C4.72852 55.1357 4.72852 55.1357 4.72852 55.141H4.73372C4.73893 55.141 4.73893 55.141 4.73893 55.141C4.73893 55.141 4.73893 55.141 4.74414 55.141C4.74414 55.141 4.74414 55.141 4.74935 55.141H4.75456H4.75977C4.76497 55.141 4.76497 55.141 4.76497 55.141V55.1462C4.77018 55.1462 4.77018 55.1462 4.77018 55.1462C4.77018 55.1462 4.77018 55.1462 4.77539 55.1462C4.77539 55.1462 4.77539 55.1462 4.7806 55.1462C4.7806 55.1462 4.7806 55.1462 4.78581 55.1462C4.97331 55.1878 5.12956 55.3441 5.20247 55.5524Z" fill="#7CB0D0"/>
<mask id="mask2_292_113694" style="mask-type:luminance" maskUnits="userSpaceOnUse" x="4" y="54" width="2" height="14">
<path d="M4.24023 54.3486H5.57357V67.3538H4.24023V54.3486Z" fill="white"/>
</mask>
<g mask="url(#mask2_292_113694)">
<path d="M4.67708 66.9059H4.60938V55.4268H4.85938V66.7393C4.85938 66.7809 4.84896 66.8226 4.83854 66.8643C4.78646 66.8851 4.73438 66.9059 4.67708 66.9059Z" fill="#314453"/>
</g>
<path d="M4.85938 55.4274H4.60938V55.2451C4.70312 55.2555 4.78646 55.2972 4.85938 55.3597V55.4274Z" fill="#3D5566"/>
<path d="M4.85938 55.3597C4.78646 55.2972 4.70312 55.2555 4.60938 55.2451V55.1357H4.67708H4.68229C4.73438 55.1357 4.78646 55.1566 4.83854 55.1722C4.84896 55.2191 4.85938 55.2555 4.85938 55.3024V55.3597Z" fill="#486479"/>
<mask id="mask3_292_113694" style="mask-type:luminance" maskUnits="userSpaceOnUse" x="0" y="54" width="6" height="14">
<path d="M0.240234 54.3486H5.57357V67.3538H0.240234V54.3486Z" fill="white"/>
</mask>
<g mask="url(#mask3_292_113694)">
<path d="M4.56315 67.3535H0.708984C0.682943 67.3535 0.662109 67.3327 0.662109 67.3066V54.7337C0.662109 54.7077 0.682943 54.6816 0.708984 54.6816H4.56315C4.58919 54.6816 4.61003 54.7077 4.61003 54.7337V67.3066C4.61003 67.3327 4.58919 67.3535 4.56315 67.3535Z" fill="#3F586A"/>
<path d="M1.17253 67.3535C0.891275 67.3535 0.662109 67.0775 0.662109 66.7389C0.662109 66.9056 0.7194 67.0566 0.813151 67.166C0.813151 67.1712 0.81836 67.1764 0.823568 67.1816C0.912109 67.2858 1.0319 67.3535 1.17253 67.3535ZM4.09961 67.3535C4.24023 67.3535 4.36003 67.2858 4.45378 67.1764C4.45898 67.166 4.4694 67.1504 4.47982 67.14C4.52669 67.0671 4.56315 66.9837 4.58398 66.89H0.922526V65.6868H3.01107C3.29753 65.6868 3.52669 65.4108 3.52669 65.0723V55.1348H4.35482C4.44336 55.1348 4.52149 55.1712 4.5944 55.2181C4.55794 54.916 4.35482 54.6868 4.09961 54.6816C4.38086 54.6868 4.61003 54.9629 4.61003 55.3014V66.7389C4.61003 67.0775 4.38086 67.3535 4.09961 67.3535Z" fill="#374D5D"/>
</g>
<mask id="mask4_292_113694" style="mask-type:luminance" maskUnits="userSpaceOnUse" x="0" y="54" width="5" height="14">
<path d="M0.240234 54.3486H4.24023V67.3538H0.240234V54.3486Z" fill="white"/>
</mask>
<g mask="url(#mask4_292_113694)">
<path d="M0.922526 65.6868H0.662109V55.3014C0.662109 54.9577 0.891276 54.6816 1.17773 54.6816H3.52669V55.1348H1.43294C1.15169 55.1348 0.922526 55.4108 0.922526 55.7546V65.6868Z" fill="#527189"/>
</g>
<mask id="mask5_292_113694" style="mask-type:luminance" maskUnits="userSpaceOnUse" x="0" y="54" width="6" height="14">
<path d="M0.240234 54.3486H5.57357V67.3538H0.240234V54.3486Z" fill="white"/>
</mask>
<g mask="url(#mask5_292_113694)">
<path d="M0.813151 67.166C0.7194 67.0566 0.662109 66.9056 0.662109 66.7389V65.6868H0.922526V66.89H0.688151C0.708983 66.9837 0.745443 67.0671 0.792318 67.14C0.797527 67.1452 0.802734 67.1556 0.813151 67.166ZM4.5944 55.2181C4.52149 55.1712 4.44336 55.1348 4.35482 55.1348H3.52669V54.6816H4.0944H4.09961C4.35482 54.6868 4.55794 54.916 4.5944 55.2181Z" fill="#4B687D"/>
</g>
<mask id="mask6_292_113694" style="mask-type:luminance" maskUnits="userSpaceOnUse" x="0" y="66" width="6" height="2">
<path d="M0.240234 66.3486H5.57357V67.3538H0.240234V66.3486Z" fill="white"/>
</mask>
<g mask="url(#mask6_292_113694)">
<path d="M1.17318 67.3542C1.03255 67.3542 0.91276 67.2865 0.824219 67.1823C0.91276 67.2865 1.03776 67.3542 1.17318 67.3542ZM4.48047 67.1406H0.923177V66.8906H4.58464C4.5638 66.9844 4.52734 67.0677 4.48047 67.1406Z" fill="#485C6C"/>
</g>
<mask id="mask7_292_113694" style="mask-type:luminance" maskUnits="userSpaceOnUse" x="0" y="66" width="6" height="2">
<path d="M0.240234 66.3486H5.57357V67.3538H0.240234V66.3486Z" fill="white"/>
</mask>
<g mask="url(#mask7_292_113694)">
<path d="M4.0944 67.3542H1.17773H1.17253C1.03711 67.3542 0.912109 67.2865 0.823568 67.1823C0.81836 67.1771 0.818359 67.1719 0.818359 67.1719C0.849609 67.2135 0.891276 67.2448 0.932943 67.276C0.932943 67.2448 0.922526 67.2188 0.922526 67.1875V67.1406H4.47982C4.4694 67.151 4.45898 67.1667 4.45378 67.1771C4.36003 67.2865 4.24023 67.3542 4.09961 67.3542H4.0944Z" fill="#677A87"/>
</g>
<path d="M5.25 66.2865H7.26563V66.2812H5.25V66.2865Z" fill="#C2C3C1"/>
<path d="M7.26563 66.0518H5.25V65.7497H7.26563V66.0518ZM5.25 61.9632V59.4111H7.26563V61.9632H5.25Z" fill="#5F859F"/>
<path d="M5.25 66.2809H7.26563V66.0518H5.25V66.2809Z" fill="#4B687D"/>
<path d="M7.26563 65.7503H5.25V64.542H7.26563V65.7503ZM7.26563 63.1774H5.25V61.9639H7.26563V63.1774Z" fill="#6C8FA5"/>
<path d="M5.25 64.5413H7.26563V63.1768H5.25V64.5413Z" fill="#89A6B4"/>
<path d="M5.25 59.4111H7.26563V56.4893H5.25V59.4111Z" fill="#537995"/>
<path d="M5.25 56.4896H7.26563V56H5.25V56.4896Z" fill="#5F88A4"/>
<path d="M5.25 56.0003H7.26563V55.7607H5.25V56.0003Z" fill="#8FACBB"/>
<mask id="mask8_292_113694" style="mask-type:luminance" maskUnits="userSpaceOnUse" x="18" y="0" width="15" height="7">
<path d="M18.9062 0H32.2396V6.34896H18.9062V0Z" fill="white"/>
</mask>
<g mask="url(#mask8_292_113694)">
<path d="M20.1035 5.16667V0.0520833C20.1035 0.0208327 20.1296 0 20.1608 0H31.8327C31.8639 0 31.89 0.0208327 31.89 0.0520833V5.16667C31.89 5.19792 31.8639 5.21875 31.8327 5.21875H20.1608C20.1296 5.21875 20.1035 5.19792 20.1035 5.16667Z" fill="#567890"/>
<path d="M31.2025 5.21875H20.791C20.4941 5.21875 20.2441 5.0625 20.1504 4.83854C20.2754 4.97917 20.4681 5.07292 20.6921 5.07292H31.0983C31.2962 5.07292 31.4681 5.01042 31.5931 4.90104C31.5827 5.00521 31.5358 5.09375 31.4681 5.17708C31.7025 5.09375 31.8691 4.91146 31.8848 4.69271C31.8587 4.98958 31.5619 5.21875 31.2025 5.21875Z" fill="#719FBB"/>
</g>
<path d="M31.5938 4.90137C31.5938 4.89095 31.5938 4.88053 31.5938 4.86491V4.83366H31.6615C31.6406 4.8597 31.6198 4.88054 31.5938 4.90137Z" fill="#6A94B0"/>
<path d="M31.4688 5.17741C31.5365 5.09408 31.5833 5.00554 31.5938 4.90137C31.6198 4.88054 31.6406 4.8597 31.6615 4.83366H31.724C31.7656 4.83366 31.8073 4.81803 31.849 4.81283C31.8698 4.76074 31.8906 4.70866 31.8906 4.65137C31.8906 4.65658 31.8906 4.65658 31.8906 4.65658C31.8906 4.65658 31.8906 4.65658 31.8906 4.66178C31.8906 4.66178 31.8906 4.66178 31.8906 4.66699C31.8906 4.66699 31.8906 4.66699 31.8906 4.6722C31.8906 4.6722 31.8906 4.6722 31.8906 4.67741H31.8854C31.8854 4.67741 31.8854 4.67741 31.8854 4.68262C31.8854 4.68262 31.8854 4.68262 31.8854 4.68783C31.8854 4.68783 31.8854 4.68783 31.8854 4.69303C31.8698 4.91178 31.7031 5.09408 31.4688 5.17741Z" fill="#7CB0D0"/>
<mask id="mask9_292_113694" style="mask-type:luminance" maskUnits="userSpaceOnUse" x="18" y="0" width="15" height="2">
<path d="M18.9062 0H32.2396V1.01563H18.9062V0Z" fill="white"/>
</mask>
<g mask="url(#mask9_292_113694)">
<path d="M31.89 0.567708C31.89 0.4375 31.8275 0.328126 31.7389 0.234375C31.765 0.291667 31.7858 0.348959 31.7858 0.416667C31.765 0.411459 31.7441 0.40625 31.7233 0.40625H31.4212C31.2962 0.286458 31.1139 0.213542 30.9056 0.213542H20.4993C20.4004 0.213542 20.3118 0.229166 20.2285 0.260417C20.3535 0.104166 20.5514 0 20.791 0H31.2025C31.5775 0 31.8848 0.25 31.89 0.567708Z" fill="#6A94B0"/>
</g>
<mask id="mask10_292_113694" style="mask-type:luminance" maskUnits="userSpaceOnUse" x="30" y="0" width="3" height="2">
<path d="M30.9062 0H32.2396V1.01563H30.9062V0Z" fill="white"/>
</mask>
<g mask="url(#mask10_292_113694)">
<path d="M31.8913 0.567708C31.8913 0.520834 31.8704 0.473958 31.8548 0.432292C31.834 0.427084 31.8132 0.416667 31.7871 0.416667C31.7871 0.348959 31.7663 0.291667 31.7402 0.234375C31.8288 0.328126 31.8913 0.4375 31.8913 0.567708Z" fill="#7CB0D0"/>
</g>
<path d="M31.5931 4.83301H20.2702C20.2285 4.83301 20.1868 4.81738 20.1452 4.81217C20.1243 4.76009 20.1035 4.70801 20.1035 4.65072V4.58301H31.5931V4.83301Z" fill="#314453"/>
<path d="M31.6615 4.83301H31.5938V4.58301H31.7813C31.7656 4.67155 31.724 4.76009 31.6615 4.83301Z" fill="#3D5566"/>
<path d="M31.7246 4.83301H31.6621C31.7246 4.76009 31.7663 4.67155 31.7819 4.58301H31.8913V4.65072C31.8913 4.70801 31.8704 4.76009 31.8496 4.81217C31.8079 4.81738 31.7663 4.83301 31.7246 4.83301Z" fill="#486479"/>
<mask id="mask11_292_113694" style="mask-type:luminance" maskUnits="userSpaceOnUse" x="18" y="0" width="15" height="2">
<path d="M18.9062 0H32.2396V1.01563H18.9062V0Z" fill="white"/>
</mask>
<g mask="url(#mask11_292_113694)">
<path d="M31.5723 0.635417H20.1035V0.567708C20.1035 0.520834 20.1243 0.473958 20.14 0.432292C20.1816 0.421876 20.2233 0.40625 20.2702 0.40625H31.4212C31.4941 0.473958 31.541 0.552083 31.5723 0.635417Z" fill="#6A8EA3"/>
</g>
<mask id="mask12_292_113694" style="mask-type:luminance" maskUnits="userSpaceOnUse" x="30" y="0" width="3" height="2">
<path d="M30.9062 0H32.2396V1.01563H30.9062V0Z" fill="white"/>
</mask>
<g mask="url(#mask12_292_113694)">
<path d="M31.7865 0.635417H31.5729C31.5417 0.552083 31.4948 0.473958 31.4219 0.40625H31.724C31.7448 0.40625 31.7656 0.411459 31.7865 0.416667C31.7865 0.416667 31.7865 0.416666 31.7865 0.421875V0.635417Z" fill="#7AA7BF"/>
<path d="M31.8913 0.635742H31.7871V0.422201C31.7871 0.416991 31.7871 0.416992 31.7871 0.416992C31.8132 0.416992 31.834 0.427409 31.8548 0.432617C31.8704 0.474284 31.8913 0.521159 31.8913 0.568034V0.635742Z" fill="#8ABED8"/>
</g>
<mask id="mask13_292_113694" style="mask-type:luminance" maskUnits="userSpaceOnUse" x="19" y="0" width="14" height="5">
<path d="M19.6504 0.598633H32.3431V4.6403H19.6504V0.598633Z" fill="white"/>
</mask>
<g mask="url(#mask13_292_113694)">
<path d="M19.6504 4.5306V0.686849C19.6504 0.6556 19.6764 0.634766 19.7025 0.634766H32.291C32.3171 0.634766 32.3379 0.6556 32.3379 0.686849V4.5306C32.3379 4.56185 32.3171 4.58268 32.291 4.58268H19.7025C19.6764 4.58268 19.6504 4.56185 19.6504 4.5306Z" fill="#3F586A"/>
<path d="M31.7233 4.58268H20.2702C19.9316 4.58268 19.6556 4.35352 19.6504 4.07227C19.6556 4.20768 19.7233 4.33268 19.8327 4.42122C19.8431 4.43164 19.8587 4.44206 19.8691 4.45247C19.9421 4.49935 20.0254 4.53581 20.1191 4.55664V0.895182H21.3223V2.98372C21.3223 3.27018 21.5983 3.49935 21.9421 3.49935H31.89V4.32747C31.89 4.41602 31.8535 4.49414 31.8066 4.56706C32.1035 4.5306 32.3379 4.32747 32.3379 4.07227C32.3379 4.35352 32.0619 4.58268 31.7233 4.58268ZM19.6504 1.14518C19.6556 0.863933 19.9316 0.639974 20.2702 0.634766C20.1035 0.634766 19.9525 0.697266 19.8431 0.785807C19.8431 0.791015 19.8379 0.791016 19.8379 0.791016C19.7233 0.879558 19.6556 1.00456 19.6504 1.14518Z" fill="#374D5D"/>
</g>
<mask id="mask14_292_113694" style="mask-type:luminance" maskUnits="userSpaceOnUse" x="20" y="0" width="13" height="5">
<path d="M20.25 0.598633H32.3438V4.18717H20.25V0.598633Z" fill="white"/>
</mask>
<g mask="url(#mask14_292_113694)">
<path d="M32.3379 3.49935H31.89V1.41081C31.89 1.12435 31.6087 0.895182 31.2702 0.895182H21.3223V0.634766H31.7233C32.0619 0.634766 32.3379 0.863933 32.3379 1.15039V3.49935Z" fill="#527189"/>
</g>
<mask id="mask15_292_113694" style="mask-type:luminance" maskUnits="userSpaceOnUse" x="19" y="0" width="14" height="5">
<path d="M19.8027 0.598633H32.3444V4.6403H19.8027V0.598633Z" fill="white"/>
</mask>
<g mask="url(#mask15_292_113694)">
<path d="M31.8073 4.56706C31.8542 4.49414 31.8906 4.41602 31.8906 4.32747V3.49935H32.3385V4.06706C32.3385 4.07227 32.3385 4.07227 32.3385 4.07227C32.3385 4.32747 32.1042 4.5306 31.8073 4.56706ZM21.3229 0.895182H20.1198V0.660807C20.026 0.681641 19.9427 0.7181 19.8698 0.770182V0.764974C19.8594 0.77539 19.8542 0.780599 19.8438 0.785807C19.9531 0.697266 20.1042 0.634766 20.2708 0.634766H21.3229V0.895182Z" fill="#4B687D"/>
</g>
<mask id="mask16_292_113694" style="mask-type:luminance" maskUnits="userSpaceOnUse" x="18" y="0" width="3" height="6">
<path d="M18.9062 0H20.2396V5.01563H18.9062V0Z" fill="white"/>
</mask>
<g mask="url(#mask16_292_113694)">
<path d="M20.1191 4.55762C20.0254 4.53678 19.9421 4.50033 19.8691 4.45345V0.896159H20.1191V4.55762ZM19.6504 1.15137V1.14616C19.6504 1.14616 19.6504 1.14616 19.6504 1.15137ZM19.6504 1.14616C19.6556 1.00553 19.7233 0.880535 19.8379 0.791992C19.7285 0.885743 19.6556 1.00553 19.6504 1.14616Z" fill="#485C6C"/>
</g>
<mask id="mask17_292_113694" style="mask-type:luminance" maskUnits="userSpaceOnUse" x="18" y="0" width="3" height="2">
<path d="M18.9062 0H20.2396V1.01563H18.9062V0Z" fill="white"/>
</mask>
<g mask="url(#mask17_292_113694)">
<path d="M20.1191 0.895508H19.8691V0.770508C19.9421 0.718425 20.0254 0.681966 20.1191 0.661133V0.895508Z" fill="#5A7789"/>
</g>
<mask id="mask18_292_113694" style="mask-type:luminance" maskUnits="userSpaceOnUse" x="18" y="0" width="3" height="6">
<path d="M18.9062 0H20.2396V5.01563H18.9062V0Z" fill="white"/>
</mask>
<g mask="url(#mask18_292_113694)">
<path d="M19.8392 0.791341C19.8392 0.791341 19.8444 0.791341 19.8444 0.786133C19.8444 0.791341 19.8444 0.791341 19.8444 0.791341C19.8392 0.791341 19.8392 0.791341 19.8392 0.791341Z" fill="#596D7A"/>
</g>
<mask id="mask19_292_113694" style="mask-type:luminance" maskUnits="userSpaceOnUse" x="18" y="0" width="3" height="2">
<path d="M18.9062 0H20.2396V1.01563H18.9062V0Z" fill="white"/>
</mask>
<g mask="url(#mask19_292_113694)">
<path d="M19.8438 0.791667C19.8438 0.791667 19.8438 0.791666 19.8438 0.786458C19.8542 0.78125 19.8594 0.776041 19.8698 0.765625V0.770833C19.8594 0.776041 19.849 0.781251 19.8438 0.791667Z" fill="#698493"/>
</g>
<mask id="mask20_292_113694" style="mask-type:luminance" maskUnits="userSpaceOnUse" x="18" y="0" width="3" height="6">
<path d="M18.9062 0H20.2396V5.01563H18.9062V0Z" fill="white"/>
</mask>
<g mask="url(#mask20_292_113694)">
<path d="M19.8691 4.45345C19.8587 4.44303 19.8431 4.43262 19.8327 4.4222C19.7233 4.33366 19.6556 4.20866 19.6504 4.07324V4.06803V1.15137C19.6504 1.14616 19.6504 1.14616 19.6504 1.14616C19.6556 1.00553 19.7285 0.885743 19.8379 0.791992C19.8379 0.791992 19.8379 0.791992 19.8431 0.791992C19.8014 0.828451 19.765 0.864909 19.7337 0.911784C19.765 0.906576 19.791 0.896159 19.8223 0.896159H19.8691V4.45345Z" fill="#677A87"/>
</g>
<mask id="mask21_292_113694" style="mask-type:luminance" maskUnits="userSpaceOnUse" x="18" y="0" width="3" height="2">
<path d="M18.9062 0H20.2396V1.01563H18.9062V0Z" fill="white"/>
</mask>
<g mask="url(#mask21_292_113694)">
<path d="M19.7344 0.911133C19.7656 0.864258 19.8021 0.8278 19.8438 0.791341C19.849 0.780925 19.8594 0.775716 19.8698 0.770508V0.895508H19.8229C19.7917 0.895508 19.7656 0.905925 19.7344 0.911133Z" fill="#76909D"/>
</g>
<path d="M31.0931 6.54688H30.791V5.21875H31.0931V6.54688ZM27.0046 6.54688H24.4473V5.21875H27.0046V6.54688Z" fill="#5F859F"/>
<path d="M31.0938 6.54688H31.3229V5.21875H31.0938V6.54688Z" fill="#4B687D"/>
<path d="M30.7923 6.54688H29.584V5.21875H30.7923V6.54688ZM28.2194 6.54688H27.0059V5.21875H28.2194V6.54688Z" fill="#6C8FA5"/>
<path d="M28.2188 6.54688H29.5833V5.21875H28.2188V6.54688Z" fill="#89A6B4"/>
<path d="M21.5254 6.54688H24.4473V5.21875H21.5254V6.54688Z" fill="#537995"/>
<path d="M21.0312 6.54688H21.526V5.21875H21.0312V6.54688Z" fill="#5F88A4"/>
<path d="M20.791 6.54688H21.0306V5.21875H20.791V6.54688Z" fill="#8FACBB"/>
</svg>
