<svg width="68" height="65" viewBox="0 0 68 65" fill="none" xmlns="http://www.w3.org/2000/svg">
<path d="M62.6725 11.7861H36.6309L23.6882 11.8018C20.6257 11.8174 17.6413 13.0778 15.4798 15.234C13.3079 17.3747 12.0371 20.3278 12.0163 23.3643L12.0059 36.1872V61.9893H1.91211V36.1872L1.92253 23.2132C1.96419 17.6299 4.3444 12.083 8.3444 8.16113C12.3027 4.19759 17.9017 1.83822 23.5319 1.80176L36.6309 1.78613H62.6725V11.7861Z" fill="#78AAC9"/>
<path d="M62.6725 2.00488H36.6309L23.5371 2.0153C17.9642 2.05697 12.4173 4.3903 8.50065 8.31217C4.53711 12.1976 2.18294 17.6924 2.14648 23.2132L2.13086 36.1872V61.9893H1.91211V36.1872L1.92253 23.2132C1.96419 17.6299 4.3444 12.083 8.3444 8.16113C12.3027 4.19759 17.9017 1.83822 23.5319 1.80176L36.6309 1.78613H62.6725V2.00488Z" fill="#5F859F"/>
<path d="M6.04688 57.3695H4.89062V36.1872L4.90104 23.2549C4.9375 18.4268 6.98958 13.6403 10.4479 10.2445C13.875 6.81738 18.7031 4.78093 23.5781 4.74967L36.6302 4.73926H59.5833V5.88509H36.6302L23.599 5.90072C19.0156 5.92676 14.4896 7.83822 11.2656 11.057C8.01563 14.2497 6.08854 18.7393 6.05729 23.2757L6.04688 36.1872V57.3695Z" fill="#89B9D2"/>
<path d="M3.57813 57.3701H2.42188V36.1878L2.43229 23.2191C2.47396 17.7712 4.79687 12.3493 8.70313 8.51595C12.5677 4.64616 18.0365 2.34408 23.5417 2.30762L36.6302 2.29199H59.5833V3.43783H36.6302L23.5573 3.45345C18.3542 3.48991 13.1823 5.66699 9.52083 9.32845C5.82292 12.9587 3.625 18.0785 3.59375 23.2399L3.57813 36.1878V57.3701Z" fill="#89B9D2"/>
<path d="M4.89063 57.3698H3.57812V36.1875L3.59375 23.2396C3.625 18.0781 5.82292 12.9583 9.52083 9.32813C13.1823 5.66667 18.3542 3.48958 23.5573 3.45313L36.6302 3.4375H59.5833V4.73958H36.6302L23.5781 4.75C18.7031 4.78125 13.875 6.81771 10.4479 10.2448C6.98958 13.6406 4.9375 18.4271 4.90104 23.2552L4.89063 36.1875V57.3698Z" fill="#B0D6E7"/>
<path d="M11.3021 57.3695H8.5V36.1872L8.51563 23.3122C8.54167 19.3955 10.1979 15.5361 13.0052 12.7757C15.7865 9.99447 19.6823 8.35384 23.6354 8.3278L36.6302 8.31738H59.5833V11.0882H36.6302L23.6771 11.1038C20.4375 11.1247 17.2708 12.458 14.9844 14.7393C12.6823 17.0049 11.3333 20.1403 11.3125 23.3538L11.3021 36.1872V57.3695Z" fill="#699ABC"/>
<path d="M11.7715 57.3701H11.3027V36.1878L11.3132 23.3545C11.334 20.141 12.6829 17.0055 14.985 14.7399C17.2715 12.4587 20.4382 11.1253 23.6777 11.1045L36.6309 11.0889H59.584V11.5576H36.6309L23.6829 11.5732C20.5632 11.5889 17.5215 12.8753 15.3184 15.068C13.0996 17.2555 11.8027 20.266 11.7871 23.3649L11.7715 36.1878V57.3701Z" fill="#76ADD0"/>
<path d="M12.0059 57.3701H11.7715V36.1878L11.7871 23.3649C11.8027 20.266 13.0996 17.2555 15.3184 15.068C17.5215 12.8753 20.5632 11.5889 23.6829 11.5732L36.6309 11.5576H59.584V11.7868H36.6309L23.6882 11.8024C20.6257 11.818 17.6413 13.0785 15.4798 15.2347C13.3079 17.3753 12.0371 20.3285 12.0163 23.3649L12.0059 36.1878V57.3701Z" fill="#B8DFEE"/>
<path d="M60.8027 8.31738H59.584V5.88509H60.8027V8.31738ZM60.8027 2.29134H59.584V2.00488H60.8027V2.29134Z" fill="#55778D"/>
<path d="M59.584 2.00488H60.8027V1.78613H59.584V2.00488Z" fill="#435D71"/>
<path d="M59.584 5.88509H60.8027V4.73926H59.584V5.88509Z" fill="#608092"/>
<path d="M59.584 3.43783H60.8027V2.29199H59.584V3.43783Z" fill="#608092"/>
<path d="M59.584 4.73958H60.8027V3.4375H59.584V4.73958Z" fill="#7892A1"/>
<path d="M59.584 11.0882H60.8027V8.31738H59.584V11.0882Z" fill="#4B6D86"/>
<path d="M59.584 11.5576H60.8027V11.0889H59.584V11.5576Z" fill="#557994"/>
<path d="M59.584 11.7868H60.8027V11.5576H59.584V11.7868Z" fill="#7D97A5"/>
<mask id="mask0_292_113693" style="mask-type:luminance" maskUnits="userSpaceOnUse" x="59" y="0" width="9" height="14">
<path d="M59.5879 0H67.3535V13.0156H59.5879V0Z" fill="white"/>
</mask>
<g mask="url(#mask0_292_113693)">
<path d="M67.2539 12.484H60.8268C60.8112 12.484 60.8008 12.4684 60.8008 12.4528V0.489258C60.8008 0.473632 60.8112 0.458008 60.8268 0.458008H67.2539C67.2695 0.458008 67.2799 0.473632 67.2799 0.489258V12.4528C67.2799 12.4684 67.2695 12.484 67.2539 12.484Z" fill="#567890"/>
</g>
<mask id="mask1_292_113693" style="mask-type:luminance" maskUnits="userSpaceOnUse" x="60" y="0" width="8" height="14">
<path d="M60.9219 0H67.3542V13.0156H60.9219V0Z" fill="white"/>
</mask>
<g mask="url(#mask1_292_113693)">
<path d="M66.8132 12.4372C66.985 12.307 67.0996 12.1143 67.0996 11.8851V1.2653C67.0996 1.06738 67.0215 0.885091 66.8861 0.760091C67.0163 0.770507 67.1257 0.817382 67.2298 0.885091C67.1257 0.650715 66.8965 0.478841 66.6257 0.458008C66.9954 0.484049 67.2819 0.791341 67.2819 1.16113V11.7809C67.2819 12.0882 67.084 12.3382 66.8132 12.4372Z" fill="#719FBB"/>
</g>
<mask id="mask2_292_113693" style="mask-type:luminance" maskUnits="userSpaceOnUse" x="59" y="0" width="9" height="14">
<path d="M59.5879 0H67.3535V13.0156H59.5879V0Z" fill="white"/>
</mask>
<g mask="url(#mask2_292_113693)">
<path d="M61.1237 12.359C60.9362 12.2288 60.8008 12.0257 60.8008 11.7809V1.16113C60.8008 0.775715 61.1185 0.458008 61.5039 0.458008C61.3477 0.458008 61.207 0.520508 61.0924 0.609049C61.1602 0.583008 61.2383 0.562174 61.3164 0.562174C61.3112 0.583008 61.306 0.60384 61.306 0.629883V0.931966C61.1602 1.06217 61.0716 1.24967 61.0716 1.45801V12.083C61.0716 12.182 61.0872 12.2705 61.1237 12.359ZM66.8841 0.760091C66.8737 0.760091 66.8581 0.760091 66.8424 0.760091H66.8008V0.687174C66.832 0.713217 66.8581 0.734048 66.8841 0.760091Z" fill="#6A94B0"/>
</g>
<mask id="mask3_292_113693" style="mask-type:luminance" maskUnits="userSpaceOnUse" x="60" y="0" width="8" height="2">
<path d="M60.9219 0H67.3542V1.01563H60.9219V0Z" fill="white"/>
</mask>
<g mask="url(#mask3_292_113693)">
<path d="M67.2292 0.885091C67.125 0.817382 67.0156 0.770507 66.8854 0.760091C66.8594 0.734048 66.8333 0.713217 66.8021 0.687174V0.629883C66.8021 0.583007 66.7865 0.541341 66.776 0.499674C66.7135 0.478841 66.6458 0.458008 66.5781 0.458008C66.5833 0.458008 66.5833 0.458008 66.5833 0.458008C66.5885 0.458008 66.5885 0.458008 66.5885 0.458008C66.5885 0.458008 66.5885 0.458008 66.5938 0.458008H66.599C66.6042 0.458008 66.6042 0.458008 66.6042 0.458008C66.6042 0.458008 66.6042 0.458008 66.6094 0.458008C66.6094 0.458008 66.6094 0.458008 66.6146 0.458008H66.6198H66.625C66.8958 0.478841 67.125 0.650715 67.2292 0.885091ZM61.0938 0.609049C61.2083 0.520508 61.349 0.458008 61.5052 0.458008C61.5104 0.458008 61.5104 0.458008 61.5104 0.458008C61.4479 0.458008 61.3958 0.478841 61.3385 0.494466C61.3333 0.515299 61.3229 0.541341 61.3177 0.562174C61.2396 0.562174 61.1615 0.583008 61.0938 0.609049Z" fill="#7CB0D0"/>
</g>
<mask id="mask4_292_113693" style="mask-type:luminance" maskUnits="userSpaceOnUse" x="66" y="0" width="2" height="14">
<path d="M66.2559 0H67.3548V13.0156H66.2559V0Z" fill="white"/>
</mask>
<g mask="url(#mask4_292_113693)">
<path d="M66.5788 12.4847H66.4902V0.760742H66.8027V12.3128C66.8027 12.3597 66.7871 12.4014 66.7767 12.443C66.7142 12.4639 66.6465 12.4847 66.5788 12.4847Z" fill="#314453"/>
</g>
<mask id="mask5_292_113693" style="mask-type:luminance" maskUnits="userSpaceOnUse" x="66" y="0" width="2" height="2">
<path d="M66.2559 0H67.3548V1.01563H66.2559V0Z" fill="white"/>
</mask>
<g mask="url(#mask5_292_113693)">
<path d="M66.8027 0.760091H66.4902V0.567383C66.6048 0.583008 66.7142 0.624674 66.8027 0.687174V0.760091Z" fill="#3D5566"/>
<path d="M66.8027 0.687174C66.7142 0.624674 66.6048 0.583008 66.4902 0.567383V0.458008H66.5788C66.6465 0.458008 66.7142 0.478841 66.7767 0.499674C66.7871 0.541341 66.8027 0.583007 66.8027 0.629883V0.687174Z" fill="#486479"/>
</g>
<mask id="mask6_292_113693" style="mask-type:luminance" maskUnits="userSpaceOnUse" x="60" y="0" width="3" height="14">
<path d="M60.9219 0H62.2552V13.0156H60.9219V0Z" fill="white"/>
</mask>
<g mask="url(#mask6_292_113693)">
<path d="M61.5931 12.4844H61.5098C61.4473 12.4844 61.3952 12.4635 61.3379 12.4479C61.3275 12.4063 61.3066 12.3594 61.3066 12.3125V0.932292C61.39 0.864584 61.4889 0.812499 61.5931 0.78125V12.4844Z" fill="#6A8EA3"/>
</g>
<mask id="mask7_292_113693" style="mask-type:luminance" maskUnits="userSpaceOnUse" x="60" y="0" width="3" height="2">
<path d="M60.9219 0H62.2552V1.01563H60.9219V0Z" fill="white"/>
</mask>
<g mask="url(#mask7_292_113693)">
<path d="M61.3066 0.932292V0.630208C61.3066 0.604166 61.3118 0.583333 61.3171 0.5625C61.3223 0.5625 61.3223 0.5625 61.3275 0.5625H61.5931V0.78125C61.4889 0.812499 61.39 0.864584 61.3066 0.932292Z" fill="#7AA7BF"/>
<path d="M61.3164 0.562174C61.3216 0.541341 61.332 0.515299 61.3372 0.494466C61.3945 0.478841 61.4466 0.458008 61.5091 0.458008H61.5924V0.562174H61.3268C61.3216 0.562174 61.3216 0.562174 61.3164 0.562174Z" fill="#8ABED8"/>
</g>
<mask id="mask8_292_113693" style="mask-type:luminance" maskUnits="userSpaceOnUse" x="60" y="0" width="8" height="14">
<path d="M60.9219 0H67.3542V13.0156H60.9219V0Z" fill="white"/>
</mask>
<g mask="url(#mask8_292_113693)">
<path d="M66.4635 12.9427H61.6198C61.6042 12.9427 61.5938 12.9323 61.5938 12.9167V0.0260417C61.5938 0.0104177 61.6042 0 61.6198 0H66.4635C66.4792 0 66.4896 0.0104177 66.4896 0.0260417V12.9167C66.4896 12.9323 66.4792 12.9427 66.4635 12.9427Z" fill="#3F586A"/>
<path d="M65.8594 12.9427C66.0312 12.9427 66.1875 12.8698 66.2969 12.7552C66.3073 12.7448 66.3177 12.7344 66.3281 12.724C66.3906 12.651 66.4323 12.5625 66.4583 12.4688H61.9167V11.2396H64.5104C64.8594 11.2396 65.1458 10.9583 65.1458 10.6094V0.458333H66.1719C66.2865 0.458333 66.3802 0.494792 66.474 0.541667C66.4271 0.239584 66.1771 0 65.8594 0C66.2083 0 66.4896 0.28125 66.4896 0.630208V12.3125C66.4896 12.6615 66.2083 12.9427 65.8594 12.9427ZM62.224 12.9427C61.8802 12.9427 61.599 12.6615 61.5938 12.3177C61.5938 12.4896 61.6667 12.6406 61.7813 12.75L61.7865 12.7552C61.901 12.8698 62.0521 12.9427 62.224 12.9427Z" fill="#374D5D"/>
</g>
<mask id="mask9_292_113693" style="mask-type:luminance" maskUnits="userSpaceOnUse" x="60" y="0" width="7" height="14">
<path d="M60.9219 0H66.2552V13.0156H60.9219V0Z" fill="white"/>
</mask>
<g mask="url(#mask9_292_113693)">
<path d="M61.9167 11.2396H61.5938V0.630208C61.5938 0.28125 61.8802 0 62.2344 0H65.1458V0.458333H62.5521C62.2031 0.458333 61.9167 0.744791 61.9167 1.09375V11.2396Z" fill="#527189"/>
</g>
<mask id="mask10_292_113693" style="mask-type:luminance" maskUnits="userSpaceOnUse" x="60" y="0" width="8" height="14">
<path d="M60.9219 0H67.3542V13.0156H60.9219V0Z" fill="white"/>
</mask>
<g mask="url(#mask10_292_113693)">
<path d="M61.7813 12.75C61.6667 12.6406 61.5938 12.4896 61.5938 12.3177C61.5938 12.3125 61.5938 12.3125 61.5938 12.3125V11.2396H61.9167V12.4688H61.625C61.651 12.5625 61.6979 12.651 61.7552 12.724C61.7656 12.7344 61.7708 12.7396 61.7813 12.75ZM66.474 0.541667C66.3802 0.494792 66.2865 0.458333 66.1719 0.458333H65.1458V0H65.8542C65.8594 0 65.8594 0 65.8594 0C66.1771 0 66.4271 0.239584 66.474 0.541667Z" fill="#4B687D"/>
</g>
<mask id="mask11_292_113693" style="mask-type:luminance" maskUnits="userSpaceOnUse" x="64" y="11" width="4" height="3">
<path d="M64.9219 11.6826H67.3542V13.016H64.9219V11.6826Z" fill="white"/>
</mask>
<g mask="url(#mask11_292_113693)">
<path d="M65.8594 12.9434C66.0312 12.9434 66.1823 12.8704 66.2969 12.7559C66.1875 12.8704 66.0312 12.9434 65.8594 12.9434Z" fill="#485C6C"/>
</g>
<mask id="mask12_292_113693" style="mask-type:luminance" maskUnits="userSpaceOnUse" x="60" y="11" width="8" height="3">
<path d="M60.9219 11.6826H67.3542V13.016H60.9219V11.6826Z" fill="white"/>
</mask>
<g mask="url(#mask12_292_113693)">
<path d="M62.2298 12.9427H62.2246C62.0527 12.9427 61.9017 12.8698 61.7871 12.7552C61.9017 12.8698 62.0527 12.9427 62.2298 12.9427ZM66.3288 12.724H61.9173V12.4688H66.459C66.4329 12.5625 66.3913 12.651 66.3288 12.724Z" fill="#485C6C"/>
</g>
<path d="M61.9167 12.724H61.7552C61.6979 12.651 61.651 12.5625 61.625 12.4688H61.9167V12.724Z" fill="#5A7789"/>
<path d="M61.7865 12.7552L61.7813 12.75C61.7813 12.75 61.7812 12.75 61.7865 12.75C61.7865 12.7552 61.7865 12.7552 61.7865 12.7552Z" fill="#596D7A"/>
<path d="M61.7871 12.7497C61.7819 12.7497 61.7819 12.7497 61.7819 12.7497C61.7715 12.7393 61.7663 12.734 61.7559 12.7236C61.7663 12.734 61.7767 12.7445 61.7871 12.7497Z" fill="#698493"/>
<mask id="mask13_292_113693" style="mask-type:luminance" maskUnits="userSpaceOnUse" x="60" y="11" width="8" height="3">
<path d="M60.9219 11.6826H67.3542V13.016H60.9219V11.6826Z" fill="white"/>
</mask>
<g mask="url(#mask13_292_113693)">
<path d="M65.8548 12.9434H62.235H62.2298C62.0527 12.9434 61.9017 12.8704 61.7871 12.7559C61.7871 12.7559 61.7871 12.7559 61.7871 12.7507C61.8288 12.7975 61.8809 12.834 61.9329 12.86C61.9329 12.834 61.9173 12.8079 61.9173 12.7767V12.7246H66.3288C66.3184 12.735 66.3079 12.7454 66.2975 12.7559C66.1829 12.8704 66.0319 12.9434 65.86 12.9434C65.8548 12.9434 65.8548 12.9434 65.8548 12.9434Z" fill="#677A87"/>
</g>
<path d="M61.9329 12.859C61.8809 12.833 61.8288 12.7966 61.7871 12.7497C61.7767 12.7445 61.7663 12.734 61.7559 12.7236H61.9173V12.7757C61.9173 12.807 61.9329 12.833 61.9329 12.859Z" fill="#76909D"/>
<path d="M8.50065 58.3128H6.04753V57.3701H8.50065V58.3128ZM2.42253 58.3128H2.13086V57.3701H2.42253V58.3128Z" fill="#55778D"/>
<path d="M1.91211 58.3128H2.13086V57.3701H1.91211V58.3128Z" fill="#435D71"/>
<path d="M4.89062 58.3128H6.04688V57.3701H4.89062V58.3128Z" fill="#608092"/>
<path d="M2.42188 58.3128H3.57813V57.3701H2.42188V58.3128Z" fill="#608092"/>
<path d="M3.57812 58.3128H4.89063V57.3701H3.57812V58.3128Z" fill="#7892A1"/>
<path d="M8.5 58.3128H11.3021V57.3701H8.5V58.3128Z" fill="#4B6D86"/>
<path d="M11.3027 58.3128H11.7715V57.3701H11.3027V58.3128Z" fill="#557994"/>
<path d="M11.7715 58.3128H12.0059V57.3701H11.7715V58.3128Z" fill="#7D97A5"/>
<mask id="mask14_292_113693" style="mask-type:luminance" maskUnits="userSpaceOnUse" x="0" y="58" width="13" height="7">
<path d="M0.521484 58.3076H12.7663V64.7347H0.521484V58.3076Z" fill="white"/>
</mask>
<g mask="url(#mask14_292_113693)">
<path d="M0.537109 64.7031V58.3385C0.537109 58.3229 0.552734 58.3125 0.568359 58.3125H12.6465C12.6621 58.3125 12.6725 58.3229 12.6725 58.3385V64.7031C12.6725 64.7188 12.6621 64.7344 12.6465 64.7344H0.568359C0.552734 64.7344 0.537109 64.7188 0.537109 64.7031Z" fill="#567890"/>
</g>
<mask id="mask15_292_113693" style="mask-type:luminance" maskUnits="userSpaceOnUse" x="0" y="58" width="13" height="7">
<path d="M0.521484 58.9014H12.7663V64.7347H0.521484V58.9014Z" fill="white"/>
</mask>
<g mask="url(#mask15_292_113693)">
<path d="M11.9642 64.7344H1.24544C0.938151 64.7344 0.682942 64.5365 0.583984 64.2656C0.714192 64.4375 0.912111 64.5521 1.14128 64.5521H11.86C12.0579 64.5521 12.2402 64.474 12.3704 64.3438C12.36 64.4688 12.3079 64.5781 12.2402 64.6771C12.4798 64.5781 12.6569 64.349 12.6725 64.0781C12.6465 64.4427 12.3392 64.7344 11.9642 64.7344ZM12.6725 64.0365V64.0312C12.6725 64.0365 12.6725 64.0365 12.6725 64.0365Z" fill="#719FBB"/>
</g>
<mask id="mask16_292_113693" style="mask-type:luminance" maskUnits="userSpaceOnUse" x="11" y="63" width="2" height="2">
<path d="M11.5879 63.6826H12.9212V64.7347H11.5879V63.6826Z" fill="white"/>
</mask>
<g mask="url(#mask16_292_113693)">
<path d="M12.3691 64.3444C12.3691 64.3288 12.3691 64.3132 12.3691 64.2975V64.2559H12.4368C12.416 64.2871 12.3952 64.3184 12.3691 64.3444Z" fill="#6A94B0"/>
</g>
<mask id="mask17_292_113693" style="mask-type:luminance" maskUnits="userSpaceOnUse" x="12" y="63" width="1" height="2">
<path d="M12.1719 63.9326H12.7656V64.7347H12.1719V63.9326Z" fill="white"/>
</mask>
<g mask="url(#mask17_292_113693)">
<path d="M12.2402 64.6777C12.3079 64.5788 12.36 64.4694 12.3704 64.3444C12.3965 64.3184 12.4173 64.2871 12.4382 64.2559H12.5007C12.5475 64.2559 12.5892 64.2402 12.6309 64.2298C12.6517 64.1673 12.6725 64.1048 12.6725 64.0371C12.6725 64.0371 12.6725 64.0371 12.6725 64.0423C12.6725 64.0475 12.6725 64.0475 12.6725 64.0527C12.6725 64.0527 12.6725 64.0527 12.6725 64.0579V64.0632C12.6725 64.0684 12.6725 64.0684 12.6725 64.0684C12.6725 64.0736 12.6725 64.0736 12.6725 64.0788C12.6569 64.3496 12.4798 64.5788 12.2402 64.6777Z" fill="#7CB0D0"/>
</g>
<mask id="mask18_292_113693" style="mask-type:luminance" maskUnits="userSpaceOnUse" x="0" y="57" width="13" height="3">
<path d="M0 57.0156H12.9219V59.6823H0V57.0156Z" fill="white"/>
</mask>
<g mask="url(#mask18_292_113693)">
<path d="M12.6712 59.0104C12.6712 58.8542 12.6087 58.7135 12.5202 58.599C12.5462 58.6719 12.5671 58.7448 12.5671 58.8229C12.5462 58.8177 12.5254 58.8125 12.4993 58.8125H12.1921C12.0618 58.6667 11.8743 58.5781 11.6608 58.5781H0.942057C0.843099 58.5781 0.749349 58.599 0.666016 58.6354C0.791016 58.4427 0.999349 58.3125 1.24414 58.3125H11.9629C12.3535 58.3125 12.6712 58.625 12.6712 59.0104Z" fill="#6A94B0"/>
</g>
<path d="M12.6725 59.0101C12.6725 58.9528 12.6517 58.8955 12.6361 58.8434C12.6152 58.8382 12.5944 58.8278 12.5684 58.8226C12.5684 58.7445 12.5475 58.6716 12.5215 58.5986C12.61 58.7132 12.6725 58.8538 12.6725 59.0101Z" fill="#7CB0D0"/>
<mask id="mask19_292_113693" style="mask-type:luminance" maskUnits="userSpaceOnUse" x="0" y="63" width="13" height="2">
<path d="M0 63.6826H12.9219V64.7347H0V63.6826Z" fill="white"/>
</mask>
<g mask="url(#mask19_292_113693)">
<path d="M12.3704 64.2555H0.708984C0.66211 64.2555 0.620443 64.2399 0.578776 64.2295C0.557941 64.167 0.537109 64.1045 0.537109 64.0316V63.9482H12.3704V64.2555Z" fill="#314453"/>
</g>
<mask id="mask20_292_113693" style="mask-type:luminance" maskUnits="userSpaceOnUse" x="11" y="63" width="2" height="2">
<path d="M11.5879 63.6826H12.9212V64.7347H11.5879V63.6826Z" fill="white"/>
</mask>
<g mask="url(#mask20_292_113693)">
<path d="M12.4368 64.2555H12.3691V63.9482H12.5618C12.5462 64.0628 12.5046 64.167 12.4368 64.2555Z" fill="#3D5566"/>
<path d="M12.5 64.2555H12.4375C12.5052 64.167 12.5469 64.0628 12.5625 63.9482H12.6719V64.0316V64.0368C12.6719 64.1045 12.651 64.167 12.6302 64.2295C12.5885 64.2399 12.5469 64.2555 12.5 64.2555Z" fill="#486479"/>
</g>
<mask id="mask21_292_113693" style="mask-type:luminance" maskUnits="userSpaceOnUse" x="0" y="58" width="13" height="2">
<path d="M0 58.3486H12.9219V59.682H0V58.3486Z" fill="white"/>
</mask>
<g mask="url(#mask21_292_113693)">
<path d="M12.3444 59.099H0.537109V59.0104C0.537109 58.9531 0.557942 58.8958 0.573568 58.8438C0.615234 58.8333 0.66211 58.8125 0.708984 58.8125H12.1934C12.2663 58.8958 12.3184 58.9896 12.3444 59.099Z" fill="#6A8EA3"/>
</g>
<path d="M12.5684 59.099H12.3444C12.3184 58.9896 12.2663 58.8958 12.1934 58.8125H12.5007C12.5267 58.8125 12.5475 58.8177 12.5684 58.8229C12.5684 58.8281 12.5684 58.8281 12.5684 58.8333V59.099Z" fill="#7AA7BF"/>
<path d="M12.6725 59.0993H12.5684V58.8337C12.5684 58.8285 12.5684 58.8285 12.5684 58.8232C12.5944 58.8285 12.6152 58.8389 12.6361 58.8441C12.6517 58.8962 12.6725 58.9535 12.6725 59.0107V59.0993Z" fill="#8ABED8"/>
<mask id="mask22_292_113693" style="mask-type:luminance" maskUnits="userSpaceOnUse" x="0" y="58" width="15" height="7">
<path d="M0 58.3486H14.2552V64.734H0V58.3486Z" fill="white"/>
</mask>
<g mask="url(#mask22_292_113693)">
<path d="M0.0722656 63.9215V59.1247C0.0722656 59.109 0.0826833 59.0986 0.0983073 59.0986H13.1087C13.1243 59.0986 13.1348 59.109 13.1348 59.1247V63.9215C13.1348 63.9372 13.1243 63.9476 13.1087 63.9476H0.0983073C0.0826833 63.9476 0.0722656 63.9372 0.0722656 63.9215Z" fill="#3F586A"/>
<path d="M12.4993 63.9476H0.707682C0.358724 63.9476 0.0722656 63.6663 0.0722656 63.3226C0.0722656 63.4945 0.145183 63.6455 0.259766 63.7549C0.270183 63.7653 0.285808 63.7757 0.296224 63.7861C0.369141 63.8486 0.457683 63.8903 0.551432 63.9163V59.4163H1.79102V61.984C1.79102 62.333 2.07748 62.6143 2.42643 62.6143H12.6712V63.6351C12.6712 63.7445 12.6348 63.8382 12.5879 63.932C12.8952 63.8851 13.1348 63.6351 13.1348 63.3226C13.1348 63.6663 12.8483 63.9476 12.4993 63.9476ZM0.0722656 63.3226C0.0722656 63.3174 0.0722656 63.3174 0.0722656 63.3174V63.3226ZM0.0722656 59.7288V59.7236C0.0722656 59.7236 0.0722656 59.7236 0.0722656 59.7288ZM0.0722656 59.7236C0.0722656 59.3799 0.358724 59.0986 0.707682 59.0986C0.535808 59.0986 0.384765 59.1663 0.270182 59.2809C0.264973 59.2809 0.259765 59.2861 0.254557 59.2913C0.145183 59.4007 0.0722656 59.5518 0.0722656 59.7236Z" fill="#374D5D"/>
</g>
<mask id="mask23_292_113693" style="mask-type:luminance" maskUnits="userSpaceOnUse" x="0" y="58" width="15" height="6">
<path d="M0 58.3486H14.2552V63.682H0V58.3486Z" fill="white"/>
</mask>
<g mask="url(#mask23_292_113693)">
<path d="M13.1348 62.6143H12.6712V60.0465C12.6712 59.6976 12.3848 59.4163 12.0358 59.4163H1.79102V59.0986H12.4993C12.8535 59.0986 13.1348 59.3799 13.1348 59.7288V62.6143Z" fill="#527189"/>
</g>
<mask id="mask24_292_113693" style="mask-type:luminance" maskUnits="userSpaceOnUse" x="0" y="58" width="15" height="7">
<path d="M0 58.3486H14.2552V64.734H0V58.3486Z" fill="white"/>
</mask>
<g mask="url(#mask24_292_113693)">
<path d="M12.5892 63.932C12.6361 63.8382 12.6725 63.7445 12.6725 63.6351V62.6143H13.1361V63.3174V63.3226C13.1361 63.6351 12.8965 63.8851 12.5892 63.932ZM1.79232 59.4163H0.552734V59.1299C0.458985 59.1507 0.370443 59.1976 0.297526 59.2601V59.2549C0.28711 59.2653 0.2819 59.2705 0.271484 59.2809C0.386067 59.1663 0.53711 59.0986 0.708984 59.0986H1.79232V59.4163Z" fill="#4B687D"/>
</g>
<mask id="mask25_292_113693" style="mask-type:luminance" maskUnits="userSpaceOnUse" x="0" y="58" width="1" height="7">
<path d="M0 58.3486H0.921875V64.734H0V58.3486Z" fill="white"/>
</mask>
<g mask="url(#mask25_292_113693)">
<path d="M0.551432 63.916C0.457683 63.89 0.369141 63.8483 0.296224 63.7858V59.416H0.551432V63.916ZM0.259766 63.7546C0.145183 63.6452 0.0722656 63.4941 0.0722656 63.3223V63.3171C0.0722656 63.4941 0.145183 63.6452 0.259766 63.7546ZM0.0722656 59.7233C0.0722656 59.5514 0.145183 59.4004 0.254557 59.291C0.145183 59.4056 0.0722656 59.5514 0.0722656 59.7233Z" fill="#485C6C"/>
</g>
<mask id="mask26_292_113693" style="mask-type:luminance" maskUnits="userSpaceOnUse" x="0" y="58" width="1" height="2">
<path d="M0 58.3486H0.921875V59.682H0V58.3486Z" fill="white"/>
</mask>
<g mask="url(#mask26_292_113693)">
<path d="M0.552083 59.4163H0.296875V59.2601C0.369792 59.1976 0.458334 59.1507 0.552083 59.1299V59.4163Z" fill="#5A7789"/>
</g>
<mask id="mask27_292_113693" style="mask-type:luminance" maskUnits="userSpaceOnUse" x="0" y="58" width="1" height="7">
<path d="M0 58.3486H0.921875V64.734H0V58.3486Z" fill="white"/>
</mask>
<g mask="url(#mask27_292_113693)">
<path d="M0.255859 59.2917C0.261067 59.2865 0.266275 59.2812 0.271484 59.2812C0.271484 59.2812 0.266276 59.2813 0.266276 59.2865C0.261068 59.2865 0.261067 59.2917 0.255859 59.2917Z" fill="#596D7A"/>
</g>
<mask id="mask28_292_113693" style="mask-type:luminance" maskUnits="userSpaceOnUse" x="0" y="58" width="1" height="2">
<path d="M0 58.3486H0.921875V59.682H0V58.3486Z" fill="white"/>
</mask>
<g mask="url(#mask28_292_113693)">
<path d="M0.265625 59.2861C0.265625 59.2809 0.270833 59.2809 0.270833 59.2809C0.281249 59.2705 0.286459 59.2653 0.296875 59.2549V59.2601C0.286459 59.2653 0.276042 59.2757 0.265625 59.2861Z" fill="#698493"/>
</g>
<mask id="mask29_292_113693" style="mask-type:luminance" maskUnits="userSpaceOnUse" x="0" y="58" width="1" height="7">
<path d="M0 58.3486H0.921875V64.734H0V58.3486Z" fill="white"/>
</mask>
<g mask="url(#mask29_292_113693)">
<path d="M0.296224 63.7861C0.285808 63.7757 0.270183 63.7653 0.259766 63.7549C0.145183 63.6455 0.0722656 63.4945 0.0722656 63.3174V59.7288C0.0722656 59.7236 0.0722656 59.7236 0.0722656 59.7236C0.0722656 59.5518 0.145183 59.4059 0.254557 59.2913C0.259765 59.2913 0.259766 59.2861 0.264974 59.2861C0.223307 59.3278 0.18685 59.3799 0.155599 59.432C0.18685 59.4268 0.21289 59.4163 0.244141 59.4163H0.296224V63.7861Z" fill="#677A87"/>
</g>
<mask id="mask30_292_113693" style="mask-type:luminance" maskUnits="userSpaceOnUse" x="0" y="58" width="1" height="2">
<path d="M0 58.3486H0.921875V59.682H0V58.3486Z" fill="white"/>
</mask>
<g mask="url(#mask30_292_113693)">
<path d="M0.15625 59.4316C0.187501 59.3796 0.223958 59.3275 0.265625 59.2858C0.276042 59.2754 0.286459 59.265 0.296875 59.2598V59.416H0.244792C0.213541 59.416 0.187501 59.4264 0.15625 59.4316Z" fill="#76909D"/>
</g>
</svg>
