<svg width="52" height="68" viewBox="0 0 52 68" fill="none" xmlns="http://www.w3.org/2000/svg">
<path d="M17.4727 65.3854H34.1341V55.4844H17.4727V65.3854Z" fill="#78AAC9"/>
<path d="M34.1341 62.3799H32.9727V60.1611C33.3737 60.0622 33.7643 59.932 34.1341 59.7705V62.3799Z" fill="#85BEDF"/>
<path d="M18.6406 62.3802H17.8594V59.9219C18.1094 60.0156 18.3698 60.0938 18.6406 60.1615V62.3802Z" fill="#6B95B1"/>
<path d="M17.8594 62.3805H17.4844V59.7764C17.6094 59.8285 17.7292 59.8753 17.8594 59.9222V62.3805Z" fill="#86BFDF"/>
<path d="M18.6406 65.3854H32.974V55.4844H18.6406V65.3854Z" fill="#78AAC9"/>
<path d="M17.4727 62.7653H17.4831V62.3799H17.4727V62.7653Z" fill="#658FAA"/>
<path d="M32.9727 62.7653H34.1341V62.3799H32.9727V62.7653Z" fill="#6E9AB6"/>
<path d="M17.8594 62.7653H18.6406V62.3799H17.8594V62.7653Z" fill="#5D829C"/>
<path d="M17.4844 62.7653H17.8594V62.3799H17.4844V62.7653Z" fill="#6E9BB6"/>
<path d="M18.6406 62.7653H32.974V62.3799H18.6406V62.7653Z" fill="#658FAA"/>
<path d="M17.4831 59.7757C17.4779 59.7705 17.4779 59.7705 17.4727 59.7705V58.8643H17.4831V59.7757Z" fill="#658FAA"/>
<path d="M18.6406 60.1611C18.3698 60.0934 18.1094 60.0153 17.8594 59.9215V58.8643H18.6406V60.1611Z" fill="#5D829C"/>
<path d="M17.8594 59.9215C17.7292 59.8747 17.6094 59.8278 17.4844 59.7757V58.8643H17.8594V59.9215Z" fill="#6E9BB6"/>
<path d="M32.9727 60.1611V58.8643H34.1341V59.7705C33.7643 59.932 33.3737 60.0622 32.9727 60.1611Z" fill="#6E9AB6"/>
<path d="M31.224 60.3695H20.3906C19.7865 60.3695 19.1979 60.2965 18.6406 60.1611V58.8643H32.974V60.1611C32.4115 60.2965 31.8281 60.3695 31.224 60.3695Z" fill="#658FAA"/>
<path d="M38.3229 58.8649H13.2917C13.1146 58.8649 12.9688 58.7243 12.9688 58.5472V43.4951H38.6406V58.5472C38.6406 58.7243 38.4948 58.8649 38.3229 58.8649Z" fill="#78AAC9"/>
<path d="M20.7233 57.7396H20.39C17.9941 57.7396 15.8639 56.6042 14.5046 54.8333C13.9785 53.8125 13.6816 52.6562 13.6816 51.4271V50.7656C14.8379 51.3854 16.041 51.9167 17.2858 52.3594C17.5723 54.6302 18.8743 56.5833 20.7233 57.7396Z" fill="#6798BE"/>
<path d="M14.5039 54.8337C13.556 53.5941 12.9831 52.0472 12.9727 50.3701C13.207 50.5055 13.4414 50.6357 13.681 50.766V51.4274C13.681 52.6566 13.9779 53.8128 14.5039 54.8337Z" fill="#7BAFCF"/>
<path d="M31.4883 57.7393C33.3997 56.5413 34.7227 54.4945 34.9466 52.1299C36.2279 51.6351 37.4622 51.0465 38.6393 50.3643C38.6029 54.3538 35.4414 57.5934 31.4883 57.7393Z" fill="#85BEDF"/>
<path d="M27.5612 58.8643H24.6445C23.207 58.8643 21.8633 58.4528 20.7227 57.7393H31.2227C31.3112 57.7393 31.3997 57.7393 31.4883 57.7393C30.3529 58.4528 29.0039 58.8643 27.5612 58.8643Z" fill="#88C3E5"/>
<path d="M24.6458 58.8643H21.099C18.2292 58.8643 15.7396 57.2288 14.5052 54.833C15.8646 56.6038 17.9948 57.7393 20.3906 57.7393H20.724C21.8646 58.4528 23.2083 58.8643 24.6458 58.8643Z" fill="#80BADE"/>
<path d="M21.099 58.8643H20.3906C16.2917 58.8643 12.9688 55.5361 12.9688 51.4268V50.3018V50.3695C12.9844 52.0465 13.5573 53.5934 14.5052 54.833C15.7396 57.2288 18.2292 58.8643 21.099 58.8643Z" fill="#8AC5E8"/>
<path d="M31.224 58.8643H27.5625C29.0052 58.8643 30.3542 58.4528 31.4896 57.7393C35.4427 57.5934 38.6042 54.3538 38.6406 50.3643V51.4268C38.6406 55.5361 35.3177 58.8643 31.224 58.8643Z" fill="#90CDF0"/>
<path d="M25.8066 53.818C22.8171 53.818 19.9525 53.3024 17.2858 52.3597C17.2493 52.0524 17.2285 51.7399 17.2285 51.4274V50.3076C19.9108 51.2555 22.7962 51.7712 25.8066 51.7712C25.8118 51.7712 25.8118 51.7712 25.8171 51.7712H25.8223C25.8275 51.7712 25.8275 51.7712 25.8275 51.7712C25.8275 51.7712 25.8275 51.7712 25.8327 51.7712C25.8327 51.7712 25.8327 51.7712 25.8379 51.7712C25.8379 51.7712 25.8379 51.7712 25.8431 51.7712H25.8483H25.8535H25.8587H25.8639C25.8691 51.7712 25.8691 51.7712 25.8691 51.7712C25.8743 51.7712 25.8743 51.7712 25.8743 51.7712C25.8796 51.7712 25.8796 51.7712 25.8796 51.7712C25.8848 51.7712 25.8848 51.7712 25.8848 51.7712C25.89 51.7712 25.89 51.7712 25.89 51.7712C25.8952 51.7712 25.8952 51.7712 25.8952 51.7712H25.9004H25.9056H25.9108C25.9108 51.7712 25.9108 51.7712 25.916 51.7712H25.9212C25.9264 51.7712 25.9264 51.7712 25.9264 51.7712H25.9316C25.9368 51.7712 25.9368 51.7712 25.9368 51.7712C25.9421 51.7712 25.9421 51.7712 25.9473 51.7712C25.9525 51.7712 25.9525 51.7712 25.9577 51.7712C25.9577 51.7712 25.9577 51.7712 25.9629 51.7712H25.9681H25.9733C25.9785 51.7712 25.9785 51.7712 25.9785 51.7712C25.9837 51.7712 25.9837 51.7712 25.9837 51.7712C25.9889 51.7712 25.9993 51.7712 26.0046 51.7712H26.0098C26.015 51.7712 26.015 51.7712 26.0202 51.7712H26.0254H26.0306C26.0358 51.7712 26.0358 51.7712 26.041 51.7712C26.0462 51.7712 26.0462 51.7712 26.0462 51.7712C26.0514 51.7712 26.0566 51.7712 26.0618 51.7712C26.0618 51.7712 26.0618 51.7712 26.0671 51.7712C26.0723 51.7712 26.0775 51.7712 26.0775 51.7712H26.0827C29.2129 51.7347 32.2077 51.141 34.9785 50.0889V51.4274C34.9785 51.6618 34.9681 51.8962 34.9473 52.1305C32.1035 53.2191 29.0254 53.818 25.8066 53.818Z" fill="#537389"/>
<path d="M17.2858 52.359C16.041 51.9163 14.8379 51.3851 13.6816 50.7653V48.7393C14.8171 49.3486 16.0046 49.8747 17.2285 50.307V51.4268C17.2285 51.7393 17.2493 52.0518 17.2858 52.359Z" fill="#476882"/>
<path d="M13.6823 50.7656C13.4427 50.6354 13.2083 50.5052 12.9688 50.3698C12.9688 50.3438 12.9688 50.3229 12.9688 50.3021V48.3438C13.2083 48.4792 13.4427 48.6146 13.6823 48.7396V50.7656Z" fill="#55768F"/>
<path d="M34.9473 52.1302C34.9681 51.8958 34.9785 51.6615 34.9785 51.4271V50.0885C36.2493 49.599 37.4733 49.0156 38.64 48.3438V50.3021C38.64 50.3229 38.64 50.3438 38.64 50.3646C37.4629 51.0469 36.2285 51.6354 34.9473 52.1302Z" fill="#5B7F97"/>
<path d="M12.9688 50.3695V50.3018C12.9688 50.3226 12.9687 50.3434 12.974 50.3695" fill="#5F849F"/>
<mask id="mask0_292_113695" style="mask-type:luminance" maskUnits="userSpaceOnUse" x="0" y="0" width="52" height="52">
<path d="M0 0H51.6094V51.776H0V0Z" fill="white"/>
</mask>
<g mask="url(#mask0_292_113695)">
<path d="M51.6094 25.8854C51.6094 40.1823 40.0573 51.7708 25.8073 51.7708C11.5521 51.7708 0 40.1823 0 25.8854C0 11.5885 11.5521 0 25.8073 0C40.0573 0 51.6094 11.5885 51.6094 25.8854Z" fill="#F9AD23"/>
</g>
<path d="M48.8223 25.8854C48.8223 38.6354 38.515 48.9688 25.8066 48.9688C13.0931 48.9688 2.79102 38.6354 2.79102 25.8854C2.79102 13.1302 13.0931 2.79688 25.8066 2.79688C38.515 2.79688 48.8223 13.1302 48.8223 25.8854Z" fill="#F47528"/>
<mask id="mask1_292_113695" style="mask-type:luminance" maskUnits="userSpaceOnUse" x="1" y="0" width="51" height="36">
<path d="M1.94141 0H51.6081V35.3125H1.94141V0Z" fill="white"/>
</mask>
<g mask="url(#mask1_292_113695)">
<path d="M49.8581 35.2188C50.1185 34.5417 50.3529 33.8542 50.5612 33.151C50.4154 33.5052 50.2591 33.8542 50.0977 34.2031C50.7331 31.9688 51.082 29.6198 51.082 27.1823C51.082 12.8854 39.5299 1.29688 25.2799 1.29688C14.957 1.29688 6.06641 7.38542 1.94141 16.1719C2.13932 15.6615 2.35286 15.1563 2.57682 14.6563C6.71745 6.04167 15.457 0.072916 25.6081 0H25.6133C25.6185 0 25.6185 0 25.6237 0H25.6289C25.6341 0 25.6393 0 25.6393 0C25.6445 0 25.6497 0 25.6497 0C25.6549 0 25.6602 0 25.6654 0C25.6706 0 25.6706 0 25.6758 0C25.681 0 25.681 0 25.6862 0C25.6914 0 25.6914 0 25.6966 0H25.7018C25.707 0 25.7122 0 25.7174 0H25.7227C25.7279 0 25.7331 0 25.7383 0C25.7435 0 25.7435 0 25.7435 0C25.7487 0 25.7539 0 25.7591 0H25.7643C25.7695 0 25.7747 0 25.7799 0H25.7852C25.7904 0 25.8008 0 25.806 0C40.056 0 51.6081 11.5885 51.6081 25.8854C51.6081 25.8906 51.6081 25.8958 51.6081 25.901C51.6081 25.9063 51.6081 25.9063 51.6081 25.9063C51.6081 25.9115 51.6081 25.9167 51.6081 25.9219V25.9271C51.6081 25.9323 51.6081 25.9375 51.6081 25.9427C51.6029 29.2135 50.9727 32.3385 49.8581 35.2188Z" fill="#FBC547"/>
</g>
<mask id="mask2_292_113695" style="mask-type:luminance" maskUnits="userSpaceOnUse" x="0" y="12" width="27" height="41">
<path d="M0 12.7295H26.5833V52.7295H0V12.7295Z" fill="white"/>
</mask>
<g mask="url(#mask2_292_113695)">
<path d="M25.9115 51.7712H25.9167C25.9115 51.7712 25.9115 51.7712 25.9115 51.7712ZM25.9323 51.7712C25.9323 51.7712 25.9323 51.7712 25.9375 51.7712H25.9323ZM25.9479 51.7712C25.9531 51.7712 25.9531 51.7712 25.9531 51.7712H25.9479ZM26.0365 51.7712C26.0365 51.7712 26.0365 51.7712 26.0417 51.7712H26.0365ZM0 25.8597C0 25.8545 0 25.8493 0 25.8441V25.8389C0 25.8337 0 25.8285 0 25.8232C0 25.8232 0 25.8232 0 25.818C0 25.8128 0 25.8076 0 25.8024V25.7972C0 25.792 0 25.7868 0 25.7816V25.7764C0 25.7712 0 25.766 0 25.7607V25.7555C0 25.7503 0 25.7451 0 25.7399C0 25.7399 0 25.7347 0 25.7295V25.7243C0 25.7087 0 25.6982 0 25.6878C0.0364587 21.266 1.17708 17.1097 3.15625 13.4795C2.95312 13.8649 2.76042 14.2607 2.57813 14.6566C2.33854 15.1618 2.10938 15.6774 1.90104 16.1982C1.91667 16.141 1.93229 16.0889 1.94792 16.0316C0.703125 19.0628 0.005208 22.3805 0 25.8597ZM1.80729 16.5316C1.82292 16.4743 1.83854 16.417 1.85417 16.3649C1.88021 16.3024 1.91146 16.2347 1.94271 16.1722C1.89583 16.292 1.85417 16.4118 1.80729 16.5316Z" fill="#FBC050"/>
</g>
<path d="M1.85352 16.3646C1.86914 16.3073 1.88477 16.2552 1.90039 16.1979C2.10872 15.6771 2.33789 15.1615 2.57747 14.6562C2.35352 15.1563 2.13997 15.6615 1.94206 16.1719C1.91081 16.2344 1.87956 16.3021 1.85352 16.3646Z" fill="#FBCD6F"/>
<path d="M25.4323 47.5212C13.7656 47.5212 4.3125 38.0368 4.3125 26.3337C4.3125 22.9951 5.08333 19.8337 6.45313 17.0264C5.1875 19.7451 4.47917 22.7816 4.47917 25.9795C4.47917 37.6826 13.9375 47.167 25.599 47.167C28.8333 47.167 31.8958 46.4378 34.6354 45.1357C37.4167 43.8493 39.875 41.9743 41.849 39.667C37.974 44.4587 32.0625 47.5212 25.4323 47.5212Z" fill="#F35D27"/>
<path d="M45.556 33.4066C46.4102 31.1514 46.8893 28.7139 46.9258 26.167C46.9258 26.1566 46.9258 26.1462 46.9258 26.1305C46.9258 26.1253 46.9258 26.1201 46.9258 26.1201C46.9258 26.1149 46.9258 26.1149 46.9258 26.1149C46.9258 26.1045 46.9258 26.0941 46.9258 26.0837C46.9258 26.0785 46.9258 26.0785 46.9258 26.0785C46.9258 26.0732 46.9258 26.0732 46.9258 26.068C46.9258 26.0628 46.9258 26.0628 46.9258 26.0628C46.9258 26.0576 46.9258 26.0576 46.9258 26.0524C46.9258 26.0472 46.9258 26.042 46.9258 26.0368C46.9258 26.0368 46.9258 26.0368 46.9258 26.0316V26.0264C46.9258 26.0212 46.9258 26.0212 46.9258 26.016C46.9258 26.016 46.9258 26.0107 46.9258 26.0055C46.9258 26.0055 46.9258 26.0055 46.9258 26.0003C46.9258 25.9951 46.9258 25.9899 46.9258 25.9899C46.9258 25.9847 46.9258 25.9847 46.9258 25.9847C46.9258 25.9795 46.9258 25.9743 46.9258 25.9743C46.9258 25.9691 46.9258 25.9691 46.9258 25.9691C46.9258 25.9639 46.9258 25.9587 46.9258 25.9535C46.9258 25.9535 46.9258 25.9535 46.9258 25.9482V25.9378C46.9258 25.9326 46.9258 25.9326 46.9258 25.9326C46.9258 25.9274 46.9258 25.9274 46.9258 25.9222C46.9258 25.917 46.9258 25.917 46.9258 25.917C46.9258 25.9118 46.9258 25.9066 46.9258 25.9066C46.9258 25.9014 46.9258 25.9014 46.9258 25.9014C46.9258 25.8962 46.9258 25.891 46.9258 25.8857C46.9258 14.1826 37.4674 4.69303 25.806 4.69303C25.8008 4.69303 25.7904 4.69303 25.7852 4.69303C22.556 4.69824 19.4987 5.42741 16.7591 6.72949C12.8164 8.55762 9.52995 11.568 7.34766 15.3076C10.7383 8.14616 18.0143 3.19824 26.4414 3.19824C38.1029 3.19824 47.5612 12.6826 47.5612 24.3857C47.5612 27.6097 46.8424 30.6722 45.556 33.4066Z" fill="#F25527"/>
<path d="M6.45312 17.0264C6.72396 16.4378 7.02604 15.8649 7.34896 15.3076C7.30208 15.4118 7.25 15.516 7.20313 15.6201C6.9375 16.0785 6.6875 16.5472 6.45312 17.0264Z" fill="#BD4120"/>
<path d="M25.5983 47.167C13.9368 47.167 4.47852 37.6826 4.47852 25.9795C4.47852 22.7816 5.18685 19.7451 6.45247 17.0264C6.68685 16.5472 6.93685 16.0785 7.20247 15.6201C7.02018 16.0264 6.84831 16.4378 6.69206 16.8597C5.41081 19.5785 4.69206 22.6201 4.68164 25.8285C4.68164 25.8337 4.68164 25.8337 4.68164 25.8389V25.8441C4.68164 25.8493 4.68164 25.8493 4.68164 25.8545C4.68164 25.8545 4.68164 25.8597 4.68164 25.8649C4.68164 25.8649 4.68164 25.8649 4.68164 25.8701C4.68164 25.8753 4.68164 25.8805 4.68164 25.8857C4.68164 37.5368 14.0566 46.9899 25.6504 47.0732C25.7025 47.0732 25.7546 47.0732 25.8066 47.0732C25.8118 47.0732 25.8171 47.0732 25.8223 47.0732H25.8275C25.8275 47.0732 25.8327 47.0732 25.8379 47.0732H25.8431C25.8483 47.0732 25.8483 47.0732 25.8535 47.0732H25.8587C25.8639 47.0732 25.8691 47.0732 25.8691 47.0732C25.8743 47.0732 25.8743 47.0732 25.8743 47.0732C25.8796 47.0732 25.8848 47.0732 25.8848 47.0732C25.89 47.0732 25.89 47.0732 25.89 47.0732C25.8952 47.0732 25.9004 47.0732 25.9056 47.0732C25.9056 47.0732 25.9056 47.0732 25.9108 47.0732C25.9108 47.0732 25.916 47.0732 25.9212 47.0732H25.9264C25.9316 47.0732 25.9368 47.0732 25.9421 47.0732H25.9473C25.9525 47.0732 25.9525 47.0732 25.9577 47.0732H25.9629C25.9681 47.0732 25.9681 47.0732 25.9733 47.0732H25.9785C25.9837 47.0732 25.9837 47.0732 25.9889 47.0732H25.9941C25.9993 47.0732 25.9993 47.0732 26.0046 47.0732C26.0046 47.0732 26.0098 47.0732 26.015 47.0732H26.0202C26.0254 47.0732 26.0254 47.0732 26.0306 47.0732H26.0358C26.041 47.0732 26.041 47.0732 26.0462 47.0732C26.0514 47.0732 26.0618 47.0732 26.0723 47.0732C26.0723 47.0732 26.0723 47.0732 26.0775 47.0732C26.0775 47.0732 26.0827 47.0732 26.0879 47.0732C26.0879 47.0732 26.0879 47.0732 26.0931 47.0732H26.0983C26.1035 47.0732 26.1035 47.0732 26.1087 47.0732C26.1087 47.0732 26.1139 47.068 26.1191 47.068C26.1191 47.068 26.1191 47.068 26.1243 47.068C26.1243 47.068 26.1296 47.068 26.1348 47.068C26.1348 47.068 26.1348 47.068 26.14 47.068C26.14 47.068 26.1452 47.068 26.1504 47.068C26.1712 47.068 26.1921 47.068 26.2077 47.068C26.2129 47.068 26.2181 47.068 26.2233 47.068C26.2285 47.068 26.2337 47.068 26.2389 47.068C26.2441 47.068 26.2493 47.068 26.2546 47.068C29.2441 47.0055 32.0775 46.3232 34.6348 45.1357C31.8952 46.4378 28.8327 47.167 25.5983 47.167Z" fill="#BD3621"/>
<path d="M7.20312 15.6201C7.25 15.516 7.30208 15.4118 7.34896 15.3076C9.53125 11.568 12.8177 8.55762 16.7604 6.72949C13.8854 8.09928 11.3698 10.0993 9.38542 12.5524C8.57292 13.5055 7.84375 14.5316 7.20312 15.6201Z" fill="#BE3222"/>
<path d="M6.69141 16.859C6.84766 16.4372 7.01953 16.0257 7.20182 15.6195C7.84245 14.5309 8.57162 13.5049 9.38411 12.5518C8.32162 13.8695 7.41536 15.3122 6.69141 16.859Z" fill="#BF2A23"/>
<path d="M46.9264 25.8851C46.9264 37.583 37.4681 47.0726 25.8066 47.0726C14.14 47.0726 4.68164 37.583 4.68164 25.8851C4.68164 14.182 14.14 4.69238 25.8066 4.69238C37.4681 4.69238 46.9264 14.182 46.9264 25.8851Z" fill="#FEEFE2"/>
<path d="M25.8066 47.0732C25.7546 47.0732 25.7025 47.0732 25.6504 47.0732C14.0566 46.9899 4.68164 37.5368 4.68164 25.8857C4.68164 25.8805 4.68164 25.8753 4.68164 25.8701C4.68164 25.8649 4.68164 25.8649 4.68164 25.8649C4.68164 25.8597 4.68164 25.8545 4.68164 25.8545C4.68164 25.8493 4.68164 25.8493 4.68164 25.8441V25.8389C4.68164 25.8337 4.68164 25.8337 4.68164 25.8285C4.69727 21.2399 6.17643 17.0055 8.66081 13.542C8.39518 14.8805 8.24935 16.266 8.24935 17.6878C8.24935 29.391 17.7077 38.8753 29.3691 38.8753C36.1712 38.8753 42.2129 35.641 46.0723 30.6305C44.5983 37.3128 39.9733 42.8076 33.8379 45.4743C37.4264 43.9951 40.5202 41.5524 42.7962 38.4639C39.0358 43.5732 33.041 46.9274 26.2546 47.068C26.2493 47.068 26.2441 47.068 26.2389 47.068C26.2337 47.068 26.2285 47.068 26.2233 47.068C26.2181 47.068 26.2129 47.068 26.2077 47.068C26.1921 47.068 26.1712 47.068 26.1504 47.068C26.1452 47.068 26.14 47.068 26.14 47.068C26.1348 47.068 26.1348 47.068 26.1348 47.068C26.1296 47.068 26.1243 47.068 26.1243 47.068C26.1191 47.068 26.1191 47.068 26.1191 47.068C26.1139 47.068 26.1087 47.068 26.1087 47.0732C26.1035 47.0732 26.1035 47.0732 26.0983 47.0732H26.0931C26.0879 47.0732 26.0879 47.0732 26.0879 47.0732C26.0827 47.0732 26.0775 47.0732 26.0775 47.0732C26.0723 47.0732 26.0723 47.0732 26.0723 47.0732C26.0618 47.0732 26.0566 47.0732 26.0462 47.0732C26.041 47.0732 26.041 47.0732 26.0358 47.0732H26.0306C26.0254 47.0732 26.0254 47.0732 26.0202 47.0732C26.015 47.0732 26.015 47.0732 26.015 47.0732C26.0098 47.0732 26.0098 47.0732 26.0046 47.0732C25.9993 47.0732 25.9993 47.0732 25.9941 47.0732H25.9889C25.9837 47.0732 25.9837 47.0732 25.9785 47.0732H25.9733C25.9681 47.0732 25.9681 47.0732 25.9629 47.0732H25.9577C25.9525 47.0732 25.9525 47.0732 25.9473 47.0732H25.9421C25.9368 47.0732 25.9316 47.0732 25.9264 47.0732C25.9212 47.0732 25.9212 47.0732 25.9212 47.0732C25.916 47.0732 25.9108 47.0732 25.9108 47.0732C25.9056 47.0732 25.9056 47.0732 25.9056 47.0732C25.9004 47.0732 25.8952 47.0732 25.89 47.0732C25.89 47.0732 25.89 47.0732 25.8848 47.0732C25.8848 47.0732 25.8796 47.0732 25.8743 47.0732C25.8743 47.0732 25.8743 47.0732 25.8691 47.0732C25.8691 47.0732 25.8639 47.0732 25.8587 47.0732H25.8535C25.8483 47.0732 25.8483 47.0732 25.8431 47.0732H25.8379C25.8327 47.0732 25.8275 47.0732 25.8275 47.0732C25.8223 47.0732 25.8223 47.0732 25.8223 47.0732C25.8171 47.0732 25.8118 47.0732 25.8066 47.0732Z" fill="#FDE3CD"/>
<path d="M25.1712 29.3333C23.5202 29.3333 22.1816 27.9896 22.1816 26.3333C22.1816 25.4792 22.541 24.724 23.1139 24.1771C23.14 23.6146 23.1764 22.9323 23.2233 22.1562C23.416 22.3021 23.6087 22.4427 23.8066 22.5781C23.7858 22.9948 23.765 23.375 23.7493 23.7083C23.4785 23.9688 23.2546 24.276 23.0931 24.6198C22.916 25 22.8171 25.4219 22.8171 25.8698C22.8171 25.8958 22.8171 25.9271 22.8171 25.9531C22.8535 27.5781 24.1764 28.8802 25.8066 28.8802C26.3066 28.8802 26.7806 28.7604 27.1973 28.5365C26.666 29.0312 25.9525 29.3333 25.1712 29.3333Z" fill="#F09498"/>
<path d="M27.9154 25.1507C27.9154 26.7445 26.9727 28.0309 25.806 28.0309C24.6393 28.0309 23.6914 26.7445 23.6914 25.1507C23.6914 23.5622 24.6393 7.44238 25.806 7.44238C26.9727 7.44238 27.9154 23.5622 27.9154 25.1507Z" fill="#78AAC9"/>
<path d="M28.7956 25.8857C28.7956 27.542 27.457 28.8805 25.806 28.8805C24.1549 28.8805 22.8164 27.542 22.8164 25.8857C22.8164 24.2295 24.1549 22.8857 25.806 22.8857C27.457 22.8857 28.7956 24.2295 28.7956 25.8857Z" fill="#78AAC9"/>
<path d="M25.8066 26.7601C25.3223 26.7601 24.9316 26.3643 24.9316 25.8851C24.9316 25.4736 25.2129 25.1299 25.5931 25.0361C25.6296 25.0518 25.6712 25.0726 25.7077 25.0934C25.3171 25.1403 25.0098 25.4736 25.0098 25.8851C25.0098 26.3226 25.3639 26.682 25.8066 26.682C26.2441 26.682 26.5983 26.3226 26.5983 25.8851C26.5983 25.8538 26.5983 25.8226 26.5931 25.7913C26.6243 25.8226 26.6504 25.8538 26.6764 25.8903C26.6764 26.3695 26.2858 26.7601 25.8066 26.7601Z" fill="#9CC3D6"/>
<path d="M26.5983 25.8851C26.5983 26.3226 26.2441 26.682 25.8066 26.682C25.3639 26.682 25.0098 26.3226 25.0098 25.8851C25.0098 25.4424 25.3639 25.083 25.8066 25.083C26.2441 25.083 26.5983 25.4424 26.5983 25.8851Z" fill="#4477A0"/>
<path d="M22.8164 25.9535C22.8164 25.9274 22.8164 25.8962 22.8164 25.8701C22.8164 25.4222 22.9154 25.0003 23.0924 24.6201C22.9154 25.0055 22.8164 25.4326 22.8164 25.8857C22.8164 25.9066 22.8164 25.9326 22.8164 25.9535Z" fill="#BE8B96"/>
<path d="M25.806 28.8698C24.181 28.8698 22.8633 27.5729 22.8164 25.9531C22.8164 25.9323 22.8164 25.9062 22.8164 25.8854C22.8164 25.4323 22.9154 25.0052 23.0924 24.6198C23.2383 24.3177 23.4258 24.0365 23.6549 23.7969C23.6445 23.8281 23.6393 23.8542 23.6289 23.8802C23.3164 24.2344 23.0924 24.6667 22.9674 25.1354C23.1237 25.0521 23.2852 24.9792 23.4518 24.9219C23.5039 26.5312 24.8216 27.8229 26.4414 27.8229C26.7487 27.8229 27.0456 27.776 27.3268 27.6875C27.3268 27.7083 27.3268 27.7344 27.3268 27.7552C27.3268 28.0208 27.2435 28.2604 27.1758 28.5052C27.4883 28.3385 27.7695 28.125 28.0039 27.875C27.4622 28.4844 26.6862 28.8698 25.806 28.8698Z" fill="#6A9CBF"/>
<path d="M28.0052 27.8747C28.2552 27.5882 28.4531 27.2601 28.5885 26.8955C28.2448 27.2549 27.8125 27.5309 27.3281 27.6872C27.3125 27.0049 27.0729 26.3851 26.6771 25.8903C26.6771 25.8851 26.6771 25.8851 26.6771 25.8851C26.6771 25.4007 26.2865 25.0101 25.8073 25.0101C25.7344 25.0101 25.6615 25.0153 25.5938 25.0361C25.2135 24.859 24.7865 24.7601 24.3385 24.7601C24.026 24.7601 23.7292 24.8226 23.4531 24.9215C23.4531 24.8903 23.4531 24.859 23.4531 24.8226C23.4531 24.4893 23.526 24.1768 23.6302 23.8799C23.9063 23.5622 24.2552 23.3018 24.6458 23.1299C25.9115 23.9163 27.2656 24.5778 28.6875 25.083C28.7552 25.3382 28.7969 25.609 28.7969 25.8851C28.7969 25.8851 28.7969 25.8851 28.7969 25.8903C28.7917 26.6611 28.4896 27.3538 28.0052 27.8747Z" fill="#A8CBDB"/>
<path d="M26.6771 25.891C26.651 25.8545 26.625 25.8232 26.5938 25.792C26.5521 25.3962 26.2135 25.0837 25.8073 25.0837C25.7708 25.0837 25.7396 25.0889 25.7083 25.0941C25.6719 25.0732 25.6302 25.0524 25.5938 25.0368C25.6615 25.016 25.7344 25.0107 25.8073 25.0107C26.2865 25.0107 26.6771 25.4014 26.6771 25.8857C26.6771 25.8857 26.6771 25.8857 26.6771 25.891Z" fill="#C0DAE4"/>
<path d="M26.5924 25.7913C26.3477 25.5049 26.0456 25.2653 25.707 25.0934C25.7383 25.0882 25.7695 25.083 25.806 25.083C26.2122 25.083 26.5508 25.3955 26.5924 25.7913Z" fill="#80A9C0"/>
<path d="M27.1771 28.5049C27.2448 28.2601 27.3281 28.0205 27.3281 27.7549C27.3281 27.734 27.3281 27.708 27.3281 27.6872C27.8125 27.5309 28.2448 27.2549 28.5885 26.8955C28.4531 27.2601 28.2552 27.5882 28.0052 27.8747C27.7708 28.1247 27.4896 28.3382 27.1771 28.5049ZM22.9688 25.1351C23.0938 24.6663 23.3177 24.234 23.6302 23.8799C23.526 24.1768 23.4531 24.4893 23.4531 24.8226C23.4531 24.859 23.4531 24.8903 23.4531 24.9215C23.2865 24.9788 23.125 25.0518 22.9688 25.1351Z" fill="#9EC3D5"/>
<path d="M26.4427 6.13053C26.4427 6.4847 26.1563 6.77116 25.8073 6.77116C25.4531 6.77116 25.1719 6.4847 25.1719 6.13053C25.1719 5.78158 25.4531 5.49512 25.8073 5.49512C26.1563 5.49512 26.4427 5.78158 26.4427 6.13053Z" fill="#F47528"/>
<path d="M18.8585 7.39064C18.9887 7.71877 18.8377 8.08856 18.5148 8.22398C18.1866 8.35939 17.8169 8.20315 17.6814 7.88023C17.5512 7.5521 17.7023 7.18231 18.0252 7.04689C18.3533 6.91148 18.7231 7.06773 18.8585 7.39064Z" fill="#F47528"/>
<path d="M12.3327 11.4688C12.5775 11.7135 12.5775 12.1198 12.3327 12.3646C12.0827 12.6146 11.6816 12.6146 11.4316 12.3646C11.1868 12.1198 11.1868 11.7135 11.4316 11.4688C11.6816 11.2187 12.0827 11.2187 12.3327 11.4688Z" fill="#F47528"/>
<path d="M7.85852 17.7343C8.18143 17.8697 8.33768 18.2447 8.20227 18.5677C8.06685 18.8958 7.69706 19.0468 7.36893 18.9114C7.04602 18.7812 6.89498 18.4062 7.02518 18.0833C7.1606 17.7552 7.5356 17.5989 7.85852 17.7343Z" fill="#F47528"/>
<path d="M6.11393 25.2451C6.4681 25.2451 6.74935 25.5316 6.74935 25.8857C6.74935 26.2347 6.4681 26.5212 6.11393 26.5212C5.76497 26.5212 5.47852 26.2347 5.47852 25.8857C5.47852 25.5316 5.76497 25.2451 6.11393 25.2451Z" fill="#F47528"/>
<path d="M7.36893 32.8545C7.69706 32.7191 8.06685 32.8753 8.20227 33.1983C8.33768 33.5264 8.18143 33.8962 7.85852 34.0316C7.5356 34.167 7.1606 34.0108 7.02518 33.6878C6.89498 33.3597 7.04602 32.9899 7.36893 32.8545Z" fill="#F47528"/>
<path d="M11.4316 39.4014C11.6816 39.1514 12.0827 39.1514 12.3327 39.4014C12.5775 39.6514 12.5775 40.0524 12.3327 40.3024C12.0827 40.5472 11.6816 40.5472 11.4316 40.3024C11.1868 40.0524 11.1868 39.6514 11.4316 39.4014Z" fill="#F47528"/>
<path d="M17.6814 43.8907C17.8169 43.5625 18.1866 43.4115 18.5148 43.5417C18.8377 43.6771 18.9887 44.0521 18.8585 44.375C18.7231 44.7032 18.3533 44.8542 18.0252 44.7188C17.7023 44.5886 17.5512 44.2136 17.6814 43.8907Z" fill="#F47528"/>
<path d="M25.1719 45.6354C25.1719 45.2812 25.4531 45 25.8073 45C26.1563 45 26.4427 45.2812 26.4427 45.6354C26.4427 45.9896 26.1563 46.2708 25.8073 46.2708C25.4531 46.2708 25.1719 45.9896 25.1719 45.6354Z" fill="#F47528"/>
<path d="M32.7546 44.375C32.6192 44.0521 32.7703 43.6771 33.0984 43.5417C33.4213 43.4115 33.7911 43.5625 33.9265 43.8907C34.0619 44.2136 33.9057 44.5886 33.5828 44.7188C33.2598 44.8542 32.8901 44.7032 32.7546 44.375Z" fill="#F47528"/>
<path d="M39.2813 40.3024C39.0312 40.0524 39.0312 39.6514 39.2813 39.4014C39.526 39.1514 39.9271 39.1514 40.1771 39.4014C40.4271 39.6514 40.4271 40.0524 40.1771 40.3024C39.9271 40.5472 39.526 40.5472 39.2813 40.3024Z" fill="#F47528"/>
<path d="M43.7546 34.0316C43.4265 33.8962 43.2755 33.5264 43.4109 33.1983C43.5411 32.8753 43.9161 32.7191 44.239 32.8545C44.5619 32.9899 44.7182 33.3597 44.5828 33.6878C44.4474 34.0108 44.0776 34.167 43.7546 34.0316Z" fill="#F47528"/>
<path d="M45.4948 26.5212C45.1458 26.5212 44.8594 26.2347 44.8594 25.8857C44.8594 25.5316 45.1458 25.2451 45.4948 25.2451C45.8437 25.2451 46.1302 25.5316 46.1302 25.8857C46.1302 26.2347 45.8437 26.5212 45.4948 26.5212Z" fill="#F47528"/>
<path d="M44.239 18.9114C43.9161 19.0468 43.5411 18.8958 43.4109 18.5677C43.2755 18.2447 43.4265 17.8697 43.7546 17.7343C44.0776 17.5989 44.4474 17.7552 44.5828 18.0833C44.7182 18.4062 44.5619 18.7812 44.239 18.9114Z" fill="#F47528"/>
<path d="M40.1771 12.3646C39.9271 12.6146 39.526 12.6146 39.2813 12.3646C39.0312 12.1198 39.0312 11.7135 39.2813 11.4688C39.526 11.2187 39.9271 11.2187 40.1771 11.4688C40.4271 11.7135 40.4271 12.1198 40.1771 12.3646Z" fill="#F47528"/>
<path d="M33.9265 7.88023C33.7911 8.20315 33.4213 8.35939 33.0984 8.22398C32.7703 8.08856 32.6192 7.71877 32.7546 7.39064C32.8901 7.06773 33.2598 6.91148 33.5828 7.04689C33.9057 7.18231 34.0619 7.5521 33.9265 7.88023Z" fill="#F47528"/>
<path d="M42.7962 38.4632C44.6087 36.0049 45.9004 33.1403 46.515 30.0309C46.3743 30.2288 46.2233 30.432 46.0723 30.6299C46.4004 29.1507 46.5723 27.6091 46.5723 26.0361C46.5723 24.4945 46.4056 22.9893 46.0931 21.5466C46.0931 21.2445 46.0462 20.9372 45.9525 20.6403C45.8014 20.1455 45.6296 19.6559 45.4421 19.1768C42.5983 10.8434 34.7233 4.84342 25.4473 4.84342C22.6035 4.84342 19.89 5.41634 17.416 6.44238C19.9837 5.32259 22.8118 4.69759 25.7858 4.69238C25.791 4.69238 25.8014 4.69238 25.8066 4.69238C37.4681 4.69238 46.9264 14.182 46.9264 25.8851C46.9264 25.8903 46.9264 25.8955 46.9264 25.9007C46.9264 25.9007 46.9264 25.9007 46.9264 25.9059C46.9264 25.9059 46.9264 25.9111 46.9264 25.9163C46.9264 25.9163 46.9264 25.9163 46.9264 25.9216V25.932C46.9264 25.932 46.9264 25.932 46.9264 25.9372C46.9264 25.9372 46.9264 25.9424 46.9264 25.9476C46.9264 25.9528 46.9264 25.9528 46.9264 25.9528C46.9264 25.958 46.9264 25.9632 46.9264 25.9684C46.9264 25.9684 46.9264 25.9684 46.9264 25.9736C46.9264 25.9736 46.9264 25.9788 46.9264 25.9841C46.9264 25.9841 46.9264 25.9841 46.9264 25.9893C46.9264 25.9893 46.9264 25.9945 46.9264 25.9997C46.9264 26.0049 46.9264 26.0049 46.9264 26.0049C46.9264 26.0101 46.9264 26.0153 46.9264 26.0153C46.9264 26.0205 46.9264 26.0205 46.9264 26.0257V26.0309C46.9264 26.0361 46.9264 26.0361 46.9264 26.0361C46.9264 26.0413 46.9264 26.0466 46.9264 26.0518C46.9264 26.057 46.9264 26.057 46.9264 26.0622C46.9264 26.0622 46.9264 26.0622 46.9264 26.0674C46.9264 26.0674 46.9264 26.0726 46.9264 26.0778C46.9264 26.0778 46.9264 26.0778 46.9264 26.083C46.9264 26.0934 46.9264 26.1038 46.9264 26.1143C46.9264 26.1143 46.9264 26.1143 46.9264 26.1195C46.9264 26.1195 46.9264 26.1247 46.9264 26.1299C46.9264 26.1455 46.9264 26.1559 46.9264 26.1663C46.8639 30.7705 45.3379 35.0205 42.7962 38.4632Z" fill="#F9AE78"/>
<path d="M33.8379 45.474C39.9733 42.8073 44.5983 37.3125 46.0723 30.6302C46.2233 30.4323 46.3743 30.2292 46.515 30.0312C45.9004 33.1406 44.6087 36.0052 42.7962 38.4635C40.5202 41.5521 37.4264 43.9948 33.8379 45.474Z" fill="#F9A86F"/>
<path d="M25.9531 51.7708C25.9583 51.7708 25.9583 51.7708 25.9583 51.7708H25.9531ZM25.9688 51.7708C25.974 51.7708 25.974 51.7708 25.9792 51.7708C25.9792 51.7708 25.9792 51.7708 25.974 51.7708C25.974 51.7708 25.974 51.7708 25.9688 51.7708ZM26.026 51.7708C26.0313 51.7708 26.0313 51.7708 26.0365 51.7708H26.0313H26.026ZM26.0417 51.7708C26.0469 51.7708 26.0469 51.7708 26.0521 51.7708C26.0521 51.7708 26.0521 51.7708 26.0469 51.7708C26.0469 51.7708 26.0469 51.7708 26.0417 51.7708ZM26.0573 51.7708C26.0573 51.7708 26.0625 51.7708 26.0677 51.7708C26.0625 51.7708 26.0625 51.7708 26.0625 51.7708C26.0573 51.7708 26.0573 51.7708 26.0573 51.7708ZM26.0677 51.7708C35.9063 51.6719 44.4115 46.0417 48.6823 37.8385C47.9687 39.1406 47.151 40.375 46.2344 41.5313C47.3958 39.8594 48.3698 38.0417 49.1146 36.1146C49.4687 35.4896 49.7969 34.8542 50.099 34.2031C49.8906 34.9479 49.6458 35.6823 49.3698 36.401C49.5417 36.0104 49.7083 35.6198 49.8594 35.2188C46.1563 44.8177 36.9271 51.6562 26.0833 51.7708C26.0781 51.7708 26.0833 51.7708 26.0781 51.7708C26.0781 51.7708 26.0729 51.7708 26.0677 51.7708Z" fill="#F68523"/>
<path d="M49.3691 36.4014C49.6452 35.6826 49.89 34.9482 50.0983 34.2035C50.2598 33.8545 50.416 33.5055 50.5618 33.1514C50.3535 33.8545 50.1191 34.542 49.8587 35.2191C49.7077 35.6201 49.541 36.0107 49.3691 36.4014Z" fill="#F79534"/>
<path d="M25.9316 51.7712H25.9368C25.9316 51.7712 25.9316 51.7712 25.9316 51.7712ZM25.9421 51.7712C33.6868 51.7295 40.6035 48.2503 45.3014 42.7972C45.6244 42.3857 45.9368 41.9639 46.2337 41.5316C47.1504 40.3753 47.9681 39.141 48.6816 37.8389C44.4108 46.042 35.9056 51.6722 26.0671 51.7712C26.0618 51.7712 26.0566 51.7712 26.0566 51.7712C26.0514 51.7712 26.0514 51.7712 26.0514 51.7712C26.0462 51.7712 26.0462 51.7712 26.041 51.7712C26.0358 51.7712 26.0358 51.7712 26.0358 51.7712C26.0306 51.7712 26.0306 51.7712 26.0254 51.7712C26.0254 51.7712 26.0254 51.7712 26.0202 51.7712C26.015 51.7712 26.015 51.7712 26.0098 51.7712H26.0046C25.9993 51.7712 25.9941 51.7712 25.9837 51.7712H25.9785C25.9733 51.7712 25.9733 51.7712 25.9681 51.7712C25.9629 51.7712 25.9629 51.7712 25.9577 51.7712C25.9577 51.7712 25.9577 51.7712 25.9525 51.7712C25.9525 51.7712 25.9525 51.7712 25.9473 51.7712H25.9421Z" fill="#F79239"/>
<mask id="mask3_292_113695" style="mask-type:luminance" maskUnits="userSpaceOnUse" x="0" y="15" width="47" height="37">
<path d="M0 15.3955H46.5833V51.3955H0V15.3955Z" fill="white"/>
</mask>
<g mask="url(#mask3_292_113695)">
<path d="M25.9531 50.0833C12.4479 50.0833 1.35937 39.6667 0.244792 26.4063C0.234374 26.0833 0.223958 25.7604 0.223958 25.4323C0.223958 22.3021 0.786458 19.3073 1.80729 16.5312C1.22396 18.6875 0.901042 20.9531 0.901042 23.2969C0.901042 37.5938 12.4531 49.1823 26.7031 49.1823C34.3698 49.1823 41.25 45.8281 45.974 40.5C41.2448 46.3438 34.0417 50.0833 25.9531 50.0833Z" fill="#F68523"/>
</g>
<mask id="mask4_292_113695" style="mask-type:luminance" maskUnits="userSpaceOnUse" x="0" y="15" width="3" height="13">
<path d="M0 15.3955H2.58333V27.3955H0V15.3955Z" fill="white"/>
</mask>
<g mask="url(#mask4_292_113695)">
<path d="M0.244792 26.4063C0.182292 25.6771 0.151042 24.9427 0.151042 24.1979C0.151042 23.7344 0.177082 23.276 0.203125 22.8177C0.083333 23.8229 0 24.8333 0 25.8698V25.8646C0 25.8646 0 25.8646 0 25.8594C0.005208 22.3802 0.703125 19.0625 1.94792 16.0312C1.93229 16.0885 1.91667 16.1406 1.90104 16.1979C1.83854 16.3542 1.77604 16.5104 1.71354 16.6667C1.76042 16.5677 1.80729 16.4635 1.85417 16.3646C1.83854 16.4167 1.82292 16.474 1.80729 16.5313C0.786458 19.3073 0.223958 22.3021 0.223958 25.4323C0.223958 25.7604 0.234374 26.0833 0.244792 26.4063Z" fill="#F79239"/>
</g>
<path d="M1.71289 16.667C1.77539 16.5107 1.83789 16.3545 1.90039 16.1982C1.88477 16.2555 1.86914 16.3076 1.85352 16.3649C1.80664 16.4639 1.75977 16.568 1.71289 16.667Z" fill="#F89C4A"/>
<path d="M45.9727 40.4997C46.0508 40.4059 46.1289 40.307 46.2018 40.208C47.3164 38.9163 48.306 37.5153 49.1497 36.0205C49.1393 36.0518 49.1289 36.083 49.1133 36.1143C48.2174 37.6872 47.1654 39.1559 45.9727 40.4997Z" fill="#F68523"/>
<mask id="mask5_292_113695" style="mask-type:luminance" maskUnits="userSpaceOnUse" x="0" y="26" width="50" height="27">
<path d="M0 26.0625H49.25V52.7292H0V26.0625Z" fill="white"/>
</mask>
<g mask="url(#mask5_292_113695)">
<path d="M25.8223 51.7708C25.8223 51.7708 25.8223 51.7708 25.8275 51.7708H25.8223ZM26.0306 51.3177C12.1035 51.3177 0.754557 40.2552 0.244141 26.4062C1.35872 39.6667 12.4473 50.0833 25.9525 50.0833C34.041 50.0833 41.2441 46.3438 45.9733 40.5C47.166 39.1562 48.2181 37.6875 49.1139 36.1146C48.3691 38.0417 47.3952 39.8594 46.2337 41.5313C41.5098 47.4948 34.2129 51.3177 26.0306 51.3177Z" fill="#F46A23"/>
</g>
<mask id="mask6_292_113695" style="mask-type:luminance" maskUnits="userSpaceOnUse" x="0" y="22" width="47" height="31">
<path d="M0 22.0625H46.5833V52.7292H0V22.0625Z" fill="white"/>
</mask>
<g mask="url(#mask6_292_113695)">
<path d="M25.8073 51.7705C22.7969 51.7705 19.9115 51.2549 17.2292 50.307C16.0052 49.8747 14.8177 49.3486 13.6823 48.7393C13.4427 48.6143 13.2083 48.4788 12.9688 48.3434C5.21875 43.8799 0 35.4945 0 25.8851C0 25.8799 0 25.8747 0 25.8695C0 24.833 0.083333 23.8226 0.203125 22.8174C0.177082 23.2757 0.151042 23.734 0.151042 24.1976C0.151042 24.9424 0.182292 25.6768 0.244792 26.4059C0.755208 40.2549 12.1042 51.3174 26.0313 51.3174C34.2135 51.3174 41.5104 47.4945 46.2344 41.5309C45.9375 41.9632 45.625 42.3851 45.3021 42.7966C40.6042 48.2497 33.6875 51.7288 25.9427 51.7705C25.9427 51.7705 25.9427 51.7705 25.9375 51.7705H25.9323C25.9271 51.7705 25.9271 51.7705 25.9219 51.7705H25.9167C25.9115 51.7705 25.9115 51.7705 25.9063 51.7705C25.901 51.7705 25.8958 51.7705 25.8906 51.7705H25.8854C25.8802 51.7705 25.875 51.7705 25.8698 51.7705H25.8646C25.8594 51.7705 25.8542 51.7705 25.849 51.7705H25.8438C25.8385 51.7705 25.8333 51.7705 25.8333 51.7705C25.8281 51.7705 25.8281 51.7705 25.8281 51.7705C25.8229 51.7705 25.8229 51.7705 25.8229 51.7705C25.8177 51.7705 25.8125 51.7705 25.8073 51.7705Z" fill="#F4732E"/>
</g>
<path d="M35.77 26.3076C33.2804 26.3076 30.9002 25.8753 28.6867 25.0837C28.5409 24.5524 28.2492 24.0785 27.8638 23.7087C27.645 19.3545 26.8065 7.44303 25.8065 7.44303C25.6659 7.44303 25.5252 7.67741 25.395 8.08887C25.3221 7.96387 25.244 7.89616 25.1711 7.89616C24.2961 7.89616 23.5461 16.9587 23.2232 22.1566C19.6659 19.5107 16.9679 15.766 15.619 11.4274C15.1398 9.88053 15.9054 8.18262 17.3794 7.53158C17.4784 7.48991 17.5773 7.44303 17.6815 7.40137C17.619 7.55241 17.619 7.71908 17.6815 7.88053C17.7857 8.12533 18.02 8.27116 18.27 8.27116C18.3534 8.27116 18.4315 8.25553 18.5148 8.22428C18.8377 8.08887 18.9888 7.71908 18.8586 7.39095C18.7961 7.23991 18.6815 7.12533 18.5409 7.06283C20.6502 6.27637 22.9211 5.82324 25.2857 5.76074C25.2127 5.86491 25.1711 5.99512 25.1711 6.13053C25.1711 6.4847 25.4523 6.77116 25.8065 6.77116C26.1554 6.77116 26.4419 6.4847 26.4419 6.13053C26.4419 5.99512 26.395 5.86491 26.3221 5.76074C28.6971 5.81803 30.9679 6.27116 33.0877 7.05241C32.9419 7.11491 32.8169 7.2347 32.7544 7.39095C32.619 7.71908 32.77 8.08887 33.0982 8.22428C33.1763 8.25553 33.2596 8.27116 33.3377 8.27116C33.5877 8.27116 33.8273 8.12533 33.9263 7.88053C33.994 7.71387 33.9888 7.53158 33.9211 7.38053C39.1763 9.57845 43.3482 13.8545 45.4419 19.1774C45.7023 19.9482 45.9211 20.7399 46.0929 21.5472C46.1086 22.8024 45.3846 24.0107 44.1919 24.5316C41.6138 25.6722 38.7648 26.3076 35.77 26.3076ZM43.994 17.6878C43.9159 17.6878 43.8325 17.7035 43.7544 17.7347C43.4263 17.8701 43.2752 18.2451 43.4107 18.568C43.5096 18.8128 43.7492 18.9639 43.994 18.9639C44.0773 18.9639 44.1607 18.9482 44.2388 18.9118C44.5617 18.7816 44.7179 18.4066 44.5825 18.0837C44.4836 17.8337 44.244 17.6878 43.994 17.6878ZM39.7284 11.2816C39.5669 11.2816 39.4002 11.3441 39.2804 11.4691C39.0304 11.7139 39.0304 12.1201 39.2804 12.3649C39.4002 12.4899 39.5669 12.5524 39.7284 12.5524C39.8898 12.5524 40.0513 12.4899 40.1763 12.3649C40.4263 12.1201 40.4263 11.7139 40.1763 11.4691C40.0513 11.3441 39.8898 11.2816 39.7284 11.2816Z" fill="#FFF9F2"/>
<path d="M23.806 22.5778C23.6081 22.4424 23.4154 22.3018 23.2227 22.1559C23.5456 16.958 24.2956 7.89551 25.1706 7.89551C25.2435 7.89551 25.3216 7.96322 25.3945 8.08822C24.6497 10.4007 24.0508 18.3434 23.806 22.5778Z" fill="#F7C5C7"/>
<path d="M25.8066 7.44238C25.7337 7.44238 25.666 7.51009 25.5983 7.61426V22.8903C25.2598 22.9163 24.9368 22.9945 24.6348 23.1247C24.3535 22.9476 24.0775 22.7653 23.8066 22.5778C24.0514 18.3434 24.6504 10.4007 25.3952 8.08822C25.5254 7.67676 25.666 7.44238 25.8066 7.44238Z" fill="#B5D4E1"/>
<path d="M27.8633 23.708C27.3268 23.1976 26.6029 22.8851 25.806 22.8851C25.8008 22.8851 25.8008 22.8851 25.8008 22.8851C25.8008 22.8851 25.8008 22.8851 25.7956 22.8851C25.7904 22.8851 25.7904 22.8851 25.7904 22.8851C25.7279 22.8851 25.6654 22.8903 25.5977 22.8903V7.61426C25.6654 7.51009 25.7331 7.44238 25.806 7.44238C26.806 7.44238 27.6445 19.3538 27.8633 23.708Z" fill="#CAE0E8"/>
<path d="M24.6452 23.1305C24.64 23.1253 24.64 23.1253 24.6348 23.1253C24.9368 22.9951 25.2598 22.917 25.5983 22.891C25.666 22.891 25.7285 22.8857 25.791 22.8857C25.3796 22.8857 24.9941 22.9743 24.6452 23.1305Z" fill="#B5D4E1"/>
<path d="M28.6862 25.0837C27.2643 24.5785 25.9102 23.917 24.6445 23.1305C24.9935 22.9743 25.3789 22.8857 25.7904 22.8857C25.7904 22.8857 25.7904 22.8857 25.7956 22.8857C25.8008 22.8857 25.8008 22.8857 25.8008 22.8857C25.8008 22.8857 25.8008 22.8857 25.806 22.8857C27.181 22.8857 28.3372 23.818 28.6862 25.0837Z" fill="#D1E4EB"/>
<path d="M25.8073 6.77051C25.4531 6.77051 25.1719 6.48405 25.1719 6.12988C25.1719 5.99447 25.2135 5.86426 25.2865 5.76009C25.4583 5.76009 25.6302 5.75488 25.8073 5.75488C25.9792 5.75488 26.151 5.76009 26.3229 5.76009C26.3958 5.86426 26.4427 5.99447 26.4427 6.12988C26.4427 6.48405 26.1563 6.77051 25.8073 6.77051Z" fill="#F9B07A"/>
<path d="M18.2702 8.27083C18.0202 8.27083 17.7858 8.125 17.6816 7.88021C17.6191 7.71875 17.6191 7.55208 17.6816 7.40104C17.9629 7.28125 18.2546 7.16667 18.541 7.0625C18.6816 7.125 18.7962 7.23958 18.8587 7.39063C18.9889 7.71875 18.8379 8.08854 18.515 8.22396C18.4316 8.25521 18.3535 8.27083 18.2702 8.27083Z" fill="#F9B07A"/>
<path d="M43.9942 18.9635C43.7494 18.9635 43.5098 18.8125 43.4109 18.5677C43.2755 18.2448 43.4265 17.8698 43.7546 17.7344C43.8328 17.7031 43.9161 17.6875 43.9942 17.6875C44.2442 17.6875 44.4838 17.8333 44.5828 18.0833C44.7182 18.4062 44.5619 18.7812 44.239 18.9115C44.1609 18.9479 44.0776 18.9635 43.9942 18.9635Z" fill="#F9B07A"/>
<path d="M39.7292 12.5521C39.5677 12.5521 39.401 12.4896 39.2813 12.3646C39.0312 12.1198 39.0312 11.7135 39.2813 11.4688C39.401 11.3438 39.5677 11.2812 39.7292 11.2812C39.8906 11.2812 40.0521 11.3438 40.1771 11.4688C40.4271 11.7135 40.4271 12.1198 40.1771 12.3646C40.0521 12.4896 39.8906 12.5521 39.7292 12.5521Z" fill="#F9B07A"/>
<path d="M33.338 8.27051C33.2598 8.27051 33.1765 8.25488 33.0984 8.22363C32.7703 8.08822 32.6192 7.71842 32.7546 7.3903C32.8171 7.23405 32.9421 7.11426 33.088 7.05176C33.3692 7.15592 33.6453 7.2653 33.9213 7.37988C33.989 7.53092 33.9942 7.71322 33.9265 7.87988C33.8276 8.12467 33.588 8.27051 33.338 8.27051Z" fill="#F9B07A"/>
<path d="M46.0924 21.5465C45.9206 20.7393 45.7018 19.9476 45.4414 19.1768C45.6289 19.6559 45.8008 20.1455 45.9518 20.6403C46.0456 20.9372 46.0924 21.2445 46.0924 21.5465Z" fill="#FCD5B6"/>
<mask id="mask7_292_113695" style="mask-type:luminance" maskUnits="userSpaceOnUse" x="5" y="62" width="41" height="6">
<path d="M5.25 62.0625H45.25V67.3438H5.25V62.0625Z" fill="white"/>
</mask>
<g mask="url(#mask7_292_113695)">
<path d="M8.82813 67.3385H42.7865C44.0417 67.3385 45.0625 66.3125 45.0625 65.0521C45.0625 63.7865 44.0417 62.7656 42.7865 62.7656H8.82813C7.56771 62.7656 6.54688 63.7865 6.54688 65.0521C6.54688 66.3125 7.56771 67.3385 8.82813 67.3385Z" fill="#78AAC9"/>
</g>
<mask id="mask8_292_113695" style="mask-type:luminance" maskUnits="userSpaceOnUse" x="6" y="63" width="40" height="5">
<path d="M6.58203 63.3955H45.2487V67.3434H6.58203V63.3955Z" fill="white"/>
</mask>
<g mask="url(#mask8_292_113695)">
<path d="M42.7852 66.8854H8.82682C7.72786 66.8854 6.84245 66.099 6.62891 65.0625C6.68099 64.7969 6.77995 64.5521 6.91016 64.3281H7.00391C7.41536 64.9062 8.06641 65.2865 8.82682 65.2865H42.7852C43.5404 65.2865 44.1966 64.9062 44.6081 64.3281H44.6966C44.832 64.5521 44.9258 64.7969 44.9779 65.0625C44.7643 66.099 43.8789 66.8854 42.7852 66.8854Z" fill="#6D99B5"/>
</g>
<mask id="mask9_292_113695" style="mask-type:luminance" maskUnits="userSpaceOnUse" x="5" y="64" width="41" height="4">
<path d="M5.25 64.7295H45.25V67.3441H5.25V64.7295Z" fill="white"/>
</mask>
<g mask="url(#mask9_292_113695)">
<path d="M42.7865 67.3392H8.82813C7.56771 67.3392 6.54688 66.3132 6.54688 65.0527C6.54688 65.1361 6.58854 65.2038 6.59375 65.2871C6.60417 65.209 6.61458 65.1361 6.63021 65.0632C6.84375 66.0996 7.72917 66.8861 8.82813 66.8861H42.7865C43.8802 66.8861 44.7656 66.0996 44.9792 65.0632C44.9948 65.1361 45.0104 65.209 45.0156 65.2871C45.026 65.2038 45.0625 65.1361 45.0625 65.0527C45.0625 66.3132 44.0417 67.3392 42.7865 67.3392Z" fill="#76A8C7"/>
</g>
<path d="M6.55664 64.8438C6.66081 63.6823 7.63476 62.7656 8.82227 62.7656C8.81706 62.7656 8.81706 62.7656 8.81706 62.7656H8.81185C8.80664 62.7656 8.80664 62.7656 8.80143 62.7656C8.79622 62.7656 8.79622 62.7656 8.79622 62.7656H8.79102H8.78581C7.61393 62.7865 6.66081 63.6927 6.55664 64.8438Z" fill="#C8EDFC"/>
<path d="M45.0625 65.0521C45.0625 64.6771 44.9531 64.3385 44.7917 64.026C44.4219 63.2812 43.6771 62.7656 42.7917 62.7656C44.0469 62.7656 45.0625 63.7917 45.0625 65.0521ZM6.54688 65.0521C6.54688 64.9792 6.55208 64.9115 6.55729 64.8438C6.66146 63.6927 7.61458 62.7865 8.78646 62.7656C7.91667 62.7812 7.18229 63.2917 6.81771 64.026C6.66146 64.3385 6.54688 64.6771 6.54688 65.0521Z" fill="#88C3E5"/>
<path d="M44.9785 65.0628C44.9264 64.7972 44.8327 64.5524 44.6973 64.3285H44.916C44.8848 64.2243 44.8431 64.1253 44.791 64.0264C44.9525 64.3389 45.0618 64.6774 45.0618 65.0524C45.0618 64.9691 45.0254 64.9014 45.015 64.8232C45.0098 64.9066 44.9993 64.9847 44.9785 65.0628Z" fill="#82B9DA"/>
<path d="M45.015 65.2868C45.0098 65.2087 44.9941 65.1357 44.9785 65.0628C44.9993 64.9847 45.0098 64.9066 45.015 64.8232C45.0254 64.9014 45.0618 64.9691 45.0618 65.0524C45.0618 65.1357 45.0254 65.2035 45.015 65.2868Z" fill="#87C2E4"/>
<path d="M6.63021 65.0628C6.61458 64.9847 6.60417 64.9066 6.59375 64.8232C6.58333 64.9014 6.54688 64.9691 6.54688 65.0524C6.54688 64.6774 6.66146 64.3389 6.81771 64.0264C6.77083 64.1253 6.72917 64.2243 6.69271 64.3285H6.91146C6.78125 64.5524 6.68229 64.7972 6.63021 65.0628Z" fill="#82B9DA"/>
<path d="M6.59375 65.2868C6.58854 65.2035 6.54688 65.1357 6.54688 65.0524C6.54688 64.9691 6.58333 64.9014 6.59375 64.8232C6.60417 64.9066 6.61458 64.9847 6.63021 65.0628C6.61458 65.1357 6.60417 65.2087 6.59375 65.2868Z" fill="#87C2E4"/>
<path d="M44.6081 64.3281H7.00391C6.98828 64.3073 6.97266 64.2865 6.95703 64.2604C7.35286 63.6458 8.03516 63.2344 8.82682 63.2344H42.7852C43.5716 63.2344 44.2539 63.6458 44.6549 64.2604C44.6393 64.2865 44.6237 64.3073 44.6081 64.3281Z" fill="#87C6DD"/>
<path d="M44.6966 64.3285H44.6081C44.6237 64.3076 44.6393 64.2868 44.6549 64.2607C44.6706 64.2868 44.681 64.3076 44.6966 64.3285ZM7.00391 64.3285H6.91016C6.92578 64.3076 6.94141 64.2868 6.95703 64.2607C6.97266 64.2868 6.98828 64.3076 7.00391 64.3285Z" fill="#7FBAD0"/>
<path d="M44.6549 64.2604C44.2539 63.6458 43.5716 63.2344 42.7852 63.2344H8.82682C8.03516 63.2344 7.35286 63.6458 6.95703 64.2604C6.90495 64.1875 6.85807 64.1094 6.81641 64.026C7.18099 63.2917 7.91536 62.7812 8.78516 62.7656H8.79036H8.79557C8.79557 62.7656 8.79557 62.7656 8.80078 62.7656C8.80599 62.7656 8.80599 62.7656 8.8112 62.7656H8.81641C8.82162 62.7656 8.82161 62.7656 8.82161 62.7656C8.82161 62.7656 8.82161 62.7656 8.82682 62.7656H42.7852C42.7852 62.7656 42.7852 62.7656 42.7904 62.7656C43.6758 62.7656 44.4206 63.2812 44.7904 64.026C44.7487 64.1094 44.7018 64.1875 44.6549 64.2604Z" fill="#90D5F0"/>
<path d="M44.9167 64.3285H44.6979C44.6823 64.3076 44.6719 64.2868 44.6562 64.2607C44.7031 64.1878 44.75 64.1097 44.7917 64.0264C44.8437 64.1253 44.8854 64.2243 44.9167 64.3285Z" fill="#8CD0EA"/>
<path d="M6.91016 64.3285H6.69141C6.72786 64.2243 6.76953 64.1253 6.81641 64.0264C6.85807 64.1097 6.90495 64.1878 6.95703 64.2607C6.94141 64.2868 6.92578 64.3076 6.91016 64.3285Z" fill="#8CD0EA"/>
</svg>
