<svg width="63" height="58" viewBox="0 0 63 58" fill="none" xmlns="http://www.w3.org/2000/svg">
<path d="M53.8271 7.90625C67.348 7.91146 57.5772 7.92188 60.5928 7.92708V8L60.5876 8.09896L60.5824 8.29167L60.5615 8.68229L60.5251 9.45833C60.4938 9.97917 60.4834 10.4948 60.3897 11.0104C60.2386 12.0417 60.1084 13.0729 59.8167 14.0781C59.3532 16.1146 58.5251 18.0469 57.5876 19.901C55.6032 23.5573 52.7438 26.7188 49.2959 29.0313C45.8324 31.3073 41.8011 32.7708 37.6709 33.1458L36.124 33.224L35.348 33.2604H27.9469L26.8532 33.2656L26.1292 33.3073C25.6396 33.2917 25.1761 33.4375 24.6969 33.4792C23.7594 33.6875 22.8324 33.9479 21.973 34.3802C20.2334 35.1875 18.6813 36.4427 17.5459 38.0104C16.3688 39.5521 15.6292 41.3802 15.3584 43.2917C15.2542 43.7604 15.2646 44.25 15.2334 44.7396C15.2074 44.9219 15.2074 45.3281 15.2126 45.7135V51.4271H1.67611V45.7135C1.67611 45.3438 1.6709 44.9844 1.70215 44.4115C1.74902 43.3698 1.78548 42.3333 1.97298 41.3073C2.56152 37.1823 4.19694 33.2031 6.70215 29.8854C9.16048 26.5365 12.4678 23.8385 16.2334 22.0781C18.098 21.1719 20.1032 20.5573 22.1344 20.1406C23.1605 19.9896 24.1813 19.7708 25.2178 19.75L26.7646 19.6771L27.9469 19.6719H35.3428L35.7074 19.6458L36.4313 19.6146C38.3584 19.4427 40.1917 18.75 41.8115 17.7135C43.4105 16.6354 44.7438 15.151 45.6709 13.4635C46.0824 12.5937 46.499 11.7187 46.6917 10.776C46.8428 10.3177 46.874 9.83333 46.9574 9.35417C47.0147 9.11979 47.0042 8.875 47.0199 8.63021L47.0355 8.27083L47.0511 8.08854L47.0563 7.99479L47.0615 7.94792V7.91667C50.0824 7.91146 40.3063 7.90625 53.8271 7.90625Z" fill="#78AAC9"/>
<path d="M53.8271 7.90625C40.9001 7.90625 50.2438 7.91146 47.3584 7.91667V7.92708L47.3532 7.95313V8L47.3428 8.08854L47.3115 8.65104C47.2959 8.89583 47.3115 9.15104 47.2542 9.39063C47.1657 9.88021 47.1344 10.375 46.9782 10.849C46.7803 11.8177 46.3532 12.7135 45.9313 13.6042C44.9782 15.3333 43.6136 16.8542 41.973 17.9583C40.3115 19.026 38.4313 19.7344 36.4626 19.9115L35.7178 19.9427L35.3428 19.9688H27.9469L26.7699 19.974L25.2386 20.0469C24.2178 20.0677 23.2074 20.2865 22.1917 20.4323C20.1865 20.8438 18.2021 21.4479 16.3584 22.349C12.6344 24.0885 9.36882 26.75 6.93652 30.0625C4.46256 33.3385 2.84798 37.276 2.26465 41.349C2.07715 42.3646 2.0459 43.3906 1.99902 44.4167C1.96777 44.9792 1.97298 45.3438 1.97298 45.7135V51.4271H1.67611V45.7135C1.67611 45.3438 1.6709 44.9844 1.70215 44.4115C1.74902 43.3698 1.78548 42.3333 1.97298 41.3073C2.56152 37.1823 4.19694 33.2031 6.70215 29.8854C9.16048 26.5365 12.4678 23.8385 16.2334 22.0781C18.098 21.1719 20.1032 20.5573 22.1344 20.1406C23.1605 19.9896 24.1813 19.7708 25.2178 19.75L26.7646 19.6771L27.9469 19.6719H35.3428L35.7074 19.6458L36.4313 19.6146C38.3584 19.4427 40.1917 18.75 41.8115 17.7135C43.4105 16.6354 44.7438 15.151 45.6709 13.4635C46.0824 12.5937 46.499 11.7187 46.6917 10.776C46.8428 10.3177 46.874 9.83333 46.9574 9.35417C47.0147 9.11979 47.0042 8.875 47.0199 8.63021L47.0355 8.27083L47.0511 8.08854L47.0563 7.99479L47.0615 7.94792V7.91667C50.0824 7.91146 40.3063 7.90625 53.8271 7.90625Z" fill="#5F859F"/>
<path d="M7.22298 47.5313H5.6709V46.8594C5.68132 46.0677 5.65006 45.401 5.69694 44.5052C5.73861 43.6302 5.75944 42.7552 5.9209 41.8906C6.41569 38.4219 7.79069 35.0781 9.90007 32.2813C11.9678 29.4583 14.7594 27.1875 17.9261 25.7083C19.499 24.9427 21.1813 24.4323 22.8896 24.0781C23.7542 23.9583 24.6136 23.7604 25.4886 23.75C26.2334 23.7083 26.9469 23.6771 27.5824 23.6771C27.7074 23.6771 27.8324 23.6771 27.9469 23.6823H32.499C32.8896 23.6823 33.2855 23.6823 33.6761 23.6823C34.8063 23.6823 35.9105 23.6719 36.8011 23.6042C39.374 23.375 41.8532 22.4583 44.0199 21.0521C46.1657 19.6094 47.9469 17.6302 49.1865 15.3646C49.7542 14.2031 50.2907 13.0156 50.5615 11.75C50.6605 11.4323 50.7282 11.1094 50.7803 10.7812H52.3532C52.2855 11.2344 52.2021 11.6875 52.0719 12.1302C51.7699 13.5208 51.1813 14.8281 50.5563 16.1042C49.1917 18.599 47.2334 20.7656 44.8792 22.349C42.5042 23.8958 39.7699 24.9063 36.9417 25.1563C35.9417 25.2292 34.8532 25.2448 33.749 25.2448C33.3324 25.2448 32.9157 25.2396 32.499 25.2396H27.9469C27.6344 25.224 27.3219 25.2188 27.0094 25.2188C20.9626 25.2188 14.7438 28.1875 11.1449 33.2135C9.18652 35.8021 7.91569 38.901 7.45736 42.1198C7.19173 43.7292 7.2334 45.375 7.22298 46.8594V47.5313ZM3.91569 47.5313H2.36361V45.7135C2.36361 45.3438 2.3584 44.9792 2.38965 44.4271C2.43132 43.4167 2.46777 42.4063 2.65007 41.4063C3.22298 37.3958 4.81673 33.5208 7.24902 30.2969C9.63965 27.0365 12.8584 24.4167 16.5199 22.7031C18.3376 21.8177 20.2907 21.2188 22.2646 20.8125C23.2646 20.6719 24.2594 20.4531 25.2646 20.4375L26.7699 20.3646L27.9469 20.3594H35.348L35.7282 20.3333L36.4938 20.2969C38.5303 20.1146 40.473 19.3854 42.1865 18.2865C43.8792 17.1458 45.2907 15.5781 46.2751 13.7917C46.7074 12.8698 47.1501 11.9427 47.3532 10.9427C47.374 10.8906 47.3897 10.8333 47.4001 10.7812H48.999C48.9626 10.9635 48.9157 11.1458 48.8584 11.3229C48.624 12.4479 48.1344 13.4948 47.6396 14.5313C46.5355 16.5417 44.9522 18.3021 43.0459 19.5833C41.124 20.8281 38.9261 21.6458 36.6396 21.849L35.7751 21.8906L35.348 21.9167H27.9469L26.7803 21.9219L25.3688 21.9896C24.4261 22.0052 23.4938 22.2135 22.5615 22.3438C20.7074 22.7292 18.8844 23.2813 17.1813 24.1146C13.749 25.7188 10.7334 28.1719 8.49382 31.2292C6.21256 34.25 4.72298 37.875 4.18652 41.6354C4.00944 42.5729 3.9834 43.5156 3.94173 44.4635C3.88965 45.4427 3.92611 46.0469 3.91569 46.8594V47.5313Z" fill="#89B9D2"/>
<path d="M5.67209 47.5313H3.91688V46.8594C3.9273 46.0469 3.89084 45.4427 3.94293 44.4635C3.98459 43.5156 4.01063 42.5729 4.18772 41.6354C4.72418 37.875 6.21376 34.25 8.49501 31.2292C10.7346 28.1719 13.7502 25.7188 17.1825 24.1146C18.8856 23.2813 20.7086 22.7292 22.5627 22.3438C23.495 22.2135 24.4273 22.0052 25.37 21.9896L26.7815 21.9219L27.9481 21.9167H35.3492L35.7763 21.8906L36.6408 21.849C38.9273 21.6458 41.1252 20.8281 43.0471 19.5833C44.9533 18.3021 46.5367 16.5417 47.6408 14.5313C48.1356 13.4948 48.6252 12.4479 48.8596 11.3229C48.9169 11.1458 48.9638 10.9635 49.0002 10.7812H50.7815C50.7294 11.1094 50.6617 11.4323 50.5627 11.75C50.2919 13.0156 49.7554 14.2031 49.1877 15.3646C47.9481 17.6302 46.1669 19.6094 44.0211 21.0521C41.8544 22.4583 39.3752 23.375 36.8023 23.6042C35.9117 23.6719 34.8075 23.6823 33.6773 23.6823C33.2867 23.6823 32.8908 23.6823 32.5002 23.6823H27.9481C27.8336 23.6771 27.7086 23.6771 27.5836 23.6771C26.9481 23.6771 26.2346 23.7083 25.4898 23.75C24.6148 23.7604 23.7554 23.9583 22.8908 24.0781C21.1825 24.4323 19.5002 24.9427 17.9273 25.7083C14.7606 27.1875 11.969 29.4583 9.90126 32.2813C7.79189 35.0781 6.41689 38.4219 5.92209 41.8906C5.76063 42.7552 5.7398 43.6302 5.69813 44.5052C5.65126 45.401 5.68251 46.0677 5.67209 46.8594V47.5313Z" fill="#B0D6E7"/>
<path d="M14.2708 47.5313H10.5156V46.8594C10.5208 45.2708 10.4948 43.9271 10.7135 42.6042C11.0937 39.9219 12.1458 37.349 13.7813 35.1927C15.3802 33.0052 17.5417 31.25 19.9844 30.1146C21.1927 29.5156 22.4948 29.1302 23.8073 28.849C25.0729 28.6302 26.1771 28.5417 27.5677 28.5417C27.6927 28.5417 27.8177 28.5417 27.9479 28.5417H32.5C32.5625 28.5417 32.6198 28.5417 32.6823 28.5417C32.8906 28.5417 33.099 28.5469 33.3073 28.5469C33.5156 28.5469 33.724 28.5469 33.9323 28.5469C34.974 28.5469 36.0417 28.5313 37.2448 28.4479C40.6042 28.1458 43.875 26.9479 46.6979 25.1042C49.5052 23.2188 51.8333 20.6406 53.4531 17.6667C54.2083 16.1562 54.8958 14.5885 55.2604 12.9323C55.474 12.2292 55.5729 11.5052 55.6823 10.7812H59.474C59.4688 10.8177 59.4635 10.8594 59.4583 10.8958C59.3073 11.8854 59.1823 12.8802 58.901 13.849C58.4583 15.8125 57.6615 17.6667 56.7604 19.4531C54.849 22.974 52.0938 26.0156 48.776 28.2396C45.4427 30.4323 41.5625 31.8438 37.5833 32.2031L36.0938 32.2813L35.349 32.3125H27.9479L26.849 32.3177L26.0677 32.3646C26.0417 32.3594 26.0208 32.3594 25.9948 32.3594C25.4948 32.3594 25.0156 32.5052 24.5208 32.5521C23.5052 32.7708 22.5052 33.0573 21.5729 33.526C19.6927 34.401 18.0156 35.7552 16.7917 37.4427C15.5208 39.1094 14.7188 41.0885 14.4271 43.151C14.3177 43.6615 14.3229 44.1927 14.2917 44.7135C14.2656 44.9271 14.2656 45.3281 14.2708 45.7135V47.5313Z" fill="#699ABC"/>
<path d="M14.9005 47.5313H14.2703V45.7135C14.2651 45.3281 14.2651 44.9271 14.2911 44.7135C14.3224 44.1927 14.3172 43.6615 14.4265 43.151C14.7182 41.0885 15.5203 39.1094 16.7911 37.4427C18.0151 35.7552 19.6922 34.401 21.5724 33.526C22.5047 33.0573 23.5047 32.7708 24.5203 32.5521C25.0151 32.5052 25.4943 32.3594 25.9943 32.3594C26.0203 32.3594 26.0411 32.3594 26.0672 32.3646L26.8484 32.3177L27.9474 32.3125H35.3484L36.0932 32.2813L37.5828 32.2031C41.562 31.8438 45.4422 30.4323 48.7755 28.2396C52.0932 26.0156 54.8484 22.974 56.7599 19.4531C57.6609 17.6667 58.4578 15.8125 58.9005 13.849C59.1818 12.8802 59.3068 11.8854 59.4578 10.8958C59.463 10.8594 59.4682 10.8177 59.4734 10.7812H60.1141C60.1036 10.8438 60.0932 10.9063 60.0828 10.974C59.9318 11.9896 59.8015 13.0104 59.5151 14C59.0568 16.0156 58.2391 17.9219 57.3172 19.7552C55.3536 23.3646 52.5307 26.4896 49.1245 28.7708C45.7026 31.0156 41.7234 32.4635 37.6401 32.8333L36.114 32.9115L35.3484 32.9479H27.9474L26.8536 32.9531L26.1088 32.9948C26.0828 32.9948 26.0568 32.9948 26.0307 32.9948C25.5568 32.9948 25.1036 33.1302 24.6401 33.1719C23.6765 33.3854 22.7234 33.6563 21.8432 34.099C20.0568 34.9271 18.463 36.2135 17.2963 37.8229C16.088 39.4063 15.3276 41.2865 15.0515 43.2448C14.9422 43.7292 14.9526 44.2344 14.9213 44.7292C14.8953 44.9271 14.8953 45.3281 14.9005 45.7135V47.5313Z" fill="#76ADD0"/>
<path d="M15.2137 47.5309H14.9012V45.7132C14.896 45.3278 14.896 44.9268 14.922 44.7288C14.9532 44.2341 14.9428 43.7288 15.0522 43.2445C15.3282 41.2861 16.0887 39.4059 17.297 37.8226C18.4637 36.2132 20.0574 34.9268 21.8439 34.0986C22.7241 33.6559 23.6772 33.3851 24.6407 33.1716C25.1043 33.1299 25.5574 32.9945 26.0314 32.9945C26.0574 32.9945 26.0835 32.9945 26.1095 32.9945L26.8543 32.9528L27.948 32.9476H35.3491L36.1147 32.9111L37.6407 32.833C41.7241 32.4632 45.7032 31.0153 49.1251 28.7705C52.5314 26.4893 55.3543 23.3643 57.3178 19.7549C58.2397 17.9215 59.0574 16.0153 59.5157 13.9997C59.8022 13.0101 59.9324 11.9893 60.0835 10.9736C60.0939 10.9059 60.1043 10.8434 60.1147 10.7809H60.4116C60.4741 10.3434 60.5001 9.90072 60.5262 9.45801C60.4949 9.97884 60.4845 10.4945 60.3907 11.0101C60.2397 12.0413 60.1095 13.0726 59.8178 14.0778C59.3543 16.1143 58.5262 18.0465 57.5887 19.9007C55.6043 23.557 52.7449 26.7184 49.297 29.0309C45.8335 31.307 41.8022 32.7705 37.672 33.1455L36.1251 33.2236L35.3491 33.2601H27.948L26.8543 33.2653L26.1303 33.307C26.1043 33.307 26.0782 33.307 26.0522 33.307C25.5887 33.307 25.1512 33.4424 24.698 33.4788C23.7605 33.6872 22.8335 33.9476 21.9741 34.3799C20.2345 35.1872 18.6824 36.4424 17.547 38.0101C16.3699 39.5518 15.6303 41.3799 15.3595 43.2913C15.2553 43.7601 15.2657 44.2497 15.2345 44.7393C15.2137 44.8799 15.2137 45.1507 15.2137 45.4476C15.2137 45.5361 15.2137 45.6247 15.2137 45.7132V47.5309Z" fill="#B8DFEE"/>
<path d="M10.5163 49.2188H7.22461V47.5312H10.5163V49.2188ZM2.36523 49.2188H1.97461V47.5312H2.36523V49.2188Z" fill="#5C81A1"/>
<path d="M1.67773 49.2188H1.97461V47.5312H1.67773V49.2188Z" fill="#486580"/>
<path d="M7.22461 49.2188H5.67253V47.5312H7.22461V49.2188ZM3.91732 49.2188H2.36523V47.5312H3.91732V49.2188Z" fill="#688BA7"/>
<path d="M3.91602 49.2188H5.67122V47.5312H3.91602V49.2188Z" fill="#83A0B6"/>
<path d="M10.5156 49.2188H14.2708V47.5312H10.5156V49.2188Z" fill="#507596"/>
<path d="M14.2715 49.2188H14.9017V47.5312H14.2715V49.2188Z" fill="#5C83A6"/>
<path d="M15.2129 49.2188H14.9004V47.5312H15.2129V49.2188Z" fill="#89A5BB"/>
<mask id="mask0_292_113699" style="mask-type:luminance" maskUnits="userSpaceOnUse" x="0" y="49" width="17" height="9">
<path d="M0.552734 49.1406H16.4902V57.7083H0.552734V49.1406Z" fill="white"/>
</mask>
<g mask="url(#mask0_292_113699)">
<path d="M0.605469 57.6458V49.276C0.605469 49.2448 0.63151 49.2188 0.667969 49.2188H16.3815C16.4128 49.2188 16.4388 49.2448 16.4388 49.276V57.6458C16.4388 57.6823 16.4128 57.7083 16.3815 57.7083H0.667969C0.63151 57.7083 0.605469 57.6823 0.605469 57.6458Z" fill="#567890"/>
</g>
<mask id="mask1_292_113699" style="mask-type:luminance" maskUnits="userSpaceOnUse" x="0" y="50" width="17" height="8">
<path d="M0.552734 50.1143H16.4902V57.708H0.552734V50.1143Z" fill="white"/>
</mask>
<g mask="url(#mask1_292_113699)">
<path d="M15.5169 57.7083H1.52734C1.1263 57.7083 0.798177 57.4479 0.667969 57.0885C0.839843 57.3125 1.08984 57.4688 1.39193 57.4688H15.3815C15.6419 57.4688 15.8763 57.3594 16.043 57.1875C16.0326 57.3542 15.9648 57.5 15.8763 57.6354C16.1576 57.5156 16.3659 57.2604 16.4232 56.9531C16.3451 57.3802 15.9701 57.7083 15.5169 57.7083Z" fill="#719FBB"/>
</g>
<mask id="mask2_292_113699" style="mask-type:luminance" maskUnits="userSpaceOnUse" x="15" y="55" width="2" height="3">
<path d="M15.209 55.5938H16.5423V57.7396H15.209V55.5938Z" fill="white"/>
</mask>
<g mask="url(#mask2_292_113699)">
<path d="M16.043 57.1872C16.043 57.1716 16.043 57.1507 16.043 57.1299V57.0778H16.1367C16.1107 57.1143 16.0742 57.1559 16.043 57.1872Z" fill="#6A94B0"/>
</g>
<mask id="mask3_292_113699" style="mask-type:luminance" maskUnits="userSpaceOnUse" x="15" y="56" width="2" height="2">
<path d="M15.7969 56.6562H16.4896V57.7083H15.7969V56.6562Z" fill="white"/>
</mask>
<g mask="url(#mask3_292_113699)">
<path d="M15.875 57.6354C15.9635 57.5 16.0313 57.3542 16.0417 57.1875C16.0729 57.1563 16.1094 57.1146 16.1354 57.0781H16.2135C16.276 57.0781 16.3281 57.0521 16.3854 57.0417C16.4115 56.9583 16.4375 56.875 16.4375 56.7812C16.4375 56.7812 16.4375 56.7813 16.4375 56.7865V56.7917V56.7969C16.4375 56.7969 16.4375 56.7969 16.4375 56.8021V56.8073C16.4375 56.8073 16.4375 56.8073 16.4375 56.8125C16.4375 56.8177 16.4375 56.8177 16.4375 56.8177C16.4375 56.8229 16.4375 56.8229 16.4375 56.8229V56.8281C16.4375 56.8281 16.4375 56.8281 16.4375 56.8333C16.4375 56.8333 16.4375 56.8333 16.4375 56.8385C16.4375 56.8437 16.4375 56.8438 16.4375 56.8438C16.4375 56.849 16.4375 56.849 16.4375 56.849V56.8542V56.8594C16.4375 56.8594 16.4375 56.8594 16.4375 56.8646C16.4375 56.8698 16.4375 56.8698 16.4323 56.8698C16.4323 56.8698 16.4323 56.8698 16.4323 56.875V56.8802C16.4323 56.8854 16.4323 56.8854 16.4323 56.8906C16.4323 56.8958 16.4323 56.8958 16.4323 56.8958V56.901V56.9063V56.9115C16.4271 56.9115 16.4271 56.9115 16.4271 56.9167C16.4271 56.9219 16.4271 56.9219 16.4271 56.9219C16.4271 56.9219 16.4271 56.9219 16.4271 56.9271C16.4271 56.9271 16.4271 56.9271 16.4271 56.9323C16.4271 56.9323 16.4271 56.9323 16.4271 56.9375C16.4271 56.9427 16.4271 56.9427 16.4271 56.9427L16.4219 56.9479C16.4219 56.9479 16.4219 56.9479 16.4219 56.9531C16.3646 57.2604 16.1563 57.5156 15.875 57.6354Z" fill="#7CB0D0"/>
</g>
<path d="M16.4382 50.1406C16.4382 49.9323 16.36 49.75 16.2402 49.599C16.2767 49.6927 16.3027 49.7865 16.3027 49.8958C16.2767 49.8854 16.2454 49.8802 16.2142 49.8802H15.8132C15.6465 49.6875 15.3965 49.5677 15.1204 49.5677H1.13607C1.00586 49.5677 0.886067 49.5938 0.771484 49.6406C0.938151 49.3906 1.20898 49.2188 1.52669 49.2188H15.5163C16.0267 49.2188 16.4382 49.6302 16.4382 50.1406Z" fill="#6A94B0"/>
<path d="M16.4382 50.1403C16.4382 50.0622 16.4121 49.9893 16.3965 49.9163C16.3652 49.9111 16.334 49.9007 16.3027 49.8955C16.3027 49.7861 16.2767 49.6924 16.2402 49.5986C16.36 49.7497 16.4382 49.932 16.4382 50.1403Z" fill="#7CB0D0"/>
<mask id="mask4_292_113699" style="mask-type:luminance" maskUnits="userSpaceOnUse" x="0" y="55" width="17" height="3">
<path d="M0.541016 55.5938H16.541V57.7396H0.541016V55.5938Z" fill="white"/>
</mask>
<g mask="url(#mask4_292_113699)">
<path d="M16.041 57.0785H0.827474C0.770182 57.0785 0.71289 57.0524 0.655599 57.042C0.629556 56.9587 0.603516 56.8753 0.603516 56.7816V56.667H16.041V57.0785Z" fill="#314453"/>
</g>
<mask id="mask5_292_113699" style="mask-type:luminance" maskUnits="userSpaceOnUse" x="15" y="55" width="2" height="3">
<path d="M15.209 55.5938H16.5423V57.7396H15.209V55.5938Z" fill="white"/>
</mask>
<g mask="url(#mask5_292_113699)">
<path d="M16.1367 57.0785H16.043V56.667H16.2982C16.2773 56.818 16.2201 56.9587 16.1367 57.0785Z" fill="#3D5566"/>
<path d="M16.2148 57.0785H16.1367C16.2201 56.9587 16.2773 56.818 16.2982 56.667H16.4388V56.7816C16.4388 56.8753 16.4128 56.9587 16.3867 57.042C16.3294 57.0524 16.2773 57.0785 16.2148 57.0785Z" fill="#486479"/>
</g>
<path d="M16.0098 50.2549H0.603516V50.1403C0.603516 50.0622 0.629557 49.9893 0.650391 49.9163C0.707683 49.9059 0.764974 49.8799 0.827474 49.8799H15.8118C15.9056 49.9893 15.9733 50.1143 16.0098 50.2549Z" fill="#6A8EA3"/>
<path d="M16.3021 50.2549H16.0104C15.974 50.1143 15.9063 49.9893 15.8125 49.8799H16.2135C16.2448 49.8799 16.276 49.8851 16.3021 49.8955C16.3021 49.8955 16.3021 49.9007 16.3021 49.9059V50.2549Z" fill="#7AA7BF"/>
<path d="M16.4382 50.2549H16.3027V49.9059C16.3027 49.9007 16.3027 49.8955 16.3027 49.8955C16.334 49.9007 16.3652 49.9111 16.3965 49.9163C16.4121 49.9893 16.4382 50.0622 16.4382 50.1403V50.2549Z" fill="#8ABED8"/>
<mask id="mask6_292_113699" style="mask-type:luminance" maskUnits="userSpaceOnUse" x="0" y="48" width="18" height="9">
<path d="M0 48.9268H17.875V56.9268H0V48.9268Z" fill="white"/>
</mask>
<g mask="url(#mask6_292_113699)">
<path d="M0 56.6143V50.307C0 50.2809 0.020834 50.2549 0.0520833 50.2549H16.9948C17.0208 50.2549 17.0469 50.2809 17.0469 50.307V56.6143C17.0469 56.6455 17.0208 56.6663 16.9948 56.6663H0.0520833C0.020834 56.6663 0 56.6455 0 56.6143Z" fill="#3F586A"/>
<path d="M16.2135 56.6663H0.828125C0.375 56.6663 0.005208 56.2965 0 55.8434C0 56.0674 0.0937487 56.2601 0.239583 56.4059C0.255207 56.4215 0.270833 56.4424 0.291667 56.458V56.4528C0.385416 56.5361 0.5 56.5934 0.630208 56.6299V50.6768H2.23958V54.0726C2.23958 54.5309 2.61458 54.9059 3.07292 54.9059H16.4375V56.2549C16.4375 56.3955 16.3906 56.5257 16.3281 56.6455C16.7292 56.5882 17.0417 56.2601 17.0469 55.8434C17.0417 56.2965 16.6719 56.6663 16.2135 56.6663ZM0 55.8382V55.833C0 55.833 0 55.833 0 55.8382ZM0 51.083C0 50.6247 0.369792 50.2549 0.828125 50.2549C0.604166 50.2549 0.406251 50.3486 0.260417 50.4945C0.250001 50.4997 0.244792 50.5101 0.234375 50.5205C0.0885417 50.6663 0 50.859 0 51.083Z" fill="#374D5D"/>
</g>
<path d="M17.0475 54.9059H16.4382V51.5101C16.4382 51.0518 16.0684 50.6768 15.6048 50.6768H2.24023V50.2549H16.2142C16.6725 50.2549 17.0475 50.6299 17.0475 51.0882V54.9059Z" fill="#527189"/>
<mask id="mask7_292_113699" style="mask-type:luminance" maskUnits="userSpaceOnUse" x="0" y="48" width="18" height="9">
<path d="M0 48.9268H17.875V56.9268H0V48.9268Z" fill="white"/>
</mask>
<g mask="url(#mask7_292_113699)">
<path d="M16.3275 56.6455C16.39 56.5257 16.4368 56.3955 16.4368 56.2549V54.9059H17.0462V55.833V55.8382C17.0462 55.8434 17.0462 55.8434 17.0462 55.8434C17.041 56.2601 16.7285 56.5882 16.3275 56.6455ZM2.23893 50.6768H0.629557V50.2965C0.499349 50.3278 0.384765 50.3903 0.291016 50.4684C0.2806 50.4736 0.270183 50.4841 0.259766 50.4945C0.4056 50.3486 0.603515 50.2549 0.827474 50.2549H2.23893V50.6768Z" fill="#4B687D"/>
</g>
<mask id="mask8_292_113699" style="mask-type:luminance" maskUnits="userSpaceOnUse" x="0" y="50" width="2" height="7">
<path d="M0 50.2607H1.875V56.9274H0V50.2607Z" fill="white"/>
</mask>
<g mask="url(#mask8_292_113699)">
<path d="M0.630208 56.6309C0.5 56.5944 0.385416 56.5371 0.291667 56.4538V50.6777H0.630208V56.6309ZM0.239583 56.4069C0.0937487 56.2611 0 56.0684 0 55.8444V55.8392C0 56.0632 0.0937487 56.2611 0.239583 56.4069ZM0 51.0892C0 51.084 0 51.084 0 51.084C0 51.0892 0 51.0892 0 51.0892ZM0 51.084C0 50.86 0.0885417 50.6673 0.234375 50.5215C0.0937497 50.6673 0 50.8652 0 51.084Z" fill="#485C6C"/>
</g>
<mask id="mask9_292_113699" style="mask-type:luminance" maskUnits="userSpaceOnUse" x="0" y="50" width="2" height="2">
<path d="M0 50.2607H1.875V51.5941H0V50.2607Z" fill="white"/>
</mask>
<g mask="url(#mask9_292_113699)">
<path d="M0.629557 50.6771H0.291016V50.4688C0.384765 50.3906 0.499349 50.3281 0.629557 50.2969V50.6771Z" fill="#5A7789"/>
</g>
<mask id="mask10_292_113699" style="mask-type:luminance" maskUnits="userSpaceOnUse" x="0" y="50" width="1" height="7">
<path d="M0 50.2607H0.541667V56.9274H0V50.2607Z" fill="white"/>
</mask>
<g mask="url(#mask10_292_113699)">
<path d="M0.291667 56.4587C0.270833 56.443 0.255207 56.4222 0.239583 56.4066C0.255207 56.4222 0.270833 56.4378 0.291667 56.4535V56.4587ZM0.234375 50.5212C0.244792 50.5107 0.250001 50.5003 0.260417 50.4951C0.255209 50.5003 0.255208 50.5003 0.25 50.5055C0.244792 50.5107 0.239584 50.516 0.234375 50.5212Z" fill="#596D7A"/>
</g>
<mask id="mask11_292_113699" style="mask-type:luminance" maskUnits="userSpaceOnUse" x="0" y="50" width="1" height="2">
<path d="M0 50.2607H0.541667V51.5941H0V50.2607Z" fill="white"/>
</mask>
<g mask="url(#mask11_292_113699)">
<path d="M0.25 50.5052C0.255208 50.5 0.255209 50.5 0.260417 50.4948C0.270834 50.4844 0.281251 50.474 0.291667 50.4688C0.276041 50.4792 0.260416 50.4948 0.25 50.5052Z" fill="#698493"/>
</g>
<mask id="mask12_292_113699" style="mask-type:luminance" maskUnits="userSpaceOnUse" x="0" y="50" width="1" height="7">
<path d="M0 50.2607H0.541667V56.9274H0V50.2607Z" fill="white"/>
</mask>
<g mask="url(#mask12_292_113699)">
<path d="M0.291667 56.4538C0.270833 56.4382 0.255207 56.4225 0.239583 56.4069C0.0937487 56.2611 0 56.0632 0 55.8392C0 55.834 0 55.834 0 55.834V51.0892C0 51.0892 0 51.0892 0 51.084C0 50.8652 0.0937497 50.6673 0.234375 50.5215C0.239584 50.5163 0.244792 50.5111 0.25 50.5059C0.192708 50.5632 0.145834 50.6309 0.109375 50.7038C0.145834 50.6934 0.182292 50.6777 0.223958 50.6777H0.291667V56.4538Z" fill="#677A87"/>
</g>
<mask id="mask13_292_113699" style="mask-type:luminance" maskUnits="userSpaceOnUse" x="0" y="50" width="1" height="2">
<path d="M0 50.2607H0.541667V51.5941H0V50.2607Z" fill="white"/>
</mask>
<g mask="url(#mask13_292_113699)">
<path d="M0.109375 50.7031C0.145834 50.6302 0.192708 50.5625 0.25 50.5052C0.260416 50.4948 0.276041 50.4792 0.291667 50.4688V50.6771H0.223958C0.182292 50.6771 0.145834 50.6927 0.109375 50.7031Z" fill="#76909D"/>
</g>
<mask id="mask14_292_113699" style="mask-type:luminance" maskUnits="userSpaceOnUse" x="45" y="0" width="17" height="9">
<path d="M45.875 0H61.875V8.92708H45.875V0Z" fill="white"/>
</mask>
<g mask="url(#mask14_292_113699)">
<path d="M45.9121 8.45833V0.0885417C45.9121 0.057291 45.9434 0.03125 45.9746 0.03125H61.6882C61.7194 0.03125 61.7454 0.057291 61.7454 0.0885417V8.45833C61.7454 8.49479 61.7194 8.52083 61.6882 8.52083H45.9746C45.9434 8.52083 45.9121 8.49479 45.9121 8.45833Z" fill="#567890"/>
</g>
<path d="M60.8236 8.52083H46.8392C46.4382 8.52083 46.1048 8.26042 45.9746 7.90104C46.1465 8.13021 46.4017 8.28125 46.7038 8.28125H60.6882C60.9486 8.28125 61.1829 8.17708 61.3496 8.00521C61.3392 8.16667 61.2715 8.31771 61.1882 8.44792C61.4798 8.32292 61.6934 8.05208 61.7402 7.72396C61.6777 8.17188 61.2923 8.52083 60.8236 8.52083Z" fill="#719FBB"/>
<path d="M61.3496 8.00521C61.3496 7.98438 61.3548 7.96354 61.3548 7.94792V7.89063H61.4434C61.4173 7.93229 61.3861 7.96875 61.3496 8.00521Z" fill="#6A94B0"/>
<path d="M61.1875 8.44792C61.2708 8.31771 61.3385 8.16667 61.349 8.00521C61.3854 7.96875 61.4167 7.93229 61.4427 7.89063H61.5208C61.5833 7.89063 61.6354 7.86979 61.6927 7.85417C61.7187 7.77083 61.7448 7.6875 61.7448 7.59375C61.7448 7.59375 61.7448 7.59375 61.7448 7.59896C61.7448 7.60417 61.7448 7.60417 61.7448 7.60417C61.7448 7.60417 61.7448 7.60417 61.7448 7.60938V7.61458C61.7448 7.61458 61.7448 7.61458 61.7448 7.61979V7.625C61.7448 7.63021 61.7448 7.63021 61.7448 7.63021C61.7448 7.63542 61.7448 7.63542 61.7448 7.63542C61.7448 7.64062 61.7448 7.64063 61.7448 7.64063V7.64583V7.65104V7.65625C61.7448 7.65625 61.7448 7.65625 61.7448 7.66146V7.66667C61.7448 7.67187 61.7448 7.67188 61.7448 7.67188C61.7448 7.67708 61.7448 7.67708 61.7448 7.67708C61.7448 7.68229 61.7448 7.68229 61.7448 7.68229C61.7448 7.68229 61.7448 7.68229 61.7448 7.6875C61.7396 7.6875 61.7396 7.6875 61.7396 7.6875V7.69271C61.7396 7.69271 61.7396 7.69271 61.7396 7.69792C61.7396 7.70312 61.7396 7.70313 61.7396 7.70313C61.7396 7.70833 61.7396 7.70833 61.7396 7.70833V7.71354V7.71875C61.7396 7.71875 61.7396 7.71875 61.7396 7.72396C61.6927 8.05208 61.4792 8.32292 61.1875 8.44792Z" fill="#7CB0D0"/>
<mask id="mask15_292_113699" style="mask-type:luminance" maskUnits="userSpaceOnUse" x="45" y="0" width="17" height="3">
<path d="M45.875 0H61.875V2.26042H45.875V0Z" fill="white"/>
</mask>
<g mask="url(#mask15_292_113699)">
<path d="M61.7448 0.953125C61.7448 0.744792 61.6667 0.5625 61.5469 0.411458C61.5833 0.505209 61.6094 0.604165 61.6094 0.708333C61.5833 0.697916 61.5521 0.692708 61.5208 0.692708H61.1198C60.9531 0.5 60.7031 0.380208 60.4271 0.380208H46.4427C46.3125 0.380208 46.1927 0.406249 46.0781 0.458333C46.2448 0.203124 46.5156 0.03125 46.8385 0.03125H60.8229C61.3333 0.03125 61.7448 0.442709 61.7448 0.953125Z" fill="#6A94B0"/>
</g>
<mask id="mask16_292_113699" style="mask-type:luminance" maskUnits="userSpaceOnUse" x="60" y="0" width="2" height="3">
<path d="M60.541 0H61.8743V2.26042H60.541V0Z" fill="white"/>
</mask>
<g mask="url(#mask16_292_113699)">
<path d="M61.7448 0.958008C61.7448 0.874674 61.7187 0.806966 61.7031 0.728841C61.6719 0.723633 61.6406 0.713216 61.6094 0.708008C61.6094 0.60384 61.5833 0.504883 61.5469 0.411133C61.6667 0.562174 61.7448 0.744466 61.7448 0.952799V0.958008Z" fill="#7CB0D0"/>
</g>
<path d="M61.3548 7.89063H46.1413C46.0788 7.89063 46.0215 7.86979 45.9642 7.85417C45.9434 7.77083 45.9121 7.6875 45.9121 7.59375V7.48438H61.3548V7.89063Z" fill="#314453"/>
<path d="M61.4421 7.89063H61.3535V7.48438H61.6035C61.5827 7.63021 61.5254 7.77083 61.4421 7.89063Z" fill="#3D5566"/>
<path d="M61.5215 7.89063H61.4434C61.5267 7.77083 61.584 7.63021 61.6048 7.48438H61.7454V7.59375C61.7454 7.6875 61.7194 7.77083 61.6934 7.85417C61.6361 7.86979 61.584 7.89063 61.5215 7.89063Z" fill="#486479"/>
<mask id="mask17_292_113699" style="mask-type:luminance" maskUnits="userSpaceOnUse" x="45" y="0" width="17" height="3">
<path d="M45.875 0H61.875V2.26042H45.875V0Z" fill="white"/>
</mask>
<g mask="url(#mask17_292_113699)">
<path d="M61.3236 1.06738H45.9121V0.958008C45.9121 0.874674 45.9382 0.806966 45.959 0.728841C46.0215 0.718425 46.0736 0.692383 46.1413 0.692383H61.1204C61.2142 0.801757 61.2819 0.926757 61.3236 1.06738Z" fill="#6A8EA3"/>
</g>
<mask id="mask18_292_113699" style="mask-type:luminance" maskUnits="userSpaceOnUse" x="60" y="0" width="2" height="3">
<path d="M60.541 0H61.8743V2.26042H60.541V0Z" fill="white"/>
</mask>
<g mask="url(#mask18_292_113699)">
<path d="M61.6087 1.06738H61.3223C61.2806 0.926757 61.2129 0.801757 61.1191 0.692383H61.5202C61.5514 0.692383 61.5827 0.69759 61.6087 0.708008C61.6087 0.713216 61.6087 0.713216 61.6087 0.718424V1.06738Z" fill="#7AA7BF"/>
<path d="M61.7448 1.06738H61.6094V0.718424C61.6094 0.713216 61.6094 0.713216 61.6094 0.708008C61.6406 0.713216 61.6719 0.723633 61.7031 0.728841C61.7187 0.806966 61.7448 0.874674 61.7448 0.958008V1.06738Z" fill="#8ABED8"/>
</g>
<path d="M45.3066 7.42676V1.12467C45.3066 1.09342 45.3275 1.06738 45.3587 1.06738H62.3014C62.3275 1.06738 62.3535 1.09342 62.3535 1.12467V7.42676C62.3535 7.45801 62.3275 7.48405 62.3014 7.48405H45.3587C45.3275 7.48405 45.3066 7.45801 45.3066 7.42676Z" fill="#3F586A"/>
<path d="M61.5202 7.48405H46.14C45.6816 7.48405 45.3118 7.11426 45.3066 6.65592C45.3066 6.87468 45.4004 7.07259 45.541 7.21842C45.5618 7.23405 45.5775 7.25488 45.5983 7.27051C45.6921 7.34863 45.8066 7.40592 45.9368 7.44238V1.48926H47.5462V4.88509C47.5462 5.34863 47.9212 5.71842 48.3796 5.71842H61.7441V7.06738C61.7441 7.21322 61.7025 7.33822 61.6348 7.45801C62.0358 7.40072 62.3483 7.07259 62.3535 6.65592C62.3483 7.11426 61.9785 7.48405 61.5202 7.48405ZM45.3066 1.90072C45.3066 1.90072 45.3066 1.90072 45.3066 1.89551C45.3066 1.89551 45.3066 1.89551 45.3066 1.90072ZM45.3066 1.89551C45.3118 1.44238 45.6764 1.07259 46.1348 1.06738C45.9108 1.06738 45.7129 1.16113 45.5671 1.31217C45.5566 1.31738 45.5514 1.32259 45.5462 1.33301C45.4004 1.47363 45.3066 1.67155 45.3066 1.89551Z" fill="#374D5D"/>
<path d="M62.3542 5.71842H61.7448V2.3278C61.7448 1.86426 61.375 1.48926 60.9167 1.48926H47.5469V1.06738H61.5208C61.9792 1.06738 62.3542 1.44238 62.3542 1.90592V5.71842Z" fill="#527189"/>
<path d="M61.6361 7.45801C61.7038 7.33822 61.7454 7.21322 61.7454 7.06738V5.71842H62.3548V6.64551C62.3548 6.64551 62.3548 6.64551 62.3548 6.65072V6.65592C62.3496 7.07259 62.0371 7.40072 61.6361 7.45801ZM47.5475 1.48926H45.9382V1.10905C45.8079 1.1403 45.6934 1.2028 45.5996 1.28092C45.5892 1.29134 45.5788 1.30176 45.5684 1.31217C45.7142 1.16113 45.9121 1.06738 46.1361 1.06738C46.1361 1.06738 46.1361 1.06738 46.1413 1.06738H47.5475V1.48926Z" fill="#4B687D"/>
<path d="M45.9368 7.44238C45.8066 7.40592 45.6921 7.34863 45.5983 7.27051V1.48926H45.9368V7.44238ZM45.541 7.21842C45.4004 7.07259 45.3066 6.87468 45.3066 6.65592C45.3066 6.65592 45.3066 6.65592 45.3066 6.65072C45.3066 6.87467 45.4004 7.06738 45.541 7.21842ZM45.3066 6.65072C45.3066 6.64551 45.3066 6.64551 45.3066 6.64551V6.65072ZM45.3066 1.90072C45.3066 1.89551 45.3066 1.89551 45.3066 1.89551C45.3066 1.67155 45.4004 1.47363 45.5462 1.33301C45.4004 1.47884 45.3066 1.67676 45.3066 1.90072Z" fill="#485C6C"/>
<path d="M45.9382 1.48958H45.5996V1.28125C45.6934 1.20312 45.8079 1.14062 45.9382 1.10938V1.48958Z" fill="#5A7789"/>
<path d="M45.5983 7.27083C45.5775 7.25521 45.5618 7.23438 45.541 7.21875C45.5618 7.23438 45.5775 7.25 45.5983 7.27083ZM45.5462 1.33333C45.5514 1.32292 45.5566 1.31771 45.5671 1.3125C45.5618 1.3125 45.5618 1.31771 45.5566 1.31771C45.5514 1.32292 45.5462 1.32812 45.5462 1.33333Z" fill="#596D7A"/>
<path d="M45.5566 1.31771C45.5618 1.31771 45.5618 1.3125 45.5671 1.3125C45.5775 1.30208 45.5879 1.29167 45.5983 1.28125C45.5827 1.29688 45.5723 1.30729 45.5566 1.31771Z" fill="#698493"/>
<path d="M45.5983 7.27051C45.5775 7.24968 45.5618 7.23405 45.541 7.21842C45.4004 7.06738 45.3066 6.87467 45.3066 6.65072V6.64551V1.90592C45.3066 1.90072 45.3066 1.90072 45.3066 1.90072C45.3066 1.67676 45.4004 1.47884 45.5462 1.33301C45.5462 1.3278 45.5514 1.32259 45.5566 1.31738C45.4993 1.37467 45.4525 1.44238 45.416 1.5153C45.4525 1.51009 45.4889 1.48926 45.5306 1.48926H45.5983V7.27051Z" fill="#677A87"/>
<path d="M45.416 1.51563C45.4525 1.44271 45.4993 1.375 45.5566 1.31771C45.5723 1.30729 45.5827 1.29688 45.5983 1.28125V1.48958H45.5306C45.4889 1.48958 45.4525 1.51042 45.416 1.51563Z" fill="#76909D"/>
<path d="M46.6875 10.7816L46.6927 10.7764C46.6927 10.7764 46.6927 10.7816 46.6875 10.7816Z" fill="#B9BBC4"/>
<path d="M55.6823 10.7809H52.3542C52.3906 10.5309 52.4271 10.2809 52.4635 10.0361C52.5365 9.68197 52.5313 9.3278 52.5573 8.96842L52.5781 8.52051H55.8698V8.53613L55.8385 9.17155C55.8125 9.59342 55.8125 10.0205 55.7344 10.4372C55.7135 10.5518 55.6979 10.6663 55.6823 10.7809ZM47.401 10.7809H47C47.1354 10.3278 47.1719 9.85384 47.2552 9.3903C47.3125 9.15072 47.2969 8.89551 47.3125 8.65072L47.3229 8.52051H47.7083L47.7031 8.67676C47.6875 8.93197 47.6979 9.19238 47.6406 9.44238C47.5625 9.88509 47.526 10.3434 47.401 10.7809Z" fill="#5C81A1"/>
<path d="M47 10.7809H46.6875C46.6927 10.7809 46.6927 10.7757 46.6927 10.7757C46.8437 10.3174 46.875 9.83301 46.9583 9.35384C47.0156 9.11947 47.0052 8.87467 47.0208 8.62988L47.026 8.52051H47.3229L47.3125 8.65072C47.2969 8.89551 47.3125 9.15072 47.2552 9.3903C47.1719 9.85384 47.1354 10.3278 47 10.7809Z" fill="#486580"/>
<path d="M52.3535 10.7809H50.7806C50.8327 10.4684 50.8743 10.1559 50.9212 9.84342C50.9889 9.52572 50.9837 9.19759 51.0046 8.87467L51.0202 8.52051H52.5775L52.5566 8.96842C52.5306 9.3278 52.5358 9.68197 52.4629 10.0361C52.4264 10.2809 52.39 10.5309 52.3535 10.7809ZM48.9993 10.7809H47.4004C47.5254 10.3434 47.5618 9.88509 47.64 9.44238C47.6973 9.19238 47.6868 8.93197 47.7025 8.67676L47.7077 8.52051H49.265L49.2493 8.77051C49.2337 9.05697 49.2441 9.34863 49.1816 9.62988C49.1139 10.0101 49.0723 10.4007 48.9993 10.7809Z" fill="#688BA7"/>
<path d="M50.7813 10.7809H49C49.0729 10.4007 49.1146 10.0101 49.1823 9.62988C49.2448 9.34863 49.2344 9.05697 49.25 8.77051L49.2656 8.52051H51.0208L51.0052 8.87467C50.9844 9.19759 50.9896 9.52572 50.9219 9.84342C50.875 10.1559 50.8333 10.4684 50.7813 10.7809Z" fill="#83A0B6"/>
<path d="M59.4733 10.7809H55.6816C55.6973 10.6663 55.7129 10.5518 55.7337 10.4372C55.8118 10.0205 55.8118 9.59342 55.8379 9.17155L55.8691 8.53613V8.52051H59.6296L59.6191 8.65072L59.5827 9.40072C59.5566 9.86426 59.5462 10.3226 59.4733 10.7809Z" fill="#507596"/>
<path d="M60.1152 10.7809H59.4746C59.5475 10.3226 59.5579 9.86426 59.584 9.40072L59.6204 8.65072L59.6309 8.52051H60.2611L60.2559 8.67155L60.2142 9.44238C60.1882 9.88509 60.1777 10.333 60.1152 10.7809Z" fill="#5C83A6"/>
<path d="M60.4121 10.7809H60.1152C60.1777 10.333 60.1882 9.88509 60.2142 9.44238L60.2559 8.67155L60.2611 8.52051H60.5736L60.5632 8.68197L60.5267 9.45801C60.5007 9.90072 60.4746 10.3434 60.4121 10.7809Z" fill="#89A5BB"/>
</svg>
