<svg width="68" height="26" viewBox="0 0 68 26" fill="none" xmlns="http://www.w3.org/2000/svg">
<path d="M28.668 16.1823H38.2513V12.4844H28.668V16.1823Z" fill="#F47528"/>
<path d="M28.668 14.2868H38.2513V14.1826H28.668V14.2868Z" fill="#F2512E"/>
<mask id="mask0_292_113700" style="mask-type:luminance" maskUnits="userSpaceOnUse" x="26" y="0" width="16" height="14">
<path d="M26.668 0H41.3346V13.6094H26.668V0Z" fill="white"/>
</mask>
<g mask="url(#mask0_292_113700)">
<path d="M40.028 6.64583C40.028 10.3125 37.0853 13.2865 33.4603 13.2865C29.8353 13.2865 26.8926 10.3125 26.8926 6.64583C26.8926 2.97396 29.8353 0 33.4603 0C37.0853 0 40.028 2.97396 40.028 6.64583Z" fill="#F47528"/>
</g>
<path d="M38.3958 10.9844H38.0208C38.0156 10.9844 38.0104 10.9844 38.0052 10.9844H37.8021C38.5938 10.3646 39.2448 9.55729 39.6927 8.63542C39.4167 9.51042 38.974 10.3073 38.3958 10.9844ZM28.8958 10.9844H28.4896C27.4948 9.82292 26.8906 8.30208 26.8906 6.64583V6.64063C26.8906 6.64063 26.8906 6.64063 26.8906 6.63542C26.8906 5.58854 27.1563 4.61458 27.5833 3.73438C27.3854 4.36458 27.25 5.02604 27.25 5.72396C27.25 6.67708 27.4479 7.58333 27.8021 8.40104C27.8073 8.41667 27.8125 8.43229 27.8177 8.45313H27.8229C28.2708 9.45313 28.9583 10.3229 29.8073 10.9844H28.9115C28.9063 10.9844 28.901 10.9844 28.8958 10.9844Z" fill="#F3622B"/>
<mask id="mask1_292_113700" style="mask-type:luminance" maskUnits="userSpaceOnUse" x="26" y="0" width="16" height="10">
<path d="M26.668 0H41.3346V9.60938H26.668V0Z" fill="white"/>
</mask>
<g mask="url(#mask1_292_113700)">
<path d="M39.4544 9.33333C39.7826 8.54687 39.9648 7.67708 39.9648 6.76563C39.9648 3.09375 37.0273 0.119792 33.3971 0.119792C30.7201 0.119792 28.4284 1.74479 27.4023 4.07292C28.3138 1.88021 30.3555 0.286458 32.7878 0.0364583C32.793 0.0364583 32.793 0.0364583 32.7982 0.0364583C32.7982 0.0312503 32.8034 0.03125 32.8034 0.03125C32.8034 0.03125 32.8034 0.03125 32.8086 0.03125C32.8086 0.03125 32.8086 0.03125 32.8138 0.03125H32.819H32.8242C32.8294 0.03125 32.8294 0.03125 32.8294 0.03125H32.8346H32.8398C32.8451 0.03125 32.8503 0.0312497 32.8555 0.0260417C33.0378 0.0104163 33.2201 0.005208 33.4076 0C33.4128 0 33.4128 0 33.418 0C33.418 0 33.418 0 33.4232 0C33.4284 0 33.4284 0 33.4284 0C33.4336 0 33.4336 0 33.4336 0H33.4388C33.4388 0 33.4388 0 33.444 0H33.4492H33.4544H33.4596C33.944 0 34.418 0.0520833 34.8763 0.15625C37.819 0.807293 40.0273 3.46354 40.0273 6.64583C40.0273 7.60417 39.8138 8.51042 39.4544 9.33333Z" fill="#F9AC73"/>
</g>
<mask id="mask2_292_113700" style="mask-type:luminance" maskUnits="userSpaceOnUse" x="5" y="13" width="61" height="13">
<path d="M5.33398 13.6094H65.334V25.3698H5.33398V13.6094Z" fill="white"/>
</mask>
<g mask="url(#mask2_292_113700)">
<path d="M5.51562 24.3278H64.1875V14.3018H5.51562V24.3278Z" fill="#78AAC9"/>
</g>
<mask id="mask3_292_113700" style="mask-type:luminance" maskUnits="userSpaceOnUse" x="20" y="13" width="30" height="13">
<path d="M20 13.6094H49.3333V25.3698H20V13.6094Z" fill="white"/>
</mask>
<g mask="url(#mask3_292_113700)">
<path d="M21.0879 24.3278H48.6139V14.3018H21.0879V24.3278Z" fill="#F47528"/>
</g>
<path d="M5.51562 14.5049H64.1875V14.2861H5.51562V14.5049Z" fill="#5F859F"/>
<path d="M59.4792 18.3962H50.7135V17.2451H59.4792V18.3962ZM17.2344 18.3962H7.79688V17.2451H17.2344V18.3962ZM59.4792 15.943H50.7135V14.792H59.4792V15.943ZM17.2344 15.943H7.79688V14.792H17.2344V15.943Z" fill="#89B9D2"/>
<path d="M45.7148 18.3962H22.4961V17.2451H45.7148V18.3962ZM45.7148 15.943H22.4961V14.792H45.7148V15.943Z" fill="#F68942"/>
<path d="M59.4792 17.2445H50.7135V15.9424H59.4792V17.2445ZM17.2344 17.2445H7.79688V15.9424H17.2344V17.2445Z" fill="#B0D6E7"/>
<path d="M22.4961 17.2445H45.7148V15.9424H22.4961V17.2445Z" fill="#E7B992"/>
<path d="M7.79688 23.6143H17.2344V20.833H7.79688V23.6143Z" fill="#6291B5"/>
<path d="M50.7148 23.6143H59.4805V20.833H50.7148V23.6143Z" fill="#6291B5"/>
<path d="M22.4961 23.6143H45.7148V20.833H22.4961V23.6143Z" fill="#F2512A"/>
<path d="M7.79688 24.083H17.2344V23.6143H7.79688V24.083Z" fill="#8AB0C9"/>
<path d="M50.7148 24.083H59.4805V23.6143H50.7148V24.083Z" fill="#8AB0C9"/>
<path d="M22.4961 24.083H45.7148V23.6143H22.4961V24.083Z" fill="#F57753"/>
<mask id="mask4_292_113700" style="mask-type:luminance" maskUnits="userSpaceOnUse" x="6" y="22" width="12" height="4">
<path d="M6.66797 22.9424H17.3346V25.3695H6.66797V22.9424Z" fill="white"/>
</mask>
<g mask="url(#mask4_292_113700)">
<path d="M7.79883 24.3122H17.2363V24.083H7.79883V24.3122Z" fill="#BFDEED"/>
</g>
<mask id="mask5_292_113700" style="mask-type:luminance" maskUnits="userSpaceOnUse" x="50" y="22" width="11" height="4">
<path d="M50.668 22.9424H60.0013V25.3695H50.668V22.9424Z" fill="white"/>
</mask>
<g mask="url(#mask5_292_113700)">
<path d="M50.7148 24.3122H59.4805V24.083H50.7148V24.3122Z" fill="#BFDEED"/>
</g>
<mask id="mask6_292_113700" style="mask-type:luminance" maskUnits="userSpaceOnUse" x="21" y="22" width="26" height="4">
<path d="M21.334 22.9424H46.6673V25.3695H21.334V22.9424Z" fill="white"/>
</mask>
<g mask="url(#mask6_292_113700)">
<path d="M22.4961 24.3122H45.7148V24.083H22.4961V24.3122Z" fill="#E5C8C2"/>
</g>
<mask id="mask7_292_113700" style="mask-type:luminance" maskUnits="userSpaceOnUse" x="0" y="13" width="7" height="13">
<path d="M0 13.6094H6.66667V25.3698H0V13.6094Z" fill="white"/>
</mask>
<g mask="url(#mask7_292_113700)">
<path d="M6.01042 24.9372H0.161458C0.130208 24.9372 0.109375 24.9111 0.109375 24.8799V13.7132C0.109375 13.682 0.130208 13.6611 0.161458 13.6611H6.01042C6.03646 13.6611 6.0625 13.682 6.0625 13.7132V24.8799C6.0625 24.9111 6.03646 24.9372 6.01042 24.9372Z" fill="#567890"/>
<path d="M5.63086 24.8955C5.78711 24.7757 5.89648 24.5934 5.89648 24.3747V14.4111C5.89648 14.2288 5.82357 14.0622 5.69857 13.9424C5.81836 13.9528 5.91732 13.9997 6.01107 14.0622C5.92773 13.8538 5.74023 13.7028 5.51628 13.6663C5.82357 13.7184 6.06315 13.9893 6.06315 14.3174V24.2809C6.06315 24.5674 5.88086 24.8018 5.63086 24.8955ZM5.41732 13.6611H5.41211C5.41732 13.6611 5.41732 13.6611 5.41732 13.6611Z" fill="#719FBB"/>
<path d="M0.40625 24.8174C0.229166 24.7028 0.109375 24.5101 0.109375 24.2809V14.3174C0.109375 13.9528 0.395834 13.6611 0.755208 13.6611C0.609375 13.6611 0.484375 13.7184 0.375 13.8018C0.442708 13.7757 0.510416 13.7549 0.583333 13.7549C0.578125 13.7757 0.572917 13.7965 0.572917 13.8174V14.1038C0.437499 14.2236 0.354167 14.4007 0.354167 14.5986V24.5622C0.354167 24.6559 0.374999 24.7393 0.40625 24.8174ZM5.69792 13.9424C5.6875 13.9424 5.67187 13.9424 5.66146 13.9424H5.61979V13.8747C5.65104 13.8955 5.67708 13.9163 5.69792 13.9424Z" fill="#6A94B0"/>
</g>
<path d="M6.01042 14.0622C5.91667 13.9997 5.81771 13.9528 5.69792 13.9424C5.67708 13.9163 5.65104 13.8955 5.61979 13.8747V13.8174C5.61979 13.7757 5.60417 13.7393 5.59896 13.6976C5.53646 13.6768 5.47917 13.6611 5.41667 13.6611H5.42188C5.42708 13.6611 5.42708 13.6611 5.42708 13.6611C5.43229 13.6611 5.43229 13.6611 5.43229 13.6611C5.4375 13.6611 5.4375 13.6611 5.4375 13.6611C5.4375 13.6611 5.4375 13.6611 5.44271 13.6611C5.44792 13.6611 5.44792 13.6611 5.44792 13.6611C5.45312 13.6611 5.45313 13.6611 5.45313 13.6611H5.45833C5.46354 13.6611 5.46354 13.6611 5.46354 13.6611H5.46875C5.46875 13.6611 5.46875 13.6611 5.47396 13.6611H5.47917C5.48437 13.6611 5.48438 13.6611 5.48438 13.6611C5.48438 13.6663 5.48437 13.6663 5.48958 13.6663C5.49479 13.6663 5.49479 13.6663 5.49479 13.6663C5.5 13.6663 5.5 13.6663 5.50521 13.6663C5.50521 13.6663 5.50521 13.6663 5.51042 13.6663H5.51563C5.73958 13.7028 5.92708 13.8538 6.01042 14.0622ZM0.375 13.8018C0.484375 13.7184 0.609375 13.6611 0.755208 13.6611C0.755208 13.6611 0.755209 13.6611 0.760417 13.6611C0.703126 13.6611 0.651041 13.6768 0.598958 13.6924C0.593749 13.7132 0.588541 13.734 0.583333 13.7549C0.510416 13.7549 0.442708 13.7757 0.375 13.8018Z" fill="#7CB0D0"/>
<mask id="mask8_292_113700" style="mask-type:luminance" maskUnits="userSpaceOnUse" x="5" y="13" width="2" height="13">
<path d="M5.33398 13.6094H6.66732V25.3698H5.33398V13.6094Z" fill="white"/>
</mask>
<g mask="url(#mask8_292_113700)">
<path d="M5.41211 24.9372H5.33398V13.9424H5.62044V24.7757C5.62044 24.8226 5.60482 24.859 5.59961 24.9007C5.53711 24.9163 5.47982 24.9372 5.41211 24.9372Z" fill="#314453"/>
</g>
<path d="M5.62044 13.943H5.33398V13.7607C5.43815 13.7764 5.53711 13.818 5.62044 13.8753V13.943Z" fill="#3D5566"/>
<path d="M5.62044 13.8747C5.53711 13.8174 5.43815 13.7757 5.33398 13.7601V13.6611H5.41211H5.41732C5.47982 13.6611 5.53711 13.6768 5.59961 13.6976C5.60482 13.7393 5.62044 13.7757 5.62044 13.8174V13.8747Z" fill="#486479"/>
<mask id="mask9_292_113700" style="mask-type:luminance" maskUnits="userSpaceOnUse" x="0" y="13" width="2" height="13">
<path d="M0 13.6094H1.33333V25.3698H0V13.6094Z" fill="white"/>
</mask>
<g mask="url(#mask9_292_113700)">
<path d="M0.837891 24.9378H0.759766C0.702475 24.9378 0.65039 24.9222 0.598307 24.9066C0.58789 24.8649 0.572266 24.8232 0.572266 24.7764V14.1045C0.645182 14.042 0.738933 13.9899 0.837891 13.9639V24.9378Z" fill="#6A8EA3"/>
</g>
<path d="M0.574219 14.1038V13.8174C0.574219 13.7965 0.579427 13.7757 0.584635 13.7549H0.589844H0.839844V13.9632C0.740886 13.9893 0.647135 14.0413 0.574219 14.1038Z" fill="#7AA7BF"/>
<path d="M0.583984 13.7549C0.589192 13.734 0.5944 13.7132 0.599609 13.6924C0.651692 13.6768 0.703777 13.6611 0.761068 13.6611H0.839193V13.7549H0.589193H0.583984Z" fill="#8ABED8"/>
<mask id="mask10_292_113700" style="mask-type:luminance" maskUnits="userSpaceOnUse" x="0" y="13" width="6" height="13">
<path d="M0.703125 13.1143H5.33333V25.3695H0.703125V13.1143Z" fill="white"/>
</mask>
<g mask="url(#mask10_292_113700)">
<path d="M5.28581 25.3691H0.884766C0.858724 25.3691 0.837891 25.3483 0.837891 25.3223V13.2754C0.837891 13.2493 0.858724 13.2285 0.884766 13.2285H5.28581C5.31185 13.2285 5.33268 13.2493 5.33268 13.2754V25.3223C5.33268 25.3483 5.31185 25.3691 5.28581 25.3691Z" fill="#3F586A"/>
<path d="M1.41602 25.3691C1.0931 25.3691 0.837891 25.1035 0.837891 24.7806C0.837891 24.9368 0.90039 25.0775 0.999349 25.1816C1.00976 25.1868 1.01497 25.1921 1.02018 25.2025C1.11914 25.3014 1.25976 25.3691 1.41602 25.3691ZM4.75456 25.3691C4.91081 25.3691 5.04622 25.3014 5.15039 25.2025C5.16081 25.1869 5.17643 25.1764 5.18685 25.1608H5.18164C5.23893 25.0931 5.2806 25.0098 5.30664 24.9212H1.12956V23.7754H3.51497C3.83789 23.7754 4.09831 23.5098 4.09831 23.1816V13.6608H5.04102C5.14518 13.6608 5.23372 13.6921 5.31706 13.7389C5.27539 13.4525 5.04622 13.2285 4.75456 13.2285C5.07747 13.2285 5.33268 13.4941 5.33268 13.8171V24.7754C5.33268 25.1035 5.07227 25.3691 4.75456 25.3691Z" fill="#374D5D"/>
</g>
<path d="M1.13151 23.7764H0.839844V13.818C0.839844 13.4951 1.10026 13.2295 1.42318 13.2295H4.10026V13.6618H1.72005C1.39714 13.6618 1.13151 13.9274 1.13151 14.2503V23.7764Z" fill="#527189"/>
<mask id="mask11_292_113700" style="mask-type:luminance" maskUnits="userSpaceOnUse" x="0" y="12" width="6" height="14">
<path d="M0 12.2764H5.33333V25.3701H0V12.2764Z" fill="white"/>
</mask>
<g mask="url(#mask11_292_113700)">
<path d="M0.999349 25.1826C0.90039 25.0784 0.837891 24.9378 0.837891 24.7816C0.837891 24.7816 0.837891 24.7816 0.837891 24.7764V23.7764H1.12956V24.9222H0.863932C0.884764 25.0107 0.931641 25.0941 0.983724 25.1618C0.988933 25.1722 0.994141 25.1774 0.999349 25.1826ZM5.31706 13.7399C5.23372 13.693 5.14518 13.6618 5.04102 13.6618H4.09831V13.2295H4.74935H4.75456C5.04622 13.2295 5.27539 13.4535 5.31706 13.7399Z" fill="#4B687D"/>
</g>
<mask id="mask12_292_113700" style="mask-type:luminance" maskUnits="userSpaceOnUse" x="1" y="25" width="1" height="1">
<path d="M1 25.1719H1.44792V25.3698H1V25.1719Z" fill="white"/>
</mask>
<g mask="url(#mask12_292_113700)">
<path d="M1.41732 25.3698C1.26107 25.3698 1.12044 25.3021 1.02148 25.2031C1.12565 25.3021 1.26107 25.3698 1.41732 25.3698Z" fill="#485C6C"/>
</g>
<mask id="mask13_292_113700" style="mask-type:luminance" maskUnits="userSpaceOnUse" x="1" y="24" width="5" height="2">
<path d="M1 24.8701H5.32292V25.3701H1V24.8701Z" fill="white"/>
</mask>
<g mask="url(#mask13_292_113700)">
<path d="M5.18294 25.1615H1.13086V24.9219H5.30794C5.2819 25.0104 5.24023 25.0938 5.18294 25.1615Z" fill="#485C6C"/>
</g>
<mask id="mask14_292_113700" style="mask-type:luminance" maskUnits="userSpaceOnUse" x="0" y="24" width="2" height="2">
<path d="M0 24.2764H1.33333V25.3701H0V24.2764Z" fill="white"/>
</mask>
<g mask="url(#mask14_292_113700)">
<path d="M1.13086 25.1615H0.985026C0.932943 25.0938 0.886066 25.0104 0.865234 24.9219H1.13086V25.1615Z" fill="#5A7789"/>
</g>
<mask id="mask15_292_113700" style="mask-type:luminance" maskUnits="userSpaceOnUse" x="1" y="25" width="5" height="1">
<path d="M1 25.0205H5.32292V25.3695H1V25.0205Z" fill="white"/>
</mask>
<g mask="url(#mask15_292_113700)">
<path d="M5.15104 25.2028C5.16146 25.1872 5.17187 25.1768 5.18229 25.1611H5.1875C5.17708 25.1768 5.16146 25.1872 5.15104 25.2028ZM1.02083 25.2028C1.01563 25.1924 1.01042 25.1872 1 25.182C1.00521 25.182 1.00521 25.1872 1.01042 25.1872C1.01563 25.1924 1.01563 25.1976 1.02083 25.2028Z" fill="#596D7A"/>
</g>
<mask id="mask16_292_113700" style="mask-type:luminance" maskUnits="userSpaceOnUse" x="0" y="24" width="2" height="2">
<path d="M0 24.2764H1.33333V25.3701H0V24.2764Z" fill="white"/>
</mask>
<g mask="url(#mask16_292_113700)">
<path d="M1.01042 25.1882C1.00521 25.1882 1.00521 25.1829 1 25.1829C0.994792 25.1777 0.989584 25.1725 0.984375 25.1621C0.994792 25.1725 1 25.1829 1.01042 25.1882Z" fill="#698493"/>
</g>
<mask id="mask17_292_113700" style="mask-type:luminance" maskUnits="userSpaceOnUse" x="1" y="25" width="5" height="1">
<path d="M1 25.0205H5.32292V25.3695H1V25.0205Z" fill="white"/>
</mask>
<g mask="url(#mask17_292_113700)">
<path d="M4.74935 25.3695H1.42122H1.41602C1.25976 25.3695 1.12435 25.3018 1.02018 25.2028C1.01497 25.1976 1.01497 25.1924 1.00977 25.1872C1.05143 25.2288 1.09831 25.2653 1.15039 25.2913C1.14518 25.2653 1.12956 25.2393 1.12956 25.208V25.1611H5.18164C5.17122 25.1768 5.16081 25.1872 5.15039 25.2028C5.04622 25.3018 4.91081 25.3695 4.75456 25.3695C4.74935 25.3695 4.74935 25.3695 4.74935 25.3695Z" fill="#677A87"/>
</g>
<mask id="mask18_292_113700" style="mask-type:luminance" maskUnits="userSpaceOnUse" x="0" y="24" width="2" height="2">
<path d="M0 24.2764H1.33333V25.3701H0V24.2764Z" fill="white"/>
</mask>
<g mask="url(#mask18_292_113700)">
<path d="M1.15104 25.2923C1.09896 25.2663 1.05208 25.2298 1.01042 25.1882C1 25.1829 0.994792 25.1725 0.984375 25.1621H1.13021V25.209C1.13021 25.2402 1.14583 25.2663 1.15104 25.2923Z" fill="#76909D"/>
</g>
<mask id="mask19_292_113700" style="mask-type:luminance" maskUnits="userSpaceOnUse" x="60" y="13" width="8" height="13">
<path d="M60 13.6094H67.3177V25.3698H60V13.6094Z" fill="white"/>
</mask>
<g mask="url(#mask19_292_113700)">
<path d="M67.11 24.9372H61.2663C61.235 24.9372 61.209 24.9111 61.209 24.8799V13.7132C61.209 13.682 61.235 13.6611 61.2663 13.6611H67.11C67.1413 13.6611 67.1673 13.682 67.1673 13.7132V24.8799C67.1673 24.9111 67.1413 24.9372 67.11 24.9372Z" fill="#567890"/>
</g>
<mask id="mask20_292_113700" style="mask-type:luminance" maskUnits="userSpaceOnUse" x="61" y="13" width="7" height="13">
<path d="M61.334 13.6094H67.3184V25.3698H61.334V13.6094Z" fill="white"/>
</mask>
<g mask="url(#mask20_292_113700)">
<path d="M66.7344 24.8955C66.8906 24.7757 67 24.5934 67 24.3747V14.4111C67 14.2288 66.9219 14.0622 66.8021 13.9424C66.9167 13.9528 67.0208 13.9997 67.1146 14.0622C67.0208 13.8434 66.8229 13.6872 66.5833 13.6611C66.9115 13.6976 67.1667 13.9736 67.1667 14.3174V24.2809C67.1667 24.5674 66.9844 24.8018 66.7344 24.8955Z" fill="#719FBB"/>
</g>
<mask id="mask21_292_113700" style="mask-type:luminance" maskUnits="userSpaceOnUse" x="60" y="13" width="8" height="13">
<path d="M60 13.6094H67.3177V25.3698H60V13.6094Z" fill="white"/>
</mask>
<g mask="url(#mask21_292_113700)">
<path d="M61.5111 24.8174C61.334 24.7028 61.209 24.5101 61.209 24.2809V14.3174C61.209 13.9528 61.5007 13.6611 61.86 13.6611C61.7142 13.6611 61.584 13.7184 61.4746 13.8018C61.5423 13.7757 61.61 13.7549 61.6882 13.7549C61.6829 13.7757 61.6777 13.7965 61.6777 13.8174V14.1038C61.5423 14.2236 61.459 14.4007 61.459 14.5986V24.5622C61.459 24.6559 61.4746 24.7393 61.5111 24.8174ZM66.8027 13.9424C66.7871 13.9424 66.7767 13.9424 66.7611 13.9424H66.7246V13.8747C66.7507 13.8955 66.7767 13.9163 66.8027 13.9424Z" fill="#6A94B0"/>
</g>
<mask id="mask22_292_113700" style="mask-type:luminance" maskUnits="userSpaceOnUse" x="61" y="13" width="7" height="2">
<path d="M61.334 13.6094H67.3184V14.9427H61.334V13.6094Z" fill="white"/>
</mask>
<g mask="url(#mask22_292_113700)">
<path d="M67.1152 14.0622C67.0215 13.9997 66.9173 13.9528 66.8027 13.9424C66.7767 13.9163 66.7507 13.8955 66.7246 13.8747V13.8174C66.7246 13.7757 66.709 13.7393 66.6986 13.6976C66.6413 13.6768 66.584 13.6611 66.5163 13.6611C66.5215 13.6611 66.5215 13.6611 66.5215 13.6611C66.5215 13.6611 66.5215 13.6611 66.5267 13.6611H66.5319H66.5371C66.5423 13.6611 66.5423 13.6611 66.5423 13.6611C66.5475 13.6611 66.5475 13.6611 66.5475 13.6611C66.5527 13.6611 66.5527 13.6611 66.5527 13.6611C66.5527 13.6611 66.5527 13.6611 66.5579 13.6611H66.5632H66.5684C66.5736 13.6611 66.5736 13.6611 66.5736 13.6611C66.5788 13.6611 66.5788 13.6611 66.584 13.6611C66.8236 13.6872 67.0215 13.8434 67.1152 14.0622ZM61.4746 13.8018C61.584 13.7184 61.7142 13.6611 61.86 13.6611C61.8027 13.6611 61.7559 13.6768 61.7038 13.6924C61.6986 13.7132 61.6934 13.734 61.6882 13.7549C61.61 13.7549 61.5423 13.7757 61.4746 13.8018Z" fill="#7CB0D0"/>
</g>
<mask id="mask23_292_113700" style="mask-type:luminance" maskUnits="userSpaceOnUse" x="65" y="13" width="3" height="13">
<path d="M65.334 13.6094H67.3184V25.3698H65.334V13.6094Z" fill="white"/>
</mask>
<g mask="url(#mask23_292_113700)">
<path d="M66.5156 24.9372H66.4375V13.9424H66.724V24.7757C66.724 24.8226 66.7083 24.859 66.6979 24.9007C66.6406 24.9163 66.5781 24.9372 66.5156 24.9372Z" fill="#314453"/>
</g>
<mask id="mask24_292_113700" style="mask-type:luminance" maskUnits="userSpaceOnUse" x="65" y="13" width="3" height="2">
<path d="M65.334 13.6094H67.3184V14.9427H65.334V13.6094Z" fill="white"/>
</mask>
<g mask="url(#mask24_292_113700)">
<path d="M66.724 13.9421H66.4375V13.7598C66.5417 13.7754 66.6406 13.8171 66.724 13.8743V13.9421Z" fill="#3D5566"/>
<path d="M66.724 13.8747C66.6406 13.8174 66.5417 13.7757 66.4375 13.7601V13.6611H66.5156C66.5833 13.6611 66.6406 13.6768 66.6979 13.6976C66.7083 13.7393 66.724 13.7757 66.724 13.8174V13.8747Z" fill="#486479"/>
</g>
<mask id="mask25_292_113700" style="mask-type:luminance" maskUnits="userSpaceOnUse" x="61" y="13" width="2" height="13">
<path d="M61.334 13.6094H62.6673V25.3698H61.334V13.6094Z" fill="white"/>
</mask>
<g mask="url(#mask25_292_113700)">
<path d="M61.9382 24.9378H61.86C61.8027 24.9378 61.7559 24.9222 61.7038 24.9066C61.6934 24.8649 61.6777 24.8232 61.6777 24.7764V14.1045C61.7507 14.042 61.8392 13.9899 61.9382 13.9639V24.9378Z" fill="#6A8EA3"/>
</g>
<path d="M61.6777 14.1038V13.8174C61.6777 13.7965 61.6829 13.7757 61.6882 13.7549H61.6934H61.9382V13.9632C61.8392 13.9893 61.7507 14.0413 61.6777 14.1038Z" fill="#7AA7BF"/>
<path d="M61.6875 13.7549C61.6927 13.734 61.6979 13.7132 61.7031 13.6924C61.7552 13.6768 61.8021 13.6611 61.8594 13.6611H61.9375V13.7549H61.6927H61.6875Z" fill="#8ABED8"/>
<mask id="mask26_292_113700" style="mask-type:luminance" maskUnits="userSpaceOnUse" x="61" y="13" width="6" height="13">
<path d="M61.8027 13.1143H66.5684V25.3695H61.8027V13.1143Z" fill="white"/>
</mask>
<g mask="url(#mask26_292_113700)">
<path d="M66.3854 25.3691H61.9896C61.9583 25.3691 61.9375 25.3483 61.9375 25.3223V13.2754C61.9375 13.2493 61.9583 13.2285 61.9896 13.2285H66.3854C66.4167 13.2285 66.4375 13.2493 66.4375 13.2754V25.3223C66.4375 25.3483 66.4167 25.3691 66.3854 25.3691Z" fill="#3F586A"/>
<path d="M62.5208 25.3691C62.1979 25.3691 61.9427 25.1035 61.9375 24.7806C61.9375 24.9368 62.0052 25.0775 62.1042 25.1816C62.1094 25.1868 62.1198 25.1973 62.125 25.2025C62.224 25.3014 62.3646 25.3691 62.5208 25.3691ZM65.8594 25.3691C66.0156 25.3691 66.151 25.3014 66.2552 25.1973C66.2656 25.1868 66.276 25.1764 66.2865 25.1608C66.3437 25.0931 66.3854 25.0098 66.4063 24.9212H62.2344V23.7754H64.6146C64.9375 23.7754 65.2031 23.5098 65.2031 23.1816V13.6608H66.1458C66.2448 13.6608 66.3385 13.6921 66.4219 13.7389C66.3802 13.4525 66.151 13.2285 65.8594 13.2285C66.1771 13.2285 66.4375 13.4941 66.4375 13.8171V24.7754C66.4375 25.1035 66.1771 25.3691 65.8594 25.3691Z" fill="#374D5D"/>
</g>
<path d="M62.2344 23.7764H61.9375V13.818C61.9375 13.4951 62.2031 13.2295 62.526 13.2295H65.2031V13.6618H62.8229C62.4948 13.6618 62.2344 13.9274 62.2344 14.2503V23.7764Z" fill="#527189"/>
<mask id="mask27_292_113700" style="mask-type:luminance" maskUnits="userSpaceOnUse" x="61" y="12" width="6" height="14">
<path d="M61.334 12.2764H66.6673V25.3701H61.334V12.2764Z" fill="white"/>
</mask>
<g mask="url(#mask27_292_113700)">
<path d="M62.1042 25.1826C62.0052 25.0784 61.9375 24.9378 61.9375 24.7816C61.9375 24.7816 61.9375 24.7816 61.9375 24.7764V23.7764H62.2344V24.9222H61.9688C61.9896 25.0107 62.0313 25.0941 62.0885 25.1618C62.0937 25.1722 62.099 25.1774 62.1042 25.1826ZM66.4219 13.7399C66.3385 13.693 66.2448 13.6618 66.1458 13.6618H65.2031V13.2295H65.849H65.8542C65.8542 13.2295 65.8542 13.2295 65.8594 13.2295C66.151 13.2295 66.3802 13.4535 66.4219 13.7399Z" fill="#4B687D"/>
</g>
<mask id="mask28_292_113700" style="mask-type:luminance" maskUnits="userSpaceOnUse" x="65" y="25" width="2" height="1">
<path d="M65.8242 25.1719H66.2721V25.3698H65.8242V25.1719Z" fill="white"/>
</mask>
<g mask="url(#mask28_292_113700)">
<path d="M65.8555 25.3701C66.0117 25.3701 66.1523 25.3024 66.2565 25.1982C66.1523 25.3024 66.0169 25.3701 65.8607 25.3701C65.8607 25.3701 65.8607 25.3701 65.8555 25.3701Z" fill="#485C6C"/>
</g>
<mask id="mask29_292_113700" style="mask-type:luminance" maskUnits="userSpaceOnUse" x="62" y="24" width="5" height="2">
<path d="M62.0996 24.8701H66.4225V25.3701H62.0996V24.8701Z" fill="white"/>
</mask>
<g mask="url(#mask29_292_113700)">
<path d="M62.5208 25.3698C62.3646 25.3698 62.224 25.3021 62.125 25.2031C62.2292 25.3021 62.3646 25.3698 62.5208 25.3698ZM66.2865 25.1615H62.2344V24.9219H66.4063C66.3854 25.0104 66.3437 25.0938 66.2865 25.1615Z" fill="#485C6C"/>
</g>
<mask id="mask30_292_113700" style="mask-type:luminance" maskUnits="userSpaceOnUse" x="61" y="24" width="2" height="2">
<path d="M61.334 24.2764H62.6673V25.3701H61.334V24.2764Z" fill="white"/>
</mask>
<g mask="url(#mask30_292_113700)">
<path d="M62.2344 25.1615H62.0885C62.0313 25.0938 61.9896 25.0104 61.9688 24.9219H62.2344V25.1615Z" fill="#5A7789"/>
</g>
<mask id="mask31_292_113700" style="mask-type:luminance" maskUnits="userSpaceOnUse" x="62" y="25" width="4" height="1">
<path d="M62.0996 25.1719H65.9746V25.3698H62.0996V25.1719Z" fill="white"/>
</mask>
<g mask="url(#mask31_292_113700)">
<path d="M62.1263 25.2035C62.1211 25.1982 62.1107 25.1878 62.1055 25.1826C62.1107 25.1878 62.1107 25.1878 62.1159 25.193C62.1159 25.193 62.1211 25.1982 62.1263 25.2035Z" fill="#596D7A"/>
</g>
<mask id="mask32_292_113700" style="mask-type:luminance" maskUnits="userSpaceOnUse" x="61" y="24" width="2" height="2">
<path d="M61.334 24.2764H62.6673V25.3701H61.334V24.2764Z" fill="white"/>
</mask>
<g mask="url(#mask32_292_113700)">
<path d="M62.1159 25.1934C62.1107 25.1882 62.1107 25.1882 62.1055 25.1829C62.1003 25.1777 62.0951 25.1725 62.0898 25.1621C62.1003 25.1725 62.1055 25.1829 62.1159 25.1934Z" fill="#698493"/>
</g>
<mask id="mask33_292_113700" style="mask-type:luminance" maskUnits="userSpaceOnUse" x="62" y="25" width="5" height="1">
<path d="M62.0996 25.0205H66.4225V25.3695H62.0996V25.0205Z" fill="white"/>
</mask>
<g mask="url(#mask33_292_113700)">
<path d="M65.8496 25.3695H62.5267C62.5267 25.3695 62.5267 25.3695 62.5215 25.3695C62.3652 25.3695 62.2298 25.3018 62.1257 25.2028C62.1204 25.1976 62.1152 25.1924 62.1152 25.1924C62.1569 25.2288 62.2038 25.2653 62.2507 25.2913C62.2454 25.2653 62.235 25.2393 62.235 25.208V25.1611H66.2871C66.2767 25.1768 66.2663 25.1872 66.2559 25.1976C66.1517 25.3018 66.0111 25.3695 65.8548 25.3695H65.8496Z" fill="#677A87"/>
</g>
<mask id="mask34_292_113700" style="mask-type:luminance" maskUnits="userSpaceOnUse" x="61" y="24" width="2" height="2">
<path d="M61.334 24.2764H62.6673V25.3701H61.334V24.2764Z" fill="white"/>
</mask>
<g mask="url(#mask34_292_113700)">
<path d="M62.2513 25.2923C62.2044 25.2663 62.1576 25.2298 62.1159 25.1934C62.1055 25.1829 62.1003 25.1725 62.0898 25.1621H62.2357V25.209C62.2357 25.2402 62.2461 25.2663 62.2513 25.2923Z" fill="#76909D"/>
</g>
<path d="M7.79688 20.833H6.0625V18.3955H7.79688V20.833ZM7.79688 14.7913H6.0625V14.5049H7.79688V14.7913Z" fill="#58788B"/>
<path d="M6.0625 14.5049H7.79688V14.3174H6.0625V14.5049Z" fill="#486172"/>
<path d="M7.79688 18.3962H6.0625V17.2451H7.79688V18.3962ZM7.79688 15.943H6.0625V14.792H7.79688V15.943Z" fill="#607E90"/>
<path d="M6.0625 17.2445H7.79688V15.9424H6.0625V17.2445Z" fill="#758E9B"/>
<path d="M6.0625 23.6143H7.79688V20.833H6.0625V23.6143Z" fill="#4A6980"/>
<path d="M6.0625 24.083H7.79688V23.6143H6.0625V24.083Z" fill="#607A8A"/>
<mask id="mask35_292_113700" style="mask-type:luminance" maskUnits="userSpaceOnUse" x="5" y="22" width="3" height="4">
<path d="M5.33398 22.9424H8.00065V25.3695H5.33398V22.9424Z" fill="white"/>
</mask>
<g mask="url(#mask35_292_113700)">
<path d="M6.0625 24.3122H7.79688V24.083H6.0625V24.3122Z" fill="#7F949E"/>
</g>
<path d="M61.2096 20.833H59.4805V18.3955H61.2096V20.833ZM61.2096 14.7913H59.4805V14.5049H61.2096V14.7913Z" fill="#58788B"/>
<path d="M59.4805 14.5049H61.2096V14.3174H59.4805V14.5049Z" fill="#486172"/>
<path d="M61.2096 18.3962H59.4805V17.2451H61.2096V18.3962ZM61.2096 15.943H59.4805V14.792H61.2096V15.943Z" fill="#607E90"/>
<path d="M59.4805 17.2445H61.2096V15.9424H59.4805V17.2445Z" fill="#758E9B"/>
<path d="M59.4805 23.6143H61.2096V20.833H59.4805V23.6143Z" fill="#4A6980"/>
<path d="M59.4805 24.083H61.2096V23.6143H59.4805V24.083Z" fill="#607A8A"/>
<mask id="mask36_292_113700" style="mask-type:luminance" maskUnits="userSpaceOnUse" x="58" y="22" width="4" height="4">
<path d="M58.668 22.9424H61.3346V25.3695H58.668V22.9424Z" fill="white"/>
</mask>
<g mask="url(#mask36_292_113700)">
<path d="M59.4805 24.3122H61.2096V24.083H59.4805V24.3122Z" fill="#7F949E"/>
</g>
<path d="M19.1309 14.5049H47.7871V14.2861H19.1309V14.5049Z" fill="#F03D32"/>
<mask id="mask37_292_113700" style="mask-type:luminance" maskUnits="userSpaceOnUse" x="17" y="13" width="6" height="13">
<path d="M17.334 13.6094H22.6673V25.3698H17.334V13.6094Z" fill="white"/>
</mask>
<g mask="url(#mask37_292_113700)">
<path d="M21.4271 24.9372H18.2604C18.2396 24.9372 18.2188 24.9215 18.2188 24.8955V13.7028C18.2188 13.6768 18.2396 13.6611 18.2604 13.6611H21.4271C21.4531 13.6611 21.4688 13.6768 21.4688 13.7028V24.8955C21.4688 24.9215 21.4531 24.9372 21.4271 24.9372Z" fill="#F47528"/>
<path d="M21.2337 24.8955C21.3171 24.7757 21.3796 24.5934 21.3796 24.3747V14.4111C21.3796 14.2288 21.3379 14.0622 21.2702 13.9424C21.3327 13.9528 21.39 13.9997 21.4421 14.0622C21.39 13.8382 21.2754 13.682 21.1452 13.6611C21.3275 13.6872 21.4681 13.9736 21.4681 14.3174V24.2809C21.4681 24.5674 21.3691 24.8018 21.2337 24.8955Z" fill="#F7974E"/>
</g>
<mask id="mask38_292_113700" style="mask-type:luminance" maskUnits="userSpaceOnUse" x="17" y="13" width="5" height="13">
<path d="M17.334 13.6094H21.334V25.3698H17.334V13.6094Z" fill="white"/>
</mask>
<g mask="url(#mask38_292_113700)">
<path d="M18.3802 24.8174C18.2865 24.7028 18.2188 24.5101 18.2188 24.2809V14.3174C18.2188 13.9528 18.3802 13.6611 18.5729 13.6611C18.4948 13.6611 18.4271 13.7184 18.3646 13.8018C18.401 13.7757 18.4375 13.7549 18.4792 13.7549C18.474 13.7757 18.474 13.7965 18.474 13.8174V14.1038C18.401 14.2236 18.3542 14.4007 18.3542 14.5986V24.5622C18.3542 24.6559 18.3646 24.7393 18.3802 24.8174ZM21.2708 13.9424C21.2656 13.9424 21.2552 13.9424 21.25 13.9424H21.2292V13.8747C21.2448 13.8955 21.2604 13.9163 21.2708 13.9424Z" fill="#F7974E"/>
</g>
<path d="M21.4434 14.0622C21.3913 13.9997 21.334 13.9528 21.2715 13.9424C21.2611 13.9163 21.2454 13.8955 21.2298 13.8747V13.8174C21.2298 13.7757 21.2194 13.7393 21.2142 13.6976C21.1829 13.6768 21.1517 13.6611 21.1152 13.6611C21.1204 13.6611 21.1204 13.6611 21.1204 13.6611H21.1257C21.1309 13.6611 21.1309 13.6611 21.1309 13.6611C21.1309 13.6611 21.1309 13.6611 21.1361 13.6611C21.1413 13.6611 21.1413 13.6611 21.1413 13.6611C21.1413 13.6611 21.1413 13.6611 21.1465 13.6611C21.2767 13.682 21.3913 13.8382 21.4434 14.0622ZM18.3652 13.8018C18.4277 13.7184 18.4954 13.6611 18.5736 13.6611C18.5423 13.6611 18.5163 13.6768 18.4902 13.6924C18.485 13.7132 18.485 13.734 18.4798 13.7549C18.4382 13.7549 18.4017 13.7757 18.3652 13.8018Z" fill="#FAB36F"/>
<mask id="mask39_292_113700" style="mask-type:luminance" maskUnits="userSpaceOnUse" x="20" y="13" width="2" height="13">
<path d="M20 13.6094H21.3333V25.3698H20V13.6094Z" fill="white"/>
</mask>
<g mask="url(#mask39_292_113700)">
<path d="M21.1139 24.9372H21.0723V13.9424H21.2285V24.7757C21.2285 24.8226 21.2181 24.859 21.2129 24.9007C21.1816 24.9163 21.1504 24.9372 21.1139 24.9372Z" fill="#F2512A"/>
</g>
<path d="M21.2305 13.943H21.0742V13.7607C21.1315 13.7764 21.1836 13.818 21.2305 13.8753V13.943Z" fill="#F36440"/>
<path d="M21.2305 13.8747C21.1836 13.8174 21.1315 13.7757 21.0742 13.7601V13.6611H21.1159C21.1523 13.6611 21.1836 13.6768 21.2148 13.6976C21.2201 13.7393 21.2305 13.7757 21.2305 13.8174V13.8747Z" fill="#F47154"/>
<mask id="mask40_292_113700" style="mask-type:luminance" maskUnits="userSpaceOnUse" x="17" y="13" width="2" height="13">
<path d="M17.334 13.6094H18.6673V25.3698H17.334V13.6094Z" fill="white"/>
</mask>
<g mask="url(#mask40_292_113700)">
<path d="M18.6204 24.9378H18.5736C18.5423 24.9378 18.5163 24.9222 18.4902 24.9066C18.485 24.8649 18.4746 24.8232 18.4746 24.7764V14.1045C18.5163 14.042 18.5632 13.9899 18.6204 13.9639V24.9378Z" fill="#F2512A"/>
</g>
<path d="M18.4746 14.1038V13.8174C18.4746 13.7965 18.4746 13.7757 18.4798 13.7549H18.485H18.6204V13.9632C18.5632 13.9893 18.5163 14.0413 18.4746 14.1038Z" fill="#F36440"/>
<path d="M18.4805 13.7549C18.4857 13.734 18.4857 13.7132 18.4909 13.6924C18.5169 13.6768 18.543 13.6611 18.5742 13.6611H18.6211V13.7549H18.4857H18.4805Z" fill="#F47154"/>
<mask id="mask41_292_113700" style="mask-type:luminance" maskUnits="userSpaceOnUse" x="18" y="13" width="4" height="13">
<path d="M18.584 13.1143H21.1204V25.3695H18.584V13.1143Z" fill="white"/>
</mask>
<g mask="url(#mask41_292_113700)">
<path d="M21.0378 25.3691H18.6576C18.6367 25.3691 18.6211 25.3535 18.6211 25.3327V13.265C18.6211 13.2441 18.6367 13.2285 18.6576 13.2285H21.0378C21.0586 13.2285 21.0742 13.2441 21.0742 13.265V25.3327C21.0742 25.3535 21.0586 25.3691 21.0378 25.3691Z" fill="#F47528"/>
<path d="M20.7565 25.3691C20.8398 25.3691 20.918 25.3066 20.9701 25.2025C20.9805 25.1869 20.9857 25.1764 20.9909 25.1608C21.0221 25.0931 21.043 25.0098 21.0586 24.9212H18.7826V23.7754H20.0794C20.2565 23.7754 20.3971 23.5098 20.3971 23.1816V13.6608H20.9128C20.9701 13.6608 21.0169 13.6921 21.0638 13.7389C21.043 13.4525 20.918 13.2285 20.7565 13.2285C20.9336 13.2285 21.0742 13.4941 21.0742 13.8171V24.7754C21.0742 25.1035 20.9336 25.3691 20.7565 25.3691ZM18.9336 25.3691C18.7617 25.3691 18.6211 25.1035 18.6211 24.7806C18.6211 24.9421 18.6576 25.0827 18.7096 25.1868C18.7148 25.1868 18.7148 25.1921 18.7201 25.1973C18.7721 25.3014 18.8503 25.3691 18.9336 25.3691Z" fill="#F2512A"/>
</g>
<path d="M18.7826 23.7764H18.6211V13.818C18.6211 13.4951 18.7617 13.2295 18.9388 13.2295H20.3971V13.6618H19.1003C18.9232 13.6618 18.7826 13.9274 18.7826 14.2503V23.7764Z" fill="#F7974E"/>
<mask id="mask42_292_113700" style="mask-type:luminance" maskUnits="userSpaceOnUse" x="17" y="12" width="5" height="14">
<path d="M17.334 12.2764H21.334V25.3701H17.334V12.2764Z" fill="white"/>
</mask>
<g mask="url(#mask42_292_113700)">
<path d="M18.7096 25.1878C18.6576 25.0837 18.6211 24.943 18.6211 24.7816C18.6211 24.7816 18.6211 24.7816 18.6211 24.7764V23.7764H18.7826V24.9222H18.6367C18.6471 25.0107 18.668 25.0941 18.6992 25.1618C18.7044 25.1722 18.7096 25.1774 18.7096 25.1878ZM21.0638 13.7399C21.0169 13.693 20.9701 13.6618 20.9128 13.6618H20.3971V13.2295H20.7513C20.7565 13.2295 20.7565 13.2295 20.7565 13.2295C20.918 13.2295 21.043 13.4535 21.0638 13.7399Z" fill="#F5794D"/>
</g>
<mask id="mask43_292_113700" style="mask-type:luminance" maskUnits="userSpaceOnUse" x="20" y="25" width="2" height="1">
<path d="M20.6719 25.1719H21.1198V25.3698H20.6719V25.1719Z" fill="white"/>
</mask>
<g mask="url(#mask43_292_113700)">
<path d="M20.7559 25.3698C20.8392 25.3698 20.9173 25.3021 20.9694 25.2031C20.9173 25.3073 20.8392 25.3698 20.7559 25.3698Z" fill="#F35E35"/>
</g>
<mask id="mask44_292_113700" style="mask-type:luminance" maskUnits="userSpaceOnUse" x="18" y="24" width="4" height="2">
<path d="M18.668 24.8701H21.1211V25.3701H18.668V24.8701Z" fill="white"/>
</mask>
<g mask="url(#mask44_292_113700)">
<path d="M18.9395 25.3698C18.9342 25.3698 18.9342 25.3698 18.9342 25.3698C18.8509 25.3698 18.7728 25.3021 18.7207 25.1979C18.778 25.3021 18.8509 25.3698 18.9395 25.3698ZM20.9915 25.1615H18.7832V24.9219H21.0592C21.0436 25.0104 21.0228 25.0938 20.9915 25.1615Z" fill="#F35E35"/>
</g>
<mask id="mask45_292_113700" style="mask-type:luminance" maskUnits="userSpaceOnUse" x="17" y="24" width="3" height="2">
<path d="M17.334 24.2764H20.0007V25.3701H17.334V24.2764Z" fill="white"/>
</mask>
<g mask="url(#mask45_292_113700)">
<path d="M18.7826 25.1615H18.6992C18.668 25.0938 18.6471 25.0104 18.6367 24.9219H18.7826V25.1615Z" fill="#F6835A"/>
</g>
<mask id="mask46_292_113700" style="mask-type:luminance" maskUnits="userSpaceOnUse" x="18" y="25" width="4" height="1">
<path d="M18.668 25.0205H21.1211V25.3695H18.668V25.0205Z" fill="white"/>
</mask>
<g mask="url(#mask46_292_113700)">
<path d="M18.7194 25.1976C18.7142 25.1924 18.7142 25.1872 18.709 25.1872C18.7142 25.1872 18.7142 25.1872 18.7142 25.1924C18.7142 25.1924 18.7142 25.1976 18.7194 25.1976Z" fill="#F46944"/>
</g>
<mask id="mask47_292_113700" style="mask-type:luminance" maskUnits="userSpaceOnUse" x="18" y="24" width="3" height="2">
<path d="M18.668 24.2764H20.0013V25.3701H18.668V24.2764Z" fill="white"/>
</mask>
<g mask="url(#mask47_292_113700)">
<path d="M18.7148 25.1934C18.7148 25.1882 18.7148 25.1882 18.7096 25.1882C18.7096 25.1777 18.7044 25.1725 18.6992 25.1621C18.7044 25.1725 18.7096 25.1829 18.7148 25.1934Z" fill="#F78E67"/>
</g>
<mask id="mask48_292_113700" style="mask-type:luminance" maskUnits="userSpaceOnUse" x="18" y="25" width="4" height="1">
<path d="M18.668 25.0205H21.1211V25.3695H18.668V25.0205Z" fill="white"/>
</mask>
<g mask="url(#mask48_292_113700)">
<path d="M20.7513 25.3695H18.9388C18.8503 25.3695 18.7773 25.3018 18.7201 25.1976C18.7148 25.1976 18.7148 25.1924 18.7148 25.1924C18.7357 25.2288 18.7617 25.2653 18.7878 25.2913C18.7878 25.2653 18.7826 25.2393 18.7826 25.208V25.1611H20.9909C20.9857 25.1768 20.9805 25.1872 20.9701 25.2028C20.918 25.3018 20.8398 25.3695 20.7565 25.3695C20.7565 25.3695 20.7565 25.3695 20.7513 25.3695Z" fill="#F57450"/>
</g>
<mask id="mask49_292_113700" style="mask-type:luminance" maskUnits="userSpaceOnUse" x="18" y="24" width="3" height="2">
<path d="M18.668 24.2764H20.0013V25.3701H18.668V24.2764Z" fill="white"/>
</mask>
<g mask="url(#mask49_292_113700)">
<path d="M18.7878 25.2923C18.7617 25.2663 18.7357 25.2298 18.7148 25.1934C18.7096 25.1829 18.7044 25.1725 18.6992 25.1621H18.7826V25.209C18.7826 25.2402 18.7878 25.2663 18.7878 25.2923Z" fill="#F79775"/>
</g>
<path d="M22.4948 20.833H21.4688V18.3955H22.4948V20.833ZM22.4948 14.7913H21.4688V14.5049H22.4948V14.7913Z" fill="#F14A29"/>
<path d="M22.4948 18.3962H21.4688V17.2451H22.4948V18.3962ZM22.4948 15.943H21.4688V14.792H22.4948V15.943Z" fill="#F25332"/>
<path d="M21.4688 17.2445H22.4948V15.9424H21.4688V17.2445Z" fill="#F06954"/>
<path d="M21.4688 23.6143H22.4948V20.833H21.4688V23.6143Z" fill="#F03A2B"/>
<path d="M21.4688 24.083H22.4948V23.6143H21.4688V24.083Z" fill="#F14B3B"/>
<mask id="mask50_292_113700" style="mask-type:luminance" maskUnits="userSpaceOnUse" x="21" y="22" width="2" height="4">
<path d="M21.334 22.9424H22.6673V25.3695H21.334V22.9424Z" fill="white"/>
</mask>
<g mask="url(#mask50_292_113700)">
<path d="M21.4688 24.3122H22.4948V24.083H21.4688V24.3122Z" fill="#EB6F68"/>
</g>
<path d="M21.4688 14.5049H22.4948V14.3174H21.4688V14.5049Z" fill="#EF312D"/>
<path d="M46.4805 20.833H45.7148V18.3955H46.4805V20.833ZM46.4805 14.7913H45.7148V14.5049H46.4805V14.7913Z" fill="#F14A29"/>
<path d="M46.4805 18.3962H45.7148V17.2451H46.4805V18.3962ZM46.4805 15.943H45.7148V14.792H46.4805V15.943Z" fill="#F25332"/>
<path d="M45.7148 17.2445H46.4805V15.9424H45.7148V17.2445Z" fill="#F06954"/>
<path d="M45.7148 23.6143H46.4805V20.833H45.7148V23.6143Z" fill="#F03A2B"/>
<path d="M45.7148 24.083H46.4805V23.6143H45.7148V24.083Z" fill="#F14B3B"/>
<mask id="mask51_292_113700" style="mask-type:luminance" maskUnits="userSpaceOnUse" x="45" y="22" width="2" height="4">
<path d="M45.334 22.9424H46.6673V25.3695H45.334V22.9424Z" fill="white"/>
</mask>
<g mask="url(#mask51_292_113700)">
<path d="M45.7148 24.3122H46.4805V24.083H45.7148V24.3122Z" fill="#EB6F68"/>
</g>
<path d="M45.7148 14.5049H46.4805V14.3174H45.7148V14.5049Z" fill="#EF312D"/>
<mask id="mask52_292_113700" style="mask-type:luminance" maskUnits="userSpaceOnUse" x="45" y="13" width="6" height="13">
<path d="M45.334 13.6094H50.6673V25.3698H45.334V13.6094Z" fill="white"/>
</mask>
<g mask="url(#mask52_292_113700)">
<path d="M49.6888 24.9372H46.5221C46.5013 24.9372 46.4805 24.9215 46.4805 24.8955V13.7028C46.4805 13.6768 46.5013 13.6611 46.5221 13.6611H49.6888C49.7148 13.6611 49.7305 13.6768 49.7305 13.7028V24.8955C49.7305 24.9215 49.7148 24.9372 49.6888 24.9372Z" fill="#F47528"/>
</g>
<mask id="mask53_292_113700" style="mask-type:luminance" maskUnits="userSpaceOnUse" x="46" y="13" width="5" height="13">
<path d="M46.668 13.6094H50.668V25.3698H46.668V13.6094Z" fill="white"/>
</mask>
<g mask="url(#mask53_292_113700)">
<path d="M49.4954 24.8955C49.5788 24.7757 49.6413 24.5934 49.6413 24.3747V14.4111C49.6413 14.2288 49.5996 14.0622 49.5319 13.9424C49.5944 13.9528 49.6517 13.9997 49.7038 14.0622C49.6517 13.833 49.5319 13.6716 49.3913 13.6611C49.5788 13.6768 49.7298 13.9632 49.7298 14.3174V24.2809C49.7298 24.5674 49.6309 24.8018 49.4954 24.8955Z" fill="#F7974E"/>
</g>
<mask id="mask54_292_113700" style="mask-type:luminance" maskUnits="userSpaceOnUse" x="45" y="13" width="3" height="13">
<path d="M45.334 13.6094H48.0007V25.3698H45.334V13.6094Z" fill="white"/>
</mask>
<g mask="url(#mask54_292_113700)">
<path d="M46.6419 24.8174C46.5482 24.7028 46.4805 24.5101 46.4805 24.2809V14.3174C46.4805 13.9528 46.6367 13.6611 46.8346 13.6611C46.7565 13.6611 46.6836 13.7184 46.6263 13.8018C46.6628 13.7757 46.6992 13.7549 46.7409 13.7549C46.7357 13.7757 46.7357 13.7965 46.7357 13.8174V14.1038C46.6628 14.2236 46.6159 14.4007 46.6159 14.5986V24.5622C46.6159 24.6559 46.6263 24.7393 46.6419 24.8174Z" fill="#F7974E"/>
</g>
<path d="M46.625 13.8018C46.6823 13.7184 46.7552 13.6611 46.8333 13.6611C46.8021 13.6611 46.776 13.6768 46.75 13.6924C46.7448 13.7132 46.7396 13.734 46.7396 13.7549C46.6979 13.7549 46.6615 13.7757 46.625 13.8018Z" fill="#FAB36F"/>
<path d="M49.5319 13.9427C49.5267 13.9427 49.5163 13.9427 49.5111 13.9427H49.4902V13.875C49.5059 13.8958 49.5163 13.9167 49.5319 13.9427Z" fill="#F7974E"/>
<path d="M49.7031 14.0622C49.651 13.9997 49.5937 13.9528 49.5313 13.9424C49.5156 13.9163 49.5052 13.8955 49.4896 13.8747V13.8174C49.4896 13.7757 49.4792 13.7393 49.474 13.6976C49.4427 13.6768 49.4115 13.6611 49.375 13.6611H49.3802C49.3802 13.6611 49.3802 13.6611 49.3854 13.6611C49.3906 13.6611 49.3906 13.6611 49.3906 13.6611C49.5313 13.6716 49.651 13.833 49.7031 14.0622Z" fill="#FAB36F"/>
<mask id="mask55_292_113700" style="mask-type:luminance" maskUnits="userSpaceOnUse" x="49" y="13" width="2" height="13">
<path d="M49.334 13.6094H50.6673V25.3698H49.334V13.6094Z" fill="white"/>
</mask>
<g mask="url(#mask55_292_113700)">
<path d="M49.3757 24.9372H49.334V13.9424H49.4902V24.7757C49.4902 24.8226 49.4798 24.859 49.4746 24.9007C49.4434 24.9163 49.4121 24.9372 49.3757 24.9372Z" fill="#F2512A"/>
</g>
<path d="M49.4902 13.943H49.334V13.7607C49.3913 13.7764 49.4434 13.818 49.4902 13.8753V13.943Z" fill="#F36440"/>
<path d="M49.4902 13.8747C49.4434 13.8174 49.3913 13.7757 49.334 13.7601V13.6611H49.3757C49.4121 13.6611 49.4434 13.6768 49.4746 13.6976C49.4798 13.7393 49.4902 13.7757 49.4902 13.8174V13.8747Z" fill="#F47154"/>
<mask id="mask56_292_113700" style="mask-type:luminance" maskUnits="userSpaceOnUse" x="46" y="13" width="3" height="13">
<path d="M46.668 13.6094H48.0013V25.3698H46.668V13.6094Z" fill="white"/>
</mask>
<g mask="url(#mask56_292_113700)">
<path d="M46.877 24.9378H46.8353C46.804 24.9378 46.778 24.9222 46.752 24.9066C46.7467 24.8649 46.7363 24.8232 46.7363 24.7764V14.1045C46.778 14.042 46.8249 13.9899 46.877 13.9639V24.9378Z" fill="#F2512A"/>
</g>
<path d="M46.7344 14.1038V13.8174C46.7344 13.7965 46.7344 13.7757 46.7396 13.7549C46.7396 13.7549 46.7396 13.7549 46.7448 13.7549H46.875V13.9632C46.8229 13.9893 46.776 14.0413 46.7344 14.1038Z" fill="#F36440"/>
<path d="M46.7402 13.7549C46.7402 13.734 46.7454 13.7132 46.7507 13.6924C46.7767 13.6768 46.8027 13.6611 46.834 13.6611H46.8757V13.7549H46.7454C46.7402 13.7549 46.7402 13.7549 46.7402 13.7549Z" fill="#F47154"/>
<mask id="mask57_292_113700" style="mask-type:luminance" maskUnits="userSpaceOnUse" x="46" y="13" width="4" height="13">
<path d="M46.75 13.1143H49.3333V25.3695H46.75V13.1143Z" fill="white"/>
</mask>
<g mask="url(#mask57_292_113700)">
<path d="M49.2969 25.3691H46.9167C46.8958 25.3691 46.875 25.3535 46.875 25.3327V13.265C46.875 13.2441 46.8958 13.2285 46.9167 13.2285H49.2969C49.3177 13.2285 49.3333 13.2441 49.3333 13.265V25.3327C49.3333 25.3535 49.3177 25.3691 49.2969 25.3691Z" fill="#F47528"/>
<path d="M49.0156 25.3691C49.099 25.3691 49.1771 25.3014 49.2292 25.1973C49.2396 25.1868 49.2448 25.1764 49.25 25.1608C49.2813 25.0931 49.3021 25.0098 49.3177 24.9212H47.0365V23.7754H48.3385C48.5156 23.7754 48.6563 23.5098 48.6563 23.1816V13.6608H49.1719C49.2292 13.6608 49.276 13.6921 49.3229 13.7389C49.3021 13.4525 49.1771 13.2285 49.0156 13.2285C49.1927 13.2285 49.3333 13.4941 49.3333 13.8171V24.7754C49.3333 25.1035 49.1927 25.3691 49.0156 25.3691ZM47.1927 25.3691C47.0208 25.3691 46.8802 25.1035 46.875 24.7806C46.875 24.9421 46.9115 25.0827 46.9688 25.1868C46.974 25.1868 46.974 25.1921 46.974 25.1973C47.0313 25.3014 47.1094 25.3691 47.1927 25.3691Z" fill="#F2512A"/>
</g>
<path d="M47.0365 23.7764H46.875V13.818C46.875 13.4951 47.0208 13.2295 47.1979 13.2295H48.6563V13.6618H47.3594C47.1823 13.6618 47.0365 13.9274 47.0365 14.2503V23.7764Z" fill="#F7974E"/>
<mask id="mask58_292_113700" style="mask-type:luminance" maskUnits="userSpaceOnUse" x="46" y="12" width="4" height="14">
<path d="M46.668 12.2764H49.3346V25.3701H46.668V12.2764Z" fill="white"/>
</mask>
<g mask="url(#mask58_292_113700)">
<path d="M46.9707 25.1878C46.9134 25.0837 46.877 24.943 46.877 24.7816C46.877 24.7816 46.877 24.7816 46.877 24.7764V23.7764H47.0384V24.9222H46.8926C46.9082 25.0107 46.929 25.0941 46.9603 25.1618C46.9655 25.1722 46.9655 25.1774 46.9707 25.1878ZM49.3249 13.7399C49.278 13.693 49.2311 13.6618 49.1738 13.6618H48.6582V13.2295H49.0124C49.0124 13.2295 49.0124 13.2295 49.0176 13.2295C49.179 13.2295 49.304 13.4535 49.3249 13.7399Z" fill="#F5794D"/>
</g>
<mask id="mask59_292_113700" style="mask-type:luminance" maskUnits="userSpaceOnUse" x="46" y="24" width="4" height="2">
<path d="M46.9023 24.8701H49.3346V25.3701H46.9023V24.8701Z" fill="white"/>
</mask>
<g mask="url(#mask59_292_113700)">
<path d="M49.2507 25.1615H47.0371V24.9219H49.3184C49.3027 25.0104 49.2819 25.0938 49.2507 25.1615Z" fill="#F35E35"/>
</g>
<mask id="mask60_292_113700" style="mask-type:luminance" maskUnits="userSpaceOnUse" x="46" y="24" width="3" height="2">
<path d="M46.668 24.2764H48.0013V25.3701H46.668V24.2764Z" fill="white"/>
</mask>
<g mask="url(#mask60_292_113700)">
<path d="M47.0384 25.1615H46.9603C46.929 25.0938 46.9082 25.0104 46.8926 24.9219H47.0384V25.1615Z" fill="#F6835A"/>
</g>
<mask id="mask61_292_113700" style="mask-type:luminance" maskUnits="userSpaceOnUse" x="46" y="25" width="4" height="1">
<path d="M46.9023 25.0205H49.2826V25.3695H46.9023V25.0205Z" fill="white"/>
</mask>
<g mask="url(#mask61_292_113700)">
<path d="M46.9759 25.1976C46.9759 25.1924 46.9759 25.1872 46.9707 25.1872C46.9707 25.1872 46.9759 25.1872 46.9759 25.1924C46.9759 25.1924 46.9759 25.1924 46.9759 25.1976Z" fill="#F46944"/>
</g>
<mask id="mask62_292_113700" style="mask-type:luminance" maskUnits="userSpaceOnUse" x="46" y="24" width="3" height="2">
<path d="M46.668 24.2764H48.0013V25.3701H46.668V24.2764Z" fill="white"/>
</mask>
<g mask="url(#mask62_292_113700)">
<path d="M46.9746 25.1934C46.9746 25.1882 46.9694 25.1882 46.9694 25.1882C46.9642 25.1777 46.9642 25.1725 46.959 25.1621C46.9642 25.1725 46.9694 25.1829 46.9746 25.1934Z" fill="#F78E67"/>
</g>
<mask id="mask63_292_113700" style="mask-type:luminance" maskUnits="userSpaceOnUse" x="46" y="25" width="4" height="1">
<path d="M46.9023 25.0205H49.2826V25.3695H46.9023V25.0205Z" fill="white"/>
</mask>
<g mask="url(#mask63_292_113700)">
<path d="M49.0111 25.3695H47.1986C47.1934 25.3695 47.1934 25.3695 47.1934 25.3695C47.11 25.3695 47.0319 25.3018 46.9746 25.1976C46.9746 25.1924 46.9746 25.1924 46.9746 25.1924C46.9954 25.2288 47.0215 25.2653 47.0475 25.2913C47.0475 25.2653 47.0371 25.2393 47.0371 25.208V25.1611H49.2507C49.2454 25.1768 49.2402 25.1872 49.2298 25.1976C49.1777 25.3018 49.0996 25.3695 49.0163 25.3695C49.0111 25.3695 49.0111 25.3695 49.0111 25.3695Z" fill="#F57450"/>
</g>
<mask id="mask64_292_113700" style="mask-type:luminance" maskUnits="userSpaceOnUse" x="46" y="24" width="3" height="2">
<path d="M46.668 24.2764H48.0013V25.3701H46.668V24.2764Z" fill="white"/>
</mask>
<g mask="url(#mask64_292_113700)">
<path d="M47.0475 25.2923C47.0215 25.2663 46.9954 25.2298 46.9746 25.1934C46.9694 25.1829 46.9642 25.1725 46.959 25.1621H47.0371V25.209C47.0371 25.2402 47.0475 25.2663 47.0475 25.2923Z" fill="#F79775"/>
</g>
<path d="M50.7148 20.833H49.7305V18.3955H50.7148V20.833ZM50.7148 14.7913H49.7305V14.5049H50.7148V14.7913Z" fill="#58788B"/>
<path d="M49.7305 14.5049H50.7148V14.2861H49.7305V14.5049Z" fill="#486172"/>
<path d="M50.7148 18.3962H49.7305V17.2451H50.7148V18.3962ZM50.7148 15.943H49.7305V14.792H50.7148V15.943Z" fill="#607E90"/>
<path d="M49.7305 17.2445H50.7148V15.9424H49.7305V17.2445Z" fill="#758E9B"/>
<path d="M49.7305 23.6143H50.7148V20.833H49.7305V23.6143Z" fill="#4A6980"/>
<path d="M49.7305 24.083H50.7148V23.6143H49.7305V24.083Z" fill="#607A8A"/>
<mask id="mask65_292_113700" style="mask-type:luminance" maskUnits="userSpaceOnUse" x="49" y="22" width="3" height="4">
<path d="M49.334 22.9424H52.0007V25.3695H49.334V22.9424Z" fill="white"/>
</mask>
<g mask="url(#mask65_292_113700)">
<path d="M49.7305 24.3122H50.7148V24.083H49.7305V24.3122Z" fill="#7F949E"/>
</g>
<path d="M18.2188 20.833H17.2344V18.3955H18.2188V20.833ZM18.2188 14.7913H17.2344V14.5049H18.2188V14.7913Z" fill="#58788B"/>
<path d="M17.2344 14.5049H18.2188V14.2861H17.2344V14.5049Z" fill="#486172"/>
<path d="M18.2188 18.3962H17.2344V17.2451H18.2188V18.3962ZM18.2188 15.943H17.2344V14.792H18.2188V15.943Z" fill="#607E90"/>
<path d="M17.2344 17.2445H18.2188V15.9424H17.2344V17.2445Z" fill="#758E9B"/>
<path d="M17.2344 23.6143H18.2188V20.833H17.2344V23.6143Z" fill="#4A6980"/>
<path d="M17.2344 24.083H18.2188V23.6143H17.2344V24.083Z" fill="#607A8A"/>
<mask id="mask66_292_113700" style="mask-type:luminance" maskUnits="userSpaceOnUse" x="16" y="22" width="3" height="4">
<path d="M16 22.9424H18.6667V25.3695H16V22.9424Z" fill="white"/>
</mask>
<g mask="url(#mask66_292_113700)">
<path d="M17.2344 24.3122H18.2188V24.083H17.2344V24.3122Z" fill="#7F949E"/>
</g>
<path d="M38.0065 14.0205H28.9128C28.8242 14.0205 28.7461 13.9893 28.668 13.9736V13.6455H38.2513V13.9736C38.1732 13.9893 38.0951 14.0205 38.0065 14.0205Z" fill="#F2512E"/>
<path d="M39.0781 13.6458H27.8385C27.7813 13.6458 27.7344 13.6042 27.7344 13.5469V11.0885C27.7344 11.0312 27.7813 10.9844 27.8385 10.9844H39.0781C39.1354 10.9844 39.1823 11.0312 39.1823 11.0885V13.5469C39.1823 13.6042 39.1354 13.6458 39.0781 13.6458Z" fill="#F47528"/>
<path d="M38.0052 13.6455H28.9115C28.2656 13.6455 27.7344 13.1143 27.7344 12.458C27.7344 13.083 28.2135 13.5934 28.8177 13.6403L28.8229 13.6455C28.8542 13.6455 28.8802 13.6455 28.9115 13.6455H38.0052C38.6458 13.6455 39.1615 13.1247 39.1771 12.484C39.1771 12.4736 39.1823 12.4684 39.1823 12.458C39.1823 13.1143 38.651 13.6455 38.0052 13.6455ZM39.1719 12.484H38.9375C39.0104 12.3851 39.0625 12.2705 39.1042 12.1455C39.1406 12.2549 39.1615 12.3643 39.1719 12.484ZM27.9792 12.484H27.8073C27.7969 12.432 27.7969 12.3747 27.7969 12.3174V12.2028C27.8021 12.1872 27.8073 12.1663 27.8125 12.1455C27.8542 12.2705 27.9063 12.3851 27.9792 12.484Z" fill="#F3622B"/>
<path d="M28.8177 13.6406C28.2135 13.5937 27.7344 13.0833 27.7344 12.4583C27.7344 12.4687 27.7396 12.474 27.7448 12.4844C27.7552 13.0937 28.224 13.5937 28.8177 13.6406ZM27.8073 12.4844H27.7448C27.75 12.3854 27.7708 12.2917 27.7969 12.2031V12.3177C27.7969 12.375 27.7969 12.4323 27.8073 12.4844Z" fill="#F6835F"/>
<path d="M38.9323 8.4528H27.8229C27.8177 8.43197 27.8073 8.41634 27.8021 8.40072C27.6094 7.81217 27.4844 7.19759 27.4844 6.54655C27.4844 5.36947 27.8229 4.27051 28.401 3.34863C27.8698 4.24446 27.5677 5.29134 27.5677 6.41113C27.5677 7.08301 27.6979 7.71322 27.901 8.31738H38.974C38.9635 8.35905 38.9479 8.40592 38.9323 8.4528Z" fill="#F3622B"/>
<path d="M27.8236 8.45345H27.8184C27.8132 8.43262 27.8079 8.41699 27.8027 8.40137C27.8079 8.41699 27.8184 8.43262 27.8236 8.45345Z" fill="#F2542E"/>
<path d="M33.459 0.453125C30.2038 0.453125 27.5684 3.11979 27.5684 6.41146C27.5684 7.08333 27.6986 7.71354 27.9017 8.31771H39.0163C39.2142 7.71354 39.3496 7.08333 39.3496 6.41146C39.3496 3.11979 36.7142 0.453125 33.459 0.453125Z" fill="#FBC670"/>
<path d="M38.3594 8.06217H28.3073C28.125 7.52051 28 6.94759 28 6.33822C28 4.79134 28.651 3.39551 29.6823 2.41113C28.724 3.38509 28.1302 4.71842 28.125 6.19759C28.125 6.2028 28.125 6.2028 28.125 6.20801C28.125 6.21322 28.125 6.21322 28.125 6.21842C28.125 6.82259 28.25 7.39551 28.4323 7.94238H38.401C38.3906 7.98405 38.375 8.02051 38.3594 8.06217Z" fill="#FDDCAD"/>
<path d="M33.4583 0.828125C30.5156 0.828125 28.125 3.23958 28.125 6.21875C28.125 6.82292 28.25 7.39583 28.4323 7.94271H38.4844C38.6667 7.39583 38.7917 6.82292 38.7917 6.21875C38.7917 3.23958 36.401 0.828125 33.4583 0.828125Z" fill="#FEEBDC"/>
<path d="M38.4844 7.94271H34.2813C34.25 7.875 34.2187 7.80208 34.1823 7.73438H38.5417C38.5208 7.80208 38.5104 7.875 38.4844 7.94271ZM32.6198 7.94271H28.4323C28.25 7.39583 28.125 6.82292 28.125 6.21875C28.125 6.21354 28.125 6.21354 28.125 6.20833C28.125 6.20312 28.125 6.20312 28.125 6.19792C28.1302 4.68229 28.7604 3.32292 29.7604 2.34375C29.0104 3.16146 28.4948 4.20312 28.3594 5.36458H28.349L28.3385 5.36979L28.3125 5.49479L28.3177 5.5L28.3438 5.50521C28.3281 5.67188 28.3177 5.84375 28.3177 6.01042C28.3177 6.10417 28.3229 6.19792 28.3281 6.28646H28.3073C28.2708 6.28646 28.2448 6.3125 28.2448 6.34375V6.36458C28.2448 6.39583 28.2708 6.42708 28.3021 6.42708H28.3385C28.3594 6.6875 28.4063 6.9375 28.4635 7.1875L28.3698 7.19792C28.3333 7.20312 28.3125 7.23437 28.3177 7.27083V7.28646C28.3229 7.31771 28.349 7.33854 28.3802 7.33854H28.3854L28.5 7.32292C28.5365 7.46354 28.5781 7.59896 28.6198 7.73438H32.5417C32.5677 7.80208 32.5937 7.875 32.6198 7.94271Z" fill="#F9AE7A"/>
<path d="M39.1823 12.1771C39.1823 12.1094 39.151 12.0469 39.1406 11.9844C39.1302 12.0417 39.1198 12.0937 39.1042 12.1458C38.9427 11.6875 38.5104 11.3594 38.0052 11.3594H28.9115C28.4063 11.3594 27.974 11.6875 27.8125 12.1458C27.8073 12.125 27.8021 12.1042 27.7969 12.0833V12.0365C27.7969 11.901 27.8281 11.7708 27.875 11.6458C27.7917 11.8073 27.7396 11.9792 27.7344 12.1719C27.7396 11.526 28.2552 10.9948 28.8958 10.9844H38.0208C38.6615 10.9948 39.1823 11.526 39.1823 12.1771Z" fill="#F6873F"/>
<path d="M27.7344 12.1768V12.1715C27.7396 11.9788 27.7917 11.807 27.875 11.6455C27.8281 11.7705 27.7969 11.9007 27.7969 12.0361V12.083C27.7865 12.0518 27.7813 12.0153 27.776 11.984C27.7656 12.0465 27.7344 12.109 27.7344 12.1768Z" fill="#F9A76B"/>
<path d="M39.1771 12.4844H39.1719C39.1615 12.3646 39.1406 12.2552 39.1042 12.1458C39.1198 12.0937 39.1302 12.0417 39.1406 11.9844C39.151 12.0469 39.1823 12.1094 39.1823 12.1771V12.4583C39.1823 12.4687 39.1771 12.474 39.1771 12.4844ZM27.7969 12.2031V12.0833C27.8021 12.1042 27.8073 12.125 27.8125 12.1458C27.8073 12.1667 27.8021 12.1875 27.7969 12.2031Z" fill="#F57A40"/>
<path d="M27.7448 12.4844C27.7396 12.474 27.7344 12.4687 27.7344 12.4583V12.1771C27.7344 12.1094 27.7656 12.0469 27.776 11.9844C27.7813 12.0156 27.7865 12.0521 27.7969 12.0833V12.2031C27.7708 12.2917 27.75 12.3854 27.7448 12.4844Z" fill="#F79163"/>
<path d="M31.2666 2.97406C30.9489 3.11468 31.7457 5.67198 32.6207 7.94281H34.2822C33.1832 5.60427 31.6155 2.81781 31.2666 2.97406Z" fill="#F14855"/>
<path d="M34.281 7.94271H34.0623C33.005 5.73958 31.6144 3.28125 31.229 3.28125C31.2185 3.28125 31.2133 3.28125 31.2081 3.28125C31.1977 3.11979 31.2133 3 31.2654 2.97396C31.2758 2.96875 31.2862 2.96875 31.2967 2.96875C31.6977 2.96875 33.2133 5.67188 34.281 7.94271Z" fill="#F36374"/>
<path d="M33.3867 1.12012V0.953451L33.3971 0.948242H33.5221L33.5273 0.953451V1.12012C33.5065 1.12012 33.4857 1.12012 33.4648 1.12012C33.4388 1.12012 33.4128 1.12012 33.3867 1.12012Z" fill="#F9A86E"/>
<path d="M32.5067 1.21842L32.491 1.12988C32.4858 1.09342 32.5067 1.06217 32.5431 1.05697H32.5587C32.5639 1.05176 32.5639 1.05176 32.5692 1.05176C32.6004 1.05176 32.6264 1.07259 32.6317 1.10384L32.6421 1.19238C32.5952 1.19759 32.5535 1.20801 32.5067 1.21842Z" fill="#F9A86E"/>
<path d="M31.6523 1.47396L31.6263 1.40104C31.6158 1.36979 31.6315 1.33333 31.6627 1.32292L31.6783 1.3125C31.6836 1.3125 31.694 1.3125 31.6992 1.3125C31.7252 1.3125 31.7513 1.32812 31.7565 1.35417L31.7825 1.42188C31.7408 1.4375 31.694 1.45833 31.6523 1.47396Z" fill="#F9A86E"/>
<path d="M30.8596 1.88574L30.8179 1.81283C30.8023 1.78678 30.8127 1.74512 30.8387 1.72949L30.8543 1.72428C30.8648 1.71907 30.8752 1.71387 30.8856 1.71387C30.9064 1.71387 30.9273 1.72429 30.9377 1.74512L30.9741 1.81283C30.9377 1.83887 30.896 1.86491 30.8596 1.88574Z" fill="#F9A86E"/>
<path d="M30.1515 2.4375L30.089 2.36458C30.0682 2.33854 30.0734 2.29688 30.0994 2.27604L30.1151 2.26563C30.1255 2.25521 30.1411 2.25 30.1515 2.25C30.1724 2.25 30.188 2.25521 30.1984 2.27083L30.2557 2.34375C30.2244 2.375 30.188 2.40625 30.1515 2.4375Z" fill="#F9A86E"/>
<path d="M29.5633 3.10938L29.4696 3.02604C29.4436 3.00521 29.4383 2.96354 29.4644 2.9375L29.4748 2.92708C29.4852 2.91146 29.5008 2.90625 29.5217 2.90625C29.5321 2.90625 29.5477 2.91146 29.5581 2.92188L29.6467 2.99479C29.6154 3.03125 29.5894 3.07292 29.5633 3.10938Z" fill="#F9A86E"/>
<path d="M29.1003 3.86979L28.9649 3.78646C28.9337 3.77083 28.9285 3.73438 28.9441 3.70313L28.9545 3.6875C28.9649 3.66667 28.9857 3.65625 29.0066 3.65625C29.017 3.65625 29.0274 3.66146 29.0378 3.66667L29.1628 3.74479C29.142 3.78646 29.1212 3.82813 29.1003 3.86979Z" fill="#F9A86E"/>
<path d="M29.0482 4.80697L28.9857 4.78092C29.0117 4.73926 29.043 4.7028 29.069 4.66113L29.0951 4.67155L29.1003 4.68197L29.0534 4.80176L29.0482 4.80697ZM28.7826 4.7028L28.543 4.60384V4.59863L28.5898 4.47363H28.5951L28.8242 4.56217C28.8086 4.60905 28.7982 4.65592 28.7826 4.7028Z" fill="#F9A86E"/>
<path d="M28.8438 5.61426L28.3438 5.50488C28.349 5.45801 28.3542 5.41113 28.3594 5.36426L28.875 5.47363L28.8802 5.47884L28.8542 5.60905L28.8438 5.61426Z" fill="#F9A86E"/>
<path d="M28.3438 5.50488L28.3177 5.49967L28.3125 5.49447L28.3385 5.36947L28.349 5.36426H28.3594C28.3542 5.41113 28.349 5.45801 28.3438 5.50488Z" fill="#F78F4C"/>
<path d="M28.7344 6.44238C28.7292 6.44238 28.7292 6.44238 28.7292 6.44238L28.3385 6.42676C28.3333 6.37988 28.3281 6.33301 28.3281 6.28613L28.7344 6.30176C28.7708 6.30176 28.7969 6.33301 28.7917 6.36426V6.37988C28.7917 6.41634 28.7656 6.44238 28.7344 6.44238Z" fill="#F9A86E"/>
<path d="M28.3398 6.42676H28.3034C28.2721 6.42676 28.2461 6.39551 28.2461 6.36426V6.34342C28.2461 6.31218 28.2721 6.28613 28.3086 6.28613H28.3294C28.3294 6.33301 28.3346 6.37988 28.3398 6.42676Z" fill="#F78F4C"/>
<path d="M28.5013 7.32292C28.4857 7.27604 28.4753 7.23437 28.4648 7.1875L28.793 7.14062H28.7982C28.8294 7.14062 28.8555 7.16146 28.8607 7.19271L28.8659 7.21354C28.8659 7.24479 28.8451 7.27604 28.8086 7.28125L28.5013 7.32292Z" fill="#F9A86E"/>
<path d="M28.3817 7.33854C28.3504 7.33854 28.3244 7.31771 28.3192 7.28646V7.27083C28.3139 7.23437 28.3348 7.20312 28.3712 7.19792L28.465 7.1875C28.4754 7.23437 28.4858 7.27604 28.5014 7.32292L28.3869 7.33854H28.3817Z" fill="#F78F4C"/>
<path d="M34.4128 1.21322C34.3659 1.20801 34.3242 1.19759 34.2773 1.18717L34.2878 1.10384C34.293 1.07259 34.319 1.05176 34.3503 1.05176C34.3555 1.05176 34.3555 1.05176 34.3607 1.05697H34.3763C34.4128 1.06217 34.4336 1.09342 34.4284 1.12988L34.4128 1.21322Z" fill="#F9A86E"/>
<path d="M35.2669 1.46875C35.2253 1.45312 35.1836 1.4375 35.1367 1.42188L35.1628 1.35417C35.168 1.32812 35.194 1.3125 35.2201 1.3125C35.2253 1.3125 35.2305 1.3125 35.2409 1.3125L35.2565 1.32292C35.2878 1.33333 35.3034 1.36979 35.293 1.40104L35.2669 1.46875Z" fill="#F9A86E"/>
<path d="M36.0632 1.88053C36.0267 1.85449 35.985 1.82845 35.9434 1.80762L35.9798 1.74512C35.9902 1.72429 36.0111 1.71387 36.0319 1.71387C36.0423 1.71387 36.0527 1.71907 36.0632 1.72428L36.0788 1.72949C36.1048 1.74512 36.1152 1.78678 36.0996 1.81283L36.0632 1.88053Z" fill="#F9A86E"/>
<path d="M36.7721 2.42708C36.7409 2.39583 36.7044 2.36458 36.668 2.33333L36.7201 2.27083C36.7305 2.25521 36.7461 2.25 36.7669 2.25C36.7826 2.25 36.793 2.25521 36.8034 2.26563L36.819 2.27604C36.8451 2.29688 36.8503 2.33854 36.8294 2.36458L36.7721 2.42708Z" fill="#F9A86E"/>
<path d="M37.3704 3.09896C37.3444 3.05729 37.3132 3.02083 37.2871 2.98438L37.36 2.92188C37.3704 2.91146 37.3861 2.90625 37.3965 2.90625C37.4173 2.90625 37.4329 2.91146 37.4434 2.92708L37.4538 2.9375C37.4798 2.96354 37.4746 3.00521 37.4486 3.02604L37.3704 3.09896Z" fill="#F9A86E"/>
<path d="M37.8392 3.85938C37.8184 3.81771 37.7975 3.77604 37.7715 3.73438L37.8809 3.66667C37.8913 3.66146 37.9017 3.65625 37.9121 3.65625C37.9329 3.65625 37.9538 3.66667 37.9642 3.6875L37.9746 3.70313C37.9902 3.73438 37.985 3.77083 37.9538 3.78646L37.8392 3.85938Z" fill="#F9A86E"/>
<path d="M38.1569 4.69238C38.1465 4.64551 38.1309 4.59863 38.1152 4.55697L38.3236 4.47363H38.3288L38.3757 4.59863V4.60384L38.1569 4.69238Z" fill="#F9A86E"/>
<path d="M38.3242 5.56217C38.319 5.51009 38.3138 5.46322 38.3086 5.41634L38.569 5.36426L38.5794 5.36947L38.6055 5.49447L38.6003 5.49967L38.3242 5.56217Z" fill="#F9A86E"/>
<path d="M38.334 6.43717C38.3392 6.3903 38.3392 6.34342 38.3444 6.29655L38.61 6.28613C38.6465 6.28613 38.6725 6.31218 38.6725 6.34342V6.36426C38.6725 6.39551 38.6465 6.42676 38.6152 6.42676L38.334 6.43717Z" fill="#F9A86E"/>
<path d="M38.5371 7.33887H38.5319L38.1777 7.29199C38.1934 7.24512 38.2038 7.19824 38.2142 7.15137L38.5475 7.19824C38.584 7.20345 38.6048 7.2347 38.5996 7.27116V7.28678C38.5944 7.31803 38.5684 7.33887 38.5371 7.33887Z" fill="#F9A86E"/>
<path d="M38.0742 7.64616C38.0742 7.64616 37.4336 3.40658 32.9388 2.71908C32.7721 2.69303 32.6107 2.68262 32.4492 2.68262C31.0794 2.68262 29.8659 3.55241 29.069 4.66178L28.8242 4.56283C28.9023 4.32845 28.9909 4.09408 29.1003 3.87012L29.3294 4.01074C29.3398 4.02116 29.3503 4.02116 29.3607 4.02116C29.3815 4.02116 29.4023 4.01074 29.4128 3.99512L29.4232 3.97949C29.4388 3.94824 29.4336 3.91178 29.4023 3.89095L29.1628 3.74512C29.2826 3.52116 29.4128 3.31283 29.5638 3.1097L29.7878 3.31283C29.8034 3.32324 29.8138 3.32845 29.8294 3.32845C29.8451 3.32845 29.8659 3.31803 29.8763 3.30241L29.8867 3.29199C29.9076 3.26595 29.9076 3.22429 29.8815 3.20345L29.6471 2.99512C29.8034 2.7972 29.9701 2.6097 30.1523 2.43783L30.3607 2.69824C30.3711 2.71387 30.3919 2.71908 30.4076 2.71908C30.4232 2.71908 30.4388 2.71387 30.4492 2.70866L30.4596 2.69824C30.4857 2.6722 30.4909 2.63574 30.4701 2.6097L30.2565 2.34408C30.444 2.17741 30.6471 2.02637 30.8607 1.88574L31.0273 2.19303C31.0378 2.21387 31.0586 2.22428 31.0794 2.22428C31.0898 2.22428 31.1003 2.21908 31.1107 2.21387L31.1263 2.20866C31.1576 2.18783 31.168 2.15137 31.1471 2.12012L30.9753 1.81283C31.194 1.68262 31.418 1.56803 31.6523 1.47428L31.7669 1.80762C31.7773 1.83366 31.8034 1.84928 31.8242 1.84928C31.8346 1.84928 31.8398 1.84928 31.8451 1.84408L31.8607 1.83887C31.8971 1.82845 31.9128 1.79199 31.9023 1.76074L31.7826 1.4222C32.0169 1.33887 32.2565 1.26595 32.5065 1.21908L32.5638 1.55762C32.569 1.58366 32.5951 1.60449 32.6263 1.60449C32.6263 1.60449 32.6315 1.60449 32.6367 1.60449H32.6523C32.6836 1.59928 32.7096 1.56283 32.7044 1.53158L32.6419 1.19303C32.8867 1.15137 33.1367 1.12533 33.3867 1.12012V1.50033L33.3971 1.50553H33.5221L33.5273 1.50033V1.12012C33.7826 1.12533 34.0326 1.15137 34.2773 1.18783L34.2201 1.53158C34.2096 1.56283 34.2357 1.59928 34.2669 1.60449H34.2826C34.2878 1.60449 34.293 1.60449 34.293 1.60449C34.3242 1.60449 34.3503 1.58366 34.3555 1.55762L34.4128 1.21387C34.6628 1.26595 34.9023 1.33366 35.1367 1.4222L35.0169 1.76074C35.0065 1.79199 35.0221 1.82845 35.0534 1.83887L35.0742 1.84408C35.0794 1.84928 35.0846 1.84928 35.0951 1.84928C35.1159 1.84928 35.1419 1.83366 35.1523 1.80762L35.2669 1.46908C35.5065 1.56283 35.7305 1.67741 35.944 1.80762L35.7721 2.12012C35.7513 2.15137 35.7617 2.18783 35.793 2.20866L35.8086 2.21387C35.819 2.21908 35.8294 2.22428 35.8398 2.22428C35.8607 2.22428 35.8815 2.21387 35.8919 2.19303L36.0638 1.88053C36.2773 2.01595 36.4805 2.16699 36.668 2.33366L36.4492 2.6097C36.4284 2.63574 36.4336 2.6722 36.4596 2.69824L36.4701 2.70866C36.4857 2.71387 36.4961 2.71908 36.5117 2.71908C36.5273 2.71908 36.5482 2.71387 36.5586 2.69824L36.7721 2.42741C36.9596 2.59928 37.1315 2.78678 37.2878 2.9847L37.0378 3.20345C37.0117 3.22429 37.0117 3.26595 37.0326 3.29199L37.043 3.30241C37.0534 3.31803 37.0742 3.32845 37.0898 3.32845C37.1055 3.32845 37.1159 3.32324 37.1315 3.31283L37.3711 3.09928C37.5221 3.2972 37.6576 3.51074 37.7721 3.7347L37.5169 3.89095C37.4909 3.91178 37.4805 3.94824 37.4961 3.97949L37.5065 3.99512C37.5169 4.01074 37.5378 4.02116 37.5586 4.02116C37.569 4.02116 37.5794 4.02116 37.5898 4.01074L37.8398 3.8597C37.9492 4.08366 38.043 4.31283 38.1159 4.55762L37.8242 4.6722L37.819 4.68262L37.8659 4.80241L37.8763 4.80762L38.1576 4.69303C38.2253 4.92741 38.2773 5.1722 38.3086 5.41699L38.043 5.47428L38.0378 5.47949L38.069 5.6097L38.0742 5.61491L38.3242 5.56283C38.3398 5.72428 38.3503 5.89616 38.3503 6.06803C38.3503 6.14095 38.3503 6.21908 38.3451 6.2972L38.1836 6.30241C38.1471 6.30241 38.1211 6.33366 38.1263 6.36491V6.38053C38.1263 6.41699 38.1523 6.44303 38.1888 6.44303L38.3346 6.43783C38.3138 6.68262 38.2721 6.9222 38.2148 7.15137L38.1263 7.14095C38.1263 7.14095 38.1211 7.14095 38.1159 7.14095C38.0898 7.14095 38.0638 7.16178 38.0586 7.19303L38.0534 7.21387C38.0482 7.24512 38.0742 7.27637 38.1055 7.28158L38.1784 7.29199C38.1471 7.41178 38.1107 7.53158 38.0742 7.64616Z" fill="#FEF5EE"/>
<path d="M33.5221 1.50553H33.3971L33.3867 1.50033V1.12012C33.4128 1.12012 33.4388 1.12012 33.4648 1.12012C33.4857 1.12012 33.5065 1.12012 33.5273 1.12012V1.50033L33.5221 1.50553Z" fill="#FCD0AF"/>
<path d="M32.6257 1.60384C32.5944 1.60384 32.5684 1.58301 32.5632 1.55697L32.5059 1.21842C32.5527 1.20801 32.5944 1.19759 32.6413 1.19238L32.7038 1.53092C32.709 1.56218 32.6829 1.59863 32.6517 1.60384H32.6361C32.6309 1.60384 32.6257 1.60384 32.6257 1.60384Z" fill="#FCD0AF"/>
<path d="M31.8242 1.84896C31.8034 1.84896 31.7773 1.83333 31.7669 1.80729L31.6523 1.47396C31.694 1.45833 31.7409 1.4375 31.7826 1.42188L31.9023 1.76042C31.9128 1.79167 31.8971 1.82812 31.8607 1.83854L31.8451 1.84375C31.8398 1.84896 31.8346 1.84896 31.8242 1.84896Z" fill="#FCD0AF"/>
<path d="M31.0781 2.22396C31.0573 2.22396 31.0365 2.21354 31.026 2.19271L30.8594 1.88542C30.8958 1.86458 30.9375 1.83854 30.974 1.8125L31.1458 2.11979C31.1667 2.15104 31.1563 2.1875 31.125 2.20833L31.1094 2.21354C31.099 2.21875 31.0885 2.22396 31.0781 2.22396Z" fill="#FCD0AF"/>
<path d="M28.6465 5.34375C28.6777 5.125 28.7246 4.91146 28.7819 4.70312L28.985 4.78125C28.86 4.96354 28.7507 5.15104 28.6465 5.34375Z" fill="#FEF5EE"/>
<path d="M30.4076 2.71875C30.3919 2.71875 30.3711 2.71354 30.3607 2.69792L30.1523 2.4375C30.1888 2.40625 30.2253 2.375 30.2565 2.34375L30.4701 2.60938C30.4909 2.63542 30.4857 2.67188 30.4596 2.69792L30.4492 2.70833C30.4388 2.71354 30.4232 2.71875 30.4076 2.71875Z" fill="#FCD0AF"/>
<path d="M29.8281 3.32845C29.8125 3.32845 29.8021 3.32324 29.7865 3.31283L29.5625 3.1097C29.5885 3.07324 29.6146 3.03158 29.6458 2.99512L29.8802 3.20345C29.9063 3.22429 29.9063 3.26595 29.8854 3.29199L29.875 3.30241C29.8646 3.31803 29.8437 3.32845 29.8281 3.32845Z" fill="#FCD0AF"/>
<path d="M29.36 4.02116C29.3496 4.02116 29.3392 4.02116 29.3288 4.01074L29.0996 3.87012C29.1204 3.82845 29.1413 3.78678 29.1621 3.74512L29.4017 3.89095C29.4329 3.91178 29.4382 3.94824 29.4225 3.97949L29.4121 3.99512C29.4017 4.01074 29.3809 4.02116 29.36 4.02116Z" fill="#FCD0AF"/>
<path d="M28.9844 4.78125L28.7812 4.70313C28.7969 4.65625 28.8073 4.60937 28.8229 4.5625L29.0677 4.66146C29.0417 4.70313 29.0104 4.73958 28.9844 4.78125Z" fill="#FCD0AF"/>
<path d="M34.292 1.60417C34.292 1.60417 34.2868 1.60417 34.2816 1.60417H34.266C34.2348 1.59896 34.2087 1.5625 34.2191 1.53125L34.2764 1.1875C34.3233 1.19792 34.365 1.20833 34.4118 1.21354L34.3545 1.55729C34.3493 1.58333 34.3233 1.60417 34.292 1.60417Z" fill="#FCD0AF"/>
<path d="M35.095 1.84896C35.0846 1.84896 35.0794 1.84896 35.0742 1.84375L35.0533 1.83854C35.0221 1.82812 35.0065 1.79167 35.0169 1.76042L35.1367 1.42188C35.1836 1.4375 35.2252 1.45312 35.2669 1.46875L35.1523 1.80729C35.1419 1.83333 35.1158 1.84896 35.095 1.84896Z" fill="#FCD0AF"/>
<path d="M35.8383 2.22428C35.8279 2.22428 35.8175 2.21908 35.8071 2.21387L35.7914 2.20866C35.7602 2.18783 35.7498 2.15137 35.7706 2.12012L35.9425 1.80762C35.9841 1.82845 36.0258 1.85449 36.0623 1.88053L35.8904 2.19303C35.88 2.21387 35.8591 2.22428 35.8383 2.22428Z" fill="#FCD0AF"/>
<path d="M36.5109 2.71842C36.4953 2.71842 36.4849 2.71322 36.4692 2.70801L36.4588 2.69759C36.4328 2.67155 36.4276 2.63509 36.4484 2.60905L36.6672 2.33301C36.7036 2.36426 36.7401 2.39551 36.7713 2.42676L36.5578 2.69759C36.5474 2.71322 36.5265 2.71842 36.5109 2.71842Z" fill="#FCD0AF"/>
<path d="M37.0899 3.32813C37.0743 3.32813 37.0534 3.31771 37.043 3.30208L37.0326 3.29167C37.0118 3.26563 37.0118 3.22396 37.0378 3.20313L37.2878 2.98438C37.3139 3.02083 37.3451 3.05729 37.3711 3.09896L37.1316 3.3125C37.1159 3.32292 37.1055 3.32813 37.0899 3.32813Z" fill="#FCD0AF"/>
<path d="M37.5581 4.02083C37.5373 4.02083 37.5165 4.01042 37.506 3.99479L37.4956 3.97917C37.48 3.94792 37.4904 3.91146 37.5165 3.89063L37.7717 3.73438C37.7977 3.77604 37.8185 3.81771 37.8394 3.85938L37.5894 4.01042C37.579 4.02083 37.5685 4.02083 37.5581 4.02083Z" fill="#FCD0AF"/>
<path d="M37.8757 4.80762L37.8652 4.80241L37.8184 4.68262L37.8236 4.6722L38.1152 4.55762C38.1309 4.59928 38.1465 4.64616 38.1569 4.69303L37.8757 4.80762Z" fill="#FCD0AF"/>
<path d="M38.0736 5.61491L38.0684 5.6097L38.0371 5.47949L38.0423 5.47428L38.3079 5.41699C38.3132 5.46387 38.3184 5.51074 38.3236 5.56283L38.0736 5.61491Z" fill="#FCD0AF"/>
<path d="M38.1882 6.44271C38.1517 6.44271 38.1257 6.41667 38.1257 6.38021V6.36458C38.1205 6.33333 38.1465 6.30208 38.183 6.30208L38.3444 6.29688C38.3392 6.34375 38.3392 6.39063 38.334 6.4375L38.1882 6.44271Z" fill="#FCD0AF"/>
<path d="M38.1784 7.29167L38.1055 7.28125C38.0742 7.27604 38.0482 7.24479 38.0534 7.21354L38.0586 7.19271C38.0638 7.16146 38.0899 7.14062 38.1159 7.14062C38.1211 7.14062 38.1263 7.14062 38.1263 7.14062L38.2149 7.15104C38.2044 7.19792 38.194 7.24479 38.1784 7.29167Z" fill="#FCD0AF"/>
<path d="M38.0065 12.9792H28.9128C28.5221 12.9792 28.1888 12.7865 27.9805 12.4844H38.9388C38.7305 12.7865 38.3971 12.9792 38.0065 12.9792Z" fill="#F25629"/>
<path d="M38.0065 13.6458C38.5169 13.6458 38.9388 13.3125 39.1055 12.8542C38.9076 13.2396 38.5221 13.5104 38.0638 13.5104H28.9753C28.3815 13.5104 27.8867 13.0625 27.8086 12.4844H27.9805C28.1888 12.7865 28.5221 12.9792 28.9128 12.9792H38.0065C38.3971 12.9792 38.7305 12.7865 38.9388 12.4844H39.1732C39.1732 12.4896 39.1732 12.5 39.1732 12.5052C39.1732 12.4948 39.1732 12.4896 39.1784 12.4844C39.1628 13.125 38.6471 13.6458 38.0065 13.6458Z" fill="#F1492C"/>
<path d="M38.0065 13.6458H28.9128C28.8815 13.6458 28.8555 13.6458 28.8242 13.6458L28.819 13.6406C28.2253 13.5937 27.7565 13.0937 27.7461 12.4844C27.7461 12.4896 27.7461 12.4948 27.7461 12.5052C27.7461 12.5 27.7461 12.4896 27.7461 12.4844H27.8086C27.8867 13.0625 28.3815 13.5104 28.9753 13.5104H38.0638C38.5221 13.5104 38.9076 13.2396 39.1055 12.8542C38.9388 13.3125 38.5169 13.6458 38.0065 13.6458Z" fill="#F35D4D"/>
<path d="M39.1719 12.5052C39.1719 12.5 39.1719 12.4896 39.1719 12.4844H39.1771C39.1719 12.4896 39.1719 12.4948 39.1719 12.5052Z" fill="#F25939"/>
</svg>
