<svg width="30" height="68" viewBox="0 0 30 68" fill="none" xmlns="http://www.w3.org/2000/svg">
<mask id="mask0_292_113713" style="mask-type:luminance" maskUnits="userSpaceOnUse" x="3" y="1" width="27" height="65">
<path d="M3.96875 1.43164H29.7396V65.9264H3.96875V1.43164Z" fill="white"/>
</mask>
<g mask="url(#mask0_292_113713)">
<path d="M4.10938 55.6715H19.7188V11.682H4.10938V1.49966H20.0677C20.276 1.50487 20.4844 1.49966 20.6927 1.49966C21.4427 1.49445 22.1979 1.49446 22.901 1.61946C24.6667 1.91633 26.3177 2.80696 27.5365 4.14029C28.7656 5.47883 29.5208 7.17675 29.7031 9.02571C29.7292 9.50487 29.75 9.98404 29.7396 10.4736V56.8851C29.75 57.3695 29.7292 57.8538 29.7031 58.333C29.5208 60.182 28.7656 61.8799 27.5365 63.2184C26.3177 64.5517 24.6667 65.4424 22.901 65.7392C22.1979 65.8642 21.4427 65.859 20.6927 65.859C20.4844 65.8538 20.276 65.8538 20.0677 65.859H4.10938V55.6715Z" fill="#78AAC9"/>
<path d="M4.10938 65.6351H20.0625C20.2656 65.6299 20.4688 65.6351 20.6719 65.6351C21.4063 65.6403 22.1458 65.6403 22.8281 65.5205C24.5625 65.2392 26.1823 64.3695 27.375 63.0622C28.5833 61.7549 29.3125 60.083 29.4844 58.2705C29.5104 57.807 29.5313 57.333 29.5208 56.859V10.4997C29.5313 10.0257 29.5104 9.55175 29.4844 9.083C29.3125 7.27571 28.5833 5.60383 27.375 4.29133C26.1823 2.98404 24.5625 2.11945 22.8281 1.833C22.1406 1.7132 21.401 1.71841 20.6667 1.72362C20.4635 1.72362 20.2604 1.72362 20.0625 1.72362H4.10938V1.49966H20.0677C20.276 1.50487 20.4844 1.49966 20.6927 1.49966C21.4427 1.49445 22.1979 1.49446 22.901 1.61946C24.6667 1.91633 26.3177 2.80696 27.5365 4.14029C28.7656 5.47883 29.5208 7.17675 29.7031 9.02571C29.7292 9.50487 29.75 9.98404 29.7396 10.4736V56.8851C29.75 57.3695 29.7292 57.8538 29.7031 58.333C29.5208 60.182 28.7656 61.8799 27.5365 63.2184C26.3177 64.5517 24.6667 65.4424 22.901 65.7392C22.1979 65.8642 21.4427 65.859 20.6927 65.859C20.4844 65.8538 20.276 65.8538 20.0677 65.859H4.10938V65.6351Z" fill="#5F859F"/>
</g>
<mask id="mask1_292_113713" style="mask-type:luminance" maskUnits="userSpaceOnUse" x="7" y="0" width="23" height="67">
<path d="M7.34375 0.734375H29.7396V66.0677H7.34375V0.734375Z" fill="white"/>
</mask>
<g mask="url(#mask1_292_113713)">
<path d="M21.0156 65.3438C20.8906 65.3438 20.7656 65.3438 20.6406 65.3438C20.5208 65.3438 20.3958 65.3438 20.2708 65.3438C20.1979 65.3438 20.125 65.3438 20.0521 65.3438H8.20312V64.1719H20.0104C20.0729 64.1719 20.1354 64.1719 20.1979 64.1719C20.3073 64.1719 20.4167 64.1719 20.526 64.1719C20.6406 64.1771 20.75 64.1771 20.8594 64.1771C21.375 64.1771 21.8906 64.1667 22.3802 64.0938C23.8802 63.9115 25.3073 63.1927 26.3333 62.0573C27.3802 60.9271 27.9583 59.4479 28.0573 57.8958L28.0833 33.6771L28.0573 9.46354C27.9583 7.90625 27.3802 6.43229 26.3333 5.29688C25.3073 4.16146 23.8802 3.44271 22.3802 3.26042C21.8906 3.19271 21.375 3.18229 20.8542 3.18229C20.7448 3.18229 20.6406 3.18229 20.5313 3.18229C20.4219 3.18229 20.3125 3.18229 20.2083 3.18229C20.1406 3.18229 20.0781 3.18229 20.0104 3.18229H8.20312V2.01562H20.0521C20.125 2.01562 20.1979 2.01562 20.2708 2.01562C20.3958 2.01562 20.5156 2.01562 20.6406 2.01562C20.7656 2.01562 20.8906 2.01562 21.0156 2.01562C21.6042 2.01562 22.1875 2.02604 22.7396 2.11979C24.4271 2.38542 26.0052 3.22396 27.1667 4.49479C28.3385 5.77083 29.0417 7.40104 29.1979 9.16146L29.2344 33.6771L29.1979 58.1979C29.0417 59.9583 28.3385 61.5885 27.1667 62.8646C26.0052 64.1354 24.4271 64.974 22.7396 65.2396C22.1875 65.3281 21.6042 65.3438 21.0156 65.3438ZM20.6823 62.8542C20.5885 62.8542 20.4948 62.8542 20.401 62.8542C20.3073 62.8542 20.2187 62.8542 20.125 62.8542C20.0729 62.8542 20.0156 62.8542 19.9635 62.8542H8.20312V61.6823H19.9219C19.974 61.6823 20.0208 61.6823 20.0677 61.6823C20.1458 61.6823 20.2188 61.6823 20.2969 61.6823C20.375 61.6823 20.4479 61.6823 20.526 61.6823C20.8906 61.6823 21.2552 61.6823 21.6094 61.6615C22.7135 61.651 23.8125 61.1875 24.5573 60.3438C25.3333 59.5156 25.6458 58.3698 25.625 57.2448L25.6302 33.6771L25.625 10.1146C25.6458 8.98958 25.3333 7.83854 24.5573 7.01563C23.8125 6.17187 22.7135 5.70833 21.6094 5.69792C21.2552 5.67708 20.8906 5.67708 20.526 5.67708C20.4479 5.67708 20.3698 5.67708 20.2865 5.67708C20.2083 5.67708 20.1302 5.67708 20.0573 5.67708C20.0104 5.67708 19.9688 5.67708 19.9219 5.67708H8.20312V4.50521H19.9635C20.0156 4.50521 20.0677 4.50521 20.1146 4.50521C20.2135 4.50521 20.3073 4.50521 20.401 4.50521C20.4948 4.50521 20.5885 4.50521 20.6823 4.50521C21.1198 4.50521 21.5521 4.51042 21.974 4.55208C23.2604 4.64583 24.5156 5.22917 25.3906 6.20833C26.2969 7.17708 26.7292 8.47917 26.7656 9.80729L26.7813 33.6771L26.7656 57.5521C26.7292 58.875 26.2969 60.1771 25.3906 61.151C24.5156 62.1302 23.2604 62.7135 21.974 62.8021C21.5521 62.849 21.1198 62.8542 20.6823 62.8542Z" fill="#89B9D2"/>
</g>
<path d="M20.8594 64.1764C20.75 64.1764 20.6406 64.1764 20.526 64.1712C20.4167 64.1712 20.3073 64.1712 20.1979 64.1712C20.1354 64.1712 20.0729 64.1712 20.0104 64.1712H8.20312V62.8535H19.9635C20.0156 62.8535 20.0729 62.8535 20.125 62.8535C20.2187 62.8535 20.3073 62.8535 20.401 62.8535C20.4948 62.8535 20.5885 62.8535 20.6823 62.8535C21.1198 62.8535 21.5521 62.8483 21.974 62.8014C23.2604 62.7129 24.5156 62.1296 25.3906 61.1504C26.2969 60.1764 26.7292 58.8744 26.7656 57.5514L26.7813 33.6764L26.7656 9.80664C26.7292 8.47852 26.2969 7.17643 25.3906 6.20768C24.5156 5.22852 23.2604 4.64518 21.974 4.55143C21.5521 4.50977 21.1198 4.50456 20.6823 4.50456C20.5885 4.50456 20.4948 4.50456 20.401 4.50456C20.3073 4.50456 20.2135 4.50456 20.1146 4.50456C20.0677 4.50456 20.0156 4.50456 19.9635 4.50456H8.20312V3.18164H20.0104C20.0781 3.18164 20.1406 3.18164 20.2083 3.18164C20.3125 3.18164 20.4219 3.18164 20.5313 3.18164C20.6406 3.18164 20.7448 3.18164 20.8542 3.18164C21.375 3.18164 21.8906 3.19206 22.3802 3.25977C23.8802 3.44206 25.3073 4.16081 26.3333 5.29622C27.3802 6.43164 27.9583 7.9056 28.0573 9.46289L28.0833 33.6764L28.0573 57.8952C27.9583 59.4473 27.3802 60.9264 26.3333 62.0566C25.3073 63.1921 23.8802 63.9108 22.3802 64.0931C21.8906 64.166 21.375 64.1764 20.8594 64.1764Z" fill="#B0D6E7"/>
<path d="M20.9583 59.208C20.9167 59.208 20.875 59.208 20.8333 59.208H8.20312V56.3851H19.9427C19.9531 56.3851 19.9688 56.3851 19.9792 56.3851C20.2396 56.3851 20.4531 56.1195 20.4167 55.8591V11.4997C20.4531 11.234 20.2396 10.9736 19.9792 10.9736C19.9688 10.9736 19.9531 10.9736 19.9427 10.9736H8.20312V8.15072H20.8333C20.875 8.15072 20.9167 8.14551 20.9583 8.14551C21.5833 8.14551 22.2083 8.40072 22.6198 8.87988C23.0938 9.37467 23.2396 10.0882 23.1927 10.7601V56.5986C23.2396 57.2705 23.0938 57.9788 22.6198 58.4736C22.2083 58.9528 21.5833 59.208 20.9583 59.208Z" fill="#699ABC"/>
<path d="M19.9792 56.3851C19.9688 56.3851 19.9531 56.3851 19.9427 56.3851H8.20312V55.9059H19.7917C19.7969 55.9059 19.7969 55.9059 19.8021 55.9059C19.8906 55.9059 19.9583 55.8226 19.9479 55.7341V11.6247C19.9583 11.5361 19.8906 11.4476 19.8021 11.4476C19.7969 11.4476 19.7969 11.4476 19.7917 11.4476H8.20312V10.9736H19.9427C19.9531 10.9736 19.9688 10.9736 19.9792 10.9736C20.2396 10.9736 20.4531 11.234 20.4167 11.4997V55.8591C20.4531 56.1195 20.2396 56.3851 19.9792 56.3851Z" fill="#76ADD0"/>
<path d="M19.8014 55.9056C19.7962 55.9056 19.7962 55.9056 19.791 55.9056H8.20247V55.6816H6.35352V55.9056V55.6712H19.7181V11.6816H6.35352V11.4473V11.6764H8.20247V11.4473H19.791C19.7962 11.4473 19.7962 11.4473 19.8014 11.4473C19.89 11.4473 19.9577 11.5358 19.9473 11.6243V55.7337C19.9577 55.8223 19.89 55.9056 19.8014 55.9056Z" fill="#B8DFEE"/>
<mask id="mask2_292_113713" style="mask-type:luminance" maskUnits="userSpaceOnUse" x="0" y="54" width="8" height="14">
<path d="M0 54.0674H7.34375V67.359H0V54.0674Z" fill="white"/>
</mask>
<g mask="url(#mask2_292_113713)">
<path d="M6.30729 66.807H0.046875C0.0208323 66.807 0 66.7861 0 66.7601V54.7705C0 54.7445 0.0208323 54.7236 0.046875 54.7236H6.30729C6.33333 54.7236 6.35417 54.7445 6.35417 54.7705V66.7601C6.35417 66.7861 6.33333 66.807 6.30729 66.807Z" fill="#567890"/>
</g>
<mask id="mask3_292_113713" style="mask-type:luminance" maskUnits="userSpaceOnUse" x="0" y="54" width="8" height="14">
<path d="M0.677734 54.0674H7.3444V67.359H0.677734V54.0674Z" fill="white"/>
</mask>
<g mask="url(#mask3_292_113713)">
<path d="M5.89128 66.7601C6.05794 66.6351 6.17773 66.4372 6.17773 66.208V55.5309C6.17773 55.333 6.0944 55.1507 5.96419 55.0257C6.08919 55.0361 6.19857 55.083 6.29753 55.1507C6.22982 54.9945 6.11003 54.8643 5.95898 54.7913C6.19336 54.9059 6.35482 55.1455 6.35482 55.4268V66.1038C6.35482 66.4111 6.1569 66.6611 5.89128 66.7601Z" fill="#719FBB"/>
</g>
<mask id="mask4_292_113713" style="mask-type:luminance" maskUnits="userSpaceOnUse" x="0" y="54" width="3" height="14">
<path d="M0 54.0674H2.01042V67.359H0V54.0674Z" fill="white"/>
</mask>
<g mask="url(#mask4_292_113713)">
<path d="M0.317708 66.682C0.130208 66.557 0 66.3486 0 66.1038V55.4268C0 55.0361 0.307291 54.7236 0.692708 54.7236C0.536458 54.7236 0.401042 54.7861 0.28125 54.8747C0.354166 54.8486 0.427083 54.8278 0.505208 54.8278C0.5 54.8486 0.494792 54.8695 0.494792 54.8955V55.1976C0.354166 55.3278 0.260417 55.5153 0.260417 55.7288V66.4059C0.260417 66.5049 0.28125 66.5986 0.317708 66.682Z" fill="#6A94B0"/>
</g>
<mask id="mask5_292_113713" style="mask-type:luminance" maskUnits="userSpaceOnUse" x="0" y="54" width="3" height="2">
<path d="M0 54.0674H2.01042V55.4007H0V54.0674Z" fill="white"/>
</mask>
<g mask="url(#mask5_292_113713)">
<path d="M0.28125 54.8747C0.401042 54.7861 0.536458 54.7236 0.692708 54.7236C0.635416 54.7236 0.578124 54.7445 0.526042 54.7549C0.520832 54.7809 0.510416 54.8018 0.505208 54.8278C0.427083 54.8278 0.354166 54.8486 0.28125 54.8747Z" fill="#7CB0D0"/>
</g>
<path d="M5.96289 55.0257C5.95247 55.0257 5.93685 55.0257 5.92122 55.0257H5.87956V54.9528C5.91081 54.9736 5.93685 54.9997 5.96289 55.0257Z" fill="#6A94B0"/>
<path d="M6.29753 55.1507C6.19857 55.083 6.08919 55.0361 5.96419 55.0257C5.93815 54.9997 5.91211 54.9736 5.88086 54.9528V54.8955C5.88086 54.8486 5.86524 54.807 5.85482 54.7601C5.79232 54.7445 5.72982 54.7236 5.66211 54.7236C5.66732 54.7236 5.66732 54.7236 5.66732 54.7236C5.67253 54.7236 5.67253 54.7236 5.67253 54.7236H5.67773H5.68294C5.68294 54.7236 5.68294 54.7236 5.68815 54.7236C5.69336 54.7236 5.69336 54.7236 5.69336 54.7236C5.69336 54.7236 5.69336 54.7236 5.69857 54.7236C5.70378 54.7236 5.70378 54.7236 5.70378 54.7236H5.70898H5.71419H5.7194H5.72461C5.72461 54.7236 5.72461 54.7236 5.72982 54.7236C5.73503 54.7288 5.73503 54.7288 5.73503 54.7288H5.74023C5.74023 54.7288 5.74023 54.7288 5.74544 54.7288C5.81315 54.734 5.88086 54.7549 5.94336 54.7809C5.94336 54.7809 5.94336 54.7861 5.94857 54.7861C5.94857 54.7861 5.94857 54.7861 5.95378 54.7861C5.95378 54.7913 5.95898 54.7913 5.95898 54.7913C6.11003 54.8643 6.22982 54.9945 6.29753 55.1507Z" fill="#7CB0D0"/>
<mask id="mask6_292_113713" style="mask-type:luminance" maskUnits="userSpaceOnUse" x="4" y="54" width="3" height="14">
<path d="M4.67773 54.0674H6.01107V67.359H4.67773V54.0674Z" fill="white"/>
</mask>
<g mask="url(#mask6_292_113713)">
<path d="M5.66276 66.8066H5.57422V55.0254H5.88151V66.6348C5.88151 66.6816 5.86589 66.7233 5.85547 66.765C5.79297 66.7858 5.73047 66.8066 5.66276 66.8066Z" fill="#314453"/>
</g>
<path d="M5.87956 55.0257H5.57227V54.833C5.68685 54.8486 5.79102 54.8903 5.87956 54.9528V55.0257Z" fill="#3D5566"/>
<path d="M5.87956 54.9528C5.79102 54.8903 5.68685 54.8486 5.57227 54.833V54.7236H5.66081C5.72852 54.7236 5.79102 54.7445 5.85352 54.7601C5.86393 54.807 5.87956 54.8486 5.87956 54.8955V54.9528Z" fill="#486479"/>
<mask id="mask7_292_113713" style="mask-type:luminance" maskUnits="userSpaceOnUse" x="0" y="54" width="3" height="14">
<path d="M0 54.0674H2.01042V67.359H0V54.0674Z" fill="white"/>
</mask>
<g mask="url(#mask7_292_113713)">
<path d="M0.775391 66.8073H0.692057C0.634765 66.8073 0.577473 66.7865 0.525391 66.776C0.514973 66.7292 0.494141 66.6875 0.494141 66.6354V55.1979C0.572266 55.1302 0.671224 55.0781 0.775391 55.0469V66.8073Z" fill="#6A8EA3"/>
</g>
<mask id="mask8_292_113713" style="mask-type:luminance" maskUnits="userSpaceOnUse" x="0" y="54" width="3" height="2">
<path d="M0 54.0674H2.01042V55.4007H0V54.0674Z" fill="white"/>
</mask>
<g mask="url(#mask8_292_113713)">
<path d="M0.494141 55.1979V54.8958C0.494141 54.8698 0.499349 54.849 0.504557 54.8281C0.509765 54.8281 0.509766 54.8281 0.514974 54.8281H0.775391V55.0469C0.671224 55.0781 0.572266 55.1302 0.494141 55.1979Z" fill="#7AA7BF"/>
<path d="M0.503906 54.8278C0.509114 54.8018 0.51953 54.7809 0.52474 54.7549C0.576822 54.7445 0.634114 54.7236 0.691406 54.7236H0.77474V54.8278H0.514323C0.509115 54.8278 0.509114 54.8278 0.503906 54.8278Z" fill="#8ABED8"/>
</g>
<mask id="mask9_292_113713" style="mask-type:luminance" maskUnits="userSpaceOnUse" x="0" y="54" width="7" height="14">
<path d="M0.677734 54.0674H6.01107V67.359H0.677734V54.0674Z" fill="white"/>
</mask>
<g mask="url(#mask9_292_113713)">
<path d="M5.53255 67.2702H0.81901C0.798177 67.2702 0.777344 67.2546 0.777344 67.2285V54.3014C0.777344 54.2806 0.798177 54.2598 0.81901 54.2598H5.53255C5.55859 54.2598 5.57422 54.2806 5.57422 54.3014V67.2285C5.57422 67.2546 5.55859 67.2702 5.53255 67.2702Z" fill="#3F586A"/>
<path d="M4.95964 67.2702C5.1263 67.2702 5.27734 67.1973 5.38672 67.0827C5.39713 67.0723 5.40755 67.0618 5.41797 67.0462C5.47526 66.9733 5.52213 66.8848 5.54818 66.791H1.09505V65.5618H3.63151C3.98047 65.5618 4.25651 65.2754 4.25651 64.9264V54.7233H5.26693C5.3763 54.7233 5.47005 54.7546 5.55859 54.8066C5.51693 54.4993 5.26693 54.2598 4.95964 54.2598C5.29818 54.2598 5.57422 54.5462 5.57422 54.8952V66.6348C5.57422 66.9837 5.29818 67.2702 4.95964 67.2702ZM1.39714 67.2702C1.05339 67.265 0.777344 66.9837 0.777344 66.64C0.777344 66.8118 0.850259 66.9629 0.959635 67.0723C0.959635 67.0775 0.964844 67.0827 0.970052 67.0879C1.07943 67.1973 1.22526 67.2702 1.39714 67.2702Z" fill="#374D5D"/>
<path d="M1.09505 65.5618H0.777344V54.8952C0.777344 54.541 1.05859 54.2598 1.40234 54.2598H4.25651V54.7233H1.72005C1.37109 54.7233 1.09505 55.0046 1.09505 55.3587V65.5618Z" fill="#527189"/>
<path d="M0.959635 67.0723C0.850259 66.9629 0.777344 66.8118 0.777344 66.64V66.6348V65.5618H1.09505V66.791H0.808594C0.834636 66.8848 0.876303 66.9733 0.938802 67.0462H0.933594C0.944011 67.0566 0.949218 67.0619 0.959635 67.0723ZM5.55859 54.8066C5.47005 54.7546 5.3763 54.7233 5.26693 54.7233H4.25651V54.2598H4.94922C4.95443 54.2598 4.95443 54.2598 4.95443 54.2598C4.95443 54.2598 4.95443 54.2598 4.95964 54.2598C5.26693 54.2598 5.51693 54.4993 5.55859 54.8066Z" fill="#4B687D"/>
</g>
<mask id="mask10_292_113713" style="mask-type:luminance" maskUnits="userSpaceOnUse" x="4" y="66" width="3" height="2">
<path d="M4.67773 66.0674H6.01107V67.359H4.67773V66.0674Z" fill="white"/>
</mask>
<g mask="url(#mask10_292_113713)">
<path d="M4.95312 67.2705C5.125 67.2705 5.27083 67.1976 5.38542 67.083C5.27604 67.1976 5.125 67.2705 4.95833 67.2705C4.95833 67.2705 4.95833 67.2705 4.95312 67.2705Z" fill="#485C6C"/>
</g>
<mask id="mask11_292_113713" style="mask-type:luminance" maskUnits="userSpaceOnUse" x="0" y="66" width="7" height="2">
<path d="M0.677734 66.0674H6.01107V67.359H0.677734V66.0674Z" fill="white"/>
</mask>
<g mask="url(#mask11_292_113713)">
<path d="M1.39583 67.2702C1.22396 67.2702 1.07812 67.1973 0.96875 67.0879C1.07812 67.1973 1.22917 67.2702 1.39583 67.2702ZM5.41667 67.0462H1.09375V66.791H5.54688C5.52083 66.8848 5.47396 66.9733 5.41667 67.0462Z" fill="#485C6C"/>
</g>
<mask id="mask12_292_113713" style="mask-type:luminance" maskUnits="userSpaceOnUse" x="0" y="66" width="3" height="2">
<path d="M0.677734 66.0674H2.01107V67.359H0.677734V66.0674Z" fill="white"/>
</mask>
<g mask="url(#mask12_292_113713)">
<path d="M1.09505 67.0462H0.938802C0.876303 66.9733 0.834636 66.8848 0.808594 66.791H1.09505V67.0462Z" fill="#5A7789"/>
</g>
<mask id="mask13_292_113713" style="mask-type:luminance" maskUnits="userSpaceOnUse" x="0" y="66" width="7" height="2">
<path d="M0.677734 66.0674H6.01107V67.359H0.677734V66.0674Z" fill="white"/>
</mask>
<g mask="url(#mask13_292_113713)">
<path d="M0.969401 67.0879C0.964193 67.0827 0.958984 67.0775 0.958984 67.0723C0.958984 67.0723 0.958985 67.0775 0.964193 67.0775C0.964193 67.0827 0.969401 67.0827 0.969401 67.0879Z" fill="#596D7A"/>
</g>
<mask id="mask14_292_113713" style="mask-type:luminance" maskUnits="userSpaceOnUse" x="0" y="66" width="3" height="2">
<path d="M0.677734 66.0674H2.01107V67.359H0.677734V66.0674Z" fill="white"/>
</mask>
<g mask="url(#mask14_292_113713)">
<path d="M0.964844 67.0781C0.959636 67.0781 0.959635 67.0729 0.959635 67.0729C0.949218 67.0625 0.944011 67.0573 0.933594 67.0469H0.938802C0.944011 67.0573 0.954426 67.0677 0.964844 67.0781Z" fill="#698493"/>
</g>
<mask id="mask15_292_113713" style="mask-type:luminance" maskUnits="userSpaceOnUse" x="0" y="66" width="7" height="2">
<path d="M0.677734 66.0674H6.01107V67.359H0.677734V66.0674Z" fill="white"/>
</mask>
<g mask="url(#mask15_292_113713)">
<path d="M4.94922 67.2708H1.40234H1.39714C1.23047 67.2708 1.07943 67.1979 0.970052 67.0885C0.970052 67.0833 0.964844 67.0833 0.964844 67.0781C1.00651 67.1198 1.05859 67.1615 1.11068 67.1875C1.10547 67.1562 1.09505 67.1302 1.09505 67.099V67.0469H5.41797C5.40755 67.0625 5.39713 67.0729 5.38672 67.0833C5.27213 67.1979 5.1263 67.2708 4.95443 67.2708C4.95443 67.2708 4.95443 67.2708 4.94922 67.2708Z" fill="#677A87"/>
</g>
<mask id="mask16_292_113713" style="mask-type:luminance" maskUnits="userSpaceOnUse" x="0" y="66" width="3" height="2">
<path d="M0.677734 66.0674H2.01107V67.359H0.677734V66.0674Z" fill="white"/>
</mask>
<g mask="url(#mask16_292_113713)">
<path d="M1.10938 67.1875C1.05729 67.1615 1.00521 67.1198 0.963542 67.0781C0.953124 67.0677 0.942709 67.0573 0.9375 67.0469H1.09375V67.099C1.09375 67.1302 1.10417 67.1562 1.10938 67.1875Z" fill="#76909D"/>
</g>
<path d="M8.20247 65.6351H6.35352V65.3434H8.20247V65.6351ZM8.20247 61.682H6.35352V59.208H8.20247V61.682Z" fill="#4B687D"/>
<path d="M6.35352 65.8483H8.20247V65.6348H6.35352V65.8483Z" fill="#456174"/>
<path d="M8.20247 65.3431H6.35352V64.1712H8.20247V65.3431ZM8.20247 62.8535H6.35352V61.6816H8.20247V62.8535Z" fill="#4E6B7E"/>
<path d="M6.35352 64.1712H8.20247V62.8535H6.35352V64.1712Z" fill="#547083"/>
<path d="M6.35352 59.2077H8.20247V56.3848H6.35352V59.2077Z" fill="#48657B"/>
<path d="M6.35352 56.3854H8.20247V55.9062H6.35352V56.3854Z" fill="#4B697F"/>
<path d="M6.35352 55.9056H8.20247V55.6816H6.35352V55.9056Z" fill="#567184"/>
<mask id="mask17_292_113713" style="mask-type:luminance" maskUnits="userSpaceOnUse" x="0" y="0" width="8" height="13">
<path d="M0 0H7.34375V12.7344H0V0Z" fill="white"/>
</mask>
<g mask="url(#mask17_292_113713)">
<path d="M6.30729 12.6351H0.046875C0.0208323 12.6351 0 12.6143 0 12.5882V0.598633C0 0.57259 0.0208323 0.551758 0.046875 0.551758H6.30729C6.33333 0.551758 6.35417 0.57259 6.35417 0.598633V12.5882C6.35417 12.6143 6.33333 12.6351 6.30729 12.6351Z" fill="#567890"/>
</g>
<mask id="mask18_292_113713" style="mask-type:luminance" maskUnits="userSpaceOnUse" x="0" y="0" width="8" height="13">
<path d="M0.677734 0H7.3444V12.7344H0.677734V0Z" fill="white"/>
</mask>
<g mask="url(#mask18_292_113713)">
<path d="M5.89128 12.5882C6.05794 12.458 6.17773 12.2653 6.17773 12.0361V1.35905C6.17773 1.16113 6.0944 0.978841 5.96419 0.853841C6.08919 0.864257 6.19857 0.911132 6.29753 0.978841C6.19857 0.739257 5.9694 0.567383 5.70378 0.551758C6.06836 0.572591 6.35482 0.879883 6.35482 1.25488V11.932C6.35482 12.2393 6.1569 12.4893 5.89128 12.5882Z" fill="#719FBB"/>
</g>
<mask id="mask19_292_113713" style="mask-type:luminance" maskUnits="userSpaceOnUse" x="0" y="0" width="3" height="13">
<path d="M0 0H2.01042V12.7344H0V0Z" fill="white"/>
</mask>
<g mask="url(#mask19_292_113713)">
<path d="M0.317708 12.5101C0.130208 12.3799 0 12.1768 0 11.932V1.25488C0 0.864258 0.307291 0.551758 0.692708 0.551758C0.536458 0.551758 0.401042 0.614258 0.28125 0.697591C0.354166 0.676758 0.427083 0.655924 0.505208 0.650716C0.5 0.676757 0.494792 0.697591 0.494792 0.718424V1.02572C0.354166 1.15592 0.260417 1.34342 0.260417 1.55697V12.234C0.260417 12.3278 0.28125 12.4216 0.317708 12.5101Z" fill="#6A94B0"/>
</g>
<mask id="mask20_292_113713" style="mask-type:luminance" maskUnits="userSpaceOnUse" x="0" y="0" width="3" height="1">
<path d="M0 0H2.01042V0.734375H0V0Z" fill="white"/>
</mask>
<g mask="url(#mask20_292_113713)">
<path d="M0.28125 0.697591C0.401042 0.614258 0.536458 0.551758 0.692708 0.551758C0.635416 0.551758 0.578124 0.567382 0.526042 0.583008C0.520832 0.609049 0.510416 0.629883 0.505208 0.650716C0.427083 0.655924 0.354166 0.676758 0.28125 0.697591Z" fill="#7CB0D0"/>
</g>
<mask id="mask21_292_113713" style="mask-type:luminance" maskUnits="userSpaceOnUse" x="4" y="0" width="3" height="3">
<path d="M4.67773 0H6.01107V2.06771H4.67773V0Z" fill="white"/>
</mask>
<g mask="url(#mask21_292_113713)">
<path d="M5.96419 0.854167C5.95378 0.854167 5.93815 0.848958 5.92253 0.848958H5.88086V0.78125C5.91211 0.802083 5.93815 0.828124 5.96419 0.854167Z" fill="#6A94B0"/>
</g>
<mask id="mask22_292_113713" style="mask-type:luminance" maskUnits="userSpaceOnUse" x="4" y="0" width="4" height="3">
<path d="M4.67773 0H7.3444V2.06771H4.67773V0Z" fill="white"/>
</mask>
<g mask="url(#mask22_292_113713)">
<path d="M6.29753 0.978841C6.19857 0.911132 6.08919 0.864257 5.96419 0.853841C5.93815 0.827798 5.91211 0.801758 5.88086 0.780924V0.718424C5.88086 0.676758 5.86524 0.635091 5.85482 0.588216C5.79232 0.572591 5.72982 0.551758 5.66211 0.551758C5.66732 0.551758 5.66732 0.551758 5.67253 0.551758C5.67253 0.551758 5.67253 0.551758 5.67773 0.551758H5.68294C5.68815 0.551758 5.68815 0.551758 5.68815 0.551758C5.69336 0.551758 5.69336 0.551758 5.69857 0.551758C5.69857 0.551758 5.69857 0.551758 5.70378 0.551758C5.9694 0.567383 6.19857 0.739257 6.29753 0.978841Z" fill="#7CB0D0"/>
</g>
<path d="M5.66081 12.6351H5.57227V0.848633H5.87956V12.4632C5.87956 12.5101 5.86393 12.5518 5.85352 12.5934C5.79102 12.6143 5.72852 12.6351 5.66081 12.6351Z" fill="#314453"/>
<mask id="mask23_292_113713" style="mask-type:luminance" maskUnits="userSpaceOnUse" x="4" y="0" width="3" height="3">
<path d="M4.67773 0H6.01107V2.06771H4.67773V0Z" fill="white"/>
</mask>
<g mask="url(#mask23_292_113713)">
<path d="M5.88151 0.848633H5.57422V0.661133C5.6888 0.676758 5.79297 0.718424 5.88151 0.780924V0.848633Z" fill="#3D5566"/>
<path d="M5.88151 0.780924C5.79297 0.718424 5.6888 0.676758 5.57422 0.661133V0.551758H5.66276C5.73047 0.551758 5.79297 0.572591 5.85547 0.588216C5.86589 0.635091 5.88151 0.676758 5.88151 0.718424V0.780924Z" fill="#486479"/>
</g>
<mask id="mask24_292_113713" style="mask-type:luminance" maskUnits="userSpaceOnUse" x="0" y="0" width="3" height="13">
<path d="M0 0.734375H2.01042V12.7344H0V0.734375Z" fill="white"/>
</mask>
<g mask="url(#mask24_292_113713)">
<path d="M0.775391 12.6354H0.692057C0.634765 12.6354 0.577473 12.6146 0.525391 12.599C0.514973 12.5573 0.494141 12.5104 0.494141 12.4635V1.02604C0.572266 0.958334 0.671224 0.906249 0.775391 0.875V12.6354Z" fill="#6A8EA3"/>
</g>
<mask id="mask25_292_113713" style="mask-type:luminance" maskUnits="userSpaceOnUse" x="0" y="0" width="3" height="3">
<path d="M0 0H2.01042V2.06771H0V0Z" fill="white"/>
</mask>
<g mask="url(#mask25_292_113713)">
<path d="M0.494141 1.02637V0.719076C0.494141 0.698242 0.499349 0.677409 0.504557 0.651367C0.509765 0.651367 0.509766 0.651367 0.514974 0.651367H0.775391V0.875326C0.671224 0.906575 0.572266 0.958659 0.494141 1.02637Z" fill="#7AA7BF"/>
</g>
<mask id="mask26_292_113713" style="mask-type:luminance" maskUnits="userSpaceOnUse" x="0" y="0" width="3" height="1">
<path d="M0 0H2.01042V0.734375H0V0Z" fill="white"/>
</mask>
<g mask="url(#mask26_292_113713)">
<path d="M0.505859 0.650716C0.511067 0.629883 0.521483 0.609049 0.526693 0.583008C0.578775 0.567382 0.636067 0.551758 0.693359 0.551758H0.776693V0.650716H0.516276C0.511068 0.650716 0.511067 0.650716 0.505859 0.650716Z" fill="#8ABED8"/>
</g>
<mask id="mask27_292_113713" style="mask-type:luminance" maskUnits="userSpaceOnUse" x="0" y="0" width="7" height="15">
<path d="M0.677734 0H6.01107V14.0677H0.677734V0Z" fill="white"/>
</mask>
<g mask="url(#mask27_292_113713)">
<path d="M5.53255 13.0993H0.81901C0.798177 13.0993 0.777344 13.0784 0.777344 13.0576V0.130534C0.777344 0.104493 0.798177 0.0888672 0.81901 0.0888672H5.53255C5.55859 0.0888672 5.57422 0.104493 5.57422 0.130534V13.0576C5.57422 13.0784 5.55859 13.0993 5.53255 13.0993Z" fill="#3F586A"/>
<path d="M4.95964 13.0993C5.1263 13.0993 5.27213 13.0264 5.38151 12.917C5.39193 12.9066 5.40755 12.891 5.41797 12.8753C5.47526 12.8024 5.52213 12.7139 5.54818 12.6201H1.09505V11.3857H3.63151C3.98047 11.3857 4.25651 11.1045 4.25651 10.7503V0.552409H5.26693C5.3763 0.552409 5.47005 0.583659 5.55859 0.630534C5.51693 0.32845 5.26693 0.0888672 4.95964 0.0888672C5.29818 0.0888672 5.57422 0.375326 5.57422 0.719076V12.4639C5.57422 12.8128 5.29818 13.0941 4.95964 13.0993ZM1.39714 13.0993C1.05339 13.0941 0.777344 12.8128 0.777344 12.4691C0.777344 12.641 0.850259 12.792 0.959635 12.9014C0.964843 12.9066 0.970052 12.9118 0.97526 12.917C1.08464 13.0316 1.23047 13.0993 1.39714 13.0993Z" fill="#374D5D"/>
</g>
<mask id="mask28_292_113713" style="mask-type:luminance" maskUnits="userSpaceOnUse" x="0" y="0" width="7" height="13">
<path d="M0.677734 0H6.01107V12.7344H0.677734V0Z" fill="white"/>
</mask>
<g mask="url(#mask28_292_113713)">
<path d="M1.09505 11.3857H0.777344V0.719076C0.777344 0.370117 1.05859 0.0888672 1.40234 0.0888672H4.25651V0.552409H1.72005C1.37109 0.552409 1.09505 0.833659 1.09505 1.18783V11.3857Z" fill="#527189"/>
</g>
<mask id="mask29_292_113713" style="mask-type:luminance" maskUnits="userSpaceOnUse" x="0" y="0" width="7" height="15">
<path d="M0.677734 0H6.01107V14.0677H0.677734V0Z" fill="white"/>
</mask>
<g mask="url(#mask29_292_113713)">
<path d="M0.959635 12.9014C0.850259 12.792 0.777344 12.641 0.777344 12.4691C0.777344 12.4639 0.777344 12.4639 0.777344 12.4639V11.3857H1.09505V12.6201H0.808594C0.834636 12.7139 0.876303 12.8024 0.938802 12.8753H0.933594C0.944011 12.8857 0.949218 12.891 0.959635 12.9014ZM5.55859 0.630534C5.47005 0.583659 5.3763 0.552409 5.26693 0.552409H4.25651V0.0888672H4.94922C4.95443 0.0888672 4.95443 0.0888672 4.95443 0.0888672C4.95443 0.0888672 4.95443 0.0888672 4.95964 0.0888672C5.26693 0.0888672 5.51693 0.32845 5.55859 0.630534Z" fill="#4B687D"/>
</g>
<path d="M4.95312 13.0983C5.11979 13.0983 5.26562 13.0254 5.38021 12.916C5.27083 13.0254 5.125 13.0983 4.95833 13.0983C4.95833 13.0983 4.95833 13.0983 4.95312 13.0983Z" fill="#485C6C"/>
<path d="M1.39648 13.0983C1.22982 13.0983 1.08399 13.0306 0.974609 12.916C1.08399 13.0254 1.22982 13.0983 1.39648 13.0983ZM5.41732 12.8743H1.0944V12.6191H5.54753C5.52148 12.7129 5.47461 12.8014 5.41732 12.8743Z" fill="#485C6C"/>
<path d="M1.0931 12.8743H0.936849C0.87435 12.8014 0.832683 12.7129 0.806641 12.6191H1.0931V12.8743Z" fill="#5A7789"/>
<path d="M0.974609 12.916C0.969401 12.9108 0.964192 12.9056 0.958984 12.9004L0.964193 12.9056C0.969401 12.9108 0.969401 12.916 0.974609 12.916Z" fill="#596D7A"/>
<path d="M0.962891 12.9063L0.957682 12.901C0.947265 12.8906 0.942058 12.8854 0.931641 12.875H0.936849C0.942058 12.8854 0.952473 12.8958 0.962891 12.9063Z" fill="#698493"/>
<path d="M5.38086 12.9167C5.39128 12.9062 5.40169 12.8906 5.41732 12.875C5.4069 12.8906 5.39128 12.9062 5.38086 12.9167Z" fill="#596D7A"/>
<path d="M4.94727 13.099H1.40039H1.39518C1.22852 13.099 1.08268 13.026 0.973307 12.9167C0.968099 12.9167 0.968099 12.9115 0.962891 12.9063C1.00456 12.9531 1.05664 12.9844 1.10872 13.0156C1.10351 12.9844 1.0931 12.9583 1.0931 12.9271V12.875H5.41602C5.40039 12.8906 5.38997 12.9062 5.37956 12.9167C5.26497 13.026 5.11914 13.099 4.95247 13.099C4.95247 13.099 4.95247 13.099 4.94727 13.099Z" fill="#677A87"/>
<path d="M1.10938 13.0156C1.05729 12.9844 1.00521 12.9531 0.963542 12.9063C0.953124 12.8958 0.942709 12.8854 0.9375 12.875H1.09375V12.9271C1.09375 12.9583 1.10417 12.9844 1.10938 13.0156Z" fill="#76909D"/>
<path d="M8.20247 8.15072H6.35352V5.67676H8.20247V8.15072ZM8.20247 2.0153H6.35352V1.72363H8.20247V2.0153Z" fill="#4B687D"/>
<path d="M6.35352 1.72331H8.20247V1.50977H6.35352V1.72331Z" fill="#456174"/>
<path d="M8.20247 5.67708H6.35352V4.50521H8.20247V5.67708ZM8.20247 3.18229H6.35352V2.01562H8.20247V3.18229Z" fill="#4E6B7E"/>
<path d="M6.35352 4.50456H8.20247V3.18164H6.35352V4.50456Z" fill="#547083"/>
<path d="M6.35352 10.9733H8.20247V8.15039H6.35352V10.9733Z" fill="#48657B"/>
<path d="M6.35352 11.4476H8.20247V10.9736H6.35352V11.4476Z" fill="#4B697F"/>
<path d="M6.35352 11.6764H8.20247V11.4473H6.35352V11.6764Z" fill="#567184"/>
</svg>
