<svg width="68" height="14" viewBox="0 0 68 14" fill="none" xmlns="http://www.w3.org/2000/svg">
<path d="M5.30078 11.5671H64.1393V1.55664H5.30078V11.5671Z" fill="#78AAC9"/>
<path d="M5.30078 1.77539H64.1393V1.55664H5.30078V1.77539Z" fill="#5F859F"/>
<path d="M60.2448 5.66146H50.7448V4.51042H60.2448V5.66146ZM17.2813 5.66146H7.15625V4.51042H17.2813V5.66146ZM60.2448 3.21354H50.7448V2.0625H60.2448V3.21354ZM17.2813 3.21354H7.15625V2.0625H17.5C17.3594 2.41667 17.2813 2.80208 17.2813 3.21354Z" fill="#89B9D2"/>
<path d="M60.2448 4.50977H50.7448V3.21289H60.2448V4.50977ZM17.2813 4.50977H7.15625V3.21289H17.2813C17.2813 3.21289 17.2813 3.2181 17.2813 3.22331V4.50977Z" fill="#B0D6E7"/>
<path d="M60.2448 10.8698H50.7448V8.09375H60.2448V10.8698ZM17.4323 10.8698H7.15625V8.09375H17.2813V9.90104C17.2813 10.2396 17.3333 10.5677 17.4323 10.8698Z" fill="#699ABC"/>
<path d="M60.2448 11.3379H50.7448V10.8691H60.2448V11.3379ZM17.6198 11.3379H7.15625V10.8691H17.4323C17.4844 11.0306 17.5469 11.1868 17.6198 11.3379Z" fill="#76ADD0"/>
<path d="M60.2448 11.5671H50.7448V11.3379H60.2448V11.5671ZM18.6927 11.5671H7.15625V11.3379H17.6198C17.6562 11.416 17.6979 11.4941 17.7448 11.5671H18.6927Z" fill="#B8DFEE"/>
<path d="M18.6927 8.0931H17.2812V5.66081H18.6927V8.0931ZM18.6927 2.06185H17.5C17.5365 1.96289 17.5781 1.86914 17.625 1.77539H18.6927V2.06185Z" fill="#5C809A"/>
<path d="M18.6927 1.77539H17.625C17.6615 1.70247 17.7031 1.62956 17.7448 1.55664H18.6927V1.77539Z" fill="#506F84"/>
<path d="M18.6927 5.66146H17.2812V4.51042H18.6927V5.66146ZM18.6927 3.21354H17.2812C17.2812 2.80208 17.3594 2.41667 17.5 2.0625H18.6927V3.21354Z" fill="#63869E"/>
<path d="M18.6927 4.50977H17.2812V3.22331C17.2812 3.2181 17.2812 3.21289 17.2812 3.21289H18.6927V4.50977Z" fill="#7594A7"/>
<path d="M18.6927 10.8698H17.4323C17.3333 10.5677 17.2812 10.2396 17.2812 9.90104V8.09375H18.6927V10.8698Z" fill="#557994"/>
<path d="M18.6921 11.3379H17.6191C17.5462 11.1868 17.4837 11.0306 17.4316 10.8691H18.6921V11.3379Z" fill="#5B829D"/>
<path d="M18.6921 11.5671H17.7441C17.6973 11.4941 17.6556 11.416 17.6191 11.3379H18.6921V11.5671Z" fill="#7998A9"/>
<mask id="mask0_292_113714" style="mask-type:luminance" maskUnits="userSpaceOnUse" x="18" y="0" width="33" height="14">
<path d="M18.5664 0H50.8685V13.1198H18.5664V0Z" fill="white"/>
</mask>
<g mask="url(#mask0_292_113714)">
<mask id="mask1_292_113714" style="mask-type:luminance" maskUnits="userSpaceOnUse" x="18" y="0" width="33" height="14">
<path d="M50.5352 13.1198H18.9049C18.7852 13.1198 18.6914 13.026 18.6914 12.9063V0.21875C18.6914 0.098958 18.7852 0 18.9049 0H50.5352C50.6497 0 50.7435 0.098958 50.7435 0.21875V12.9063C50.7435 13.026 50.6497 13.1198 50.5352 13.1198Z" fill="white"/>
</mask>
<g mask="url(#mask1_292_113714)">
<path d="M18.6914 13.1198H50.7435V0H18.6914V13.1198Z" fill="#78AAC9"/>
</g>
</g>
<mask id="mask2_292_113714" style="mask-type:luminance" maskUnits="userSpaceOnUse" x="18" y="0" width="33" height="1">
<path d="M18.5664 0H50.8685V0.307292H18.5664V0Z" fill="white"/>
</mask>
<g mask="url(#mask2_292_113714)">
<mask id="mask3_292_113714" style="mask-type:luminance" maskUnits="userSpaceOnUse" x="18" y="0" width="33" height="14">
<path d="M50.5352 13.1198H18.9049C18.7852 13.1198 18.6914 13.026 18.6914 12.9063V0.21875C18.6914 0.098958 18.7852 0 18.9049 0H50.5352C50.6497 0 50.7435 0.098958 50.7435 0.21875V12.9063C50.7435 13.026 50.6497 13.1198 50.5352 13.1198Z" fill="white"/>
</mask>
<g mask="url(#mask3_292_113714)">
<path d="M50.7435 0.286458H18.6914V0H50.7435V0.286458Z" fill="#5F859F"/>
</g>
</g>
<mask id="mask4_292_113714" style="mask-type:luminance" maskUnits="userSpaceOnUse" x="18" y="0" width="33" height="6">
<path d="M18.5664 0.609375H50.8685V5.47396H18.5664V0.609375Z" fill="white"/>
</mask>
<g mask="url(#mask4_292_113714)">
<mask id="mask5_292_113714" style="mask-type:luminance" maskUnits="userSpaceOnUse" x="18" y="0" width="33" height="14">
<path d="M50.5352 13.1198H18.9049C18.7852 13.1198 18.6914 13.026 18.6914 12.9063V0.21875C18.6914 0.098958 18.7852 0 18.9049 0H50.5352C50.6497 0 50.7435 0.098958 50.7435 0.21875V12.9063C50.7435 13.026 50.6497 13.1198 50.5352 13.1198Z" fill="white"/>
</mask>
<g mask="url(#mask5_292_113714)">
<path d="M50.7435 5.38053H18.6914V0.666992H50.7435V2.1722H18.6914V3.87533H50.7435V5.38053Z" fill="#89B9D2"/>
</g>
</g>
<mask id="mask6_292_113714" style="mask-type:luminance" maskUnits="userSpaceOnUse" x="18" y="2" width="33" height="2">
<path d="M18.5664 2.12988H50.8685V3.9528H18.5664V2.12988Z" fill="white"/>
</mask>
<g mask="url(#mask6_292_113714)">
<mask id="mask7_292_113714" style="mask-type:luminance" maskUnits="userSpaceOnUse" x="18" y="0" width="33" height="14">
<path d="M50.5352 13.1198H18.9049C18.7852 13.1198 18.6914 13.026 18.6914 12.9063V0.21875C18.6914 0.098958 18.7852 0 18.9049 0H50.5352C50.6497 0 50.7435 0.098958 50.7435 0.21875V12.9063C50.7435 13.026 50.6497 13.1198 50.5352 13.1198Z" fill="white"/>
</mask>
<g mask="url(#mask7_292_113714)">
<path d="M50.7435 3.875H18.6914V2.17188H50.7435V3.875Z" fill="#B0D6E7"/>
</g>
</g>
<mask id="mask8_292_113714" style="mask-type:luminance" maskUnits="userSpaceOnUse" x="18" y="8" width="33" height="5">
<path d="M18.5664 8.51562H50.8685V12.9271H18.5664V8.51562Z" fill="white"/>
</mask>
<g mask="url(#mask8_292_113714)">
<mask id="mask9_292_113714" style="mask-type:luminance" maskUnits="userSpaceOnUse" x="18" y="0" width="33" height="14">
<path d="M50.5352 13.1198H18.9049C18.7852 13.1198 18.6914 13.026 18.6914 12.9063V0.21875C18.6914 0.098958 18.7852 0 18.9049 0H50.5352C50.6497 0 50.7435 0.098958 50.7435 0.21875V12.9063C50.7435 13.026 50.6497 13.1198 50.5352 13.1198Z" fill="white"/>
</mask>
<g mask="url(#mask9_292_113714)">
<path d="M18.6914 12.9059V8.56738H50.7435V12.208H18.6914V12.9059Z" fill="#699ABC"/>
</g>
</g>
<mask id="mask10_292_113714" style="mask-type:luminance" maskUnits="userSpaceOnUse" x="18" y="12" width="33" height="1">
<path d="M18.5664 12.166H50.8685V12.9264H18.5664V12.166Z" fill="white"/>
</mask>
<g mask="url(#mask10_292_113714)">
<mask id="mask11_292_113714" style="mask-type:luminance" maskUnits="userSpaceOnUse" x="18" y="-1" width="33" height="15">
<path d="M50.5352 13.1188H18.9049C18.7852 13.1188 18.6914 13.0251 18.6914 12.9053V0.217773C18.6914 0.0979814 18.7852 -0.000976562 18.9049 -0.000976562H50.5352C50.6497 -0.000976562 50.7435 0.0979814 50.7435 0.217773V12.9053C50.7435 13.0251 50.6497 13.1188 50.5352 13.1188Z" fill="white"/>
</mask>
<g mask="url(#mask11_292_113714)">
<path d="M18.6914 12.9049V12.207H50.7435V12.8164H18.6914V12.9049Z" fill="#76ADD0"/>
</g>
</g>
<mask id="mask12_292_113714" style="mask-type:luminance" maskUnits="userSpaceOnUse" x="18" y="12" width="33" height="2">
<path d="M18.5664 12.7754H50.8685V13.1191H18.5664V12.7754Z" fill="white"/>
</mask>
<g mask="url(#mask12_292_113714)">
<mask id="mask13_292_113714" style="mask-type:luminance" maskUnits="userSpaceOnUse" x="18" y="-1" width="33" height="15">
<path d="M50.5352 13.1188H18.9049C18.7852 13.1188 18.6914 13.0251 18.6914 12.9053V0.217773C18.6914 0.0979814 18.7852 -0.000976562 18.9049 -0.000976562H50.5352C50.6497 -0.000976562 50.7435 0.0979814 50.7435 0.217773V12.9053C50.7435 13.0251 50.6497 13.1188 50.5352 13.1188Z" fill="white"/>
</mask>
<g mask="url(#mask13_292_113714)">
<path d="M50.5352 13.1185H18.9049C18.7852 13.1185 18.6914 13.0247 18.6914 12.9049V12.8164H50.7435V12.9049C50.7435 13.0247 50.6497 13.1185 50.5352 13.1185Z" fill="#B8DFEE"/>
</g>
</g>
<mask id="mask14_292_113714" style="mask-type:luminance" maskUnits="userSpaceOnUse" x="0" y="0" width="8" height="13">
<path d="M0 0.239258H7.10417V12.2393H0V0.239258Z" fill="white"/>
</mask>
<g mask="url(#mask14_292_113714)">
<path d="M6.04688 12.0882H0.395833C0.364583 12.0882 0.34375 12.0674 0.34375 12.0361V1.08822C0.34375 1.05697 0.364583 1.03613 0.395833 1.03613H6.04688C6.07292 1.03613 6.09375 1.05697 6.09375 1.08822V12.0361C6.09375 12.0674 6.07292 12.0882 6.04688 12.0882Z" fill="#567890"/>
</g>
<path d="M5.67708 12.0465C5.82812 11.9268 5.93229 11.7497 5.93229 11.5361V1.77572C5.93229 1.59342 5.85937 1.43197 5.74479 1.31217C5.85937 1.32259 5.95833 1.36947 6.04688 1.42676C5.95313 1.20801 5.74479 1.04655 5.49479 1.03613C5.78646 1.05176 6.03125 1.27051 6.08333 1.55697H6.04688V11.5674H6.08333C6.04167 11.7913 5.88021 11.9684 5.67708 12.0465Z" fill="#719FBB"/>
<mask id="mask15_292_113714" style="mask-type:luminance" maskUnits="userSpaceOnUse" x="0" y="0" width="6" height="13">
<path d="M0 0.239258H5.77083V12.2393H0V0.239258Z" fill="white"/>
</mask>
<g mask="url(#mask15_292_113714)">
<path d="M0.630208 11.9684C0.463542 11.8538 0.34375 11.6663 0.34375 11.4424V1.68197C0.34375 1.3278 0.624999 1.03613 0.96875 1.03613C0.828125 1.03613 0.708333 1.09342 0.598958 1.17676C0.666666 1.15072 0.729166 1.12988 0.802083 1.12988C0.796874 1.15072 0.796875 1.17155 0.796875 1.19238V1.47363C0.666667 1.59342 0.583333 1.7653 0.583333 1.95801V11.7184C0.583333 11.807 0.598959 11.8955 0.630208 11.9684ZM5.74479 1.31217C5.73437 1.31217 5.71875 1.31217 5.70833 1.31217H5.66667V1.24967C5.69792 1.27051 5.71875 1.29134 5.74479 1.31217Z" fill="#6A94B0"/>
</g>
<path d="M6.04557 1.42676C5.95703 1.36947 5.85807 1.32259 5.74349 1.31217C5.71745 1.29134 5.69661 1.27051 5.66536 1.24967V1.19238C5.66536 1.15072 5.64974 1.11426 5.64453 1.07259C5.58724 1.05697 5.52995 1.03613 5.46745 1.03613C5.46745 1.03613 5.46745 1.03613 5.47266 1.03613C5.47266 1.03613 5.47266 1.03613 5.47786 1.03613C5.47786 1.03613 5.47787 1.03613 5.48307 1.03613H5.48828H5.49349C5.74349 1.04655 5.95182 1.20801 6.04557 1.42676ZM0.597656 1.17676C0.707031 1.09342 0.826823 1.03613 0.967448 1.03613C0.967448 1.03613 0.967448 1.03613 0.972656 1.03613C0.915364 1.03613 0.86849 1.05697 0.816406 1.06738C0.811198 1.08822 0.805989 1.10905 0.800781 1.12988C0.727864 1.12988 0.665364 1.15072 0.597656 1.17676Z" fill="#7CB0D0"/>
<path d="M5.46875 12.0885H5.39062V1.3125H5.66667V11.9323C5.66667 11.974 5.65104 12.0104 5.64583 12.0521C5.58854 12.0677 5.53125 12.0885 5.46875 12.0885Z" fill="#314453"/>
<path d="M5.66667 1.31185H5.39062V1.13477C5.49479 1.15039 5.58854 1.19206 5.66667 1.24935V1.31185Z" fill="#3D5566"/>
<path d="M5.66667 1.24967C5.58854 1.19238 5.49479 1.15072 5.39062 1.13509V1.03613H5.46875C5.53125 1.03613 5.58854 1.05697 5.64583 1.07259C5.65104 1.11426 5.66667 1.15072 5.66667 1.19238V1.24967Z" fill="#486479"/>
<path d="M1.04688 12.0882H0.973958C0.916666 12.0882 0.869792 12.0674 0.817708 12.057C0.8125 12.0153 0.796875 11.9736 0.796875 11.932V1.47363C0.864583 1.40592 0.953126 1.35905 1.04688 1.33301V12.0882Z" fill="#6A8EA3"/>
<path d="M0.796875 1.47363V1.19238C0.796875 1.17155 0.796874 1.15072 0.802083 1.12988C0.807291 1.12988 0.807292 1.12988 0.8125 1.12988H1.04688V1.33301C0.953126 1.35905 0.864583 1.40592 0.796875 1.47363Z" fill="#7AA7BF"/>
<path d="M0.800781 1.12988C0.805989 1.10905 0.811198 1.08822 0.816406 1.06738C0.86849 1.05697 0.915364 1.03613 0.972656 1.03613H1.04557V1.12988H0.811198C0.80599 1.12988 0.805989 1.12988 0.800781 1.12988Z" fill="#8ABED8"/>
<mask id="mask16_292_113714" style="mask-type:luminance" maskUnits="userSpaceOnUse" x="0" y="0" width="6" height="14">
<path d="M0.4375 0.239258H5.77083V13.1247H0.4375V0.239258Z" fill="white"/>
</mask>
<g mask="url(#mask16_292_113714)">
<path d="M5.34896 12.5101H1.09375C1.06771 12.5101 1.04688 12.4893 1.04688 12.4632V0.655924C1.04688 0.635091 1.06771 0.614258 1.09375 0.614258H5.34896C5.36979 0.614258 5.39063 0.635091 5.39063 0.655924V12.4632C5.39063 12.4893 5.36979 12.5101 5.34896 12.5101Z" fill="#3F586A"/>
<path d="M4.83333 12.5101C4.98437 12.5101 5.11979 12.4476 5.21354 12.3434C5.22917 12.333 5.23958 12.3174 5.25 12.307C5.30208 12.2393 5.34375 12.1611 5.36458 12.0726H1.33333V10.9476H3.63021C3.94271 10.9476 4.19792 10.6872 4.19792 10.3643V1.03613H5.10938C5.20833 1.03613 5.29687 1.06738 5.375 1.11426C5.33854 0.833007 5.11458 0.614258 4.83333 0.614258C5.14063 0.614258 5.39063 0.874673 5.39063 1.19238V11.932C5.39063 12.2497 5.14063 12.5101 4.83333 12.5101ZM1.60938 12.5101C1.29688 12.5101 1.04688 12.2497 1.04688 11.932C1.04688 12.0882 1.10937 12.2288 1.20833 12.3278C1.21354 12.333 1.21875 12.3382 1.22396 12.3434C1.32292 12.4476 1.45833 12.5101 1.60938 12.5101Z" fill="#374D5D"/>
</g>
<path d="M1.33333 10.9476H1.04688V1.19238C1.04688 0.874673 1.30208 0.614258 1.61458 0.614258H4.19792V1.03613H1.90104C1.58854 1.03613 1.33333 1.29655 1.33333 1.61947V10.9476Z" fill="#527189"/>
<mask id="mask17_292_113714" style="mask-type:luminance" maskUnits="userSpaceOnUse" x="0" y="0" width="6" height="14">
<path d="M0.4375 0.239258H5.77083V13.1247H0.4375V0.239258Z" fill="white"/>
</mask>
<g mask="url(#mask17_292_113714)">
<path d="M1.20833 12.3278C1.10937 12.2288 1.04688 12.0882 1.04688 11.932V10.9476H1.33333V12.0726H1.07813C1.09896 12.1611 1.13542 12.2393 1.19271 12.307C1.19792 12.3122 1.20313 12.3226 1.20833 12.3278ZM5.375 1.11426C5.29687 1.06738 5.20833 1.03613 5.10938 1.03613H4.19792V0.614258H4.82813C4.82813 0.614258 4.82813 0.614258 4.83333 0.614258C5.11458 0.614258 5.33854 0.833007 5.375 1.11426Z" fill="#4B687D"/>
</g>
<mask id="mask18_292_113714" style="mask-type:luminance" maskUnits="userSpaceOnUse" x="0" y="12" width="2" height="2">
<path d="M0.4375 12.2393H1.77083V13.1247H0.4375V12.2393Z" fill="white"/>
</mask>
<g mask="url(#mask18_292_113714)">
<path d="M1.61003 12.5104C1.45898 12.5104 1.32357 12.4479 1.22461 12.3438C1.32878 12.4479 1.45898 12.5104 1.61003 12.5104Z" fill="#485C6C"/>
</g>
<mask id="mask19_292_113714" style="mask-type:luminance" maskUnits="userSpaceOnUse" x="0" y="10" width="6" height="4">
<path d="M0.4375 10.9062H5.77083V13.125H0.4375V10.9062Z" fill="white"/>
</mask>
<g mask="url(#mask19_292_113714)">
<path d="M4.82878 12.5107C4.97982 12.5107 5.11523 12.443 5.21419 12.3441C5.12044 12.4482 4.98503 12.5107 4.83398 12.5107H4.82878ZM5.25065 12.3076H1.33398V12.0732H5.36523C5.3444 12.1618 5.30274 12.2399 5.25065 12.3076Z" fill="#485C6C"/>
</g>
<mask id="mask20_292_113714" style="mask-type:luminance" maskUnits="userSpaceOnUse" x="0" y="10" width="2" height="4">
<path d="M0.4375 10.9062H1.77083V13.125H0.4375V10.9062Z" fill="white"/>
</mask>
<g mask="url(#mask20_292_113714)">
<path d="M1.33333 12.3076H1.19271C1.13542 12.2399 1.09896 12.1618 1.07812 12.0732H1.33333V12.3076Z" fill="#5A7789"/>
</g>
<mask id="mask21_292_113714" style="mask-type:luminance" maskUnits="userSpaceOnUse" x="0" y="12" width="6" height="2">
<path d="M0.4375 12.2393H5.77083V13.1247H0.4375V12.2393Z" fill="white"/>
</mask>
<g mask="url(#mask21_292_113714)">
<path d="M1.22461 12.3438C1.2194 12.3385 1.21419 12.3333 1.20898 12.3281C1.21419 12.3281 1.21419 12.3333 1.2194 12.3333C1.2194 12.3385 1.22461 12.3438 1.22461 12.3438Z" fill="#596D7A"/>
</g>
<mask id="mask22_292_113714" style="mask-type:luminance" maskUnits="userSpaceOnUse" x="0" y="12" width="2" height="2">
<path d="M0.4375 12.2393H1.77083V13.1247H0.4375V12.2393Z" fill="white"/>
</mask>
<g mask="url(#mask22_292_113714)">
<path d="M1.2194 12.3327C1.21419 12.3327 1.21419 12.3275 1.20898 12.3275C1.20378 12.3223 1.19857 12.3118 1.19336 12.3066C1.19857 12.3171 1.20898 12.3275 1.2194 12.3327Z" fill="#698493"/>
</g>
<mask id="mask23_292_113714" style="mask-type:luminance" maskUnits="userSpaceOnUse" x="0" y="12" width="6" height="2">
<path d="M0.4375 12.2393H5.77083V13.1247H0.4375V12.2393Z" fill="white"/>
</mask>
<g mask="url(#mask23_292_113714)">
<path d="M4.82813 12.5098H1.61458C1.61458 12.5098 1.61458 12.5098 1.60938 12.5098C1.45833 12.5098 1.32813 12.4473 1.22396 12.3431C1.22396 12.3431 1.21875 12.3379 1.21875 12.3327C1.25521 12.3743 1.30208 12.4056 1.34896 12.4368C1.34375 12.4056 1.33333 12.3848 1.33333 12.3535V12.3066H5.25C5.23958 12.3171 5.22917 12.3327 5.21354 12.3431C5.11458 12.4421 4.97917 12.5098 4.82813 12.5098Z" fill="#677A87"/>
</g>
<mask id="mask24_292_113714" style="mask-type:luminance" maskUnits="userSpaceOnUse" x="0" y="12" width="2" height="2">
<path d="M0.4375 12.2393H1.77083V13.1247H0.4375V12.2393Z" fill="white"/>
</mask>
<g mask="url(#mask24_292_113714)">
<path d="M1.34961 12.4368C1.30273 12.4056 1.25586 12.3743 1.2194 12.3327C1.20898 12.3275 1.19857 12.3171 1.19336 12.3066H1.33398V12.3535C1.33398 12.3848 1.3444 12.4056 1.34961 12.4368Z" fill="#76909D"/>
</g>
<path d="M7.15625 8.0931H6.09375V5.66081H7.15625V8.0931ZM7.15625 2.06185H6.09375V1.77539H7.15625V2.06185Z" fill="#5C809A"/>
<path d="M7.15625 1.77539H6.09375V1.55664H7.15625V1.77539Z" fill="#506F84"/>
<path d="M7.15625 5.66146H6.09375V4.51042H7.15625V5.66146ZM7.15625 3.21354H6.09375V2.0625H7.15625V3.21354Z" fill="#63869E"/>
<path d="M6.09375 4.50977H7.15625V3.21289H6.09375V4.50977Z" fill="#7594A7"/>
<path d="M6.09375 10.8698H7.15625V8.09375H6.09375V10.8698Z" fill="#557994"/>
<path d="M6.09375 11.3379H7.15625V10.8691H6.09375V11.3379Z" fill="#5B829D"/>
<path d="M7.15625 11.5671H6.09375V11.3379H7.15625V11.5671Z" fill="#7998A9"/>
<path d="M6.09245 11.5671H6.08203C6.09245 11.5254 6.09245 11.4837 6.09245 11.4421V11.5671ZM6.09245 1.68164C6.09245 1.63997 6.09245 1.59831 6.08203 1.55664H6.09245V1.68164Z" fill="#4A677D"/>
<path d="M6.08333 11.5671H6.04688V1.55664H6.08333C6.09375 1.59831 6.09375 1.63997 6.09375 1.68164V11.4421C6.09375 11.4837 6.09375 11.5254 6.08333 11.5671Z" fill="#587B92"/>
<path d="M61.265 8.0931H60.2441V5.66081H61.265V8.0931ZM61.265 2.06185H60.2441V1.77539H61.265V2.06185Z" fill="#5C809A"/>
<path d="M60.2441 1.77539H61.265V1.55664H60.2441V1.77539Z" fill="#506F84"/>
<path d="M61.265 5.66146H60.2441V4.51042H61.265V5.66146ZM61.265 3.21354H60.2441V2.0625H61.265V3.21354Z" fill="#63869E"/>
<path d="M60.2441 4.50977H61.265V3.21289H60.2441V4.50977Z" fill="#7594A7"/>
<path d="M60.2441 10.8698H61.265V8.09375H60.2441V10.8698Z" fill="#557994"/>
<path d="M60.2441 11.3379H61.265V10.8691H60.2441V11.3379Z" fill="#5B829D"/>
<path d="M60.2441 11.5671H61.265V11.3379H60.2441V11.5671Z" fill="#7998A9"/>
<path d="M66.9688 12.0882H61.3125C61.2865 12.0882 61.2656 12.0674 61.2656 12.0361V1.08822C61.2656 1.05697 61.2865 1.03613 61.3125 1.03613H66.9688C66.9948 1.03613 67.0156 1.05697 67.0156 1.08822V12.0361C67.0156 12.0674 66.9948 12.0882 66.9688 12.0882Z" fill="#567890"/>
<path d="M66.599 12.0465C66.75 11.9268 66.8542 11.7497 66.8542 11.5361V1.77572C66.8542 1.59342 66.7812 1.43197 66.6667 1.31217C66.776 1.32259 66.8802 1.36947 66.9688 1.42676C66.875 1.2028 66.6563 1.04134 66.4063 1.03613C66.7448 1.04655 67.0156 1.3278 67.0156 1.68197V11.4424C67.0156 11.7236 66.8438 11.9528 66.599 12.0465Z" fill="#719FBB"/>
<path d="M61.5521 11.9684C61.3854 11.8538 61.2656 11.6663 61.2656 11.4424V1.68197C61.2656 1.3278 61.5469 1.03613 61.8906 1.03613C61.75 1.03613 61.625 1.09342 61.5208 1.17676C61.5885 1.15072 61.651 1.12988 61.724 1.12988C61.7188 1.15072 61.7135 1.17155 61.7135 1.19238V1.47363C61.5885 1.59342 61.5052 1.7653 61.5052 1.95801V11.7184C61.5052 11.807 61.5208 11.8955 61.5521 11.9684Z" fill="#6A94B0"/>
<path d="M61.5195 1.17676C61.6237 1.09342 61.7487 1.03613 61.8893 1.03613C61.8893 1.03613 61.8893 1.03613 61.8945 1.03613C61.8372 1.03613 61.7904 1.05697 61.7383 1.06738C61.7331 1.08822 61.7279 1.10905 61.7227 1.12988C61.6497 1.12988 61.5872 1.15072 61.5195 1.17676Z" fill="#7CB0D0"/>
<path d="M66.666 1.3125C66.6504 1.3125 66.64 1.3125 66.6296 1.3125H66.5879V1.25C66.6139 1.27083 66.64 1.29167 66.666 1.3125Z" fill="#6A94B0"/>
<path d="M66.9688 1.42676C66.8802 1.36947 66.776 1.32259 66.6667 1.31217C66.6406 1.29134 66.6146 1.27051 66.5885 1.24967V1.19238C66.5885 1.15072 66.5729 1.11426 66.5677 1.07259C66.5104 1.05697 66.4531 1.03613 66.3906 1.03613C66.3958 1.03613 66.3958 1.03613 66.401 1.03613C66.401 1.03613 66.401 1.03613 66.4063 1.03613C66.6563 1.04134 66.875 1.2028 66.9688 1.42676Z" fill="#7CB0D0"/>
<path d="M66.3906 12.0885H66.3125V1.3125H66.5885V11.9323C66.5885 11.974 66.5729 12.0104 66.5677 12.0521C66.5104 12.0677 66.4531 12.0885 66.3906 12.0885Z" fill="#314453"/>
<path d="M66.5885 1.31185H66.3125V1.13477C66.4167 1.15039 66.5104 1.19206 66.5885 1.24935V1.31185Z" fill="#3D5566"/>
<path d="M66.5885 1.24967C66.5104 1.19238 66.4167 1.15072 66.3125 1.13509V1.03613H66.3906C66.4531 1.03613 66.5104 1.05697 66.5677 1.07259C66.5729 1.11426 66.5885 1.15072 66.5885 1.19238V1.24967Z" fill="#486479"/>
<path d="M61.9681 12.0882H61.8952C61.8379 12.0882 61.791 12.0674 61.7389 12.057C61.7285 12.0153 61.7129 11.9736 61.7129 11.932V1.47363C61.7858 1.40592 61.8743 1.35905 61.9681 1.33301V12.0882Z" fill="#6A8EA3"/>
<path d="M61.7129 1.47363V1.19238C61.7129 1.17155 61.7181 1.15072 61.7233 1.12988C61.7285 1.12988 61.7285 1.12988 61.7337 1.12988H61.9681V1.33301C61.8743 1.35905 61.7858 1.40592 61.7129 1.47363Z" fill="#7AA7BF"/>
<path d="M61.7227 1.12988C61.7279 1.10905 61.7331 1.08822 61.7383 1.06738C61.7904 1.05697 61.8372 1.03613 61.8945 1.03613H61.9674V1.12988H61.7331C61.7279 1.12988 61.7279 1.12988 61.7227 1.12988Z" fill="#8ABED8"/>
<mask id="mask25_292_113714" style="mask-type:luminance" maskUnits="userSpaceOnUse" x="61" y="0" width="7" height="14">
<path d="M61.7695 0.239258H67.1029V13.1247H61.7695V0.239258Z" fill="white"/>
</mask>
<g mask="url(#mask25_292_113714)">
<path d="M66.2689 12.5101H62.0137C61.9876 12.5101 61.9668 12.4893 61.9668 12.4632V0.655924C61.9668 0.635091 61.9876 0.614258 62.0137 0.614258H66.2689C66.2897 0.614258 66.3105 0.635091 66.3105 0.655924V12.4632C66.3105 12.4893 66.2897 12.5101 66.2689 12.5101Z" fill="#3F586A"/>
<path d="M65.7533 12.5101C65.8991 12.5101 66.0345 12.4476 66.1335 12.3434C66.1439 12.333 66.1595 12.3226 66.1699 12.307H66.1647C66.222 12.2393 66.2637 12.1611 66.2845 12.0726H62.2533V10.9476H64.5553C64.8678 10.9476 65.1178 10.6872 65.1178 10.3643V1.03613H66.0293C66.1283 1.03613 66.2168 1.06738 66.2949 1.11426C66.2585 0.833007 66.0345 0.614258 65.7533 0.614258C66.0605 0.614258 66.3105 0.874673 66.3105 1.19238V11.932C66.3105 12.2497 66.0605 12.5101 65.7533 12.5101ZM62.5293 12.5101C62.2168 12.5101 61.9668 12.2497 61.9668 11.932C61.9668 12.0882 62.0293 12.2288 62.1283 12.3278C62.1335 12.333 62.1387 12.3382 62.1439 12.3434C62.2428 12.4424 62.373 12.5101 62.5293 12.5101Z" fill="#374D5D"/>
</g>
<path d="M62.2552 10.9476H61.9688V1.19238C61.9688 0.874673 62.224 0.614258 62.5365 0.614258H65.1198V1.03613H62.8229C62.5104 1.03613 62.2552 1.29655 62.2552 1.61947V10.9476Z" fill="#527189"/>
<mask id="mask26_292_113714" style="mask-type:luminance" maskUnits="userSpaceOnUse" x="61" y="0" width="7" height="14">
<path d="M61.7695 0.239258H67.1029V13.1247H61.7695V0.239258Z" fill="white"/>
</mask>
<g mask="url(#mask26_292_113714)">
<path d="M62.1283 12.3278C62.0293 12.2288 61.9668 12.0882 61.9668 11.932V10.9476H62.2533V12.0726H61.9928C62.0189 12.1611 62.0553 12.2393 62.1126 12.307C62.1178 12.3174 62.123 12.3226 62.1283 12.3278ZM66.2949 1.11426C66.2168 1.06738 66.1283 1.03613 66.0293 1.03613H65.1178V0.614258H65.748C65.7533 0.614258 65.7533 0.614258 65.7533 0.614258C66.0345 0.614258 66.2585 0.833007 66.2949 1.11426Z" fill="#4B687D"/>
</g>
<mask id="mask27_292_113714" style="mask-type:luminance" maskUnits="userSpaceOnUse" x="61" y="12" width="3" height="2">
<path d="M61.7695 12.2393H63.1029V13.1247H61.7695V12.2393Z" fill="white"/>
</mask>
<g mask="url(#mask27_292_113714)">
<path d="M62.5299 12.5104C62.3737 12.5104 62.2435 12.4427 62.1445 12.3438C62.2435 12.4427 62.3789 12.5104 62.5299 12.5104Z" fill="#485C6C"/>
</g>
<mask id="mask28_292_113714" style="mask-type:luminance" maskUnits="userSpaceOnUse" x="61" y="10" width="7" height="4">
<path d="M61.7695 10.9062H67.1029V13.125H61.7695V10.9062Z" fill="white"/>
</mask>
<g mask="url(#mask28_292_113714)">
<path d="M65.7487 12.5107C65.8997 12.5107 66.0352 12.4482 66.1341 12.3441C66.0352 12.4482 65.8997 12.5107 65.7539 12.5107C65.7487 12.5107 65.7487 12.5107 65.7487 12.5107ZM66.1654 12.3076H62.2539V12.0732H66.2852C66.2643 12.1618 66.2227 12.2399 66.1654 12.3076Z" fill="#485C6C"/>
</g>
<mask id="mask29_292_113714" style="mask-type:luminance" maskUnits="userSpaceOnUse" x="61" y="10" width="3" height="4">
<path d="M61.7695 10.9062H63.1029V13.125H61.7695V10.9062Z" fill="white"/>
</mask>
<g mask="url(#mask29_292_113714)">
<path d="M62.2546 12.3076H62.1139C62.0566 12.2399 62.0202 12.1618 61.9941 12.0732H62.2546V12.3076Z" fill="#5A7789"/>
</g>
<mask id="mask30_292_113714" style="mask-type:luminance" maskUnits="userSpaceOnUse" x="61" y="12" width="7" height="2">
<path d="M61.7695 12.2393H67.1029V13.1247H61.7695V12.2393Z" fill="white"/>
</mask>
<g mask="url(#mask30_292_113714)">
<path d="M66.1341 12.3431C66.1445 12.3327 66.1549 12.3223 66.1654 12.3066H66.1706C66.1602 12.3223 66.1445 12.3327 66.1341 12.3431ZM62.1445 12.3431C62.1393 12.3379 62.1341 12.3327 62.1289 12.3275C62.1341 12.3327 62.1341 12.3327 62.1341 12.3327C62.1393 12.3379 62.1393 12.3379 62.1445 12.3431Z" fill="#596D7A"/>
</g>
<mask id="mask31_292_113714" style="mask-type:luminance" maskUnits="userSpaceOnUse" x="61" y="12" width="3" height="2">
<path d="M61.7695 12.2393H63.1029V13.1247H61.7695V12.2393Z" fill="white"/>
</mask>
<g mask="url(#mask31_292_113714)">
<path d="M62.1341 12.3327C62.1341 12.3327 62.1341 12.3327 62.1289 12.3275C62.1237 12.3223 62.1185 12.3171 62.1133 12.3066C62.1185 12.3171 62.1289 12.3275 62.1341 12.3327Z" fill="#698493"/>
</g>
<mask id="mask32_292_113714" style="mask-type:luminance" maskUnits="userSpaceOnUse" x="61" y="12" width="7" height="2">
<path d="M61.7695 12.2393H67.1029V13.1247H61.7695V12.2393Z" fill="white"/>
</mask>
<g mask="url(#mask32_292_113714)">
<path d="M65.7493 12.5098H62.5358C62.5358 12.5098 62.5358 12.5098 62.5306 12.5098C62.3796 12.5098 62.2441 12.4421 62.1452 12.3431C62.14 12.3379 62.14 12.3379 62.1348 12.3327C62.1764 12.3743 62.2233 12.4056 62.2702 12.4368C62.265 12.4056 62.2546 12.3848 62.2546 12.3535V12.3066H66.166C66.1556 12.3223 66.1452 12.3327 66.1348 12.3431C66.0358 12.4473 65.9004 12.5098 65.7493 12.5098Z" fill="#677A87"/>
</g>
<mask id="mask33_292_113714" style="mask-type:luminance" maskUnits="userSpaceOnUse" x="61" y="12" width="3" height="2">
<path d="M61.7695 12.2393H63.1029V13.1247H61.7695V12.2393Z" fill="white"/>
</mask>
<g mask="url(#mask33_292_113714)">
<path d="M62.2695 12.4368C62.2227 12.4056 62.1758 12.3743 62.1341 12.3327C62.1289 12.3275 62.1185 12.3171 62.1133 12.3066H62.2539V12.3535C62.2539 12.3848 62.2643 12.4056 62.2695 12.4368Z" fill="#76909D"/>
</g>
</svg>
