<svg width="384" height="440" viewBox="0 0 384 440" fill="none" xmlns="http://www.w3.org/2000/svg">
<mask id="mask0_315_103177" style="mask-type:luminance" maskUnits="userSpaceOnUse" x="0" y="0" width="384" height="440">
<path d="M0 0H383.948V440H0V0Z" fill="white"/>
</mask>
<g mask="url(#mask0_315_103177)">
<path fill-rule="evenodd" clip-rule="evenodd" d="M235.531 171.839C240.917 176.057 248.802 172.859 254.016 174.063C263.089 176.156 264.37 185.802 269.536 193.318C267.703 205.104 269.307 214.063 265.104 228.125C281.057 248.182 300.536 269.177 318.328 292.563C326.807 303.714 335.156 314.99 344.198 325.891C348.667 331.276 353.839 336.016 358.245 341.443C362.661 346.885 365.672 353.604 370.073 358.474C373.104 361.833 377.01 362.964 378.943 368.104C381.724 375.474 381.307 384.797 382.641 396.245C383.964 407.589 385.094 423.057 371.552 421.427C371.083 436.156 356.906 440.125 342.724 439.943C335.729 439.854 323.74 439.443 320.547 436.24C313.026 428.703 319 420.568 314.63 412.542C304.5 412.901 291.083 406.938 292.453 393.286C282.75 390.948 273.266 389.578 267.323 388.839C265.646 384.839 263.458 381.354 263.625 375.51C260.115 372.115 252.802 372.531 248.839 369.583C248.844 359.328 253.234 350.448 248.839 342.922C243.609 333.964 232.083 334.557 222.969 328.849C225.443 314.781 222.49 299.156 207.443 302.927C198.729 293.641 190.755 283.604 183.786 272.563C177.474 275.281 170.224 274.984 163.828 272.563C155.547 267.057 153.323 256.198 146.828 248.12C138.141 237.318 125.62 226.516 110.604 223.677C96.4635 221.01 71.7083 225.99 52.9427 222.938C43.8125 221.453 32.4531 218.724 24.8541 214.052C8.7031 204.12 0.036436 180.62 0.458311 160.724C0.984353 135.896 15.2291 121.089 18.1979 99.9948C15.3281 77.4167 7.17185 48.3906 26.3281 21.5C36.8385 6.73959 59.8854 -3.68749 87.6823 2.98439C99.4114 5.79689 108.859 13.7083 120.948 14.8333C136.484 16.2761 150.125 11 165.302 13.349C172.354 14.4427 184.344 17.4636 190.437 20.7552C209.307 30.9688 226.568 45.8229 237.01 61.4896C244.484 77.3386 247.901 88.9844 242.922 108.151C240.266 118.385 234.781 125.51 231.833 135.552C230.302 140.771 227.297 146.057 227.401 149.625C227.63 157.87 233.812 163.792 235.531 171.828V171.839ZM221.479 170.359C196.318 140.474 238.75 102.62 230.354 65.9323C223.156 51.0938 208.609 41.5729 195.609 32.6042C194.26 31.6719 193.203 29.7448 191.911 28.9011C168.021 13.3333 146.474 22.4531 115.031 20.0156C103.802 19.1458 96.3229 13.7865 87.6875 10.3906C76.8646 6.12501 66.0833 7.10939 54.4271 8.90626C42.2083 16.7604 26.4114 25.3958 27.0729 40.7552C27.5469 51.7604 36.9219 62.2292 36.6823 74.8229C32.8698 105.573 6.49998 133.094 10.8073 167.401C17.8073 186.245 30.4271 208.688 52.9427 211.094C60.6198 211.917 66.6302 211.635 73.6458 211.094C86.9635 210.068 99.9531 201.396 116.521 203.688C130.917 205.682 143.286 216.276 148.307 225.906C151.526 232.094 153.484 234.547 156.437 240.719C162.63 253.667 163.641 269.906 181.573 259.24C190.344 267.979 197.115 278.724 205.229 288.12C207.464 276.823 224.745 275.859 230.359 284.417C235.135 291.698 232.776 304.203 234.057 314.042C250.495 312.594 272.531 327.885 265.104 352.557C269.068 357.969 273.339 363.068 275.453 370.333C284.297 370.432 290.599 368.573 299.109 372.552C300.995 379.51 300.391 381.974 302.068 387.365C309.75 389.313 315.073 389.031 324.245 391.068C282.411 331.516 230.297 282.26 188.969 222.203C184.589 214.005 179.401 206.609 172.708 200.729C168.021 204.182 163.01 207.307 159.401 211.839C174.984 235.724 192.036 258.141 208.932 280.714C199.76 277.313 196.807 267.677 191.187 260.719C184.615 254.464 180.568 245.682 174.187 239.24C168.802 228.589 159.984 221.375 154.964 210.354C160.589 206.115 166.245 201.906 171.229 197.026C162.854 185.292 150.177 172.958 151.271 156.292C129.792 172.745 99.2656 189.99 67.7344 183.693C65.0156 181.974 62.1302 180.427 58.125 179.99C42.1041 160.469 37.9219 134.01 48.5156 111.854C53.1354 102.188 62.1823 101.938 72.1719 98.5208C92.3541 91.625 107.25 75.9167 117.266 60.75C117.49 55.6302 117.427 54.6146 118.745 50.3802C140.365 45.5521 156.635 43.8021 177.141 56.3073C183.505 63.9844 190.937 69.0833 194.146 78.5261C203.359 105.641 177.167 132.026 163.839 148.146C167.214 153.891 174.047 156.182 177.146 162.214C195.406 176.354 207.995 196.255 221.5 214.802C235 233.349 249.953 251.224 263.635 269.609C291.37 306.875 320.682 342.568 350.125 377.74C352.839 382.854 357.531 388.359 361.953 393.292C365.854 397.646 371.068 406.156 375.26 405.141C374.995 399.167 372.266 381.526 370.083 370.333C338.63 334.484 309.12 292.016 276.203 254.052C271.547 248.688 265.411 242.693 259.937 235.536C255.641 229.917 245.359 220.339 244.417 215.536C241.005 198.214 266.755 190.563 251.068 180.729C241.385 183.109 228.141 178.26 221.479 170.354V170.359ZM25.5833 63.7136C26.901 70.7292 26.9791 79.6146 31.4948 84.4531C34.7396 69.6042 30.9219 58.4531 24.8437 45.9375C22.1666 53.3021 24.6198 58.5938 25.5833 63.7136ZM159.38 52.6042C151.193 50.1979 133.177 51.7813 125.375 58.5313C120.427 62.8073 118.651 71.9636 113.547 77.7865C112.589 78.8802 110.422 79.4844 109.109 80.75C100.385 89.1771 89.0364 97.75 77.3229 102.224C71.1927 104.568 64.5833 104.182 60.3229 108.151C53.2656 114.729 50.526 135.781 51.4531 148.146C52.0677 156.375 54.6927 170.552 58.8437 175.547C64.4427 182.292 88.5937 182.469 95.0677 181.474C113.74 178.599 130.969 167.578 145.333 157.031C160.214 146.115 173.609 133.521 183.036 120C198.943 90.1667 187.37 60.8333 159.375 52.6042H159.38ZM216.297 141.479C224.719 123.938 244.115 100.615 233.302 77.0417C234.557 102.323 219.406 117.646 216.302 141.479H216.297ZM358.964 393.286C325.182 350.88 290.172 309.755 257.693 266.646C232.995 233.865 209.401 200.495 183.026 169.625C178.208 167.536 175.818 164.167 171.203 159.995C168.187 157.271 162.521 150.036 157.896 151.109C151.219 152.646 154.344 165.458 155.677 168.88C161.328 183.406 176.359 199.141 185.245 211.099C195.495 224.885 207.307 242.818 215.557 254.797C263.833 310.359 310.964 367.073 356.01 425.875C362.51 421.307 354.068 414.698 351.573 410.323C347.458 405.563 344.307 399.828 339.01 396.25C298.63 344.807 254.062 293.979 214.818 241.464C201.385 223.49 186.932 206.474 174.156 188.88C167.833 180.172 157.875 166.557 159.375 155.552C165.573 158.74 171.359 163.229 175.635 168.141C182.427 175.943 188.63 185.557 194.854 194.063C238.057 253.068 287.349 307.667 330.13 366.63C339.667 378.448 350.375 391.422 359.698 402.922C362.625 406.536 365.708 412.302 370.786 412.552C371.182 404.359 363.281 398.729 358.958 393.302L358.964 393.286ZM169.724 173.328C182.417 195.172 198.01 214.109 214.818 231.839C230.505 252.651 246.339 273.328 261.385 294.786C279.109 312.823 294.969 334.365 311.656 354.781C326.01 372.344 342.12 390.229 356.01 407.365C357.224 408.859 359.646 413.5 362.661 411.807C355.031 399.375 344.594 388.672 335.312 377C320.521 358.401 305.365 339.354 291.698 320.708C286.453 313.557 281.089 305.932 275.432 299.229C245.464 263.729 218.687 229.844 190.422 192.583C186.349 187.214 176.875 172.12 172.682 171.104C171.599 170.844 170.099 170.766 168.984 171.844C169.578 172.01 169.854 172.474 169.734 173.333L169.724 173.328ZM83.2344 218.505C90.7916 217.677 99.2656 214.391 106.891 214.057C117.333 213.609 132.005 218.318 142.375 223.688C135.62 214.526 126.667 208.068 115.026 206.651C94.9844 204.214 75.1979 217.646 51.4479 214.057C30.4479 210.885 20.4948 194.599 11.5312 177.766C15.5521 214.266 60.2239 221.016 83.2344 218.5V218.505ZM251.781 219.979C252.219 212.563 256.292 201.615 255.479 193.318C251.516 199.141 241.771 213.833 251.781 219.984V219.979ZM209.641 288.87C218.5 287.891 224.297 289.984 229.599 292.573C227.807 283.229 221.948 281.438 211.12 282.203C210.568 284.88 208.214 286.182 209.646 288.87H209.641ZM233.297 319.229C248.146 324.552 261.5 332.932 260.651 351.818C272.552 336.99 249.604 310.589 233.297 319.229ZM259.177 361.448C265.125 363.141 268.193 367.719 271.745 371.818C272.141 363.318 263.953 351.557 259.177 361.453V361.448ZM275.437 374.036C278.531 382.51 289.594 379.823 297.615 382.188C298.625 379.99 297.182 378.958 297.615 375.521C291.74 372.641 285.766 372.875 275.432 374.042L275.437 374.036ZM319.047 402.172C319.948 398.177 318.922 398.599 319.786 394.026C315.714 390.432 307.083 392.771 303.521 390.323C302.016 398.911 312.062 399.922 319.047 402.172ZM324.964 419.214C333.25 419 333.609 417.693 344.927 417.734C338.625 408.984 332.651 399.911 324.964 392.552C319.417 399.583 323.797 406.995 324.964 419.208V419.214ZM324.964 422.167C324.646 425.698 325.844 427.708 327.182 429.578C340.141 428.943 344.354 431 351.578 426.615C345.87 416.911 336.083 422.094 324.964 422.172V422.167Z" fill="black"/>
</g>
<path fill-rule="evenodd" clip-rule="evenodd" d="M251.057 180.734C266.745 190.568 240.995 198.219 244.406 215.547C245.349 220.344 255.63 229.927 259.927 235.542C265.401 242.698 271.537 248.693 276.188 254.057C309.109 292.016 338.62 334.49 370.073 370.339C372.255 381.531 374.984 399.177 375.245 405.146C371.057 406.161 365.844 397.656 361.938 393.297C357.521 388.365 352.828 382.859 350.115 377.745C320.672 342.573 291.359 306.885 263.625 269.615C249.938 251.229 234.99 233.354 221.484 214.807C207.984 196.26 195.391 176.365 177.135 162.224C174.042 156.188 167.208 153.901 163.828 148.151C177.156 132.031 203.349 105.646 194.135 78.5313C190.927 69.0885 183.49 63.9896 177.13 56.3125C156.625 43.8125 140.354 45.5625 118.734 50.3906C117.417 54.6198 117.479 55.6354 117.255 60.7552C107.24 75.9219 92.3438 91.6302 72.1615 98.526C62.1719 101.943 53.125 102.198 48.5053 111.859C37.9115 134.021 42.0938 160.474 58.1146 179.995C62.1198 180.432 65.0053 181.979 67.724 183.698C99.2553 189.995 129.781 172.75 151.26 156.297C150.167 172.964 162.844 185.302 171.219 197.031C166.234 201.911 160.578 206.12 154.953 210.365C159.974 221.38 168.792 228.594 174.177 239.245C180.557 245.688 184.604 254.474 191.177 260.724C196.797 267.682 199.75 277.318 208.917 280.724C192.026 258.146 174.974 235.734 159.391 211.844C163 207.313 168.01 204.188 172.698 200.734C179.391 206.615 184.578 214.01 188.958 222.214C230.292 282.266 282.406 331.521 324.234 391.078C315.063 389.036 309.74 389.318 302.057 387.375C300.38 381.979 300.984 379.516 299.099 372.563C290.589 368.578 284.287 370.438 275.443 370.339C273.328 363.073 269.052 357.974 265.094 352.563C272.521 327.891 250.484 312.599 234.047 314.052C232.766 304.214 235.125 291.703 230.349 284.427C224.734 275.865 207.453 276.828 205.219 288.13C197.104 278.729 190.328 267.984 181.563 259.245C163.63 269.911 162.62 253.672 156.427 240.729C153.474 234.552 151.516 232.099 148.297 225.917C143.276 216.281 130.901 205.688 116.51 203.698C99.9428 201.406 86.9532 210.078 73.6355 211.104C66.6198 211.641 60.6094 211.922 52.9323 211.104C30.4167 208.693 17.7969 186.25 10.7969 167.406C6.48963 133.099 32.8594 105.578 36.6719 74.8281C36.9115 62.2396 27.5365 51.7708 27.0625 40.7604C26.4011 25.401 42.1928 16.7656 54.4115 8.91146C66.0678 7.11459 76.8542 6.13542 87.6771 10.3958C96.3073 13.7917 103.792 19.151 115.031 20.0208C146.474 22.4583 168.016 13.3438 191.912 28.9115C193.198 29.75 194.255 31.6823 195.604 32.6146C208.604 41.5833 223.151 51.1042 230.349 65.9427C238.75 102.625 196.313 140.479 221.479 170.37C228.115 178.286 241.359 183.135 251.031 180.755L251.057 180.734ZM57.3698 73.3438C70.1823 79.151 91.3021 67.5417 93.5938 49.6406C95.4115 35.4427 87.0521 28.151 78.8073 22.2396C72.0157 21.5521 66.9011 21.4271 64.7605 22.2396C38.4375 30.0729 34.2969 62.875 57.3698 73.3438Z" fill="#B1953A"/>
<path fill-rule="evenodd" clip-rule="evenodd" d="M64.7656 22.2396C66.9062 21.4271 72.0208 21.5521 78.8125 22.2396C87.0573 28.1511 95.4167 35.4427 93.5989 49.6407C91.3073 67.5417 70.1875 79.1511 57.375 73.3438C34.2969 62.875 38.4427 30.073 64.7656 22.2396ZM54.4167 31.8646C73.8698 28.1927 84.8333 38.7292 87.6823 54.0834C100.703 31.099 67.2031 15.099 54.4167 31.8646ZM52.1979 45.198C47.8073 52.1198 53.9479 66.4011 62.5521 68.1563C85.8958 72.9219 79.8854 35.0157 61.8125 39.2709C58.5833 40.0313 53.6875 42.849 52.1979 45.198Z" fill="black"/>
<path fill-rule="evenodd" clip-rule="evenodd" d="M87.6823 54.0833C84.8333 38.7291 73.8698 28.1926 54.4166 31.8645C67.2031 15.0989 100.703 31.0989 87.6823 54.0833Z" fill="#9C7D0D"/>
<path fill-rule="evenodd" clip-rule="evenodd" d="M24.8489 45.9375C30.9271 58.4531 34.7448 69.6042 31.5 84.4531C26.9843 79.6198 26.9062 70.7292 25.5885 63.7135C24.625 58.5938 22.1718 53.3021 24.8489 45.9375Z" fill="#9C7D0D"/>
<path fill-rule="evenodd" clip-rule="evenodd" d="M233.307 77.0417C244.125 100.615 224.724 123.938 216.307 141.479C219.411 117.646 234.563 102.323 233.307 77.0417Z" fill="#9C7D0D"/>
<path fill-rule="evenodd" clip-rule="evenodd" d="M370.807 412.547C365.729 412.292 362.646 406.531 359.714 402.917C350.396 391.417 339.688 378.443 330.146 366.625C287.365 307.662 238.068 253.068 194.875 194.057C188.646 185.552 182.448 175.938 175.656 168.135C171.375 163.224 165.589 158.734 159.391 155.547C157.896 166.552 167.854 180.167 174.177 188.875C186.953 206.469 201.406 223.484 214.833 241.458C254.078 293.979 298.646 344.807 339.026 396.245C344.328 399.823 347.474 405.552 351.594 410.318C354.089 414.698 362.531 421.302 356.031 425.87C310.984 367.068 263.854 310.349 215.573 254.787C207.323 242.813 195.51 224.88 185.266 211.094C176.375 199.13 161.349 183.401 155.698 168.875C154.365 165.453 151.24 152.641 157.911 151.104C162.542 150.031 168.208 157.266 171.219 159.99C175.839 164.162 178.229 167.531 183.047 169.62C209.422 200.49 233.01 233.859 257.708 266.641C290.193 309.755 325.203 350.875 358.984 393.281C363.297 398.693 371.198 404.328 370.802 412.526L370.807 412.547Z" fill="#B1953A"/>
<path fill-rule="evenodd" clip-rule="evenodd" d="M168.995 171.839C170.115 170.76 171.615 170.839 172.693 171.099C176.885 172.115 186.359 187.208 190.432 192.578C218.698 229.839 245.474 263.719 275.443 299.224C281.104 305.927 286.469 313.552 291.708 320.703C305.375 339.349 320.531 358.396 335.323 376.99C344.609 388.662 355.047 399.37 362.672 411.802C359.656 413.49 357.234 408.849 356.021 407.354C342.13 390.224 326.021 372.333 311.667 354.771C294.984 334.359 279.12 312.818 261.401 294.781C246.354 273.318 230.516 252.646 214.828 231.828C198.026 214.104 182.432 195.162 169.734 173.318C169.854 172.469 169.578 172.01 169 171.844L168.995 171.839Z" fill="#9C7D0D"/>
<path fill-rule="evenodd" clip-rule="evenodd" d="M255.49 193.323C256.302 201.625 252.229 212.568 251.797 219.984C241.781 213.823 251.531 199.13 255.495 193.318L255.49 193.323Z" fill="#9C7D0D"/>
<path fill-rule="evenodd" clip-rule="evenodd" d="M211.141 282.198C221.969 281.432 227.828 283.229 229.62 292.568C224.318 289.979 218.521 287.891 209.661 288.865C208.219 286.177 210.573 284.875 211.135 282.198H211.141Z" fill="#9C7D0D"/>
<path fill-rule="evenodd" clip-rule="evenodd" d="M260.661 351.812C261.51 332.932 248.161 324.552 233.312 319.229C249.62 310.583 272.573 336.984 260.667 351.812H260.661Z" fill="#9C7D0D"/>
<path fill-rule="evenodd" clip-rule="evenodd" d="M271.755 371.812C268.203 367.714 265.135 363.135 259.188 361.443C263.964 351.547 272.151 363.307 271.755 371.807V371.812Z" fill="#9C7D0D"/>
<path fill-rule="evenodd" clip-rule="evenodd" d="M297.625 375.516C297.188 378.958 298.635 379.99 297.625 382.182C289.599 379.818 278.536 382.505 275.448 374.037C285.776 372.865 291.755 372.635 297.62 375.51L297.625 375.516Z" fill="#9C7D0D"/>
<path fill-rule="evenodd" clip-rule="evenodd" d="M303.542 390.333C307.104 392.781 315.734 390.448 319.807 394.036C318.943 398.604 319.969 398.188 319.068 402.182C312.068 399.922 302.021 398.906 303.542 390.333Z" fill="#9C7D0D"/>
<path fill-rule="evenodd" clip-rule="evenodd" d="M324.979 392.547C332.661 399.906 338.641 408.979 344.938 417.729C333.625 417.688 333.266 419 324.979 419.214C323.813 407.01 319.432 399.599 324.979 392.557V392.547Z" fill="#B1953A"/>
<path fill-rule="evenodd" clip-rule="evenodd" d="M351.594 426.625C344.375 431.01 340.156 428.953 327.198 429.583C325.859 427.719 324.661 425.703 324.979 422.177C336.104 422.089 345.885 416.911 351.599 426.62L351.594 426.625Z" fill="#9C7D0D"/>
<path fill-rule="evenodd" clip-rule="evenodd" d="M11.5417 177.771C20.5053 194.599 30.4584 210.885 51.4584 214.063C75.2084 217.646 94.9948 204.219 115.031 206.656C126.677 208.068 135.63 214.526 142.385 223.688C132.016 218.318 117.344 213.609 106.901 214.063C99.2761 214.391 90.8021 217.682 83.2448 218.505C60.2292 221.021 15.5625 214.271 11.5365 177.771H11.5417Z" fill="#9C7D0D"/>
</svg>
