<svg width="440" height="384" viewBox="0 0 440 384" fill="none" xmlns="http://www.w3.org/2000/svg">
<mask id="mask0_315_103178" style="mask-type:luminance" maskUnits="userSpaceOnUse" x="0" y="0" width="440" height="384">
<path d="M0 383.948L0 6.99377e-05H440V383.948H0Z" fill="white"/>
</mask>
<g mask="url(#mask0_315_103178)">
<path fill-rule="evenodd" clip-rule="evenodd" d="M171.839 148.417C176.057 143.031 172.859 135.146 174.063 129.932C176.156 120.859 185.802 119.578 193.318 114.412C205.104 116.245 214.063 114.641 228.125 118.844C248.182 102.891 269.177 83.4116 292.563 65.6199C303.714 57.1407 314.99 48.7918 325.891 39.7501C331.276 35.2814 336.016 30.1095 341.443 25.7032C346.885 21.2866 353.604 18.2762 358.474 13.8751C361.833 10.8439 362.964 6.93761 368.104 5.00532C375.474 2.22407 384.797 2.64074 396.245 1.3074C407.589 -0.015515 423.057 -1.14572 421.427 12.3959C436.156 12.8647 440.125 27.0418 439.943 41.2241C439.854 48.2189 439.443 60.2084 436.24 63.4011C428.703 70.922 420.568 64.948 412.542 69.3178C412.901 79.448 406.938 92.8647 393.286 91.4949C390.948 101.198 389.578 110.682 388.839 116.625C384.839 118.302 381.354 120.49 375.51 120.323C372.115 123.833 372.531 131.146 369.583 135.109C359.328 135.104 350.448 130.714 342.922 135.109C333.964 140.339 334.557 151.865 328.849 160.979C314.781 158.505 299.156 161.458 302.927 176.505C293.641 185.219 283.604 193.193 272.563 200.162C275.281 206.474 274.984 213.724 272.563 220.12C267.057 228.401 256.198 230.625 248.12 237.12C237.318 245.807 226.516 258.328 223.677 273.344C221.01 287.484 225.99 312.24 222.938 331.005C221.453 340.136 218.724 351.495 214.052 359.094C204.12 375.245 180.62 383.912 160.724 383.49C135.896 382.964 121.089 368.719 99.9948 365.75C77.4167 368.62 48.3906 376.776 21.5 357.62C6.73959 347.109 -3.68749 324.063 2.98439 296.266C5.79689 284.537 13.7083 275.089 14.8333 263C16.2761 247.464 11 233.823 13.349 218.646C14.4427 211.594 17.4636 199.604 20.7552 193.511C30.9688 174.641 45.8229 157.38 61.4896 146.938C77.3386 139.464 88.9844 136.047 108.151 141.026C118.385 143.682 125.51 149.167 135.552 152.115C140.771 153.646 146.057 156.651 149.625 156.547C157.87 156.318 163.792 150.136 171.828 148.417H171.839ZM170.359 162.469C140.474 187.63 102.62 145.198 65.9323 153.594C51.0938 160.792 41.5729 175.339 32.6042 188.339C31.6719 189.688 29.7448 190.745 28.9011 192.037C13.3333 215.927 22.4531 237.474 20.0156 268.917C19.1458 280.146 13.7865 287.625 10.3906 296.261C6.12501 307.083 7.10939 317.865 8.90626 329.521C16.7604 341.74 25.3958 357.537 40.7552 356.875C51.7604 356.401 62.2292 347.026 74.8229 347.266C105.573 351.078 133.094 377.448 167.401 373.141C186.245 366.141 208.688 353.521 211.094 331.005C211.917 323.328 211.635 317.318 211.094 310.302C210.068 296.984 201.396 283.995 203.688 267.427C205.682 253.031 216.276 240.662 225.906 235.641C232.094 232.422 234.547 230.464 240.719 227.511C253.667 221.318 269.906 220.307 259.24 202.375C267.979 193.604 278.724 186.833 288.12 178.719C276.823 176.484 275.859 159.203 284.417 153.589C291.698 148.813 304.203 151.172 314.042 149.891C312.594 133.453 327.885 111.417 352.557 118.844C357.969 114.88 363.068 110.609 370.333 108.495C370.432 99.6511 368.573 93.3491 372.552 84.8386C379.51 82.9532 381.974 83.5574 387.365 81.8803C389.313 74.198 389.031 68.8751 391.068 59.7032C331.516 101.537 282.26 153.651 222.203 194.979C214.005 199.359 206.609 204.547 200.729 211.24C204.182 215.927 207.307 220.938 211.839 224.547C235.724 208.964 258.141 191.912 280.714 175.016C277.313 184.188 267.677 187.141 260.719 192.761C254.464 199.333 245.682 203.38 239.24 209.761C228.589 215.146 221.375 223.964 210.354 228.984C206.115 223.359 201.906 217.703 197.026 212.719C185.292 221.094 172.958 233.771 156.292 232.677C172.745 254.156 189.99 284.682 183.693 316.214C181.974 318.932 180.427 321.818 179.99 325.823C160.469 341.844 134.01 346.026 111.854 335.432C102.188 330.813 101.938 321.766 98.5208 311.776C91.625 291.594 75.9167 276.698 60.75 266.682C55.6302 266.458 54.6146 266.521 50.3802 265.203C45.5521 243.583 43.8021 227.313 56.3073 206.807C63.9844 200.443 69.0833 193.011 78.5261 189.802C105.641 180.589 132.026 206.781 148.146 220.109C153.891 216.734 156.182 209.901 162.214 206.802C176.354 188.542 196.255 175.953 214.802 162.448C233.349 148.948 251.224 133.995 269.609 120.313C306.875 92.5782 342.568 63.2657 377.74 33.823C382.854 31.1095 388.359 26.4168 393.292 21.9949C397.646 18.0939 406.156 12.8803 405.141 8.68761C399.167 8.95324 381.526 11.6824 370.333 13.8647C334.484 45.3178 292.016 74.8282 254.052 107.745C248.688 112.401 242.693 118.537 235.536 124.011C229.917 128.307 220.339 138.589 215.536 139.531C198.214 142.943 190.563 117.193 180.729 132.88C183.109 142.563 178.26 155.807 170.354 162.469H170.359ZM63.7136 358.365C70.7292 357.047 79.6146 356.969 84.4531 352.453C69.6042 349.208 58.4531 353.026 45.9375 359.104C53.3021 361.781 58.5938 359.328 63.7136 358.365ZM52.6042 224.568C50.1979 232.755 51.7813 250.771 58.5313 258.573C62.8073 263.521 71.9636 265.297 77.7865 270.401C78.8802 271.359 79.4844 273.526 80.75 274.839C89.1771 283.563 97.75 294.912 102.224 306.625C104.568 312.755 104.182 319.365 108.151 323.625C114.729 330.682 135.781 333.422 148.146 332.495C156.375 331.88 170.552 329.255 175.547 325.104C182.292 319.505 182.469 295.354 181.474 288.88C178.599 270.208 167.578 252.979 157.031 238.615C146.115 223.734 133.521 210.339 120 200.912C90.1667 185.005 60.8333 196.578 52.6042 224.573V224.568ZM141.479 167.651C123.938 159.229 100.615 139.833 77.0417 150.646C102.323 149.391 117.646 164.542 141.479 167.646V167.651ZM393.286 24.9845C350.88 58.7657 309.755 93.7761 266.646 126.255C233.865 150.953 200.495 174.547 169.625 200.922C167.536 205.74 164.167 208.13 159.995 212.745C157.271 215.761 150.036 221.427 151.109 226.052C152.646 232.729 165.458 229.604 168.88 228.271C183.406 222.62 199.141 207.589 211.099 198.703C224.885 188.453 242.818 176.641 254.797 168.391C310.359 120.115 367.073 72.9845 425.875 27.9376C421.307 21.4376 414.698 29.8803 410.323 32.3751C405.563 36.4897 399.828 39.6407 396.25 44.9376C344.807 85.3178 293.979 129.886 241.464 169.13C223.49 182.563 206.474 197.016 188.88 209.792C180.172 216.115 166.557 226.073 155.552 224.573C158.74 218.375 163.229 212.589 168.141 208.313C175.943 201.521 185.557 195.318 194.063 189.094C253.068 145.891 307.667 96.5991 366.63 53.8178C378.448 44.2813 391.422 33.573 402.922 24.2501C406.536 21.323 412.302 18.2397 412.552 13.1616C404.359 12.7657 398.729 20.6668 393.302 24.9897L393.286 24.9845ZM173.328 214.224C195.172 201.531 214.109 185.938 231.839 169.13C252.651 153.443 273.328 137.609 294.786 122.563C312.823 104.839 334.365 88.9793 354.781 72.2918C372.344 57.9376 390.229 41.8282 407.365 27.9376C408.859 26.7241 413.5 24.3022 411.807 21.2866C399.375 28.9168 388.672 39.3543 377 48.6355C358.401 63.4272 339.354 78.5834 320.708 92.2501C313.557 97.4949 305.932 102.859 299.229 108.516C263.729 138.484 229.844 165.261 192.583 193.526C187.214 197.599 172.12 207.073 171.104 211.266C170.844 212.349 170.766 213.849 171.844 214.964C172.01 214.37 172.474 214.094 173.333 214.214L173.328 214.224ZM218.505 300.714C217.677 293.156 214.391 284.682 214.057 277.057C213.609 266.615 218.318 251.943 223.688 241.573C214.526 248.328 208.068 257.281 206.651 268.922C204.214 288.964 217.646 308.75 214.057 332.5C210.885 353.5 194.599 363.453 177.766 372.417C214.266 368.396 221.016 323.724 218.5 300.714H218.505ZM219.979 132.167C212.563 131.729 201.615 127.656 193.318 128.469C199.141 132.432 213.833 142.177 219.984 132.167H219.979ZM288.87 174.307C287.891 165.448 289.984 159.651 292.573 154.349C283.229 156.141 281.438 162 282.203 172.828C284.88 173.38 286.182 175.734 288.87 174.302V174.307ZM319.229 150.651C324.552 135.802 332.932 122.448 351.818 123.297C336.99 111.396 310.589 134.344 319.229 150.651ZM361.448 124.771C363.141 118.823 367.719 115.755 371.818 112.203C363.318 111.807 351.557 119.995 361.453 124.771H361.448ZM374.036 108.511C382.51 105.417 379.823 94.3543 382.188 86.3334C379.99 85.323 378.958 86.7657 375.521 86.3334C372.641 92.2084 372.875 98.1824 374.042 108.516L374.036 108.511ZM402.172 64.9011C398.177 64.0001 398.599 65.0261 394.026 64.1616C390.432 68.2345 392.771 76.8647 390.323 80.4272C398.911 81.9324 399.922 71.8855 402.172 64.9011ZM419.214 58.9845C419 50.698 417.693 50.3387 417.734 39.0209C408.984 45.323 399.911 51.297 392.552 58.9845C399.583 64.5313 406.995 60.1511 419.208 58.9845H419.214ZM422.167 58.9845C425.698 59.3022 427.708 58.1043 429.578 56.7657C428.943 43.8074 431 39.5939 426.615 32.3699C416.911 38.0782 422.094 47.8647 422.172 58.9845H422.167Z" fill="black"/>
</g>
<path fill-rule="evenodd" clip-rule="evenodd" d="M180.734 132.891C190.568 117.203 198.219 142.953 215.547 139.542C220.344 138.599 229.927 128.318 235.542 124.021C242.698 118.547 248.693 112.411 254.057 107.76C292.016 74.8386 334.49 45.3282 370.339 13.875C381.531 11.6927 399.177 8.96357 405.146 8.70315C406.161 12.8907 397.656 18.1042 393.297 22.0104C388.365 26.4271 382.859 31.1198 377.745 33.8334C342.573 63.2761 306.885 92.5886 269.615 120.323C251.229 134.01 233.354 148.958 214.807 162.464C196.26 175.964 176.365 188.557 162.224 206.813C156.188 209.906 153.901 216.74 148.151 220.12C132.031 206.792 105.646 180.599 78.5313 189.813C69.0885 193.021 63.9896 200.458 56.3125 206.818C43.8125 227.323 45.5625 243.594 50.3906 265.214C54.6198 266.531 55.6354 266.469 60.7552 266.693C75.9219 276.708 91.6302 291.604 98.526 311.786C101.943 321.776 102.198 330.823 111.859 335.443C134.021 346.036 160.474 341.854 179.995 325.833C180.432 321.828 181.979 318.943 183.698 316.224C189.995 284.693 172.75 254.167 156.297 232.688C172.964 233.781 185.302 221.104 197.031 212.729C201.911 217.714 206.12 223.37 210.365 228.995C221.38 223.974 228.594 215.156 239.245 209.771C245.688 203.391 254.474 199.344 260.724 192.771C267.682 187.151 277.318 184.198 280.724 175.031C258.146 191.922 235.734 208.974 211.844 224.557C207.313 220.948 204.188 215.938 200.734 211.25C206.615 204.557 214.01 199.37 222.214 194.99C282.266 153.656 331.521 101.542 391.078 59.7136C389.036 68.8854 389.318 74.2084 387.375 81.8907C381.979 83.5677 379.516 82.9636 372.563 84.849C368.578 93.3594 370.438 99.6615 370.339 108.505C363.073 110.62 357.974 114.896 352.563 118.854C327.891 111.427 312.599 133.464 314.052 149.901C304.214 151.182 291.703 148.823 284.427 153.599C275.865 159.214 276.828 176.495 288.13 178.729C278.729 186.844 267.984 193.62 259.245 202.385C269.911 220.318 253.672 221.328 240.729 227.521C234.552 230.474 232.099 232.432 225.917 235.651C216.281 240.672 205.688 253.047 203.698 267.438C201.406 284.005 210.078 296.995 211.104 310.313C211.641 317.328 211.922 323.339 211.104 331.016C208.693 353.531 186.25 366.151 167.406 373.151C133.099 377.458 105.578 351.089 74.8281 347.276C62.2396 347.036 51.7708 356.411 40.7604 356.885C25.401 357.547 16.7656 341.755 8.91146 329.536C7.11459 317.88 6.13542 307.094 10.3958 296.271C13.7917 287.641 19.151 280.156 20.0208 268.917C22.4583 237.474 13.3438 215.932 28.9115 192.036C29.75 190.75 31.6823 189.693 32.6146 188.344C41.5833 175.344 51.1042 160.797 65.9427 153.599C102.625 145.198 140.479 187.635 170.37 162.469C178.286 155.833 183.135 142.589 180.755 132.917L180.734 132.891ZM73.3438 326.578C79.151 313.766 67.5417 292.646 49.6406 290.354C35.4427 288.536 28.151 296.896 22.2396 305.141C21.5521 311.932 21.4271 317.047 22.2396 319.188C30.0729 345.51 62.875 349.651 73.3438 326.578Z" fill="#B1953A"/>
<path fill-rule="evenodd" clip-rule="evenodd" d="M22.2396 319.182C21.4271 317.042 21.5521 311.927 22.2396 305.136C28.1511 296.891 35.4427 288.531 49.6407 290.349C67.5417 292.641 79.1511 313.761 73.3438 326.573C62.875 349.651 30.073 345.505 22.2396 319.182ZM31.8646 329.531C28.1927 310.078 38.7292 299.115 54.0834 296.266C31.099 283.245 15.099 316.745 31.8646 329.531ZM45.198 331.75C52.1198 336.141 66.4011 330 68.1563 321.396C72.9219 298.052 35.0157 304.063 39.2709 322.136C40.0313 325.365 42.849 330.261 45.198 331.75Z" fill="black"/>
<path fill-rule="evenodd" clip-rule="evenodd" d="M54.0833 296.266C38.7292 299.115 28.1927 310.078 31.8646 329.531C15.0989 316.745 31.0989 283.245 54.0833 296.266Z" fill="#9C7D0D"/>
<path fill-rule="evenodd" clip-rule="evenodd" d="M45.9375 359.099C58.4531 353.021 69.6042 349.203 84.4531 352.448C79.6198 356.964 70.7292 357.042 63.7135 358.359C58.5938 359.323 53.3021 361.776 45.9375 359.099Z" fill="#9C7D0D"/>
<path fill-rule="evenodd" clip-rule="evenodd" d="M77.0417 150.641C100.615 139.823 123.938 159.224 141.479 167.641C117.646 164.537 102.323 149.386 77.0417 150.641Z" fill="#9C7D0D"/>
<path fill-rule="evenodd" clip-rule="evenodd" d="M412.547 13.1407C412.292 18.2189 406.531 21.3022 402.917 24.2345C391.417 33.5522 378.443 44.2605 366.625 53.8022C307.661 96.5835 253.068 145.88 194.057 189.073C185.552 195.302 175.938 201.5 168.135 208.292C163.224 212.573 158.734 218.359 155.547 224.557C166.552 226.052 180.167 216.094 188.875 209.771C206.469 196.995 223.484 182.542 241.458 169.115C293.979 129.87 344.807 85.3022 396.245 44.922C399.823 39.6199 405.552 36.4741 410.318 32.3543C414.698 29.8595 421.302 21.4168 425.87 27.9168C367.068 72.9637 310.349 120.094 254.786 168.375C242.813 176.625 224.88 188.438 211.094 198.682C199.13 207.573 183.401 222.599 168.875 228.25C165.453 229.583 152.641 232.708 151.104 226.037C150.031 221.406 157.266 215.74 159.99 212.729C164.161 208.109 167.531 205.719 169.62 200.901C200.49 174.526 233.859 150.938 266.641 126.24C309.755 93.7553 350.875 58.7449 393.281 24.9637C398.693 20.6512 404.328 12.7501 412.526 13.1459L412.547 13.1407Z" fill="#B1953A"/>
<path fill-rule="evenodd" clip-rule="evenodd" d="M171.839 214.953C170.76 213.833 170.839 212.333 171.099 211.255C172.115 207.063 187.208 197.589 192.578 193.516C229.839 165.25 263.719 138.474 299.224 108.505C305.927 102.844 313.552 97.4793 320.703 92.2397C339.349 78.573 358.396 63.4168 376.99 48.6251C388.661 39.3387 399.37 28.9012 411.802 21.2762C413.49 24.2918 408.849 26.7137 407.354 27.9272C390.224 41.8178 372.333 57.9272 354.771 72.2814C334.359 88.9637 312.818 104.828 294.781 122.547C273.318 137.594 252.646 153.432 231.828 169.12C214.104 185.922 195.161 201.516 173.318 214.214C172.469 214.094 172.01 214.37 171.844 214.948L171.839 214.953Z" fill="#9C7D0D"/>
<path fill-rule="evenodd" clip-rule="evenodd" d="M193.323 128.458C201.625 127.646 212.568 131.719 219.984 132.151C213.823 142.167 199.13 132.417 193.318 128.453L193.323 128.458Z" fill="#9C7D0D"/>
<path fill-rule="evenodd" clip-rule="evenodd" d="M282.198 172.807C281.432 161.979 283.229 156.12 292.568 154.328C289.979 159.63 287.891 165.427 288.865 174.287C286.177 175.729 284.875 173.375 282.198 172.813V172.807Z" fill="#9C7D0D"/>
<path fill-rule="evenodd" clip-rule="evenodd" d="M351.812 123.287C332.932 122.438 324.552 135.787 319.229 150.635C310.583 134.328 336.984 111.375 351.812 123.281V123.287Z" fill="#9C7D0D"/>
<path fill-rule="evenodd" clip-rule="evenodd" d="M371.812 112.193C367.714 115.745 363.135 118.813 361.443 124.76C351.547 119.984 363.307 111.797 371.807 112.193H371.812Z" fill="#9C7D0D"/>
<path fill-rule="evenodd" clip-rule="evenodd" d="M375.516 86.3229C378.958 86.7604 379.99 85.3125 382.182 86.3229C379.818 94.349 382.505 105.411 374.036 108.5C372.865 98.1719 372.635 92.1927 375.51 86.3281L375.516 86.3229Z" fill="#9C7D0D"/>
<path fill-rule="evenodd" clip-rule="evenodd" d="M390.333 80.4064C392.781 76.8439 390.448 68.2137 394.036 64.1408C398.604 65.0054 398.188 63.9793 402.182 64.8804C399.922 71.8804 398.906 81.9272 390.333 80.4064Z" fill="#9C7D0D"/>
<path fill-rule="evenodd" clip-rule="evenodd" d="M392.547 58.9688C399.906 51.2865 408.979 45.3073 417.729 39.0104C417.688 50.3229 419 50.6823 419.214 58.9688C407.01 60.1354 399.599 64.5156 392.557 58.9688H392.547Z" fill="#B1953A"/>
<path fill-rule="evenodd" clip-rule="evenodd" d="M426.625 32.3543C431.01 39.573 428.953 43.7918 429.583 56.7501C427.719 58.0886 425.703 59.2866 422.177 58.9689C422.089 47.8439 416.911 38.0626 426.62 32.3491L426.625 32.3543Z" fill="#9C7D0D"/>
<path fill-rule="evenodd" clip-rule="evenodd" d="M177.771 372.406C194.599 363.443 210.885 353.49 214.063 332.49C217.646 308.74 204.219 288.953 206.656 268.917C208.068 257.271 214.526 248.318 223.688 241.563C218.318 251.932 213.609 266.604 214.063 277.047C214.391 284.672 217.682 293.146 218.505 300.703C221.021 323.719 214.271 368.385 177.771 372.411V372.406Z" fill="#9C7D0D"/>
</svg>
