<svg width="384" height="440" viewBox="0 0 384 440" fill="none" xmlns="http://www.w3.org/2000/svg">
<mask id="mask0_315_103200" style="mask-type:luminance" maskUnits="userSpaceOnUse" x="0" y="0" width="384" height="440">
<path d="M383.948 440L6.99377e-05 440L6.99377e-05 -1.3113e-05L383.948 -1.3113e-05L383.948 440Z" fill="white"/>
</mask>
<g mask="url(#mask0_315_103200)">
<path fill-rule="evenodd" clip-rule="evenodd" d="M148.417 268.161C143.031 263.943 135.146 267.141 129.932 265.937C120.859 263.844 119.578 254.198 114.412 246.682C116.245 234.896 114.641 225.937 118.844 211.875C102.891 191.818 83.4116 170.823 65.6199 147.437C57.1407 136.286 48.7918 125.01 39.7501 114.109C35.2814 108.724 30.1095 103.984 25.7032 98.5573C21.2866 93.1146 18.2762 86.3958 13.8751 81.526C10.8439 78.1667 6.93761 77.0364 5.00532 71.8958C2.22407 64.526 2.64074 55.2031 1.3074 43.7552C-0.015515 32.4114 -1.14572 16.9427 12.3959 18.5729C12.8647 3.84374 27.0418 -0.125013 41.2241 0.0572786C48.2189 0.14582 60.2084 0.55728 63.4011 3.7604C70.922 11.2969 64.948 19.4323 69.3178 27.4583C79.448 27.0989 92.8647 33.0625 91.4949 46.7135C101.198 49.0521 110.682 50.4219 116.625 51.1614C118.302 55.1614 120.49 58.6458 120.323 64.4896C123.833 67.8854 131.146 67.4687 135.109 70.4167C135.104 80.6719 130.714 89.5521 135.109 97.0781C140.339 106.036 151.865 105.443 160.979 111.151C158.505 125.219 161.458 140.844 176.505 137.073C185.219 146.359 193.193 156.396 200.162 167.437C206.474 164.719 213.724 165.016 220.12 167.437C228.401 172.943 230.625 183.802 237.12 191.88C245.807 202.682 258.328 213.484 273.344 216.323C287.484 218.99 312.24 214.01 331.005 217.062C340.136 218.547 351.495 221.276 359.094 225.948C375.245 235.88 383.912 259.38 383.49 279.276C382.964 304.104 368.719 318.911 365.75 340.005C368.62 362.583 376.776 391.609 357.62 418.5C347.109 433.26 324.063 443.687 296.266 437.016C284.537 434.203 275.089 426.292 263 425.167C247.464 423.724 233.823 429 218.646 426.651C211.594 425.557 199.604 422.536 193.511 419.245C174.641 409.031 157.38 394.177 146.938 378.51C139.464 362.661 136.047 351.016 141.026 331.849C143.682 321.615 149.167 314.49 152.115 304.448C153.646 299.229 156.651 293.943 156.547 290.375C156.318 282.13 150.136 276.208 148.417 268.172V268.161ZM162.469 269.641C187.63 299.526 145.198 337.38 153.594 374.068C160.792 388.906 175.339 398.427 188.339 407.396C189.688 408.328 190.745 410.255 192.037 411.099C215.927 426.667 237.474 417.547 268.917 419.984C280.146 420.854 287.625 426.214 296.261 429.609C307.083 433.875 317.865 432.891 329.521 431.094C341.74 423.24 357.537 414.604 356.875 399.245C356.401 388.24 347.026 377.771 347.266 365.177C351.078 334.427 377.448 306.906 373.141 272.599C366.141 253.755 353.521 231.312 331.005 228.906C323.328 228.083 317.318 228.365 310.302 228.906C296.984 229.932 283.995 238.604 267.427 236.312C253.031 234.318 240.662 223.724 235.641 214.094C232.422 207.906 230.464 205.453 227.511 199.281C221.318 186.333 220.307 170.094 202.375 180.76C193.604 172.021 186.833 161.276 178.719 151.88C176.484 163.177 159.203 164.141 153.589 155.583C148.813 148.302 151.172 135.797 149.891 125.958C133.453 127.406 111.417 112.115 118.844 87.4427C114.88 82.0312 110.609 76.9323 108.495 69.6667C99.6511 69.5677 93.3491 71.4271 84.8386 67.4479C82.9532 60.4896 83.5574 58.026 81.8803 52.6354C74.198 50.6875 68.8751 50.9687 59.7032 48.9323C101.537 108.484 153.651 157.74 194.979 217.797C199.359 225.995 204.547 233.391 211.24 239.271C215.927 235.818 220.938 232.693 224.547 228.161C208.964 204.276 191.912 181.859 175.016 159.286C184.188 162.687 187.141 172.323 192.761 179.281C199.333 185.536 203.38 194.318 209.761 200.76C215.146 211.411 223.964 218.625 228.984 229.646C223.359 233.885 217.703 238.094 212.719 242.974C221.094 254.708 233.771 267.042 232.677 283.708C254.156 267.255 284.682 250.01 316.214 256.307C318.932 258.026 321.818 259.573 325.823 260.01C341.844 279.531 346.026 305.99 335.432 328.146C330.813 337.812 321.766 338.062 311.776 341.479C291.594 348.375 276.698 364.083 266.682 379.25C266.458 384.37 266.521 385.385 265.203 389.62C243.583 394.448 227.313 396.198 206.807 383.693C200.443 376.016 193.011 370.917 189.802 361.474C180.589 334.359 206.781 307.974 220.109 291.854C216.734 286.109 209.901 283.818 206.802 277.786C188.542 263.646 175.953 243.745 162.448 225.198C148.948 206.651 133.995 188.776 120.313 170.391C92.5782 133.125 63.2657 97.4323 33.823 62.2604C31.1095 57.1458 26.4168 51.6406 21.9949 46.7083C18.0939 42.3542 12.8803 33.8437 8.68761 34.8594C8.95324 40.8333 11.6824 58.4739 13.8647 69.6667C45.3178 105.516 74.8282 147.984 107.745 185.948C112.401 191.312 118.537 197.307 124.011 204.464C128.307 210.083 138.589 219.661 139.531 224.464C142.943 241.786 117.193 249.437 132.88 259.271C142.563 256.891 155.807 261.74 162.469 269.646V269.641ZM358.365 376.286C357.047 369.271 356.969 360.385 352.453 355.547C349.208 370.396 353.026 381.547 359.104 394.062C361.781 386.698 359.328 381.406 358.365 376.286ZM224.568 387.396C232.755 389.802 250.771 388.219 258.573 381.469C263.521 377.193 265.297 368.036 270.401 362.214C271.359 361.12 273.526 360.516 274.839 359.25C283.563 350.823 294.912 342.25 306.625 337.776C312.755 335.432 319.365 335.818 323.625 331.849C330.682 325.271 333.422 304.219 332.495 291.854C331.88 283.625 329.255 269.448 325.104 264.453C319.505 257.708 295.354 257.531 288.88 258.526C270.208 261.401 252.979 272.422 238.615 282.969C223.734 293.885 210.339 306.479 200.912 320C185.005 349.833 196.578 379.167 224.573 387.396H224.568ZM167.651 298.521C159.229 316.062 139.833 339.385 150.646 362.958C149.391 337.677 164.542 322.354 167.646 298.521H167.651ZM24.9845 46.7135C58.7657 89.1198 93.7761 130.245 126.255 173.354C150.953 206.135 174.547 239.505 200.922 270.375C205.74 272.464 208.13 275.833 212.745 280.005C215.761 282.729 221.427 289.964 226.052 288.891C232.729 287.354 229.604 274.542 228.271 271.12C222.62 256.594 207.589 240.859 198.703 228.901C188.453 215.115 176.641 197.182 168.391 185.203C120.115 129.641 72.9845 72.9271 27.9376 14.125C21.4376 18.6927 29.8803 25.3021 32.3751 29.6771C36.4897 34.4375 39.6407 40.1719 44.9376 43.75C85.3178 95.1927 129.886 146.021 169.13 198.536C182.563 216.51 197.016 233.526 209.792 251.12C216.115 259.828 226.073 273.443 224.573 284.448C218.375 281.26 212.589 276.771 208.313 271.859C201.521 264.057 195.318 254.443 189.094 245.937C145.891 186.932 96.5991 132.333 53.8178 73.3698C44.2813 61.5521 33.573 48.5781 24.2501 37.0781C21.323 33.4635 18.2397 27.6979 13.1616 27.4479C12.7657 35.6406 20.6668 41.2708 24.9897 46.6979L24.9845 46.7135ZM214.224 266.672C201.531 244.828 185.938 225.891 169.13 208.161C153.443 187.349 137.609 166.672 122.563 145.214C104.839 127.177 88.9793 105.635 72.2918 85.2187C57.9376 67.6562 41.8282 49.7708 27.9376 32.6354C26.7241 31.1406 24.3022 26.5 21.2866 28.1927C28.9168 40.625 39.3543 51.3281 48.6355 63C63.4272 81.5989 78.5834 100.646 92.2501 119.292C97.4949 126.443 102.859 134.068 108.516 140.771C138.484 176.271 165.261 210.156 193.526 247.417C197.599 252.786 207.073 267.88 211.266 268.896C212.349 269.156 213.849 269.234 214.964 268.156C214.37 267.99 214.094 267.526 214.214 266.667L214.224 266.672ZM300.714 221.495C293.156 222.323 284.682 225.609 277.057 225.943C266.615 226.391 251.943 221.682 241.573 216.312C248.328 225.474 257.281 231.932 268.922 233.349C288.964 235.786 308.75 222.354 332.5 225.943C353.5 229.115 363.453 245.401 372.417 262.234C368.396 225.734 323.724 218.984 300.714 221.5V221.495ZM132.167 220.021C131.729 227.437 127.656 238.385 128.469 246.682C132.432 240.859 142.177 226.167 132.167 220.016V220.021ZM174.307 151.13C165.448 152.109 159.651 150.016 154.349 147.427C156.141 156.771 162 158.562 172.828 157.797C173.38 155.12 175.734 153.818 174.302 151.13H174.307ZM150.651 120.771C135.802 115.448 122.448 107.068 123.297 88.1823C111.396 103.01 134.344 129.411 150.651 120.771ZM124.771 78.5521C118.823 76.8594 115.755 72.2812 112.203 68.1823C111.807 76.6823 119.995 88.4427 124.771 78.5469V78.5521ZM108.511 65.9635C105.417 57.4896 94.3543 60.1771 86.3334 57.8125C85.323 60.0104 86.7657 61.0417 86.3334 64.4792C92.2084 67.3594 98.1824 67.125 108.516 65.9583L108.511 65.9635ZM64.9011 37.8281C64.0001 41.8229 65.0261 41.401 64.1616 45.9739C68.2345 49.5677 76.8647 47.2292 80.4272 49.6771C81.9324 41.0885 71.8855 40.0781 64.9011 37.8281ZM58.9845 20.7864C50.698 21 50.3387 22.3073 39.0209 22.2656C45.323 31.0156 51.297 40.0885 58.9845 47.4479C64.5313 40.4167 60.1511 33.0052 58.9845 20.7917V20.7864ZM58.9845 17.8333C59.3022 14.3021 58.1043 12.2917 56.7657 10.4219C43.8074 11.0573 39.5939 8.99999 32.3699 13.3854C38.0782 23.0885 47.8647 17.9062 58.9845 17.8281V17.8333Z" fill="black"/>
</g>
<path fill-rule="evenodd" clip-rule="evenodd" d="M132.891 259.266C117.203 249.432 142.953 241.781 139.542 224.453C138.599 219.656 128.318 210.073 124.021 204.458C118.547 197.302 112.411 191.307 107.76 185.943C74.8386 147.984 45.3282 105.51 13.875 69.6614C11.6927 58.4687 8.96357 40.8229 8.70315 34.8542C12.8907 33.8385 18.1042 42.3437 22.0104 46.7031C26.4271 51.6354 31.1198 57.1406 33.8334 62.2552C63.2761 97.4271 92.5886 133.115 120.323 170.385C134.01 188.771 148.958 206.646 162.464 225.193C175.964 243.74 188.557 263.635 206.813 277.776C209.906 283.812 216.74 286.099 220.12 291.849C206.792 307.969 180.599 334.354 189.813 361.469C193.021 370.911 200.458 376.01 206.818 383.687C227.323 396.187 243.594 394.437 265.214 389.609C266.531 385.38 266.469 384.365 266.693 379.245C276.708 364.078 291.604 348.37 311.786 341.474C321.776 338.057 330.823 337.802 335.443 328.141C346.036 305.979 341.854 279.526 325.833 260.005C321.828 259.568 318.943 258.021 316.224 256.302C284.693 250.005 254.167 267.25 232.688 283.703C233.781 267.036 221.104 254.698 212.729 242.969C217.714 238.089 223.37 233.88 228.995 229.635C223.974 218.62 215.156 211.406 209.771 200.755C203.391 194.312 199.344 185.526 192.771 179.276C187.151 172.318 184.198 162.682 175.031 159.276C191.922 181.854 208.974 204.266 224.557 228.156C220.948 232.687 215.938 235.812 211.25 239.266C204.557 233.385 199.37 225.99 194.99 217.786C153.656 157.734 101.542 108.479 59.7136 48.9219C68.8854 50.9635 74.2084 50.6823 81.8907 52.625C83.5677 58.0208 82.9636 60.4844 84.849 67.4375C93.3594 71.4219 99.6615 69.5625 108.505 69.6614C110.62 76.9271 114.896 82.026 118.854 87.4375C111.427 112.109 133.464 127.401 149.901 125.948C151.182 135.786 148.823 148.297 153.599 155.573C159.214 164.135 176.495 163.172 178.729 151.87C186.844 161.271 193.62 172.016 202.385 180.755C220.318 170.089 221.328 186.328 227.521 199.271C230.474 205.448 232.432 207.901 235.651 214.083C240.672 223.719 253.047 234.312 267.438 236.302C284.005 238.594 296.995 229.922 310.313 228.896C317.328 228.359 323.339 228.078 331.016 228.896C353.531 231.307 366.151 253.75 373.151 272.594C377.458 306.901 351.089 334.422 347.276 365.172C347.036 377.76 356.411 388.229 356.885 399.24C357.547 414.599 341.755 423.234 329.536 431.089C317.88 432.885 307.094 433.865 296.271 429.604C287.641 426.208 280.156 420.849 268.917 419.979C237.474 417.542 215.932 426.656 192.036 411.089C190.75 410.25 189.693 408.318 188.344 407.385C175.344 398.417 160.797 388.896 153.599 374.057C145.198 337.375 187.635 299.521 162.469 269.63C155.833 261.714 142.589 256.865 132.917 259.245L132.891 259.266ZM326.578 366.656C313.766 360.849 292.646 372.458 290.354 390.359C288.536 404.557 296.896 411.849 305.141 417.76C311.932 418.448 317.047 418.573 319.188 417.76C345.51 409.927 349.651 377.125 326.578 366.656Z" fill="#B1953A"/>
<path fill-rule="evenodd" clip-rule="evenodd" d="M319.182 417.76C317.042 418.573 311.927 418.448 305.136 417.76C296.891 411.849 288.531 404.557 290.349 390.359C292.641 372.458 313.761 360.849 326.573 366.656C349.651 377.125 345.505 409.927 319.182 417.76ZM329.531 408.135C310.078 411.807 299.115 401.271 296.266 385.917C283.245 408.901 316.745 424.901 329.531 408.135ZM331.75 394.802C336.141 387.88 330 373.599 321.396 371.844C298.052 367.078 304.063 404.984 322.136 400.729C325.365 399.969 330.261 397.151 331.75 394.802Z" fill="black"/>
<path fill-rule="evenodd" clip-rule="evenodd" d="M296.266 385.917C299.115 401.271 310.078 411.807 329.531 408.135C316.745 424.901 283.245 408.901 296.266 385.917Z" fill="#9C7D0D"/>
<path fill-rule="evenodd" clip-rule="evenodd" d="M359.099 394.062C353.021 381.547 349.203 370.396 352.448 355.547C356.964 360.38 357.042 369.271 358.359 376.286C359.323 381.406 361.776 386.698 359.099 394.062Z" fill="#9C7D0D"/>
<path fill-rule="evenodd" clip-rule="evenodd" d="M150.641 362.958C139.823 339.385 159.224 316.062 167.641 298.521C164.537 322.354 149.386 337.677 150.641 362.958Z" fill="#9C7D0D"/>
<path fill-rule="evenodd" clip-rule="evenodd" d="M13.1407 27.453C18.2189 27.7082 21.3022 33.4687 24.2345 37.0832C33.5522 48.5832 44.2605 61.5572 53.8022 73.3749C96.5835 132.338 145.88 186.932 189.073 245.943C195.302 254.448 201.5 264.062 208.292 271.865C212.573 276.776 218.359 281.266 224.557 284.453C226.052 273.448 216.094 259.833 209.771 251.125C196.995 233.531 182.542 216.516 169.115 198.542C129.87 146.021 85.3022 95.1926 44.922 43.7551C39.6199 40.177 36.4741 34.4478 32.3543 29.6822C29.8595 25.302 21.4168 18.6978 27.9168 14.1301C72.9637 72.9322 120.094 129.651 168.375 185.213C176.625 197.187 188.438 215.12 198.682 228.906C207.573 240.87 222.599 256.599 228.25 271.125C229.583 274.547 232.708 287.359 226.037 288.896C221.406 289.969 215.74 282.734 212.729 280.01C208.109 275.838 205.719 272.469 200.901 270.38C174.526 239.51 150.938 206.141 126.24 173.359C93.7553 130.245 58.7449 89.1249 24.9637 46.7187C20.6512 41.3072 12.7501 35.6718 13.1459 27.4739L13.1407 27.453Z" fill="#B1953A"/>
<path fill-rule="evenodd" clip-rule="evenodd" d="M214.953 268.161C213.833 269.24 212.333 269.161 211.255 268.901C207.063 267.885 197.589 252.792 193.516 247.422C165.25 210.161 138.474 176.281 108.505 140.776C102.844 134.073 97.4793 126.448 92.2397 119.297C78.573 100.651 63.4168 81.6041 48.6251 63.0103C39.3387 51.3385 28.9012 40.6301 21.2762 28.1978C24.2918 26.5103 26.7137 31.151 27.9272 32.6458C41.8178 49.776 57.9272 67.6666 72.2814 85.2291C88.9637 105.641 104.828 127.182 122.547 145.219C137.594 166.682 153.432 187.354 169.12 208.172C185.922 225.896 201.516 244.838 214.214 266.682C214.094 267.531 214.37 267.99 214.948 268.156L214.953 268.161Z" fill="#9C7D0D"/>
<path fill-rule="evenodd" clip-rule="evenodd" d="M128.458 246.677C127.646 238.375 131.719 227.432 132.151 220.016C142.167 226.177 132.417 240.87 128.453 246.682L128.458 246.677Z" fill="#9C7D0D"/>
<path fill-rule="evenodd" clip-rule="evenodd" d="M172.807 157.802C161.979 158.568 156.12 156.771 154.328 147.432C159.63 150.021 165.427 152.109 174.287 151.135C175.729 153.823 173.375 155.125 172.813 157.802H172.807Z" fill="#9C7D0D"/>
<path fill-rule="evenodd" clip-rule="evenodd" d="M123.287 88.1875C122.438 107.068 135.787 115.448 150.635 120.771C134.328 129.417 111.375 103.016 123.281 88.1875H123.287Z" fill="#9C7D0D"/>
<path fill-rule="evenodd" clip-rule="evenodd" d="M112.193 68.1875C115.745 72.2865 118.813 76.8646 124.76 78.5573C119.984 88.4531 111.797 76.6927 112.193 68.1927V68.1875Z" fill="#9C7D0D"/>
<path fill-rule="evenodd" clip-rule="evenodd" d="M86.3229 64.4843C86.7604 61.0416 85.3125 60.0103 86.3229 57.8176C94.349 60.1822 105.411 57.4947 108.5 65.9635C98.1719 67.1353 92.1927 67.3645 86.3281 64.4895L86.3229 64.4843Z" fill="#9C7D0D"/>
<path fill-rule="evenodd" clip-rule="evenodd" d="M80.4064 49.6666C76.8439 47.2187 68.2137 49.552 64.1408 45.9635C65.0054 41.3958 63.9793 41.8125 64.8804 37.8177C71.8804 40.0781 81.9272 41.0937 80.4064 49.6666Z" fill="#9C7D0D"/>
<path fill-rule="evenodd" clip-rule="evenodd" d="M58.9688 47.4531C51.2865 40.0937 45.3073 31.0208 39.0104 22.2708C50.3229 22.3125 50.6823 21 58.9688 20.7865C60.1354 32.9896 64.5156 40.401 58.9688 47.4427V47.4531Z" fill="#B1953A"/>
<path fill-rule="evenodd" clip-rule="evenodd" d="M32.3543 13.375C39.573 8.98955 43.7918 11.0468 56.7501 10.4166C58.0886 12.2812 59.2866 14.2968 58.9689 17.8229C47.8439 17.9114 38.0626 23.0885 32.3491 13.3802L32.3543 13.375Z" fill="#9C7D0D"/>
<path fill-rule="evenodd" clip-rule="evenodd" d="M372.406 262.229C363.443 245.401 353.49 229.115 332.49 225.937C308.74 222.354 288.953 235.781 268.917 233.344C257.271 231.932 248.318 225.474 241.563 216.312C251.932 221.682 266.604 226.391 277.047 225.937C284.672 225.609 293.146 222.318 300.703 221.495C323.719 218.979 368.385 225.729 372.411 262.229H372.406Z" fill="#9C7D0D"/>
</svg>
