<svg width="175" height="172" viewBox="0 0 175 172" fill="none" xmlns="http://www.w3.org/2000/svg">
<path d="M174.574 101.954C173.206 100.122 170.595 100.108 168.736 99.0554C167.235 98.269 165.932 97.2349 164.826 95.9507C163.892 94.6343 163.118 93.2303 162.502 91.7387C161.88 90.2981 161.534 88.794 161.462 87.2264C161.259 85.5686 160.945 83.9323 160.52 82.3165C160.176 80.7284 159.681 79.1877 159.034 77.697C158.388 76.2054 157.603 74.7916 156.678 73.4555C154.696 70.769 152.873 67.9798 151.209 65.086C149.5 61.9545 148.557 58.5495 147.108 55.2947C145.959 52.56 143.731 50.7413 141.762 48.676C140.699 47.5195 139.52 46.4971 138.226 45.6079C136.931 44.7196 135.553 43.9867 134.092 43.4112C132.192 42.673 130.278 42.0439 128.432 41.1957C126.979 40.4593 125.439 40.0679 123.811 40.0196C121.852 39.924 119.929 40.143 118.042 40.6765C118.711 39.3583 119.252 37.9909 119.669 36.5735C120.461 33.8388 120.735 31.1032 121.651 28.3685C123.511 22.9947 127.694 18.4539 131.604 14.4751C133.814 12.3749 136.175 10.4606 138.686 8.73133C139.832 7.76614 141.065 6.92875 142.385 6.21915C143.705 5.50956 145.083 4.94295 146.52 4.51934C146.665 4.48002 146.8 4.41835 146.924 4.33435C147.048 4.25123 147.156 4.14935 147.247 4.03049C147.338 3.91074 147.408 3.78026 147.456 3.63816C147.505 3.49606 147.528 3.34949 147.528 3.19935C147.528 3.04921 147.505 2.90354 147.456 2.76144C147.408 2.61934 147.338 2.48797 147.247 2.36911C147.156 2.25025 147.048 2.14837 146.924 2.06436C146.8 1.98125 146.665 1.91958 146.52 1.88026C143.923 1.27254 141.292 0.931153 138.626 0.85787C135.96 0.783693 133.315 0.978519 130.688 1.44235C127.828 2.0447 125.039 2.88299 122.321 3.959C119.586 4.97066 116.77 5.73656 113.995 6.69371C108.691 8.51238 104.151 12.164 100.091 15.8693C99.0833 16.788 98.1342 17.7621 97.2432 18.7935C96.3522 19.8248 95.5255 20.9053 94.7632 22.0358C94.0008 23.1654 93.3082 24.3362 92.6853 25.5489C92.0633 26.7617 91.5146 28.0066 91.04 29.2846C89.9059 32.2936 88.9488 35.3706 87.8272 38.3922C87.5921 39.6201 87.2963 40.832 86.9389 42.0304C86.904 42.127 86.8584 42.2181 86.8021 42.3039C81.7983 36.4502 74.4977 34.1668 67.7441 30.8163C64.4472 28.9521 60.9743 27.5115 57.3262 26.4953C53.4431 25.6195 49.3697 26.5776 45.4186 26.372C43.381 26.2764 41.3166 26.0851 39.2932 26.0163C37.6113 25.8331 35.9347 25.8697 34.2626 26.1262C33.9811 26.2236 33.7193 26.3586 33.4762 26.5293C33.2322 26.7009 33.0177 26.902 32.8309 27.1343C32.6441 27.3658 32.4922 27.6187 32.376 27.8922C32.2598 28.1665 32.1839 28.4507 32.1481 28.7466C32.1115 29.0415 32.1169 29.3364 32.1624 29.6304C32.2089 29.9244 32.2947 30.206 32.4198 30.4767C32.5449 30.7466 32.7049 30.9942 32.8997 31.2185C33.0946 31.4437 33.3162 31.6377 33.5646 31.8012C34.932 32.5126 36.5183 32.4983 37.8848 33.1006C39.2521 33.7021 40.9207 33.4554 42.4927 33.7977C43.5177 34.0301 44.1192 34.9738 44.7349 35.7531C45.3498 36.5324 46.1836 37.5173 46.8405 38.4878C47.4965 39.4593 48.207 40.5943 48.8084 41.6882C47.803 41.7302 46.8047 41.6614 45.8145 41.4826C44.1058 41.1135 42.5195 40.4164 40.7696 40.1975C38.7713 40.0357 36.7703 40.0035 34.7684 40.1019C33.0231 40.1456 31.2866 40.2913 29.5591 40.5398C27.5903 40.8132 25.5804 40.8812 23.6258 41.2091C22.0011 41.6229 20.4291 42.1833 18.9089 42.892C17.2824 43.4523 15.9016 43.3567 14.3975 44.4095C12.8934 45.4622 11.745 46.8162 10.2955 47.8422C9.072 48.5786 7.80563 49.2301 6.49548 49.7976C3.82958 51.1515 1.31383 52.8057 0.178832 55.637C0.138616 55.7817 0.123423 55.9301 0.13236 56.0811C0.140403 56.2313 0.17347 56.377 0.230666 56.5164C0.286969 56.6558 0.365614 56.7827 0.463921 56.8971C0.563121 57.0106 0.677514 57.1062 0.807994 57.1822C1.14224 57.3538 1.49167 57.4842 1.8563 57.5727C2.22182 57.6612 2.59181 57.7059 2.96806 57.7059C3.34341 57.7059 3.71429 57.6612 4.07892 57.5727C4.44444 57.4842 4.79388 57.3538 5.12812 57.1822C7.10319 56.4082 9.14975 55.9524 11.2669 55.8148C13.4976 55.6656 15.7175 55.7701 17.925 56.1294C20.0162 56.4708 22.2585 56.2518 24.2818 56.9498C28.2471 58.3172 31.2544 61.5166 34.4128 64.1289C35.9669 65.2308 37.4031 66.4704 38.7195 67.8484C39.0064 68.2175 39.2798 68.5598 39.5667 68.9012L38.0492 69.1613C35.9499 69.6412 33.9177 70.3204 31.9515 71.1989C30.9041 71.5778 29.9067 72.0604 28.9594 72.6485C28.013 73.2356 27.1372 73.9148 26.3328 74.6861C24.7742 76.2724 23.12 77.7354 21.548 79.2949C20.8044 79.9902 20.1717 80.774 19.6471 81.6462C19.2119 82.8018 18.6247 83.8733 17.8838 84.8599C16.512 86.0772 15.4414 87.5178 14.671 89.1819C13.7326 91.4742 12.9801 93.8264 12.4153 96.2376C11.737 98.5585 11.1945 100.911 10.7879 103.294C10.6101 104.662 10.6378 106.029 10.4322 107.315C10.1346 108.601 9.9934 109.905 10.0086 111.226C10.1346 112.025 10.308 112.813 10.5287 113.591C10.6976 114.896 10.7289 116.205 10.6244 117.516C10.6699 118.652 10.8245 119.774 11.0891 120.88C11.4037 122.384 11.4448 123.903 11.6217 125.42C12.1213 130.784 12.2991 136.158 12.1553 141.544C12.2884 147.328 11.6324 153.021 10.1864 158.624C9.61358 160.622 8.89773 162.569 8.03978 164.462C7.45262 165.831 6.44096 168.169 4.75902 168.32C3.07709 168.47 2.98146 171.163 4.75902 171.054C6.51961 171.019 8.2507 170.776 9.95408 170.329C11.6012 169.624 13.1821 168.795 14.6978 167.841C16.1822 167.38 17.5085 166.638 18.6766 165.612C19.8115 164.34 20.2075 162.617 21.1235 161.208C22.2764 159.673 23.2603 158.037 24.0772 156.298C24.8154 154.17 25.4034 152 25.8404 149.79C26.8691 145.541 27.6805 141.252 28.274 136.921C28.8808 132.579 29.2409 128.217 29.3544 123.834C29.3544 121.838 29.2445 119.732 29.4769 117.803C29.8147 115.709 30.0426 113.604 30.1606 111.486C30.1346 109.498 30.3893 107.546 30.9264 105.633C31.5145 103.773 32.4028 102.009 33.0865 100.163C33.3323 99.479 33.5789 98.7953 33.8381 98.1251C33.8381 98.6854 33.948 99.2601 34.0437 99.8204C34.3859 102.277 34.4816 104.744 34.3305 107.219C34.2215 110.542 33.9891 114.549 36.0938 117.352C36.5987 117.979 37.1805 118.525 37.8374 118.99C38.4952 119.455 39.2039 119.82 39.9635 120.088C40.7151 120.285 41.4756 120.435 42.246 120.538L43.162 120.785C43.3837 120.84 43.5865 120.936 43.7715 121.071C43.9556 121.206 44.1085 121.37 44.2291 121.564C44.4883 122.569 44.6295 123.59 44.6527 124.628C44.844 125.804 44.9941 126.993 45.1309 128.169C45.4186 130.685 45.6233 133.215 45.8833 135.732C46.3481 140.257 47.0452 144.757 47.6466 149.27C48.1801 153.221 48.8906 157.557 51.1606 160.948C55.2618 167.116 63.0959 167.608 69.6583 169.153C72.0919 169.714 74.4977 170.397 76.959 170.794C79.5846 171 82.2139 171.068 84.8467 171C87.5814 171.136 90.1794 171.547 92.9132 171.423C95.6479 171.3 98.4774 171.013 101.28 170.985C101.461 170.986 101.635 170.951 101.8 170.876C105.656 170.356 108.089 167.539 109.592 163.902C111.702 158.539 113.096 152.996 113.777 147.273C113.954 145.906 113.995 144.538 114.077 143.089C114.159 141.42 114.515 139.779 114.719 138.124C114.925 136.47 114.815 135.062 115.006 133.53C115.225 131.683 115.663 129.865 115.991 128.059C116.276 126.707 116.412 125.34 116.401 123.957C116.322 123.308 116.294 122.656 116.319 122.002C116.325 121.961 116.325 121.92 116.319 121.879C116.313 121.801 116.313 121.724 116.319 121.646C116.408 121.346 116.577 121.099 116.825 120.908L117.263 120.771L117.591 120.648C118.028 120.429 117.686 120.648 117.591 120.648C117.782 120.538 118.014 120.457 118.219 120.361L119.108 119.896C119.169 119.811 119.219 119.719 119.258 119.622C120.085 119.153 120.819 118.567 121.461 117.867C122.103 117.166 122.622 116.384 123.018 115.52C124.266 112.817 125.059 109.986 125.397 107.027C126.655 109.763 127.981 112.333 129.348 114.945C130.1 116.313 130.264 117.954 131.235 119.307C132.039 120.391 133.005 121.302 134.133 122.043C136.359 123.326 138.688 124.384 141.119 125.216C143.197 126.05 145.782 126.583 147.682 125.079C149.582 123.574 147.928 121.236 146.314 119.923C145.439 119.185 144.442 118.556 143.58 117.817C142.453 116.722 141.62 115.437 141.078 113.96C139.712 110.884 138.043 107.93 137.647 104.553C137.25 101.174 138.262 97.7149 138.481 94.3367C138.635 91.5922 138.53 88.8574 138.166 86.1317C138.536 86.3917 138.918 86.6518 139.274 86.953C140.239 87.7814 141.15 88.6662 142.008 89.6055C143.1 91.0059 144.107 92.4644 145.029 93.9819C146.506 96.0195 148.652 97.3592 150.499 99.0822C153.738 102.214 157.813 103.568 162.05 104.785C165.824 105.879 170.636 106.33 173.972 103.855C174.056 103.814 174.136 103.766 174.21 103.71C174.284 103.653 174.352 103.589 174.413 103.519C174.475 103.448 174.527 103.372 174.574 103.291C174.619 103.209 174.656 103.124 174.685 103.035C174.712 102.946 174.731 102.855 174.741 102.762C174.751 102.669 174.751 102.576 174.741 102.483C174.731 102.39 174.712 102.299 174.685 102.21C174.656 102.121 174.619 102.036 174.574 101.954ZM37.3521 90.3437L36.6407 90.6859C36.6899 90.5313 36.79 90.4268 36.9419 90.3714C37.1055 90.3437 37.2154 90.358 37.3521 90.3437ZM125.137 94.9936C125.21 95.0025 125.278 95.0239 125.343 95.0588C125.407 95.0928 125.463 95.1383 125.509 95.1946C125.556 95.2501 125.591 95.3126 125.614 95.3823C125.638 95.4511 125.648 95.5226 125.643 95.595C125.643 95.8274 125.643 96.0597 125.643 96.3064L125.137 94.9936Z" fill="#866255"/>
<path d="M111.753 91.6153L114.213 92.1078L109.728 93.585C108.946 93.8183 108.154 94.0051 107.35 94.1454L106.516 94.2964L106.749 89.4964L107.705 89.9745C108.567 90.4124 109.428 90.8226 110.303 91.1783C110.771 91.3714 111.255 91.5179 111.753 91.6153ZM50.6954 92.6279L50.5443 91.8075C50.3852 90.9933 50.2798 90.1729 50.2297 89.3453V88.2649L49.2735 88.785C48.7614 89.0504 48.2377 89.2873 47.7006 89.4964C46.6335 89.9191 45.5441 90.2748 44.4332 90.5626L41.6994 91.315L44.5432 91.9031C46.3457 92.2919 48.1689 92.5287 50.0117 92.6136L50.6954 92.6279ZM79.8021 92.778C78.9013 91.7753 77.9173 90.8637 76.8485 90.0433C76.0343 89.4812 75.2872 88.8413 74.608 88.1219C73.9279 87.4033 73.3309 86.6214 72.8152 85.7768L72.3916 84.901L71.7079 85.5847C71.2316 86.0994 70.8759 86.6875 70.6418 87.3488C70.2727 88.2103 69.9858 89.0996 69.698 89.9611C69.4111 90.8226 69.152 91.6564 68.8097 92.45L67.9759 94.2687L68.6595 94.5422L68.8785 94.6101C69.5148 94.8076 70.1663 94.8988 70.833 94.8845H71.7079C72.4604 94.8845 73.212 94.8845 73.9636 94.8845H74.2237C74.9753 94.9524 75.7412 95.0069 76.5205 95.0069H77.054C77.5188 94.9989 77.9745 94.93 78.4205 94.8023C78.8119 94.7129 79.1542 94.5306 79.4465 94.2553C79.5314 94.1731 79.6323 94.1186 79.7467 94.0909L80.7727 93.8308L80.0613 92.997L79.8021 92.778ZM143.88 120.457C143.621 120.279 143.374 120.114 143.17 119.95C141.958 119.072 140.983 117.983 140.244 116.682C139.697 115.659 139.204 114.611 138.767 113.537C138.453 112.812 138.152 112.087 137.81 111.39C136.841 109.472 136.184 107.453 135.841 105.332C135.586 102.883 135.686 100.449 136.143 98.0294C136.334 96.662 136.538 95.1713 136.607 93.6941C136.704 91.038 136.567 88.3944 136.197 85.7625V85.5167L136.006 85.3389C135.899 85.2638 135.823 85.1646 135.779 85.0422C135.733 84.9198 135.727 84.7955 135.759 84.6686C135.784 84.4926 135.834 84.3237 135.91 84.1628V83.7937C135.719 82.6042 135.513 81.4281 135.281 80.2654C134.843 78.0839 134.16 75.9828 133.23 73.9613L132.902 73.2088C132.243 71.5215 131.382 69.9441 130.318 68.4775C129.347 67.3318 128.281 66.2835 127.119 65.3326L126.231 64.5524C124.814 63.2655 123.333 62.0572 121.787 60.9285C120.954 60.294 120.081 59.7202 119.168 59.2072C118.254 58.6951 117.31 58.2483 116.334 57.8676C115.359 57.4869 114.36 57.1767 113.342 56.9355C112.322 56.695 111.292 56.5261 110.249 56.4296C109.132 56.3429 108.015 56.3277 106.897 56.3823C105.779 56.4368 104.669 56.5619 103.567 56.7567C102.464 56.9515 101.379 57.2152 100.31 57.5467C99.2409 57.8792 98.1971 58.2769 97.1783 58.7407C96.3579 59.1375 95.5786 59.5888 94.8136 60.0267C93.9324 60.5433 93.0208 60.9991 92.0789 61.3941C91.1726 61.7471 90.3138 62.1931 89.5023 62.7302C88.6917 63.2673 87.9464 63.8839 87.2663 64.5801C86.5942 65.3201 85.966 66.0949 85.3797 66.9046C84.8185 67.7063 84.217 68.4766 83.5753 69.2157C83.2947 69.5071 82.9989 69.7805 82.6861 70.0361C82.2303 70.3892 81.8112 70.7815 81.4287 71.2122L79.1185 73.9479C78.8468 73.1614 78.4866 72.4187 78.038 71.7181C77.8879 71.4723 77.7511 71.2265 77.6278 71.0076C77.2542 70.281 76.7815 69.6277 76.2077 69.0468C75.6339 68.4659 74.986 67.9842 74.2648 67.6026C73.6348 67.2505 72.9743 66.9717 72.2835 66.7661C71.5918 66.5597 70.8866 66.431 70.1672 66.38C69.4478 66.33 68.731 66.3577 68.0179 66.4649C67.3047 66.5713 66.6121 66.7545 65.9391 67.0146C64.4073 67.5767 62.9989 68.3605 61.7146 69.3668L61.5368 69.5035V69.7216C61.4867 69.8708 61.4009 69.9959 61.2812 70.0969C61.1605 70.1979 61.022 70.2596 60.8665 70.2828H60.6476L60.484 70.4329C57.7395 73.1462 55.5106 76.2321 53.7983 79.6907C53.0065 81.177 52.4247 82.7418 52.0538 84.3844C51.682 86.0279 51.5345 87.6902 51.6105 89.373C51.6909 90.2962 51.8411 91.2078 52.0618 92.1078C52.2129 92.7914 52.3496 93.4751 52.4309 94.1186C52.5811 95.7022 52.6132 97.2885 52.5265 98.8775C52.5265 99.6425 52.5265 100.45 52.5265 101.27C52.6418 103.202 52.4872 105.112 52.0618 107C51.842 107.658 51.5497 108.283 51.1869 108.873L49.8195 111.28L52.1717 109.79C53.4462 108.949 54.6678 108.038 55.835 107.055L56.4642 106.521C59.1989 104.463 61.5824 102.056 63.6146 99.3011C64.5816 97.8667 65.461 96.3805 66.2528 94.8434V94.6512C66.2921 94.5708 66.3422 94.4984 66.4039 94.4332L66.5129 94.2821C67.3279 92.6038 68.0214 90.8762 68.5907 89.0996C68.9348 87.7841 69.4496 86.54 70.1359 85.3666C70.5604 84.8125 71.0886 84.388 71.7222 84.094L72.296 83.766V83.438C72.3031 83.3513 72.3031 83.2646 72.296 83.1779C72.3085 83.0475 72.363 82.9384 72.4604 82.85C72.5972 82.7963 72.7339 82.7963 72.8706 82.85H73.28L73.5266 82.522C74.9753 80.6479 76.3972 78.7479 77.7922 76.847L78.1747 76.3135C78.4482 75.9578 78.7083 75.6021 78.9817 75.2607L79.1319 75.0685V74.8228C79.1247 74.6512 79.097 74.4823 79.0497 74.3169L82.1946 72.2793C83.3349 71.4723 84.5682 70.8476 85.8927 70.4026C87.2171 69.9575 88.5773 69.7126 89.9733 69.667C91.6919 69.8556 93.3238 70.3382 94.8681 71.1166L95.8797 71.5679C97.1765 72.1006 98.4295 72.7199 99.6395 73.4277C100.359 73.8728 101.035 74.3768 101.667 74.939C102.3 75.5011 102.878 76.1142 103.404 76.7773C103.93 77.4413 104.394 78.1446 104.797 78.8891C105.201 79.6327 105.536 80.4066 105.805 81.2091C106.465 83.2816 106.779 85.4059 106.749 87.5812V88.0325L107.145 88.2103L108.43 88.8529C109.262 89.2962 110.118 89.6841 111 90.0156C112.161 90.3847 113.351 90.5492 114.569 90.508H115.335C117.481 90.6778 119.518 91.2436 121.446 92.2034C122.053 92.4563 122.613 92.7896 123.125 93.2034C123.637 93.6181 124.079 94.0953 124.453 94.6378L124.644 94.939H125C125.086 94.9309 125.169 94.9408 125.25 94.9685C125.331 94.9971 125.404 95.04 125.466 95.099C125.529 95.1579 125.577 95.2268 125.61 95.3063C125.643 95.3858 125.659 95.4681 125.656 95.5538C125.656 96.4976 125.656 97.4413 125.656 98.4807C125.656 98.8775 125.656 99.2877 125.752 99.6979C125.777 101.344 126.086 102.935 126.682 104.47L127.283 105.838C128.286 108.252 129.434 110.595 130.729 112.867C131.172 113.649 131.555 114.461 131.877 115.301C132.133 116.137 132.493 116.927 132.956 117.669C133.419 118.411 133.972 119.08 134.611 119.676C135.943 120.677 137.396 121.448 138.972 121.988C139.492 122.18 139.998 122.384 140.504 122.603L141.051 122.863C142.188 123.474 143.4 123.834 144.687 123.944C145.201 123.951 145.688 123.841 146.15 123.615L146.806 123.274L146.409 122.644C145.716 121.755 144.881 121.026 143.908 120.457H143.88ZM170.212 101.845C169.887 101.786 169.568 101.704 169.255 101.599C167.805 100.981 166.47 100.175 165.249 99.1778C164.383 98.4012 163.6 97.5495 162.896 96.6218C162.194 95.6951 161.585 94.7093 161.071 93.6655C160.557 92.6225 160.147 91.5394 159.84 90.4169C159.533 89.2944 159.336 88.1532 159.247 86.9931C159.138 85.9234 158.974 84.8608 158.755 83.8071C158.448 82.2297 157.994 80.6962 157.395 79.2064C156.794 77.7157 156.059 76.2956 155.187 74.9461L154.08 73.3187C152.713 71.349 151.345 69.3114 150.088 67.1924C148.566 64.4219 147.294 61.5407 146.273 58.5495L146.109 58.1116C145.65 56.5574 144.93 55.1355 143.949 53.8451C143.389 53.1614 142.746 52.4777 142.145 51.9308C141.83 51.6162 141.502 51.3016 141.201 50.9736C140.088 49.6956 138.839 48.5713 137.451 47.599C136.063 46.6276 134.579 45.8384 132.998 45.2298C132.478 45.0252 131.945 44.8473 131.412 44.6695C130.515 44.388 129.636 44.06 128.773 43.6846L128.145 43.3834C126.789 42.6363 125.34 42.2082 123.797 42.0983C123.047 42.0241 122.297 42.0179 121.547 42.0778C120.796 42.1385 120.056 42.2645 119.328 42.4576C118.6 42.6497 117.894 42.9053 117.212 43.2244C116.529 43.5434 115.881 43.9197 115.266 44.3549C115.196 44.4183 115.114 44.455 115.02 44.4639H114.692L114.486 44.7106C113.625 45.7357 112.737 46.7482 111.848 47.7465C111.247 48.4301 110.631 49.1138 110.043 49.7975L109.374 50.5357C108.303 51.5715 107.447 52.7619 106.803 54.1051L106.434 55.0623H107.473C109.688 54.9693 111.876 55.1749 114.035 55.678C119.914 57.1276 124.877 61.3941 129.457 65.6329C133.367 69.2157 135.815 74.686 137.181 83.0278L137.263 83.4514L137.673 83.5747C138.732 83.9438 139.694 84.4863 140.558 85.2022C142.928 87.2353 144.915 89.592 146.519 92.2722C147.785 93.9827 149.27 95.4725 150.976 96.7443C151.564 97.2358 152.138 97.7014 152.671 98.1938C153.623 99.0008 154.649 99.7006 155.748 100.292C156.847 100.885 157.995 101.357 159.193 101.708L159.521 101.817C162.185 102.845 164.942 103.442 167.792 103.609C168.748 103.617 169.687 103.493 170.609 103.24L173.179 102.487L170.212 101.845ZM92.708 58.5906L92.7893 59.6568L94.4445 58.7139C95.3989 58.1205 96.3927 57.6013 97.424 57.1544C99.1945 56.4377 101.018 55.8997 102.893 55.5413C103.449 55.4314 104.023 55.3357 104.616 55.2535L105.204 55.1713V54.392C105.195 54.3017 105.207 54.2141 105.241 54.1292C105.275 54.0452 105.326 53.9728 105.395 53.9139L105.518 53.8039L105.586 53.6538C106.102 52.559 106.759 51.5563 107.555 50.6456C108.922 49.0039 110.29 47.3765 111.656 45.8179L112.025 45.4077C113.898 43.4737 115.429 41.2993 116.62 38.8846C117.521 36.6405 118.191 34.3294 118.629 31.9513C119.076 29.7251 119.771 27.5793 120.716 25.514C121.659 23.4487 122.828 21.5192 124.221 19.7255C127.08 15.9559 130.37 12.6108 134.092 9.68842L135.268 8.78578C137.245 7.15658 139.338 5.68823 141.542 4.38254L143.443 3.34318L141.283 3.11081C139.186 2.86326 137.085 2.81411 134.979 2.96335C132.873 3.1126 130.8 3.45846 128.76 4.00004C126.313 4.65601 123.975 5.51754 121.787 6.31114L121.145 6.5435C120.01 6.96711 118.807 7.3228 117.645 7.6642C116.483 8.00648 114.951 8.48461 113.584 9.04585C108.334 11.0969 103.932 14.9809 100.692 18.1535C99.745 19.0794 98.8575 20.0598 98.03 21.0929C97.2015 22.126 96.4383 23.2056 95.7403 24.3316C95.0423 25.4568 94.4141 26.6204 93.8573 27.8224C93.2996 29.0235 92.8161 30.2542 92.4068 31.5143C92.0923 32.3892 91.8054 33.2507 91.5042 34.1256C90.9984 35.6297 90.4925 37.1347 89.9322 38.6245C89.6694 39.3931 89.4684 40.1769 89.3307 40.9767C89.3307 41.3056 89.2074 41.647 89.1261 41.9893C89.026 42.2261 88.9071 42.454 88.7704 42.673C88.3602 43.4111 88.1278 43.8348 88.21 44.2182C88.236 44.3826 88.2083 44.5372 88.1278 44.6829L87.9777 45.0252L88.1823 45.3397C88.8267 46.3282 89.4067 47.3541 89.9233 48.415C90.4407 49.4767 90.8893 50.5652 91.2709 51.6823C91.6526 52.7994 91.9636 53.9362 92.204 55.0918C92.4444 56.2473 92.6124 57.4136 92.708 58.5906ZM35.2871 30.2014H35.4239L36.1076 30.3105C36.4212 30.3489 36.7314 30.4079 37.037 30.4883C37.4981 30.6036 37.9495 30.7493 38.3901 30.9262C39.2158 31.3096 40.0818 31.5429 40.988 31.6233H41.4805C42.3375 31.5884 43.1624 31.7341 43.9551 32.0612C44.9659 32.6859 45.7952 33.4974 46.4432 34.4947L46.7711 34.9192C47.9741 36.4644 49.0134 38.1187 50.0251 39.7193C50.5586 40.5808 51.1047 41.4557 51.6793 42.3039L51.8161 42.5219L52.0618 42.5907C53.1834 42.9268 54.2773 43.337 55.3435 43.8214L56.4642 44.2861L57.5169 44.7106C60.2096 45.6427 62.7343 46.91 65.091 48.5124C65.8569 49.0861 66.6907 49.6197 67.4834 50.1255C69.3307 51.155 70.9027 52.5036 72.2004 54.173C72.6606 54.896 73.0664 55.6485 73.4167 56.4296C73.7679 57.2357 74.1781 58.0106 74.6473 58.7541C74.9896 59.2465 75.3721 59.739 75.7412 60.218C76.3158 60.8901 76.8217 61.6095 77.2587 62.3781C77.6841 63.2878 78.0121 64.2316 78.2435 65.2093C78.5617 66.7867 79.1864 68.2309 80.1158 69.5437L80.5537 70.0638L81.073 69.6402L81.3053 69.4347C82.5529 68.2407 83.6924 66.9502 84.7237 65.565C85.7363 64.1806 86.916 62.959 88.2646 61.8999C89.118 61.3119 90.0296 60.8329 90.9984 60.4638L91.4363 60.2725V59.7935C91.4148 58.9686 91.3541 58.1464 91.2549 57.3269C91.1557 56.5074 91.018 55.6941 90.842 54.888C90.6659 54.0819 90.4523 53.2856 90.2012 52.4991C89.9501 51.7127 89.6623 50.9396 89.3388 50.1809C89.0144 49.4213 88.6551 48.6795 88.261 47.9538C87.8678 47.229 87.4397 46.5239 86.9794 45.8393C86.5192 45.1539 86.0267 44.4925 85.5039 43.8535C84.9811 43.2154 84.4297 42.6024 83.8488 42.0161C80.2803 38.5289 75.6456 36.5467 71.2298 34.5224C69.3432 33.6877 67.3878 32.8262 65.57 31.8691C62.6128 30.2113 59.4777 29.0253 56.1639 28.3139C54.5231 28.1012 52.8822 28.1012 51.2414 28.3139L50.5586 28.3819C48.7721 28.4927 46.9856 28.4927 45.1991 28.3819L43.1213 28.2451C41.863 28.1638 40.6055 28.0673 39.3615 28.0405C38.3901 28.0405 37.4195 28.0405 36.4355 28.0405H36.0119C35.7063 28.0128 35.4006 28.0128 35.0959 28.0405L34.7679 28.1227L34.5901 28.3416C34.4998 28.4114 34.4238 28.4936 34.3622 28.5892C34.3005 28.6839 34.2558 28.7876 34.2281 28.8975C34.2013 29.0083 34.1924 29.1201 34.2031 29.2327C34.2138 29.3462 34.2424 29.4543 34.2889 29.558C34.4024 29.7412 34.5498 29.8895 34.7331 30.0021C34.9154 30.1156 35.1138 30.1818 35.3283 30.2014H35.2871ZM17.5142 54.0363C18.239 54.1462 18.9629 54.2419 19.7011 54.3098L20.8772 54.4063C22.3857 54.434 23.8532 54.6932 25.2795 55.1856C26.9901 55.9765 28.6211 56.9069 30.1725 57.9766C31.7249 59.0464 33.1736 60.2403 34.5212 61.5576C35.246 62.2002 36.0253 62.8026 36.7769 63.3906C37.5294 63.9787 38.4044 64.648 39.156 65.3326C39.5385 65.7312 39.8852 66.1602 40.1953 66.6178C40.7673 67.5704 41.5332 68.3265 42.4921 68.8877L42.6968 68.9834H42.9291C43.7773 68.818 44.6111 68.5991 45.4315 68.3274L46.7988 67.8761C48.2109 67.3327 49.6506 66.8769 51.119 66.5087C51.8983 66.3076 52.6892 66.1941 53.4935 66.1682C54.2978 66.1423 55.095 66.2049 55.8859 66.355C56.676 66.5051 57.441 66.7393 58.1801 67.0583C58.9183 67.3774 59.6136 67.7724 60.2651 68.2452L60.6619 68.5455L61.0721 68.2452C65.1732 65.1959 69.5479 64.2244 73.212 65.5096C74.3122 65.9225 75.3372 66.4739 76.2881 67.1647L77.9424 68.3819L77.2453 66.0842C77.0272 65.254 76.7537 64.4425 76.4249 63.6498C75.9458 62.5934 75.3256 61.6274 74.5651 60.7515C74.3059 60.4092 74.0324 60.067 73.7724 59.7122C73.2433 58.9463 72.7875 58.1402 72.405 57.2911C72.0833 56.5923 71.7231 55.9131 71.3254 55.2535C70.606 54.2758 69.7847 53.3928 68.8615 52.6055C67.9374 51.8173 66.9356 51.1461 65.8569 50.5902C65.1455 50.1532 64.4896 49.7153 63.8336 49.2229C61.6002 47.8492 59.2355 46.7643 56.7376 45.968L55.07 45.312L54.3175 45.0109C53.7026 44.7651 53.0878 44.505 52.4586 44.2861L52.2263 44.2039L51.9939 44.3004C51.9179 44.3308 51.8384 44.3495 51.7562 44.3558C51.6749 44.3611 51.5935 44.3549 51.514 44.3352C51.4344 44.3156 51.3594 44.2834 51.2897 44.2405C51.22 44.1967 51.1583 44.144 51.1047 44.0814L50.9545 43.8902H50.7088C50.3754 43.8169 50.0376 43.7713 49.6971 43.7534H48.3297C47.2823 43.749 46.2474 43.631 45.2259 43.3977C44.5566 43.2467 43.8595 43.0689 43.2848 42.8776C41.9943 42.454 40.6735 42.1859 39.3204 42.0706C37.8297 42.0706 36.2988 42.0706 34.8224 42.0706H34.0565C32.3522 42.1484 30.6569 42.3173 28.9705 42.5773H28.5746C27.932 42.6587 27.2752 42.7141 26.6192 42.7686C25.6004 42.832 24.5887 42.9545 23.5842 43.1377C22.6726 43.3557 21.7977 43.6748 20.9594 44.0948C20.2176 44.4746 19.4428 44.766 18.6349 44.9698L18.0057 45.052C17.4356 45.0877 16.8895 45.22 16.3658 45.4488C15.6231 45.842 14.9484 46.33 14.3425 46.9118C12.522 48.5293 10.5309 49.8967 8.36723 51.0147L7.82118 51.2739C6.11959 51.9701 4.60656 52.9549 3.2821 54.2284L1.39551 56.443L4.0337 55.5413L4.62175 55.2946L5.09988 55.1034C5.90867 54.7843 6.73802 54.5341 7.58882 54.3509C9.63002 53.9183 11.6945 53.6994 13.7812 53.6949C15.0521 53.7199 16.314 53.8334 17.5687 54.0363H17.5142ZM50.2852 85.8724C50.2574 85.7723 50.2574 85.6714 50.2843 85.5713C50.3111 85.4712 50.3611 85.3845 50.4353 85.3112L50.572 85.1611V84.9555C50.8553 83.421 51.3111 81.9402 51.9394 80.5112C52.8679 78.537 53.9752 76.6674 55.2613 74.905L56.1362 73.5376C56.9807 72.2606 57.937 71.0755 59.0076 69.9816L59.6091 69.3802L58.8977 68.9834C58.4777 68.7072 58.0362 68.4695 57.5741 68.2702C57.1121 68.07 56.6367 67.9127 56.1469 67.7956C55.6572 67.6795 55.1612 67.6062 54.6589 67.5758C54.1566 67.5454 53.6562 67.5588 53.1557 67.616C51.228 67.8707 49.3602 68.3533 47.5504 69.0656L46.7577 69.3257C45.5432 69.7359 44.3081 70.0692 43.0525 70.3239H42.8478C42.8478 70.3239 42.8478 70.3239 42.67 70.3239H42.4099L40.0854 70.7475L38.8968 70.9531C36.3792 71.4795 33.9591 72.2954 31.6364 73.4009C29.7864 74.342 28.1635 75.5815 26.7693 77.1205L25.8399 78.0365C25.4163 78.4333 24.965 78.8158 24.4725 79.2126C23.2169 80.159 22.1641 81.294 21.3151 82.6176C21.0961 83.0215 20.9004 83.4362 20.727 83.8616C20.5304 84.489 20.2525 85.077 19.8932 85.6258C19.5545 86.0306 19.1854 86.4042 18.785 86.7474L18.239 87.2666C17.4874 88.1567 16.8627 89.1273 16.364 90.1801C15.8662 91.2319 15.5114 92.3303 15.2987 93.4751L15.1763 93.913C14.4926 96.3063 13.9046 98.6997 13.3442 100.955C13.0136 102.458 12.7946 103.975 12.6883 105.51C12.5783 106.494 12.4827 107.52 12.3192 108.504C12.0761 110.009 12.144 111.5 12.5238 112.976C12.7097 113.818 12.7919 114.671 12.7696 115.533V116.204C12.7026 117.369 12.7714 118.527 12.9751 119.676L13.0708 120.238C13.2602 121.109 13.397 121.989 13.481 122.877C13.5632 123.847 13.6856 124.832 13.8089 125.804C13.9868 127.321 14.1914 128.894 14.2326 130.439C14.2326 132.189 14.2326 134.009 14.2326 135.759C14.2326 136.579 14.2326 137.399 14.2326 138.234V140.86C14.2326 142.596 14.2326 144.333 14.2326 146.07C14.1477 148.184 13.9108 150.28 13.5221 152.36L13.3987 153.058C12.7892 157.098 11.6998 161.005 10.1314 164.777C9.78016 165.612 9.37532 166.419 8.91417 167.198L7.97132 168.784L9.68007 168.237C10.151 168.071 10.6068 167.871 11.0474 167.635C11.4442 167.417 11.8133 167.157 12.1824 166.91C12.5497 166.649 12.9331 166.412 13.3308 166.2C13.7151 166.007 14.1119 165.843 14.5203 165.707C15.0145 165.535 15.4927 165.325 15.9556 165.078C16.532 164.7 17.0298 164.236 17.4472 163.687C17.8645 163.139 18.1791 162.535 18.3891 161.878C18.6421 161.375 18.9289 160.891 19.2507 160.428C19.5786 159.909 19.9066 159.416 20.2346 158.938C21.2159 157.62 21.9854 156.188 22.5448 154.644C24.9882 146.639 26.4878 138.462 27.0428 130.111C27.1795 128.252 27.1938 126.351 27.2072 124.518C27.1661 122.207 27.2475 119.901 27.453 117.599C27.5352 116.996 27.6174 116.408 27.7131 115.82C27.924 114.571 28.0562 113.312 28.1099 112.046C28.1 110.33 28.2323 108.626 28.5058 106.931C29.0911 104.325 29.9518 101.813 31.0895 99.3967C31.4183 98.6443 31.732 97.8927 32.0332 97.1545C32.5417 95.7916 33.2388 94.5332 34.1253 93.3795L34.2478 93.1203C34.2701 93.022 34.3157 92.9371 34.3845 92.8638C34.4524 92.7905 34.5347 92.7387 34.6312 92.7101L34.8903 92.5591C35.314 92.19 35.7697 91.8665 36.2577 91.5885L36.5723 91.3973V91.0961C36.5723 90.8092 36.7358 90.4803 36.9548 90.4392C37.4696 90.3105 37.9852 90.3105 38.5 90.4392L38.7457 90.5626H38.9924C39.8262 90.3302 40.66 90.1524 41.5073 89.9745C42.636 89.7672 43.7478 89.4937 44.8434 89.1541C50.6131 87.2532 50.4076 86.3917 50.2852 85.8724ZM99.106 74.577C97.6913 73.7539 96.2238 73.0381 94.7036 72.4295L94.1567 72.1971C93.4221 71.8137 92.6526 71.5206 91.8483 71.3195C91.0448 71.1184 90.228 71.0147 89.3995 71.0076C88.6739 71.0952 87.9589 71.2355 87.2547 71.4294C86.5496 71.6233 85.8632 71.8673 85.1956 72.1631C84.5271 72.459 83.8837 72.8012 83.267 73.1927C82.6495 73.5832 82.0641 74.0167 81.5109 74.4948C80.5001 75.4555 79.6252 76.5262 78.8861 77.7085C78.5939 78.1366 78.307 78.5468 78.0246 78.9391C76.8485 80.5255 75.659 82.0975 74.5249 83.5882L73.7313 84.4229L73.8957 84.8465C74.3515 85.7938 74.9574 86.633 75.7135 87.3631C76.3775 88.0343 77.0925 88.6456 77.8601 89.1952L78.4205 89.6188C80.2088 91.1354 81.6807 92.913 82.8371 94.9524L83.3019 95.6638C84.0687 96.7693 84.9025 97.8221 85.8033 98.8221C86.6389 99.7444 87.4138 100.716 88.1278 101.736C88.8321 102.82 89.4237 103.963 89.9027 105.164C90.3808 106.365 90.7374 107.602 90.9716 108.873C91.0538 109.284 91.1494 109.694 91.2316 110.118C91.7955 112.141 92.0377 114.201 91.9555 116.299C91.9555 116.86 91.792 117.421 91.6963 117.981C91.5221 118.798 91.4122 119.623 91.3675 120.457C91.3943 121.93 91.5954 123.38 91.9698 124.805V124.997C92.0923 125.585 92.229 126.173 92.3523 126.747C92.9439 129.082 93.3586 131.447 93.5963 133.844C93.5963 134.5 93.5963 135.212 93.7054 135.8C93.7054 136.661 93.7742 137.523 93.8564 138.384C93.8564 138.849 93.9654 139.3 94.0343 139.752C94.1853 140.717 94.2622 141.688 94.2666 142.665C94.1522 143.733 94.1772 144.798 94.3417 145.86C94.5061 146.922 94.8046 147.944 95.2372 148.928L95.3328 149.147C95.7743 150.176 96.348 151.124 97.055 151.991L98.669 153.755L98.2311 151.403C98.1488 150.966 98.0264 150.5 97.9031 150.035C97.7181 149.455 97.5956 148.863 97.534 148.258C97.5 146.653 97.6546 145.066 97.9987 143.499L98.1631 142.555C98.2543 141.943 98.2999 141.328 98.299 140.709C98.299 140.231 98.299 139.766 98.3812 139.341C98.5161 138.57 98.7431 137.827 99.0649 137.113L99.2704 136.579C99.9943 134.44 100.541 132.257 100.91 130.029V129.892C101.283 127.664 101.424 125.421 101.335 123.164C101.347 121.663 101.447 120.168 101.635 118.678L101.745 117.653C102.09 114.859 102.582 112.093 103.221 109.353L103.836 106.467C104.685 102.362 105.141 98.2135 105.204 94.0229C105.204 93.0515 105.204 92.0666 105.286 91.0827C105.482 88.6009 105.418 86.1254 105.094 83.657C105.02 83.1949 104.922 82.7382 104.8 82.2869C104.677 81.8365 104.532 81.3923 104.362 80.9571C104.193 80.521 104.001 80.0956 103.786 79.68C103.571 79.2644 103.335 78.8623 103.078 78.4717C102.82 78.0812 102.543 77.7058 102.246 77.3448C101.949 76.9837 101.633 76.6397 101.299 76.3126C100.966 75.9855 100.615 75.6763 100.249 75.3867C99.8826 75.0963 99.501 74.8264 99.106 74.577Z" fill="#7EAF94"/>
<path d="M124.262 99.3691C124.257 99.4468 124.257 99.5246 124.262 99.6023C124.269 99.6979 124.269 99.7936 124.262 99.8892C124.205 100.806 124.1 101.718 123.947 102.624C123.852 103.335 123.743 103.991 123.688 104.757C123.481 107.565 122.92 110.3 122.006 112.962C121.583 114.264 120.95 115.454 120.105 116.532C119.733 116.94 119.315 117.294 118.852 117.595C118.389 117.896 117.895 118.135 117.371 118.309L116.688 118.61C116.376 118.744 116.084 118.913 115.813 119.116L115.635 119.226C115.047 119.444 114.473 119.677 113.898 119.923L112.409 120.525C110.3 121.303 108.121 121.668 105.873 121.619C105.783 121.619 105.695 121.636 105.612 121.671C105.528 121.705 105.454 121.755 105.39 121.819C105.326 121.883 105.277 121.957 105.242 122.041C105.207 122.124 105.19 122.212 105.19 122.302C105.19 122.393 105.207 122.48 105.242 122.564C105.277 122.648 105.326 122.722 105.39 122.786C105.454 122.85 105.528 122.899 105.612 122.934C105.695 122.969 105.783 122.986 105.873 122.986C108.076 123.033 110.222 122.71 112.313 122.015L113.325 121.605L114.282 121.195V122.234C114.282 122.494 114.282 122.768 114.282 123.041C114.344 125.314 114.111 127.557 113.584 129.769C113.42 130.631 113.256 131.492 113.119 132.354C112.887 133.899 112.764 135.485 112.628 137.03C112.491 138.576 112.395 139.766 112.203 141.229C112.053 142.392 111.957 143.553 111.862 144.716C111.712 146.385 111.561 148.121 111.247 149.844L110.959 151.389C110.572 153.912 109.997 156.392 109.237 158.828L108.909 159.8C107.542 163.902 105.942 168.866 100.706 168.948H100.487C99.1194 168.948 97.7529 169.071 96.3856 169.167C94.608 169.29 92.7894 169.399 90.9171 169.399C89.6775 169.406 88.4424 169.337 87.2118 169.194C85.0928 168.991 82.9685 168.918 80.8406 168.975H80.5538C78.1747 168.924 75.8368 168.587 73.54 167.964C71.8313 167.554 70.068 167.211 68.3584 166.87C66.3896 166.473 64.3394 166.063 62.3429 165.502C59.4858 164.763 55.9172 163.574 53.5793 160.812C50.8455 157.529 50.1341 152.716 49.656 149.202L49.2869 146.466C48.8079 143.061 48.3021 139.519 47.9195 136.046C47.4682 131.861 46.9624 127.471 46.3341 122.617C46.3341 122.33 46.3341 122.084 46.2376 121.824L46.0875 120.812L47.0857 121.058C52.1306 122.317 57.1613 123.191 61.4135 123.889C66.0348 124.529 70.6739 124.716 75.331 124.45C76.8351 124.45 78.3392 124.45 79.8567 124.45C79.9014 124.45 79.946 124.445 79.9898 124.436C80.0336 124.427 80.0765 124.413 80.1176 124.395C80.1587 124.376 80.1972 124.354 80.2338 124.327C80.2705 124.301 80.3026 124.271 80.333 124.237C80.3625 124.204 80.3884 124.167 80.4108 124.128C80.4322 124.089 80.4501 124.048 80.4635 124.005C80.476 123.962 80.4849 123.917 80.4885 123.872C80.4921 123.828 80.4912 123.783 80.4849 123.738C80.4903 123.559 80.4358 123.399 80.3214 123.259C80.2651 123.191 80.1954 123.141 80.1123 123.11C80.0292 123.078 79.9443 123.069 79.8567 123.082C78.3526 123.082 76.8628 123.082 75.3855 123.082C70.665 123.339 65.9615 123.148 61.2767 122.508C54.9789 121.513 48.7623 120.146 42.6289 118.405C42.5145 118.377 42.401 118.377 42.2866 118.405H41.9729L41.426 118.446C36.1076 117.011 36.2711 111.608 36.3944 107.793C36.3944 107.328 36.3944 106.864 36.3944 106.426C36.507 104.548 36.4615 102.675 36.2577 100.805C35.9297 98.5692 35.7286 96.3225 35.6562 94.0632V93.7486L35.902 93.5306C36.6724 92.8746 37.5384 92.392 38.5 92.081L38.7601 91.9854L39.0192 92.0944C39.3052 92.2356 39.601 92.35 39.9085 92.4358C40.4545 92.5734 40.988 92.6547 41.535 92.7369C42.0819 92.8192 42.6012 92.9014 43.1347 93.0238C45.4637 93.6101 47.8293 93.9336 50.2298 93.9953C50.2298 93.9953 50.2298 93.9953 50.3942 93.9953H50.9822L51.0645 94.5833C51.1789 95.3215 51.2432 96.0651 51.2557 96.8122C51.2557 97.7971 51.2557 98.781 51.1601 99.7793C51.1601 100.436 51.1601 101.148 51.0913 101.762C51.0913 102.146 51.0913 102.542 51.0913 102.938C51.1127 104.105 50.9805 105.254 50.6954 106.385C50.2753 107.698 49.5872 108.851 48.6309 109.845C48.2046 110.267 47.8382 110.737 47.5326 111.253C47.2269 111.77 46.991 112.317 46.8257 112.894C46.7694 113.136 46.8096 113.359 46.949 113.565C47.1 113.728 47.2868 113.815 47.5093 113.824C48.1269 113.779 48.7167 113.627 49.2798 113.368C49.8419 113.109 50.3415 112.759 50.7767 112.32C51.4604 111.8 52.1441 111.321 52.8822 110.857C53.6204 110.392 54.414 109.831 55.1379 109.257L55.7671 108.75C58.5349 106.7 61.064 104.389 63.3546 101.817C64.8095 100.052 66.058 98.151 67.101 96.1151L67.3878 95.5816L67.9482 95.8005L68.6319 96.0329C69.3191 96.234 70.0216 96.3305 70.7374 96.3198H71.4622C72.4327 96.3198 73.431 96.3198 74.4293 96.3198C76.5071 96.4842 78.8584 96.6755 80.3625 95.3081L80.9095 94.2964L81.5377 95.3215C81.7495 95.7085 81.9819 96.0821 82.2357 96.4431C83.0043 97.5343 83.8336 98.579 84.7237 99.5746C85.8203 100.758 86.7605 102.056 87.5443 103.466C88.328 104.876 88.9322 106.36 89.3585 107.916C90.1789 111.061 90.9439 114.371 90.4112 117.311C90.1744 118.696 90.0877 120.091 90.1503 121.495C90.2119 122.899 90.422 124.28 90.7803 125.639C91.5909 128.987 92.1244 132.379 92.38 135.813C92.448 137.263 92.5713 138.631 92.7491 139.998C92.8734 141.071 92.9091 142.147 92.8582 143.225C92.8099 144.059 92.8099 144.894 92.8582 145.728C93.0905 148.463 95.5929 154.466 98.8048 154.221C98.8853 154.219 98.963 154.206 99.0381 154.181C99.114 154.156 99.1846 154.12 99.249 154.074C99.3142 154.028 99.3705 153.973 99.4179 153.909C99.4662 153.845 99.5037 153.775 99.5296 153.7C99.6422 153.103 99.6726 152.501 99.6217 151.895C99.5698 151.29 99.4393 150.702 99.2293 150.131L99.0926 149.584C98.9147 148.53 98.8504 147.47 98.8987 146.403C98.9469 145.336 99.1078 144.286 99.3795 143.253C99.5368 142.32 99.6279 141.381 99.6529 140.435C99.7352 139.212 100.027 138.04 100.528 136.921L100.61 136.702C101.265 134.807 101.757 132.869 102.086 130.891L102.154 130.548C102.594 127.955 102.822 125.343 102.838 122.712C102.838 120.976 102.948 119.171 103.139 117.38C103.452 114.716 103.908 112.077 104.507 109.462C104.889 107.766 105.272 106.002 105.559 104.251C105.989 101.533 106.248 98.798 106.339 96.0463V95.2536L107.118 95.4171C107.249 95.4448 107.382 95.4448 107.514 95.4171C108.301 95.292 109.075 95.1142 109.838 94.8845L110.344 94.7612C110.982 94.6387 111.607 94.4654 112.217 94.241C112.693 94.0266 113.149 93.7754 113.584 93.4894L114.008 93.2294C114.309 93.0515 114.582 92.8871 114.883 92.7369L115.006 92.6279L115.335 92.5591H115.676L115.758 92.8192V92.5323C115.953 92.5189 116.121 92.4465 116.264 92.3133L116.51 92.0944H116.838C117.18 92.0944 117.795 92.2722 118.506 92.4769H122.525L120.037 92.9836C120.647 93.2061 121.216 93.5055 121.744 93.8818C122.273 94.2571 122.743 94.6968 123.154 95.1982C123.543 95.8229 123.831 96.4905 124.02 97.201C124.209 97.9115 124.289 98.6345 124.262 99.3691Z" fill="#DBCBBB"/>
<mask id="mask0_283_107541" style="mask-type:luminance" maskUnits="userSpaceOnUse" x="0" y="0" width="175" height="172">
<path d="M0 0.739014H175V171.414H0V0.739014Z" fill="white"/>
</mask>
<g mask="url(#mask0_283_107541)">
<path d="M104.699 23.0081C104.654 22.9303 104.618 22.8499 104.589 22.765C104.56 22.681 104.541 22.5943 104.529 22.5058C104.517 22.4174 104.514 22.3289 104.52 22.2395C104.525 22.151 104.54 22.0634 104.563 21.9768C104.585 21.891 104.617 21.8079 104.655 21.7274C104.694 21.647 104.741 21.5719 104.794 21.5004C104.849 21.4289 104.909 21.3646 104.976 21.3047C105.042 21.2457 105.114 21.193 105.191 21.1483C105.268 21.1027 105.349 21.0652 105.435 21.0357C105.52 21.0062 105.607 20.9856 105.696 20.9731C105.785 20.9606 105.875 20.9579 105.964 20.9633C106.055 20.9687 106.142 20.983 106.23 21.0053C106.316 21.0285 106.4 21.0598 106.482 21.0991C106.562 21.1385 106.638 21.1849 106.71 21.2395C106.782 21.294 106.847 21.3556 106.907 21.4227C106.966 21.4897 107.019 21.563 107.064 21.6407C107.599 22.5148 107.905 23.463 107.98 24.4845C108.021 25.2915 108.021 26.0985 107.98 26.9055C107.98 26.9949 107.972 27.0842 107.954 27.1718C107.936 27.2603 107.91 27.3461 107.876 27.4283C107.841 27.5114 107.799 27.5901 107.75 27.6651C107.7 27.7402 107.643 27.809 107.579 27.8725C107.516 27.9359 107.447 27.9922 107.372 28.0423C107.298 28.0923 107.219 28.1343 107.136 28.1692C107.053 28.2031 106.968 28.2291 106.879 28.2469C106.791 28.2639 106.703 28.2728 106.613 28.2728C106.523 28.2728 106.434 28.2639 106.346 28.2469C106.258 28.2291 106.173 28.2031 106.089 28.1692C106.006 28.1343 105.928 28.0923 105.853 28.0423C105.778 27.9922 105.71 27.9359 105.646 27.8725C105.583 27.809 105.526 27.7402 105.476 27.6651C105.426 27.5901 105.384 27.5114 105.349 27.4283C105.315 27.3461 105.29 27.2603 105.272 27.1718C105.255 27.0842 105.246 26.9949 105.246 26.9055C105.246 26.0708 105.246 25.237 105.246 24.4165C105.189 24.1324 105.112 23.8544 105.013 23.5827C104.903 23.3906 104.808 23.1993 104.699 23.0081ZM122.676 73.3187V73.2365C122.595 73.0175 122.526 72.7986 122.458 72.5662C122.327 72.1167 122.222 71.6609 122.144 71.1989C122.144 71.1032 122.144 71.021 122.144 70.9388C122.144 70.8566 122.144 70.5018 122.144 70.2828C122.123 69.9084 122.032 69.5518 121.871 69.2131C121.71 68.8752 121.491 68.5794 121.214 68.3274C121.084 68.2005 120.935 68.1013 120.767 68.0307C120.599 67.9601 120.425 67.9217 120.243 67.9172C120.063 67.919 119.89 67.9565 119.725 68.0271C119.558 68.0986 119.413 68.1978 119.287 68.3274C119.223 68.3909 119.167 68.4597 119.118 68.5339C119.068 68.608 119.027 68.6867 118.992 68.7698C118.958 68.852 118.932 68.9378 118.915 69.0254C118.897 69.113 118.889 69.2014 118.889 69.2908C118.889 69.3802 118.897 69.4696 118.915 69.5571C118.932 69.6447 118.958 69.7296 118.992 69.8127C119.027 69.895 119.068 69.9736 119.118 70.0487C119.167 70.1228 119.223 70.1917 119.287 70.2551L119.382 70.3373V70.4875C119.373 70.433 119.373 70.3784 119.382 70.3239C119.378 70.3874 119.378 70.4517 119.382 70.5152V70.5974C119.414 71.1202 119.473 71.6394 119.56 72.156C119.69 73.1257 119.977 74.0471 120.421 74.9184C120.46 75.006 120.508 75.0882 120.565 75.1651C120.622 75.2419 120.685 75.3125 120.757 75.376C120.828 75.4394 120.906 75.4949 120.989 75.5431C121.072 75.5905 121.159 75.6289 121.25 75.6575C121.341 75.687 121.434 75.7058 121.53 75.7156C121.625 75.7254 121.719 75.7254 121.815 75.7147C121.91 75.704 122.003 75.6843 122.094 75.6548C122.185 75.6244 122.272 75.586 122.354 75.5378C122.437 75.4895 122.514 75.4332 122.584 75.3688C122.655 75.3045 122.718 75.2339 122.775 75.1561C122.831 75.0793 122.878 74.9962 122.917 74.9086C122.955 74.821 122.985 74.7307 123.004 74.6369C123.024 74.544 123.034 74.4492 123.034 74.3536C123.034 74.258 123.024 74.1632 123.004 74.0694C122.984 73.9756 122.954 73.8853 122.915 73.7977C122.877 73.711 122.829 73.6279 122.773 73.5511C122.737 73.4751 122.705 73.3973 122.676 73.3187ZM117.919 74.6861V74.577C117.894 74.0685 117.821 73.5672 117.7 73.072C117.369 72.1775 117.091 71.265 116.867 70.3373C116.817 70.1675 116.739 70.012 116.631 69.8726C116.522 69.7332 116.39 69.6188 116.237 69.5303C116.12 69.4624 115.996 69.4124 115.865 69.382C115.733 69.3507 115.6 69.3391 115.465 69.3471C115.33 69.3561 115.199 69.3838 115.072 69.4302C114.946 69.4776 114.829 69.5428 114.721 69.6242C114.613 69.7064 114.52 69.802 114.441 69.9119C114.361 70.0219 114.3 70.1407 114.256 70.2685C114.212 70.3963 114.188 70.5277 114.183 70.6635C114.178 70.7985 114.193 70.9316 114.227 71.0621C114.392 72.0881 114.857 73.0309 115.117 74.0292C115.117 74.0292 115.117 74.1525 115.117 74.2213V74.3581C115.117 74.6038 115.117 74.8362 115.117 75.0829C115.147 75.4091 115.238 75.7183 115.389 76.0087C115.541 76.3001 115.741 76.5521 115.992 76.7648C116.266 77.0168 116.589 77.1491 116.962 77.1616C117.144 77.1625 117.319 77.1285 117.487 77.0597C117.656 76.9909 117.804 76.8926 117.933 76.7648C117.997 76.7013 118.054 76.6316 118.104 76.5566C118.155 76.4824 118.197 76.4028 118.232 76.3197C118.267 76.2366 118.293 76.1499 118.311 76.0615C118.329 75.973 118.338 75.8836 118.338 75.7933C118.338 75.7031 118.329 75.6137 118.311 75.5252C118.293 75.4368 118.267 75.351 118.232 75.2679C118.197 75.1847 118.155 75.1052 118.104 75.0301C118.054 74.956 117.997 74.8862 117.933 74.8228L117.919 74.6861ZM174.082 103.814C170.747 106.289 165.879 105.838 162.161 104.744C157.922 103.527 153.848 102.173 150.608 99.0411C148.83 97.318 146.684 95.9784 145.139 93.9407C144.216 92.4232 143.209 90.9647 142.118 89.5643C141.26 88.625 140.348 87.7403 139.383 86.9118C139.028 86.6106 138.645 86.3506 138.276 86.0914C138.64 88.8163 138.745 91.551 138.59 94.2964C138.372 97.7282 137.36 101.052 137.757 104.511C138.153 107.971 139.849 110.843 141.188 113.919C141.729 115.396 142.563 116.681 143.69 117.777C144.551 118.528 145.55 119.144 146.425 119.882C148.01 121.249 149.829 123.315 147.792 125.038C145.754 126.761 143.307 126.008 141.23 125.175C138.798 124.343 136.47 123.285 134.243 122.002C133.116 121.261 132.15 120.349 131.344 119.266C130.374 117.899 130.21 116.34 129.458 114.904C128.09 112.293 126.724 109.667 125.507 106.986C125.176 109.939 124.392 112.765 123.155 115.465C122.76 116.33 122.24 117.112 121.599 117.812C120.956 118.513 120.222 119.098 119.396 119.567C119.356 119.664 119.306 119.755 119.246 119.841L118.356 120.306C118.152 120.401 117.919 120.484 117.728 120.593L117.4 120.716L116.962 120.853C116.715 121.045 116.546 121.291 116.456 121.592C116.45 121.669 116.45 121.746 116.456 121.824C116.463 121.865 116.463 121.906 116.456 121.947C116.395 122.602 116.386 123.259 116.429 123.916C116.44 125.299 116.303 126.666 116.018 128.018C115.69 129.865 115.253 131.683 115.034 133.489C114.843 135.02 114.925 136.552 114.748 138.084C114.57 139.615 114.187 141.379 114.105 143.048C114.023 144.415 113.982 145.782 113.804 147.232C113.125 152.955 111.73 158.498 109.62 163.861C108.116 167.498 105.683 170.316 101.827 170.835C101.662 170.909 101.49 170.945 101.308 170.944C98.5734 170.944 95.7306 171.259 92.9414 171.382C90.1521 171.506 87.5953 171.095 84.8749 170.959C82.242 171.027 79.6119 170.959 76.9862 170.753C74.5259 170.356 72.1191 169.673 69.6856 169.112C63.1232 167.622 55.2899 167.129 51.1879 160.907C48.9188 157.516 48.2074 153.181 47.6748 149.228C47.0733 144.716 46.3753 140.217 45.9106 135.691C45.6514 133.174 45.4459 130.644 45.159 128.128C45.0223 126.952 44.8721 125.763 44.68 124.586C44.6576 123.549 44.5155 122.527 44.2564 121.523C44.1357 121.329 43.9838 121.165 43.7988 121.03C43.6147 120.895 43.4118 120.8 43.1902 120.744L42.2742 120.498C41.5038 120.394 40.7424 120.244 39.9908 120.047C39.2311 119.779 38.5233 119.414 37.8656 118.949C37.2078 118.484 36.6269 117.938 36.122 117.311C34.0164 114.576 34.2488 110.473 34.3587 107.178C34.5097 104.703 34.4141 102.236 34.0709 99.7793C33.9753 99.2189 33.9342 98.6443 33.8663 98.0839C33.6062 98.7542 33.3604 99.4513 33.1147 100.122C32.431 101.94 31.5418 103.704 30.9537 105.592C30.4139 107.52 30.1583 109.484 30.1887 111.486C30.0707 113.603 29.8428 115.709 29.505 117.803C29.2727 119.786 29.4362 121.906 29.3817 123.834C29.2682 128.217 28.9089 132.579 28.3021 136.921C27.7078 141.252 26.8972 145.541 25.8686 149.79C25.4307 152 24.8435 154.17 24.1044 156.298C23.2885 158.037 22.3045 159.673 21.1517 161.208C20.2356 162.576 19.7843 164.34 18.7047 165.612C17.5367 166.638 16.2104 167.38 14.726 167.84C13.2103 168.795 11.6284 169.624 9.98224 170.329C8.27885 170.776 6.54687 171.018 4.78629 171.054C3.00962 171.163 3.05073 168.47 4.78629 168.319C6.52274 168.168 7.521 165.775 8.06794 164.462C8.92589 162.569 9.64085 160.622 10.2146 158.624C11.6606 153.021 12.3166 147.327 12.1834 141.543C12.3273 136.158 12.1495 130.784 11.6499 125.42C11.472 123.903 11.4309 122.384 11.1163 120.88C10.8527 119.774 10.6972 118.652 10.6516 117.516C10.7571 116.204 10.7249 114.896 10.556 113.591C10.3361 112.813 10.1628 112.025 10.0368 111.226C10.0216 109.905 10.1628 108.601 10.4604 107.315C10.6659 105.948 10.6382 104.579 10.8161 103.294C11.2129 100.912 11.7464 98.5594 12.4158 96.2375C12.9636 93.8281 13.6973 91.4759 14.6169 89.1818C15.4034 87.5124 16.4928 86.0717 17.8843 84.8599C18.6341 83.8741 19.2311 82.8035 19.6753 81.6462C20.199 80.7739 20.8326 79.9901 21.5753 79.2948C23.1473 77.7354 24.8015 76.2724 26.3601 74.6861C27.1635 73.9076 28.0376 73.2213 28.9849 72.627C29.9313 72.0327 30.9296 71.5429 31.9797 71.1577C33.9458 70.2792 35.9781 69.6 38.0774 69.1201L39.5949 68.8601C39.3071 68.5187 39.0336 68.1764 38.7467 67.8073C37.4276 66.4489 35.9924 65.2272 34.44 64.1422C31.2826 61.5309 28.2744 58.3582 24.31 56.9632C22.2866 56.2661 20.0444 56.4842 17.9522 56.1428C15.7448 55.7835 13.5257 55.6789 11.2942 55.8282C9.17791 55.9667 7.13135 56.4225 5.15628 57.1955C4.82204 57.368 4.4726 57.4985 4.10708 57.587C3.74156 57.6755 3.37157 57.7192 2.99532 57.7192C2.61997 57.7192 2.24998 57.6755 1.88446 57.587C1.51894 57.4985 1.1695 57.368 0.83526 57.1955C0.705674 57.1196 0.590387 57.0248 0.49208 56.9104C0.39288 56.7969 0.315129 56.67 0.257932 56.5297C0.201629 56.3903 0.168563 56.2446 0.159625 56.0945C0.150689 55.9435 0.166775 55.796 0.206991 55.6503C1.31428 52.8057 3.83004 51.1515 6.49593 49.7975C7.79805 49.2113 9.05548 48.541 10.2691 47.7876C11.7455 46.7616 13.0029 45.3943 14.3703 44.3549C15.7376 43.3155 17.2551 43.3978 18.8826 42.8365C20.4018 42.1287 21.9739 41.5684 23.5986 41.1546C25.554 40.8266 27.5639 40.7578 29.5327 40.4843C31.2602 40.2368 32.9967 40.0902 34.7412 40.0473C36.744 39.949 38.7441 39.9812 40.7433 40.1429C42.4931 40.3619 44.0785 41.059 45.7882 41.4281C46.7784 41.6068 47.7766 41.6756 48.7821 41.6336C48.1529 40.5397 47.538 39.4592 46.8132 38.4333C46.0885 37.4082 45.4459 36.628 44.7077 35.6986C43.9695 34.7682 43.4914 33.9755 42.4654 33.7432C40.8934 33.4009 39.417 33.7432 37.8584 33.0452C36.2998 32.3481 34.8368 32.4571 33.5383 31.7466C33.2952 31.5795 33.0798 31.3829 32.8921 31.1568C32.7036 30.9307 32.5499 30.6823 32.4301 30.4133C32.3112 30.1442 32.2299 29.8645 32.1888 29.5732C32.1468 29.2818 32.145 28.9905 32.1843 28.6982C32.2228 28.4069 32.3005 28.1254 32.4176 27.8555C32.5347 27.5847 32.6857 27.3363 32.8716 27.1075C33.0575 26.8796 33.2711 26.6803 33.5115 26.5114C33.7528 26.3425 34.0119 26.2093 34.2899 26.1119C35.962 25.8563 37.6395 25.8197 39.3214 26.0029C41.3581 26.0708 43.4226 26.2629 45.4459 26.3586C49.3969 26.5632 53.4713 25.6061 57.3544 26.4819C61.0025 27.498 64.4745 28.9387 67.7713 30.8029C74.4571 34.1534 81.8265 36.4368 86.8303 42.2896C86.8866 42.2038 86.9322 42.1126 86.967 42.0161C87.3236 40.8186 87.6203 39.6058 87.8553 38.3788C88.976 35.3563 89.9332 32.2793 91.0682 29.2711C91.5409 27.9967 92.0879 26.7536 92.709 25.5444C93.3301 24.3343 94.021 23.1663 94.7806 22.0384C95.5402 20.9106 96.3642 19.8319 97.2526 18.8024C98.1409 17.7737 99.0873 16.8005 100.091 15.8835C104.193 12.1086 108.691 8.52574 113.995 6.70707C116.73 5.76332 119.574 4.99832 122.322 3.97236C125.038 2.89188 127.828 2.04912 130.688 1.4423C133.318 0.98205 135.967 0.791693 138.635 0.869445C141.303 0.94809 143.936 1.29395 146.534 1.90703C146.678 1.94635 146.813 2.00801 146.938 2.09202C147.063 2.17603 147.17 2.27702 147.261 2.39677C147.352 2.51563 147.422 2.64611 147.47 2.78821C147.518 2.9312 147.543 3.07687 147.543 3.22701C147.543 3.37716 147.518 3.52283 147.47 3.66582C147.422 3.80792 147.352 3.9384 147.261 4.05726C147.17 4.17701 147.063 4.278 146.938 4.36201C146.813 4.44602 146.678 4.50768 146.534 4.547C145.097 4.97062 143.719 5.53722 142.399 6.24681C141.079 6.95641 139.846 7.7938 138.7 8.75899C136.188 10.4919 133.828 12.4115 131.618 14.5162C127.708 18.4949 123.525 23.0349 121.665 28.4096C120.749 31.0487 120.476 33.8799 119.683 36.6146C119.267 38.032 118.725 39.3994 118.056 40.7176C119.944 40.184 121.867 39.9651 123.826 40.0607C125.453 40.109 126.994 40.5004 128.446 41.2368C130.292 42.126 132.206 42.7141 134.106 43.4523C135.584 44.0198 136.978 44.7463 138.289 45.6329C139.6 46.5194 140.795 47.5436 141.872 48.7036C143.84 50.7681 146.069 52.6422 147.217 55.3223C148.585 58.5772 149.569 61.9822 151.318 65.1137C152.983 68.0066 154.807 70.7967 156.788 73.4823C157.712 74.8192 158.498 76.233 159.145 77.7237C159.791 79.2153 160.286 80.7551 160.629 82.3441C161.054 83.959 161.369 85.5954 161.573 87.2532C161.643 88.8208 161.99 90.3257 162.611 91.7664C163.228 93.258 164.003 94.662 164.936 95.9784C166.041 97.2617 167.345 98.2966 168.846 99.0822C170.705 100.135 173.357 100.149 174.683 101.981C174.724 102.062 174.757 102.145 174.782 102.232C174.808 102.319 174.823 102.408 174.83 102.497C174.837 102.587 174.836 102.677 174.825 102.767C174.815 102.856 174.795 102.944 174.767 103.03C174.74 103.115 174.703 103.198 174.659 103.276C174.614 103.355 174.564 103.429 174.505 103.497C174.446 103.566 174.38 103.628 174.31 103.683C174.238 103.739 174.162 103.787 174.082 103.828V103.814ZM88.758 44.9287C89.4202 45.9439 90.0163 46.9958 90.5472 48.0861C91.078 49.1755 91.5392 50.2935 91.9297 51.441C92.3203 52.5885 92.6384 53.7557 92.8833 54.9425C93.1282 56.1294 93.2971 57.3278 93.3927 58.5361C94.6117 57.7845 95.8736 57.1142 97.1793 56.5253C98.9935 55.7889 100.861 55.2374 102.785 54.871C103.359 54.7611 103.946 54.6655 104.534 54.5833V54.392C104.528 54.2017 104.563 54.0184 104.64 53.8433C104.717 53.6681 104.828 53.5189 104.972 53.3938C105.512 52.24 106.2 51.1827 107.037 50.2211C108.485 48.4159 110.058 46.6794 111.603 44.9564C113.428 43.0823 114.918 40.9723 116.074 38.6245C116.96 36.4117 117.616 34.1328 118.043 31.7878C118.496 29.5088 119.206 27.3139 120.174 25.2021C121.142 23.0903 122.341 21.1188 123.77 19.2885C126.625 15.4823 129.91 12.0952 133.628 9.12809C136.005 7.15302 138.516 5.36563 141.161 3.76681C139.101 3.5273 137.036 3.48082 134.967 3.62739C132.899 3.77485 130.862 4.11267 128.856 4.64263C126.286 5.33971 123.798 6.28346 121.31 7.19949C118.822 8.11553 116.32 8.69018 113.832 9.64733C111.446 10.7108 109.189 11.9977 107.058 13.5072C104.928 15.0175 102.966 16.7209 101.171 18.6182C100.246 19.5262 99.3796 20.487 98.5708 21.4995C97.7611 22.5121 97.0157 23.5702 96.3338 24.6721C95.6519 25.775 95.0389 26.9144 94.4937 28.0905C93.9495 29.2675 93.4776 30.4722 93.0781 31.7055C92.2443 34.0846 91.4918 36.4779 90.6035 38.8301C90.2692 39.9061 90.0092 41 89.8242 42.1117C89.7142 42.563 88.8536 43.7535 88.9215 44.0948C88.9483 44.3889 88.8938 44.6668 88.758 44.9287ZM52.1995 41.9893C53.7215 42.4799 55.2122 43.0546 56.6707 43.7123C59.7817 44.7705 62.7067 46.2058 65.4477 48.02C67.9223 49.8797 70.9162 51.1783 72.7617 53.804C73.7466 55.2401 74.2658 56.9355 75.223 58.385C76.1747 59.5719 77.0586 60.807 77.8754 62.0912C78.9961 64.2656 79.0784 67.2335 80.6093 69.1335L80.8148 68.9566C82.0526 67.7742 83.1777 66.4935 84.1912 65.1137C85.2431 63.682 86.4692 62.4192 87.8688 61.3253C88.766 60.706 89.7232 60.2001 90.7402 59.8078C90.717 59.0062 90.6562 58.2081 90.5579 57.4127C90.4596 56.6173 90.3246 55.8282 90.1521 55.0462C89.9806 54.2633 89.7723 53.4903 89.5275 52.7271C89.2826 51.9638 89.002 51.214 88.6874 50.4776C88.3719 49.7403 88.0234 49.02 87.64 48.3158C87.2575 47.6124 86.8428 46.9279 86.395 46.263C85.9482 45.5971 85.471 44.9546 84.9633 44.3344C84.4557 43.7141 83.9204 43.1198 83.3574 42.5496C78.367 37.6674 71.313 35.712 65.2422 32.5259C62.3475 30.8529 59.2669 29.6581 56.0004 28.9431C54.1746 28.7304 52.3515 28.7528 50.5319 29.011C48.7088 29.1281 46.8865 29.1281 45.0634 29.011C43.1223 28.902 41.1803 28.7242 39.2526 28.6696C38.2954 28.6696 37.3392 28.6696 36.382 28.6696C36.0674 28.6696 35.4794 28.6008 35.0147 28.6696C34.9459 28.7653 34.7001 28.9842 34.8091 29.1755C34.919 29.3667 35.0826 29.4212 35.5071 29.5035C35.9307 29.5857 36.6278 29.6536 37.1747 29.8046C38.3642 30.3301 39.5984 30.7037 40.88 30.9262C41.9989 30.8681 43.0785 31.0451 44.1196 31.4589C45.3646 32.2471 46.3807 33.2632 47.1689 34.5091C49.1234 36.9426 50.5453 39.5138 52.1995 41.9893ZM100.72 123.109C100.759 121.237 100.901 119.373 101.144 117.516C101.541 113.674 102.511 110.05 103.236 106.262C104.054 102.2 104.483 98.0973 104.521 93.9541C104.784 90.5375 104.752 87.1227 104.425 83.7115C104.281 82.8392 104.047 81.9911 103.724 81.1689C103.399 80.3458 102.994 79.5665 102.505 78.8301C102.015 78.0928 101.455 77.4163 100.822 76.7979C100.189 76.1803 99.4993 75.6361 98.7513 75.1651C97.19 74.2696 95.5715 73.4894 93.8985 72.8263C93.2113 72.4679 92.4927 72.1926 91.742 72.0005C90.9922 71.8093 90.229 71.7056 89.4551 71.6913C88.766 71.7753 88.0868 71.9102 87.4174 72.0943C86.7481 72.2793 86.0957 72.5126 85.4611 72.7941C84.8266 73.0756 84.2162 73.4027 83.6299 73.7745C83.0437 74.1463 82.4878 74.56 81.9632 75.014C80.6799 76.3403 79.5502 77.7845 78.5725 79.3494C77.3964 80.9357 76.2114 82.513 75.0174 84.0806L74.895 84.2584C74.8753 84.3165 74.844 84.3675 74.7993 84.4086C74.7171 84.5051 74.6215 84.573 74.5393 84.6552C74.9647 85.5194 75.525 86.2853 76.2212 86.9529C77.0372 87.7528 77.9121 88.482 78.846 89.1407C80.8917 90.9111 82.5682 92.9809 83.8766 95.3492C85.244 97.5093 87.2539 99.26 88.7026 101.407C89.4336 102.514 90.0512 103.68 90.557 104.906C91.0637 106.133 91.448 107.396 91.7108 108.696C92.4177 111.191 92.7501 113.734 92.709 116.327C92.5723 117.694 92.1621 119.062 92.121 120.429C92.1603 121.917 92.3694 123.38 92.7501 124.819C93.508 127.761 94.0549 130.742 94.3901 133.762C94.5 135.266 94.5134 136.785 94.6501 138.275C94.8825 139.729 95.0192 141.192 95.0603 142.665C94.954 143.679 94.9772 144.689 95.13 145.697C95.2829 146.705 95.5599 147.677 95.963 148.614C96.4 149.657 96.9693 150.624 97.6717 151.513C97.3732 150.45 97.1355 149.375 96.9603 148.286C96.9559 146.31 97.1703 144.36 97.6029 142.432C97.7807 141.352 97.6851 140.272 97.8218 139.191C97.9827 138.167 98.266 137.178 98.67 136.223C99.3956 134.076 99.9417 131.884 100.31 129.646C100.669 127.481 100.806 125.302 100.72 123.109ZM52.6786 107.192C52.4641 107.902 52.1674 108.577 51.7893 109.216C53.2684 108.211 54.6813 107.122 56.0281 105.948C58.6833 103.939 61.0078 101.6 63.0008 98.932C63.9525 97.5271 64.8141 96.0677 65.5844 94.5556C65.5844 94.5556 65.5844 94.5556 65.5844 94.4734C65.6425 94.2652 65.748 94.0828 65.899 93.9264C66.6971 92.3035 67.3718 90.6305 67.9223 88.9083C68.2861 87.5079 68.8375 86.1861 69.5766 84.9421C70.1351 84.2155 70.8322 83.6641 71.6678 83.2879V83.1923C72.2657 82.8705 72.7948 82.4603 73.2541 81.9607C73.8064 81.3414 74.2622 80.6577 74.6215 79.9097C75.5098 78.7336 76.3982 77.5718 77.2597 76.3957C77.6699 75.8488 78.0524 75.3152 78.4626 74.7951C78.2061 73.5341 77.7101 72.3767 76.9728 71.3222C76.6368 70.66 76.2096 70.0639 75.6921 69.5321C75.1747 69.0004 74.5902 68.558 73.9378 68.2041C73.3507 67.8752 72.734 67.6151 72.0897 67.423C71.4444 67.2308 70.7857 67.112 70.1146 67.0655C69.4434 67.019 68.7749 67.0476 68.11 67.1495C67.4451 67.2514 66.799 67.4257 66.1725 67.6705C65.0429 68.0718 63.9856 68.6143 63.0008 69.298C61.9766 69.8976 61.065 70.6367 60.2661 71.5134C60.1463 71.6314 60.0551 71.7681 59.9926 71.9236C57.7807 74.3894 55.9218 77.0973 54.415 80.0464C53.6563 81.4781 53.0995 82.9831 52.742 84.5623C52.3845 86.1423 52.2407 87.7412 52.3095 89.3597C52.4051 90.9594 52.9377 92.4912 53.1299 94.0775C53.2845 95.6977 53.3167 97.3207 53.2255 98.9454C53.1022 101.612 53.4302 104.607 52.6786 107.192ZM68.9197 93.9676L69.1253 94.0364C69.691 94.2097 70.2701 94.2875 70.8617 94.2687C71.9279 94.2687 72.9807 94.2687 74.0468 94.2687C75.0424 94.376 76.0407 94.4215 77.0407 94.4055C77.4447 94.3965 77.8415 94.3366 78.2302 94.2276C78.5118 94.1677 78.7584 94.0408 78.9684 93.8451C79.1373 93.6851 79.3331 93.5761 79.5565 93.5162L79.3107 93.2017C77.3419 90.8906 73.6098 89.0174 72.2291 86.1182C71.8117 86.5695 71.5025 87.0843 71.2987 87.6634C70.5882 89.332 70.178 91.1095 69.4667 92.778L68.9197 93.9676ZM39.6762 64.8402C40.7021 65.7974 41.5083 67.6571 42.8077 68.272C43.6272 68.1147 44.4342 67.9056 45.2269 67.6437C47.1278 67.0146 49.0278 66.2755 50.9832 65.8519C51.8001 65.649 52.6285 65.5364 53.4704 65.5141C54.3114 65.4926 55.1452 65.5605 55.9718 65.7205C56.7976 65.8796 57.5975 66.1262 58.3696 66.4596C59.1427 66.7929 59.8701 67.2058 60.5529 67.6982C64.176 64.9626 68.9197 63.3084 73.3498 64.9626C74.5384 65.3746 75.6457 65.9448 76.6716 66.6723C76.4232 65.7437 76.1229 64.8322 75.7699 63.9376C75.0612 62.5747 74.2041 61.3119 73.1996 60.1492C72.188 58.7818 71.6544 57.0999 70.7518 55.6369C69.1798 53.0658 65.8713 51.534 63.4655 49.8654C60.9873 48.3042 58.358 47.0646 55.5768 46.1459C54.852 45.6642 54.0745 45.2915 53.2452 45.0297C52.4158 44.7669 51.5659 44.6239 50.6964 44.6007L50.5998 44.5185C50.3022 44.4577 50.0011 44.4166 49.6981 44.396C48.1583 44.4487 46.6265 44.3576 45.1045 44.1225C43.2152 43.5023 41.2875 43.0465 39.3214 42.7552C37.5983 42.673 35.8351 42.7552 34.112 42.7552C32.2791 42.8446 30.4568 43.0313 28.6435 43.3155C27.0027 43.5345 25.3073 43.5345 23.6942 43.8625C22.0811 44.1905 20.4814 45.3532 18.7315 45.6946C18.0103 45.7446 17.3079 45.8903 16.626 46.1325C15.9414 46.5007 15.3221 46.9565 14.7671 47.4998C12.9037 49.1737 10.8616 50.592 8.6417 51.7529C6.84269 52.4858 5.22956 53.5108 3.80233 54.8299L4.8551 54.4063C5.69965 54.073 6.56564 53.8084 7.45308 53.6127C9.54254 53.1962 11.6517 52.9952 13.7822 53.0113C15.8199 53.0113 17.761 53.4483 19.7709 53.6404C21.7397 53.6565 23.6629 53.9621 25.5406 54.5565C27.2958 55.3536 28.9715 56.2938 30.5667 57.3779C32.162 58.461 33.6536 59.672 35.0424 61.0107C36.5188 62.3781 38.2141 63.4863 39.6762 64.8402ZM38.5966 89.7288H38.7467C40.661 89.1952 42.671 88.9494 44.571 88.3614C45.3503 88.1147 49.7392 86.6786 49.5748 85.9681C49.5176 85.7554 49.5167 85.5436 49.573 85.3309C49.6293 85.1182 49.7347 84.9341 49.8893 84.7786C50.1709 83.1949 50.6266 81.6631 51.2567 80.1832C52.4686 77.713 53.8904 75.3697 55.5223 73.1543C56.3901 71.8396 57.3749 70.618 58.4751 69.4892C58.0899 69.2256 57.6851 68.9968 57.2597 68.8029C56.8343 68.6098 56.3955 68.4543 55.9432 68.3381C55.491 68.222 55.0317 68.1451 54.5661 68.1085C54.1004 68.0727 53.6357 68.0772 53.1701 68.1219C51.0279 68.4454 48.9501 69.0057 46.9366 69.8038C45.6917 70.2247 44.4244 70.5617 43.1357 70.8164C42.9596 70.9102 42.7728 70.9468 42.5753 70.9254C41.4126 71.1577 40.2508 71.349 39.0479 71.568C36.5849 72.0756 34.2193 72.8736 31.952 73.9613C29.8169 75.1284 27.9482 76.6281 26.3467 78.4601C24.8837 79.8275 22.9971 81.0858 21.9855 82.8911C21.5467 83.9546 21.0176 84.9707 20.4001 85.9404C19.8638 86.54 19.2946 87.1058 18.6904 87.6366C17.0362 89.2774 16.4213 91.7387 15.8056 93.9819C15.1907 96.2241 14.5615 98.6586 13.9878 100.996C13.4131 103.335 13.4131 106.139 13.0029 108.641C12.7625 110.064 12.8269 111.472 13.1951 112.867C13.3926 113.767 13.4793 114.68 13.4542 115.602C13.3693 116.944 13.4292 118.28 13.6321 119.609C13.8662 120.688 14.0396 121.778 14.1513 122.877C14.3703 125.407 14.835 127.923 14.9038 130.466C14.9717 133.01 14.9038 135.691 14.9038 138.289C14.9038 140.887 14.9038 143.527 14.9038 146.138C14.8037 148.521 14.5258 150.882 14.07 153.221C13.4516 157.32 12.3443 161.281 10.7472 165.106C10.3826 165.967 9.96347 166.801 9.48981 167.608C9.96347 167.464 10.4184 167.277 10.8572 167.047C11.6633 166.61 12.347 166.022 13.154 165.68C13.9601 165.338 14.9449 165.024 15.7653 164.572C17.4196 163.656 17.7342 161.673 18.677 160.155C19.9925 158.415 21.0685 156.536 21.9033 154.521C24.3234 146.564 25.8087 138.437 26.3601 130.138C26.689 126.036 26.3601 121.728 26.8525 117.599C27.1618 115.786 27.3762 113.963 27.4951 112.128C27.488 110.371 27.6247 108.625 27.9053 106.89C28.765 103.471 29.9546 100.172 31.4738 96.99C32.0065 95.5637 32.7357 94.2464 33.6607 93.0381C33.7108 92.8254 33.81 92.6404 33.9592 92.4813C34.1076 92.3223 34.2863 92.2114 34.4954 92.1489C34.8449 91.7565 35.2318 91.4053 35.6572 91.0961C36.6278 90.6448 37.5983 90.1801 38.5966 89.7288ZM49.5337 89.3731C49.0001 89.6528 48.4532 89.9039 47.8928 90.1256C46.7998 90.5599 45.6827 90.9245 44.5441 91.2194C46.2967 91.6046 48.0689 91.837 49.8616 91.9165C49.7124 91.0791 49.6168 90.2364 49.5748 89.3865L49.5337 89.3731ZM123.538 99.3834C123.57 98.7202 123.508 98.066 123.349 97.4217C123.191 96.7764 122.944 96.1678 122.609 95.595C121.488 94.0498 118.89 93.1203 116.675 92.7503C116.413 92.98 116.107 93.1078 115.759 93.1337H115.855H115.527L115.28 93.216C114.967 93.3661 114.665 93.5439 114.364 93.7218C113.781 94.1123 113.176 94.4636 112.546 94.7746C111.768 95.0829 110.97 95.3287 110.154 95.5128C109.367 95.7424 108.569 95.9247 107.762 96.0597C107.547 96.1017 107.333 96.1017 107.119 96.0597C107.029 98.8382 106.769 101.601 106.34 104.347C105.601 108.75 104.33 112.99 103.865 117.434C103.4 121.879 103.742 126.295 102.867 130.658C102.513 132.817 101.985 134.932 101.28 137.003C100.767 138.121 100.462 139.291 100.364 140.518C100.345 141.501 100.249 142.476 100.078 143.444C99.8157 144.427 99.6602 145.427 99.6119 146.445C99.5628 147.461 99.6226 148.471 99.7907 149.475C100.061 150.187 100.231 150.924 100.304 151.682C100.375 152.441 100.346 153.195 100.214 153.946C100.17 154.093 100.103 154.229 100.014 154.353C99.9256 154.478 99.8201 154.586 99.6968 154.677C99.5735 154.767 99.4394 154.837 99.2947 154.885C99.149 154.934 99.0006 154.958 98.8469 154.959C95.088 155.246 92.4212 148.874 92.1621 145.851C91.9976 143.937 92.2711 142.063 92.011 140.148C91.8198 138.781 91.6973 137.345 91.6285 135.91C91.3863 132.509 90.8573 129.154 90.0431 125.845C89.6812 124.439 89.4694 123.013 89.4068 121.563C89.3451 120.114 89.4336 118.674 89.674 117.243C90.1933 114.371 89.3728 110.966 88.6346 108.149C88.2191 106.645 87.6319 105.211 86.8741 103.847C86.1162 102.483 85.2082 101.228 84.1501 100.08C83.2385 99.0697 82.3904 98.008 81.6075 96.8944C81.3475 96.5253 81.1151 96.1285 80.8827 95.7317C79.1606 97.3725 76.5492 97.0991 74.3614 96.99C73.1451 96.9078 71.9413 96.99 70.7116 96.99C69.9493 97.0097 69.2012 96.9141 68.4693 96.7032L67.69 96.4431C66.6354 98.5129 65.378 100.45 63.9168 102.255C61.401 105.058 58.6261 107.575 55.5902 109.804C54.2229 110.911 52.6375 111.786 51.229 112.867C50.7276 113.355 50.1575 113.74 49.5176 114.022C48.8777 114.305 48.2083 114.466 47.5103 114.507C47.4031 114.512 47.2958 114.503 47.1904 114.482C47.0849 114.461 46.983 114.428 46.8856 114.382C46.7873 114.337 46.6962 114.281 46.6122 114.214C46.5273 114.147 46.4522 114.072 46.3852 113.987C46.319 113.902 46.2627 113.811 46.218 113.714C46.1725 113.615 46.1394 113.514 46.1188 113.408C46.0974 113.303 46.0893 113.195 46.0929 113.088C46.0974 112.98 46.1144 112.875 46.143 112.771C46.6631 110.132 49.3558 108.832 50.0261 106.221C50.2888 104.731 50.38 103.232 50.2996 101.721C50.2996 100.067 50.4631 98.4262 50.4631 96.7845C50.4533 96.0695 50.3934 95.359 50.2861 94.6512H50.1083C47.6614 94.5905 45.2502 94.2625 42.8756 93.6673C41.8094 93.4206 40.7156 93.3384 39.6494 93.0792C39.2946 92.9854 38.9532 92.8585 38.6243 92.6958C37.7413 92.9961 36.9486 93.4519 36.2453 94.0632C36.3776 96.2804 36.6376 98.4816 37.0246 100.668C37.2176 103.057 37.2176 105.445 37.0246 107.834C36.9013 111.937 36.8601 116.532 41.5637 117.803L42.1508 117.94C42.3886 117.877 42.6254 117.877 42.8622 117.94C48.967 119.685 55.1559 121.054 61.4279 122.043C67.6078 123.082 73.6509 122.562 79.8845 122.535C79.9747 122.535 80.0632 122.543 80.1517 122.561C80.2393 122.578 80.3251 122.605 80.4082 122.639C80.4913 122.673 80.5699 122.716 80.6441 122.765C80.7192 122.815 80.788 122.872 80.8514 122.936C80.9149 122.999 80.9712 123.068 81.0213 123.143C81.0713 123.217 81.1133 123.296 81.1482 123.379C81.1821 123.462 81.208 123.548 81.2259 123.636C81.2429 123.724 81.2518 123.813 81.2518 123.903C81.2518 123.992 81.2429 124.082 81.2259 124.169C81.208 124.258 81.1821 124.343 81.1482 124.426C81.1133 124.509 81.0713 124.587 81.0213 124.662C80.9712 124.737 80.9149 124.806 80.8514 124.87C80.788 124.933 80.7192 124.99 80.6441 125.04C80.5699 125.09 80.4913 125.132 80.4082 125.166C80.3251 125.2 80.2393 125.226 80.1517 125.243C80.0632 125.261 79.9747 125.27 79.8845 125.27C73.6232 125.27 67.5801 125.817 61.3322 124.778C56.5063 123.984 51.7625 123.109 46.95 121.933C46.95 122.207 47.0179 122.467 47.0456 122.74C47.6202 127.226 48.1529 131.683 48.6319 136.183C49.11 140.682 49.7392 144.907 50.3407 149.256C50.8599 153.044 51.5436 157.461 54.1004 160.51C56.2194 163.013 59.4322 164.189 62.5217 164.982C66.2136 165.912 69.9868 166.5 73.7055 167.389C75.9433 167.998 78.2222 168.326 80.5413 168.374C82.7926 168.308 85.0393 168.386 87.2807 168.606C91.6285 169.14 96.0032 168.47 100.364 168.346H100.474C105.778 168.346 107.146 162.876 108.541 158.692C109.414 155.776 110.074 152.813 110.523 149.803C111.056 146.945 111.097 144.1 111.48 141.229C111.863 138.357 111.958 135.28 112.396 132.34C112.833 129.4 113.763 126.295 113.558 123.178C113.558 122.89 113.558 122.603 113.558 122.33C113.202 122.48 112.847 122.631 112.505 122.754C110.34 123.477 108.115 123.813 105.834 123.766C105.744 123.766 105.655 123.757 105.567 123.739C105.479 123.722 105.393 123.696 105.31 123.662C105.227 123.628 105.148 123.586 105.074 123.535C104.999 123.485 104.93 123.428 104.867 123.365C104.803 123.301 104.746 123.233 104.697 123.158C104.647 123.083 104.605 123.005 104.57 122.922C104.536 122.838 104.51 122.754 104.492 122.665C104.475 122.577 104.466 122.488 104.466 122.398C104.466 122.308 104.475 122.219 104.492 122.131C104.51 122.043 104.536 121.958 104.57 121.875C104.605 121.792 104.647 121.713 104.697 121.638C104.746 121.564 104.803 121.495 104.867 121.431C104.93 121.367 104.999 121.311 105.074 121.261C105.148 121.211 105.227 121.169 105.31 121.135C105.393 121.1 105.479 121.074 105.567 121.057C105.655 121.039 105.744 121.03 105.834 121.03C107.995 121.077 110.091 120.731 112.123 119.991C113.216 119.567 114.269 119.088 115.362 118.624C115.671 118.387 116.003 118.19 116.361 118.036C117.565 117.661 118.613 117.028 119.505 116.135C120.294 115.122 120.886 114.006 121.282 112.784C122.187 110.163 122.734 107.47 122.923 104.703C123.06 103.075 123.429 101.475 123.511 99.8481C123.579 99.6836 123.566 99.5335 123.579 99.3968L123.538 99.3834ZM109.579 92.9282L110.755 92.6279L111.248 92.4635L111.52 92.3401H111.617C111.06 92.2365 110.518 92.081 109.99 91.8754C109.087 91.5063 108.226 91.0827 107.351 90.6448V92.0121C107.351 92.5323 107.351 93.0649 107.351 93.5851C108.106 93.4045 108.848 93.1856 109.579 92.9282ZM137.223 111.69C136.224 109.713 135.55 107.629 135.2 105.441C134.598 101.421 135.774 97.6603 135.952 93.6673C136.052 91.0523 135.92 88.4499 135.555 85.8582C135.511 85.8161 135.47 85.7706 135.432 85.7214C135.432 85.1477 135.31 84.573 135.241 83.9984V83.9027C135.05 82.7266 134.845 81.5648 134.612 80.4021C134.221 78.2778 133.593 76.2268 132.725 74.2481C132.005 72.3482 131.061 70.5661 129.896 68.9012C128.669 67.524 127.333 66.2612 125.889 65.1137C124.496 63.8402 123.038 62.6453 121.515 61.5309C120.707 60.9151 119.86 60.3583 118.976 59.8614C118.09 59.3636 117.175 58.9302 116.229 58.5602C115.284 58.1902 114.317 57.8873 113.329 57.6522C112.342 57.4163 111.343 57.2509 110.332 57.1544C108.138 56.9846 105.957 57.0901 103.79 57.4726C101.624 57.8551 99.5386 58.5012 97.535 59.411C95.7985 60.2314 94.2399 61.353 92.4766 62.1457C90.7116 62.8035 89.1575 63.7928 87.8142 65.1137C86.4469 66.5633 85.4352 68.272 84.0822 69.7082C83.4664 70.365 82.5647 70.9531 81.9489 71.6779C82.5477 71.2561 83.1742 70.8798 83.8275 70.55C84.4816 70.2203 85.1555 69.9387 85.8499 69.7073C86.5443 69.4758 87.2521 69.2962 87.9733 69.1675C88.6936 69.0397 89.4202 68.9646 90.1521 68.9423C91.9637 69.1326 93.6814 69.6385 95.3061 70.4607C96.9764 71.1372 98.594 71.921 100.16 72.8129C100.914 73.2838 101.623 73.8165 102.285 74.4108C102.947 75.0051 103.553 75.6513 104.104 76.351C104.653 77.0499 105.139 77.7917 105.56 78.5754C105.982 79.3592 106.333 80.1734 106.613 81.0179C107.244 83.1842 107.522 85.3943 107.447 87.65C108.718 88.2381 109.935 89.0174 111.248 89.4276C112.588 89.8092 113.956 89.9692 115.349 89.9066C117.603 90.071 119.75 90.6403 121.788 91.6153C122.375 91.8665 122.923 92.1873 123.43 92.5761C123.937 92.9648 124.388 93.4108 124.782 93.913C125.316 95.2804 125.876 96.6477 126.341 98.016V98.3985C126.325 100.395 126.63 102.341 127.257 104.238C128.424 107.086 129.759 109.853 131.263 112.539C132.63 114.781 132.903 117.434 135.022 119.185C136.801 120.393 138.71 121.337 140.751 122.015C142.118 122.644 144.291 123.821 145.809 123.041C144.944 122.031 143.941 121.182 142.802 120.498C141.516 119.583 140.477 118.443 139.684 117.079C138.727 115.329 138.071 113.441 137.223 111.69ZM170.418 102.583C169.954 102.499 169.498 102.38 169.051 102.227C167.543 101.585 166.153 100.746 164.881 99.7113C163.746 98.7327 162.748 97.6308 161.887 96.4038C161.027 95.1776 160.329 93.8639 159.795 92.4635C158.592 89.8378 158.716 86.7608 158.086 83.9573C157.796 82.4228 157.359 80.9303 156.777 79.4807C156.195 78.0312 155.479 76.6522 154.627 75.342C152.877 72.7852 151.045 70.2685 149.501 67.5615C147.956 64.7571 146.666 61.8392 145.632 58.8096C145.166 57.1786 144.433 55.678 143.431 54.3098C142.596 53.3115 141.612 52.4232 140.696 51.4795C139.625 50.2426 138.421 49.1523 137.085 48.2085C135.748 47.2648 134.318 46.4953 132.794 45.9001C131.427 45.3666 129.909 44.9698 128.528 44.3406C127.066 43.4916 125.494 42.9804 123.811 42.8097C123.101 42.74 122.39 42.7337 121.679 42.7909C120.968 42.8472 120.266 42.9661 119.576 43.1475C118.885 43.3281 118.216 43.5685 117.568 43.8678C116.92 44.1663 116.303 44.5202 115.718 44.9287C115.523 45.0886 115.3 45.17 115.048 45.1753C113.599 46.9118 112.067 48.5669 110.591 50.2756C109.333 51.4768 108.293 52.8441 107.474 54.3786C109.754 54.283 112.006 54.4975 114.227 55.0212C120.421 56.4707 125.439 60.8883 129.991 65.1137C134.817 69.6125 136.827 76.587 137.893 82.8911C139.046 83.2843 140.09 83.8724 141.024 84.6552C143.448 86.7313 145.48 89.138 147.122 91.8754C148.626 94.1454 151.155 95.855 153.165 97.6603C154.084 98.4325 155.071 99.1036 156.128 99.672C157.185 100.241 158.289 100.696 159.44 101.038C162.693 102.146 166.905 103.609 170.418 102.583ZM44.6532 54.543C44.932 54.6959 45.2278 54.7468 45.5415 54.6932C45.7873 54.8353 46.0241 54.9899 46.2529 55.1579C46.6282 55.4287 47.0429 55.611 47.4969 55.7049C47.6792 55.7531 47.8615 55.7531 48.0439 55.7049C48.2271 55.7031 48.3951 55.653 48.5497 55.5547C48.7043 55.4644 48.8357 55.3483 48.9447 55.2062C49.0537 55.0641 49.1315 54.9068 49.178 54.7343C49.2271 54.5565 49.2405 54.3768 49.2164 54.1936C49.1923 54.0113 49.1342 53.8406 49.0412 53.6815C48.9563 53.5224 48.8419 53.3884 48.6989 53.2785C48.5559 53.1685 48.3969 53.0935 48.2217 53.0524H48.0296C47.6882 52.8745 47.387 52.6422 47.0733 52.45C46.7596 52.2462 46.4191 52.1131 46.0509 52.0487C45.6836 51.9844 45.3172 51.9951 44.9535 52.0809C44.6005 52.1864 44.327 52.3964 44.1339 52.7101C44.041 52.8692 43.9829 53.0398 43.9588 53.2231C43.9355 53.4054 43.9481 53.5859 43.9972 53.7628C44.0517 53.9309 44.1366 54.0819 44.2492 54.216C44.3627 54.3509 44.4977 54.4599 44.6532 54.543ZM44.8855 50.2622C45.0044 50.3695 45.1367 50.4562 45.2823 50.5223C46.294 50.9602 47.2369 51.5072 48.2074 51.9987C48.3701 52.0899 48.5434 52.1462 48.7275 52.1703C48.9116 52.1935 49.094 52.1819 49.2745 52.1354C49.4443 52.0872 49.5989 52.0085 49.7383 51.8995C49.8777 51.7905 49.9921 51.66 50.0806 51.5072C50.1262 51.4294 50.1637 51.3481 50.1932 51.2632C50.2227 51.1774 50.2432 51.0907 50.2558 51.0013C50.2674 50.912 50.271 50.8226 50.2656 50.7332C50.2602 50.643 50.2459 50.5545 50.2236 50.4678C50.2004 50.3811 50.1691 50.2971 50.1297 50.2158C50.0904 50.1353 50.044 50.0585 49.9894 49.987C49.9349 49.9155 49.8733 49.8502 49.8062 49.7904C49.7392 49.7314 49.6659 49.6787 49.5882 49.6331C48.4675 49.0727 47.387 48.457 46.2118 47.9788C46.0339 47.9297 45.8543 47.9172 45.6711 47.9404C45.4888 47.9645 45.3181 48.0226 45.159 48.1156C44.8462 48.3095 44.6362 48.583 44.5298 48.936C44.4807 49.1138 44.4682 49.2935 44.4923 49.4758C44.5155 49.659 44.5736 49.8297 44.6666 49.9888L44.8855 50.2622ZM21.6441 129.81C21.3018 129.017 20.8648 128.265 20.5225 127.471C20.4322 127.318 20.316 127.185 20.1739 127.076C20.0327 126.968 19.8755 126.89 19.7021 126.843C19.6154 126.819 19.5278 126.804 19.4384 126.797C19.3482 126.79 19.2588 126.793 19.1703 126.804C19.081 126.815 18.9934 126.835 18.9085 126.864C18.8227 126.891 18.7414 126.928 18.6636 126.973C18.585 127.017 18.5117 127.068 18.4446 127.127C18.3767 127.186 18.3151 127.251 18.2597 127.322C18.2042 127.394 18.1569 127.469 18.1167 127.549C18.0764 127.63 18.0443 127.714 18.021 127.8C17.9451 128.169 17.9951 128.52 18.1712 128.853C18.4858 129.605 18.8826 130.303 19.2239 131.054C19.3482 131.379 19.4447 131.712 19.5108 132.052C19.5251 132.24 19.5251 132.427 19.5108 132.614V132.395C19.4295 132.758 19.4751 133.104 19.6476 133.434C19.6931 133.512 19.745 133.584 19.8049 133.652C19.8647 133.719 19.93 133.78 20.0015 133.834C20.073 133.889 20.1498 133.936 20.2303 133.976C20.3116 134.015 20.3947 134.046 20.4823 134.069C20.569 134.092 20.6574 134.106 20.7477 134.111C20.8371 134.117 20.9264 134.113 21.0158 134.102C21.1052 134.089 21.1919 134.068 21.2768 134.039C21.3617 134.01 21.443 133.972 21.5207 133.926C21.6754 133.836 21.8067 133.72 21.9158 133.578C22.0248 133.436 22.1025 133.279 22.1499 133.106C22.2598 132.509 22.2598 131.911 22.1499 131.314C22.0516 130.797 21.9015 130.295 21.6986 129.81H21.6441ZM23.1071 124.121C22.9328 123.677 22.7961 123.221 22.6969 122.754C22.6495 122.581 22.5717 122.424 22.4627 122.282C22.3537 122.14 22.2223 122.023 22.0677 121.933C21.9086 121.84 21.7379 121.782 21.5547 121.759C21.3724 121.735 21.1928 121.747 21.0149 121.796C20.661 121.902 20.3884 122.112 20.1945 122.426L20.0578 122.754C19.9916 122.996 19.9916 123.237 20.0578 123.478C20.1498 123.945 20.2767 124.401 20.4403 124.846C20.6235 125.392 20.8835 125.898 21.2196 126.364C21.3027 126.525 21.4207 126.653 21.5753 126.747C21.7057 126.876 21.8604 126.958 22.04 126.993C22.2178 127.042 22.3975 127.055 22.5807 127.031C22.763 127.008 22.9337 126.949 23.0928 126.856C23.2474 126.766 23.3787 126.65 23.4878 126.508C23.5968 126.366 23.6746 126.209 23.7219 126.036C23.7693 125.857 23.7791 125.677 23.7532 125.494C23.7273 125.311 23.6665 125.141 23.5718 124.982C23.4029 124.711 23.2661 124.424 23.1616 124.121H23.1071ZM109.689 26.7411C109.779 26.7411 109.867 26.7321 109.956 26.7151C110.044 26.6973 110.129 26.6713 110.212 26.6374C110.295 26.6025 110.374 26.5605 110.448 26.5105C110.523 26.4613 110.592 26.4041 110.655 26.3407C110.719 26.2772 110.776 26.2084 110.826 26.1333C110.875 26.0592 110.917 25.9796 110.952 25.8974C110.986 25.8143 111.012 25.7285 111.03 25.6409C111.048 25.5524 111.056 25.464 111.056 25.3737V20.7926C111.056 20.7032 111.048 20.6139 111.03 20.5254C111.012 20.4378 110.986 20.352 110.952 20.2689C110.917 20.1867 110.875 20.1071 110.826 20.033C110.776 19.9579 110.719 19.8891 110.655 19.8256C110.592 19.7622 110.523 19.7059 110.448 19.6558C110.374 19.6058 110.295 19.5638 110.212 19.5289C110.129 19.495 110.044 19.469 109.956 19.4512C109.867 19.4342 109.779 19.4253 109.689 19.4253C109.599 19.4253 109.51 19.4342 109.422 19.4512C109.334 19.469 109.249 19.495 109.166 19.5289C109.082 19.5638 109.004 19.6058 108.93 19.6558C108.855 19.7059 108.786 19.7622 108.722 19.8256C108.659 19.8891 108.602 19.9579 108.552 20.033C108.502 20.1071 108.46 20.1867 108.426 20.2689C108.392 20.352 108.366 20.4378 108.348 20.5254C108.331 20.6139 108.322 20.7032 108.322 20.7926V25.3737C108.322 25.464 108.331 25.5524 108.348 25.6409C108.366 25.7285 108.392 25.8143 108.426 25.8974C108.46 25.9796 108.502 26.0592 108.552 26.1333C108.602 26.2084 108.659 26.2772 108.722 26.3407C108.786 26.4041 108.855 26.4613 108.93 26.5105C109.004 26.5605 109.082 26.6025 109.166 26.6374C109.249 26.6713 109.334 26.6973 109.422 26.7151C109.51 26.7321 109.599 26.7411 109.689 26.7411Z" fill="#866255"/>
</g>
</svg>
