<svg width="632" height="832" viewBox="0 0 632 832" fill="none" xmlns="http://www.w3.org/2000/svg">
<path d="M423.741 557.844C423.741 558.468 423.519 559.092 423.117 559.716C422.694 560.34 422.07 560.964 421.245 561.568C420.399 562.172 419.372 562.776 418.124 563.38C416.896 563.984 415.467 564.567 413.816 565.151C412.186 565.715 410.374 566.279 408.361 566.842C406.347 567.386 404.153 567.909 401.798 568.433C399.422 568.956 396.886 569.459 394.188 569.943C391.47 570.426 388.612 570.889 385.592 571.332C382.593 571.774 379.432 572.177 376.13 572.58C372.829 572.982 369.427 573.345 365.863 573.687C362.32 574.049 358.677 574.371 354.912 574.653C351.147 574.955 347.302 575.217 343.357 575.458C339.431 575.7 335.405 575.901 331.338 576.083C327.252 576.264 323.125 576.425 318.937 576.546C314.75 576.666 310.543 576.747 306.295 576.807C302.047 576.868 297.8 576.908 293.532 576.908C289.264 576.908 285.016 576.868 280.769 576.807C276.521 576.747 272.313 576.666 268.126 576.546C263.959 576.425 259.812 576.264 255.745 576.083C251.659 575.901 247.653 575.7 243.707 575.458C239.761 575.217 235.916 574.955 232.151 574.653C228.407 574.371 224.743 574.049 221.2 573.687C217.657 573.345 214.235 572.982 210.933 572.58C207.632 572.177 204.491 571.774 201.471 571.332C198.452 570.889 195.593 570.426 192.895 569.943C190.178 569.459 187.641 568.956 185.286 568.433C182.91 567.909 180.716 567.386 178.703 566.842C176.69 566.279 174.878 565.715 173.247 565.151C171.617 564.567 170.187 563.984 168.939 563.38C167.711 562.776 166.664 562.172 165.839 561.568C164.994 560.964 164.369 560.34 163.967 559.716C163.544 559.092 163.343 558.468 163.343 557.844C163.343 557.22 163.544 556.595 163.967 555.971C164.369 555.367 164.994 554.743 165.839 554.139C166.664 553.515 167.711 552.911 168.939 552.308C170.187 551.724 171.617 551.14 173.247 550.556C174.878 549.972 176.69 549.409 178.703 548.865C180.716 548.322 182.91 547.778 185.286 547.255C187.641 546.731 190.178 546.248 192.895 545.765C195.593 545.282 198.452 544.819 201.471 544.376C204.491 543.933 207.632 543.51 210.933 543.108C214.235 542.725 217.657 542.343 221.2 542C224.743 541.658 228.407 541.336 232.151 541.034C235.916 540.752 239.761 540.47 243.707 540.249C247.653 540.007 251.659 539.786 255.745 539.605C259.812 539.423 263.959 539.283 268.126 539.162C272.313 539.041 276.521 538.94 280.769 538.88C285.016 538.82 289.264 538.779 293.532 538.779C297.8 538.779 302.047 538.82 306.295 538.88C310.543 538.94 314.75 539.041 318.937 539.162C323.125 539.283 327.252 539.423 331.338 539.605C335.405 539.786 339.431 540.007 343.357 540.249C347.302 540.47 351.147 540.752 354.912 541.034C358.677 541.336 362.32 541.658 365.863 542C369.427 542.343 372.829 542.725 376.13 543.108C379.432 543.51 382.593 543.933 385.592 544.376C388.612 544.819 391.47 545.282 394.188 545.765C396.886 546.248 399.422 546.731 401.798 547.255C404.153 547.778 406.347 548.322 408.361 548.865C410.374 549.409 412.186 549.972 413.816 550.556C415.467 551.14 416.896 551.724 418.124 552.308C419.372 552.911 420.399 553.515 421.245 554.139C422.07 554.743 422.694 555.367 423.117 555.971C423.519 556.595 423.741 557.22 423.741 557.844Z" fill="#C68244"/>
<path d="M135.622 551.482C135.622 515.568 451.059 513.535 451.059 551.482L409.709 801.493C409.709 840.265 175.522 841.856 175.522 801.493L135.622 551.482Z" fill="#DE934E"/>
<path fill-rule="evenodd" clip-rule="evenodd" d="M135.642 551.22C135.642 551.26 135.642 551.281 135.642 551.321C135.622 551.381 135.622 551.422 135.622 551.482L175.522 801.492C175.522 821.986 235.836 831.649 295.243 831.146C223.072 772.886 158.793 627.457 135.642 551.22Z" fill="#C68244"/>
<path d="M423.741 557.844C423.741 558.468 423.519 559.092 423.117 559.716C422.694 560.34 422.07 560.964 421.245 561.568C420.399 562.172 419.372 562.776 418.124 563.38C416.896 563.984 415.467 564.567 413.816 565.151C412.186 565.715 410.374 566.279 408.361 566.842C406.347 567.386 404.153 567.909 401.798 568.433C399.422 568.956 396.886 569.459 394.188 569.943C391.47 570.426 388.612 570.889 385.592 571.332C382.593 571.774 379.432 572.177 376.13 572.58C372.829 572.982 369.427 573.345 365.863 573.687C362.32 574.049 358.677 574.371 354.912 574.653C351.147 574.955 347.302 575.217 343.357 575.458C339.431 575.7 335.405 575.901 331.338 576.083C327.252 576.264 323.125 576.425 318.937 576.546C314.75 576.666 310.543 576.747 306.295 576.807C302.047 576.868 297.8 576.908 293.532 576.908C289.264 576.908 285.016 576.868 280.769 576.807C276.521 576.747 272.313 576.666 268.126 576.546C263.959 576.425 259.812 576.264 255.745 576.083C251.659 575.901 247.653 575.7 243.707 575.458C239.761 575.217 235.916 574.955 232.151 574.653C228.407 574.371 224.743 574.049 221.2 573.687C217.657 573.345 214.235 572.982 210.933 572.58C207.632 572.177 204.491 571.774 201.471 571.332C198.452 570.889 195.593 570.426 192.895 569.943C190.178 569.459 187.641 568.956 185.286 568.433C182.91 567.909 180.716 567.386 178.703 566.842C176.69 566.279 174.878 565.715 173.247 565.151C171.617 564.567 170.187 563.984 168.939 563.38C167.711 562.776 166.664 562.172 165.839 561.568C164.994 560.964 164.369 560.34 163.967 559.716C163.544 559.092 163.343 558.468 163.343 557.844C163.343 557.22 163.544 556.595 163.967 555.971C164.369 555.367 164.994 554.743 165.839 554.139C166.664 553.515 167.711 552.911 168.939 552.308C170.187 551.724 171.617 551.14 173.247 550.556C174.878 549.972 176.69 549.409 178.703 548.865C180.716 548.322 182.91 547.778 185.286 547.255C187.641 546.731 190.178 546.248 192.895 545.765C195.593 545.282 198.452 544.819 201.471 544.376C204.491 543.933 207.632 543.51 210.933 543.108C214.235 542.725 217.657 542.343 221.2 542C224.743 541.658 228.407 541.336 232.151 541.034C235.916 540.752 239.761 540.47 243.707 540.249C247.653 540.007 251.659 539.786 255.745 539.605C259.812 539.423 263.959 539.283 268.126 539.162C272.313 539.041 276.521 538.94 280.769 538.88C285.016 538.82 289.264 538.779 293.532 538.779C297.8 538.779 302.047 538.82 306.295 538.88C310.543 538.94 314.75 539.041 318.937 539.162C323.125 539.283 327.252 539.423 331.338 539.605C335.405 539.786 339.431 540.007 343.357 540.249C347.302 540.47 351.147 540.752 354.912 541.034C358.677 541.336 362.32 541.658 365.863 542C369.427 542.343 372.829 542.725 376.13 543.108C379.432 543.51 382.593 543.933 385.592 544.376C388.612 544.819 391.47 545.282 394.188 545.765C396.886 546.248 399.422 546.731 401.798 547.255C404.153 547.778 406.347 548.322 408.361 548.865C410.374 549.409 412.186 549.972 413.816 550.556C415.467 551.14 416.896 551.724 418.124 552.308C419.372 552.911 420.399 553.515 421.245 554.139C422.07 554.743 422.694 555.367 423.117 555.971C423.519 556.595 423.741 557.22 423.741 557.844Z" fill="#C68244"/>
<path d="M297.798 564.748C297.798 437.619 348.448 312.543 510.585 307.027V313.107C396.864 321.643 328.74 386.868 317.245 533.202C316.439 543.449 316.017 553.958 316.017 564.748H297.798Z" fill="#455C34"/>
<path d="M274.324 564.749H303.474C303.474 429.306 313.802 132.047 483.468 86.8325V81.5581C383.838 100.441 313.057 205.345 291.818 422.401C289.986 441.143 282.558 492.357 281.733 513.656C281.733 539.223 278.391 545.463 276.196 552.167C275.129 555.469 274.324 558.871 274.324 564.749Z" fill="#455C34"/>
<path d="M291.818 422.401C278.371 275 222.406 154.997 146.772 156.789V165.304C223.694 162.466 277.344 313.108 281.733 513.656C282.558 492.357 289.986 441.143 291.818 422.401Z" fill="#455C34"/>
<path d="M316.019 564.748H330.191C330.191 493.343 377.681 436.915 472.539 475.104L474.955 468.48C396.322 431.862 337.257 460.045 317.247 533.203C316.441 543.449 316.019 553.958 316.019 564.748Z" fill="#455C34"/>
<path d="M110.113 359.147V365.831C205.073 336.439 237.564 485.874 256.286 564.748H274.324C274.324 558.87 275.129 555.468 276.196 552.166L261.058 521.748C237.544 443.538 202.133 337.245 110.113 359.147Z" fill="#455C34"/>
<path fill-rule="evenodd" clip-rule="evenodd" d="M187.017 372.314C187.017 324.644 146.533 322.127 128.113 349.244C127.147 350.673 120.685 352.666 121.188 351.056C126.744 332.676 124.308 315.605 107.459 313.39C96.8091 312.323 72.1482 322.832 78.5299 321.865C86.522 320.658 102.607 333.058 101.6 341.956C101.037 346.788 100.171 345.6 97.5942 342.117C94.2926 337.668 88.2331 329.475 76.4966 325.388C55.6003 318.101 27.8796 357.357 44.0852 346.667C52.6008 341.051 64.6191 351.801 74.4633 363.336C82.7574 373.059 89.8235 383.246 88.6559 385.44C87.5889 387.433 82.7574 382.783 76.255 376.461C67.2362 367.724 54.9561 355.827 44.8704 354.176C24.3767 350.794 -5.4981 400.176 12.7006 389.929C35.469 377.126 52.9027 387.091 61.6598 397.861C65.9478 403.156 56.8283 401.122 45.6152 398.626C38.529 397.056 30.6174 395.304 24.7391 395.083C-10.9134 393.754 -0.143184 459.825 8.87563 444.384C26.0677 414.932 49.8428 419.583 59.687 426.588C62.606 428.682 54.9964 430.514 45.1723 432.869C35.5697 435.184 23.8533 438.003 17.7535 442.049C4.20517 451.088 10.768 472.991 14.1903 484.385C14.6533 485.935 15.0761 487.304 15.3579 488.411C17.7535 497.571 27.4769 470.092 28.262 466.327C28.9264 463.167 34.4222 461.858 39.455 460.65C40.4415 460.429 41.4078 460.187 42.3137 459.966C48.6953 458.275 45.1119 472.931 36.7373 477.158C25.7255 482.714 22.7058 485.895 20.1491 494.27C17.21 503.953 42.8371 520.883 43.4209 513.998C43.6826 510.677 45.7763 510.073 49.8629 508.905C52.1176 508.261 54.9964 507.436 58.4992 505.885C62.5054 504.114 61.4384 497.551 60.3916 491.149C59.3649 484.808 58.3583 478.628 62.2839 477.279C67.9207 475.366 65.5251 487.445 63.9749 495.296C63.8542 495.941 63.7334 496.545 63.6126 497.128C62.8677 505.161 82.5159 492.156 85.0725 486.137C92.9036 467.616 87.3675 455.718 84.3478 449.236C82.8581 446.015 81.9924 444.143 83.6835 443.458C90.1053 440.821 97.3325 469.569 93.125 479.574C92.7627 480.46 92.2191 481.446 91.7158 482.392C90.3469 484.889 89.1189 487.183 91.1924 486.902C108.988 484.607 117.887 471.582 117.222 462.845C115.934 445.391 110.478 433.956 107.116 426.951C104.721 421.918 103.392 419.18 105.526 418.113C116.638 412.577 126.483 447.948 129.341 463.831C130.227 468.643 149.291 452.739 149.231 449.095C148.808 423.911 131.475 412.758 122.637 407.061C118.289 404.263 115.974 402.793 118.692 401.605C125.879 398.445 154.264 413.503 154.324 437.963C154.324 439.07 154.244 440.137 154.163 441.123C153.982 443.619 153.841 445.532 155.17 445.753C162.638 447.062 178.884 418.153 176.388 413.463C162.94 388.399 139.286 386.064 130.126 385.178C126.623 384.836 125.234 384.695 127.328 383.588C146.07 373.623 166.342 391.459 172.764 400.76C173.006 401.102 173.409 401.887 173.912 402.833C175.361 405.571 177.556 409.678 178.421 408.772C181.984 405.068 186.232 394.318 184.622 379.401C183.857 372.335 159.015 348.137 141.702 355.203C139.789 355.988 133.589 357.759 136.146 354.981C153.539 342.581 167.148 351.499 183.394 369.114C184.461 370.261 187.017 374.247 187.017 372.314Z" fill="#5F7E49"/>
<path d="M40.1796 511.482C37.8242 502.906 41.8706 494.713 45.5143 483.862M45.5143 483.862C49.44 489.539 53.4864 493.545 53.6474 501.618M45.5143 483.862C34.4019 486.459 31.3218 490.405 26.7117 497.994M45.5143 483.862C48.1314 476.091 55.1371 461.073 61.1161 449.82M111.122 371.469C130.166 364.202 157.948 359.048 175.703 386.89M111.122 371.469C115.128 356.129 121.832 322.872 93.3866 320.315M111.122 371.469C109.19 374.388 107.096 376.884 105.163 379.824M111.122 371.469C113.115 368.469 114.967 365.43 117.987 362.692M105.163 379.824C102.808 383.367 101.479 384.796 99.1441 388.379M105.163 379.824C97.6947 364.544 80.1402 331.448 55.3384 337.004M117.987 362.692C147.057 336.36 165.859 332.515 176.972 353.693M117.987 362.692L122.899 353.27M99.1441 388.379C123.966 389.446 164.369 398.022 162.437 427.354M99.1441 388.379C96.5472 392.365 94.4133 395.506 91.8767 399.512M91.8767 399.512C114.766 407.424 133.367 418.576 137.212 452.82M91.8767 399.512C90.6487 401.445 87.9109 405.048 86.4614 407.444M86.4614 407.444C84.5892 410.463 82.6968 413.564 81.2071 415.999M86.4614 407.444C75.0872 387.594 49.1581 363.336 25.4233 374.046M81.2071 415.999C95.601 427.978 107.72 446.398 104.942 471.864M81.2071 415.999C79.2343 419.2 77.3218 422.381 75.4496 425.522M75.4496 425.522C71.8662 431.541 68.464 437.439 65.3034 443.197M75.4496 425.522C67.0951 411.289 32.8518 400.76 13.0225 415.999M65.3034 443.197C75.9327 454.893 79.496 466.086 73.9397 488.996M65.3034 443.197C63.2903 446.82 63.0487 446.217 61.1161 449.82M61.1161 449.82C58.1568 441.687 26.4903 443.197 19.2229 459.664" stroke="#455C34" stroke-width="0.524196" stroke-linecap="round"/>
<path fill-rule="evenodd" clip-rule="evenodd" d="M451.118 320.758C455.849 273.309 496.373 274.859 512.015 303.646C512.841 305.197 519.061 307.814 518.739 306.163C515.015 287.3 519.162 270.571 536.133 270.047C546.842 270.047 570.336 282.972 564.075 281.361C556.244 279.368 538.991 290.098 539.132 299.036C539.213 303.908 540.199 302.821 543.098 299.62C546.822 295.513 553.667 287.964 565.766 285.065C587.266 279.892 610.961 321.724 595.882 309.464C587.991 303.022 574.946 312.524 564.014 323.013C554.774 331.871 546.742 341.312 547.688 343.607C548.554 345.701 553.808 341.534 560.914 335.917C570.758 328.126 584.166 317.497 594.352 316.853C615.087 315.524 639.909 367.644 622.818 355.646C601.438 340.648 583.099 348.821 573.315 358.665C568.524 363.497 577.804 362.39 589.219 361.021C596.406 360.175 604.458 359.209 610.336 359.571C645.929 361.806 628.656 426.467 621.227 410.201C607.035 379.179 582.918 381.434 572.429 387.453C569.309 389.225 576.697 391.801 586.239 395.143C595.58 398.384 606.954 402.35 612.611 407C625.193 417.348 616.497 438.486 611.967 449.477C611.343 450.987 610.799 452.296 610.397 453.363C607.095 462.261 600.17 433.936 599.747 430.111C599.405 426.89 594.07 425.038 589.178 423.347C588.212 423.025 587.286 422.703 586.4 422.381C580.22 420.066 582.334 434.983 590.245 440.036C600.633 446.679 603.331 450.122 605.042 458.738C607.015 468.663 579.817 482.936 579.938 476.051C579.999 472.709 577.965 471.904 574.02 470.333C571.845 469.468 569.067 468.361 565.746 466.468C561.921 464.294 563.632 457.892 565.323 451.611C566.974 445.411 568.584 439.351 564.82 437.62C559.404 435.144 560.572 447.404 561.337 455.376C561.397 456.02 561.458 456.644 561.518 457.228C561.458 465.301 543.199 450.403 541.266 444.183C535.307 424.958 541.991 413.664 545.635 407.524C547.446 404.464 548.493 402.692 546.883 401.827C540.743 398.586 530.697 426.447 533.898 436.835C534.18 437.741 534.603 438.788 535.025 439.794C536.112 442.411 537.119 444.787 535.086 444.324C517.612 440.257 510.063 426.427 511.572 417.791C514.592 400.558 521.155 389.708 525.181 383.084C528.08 378.313 529.67 375.696 527.657 374.448C517.149 367.825 503.842 402.048 499.413 417.549C498.064 422.26 480.671 404.524 481.094 400.921C484.033 375.898 502.372 366.537 511.733 361.745C516.344 359.39 518.779 358.142 516.203 356.692C509.358 352.847 479.624 364.986 477.128 389.345C477.027 390.432 477.007 391.499 476.967 392.486C476.906 394.982 476.866 396.915 475.517 397.015C467.948 397.559 454.641 367.181 457.621 362.752C473.484 339.158 497.259 339.198 506.459 339.218C509.962 339.218 511.351 339.218 509.398 337.91C491.723 326.133 469.78 341.856 462.472 350.472C462.211 350.814 461.707 351.539 461.123 352.425C459.412 355.001 456.835 358.867 456.05 357.88C452.87 353.834 449.709 342.721 452.809 328.046C454.259 321.08 481.375 299.479 497.903 308.236C499.735 309.203 505.734 311.598 503.46 308.579C487.395 294.507 472.961 302.016 455.044 317.94C453.876 318.966 450.917 322.691 451.118 320.758Z" fill="#5F7E49"/>
<path d="M583.419 473.856C586.6 465.562 583.399 456.986 580.842 445.833M580.842 445.833C576.373 451.108 571.944 454.671 570.998 462.703M580.842 445.833C591.653 449.537 594.33 453.765 598.155 461.777M580.842 445.833C579.01 437.841 573.535 422.199 568.683 410.422M526.709 327.481C508.491 318.342 481.354 310.45 460.94 336.379M526.709 327.481C524.253 311.799 520.891 278.059 549.438 278.321M526.709 327.481C528.34 330.562 530.192 333.259 531.823 336.379M526.709 327.481C525.018 324.301 523.488 321.06 520.771 318.06M531.823 336.379C533.816 340.144 535.003 341.694 536.956 345.499M531.823 336.379C540.761 321.925 561.516 290.722 585.634 298.734M520.771 318.06C494.459 288.95 476.119 283.253 462.954 303.243M520.771 318.06L516.805 308.196M536.956 345.499C512.154 344.09 471.107 348.579 470.1 377.951M536.956 345.499C539.13 349.727 540.962 353.068 543.096 357.296M543.096 357.296C519.523 362.872 499.894 372.112 492.667 405.812M543.096 357.296C544.123 359.329 546.478 363.194 547.686 365.711M547.686 365.711C549.236 368.912 550.807 372.193 552.055 374.75M547.686 365.711C560.973 347.109 589.197 325.549 611.744 338.554M552.055 374.75C536.533 385.258 522.663 402.37 522.905 427.997M552.055 374.75C553.705 378.132 555.296 381.494 556.866 384.815M556.866 384.815C559.825 391.157 562.624 397.357 565.2 403.397M556.866 384.815C566.569 371.468 601.678 364.402 619.917 381.554M565.2 403.397C553.464 413.986 548.793 424.776 552.035 448.128M565.2 403.397C566.831 407.221 567.133 406.618 568.683 410.422M568.683 410.422C572.448 402.611 603.812 407.262 609.409 424.373" stroke="#455C34" stroke-width="0.524196" stroke-linecap="round"/>
<path fill-rule="evenodd" clip-rule="evenodd" d="M419.573 456.02C430.082 419.099 461.97 426.104 470.264 451.168C470.707 452.497 475.236 455.456 475.216 454.107C474.975 438.646 480.632 425.984 494.14 427.977C502.635 429.507 519.405 443.095 514.674 440.941C508.755 438.244 493.556 444.283 492.388 451.389C491.764 455.255 492.71 454.53 495.448 452.396C498.991 449.698 505.494 444.686 515.479 444.102C533.255 443.095 546.058 479.613 535.872 467.736C530.517 461.515 518.841 467.192 508.695 473.936C500.119 479.634 492.408 485.955 492.831 487.908C493.214 489.699 497.965 487.143 504.407 483.7C513.305 478.929 525.444 472.447 533.617 473.393C550.225 475.305 562.465 520.138 550.628 508.18C535.832 493.242 520.129 497.108 510.99 503.509C506.5 506.63 514.009 507.093 523.25 507.636C529.068 507.999 535.57 508.381 540.18 509.508C568.062 516.373 545.173 565.111 541.589 551.18C534.765 524.567 515.358 522.916 506.178 526.177C503.461 527.143 508.936 530.244 516.022 534.23C522.948 538.155 531.403 542.926 535.228 547.416C543.723 557.401 533.819 572.902 528.665 580.954C527.96 582.062 527.336 583.028 526.873 583.833C522.988 590.396 521.538 566.963 521.74 563.863C521.921 561.286 517.955 559.051 514.331 557.018C513.627 556.616 512.922 556.213 512.278 555.83C507.708 553.133 507.245 565.252 512.801 570.385C520.089 577.129 521.74 580.25 521.861 587.296C522.001 595.449 498.428 602.877 499.515 597.442C500.018 594.805 498.528 593.879 495.629 592.067C494.039 591.06 491.986 589.792 489.63 587.819C486.913 585.544 489.187 580.713 491.402 575.982C493.596 571.311 495.75 566.742 492.992 564.829C489.067 562.111 488.241 571.996 487.718 578.418C487.678 578.941 487.637 579.424 487.597 579.887C486.389 586.289 474.049 571.875 473.405 566.661C471.432 550.576 478.337 542.584 482.101 538.236C483.953 536.082 485.04 534.834 483.893 533.928C479.484 530.465 467.566 551.1 468.613 559.796C468.714 560.561 468.895 561.447 469.096 562.293C469.58 564.527 470.043 566.56 468.493 565.896C455.226 560.179 451.22 548.14 453.636 541.517C458.487 528.291 465.231 520.641 469.378 515.971C472.358 512.609 473.968 510.757 472.579 509.488C465.171 502.744 449.77 527.928 444.053 539.585C442.302 543.128 431.048 526.6 431.914 523.802C437.792 504.395 453.656 499.604 461.769 497.148C465.735 495.94 467.848 495.296 466.016 493.786C461.145 489.76 435.86 495.135 430.424 514.058C430.183 514.904 430.002 515.749 429.84 516.534C429.438 518.507 429.116 520.017 428.049 519.896C421.969 519.272 415.769 493.283 418.748 490.223C434.672 473.775 453.495 477.218 460.782 478.546C463.56 479.05 464.668 479.251 463.299 477.922C450.978 466.065 431.35 475.386 424.345 481.184C424.083 481.405 423.58 481.908 422.996 482.532C421.265 484.324 418.668 487.022 418.205 486.136C416.252 482.472 415.346 473.212 419.875 462.019C422.03 456.724 446.57 443.478 458.427 452.778C459.735 453.805 464.144 456.563 462.775 453.845C452.045 440.398 439.544 444.283 423.096 454.329C422.009 454.993 419.151 457.509 419.573 456.02Z" fill="#5F7E49"/>
<path d="M502.572 596.193C506.276 590.073 504.948 582.826 504.525 573.626M504.525 573.626C500.237 577.169 496.211 579.364 494.318 585.584M504.525 573.626C512.557 578.095 514.067 581.84 515.979 588.725M504.525 573.626C504.223 567.043 502.089 553.857 499.955 543.832M478.495 472.124C465.369 462.3 444.997 452.174 425.127 469.789M478.495 472.124C478.797 459.361 480.931 432.143 503.498 436.452M478.495 472.124C479.361 474.802 480.428 477.197 481.293 479.915M478.495 472.124C477.629 469.366 476.864 466.588 475.133 463.81M481.293 479.915C482.32 483.176 483.045 484.586 484.051 487.867M481.293 479.915C490.433 469.749 511.309 447.987 529.286 457.791M475.133 463.81C458.444 437.015 444.715 429.869 431.448 443.82M475.133 463.81L473.402 455.435M484.051 487.867C464.604 483.217 431.448 480.901 426.476 504.032M484.051 487.867C485.179 491.531 486.145 494.45 487.232 498.094M487.232 498.094C467.765 499.14 450.915 503.67 440.386 529.337M487.232 498.094C487.755 499.845 489.064 503.247 489.668 505.421M489.668 505.421C490.453 508.179 491.218 510.998 491.842 513.212M489.668 505.421C502.854 492.578 528.28 479.533 544.284 493.061M491.842 513.212C478.052 519.312 464.625 530.887 461.162 551.22M491.842 513.212C492.667 516.131 493.453 519.01 494.218 521.869M494.218 521.869C495.667 527.304 496.996 532.619 498.183 537.772M494.218 521.869C503.8 512.689 532.628 512.105 544.626 528.291M498.183 537.772C487.373 544.496 482.139 552.368 481.374 571.331M498.183 537.772C498.928 541.034 499.25 540.611 499.955 543.832M499.955 543.832C504.042 538.195 528.219 546.348 530.212 560.722" stroke="#455C34" stroke-width="0.524196" stroke-linecap="round"/>
<path d="M261.764 138.126C262.851 128.241 254.779 104.426 216.771 87.6164C178.783 70.8068 171.717 98.91 168.899 120.672C168.375 124.598 164.953 127.658 164.711 130.657C164.55 132.449 158.048 131.241 157.545 129.791C155.511 124.094 157.343 114.914 157.726 107.707C158.773 88.6431 151.384 74.6116 128.757 75.3564C105.707 75.7389 59.304 109.479 60.9346 130.778C61.0152 131.845 63.29 130.315 65.585 128.382C78.5294 117.451 110.679 121.135 114.383 130.275C116.014 134.341 83.4817 128.966 63.6524 142.897C51.5333 151.412 47.9902 182.998 52.0165 190.447C52.1775 190.729 52.4795 190.407 52.6204 190.246C71.8659 166.994 84.6694 155.62 122.677 157.532C129.401 157.915 63.8537 173.215 53.5666 195.5C50.6274 201.861 53.1841 229.703 58.076 237.896C58.378 238.38 58.8208 237.574 59.0222 237.292C81.3075 201.338 120.765 184.267 122.436 187.367C124.529 191.212 73.7583 213.618 60.3307 242.486C58.4585 245.929 70.5775 269.664 76.9189 277.233C77.4624 277.877 77.9053 276.79 78.1267 276.327C92.0375 247.056 118.168 220.04 122.114 223.241C125.234 225.777 91.514 251.183 80.8646 279.971C85.2734 288.849 95.2585 297.123 101.821 300.746C102.083 300.887 102.365 300.142 102.546 299.699L102.566 299.639C108.545 284.218 123.019 256.176 127.046 256.84C134.192 258.028 115.048 280.434 114.081 298.33C113.779 303.665 121.328 306.403 124.509 307.752C129.502 309.886 134.796 333.258 135.602 322.105C136.769 305.618 155.451 307.973 156.256 305.98C157.243 303.565 150.398 268.013 156.075 266.583C171.898 262.597 178.723 288.003 177.072 298.512C177.012 298.914 176.951 299.84 177.535 299.74C186.232 298.109 215.543 283.816 215.221 278.904C212.382 236.789 165.819 211.504 171.838 207.78C175.844 205.284 186.413 215.953 197.405 229.904C208.92 244.54 220.757 262.839 221.2 275.119C221.2 275.32 221.159 275.904 221.683 275.602C232.232 269.664 244.894 253.941 245.599 246.754C248.176 220.563 182.044 182.717 187.48 181.348C192.895 179.999 202.437 190.387 217.113 201.157C232.856 212.692 250.813 223.362 251.739 234.655C251.779 235.138 251.658 236.588 252.041 236.064C257.074 229.341 266.515 212.289 265.267 197.493C263.717 178.992 191.687 163.632 204.169 161.297C210.893 160.008 257.98 171.926 265.267 181.871C265.609 182.354 265.791 182.978 266.213 183.139C267.643 183.683 269.434 166.471 265.428 151.573C261.18 135.73 196.338 146.641 212.302 135.629C234.889 120.048 250.833 127.396 257.919 134.401C259.288 135.77 261.563 140.018 261.764 138.126Z" fill="#5F7E49"/>
<path d="M159.717 132.853C159.596 133.417 158.972 137.805 158.71 139.154C158.247 141.61 158.086 141.489 157.845 142.798M157.845 142.798C157.281 145.878 157.12 146.844 156.576 150.105M157.845 142.798C194.745 139.154 196.376 82.7865 240.705 117.251M157.845 142.798C125.091 128.605 132.6 74.2709 86.6403 112.379M132.6 302.983C136.324 273.973 139.465 250.379 142.646 228.98M142.646 228.98C143.551 222.88 144.457 216.941 145.383 211.123M142.646 228.98C124.185 239.609 114.422 249.554 98.3769 276.832M154.865 159.628C189.451 142.798 244.148 151.112 255.683 163.473M154.865 159.628C154.261 162.567 155.429 156.749 154.865 159.628ZM154.865 159.628C154.463 161.681 153.798 164.781 153.134 167.942M154.865 159.628C155.369 157.091 155.952 153.689 156.576 150.105M153.134 167.942C152.389 171.525 151.624 175.189 151.201 177.464M153.134 167.942C123.682 167.942 92.4784 179.86 66.9922 202.407M156.576 150.105C126.52 139.557 85.6136 142.395 69.0255 155.158M151.201 177.464C192.309 162.667 208.515 171.787 249.422 205.446M151.201 177.464C150.235 182.618 149.732 184.913 148.826 190.046M148.826 190.046C175.862 189.16 191.102 194.374 226.935 244.38M148.826 190.046C148.443 192.26 147.658 197.334 147.276 199.568M147.276 199.568C146.632 203.393 146.007 207.238 145.383 211.123M147.276 199.568C115.75 206.07 100.229 217.505 79.7554 244.582M145.383 211.123C167.85 230.872 179.607 243.495 194.745 276.832" stroke="#455C34" stroke-width="0.733874" stroke-linecap="round"/>
<path d="M359.38 114.654C354.71 104.85 354.468 77.3506 387.645 46.3082C420.801 15.2456 438.214 41.6981 448.924 63.1379C450.877 67.0031 455.507 68.9156 456.856 71.9353C457.661 73.727 463.922 70.1235 463.942 68.4526C463.962 61.8495 458.789 53.032 455.789 45.7244C447.877 26.4386 450.434 9.28677 474.048 1.89859C497.984 -6.03313 557.996 12.0448 563.974 34.6321C564.276 35.7594 561.378 34.9944 558.338 33.8268C541.025 27.2237 509.197 42.6242 508.654 53.3944C508.412 58.1655 540.059 40.8727 565.545 48.12C581.106 52.5288 596.124 83.853 594.655 92.9725C594.594 93.3349 594.151 93.1134 593.95 92.9926C565.726 75.9414 548.413 68.815 509.902 84.5174C503.098 87.3156 576.234 79.4644 594.856 98.7502C600.191 104.266 607.559 133.899 605.445 144.126C605.324 144.73 604.559 144.086 604.257 143.844C568.323 114.795 521.477 111.413 520.853 115.197C520.088 119.928 580.522 124.74 604.781 149.682C607.941 152.561 603.975 181.409 600.15 191.515C599.828 192.381 598.963 191.414 598.58 191.032C573.718 165.828 537.019 147.387 534.1 152.118C531.785 155.842 575.731 169.894 597.07 195.763C595.722 206.533 588.374 218.672 582.918 224.772C582.697 225.014 582.133 224.349 581.811 223.947L581.75 223.886C570.034 210.137 545.011 186.422 541.105 188.556C534.16 192.381 561.961 208.586 569.39 226.705C571.624 232.1 564.82 237.636 562.022 240.193C557.633 244.199 560.572 270.208 555.741 258.995C548.614 242.407 530.174 251.587 528.624 249.815C526.732 247.661 521.014 208.526 514.653 209.09C496.897 210.68 498.971 239.367 504.466 249.614C504.668 249.996 505.07 250.943 504.426 251.043C494.844 252.493 459.473 248.326 458.044 243.132C445.824 198.662 484.778 155.762 477.229 154.091C472.196 152.964 465.13 167.78 458.809 186.16C452.186 205.406 446.549 228.557 450.515 241.38C450.575 241.602 450.837 242.165 450.193 242.065C437.147 239.73 418.445 228.073 415.144 220.927C403.045 194.817 457.681 131.906 451.582 132.47C445.502 133.014 439.402 147.166 428.109 163.593C416.03 181.168 401.334 198.642 404.434 210.64C404.575 211.163 405.239 212.613 404.635 212.21C397.026 207.097 381.162 192.884 377.116 177.161C372.063 157.513 440.852 115.701 427.142 117.774C419.754 118.881 375.445 148.152 371.499 161.056C371.318 161.681 371.358 162.385 370.976 162.707C369.708 163.794 361.655 146.683 360.427 129.853C359.119 111.956 429.94 99.8373 409.527 94.2206C380.619 86.2889 366.809 99.6359 362.018 109.42C361.071 111.332 360.266 116.526 359.38 114.654Z" fill="#5F7E49"/>
<path d="M462.795 72.398C463.117 72.9416 465.331 77.2496 466.076 78.538C467.445 80.9135 467.586 80.7122 468.29 81.9805M468.29 81.9805C469.981 84.9599 470.505 85.9061 472.236 89.0466M468.29 81.9805C428.893 91.5227 406.95 33.9472 373.593 85.5035M468.29 81.9805C496.977 55.528 469.7 2.15992 530.838 24.9083M551.956 238.179C537.683 209.593 525.967 186.381 514.975 165.425M514.975 165.425C511.854 159.466 508.774 153.668 505.714 148.011M514.975 165.425C537.844 169.733 551.513 176.477 577.865 198.843M477.43 98.2667C435.678 93.3748 382.229 121.7 374.76 138.61M477.43 98.2667C475.799 95.5087 479.101 101.085 477.43 98.2667ZM477.43 98.2667C478.577 100.24 480.369 103.219 482.181 106.239M477.43 98.2667C475.981 95.851 474.169 92.5494 472.236 89.0466M482.181 106.239C484.254 109.661 486.368 113.164 487.616 115.358M482.181 106.239C512.599 95.6094 549.077 96.6562 583.482 110.728M472.236 89.0466C499.454 67.3451 542.675 55.5079 564.397 62.7149M487.616 115.358C439.865 114.915 426.437 130.175 396.341 179.658M487.616 115.358C490.475 120.331 491.824 122.505 494.582 127.477M494.582 127.477C466.378 136.335 452.507 147.206 433.524 211.727M494.582 127.477C495.79 129.651 498.427 134.584 499.615 136.758M499.615 136.758C501.648 140.482 503.681 144.206 505.714 148.011M499.615 136.758C534.482 132.107 554.634 138.308 585.495 158.842M505.714 148.011C489.65 176.497 482.06 193.749 478.416 233.609" stroke="#455C34" stroke-width="0.733874" stroke-linecap="round"/>
</svg>
