<svg width="929" height="339" viewBox="0 0 929 339" fill="none" xmlns="http://www.w3.org/2000/svg">
<path d="M44.1412 162.547C45.3578 161.199 59.0363 169.041 70.1665 182.226C78.732 192.353 83.2367 202.629 85.7028 209.731C81.083 211.885 76.4797 214.022 71.8764 216.159C71.1859 211.605 69.8377 205.128 66.9935 197.828C58.2472 175.338 42.7767 164.059 44.1412 162.547Z" fill="#B1B851"/>
<path d="M12.1648 224.051C10.159 222.604 17.5244 206.706 29.6575 192.978C38.3709 183.114 50.4054 169.518 63.5084 169.83C80.4422 170.208 98.3787 193.817 102.999 228.572C98.6747 228.391 94.3508 228.194 90.027 228.013C85.2099 209.402 77.0225 188.161 62.933 185.646C40.689 181.667 15.6173 226.566 12.1648 224.051Z" fill="#A6AA36"/>
<path d="M197.236 173.727C196.283 172.658 185.58 178.807 176.883 189.115C170.192 197.04 166.657 205.079 164.733 210.619C168.35 212.296 171.951 213.973 175.551 215.65C176.094 212.083 177.146 207.019 179.365 201.314C186.188 183.723 198.305 174.911 197.236 173.727Z" fill="#A6AA36"/>
<path d="M117.103 234.228C114.111 221.618 110.872 203.764 110.33 182.259C109.031 130.982 123.778 88.5486 126.688 89.0419C129.171 89.4529 121.707 121.315 124.288 172.625C125.587 198.552 128.973 219.81 131.768 234.228C126.885 234.228 121.986 234.228 117.103 234.228Z" fill="#A6AA36"/>
<path d="M146.763 218.411C148.768 210.996 152.254 200.951 158.616 190.166C165.373 178.691 180.416 153.159 196.413 155.691C211.949 158.173 219.282 185.711 218.41 186.204C217.605 186.664 209.73 164.174 198.106 163.615C189.229 163.171 177.72 175.518 163.121 218.411C157.679 218.411 152.221 218.411 146.763 218.411Z" fill="#B1B851"/>
<path d="M135.714 216.143C136.93 209.304 138.969 200.212 142.487 189.871C156.117 149.904 180.892 124.109 182.536 125.194C184.098 126.213 163.778 150.118 155.179 191.285C153.108 201.248 152.204 209.813 151.793 216.143C146.433 216.143 141.073 216.143 135.714 216.143Z" fill="#A6AA36"/>
<path d="M63.5075 115.018C61.0414 116.793 87.8066 146.386 95.7144 194.721C97.638 206.443 97.9832 216.423 97.9175 223.492C104.411 223.492 110.889 223.492 117.383 223.492C116.364 208.712 112.961 186.271 101.025 162.202C86.5735 133.037 65.579 113.538 63.5075 115.018Z" fill="#B1B851"/>
<path d="M147.603 138.116C145.35 137.146 133.102 154.474 126.97 176.883C122.268 194.096 122.564 209.205 123.583 219.25C130.422 219.25 137.262 219.25 144.101 219.25C142.358 213.282 140.336 204.651 139.662 194.112C137.607 161.725 150.118 139.201 147.603 138.116Z" fill="#B1B851"/>
<path d="M95.3883 111.482C102.885 130.076 108.195 149.591 111.073 169.468C113.982 189.344 114.476 209.566 112.717 229.591C112.618 230.577 111.763 231.3 110.777 231.218C109.79 231.119 109.067 230.265 109.149 229.278C111.105 209.517 110.809 189.541 108.113 169.879C105.483 150.216 100.419 130.865 93.1853 112.353C92.9386 111.745 93.251 111.055 93.8593 110.808C94.4676 110.578 95.1581 110.874 95.3883 111.482Z" fill="#A6AA36"/>
<path d="M85.2588 106.551C89.3032 104.956 93.3475 103.345 97.3919 101.75C99.6607 105.794 97.7042 110.611 94.2846 111.91C90.9308 113.193 86.3274 110.99 85.2588 106.551Z" fill="#A6AA36"/>
<path d="M50.2891 89.6003C51.8674 92.5596 54.7938 97.0808 59.8739 100.895C68.1599 107.126 82.5782 111.746 93.7249 105.137C105.562 98.1165 110.774 80.1471 103.03 63.9038C101.353 64.9725 99.3475 66.5179 97.3911 68.7045C93.5276 73.0119 91.9 77.5659 91.193 80.2786C89.9107 77.5988 87.1815 72.7817 81.8713 68.7045C78.1557 65.8438 74.5059 64.3806 72.007 63.6079C70.6095 66.7974 68.8175 71.9926 68.6202 78.5852C68.4723 83.468 69.245 87.5617 70.0341 90.4552C68.5216 89.4853 64.9047 87.4631 59.8739 87.348C55.287 87.2329 51.8674 88.7783 50.2891 89.6003Z" fill="#FFE5B1"/>
<path d="M57.9512 146.648C70.6268 156.545 81.3953 168.974 89.3361 183.047C93.364 190.067 96.6357 197.482 99.2497 205.127C101.831 212.788 103.754 220.68 104.955 228.67C105.103 229.656 104.428 230.56 103.458 230.708C102.472 230.856 101.568 230.182 101.42 229.212C100.351 221.37 98.5756 213.66 96.1424 206.163C93.6928 198.682 90.5856 191.399 86.7549 184.511C79.1759 170.684 68.8019 158.387 56.4715 148.506C55.9454 148.095 55.8632 147.355 56.2742 146.829C56.6853 146.319 57.4251 146.237 57.9512 146.648Z" fill="#A6AA36"/>
<path d="M47.0029 146.944C50.0115 143.804 53.0037 140.648 56.0123 137.491C59.7608 140.22 60.0074 145.416 57.4426 148.03C54.9273 150.611 49.8307 150.529 47.0029 146.944Z" fill="#A6AA36"/>
<path d="M18.3789 141.946C20.3024 143.722 23.6234 146.32 28.3418 147.832C36.036 150.315 47.8567 150.052 54.4 142.325C61.3379 134.121 60.6145 119.522 50.7667 109.509C49.7967 110.726 48.7116 112.386 47.8238 114.491C46.0647 118.65 46.0318 122.448 46.1962 124.618C44.5686 122.974 41.3298 120.113 36.3648 118.453C32.8959 117.302 29.8379 117.154 27.7993 117.22C27.5691 119.933 27.5691 124.207 29.0981 129.139C30.2325 132.789 31.8437 135.6 33.1589 137.524C31.8108 137.212 28.6213 136.636 24.8893 137.836C21.4697 138.921 19.3325 140.927 18.3789 141.946Z" fill="#FFE5B1"/>
<path d="M143.904 221.043C146.304 212.674 149.148 204.421 152.535 196.415C155.872 188.375 159.752 180.566 164.043 173.003C172.691 157.927 183.18 143.904 195.264 131.425C195.724 130.965 196.464 130.949 196.941 131.409C197.418 131.853 197.418 132.609 196.974 133.086C185.169 145.531 174.993 159.506 166.641 174.467C162.498 181.98 158.749 189.707 155.56 197.648C152.321 205.588 149.609 213.743 147.34 221.996C147.093 222.95 146.107 223.509 145.153 223.246C144.216 222.999 143.641 222.013 143.904 221.043Z" fill="#A6AA36"/>
<path d="M194.311 123.615C197.648 126.41 200.986 129.205 204.307 132C201.841 135.929 196.678 136.505 193.9 134.121C191.187 131.77 190.94 126.673 194.311 123.615Z" fill="#A6AA36"/>
<path d="M192.568 90.6357C191.055 93.2827 188.984 97.6887 188.491 103.426C187.702 112.781 191.055 126.081 201.462 131.49C212.51 137.228 228.786 132.641 237.549 118.897C235.922 118.124 233.768 117.319 231.154 116.858C226.008 115.954 221.733 116.891 219.3 117.631C220.763 115.379 223.147 110.973 223.739 104.923C224.134 100.697 223.509 97.1955 222.901 94.9103C219.793 95.3542 214.96 96.4557 209.798 99.4643C205.983 101.7 203.221 104.232 201.38 106.238C201.396 104.61 201.216 100.862 198.898 96.9325C196.793 93.3649 193.965 91.4578 192.568 90.6357Z" fill="#FFE5B1"/>
<path d="M201.807 235.099C201.446 236.891 200.919 238.815 200.212 240.82C197.023 250.175 190.019 261.486 174.911 270.38C145.301 287.824 98.4951 287.89 68.8694 270.446C53.1194 261.157 46.1815 249.304 43.1729 239.735C42.7783 238.502 42.4495 237.286 42.1864 236.151C40.6246 229.493 40.8876 224.478 40.9863 223.114H121.857C121.857 223.081 202.777 223.081 202.777 223.081C202.892 224.363 203.155 228.967 201.807 235.099Z" fill="#FFE5B1"/>
<path d="M209.206 225.711H34.624V209.698H209.206V225.711Z" fill="#AE3E28"/>
<path d="M201.806 235.099C201.445 236.891 200.919 238.815 200.212 240.82C184.314 240.919 79.0452 240.491 43.172 239.735C42.7774 238.502 42.4486 237.286 42.1855 236.151C70.6769 233.652 100.237 235.691 128.679 235.691C152.518 235.691 177.655 233.603 201.806 235.099Z" fill="#AE3E28"/>
<path d="M492.984 161.758C492.984 163.961 492.984 165.062 492.967 166.344C492.869 172.74 492.326 189.246 492.277 190.709C491.866 199.867 491.307 209.517 490.534 219.661C486.917 220.023 483.3 220.368 479.7 220.73C476.905 209.994 474.653 199.784 472.861 190.117C472.647 189.098 472.482 188.079 472.302 187.076C470.986 179.776 469.934 172.773 469.129 166.114C468.981 165.128 468.866 164.174 468.767 163.254C467.863 155.444 467.271 148.046 466.926 141.075C466.876 140.22 466.827 139.349 466.794 138.494C466.416 129.534 466.449 121.281 466.745 113.702C466.745 113.702 466.86 111.203 466.893 110.529C467.123 105.942 467.6 99.185 468.685 90.8168C468.816 89.781 468.915 89.0247 469.014 88.3014C470.608 76.6122 472.137 69.4934 472.532 67.7179C472.877 66.1725 473.058 65.3997 473.222 64.6928C474.932 57.4754 477.069 51.4582 479.404 51.4746C480.571 51.5075 482.593 53.02 485.092 64.3969C485.372 65.6299 485.635 66.9945 485.931 68.4577C486.638 72.091 487.345 76.4478 488.117 81.7087C488.38 83.6158 488.66 85.5722 488.89 87.6109C489.087 89.0412 489.285 90.5044 489.449 92.0005C490.14 97.6889 490.748 103.887 491.274 110.644C491.389 112.222 491.504 113.85 491.636 115.494C492.129 122.58 492.507 130.274 492.721 138.576C492.786 140.73 492.836 141.815 492.869 143.361C493.033 149.805 493.017 155.05 492.984 161.758Z" fill="#A6AA36"/>
<path d="M485.93 68.4578C481.425 68.7044 476.723 68.2276 472.531 67.718C472.744 66.6986 472.975 65.6793 473.221 64.6929C476.69 64.7915 480.159 64.7258 483.661 64.5121C484.138 64.4792 484.615 64.4299 485.091 64.397C485.371 65.63 485.634 66.9946 485.93 68.4578Z" fill="#CED28B"/>
<path d="M489.448 92C482.559 92.7398 475.342 92.1973 468.684 90.8162C468.799 89.9449 468.897 89.1229 469.012 88.3009C475.654 88.2187 482.263 87.857 488.889 87.6104C489.086 89.0407 489.284 90.5039 489.448 92Z" fill="#CED28B"/>
<path d="M491.636 115.493C483.596 116.315 474.768 115.066 466.745 113.701C466.745 113.701 466.843 111.581 466.893 110.528C474.932 110.627 483.3 110.035 491.274 110.643C491.389 112.222 491.504 113.849 491.636 115.493Z" fill="#CED28B"/>
<path d="M492.869 143.361C484.237 144.364 474.833 143.262 466.925 141.076C466.876 140.221 466.827 139.35 466.794 138.495C472.581 138.856 478.352 139.317 484.188 139.218C487.016 139.169 489.876 138.856 492.721 138.577C492.803 140.139 492.819 141.733 492.869 143.361Z" fill="#CED28B"/>
<path d="M492.984 161.757C492.984 163.27 492.968 164.799 492.968 166.344C485.142 167.775 476.938 167.511 469.129 166.114C468.981 165.128 468.866 164.174 468.767 163.253C477.119 163.96 484.977 163.204 492.984 161.757Z" fill="#CED28B"/>
<path d="M492.442 186.336C492.393 187.783 492.327 189.246 492.278 190.71C485.85 191.269 479.241 190.858 472.862 190.118C472.648 189.098 472.484 188.079 472.303 187.076C479.093 187.29 485.735 186.78 492.442 186.336Z" fill="#CED28B"/>
<mask id="mask0_287_104854" style="mask-type:luminance" maskUnits="userSpaceOnUse" x="483" y="0" width="26" height="224">
<path d="M483.563 0H508.816V223.361H483.563V0Z" fill="white"/>
</mask>
<g mask="url(#mask0_287_104854)">
<path d="M508.52 119.063C508.504 120.592 508.454 122.137 508.405 123.683C508.241 130.061 507.945 136.67 507.55 143.51C507.468 144.907 507.386 146.321 507.287 147.719C506.81 155.347 506.186 163.222 505.38 171.393C505.265 172.757 505.117 174.138 504.985 175.519C504.361 181.586 503.654 187.784 502.815 194.146C502.651 195.577 502.454 197.024 502.24 198.487C501.336 205.293 500.316 212.28 499.165 219.399C496.288 219.481 493.411 219.58 490.534 219.662C489.449 210.373 488.726 203.057 488.265 197.911C488.167 196.941 486.227 173.333 486.161 172.297C485.553 163.649 485.092 155.314 484.764 147.307C484.714 146.272 484.665 145.236 484.632 144.217C484.336 136.851 484.155 129.782 484.04 122.976C484.04 121.94 484.024 120.92 484.024 119.918C483.925 111.434 483.974 103.395 484.139 95.7665C484.139 94.9774 484.155 94.1883 484.188 93.432C484.402 84.5048 484.731 76.153 485.207 68.3931C485.257 67.5711 485.29 67.0614 485.323 66.3052C485.914 56.2436 486.654 48.2042 487.279 42.302C487.378 41.3814 487.476 40.3949 487.641 39.0139C488.265 33.5721 489.186 26.6178 490.304 20.058C490.485 18.8743 490.699 17.7071 490.912 16.5562C492.622 7.51395 494.727 0.115723 496.93 0.115723C499.034 0.148606 500.842 6.7248 502.338 15.4383C502.552 16.7042 502.766 18.0194 502.963 19.3675C503.835 25.2697 504.591 31.8459 505.216 37.8795C505.364 39.3921 505.462 40.4278 505.627 42.1212C506.481 51.443 507.04 59.0714 507.402 64.5132C507.501 65.7955 507.55 66.634 507.616 67.8506C508.076 75.6434 508.421 84.0938 508.569 93.1525C508.586 94.2211 508.619 95.2898 508.652 96.3913C508.717 103.576 508.685 111.122 508.52 119.063Z" fill="#B1B851"/>
</g>
<path d="M508.519 119.062C508.502 120.591 508.453 122.136 508.404 123.682C500.315 124.356 492.029 123.994 484.039 122.975C484.039 121.939 484.022 120.92 484.022 119.917C492.276 119.983 500.364 119.588 508.519 119.062Z" fill="#CED28B"/>
<path d="M502.964 19.3668C498.788 19.9422 494.514 20.123 490.305 20.0573C490.486 18.8736 490.7 17.7063 490.913 16.5555C494.695 16.1116 498.525 15.7005 502.34 15.4375C502.553 16.7034 502.767 18.0187 502.964 19.3668Z" fill="#CED28B"/>
<path d="M505.625 42.1206C499.559 42.8111 493.361 42.7617 487.278 42.3014C487.376 41.315 487.492 40.2135 487.64 39.0133C493.542 38.9311 499.362 38.4214 505.214 37.8789C505.362 39.3257 505.494 40.756 505.625 42.1206Z" fill="#CED28B"/>
<path d="M507.615 67.8501C500.217 68.8037 492.621 68.8694 485.207 68.3927C485.239 67.6857 485.272 66.9952 485.322 66.3047C492.753 66.1074 500.052 65.3676 507.401 64.5127C507.467 65.5978 507.549 66.6993 507.615 67.8501Z" fill="#CED28B"/>
<path d="M508.652 96.3901C500.465 97.13 492.278 96.834 484.14 95.7654C484.14 94.9763 484.156 94.1871 484.189 93.4309C492.343 93.8419 500.432 93.661 508.57 93.1514C508.587 94.22 508.62 95.2886 508.652 96.3901Z" fill="#CED28B"/>
<path d="M507.551 143.509C507.469 144.906 507.386 146.32 507.288 147.718C499.824 148.622 492.179 148.359 484.764 147.307C484.715 146.271 484.666 145.235 484.633 144.216C492.393 144.594 499.922 144.216 507.551 143.509Z" fill="#CED28B"/>
<path d="M505.381 171.392C505.266 172.757 505.118 174.138 504.986 175.519C498.788 176.012 492.541 175.88 486.376 175.42C486.31 174.368 486.228 173.332 486.162 172.296C492.623 172.395 498.986 172 505.381 171.392Z" fill="#CED28B"/>
<path d="M502.815 194.145C502.651 195.575 502.454 197.022 502.24 198.485C497.587 198.617 492.902 198.37 488.265 197.91C488.134 196.743 488.035 195.592 487.953 194.457C492.918 194.474 497.867 194.309 502.815 194.145Z" fill="#CED28B"/>
<path d="M478.269 226.549C476.543 226.861 474.817 227.157 473.107 227.47C470.756 217.786 462.273 179.858 461.993 178.444C460.464 171.161 457.308 154.918 457.044 153.504C455.68 146.122 453.099 130.52 452.901 129.353C451.603 120.902 450.567 113.34 449.794 106.583C449.646 105.366 449.531 104.166 449.4 103.032C448.676 96.3402 448.2 90.471 447.904 85.3251C447.838 84.2071 447.772 83.1385 447.723 82.0863C447.295 72.9125 447.558 66.1884 447.723 63.3113C447.788 62.0618 447.854 60.9274 447.986 59.4806C448.298 55.8473 449.827 38.519 453.493 38.1409C456.683 37.8121 460.398 48.2682 463.012 57.031C463.259 57.8366 463.522 58.7572 464.032 60.6315C466.679 70.0848 468.142 77.0062 468.701 79.7024C468.865 80.5245 469.227 82.2836 469.654 84.536C470.46 88.8762 471.249 93.6933 472.005 99.02C472.252 100.598 472.466 102.242 472.696 103.903C473.534 110.298 474.307 117.368 475.03 125.21C475.178 126.755 475.31 128.301 475.425 129.895C475.984 136.324 476.461 143.294 476.855 150.742C476.954 152.485 477.71 169.303 477.907 176.521C477.957 178.181 478.351 218.641 478.269 226.549Z" fill="#B1B851"/>
<path d="M464.031 60.6317C458.639 61.9141 453.213 62.9334 447.722 63.3115C447.771 62.2758 447.837 61.2893 447.903 60.3687C447.936 60.1056 447.952 59.7933 447.985 59.4809C453.016 58.9055 458.047 58.2478 463.012 57.0312C463.39 58.2643 463.735 59.4809 464.031 60.6317Z" fill="#CED28B"/>
<path d="M469.654 84.5371C462.519 85.7373 454.857 85.7866 447.903 85.3263C447.837 84.2083 447.771 83.1397 447.722 82.0875C453.674 81.956 459.592 81.3805 465.461 80.3777C466.563 80.1804 467.632 79.9667 468.7 79.7036C469.029 81.249 469.341 82.8602 469.654 84.5371Z" fill="#CED28B"/>
<path d="M472.695 103.903C465.231 105.646 457.241 106.698 449.793 106.583C449.646 105.367 449.53 104.166 449.399 103.032C454.956 102.407 460.463 101.717 465.971 100.5C467.993 100.056 469.982 99.5466 472.005 99.0205C472.251 100.599 472.465 102.243 472.695 103.903Z" fill="#CED28B"/>
<path d="M475.424 129.896C468.421 132.05 460.759 133.003 453.476 132.905C453.279 131.704 453.098 130.521 452.901 129.353C457.685 128.942 462.469 128.416 467.204 127.381C469.867 126.805 472.465 126.016 475.03 125.21C475.178 126.756 475.309 128.301 475.424 129.896Z" fill="#CED28B"/>
<path d="M477.118 156.085C470.887 157.515 464.08 158.123 457.85 157.795C457.586 156.348 457.307 154.918 457.044 153.504C461.795 153.274 466.514 152.879 471.314 151.975C473.172 151.629 475.03 151.169 476.855 150.742C476.953 152.484 477.052 154.276 477.118 156.085Z" fill="#CED28B"/>
<path d="M478.024 181.569C473.026 182.539 467.847 182.933 462.899 182.687C462.586 181.256 462.274 179.859 461.995 178.445C466.055 178.215 470.133 177.968 474.193 177.278C475.459 177.064 476.676 176.801 477.909 176.521C477.958 178.182 478.008 179.859 478.024 181.569Z" fill="#CED28B"/>
<path d="M478.335 203.862C474.916 204.585 471.315 204.914 467.797 204.931C467.534 203.813 467.271 202.678 467.041 201.577C469.194 201.396 471.364 201.133 473.551 200.771C475.146 200.508 476.74 200.147 478.319 199.752C478.335 201.1 478.335 202.481 478.335 203.862Z" fill="#CED28B"/>
<path d="M519.979 145.004C515.869 146.336 511.611 147.224 507.287 147.717C507.386 146.319 507.468 144.906 507.55 143.508C511.512 143.114 515.524 142.67 519.601 142.16C521.294 141.979 521.409 144.527 519.979 145.004Z" fill="#A3C5A9"/>
<path d="M521.54 172.591C516.18 174.203 510.623 175.107 504.984 175.518C505.116 174.137 505.264 172.756 505.379 171.391C510.591 170.914 515.819 170.323 521.162 169.78C522.822 169.616 523.003 172.164 521.54 172.591Z" fill="#A3C5A9"/>
<path d="M470.722 222.539C468.075 222.966 465.428 223.377 462.781 223.805C460.578 217.952 457.948 210.57 455.136 201.889C454.824 200.919 454.528 199.982 454.117 198.667C453.016 195.149 450.55 186.994 447.82 175.519C447.492 174.171 447.261 173.151 447.196 172.872C445.223 164.323 443.743 156.3 442.609 148.836C442.461 147.817 442.313 146.83 442.181 145.86C440.899 136.637 440.126 128.285 439.732 120.854C439.682 119.884 439.65 119.227 439.617 118.372C439.37 112.963 439.107 107.192 439.271 100.156C439.304 98.6102 439.337 97.8375 439.37 97.0977C439.633 90.0776 440.472 83.8466 442.477 83.5178C444.434 83.2055 447.081 88.3842 449.53 94.7631C449.958 95.8646 450.369 96.9826 450.763 98.117C451.224 99.4158 452.966 104.331 456.123 114.936C456.567 116.448 456.781 117.204 457.06 118.174C457.816 120.772 460.217 129.19 462.798 141.619C463.044 142.769 463.275 143.937 463.521 145.104C465.034 152.798 466.415 161.15 467.533 170.209C467.681 171.31 467.829 172.428 467.944 173.562C468.766 180.714 469.456 188.26 469.933 196.25C470.015 197.45 470.081 198.667 470.13 199.884C470.508 207.101 470.722 214.664 470.722 222.539Z" fill="#A6AA36"/>
<path d="M450.764 98.1161C447.082 99.2669 443.103 99.8916 439.272 100.155C439.305 99.1189 439.322 98.0996 439.371 97.0968C441.755 96.7186 444.139 96.2583 446.506 95.6664C447.526 95.4034 448.528 95.091 449.531 94.7622C449.959 95.8637 450.37 96.9817 450.764 98.1161Z" fill="#CED28B"/>
<path d="M457.061 118.173C451.389 119.554 445.553 120.376 439.733 120.853C439.683 120.015 439.651 119.176 439.618 118.371C445.109 117.253 450.6 116.003 456.124 114.935C456.173 115.099 456.206 115.247 456.255 115.395C456.519 116.299 456.814 117.22 457.061 118.173Z" fill="#CED28B"/>
<path d="M463.522 145.103C456.765 147.191 449.482 148.473 442.61 148.835C442.462 147.815 442.314 146.829 442.183 145.859C446.556 145.234 450.962 144.675 455.286 143.672C457.834 143.08 460.333 142.357 462.799 141.617C463.046 142.768 463.276 143.935 463.522 145.103Z" fill="#CED28B"/>
<path d="M467.946 173.562C461.452 175.141 454.432 175.798 447.823 175.519C447.609 174.631 447.379 173.76 447.198 172.872C450.93 172.642 454.679 172.428 458.378 171.918C461.469 171.524 464.51 170.866 467.535 170.208C467.683 171.31 467.831 172.428 467.946 173.562Z" fill="#CED28B"/>
<path d="M470.131 199.883C465.331 201.215 460.185 201.873 455.137 201.889C454.792 200.82 454.447 199.752 454.118 198.667C459.445 198.141 464.607 196.957 469.934 196.25C470.016 197.45 470.082 198.667 470.131 199.883Z" fill="#CED28B"/>
<path d="M519.421 105.119C519.306 106.468 519.191 107.849 519.092 109.295C518.549 115.773 517.875 123.072 516.971 131.276C516.856 132.444 510.313 182.817 510.165 183.82C508.521 194.967 506.646 207.1 504.493 220.302L499.643 220.088C499.133 206.705 498.541 181.814 498.558 181.14C498.393 172.41 498.393 154.671 498.41 153.668C498.426 146.911 498.771 133.052 498.788 132.197C499.067 123.237 499.478 115.345 499.988 108.408C500.037 107.306 500.12 106.237 500.202 105.202C500.925 95.9785 501.78 88.4981 502.734 82.3987C502.865 81.4616 502.997 80.656 503.194 79.5216C504.871 69.6902 506.975 62.7194 507.995 59.5464C508.356 58.4449 508.537 57.9024 508.8 57.1461C510.74 51.4741 513.387 45.1116 515.689 45.4405C517.694 45.7528 518.829 51.0795 519.486 56.5871C519.602 57.59 519.717 58.3462 519.848 59.8259C520.111 62.6537 520.621 68.9339 520.604 78.453C520.588 80.2779 520.572 81.626 520.555 82.4809C520.522 84.388 520.44 92.3616 519.421 105.119Z" fill="#A6AA36"/>
<path d="M519.846 59.8262C515.917 60.1879 511.938 59.9741 507.993 59.5467C508.239 58.774 508.502 57.9684 508.798 57.1464C512.366 57.0971 515.933 56.7847 519.485 56.5874C519.633 57.6725 519.748 58.774 519.846 59.8262Z" fill="#CED28B"/>
<path d="M520.555 82.4815C514.653 83.1063 508.324 82.8103 502.734 82.3993C502.865 81.3965 503.03 80.4594 503.194 79.5222C507.781 79.6209 512.384 79.44 516.955 78.9797C518.172 78.8482 519.372 78.6673 520.605 78.4536C520.588 79.7195 520.572 81.0512 520.555 82.4815Z" fill="#CED28B"/>
<path d="M519.42 105.12C519.305 106.468 519.19 107.849 519.091 109.296C512.811 110.249 506.235 109.756 499.987 108.408C500.037 107.306 500.119 106.238 500.201 105.202C506.695 105.925 512.926 105.646 519.42 105.12Z" fill="#CED28B"/>
<path d="M516.97 131.277C516.855 132.444 516.723 133.628 516.575 134.844C515.112 134.96 513.632 135.058 512.169 135.14C508.125 135.354 502.995 135.946 498.721 134.795C498.737 133.907 498.77 133.052 498.786 132.198C504.524 133.25 510.804 132.428 516.97 131.277Z" fill="#CED28B"/>
<path d="M514.423 152.929C514.209 154.524 513.996 156.135 513.782 157.796C508.554 157.96 503.326 157.582 498.394 156.743C498.394 155.691 498.394 154.672 498.41 153.669C503.852 153.653 509.113 153.34 514.423 152.929Z" fill="#CED28B"/>
<path d="M510.592 180.877C510.444 181.847 510.313 182.817 510.165 183.82C506.285 183.853 502.405 183.607 498.574 183.196C498.558 182.505 498.541 181.815 498.558 181.14C502.635 181.321 506.63 181.19 510.592 180.877Z" fill="#CED28B"/>
<path d="M460.613 223.164C459.215 223.673 457.818 224.183 456.437 224.693C453.362 218.708 445.882 203.912 441.821 193.291C441.295 191.894 440.736 190.398 440.736 190.398C438.566 184.693 436.494 178.626 434.571 172.165C434.209 170.965 433.864 169.88 433.42 168.351C432.976 166.789 430.938 159.671 428.554 148.442C428.192 146.781 427.945 145.532 427.88 145.219C426.762 139.63 425.792 134.007 425.068 128.96C424.855 127.398 424.674 125.902 424.526 124.504C423.605 116.333 423.654 110.448 425.331 109.938C426.959 109.461 429.951 113.802 433.387 120.493C434.143 122.005 434.916 123.649 435.738 125.376C437.678 129.502 439.684 134.171 441.591 138.939C442.347 140.846 442.972 142.424 443.367 143.477C446.49 151.648 448.48 157.895 449.285 160.542C450.041 162.942 450.584 164.833 450.863 165.803C452.787 172.478 454.332 178.889 455.582 185.005C455.911 186.551 456.19 188.063 456.47 189.527C458.886 202.317 460.037 213.727 460.613 223.164Z" fill="#B1B851"/>
<path d="M435.738 125.375C432.335 126.953 428.619 128.137 425.068 128.959C424.854 127.397 424.673 125.901 424.525 124.504C427.304 123.501 430.033 122.334 432.647 120.92C432.91 120.788 433.14 120.657 433.387 120.492C434.143 122.005 434.916 123.649 435.738 125.375Z" fill="#CED28B"/>
<path d="M443.366 143.476C441.722 144.249 440.045 144.89 438.5 145.515C435.228 146.813 431.924 147.767 428.553 148.441C428.307 147.372 428.093 146.287 427.879 145.219C430.954 144.249 433.979 143.049 436.872 141.668C438.467 140.911 440.012 139.941 441.591 138.938C442.183 140.435 442.774 141.964 443.366 143.476Z" fill="#CED28B"/>
<path d="M450.862 165.802C445.749 168.647 439.913 170.784 434.57 172.165C434.192 170.899 433.797 169.633 433.419 168.351C437.299 166.871 441.13 165.326 444.796 163.353C446.341 162.514 447.821 161.544 449.284 160.542C449.843 162.334 450.369 164.06 450.862 165.802Z" fill="#CED28B"/>
<path d="M456.47 189.526C451.801 191.466 446.54 192.732 441.822 193.291C441.477 192.337 441.082 191.367 440.737 190.397C444.748 189.345 448.727 188.227 452.574 186.534C453.593 186.074 454.596 185.547 455.583 185.005C455.911 186.55 456.191 188.063 456.47 189.526Z" fill="#CED28B"/>
<path d="M537.405 89.7151C537.421 94.7952 537.257 100.023 537.043 104.561C536.994 105.613 536.928 107.043 536.83 108.983C536.353 117.746 535.662 124.602 535.218 128.712C534.955 130.997 534.742 132.773 534.643 133.545C534.495 134.663 533.278 144.002 531.388 154.145C531.223 154.967 530.845 156.973 530.319 159.554C528.675 167.495 527.146 173.594 526.34 176.735C525.831 178.707 525.42 180.171 525.157 181.206C523.858 186.023 522.411 190.972 520.816 196.052C520.389 197.45 519.912 198.864 519.468 200.294C516.805 208.432 513.731 216.915 510.212 225.662C508.618 225.514 507.023 225.382 505.428 225.234C504.623 215.14 504.195 205.588 504.146 196.496C504.113 195.641 504.113 194.786 504.113 193.931C504.097 187.668 504.261 181.634 504.573 175.847C504.623 174.778 504.688 173.71 504.754 172.641C505.165 166.015 505.741 159.719 506.447 153.767C506.579 152.764 506.694 151.794 506.826 150.841C507.976 141.979 509.423 133.858 511.067 126.443C511.281 125.391 511.511 124.372 511.741 123.369C512.152 121.429 513.747 114.474 516.854 104.413C516.986 103.969 517.348 102.802 517.824 101.289C518.975 97.6558 520.669 92.4442 523.085 86.1639C523.513 85.046 523.94 83.9444 524.384 82.8758C527.524 75.1159 531.075 68.2273 533.64 68.6712C536.123 69.1316 537.06 76.2832 537.339 84.9473C537.372 86.4927 537.405 88.0874 537.405 89.7151Z" fill="#B1B851"/>
<path d="M537.405 89.7147C532.522 88.9092 527.607 87.561 523.085 86.1636C523.513 85.0456 523.94 83.9441 524.384 82.8755C528.675 83.7797 532.983 84.4702 537.339 84.947C537.372 86.4924 537.405 88.0871 537.405 89.7147Z" fill="#CED28B"/>
<path d="M537.044 104.561C536.979 106.123 536.896 107.619 536.831 108.984C535.926 108.819 535.022 108.671 534.118 108.54C528.249 107.603 522.495 106.238 516.855 104.413C517.069 103.723 517.71 101.701 517.825 101.29C522.61 102.44 527.41 103.41 532.293 104.101C533.839 104.315 535.433 104.463 537.044 104.561Z" fill="#CED28B"/>
<path d="M535.22 128.712C535.04 130.274 534.859 131.901 534.645 133.545C526.491 132.493 518.139 129.715 511.069 126.443C511.283 125.391 511.513 124.372 511.743 123.369C517.185 124.914 522.611 126.542 528.167 127.66C530.502 128.12 532.853 128.416 535.22 128.712Z" fill="#CED28B"/>
<path d="M531.389 154.145C531.044 155.937 530.698 157.729 530.32 159.554C522.199 158.584 513.929 156.2 506.449 153.767C506.58 152.764 506.695 151.794 506.827 150.84C514.948 152.452 523.202 153.126 531.389 154.145Z" fill="#CED28B"/>
<path d="M526.341 176.734C525.963 178.214 525.585 179.71 525.158 181.206C523.727 180.976 522.297 180.68 520.933 180.45C515.293 179.398 509.835 177.951 504.574 175.847C504.624 174.778 504.689 173.709 504.755 172.641C510.049 173.939 515.326 175.255 520.719 176.142C522.56 176.455 524.434 176.586 526.341 176.734Z" fill="#CED28B"/>
<path d="M520.819 196.053C520.391 197.45 519.915 198.864 519.471 200.295C514.144 199.621 508.784 198.19 504.148 196.497C504.115 195.642 504.115 194.787 504.115 193.932C509.623 194.935 515.114 195.79 520.704 196.053H520.819Z" fill="#CED28B"/>
<path d="M548.488 114.82C548.291 120.952 547.682 125.802 547.206 128.975C546.959 130.635 546.745 131.819 546.515 133.036C545.66 137.705 544.444 143.163 542.701 149.526C542.372 150.693 542.043 151.86 541.682 153.06C540.465 157.318 539.002 161.938 537.276 166.985C536.832 168.301 536.388 169.632 535.911 170.997C534.168 175.847 532.212 181.075 529.976 186.698C529.483 187.947 528.957 189.262 528.414 190.577C524.797 199.488 520.506 209.303 515.475 220.105C513.799 219.792 512.138 219.463 510.478 219.135C511.48 206.755 512.713 195.723 514.094 185.908C514.275 184.642 514.44 183.377 514.637 182.144C515.607 175.567 516.659 169.534 517.761 164.043C517.974 162.892 518.205 161.757 518.451 160.656C519.438 155.789 520.49 151.383 521.558 147.339C521.756 146.533 521.969 145.744 522.183 144.955C524.172 137.59 526.228 131.589 528.151 126.723C528.48 125.917 528.809 125.062 529.285 123.928C531.587 118.486 533.889 114.195 535.664 111.153C536.634 109.493 537.144 108.687 537.719 107.8C540.383 103.574 543.49 99.6451 545.677 100.27C547.748 100.862 548.389 105.383 548.521 110.035C548.554 111.367 548.57 112.518 548.488 114.82Z" fill="#A6AA36"/>
<path d="M548.486 114.82C547.483 114.606 546.513 114.36 545.559 114.146C542.238 113.373 538.786 112.535 535.662 111.154C536.303 110.085 536.977 108.918 537.717 107.8C541.252 108.819 544.885 109.444 548.519 110.036C548.551 111.68 548.535 113.324 548.486 114.82Z" fill="#CED28B"/>
<path d="M547.204 128.975C547.007 130.257 546.777 131.622 546.514 133.036C542.47 132.263 538.524 130.882 534.858 129.452C532.835 128.663 530.369 127.857 528.15 126.723C528.528 125.753 528.906 124.799 529.284 123.928C534.808 126.591 541.105 127.676 547.204 128.975Z" fill="#CED28B"/>
<path d="M542.699 149.527C542.37 150.694 542.041 151.861 541.679 153.061C537.257 152.19 532.9 150.957 528.724 149.625C526.554 148.935 524.022 148.211 521.556 147.34C521.753 146.534 521.967 145.745 522.181 144.956C528.51 147.356 535.761 148.573 542.699 149.527Z" fill="#CED28B"/>
<path d="M537.274 166.985C536.83 168.3 536.386 169.632 535.909 170.996C529.695 169.402 523.464 166.968 517.759 164.042C517.973 162.891 518.203 161.757 518.449 160.655C521.639 161.888 524.845 163.138 528.1 164.256C531.125 165.275 534.216 166.13 537.274 166.985Z" fill="#CED28B"/>
<path d="M529.975 186.698C529.482 187.948 528.955 189.263 528.413 190.578C523.53 189.575 518.664 187.98 514.093 185.909C514.274 184.643 514.439 183.377 514.636 182.144C516.855 182.983 519.091 183.788 521.376 184.495C524.204 185.383 527.098 186.04 529.975 186.698Z" fill="#CED28B"/>
<path d="M531.306 199.999L507.286 275.937H462.371L438.351 199.999H531.306Z" fill="#FFE5B1"/>
<path d="M527.953 210.587L526.769 214.351C513.238 214.927 499.56 214.302 486.046 214.22C471.611 214.121 457.144 214.187 442.692 213.743L441.887 211.195C456.601 210.718 471.348 210.784 486.046 210.685C499.938 210.587 514.011 209.929 527.953 210.587Z" fill="#BC7663"/>
<path d="M523.003 226.221L521.54 230.857C511.955 230.89 502.338 230.479 492.868 230.43C477.841 230.347 462.7 230.512 447.689 229.525L447.081 227.585C462.305 226.55 477.628 226.714 492.868 226.632C502.814 226.583 512.942 226.122 523.003 226.221Z" fill="#BC7663"/>
<path d="M517.611 243.319L516.23 247.675C507.237 247.758 498.227 247.412 489.3 247.396C477.282 247.379 465.116 247.758 453.115 246.656L452.408 244.42C464.639 243.22 477.052 243.631 489.3 243.615C498.671 243.582 508.19 243.204 517.611 243.319Z" fill="#BC7663"/>
<path d="M511.775 261.765L510.542 265.612C493.411 266.138 476.001 265.743 458.919 265.053L458.064 262.324C475.836 261.567 493.97 261.14 511.775 261.765Z" fill="#BC7663"/>
<path d="M338.87 172.427C338.936 176.373 338.87 180.187 338.623 183.787C338.59 184.511 338.541 185.218 338.475 185.925C338.114 190.314 337.489 194.326 336.552 197.844C336.371 198.535 336.174 199.225 335.96 199.866C334.02 205.916 330.978 210.158 326.49 211.621C322.035 213.101 317.826 211.276 317.02 210.898C312.729 208.909 309.918 204.815 308.274 199.044C308.093 198.567 307.962 198.074 307.863 197.581C306.992 194.145 306.515 190.199 306.351 185.793C306.301 185.3 306.285 184.79 306.285 184.248C306.17 180.434 306.301 176.291 306.581 171.885C306.614 171.49 306.63 171.112 306.679 170.701C306.975 166.459 307.452 162.004 308.027 157.335C308.093 156.759 308.175 156.167 308.241 155.576C308.784 151.63 309.392 147.553 310.083 143.36C310.165 142.834 310.231 142.325 310.329 141.798C310.773 139.152 318.648 97.9845 318.78 97.3105C319.421 94.121 320.736 88.0216 322.84 87.9229C325.076 87.8243 327.082 94.6635 327.838 97.2447C327.986 97.7379 328.134 98.3133 328.282 98.9381C328.545 99.8094 328.808 100.829 329.088 101.947C329.334 102.966 330.222 106.879 330.436 107.717C330.617 108.572 331.406 112.288 331.62 113.307C332.228 116.299 333.757 124.635 333.888 125.457C334.25 127.495 335.187 133.233 335.286 133.973C335.648 136.406 336.552 143.097 336.667 143.919C337.144 147.733 337.571 151.63 337.916 155.493C337.999 156.365 338.064 157.236 338.13 158.124C338.475 162.168 338.689 166.18 338.821 170.076C338.821 170.076 338.837 171.638 338.87 172.427Z" fill="#275A14"/>
<path d="M330.438 107.717C325.982 107.98 321.28 107.586 316.841 106.895C316.973 106.303 317.088 105.744 317.219 105.169C321.428 105.218 325.686 105.169 329.879 105.3C330.059 106.057 330.224 106.879 330.438 107.717Z" fill="#C0DDC0"/>
<path d="M331.62 113.307C326.343 113.455 320.917 113.06 315.673 112.781C315.804 112.156 315.936 111.532 316.051 110.907C320.967 110.644 326.047 110.298 330.995 110.397C331.193 111.318 331.406 112.288 331.62 113.307Z" fill="#C0DDC0"/>
<path d="M333.89 125.457C330.832 125.572 327.708 125.359 324.667 125.342C320.869 125.326 317.088 125.276 313.29 125.145C313.389 124.569 313.504 123.961 313.635 123.386C317.302 123.254 320.984 123.205 324.667 123.188C327.56 123.156 330.52 122.975 333.463 123.057C333.61 123.83 333.758 124.635 333.89 125.457Z" fill="#C0DDC0"/>
<path d="M335.288 133.973C327.511 134.466 319.488 133.957 311.712 133.71C311.827 133.167 311.909 132.608 312.024 132.049C319.603 131.836 327.38 131.342 334.942 131.786C335.057 132.526 335.189 133.233 335.288 133.973Z" fill="#C0DDC0"/>
<path d="M336.668 143.92C332.69 144.035 328.612 143.657 324.667 143.591C319.8 143.525 314.95 143.443 310.084 143.361C310.166 142.835 310.232 142.325 310.331 141.799C315.115 141.618 319.883 141.487 324.667 141.454C328.481 141.437 332.46 141.224 336.339 141.454C336.455 142.276 336.553 143.098 336.668 143.92Z" fill="#C0DDC0"/>
<path d="M338.131 158.124C334.711 158.371 331.259 158.338 327.921 158.354C321.279 158.404 314.621 158.091 308.028 157.335C308.094 156.76 308.176 156.168 308.242 155.576C314.457 155.921 320.638 156.168 326.836 156.118C330.502 156.069 334.218 155.707 337.917 155.494C337.999 156.365 338.065 157.236 338.131 158.124Z" fill="#C0DDC0"/>
<path d="M338.872 172.427C333.068 173.529 326.936 173.43 321.247 173.151C316.332 172.937 311.465 172.46 306.583 171.885C306.615 171.49 306.632 171.112 306.681 170.701C309.739 170.8 312.994 170.849 313.57 170.882C317.088 171.145 320.59 171.359 324.125 171.408C329.188 171.474 333.989 170.948 338.822 170.076C338.839 170.865 338.839 171.638 338.872 172.427Z" fill="#C0DDC0"/>
<path d="M338.625 183.787C338.592 184.51 338.543 185.217 338.477 185.924C327.906 187.585 316.891 187.305 306.352 185.793C306.303 185.3 306.287 184.79 306.287 184.247C306.829 184.33 307.273 184.395 307.553 184.445C309.558 184.642 311.564 184.806 313.586 184.938C317.269 185.152 320.984 185.217 324.667 185.102C329.386 184.987 334.022 184.461 338.625 183.787Z" fill="#C0DDC0"/>
<path d="M329.089 101.948C325.373 102.013 321.608 101.915 317.893 101.767C318.057 100.945 318.221 100.139 318.369 99.3171C321.674 99.1198 324.995 98.9554 328.283 98.939C328.546 99.8103 328.809 100.83 329.089 101.948Z" fill="#C0DDC0"/>
<path d="M365.899 143.919C365.899 144.725 365.882 145.514 365.833 146.32C365.833 146.747 365.817 147.175 365.8 147.602C365.685 150.15 365.521 152.666 365.258 155.115C365.192 155.888 365.11 156.644 365.028 157.401C364.715 160.064 364.337 162.645 363.91 165.193C363.778 165.95 363.63 166.706 363.466 167.462C362.364 173.2 360.95 178.675 359.29 183.837C359.06 184.61 358.797 185.366 358.534 186.122C357.547 189.032 356.495 191.86 355.393 194.589C355.114 195.247 354.834 195.921 354.555 196.562C353.273 199.587 351.924 202.48 350.56 205.226C350.248 205.867 349.919 206.508 349.573 207.133C344.576 216.833 339.282 224.659 334.991 230.429C329.154 221.699 323.285 212.986 317.449 204.272C318.304 203.237 319.241 202.069 320.244 200.771C320.523 200.409 320.803 200.047 321.115 199.653C322.956 197.219 325.028 194.342 327.182 191.087C327.379 190.758 327.593 190.446 327.806 190.117C328.546 188.966 329.302 187.783 330.059 186.533C331.456 184.199 332.788 181.88 334.021 179.562C334.3 179.053 334.547 178.576 334.81 178.083C337.243 173.397 339.364 168.761 341.172 164.174C341.37 163.681 341.55 163.204 341.748 162.711C342.981 159.538 344.082 156.414 345.052 153.356C345.2 152.879 345.348 152.403 345.496 151.942C346.302 149.394 347.009 146.879 347.633 144.429C347.831 143.771 347.979 143.114 348.143 142.456C349.146 138.51 349.935 134.729 350.626 131.145C350.757 130.438 350.889 129.715 351.02 129.024C351.579 125.769 352.056 122.695 352.434 119.834C352.549 119.193 352.631 118.584 352.714 117.976C353.125 114.787 353.93 108.079 354.012 107.454C354.719 101.733 355.344 98.4284 356.725 98.3956C358.123 98.3462 359.931 101.7 361.575 107.306C361.789 108.013 361.986 108.786 362.2 109.592C362.841 112.09 363.449 114.935 363.992 118.042C364.09 118.7 364.206 119.357 364.288 120.031C364.764 123.007 365.126 126.229 365.406 129.6C365.504 130.372 365.537 131.161 365.603 131.967C365.833 135.781 365.965 139.793 365.899 143.919Z" fill="#337319"/>
<path d="M362.199 109.592C359.372 109.855 356.445 109.789 353.749 109.444C353.848 108.753 353.93 108.079 354.012 107.455C355.903 107.471 357.81 107.57 359.7 107.455C360.325 107.405 360.95 107.372 361.575 107.307C361.788 108.014 361.986 108.786 362.199 109.592Z" fill="#C0DDC0"/>
<path d="M364.287 120.032C360.522 120.838 356.362 120.575 352.433 119.835C352.548 119.194 352.63 118.585 352.713 117.977C356.51 118.306 360.144 118.092 363.991 118.043C364.089 118.7 364.205 119.358 364.287 120.032Z" fill="#C0DDC0"/>
<path d="M365.604 131.968C360.655 132.132 355.542 131.853 350.626 131.146C350.758 130.439 350.89 129.715 351.021 129.025C355.805 129.189 360.622 129.403 365.406 129.6C365.505 130.373 365.538 131.162 365.604 131.968Z" fill="#C0DDC0"/>
<path d="M365.899 143.919C365.899 144.725 365.882 145.514 365.833 146.32C362.742 146.55 359.553 146.352 356.495 146.073C355.607 145.991 351.119 145.185 347.633 144.429C347.831 143.771 347.979 143.114 348.143 142.456C349.836 142.867 351.497 143.426 352.615 143.558C357.119 144.133 361.493 143.969 365.899 143.919Z" fill="#C0DDC0"/>
<path d="M365.259 155.115C365.193 155.888 365.111 156.644 365.028 157.401C358.239 157.384 351.333 155.74 345.053 153.356C345.201 152.879 345.349 152.403 345.497 151.942C352.073 153.997 358.534 154.754 365.259 155.115Z" fill="#C0DDC0"/>
<path d="M363.91 165.194C363.778 165.95 363.63 166.706 363.466 167.463C356.002 167.446 348.242 166.443 341.172 164.175C341.37 163.681 341.55 163.205 341.748 162.711C349.08 164.438 356.396 164.701 363.91 165.194Z" fill="#C0DDC0"/>
<path d="M359.29 183.837C359.059 184.61 358.796 185.366 358.533 186.122C350.132 185.35 341.665 182.867 334.021 179.563C334.3 179.053 334.547 178.576 334.81 178.083C339.397 179.809 344.049 181.256 348.866 182.308C352.302 183.081 355.804 183.508 359.29 183.837Z" fill="#C0DDC0"/>
<path d="M355.392 194.589C355.113 195.247 354.833 195.921 354.554 196.562C345.265 196.677 335.483 194.49 327.18 191.087C327.377 190.758 327.591 190.446 327.805 190.117C333.115 191.597 338.393 192.978 343.884 193.767C347.714 194.31 351.561 194.457 355.392 194.589Z" fill="#C0DDC0"/>
<path d="M350.561 205.227C350.249 205.868 349.92 206.509 349.574 207.134C339.644 206.854 329.057 204.996 320.245 200.771C320.524 200.41 320.804 200.048 321.116 199.653C326.114 201.675 331.243 203.106 336.718 203.961C341.305 204.684 345.941 204.881 350.561 205.227Z" fill="#C0DDC0"/>
<path d="M335.845 233.372C333.494 236.233 329.664 236.545 328.25 236.66C319.537 237.367 310.807 228.687 303.523 217.08C303.047 216.323 302.586 215.551 302.126 214.778C299.117 209.682 296.372 204.125 294.054 198.601C293.824 198.075 293.593 197.532 293.38 197.006C291.604 192.682 290.108 188.408 288.924 184.462C288.809 184.1 288.711 183.722 288.595 183.377C288.513 183.097 288.431 182.801 288.365 182.522C287.395 179.119 286.606 175.732 285.965 172.362C285.817 171.605 285.686 170.849 285.554 170.093C284.716 165.128 284.173 160.228 283.926 155.494C283.877 154.77 283.828 154.08 283.811 153.389C283.68 150.414 283.663 147.504 283.696 144.659C283.729 143.837 283.746 143.032 283.762 142.21C283.943 138.1 284.272 134.121 284.699 130.405C284.798 129.567 284.913 128.745 285.011 127.956C285.275 126.049 285.554 124.224 285.883 122.448C286.031 121.544 286.212 120.689 286.376 119.818C286.836 117.516 287.33 115.346 287.823 113.373C288.037 112.617 288.234 111.877 288.431 111.186C290.601 103.459 292.919 98.889 294.054 99.0041C295.089 99.0863 294.613 103.164 294.613 110.447C294.613 111.022 294.613 111.614 294.629 112.239C294.629 114.146 294.695 116.234 294.826 118.503C294.843 119.144 294.892 119.818 294.958 120.508C295.089 122.498 295.254 124.585 295.517 126.789C295.583 127.413 295.665 128.038 295.747 128.663C295.944 130.159 296.158 131.704 296.421 133.299C296.799 135.716 297.26 138.1 297.753 140.401C297.884 140.96 298.016 141.519 298.147 142.062C298.838 145.087 299.611 148.013 300.449 150.874C300.646 151.515 300.827 152.156 301.025 152.814C302.422 157.319 304.017 161.659 305.71 165.802C305.924 166.344 306.154 166.903 306.401 167.446C307.65 170.438 308.965 173.348 310.313 176.159C310.593 176.718 310.856 177.261 311.119 177.82C312.944 181.486 314.802 184.955 316.627 188.276C316.906 188.753 317.186 189.23 317.449 189.706C319.948 194.129 322.43 198.222 324.732 202.004C325.077 202.563 325.389 203.122 325.751 203.664C334.464 217.968 340.465 227.717 335.845 233.372Z" fill="#568F31"/>
<path d="M294.628 112.238C292.392 112.682 290.107 113.093 287.822 113.373C288.036 112.616 288.233 111.877 288.43 111.186C290.485 110.956 292.557 110.709 294.612 110.446C294.612 111.022 294.612 111.614 294.628 112.238Z" fill="#C0DDC0"/>
<path d="M294.958 120.508C292.064 121.38 288.957 122.086 285.883 122.448C286.031 121.544 286.212 120.689 286.376 119.818C289.204 119.407 292.015 118.996 294.826 118.502C294.843 119.144 294.892 119.818 294.958 120.508Z" fill="#C0DDC0"/>
<path d="M295.747 128.663C292.13 129.435 288.431 130.093 284.699 130.405C284.798 129.567 284.913 128.745 285.012 127.956C288.513 127.643 291.999 127.298 295.517 126.789C295.583 127.413 295.665 128.038 295.747 128.663Z" fill="#C0DDC0"/>
<path d="M298.148 142.062C293.529 143.344 288.58 144.396 283.697 144.659C283.73 143.837 283.747 143.032 283.763 142.21C288.449 141.717 293.101 141.306 297.754 140.401C297.885 140.96 298.017 141.519 298.148 142.062Z" fill="#C0DDC0"/>
<path d="M311.118 177.82C304.18 181.206 296.617 183.705 288.923 184.462C288.808 184.1 288.71 183.722 288.594 183.377C288.512 183.097 288.43 182.801 288.364 182.522C296.009 181.141 303.226 179.283 310.312 176.159C310.592 176.718 310.855 177.261 311.118 177.82Z" fill="#C0DDC0"/>
<path d="M317.449 189.706C310.182 193.931 302.274 197.055 294.054 198.6C293.824 198.074 293.594 197.531 293.38 197.005C301.485 195.032 309.245 192.27 316.627 188.275C316.906 188.752 317.186 189.229 317.449 189.706Z" fill="#C0DDC0"/>
<path d="M325.75 203.664C319.322 209.336 311.693 214.17 303.522 217.08C303.046 216.324 302.585 215.551 302.125 214.778C310.329 211.802 317.875 207.857 324.731 202.004C325.076 202.563 325.388 203.122 325.75 203.664Z" fill="#C0DDC0"/>
<path d="M301.025 152.814C295.928 154.623 289.368 156.119 283.927 155.494C283.877 154.771 283.828 154.08 283.812 153.39C286.491 152.979 289.237 152.979 291.917 152.601C294.794 152.19 297.622 151.516 300.449 150.875C300.647 151.516 300.827 152.157 301.025 152.814Z" fill="#C0DDC0"/>
<path d="M306.399 167.446C300.119 170.241 292.918 172.296 285.964 172.362C285.816 171.605 285.684 170.849 285.553 170.093C288.611 169.928 291.652 169.731 294.71 169.123C298.508 168.366 302.141 167.216 305.709 165.802C305.923 166.344 306.153 166.903 306.399 167.446Z" fill="#C0DDC0"/>
<path d="M330.288 241.034C329.104 244.01 326.523 246.558 323.498 247.561C319.272 248.942 313.847 247.331 308.027 243.467C307.386 243.073 306.728 242.613 306.087 242.119C303.177 239.998 300.185 237.319 297.209 234.211C296.765 233.751 296.289 233.225 295.812 232.715C292.951 229.575 290.123 226.057 287.411 222.226C287.065 221.75 286.72 221.256 286.391 220.763C284.09 217.409 281.87 213.825 279.799 210.06C279.486 209.485 279.174 208.909 278.862 208.334C277.135 205.046 275.491 201.659 274.028 198.19C273.814 197.714 273.601 197.22 273.403 196.744C272.154 193.718 271.02 190.611 270.017 187.488C269.737 186.616 269.458 185.761 269.228 184.873C268.044 180.895 267.074 176.867 266.383 172.79C266.35 172.724 266.35 172.642 266.334 172.576C266.202 171.869 266.104 171.179 265.989 170.455C265.496 167.2 265.167 163.945 264.986 160.788C264.937 159.95 264.887 159.161 264.871 158.339C264.739 155.248 264.772 152.272 264.887 149.494C264.92 148.672 264.953 147.849 265.002 147.077C265.101 145.581 265.233 144.183 265.38 142.884C265.496 141.997 265.627 141.142 265.759 140.336C266.646 134.664 268.077 130.998 269.655 130.817C271.069 130.653 271.957 133.365 273.19 138.133C273.354 138.741 273.535 139.366 273.683 140.04C274.012 141.24 274.998 145.087 275.13 145.663C275.853 148.326 276.675 151.302 277.711 154.491C277.859 154.985 278.04 155.511 278.204 156.02C279.075 158.651 280.062 161.413 281.229 164.29C281.443 164.849 281.657 165.408 281.92 165.967C283.481 169.814 285.389 173.842 287.624 177.985C287.756 178.248 287.888 178.511 288.035 178.774C288.2 179.086 288.381 179.399 288.578 179.711C290.025 182.325 291.554 184.824 293.099 187.224C293.395 187.685 293.707 188.145 294.02 188.605C296.174 191.861 298.393 194.886 300.645 197.73C300.941 198.141 301.27 198.552 301.582 198.947C304.328 202.366 307.057 205.539 309.688 208.449C310.082 208.86 310.444 209.271 310.789 209.666C313.074 212.148 318.007 217.409 318.352 217.771C320.719 220.319 322.889 222.654 324.731 224.873C325.109 225.35 325.503 225.827 325.849 226.304C330.123 231.745 332.145 236.382 330.288 241.034Z" fill="#337319"/>
<path d="M273.683 140.039C271.019 141.157 268.208 142.127 265.38 142.884C265.495 141.996 265.627 141.141 265.759 140.335C268.241 139.661 270.707 138.938 273.19 138.132C273.354 138.741 273.535 139.365 273.683 140.039Z" fill="#C0DDC0"/>
<path d="M275.13 145.663C271.858 147.224 268.422 148.54 264.887 149.493C264.92 148.671 264.953 147.849 265.002 147.076C268.258 146.189 271.48 145.186 274.702 143.969C274.85 144.528 274.998 145.087 275.13 145.663Z" fill="#C0DDC0"/>
<path d="M278.205 156.019C274.276 158.337 269.673 159.948 264.987 160.787C264.938 159.948 264.889 159.159 264.872 158.337C269.163 157.367 273.322 156.085 277.712 154.49C277.86 154.983 278.041 155.51 278.205 156.019Z" fill="#C0DDC0"/>
<path d="M281.922 165.967C277.088 168.597 271.811 171.047 266.385 172.79C266.352 172.724 266.352 172.642 266.336 172.576C266.204 171.869 266.106 171.179 265.991 170.455C266.106 170.439 266.237 170.422 266.336 170.373C271.515 168.795 276.447 166.756 281.231 164.29C281.445 164.849 281.659 165.408 281.922 165.967Z" fill="#C0DDC0"/>
<path d="M288.578 179.711C282.955 183.097 276.576 185.925 270.017 187.487C269.737 186.616 269.458 185.761 269.228 184.873C275.574 183.426 281.657 181.371 287.624 177.984C287.756 178.247 287.888 178.51 288.035 178.774C288.2 179.086 288.381 179.398 288.578 179.711Z" fill="#C0DDC0"/>
<path d="M294.021 188.606C288.135 193.176 281.296 196.497 274.029 198.19C273.815 197.714 273.602 197.22 273.404 196.744C280.424 194.426 286.902 191.302 293.1 187.225C293.396 187.685 293.708 188.145 294.021 188.606Z" fill="#C0DDC0"/>
<path d="M301.585 198.947C294.992 203.714 287.627 207.611 279.801 210.06C279.489 209.485 279.176 208.91 278.864 208.334C286.509 205.638 293.742 202.268 300.647 197.73C300.943 198.141 301.272 198.552 301.585 198.947Z" fill="#C0DDC0"/>
<path d="M310.789 209.665C308.109 211.802 304.542 213.479 302.487 214.729C297.686 217.622 292.672 220.22 287.411 222.225C287.066 221.749 286.72 221.255 286.392 220.762C290.469 219.003 294.497 217.178 298.393 215.008C301.089 213.528 306.17 211.194 309.688 208.448C310.082 208.859 310.444 209.27 310.789 209.665Z" fill="#C0DDC0"/>
<path d="M318.352 217.77C312.121 224.182 305.019 229.854 297.209 234.211C296.766 233.75 296.289 233.224 295.812 232.715C303.638 228.374 310.806 223.146 317.3 216.652C317.661 217.014 318.007 217.409 318.352 217.77Z" fill="#C0DDC0"/>
<path d="M325.851 226.302C320.623 232.681 314.671 238.551 308.029 243.466C307.388 243.072 306.731 242.611 306.089 242.118C312.929 237.104 319.176 231.448 324.733 224.872C325.111 225.349 325.506 225.826 325.851 226.302Z" fill="#C0DDC0"/>
<path d="M384.476 152.403C384.444 153.011 384.411 153.636 384.345 154.261C384.246 155.724 384.115 157.269 383.983 158.831C383.901 159.571 383.819 160.295 383.753 161.051C383.408 164.29 382.964 167.726 382.421 171.277C382.323 172.017 382.191 172.74 382.093 173.496C381.369 177.853 380.514 182.374 379.462 186.928C379.281 187.651 379.117 188.391 378.92 189.131C377.917 193.274 376.733 197.434 375.401 201.511C375.188 202.086 375.007 202.662 374.809 203.221C373.724 206.361 372.541 209.435 371.225 212.411C371.045 212.855 370.847 213.299 370.634 213.726C369.795 215.567 368.924 217.376 368.003 219.119C367.608 219.858 367.214 220.565 366.819 221.256C364.271 225.744 361.378 229.838 358.122 233.34C357.613 233.882 357.103 234.408 356.593 234.918C353.683 237.779 350.477 240.212 346.992 242.07C346.943 242.119 346.893 242.135 346.861 242.152C346.532 242.333 345.874 242.661 345.019 243.089C342.422 244.371 337.785 246.492 333.001 247.692C332.426 247.84 331.883 247.972 331.308 248.087C326.705 249.024 322.167 248.958 319.339 246.361C315.969 243.27 316.38 237.894 316.429 237.433C316.774 233.734 318.78 230.758 321.624 228.128C322.019 227.75 322.463 227.388 322.907 226.994C324.847 225.415 327.083 223.919 329.401 222.456C329.779 222.226 330.157 221.979 330.535 221.749C332.557 220.467 334.596 219.234 336.52 217.902C336.651 217.836 336.766 217.721 336.898 217.623C337.309 217.376 337.687 217.096 338.098 216.801C341.008 214.696 343.688 212.46 346.17 210.093L347.337 208.926C348.505 207.775 349.623 206.591 350.691 205.374C351.036 204.98 351.382 204.585 351.711 204.191C353.766 201.807 355.64 199.324 357.383 196.776C357.744 196.283 358.073 195.773 358.402 195.28C360.572 192.058 362.545 188.737 364.37 185.333C364.682 184.791 364.978 184.248 365.258 183.689C367.345 179.776 369.269 175.798 371.127 171.786C371.423 171.211 371.702 170.586 371.965 170.011C372.557 168.745 373.149 167.479 373.724 166.213C374.793 163.961 375.714 161.791 376.536 159.736C376.782 159.127 377.012 158.535 377.243 157.96C377.818 156.431 378.361 154.968 378.804 153.603C379.002 153.11 379.15 152.617 379.314 152.156C383.079 140.648 383.326 134.055 384.049 134.187C384.805 134.319 385.216 141.602 384.476 152.403Z" fill="#568F31"/>
<path d="M384.477 152.403C384.444 153.012 384.411 153.636 384.345 154.261C382.487 154.08 380.646 153.899 378.805 153.604C379.002 153.11 379.15 152.617 379.314 152.157C381.041 152.173 382.75 152.288 384.477 152.403Z" fill="#C0DDC0"/>
<path d="M383.983 158.831C383.901 159.571 383.819 160.295 383.753 161.051C381.336 160.804 378.903 160.344 376.536 159.736C376.782 159.127 377.012 158.535 377.243 157.96C379.478 158.387 381.731 158.667 383.983 158.831Z" fill="#C0DDC0"/>
<path d="M382.421 171.277C382.322 172.017 382.19 172.74 382.092 173.497C378.442 173.431 374.628 172.839 371.126 171.787C371.422 171.211 371.701 170.587 371.964 170.011C373.97 170.422 375.976 170.817 378.031 171.031C379.494 171.179 380.957 171.244 382.421 171.277Z" fill="#C0DDC0"/>
<path d="M379.461 186.927C379.28 187.651 379.116 188.39 378.918 189.13C373.937 188.654 368.972 187.322 364.369 185.333C364.681 184.79 364.977 184.247 365.256 183.688C369.942 185.25 374.595 186.253 379.461 186.927Z" fill="#C0DDC0"/>
<path d="M375.403 201.51C375.189 202.086 375.008 202.661 374.811 203.22C368.613 202.398 362.743 200.129 357.384 196.775C357.745 196.282 358.074 195.773 358.403 195.279C363.73 198.452 369.402 200.392 375.403 201.51Z" fill="#C0DDC0"/>
<path d="M371.226 212.411C371.045 212.855 370.847 213.299 370.634 213.726C363.663 211.852 357.037 208.876 350.691 205.375C351.037 204.98 351.382 204.585 351.711 204.191C358.024 207.43 364.551 209.978 371.226 212.411Z" fill="#C0DDC0"/>
<path d="M368.002 219.119C367.607 219.859 367.213 220.566 366.818 221.256C359.157 219.513 351.956 215.37 346.169 210.093L347.336 208.926C353.518 214.17 360.406 217.245 368.002 219.119Z" fill="#C0DDC0"/>
<path d="M358.121 233.339C357.612 233.882 357.102 234.408 356.592 234.918C348.882 230.709 342.207 224.61 336.896 217.622C337.307 217.376 337.686 217.096 338.097 216.8C343.719 223.689 350.493 228.983 358.121 233.339Z" fill="#C0DDC0"/>
<path d="M346.991 242.07C346.942 242.119 346.893 242.136 346.86 242.152C346.531 242.333 345.873 242.662 345.018 243.089C338.08 237.647 332.195 230.726 329.4 222.456C329.778 222.226 330.156 221.98 330.534 221.75C334.069 230.364 340.053 236.562 346.991 242.07Z" fill="#C0DDC0"/>
<path d="M333.002 247.692C332.427 247.84 331.884 247.971 331.309 248.086C325.686 242.99 322.497 235.592 321.625 228.128C322.02 227.749 322.464 227.388 322.908 226.993C324.009 235.016 327.692 241.543 333.002 247.692Z" fill="#C0DDC0"/>
<path d="M352.468 276.347H292.625V255.254H352.468V276.347Z" fill="#AE3E28"/>
<path d="M375.501 223.394C375.336 224.627 375.123 225.925 374.843 227.274C372.936 236.513 368.415 248.219 357.811 257.261C338.395 273.899 307.684 273.915 288.251 257.31C277.959 248.531 273.389 237.253 271.416 228.161C271.367 227.915 271.317 227.685 271.268 227.471C269.673 219.744 269.887 213.694 269.953 212.23H323.006C323.006 212.181 376.109 212.181 376.109 212.181C376.142 213.398 376.339 217.656 375.501 223.394Z" fill="#AE3E28"/>
<path d="M375.501 223.394C375.32 224.627 375.106 225.925 374.81 227.274L374.564 227.06L364.19 236.595L353.816 227.06L343.442 236.595L333.068 227.06L322.694 236.595L312.32 227.06L301.946 236.595L291.589 227.06L281.182 236.595L271.268 227.471C269.673 219.744 269.887 213.694 269.953 212.23H322.102C322.102 212.181 376.109 212.181 376.109 212.181C376.142 213.398 376.339 217.656 375.501 223.394Z" fill="#FFE5B1"/>
<path d="M654.594 121.528C652.621 128.976 650.796 136.473 649.169 144.019C647.508 151.549 646.094 159.128 644.73 166.723C643.365 174.319 642.379 181.964 641.442 189.625C640.488 197.27 639.617 204.931 638.811 212.592L634.093 212C635.572 204.372 641.672 170.077 642.412 166.279C643.875 158.684 645.535 151.138 647.163 143.575C648.823 136.029 650.533 128.483 652.292 120.937L654.594 121.528Z" fill="#568F31"/>
<path d="M667.564 114.359C662.862 118.387 655.053 122.399 652.406 122.974C653.31 120.426 658.243 113.143 662.797 108.95C667.285 104.824 671.017 104.084 672.201 105.432C673.401 106.797 672.201 110.397 667.564 114.359Z" fill="#568F31"/>
<path d="M651.026 106.123C652.9 112.026 653.558 120.805 653.065 123.468C651.059 121.643 646.275 114.261 644.203 108.425C642.148 102.671 642.921 98.9553 644.631 98.3799C646.341 97.8045 649.185 100.303 651.026 106.123Z" fill="#568F31"/>
<path d="M661.531 138.461C656.993 142.67 649.348 147.01 646.734 147.701C647.524 145.103 652.16 137.623 656.533 133.25C660.857 128.959 664.539 128.054 665.789 129.353C667.038 130.652 666.003 134.318 661.531 138.461Z" fill="#568F31"/>
<path d="M644.878 131.047C646.983 136.883 648.002 145.613 647.608 148.309C645.536 146.567 640.456 139.382 638.138 133.628C635.869 127.972 636.477 124.224 638.154 123.583C639.848 122.925 642.79 125.309 644.878 131.047Z" fill="#568F31"/>
<path d="M639.221 140.27C642.74 142.309 646.965 146.271 647.902 147.783C646.126 147.783 640.52 146.337 636.92 144.429C633.385 142.555 632.103 140.402 632.662 139.366C633.237 138.33 635.736 138.264 639.221 140.27Z" fill="#568F31"/>
<path d="M656.139 168.285C651.602 172.494 643.957 176.817 641.343 177.508C642.132 174.927 646.768 167.446 651.158 163.073C655.465 158.766 659.148 157.878 660.414 159.177C661.663 160.476 660.611 164.125 656.139 168.285Z" fill="#568F31"/>
<path d="M639.484 160.87C641.588 166.69 642.608 175.436 642.213 178.116C640.142 176.373 635.061 169.189 632.743 163.451C630.474 157.796 631.083 154.047 632.76 153.39C634.453 152.748 637.396 155.132 639.484 160.87Z" fill="#568F31"/>
<path d="M652.95 177.525C648.905 178.067 643.151 177.475 641.491 176.85C642.888 175.765 648.215 173.513 652.226 172.823C656.189 172.148 658.507 173.069 658.687 174.253C658.868 175.42 656.912 176.982 652.95 177.525Z" fill="#568F31"/>
<path d="M636.721 184.248C638.366 188.769 639.155 195.559 638.859 197.631C637.231 196.282 633.302 190.709 631.51 186.254C629.734 181.864 630.211 178.954 631.51 178.461C632.825 177.951 635.11 179.809 636.721 184.248Z" fill="#568F31"/>
<path d="M647.245 190.676C644.253 193.454 639.222 196.298 637.496 196.759C638.022 195.049 641.08 190.133 643.957 187.256C646.801 184.412 649.234 183.837 650.056 184.691C650.878 185.546 650.188 187.947 647.245 190.676Z" fill="#568F31"/>
<path d="M646.457 197.367C643.251 197.598 638.763 196.858 637.48 196.299C638.631 195.51 642.939 193.981 646.128 193.635C649.268 193.29 651.044 194.129 651.126 195.066C651.225 196.003 649.614 197.137 646.457 197.367Z" fill="#568F31"/>
<path d="M609.267 133.513C612.112 140.04 614.594 146.698 616.682 153.505C618.836 160.278 620.463 167.216 621.762 174.22C623.077 181.224 623.834 188.326 624.294 195.445C624.672 202.58 624.689 209.748 624.245 216.899L619.51 216.439C620.447 209.534 620.94 202.547 620.874 195.56C620.842 188.556 620.25 181.569 619.23 174.631C618.26 167.693 616.649 160.854 614.676 154.113C612.638 147.389 610.122 140.829 607.114 134.5L609.267 133.513Z" fill="#337319"/>
<path d="M615.531 120.393C614.167 126.427 610.32 134.334 608.544 136.39C607.739 133.808 607.328 125.013 608.479 118.93C609.596 112.929 612.145 110.101 613.904 110.463C615.663 110.825 616.88 114.425 615.531 120.393Z" fill="#337319"/>
<path d="M624.72 146.188C623.355 152.238 619.508 160.146 617.733 162.201C616.911 159.604 616.516 150.824 617.65 144.725C618.785 138.741 621.317 135.896 623.076 136.275C624.851 136.636 626.052 140.237 624.72 146.188Z" fill="#337319"/>
<path d="M606.784 149.527C611.814 153.127 617.601 159.769 618.802 162.202C616.105 161.939 607.852 158.898 602.706 155.478C597.626 152.091 595.999 148.655 597.034 147.176C598.054 145.679 601.835 145.975 606.784 149.527Z" fill="#337319"/>
<path d="M618.753 130.603C615.662 133.267 610.549 135.947 608.806 136.341C609.382 134.664 612.604 129.847 615.58 127.069C618.522 124.34 620.956 123.83 621.761 124.718C622.55 125.605 621.778 127.973 618.753 130.603Z" fill="#337319"/>
<path d="M609.94 182.046C614.56 182.44 620.84 184.512 622.534 185.613C620.709 186.485 614.215 187.685 609.579 187.455C605.008 187.225 602.641 185.63 602.739 184.282C602.821 182.934 605.386 181.668 609.94 182.046Z" fill="#337319"/>
<path d="M597.364 123.715C602.395 127.332 608.166 133.957 609.366 136.39C606.669 136.127 598.416 133.086 593.27 129.666C588.19 126.296 586.579 122.86 587.599 121.364C588.618 119.884 592.399 120.163 597.364 123.715Z" fill="#337319"/>
<path d="M632.679 172.214C630.163 177.886 624.837 184.873 622.699 186.55C622.42 183.854 623.735 175.157 626.037 169.403C628.322 163.747 631.363 161.462 633.024 162.169C634.684 162.876 635.161 166.641 632.679 172.214Z" fill="#337319"/>
<path d="M612.819 171.935C617.045 176.456 621.418 184.084 622.125 186.715C619.527 185.925 612.03 181.322 607.641 176.965C603.317 172.658 602.413 168.975 603.695 167.709C604.994 166.46 608.644 167.479 612.819 171.935Z" fill="#337319"/>
<path d="M685.585 157.121C677.003 166.936 669.901 178.034 664.377 189.805C658.82 201.576 654.776 214.038 652.441 226.78L647.789 225.744C651.175 212.855 655.91 200.393 661.977 188.621C665.035 182.752 668.372 177.031 672.038 171.54C675.688 166.032 679.601 160.722 683.76 155.592L685.585 157.121Z" fill="#337319"/>
<path d="M700.742 156.316C694.757 157.828 685.962 157.96 683.331 157.302C685.271 155.412 692.932 151.071 698.867 149.345C704.72 147.652 708.386 148.638 708.863 150.381C709.323 152.123 706.66 154.836 700.742 156.316Z" fill="#337319"/>
<path d="M689.579 141.585C688.642 147.701 685.337 155.855 683.71 158.025C682.723 155.51 681.704 146.764 682.444 140.615C683.151 134.548 685.485 131.556 687.277 131.803C689.053 132.033 690.5 135.551 689.579 141.585Z" fill="#337319"/>
<path d="M689.876 170.652C683.76 172.609 674.669 173.299 671.907 172.79C673.781 170.702 681.442 165.737 687.476 163.567C693.444 161.429 697.291 162.218 697.899 163.994C698.491 165.77 695.91 168.729 689.876 170.652Z" fill="#337319"/>
<path d="M677.397 156.891C676.821 163.056 674.026 171.391 672.53 173.66C671.396 171.21 669.85 162.546 670.196 156.364C670.541 150.265 672.678 147.125 674.487 147.256C676.279 147.388 677.939 150.808 677.397 156.891Z" fill="#337319"/>
<path d="M682.887 178.297C678.875 176.932 673.795 173.743 672.529 172.394C674.338 172.033 680.339 172.378 684.383 173.595C688.361 174.795 690.104 176.718 689.726 177.902C689.348 179.069 686.816 179.628 682.887 178.297Z" fill="#337319"/>
<path d="M677.101 192.831C671.297 195.001 662.584 196.086 659.888 195.724C661.614 193.62 668.749 188.474 674.47 186.123C680.093 183.788 683.842 184.364 684.499 186.041C685.157 187.734 682.806 190.71 677.101 192.831Z" fill="#337319"/>
<path d="M664.377 179.415C664.114 185.597 661.713 194.064 660.332 196.398C659.083 193.998 657.126 185.416 657.176 179.234C657.225 173.118 659.214 169.896 661.023 169.945C662.815 169.978 664.64 173.316 664.377 179.415Z" fill="#337319"/>
<path d="M656.188 185.316C658.161 188.884 659.723 194.457 659.739 196.233C658.226 195.328 654.182 191.185 652.078 187.684C650.006 184.248 650.023 181.749 651.042 181.157C652.078 180.565 654.248 181.798 656.188 185.316Z" fill="#337319"/>
<path d="M669.44 200.573C665.527 199.439 660.48 196.611 659.197 195.362C660.94 194.934 666.711 195 670.656 195.986C674.553 196.956 676.312 198.732 675.999 199.866C675.704 201.017 673.287 201.675 669.44 200.573Z" fill="#337319"/>
<path d="M671.594 274.72C661.417 283.318 617.571 283.482 607.345 274.835C600.226 268.834 596.691 257.539 598.056 244.124C598.302 241.904 598.664 239.668 599.174 237.367C599.355 236.495 599.535 235.64 599.782 234.786C600.489 231.974 601.443 229.114 602.577 226.204C602.939 225.332 603.317 224.444 603.695 223.54C605.191 220.186 606.983 216.783 609.071 213.364C609.531 212.657 609.975 211.95 610.485 211.21C612.343 208.366 614.414 205.538 616.732 202.743H639.437C639.437 202.628 662.207 202.628 662.207 202.628C664.245 205.11 666.119 207.577 667.813 210.108C668.783 211.555 669.72 213.018 670.575 214.465C672.071 216.964 673.403 219.463 674.537 221.946C675.31 223.54 675.967 225.135 676.559 226.68C677.381 228.768 678.072 230.84 678.631 232.862C679.091 234.358 679.469 235.854 679.782 237.334C680.275 239.652 680.636 241.904 680.867 244.124C682.231 257.457 678.68 268.702 671.594 274.72Z" fill="#AE3E28"/>
<path d="M671.594 274.72C661.417 283.319 617.571 283.483 607.345 274.835C600.226 268.835 596.691 257.54 598.056 244.125H680.867C682.231 257.458 678.68 268.703 671.594 274.72Z" fill="#FFE5B1"/>
<path d="M670.575 214.466C660.629 215.255 650.353 214.499 640.423 214.401C630.033 214.302 619.445 214.516 609.071 213.381C609.532 212.658 609.976 211.951 610.485 211.211C620.399 210.258 630.51 210.438 640.423 210.34C649.4 210.258 658.722 209.616 667.813 210.11C668.783 211.556 669.72 213.02 670.575 214.466Z" fill="#FFE5B1"/>
<path d="M676.558 226.697C665.412 226.862 654.134 225.957 643.003 225.908C629.539 225.809 616.041 226.467 602.576 226.221C602.938 225.333 603.316 224.445 603.694 223.541C617.471 221.93 631.511 221.782 645.371 221.634C655.005 221.551 664.853 221.255 674.536 221.946C675.309 223.541 675.967 225.135 676.558 226.697Z" fill="#FFE5B1"/>
<path d="M679.781 237.334C668.157 238.058 656.205 236.972 644.68 237.005C629.654 237.022 614.183 238.551 599.173 237.367C599.337 236.496 599.535 235.641 599.781 234.786C613.706 232.484 628.371 232.912 642.395 232.714C654.183 232.55 666.694 231.662 678.63 232.862C679.09 234.358 679.468 235.855 679.781 237.334Z" fill="#FFE5B1"/>
<path d="M787.942 188.523C787.153 190.496 785.986 192.222 784.605 193.669C783.947 194.36 783.256 195.001 782.517 195.56C779.804 197.697 776.812 198.963 774.74 199.44C755.16 204.01 722.114 160.838 727.622 149.132C727.753 148.869 727.901 148.606 728.066 148.359C728.131 148.261 728.214 148.178 728.329 148.08C735.875 139.054 780.116 154.524 787.416 174.993C788.172 177.163 790.211 182.786 787.942 188.523Z" fill="#B1B851"/>
<path d="M797.148 235.098C797.231 236.101 796.491 236.956 795.521 237.022C794.534 237.104 793.68 236.364 793.614 235.378C793.071 225.464 791.065 215.682 787.547 206.442C786.15 202.694 784.473 199.044 782.533 195.542C782.105 194.687 781.629 193.882 781.135 193.043C778.719 188.736 775.842 184.708 772.751 180.828C766.52 173.085 758.908 166.541 750.671 160.935C743.47 156.167 735.743 152.172 727.622 149.114C727.77 148.868 727.901 148.605 728.065 148.358C728.148 148.259 728.213 148.177 728.329 148.079C736.516 150.939 744.325 154.786 751.641 159.439C760.108 164.963 768.016 171.523 774.576 179.299C777.814 183.212 780.856 187.306 783.454 191.695C783.865 192.336 784.259 192.994 784.621 193.668C786.824 197.417 788.731 201.313 790.326 205.341C794.156 214.827 796.392 224.922 797.148 235.098Z" fill="#909126"/>
<path d="M815.285 163.845C814.841 165.966 813.674 171.44 809.054 174.926C807.574 176.011 805.963 176.784 804.302 177.26C803.464 177.491 802.609 177.688 801.771 177.786C798.367 178.28 795.112 177.803 793.107 177.145C775.088 171.079 769.991 119.554 780.464 113.504C780.628 113.422 780.793 113.323 780.957 113.241C781.187 113.159 781.434 113.077 781.697 113.027C792.465 110.528 819.477 144.149 815.285 163.845Z" fill="#A6AA36"/>
<path d="M811.421 231.597C811.47 232.6 810.714 233.405 809.711 233.454C808.741 233.504 807.903 232.715 807.853 231.745C807.524 213.611 805.453 195.526 801.77 177.787C801.08 174.417 800.307 171.096 799.518 167.758C794.964 149.098 788.536 130.932 780.463 113.505C780.628 113.422 780.792 113.324 780.957 113.242C781.187 113.159 781.433 113.077 781.696 113.028C790.114 130.356 796.887 148.474 801.82 167.15C802.691 170.52 803.529 173.874 804.286 177.261C808.33 195.082 810.73 213.298 811.421 231.597Z" fill="#909126"/>
<path d="M845.007 184.594C843.084 186.073 838.036 189.97 831.477 189.575C831.23 189.542 831 189.542 830.786 189.493C829.833 189.411 828.928 189.213 828.057 188.95C822.254 187.306 817.88 182.719 816.088 179.727C805.188 161.626 836.919 115.034 850.959 115.313C851.435 115.313 851.896 115.395 852.323 115.511C852.389 115.511 852.438 115.527 852.504 115.56C864.506 119.391 863.519 170.323 845.007 184.594Z" fill="#B1B851"/>
<path d="M852.307 115.511C844.728 132.642 838.76 150.463 834.667 168.712C833.121 175.584 831.806 182.522 830.787 189.493C828.814 202.777 827.811 216.176 827.795 229.591C827.795 230.578 826.973 231.383 826.003 231.383C825.016 231.383 824.227 230.578 824.227 229.575C824.507 215.946 825.789 202.366 828.058 188.95C829.225 181.98 830.672 175.025 832.349 168.153C836.837 149.954 843.084 132.264 850.959 115.313C851.436 115.313 851.896 115.396 852.307 115.511Z" fill="#909126"/>
<path d="M865.264 206.624C863.044 206.756 857.536 206.97 852.752 203.813C852.341 203.583 851.963 203.287 851.585 202.991C851.207 202.679 850.845 202.366 850.516 202.037C845.666 197.368 844.466 190.184 844.729 186.386C846.258 165.013 901.416 144.907 910.015 155.248C910.064 155.297 910.113 155.346 910.146 155.412C910.36 155.692 910.524 155.988 910.672 156.316C915.999 167.512 887.524 205.654 865.264 206.624Z" fill="#A6AA36"/>
<path d="M910.67 156.316C902.812 159.538 895.282 163.434 888.163 168.021C880.288 173.184 872.939 179.168 866.462 185.958C861.25 191.4 856.696 197.433 852.734 203.812C851.764 205.391 850.843 207.002 849.939 208.629C845.467 216.866 842.13 225.695 839.927 234.77C839.68 235.74 838.743 236.315 837.757 236.069C836.803 235.855 836.228 234.885 836.441 233.931C838.94 224.56 842.557 215.534 847.342 207.183C848.361 205.44 849.413 203.73 850.515 202.037C854.641 195.641 859.425 189.69 864.752 184.314C871.509 177.491 879.121 171.589 887.21 166.509C894.444 162.053 902.105 158.272 909.996 155.247C910.046 155.296 910.095 155.346 910.144 155.411C910.358 155.691 910.522 155.987 910.67 156.316Z" fill="#909126"/>
<path d="M797.71 217.819C797.134 217.819 796.625 217.408 796.526 216.817C795.408 209.632 791.429 183.771 790.591 178.099C790.492 177.442 790.936 176.85 791.594 176.751C792.251 176.652 792.843 177.096 792.942 177.754C793.78 183.426 797.742 209.27 798.893 216.455C798.992 217.096 798.548 217.704 797.89 217.803C797.825 217.819 797.775 217.819 797.71 217.819Z" fill="#909126"/>
<path d="M811.188 172.361C811.402 169.007 809.38 166.475 809.232 166.278C807.111 163.713 804.234 163.269 803.593 163.187C803.724 162.529 804.267 159.587 802.475 156.627C802.228 156.233 800.551 153.569 797.444 152.714C793.712 151.695 789.339 153.619 786.758 157.597C782.664 155 777.288 156.019 774.543 159.735C771.994 163.203 772.307 168.185 775.398 171.424C771.83 174.58 771.304 179.989 774.132 183.721C776.877 187.355 782.039 188.357 786.002 185.99C787.629 190.33 792.331 192.747 796.77 191.514C801.242 190.281 804.037 185.76 803.182 181.189C807.736 179.808 810.925 176.257 811.188 172.361Z" fill="#C9A0FF"/>
<path d="M796.509 172.148C796.509 174.762 794.388 176.9 791.758 176.9C789.144 176.9 787.023 174.762 787.023 172.148C787.023 169.518 789.144 167.397 791.758 167.397C794.388 167.397 796.509 169.518 796.509 172.148Z" fill="#FFE5B1"/>
<path d="M836.162 220.4C835.537 220.4 835.028 219.924 834.979 219.299C834.568 213.775 834.831 208.202 835.784 202.727C836.853 196.644 838.743 190.725 841.44 185.152C841.719 184.56 842.442 184.314 843.018 184.593C843.61 184.873 843.873 185.596 843.577 186.188C840.979 191.564 839.154 197.269 838.135 203.138C837.214 208.415 836.951 213.791 837.346 219.118C837.395 219.776 836.918 220.351 836.162 220.4Z" fill="#909126"/>
<path d="M864.112 179.02C864.343 175.666 862.32 173.15 862.156 172.953C860.035 170.372 857.175 169.928 856.517 169.846C856.665 169.205 857.207 166.245 855.399 163.302C855.169 162.908 853.492 160.245 850.368 159.39C846.653 158.37 842.263 160.277 839.682 164.256C835.588 161.675 830.229 162.694 827.483 166.41C824.918 169.862 825.231 174.844 828.338 178.099C824.77 181.239 824.244 186.648 827.072 190.38C829.818 194.013 834.963 195.033 838.942 192.665C840.553 197.005 845.272 199.406 849.711 198.173C854.182 196.94 856.977 192.419 856.106 187.865C860.66 186.484 863.849 182.916 864.112 179.02Z" fill="#B295D9"/>
<path d="M849.447 178.807C849.447 181.437 847.309 183.558 844.695 183.558C842.081 183.558 839.96 181.437 839.96 178.807C839.96 176.193 842.081 174.056 844.695 174.056C847.309 174.056 849.447 176.193 849.447 178.807Z" fill="#FFE5B1"/>
<path d="M884.054 226.467C883.709 228.243 883.331 230.051 882.87 231.909C882.558 233.076 882.213 234.26 881.835 235.46C881.687 235.937 881.555 236.381 881.391 236.858C879.467 242.858 876.59 249.172 872.365 255.222C871.329 256.751 870.162 258.247 868.913 259.726C866.759 262.307 864.309 264.806 861.547 267.157C836.229 288.793 796.246 288.859 770.944 267.19C768.017 264.675 765.469 262.044 763.233 259.299C762.247 258.148 761.342 256.964 760.487 255.781C755.884 249.319 752.843 242.513 750.804 236.118C750.459 234.95 750.113 233.816 749.818 232.665C749.735 232.402 749.67 232.123 749.604 231.86C749.193 230.216 748.831 228.621 748.552 227.075C748.552 226.993 748.535 226.944 748.535 226.845C746.694 217.507 746.957 210.29 747.072 208.465H816.221C816.221 208.416 885.369 208.416 885.369 208.416C885.435 210.224 885.715 217.277 884.054 226.467Z" fill="#BC7663"/>
<path d="M882.869 231.91C882.376 233.554 881.883 235.214 881.39 236.858C837.872 236.612 794.337 236.365 750.819 236.118C750.458 234.951 750.129 233.817 749.816 232.666C794.173 232.419 838.513 232.156 882.869 231.91Z" fill="#FFE5B1"/>
<path d="M872.366 255.222C871.33 256.751 870.163 258.247 868.93 259.726C833.698 259.578 798.466 259.447 763.234 259.299C762.247 258.148 761.343 256.964 760.488 255.781C797.792 255.583 835.079 255.403 872.366 255.222Z" fill="#FFE5B1"/>
<path d="M768.642 241.577C767.918 241.577 767.392 242.596 766.998 243.369C764.548 248.169 763.332 250.586 763.874 251.26C764.252 251.753 765.535 251.753 768.05 251.72C770.976 251.688 772.44 251.671 772.916 251.096C773.853 249.961 772.62 247.66 770.154 243.089C769.826 242.464 769.316 241.577 768.642 241.577Z" fill="#FFE5B1"/>
<path d="M787.664 241.577C786.957 241.577 786.415 242.596 786.02 243.369C783.571 248.169 782.354 250.586 782.897 251.26C783.291 251.753 784.557 251.753 787.089 251.72C790.015 251.688 791.462 251.671 791.939 251.096C792.876 249.961 791.643 247.66 789.193 243.089C788.848 242.464 788.338 241.577 787.664 241.577Z" fill="#FFE5B1"/>
<path d="M807.341 241.577C806.618 241.577 806.075 242.596 805.681 243.369C803.231 248.169 802.015 250.586 802.557 251.26C802.952 251.753 804.218 251.753 806.75 251.72C809.676 251.688 811.139 251.671 811.599 251.096C812.537 249.961 811.304 247.66 808.854 243.089C808.509 242.464 807.999 241.577 807.341 241.577Z" fill="#FFE5B1"/>
<path d="M825.839 241.577C825.132 241.577 824.59 242.596 824.195 243.369C821.745 248.169 820.529 250.586 821.071 251.26C821.466 251.753 822.732 251.753 825.264 251.72C828.19 251.688 829.637 251.671 830.114 251.096C831.051 249.961 829.818 247.66 827.352 243.089C827.023 242.464 826.513 241.577 825.839 241.577Z" fill="#FFE5B1"/>
<path d="M845.517 241.577C844.794 241.577 844.251 242.596 843.857 243.369C841.407 248.169 840.207 250.586 840.733 251.26C841.127 251.753 842.393 251.753 844.925 251.72C847.852 251.688 849.315 251.671 849.775 251.096C850.712 249.961 849.479 247.66 847.013 243.089C846.684 242.464 846.191 241.577 845.517 241.577Z" fill="#FFE5B1"/>
<path d="M864.538 241.577C863.814 241.577 863.272 242.596 862.877 243.369C860.444 248.169 859.228 250.586 859.77 251.26C860.148 251.753 861.431 251.753 863.946 251.72C866.872 251.688 868.336 251.671 868.812 251.096C869.75 249.961 868.516 247.66 866.05 243.089C865.722 242.464 865.212 241.577 864.538 241.577Z" fill="#FFE5B1"/>
<path d="M885.418 203.467C885.632 200.114 883.61 197.598 883.462 197.401C881.341 194.82 878.464 194.376 877.823 194.294C877.954 193.652 878.497 190.693 876.688 187.75C876.458 187.339 874.781 184.692 871.657 183.837C867.942 182.802 863.552 184.725 860.971 188.704C856.894 186.106 851.518 187.126 848.772 190.858C846.224 194.31 846.536 199.292 849.627 202.53C846.076 205.687 845.534 211.096 848.361 214.828C851.123 218.461 856.269 219.48 860.248 217.113C861.859 221.437 866.561 223.854 871 222.621C875.472 221.388 878.267 216.866 877.395 212.312C881.966 210.915 885.155 207.364 885.418 203.467Z" fill="#C9A0FF"/>
<path d="M870.738 203.253C870.738 205.884 868.617 208.005 865.987 208.005C863.373 208.005 861.252 205.884 861.252 203.253C861.252 200.623 863.373 198.502 865.987 198.502C868.617 198.502 870.738 200.623 870.738 203.253Z" fill="#FFE5B1"/>
<path d="M835.144 199.998C835.357 196.644 833.352 194.113 833.187 193.932C831.066 191.35 828.206 190.907 827.548 190.824C827.68 190.183 828.222 187.224 826.43 184.265C826.183 183.87 824.523 181.223 821.399 180.368C817.684 179.332 813.294 181.256 810.713 185.235C806.619 182.637 801.26 183.656 798.498 187.388C795.949 190.841 796.262 195.822 799.353 199.061C795.801 202.218 795.275 207.627 798.103 211.359C800.849 214.992 805.995 216.011 809.973 213.644C811.584 217.968 816.286 220.384 820.742 219.151C825.197 217.918 828.008 213.397 827.137 208.843C831.691 207.446 834.881 203.895 835.144 199.998Z" fill="#C9A0FF"/>
<path d="M820.477 199.784C820.477 202.398 818.34 204.535 815.726 204.535C813.112 204.535 810.975 202.398 810.975 199.784C810.975 197.154 813.112 195.033 815.726 195.033C818.34 195.033 820.477 197.154 820.477 199.784Z" fill="#FFE5B1"/>
<path d="M791.495 198.716C791.709 195.362 789.686 192.847 789.522 192.649C787.418 190.068 784.54 189.624 783.899 189.542C784.031 188.901 784.573 185.942 782.781 182.999C782.535 182.588 780.858 179.941 777.734 179.086C774.019 178.067 769.645 179.974 767.048 183.952C762.971 181.355 757.595 182.374 754.849 186.106C752.301 189.559 752.613 194.54 755.704 197.779C752.153 200.935 751.61 206.344 754.438 210.076C757.183 213.71 762.346 214.729 766.324 212.361C767.936 216.702 772.638 219.102 777.093 217.869C781.548 216.636 784.343 212.115 783.488 207.561C788.042 206.163 791.232 202.612 791.495 198.716Z" fill="#B295D9"/>
<path d="M776.811 198.501C776.811 201.115 774.691 203.253 772.06 203.253C769.446 203.253 767.325 201.115 767.325 198.501C767.325 195.871 769.446 193.75 772.06 193.75C774.691 193.75 776.811 195.871 776.811 198.501Z" fill="#FFE5B1"/>
<mask id="mask1_287_104854" style="mask-type:luminance" maskUnits="userSpaceOnUse" x="878" y="291" width="27" height="48">
<path d="M878.515 291.407H904.376V338.114H878.515V291.407Z" fill="white"/>
</mask>
<g mask="url(#mask1_287_104854)">
<path d="M904.113 297.868V331.933C904.113 335.353 901.351 338.115 897.947 338.115H884.877C881.441 338.115 878.679 335.353 878.679 331.933V297.868C878.679 294.432 881.441 291.67 884.877 291.67H897.947C901.351 291.67 904.113 294.432 904.113 297.868Z" fill="#D4A27F"/>
</g>
<path d="M904.111 297.868V311.037H878.678V297.868C878.678 294.432 881.44 291.67 884.876 291.67H897.946C901.349 291.67 904.111 294.432 904.111 297.868Z" fill="#A87342"/>
<path d="M895.037 331.424C895.037 333.315 893.508 334.86 891.618 334.86C889.727 334.86 888.182 333.315 888.182 331.424C888.182 329.533 889.727 327.988 891.618 327.988C893.508 327.988 895.037 329.533 895.037 331.424Z" fill="#A87342"/>
<mask id="mask2_287_104854" style="mask-type:luminance" maskUnits="userSpaceOnUse" x="22" y="291" width="26" height="48">
<path d="M22.1113 291.407H47.9887V338.114H22.1113V291.407Z" fill="white"/>
</mask>
<g mask="url(#mask2_287_104854)">
<path d="M47.7254 297.868V331.933C47.7254 335.353 44.9634 338.115 41.5603 338.115H28.4736C25.054 338.115 22.292 335.353 22.292 331.933V297.868C22.292 294.432 25.054 291.67 28.4736 291.67H41.5603C44.9634 291.67 47.7254 294.432 47.7254 297.868Z" fill="#D4A27F"/>
</g>
<path d="M47.7264 297.868V311.037H22.293V297.868C22.293 294.432 25.055 291.67 28.4746 291.67H41.5612C44.9644 291.67 47.7264 294.432 47.7264 297.868Z" fill="#A87342"/>
<path d="M38.6496 331.424C38.6496 333.315 37.1207 334.86 35.23 334.86C33.3394 334.86 31.7939 333.315 31.7939 331.424C31.7939 329.533 33.3394 327.988 35.23 327.988C37.1207 327.988 38.6496 329.533 38.6496 331.424Z" fill="#A87342"/>
<mask id="mask3_287_104854" style="mask-type:luminance" maskUnits="userSpaceOnUse" x="0" y="276" width="929" height="23">
<path d="M0 276.364H928.707V298.098H0V276.364Z" fill="white"/>
</mask>
<g mask="url(#mask3_287_104854)">
<path d="M928.707 280.458V293.874C928.707 296.093 927.277 297.869 925.518 297.869H3.2059C1.43032 297.869 0 296.093 0 293.874V280.458C0 278.272 1.43032 276.479 3.2059 276.479H925.518C927.277 276.479 928.707 278.272 928.707 280.458Z" fill="#BA825B"/>
</g>
<mask id="mask4_287_104854" style="mask-type:luminance" maskUnits="userSpaceOnUse" x="0" y="275" width="929" height="11">
<path d="M0 275.954H928.707V285.144H0V275.954Z" fill="white"/>
</mask>
<g mask="url(#mask4_287_104854)">
<path d="M928.707 279.489V284.914H0V279.489C0 277.713 1.43032 276.267 3.2059 276.267H925.518C927.277 276.267 928.707 277.713 928.707 279.489Z" fill="#D4A27F"/>
</g>
</svg>
