<svg width="502" height="449" viewBox="0 0 502 449" fill="none" xmlns="http://www.w3.org/2000/svg">
<mask id="mask0_360_2498" style="mask-type:luminance" maskUnits="userSpaceOnUse" x="213" y="0" width="289" height="449">
<path d="M213.875 0.385742H501.932V448.386H213.875V0.385742Z" fill="white"/>
</mask>
<g mask="url(#mask0_360_2498)">
<mask id="mask1_360_2498" style="mask-type:luminance" maskUnits="userSpaceOnUse" x="213" y="0" width="289" height="448">
<path d="M501.932 18.8442V413.308C501.932 420.089 498.166 425.985 492.609 429.011L485.041 431.157L427.796 447.375L430.051 431.183H231.827C221.958 431.183 213.963 423.183 213.963 413.308V18.8442C213.963 8.97445 221.958 0.969238 231.827 0.969238H484.072C493.937 0.969238 501.932 8.97445 501.932 18.8442Z" fill="white"/>
</mask>
<g mask="url(#mask1_360_2498)">
<path d="M213.963 0.969238V447.375H501.932V0.969238H213.963Z" fill="url(#paint0_linear_360_2498)"/>
</g>
</g>
<mask id="mask2_360_2498" style="mask-type:luminance" maskUnits="userSpaceOnUse" x="484" y="428" width="10" height="5">
<path d="M484.543 428.386H493.876V432.386H484.543V428.386Z" fill="white"/>
</mask>
<g mask="url(#mask2_360_2498)">
<mask id="mask3_360_2498" style="mask-type:luminance" maskUnits="userSpaceOnUse" x="485" y="429" width="8" height="3">
<path d="M492.611 429.011C490.34 430.25 487.777 431.011 485.043 431.157L492.611 429.011Z" fill="white"/>
</mask>
<g mask="url(#mask3_360_2498)">
<path d="M485.043 429.011V431.157H492.611V429.011H485.043Z" fill="url(#paint1_linear_360_2498)"/>
</g>
</g>
<mask id="mask4_360_2498" style="mask-type:luminance" maskUnits="userSpaceOnUse" x="160" y="0" width="340" height="26">
<path d="M160.543 0H499.21V25.7188H160.543V0Z" fill="white"/>
</mask>
<g mask="url(#mask4_360_2498)">
<mask id="mask5_360_2498" style="mask-type:luminance" maskUnits="userSpaceOnUse" x="161" y="0" width="338" height="26">
<path d="M161.443 20.0627L225.428 1.32834C228.1 0.54709 230.87 0.156464 233.652 0.161672L485.568 0.984589C487.298 0.974172 489.006 1.34917 490.553 2.10959C493.037 3.31792 496.636 5.38563 498.079 7.75542C500.376 11.5367 435.303 25.4585 435.303 25.4585L161.443 20.0627Z" fill="white"/>
</mask>
<g mask="url(#mask5_360_2498)">
<path d="M161.443 0.15625V25.4583H500.376V0.15625H161.443Z" fill="url(#paint2_linear_360_2498)"/>
</g>
</g>
<mask id="mask6_360_2498" style="mask-type:luminance" maskUnits="userSpaceOnUse" x="151" y="17" width="289" height="432">
<path d="M151 17.7188H439.208V448.786H151V17.7188Z" fill="white"/>
</mask>
<g mask="url(#mask6_360_2498)">
<path d="M438.984 36.3228V430.786C438.984 440.661 430.984 448.661 421.124 448.661L364.041 445.708L223.343 438.417L168.88 435.594C159.01 435.594 151.01 427.594 151.01 417.719V36.3228C151.01 26.453 159.01 18.4478 168.88 18.4478H421.124C430.984 18.4478 438.984 26.453 438.984 36.3228Z" fill="#F7E7DA"/>
</g>
<path d="M407.96 52.3854C407.96 53.5729 407.845 54.7552 407.611 55.9219C407.382 57.0885 407.038 58.2188 406.585 59.3177C406.126 60.4219 405.569 61.4635 404.908 62.4531C404.251 63.4427 403.496 64.3594 402.658 65.1979C401.819 66.0417 400.902 66.7917 399.913 67.4531C398.923 68.1146 397.882 68.6719 396.783 69.125C395.684 69.5833 394.553 69.9271 393.387 70.1562C392.22 70.3906 391.043 70.5052 389.855 70.5052C388.663 70.5052 387.486 70.3906 386.319 70.1562C385.152 69.9271 384.022 69.5833 382.923 69.125C381.824 68.6719 380.783 68.1146 379.793 67.4531C378.803 66.7917 377.892 66.0417 377.048 65.1979C376.21 64.3594 375.46 63.4427 374.798 62.4531C374.137 61.4635 373.579 60.4219 373.121 59.3177C372.668 58.2188 372.324 57.0885 372.095 55.9219C371.861 54.7552 371.746 53.5729 371.746 52.3854C371.746 51.1979 371.861 50.0156 372.095 48.849C372.324 47.6823 372.668 46.5521 373.121 45.4531C373.579 44.3542 374.137 43.3073 374.798 42.3177C375.46 41.3281 376.21 40.4115 377.048 39.5729C377.892 38.7292 378.803 37.9792 379.793 37.3177C380.783 36.6562 381.824 36.099 382.923 35.6458C384.022 35.1875 385.152 34.8438 386.319 34.6146C387.486 34.3802 388.663 34.2656 389.855 34.2656C391.043 34.2656 392.22 34.3802 393.387 34.6146C394.553 34.8438 395.684 35.1875 396.783 35.6458C397.882 36.099 398.923 36.6562 399.913 37.3177C400.902 37.9792 401.819 38.7292 402.658 39.5729C403.496 40.4115 404.251 41.3281 404.908 42.3177C405.569 43.3073 406.126 44.3542 406.585 45.4531C407.038 46.5521 407.382 47.6823 407.611 48.849C407.845 50.0156 407.96 51.1979 407.96 52.3854Z" fill="#652C42"/>
<path d="M405.922 52.3851C405.922 53.4424 405.823 54.4893 405.615 55.5257C405.411 56.557 405.104 57.5622 404.703 58.5413C404.297 59.5153 403.802 60.4424 403.214 61.3226C402.63 62.1976 401.964 63.0101 401.219 63.7601C400.469 64.5049 399.656 65.1716 398.781 65.7601C397.906 66.3434 396.979 66.8382 396 67.2445C395.026 67.6507 394.021 67.9528 392.99 68.1611C391.953 68.3643 390.906 68.4684 389.854 68.4684C388.797 68.4684 387.75 68.3643 386.719 68.1611C385.682 67.9528 384.677 67.6507 383.703 67.2445C382.724 66.8382 381.802 66.3434 380.922 65.7601C380.047 65.1716 379.234 64.5049 378.49 63.7601C377.74 63.0101 377.073 62.1976 376.49 61.3226C375.901 60.4424 375.406 59.5153 375.005 58.5413C374.599 57.5622 374.292 56.557 374.089 55.5257C373.88 54.4893 373.781 53.4424 373.781 52.3851C373.781 51.3278 373.88 50.2809 374.089 49.2497C374.292 48.2132 374.599 47.208 375.005 46.2288C375.406 45.2549 375.901 44.3278 376.49 43.4476C377.073 42.5726 377.74 41.7601 378.49 41.0101C379.234 40.2653 380.047 39.5986 380.922 39.0101C381.802 38.4268 382.724 37.932 383.703 37.5257C384.677 37.1195 385.682 36.8174 386.719 36.609C387.75 36.4059 388.797 36.3018 389.854 36.3018C390.906 36.3018 391.953 36.4059 392.99 36.609C394.021 36.8174 395.026 37.1195 396 37.5257C396.979 37.932 397.906 38.4268 398.781 39.0101C399.656 39.5986 400.469 40.2653 401.219 41.0101C401.964 41.7601 402.63 42.5726 403.214 43.4476C403.802 44.3278 404.297 45.2549 404.703 46.2288C405.104 47.208 405.411 48.2132 405.615 49.2497C405.823 50.2809 405.922 51.3278 405.922 52.3851Z" fill="#F7E7DA"/>
<mask id="mask7_360_2498" style="mask-type:luminance" maskUnits="userSpaceOnUse" x="172" y="41" width="72" height="19">
<path d="M172.543 41.7188H243.21V59.0521H172.543V41.7188Z" fill="white"/>
</mask>
<g mask="url(#mask7_360_2498)">
<mask id="mask8_360_2498" style="mask-type:luminance" maskUnits="userSpaceOnUse" x="172" y="42" width="71" height="17">
<path d="M172.912 42.4062C172.912 42.4062 227.881 44.0938 242.048 42.4062V57.9323C242.048 57.9323 185.053 60.9688 172.912 54.8958V42.4062Z" fill="white"/>
</mask>
<g mask="url(#mask8_360_2498)">
<path d="M172.912 42.4062V60.9688H242.048V42.4062H172.912Z" fill="url(#paint3_linear_360_2498)"/>
</g>
</g>
<path d="M176.849 140.385C176.849 141.849 176.839 143.307 176.818 144.76C176.802 146.213 176.771 147.656 176.734 149.088C176.698 150.526 176.651 151.937 176.594 153.338C176.542 154.734 176.474 156.109 176.401 157.458C176.328 158.812 176.25 160.13 176.156 161.416C176.068 162.708 175.969 163.958 175.865 165.172C175.755 166.39 175.641 167.562 175.521 168.692C175.401 169.817 175.271 170.901 175.135 171.932C175 172.968 174.859 173.948 174.708 174.875C174.562 175.802 174.411 176.672 174.25 177.484C174.089 178.297 173.927 179.047 173.76 179.734C173.589 180.422 173.417 181.047 173.24 181.604C173.062 182.166 172.88 182.656 172.698 183.083C172.516 183.505 172.328 183.859 172.141 184.146C171.953 184.432 171.766 184.646 171.573 184.786C171.385 184.932 171.193 185 171 185C170.812 185 170.62 184.932 170.427 184.786C170.24 184.646 170.052 184.432 169.865 184.146C169.672 183.859 169.49 183.505 169.307 183.083C169.12 182.656 168.943 182.166 168.766 181.604C168.589 181.047 168.417 180.422 168.245 179.734C168.078 179.047 167.917 178.297 167.755 177.484C167.594 176.672 167.443 175.802 167.292 174.875C167.146 173.948 167.005 172.968 166.87 171.932C166.734 170.901 166.604 169.817 166.484 168.692C166.365 167.562 166.25 166.39 166.141 165.172C166.036 163.958 165.937 162.708 165.849 161.416C165.755 160.13 165.677 158.812 165.604 157.458C165.531 156.109 165.464 154.734 165.406 153.338C165.354 151.937 165.307 150.526 165.271 149.088C165.234 147.656 165.203 146.213 165.188 144.76C165.167 143.307 165.156 141.849 165.156 140.385C165.156 138.927 165.167 137.468 165.188 136.015C165.203 134.557 165.234 133.114 165.271 131.682C165.307 130.25 165.354 128.833 165.406 127.437C165.464 126.036 165.531 124.661 165.604 123.312C165.677 121.963 165.755 120.646 165.849 119.354C165.937 118.067 166.036 116.812 166.141 115.599C166.25 114.385 166.365 113.213 166.484 112.083C166.604 110.953 166.734 109.869 166.87 108.838C167.005 107.807 167.146 106.828 167.292 105.901C167.443 104.974 167.594 104.104 167.755 103.291C167.917 102.479 168.078 101.729 168.245 101.041C168.417 100.349 168.589 99.7288 168.766 99.1663C168.943 98.609 169.12 98.1143 169.307 97.6924C169.49 97.2705 169.672 96.9111 169.865 96.6299C170.052 96.3434 170.24 96.1299 170.427 95.984C170.62 95.8434 170.812 95.7705 171 95.7705C171.193 95.7705 171.385 95.8434 171.573 95.984C171.766 96.1299 171.953 96.3434 172.141 96.6299C172.328 96.9111 172.516 97.2705 172.698 97.6924C172.88 98.1143 173.062 98.609 173.24 99.1663C173.417 99.7288 173.589 100.349 173.76 101.041C173.927 101.729 174.089 102.479 174.25 103.291C174.411 104.104 174.562 104.974 174.708 105.901C174.859 106.828 175 107.807 175.135 108.838C175.271 109.869 175.401 110.953 175.521 112.083C175.641 113.213 175.755 114.385 175.865 115.599C175.969 116.812 176.068 118.067 176.156 119.354C176.25 120.646 176.328 121.963 176.401 123.312C176.474 124.661 176.542 126.036 176.594 127.437C176.651 128.833 176.698 130.25 176.734 131.682C176.771 133.114 176.802 134.557 176.818 136.015C176.839 137.468 176.849 138.927 176.849 140.385Z" fill="white"/>
<mask id="mask9_360_2498" style="mask-type:luminance" maskUnits="userSpaceOnUse" x="363" y="100" width="77" height="349">
<path d="M363.209 100.386H439.209V448.787H363.209V100.386Z" fill="white"/>
</mask>
<g mask="url(#mask9_360_2498)">
<mask id="mask10_360_2498" style="mask-type:luminance" maskUnits="userSpaceOnUse" x="364" y="101" width="75" height="348">
<path d="M438.986 101.464V430.787C438.986 440.662 430.986 448.662 421.126 448.662L364.043 445.709C432.449 379.995 438.986 101.464 438.986 101.464Z" fill="white"/>
</mask>
<g mask="url(#mask10_360_2498)">
<path d="M364.043 101.464V448.662H438.986V101.464H364.043Z" fill="url(#paint4_linear_360_2498)"/>
</g>
</g>
<mask id="mask11_360_2498" style="mask-type:luminance" maskUnits="userSpaceOnUse" x="151" y="223" width="74" height="217">
<path d="M151 223.052H224.542V439.052H151V223.052Z" fill="white"/>
</mask>
<g mask="url(#mask11_360_2498)">
<mask id="mask12_360_2498" style="mask-type:luminance" maskUnits="userSpaceOnUse" x="151" y="224" width="73" height="215">
<path d="M223.343 438.416L168.88 435.593C159.01 435.593 151.01 427.593 151.01 417.718V224.296C159.359 292.614 177.994 397.864 223.343 438.416Z" fill="white"/>
</mask>
<g mask="url(#mask12_360_2498)">
<path d="M151.01 224.296V438.416H223.343V224.296H151.01Z" fill="url(#paint5_linear_360_2498)"/>
</g>
</g>
<path d="M413.428 224.713C413.428 226.63 413.382 228.547 413.288 230.458C413.194 232.375 413.053 234.286 412.861 236.198C412.673 238.104 412.439 240.005 412.158 241.906C411.876 243.802 411.553 245.687 411.178 247.573C410.803 249.453 410.382 251.323 409.918 253.182C409.454 255.041 408.939 256.89 408.387 258.724C407.829 260.562 407.225 262.38 406.585 264.187C405.939 265.989 405.246 267.781 404.512 269.552C403.783 271.323 403.007 273.078 402.184 274.807C401.366 276.541 400.507 278.255 399.6 279.948C398.699 281.635 397.751 283.307 396.767 284.948C395.783 286.593 394.757 288.213 393.694 289.807C392.632 291.406 391.527 292.968 390.387 294.51C389.241 296.052 388.064 297.562 386.85 299.047C385.632 300.526 384.382 301.979 383.095 303.401C381.809 304.823 380.486 306.208 379.132 307.567C377.777 308.922 376.392 310.244 374.97 311.531C373.548 312.817 372.1 314.073 370.616 315.286C369.137 316.505 367.626 317.682 366.09 318.828C364.548 319.968 362.98 321.073 361.387 322.135C359.793 323.203 358.178 324.229 356.533 325.213C354.892 326.198 353.225 327.146 351.533 328.047C349.845 328.953 348.132 329.812 346.397 330.635C344.668 331.453 342.918 332.229 341.147 332.963C339.376 333.698 337.59 334.39 335.783 335.036C333.98 335.682 332.158 336.281 330.324 336.838C328.491 337.396 326.647 337.906 324.788 338.375C322.928 338.838 321.059 339.26 319.178 339.635C317.298 340.005 315.413 340.333 313.517 340.614C311.621 340.896 309.72 341.13 307.814 341.317C305.908 341.51 303.996 341.651 302.085 341.744C300.168 341.838 298.251 341.885 296.335 341.885C294.418 341.885 292.507 341.838 290.59 341.744C288.678 341.651 286.767 341.51 284.861 341.317C282.954 341.13 281.053 340.896 279.158 340.614C277.262 340.333 275.371 340.005 273.496 339.635C271.616 339.26 269.746 338.838 267.887 338.375C266.027 337.906 264.178 337.396 262.345 336.838C260.512 336.281 258.694 335.682 256.892 335.036C255.085 334.39 253.298 333.698 251.527 332.963C249.757 332.229 248.007 331.453 246.272 330.635C244.543 329.812 242.829 328.953 241.142 328.047C239.449 327.146 237.783 326.198 236.142 325.213C234.496 324.229 232.876 323.203 231.283 322.135C229.694 321.073 228.126 319.968 226.585 318.828C225.048 317.682 223.538 316.505 222.053 315.286C220.574 314.073 219.121 312.817 217.704 311.531C216.283 310.244 214.897 308.922 213.543 307.567C212.189 306.208 210.866 304.823 209.579 303.401C208.293 301.979 207.043 300.526 205.824 299.047C204.611 297.562 203.428 296.052 202.288 294.51C201.147 292.968 200.043 291.401 198.98 289.807C197.913 288.213 196.892 286.593 195.908 284.948C194.918 283.307 193.975 281.635 193.074 279.948C192.168 278.255 191.309 276.541 190.491 274.807C189.668 273.078 188.892 271.323 188.158 269.552C187.428 267.781 186.736 265.989 186.09 264.187C185.444 262.38 184.845 260.562 184.288 258.724C183.73 256.89 183.22 255.041 182.757 253.182C182.288 251.323 181.871 249.453 181.496 247.573C181.121 245.687 180.793 243.802 180.512 241.906C180.23 240.005 179.996 238.104 179.809 236.198C179.621 234.286 179.48 232.375 179.387 230.458C179.293 228.547 179.246 226.63 179.246 224.713C179.246 222.791 179.293 220.875 179.387 218.963C179.48 217.047 179.621 215.135 179.809 213.229C179.996 211.317 180.23 209.416 180.512 207.521C180.793 205.619 181.121 203.734 181.496 201.854C181.871 199.974 182.288 198.099 182.757 196.239C183.22 194.38 183.73 192.531 184.288 190.698C184.845 188.864 185.444 187.041 186.09 185.239C186.736 183.432 187.428 181.64 188.158 179.869C188.892 178.099 189.668 176.349 190.491 174.614C191.309 172.88 192.168 171.166 193.074 169.479C193.975 167.786 194.918 166.119 195.908 164.474C196.892 162.828 197.913 161.208 198.98 159.614C200.043 158.021 201.147 156.453 202.288 154.911C203.428 153.369 204.611 151.859 205.824 150.38C207.043 148.896 208.293 147.442 209.579 146.021C210.866 144.604 212.189 143.213 213.543 141.859C214.897 140.5 216.283 139.182 217.704 137.89C219.121 136.604 220.574 135.354 222.053 134.135C223.538 132.916 225.048 131.739 226.585 130.599C228.126 129.453 229.694 128.349 231.283 127.286C232.876 126.218 234.496 125.192 236.142 124.208C237.783 123.224 239.449 122.276 241.142 121.375C242.829 120.468 244.543 119.609 246.272 118.786C248.007 117.968 249.757 117.192 251.527 116.458C253.298 115.724 255.085 115.036 256.892 114.39C258.694 113.739 260.512 113.14 262.345 112.583C264.178 112.026 266.027 111.515 267.887 111.052C269.746 110.583 271.616 110.166 273.496 109.791C275.371 109.416 277.262 109.088 279.158 108.807C281.053 108.526 282.954 108.291 284.861 108.104C286.767 107.916 288.678 107.776 290.59 107.682C292.507 107.583 294.418 107.536 296.335 107.536C298.251 107.536 300.168 107.583 302.085 107.682C303.996 107.776 305.908 107.916 307.814 108.104C309.72 108.291 311.621 108.526 313.517 108.807C315.413 109.088 317.298 109.416 319.178 109.791C321.059 110.166 322.928 110.583 324.788 111.052C326.647 111.515 328.491 112.026 330.324 112.583C332.158 113.14 333.98 113.739 335.783 114.39C337.59 115.036 339.376 115.724 341.147 116.458C342.918 117.192 344.668 117.968 346.397 118.786C348.132 119.609 349.845 120.468 351.533 121.375C353.225 122.276 354.892 123.224 356.533 124.208C358.178 125.192 359.793 126.218 361.387 127.286C362.98 128.349 364.548 129.453 366.09 130.599C367.626 131.739 369.137 132.916 370.616 134.135C372.1 135.354 373.548 136.604 374.97 137.89C376.392 139.182 377.777 140.5 379.132 141.859C380.486 143.213 381.809 144.604 383.095 146.021C384.382 147.442 385.632 148.896 386.85 150.38C388.064 151.859 389.241 153.369 390.387 154.911C391.527 156.453 392.632 158.021 393.694 159.614C394.757 161.208 395.783 162.828 396.767 164.474C397.751 166.119 398.699 167.786 399.6 169.479C400.507 171.166 401.366 172.88 402.184 174.614C403.007 176.349 403.783 178.099 404.512 179.869C405.246 181.64 405.939 183.432 406.585 185.239C407.225 187.041 407.829 188.864 408.387 190.698C408.939 192.531 409.454 194.38 409.918 196.239C410.382 198.099 410.803 199.974 411.178 201.854C411.553 203.734 411.876 205.619 412.158 207.521C412.439 209.416 412.673 211.317 412.861 213.229C413.053 215.135 413.194 217.047 413.288 218.963C413.382 220.875 413.428 222.791 413.428 224.713Z" fill="#652C42"/>
<path d="M376.448 224.714C376.448 225.287 376.443 225.865 376.427 226.438C376.417 227.011 376.396 227.584 376.375 228.151C376.354 228.641 376.328 229.125 376.302 229.615C376.292 229.782 376.281 229.943 376.266 230.11C376.224 230.698 376.182 231.297 376.13 231.886C376.094 232.302 376.057 232.719 376.005 233.131C376 233.203 375.99 233.282 375.984 233.354C375.932 233.839 375.88 234.328 375.818 234.808C375.807 234.896 375.797 234.985 375.781 235.068C375.734 235.474 375.672 235.881 375.615 236.282C375.599 236.412 375.583 236.537 375.562 236.662C375.495 237.12 375.427 237.568 375.349 238.016C375.328 238.157 375.302 238.287 375.276 238.422C375.203 238.865 375.12 239.302 375.042 239.745C375.031 239.792 375.021 239.844 375.01 239.891C374.911 240.412 374.802 240.938 374.698 241.453C374.688 241.49 374.682 241.521 374.677 241.552C374.573 242.016 374.474 242.479 374.365 242.948C374.146 243.896 373.906 244.834 373.651 245.766C373.589 246.016 373.521 246.266 373.448 246.511C373.062 247.891 372.63 249.266 372.167 250.62C372.089 250.86 372.005 251.094 371.927 251.323C371.818 251.631 371.708 251.938 371.594 252.24C371.505 252.495 371.411 252.745 371.318 252.995C371.312 253.011 371.307 253.032 371.297 253.047C371.167 253.401 371.026 253.761 370.885 254.11C370.708 254.552 370.536 254.99 370.354 255.427C370.26 255.657 370.161 255.881 370.068 256.104C369.911 256.485 369.75 256.86 369.583 257.229C369.432 257.563 369.281 257.901 369.13 258.235C369.021 258.469 368.906 258.703 368.802 258.933C368.625 259.308 368.443 259.683 368.26 260.058C367.542 261.516 366.776 262.953 365.974 264.37C365.797 264.677 365.615 264.99 365.432 265.297C365.052 265.948 364.661 266.594 364.26 267.229C364.068 267.547 363.865 267.86 363.661 268.172C363.573 268.313 363.479 268.453 363.385 268.594C363.125 268.995 362.854 269.401 362.578 269.802C362.333 270.167 362.083 270.526 361.828 270.886C361.651 271.146 361.469 271.396 361.281 271.651C361.099 271.912 360.906 272.172 360.714 272.422C360.406 272.844 360.089 273.261 359.771 273.677C359.766 273.688 359.76 273.698 359.75 273.703C359.422 274.131 359.089 274.552 358.75 274.969C358.495 275.292 358.229 275.61 357.958 275.927C357.745 276.193 357.531 276.448 357.307 276.709C357.198 276.839 357.089 276.964 356.974 277.094C356.786 277.313 356.599 277.532 356.406 277.75C356.203 277.985 355.99 278.219 355.781 278.448C355.526 278.729 355.271 279.016 355.005 279.292C354.948 279.36 354.88 279.427 354.823 279.49C354.573 279.756 354.328 280.021 354.062 280.287C353.885 280.474 353.698 280.667 353.516 280.86C352.984 281.401 352.443 281.933 351.896 282.459C351.646 282.703 351.391 282.948 351.13 283.188C350.74 283.558 350.349 283.917 349.948 284.276C349.583 284.61 349.208 284.938 348.828 285.266C348.464 285.589 348.094 285.901 347.714 286.214C346.802 286.985 345.87 287.729 344.922 288.453C344.479 288.797 344.026 289.136 343.573 289.464C342.719 290.089 341.854 290.698 340.974 291.292C340.594 291.542 340.214 291.792 339.828 292.042C339.807 292.058 339.781 292.073 339.76 292.089C339.354 292.349 338.943 292.61 338.531 292.865C338.474 292.901 338.411 292.943 338.349 292.974C338.005 293.198 337.651 293.407 337.302 293.615C337.167 293.698 337.021 293.782 336.885 293.86C336.573 294.047 336.26 294.229 335.948 294.407C335.766 294.511 335.589 294.61 335.406 294.714C335.021 294.933 334.63 295.141 334.24 295.354C334.229 295.36 334.219 295.36 334.208 295.365C333.766 295.61 333.312 295.844 332.859 296.078C332.807 296.104 332.755 296.136 332.693 296.157C332.312 296.36 331.927 296.552 331.542 296.74C331.396 296.813 331.255 296.881 331.104 296.953C330.745 297.125 330.385 297.297 330.021 297.464C329.87 297.537 329.719 297.604 329.562 297.672C329.292 297.802 329.026 297.917 328.755 298.042C328.417 298.193 328.073 298.344 327.724 298.485C327.562 298.558 327.401 298.625 327.24 298.693C326.859 298.854 326.479 299.011 326.094 299.162C325.958 299.219 325.823 299.271 325.682 299.323C325.427 299.427 325.161 299.532 324.896 299.631C324.589 299.745 324.281 299.865 323.974 299.979C323.495 300.151 323.021 300.323 322.542 300.49C322.234 300.599 321.932 300.698 321.625 300.797C321.339 300.896 321.047 300.99 320.76 301.084C320.24 301.25 319.719 301.412 319.193 301.568C318.693 301.719 318.193 301.86 317.693 301.995C317.667 302.006 317.635 302.016 317.609 302.016V302.021C317.161 302.141 316.714 302.261 316.266 302.375C316.005 302.448 315.745 302.511 315.484 302.568C315.068 302.677 314.646 302.771 314.229 302.865C313.703 302.995 313.161 303.104 312.63 303.219C308.635 304.042 304.531 304.578 300.339 304.782C299.01 304.844 297.677 304.881 296.333 304.881C289.245 304.881 282.37 303.964 275.823 302.229C262.469 298.703 250.479 291.808 240.818 282.506C225.656 267.927 216.219 247.417 216.219 224.714C216.219 180.433 252.089 144.542 296.333 144.542C301.917 144.542 307.37 145.115 312.63 146.203C313.125 146.308 313.62 146.417 314.104 146.526C314.255 146.558 314.406 146.589 314.552 146.631C314.792 146.683 315.031 146.74 315.266 146.802C315.786 146.922 316.302 147.052 316.818 147.193C316.896 147.214 316.979 147.235 317.057 147.256C317.333 147.328 317.62 147.407 317.896 147.485C318.125 147.542 318.349 147.61 318.578 147.683C319.104 147.828 319.63 147.985 320.156 148.151C320.286 148.188 320.411 148.229 320.536 148.271C320.818 148.36 321.099 148.448 321.375 148.542C321.797 148.677 322.208 148.818 322.625 148.964C323.057 149.11 323.479 149.266 323.911 149.422C324.12 149.5 324.328 149.578 324.542 149.657C324.995 149.828 325.443 150 325.891 150.177C326.297 150.339 326.703 150.5 327.104 150.672C327.307 150.756 327.505 150.839 327.708 150.927C328.677 151.339 329.641 151.771 330.589 152.224C331.005 152.417 331.411 152.615 331.818 152.818C332 152.907 332.177 152.995 332.354 153.089C332.682 153.256 333.016 153.422 333.349 153.594C333.922 153.896 334.484 154.198 335.047 154.511C335.443 154.724 335.833 154.948 336.224 155.177C336.422 155.282 336.615 155.396 336.802 155.506C337.286 155.792 337.766 156.078 338.245 156.381C338.568 156.573 338.885 156.776 339.203 156.974C339.745 157.323 340.281 157.667 340.812 158.026C341.198 158.287 341.583 158.547 341.969 158.813C342.521 159.203 343.073 159.594 343.62 160C344.021 160.287 344.422 160.589 344.818 160.896C345.604 161.49 346.38 162.104 347.146 162.735C347.38 162.927 347.615 163.12 347.849 163.318C348.13 163.558 348.417 163.797 348.698 164.042C348.818 164.151 348.943 164.256 349.062 164.36C349.339 164.594 349.604 164.834 349.87 165.073C350.635 165.771 351.396 166.474 352.135 167.198C352.37 167.422 352.599 167.646 352.833 167.875C353.151 168.193 353.469 168.516 353.786 168.844C354.156 169.219 354.516 169.599 354.875 169.99C355.219 170.354 355.557 170.724 355.896 171.099C355.984 171.198 356.078 171.302 356.172 171.407C356.49 171.761 356.802 172.125 357.115 172.49C357.438 172.865 357.76 173.245 358.073 173.625C358.193 173.771 358.318 173.917 358.438 174.068C358.646 174.318 358.849 174.568 359.052 174.823C359.135 174.938 359.224 175.047 359.312 175.162C359.51 175.407 359.698 175.651 359.891 175.901C360.13 176.214 360.365 176.521 360.594 176.834C360.792 177.094 360.99 177.36 361.182 177.631C361.214 177.677 361.255 177.724 361.286 177.776L361.297 177.797C361.792 178.469 362.271 179.157 362.734 179.844C362.927 180.131 363.125 180.427 363.312 180.719C363.615 181.167 363.906 181.625 364.193 182.084C364.469 182.516 364.734 182.953 364.995 183.391C365.469 184.177 365.927 184.969 366.375 185.766L366.38 185.782C366.391 185.797 366.396 185.813 366.406 185.828C366.432 185.87 366.458 185.912 366.474 185.953C366.63 186.235 366.781 186.511 366.932 186.797C368.135 189.026 369.229 191.318 370.219 193.667C370.375 194.037 370.526 194.407 370.672 194.776C370.677 194.776 370.677 194.776 370.677 194.782C370.823 195.146 370.964 195.506 371.104 195.87C371.182 196.063 371.255 196.261 371.328 196.453C371.484 196.865 371.635 197.282 371.781 197.698C372.141 198.703 372.484 199.714 372.802 200.74C372.917 201.115 373.031 201.485 373.141 201.86C373.161 201.933 373.188 202.011 373.208 202.084C373.302 202.412 373.396 202.745 373.49 203.078C373.609 203.485 373.714 203.891 373.823 204.297C373.922 204.667 374.016 205.042 374.109 205.422C374.115 205.453 374.125 205.49 374.135 205.521C374.24 205.933 374.333 206.344 374.427 206.756C374.521 207.157 374.609 207.563 374.698 207.969C374.698 207.979 374.698 207.99 374.703 207.995C374.786 208.386 374.865 208.771 374.938 209.157C375.109 210.026 375.266 210.901 375.411 211.782C375.464 212.125 375.516 212.469 375.568 212.818C375.755 214.084 375.917 215.365 376.047 216.651C376.068 216.901 376.094 217.151 376.115 217.396C376.177 218.094 376.234 218.792 376.276 219.49C376.302 219.854 376.323 220.219 376.344 220.584C376.349 220.756 376.359 220.933 376.37 221.104C376.38 221.427 376.391 221.75 376.401 222.078C376.417 222.448 376.427 222.823 376.432 223.203C376.443 223.703 376.448 224.209 376.448 224.714Z" fill="#652C42"/>
<path d="M266.777 36.3747L322.533 36.3018V61.6455H266.777V36.3747Z" fill="#8CC6D2"/>
<mask id="mask13_360_2498" style="mask-type:luminance" maskUnits="userSpaceOnUse" x="328" y="49" width="14" height="15">
<path d="M328.543 49.7188H341.876V63.0521H328.543V49.7188Z" fill="white"/>
</mask>
<g mask="url(#mask13_360_2498)">
<mask id="mask14_360_2498" style="mask-type:luminance" maskUnits="userSpaceOnUse" x="329" y="50" width="13" height="13">
<path d="M341.527 56.422C341.527 56.8075 341.491 57.1877 341.413 57.5679C341.34 57.9481 341.23 58.3127 341.079 58.6668C340.934 59.0262 340.751 59.3647 340.538 59.6825C340.324 60.0054 340.079 60.3022 339.809 60.5731C339.538 60.8491 339.241 61.0887 338.918 61.3022C338.6 61.521 338.262 61.6981 337.908 61.8491C337.548 61.995 337.184 62.1043 336.803 62.1825C336.428 62.2554 336.043 62.2918 335.663 62.2918C335.277 62.2918 334.892 62.2554 334.517 62.1825C334.137 62.1043 333.772 61.995 333.413 61.8491C333.059 61.6981 332.72 61.521 332.402 61.3022C332.079 61.0887 331.783 60.8491 331.512 60.5731C331.241 60.3022 330.996 60.0054 330.783 59.6825C330.569 59.3647 330.387 59.0262 330.241 58.6668C330.09 58.3127 329.98 57.9481 329.908 57.5679C329.829 57.1877 329.793 56.8075 329.793 56.422C329.793 56.0366 329.829 55.6564 329.908 55.2762C329.98 54.896 330.09 54.5314 330.241 54.1772C330.387 53.8179 330.569 53.4793 330.783 53.1616C330.996 52.8387 331.241 52.5418 331.512 52.271C331.783 51.995 332.079 51.7554 332.402 51.5418C332.72 51.3231 333.059 51.146 333.413 50.995C333.772 50.8491 334.137 50.7397 334.517 50.6616C334.892 50.5887 335.277 50.5522 335.663 50.5522C336.043 50.5522 336.428 50.5887 336.803 50.6616C337.184 50.7397 337.548 50.8491 337.908 50.995C338.262 51.146 338.6 51.3231 338.918 51.5418C339.241 51.7554 339.538 51.995 339.809 52.271C340.079 52.5418 340.324 52.8387 340.538 53.1616C340.751 53.4793 340.934 53.8179 341.079 54.1772C341.23 54.5314 341.34 54.896 341.413 55.2762C341.491 55.6564 341.527 56.0366 341.527 56.422Z" fill="white"/>
</mask>
<g mask="url(#mask14_360_2498)">
<path d="M329.793 50.5522V62.2918H341.527V50.5522H329.793Z" fill="url(#paint6_linear_360_2498)"/>
</g>
</g>
<mask id="mask15_360_2498" style="mask-type:luminance" maskUnits="userSpaceOnUse" x="328" y="33" width="14" height="15">
<path d="M328.543 33.7188H341.876V47.0521H328.543V33.7188Z" fill="white"/>
</mask>
<g mask="url(#mask15_360_2498)">
<mask id="mask16_360_2498" style="mask-type:luminance" maskUnits="userSpaceOnUse" x="329" y="34" width="13" height="13">
<path d="M341.527 40.1354C341.527 40.5208 341.491 40.9062 341.413 41.2812C341.34 41.6615 341.23 42.026 341.079 42.3854C340.934 42.7396 340.751 43.0781 340.538 43.401C340.324 43.7188 340.079 44.0156 339.809 44.2865C339.538 44.5625 339.241 44.8073 338.918 45.0208C338.6 45.2344 338.262 45.4167 337.908 45.5625C337.548 45.7083 337.184 45.8229 336.803 45.8958C336.428 45.9688 336.043 46.0104 335.663 46.0104C335.277 46.0104 334.892 45.9688 334.517 45.8958C334.137 45.8229 333.772 45.7083 333.413 45.5625C333.059 45.4167 332.72 45.2344 332.402 45.0208C332.079 44.8073 331.783 44.5625 331.512 44.2865C331.241 44.0156 330.996 43.7188 330.783 43.401C330.569 43.0781 330.387 42.7396 330.241 42.3854C330.09 42.026 329.98 41.6615 329.908 41.2812C329.829 40.9062 329.793 40.5208 329.793 40.1354C329.793 39.75 329.829 39.3698 329.908 38.9896C329.98 38.6146 330.09 38.2448 330.241 37.8906C330.387 37.5313 330.569 37.1927 330.783 36.875C330.996 36.5521 331.241 36.2552 331.512 35.9844C331.783 35.7135 332.079 35.4687 332.402 35.2552C332.72 35.0417 333.059 34.8594 333.413 34.7135C333.772 34.5625 334.137 34.4531 334.517 34.3802C334.892 34.3021 335.277 34.2656 335.663 34.2656C336.043 34.2656 336.428 34.3021 336.803 34.3802C337.184 34.4531 337.548 34.5625 337.908 34.7135C338.262 34.8594 338.6 35.0417 338.918 35.2552C339.241 35.4687 339.538 35.7135 339.809 35.9844C340.079 36.2552 340.324 36.5521 340.538 36.875C340.751 37.1927 340.934 37.5313 341.079 37.8906C341.23 38.2448 341.34 38.6146 341.413 38.9896C341.491 39.3698 341.527 39.75 341.527 40.1354Z" fill="white"/>
</mask>
<g mask="url(#mask16_360_2498)">
<path d="M329.793 34.2656V46.0104H341.527V34.2656H329.793Z" fill="url(#paint7_linear_360_2498)"/>
</g>
</g>
<path d="M408.104 396.781V422.938L358.771 421.438V396.781H408.104ZM411.177 393.708H355.703V424.417L411.177 426.104V393.708Z" fill="#652C42"/>
<path d="M376.449 391.683H391.548V393.709H376.449V391.683Z" fill="#652C42"/>
<path d="M248.115 18.4482H250.36V81.667H248.115V18.4482Z" fill="#652C42"/>
<mask id="mask17_360_2498" style="mask-type:luminance" maskUnits="userSpaceOnUse" x="151" y="75" width="289" height="11">
<path d="M151 75.0518H439.208V85.7184H151V75.0518Z" fill="white"/>
</mask>
<g mask="url(#mask17_360_2498)">
<mask id="mask18_360_2498" style="mask-type:luminance" maskUnits="userSpaceOnUse" x="151" y="75" width="288" height="10">
<path d="M438.984 76.7705V81.2549C371.937 83.8695 218.52 88.3695 151.01 78.182V75.6455C193.525 78.1195 305.796 83.1247 438.984 76.7705Z" fill="white"/>
</mask>
<g mask="url(#mask18_360_2498)">
<path d="M151.01 75.6455V88.3695H438.984V75.6455H151.01Z" fill="url(#paint8_linear_360_2498)"/>
</g>
</g>
<mask id="mask19_360_2498" style="mask-type:luminance" maskUnits="userSpaceOnUse" x="0" y="126" width="184" height="211">
<path d="M0 126H183.906V336.697H0V126Z" fill="white"/>
</mask>
<g mask="url(#mask19_360_2498)">
<path d="M91.7181 155.516C125.136 155.516 155.475 187.522 155.475 231.306C155.475 275.083 125.136 307.089 91.7181 307.089C58.2929 307.089 27.9612 275.083 27.9612 231.306C27.9612 187.522 58.2929 155.516 91.7181 155.516ZM91.7181 127.461C39.2709 127.461 -0.0078125 175.879 -0.0078125 231.306C-0.0078125 286.726 39.2709 335.15 91.7181 335.15C144.165 335.15 183.444 286.726 183.444 231.306C183.444 175.879 144.165 127.461 91.7181 127.461Z" fill="white"/>
<path d="M91.7181 155.516C125.136 155.516 155.475 187.522 155.475 231.306C155.475 275.083 125.136 307.089 91.7181 307.089C58.2929 307.089 27.9612 275.083 27.9612 231.306C27.9612 187.522 58.2929 155.516 91.7181 155.516ZM91.7181 127.461C39.2709 127.461 -0.0078125 175.879 -0.0078125 231.306C-0.0078125 286.726 39.2709 335.15 91.7181 335.15C144.165 335.15 183.444 286.726 183.444 231.306C183.444 175.879 144.165 127.461 91.7181 127.461Z" fill="black" fill-opacity="0.278"/>
</g>
<path d="M170.938 216.321H178.657C178.657 226.985 178.657 237.649 178.657 248.306C176.081 248.306 173.506 248.306 170.938 248.306C170.938 237.649 170.938 226.985 170.938 216.321Z" fill="black" fill-opacity="0.192"/>
<path d="M59.7976 154.629L59.7763 154.962C59.6699 155.651 59.3719 156.197 58.8753 156.608C58.3786 157.02 57.7897 157.19 57.1086 157.112C56.4629 156.999 55.9521 156.686 55.5618 156.154C55.4412 155.984 55.3348 155.8 55.2567 155.601L55.1574 155.289C55.1006 155.076 55.0723 154.856 55.0723 154.629C55.0865 153.912 55.3206 153.323 55.7605 152.855C56.2075 152.38 56.7609 152.138 57.4349 152.117C58.1019 152.138 58.6553 152.38 59.1023 152.855C59.5493 153.323 59.7763 153.912 59.7976 154.629Z" fill="black" fill-opacity="0.525"/>
<path d="M56.8523 310.48L56.831 310.821C56.7246 311.502 56.4266 312.048 55.9299 312.46C55.4333 312.871 54.8444 313.042 54.1704 312.964C53.5247 312.857 53.0068 312.538 52.6165 312.013C52.4959 311.843 52.3895 311.658 52.3114 311.452L52.2121 311.147C52.1553 310.935 52.127 310.707 52.127 310.48C52.1411 309.771 52.3753 309.175 52.8152 308.707C53.2622 308.231 53.8156 307.99 54.4896 307.969C55.1566 307.99 55.7171 308.231 56.157 308.707C56.604 309.175 56.831 309.771 56.8523 310.48Z" fill="black" fill-opacity="0.525"/>
<path d="M163.493 231.307C163.493 276.914 131.466 314.1 91.719 314.1C51.9649 314.1 19.9375 276.914 19.9375 231.307C19.9375 185.692 51.9649 148.506 91.719 148.506C131.466 148.506 163.493 185.692 163.493 231.307ZM161.791 231.307C161.791 186.401 130.309 150.216 91.719 150.216C53.1214 150.216 21.6403 186.401 21.6403 231.307C21.6403 276.205 53.1214 312.397 91.719 312.397C130.309 312.397 161.791 276.205 161.791 231.307Z" fill="black" fill-opacity="0.09"/>
<path d="M187.516 198.789L187.488 198.732C186.799 197.327 186.012 196.242 185.118 195.468C184.635 195.106 183.89 194.908 182.897 194.879C179.846 195.028 178.136 196.419 177.753 199.051C177.611 200.229 177.625 201.428 177.796 202.656C178.044 204.763 178.25 206.324 178.413 207.331L180.08 217.229C180.371 218.946 180.634 220.67 180.875 222.394C181.379 226.29 181.613 229.319 181.577 231.497C181.556 234.378 181.357 237.252 180.981 240.111C180.683 242.459 180.421 244.403 180.187 245.943C179.094 252.627 178.533 256.231 178.491 256.749C178.157 259.332 177.987 260.878 177.966 261.396C177.774 263.688 177.732 265.242 177.831 266.058C177.895 266.938 178.122 267.789 178.519 268.605C179.903 270.847 181.819 271.684 184.252 271.131C186.53 270.258 187.764 268.378 187.942 265.49C188.041 264.22 188.013 262.936 187.849 261.63L186.622 252.691C185.593 245.865 184.997 241.771 184.841 240.402C184.266 235.57 183.983 232.179 183.99 230.227C183.968 228.929 183.997 227.638 184.075 226.339L184.217 224.395C184.33 223.104 184.472 221.805 184.649 220.514C184.827 219.223 185.018 217.931 185.238 216.64L187.104 206.068C187.317 204.72 187.452 203.763 187.502 203.181C187.665 202.28 187.665 200.818 187.516 198.789Z" fill="black" fill-opacity="0.569"/>
<path d="M242.52 289.648L245.36 286.976C251.027 281.463 256.753 276.748 262.522 272.823C266.381 270.283 270.283 268.533 274.237 267.589C277.597 266.798 281.207 266.805 285.08 267.603C286.932 268.006 288.748 268.555 290.513 269.251C291.501 269.477 293.968 270.766 297.915 273.116C304.182 277.392 307.857 281.668 308.956 285.958C309.783 289.495 308.699 293.602 305.705 298.259C310.449 295.147 315.128 294.268 319.74 295.638C323.599 296.553 330.899 300.99 341.647 308.956C343.397 321.644 338.63 333.3 327.333 343.916C319.25 351.736 309.739 357.168 298.801 360.207C289.436 362.22 281.719 361.056 275.642 356.722C269.551 352.497 263.935 344.787 258.781 333.593C254.527 324.741 249.109 310.09 242.52 289.648Z" fill="white"/>
<path d="M199 366.642L226.2 336.228C216.843 323.276 211.857 310.354 211.242 297.46C225.453 285.189 236.384 278.051 244.028 276.037C251.005 274.683 257.068 277.385 262.222 284.142C272.728 298.054 278.286 306.495 278.886 309.468C281.412 315.025 281.361 322.742 278.725 332.604C285.475 339.926 289.107 345.659 289.619 349.803C290.22 352.46 290.234 355.36 289.685 358.515L285.373 376.702C284.597 380.421 284.326 384.192 284.553 388.014C285.3 396.595 288.865 407.226 295.242 419.914C278.146 421.078 264.287 420.932 253.656 419.482C239.95 417.483 229.56 414.291 222.488 409.891C216.462 406.391 211.835 401.786 208.606 396.068C204.784 389.456 201.585 379.645 199 366.642Z" fill="#E15B5B"/>
<path d="M248.973 363.105L248.943 363.537V364.145C248.951 364.614 248.965 365.17 249.002 365.807C249.068 367.118 249.17 368.597 249.302 370.244C249.58 373.649 249.902 376.519 250.254 378.854C250.349 379.447 250.452 380.033 250.561 380.611C250.598 380.89 250.796 381.783 251.147 383.306C252.275 387.669 252.89 389.866 252.985 389.903C252.992 389.859 252.985 389.719 252.956 389.478C252.956 389.471 252.875 388.907 252.707 387.794C252.809 383.555 252.751 380.611 252.524 378.964C252.223 376.907 251.726 374.293 251.045 371.115C250.649 369.373 250.415 368.392 250.342 368.165L249.529 365.075C249.383 364.541 249.229 364.094 249.09 363.713C249.031 363.472 248.995 363.267 248.973 363.105Z" fill="black" fill-opacity="0.165"/>
<path d="M240.821 346.632L240.674 346.8C239.122 349.107 237.731 352.709 236.494 357.607C235.93 359.862 235.432 362.344 234.993 365.046C234.458 368.377 234.041 371.569 233.748 374.63L233.814 374.329L234.063 372.99C234.714 370.632 235.388 368.091 236.076 365.375L236.801 362.403L239.093 352.789L240.294 348.243C240.535 347.576 240.66 347.137 240.667 346.939L240.821 346.632Z" fill="black" fill-opacity="0.165"/>
<path d="M240.831 354.942L240.743 355.125C240.296 356.187 239.784 358.186 239.198 361.136C238.62 364.168 238.202 366.906 237.939 369.359C237.668 372.155 237.5 374.974 237.434 377.822C237.404 379.089 237.397 380.326 237.419 381.542C237.448 383.028 237.492 384.346 237.565 385.495C237.573 385.495 237.58 385.283 237.595 384.851C237.851 383.277 238.071 381.732 238.254 380.224L239.301 371.357L239.564 369.022C239.615 368.619 239.799 366.694 240.128 363.245L240.684 357.995C240.728 357.468 240.75 357.168 240.75 357.095C240.772 356.678 240.78 356.451 240.772 356.407C240.787 356.165 240.802 355.982 240.809 355.843C240.816 355.631 240.809 355.433 240.78 355.265L240.831 354.942Z" fill="black" fill-opacity="0.165"/>
<path d="M244.175 318.891H244.131C242.864 318.876 241.927 319.337 241.327 320.26C240.719 321.307 240.69 322.53 241.239 323.928C241.407 321.929 241.729 320.794 242.198 320.516C242.769 319.96 243.735 319.865 245.082 320.216C247.528 320.838 252.097 322.5 258.803 325.202C262.61 326.776 266.835 328.775 271.47 331.206L267.714 328.533C266.952 328.006 266.154 327.494 265.312 326.981C263.46 325.832 261.029 324.558 258.034 323.174C255.706 322.127 253.268 321.204 250.72 320.406C247.242 319.323 245.061 318.818 244.175 318.891Z" fill="black" fill-opacity="0.165"/>
<path d="M234.195 331.469H234.137C231.911 331.601 230.19 332.421 228.982 333.944C230.549 333.153 231.75 332.707 232.577 332.589C233.573 332.428 234.547 332.502 235.499 332.809C235.682 332.904 235.857 333.029 236.026 333.168C236.904 334.068 237.49 334.632 237.79 334.866C238.12 335.152 238.479 335.416 238.867 335.665C239.321 335.979 241.312 336.865 244.856 338.322C245.127 338.447 245.537 338.659 246.071 338.974C246.972 339.479 247.66 339.904 248.158 340.255C252.353 343.242 254.44 344.699 254.418 344.641C255.055 345.08 255.977 345.622 257.185 346.288L256.57 345.768C255.494 344.502 254.498 343.477 253.59 342.701C251.943 341.295 250.552 340.153 249.41 339.259C248.787 338.762 248.019 338.22 247.096 337.649C246.364 337.173 245.793 336.843 245.375 336.66L239.833 334.456C239.379 334.215 239.05 334.017 238.83 333.841C238.559 333.666 237.907 333.117 236.882 332.216C236.677 332.055 236.436 331.909 236.15 331.769C235.879 331.601 235.228 331.499 234.195 331.469Z" fill="black" fill-opacity="0.165"/>
<path d="M239.957 335.042L239.884 335.137C239.62 335.533 239.327 336.089 238.998 336.814C238.741 337.37 238.515 337.949 238.317 338.556C238.192 338.93 238.046 339.479 237.885 340.204C237.819 340.526 237.753 340.841 237.687 341.156L237.343 342.905C237.321 343.008 237.314 343.052 237.321 343.052L237.424 342.708C238.105 341.141 238.493 340.204 238.602 339.918C238.785 339.464 238.954 339.018 239.108 338.571C239.291 338.022 239.474 337.392 239.657 336.667C239.686 336.543 239.715 336.433 239.737 336.323C239.788 336.074 239.81 335.943 239.81 335.913L239.884 335.584C239.906 335.459 239.913 335.335 239.898 335.225L239.957 335.042Z" fill="black" fill-opacity="0.165"/>
<path d="M253.363 297.936H253.349L251.086 298.097C250.588 298.134 250.047 298.192 249.483 298.28C248.509 298.405 247.25 298.697 245.698 299.151C243.267 299.869 240.616 301.099 237.732 302.842C236.062 303.903 234.671 305.082 233.566 306.378C230.6 309.819 229.012 312.074 228.807 313.15C229.795 312.052 230.718 311.064 231.574 310.185C233.148 308.56 234.283 307.418 234.979 306.766C235.909 305.909 237.087 305.053 238.53 304.181C241.451 302.388 243.838 301.114 245.683 300.367C248.385 299.261 250.94 298.449 253.363 297.936Z" fill="black" fill-opacity="0.165"/>
<path d="M249.455 294.092L249.448 294.1C249.338 294.202 249.191 294.327 249.008 294.451C248.152 295 247.214 295.637 246.197 296.362C245.223 297.058 244.483 297.607 243.956 298.017C243.026 298.72 241.987 299.62 240.845 300.718C239.527 301.941 238.099 303.508 236.547 305.419L243.056 300.286C244.791 298.793 246.687 297.065 248.73 295.11C249.257 294.612 249.499 294.268 249.455 294.092Z" fill="black" fill-opacity="0.165"/>
<path d="M283.347 298.068L283.296 298.075C281.275 298.141 279.386 299.261 277.629 301.443C279.774 300.147 281.209 299.444 281.919 299.335C283.259 299.071 284.218 299.217 284.804 299.788C285.551 300.484 286.547 301.846 287.799 303.881C287.843 303.808 289.021 306.561 291.32 312.147L292.089 313.743C292.865 315.032 293.59 315.911 294.278 316.379C295.384 317.097 296.628 317.624 298.027 317.953C299.089 318.232 303.284 318.956 310.598 320.128C310.891 320.172 312.377 320.516 315.05 321.168C315.628 321.292 316.17 321.373 316.675 321.402C316.682 321.46 316.287 321.219 315.482 320.677L314.852 320.355C313.871 319.952 312.773 319.557 311.572 319.169C311.184 319.037 310.283 318.817 308.877 318.51L298.386 316.291C297.06 315.903 296.021 315.464 295.274 314.973C294.688 314.549 294.029 313.692 293.297 312.396C290.778 306.136 289.263 302.798 288.758 302.38C287.454 300.572 286.444 299.386 285.727 298.837C285.126 298.324 284.335 298.068 283.347 298.068Z" fill="black" fill-opacity="0.165"/>
<path d="M323.3 305.785H323.248C321.835 305.807 319.639 306.517 316.652 307.923C315.217 308.545 311.775 310.588 306.328 314.044L306.555 313.934C307.968 313.436 308.92 313.077 309.403 312.865C310.34 312.484 311.226 312.074 312.083 311.65C313.833 310.793 314.85 310.288 315.136 310.134C315.458 309.98 316.637 309.307 318.68 308.128C318.731 308.091 319.185 307.857 320.041 307.425C320.693 307.096 321.279 306.818 321.806 306.591C322.216 306.407 322.787 306.195 323.519 305.932C323.57 305.917 323.614 305.888 323.658 305.844C323.688 305.829 323.71 305.829 323.732 305.829C323.636 305.8 323.49 305.785 323.3 305.785Z" fill="black" fill-opacity="0.165"/>
<path d="M297.133 292.064L297.126 292.086C296.782 292.965 296.342 294.034 295.808 295.279C295.618 295.755 295.493 296.099 295.427 296.318C295.288 296.772 295.12 297.417 294.922 298.244C294.871 298.471 294.827 298.683 294.783 298.888C294.746 299.086 294.673 299.467 294.571 300.03L294.461 300.536C294.446 300.528 294.519 300.338 294.68 299.964C295.134 299.027 295.552 298.097 295.932 297.175C296.174 296.589 296.357 296.091 296.482 295.696C296.811 294.583 297.009 293.807 297.075 293.368C297.214 292.526 297.236 292.086 297.133 292.064Z" fill="black" fill-opacity="0.165"/>
<path d="M305.21 300.917L305.115 300.968C304.88 301.107 304.5 301.407 303.965 301.876C303.533 302.264 303.218 302.579 303.021 302.827C302.691 303.215 302.391 303.618 302.12 304.036C301.996 304.211 301.593 304.856 300.912 305.968C300.993 305.851 301.117 305.705 301.293 305.536L302.999 303.809C303.255 303.538 303.504 303.259 303.753 302.974C304.119 302.535 304.368 302.22 304.507 302.015L305.012 301.253C305.056 301.187 305.085 301.114 305.1 301.048L305.21 300.917Z" fill="black" fill-opacity="0.165"/>
<path d="M319.509 328.043L319.465 328.05C317.752 328.028 315.438 328.555 312.524 329.624C309.742 330.649 305.81 332.546 300.729 335.321C299.433 335.862 298.327 336.214 297.412 336.375C296.211 336.573 295.179 336.609 294.293 336.47C294.139 336.455 293.686 336.346 292.931 336.141L288.085 334.815C287.308 334.603 286.833 334.486 286.657 334.449C285.288 334.2 284.446 334.142 284.131 334.281L286.349 335.05C290.208 336.529 292.646 337.444 293.664 337.773C294.388 337.971 295.201 338.066 296.109 338.066C297.529 338.096 299.162 337.766 301 337.07C301.439 336.895 301.959 336.653 302.559 336.338C305.935 334.501 308.461 333.161 310.13 332.304C311.565 331.572 312.817 330.979 313.871 330.525C315.314 329.917 316.478 329.485 317.371 329.229C317.803 329.105 318.235 328.995 318.652 328.907L320.622 328.526C321.112 328.424 321.383 328.358 321.427 328.336C321.493 328.321 321.398 328.314 321.149 328.314C320.951 328.248 320.673 328.182 320.314 328.116C320.065 328.072 319.802 328.05 319.509 328.043Z" fill="black" fill-opacity="0.165"/>
<path d="M252.822 285.673L252.771 285.68C252.558 285.812 252.397 285.834 252.295 285.746L254.572 287.73C255.041 288.162 255.399 288.506 255.641 288.777L260.253 294.386C261.147 295.425 262.406 296.78 264.039 298.456C263.094 298.142 261.769 297.753 260.056 297.278C262.421 298.786 265.283 300.792 268.659 303.296C268.966 303.501 269.244 303.618 269.493 303.64C270.138 303.618 270.562 303.135 270.775 302.183C270.884 301.839 270.277 300.938 268.93 299.496C263.072 293.426 259.272 289.59 257.523 287.972C255.963 286.793 254.396 286.024 252.822 285.673Z" fill="black" fill-opacity="0.165"/>
<path d="M269.764 335.152L269.683 335.159C269.646 335.159 269.595 335.181 269.529 335.225L269.419 335.415C269.412 335.423 269.39 335.43 269.354 335.43C270.056 335.76 270.781 336.309 271.521 337.092C271.806 337.37 272.187 337.788 272.663 338.344C272.861 338.564 273.329 339.142 274.061 340.065C274.859 340.936 275.299 341.448 275.394 341.595C275.577 341.829 275.753 342.093 275.914 342.4C276.016 342.598 276.089 342.796 276.141 342.993L276.038 342.891C275.233 341.968 274.654 341.148 274.318 340.423C274.471 340.753 274.603 341.046 274.706 341.309C275.16 342.569 275.408 343.213 275.445 343.25C275.679 343.821 276.053 344.121 276.565 344.165C277.166 344.084 277.444 343.513 277.393 342.451C277.349 341.968 277.217 341.441 276.997 340.87C276.595 339.889 276.294 339.296 276.097 339.091C275.335 338.198 274.23 337.29 272.78 336.382C271.513 335.613 270.51 335.203 269.764 335.152Z" fill="black" fill-opacity="0.165"/>
<path d="M241.715 331.747L241.708 331.703C241.32 329.778 239.885 328.672 237.395 328.394C236.934 328.365 236.407 328.387 235.814 328.46C235.572 328.504 235.287 328.562 234.95 328.643L233.2 329.067C232.892 329.141 232.665 329.192 232.526 329.214C232.475 329.229 232.417 329.243 232.365 329.272C232.212 329.426 232.087 329.514 231.999 329.536C231.553 329.719 231.113 329.873 230.689 330.005L230.872 330.041L230.938 330.1C230.989 330.166 231.106 330.437 231.289 330.913C231.413 331.293 231.413 331.55 231.289 331.689C231.64 331.462 232.277 331.198 233.2 330.891C233.881 330.664 234.576 330.503 235.294 330.407C236.085 330.298 236.751 330.268 237.293 330.305C237.747 330.327 238.23 330.466 238.75 330.708C238.464 330.568 237.878 330.349 237 330.049C236.634 329.924 236.238 329.814 235.806 329.719C234.811 329.507 233.888 329.426 233.039 329.477C231.772 329.536 230.864 329.69 230.323 329.931C229.934 330.173 229.737 330.546 229.715 331.044C229.781 331.454 230.008 331.806 230.396 332.084C230.528 332.121 230.689 332.135 230.879 332.135C231.34 332.106 231.911 332.033 232.585 331.916C232.636 331.908 232.695 331.908 232.746 331.916C232.907 331.96 233.01 331.974 233.046 331.96C233.075 331.974 233.258 331.908 233.603 331.762L236.341 330.539L236.722 330.415C237.315 330.224 237.937 330.151 238.589 330.188C239.196 330.232 239.694 330.349 240.068 330.539C240.47 330.737 240.902 331.125 241.371 331.703C241.393 331.733 241.481 331.733 241.649 331.703C241.693 331.711 241.715 331.725 241.715 331.747Z" fill="black" fill-opacity="0.165"/>
<path d="M235.007 286.968H234.919C234.18 286.932 233.242 287.093 232.115 287.452C231.244 287.723 230.49 288.089 229.86 288.565C229.098 289.165 228.571 289.824 228.278 290.541C228.147 290.798 228.073 291.149 228.059 291.581C228.037 291.691 228.103 291.837 228.264 292.013L228.249 292.167C228.864 291.091 229.552 290.388 230.307 290.036C231.083 289.641 232.159 289.436 233.528 289.421C234.158 289.399 234.992 289.538 236.047 289.839C235.366 289.992 234.78 290.095 234.282 290.139C235.029 290.044 236.047 290.073 237.343 290.234C239.4 290.937 240.513 291.31 240.696 291.354L243.581 292.174C243.808 292.233 243.983 292.255 244.1 292.255C244.283 292.255 244.466 292.203 244.635 292.101C244.869 292.108 245.191 292.086 245.601 292.042C245.682 292.05 245.865 292.013 246.143 291.933C246.326 291.845 246.443 291.735 246.487 291.581C246.553 290.878 246.099 290.175 245.125 289.472C244.159 288.989 243.302 288.594 242.556 288.279C242.146 288.118 241.721 287.979 241.296 287.876C240.235 287.62 238.997 287.386 237.577 287.173C236.545 287.027 235.688 286.954 235.007 286.968Z" fill="black" fill-opacity="0.165"/>
<path d="M287.33 335.592C287.33 335.592 287.338 335.599 287.345 335.599C287.345 335.599 287.352 335.606 287.367 335.614C287.396 335.628 287.418 335.643 287.447 335.658C287.411 335.643 287.382 335.628 287.36 335.614C287.352 335.614 287.345 335.606 287.345 335.606L287.338 335.599C287.33 335.599 287.323 335.592 287.33 335.592ZM289.373 333.029H289.285C288.062 333.014 287.096 333.205 286.379 333.6C286.181 333.673 285.873 333.981 285.434 334.53C285.229 334.779 285.075 335.079 284.973 335.423C284.76 336.295 284.951 337.019 285.537 337.605C286.005 338.081 286.781 338.315 287.857 338.308C288.758 338.308 290.054 338.118 291.753 337.744C292.309 337.62 292.865 337.473 293.429 337.305C293.766 337.21 294.718 336.91 296.285 336.397L296.98 336.192C297.361 336.075 297.881 335.965 298.562 335.848C297.654 335.994 296.804 336.075 296.006 336.082L292.36 336.097C290.632 336.053 289.585 336.016 289.234 335.987C290.252 335.797 291.386 335.665 292.653 335.577C294.63 335.438 296.878 335.387 299.382 335.423C299.865 335.357 300.099 335.284 300.099 335.211L300.121 334.947C299.762 334.918 299.535 334.896 299.462 334.867C298.049 334.354 296.629 333.952 295.186 333.659C293.29 333.278 291.35 333.066 289.373 333.029Z" fill="black" fill-opacity="0.165"/>
<path d="M286.309 296.106C286.317 296.113 286.317 296.113 286.317 296.113C286.324 296.121 286.331 296.128 286.331 296.128C286.346 296.143 286.353 296.157 286.36 296.165C286.353 296.157 286.339 296.143 286.324 296.128C286.317 296.121 286.309 296.113 286.309 296.106ZM286.551 296.743L286.544 296.75C286.536 296.75 286.522 296.758 286.507 296.772C286.492 296.78 286.478 296.78 286.463 296.787C286.448 296.794 286.434 296.794 286.419 296.794C286.412 296.794 286.404 296.794 286.404 296.794V296.787C286.419 296.78 286.441 296.772 286.478 296.758C286.507 296.75 286.529 296.743 286.551 296.743ZM287.73 297.065C287.744 297.08 287.752 297.087 287.759 297.095C287.766 297.095 287.766 297.095 287.774 297.102V297.109C287.781 297.109 287.781 297.117 287.788 297.117C287.766 297.102 287.744 297.08 287.722 297.065H287.73ZM286.295 295.228H286.28C285.885 295.242 285.599 295.359 285.416 295.586C285.394 295.623 285.387 295.667 285.387 295.725L285.409 295.989C285.416 296.026 285.409 296.121 285.387 296.26C285.387 296.304 285.387 296.348 285.387 296.384C285.409 296.531 285.453 296.648 285.519 296.736C285.57 296.846 285.709 296.941 285.936 297.036C285.98 297.058 286.046 297.073 286.134 297.095C286.485 297.175 286.697 297.219 286.763 297.241C286.902 297.278 287.041 297.314 287.181 297.358C287.437 297.446 287.722 297.563 288.037 297.717C288.081 297.856 288.125 297.995 288.169 298.12L288.257 298.369L288.293 298.427C288.315 298.464 288.345 298.486 288.374 298.5L288.418 298.522L288.572 298.552C288.608 298.588 288.63 298.617 288.623 298.647C288.659 298.493 288.681 298.303 288.696 298.076C288.784 298.127 288.96 298.266 289.231 298.5C288.967 298.273 288.791 298.12 288.696 298.024C288.755 297.19 288.689 296.655 288.498 296.421C288.279 296.077 287.971 295.799 287.561 295.579C287.144 295.345 286.719 295.228 286.295 295.228Z" fill="black" fill-opacity="0.165"/>
<defs>
<linearGradient id="paint0_linear_360_2498" x1="338.862" y1="-9.61035" x2="378.449" y2="457.832" gradientUnits="userSpaceOnUse">
<stop stop-color="#C4A59F"/>
<stop offset="0.015625" stop-color="#C4A6A0"/>
<stop offset="0.03125" stop-color="#C5A7A1"/>
<stop offset="0.046875" stop-color="#C6A8A1"/>
<stop offset="0.0518001" stop-color="#C7A9A2"/>
<stop offset="0.0625" stop-color="#C7A9A3"/>
<stop offset="0.078125" stop-color="#C7AAA3"/>
<stop offset="0.09375" stop-color="#C8AAA4"/>
<stop offset="0.109375" stop-color="#C9ABA5"/>
<stop offset="0.125" stop-color="#CAACA6"/>
<stop offset="0.140625" stop-color="#CAADA6"/>
<stop offset="0.15625" stop-color="#CBAEA7"/>
<stop offset="0.171875" stop-color="#CCAFA8"/>
<stop offset="0.1875" stop-color="#CDB0A9"/>
<stop offset="0.203125" stop-color="#CDB1AA"/>
<stop offset="0.21875" stop-color="#CEB2AB"/>
<stop offset="0.234375" stop-color="#CFB3AB"/>
<stop offset="0.25" stop-color="#CFB4AC"/>
<stop offset="0.265625" stop-color="#D0B5AD"/>
<stop offset="0.28125" stop-color="#D1B6AE"/>
<stop offset="0.296875" stop-color="#D2B7AF"/>
<stop offset="0.3125" stop-color="#D2B8B0"/>
<stop offset="0.328125" stop-color="#D3B9B1"/>
<stop offset="0.34375" stop-color="#D4BAB1"/>
<stop offset="0.359375" stop-color="#D5BAB2"/>
<stop offset="0.375" stop-color="#D5BBB3"/>
<stop offset="0.390625" stop-color="#D6BCB4"/>
<stop offset="0.40625" stop-color="#D7BDB5"/>
<stop offset="0.421875" stop-color="#D7BEB6"/>
<stop offset="0.4375" stop-color="#D8BFB6"/>
<stop offset="0.453125" stop-color="#D9C0B7"/>
<stop offset="0.46875" stop-color="#DAC1B8"/>
<stop offset="0.484375" stop-color="#DAC2B9"/>
<stop offset="0.5" stop-color="#DBC3BA"/>
<stop offset="0.515625" stop-color="#DCC4BB"/>
<stop offset="0.53125" stop-color="#DDC5BB"/>
<stop offset="0.546875" stop-color="#DDC6BC"/>
<stop offset="0.5625" stop-color="#DEC7BD"/>
<stop offset="0.578125" stop-color="#DFC8BE"/>
<stop offset="0.59375" stop-color="#DFC9BF"/>
<stop offset="0.609375" stop-color="#E0CAC0"/>
<stop offset="0.625" stop-color="#E1CAC0"/>
<stop offset="0.640625" stop-color="#E2CBC1"/>
<stop offset="0.65625" stop-color="#E2CCC2"/>
<stop offset="0.671875" stop-color="#E3CDC3"/>
<stop offset="0.6875" stop-color="#E4CEC4"/>
<stop offset="0.703125" stop-color="#E5CFC5"/>
<stop offset="0.71875" stop-color="#E5D0C6"/>
<stop offset="0.734375" stop-color="#E6D1C6"/>
<stop offset="0.75" stop-color="#E7D2C7"/>
<stop offset="0.765625" stop-color="#E7D3C8"/>
<stop offset="0.78125" stop-color="#E8D4C9"/>
<stop offset="0.796875" stop-color="#E9D5CA"/>
<stop offset="0.8125" stop-color="#EAD6CB"/>
<stop offset="0.828125" stop-color="#EAD7CB"/>
<stop offset="0.84375" stop-color="#EBD8CC"/>
<stop offset="0.859375" stop-color="#ECD9CD"/>
<stop offset="0.875" stop-color="#EDD9CE"/>
<stop offset="0.890625" stop-color="#EDDACF"/>
<stop offset="0.90625" stop-color="#EEDBD0"/>
<stop offset="0.921875" stop-color="#EFDCD0"/>
<stop offset="0.9375" stop-color="#F0DDD1"/>
<stop offset="0.9482" stop-color="#F0DED2"/>
<stop offset="0.953125" stop-color="#F1DFD3"/>
<stop offset="0.96875" stop-color="#F1DFD3"/>
<stop offset="0.984375" stop-color="#F2E0D4"/>
<stop offset="1" stop-color="#F2E1D5"/>
</linearGradient>
<linearGradient id="paint1_linear_360_2498" x1="490.295" y1="432.542" x2="487.352" y2="427.627" gradientUnits="userSpaceOnUse">
<stop stop-color="#C3A49E"/>
<stop offset="0.125" stop-color="#C3A49E"/>
<stop offset="0.1875" stop-color="#C3A49E"/>
<stop offset="0.21875" stop-color="#C3A49E"/>
<stop offset="0.234375" stop-color="#C3A49E"/>
<stop offset="0.238281" stop-color="#C4A59F"/>
<stop offset="0.242188" stop-color="#C5A6A0"/>
<stop offset="0.246094" stop-color="#C5A6A0"/>
<stop offset="0.25" stop-color="#C5A7A1"/>
<stop offset="0.253906" stop-color="#C6A8A1"/>
<stop offset="0.257812" stop-color="#C6A8A2"/>
<stop offset="0.261719" stop-color="#C7A9A3"/>
<stop offset="0.265625" stop-color="#C7AAA3"/>
<stop offset="0.269531" stop-color="#C8AAA4"/>
<stop offset="0.273438" stop-color="#C8ABA4"/>
<stop offset="0.277344" stop-color="#C9ABA5"/>
<stop offset="0.28125" stop-color="#C9ACA5"/>
<stop offset="0.285156" stop-color="#CAADA6"/>
<stop offset="0.289062" stop-color="#CAADA6"/>
<stop offset="0.292969" stop-color="#CBAEA7"/>
<stop offset="0.296875" stop-color="#CBAEA7"/>
<stop offset="0.300781" stop-color="#CCAFA8"/>
<stop offset="0.304688" stop-color="#CCB0A9"/>
<stop offset="0.308594" stop-color="#CDB0A9"/>
<stop offset="0.3125" stop-color="#CDB1AA"/>
<stop offset="0.316406" stop-color="#CEB2AA"/>
<stop offset="0.320312" stop-color="#CEB2AB"/>
<stop offset="0.324219" stop-color="#CFB3AB"/>
<stop offset="0.328125" stop-color="#CFB3AC"/>
<stop offset="0.332031" stop-color="#CFB4AC"/>
<stop offset="0.335938" stop-color="#D0B5AD"/>
<stop offset="0.339844" stop-color="#D0B5AE"/>
<stop offset="0.34375" stop-color="#D1B6AE"/>
<stop offset="0.347656" stop-color="#D1B6AF"/>
<stop offset="0.351562" stop-color="#D2B7AF"/>
<stop offset="0.355469" stop-color="#D2B8B0"/>
<stop offset="0.359375" stop-color="#D3B8B0"/>
<stop offset="0.363281" stop-color="#D3B9B1"/>
<stop offset="0.367188" stop-color="#D4BAB1"/>
<stop offset="0.371094" stop-color="#D4BAB2"/>
<stop offset="0.375" stop-color="#D5BBB2"/>
<stop offset="0.378906" stop-color="#D5BBB3"/>
<stop offset="0.382812" stop-color="#D6BCB4"/>
<stop offset="0.386719" stop-color="#D6BDB4"/>
<stop offset="0.390625" stop-color="#D7BDB5"/>
<stop offset="0.394531" stop-color="#D7BEB5"/>
<stop offset="0.398438" stop-color="#D8BEB6"/>
<stop offset="0.402344" stop-color="#D8BFB6"/>
<stop offset="0.40625" stop-color="#D9C0B7"/>
<stop offset="0.410156" stop-color="#D9C0B7"/>
<stop offset="0.414062" stop-color="#DAC1B8"/>
<stop offset="0.417969" stop-color="#DAC2B9"/>
<stop offset="0.421875" stop-color="#DAC2B9"/>
<stop offset="0.425781" stop-color="#DBC3BA"/>
<stop offset="0.429688" stop-color="#DBC3BA"/>
<stop offset="0.433594" stop-color="#DCC4BB"/>
<stop offset="0.4375" stop-color="#DCC5BB"/>
<stop offset="0.441406" stop-color="#DDC5BC"/>
<stop offset="0.445312" stop-color="#DDC6BC"/>
<stop offset="0.449219" stop-color="#DEC6BD"/>
<stop offset="0.453125" stop-color="#DEC7BD"/>
<stop offset="0.457031" stop-color="#DFC8BE"/>
<stop offset="0.460938" stop-color="#DFC8BF"/>
<stop offset="0.464844" stop-color="#E0C9BF"/>
<stop offset="0.46875" stop-color="#E0CAC0"/>
<stop offset="0.472656" stop-color="#E1CAC0"/>
<stop offset="0.476562" stop-color="#E1CBC1"/>
<stop offset="0.480469" stop-color="#E2CBC1"/>
<stop offset="0.484375" stop-color="#E2CCC2"/>
<stop offset="0.488281" stop-color="#E3CDC2"/>
<stop offset="0.492188" stop-color="#E3CDC3"/>
<stop offset="0.496094" stop-color="#E4CEC4"/>
<stop offset="0.5" stop-color="#E4CEC4"/>
<stop offset="0.503906" stop-color="#E5CFC5"/>
<stop offset="0.507812" stop-color="#E5D0C5"/>
<stop offset="0.511719" stop-color="#E5D0C6"/>
<stop offset="0.515625" stop-color="#E6D1C6"/>
<stop offset="0.519531" stop-color="#E6D2C7"/>
<stop offset="0.523438" stop-color="#E7D2C7"/>
<stop offset="0.527344" stop-color="#E7D3C8"/>
<stop offset="0.53125" stop-color="#E8D3C8"/>
<stop offset="0.535156" stop-color="#E8D4C9"/>
<stop offset="0.539062" stop-color="#E9D5CA"/>
<stop offset="0.542969" stop-color="#E9D5CA"/>
<stop offset="0.546875" stop-color="#EAD6CB"/>
<stop offset="0.550781" stop-color="#EAD6CB"/>
<stop offset="0.554688" stop-color="#EBD7CC"/>
<stop offset="0.558594" stop-color="#EBD8CC"/>
<stop offset="0.5625" stop-color="#ECD8CD"/>
<stop offset="0.566406" stop-color="#ECD9CD"/>
<stop offset="0.570312" stop-color="#EDDACE"/>
<stop offset="0.574219" stop-color="#EDDACF"/>
<stop offset="0.578125" stop-color="#EEDBCF"/>
<stop offset="0.582031" stop-color="#EEDBD0"/>
<stop offset="0.585938" stop-color="#EFDCD0"/>
<stop offset="0.589844" stop-color="#EFDDD1"/>
<stop offset="0.59375" stop-color="#EFDDD1"/>
<stop offset="0.597656" stop-color="#F0DED2"/>
<stop offset="0.601562" stop-color="#F0DED2"/>
<stop offset="0.605469" stop-color="#F1DFD3"/>
<stop offset="0.609375" stop-color="#F1E0D3"/>
<stop offset="0.613281" stop-color="#F2E0D4"/>
<stop offset="0.617188" stop-color="#F2E1D5"/>
<stop offset="0.621094" stop-color="#F3E2D5"/>
<stop offset="0.625" stop-color="#F3E2D6"/>
<stop offset="0.628906" stop-color="#F4E3D6"/>
<stop offset="0.632812" stop-color="#F4E3D7"/>
<stop offset="0.636719" stop-color="#F5E4D7"/>
<stop offset="0.640625" stop-color="#F5E5D8"/>
<stop offset="0.644531" stop-color="#F6E5D8"/>
<stop offset="0.648438" stop-color="#F6E6D9"/>
<stop offset="0.652344" stop-color="#F7E6D9"/>
<stop offset="0.65625" stop-color="#F7E7DA"/>
<stop offset="0.678829" stop-color="#F7E7DA"/>
<stop offset="0.6875" stop-color="#F7E7DA"/>
<stop offset="0.75" stop-color="#F7E7DA"/>
<stop offset="1" stop-color="#F7E7DA"/>
</linearGradient>
<linearGradient id="paint2_linear_360_2498" x1="321.889" y1="55.8336" x2="338.241" y2="-30.5412" gradientUnits="userSpaceOnUse">
<stop stop-color="#D6BDB4"/>
<stop offset="0.03125" stop-color="#D7BDB5"/>
<stop offset="0.0625" stop-color="#D7BEB5"/>
<stop offset="0.09375" stop-color="#D8BFB6"/>
<stop offset="0.125" stop-color="#D8BFB7"/>
<stop offset="0.15625" stop-color="#D9C0B7"/>
<stop offset="0.1875" stop-color="#D9C1B8"/>
<stop offset="0.21875" stop-color="#DAC1B8"/>
<stop offset="0.25" stop-color="#DAC2B9"/>
<stop offset="0.28125" stop-color="#DBC3BA"/>
<stop offset="0.282807" stop-color="#DBC3BA"/>
<stop offset="0.3125" stop-color="#DCC4BA"/>
<stop offset="0.34375" stop-color="#DCC4BB"/>
<stop offset="0.375" stop-color="#DCC5BB"/>
<stop offset="0.40625" stop-color="#DDC5BC"/>
<stop offset="0.4375" stop-color="#DEC6BD"/>
<stop offset="0.46875" stop-color="#DEC7BD"/>
<stop offset="0.5" stop-color="#DFC7BE"/>
<stop offset="0.53125" stop-color="#DFC8BE"/>
<stop offset="0.5625" stop-color="#E0C9BF"/>
<stop offset="0.59375" stop-color="#E0C9C0"/>
<stop offset="0.625" stop-color="#E1CAC0"/>
<stop offset="0.65625" stop-color="#E1CBC1"/>
<stop offset="0.6875" stop-color="#E2CCC1"/>
<stop offset="0.717193" stop-color="#E2CCC2"/>
<stop offset="0.71875" stop-color="#E3CDC2"/>
<stop offset="0.75" stop-color="#E3CDC3"/>
<stop offset="0.78125" stop-color="#E3CEC3"/>
<stop offset="0.8125" stop-color="#E4CEC4"/>
<stop offset="0.84375" stop-color="#E4CFC4"/>
<stop offset="0.875" stop-color="#E5D0C5"/>
<stop offset="0.90625" stop-color="#E5D0C6"/>
<stop offset="0.9375" stop-color="#E6D1C6"/>
<stop offset="0.96875" stop-color="#E7D2C7"/>
<stop offset="1" stop-color="#E7D2C8"/>
</linearGradient>
<linearGradient id="paint3_linear_360_2498" x1="206.894" y1="40.0843" x2="208.48" y2="63.2646" gradientUnits="userSpaceOnUse">
<stop stop-color="#CFB4AC"/>
<stop offset="0.03125" stop-color="#D0B4AD"/>
<stop offset="0.0625" stop-color="#D0B5AD"/>
<stop offset="0.09375" stop-color="#D0B5AE"/>
<stop offset="0.125" stop-color="#D1B6AE"/>
<stop offset="0.15625" stop-color="#D1B6AE"/>
<stop offset="0.1875" stop-color="#D2B7AF"/>
<stop offset="0.203027" stop-color="#D2B7AF"/>
<stop offset="0.21875" stop-color="#D2B8B0"/>
<stop offset="0.25" stop-color="#D3B8B0"/>
<stop offset="0.28125" stop-color="#D3B8B0"/>
<stop offset="0.3125" stop-color="#D3B9B1"/>
<stop offset="0.34375" stop-color="#D4B9B1"/>
<stop offset="0.375" stop-color="#D4BAB2"/>
<stop offset="0.40625" stop-color="#D5BAB2"/>
<stop offset="0.4375" stop-color="#D5BBB3"/>
<stop offset="0.46875" stop-color="#D5BBB3"/>
<stop offset="0.5" stop-color="#D6BCB4"/>
<stop offset="0.53125" stop-color="#D6BDB4"/>
<stop offset="0.5625" stop-color="#D7BDB5"/>
<stop offset="0.59375" stop-color="#D7BEB5"/>
<stop offset="0.625" stop-color="#D7BEB5"/>
<stop offset="0.65625" stop-color="#D8BFB6"/>
<stop offset="0.6875" stop-color="#D8BFB6"/>
<stop offset="0.71875" stop-color="#D9C0B7"/>
<stop offset="0.75" stop-color="#D9C0B7"/>
<stop offset="0.78125" stop-color="#D9C1B8"/>
<stop offset="0.796973" stop-color="#DAC1B8"/>
<stop offset="0.8125" stop-color="#DAC1B8"/>
<stop offset="0.84375" stop-color="#DAC2B9"/>
<stop offset="0.875" stop-color="#DBC2B9"/>
<stop offset="0.90625" stop-color="#DBC3BA"/>
<stop offset="0.9375" stop-color="#DBC3BA"/>
<stop offset="0.96875" stop-color="#DCC4BB"/>
<stop offset="1" stop-color="#DCC4BB"/>
</linearGradient>
<linearGradient id="paint4_linear_360_2498" x1="295.162" y1="195.923" x2="509.378" y2="352.133" gradientUnits="userSpaceOnUse">
<stop stop-color="#D7BDB5"/>
<stop offset="0.015625" stop-color="#D7BDB5"/>
<stop offset="0.03125" stop-color="#D7BEB6"/>
<stop offset="0.046875" stop-color="#D8BFB6"/>
<stop offset="0.0625" stop-color="#D9C0B7"/>
<stop offset="0.078125" stop-color="#D9C0B8"/>
<stop offset="0.09375" stop-color="#DAC1B8"/>
<stop offset="0.109375" stop-color="#DAC2B9"/>
<stop offset="0.125" stop-color="#DBC3BA"/>
<stop offset="0.140625" stop-color="#DBC3BA"/>
<stop offset="0.15625" stop-color="#DCC4BB"/>
<stop offset="0.171875" stop-color="#DDC5BC"/>
<stop offset="0.1875" stop-color="#DDC6BC"/>
<stop offset="0.203125" stop-color="#DEC6BD"/>
<stop offset="0.21875" stop-color="#DEC7BE"/>
<stop offset="0.228406" stop-color="#DFC8BE"/>
<stop offset="0.234375" stop-color="#DFC8BF"/>
<stop offset="0.25" stop-color="#E0C9BF"/>
<stop offset="0.265625" stop-color="#E0C9C0"/>
<stop offset="0.28125" stop-color="#E1CAC0"/>
<stop offset="0.296875" stop-color="#E1CBC1"/>
<stop offset="0.3125" stop-color="#E2CCC2"/>
<stop offset="0.328125" stop-color="#E2CCC2"/>
<stop offset="0.34375" stop-color="#E3CDC3"/>
<stop offset="0.359375" stop-color="#E4CEC4"/>
<stop offset="0.375" stop-color="#E4CFC4"/>
<stop offset="0.390625" stop-color="#E5CFC5"/>
<stop offset="0.40625" stop-color="#E5D0C6"/>
<stop offset="0.421875" stop-color="#E6D1C6"/>
<stop offset="0.4375" stop-color="#E7D2C7"/>
<stop offset="0.453125" stop-color="#E7D2C8"/>
<stop offset="0.46875" stop-color="#E8D3C8"/>
<stop offset="0.484375" stop-color="#E8D4C9"/>
<stop offset="0.5" stop-color="#E9D5CA"/>
<stop offset="0.515625" stop-color="#E9D5CA"/>
<stop offset="0.53125" stop-color="#EAD6CB"/>
<stop offset="0.546875" stop-color="#EBD7CC"/>
<stop offset="0.5625" stop-color="#EBD8CC"/>
<stop offset="0.578125" stop-color="#ECD8CD"/>
<stop offset="0.59375" stop-color="#ECD9CE"/>
<stop offset="0.609375" stop-color="#EDDACE"/>
<stop offset="0.625" stop-color="#EDDBCF"/>
<stop offset="0.640625" stop-color="#EEDBD0"/>
<stop offset="0.65625" stop-color="#EFDCD0"/>
<stop offset="0.671875" stop-color="#EFDDD1"/>
<stop offset="0.6875" stop-color="#F0DED2"/>
<stop offset="0.703125" stop-color="#F0DED2"/>
<stop offset="0.71875" stop-color="#F1DFD3"/>
<stop offset="0.734375" stop-color="#F2E0D4"/>
<stop offset="0.75" stop-color="#F2E1D4"/>
<stop offset="0.765625" stop-color="#F3E1D5"/>
<stop offset="0.771594" stop-color="#F3E2D6"/>
<stop offset="0.78125" stop-color="#F4E3D6"/>
<stop offset="0.796875" stop-color="#F4E3D6"/>
<stop offset="0.8125" stop-color="#F4E4D7"/>
<stop offset="0.828125" stop-color="#F5E4D8"/>
<stop offset="0.84375" stop-color="#F6E5D8"/>
<stop offset="0.859375" stop-color="#F6E6D9"/>
<stop offset="0.875" stop-color="#F7E7DA"/>
<stop offset="1" stop-color="#F7E7DA"/>
</linearGradient>
<linearGradient id="paint5_linear_360_2498" x1="102.831" y1="290.366" x2="251.987" y2="399.133" gradientUnits="userSpaceOnUse">
<stop stop-color="#DFC8BE"/>
<stop offset="0.015625" stop-color="#DFC8BF"/>
<stop offset="0.03125" stop-color="#E0C9BF"/>
<stop offset="0.046875" stop-color="#E0C9C0"/>
<stop offset="0.0625" stop-color="#E1CAC0"/>
<stop offset="0.078125" stop-color="#E1CBC1"/>
<stop offset="0.09375" stop-color="#E1CBC1"/>
<stop offset="0.109375" stop-color="#E2CCC2"/>
<stop offset="0.125" stop-color="#E2CCC2"/>
<stop offset="0.140625" stop-color="#E3CDC3"/>
<stop offset="0.15625" stop-color="#E3CDC3"/>
<stop offset="0.171875" stop-color="#E4CEC4"/>
<stop offset="0.1875" stop-color="#E4CEC4"/>
<stop offset="0.203125" stop-color="#E4CFC5"/>
<stop offset="0.21875" stop-color="#E5D0C5"/>
<stop offset="0.234375" stop-color="#E5D0C6"/>
<stop offset="0.25" stop-color="#E6D1C6"/>
<stop offset="0.265625" stop-color="#E6D1C7"/>
<stop offset="0.28125" stop-color="#E7D2C7"/>
<stop offset="0.296875" stop-color="#E7D2C8"/>
<stop offset="0.3125" stop-color="#E7D3C8"/>
<stop offset="0.316587" stop-color="#E8D3C9"/>
<stop offset="0.328125" stop-color="#E8D4C9"/>
<stop offset="0.34375" stop-color="#E8D4C9"/>
<stop offset="0.359375" stop-color="#E9D5CA"/>
<stop offset="0.375" stop-color="#E9D5CA"/>
<stop offset="0.390625" stop-color="#EAD6CB"/>
<stop offset="0.40625" stop-color="#EAD6CB"/>
<stop offset="0.421875" stop-color="#EBD7CC"/>
<stop offset="0.4375" stop-color="#EBD7CC"/>
<stop offset="0.453125" stop-color="#EBD8CD"/>
<stop offset="0.46875" stop-color="#ECD8CD"/>
<stop offset="0.484375" stop-color="#ECD9CE"/>
<stop offset="0.5" stop-color="#EDDACE"/>
<stop offset="0.515625" stop-color="#EDDACF"/>
<stop offset="0.53125" stop-color="#EEDBCF"/>
<stop offset="0.546875" stop-color="#EEDBD0"/>
<stop offset="0.5625" stop-color="#EEDCD0"/>
<stop offset="0.578125" stop-color="#EFDCD1"/>
<stop offset="0.59375" stop-color="#EFDDD1"/>
<stop offset="0.609375" stop-color="#F0DDD2"/>
<stop offset="0.625" stop-color="#F0DED2"/>
<stop offset="0.640625" stop-color="#F1DFD3"/>
<stop offset="0.65625" stop-color="#F1DFD3"/>
<stop offset="0.671875" stop-color="#F1E0D3"/>
<stop offset="0.683413" stop-color="#F2E0D4"/>
<stop offset="0.6875" stop-color="#F2E1D4"/>
<stop offset="0.703125" stop-color="#F2E1D4"/>
<stop offset="0.71875" stop-color="#F3E1D5"/>
<stop offset="0.734375" stop-color="#F3E2D5"/>
<stop offset="0.75" stop-color="#F4E3D6"/>
<stop offset="0.765625" stop-color="#F4E3D6"/>
<stop offset="0.78125" stop-color="#F4E4D7"/>
<stop offset="0.796875" stop-color="#F5E4D7"/>
<stop offset="0.8125" stop-color="#F5E5D8"/>
<stop offset="0.828125" stop-color="#F6E5D8"/>
<stop offset="0.84375" stop-color="#F6E6D9"/>
<stop offset="0.875" stop-color="#F7E7DA"/>
<stop offset="1" stop-color="#F7E7DA"/>
</linearGradient>
<linearGradient id="paint6_linear_360_2498" x1="330.879" y1="49.7676" x2="340.449" y2="63.0699" gradientUnits="userSpaceOnUse">
<stop stop-color="#DCC4BB"/>
<stop offset="0.125" stop-color="#DCC5BB"/>
<stop offset="0.25" stop-color="#DDC5BC"/>
<stop offset="0.375" stop-color="#DEC6BD"/>
<stop offset="0.418236" stop-color="#DEC7BD"/>
<stop offset="0.5" stop-color="#DFC7BE"/>
<stop offset="0.581764" stop-color="#DFC8BE"/>
<stop offset="0.625" stop-color="#DFC8BE"/>
<stop offset="0.75" stop-color="#E0C9BF"/>
<stop offset="0.875" stop-color="#E0C9C0"/>
<stop offset="1" stop-color="#E1CAC0"/>
</linearGradient>
<linearGradient id="paint7_linear_360_2498" x1="330.879" y1="33.4827" x2="340.449" y2="46.7849" gradientUnits="userSpaceOnUse">
<stop stop-color="#DCC4BB"/>
<stop offset="0.125" stop-color="#DCC5BB"/>
<stop offset="0.25" stop-color="#DDC5BC"/>
<stop offset="0.375" stop-color="#DEC6BD"/>
<stop offset="0.418236" stop-color="#DEC7BD"/>
<stop offset="0.5" stop-color="#DFC7BE"/>
<stop offset="0.581764" stop-color="#DFC8BE"/>
<stop offset="0.625" stop-color="#DFC8BE"/>
<stop offset="0.75" stop-color="#E0C9BF"/>
<stop offset="0.875" stop-color="#E0C9C0"/>
<stop offset="1" stop-color="#E1CAC0"/>
</linearGradient>
<linearGradient id="paint8_linear_360_2498" x1="295.068" y1="73.577" x2="294.826" y2="90.4393" gradientUnits="userSpaceOnUse">
<stop stop-color="#D0B5AD"/>
<stop offset="0.125" stop-color="#D0B5AD"/>
<stop offset="0.245496" stop-color="#D1B6AE"/>
<stop offset="0.25" stop-color="#D1B6AE"/>
<stop offset="0.375" stop-color="#D1B6AE"/>
<stop offset="0.5" stop-color="#D2B7AF"/>
<stop offset="0.625" stop-color="#D2B7AF"/>
<stop offset="0.75" stop-color="#D3B8B0"/>
<stop offset="0.754504" stop-color="#D3B9B0"/>
<stop offset="0.875" stop-color="#D3B9B1"/>
<stop offset="1" stop-color="#D3B9B1"/>
</linearGradient>
</defs>
</svg>
