<svg width="351" height="449" viewBox="0 0 351 449" fill="none" xmlns="http://www.w3.org/2000/svg">
<mask id="mask0_360_1296" style="mask-type:luminance" maskUnits="userSpaceOnUse" x="62" y="0" width="289" height="449">
<path d="M62.875 0.385742H350.932V448.386H62.875V0.385742Z" fill="white"/>
</mask>
<g mask="url(#mask0_360_1296)">
<mask id="mask1_360_1296" style="mask-type:luminance" maskUnits="userSpaceOnUse" x="62" y="0" width="289" height="448">
<path d="M350.932 18.8442V413.308C350.932 420.089 347.166 425.985 341.609 429.011L334.041 431.157L276.796 447.375L279.051 431.183H80.8275C70.9577 431.183 62.9629 423.183 62.9629 413.308V18.8442C62.9629 8.97445 70.9577 0.969238 80.8275 0.969238H333.072C342.937 0.969238 350.932 8.97445 350.932 18.8442Z" fill="white"/>
</mask>
<g mask="url(#mask1_360_1296)">
<path d="M62.9629 0.969238V447.375H350.932V0.969238H62.9629Z" fill="url(#paint0_linear_360_1296)"/>
</g>
</g>
<mask id="mask2_360_1296" style="mask-type:luminance" maskUnits="userSpaceOnUse" x="333" y="428" width="10" height="5">
<path d="M333.543 428.386H342.876V432.386H333.543V428.386Z" fill="white"/>
</mask>
<g mask="url(#mask2_360_1296)">
<mask id="mask3_360_1296" style="mask-type:luminance" maskUnits="userSpaceOnUse" x="334" y="429" width="8" height="3">
<path d="M341.611 429.011C339.34 430.25 336.777 431.011 334.043 431.157L341.611 429.011Z" fill="white"/>
</mask>
<g mask="url(#mask3_360_1296)">
<path d="M334.043 429.011V431.157H341.611V429.011H334.043Z" fill="url(#paint1_linear_360_1296)"/>
</g>
</g>
<mask id="mask4_360_1296" style="mask-type:luminance" maskUnits="userSpaceOnUse" x="9" y="0" width="340" height="26">
<path d="M9.54297 0H348.21V25.7188H9.54297V0Z" fill="white"/>
</mask>
<g mask="url(#mask4_360_1296)">
<mask id="mask5_360_1296" style="mask-type:luminance" maskUnits="userSpaceOnUse" x="10" y="0" width="338" height="26">
<path d="M10.4434 20.0627L74.4277 1.32834C77.0996 0.54709 79.8704 0.156464 82.6517 0.161672L334.568 0.984589C336.298 0.974172 338.006 1.34917 339.553 2.10959C342.037 3.31792 345.636 5.38563 347.079 7.75542C349.376 11.5367 284.303 25.4585 284.303 25.4585L10.4434 20.0627Z" fill="white"/>
</mask>
<g mask="url(#mask5_360_1296)">
<path d="M10.4434 0.15625V25.4583H349.376V0.15625H10.4434Z" fill="url(#paint2_linear_360_1296)"/>
</g>
</g>
<mask id="mask6_360_1296" style="mask-type:luminance" maskUnits="userSpaceOnUse" x="0" y="17" width="289" height="432">
<path d="M0 17.7188H288.208V448.786H0V17.7188Z" fill="white"/>
</mask>
<g mask="url(#mask6_360_1296)">
<path d="M287.984 36.3228V430.786C287.984 440.661 279.984 448.661 270.124 448.661L213.041 445.708L72.3431 438.417L17.8796 435.594C8.00977 435.594 0.00976562 427.594 0.00976562 417.719V36.3228C0.00976562 26.453 8.00977 18.4478 17.8796 18.4478H270.124C279.984 18.4478 287.984 26.453 287.984 36.3228Z" fill="#F7E7DA"/>
</g>
<path d="M256.96 52.3854C256.96 53.5729 256.845 54.7552 256.611 55.9219C256.382 57.0885 256.038 58.2188 255.585 59.3177C255.126 60.4219 254.569 61.4635 253.908 62.4531C253.251 63.4427 252.496 64.3594 251.658 65.1979C250.819 66.0417 249.902 66.7917 248.913 67.4531C247.923 68.1146 246.882 68.6719 245.783 69.125C244.684 69.5833 243.553 69.9271 242.387 70.1562C241.22 70.3906 240.043 70.5052 238.855 70.5052C237.663 70.5052 236.486 70.3906 235.319 70.1562C234.152 69.9271 233.022 69.5833 231.923 69.125C230.824 68.6719 229.783 68.1146 228.793 67.4531C227.803 66.7917 226.892 66.0417 226.048 65.1979C225.21 64.3594 224.46 63.4427 223.798 62.4531C223.137 61.4635 222.579 60.4219 222.121 59.3177C221.668 58.2188 221.324 57.0885 221.095 55.9219C220.861 54.7552 220.746 53.5729 220.746 52.3854C220.746 51.1979 220.861 50.0156 221.095 48.849C221.324 47.6823 221.668 46.5521 222.121 45.4531C222.579 44.3542 223.137 43.3073 223.798 42.3177C224.46 41.3281 225.21 40.4115 226.048 39.5729C226.892 38.7292 227.803 37.9792 228.793 37.3177C229.783 36.6562 230.824 36.099 231.923 35.6458C233.022 35.1875 234.152 34.8438 235.319 34.6146C236.486 34.3802 237.663 34.2656 238.855 34.2656C240.043 34.2656 241.22 34.3802 242.387 34.6146C243.553 34.8438 244.684 35.1875 245.783 35.6458C246.882 36.099 247.923 36.6562 248.913 37.3177C249.902 37.9792 250.819 38.7292 251.658 39.5729C252.496 40.4115 253.251 41.3281 253.908 42.3177C254.569 43.3073 255.126 44.3542 255.585 45.4531C256.038 46.5521 256.382 47.6823 256.611 48.849C256.845 50.0156 256.96 51.1979 256.96 52.3854Z" fill="#652C42"/>
<path d="M254.922 52.3851C254.922 53.4424 254.823 54.4893 254.615 55.5257C254.411 56.557 254.104 57.5622 253.703 58.5413C253.297 59.5153 252.802 60.4424 252.214 61.3226C251.63 62.1976 250.964 63.0101 250.219 63.7601C249.469 64.5049 248.656 65.1716 247.781 65.7601C246.906 66.3434 245.979 66.8382 245 67.2445C244.026 67.6507 243.021 67.9528 241.99 68.1611C240.953 68.3643 239.906 68.4684 238.854 68.4684C237.797 68.4684 236.75 68.3643 235.719 68.1611C234.682 67.9528 233.677 67.6507 232.703 67.2445C231.724 66.8382 230.802 66.3434 229.922 65.7601C229.047 65.1716 228.234 64.5049 227.49 63.7601C226.74 63.0101 226.073 62.1976 225.49 61.3226C224.901 60.4424 224.406 59.5153 224.005 58.5413C223.599 57.5622 223.292 56.557 223.089 55.5257C222.88 54.4893 222.781 53.4424 222.781 52.3851C222.781 51.3278 222.88 50.2809 223.089 49.2497C223.292 48.2132 223.599 47.208 224.005 46.2288C224.406 45.2549 224.901 44.3278 225.49 43.4476C226.073 42.5726 226.74 41.7601 227.49 41.0101C228.234 40.2653 229.047 39.5986 229.922 39.0101C230.802 38.4268 231.724 37.932 232.703 37.5257C233.677 37.1195 234.682 36.8174 235.719 36.609C236.75 36.4059 237.797 36.3018 238.854 36.3018C239.906 36.3018 240.953 36.4059 241.99 36.609C243.021 36.8174 244.026 37.1195 245 37.5257C245.979 37.932 246.906 38.4268 247.781 39.0101C248.656 39.5986 249.469 40.2653 250.219 41.0101C250.964 41.7601 251.63 42.5726 252.214 43.4476C252.802 44.3278 253.297 45.2549 253.703 46.2288C254.104 47.208 254.411 48.2132 254.615 49.2497C254.823 50.2809 254.922 51.3278 254.922 52.3851Z" fill="#F7E7DA"/>
<mask id="mask7_360_1296" style="mask-type:luminance" maskUnits="userSpaceOnUse" x="21" y="41" width="72" height="19">
<path d="M21.543 41.7188H92.2096V59.0521H21.543V41.7188Z" fill="white"/>
</mask>
<g mask="url(#mask7_360_1296)">
<mask id="mask8_360_1296" style="mask-type:luminance" maskUnits="userSpaceOnUse" x="21" y="42" width="71" height="17">
<path d="M21.9121 42.4062C21.9121 42.4062 76.8809 44.0938 91.0475 42.4062V57.9323C91.0475 57.9323 34.0527 60.9688 21.9121 54.8958V42.4062Z" fill="white"/>
</mask>
<g mask="url(#mask8_360_1296)">
<path d="M21.9121 42.4062V60.9688H91.0475V42.4062H21.9121Z" fill="url(#paint3_linear_360_1296)"/>
</g>
</g>
<path d="M25.849 140.385C25.849 141.849 25.8385 143.307 25.8177 144.76C25.8021 146.213 25.7708 147.656 25.7344 149.088C25.6979 150.526 25.651 151.937 25.5938 153.338C25.5417 154.734 25.474 156.109 25.401 157.458C25.3281 158.812 25.25 160.13 25.1562 161.416C25.0677 162.708 24.9687 163.958 24.8646 165.172C24.7552 166.39 24.6406 167.562 24.5208 168.692C24.401 169.817 24.2708 170.901 24.1354 171.932C24 172.968 23.8594 173.948 23.7083 174.875C23.5625 175.802 23.4115 176.672 23.25 177.484C23.0885 178.297 22.9271 179.047 22.7604 179.734C22.5885 180.422 22.4167 181.047 22.2396 181.604C22.0625 182.166 21.8802 182.656 21.6979 183.083C21.5156 183.505 21.3281 183.859 21.1406 184.146C20.9531 184.432 20.7656 184.646 20.5729 184.786C20.3854 184.932 20.1927 185 20 185C19.8125 185 19.6198 184.932 19.4271 184.786C19.2396 184.646 19.0521 184.432 18.8646 184.146C18.6719 183.859 18.4896 183.505 18.3073 183.083C18.1198 182.656 17.9427 182.166 17.7656 181.604C17.5885 181.047 17.4167 180.422 17.2448 179.734C17.0781 179.047 16.9167 178.297 16.7552 177.484C16.5937 176.672 16.4427 175.802 16.2917 174.875C16.1458 173.948 16.0052 172.968 15.8698 171.932C15.7344 170.901 15.6042 169.817 15.4844 168.692C15.3646 167.562 15.25 166.39 15.1406 165.172C15.0365 163.958 14.9375 162.708 14.849 161.416C14.7552 160.13 14.6771 158.812 14.6042 157.458C14.5313 156.109 14.4635 154.734 14.4062 153.338C14.3542 151.937 14.3073 150.526 14.2708 149.088C14.2344 147.656 14.2031 146.213 14.1875 144.76C14.1667 143.307 14.1562 141.849 14.1562 140.385C14.1562 138.927 14.1667 137.468 14.1875 136.015C14.2031 134.557 14.2344 133.114 14.2708 131.682C14.3073 130.25 14.3542 128.833 14.4062 127.437C14.4635 126.036 14.5313 124.661 14.6042 123.312C14.6771 121.963 14.7552 120.646 14.849 119.354C14.9375 118.067 15.0365 116.812 15.1406 115.599C15.25 114.385 15.3646 113.213 15.4844 112.083C15.6042 110.953 15.7344 109.869 15.8698 108.838C16.0052 107.807 16.1458 106.828 16.2917 105.901C16.4427 104.974 16.5937 104.104 16.7552 103.291C16.9167 102.479 17.0781 101.729 17.2448 101.041C17.4167 100.349 17.5885 99.7288 17.7656 99.1663C17.9427 98.609 18.1198 98.1143 18.3073 97.6924C18.4896 97.2705 18.6719 96.9111 18.8646 96.6299C19.0521 96.3434 19.2396 96.1299 19.4271 95.984C19.6198 95.8434 19.8125 95.7705 20 95.7705C20.1927 95.7705 20.3854 95.8434 20.5729 95.984C20.7656 96.1299 20.9531 96.3434 21.1406 96.6299C21.3281 96.9111 21.5156 97.2705 21.6979 97.6924C21.8802 98.1143 22.0625 98.609 22.2396 99.1663C22.4167 99.7288 22.5885 100.349 22.7604 101.041C22.9271 101.729 23.0885 102.479 23.25 103.291C23.4115 104.104 23.5625 104.974 23.7083 105.901C23.8594 106.828 24 107.807 24.1354 108.838C24.2708 109.869 24.401 110.953 24.5208 112.083C24.6406 113.213 24.7552 114.385 24.8646 115.599C24.9687 116.812 25.0677 118.067 25.1562 119.354C25.25 120.646 25.3281 121.963 25.401 123.312C25.474 124.661 25.5417 126.036 25.5938 127.437C25.651 128.833 25.6979 130.25 25.7344 131.682C25.7708 133.114 25.8021 134.557 25.8177 136.015C25.8385 137.468 25.849 138.927 25.849 140.385Z" fill="white"/>
<mask id="mask9_360_1296" style="mask-type:luminance" maskUnits="userSpaceOnUse" x="212" y="100" width="77" height="349">
<path d="M212.209 100.386H288.209V448.787H212.209V100.386Z" fill="white"/>
</mask>
<g mask="url(#mask9_360_1296)">
<mask id="mask10_360_1296" style="mask-type:luminance" maskUnits="userSpaceOnUse" x="213" y="101" width="75" height="348">
<path d="M287.986 101.464V430.787C287.986 440.662 279.986 448.662 270.126 448.662L213.043 445.709C281.449 379.995 287.986 101.464 287.986 101.464Z" fill="white"/>
</mask>
<g mask="url(#mask10_360_1296)">
<path d="M213.043 101.464V448.662H287.986V101.464H213.043Z" fill="url(#paint4_linear_360_1296)"/>
</g>
</g>
<mask id="mask11_360_1296" style="mask-type:luminance" maskUnits="userSpaceOnUse" x="0" y="223" width="74" height="217">
<path d="M0 223.052H73.5417V439.052H0V223.052Z" fill="white"/>
</mask>
<g mask="url(#mask11_360_1296)">
<mask id="mask12_360_1296" style="mask-type:luminance" maskUnits="userSpaceOnUse" x="0" y="224" width="73" height="215">
<path d="M72.3431 438.416L17.8796 435.593C8.00977 435.593 0.00976562 427.593 0.00976562 417.718V224.296C8.35872 292.614 26.9941 397.864 72.3431 438.416Z" fill="white"/>
</mask>
<g mask="url(#mask12_360_1296)">
<path d="M0.00976562 224.296V438.416H72.3431V224.296H0.00976562Z" fill="url(#paint5_linear_360_1296)"/>
</g>
</g>
<path d="M262.428 224.713C262.428 226.63 262.382 228.547 262.288 230.458C262.194 232.375 262.053 234.286 261.861 236.198C261.673 238.104 261.439 240.005 261.158 241.906C260.876 243.802 260.553 245.687 260.178 247.573C259.803 249.453 259.382 251.323 258.918 253.182C258.454 255.041 257.939 256.89 257.387 258.724C256.829 260.562 256.225 262.38 255.585 264.187C254.939 265.989 254.246 267.781 253.512 269.552C252.783 271.323 252.007 273.078 251.184 274.807C250.366 276.541 249.507 278.255 248.6 279.948C247.699 281.635 246.751 283.307 245.767 284.948C244.783 286.593 243.757 288.213 242.694 289.807C241.632 291.406 240.527 292.968 239.387 294.51C238.241 296.052 237.064 297.562 235.85 299.047C234.632 300.526 233.382 301.979 232.095 303.401C230.809 304.823 229.486 306.208 228.132 307.567C226.777 308.922 225.392 310.244 223.97 311.531C222.548 312.817 221.1 314.073 219.616 315.286C218.137 316.505 216.626 317.682 215.09 318.828C213.548 319.968 211.98 321.073 210.387 322.135C208.793 323.203 207.178 324.229 205.533 325.213C203.892 326.198 202.225 327.146 200.533 328.047C198.845 328.953 197.132 329.812 195.397 330.635C193.668 331.453 191.918 332.229 190.147 332.963C188.376 333.698 186.59 334.39 184.783 335.036C182.98 335.682 181.158 336.281 179.324 336.838C177.491 337.396 175.647 337.906 173.788 338.375C171.928 338.838 170.059 339.26 168.178 339.635C166.298 340.005 164.413 340.333 162.517 340.614C160.621 340.896 158.72 341.13 156.814 341.317C154.908 341.51 152.996 341.651 151.085 341.744C149.168 341.838 147.251 341.885 145.335 341.885C143.418 341.885 141.507 341.838 139.59 341.744C137.678 341.651 135.767 341.51 133.861 341.317C131.954 341.13 130.053 340.896 128.158 340.614C126.262 340.333 124.371 340.005 122.496 339.635C120.616 339.26 118.746 338.838 116.887 338.375C115.027 337.906 113.178 337.396 111.345 336.838C109.512 336.281 107.694 335.682 105.892 335.036C104.085 334.39 102.298 333.698 100.527 332.963C98.7565 332.229 97.0065 331.453 95.2721 330.635C93.543 329.812 91.8294 328.953 90.1419 328.047C88.4492 327.146 86.7826 326.198 85.1419 325.213C83.4961 324.229 81.8763 323.203 80.2826 322.135C78.694 321.073 77.1263 319.968 75.5846 318.828C74.0482 317.682 72.5378 316.505 71.0534 315.286C69.5742 314.073 68.1211 312.817 66.7044 311.531C65.2826 310.244 63.8971 308.922 62.543 307.567C61.1888 306.208 59.8659 304.823 58.5794 303.401C57.293 301.979 56.043 300.526 54.8242 299.047C53.6107 297.562 52.4284 296.052 51.2878 294.51C50.1471 292.968 49.043 291.401 47.9805 289.807C46.9128 288.213 45.8919 286.593 44.9076 284.948C43.918 283.307 42.9753 281.635 42.0742 279.948C41.168 278.255 40.3086 276.541 39.4909 274.807C38.668 273.078 37.8919 271.323 37.1576 269.552C36.4284 267.781 35.7357 265.989 35.0898 264.187C34.444 262.38 33.8451 260.562 33.2878 258.724C32.7305 256.89 32.2201 255.041 31.7565 253.182C31.2878 251.323 30.8711 249.453 30.4961 247.573C30.1211 245.687 29.793 243.802 29.5117 241.906C29.2305 240.005 28.9961 238.104 28.8086 236.198C28.6211 234.286 28.4805 232.375 28.3867 230.458C28.293 228.547 28.2461 226.63 28.2461 224.713C28.2461 222.791 28.293 220.875 28.3867 218.963C28.4805 217.047 28.6211 215.135 28.8086 213.229C28.9961 211.317 29.2305 209.416 29.5117 207.521C29.793 205.619 30.1211 203.734 30.4961 201.854C30.8711 199.974 31.2878 198.099 31.7565 196.239C32.2201 194.38 32.7305 192.531 33.2878 190.698C33.8451 188.864 34.444 187.041 35.0898 185.239C35.7357 183.432 36.4284 181.64 37.1576 179.869C37.8919 178.099 38.668 176.349 39.4909 174.614C40.3086 172.88 41.168 171.166 42.0742 169.479C42.9753 167.786 43.918 166.119 44.9076 164.474C45.8919 162.828 46.9128 161.208 47.9805 159.614C49.043 158.021 50.1471 156.453 51.2878 154.911C52.4284 153.369 53.6107 151.859 54.8242 150.38C56.043 148.896 57.293 147.442 58.5794 146.021C59.8659 144.604 61.1888 143.213 62.543 141.859C63.8971 140.5 65.2826 139.182 66.7044 137.89C68.1211 136.604 69.5742 135.354 71.0534 134.135C72.5378 132.916 74.0482 131.739 75.5846 130.599C77.1263 129.453 78.694 128.349 80.2826 127.286C81.8763 126.218 83.4961 125.192 85.1419 124.208C86.7826 123.224 88.4492 122.276 90.1419 121.375C91.8294 120.468 93.543 119.609 95.2721 118.786C97.0065 117.968 98.7565 117.192 100.527 116.458C102.298 115.724 104.085 115.036 105.892 114.39C107.694 113.739 109.512 113.14 111.345 112.583C113.178 112.026 115.027 111.515 116.887 111.052C118.746 110.583 120.616 110.166 122.496 109.791C124.371 109.416 126.262 109.088 128.158 108.807C130.053 108.526 131.954 108.291 133.861 108.104C135.767 107.916 137.678 107.776 139.59 107.682C141.507 107.583 143.418 107.536 145.335 107.536C147.251 107.536 149.168 107.583 151.085 107.682C152.996 107.776 154.908 107.916 156.814 108.104C158.72 108.291 160.621 108.526 162.517 108.807C164.413 109.088 166.298 109.416 168.178 109.791C170.059 110.166 171.928 110.583 173.788 111.052C175.647 111.515 177.491 112.026 179.324 112.583C181.158 113.14 182.98 113.739 184.783 114.39C186.59 115.036 188.376 115.724 190.147 116.458C191.918 117.192 193.668 117.968 195.397 118.786C197.132 119.609 198.845 120.468 200.533 121.375C202.225 122.276 203.892 123.224 205.533 124.208C207.178 125.192 208.793 126.218 210.387 127.286C211.98 128.349 213.548 129.453 215.09 130.599C216.626 131.739 218.137 132.916 219.616 134.135C221.1 135.354 222.548 136.604 223.97 137.89C225.392 139.182 226.777 140.5 228.132 141.859C229.486 143.213 230.809 144.604 232.095 146.021C233.382 147.442 234.632 148.896 235.85 150.38C237.064 151.859 238.241 153.369 239.387 154.911C240.527 156.453 241.632 158.021 242.694 159.614C243.757 161.208 244.783 162.828 245.767 164.474C246.751 166.119 247.699 167.786 248.6 169.479C249.507 171.166 250.366 172.88 251.184 174.614C252.007 176.349 252.783 178.099 253.512 179.869C254.246 181.64 254.939 183.432 255.585 185.239C256.225 187.041 256.829 188.864 257.387 190.698C257.939 192.531 258.454 194.38 258.918 196.239C259.382 198.099 259.803 199.974 260.178 201.854C260.553 203.734 260.876 205.619 261.158 207.521C261.439 209.416 261.673 211.317 261.861 213.229C262.053 215.135 262.194 217.047 262.288 218.963C262.382 220.875 262.428 222.791 262.428 224.713Z" fill="#652C42"/>
<path d="M258.038 224.713C258.038 226.557 257.996 228.401 257.902 230.244C257.814 232.088 257.678 233.927 257.496 235.765C257.314 237.604 257.09 239.432 256.819 241.26C256.548 243.083 256.236 244.906 255.876 246.713C255.512 248.526 255.111 250.323 254.663 252.114C254.215 253.906 253.72 255.682 253.189 257.448C252.652 259.218 252.074 260.968 251.449 262.708C250.829 264.442 250.168 266.166 249.46 267.869C248.757 269.578 248.007 271.265 247.22 272.932C246.428 274.599 245.6 276.25 244.73 277.875C243.861 279.505 242.954 281.109 242.007 282.692C241.059 284.276 240.069 285.833 239.043 287.369C238.022 288.906 236.96 290.411 235.861 291.896C234.762 293.38 233.626 294.833 232.454 296.26C231.288 297.687 230.085 299.083 228.845 300.453C227.605 301.817 226.335 303.156 225.027 304.458C223.725 305.765 222.392 307.036 221.022 308.276C219.658 309.515 218.262 310.724 216.835 311.896C215.408 313.062 213.954 314.198 212.475 315.297C210.991 316.401 209.486 317.458 207.949 318.484C206.418 319.51 204.861 320.5 203.277 321.448C201.694 322.396 200.09 323.307 198.465 324.177C196.84 325.047 195.189 325.875 193.522 326.666C191.855 327.453 190.168 328.203 188.465 328.906C186.762 329.614 185.043 330.281 183.303 330.901C181.569 331.521 179.819 332.099 178.053 332.635C176.288 333.172 174.512 333.666 172.72 334.114C170.934 334.562 169.132 334.968 167.324 335.328C165.517 335.687 163.699 336 161.871 336.271C160.048 336.541 158.22 336.771 156.382 336.953C154.548 337.13 152.71 337.265 150.866 337.359C149.022 337.448 147.184 337.494 145.335 337.494C143.491 337.494 141.647 337.448 139.809 337.359C137.965 337.265 136.126 337.13 134.288 336.953C132.454 336.771 130.626 336.541 128.798 336.271C126.975 336 125.158 335.687 123.35 335.328C121.543 334.968 119.741 334.562 117.954 334.114C116.163 333.666 114.387 333.172 112.621 332.635C110.855 332.099 109.105 331.521 107.366 330.901C105.632 330.281 103.913 329.614 102.21 328.906C100.501 328.203 98.819 327.453 97.1523 326.666C95.4805 325.875 93.8346 325.047 92.2096 324.177C90.5846 323.307 88.9805 322.396 87.3971 321.448C85.8138 320.5 84.2565 319.51 82.7201 318.484C81.1888 317.458 79.6836 316.396 78.1992 315.297C76.7201 314.198 75.2669 313.062 73.8398 311.896C72.4128 310.724 71.0169 309.515 69.6523 308.276C68.2826 307.036 66.9492 305.765 65.6419 304.458C64.3398 303.156 63.069 301.817 61.8294 300.453C60.5898 299.083 59.3867 297.687 58.2148 296.26C57.0482 294.833 55.9128 293.38 54.8138 291.896C53.7148 290.411 52.6523 288.906 51.6263 287.369C50.6055 285.833 49.6159 284.276 48.668 282.692C47.7201 281.109 46.8138 279.505 45.944 277.875C45.0742 276.25 44.2409 274.599 43.4544 272.932C42.668 271.265 41.918 269.578 41.2148 267.869C40.5065 266.166 39.8451 264.442 39.2201 262.708C38.6003 260.968 38.0221 259.218 37.4857 257.448C36.9492 255.682 36.4596 253.906 36.0117 252.114C35.5638 250.323 35.1576 248.526 34.7982 246.713C34.4388 244.906 34.1263 243.083 33.8555 241.26C33.5846 239.432 33.3555 237.604 33.1784 235.765C32.9961 233.927 32.8607 232.088 32.7721 230.244C32.6784 228.401 32.6367 226.557 32.6367 224.713C32.6367 222.864 32.6784 221.021 32.7721 219.177C32.8607 217.333 32.9961 215.494 33.1784 213.656C33.3555 211.817 33.5846 209.989 33.8555 208.161C34.1263 206.338 34.4388 204.521 34.7982 202.708C35.1576 200.901 35.5638 199.099 36.0117 197.307C36.4596 195.515 36.9492 193.739 37.4857 191.974C38.0221 190.208 38.6003 188.453 39.2201 186.718C39.8451 184.979 40.5065 183.255 41.2148 181.552C41.918 179.849 42.668 178.161 43.4544 176.489C44.2409 174.823 45.0742 173.172 45.944 171.547C46.8138 169.916 47.7201 168.312 48.668 166.729C49.6159 165.146 50.6055 163.588 51.6263 162.052C52.6523 160.521 53.7148 159.01 54.8138 157.526C55.9128 156.047 57.0482 154.588 58.2148 153.161C59.3867 151.734 60.5898 150.338 61.8294 148.974C63.069 147.604 64.3398 146.265 65.6419 144.963C66.9492 143.656 68.2826 142.385 69.6523 141.146C71.0169 139.906 72.4128 138.703 73.8398 137.531C75.2669 136.359 76.7201 135.224 78.1992 134.125C79.6836 133.026 81.1888 131.963 82.7201 130.937C84.2565 129.911 85.8138 128.922 87.3971 127.974C88.9805 127.026 90.5846 126.114 92.2096 125.244C93.8346 124.375 95.4805 123.547 97.1523 122.755C98.819 121.968 100.501 121.218 102.21 120.515C103.913 119.807 105.632 119.146 107.366 118.521C109.105 117.901 110.855 117.323 112.621 116.786C114.387 116.25 116.163 115.76 117.954 115.307C119.741 114.859 121.543 114.458 123.35 114.099C125.158 113.734 126.975 113.422 128.798 113.151C130.626 112.88 132.454 112.651 134.288 112.474C136.126 112.291 137.965 112.156 139.809 112.067C141.647 111.974 143.491 111.927 145.335 111.927C147.184 111.927 149.022 111.974 150.866 112.067C152.71 112.156 154.548 112.291 156.382 112.474C158.22 112.651 160.048 112.88 161.871 113.151C163.699 113.422 165.517 113.734 167.324 114.099C169.132 114.458 170.934 114.859 172.72 115.307C174.512 115.76 176.288 116.25 178.053 116.786C179.819 117.323 181.569 117.901 183.303 118.521C185.043 119.146 186.762 119.807 188.465 120.515C190.168 121.218 191.855 121.968 193.522 122.755C195.189 123.547 196.84 124.375 198.465 125.244C200.09 126.114 201.694 127.026 203.277 127.974C204.861 128.922 206.418 129.911 207.949 130.937C209.486 131.963 210.991 133.026 212.475 134.125C213.954 135.224 215.408 136.359 216.835 137.531C218.262 138.703 219.658 139.906 221.022 141.146C222.392 142.385 223.725 143.656 225.027 144.963C226.335 146.265 227.605 147.604 228.845 148.974C230.085 150.338 231.288 151.734 232.454 153.161C233.626 154.588 234.762 156.047 235.861 157.526C236.96 159.01 238.022 160.521 239.043 162.052C240.069 163.588 241.059 165.146 242.007 166.729C242.954 168.312 243.861 169.916 244.73 171.547C245.6 173.172 246.428 174.823 247.22 176.489C248.007 178.161 248.757 179.849 249.46 181.552C250.168 183.255 250.829 184.979 251.449 186.718C252.074 188.453 252.652 190.208 253.189 191.974C253.72 193.739 254.215 195.515 254.663 197.307C255.111 199.099 255.512 200.901 255.876 202.708C256.236 204.521 256.548 206.338 256.819 208.161C257.09 209.989 257.314 211.817 257.496 213.656C257.678 215.494 257.814 217.333 257.902 219.177C257.996 221.021 258.038 222.864 258.038 224.713Z" fill="#F7E7DA"/>
<path d="M225.448 224.714C225.448 225.287 225.443 225.865 225.427 226.438C225.417 227.011 225.396 227.584 225.375 228.151C225.354 228.641 225.328 229.125 225.302 229.615C225.292 229.782 225.281 229.943 225.266 230.11C225.224 230.698 225.182 231.297 225.13 231.886C225.094 232.302 225.057 232.719 225.005 233.131C225 233.203 224.99 233.282 224.984 233.354C224.932 233.839 224.88 234.328 224.818 234.808C224.807 234.896 224.797 234.985 224.781 235.068C224.734 235.474 224.672 235.881 224.615 236.282C224.599 236.412 224.583 236.537 224.562 236.662C224.495 237.12 224.427 237.568 224.349 238.016C224.328 238.157 224.302 238.287 224.276 238.422C224.203 238.865 224.12 239.302 224.042 239.745C224.031 239.792 224.021 239.844 224.01 239.891C223.911 240.412 223.802 240.938 223.698 241.453C223.688 241.49 223.682 241.521 223.677 241.552C223.573 242.016 223.474 242.479 223.365 242.948C223.146 243.896 222.906 244.834 222.651 245.766C222.589 246.016 222.521 246.266 222.448 246.511C222.062 247.891 221.63 249.266 221.167 250.62C221.089 250.86 221.005 251.094 220.927 251.323C220.818 251.631 220.708 251.938 220.594 252.24C220.505 252.495 220.411 252.745 220.318 252.995C220.312 253.011 220.307 253.032 220.297 253.047C220.167 253.401 220.026 253.761 219.885 254.11C219.708 254.552 219.536 254.99 219.354 255.427C219.26 255.657 219.161 255.881 219.068 256.104C218.911 256.485 218.75 256.86 218.583 257.229C218.432 257.563 218.281 257.901 218.13 258.235C218.021 258.469 217.906 258.703 217.802 258.933C217.625 259.308 217.443 259.683 217.26 260.058C216.542 261.516 215.776 262.953 214.974 264.37C214.797 264.677 214.615 264.99 214.432 265.297C214.052 265.948 213.661 266.594 213.26 267.229C213.068 267.547 212.865 267.86 212.661 268.172C212.573 268.313 212.479 268.453 212.385 268.594C212.125 268.995 211.854 269.401 211.578 269.802C211.333 270.167 211.083 270.526 210.828 270.886C210.651 271.146 210.469 271.396 210.281 271.651C210.099 271.912 209.906 272.172 209.714 272.422C209.406 272.844 209.089 273.261 208.771 273.677C208.766 273.688 208.76 273.698 208.75 273.703C208.422 274.131 208.089 274.552 207.75 274.969C207.495 275.292 207.229 275.61 206.958 275.927C206.745 276.193 206.531 276.448 206.307 276.709C206.198 276.839 206.089 276.964 205.974 277.094C205.786 277.313 205.599 277.532 205.406 277.75C205.203 277.985 204.99 278.219 204.781 278.448C204.526 278.729 204.271 279.016 204.005 279.292C203.948 279.36 203.88 279.427 203.823 279.49C203.573 279.756 203.328 280.021 203.062 280.287C202.885 280.474 202.698 280.667 202.516 280.86C201.984 281.401 201.443 281.933 200.896 282.459C200.646 282.703 200.391 282.948 200.13 283.188C199.74 283.558 199.349 283.917 198.948 284.276C198.583 284.61 198.208 284.938 197.828 285.266C197.464 285.589 197.094 285.901 196.714 286.214C195.802 286.985 194.87 287.729 193.922 288.453C193.479 288.797 193.026 289.136 192.573 289.464C191.719 290.089 190.854 290.698 189.974 291.292C189.594 291.542 189.214 291.792 188.828 292.042C188.807 292.058 188.781 292.073 188.76 292.089C188.354 292.349 187.943 292.61 187.531 292.865C187.474 292.901 187.411 292.943 187.349 292.974C187.005 293.198 186.651 293.407 186.302 293.615C186.167 293.698 186.021 293.782 185.885 293.86C185.573 294.047 185.26 294.229 184.948 294.407C184.766 294.511 184.589 294.61 184.406 294.714C184.021 294.933 183.63 295.141 183.24 295.354C183.229 295.36 183.219 295.36 183.208 295.365C182.766 295.61 182.312 295.844 181.859 296.078C181.807 296.104 181.755 296.136 181.693 296.157C181.312 296.36 180.927 296.552 180.542 296.74C180.396 296.813 180.255 296.881 180.104 296.953C179.745 297.125 179.385 297.297 179.021 297.464C178.87 297.537 178.719 297.604 178.562 297.672C178.292 297.802 178.026 297.917 177.755 298.042C177.417 298.193 177.073 298.344 176.724 298.485C176.562 298.558 176.401 298.625 176.24 298.693C175.859 298.854 175.479 299.011 175.094 299.162C174.958 299.219 174.823 299.271 174.682 299.323C174.427 299.427 174.161 299.532 173.896 299.631C173.589 299.745 173.281 299.865 172.974 299.979C172.495 300.151 172.021 300.323 171.542 300.49C171.234 300.599 170.932 300.698 170.625 300.797C170.339 300.896 170.047 300.99 169.76 301.084C169.24 301.25 168.719 301.412 168.193 301.568C167.693 301.719 167.193 301.86 166.693 301.995C166.667 302.006 166.635 302.016 166.609 302.016V302.021C166.161 302.141 165.714 302.261 165.266 302.375C165.005 302.448 164.745 302.511 164.484 302.568C164.068 302.677 163.646 302.771 163.229 302.865C162.703 302.995 162.161 303.104 161.63 303.219C157.635 304.042 153.531 304.578 149.339 304.782C148.01 304.844 146.677 304.881 145.333 304.881C138.245 304.881 131.37 303.964 124.823 302.229C111.469 298.703 99.4792 291.808 89.8177 282.506C74.6563 267.927 65.2188 247.417 65.2188 224.714C65.2188 180.433 101.089 144.542 145.333 144.542C150.917 144.542 156.37 145.115 161.63 146.203C162.125 146.308 162.62 146.417 163.104 146.526C163.255 146.558 163.406 146.589 163.552 146.631C163.792 146.683 164.031 146.74 164.266 146.802C164.786 146.922 165.302 147.052 165.818 147.193C165.896 147.214 165.979 147.235 166.057 147.256C166.333 147.328 166.62 147.407 166.896 147.485C167.125 147.542 167.349 147.61 167.578 147.683C168.104 147.828 168.63 147.985 169.156 148.151C169.286 148.188 169.411 148.229 169.536 148.271C169.818 148.36 170.099 148.448 170.375 148.542C170.797 148.677 171.208 148.818 171.625 148.964C172.057 149.11 172.479 149.266 172.911 149.422C173.12 149.5 173.328 149.578 173.542 149.657C173.995 149.828 174.443 150 174.891 150.177C175.297 150.339 175.703 150.5 176.104 150.672C176.307 150.756 176.505 150.839 176.708 150.927C177.677 151.339 178.641 151.771 179.589 152.224C180.005 152.417 180.411 152.615 180.818 152.818C181 152.907 181.177 152.995 181.354 153.089C181.682 153.256 182.016 153.422 182.349 153.594C182.922 153.896 183.484 154.198 184.047 154.511C184.443 154.724 184.833 154.948 185.224 155.177C185.422 155.282 185.615 155.396 185.802 155.506C186.286 155.792 186.766 156.078 187.245 156.381C187.568 156.573 187.885 156.776 188.203 156.974C188.745 157.323 189.281 157.667 189.812 158.026C190.198 158.287 190.583 158.547 190.969 158.813C191.521 159.203 192.073 159.594 192.62 160C193.021 160.287 193.422 160.589 193.818 160.896C194.604 161.49 195.38 162.104 196.146 162.735C196.38 162.927 196.615 163.12 196.849 163.318C197.13 163.558 197.417 163.797 197.698 164.042C197.818 164.151 197.943 164.256 198.062 164.36C198.339 164.594 198.604 164.834 198.87 165.073C199.635 165.771 200.396 166.474 201.135 167.198C201.37 167.422 201.599 167.646 201.833 167.875C202.151 168.193 202.469 168.516 202.786 168.844C203.156 169.219 203.516 169.599 203.875 169.99C204.219 170.354 204.557 170.724 204.896 171.099C204.984 171.198 205.078 171.302 205.172 171.407C205.49 171.761 205.802 172.125 206.115 172.49C206.438 172.865 206.76 173.245 207.073 173.625C207.193 173.771 207.318 173.917 207.438 174.068C207.646 174.318 207.849 174.568 208.052 174.823C208.135 174.938 208.224 175.047 208.312 175.162C208.51 175.407 208.698 175.651 208.891 175.901C209.13 176.214 209.365 176.521 209.594 176.834C209.792 177.094 209.99 177.36 210.182 177.631C210.214 177.677 210.255 177.724 210.286 177.776L210.297 177.797C210.792 178.469 211.271 179.157 211.734 179.844C211.927 180.131 212.125 180.427 212.312 180.719C212.615 181.167 212.906 181.625 213.193 182.084C213.469 182.516 213.734 182.953 213.995 183.391C214.469 184.177 214.927 184.969 215.375 185.766L215.38 185.782C215.391 185.797 215.396 185.813 215.406 185.828C215.432 185.87 215.458 185.912 215.474 185.953C215.63 186.235 215.781 186.511 215.932 186.797C217.135 189.026 218.229 191.318 219.219 193.667C219.375 194.037 219.526 194.407 219.672 194.776C219.677 194.776 219.677 194.776 219.677 194.782C219.823 195.146 219.964 195.506 220.104 195.87C220.182 196.063 220.255 196.261 220.328 196.453C220.484 196.865 220.635 197.282 220.781 197.698C221.141 198.703 221.484 199.714 221.802 200.74C221.917 201.115 222.031 201.485 222.141 201.86C222.161 201.933 222.188 202.011 222.208 202.084C222.302 202.412 222.396 202.745 222.49 203.078C222.609 203.485 222.714 203.891 222.823 204.297C222.922 204.667 223.016 205.042 223.109 205.422C223.115 205.453 223.125 205.49 223.135 205.521C223.24 205.933 223.333 206.344 223.427 206.756C223.521 207.157 223.609 207.563 223.698 207.969C223.698 207.979 223.698 207.99 223.703 207.995C223.786 208.386 223.865 208.771 223.938 209.157C224.109 210.026 224.266 210.901 224.411 211.782C224.464 212.125 224.516 212.469 224.568 212.818C224.755 214.084 224.917 215.365 225.047 216.651C225.068 216.901 225.094 217.151 225.115 217.396C225.177 218.094 225.234 218.792 225.276 219.49C225.302 219.854 225.323 220.219 225.344 220.584C225.349 220.756 225.359 220.933 225.37 221.104C225.38 221.427 225.391 221.75 225.401 222.078C225.417 222.448 225.427 222.823 225.432 223.203C225.443 223.703 225.448 224.209 225.448 224.714Z" fill="#652C42"/>
<path d="M225.449 224.714C225.449 261.615 200.527 292.693 166.61 302.021C164.975 302.469 163.313 302.87 161.631 303.219C158.146 302.5 154.745 301.552 151.443 300.391C144.204 297.859 137.438 294.312 131.318 289.917C119.589 281.51 110.225 270.016 104.412 256.615C100.173 246.839 97.8184 236.047 97.8184 224.714C97.8184 186.021 125.204 153.74 161.631 146.203C163.12 146.51 164.594 146.865 166.058 147.255C177.912 150.417 188.683 156.24 197.699 164.042C202.407 168.109 206.636 172.719 210.287 177.776C212.146 180.349 213.86 183.036 215.407 185.828C221.803 197.339 225.449 210.604 225.449 224.714Z" fill="#854462"/>
<path d="M103.162 133.776C103.297 134.005 103.354 134.271 103.334 134.578C103.318 134.891 103.224 135.229 103.058 135.61C102.896 135.985 102.657 136.391 102.349 136.818C102.042 137.25 101.667 137.698 101.229 138.167C100.792 138.636 100.297 139.115 99.7451 139.604C99.193 140.089 98.594 140.578 97.9534 141.068C97.3076 141.552 96.6305 142.032 95.9169 142.505C95.2086 142.974 94.4742 143.427 93.7242 143.86C92.9742 144.297 92.219 144.703 91.4534 145.084C90.693 145.464 89.9378 145.813 89.193 146.125C88.4482 146.438 87.7294 146.714 87.0315 146.948C86.3336 147.183 85.6721 147.37 85.0471 147.516C84.4221 147.662 83.8492 147.761 83.318 147.813C82.7919 147.865 82.3232 147.87 81.9169 147.823C81.5055 147.782 81.1669 147.688 80.8909 147.547C80.6149 147.412 80.4117 147.224 80.2763 147C80.1461 146.771 80.0888 146.5 80.1096 146.193C80.1253 145.886 80.219 145.542 80.3805 145.167C80.5471 144.787 80.7867 144.386 81.094 143.953C81.4013 143.526 81.7763 143.073 82.2138 142.604C82.6513 142.136 83.1461 141.662 83.6982 141.172C84.2503 140.683 84.8492 140.198 85.4899 139.709C86.1357 139.219 86.8128 138.74 87.5211 138.271C88.2346 137.802 88.9638 137.349 89.719 136.912C90.469 136.479 91.2242 136.073 91.9899 135.693C92.7503 135.308 93.5055 134.964 94.2503 134.646C94.9951 134.334 95.7138 134.063 96.4117 133.828C97.1096 133.594 97.7711 133.401 98.3961 133.255C99.0211 133.11 99.594 133.011 100.12 132.959C100.651 132.912 101.115 132.907 101.526 132.948C101.933 132.995 102.276 133.089 102.552 133.224C102.828 133.365 103.032 133.547 103.162 133.776Z" fill="white"/>
<path d="M119.687 132.677C115.219 133.834 111.146 133.026 110.594 130.886C110.042 128.74 113.213 126.068 117.682 124.912C122.151 123.756 126.224 124.563 126.776 126.703C127.328 128.849 124.156 131.526 119.687 132.677Z" fill="white"/>
<mask id="mask13_360_1296" style="mask-type:luminance" maskUnits="userSpaceOnUse" x="89" y="147" width="110" height="157">
<path d="M89.543 147.052H198.876V303.052H89.543V147.052Z" fill="white"/>
</mask>
<g mask="url(#mask13_360_1296)">
<mask id="mask14_360_1296" style="mask-type:luminance" maskUnits="userSpaceOnUse" x="89" y="147" width="109" height="156">
<path d="M197.699 164.041L131.318 289.916L124.824 302.229C111.469 298.703 99.4798 291.807 89.8184 282.505L104.412 256.614L166.058 147.255C166.334 147.328 166.62 147.406 166.896 147.484C167.126 147.541 167.35 147.609 167.579 147.682C168.105 147.828 168.631 147.989 169.157 148.151C169.287 148.187 169.412 148.229 169.537 148.271C169.818 148.359 170.1 148.448 170.376 148.541C170.798 148.677 171.209 148.817 171.626 148.963C172.058 149.109 172.48 149.265 172.912 149.422C173.12 149.5 173.329 149.578 173.542 149.656C173.995 149.828 174.443 150 174.891 150.177C175.298 150.338 175.704 150.5 176.105 150.672C176.308 150.755 176.506 150.838 176.709 150.927C177.678 151.338 178.641 151.771 179.589 152.224C180.006 152.416 180.412 152.614 180.818 152.817C181.001 152.906 181.178 152.994 181.355 153.088C181.683 153.255 182.016 153.422 182.35 153.593C182.923 153.896 183.485 154.198 184.048 154.51C184.443 154.724 184.834 154.948 185.225 155.177C185.423 155.281 185.615 155.396 185.803 155.505C186.287 155.791 186.766 156.078 187.245 156.38C187.568 156.573 187.886 156.776 188.204 156.974C188.745 157.323 189.282 157.666 189.813 158.026C190.199 158.286 190.584 158.547 190.969 158.812C191.521 159.203 192.074 159.593 192.62 160C193.021 160.286 193.423 160.588 193.818 160.896C194.605 161.489 195.381 162.104 196.146 162.734C196.381 162.927 196.615 163.119 196.85 163.317C197.131 163.557 197.417 163.797 197.699 164.041Z" fill="white"/>
</mask>
<g mask="url(#mask14_360_1296)">
<path d="M89.8184 147.255V302.229H197.699V147.255H89.8184Z" fill="url(#paint6_linear_360_1296)"/>
</g>
</g>
<mask id="mask15_360_1296" style="mask-type:luminance" maskUnits="userSpaceOnUse" x="148" y="177" width="69" height="129">
<path d="M148.209 177.719H216.209V305.719H148.209V177.719Z" fill="white"/>
</mask>
<g mask="url(#mask15_360_1296)">
<mask id="mask16_360_1296" style="mask-type:luminance" maskUnits="userSpaceOnUse" x="149" y="177" width="67" height="128">
<path d="M166.611 302.021V302.015L215.408 185.828V185.823L215.376 185.771L210.324 177.828L210.288 177.776L151.444 300.39L149.34 304.781L166.611 302.021Z" fill="white"/>
</mask>
<g mask="url(#mask16_360_1296)">
<path d="M149.34 177.776V304.781H215.408V177.776H149.34Z" fill="url(#paint7_linear_360_1296)"/>
</g>
</g>
<path d="M115.777 36.3747L171.533 36.3018V61.6455H115.777V36.3747Z" fill="#8CC6D2"/>
<mask id="mask17_360_1296" style="mask-type:luminance" maskUnits="userSpaceOnUse" x="177" y="49" width="14" height="15">
<path d="M177.543 49.7188H190.876V63.0521H177.543V49.7188Z" fill="white"/>
</mask>
<g mask="url(#mask17_360_1296)">
<mask id="mask18_360_1296" style="mask-type:luminance" maskUnits="userSpaceOnUse" x="178" y="50" width="13" height="13">
<path d="M190.527 56.422C190.527 56.8075 190.491 57.1877 190.413 57.5679C190.34 57.9481 190.23 58.3127 190.079 58.6668C189.934 59.0262 189.751 59.3647 189.538 59.6825C189.324 60.0054 189.079 60.3022 188.809 60.5731C188.538 60.8491 188.241 61.0887 187.918 61.3022C187.6 61.521 187.262 61.6981 186.908 61.8491C186.548 61.995 186.184 62.1043 185.803 62.1825C185.428 62.2554 185.043 62.2918 184.663 62.2918C184.277 62.2918 183.892 62.2554 183.517 62.1825C183.137 62.1043 182.772 61.995 182.413 61.8491C182.059 61.6981 181.72 61.521 181.402 61.3022C181.079 61.0887 180.783 60.8491 180.512 60.5731C180.241 60.3022 179.996 60.0054 179.783 59.6825C179.569 59.3647 179.387 59.0262 179.241 58.6668C179.09 58.3127 178.98 57.9481 178.908 57.5679C178.829 57.1877 178.793 56.8075 178.793 56.422C178.793 56.0366 178.829 55.6564 178.908 55.2762C178.98 54.896 179.09 54.5314 179.241 54.1772C179.387 53.8179 179.569 53.4793 179.783 53.1616C179.996 52.8387 180.241 52.5418 180.512 52.271C180.783 51.995 181.079 51.7554 181.402 51.5418C181.72 51.3231 182.059 51.146 182.413 50.995C182.772 50.8491 183.137 50.7397 183.517 50.6616C183.892 50.5887 184.277 50.5522 184.663 50.5522C185.043 50.5522 185.428 50.5887 185.803 50.6616C186.184 50.7397 186.548 50.8491 186.908 50.995C187.262 51.146 187.6 51.3231 187.918 51.5418C188.241 51.7554 188.538 51.995 188.809 52.271C189.079 52.5418 189.324 52.8387 189.538 53.1616C189.751 53.4793 189.934 53.8179 190.079 54.1772C190.23 54.5314 190.34 54.896 190.413 55.2762C190.491 55.6564 190.527 56.0366 190.527 56.422Z" fill="white"/>
</mask>
<g mask="url(#mask18_360_1296)">
<path d="M178.793 50.5522V62.2918H190.527V50.5522H178.793Z" fill="url(#paint8_linear_360_1296)"/>
</g>
</g>
<mask id="mask19_360_1296" style="mask-type:luminance" maskUnits="userSpaceOnUse" x="177" y="33" width="14" height="15">
<path d="M177.543 33.7188H190.876V47.0521H177.543V33.7188Z" fill="white"/>
</mask>
<g mask="url(#mask19_360_1296)">
<mask id="mask20_360_1296" style="mask-type:luminance" maskUnits="userSpaceOnUse" x="178" y="34" width="13" height="13">
<path d="M190.527 40.1354C190.527 40.5208 190.491 40.9062 190.413 41.2812C190.34 41.6615 190.23 42.026 190.079 42.3854C189.934 42.7396 189.751 43.0781 189.538 43.401C189.324 43.7188 189.079 44.0156 188.809 44.2865C188.538 44.5625 188.241 44.8073 187.918 45.0208C187.6 45.2344 187.262 45.4167 186.908 45.5625C186.548 45.7083 186.184 45.8229 185.803 45.8958C185.428 45.9688 185.043 46.0104 184.663 46.0104C184.277 46.0104 183.892 45.9688 183.517 45.8958C183.137 45.8229 182.772 45.7083 182.413 45.5625C182.059 45.4167 181.72 45.2344 181.402 45.0208C181.079 44.8073 180.783 44.5625 180.512 44.2865C180.241 44.0156 179.996 43.7188 179.783 43.401C179.569 43.0781 179.387 42.7396 179.241 42.3854C179.09 42.026 178.98 41.6615 178.908 41.2812C178.829 40.9062 178.793 40.5208 178.793 40.1354C178.793 39.75 178.829 39.3698 178.908 38.9896C178.98 38.6146 179.09 38.2448 179.241 37.8906C179.387 37.5313 179.569 37.1927 179.783 36.875C179.996 36.5521 180.241 36.2552 180.512 35.9844C180.783 35.7135 181.079 35.4687 181.402 35.2552C181.72 35.0417 182.059 34.8594 182.413 34.7135C182.772 34.5625 183.137 34.4531 183.517 34.3802C183.892 34.3021 184.277 34.2656 184.663 34.2656C185.043 34.2656 185.428 34.3021 185.803 34.3802C186.184 34.4531 186.548 34.5625 186.908 34.7135C187.262 34.8594 187.6 35.0417 187.918 35.2552C188.241 35.4687 188.538 35.7135 188.809 35.9844C189.079 36.2552 189.324 36.5521 189.538 36.875C189.751 37.1927 189.934 37.5313 190.079 37.8906C190.23 38.2448 190.34 38.6146 190.413 38.9896C190.491 39.3698 190.527 39.75 190.527 40.1354Z" fill="white"/>
</mask>
<g mask="url(#mask20_360_1296)">
<path d="M178.793 34.2656V46.0104H190.527V34.2656H178.793Z" fill="url(#paint9_linear_360_1296)"/>
</g>
</g>
<path d="M257.104 396.781V422.938L207.771 421.438V396.781H257.104ZM260.177 393.708H204.703V424.417L260.177 426.104V393.708Z" fill="#652C42"/>
<path d="M225.449 391.683H240.548V393.709H225.449V391.683Z" fill="#652C42"/>
<path d="M97.1152 18.4482H99.36V81.667H97.1152V18.4482Z" fill="#652C42"/>
<mask id="mask21_360_1296" style="mask-type:luminance" maskUnits="userSpaceOnUse" x="0" y="75" width="289" height="11">
<path d="M0 75.0518H288.208V85.7184H0V75.0518Z" fill="white"/>
</mask>
<g mask="url(#mask21_360_1296)">
<mask id="mask22_360_1296" style="mask-type:luminance" maskUnits="userSpaceOnUse" x="0" y="75" width="288" height="10">
<path d="M287.984 76.7705V81.2549C220.937 83.8695 67.5202 88.3695 0.00976562 78.182V75.6455C42.5254 78.1195 154.796 83.1247 287.984 76.7705Z" fill="white"/>
</mask>
<g mask="url(#mask22_360_1296)">
<path d="M0.00976562 75.6455V88.3695H287.984V75.6455H0.00976562Z" fill="url(#paint10_linear_360_1296)"/>
</g>
</g>
<defs>
<linearGradient id="paint0_linear_360_1296" x1="187.862" y1="-9.61035" x2="227.449" y2="457.832" gradientUnits="userSpaceOnUse">
<stop stop-color="#C4A59F"/>
<stop offset="0.015625" stop-color="#C4A6A0"/>
<stop offset="0.03125" stop-color="#C5A7A1"/>
<stop offset="0.046875" stop-color="#C6A8A1"/>
<stop offset="0.0518001" stop-color="#C7A9A2"/>
<stop offset="0.0625" stop-color="#C7A9A3"/>
<stop offset="0.078125" stop-color="#C7AAA3"/>
<stop offset="0.09375" stop-color="#C8AAA4"/>
<stop offset="0.109375" stop-color="#C9ABA5"/>
<stop offset="0.125" stop-color="#CAACA6"/>
<stop offset="0.140625" stop-color="#CAADA6"/>
<stop offset="0.15625" stop-color="#CBAEA7"/>
<stop offset="0.171875" stop-color="#CCAFA8"/>
<stop offset="0.1875" stop-color="#CDB0A9"/>
<stop offset="0.203125" stop-color="#CDB1AA"/>
<stop offset="0.21875" stop-color="#CEB2AB"/>
<stop offset="0.234375" stop-color="#CFB3AB"/>
<stop offset="0.25" stop-color="#CFB4AC"/>
<stop offset="0.265625" stop-color="#D0B5AD"/>
<stop offset="0.28125" stop-color="#D1B6AE"/>
<stop offset="0.296875" stop-color="#D2B7AF"/>
<stop offset="0.3125" stop-color="#D2B8B0"/>
<stop offset="0.328125" stop-color="#D3B9B1"/>
<stop offset="0.34375" stop-color="#D4BAB1"/>
<stop offset="0.359375" stop-color="#D5BAB2"/>
<stop offset="0.375" stop-color="#D5BBB3"/>
<stop offset="0.390625" stop-color="#D6BCB4"/>
<stop offset="0.40625" stop-color="#D7BDB5"/>
<stop offset="0.421875" stop-color="#D7BEB6"/>
<stop offset="0.4375" stop-color="#D8BFB6"/>
<stop offset="0.453125" stop-color="#D9C0B7"/>
<stop offset="0.46875" stop-color="#DAC1B8"/>
<stop offset="0.484375" stop-color="#DAC2B9"/>
<stop offset="0.5" stop-color="#DBC3BA"/>
<stop offset="0.515625" stop-color="#DCC4BB"/>
<stop offset="0.53125" stop-color="#DDC5BB"/>
<stop offset="0.546875" stop-color="#DDC6BC"/>
<stop offset="0.5625" stop-color="#DEC7BD"/>
<stop offset="0.578125" stop-color="#DFC8BE"/>
<stop offset="0.59375" stop-color="#DFC9BF"/>
<stop offset="0.609375" stop-color="#E0CAC0"/>
<stop offset="0.625" stop-color="#E1CAC0"/>
<stop offset="0.640625" stop-color="#E2CBC1"/>
<stop offset="0.65625" stop-color="#E2CCC2"/>
<stop offset="0.671875" stop-color="#E3CDC3"/>
<stop offset="0.6875" stop-color="#E4CEC4"/>
<stop offset="0.703125" stop-color="#E5CFC5"/>
<stop offset="0.71875" stop-color="#E5D0C6"/>
<stop offset="0.734375" stop-color="#E6D1C6"/>
<stop offset="0.75" stop-color="#E7D2C7"/>
<stop offset="0.765625" stop-color="#E7D3C8"/>
<stop offset="0.78125" stop-color="#E8D4C9"/>
<stop offset="0.796875" stop-color="#E9D5CA"/>
<stop offset="0.8125" stop-color="#EAD6CB"/>
<stop offset="0.828125" stop-color="#EAD7CB"/>
<stop offset="0.84375" stop-color="#EBD8CC"/>
<stop offset="0.859375" stop-color="#ECD9CD"/>
<stop offset="0.875" stop-color="#EDD9CE"/>
<stop offset="0.890625" stop-color="#EDDACF"/>
<stop offset="0.90625" stop-color="#EEDBD0"/>
<stop offset="0.921875" stop-color="#EFDCD0"/>
<stop offset="0.9375" stop-color="#F0DDD1"/>
<stop offset="0.9482" stop-color="#F0DED2"/>
<stop offset="0.953125" stop-color="#F1DFD3"/>
<stop offset="0.96875" stop-color="#F1DFD3"/>
<stop offset="0.984375" stop-color="#F2E0D4"/>
<stop offset="1" stop-color="#F2E1D5"/>
</linearGradient>
<linearGradient id="paint1_linear_360_1296" x1="339.295" y1="432.542" x2="336.352" y2="427.627" gradientUnits="userSpaceOnUse">
<stop stop-color="#C3A49E"/>
<stop offset="0.125" stop-color="#C3A49E"/>
<stop offset="0.1875" stop-color="#C3A49E"/>
<stop offset="0.21875" stop-color="#C3A49E"/>
<stop offset="0.234375" stop-color="#C3A49E"/>
<stop offset="0.238281" stop-color="#C4A59F"/>
<stop offset="0.242188" stop-color="#C5A6A0"/>
<stop offset="0.246094" stop-color="#C5A6A0"/>
<stop offset="0.25" stop-color="#C5A7A1"/>
<stop offset="0.253906" stop-color="#C6A8A1"/>
<stop offset="0.257812" stop-color="#C6A8A2"/>
<stop offset="0.261719" stop-color="#C7A9A3"/>
<stop offset="0.265625" stop-color="#C7AAA3"/>
<stop offset="0.269531" stop-color="#C8AAA4"/>
<stop offset="0.273438" stop-color="#C8ABA4"/>
<stop offset="0.277344" stop-color="#C9ABA5"/>
<stop offset="0.28125" stop-color="#C9ACA5"/>
<stop offset="0.285156" stop-color="#CAADA6"/>
<stop offset="0.289062" stop-color="#CAADA6"/>
<stop offset="0.292969" stop-color="#CBAEA7"/>
<stop offset="0.296875" stop-color="#CBAEA7"/>
<stop offset="0.300781" stop-color="#CCAFA8"/>
<stop offset="0.304688" stop-color="#CCB0A9"/>
<stop offset="0.308594" stop-color="#CDB0A9"/>
<stop offset="0.3125" stop-color="#CDB1AA"/>
<stop offset="0.316406" stop-color="#CEB2AA"/>
<stop offset="0.320312" stop-color="#CEB2AB"/>
<stop offset="0.324219" stop-color="#CFB3AB"/>
<stop offset="0.328125" stop-color="#CFB3AC"/>
<stop offset="0.332031" stop-color="#CFB4AC"/>
<stop offset="0.335938" stop-color="#D0B5AD"/>
<stop offset="0.339844" stop-color="#D0B5AE"/>
<stop offset="0.34375" stop-color="#D1B6AE"/>
<stop offset="0.347656" stop-color="#D1B6AF"/>
<stop offset="0.351562" stop-color="#D2B7AF"/>
<stop offset="0.355469" stop-color="#D2B8B0"/>
<stop offset="0.359375" stop-color="#D3B8B0"/>
<stop offset="0.363281" stop-color="#D3B9B1"/>
<stop offset="0.367188" stop-color="#D4BAB1"/>
<stop offset="0.371094" stop-color="#D4BAB2"/>
<stop offset="0.375" stop-color="#D5BBB2"/>
<stop offset="0.378906" stop-color="#D5BBB3"/>
<stop offset="0.382812" stop-color="#D6BCB4"/>
<stop offset="0.386719" stop-color="#D6BDB4"/>
<stop offset="0.390625" stop-color="#D7BDB5"/>
<stop offset="0.394531" stop-color="#D7BEB5"/>
<stop offset="0.398438" stop-color="#D8BEB6"/>
<stop offset="0.402344" stop-color="#D8BFB6"/>
<stop offset="0.40625" stop-color="#D9C0B7"/>
<stop offset="0.410156" stop-color="#D9C0B7"/>
<stop offset="0.414062" stop-color="#DAC1B8"/>
<stop offset="0.417969" stop-color="#DAC2B9"/>
<stop offset="0.421875" stop-color="#DAC2B9"/>
<stop offset="0.425781" stop-color="#DBC3BA"/>
<stop offset="0.429688" stop-color="#DBC3BA"/>
<stop offset="0.433594" stop-color="#DCC4BB"/>
<stop offset="0.4375" stop-color="#DCC5BB"/>
<stop offset="0.441406" stop-color="#DDC5BC"/>
<stop offset="0.445312" stop-color="#DDC6BC"/>
<stop offset="0.449219" stop-color="#DEC6BD"/>
<stop offset="0.453125" stop-color="#DEC7BD"/>
<stop offset="0.457031" stop-color="#DFC8BE"/>
<stop offset="0.460938" stop-color="#DFC8BF"/>
<stop offset="0.464844" stop-color="#E0C9BF"/>
<stop offset="0.46875" stop-color="#E0CAC0"/>
<stop offset="0.472656" stop-color="#E1CAC0"/>
<stop offset="0.476562" stop-color="#E1CBC1"/>
<stop offset="0.480469" stop-color="#E2CBC1"/>
<stop offset="0.484375" stop-color="#E2CCC2"/>
<stop offset="0.488281" stop-color="#E3CDC2"/>
<stop offset="0.492188" stop-color="#E3CDC3"/>
<stop offset="0.496094" stop-color="#E4CEC4"/>
<stop offset="0.5" stop-color="#E4CEC4"/>
<stop offset="0.503906" stop-color="#E5CFC5"/>
<stop offset="0.507812" stop-color="#E5D0C5"/>
<stop offset="0.511719" stop-color="#E5D0C6"/>
<stop offset="0.515625" stop-color="#E6D1C6"/>
<stop offset="0.519531" stop-color="#E6D2C7"/>
<stop offset="0.523438" stop-color="#E7D2C7"/>
<stop offset="0.527344" stop-color="#E7D3C8"/>
<stop offset="0.53125" stop-color="#E8D3C8"/>
<stop offset="0.535156" stop-color="#E8D4C9"/>
<stop offset="0.539062" stop-color="#E9D5CA"/>
<stop offset="0.542969" stop-color="#E9D5CA"/>
<stop offset="0.546875" stop-color="#EAD6CB"/>
<stop offset="0.550781" stop-color="#EAD6CB"/>
<stop offset="0.554688" stop-color="#EBD7CC"/>
<stop offset="0.558594" stop-color="#EBD8CC"/>
<stop offset="0.5625" stop-color="#ECD8CD"/>
<stop offset="0.566406" stop-color="#ECD9CD"/>
<stop offset="0.570312" stop-color="#EDDACE"/>
<stop offset="0.574219" stop-color="#EDDACF"/>
<stop offset="0.578125" stop-color="#EEDBCF"/>
<stop offset="0.582031" stop-color="#EEDBD0"/>
<stop offset="0.585938" stop-color="#EFDCD0"/>
<stop offset="0.589844" stop-color="#EFDDD1"/>
<stop offset="0.59375" stop-color="#EFDDD1"/>
<stop offset="0.597656" stop-color="#F0DED2"/>
<stop offset="0.601562" stop-color="#F0DED2"/>
<stop offset="0.605469" stop-color="#F1DFD3"/>
<stop offset="0.609375" stop-color="#F1E0D3"/>
<stop offset="0.613281" stop-color="#F2E0D4"/>
<stop offset="0.617188" stop-color="#F2E1D5"/>
<stop offset="0.621094" stop-color="#F3E2D5"/>
<stop offset="0.625" stop-color="#F3E2D6"/>
<stop offset="0.628906" stop-color="#F4E3D6"/>
<stop offset="0.632812" stop-color="#F4E3D7"/>
<stop offset="0.636719" stop-color="#F5E4D7"/>
<stop offset="0.640625" stop-color="#F5E5D8"/>
<stop offset="0.644531" stop-color="#F6E5D8"/>
<stop offset="0.648438" stop-color="#F6E6D9"/>
<stop offset="0.652344" stop-color="#F7E6D9"/>
<stop offset="0.65625" stop-color="#F7E7DA"/>
<stop offset="0.678829" stop-color="#F7E7DA"/>
<stop offset="0.6875" stop-color="#F7E7DA"/>
<stop offset="0.75" stop-color="#F7E7DA"/>
<stop offset="1" stop-color="#F7E7DA"/>
</linearGradient>
<linearGradient id="paint2_linear_360_1296" x1="170.889" y1="55.8336" x2="187.241" y2="-30.5412" gradientUnits="userSpaceOnUse">
<stop stop-color="#D6BDB4"/>
<stop offset="0.03125" stop-color="#D7BDB5"/>
<stop offset="0.0625" stop-color="#D7BEB5"/>
<stop offset="0.09375" stop-color="#D8BFB6"/>
<stop offset="0.125" stop-color="#D8BFB7"/>
<stop offset="0.15625" stop-color="#D9C0B7"/>
<stop offset="0.1875" stop-color="#D9C1B8"/>
<stop offset="0.21875" stop-color="#DAC1B8"/>
<stop offset="0.25" stop-color="#DAC2B9"/>
<stop offset="0.28125" stop-color="#DBC3BA"/>
<stop offset="0.282807" stop-color="#DBC3BA"/>
<stop offset="0.3125" stop-color="#DCC4BA"/>
<stop offset="0.34375" stop-color="#DCC4BB"/>
<stop offset="0.375" stop-color="#DCC5BB"/>
<stop offset="0.40625" stop-color="#DDC5BC"/>
<stop offset="0.4375" stop-color="#DEC6BD"/>
<stop offset="0.46875" stop-color="#DEC7BD"/>
<stop offset="0.5" stop-color="#DFC7BE"/>
<stop offset="0.53125" stop-color="#DFC8BE"/>
<stop offset="0.5625" stop-color="#E0C9BF"/>
<stop offset="0.59375" stop-color="#E0C9C0"/>
<stop offset="0.625" stop-color="#E1CAC0"/>
<stop offset="0.65625" stop-color="#E1CBC1"/>
<stop offset="0.6875" stop-color="#E2CCC1"/>
<stop offset="0.717193" stop-color="#E2CCC2"/>
<stop offset="0.71875" stop-color="#E3CDC2"/>
<stop offset="0.75" stop-color="#E3CDC3"/>
<stop offset="0.78125" stop-color="#E3CEC3"/>
<stop offset="0.8125" stop-color="#E4CEC4"/>
<stop offset="0.84375" stop-color="#E4CFC4"/>
<stop offset="0.875" stop-color="#E5D0C5"/>
<stop offset="0.90625" stop-color="#E5D0C6"/>
<stop offset="0.9375" stop-color="#E6D1C6"/>
<stop offset="0.96875" stop-color="#E7D2C7"/>
<stop offset="1" stop-color="#E7D2C8"/>
</linearGradient>
<linearGradient id="paint3_linear_360_1296" x1="55.8944" y1="40.0843" x2="57.4799" y2="63.2646" gradientUnits="userSpaceOnUse">
<stop stop-color="#CFB4AC"/>
<stop offset="0.03125" stop-color="#D0B4AD"/>
<stop offset="0.0625" stop-color="#D0B5AD"/>
<stop offset="0.09375" stop-color="#D0B5AE"/>
<stop offset="0.125" stop-color="#D1B6AE"/>
<stop offset="0.15625" stop-color="#D1B6AE"/>
<stop offset="0.1875" stop-color="#D2B7AF"/>
<stop offset="0.203027" stop-color="#D2B7AF"/>
<stop offset="0.21875" stop-color="#D2B8B0"/>
<stop offset="0.25" stop-color="#D3B8B0"/>
<stop offset="0.28125" stop-color="#D3B8B0"/>
<stop offset="0.3125" stop-color="#D3B9B1"/>
<stop offset="0.34375" stop-color="#D4B9B1"/>
<stop offset="0.375" stop-color="#D4BAB2"/>
<stop offset="0.40625" stop-color="#D5BAB2"/>
<stop offset="0.4375" stop-color="#D5BBB3"/>
<stop offset="0.46875" stop-color="#D5BBB3"/>
<stop offset="0.5" stop-color="#D6BCB4"/>
<stop offset="0.53125" stop-color="#D6BDB4"/>
<stop offset="0.5625" stop-color="#D7BDB5"/>
<stop offset="0.59375" stop-color="#D7BEB5"/>
<stop offset="0.625" stop-color="#D7BEB5"/>
<stop offset="0.65625" stop-color="#D8BFB6"/>
<stop offset="0.6875" stop-color="#D8BFB6"/>
<stop offset="0.71875" stop-color="#D9C0B7"/>
<stop offset="0.75" stop-color="#D9C0B7"/>
<stop offset="0.78125" stop-color="#D9C1B8"/>
<stop offset="0.796973" stop-color="#DAC1B8"/>
<stop offset="0.8125" stop-color="#DAC1B8"/>
<stop offset="0.84375" stop-color="#DAC2B9"/>
<stop offset="0.875" stop-color="#DBC2B9"/>
<stop offset="0.90625" stop-color="#DBC3BA"/>
<stop offset="0.9375" stop-color="#DBC3BA"/>
<stop offset="0.96875" stop-color="#DCC4BB"/>
<stop offset="1" stop-color="#DCC4BB"/>
</linearGradient>
<linearGradient id="paint4_linear_360_1296" x1="144.162" y1="195.923" x2="358.378" y2="352.133" gradientUnits="userSpaceOnUse">
<stop stop-color="#D7BDB5"/>
<stop offset="0.015625" stop-color="#D7BDB5"/>
<stop offset="0.03125" stop-color="#D7BEB6"/>
<stop offset="0.046875" stop-color="#D8BFB6"/>
<stop offset="0.0625" stop-color="#D9C0B7"/>
<stop offset="0.078125" stop-color="#D9C0B8"/>
<stop offset="0.09375" stop-color="#DAC1B8"/>
<stop offset="0.109375" stop-color="#DAC2B9"/>
<stop offset="0.125" stop-color="#DBC3BA"/>
<stop offset="0.140625" stop-color="#DBC3BA"/>
<stop offset="0.15625" stop-color="#DCC4BB"/>
<stop offset="0.171875" stop-color="#DDC5BC"/>
<stop offset="0.1875" stop-color="#DDC6BC"/>
<stop offset="0.203125" stop-color="#DEC6BD"/>
<stop offset="0.21875" stop-color="#DEC7BE"/>
<stop offset="0.228406" stop-color="#DFC8BE"/>
<stop offset="0.234375" stop-color="#DFC8BF"/>
<stop offset="0.25" stop-color="#E0C9BF"/>
<stop offset="0.265625" stop-color="#E0C9C0"/>
<stop offset="0.28125" stop-color="#E1CAC0"/>
<stop offset="0.296875" stop-color="#E1CBC1"/>
<stop offset="0.3125" stop-color="#E2CCC2"/>
<stop offset="0.328125" stop-color="#E2CCC2"/>
<stop offset="0.34375" stop-color="#E3CDC3"/>
<stop offset="0.359375" stop-color="#E4CEC4"/>
<stop offset="0.375" stop-color="#E4CFC4"/>
<stop offset="0.390625" stop-color="#E5CFC5"/>
<stop offset="0.40625" stop-color="#E5D0C6"/>
<stop offset="0.421875" stop-color="#E6D1C6"/>
<stop offset="0.4375" stop-color="#E7D2C7"/>
<stop offset="0.453125" stop-color="#E7D2C8"/>
<stop offset="0.46875" stop-color="#E8D3C8"/>
<stop offset="0.484375" stop-color="#E8D4C9"/>
<stop offset="0.5" stop-color="#E9D5CA"/>
<stop offset="0.515625" stop-color="#E9D5CA"/>
<stop offset="0.53125" stop-color="#EAD6CB"/>
<stop offset="0.546875" stop-color="#EBD7CC"/>
<stop offset="0.5625" stop-color="#EBD8CC"/>
<stop offset="0.578125" stop-color="#ECD8CD"/>
<stop offset="0.59375" stop-color="#ECD9CE"/>
<stop offset="0.609375" stop-color="#EDDACE"/>
<stop offset="0.625" stop-color="#EDDBCF"/>
<stop offset="0.640625" stop-color="#EEDBD0"/>
<stop offset="0.65625" stop-color="#EFDCD0"/>
<stop offset="0.671875" stop-color="#EFDDD1"/>
<stop offset="0.6875" stop-color="#F0DED2"/>
<stop offset="0.703125" stop-color="#F0DED2"/>
<stop offset="0.71875" stop-color="#F1DFD3"/>
<stop offset="0.734375" stop-color="#F2E0D4"/>
<stop offset="0.75" stop-color="#F2E1D4"/>
<stop offset="0.765625" stop-color="#F3E1D5"/>
<stop offset="0.771594" stop-color="#F3E2D6"/>
<stop offset="0.78125" stop-color="#F4E3D6"/>
<stop offset="0.796875" stop-color="#F4E3D6"/>
<stop offset="0.8125" stop-color="#F4E4D7"/>
<stop offset="0.828125" stop-color="#F5E4D8"/>
<stop offset="0.84375" stop-color="#F6E5D8"/>
<stop offset="0.859375" stop-color="#F6E6D9"/>
<stop offset="0.875" stop-color="#F7E7DA"/>
<stop offset="1" stop-color="#F7E7DA"/>
</linearGradient>
<linearGradient id="paint5_linear_360_1296" x1="-48.1689" y1="290.366" x2="100.987" y2="399.133" gradientUnits="userSpaceOnUse">
<stop stop-color="#DFC8BE"/>
<stop offset="0.015625" stop-color="#DFC8BF"/>
<stop offset="0.03125" stop-color="#E0C9BF"/>
<stop offset="0.046875" stop-color="#E0C9C0"/>
<stop offset="0.0625" stop-color="#E1CAC0"/>
<stop offset="0.078125" stop-color="#E1CBC1"/>
<stop offset="0.09375" stop-color="#E1CBC1"/>
<stop offset="0.109375" stop-color="#E2CCC2"/>
<stop offset="0.125" stop-color="#E2CCC2"/>
<stop offset="0.140625" stop-color="#E3CDC3"/>
<stop offset="0.15625" stop-color="#E3CDC3"/>
<stop offset="0.171875" stop-color="#E4CEC4"/>
<stop offset="0.1875" stop-color="#E4CEC4"/>
<stop offset="0.203125" stop-color="#E4CFC5"/>
<stop offset="0.21875" stop-color="#E5D0C5"/>
<stop offset="0.234375" stop-color="#E5D0C6"/>
<stop offset="0.25" stop-color="#E6D1C6"/>
<stop offset="0.265625" stop-color="#E6D1C7"/>
<stop offset="0.28125" stop-color="#E7D2C7"/>
<stop offset="0.296875" stop-color="#E7D2C8"/>
<stop offset="0.3125" stop-color="#E7D3C8"/>
<stop offset="0.316587" stop-color="#E8D3C9"/>
<stop offset="0.328125" stop-color="#E8D4C9"/>
<stop offset="0.34375" stop-color="#E8D4C9"/>
<stop offset="0.359375" stop-color="#E9D5CA"/>
<stop offset="0.375" stop-color="#E9D5CA"/>
<stop offset="0.390625" stop-color="#EAD6CB"/>
<stop offset="0.40625" stop-color="#EAD6CB"/>
<stop offset="0.421875" stop-color="#EBD7CC"/>
<stop offset="0.4375" stop-color="#EBD7CC"/>
<stop offset="0.453125" stop-color="#EBD8CD"/>
<stop offset="0.46875" stop-color="#ECD8CD"/>
<stop offset="0.484375" stop-color="#ECD9CE"/>
<stop offset="0.5" stop-color="#EDDACE"/>
<stop offset="0.515625" stop-color="#EDDACF"/>
<stop offset="0.53125" stop-color="#EEDBCF"/>
<stop offset="0.546875" stop-color="#EEDBD0"/>
<stop offset="0.5625" stop-color="#EEDCD0"/>
<stop offset="0.578125" stop-color="#EFDCD1"/>
<stop offset="0.59375" stop-color="#EFDDD1"/>
<stop offset="0.609375" stop-color="#F0DDD2"/>
<stop offset="0.625" stop-color="#F0DED2"/>
<stop offset="0.640625" stop-color="#F1DFD3"/>
<stop offset="0.65625" stop-color="#F1DFD3"/>
<stop offset="0.671875" stop-color="#F1E0D3"/>
<stop offset="0.683413" stop-color="#F2E0D4"/>
<stop offset="0.6875" stop-color="#F2E1D4"/>
<stop offset="0.703125" stop-color="#F2E1D4"/>
<stop offset="0.71875" stop-color="#F3E1D5"/>
<stop offset="0.734375" stop-color="#F3E2D5"/>
<stop offset="0.75" stop-color="#F4E3D6"/>
<stop offset="0.765625" stop-color="#F4E3D6"/>
<stop offset="0.78125" stop-color="#F4E4D7"/>
<stop offset="0.796875" stop-color="#F5E4D7"/>
<stop offset="0.8125" stop-color="#F5E5D8"/>
<stop offset="0.828125" stop-color="#F6E5D8"/>
<stop offset="0.84375" stop-color="#F6E6D9"/>
<stop offset="0.875" stop-color="#F7E7DA"/>
<stop offset="1" stop-color="#F7E7DA"/>
</linearGradient>
<linearGradient id="paint6_linear_360_1296" x1="94.244" y1="305.055" x2="195.768" y2="146.023" gradientUnits="userSpaceOnUse">
<stop stop-color="#854462"/>
<stop offset="0.125" stop-color="#854462"/>
<stop offset="0.132813" stop-color="#864563"/>
<stop offset="0.140625" stop-color="#864664"/>
<stop offset="0.148438" stop-color="#874764"/>
<stop offset="0.15625" stop-color="#874865"/>
<stop offset="0.164062" stop-color="#884866"/>
<stop offset="0.171875" stop-color="#884966"/>
<stop offset="0.179688" stop-color="#894A67"/>
<stop offset="0.1875" stop-color="#894B67"/>
<stop offset="0.195313" stop-color="#8A4B68"/>
<stop offset="0.203125" stop-color="#8A4C69"/>
<stop offset="0.210938" stop-color="#8B4D69"/>
<stop offset="0.21875" stop-color="#8B4E6A"/>
<stop offset="0.226563" stop-color="#8C4F6B"/>
<stop offset="0.234375" stop-color="#8C4F6B"/>
<stop offset="0.242188" stop-color="#8D506C"/>
<stop offset="0.25" stop-color="#8D516D"/>
<stop offset="0.257813" stop-color="#8E526D"/>
<stop offset="0.265625" stop-color="#8E526E"/>
<stop offset="0.273438" stop-color="#8F536F"/>
<stop offset="0.28125" stop-color="#8F546F"/>
<stop offset="0.289062" stop-color="#905570"/>
<stop offset="0.296875" stop-color="#915671"/>
<stop offset="0.304688" stop-color="#915671"/>
<stop offset="0.307664" stop-color="#925772"/>
<stop offset="0.3125" stop-color="#925872"/>
<stop offset="0.320313" stop-color="#925873"/>
<stop offset="0.328125" stop-color="#935973"/>
<stop offset="0.335938" stop-color="#935974"/>
<stop offset="0.34375" stop-color="#945A75"/>
<stop offset="0.351563" stop-color="#945B75"/>
<stop offset="0.359375" stop-color="#955C76"/>
<stop offset="0.367188" stop-color="#955D76"/>
<stop offset="0.375" stop-color="#965D77"/>
<stop offset="0.382812" stop-color="#965E78"/>
<stop offset="0.390625" stop-color="#975F78"/>
<stop offset="0.398438" stop-color="#976079"/>
<stop offset="0.40625" stop-color="#98607A"/>
<stop offset="0.414063" stop-color="#98617A"/>
<stop offset="0.421875" stop-color="#99627B"/>
<stop offset="0.429688" stop-color="#99637C"/>
<stop offset="0.4375" stop-color="#9A647C"/>
<stop offset="0.445312" stop-color="#9A647D"/>
<stop offset="0.453125" stop-color="#9B657E"/>
<stop offset="0.460938" stop-color="#9B667E"/>
<stop offset="0.46875" stop-color="#9C677F"/>
<stop offset="0.476562" stop-color="#9C6780"/>
<stop offset="0.484375" stop-color="#9D6880"/>
<stop offset="0.492188" stop-color="#9D6981"/>
<stop offset="0.5" stop-color="#9E6A82"/>
<stop offset="0.507812" stop-color="#9E6B82"/>
<stop offset="0.515625" stop-color="#9F6B83"/>
<stop offset="0.523438" stop-color="#9F6C84"/>
<stop offset="0.53125" stop-color="#A06D84"/>
<stop offset="0.539062" stop-color="#A06E85"/>
<stop offset="0.546875" stop-color="#A16E86"/>
<stop offset="0.554688" stop-color="#A16F86"/>
<stop offset="0.5625" stop-color="#A27087"/>
<stop offset="0.570313" stop-color="#A27187"/>
<stop offset="0.578125" stop-color="#A37288"/>
<stop offset="0.585938" stop-color="#A37289"/>
<stop offset="0.59375" stop-color="#A47389"/>
<stop offset="0.601562" stop-color="#A4748A"/>
<stop offset="0.609375" stop-color="#A5758B"/>
<stop offset="0.617188" stop-color="#A5758B"/>
<stop offset="0.625" stop-color="#A6768C"/>
<stop offset="0.632812" stop-color="#A6778D"/>
<stop offset="0.640625" stop-color="#A7788D"/>
<stop offset="0.648438" stop-color="#A7798E"/>
<stop offset="0.65625" stop-color="#A8798F"/>
<stop offset="0.664062" stop-color="#A87A8F"/>
<stop offset="0.671875" stop-color="#A97B90"/>
<stop offset="0.679688" stop-color="#A97C91"/>
<stop offset="0.6875" stop-color="#AA7C91"/>
<stop offset="0.692336" stop-color="#AA7D92"/>
<stop offset="0.695312" stop-color="#AB7E92"/>
<stop offset="0.703125" stop-color="#AB7E93"/>
<stop offset="0.710938" stop-color="#AB7F93"/>
<stop offset="0.71875" stop-color="#AC8094"/>
<stop offset="0.726562" stop-color="#AC8095"/>
<stop offset="0.734375" stop-color="#AD8195"/>
<stop offset="0.742188" stop-color="#AD8296"/>
<stop offset="0.75" stop-color="#AE8397"/>
<stop offset="0.757812" stop-color="#AE8397"/>
<stop offset="0.765625" stop-color="#AF8498"/>
<stop offset="0.773438" stop-color="#AF8598"/>
<stop offset="0.78125" stop-color="#B08699"/>
<stop offset="0.789062" stop-color="#B0879A"/>
<stop offset="0.796875" stop-color="#B1879A"/>
<stop offset="0.804688" stop-color="#B1889B"/>
<stop offset="0.8125" stop-color="#B2899C"/>
<stop offset="0.820312" stop-color="#B28A9C"/>
<stop offset="0.828125" stop-color="#B38A9D"/>
<stop offset="0.835938" stop-color="#B38B9E"/>
<stop offset="0.84375" stop-color="#B48C9E"/>
<stop offset="0.851562" stop-color="#B58D9F"/>
<stop offset="0.859375" stop-color="#B58EA0"/>
<stop offset="0.867188" stop-color="#B68EA0"/>
<stop offset="0.875" stop-color="#B68FA1"/>
<stop offset="0.882812" stop-color="#B790A2"/>
<stop offset="0.890625" stop-color="#B791A2"/>
<stop offset="0.898438" stop-color="#B891A3"/>
<stop offset="0.90625" stop-color="#B892A4"/>
<stop offset="0.914062" stop-color="#B993A4"/>
<stop offset="0.921875" stop-color="#B994A5"/>
<stop offset="0.929687" stop-color="#BA95A6"/>
<stop offset="0.9375" stop-color="#BA95A6"/>
<stop offset="0.945312" stop-color="#BB96A7"/>
<stop offset="0.953125" stop-color="#BB97A8"/>
<stop offset="0.960938" stop-color="#BC98A8"/>
<stop offset="0.96875" stop-color="#BC98A9"/>
<stop offset="0.976562" stop-color="#BD99A9"/>
<stop offset="0.984375" stop-color="#BD9AAA"/>
<stop offset="0.992188" stop-color="#BE9BAB"/>
<stop offset="1" stop-color="#BE9CAB"/>
</linearGradient>
<linearGradient id="paint7_linear_360_1296" x1="147.738" y1="303.759" x2="224.471" y2="183.561" gradientUnits="userSpaceOnUse">
<stop stop-color="#884865"/>
<stop offset="0.0078125" stop-color="#884866"/>
<stop offset="0.015625" stop-color="#884966"/>
<stop offset="0.0234375" stop-color="#894A67"/>
<stop offset="0.03125" stop-color="#894A67"/>
<stop offset="0.0390625" stop-color="#894B68"/>
<stop offset="0.046875" stop-color="#8A4B68"/>
<stop offset="0.0546875" stop-color="#8A4C69"/>
<stop offset="0.0625" stop-color="#8B4D69"/>
<stop offset="0.0703125" stop-color="#8B4D6A"/>
<stop offset="0.078125" stop-color="#8B4E6A"/>
<stop offset="0.0859375" stop-color="#8C4E6B"/>
<stop offset="0.09375" stop-color="#8C4F6B"/>
<stop offset="0.101563" stop-color="#8D506C"/>
<stop offset="0.109375" stop-color="#8D506C"/>
<stop offset="0.117188" stop-color="#8D516D"/>
<stop offset="0.125" stop-color="#8E516D"/>
<stop offset="0.132813" stop-color="#8E526D"/>
<stop offset="0.140625" stop-color="#8E526E"/>
<stop offset="0.148438" stop-color="#8F536E"/>
<stop offset="0.15625" stop-color="#8F546F"/>
<stop offset="0.164063" stop-color="#90546F"/>
<stop offset="0.171875" stop-color="#905570"/>
<stop offset="0.179688" stop-color="#905570"/>
<stop offset="0.1875" stop-color="#915671"/>
<stop offset="0.195313" stop-color="#915771"/>
<stop offset="0.203125" stop-color="#925772"/>
<stop offset="0.210938" stop-color="#925872"/>
<stop offset="0.21875" stop-color="#925873"/>
<stop offset="0.226562" stop-color="#935973"/>
<stop offset="0.234375" stop-color="#935A74"/>
<stop offset="0.242188" stop-color="#935A74"/>
<stop offset="0.249293" stop-color="#945B75"/>
<stop offset="0.25" stop-color="#945B75"/>
<stop offset="0.257813" stop-color="#945B75"/>
<stop offset="0.265625" stop-color="#955C76"/>
<stop offset="0.273438" stop-color="#955C76"/>
<stop offset="0.28125" stop-color="#955D77"/>
<stop offset="0.289063" stop-color="#965E77"/>
<stop offset="0.296875" stop-color="#965E78"/>
<stop offset="0.304688" stop-color="#975F78"/>
<stop offset="0.3125" stop-color="#975F79"/>
<stop offset="0.320313" stop-color="#976079"/>
<stop offset="0.328125" stop-color="#98617A"/>
<stop offset="0.335938" stop-color="#98617A"/>
<stop offset="0.34375" stop-color="#98627B"/>
<stop offset="0.351562" stop-color="#99627B"/>
<stop offset="0.359375" stop-color="#99637C"/>
<stop offset="0.367188" stop-color="#9A637C"/>
<stop offset="0.375" stop-color="#9A647D"/>
<stop offset="0.382813" stop-color="#9A657D"/>
<stop offset="0.390625" stop-color="#9B657E"/>
<stop offset="0.398438" stop-color="#9B667E"/>
<stop offset="0.40625" stop-color="#9C667F"/>
<stop offset="0.414063" stop-color="#9C677F"/>
<stop offset="0.421875" stop-color="#9C6880"/>
<stop offset="0.429688" stop-color="#9D6880"/>
<stop offset="0.4375" stop-color="#9D6981"/>
<stop offset="0.445313" stop-color="#9D6981"/>
<stop offset="0.453125" stop-color="#9E6A82"/>
<stop offset="0.460938" stop-color="#9E6B82"/>
<stop offset="0.46875" stop-color="#9F6B83"/>
<stop offset="0.476563" stop-color="#9F6C83"/>
<stop offset="0.484375" stop-color="#9F6C84"/>
<stop offset="0.492188" stop-color="#A06D84"/>
<stop offset="0.5" stop-color="#A06D85"/>
<stop offset="0.507813" stop-color="#A06E85"/>
<stop offset="0.515625" stop-color="#A16F86"/>
<stop offset="0.523438" stop-color="#A16F86"/>
<stop offset="0.53125" stop-color="#A27087"/>
<stop offset="0.539062" stop-color="#A27087"/>
<stop offset="0.546875" stop-color="#A27188"/>
<stop offset="0.554688" stop-color="#A37288"/>
<stop offset="0.5625" stop-color="#A37289"/>
<stop offset="0.570313" stop-color="#A47389"/>
<stop offset="0.578125" stop-color="#A4738A"/>
<stop offset="0.585938" stop-color="#A4748A"/>
<stop offset="0.59375" stop-color="#A5758B"/>
<stop offset="0.601563" stop-color="#A5758B"/>
<stop offset="0.609375" stop-color="#A5768C"/>
<stop offset="0.617188" stop-color="#A6768C"/>
<stop offset="0.625" stop-color="#A6778D"/>
<stop offset="0.632813" stop-color="#A7778D"/>
<stop offset="0.640625" stop-color="#A7788E"/>
<stop offset="0.648438" stop-color="#A7798E"/>
<stop offset="0.65625" stop-color="#A8798F"/>
<stop offset="0.664062" stop-color="#A87A8F"/>
<stop offset="0.671875" stop-color="#A97A90"/>
<stop offset="0.679688" stop-color="#A97B90"/>
<stop offset="0.6875" stop-color="#A97C91"/>
<stop offset="0.695312" stop-color="#AA7C91"/>
<stop offset="0.703125" stop-color="#AA7D92"/>
<stop offset="0.710938" stop-color="#AA7D92"/>
<stop offset="0.71875" stop-color="#AB7E93"/>
<stop offset="0.726562" stop-color="#AB7F93"/>
<stop offset="0.734375" stop-color="#AC7F94"/>
<stop offset="0.742188" stop-color="#AC8094"/>
<stop offset="0.75" stop-color="#AC8095"/>
<stop offset="0.750707" stop-color="#AD8195"/>
<stop offset="0.757812" stop-color="#AD8195"/>
<stop offset="0.765625" stop-color="#AD8196"/>
<stop offset="0.773438" stop-color="#AE8296"/>
<stop offset="0.78125" stop-color="#AE8396"/>
<stop offset="0.789062" stop-color="#AE8397"/>
<stop offset="0.796875" stop-color="#AF8497"/>
<stop offset="0.804688" stop-color="#AF8498"/>
<stop offset="0.8125" stop-color="#AF8598"/>
<stop offset="0.820312" stop-color="#B08699"/>
<stop offset="0.828125" stop-color="#B08699"/>
<stop offset="0.835938" stop-color="#B1879A"/>
<stop offset="0.84375" stop-color="#B1879A"/>
<stop offset="0.851562" stop-color="#B1889B"/>
<stop offset="0.859375" stop-color="#B2899B"/>
<stop offset="0.867187" stop-color="#B2899C"/>
<stop offset="0.875" stop-color="#B38A9C"/>
<stop offset="0.882812" stop-color="#B38A9D"/>
<stop offset="0.890625" stop-color="#B38B9D"/>
<stop offset="0.898437" stop-color="#B48B9E"/>
<stop offset="0.90625" stop-color="#B48C9E"/>
<stop offset="0.914062" stop-color="#B48D9F"/>
<stop offset="0.921875" stop-color="#B58D9F"/>
<stop offset="0.929687" stop-color="#B58EA0"/>
<stop offset="0.9375" stop-color="#B68EA0"/>
<stop offset="0.945312" stop-color="#B68FA1"/>
<stop offset="0.953125" stop-color="#B690A1"/>
<stop offset="0.960937" stop-color="#B790A2"/>
<stop offset="0.96875" stop-color="#B791A2"/>
<stop offset="0.976562" stop-color="#B791A3"/>
<stop offset="0.984375" stop-color="#B892A3"/>
<stop offset="0.992187" stop-color="#B893A4"/>
<stop offset="1" stop-color="#B993A4"/>
</linearGradient>
<linearGradient id="paint8_linear_360_1296" x1="179.879" y1="49.7676" x2="189.449" y2="63.0699" gradientUnits="userSpaceOnUse">
<stop stop-color="#DCC4BB"/>
<stop offset="0.125" stop-color="#DCC5BB"/>
<stop offset="0.25" stop-color="#DDC5BC"/>
<stop offset="0.375" stop-color="#DEC6BD"/>
<stop offset="0.418236" stop-color="#DEC7BD"/>
<stop offset="0.5" stop-color="#DFC7BE"/>
<stop offset="0.581764" stop-color="#DFC8BE"/>
<stop offset="0.625" stop-color="#DFC8BE"/>
<stop offset="0.75" stop-color="#E0C9BF"/>
<stop offset="0.875" stop-color="#E0C9C0"/>
<stop offset="1" stop-color="#E1CAC0"/>
</linearGradient>
<linearGradient id="paint9_linear_360_1296" x1="179.879" y1="33.4827" x2="189.449" y2="46.7849" gradientUnits="userSpaceOnUse">
<stop stop-color="#DCC4BB"/>
<stop offset="0.125" stop-color="#DCC5BB"/>
<stop offset="0.25" stop-color="#DDC5BC"/>
<stop offset="0.375" stop-color="#DEC6BD"/>
<stop offset="0.418236" stop-color="#DEC7BD"/>
<stop offset="0.5" stop-color="#DFC7BE"/>
<stop offset="0.581764" stop-color="#DFC8BE"/>
<stop offset="0.625" stop-color="#DFC8BE"/>
<stop offset="0.75" stop-color="#E0C9BF"/>
<stop offset="0.875" stop-color="#E0C9C0"/>
<stop offset="1" stop-color="#E1CAC0"/>
</linearGradient>
<linearGradient id="paint10_linear_360_1296" x1="144.068" y1="73.577" x2="143.826" y2="90.4393" gradientUnits="userSpaceOnUse">
<stop stop-color="#D0B5AD"/>
<stop offset="0.125" stop-color="#D0B5AD"/>
<stop offset="0.245496" stop-color="#D1B6AE"/>
<stop offset="0.25" stop-color="#D1B6AE"/>
<stop offset="0.375" stop-color="#D1B6AE"/>
<stop offset="0.5" stop-color="#D2B7AF"/>
<stop offset="0.625" stop-color="#D2B7AF"/>
<stop offset="0.75" stop-color="#D3B8B0"/>
<stop offset="0.754504" stop-color="#D3B9B0"/>
<stop offset="0.875" stop-color="#D3B9B1"/>
<stop offset="1" stop-color="#D3B9B1"/>
</linearGradient>
</defs>
</svg>
