<svg width="133" height="200" viewBox="0 0 133 200" fill="none" xmlns="http://www.w3.org/2000/svg">
<mask id="mask0_317_103269" style="mask-type:luminance" maskUnits="userSpaceOnUse" x="0" y="0" width="130" height="160">
<path d="M0 0H129.333V159.849H0V0Z" fill="white"/>
</mask>
<g mask="url(#mask0_317_103269)">
<path d="M122.469 0.869806L122.458 0.875014C121.786 0.557306 121.083 0.416681 120.344 0.453139C119.599 0.494806 118.911 0.703139 118.281 1.08856L61.5625 35.0469C61.2344 35.2448 60.9323 35.4792 60.6667 35.7552C59.8177 36.6198 59.3958 37.6615 59.3958 38.875V68.7552C59.3906 72.9844 59.151 77.1979 58.6771 81.3959C58.9063 79.349 59.0833 77.2969 59.2031 75.2396C59.1458 75.2709 59.0885 75.2969 59.0365 75.3334L30.0052 92.7136L11.9844 81.9063C9.875 80.6406 6.43229 80.6459 4.32813 81.9115L1.86979 83.3959C0.864584 84 0.34375 84.7865 0.302083 85.5781H0.296875V85.625C0.296875 85.6719 0.296875 85.7188 0.296875 85.7656V89.3386H0.302083C0.255209 90.2083 0.776041 91.0886 1.875 91.7448L16.7292 100.656L13.5208 102.578V131.51L50.4115 153.599V117.646C50.4063 117.281 50.3802 116.917 50.3281 116.552C50.0885 114.776 49.3594 113.234 48.1302 111.922C49.151 111.307 49.6615 110.5 49.6875 109.693C50.3854 110.37 50.9896 111.125 51.4948 111.964C52.5521 113.708 53.0885 115.604 53.0938 117.646V155.208L59.0313 158.766C60.0573 159.38 61.1719 159.688 62.3698 159.688C63.5625 159.688 64.6771 159.38 65.7031 158.766L87.3646 145.797L87.6875 136.807L88.0573 126.385C88.1719 123.297 88.4792 120.224 88.9792 117.167L60.0104 134.51C59.7552 134.667 59.4792 134.771 59.1823 134.823C58.8854 134.875 58.5885 134.87 58.2917 134.813C57.9948 134.755 57.7188 134.646 57.4635 134.49C57.2083 134.328 56.9896 134.125 56.8073 133.885C56.6198 133.813 56.4479 133.714 56.2813 133.594C56.2969 133.604 56.3073 133.615 56.3229 133.62C55.6146 133.141 55.2656 132.479 55.2708 131.625C55.2708 126.057 56.0469 120.594 57.5938 115.24L61.2031 102.755C64.1458 92.5729 65.6198 82.1875 65.6198 71.5886V41.7031C65.6198 40.9219 65.8125 40.1875 66.1979 39.5052C66.5833 38.8229 67.1146 38.2813 67.7917 37.8802L124.505 3.92189C125.115 3.5521 125.771 3.33856 126.479 3.29168C127.188 3.2396 127.87 3.34897 128.521 3.62501L122.469 0.869806ZM49.6406 105.432C49.6354 105.417 49.6302 105.406 49.6302 105.391C49.6354 105.406 49.6406 105.417 49.6406 105.432ZM49.5365 105.109C49.5313 105.094 49.5208 105.073 49.5156 105.052C49.526 105.073 49.5313 105.094 49.5417 105.109H49.5365ZM49.3854 104.802C49.3698 104.776 49.3594 104.75 49.3438 104.724C49.3594 104.75 49.375 104.776 49.3906 104.802H49.3854ZM49.1823 104.495C49.1615 104.469 49.1354 104.438 49.1146 104.411C49.1406 104.438 49.1615 104.469 49.1823 104.495ZM48.599 103.917C48.5625 103.891 48.5365 103.859 48.5 103.833C48.5365 103.859 48.5677 103.891 48.599 103.917ZM41.8281 110.615C42.2031 110.615 42.5729 110.589 42.9427 110.542C42.5729 110.589 42.2031 110.615 41.8333 110.615H41.8281ZM0.739583 86.9896C0.729166 86.9792 0.718749 86.9636 0.708333 86.9531C0.718749 86.9636 0.729167 86.9792 0.734375 86.9896H0.739583ZM1.19271 87.5C1.23438 87.5417 1.29167 87.5781 1.34375 87.6198C1.29167 87.5781 1.23958 87.5417 1.19271 87.5ZM48.1198 108.177C48.2448 108.099 48.3646 108.021 48.474 107.943C48.3646 108.026 48.25 108.104 48.125 108.177H48.1198ZM48.599 107.844C48.6615 107.792 48.724 107.745 48.776 107.693C48.724 107.745 48.6615 107.797 48.599 107.844ZM48.9219 107.557C48.9583 107.516 49 107.474 49.0365 107.432C49 107.479 48.9583 107.516 48.9219 107.557ZM49.6302 106.354C49.6302 106.365 49.6302 106.375 49.625 106.385C49.6302 106.375 49.6302 106.365 49.6354 106.359L49.6302 106.354ZM49.5469 106.63C49.5365 106.646 49.5313 106.661 49.526 106.677C49.5365 106.661 49.5417 106.646 49.5469 106.63ZM49.4167 106.901C49.4063 106.927 49.3906 106.948 49.375 106.974C49.3906 106.953 49.4063 106.927 49.4219 106.901H49.4167ZM49.25 107.172C49.224 107.203 49.1979 107.234 49.1771 107.266C49.2031 107.234 49.2292 107.203 49.25 107.172ZM54.974 99.9167C55.2344 99.0156 55.4792 98.1094 55.7135 97.2031C55.4792 98.1146 55.2344 99.0208 54.974 99.9219V99.9167ZM55.8646 96.6354C56.0938 95.7396 56.3125 94.8438 56.5208 93.9427C56.3177 94.8438 56.099 95.7448 55.8646 96.6406V96.6354ZM56.599 93.6094C56.7969 92.7344 56.9844 91.8594 57.1615 90.9844C56.9844 91.8646 56.7969 92.7396 56.599 93.6094ZM58.6458 81.5834C58.4219 83.5677 58.1406 85.5365 57.8073 87.5C58.1406 85.5365 58.4219 83.5677 58.651 81.5886L58.6458 81.5834ZM118.766 107.099L112.276 103.214L101.375 109.745C100.776 113.135 100.411 116.552 100.286 119.99L99.9427 129.464L99.6198 138.453L118.766 126.99C121.297 125.474 121.911 122.938 121.766 120.12L121.901 112.839C121.943 111.667 121.682 110.568 121.12 109.542C120.557 108.51 119.776 107.698 118.766 107.104V107.099ZM119.49 117.688C119.26 117.87 119.021 118.042 118.766 118.193C119.021 118.042 119.26 117.875 119.49 117.693V117.688ZM119.786 117.422C119.901 117.323 120.016 117.224 120.12 117.12C120.016 117.229 119.901 117.323 119.792 117.422H119.786ZM120.469 116.708C120.526 116.635 120.594 116.568 120.646 116.495C120.594 116.573 120.526 116.641 120.469 116.708ZM121.396 115.172C121.406 115.151 121.417 115.135 121.422 115.115C121.417 115.135 121.406 115.156 121.396 115.172ZM2.83333 112.833V121.073L2.84375 121.083C2.80729 121.672 2.84896 122.25 2.97396 122.828C3.09896 123.406 3.29687 123.953 3.57292 124.474C3.84896 124.995 4.1875 125.469 4.59896 125.901C5.00521 126.328 5.45833 126.693 5.96875 126.99L10.8385 129.906V104.188L5.96875 107.104C4.96354 107.698 4.17708 108.51 3.61458 109.536C3.05208 110.568 2.79167 111.661 2.83333 112.833ZM4.27083 116.714C4.20833 116.641 4.14063 116.573 4.08854 116.495C4.14063 116.573 4.20833 116.641 4.26563 116.714H4.27083ZM3.73958 115.958C3.70833 115.917 3.67708 115.87 3.65104 115.823C3.67708 115.87 3.70833 115.911 3.73958 115.958ZM3.33854 115.177C3.33333 115.156 3.31771 115.135 3.3125 115.115C3.31771 115.135 3.32813 115.156 3.33854 115.177ZM4.61458 117.12C4.71875 117.229 4.83854 117.328 4.94792 117.427C4.83854 117.323 4.71875 117.229 4.61458 117.12ZM5.23958 117.693C5.47396 117.875 5.71354 118.042 5.96875 118.193C5.71354 118.042 5.47396 117.875 5.24479 117.693H5.23958ZM89.0156 136.005L88.6563 145L88.7552 142.521L89.0156 136.005Z" fill="#61A0BA"/>
</g>
<mask id="mask1_317_103269" style="mask-type:luminance" maskUnits="userSpaceOnUse" x="2" y="2" width="131" height="197">
<path d="M2.66675 2.51562H132.787V198.516H2.66675V2.51562Z" fill="white"/>
</mask>
<g mask="url(#mask1_317_103269)">
<path d="M130.016 4.64054C129.661 4.27595 129.26 3.98429 128.812 3.75512C128.359 3.53116 127.885 3.38533 127.385 3.31762C126.885 3.25512 126.391 3.27074 125.896 3.37491C125.401 3.47908 124.937 3.66137 124.505 3.91658L67.7916 37.8801C67.1146 38.2812 66.5833 38.8228 66.1979 39.5051C65.8125 40.1874 65.6198 40.9218 65.6198 41.703V71.5885C65.6198 82.1822 64.1458 92.5728 61.2031 102.75L57.5937 115.234C56.0416 120.588 55.2708 126.052 55.2708 131.625C55.2656 132.125 55.4062 132.578 55.6875 132.989C55.9687 133.401 56.3437 133.703 56.8073 133.88C56.9896 134.125 57.2083 134.323 57.4635 134.484C57.7187 134.646 57.9948 134.75 58.2864 134.807C58.5833 134.87 58.8802 134.87 59.1771 134.818C59.4739 134.766 59.7552 134.661 60.0104 134.505L88.9739 117.167C89.3541 114.823 89.8489 112.5 90.4479 110.193L97.4687 83.5989C97.6979 82.7239 98.1979 82.0572 98.9739 81.5937L107.953 76.2395C108.458 75.9374 109.193 76.4843 109.687 77.4062H109.682C109.745 77.5051 109.76 77.6145 109.729 77.7291L102.797 103.385C102.229 105.484 101.755 107.604 101.375 109.745L120.802 98.1145C121.167 97.8957 121.453 97.5989 121.667 97.2239C121.875 96.8541 121.984 96.453 121.984 96.026V93.0572C121.984 87.5207 122.745 82.0885 124.276 76.7655L127.969 63.9062C130.875 53.7864 132.328 43.4635 132.328 32.9374V8.54679C132.333 7.73429 132.13 6.97387 131.714 6.27074C131.297 5.57283 130.729 5.02595 130.016 4.64054ZM127.271 4.11449C127.214 4.12491 127.151 4.14054 127.089 4.15616C127.151 4.14054 127.214 4.12491 127.276 4.11449H127.271ZM121.672 122.489C121.865 123.172 121.943 123.864 121.906 124.573C121.87 125.281 121.719 125.963 121.453 126.625C121.193 127.281 120.833 127.88 120.37 128.422C119.911 128.963 119.375 129.411 118.766 129.776L99.5208 141.302L99.6198 138.453L118.766 126.989C119.578 126.51 120.24 125.875 120.75 125.083C121.26 124.292 121.568 123.427 121.672 122.489ZM87.2812 148.625L65.7031 161.547C64.6771 162.161 63.5625 162.469 62.3698 162.469C61.1718 162.469 60.0573 162.161 59.0312 161.547L57.0364 160.354L57.2968 160.182C57.4479 160.088 57.5729 159.969 57.6718 159.823C57.776 159.677 57.8437 159.516 57.8802 159.344C57.9218 159.172 57.9218 158.995 57.8906 158.823C57.8593 158.646 57.7968 158.484 57.7031 158.338C57.6041 158.187 57.4843 158.062 57.3385 157.963C57.1927 157.859 57.0312 157.792 56.8593 157.75C56.6875 157.713 56.5104 157.713 56.3385 157.739C56.1614 157.771 56 157.838 55.8489 157.932L54.4687 158.818L53.0937 157.989V155.208L59.0312 158.766C60.0573 159.38 61.1718 159.687 62.3698 159.687C63.5625 159.687 64.6771 159.38 65.7031 158.766L87.3646 145.792L87.2656 148.609L87.2812 148.625ZM5.96872 126.989L10.8385 129.906V132.693L5.96872 129.776C5.38539 129.427 4.86976 129 4.42185 128.489C3.97393 127.979 3.61456 127.411 3.34893 126.786C3.0781 126.167 2.91143 125.516 2.84893 124.838C2.78643 124.161 2.83331 123.495 2.98435 122.833C3.16664 123.703 3.5156 124.5 4.03643 125.224C4.55726 125.948 5.2031 126.536 5.96872 126.989ZM18.625 135.036C18.5468 134.88 18.4375 134.745 18.3021 134.63C18.1666 134.516 18.0156 134.427 17.8437 134.375C17.6771 134.318 17.5052 134.302 17.3229 134.312C17.1458 134.328 16.9791 134.375 16.8229 134.458L15.1823 135.297L13.5208 134.297V131.51L50.4114 153.599V156.385L17.8958 136.917L18.0468 136.838C18.2031 136.755 18.3385 136.651 18.4583 136.516C18.5729 136.38 18.6562 136.229 18.7083 136.057C18.7656 135.891 18.7864 135.719 18.7708 135.542C18.7552 135.364 18.7083 135.198 18.625 135.036ZM94.3385 187.807L70.6302 173.562V176.24C70.6875 176.474 70.7239 176.708 70.7291 176.953L91.6302 189.526C91.6458 189.536 91.6614 189.547 91.6771 189.557L70.7291 176.969C70.7604 178.276 69.9531 179.583 68.2968 180.578C68.0156 180.745 67.7239 180.891 67.4271 181.021L95.3021 197.776L98.0156 196.057V194.302C98.0156 192.974 97.6875 191.729 97.0312 190.573C96.375 189.417 95.4791 188.495 94.3385 187.807ZM91.6875 189.568C92.3854 189.99 92.9948 190.516 93.5156 191.135C92.9948 190.516 92.3854 189.99 91.6875 189.562V189.568ZM94.7864 193.281C94.8333 193.396 94.8802 193.51 94.9166 193.625C94.875 193.51 94.8333 193.396 94.7864 193.281ZM31.6406 151.859H31.6354L31.5937 151.885C31.3437 152 31.1041 152.146 30.8906 152.323L28.5208 153.792L28.526 153.797C28.0208 154.104 27.625 154.516 27.3333 155.031C27.0468 155.547 26.9062 156.099 26.9062 156.687L54.0052 172.974V170.349C54.0416 169.281 54.4687 168.396 55.2708 167.693C55.6302 167.354 56.0208 167.052 56.4479 166.802C56.7916 166.599 57.151 166.422 57.5208 166.266V165.703L34.8021 152.047C34.3229 151.755 33.8021 151.594 33.2448 151.562C32.6823 151.526 32.151 151.63 31.6406 151.859ZM30.7239 153.292C30.6927 153.292 30.6614 153.292 30.6302 153.286C30.6614 153.292 30.6927 153.292 30.7239 153.297V153.292ZM30.2604 153.271C30.2396 153.271 30.2187 153.276 30.1979 153.276C30.2187 153.276 30.2396 153.276 30.2604 153.276V153.271ZM96.4323 153.88L94.0677 152.406C93.8489 152.234 93.6146 152.088 93.3593 151.969L93.3177 151.943L93.3125 151.948C92.8021 151.713 92.2708 151.614 91.7083 151.646C91.151 151.677 90.6302 151.844 90.151 152.135L67.2239 165.906V166.266C67.5937 166.422 67.9531 166.599 68.2968 166.802C68.776 167.083 69.2135 167.422 69.6041 167.823C70.0677 168.245 70.3854 168.75 70.5677 169.344C70.75 169.937 70.7708 170.536 70.6302 171.141V173.25L98.0468 156.771C98.0468 156.182 97.9062 155.63 97.6198 155.114C97.3281 154.599 96.9323 154.187 96.4323 153.88ZM94.3229 153.375C94.2916 153.38 94.2604 153.38 94.2239 153.38C94.2604 153.375 94.2864 153.38 94.3229 153.375ZM93.4271 153.583C93.3906 153.599 93.3489 153.609 93.3073 153.625C93.3437 153.609 93.3854 153.599 93.4271 153.583ZM93.8854 153.443C93.8437 153.453 93.8021 153.458 93.7656 153.469C93.8021 153.458 93.8437 153.453 93.8802 153.443H93.8854ZM56.4479 180.578C54.8802 179.641 54.0781 178.411 54.0156 177.177L33.2396 189.661C33.2604 189.651 33.276 189.635 33.2916 189.625L54.0156 177.161C54.0156 177.115 54.0052 177.073 54.0052 177.031V173.833L30.5833 187.906C29.4427 188.594 28.5468 189.516 27.8906 190.672C27.2343 191.833 26.9062 193.073 26.9062 194.406V196.161L29.6146 197.875L57.5156 181.109C57.151 180.958 56.7916 180.781 56.4479 180.578ZM29.6562 195.406C29.651 195.479 29.6406 195.552 29.6354 195.625C29.6354 195.552 29.6458 195.479 29.6562 195.406ZM31.1041 191.615C31.6927 190.828 32.401 190.177 33.2396 189.661C32.401 190.177 31.6875 190.828 31.1041 191.615ZM30.5885 192.417C30.6614 192.286 30.7396 192.156 30.8229 192.026C30.7396 192.151 30.6614 192.286 30.5833 192.417H30.5885ZM30.8333 192.01C30.9218 191.875 31.0104 191.745 31.1041 191.62C31.0104 191.745 30.9166 191.875 30.8333 192.005V192.01Z" fill="#F0DFD3"/>
</g>
<path d="M18.6251 135.036C18.7084 135.198 18.7553 135.365 18.7709 135.542C18.7865 135.719 18.7657 135.891 18.7084 136.057C18.6563 136.229 18.573 136.38 18.4584 136.516C18.3386 136.651 18.2032 136.755 18.047 136.838L14.9167 138.437C14.7032 138.547 14.4792 138.63 14.2449 138.682C14.0105 138.734 13.7709 138.755 13.5313 138.745C13.2917 138.734 13.0574 138.698 12.8282 138.63C12.599 138.557 12.3803 138.463 12.1772 138.338C11.974 138.213 11.7865 138.062 11.6199 137.891C11.4532 137.719 11.3126 137.531 11.198 137.318C11.0782 137.109 10.9897 136.891 10.9272 136.661C10.8699 136.427 10.8386 136.193 10.8386 135.953V97.1249L13.5209 98.7343V135.953C13.5209 136 13.5417 136.031 13.5782 136.052C13.6147 136.078 13.6511 136.078 13.6928 136.057L16.823 134.458C16.9792 134.375 17.1511 134.328 17.3282 134.312C17.5053 134.302 17.6772 134.318 17.8438 134.375C18.0157 134.427 18.1667 134.516 18.3022 134.63C18.4376 134.745 18.547 134.88 18.6251 135.036ZM57.297 160.182C57.448 160.088 57.573 159.969 57.672 159.823C57.7761 159.677 57.8438 159.516 57.8803 159.344C57.922 159.172 57.922 158.995 57.8907 158.823C57.8595 158.646 57.797 158.484 57.7032 158.338C57.6042 158.187 57.4845 158.062 57.3386 157.963C57.1928 157.859 57.0313 157.792 56.8595 157.75C56.6876 157.713 56.5105 157.713 56.3386 157.74C56.1615 157.771 56.0001 157.838 55.849 157.932L53.2709 159.583C53.2345 159.609 53.1928 159.615 53.1511 159.588C53.1095 159.568 53.0886 159.531 53.0938 159.484V117.646C53.0886 116.146 52.7865 114.703 52.198 113.323C51.6042 111.943 50.7709 110.734 49.6876 109.693C49.6615 110.5 49.1511 111.307 48.1303 111.922C48.8595 112.698 49.422 113.578 49.8126 114.568C50.2084 115.557 50.4063 116.578 50.4115 117.646V159.479C50.4115 159.99 50.5417 160.469 50.8022 160.906C51.0626 161.344 51.4167 161.687 51.8699 161.932C52.3178 162.177 52.797 162.292 53.3074 162.271C53.8178 162.255 54.2917 162.109 54.724 161.833L57.297 160.182ZM109.729 77.7291L102.797 103.385C101.323 108.828 100.49 114.359 100.287 119.99L99.4584 143.021L88.4793 149.573C88.474 149.573 88.474 149.573 88.474 149.573L89.2136 131.151L88.7553 142.521L88.474 149.573L87.2657 148.609L88.0626 126.385C88.2605 120.901 89.0574 115.5 90.4584 110.193L97.474 83.5989C97.7032 82.7239 98.2084 82.0572 98.9845 81.5937L107.958 76.2395C108.469 75.9374 109.198 76.4843 109.693 77.4062H109.688C109.75 77.5051 109.761 77.6145 109.729 77.7291ZM91.0105 113.943C91.0001 113.984 90.9897 114.026 90.9845 114.068C90.9584 114.167 90.9376 114.266 90.9168 114.365C90.948 114.224 90.9793 114.083 91.0105 113.943ZM109.224 77.1978L109.198 77.1874L109.094 77.2499C109.136 77.2239 109.177 77.2083 109.219 77.1978H109.224ZM68.297 166.802C67.9532 166.599 67.5938 166.422 67.224 166.266V160.635L65.7032 161.547C64.6772 162.161 63.5678 162.469 62.3699 162.469C61.172 162.469 60.0574 162.161 59.0313 161.547L57.5209 160.641V166.266C57.1511 166.422 56.797 166.599 56.448 166.802C54.8178 167.776 54.0053 169.062 54.0053 170.349V177.031C54.0053 178.318 54.823 179.604 56.448 180.578C59.7084 182.531 65.0417 182.531 68.297 180.578C70.2657 179.401 71.0365 177.771 70.6303 176.24V171.141C71.0365 169.604 70.2657 167.979 68.297 166.802ZM31.8751 164.818C31.4167 165.094 30.7865 165.057 30.0886 164.641C29.3386 164.12 28.7397 163.463 28.297 162.667C27.8542 161.87 27.6095 161.021 27.5678 160.109C27.5678 159.276 27.8542 158.687 28.3126 158.417L29.0209 157.963L30.0209 158.562C30.0417 158.578 30.0626 158.588 30.0886 158.599C30.1147 158.615 30.1407 158.635 30.1615 158.651L35.2709 161.719C35.2553 162.213 35.073 162.635 34.7136 162.984H34.7084C34.6407 163.042 34.5626 163.088 34.4845 163.13L31.8751 164.818ZM32.6095 163.13C32.6095 163.234 32.6095 163.333 32.599 163.427C32.6095 163.333 32.6147 163.234 32.6147 163.13C32.6147 163.026 32.6095 162.922 32.599 162.818C32.6095 162.922 32.6095 163.026 32.6095 163.13ZM87.9897 193.385L93.0522 196.422C93.0365 196.922 92.8543 197.338 92.4949 197.687H92.4897C92.422 197.745 92.3438 197.792 92.2657 197.833L89.6563 199.521C89.198 199.797 88.5678 199.76 87.8699 199.344C87.1199 198.823 86.5209 198.167 86.0782 197.37C85.6355 196.578 85.3907 195.724 85.3438 194.812C85.3438 193.979 85.6303 193.391 86.0938 193.12L86.797 192.667L87.7553 193.24C87.7918 193.26 87.8282 193.276 87.8699 193.302C87.9063 193.323 87.948 193.354 87.9897 193.38V193.385ZM90.3907 197.833C90.3907 197.937 90.3907 198.036 90.3803 198.135C90.3907 198.036 90.3959 197.937 90.3959 197.833C90.3959 197.729 90.3907 197.625 90.3803 197.521C90.3855 197.625 90.3907 197.729 90.3907 197.833ZM39.573 194.911C39.5313 195.823 39.2865 196.677 38.8438 197.469C38.4011 198.266 37.8022 198.927 37.0522 199.443C36.3542 199.859 35.724 199.896 35.2657 199.62L32.6563 197.932C32.573 197.891 32.5001 197.844 32.4324 197.786H32.4272C32.0678 197.437 31.8803 197.021 31.8647 196.521L36.9272 193.479C36.9688 193.453 37.0105 193.427 37.0522 193.401C37.0938 193.375 37.1251 193.359 37.1667 193.338L38.1199 192.766L38.8282 193.219C39.2865 193.49 39.573 194.078 39.573 194.911ZM97.3855 160.193C97.3438 161.104 97.099 161.958 96.6563 162.75C96.2136 163.547 95.6147 164.203 94.8647 164.724C94.1667 165.141 93.5365 165.177 93.073 164.901L90.4636 163.213C90.3855 163.172 90.3126 163.125 90.2397 163.068H90.2345C89.8803 162.719 89.6928 162.297 89.6772 161.802L94.7865 158.729C94.8126 158.713 94.8386 158.698 94.8647 158.682C94.8855 158.667 94.9063 158.656 94.9324 158.646L95.9324 158.042L96.6407 158.5C97.099 158.771 97.3855 159.359 97.3855 160.193Z" fill="#BB8539"/>
<mask id="mask2_317_103269" style="mask-type:luminance" maskUnits="userSpaceOnUse" x="0" y="0" width="133" height="200">
<path d="M0 0H132.786V200H0V0Z" fill="white"/>
</mask>
<g mask="url(#mask2_317_103269)">
<path d="M130.172 4.46877C130.161 4.46356 130.151 4.45836 130.146 4.45315C129.708 4.01565 129.203 3.67711 128.63 3.43752C128.625 3.43231 128.625 3.42711 128.615 3.4219L122.557 0.666689C122.542 0.661481 122.526 0.656273 122.51 0.651064C121.812 0.328148 121.078 0.187522 120.307 0.229189C119.536 0.276063 118.823 0.494814 118.167 0.895855L61.4478 34.8542C61.0989 35.0625 60.7864 35.3125 60.5051 35.599C59.6093 36.5104 59.1614 37.599 59.1666 38.875V68.7604C59.1666 70.875 59.1041 72.9896 58.9843 75.1042C58.9635 75.1146 58.9374 75.125 58.9166 75.1406L30.0051 92.4531L12.0989 81.7136C9.92179 80.4115 6.38534 80.4115 4.21346 81.7188L1.75513 83.2031C0.718668 83.8281 0.130126 84.6563 0.0780436 85.5573C0.0780436 85.5677 0.0728353 85.5729 0.0728353 85.5781V85.625C0.0728353 85.6511 0.067627 85.6719 0.067627 85.6979C0.067627 85.724 0.0728353 85.7396 0.0728353 85.7656V89.3386C0.0728353 89.349 0.0728353 89.3542 0.0728353 89.3646C0.0363766 90.3386 0.645752 91.2761 1.75513 91.9375L10.6145 97.25V104.063L5.85409 106.911C4.83846 107.51 4.04159 108.323 3.46346 109.349C2.88013 110.37 2.59367 111.474 2.59888 112.651C2.59888 112.766 2.60409 112.885 2.60929 113V121.073C2.60929 121.094 2.6145 121.109 2.61971 121.13C2.58846 121.708 2.63533 122.281 2.74992 122.849C2.60929 123.526 2.57284 124.214 2.64054 124.906C2.71346 125.599 2.88533 126.266 3.16138 126.901C3.44263 127.542 3.80721 128.12 4.27075 128.646C4.72909 129.167 5.25513 129.609 5.85409 129.969L10.6145 132.818V135.953C10.6145 136.214 10.6458 136.469 10.7135 136.719C10.776 136.969 10.8697 137.203 10.9999 137.432C11.1249 137.656 11.276 137.865 11.4583 138.047C11.6353 138.234 11.8385 138.396 12.0572 138.531C12.2812 138.667 12.5155 138.771 12.7603 138.844C13.0103 138.922 13.2655 138.964 13.5208 138.969C13.7812 138.979 14.0364 138.958 14.2916 138.901C14.5416 138.844 14.7864 138.755 15.0155 138.641L17.8853 137.172L50.1874 156.516V159.484C50.1874 160.26 50.4478 160.932 50.9739 161.505L34.9166 151.859C34.4166 151.552 33.8697 151.38 33.2812 151.339C32.6926 151.302 32.1301 151.401 31.5885 151.641C31.5624 151.646 31.5416 151.656 31.5155 151.672L31.4999 151.682C31.2395 151.802 30.9947 151.953 30.7708 152.135L28.401 153.604C28.3958 153.609 28.3905 153.62 28.3853 153.62C27.8541 153.953 27.4374 154.391 27.1353 154.932C26.828 155.479 26.6822 156.068 26.6822 156.693C26.6822 156.776 26.7187 156.839 26.7916 156.88L28.5989 157.969L28.1926 158.229C28.1926 158.229 28.1926 158.234 28.1874 158.234C27.6458 158.568 27.3437 159.229 27.3437 160.109C27.3905 161.057 27.6458 161.948 28.1093 162.776C28.5676 163.609 29.1926 164.292 29.9739 164.833C30.3541 165.073 30.7655 165.203 31.2135 165.219C31.4791 165.224 31.7239 165.156 31.9583 165.026C31.9687 165.021 31.9739 165.016 31.9843 165.01C31.9895 165.01 31.9895 165.01 31.9947 165.01L31.9999 165.005L32.0208 164.99L32.0364 164.979L34.5885 163.328C34.6874 163.281 34.776 163.219 34.8593 163.151C35.177 162.859 35.3697 162.5 35.4426 162.078L53.7864 173.099V173.714L30.4687 187.719C29.2968 188.427 28.3749 189.375 27.6978 190.568C27.026 191.755 26.6874 193.036 26.6822 194.401V196.161C26.6822 196.24 26.7187 196.302 26.7864 196.349L29.4947 198.068H29.5051C29.5364 198.083 29.5676 198.094 29.6041 198.094C29.6093 198.094 29.6093 198.099 29.6145 198.099C29.6562 198.099 29.6926 198.089 29.7239 198.073L29.7291 198.068H29.7343L31.703 196.88C31.776 197.307 31.9687 197.667 32.2916 197.958C32.3645 198.021 32.4478 198.078 32.5364 198.12L35.0676 199.755C35.0937 199.776 35.1249 199.792 35.151 199.807H35.1562C35.1666 199.813 35.177 199.823 35.1874 199.828C35.4166 199.958 35.6666 200.021 35.9322 200.021C36.3801 200.005 36.7916 199.875 37.1666 199.635C37.9478 199.094 38.5728 198.411 39.0364 197.578C39.4999 196.75 39.7499 195.859 39.7968 194.911C39.7968 194.031 39.4999 193.37 38.9583 193.036C38.953 193.036 38.953 193.031 38.9478 193.031L38.5468 192.771L57.5312 181.359C59.0885 181.979 60.703 182.276 62.3749 182.266C64.1197 182.281 65.802 181.953 67.4114 181.276L86.3749 192.672L85.9739 192.932L85.9687 192.938C85.427 193.266 85.1249 193.927 85.1249 194.813C85.1718 195.76 85.4218 196.651 85.8853 197.479C86.3489 198.313 86.9739 198.995 87.7551 199.531C88.1301 199.776 88.5416 199.906 88.9895 199.922C89.2551 199.922 89.5051 199.859 89.7343 199.729C89.7447 199.724 89.7551 199.719 89.7655 199.714H89.7708L89.776 199.708L89.7916 199.698L89.828 199.677L92.3697 198.031C92.4635 197.984 92.5572 197.927 92.6353 197.859C92.953 197.568 93.1458 197.208 93.2187 196.786L95.1874 197.974H95.1978C95.2708 198.016 95.3437 198.016 95.4166 197.974C95.4166 197.974 95.4166 197.974 95.4218 197.969L98.1353 196.25C98.203 196.208 98.2395 196.146 98.2395 196.063V194.307C98.2343 192.943 97.8958 191.661 97.2187 190.474C96.5468 189.281 95.6249 188.333 94.453 187.625L70.8541 173.443V173.38L89.5155 162.167C89.5833 162.594 89.7812 162.953 90.0989 163.245C90.177 163.307 90.2551 163.365 90.3437 163.406L92.8853 165.047C92.9062 165.063 92.9322 165.078 92.9583 165.099C92.9635 165.099 92.9687 165.099 92.9687 165.099C92.9791 165.104 92.9895 165.109 92.9947 165.12C93.2291 165.245 93.4791 165.313 93.7395 165.307C94.1874 165.292 94.5989 165.161 94.9791 164.922C95.7603 164.38 96.3853 163.698 96.8489 162.865C97.3072 162.036 97.5624 161.146 97.6093 160.198C97.6093 159.318 97.3072 158.656 96.7655 158.328C96.7603 158.328 96.7603 158.323 96.7603 158.318L96.3541 158.057L98.1614 156.969C98.2343 156.927 98.2708 156.865 98.2708 156.781C98.2708 156.156 98.1249 155.573 97.8228 155.026C97.5208 154.479 97.1041 154.042 96.5728 153.714C96.5624 153.708 96.5624 153.698 96.552 153.693L94.1926 152.229C93.9739 152.052 93.7343 151.906 93.4739 151.781L93.4374 151.76C93.4166 151.745 93.3905 151.74 93.3697 151.734C92.828 151.49 92.2655 151.391 91.677 151.427C91.0885 151.469 90.5416 151.641 90.0364 151.948L67.4478 165.516V160.76L87.2655 148.896L88.3333 149.75C88.3385 149.755 88.3489 149.755 88.3593 149.76C88.3697 149.766 88.3697 149.771 88.3749 149.771C88.3958 149.781 88.4218 149.786 88.4426 149.792C88.453 149.792 88.4635 149.797 88.4739 149.797C88.5051 149.797 88.5364 149.792 88.5624 149.781C88.5676 149.776 88.5728 149.771 88.578 149.771C88.5833 149.766 88.5885 149.771 88.5885 149.766L99.5572 143.224C99.6353 143.182 99.677 143.115 99.6822 143.026L99.7395 141.432L118.88 129.969C119.51 129.594 120.062 129.135 120.536 128.583C121.01 128.031 121.385 127.417 121.656 126.74C121.932 126.068 122.088 125.365 122.13 124.635C122.172 123.911 122.094 123.198 121.901 122.495C122.01 121.708 122.036 120.917 121.99 120.125L122.12 113.115C122.13 112.958 122.135 112.802 122.135 112.646C122.141 111.469 121.854 110.37 121.276 109.349C120.693 108.323 119.896 107.51 118.88 106.911L112.713 103.214L120.917 98.3073C121.312 98.0677 121.63 97.7448 121.859 97.3386C122.088 96.9323 122.203 96.4948 122.208 96.0313V93.0573C122.208 87.5417 122.969 82.1354 124.49 76.8334L128.182 63.974C131.099 53.8334 132.552 43.4896 132.552 32.9427V8.5469C132.557 7.70315 132.349 6.91148 131.922 6.18231C131.495 5.45315 130.911 4.88023 130.172 4.46877ZM128.302 3.88023C128.167 3.86981 128.026 3.8594 127.891 3.8594C127.823 3.8594 127.755 3.8594 127.687 3.86461C127.552 3.86981 127.422 3.88023 127.286 3.89586C127.229 3.90106 127.167 3.91148 127.104 3.9219C126.943 3.94794 126.776 3.9844 126.615 4.02606C126.594 4.03127 126.573 4.04169 126.552 4.0469C126.391 4.09377 126.229 4.15106 126.078 4.21356C126.031 4.2344 125.99 4.25523 125.943 4.27606C125.771 4.34898 125.604 4.43752 125.443 4.53127L68.7239 38.4896C68.0155 38.9115 67.4583 39.4844 67.052 40.1979C66.651 40.9167 66.4426 41.6823 66.4426 42.5052V72.3906C66.4426 82.9636 64.9739 93.3281 62.0364 103.49L58.427 115.974C56.8697 121.349 56.0937 126.828 56.0937 132.422C56.0937 132.557 56.1041 132.693 56.1249 132.828C56.1301 132.859 56.1405 132.896 56.1458 132.927C56.1666 133.031 56.1926 133.13 56.2239 133.229C56.2239 133.245 56.2291 133.255 56.2343 133.271C56.1666 133.214 56.1041 133.151 56.0468 133.089C56.0364 133.073 56.0208 133.052 56.0051 133.036C55.9687 132.99 55.9322 132.948 55.901 132.906C55.8749 132.87 55.8541 132.833 55.828 132.797C55.8124 132.766 55.7916 132.734 55.776 132.703C55.7499 132.661 55.7291 132.615 55.703 132.573C55.6926 132.547 55.6822 132.521 55.6718 132.495C55.651 132.443 55.6301 132.396 55.6145 132.349C55.6041 132.318 55.5937 132.286 55.5833 132.26C55.5728 132.214 55.5572 132.167 55.5468 132.115C55.5364 132.073 55.5312 132.036 55.526 131.995C55.5155 131.953 55.5103 131.917 55.5051 131.875C55.4947 131.792 55.4895 131.708 55.4895 131.625C55.4895 126.073 56.2603 120.63 57.802 115.297L61.4166 102.813C64.3697 92.6094 65.8437 82.2031 65.8437 71.5886V41.7031C65.8437 40.9636 66.0312 40.2656 66.3958 39.6198C66.7655 38.9688 67.2655 38.4531 67.9062 38.0677L124.62 4.1094C124.781 4.01565 124.948 3.93231 125.12 3.8594C125.156 3.84377 125.198 3.82815 125.234 3.81252C125.37 3.75523 125.51 3.70836 125.651 3.66669C125.682 3.65627 125.719 3.65106 125.75 3.64065C125.901 3.60419 126.052 3.57294 126.208 3.55211L126.276 3.54169C126.443 3.52086 126.609 3.51044 126.781 3.50523C126.792 3.50523 126.802 3.50523 126.812 3.50523C126.958 3.51044 127.099 3.51565 127.24 3.53127L127.297 3.53648C127.427 3.55211 127.557 3.57294 127.682 3.60419C127.719 3.6094 127.75 3.61461 127.781 3.62502C127.896 3.65106 128.01 3.68231 128.125 3.71877C128.172 3.7344 128.219 3.75523 128.266 3.77086C128.391 3.81773 128.51 3.86461 128.63 3.9219C128.594 3.91669 128.562 3.91148 128.526 3.90627C128.453 3.89585 128.38 3.88544 128.302 3.88023ZM57.3645 134.677C57.3801 134.688 57.3958 134.703 57.4114 134.714C57.427 134.719 57.4322 134.729 57.4478 134.734C57.5676 134.802 57.6874 134.859 57.8176 134.906C57.828 134.911 57.8385 134.911 57.8489 134.917C57.9843 134.964 58.1197 135.005 58.2603 135.031L58.2916 135.036C58.5937 135.099 58.901 135.099 59.203 135.042C59.2187 135.036 59.2343 135.036 59.2499 135.031C59.3749 135.005 59.4999 134.974 59.6249 134.927C59.6562 134.917 59.6874 134.906 59.7187 134.896C59.8593 134.844 59.9947 134.776 60.1249 134.698L88.677 117.604C88.3437 119.74 88.1041 121.885 87.9583 124.047C87.953 124.104 87.9478 124.161 87.9426 124.219C87.8958 124.938 87.8593 125.656 87.8333 126.375L87.4635 136.672L65.5833 149.776C64.5937 150.37 63.5208 150.667 62.3645 150.667C61.2083 150.667 60.1353 150.37 59.1458 149.776L53.3124 146.281V132.516L55.9947 133.719L56.2187 133.818C56.2291 133.823 56.2395 133.828 56.2499 133.839C56.3072 133.875 56.3593 133.906 56.4166 133.938C56.4947 133.984 56.5728 134.026 56.6562 134.063C56.7551 134.182 56.8645 134.297 56.9843 134.401L57.0312 134.443C57.1353 134.526 57.2447 134.609 57.3645 134.677ZM89.4947 115.505C89.5051 115.432 89.5208 115.359 89.5364 115.286C89.6301 114.781 89.7291 114.281 89.8385 113.781C89.8749 113.594 89.9166 113.411 89.9583 113.229C90.0416 112.833 90.1301 112.432 90.2239 112.042C90.3697 111.443 90.5155 110.849 90.6718 110.255L97.6874 83.6563C97.901 82.8438 98.3697 82.2188 99.0989 81.7865L108.073 76.4323C108.177 76.3698 108.292 76.3594 108.406 76.4011C108.463 76.4167 108.516 76.4375 108.568 76.4688C108.588 76.474 108.604 76.4844 108.62 76.4948C108.661 76.5209 108.703 76.5469 108.745 76.5781C108.76 76.5886 108.776 76.599 108.792 76.6146C108.849 76.6615 108.906 76.7084 108.958 76.7604L108.969 76.7761C109.021 76.8281 109.073 76.8854 109.125 76.9479L109.141 76.9688C109.12 76.974 109.104 76.9844 109.083 76.9948L107.073 78.1927L100.073 82.3698C99.9999 82.4167 99.927 82.4636 99.8593 82.5104C99.453 82.7917 99.1197 83.1406 98.8645 83.5625C98.6822 83.8594 98.552 84.1719 98.4635 84.5052L91.5572 110.677C91.3228 111.563 91.1145 112.453 90.9114 113.344C90.8697 113.536 90.828 113.729 90.7864 113.922L90.7083 114.266C90.6874 114.375 90.6614 114.484 90.6405 114.594V114.604C90.5155 115.198 90.401 115.802 90.2916 116.406C90.2291 116.771 90.1666 117.13 90.1093 117.495C90.0728 117.708 90.0364 117.922 90.0051 118.141C89.927 118.63 89.8541 119.125 89.7916 119.62L89.7603 119.844C89.6874 120.396 89.6197 120.943 89.5572 121.495C89.5572 121.505 89.5572 121.521 89.5572 121.536C89.552 121.557 89.552 121.583 89.5468 121.604C89.4739 122.286 89.4114 122.969 89.3541 123.651C89.3385 123.839 89.3228 124.031 89.3124 124.219C89.2916 124.469 89.276 124.724 89.2603 124.974C89.2239 125.521 89.1926 126.068 89.1718 126.604L88.7916 135.995L88.5103 143L88.4322 145.005L88.2655 149.12L87.4895 148.5L88.2812 126.385C88.3072 125.651 88.3437 124.917 88.3958 124.177C88.4062 124.052 88.4166 123.927 88.427 123.802C88.4687 123.167 88.5208 122.526 88.5885 121.885C88.5937 121.797 88.6041 121.708 88.6145 121.62C88.6822 120.938 88.7655 120.25 88.8541 119.563C88.8593 119.51 88.8645 119.458 88.8697 119.411C88.9687 118.688 89.0728 117.969 89.1874 117.245L89.2083 117.13C89.2968 116.589 89.3958 116.047 89.4947 115.505ZM87.0416 148.51L65.5885 161.354C64.5989 161.953 63.526 162.25 62.3697 162.25C61.2135 162.25 60.1405 161.953 59.151 161.354L57.4583 160.344C57.4999 160.318 57.5312 160.286 57.5676 160.255C57.6093 160.229 57.6405 160.198 57.677 160.167C57.7135 160.125 57.7551 160.083 57.7864 160.036C57.8124 160.005 57.8437 159.974 57.8645 159.938C57.901 159.885 57.9322 159.828 57.9635 159.771C57.9791 159.74 57.9947 159.708 58.0103 159.677C58.052 159.589 58.0833 159.49 58.1041 159.391C58.1249 159.297 58.1353 159.203 58.1353 159.109C58.1353 159.078 58.1353 159.047 58.1353 159.021C58.1353 158.953 58.1301 158.891 58.1197 158.828C58.1145 158.792 58.1093 158.76 58.0989 158.729C58.0885 158.667 58.0676 158.609 58.052 158.547C58.0364 158.516 58.026 158.484 58.0155 158.453C58.0051 158.438 58.0051 158.422 57.9947 158.401L58.9166 158.958C59.9791 159.594 61.1301 159.911 62.3697 159.911C63.6093 159.911 64.7551 159.594 65.8176 158.958L87.1249 146.198L87.0885 147.313L87.0416 148.51ZM65.9218 172.594C66.9062 172.005 67.4478 171.208 67.4478 170.349V166.615C67.4999 166.641 67.5624 166.667 67.6145 166.688L67.7447 166.755C67.901 166.833 68.0468 166.911 68.1822 166.995C68.3437 167.089 68.4895 167.193 68.6353 167.292C68.6874 167.328 68.7395 167.365 68.7864 167.401C68.8801 167.474 68.9687 167.547 69.0572 167.62C69.1562 167.708 69.2551 167.797 69.3489 167.885C69.3905 167.927 69.427 167.964 69.4687 168.005C69.5624 168.104 69.651 168.203 69.7343 168.307L69.776 168.359C69.8593 168.474 69.9426 168.589 70.0155 168.708C70.4947 169.443 70.6249 170.234 70.4114 171.083C70.2655 171.599 70.0208 172.057 69.6718 172.464C69.6614 172.479 69.651 172.49 69.6353 172.505C69.5728 172.583 69.5051 172.651 69.4322 172.724C69.3801 172.781 69.328 172.833 69.2708 172.885C69.2135 172.943 69.1458 173 69.0833 173.057C68.9999 173.125 68.9114 173.193 68.8228 173.26C68.7708 173.302 68.7187 173.344 68.6614 173.385C68.5103 173.495 68.3489 173.604 68.1822 173.703C64.9739 175.62 59.7655 175.62 56.5572 173.703C55.7187 173.24 55.0624 172.594 54.5833 171.76C54.578 171.75 54.5728 171.74 54.5676 171.729C54.5208 171.646 54.4947 171.557 54.4583 171.474C54.4322 171.406 54.401 171.344 54.3749 171.276C54.3593 171.224 54.3489 171.172 54.3385 171.115C54.3072 171.016 54.2812 170.917 54.2603 170.818C54.2551 170.766 54.2551 170.714 54.2499 170.661C54.2343 170.557 54.2239 170.453 54.2239 170.349V170.344C54.2239 170.208 54.2343 170.078 54.2551 169.943C54.2655 169.896 54.2708 169.844 54.2812 169.797C54.2968 169.714 54.3176 169.63 54.3437 169.547C54.4218 169.276 54.5364 169.021 54.6822 168.776L54.7135 168.724C54.9114 168.406 55.151 168.115 55.4218 167.854C55.5885 167.698 55.7655 167.547 55.9478 167.406L55.9635 167.396C56.151 167.255 56.3437 167.12 56.5468 167L56.5572 166.995C56.6926 166.911 56.8385 166.833 56.9947 166.755C57.0364 166.734 57.078 166.714 57.1197 166.693C57.177 166.667 57.2343 166.641 57.2916 166.615V170.349C57.2916 171.208 57.8333 172.01 58.8176 172.599C59.927 173.182 61.1145 173.479 62.3697 173.479C63.6301 173.479 64.8124 173.182 65.9218 172.594ZM56.2916 157.521C56.203 157.536 56.1197 157.563 56.0364 157.594L55.9739 157.62C55.8853 157.651 55.8072 157.693 55.7291 157.745L54.4635 158.552L53.3176 157.865V155.599L54.3697 156.229L56.4843 157.495C56.4322 157.5 56.3749 157.505 56.3228 157.516C56.3124 157.521 56.302 157.521 56.2916 157.521ZM59.9322 150.651C60.1353 150.729 60.3385 150.797 60.5416 150.854C60.5624 150.859 60.578 150.87 60.5937 150.87C60.6666 150.891 60.7395 150.906 60.8072 150.922C60.8801 150.943 60.9583 150.964 61.0312 150.979C61.052 150.979 61.0676 150.984 61.0833 150.984C62.7708 151.318 64.3489 151.036 65.8176 150.156L87.4478 137.203L87.4062 138.438L87.1458 145.667L65.5885 158.573C64.5989 159.167 63.526 159.464 62.3697 159.464C61.2135 159.464 60.1405 159.167 59.151 158.573L53.3176 155.078V146.802L58.9218 150.156C59.2447 150.349 59.5833 150.516 59.9322 150.651ZM53.3176 158.385L54.0468 158.823L53.3176 159.286V158.385ZM59.6145 38.875C59.6145 37.724 60.0155 36.7396 60.8176 35.9167L60.828 35.9115C61.0833 35.6511 61.3645 35.4271 61.677 35.2396L118.396 1.28127C118.995 0.91148 119.651 0.713564 120.354 0.677105C121.057 0.640647 121.729 0.770855 122.365 1.07815C122.38 1.08336 122.401 1.08856 122.417 1.09377L126.729 3.05731C126.677 3.05731 126.625 3.06773 126.568 3.06773C126.453 3.07294 126.344 3.08336 126.229 3.09898C126.146 3.1094 126.062 3.11981 125.979 3.13544C125.875 3.15627 125.776 3.17711 125.672 3.20315C125.615 3.21877 125.552 3.22919 125.49 3.25002C125.328 3.2969 125.172 3.35419 125.021 3.41669C124.974 3.43752 124.927 3.45836 124.88 3.47919C124.713 3.55211 124.552 3.63544 124.391 3.72919L67.6718 37.6875C66.9687 38.1146 66.4114 38.6823 66.0051 39.3959C65.5989 40.1146 65.3958 40.8854 65.3958 41.7031V71.5886C65.3958 82.1615 63.927 92.5313 60.9895 102.688L57.3801 115.172C55.8228 120.547 55.0468 126.031 55.0468 131.625C55.0468 131.755 55.0572 131.88 55.078 132.01C55.0833 132.036 55.0885 132.068 55.0937 132.094C55.1093 132.193 55.1301 132.292 55.1614 132.385C55.1666 132.417 55.177 132.443 55.1874 132.469C55.2187 132.563 55.2551 132.651 55.2968 132.74C55.3072 132.771 55.3228 132.797 55.3385 132.828C55.3645 132.875 55.3853 132.927 55.4114 132.969L54.2864 132.469L53.3176 132.031V117.646C53.3176 117.422 53.3072 117.198 53.2916 116.974C53.2864 116.901 53.2812 116.833 53.276 116.76C53.2655 116.604 53.2499 116.448 53.2291 116.292C53.2187 116.219 53.2083 116.141 53.1978 116.063C53.1718 115.885 53.1405 115.703 53.1093 115.526C53.0989 115.484 53.0937 115.443 53.0833 115.401C53.0416 115.188 52.9895 114.979 52.9322 114.771C52.9114 114.693 52.8905 114.62 52.8697 114.547C52.8228 114.401 52.7812 114.255 52.7291 114.109C52.7083 114.036 52.6822 113.964 52.6562 113.891C52.5885 113.703 52.5155 113.516 52.4426 113.333C52.4322 113.313 52.4218 113.292 52.4166 113.266C52.3228 113.052 52.2239 112.844 52.1197 112.641C52.0989 112.594 52.078 112.552 52.0572 112.51C51.9635 112.339 51.8697 112.167 51.776 112C51.7603 111.974 51.7499 111.953 51.7343 111.927L55.1874 99.9792C55.453 99.0781 55.6978 98.1667 55.9374 97.2552C55.9843 97.0781 56.0312 96.8959 56.078 96.7136C56.3124 95.8021 56.5364 94.8854 56.7499 93.9636C56.7655 93.8959 56.776 93.8334 56.7916 93.7656C57.0103 92.8229 57.2135 91.875 57.401 90.9271C57.4114 90.8802 57.4218 90.8334 57.4322 90.7865C57.6301 89.7917 57.8124 88.7917 57.9843 87.7917L58.0051 87.6719C58.3541 85.6406 58.6458 83.599 58.8801 81.5469L58.8853 81.4896C59.3697 77.2604 59.6145 73.0156 59.6145 68.7552V38.875ZM58.953 75.6406L58.9478 75.6771C58.8228 77.7136 58.6405 79.7396 58.4062 81.7656V81.7813C58.1666 83.8177 57.8749 85.8438 57.526 87.8594V87.875C57.3541 88.8542 57.1718 89.8334 56.9739 90.8125C56.9583 90.8854 56.9426 90.9636 56.9322 91.0365C56.7395 91.974 56.5416 92.9063 56.328 93.8334C56.3176 93.8646 56.3124 93.8959 56.3072 93.9271C56.0989 94.8386 55.8749 95.7396 55.6405 96.6406C55.5937 96.8229 55.5468 97.0052 55.4999 97.1875C55.2655 98.0834 55.026 98.974 54.7655 99.8542L51.4218 111.422C51.4166 111.411 51.4114 111.406 51.4062 111.396C51.203 111.089 50.9843 110.792 50.7447 110.505L50.6978 110.443C50.4687 110.167 50.2239 109.906 49.9687 109.651C49.953 109.635 49.9374 109.615 49.9218 109.599C49.9218 109.578 49.9218 109.557 49.9218 109.542V106.078C49.9218 106.068 49.9218 106.052 49.9166 106.036C49.9166 106.031 49.9166 106.026 49.9166 106.021C49.9218 105.974 49.9322 105.922 49.9322 105.875C49.9322 105.813 49.9218 105.75 49.9166 105.688C49.9166 105.672 49.9166 105.661 49.9114 105.646C49.901 105.531 49.8801 105.422 49.8541 105.313C49.8489 105.302 49.8489 105.297 49.8489 105.286C49.6926 104.76 49.4114 104.318 48.9999 103.948H48.9947C48.8958 103.854 48.7916 103.766 48.677 103.682C48.6666 103.672 48.6562 103.661 48.6405 103.651C48.526 103.568 48.4062 103.484 48.276 103.406C48.2655 103.401 48.2551 103.391 48.2395 103.38L33.0416 94.2761L30.4374 92.7136L58.953 75.6406ZM48.6926 112.979C48.7395 113.047 48.7916 113.109 48.8333 113.182C48.9374 113.339 49.0364 113.5 49.1249 113.667L49.1458 113.698C49.6405 114.589 49.9583 115.536 50.0989 116.547C50.0416 116.818 49.9947 117.094 49.9374 117.37C49.8958 117.589 49.8489 117.818 49.802 118.042C49.7551 118.297 49.7135 118.557 49.6718 118.813C49.6249 119.068 49.5833 119.313 49.5416 119.568C49.5051 119.802 49.4739 120.036 49.4374 120.271C49.401 120.547 49.3541 120.823 49.3176 121.099C49.2916 121.328 49.2655 121.563 49.2395 121.797C49.203 122.073 49.1666 122.354 49.1405 122.63C49.1145 122.88 49.0937 123.125 49.0728 123.375C49.0468 123.641 49.0208 123.906 48.9999 124.172C48.9791 124.432 48.9635 124.698 48.9478 124.964C48.927 125.214 48.9114 125.464 48.8958 125.708C48.8801 125.995 48.8749 126.281 48.8645 126.568C48.8541 126.797 48.8437 127.026 48.8385 127.25C48.8228 127.766 48.8176 128.276 48.8176 128.792C48.8176 128.911 48.8228 129.036 48.8437 129.156C48.8489 129.198 48.8593 129.234 48.8645 129.276C48.8801 129.354 48.8958 129.432 48.9166 129.51C48.927 129.557 48.9478 129.599 48.9635 129.646C48.9843 129.714 49.0103 129.781 49.0364 129.844C49.0572 129.891 49.0833 129.932 49.1041 129.979C49.1353 130.042 49.1666 130.099 49.203 130.156C49.2291 130.203 49.2603 130.245 49.2916 130.286C49.328 130.344 49.3645 130.396 49.4062 130.448C49.4426 130.49 49.4791 130.526 49.5155 130.568C49.5624 130.615 49.6041 130.667 49.6562 130.708C49.6926 130.745 49.7343 130.781 49.776 130.813C49.828 130.859 49.8801 130.901 49.9374 130.938C49.9791 130.969 50.026 131 50.0728 131.026C50.1093 131.052 50.1458 131.078 50.1822 131.099V144.406L22.8489 128.036L13.7447 122.589V102.708L16.7291 100.922L37.8905 113.609C38.0208 113.693 38.1666 113.771 38.3124 113.839C38.4062 113.885 38.5103 113.927 38.6093 113.969C38.6614 113.995 38.7083 114.016 38.7603 114.036C38.8541 114.078 38.953 114.109 39.0468 114.141C39.1093 114.161 39.1718 114.188 39.2343 114.208C39.3333 114.234 39.4322 114.26 39.526 114.286C39.5937 114.307 39.6614 114.328 39.7291 114.344C39.8385 114.37 39.9478 114.391 40.0572 114.411C40.1197 114.427 40.177 114.438 40.2395 114.453C40.3489 114.469 40.4583 114.484 40.5676 114.5C40.6353 114.505 40.6978 114.521 40.7655 114.526C40.8645 114.542 40.9687 114.547 41.078 114.552C41.151 114.557 41.2239 114.568 41.2968 114.573C41.401 114.578 41.4999 114.578 41.6041 114.583C41.677 114.583 41.7551 114.589 41.828 114.589H41.8333C41.9426 114.589 42.0572 114.583 42.1666 114.578C42.2343 114.578 42.302 114.578 42.3697 114.573C42.4895 114.568 42.6093 114.552 42.7291 114.542C42.7864 114.536 42.8437 114.531 42.901 114.526C43.026 114.51 43.1458 114.49 43.2708 114.474C43.3228 114.464 43.3749 114.458 43.4218 114.448C43.552 114.427 43.6822 114.396 43.8124 114.365C43.8541 114.359 43.8958 114.349 43.9322 114.344C44.0833 114.307 44.2239 114.266 44.3645 114.219C44.3853 114.214 44.4114 114.208 44.4322 114.203C44.5885 114.151 44.7395 114.099 44.8905 114.042L44.9062 114.036C45.0572 113.974 45.2083 113.906 45.3541 113.833C45.4999 113.76 45.6405 113.688 45.7812 113.604L48.0885 112.214C48.1874 112.328 48.2864 112.443 48.3853 112.557C48.4895 112.698 48.5937 112.839 48.6926 112.979ZM17.151 134.12C17.1093 134.125 17.0676 134.13 17.0312 134.141C16.9218 134.167 16.8176 134.208 16.7187 134.26L15.1926 135.042L13.7447 134.172V131.906L17.3853 134.089C17.3697 134.089 17.3593 134.089 17.3489 134.094C17.2812 134.099 17.2187 134.104 17.151 134.12ZM16.2916 100.661L13.7447 102.188V99.1302L16.2916 100.661ZM49.9843 130.417C49.9166 130.354 49.8489 130.281 49.7916 130.214C49.7708 130.193 49.7551 130.167 49.7395 130.146C49.6978 130.094 49.6562 130.042 49.6197 129.984C49.5989 129.953 49.5833 129.927 49.5676 129.896C49.5364 129.844 49.5103 129.786 49.4791 129.734C49.4687 129.703 49.453 129.667 49.4374 129.635C49.4114 129.578 49.3905 129.521 49.3749 129.464C49.3645 129.432 49.3541 129.396 49.3437 129.365C49.328 129.302 49.3124 129.24 49.302 129.172C49.2968 129.141 49.2916 129.115 49.2864 129.083C49.2708 128.99 49.2655 128.891 49.2655 128.792C49.2655 128.318 49.2708 127.844 49.2864 127.365C49.2864 127.214 49.2968 127.057 49.2968 126.901C49.3124 126.578 49.3228 126.255 49.3385 125.932C49.3489 125.755 49.3593 125.578 49.3697 125.396C49.3853 125.094 49.4062 124.792 49.427 124.49C49.4426 124.307 49.453 124.125 49.4739 123.943C49.4947 123.635 49.526 123.328 49.5572 123.021C49.5728 122.849 49.5885 122.682 49.6093 122.51C49.6458 122.151 49.6874 121.802 49.7343 121.448C49.7499 121.328 49.7603 121.203 49.776 121.089C49.8385 120.615 49.9114 120.141 49.9843 119.672C49.9999 119.563 50.0208 119.453 50.0364 119.344C50.0833 119.047 50.1353 118.755 50.1874 118.464V130.573C50.1353 130.536 50.0833 130.495 50.0312 130.453C50.0155 130.438 49.9999 130.427 49.9843 130.417ZM50.1874 144.927V153.208L22.8593 136.844L13.7447 131.385V123.109L41.0833 139.479L50.1874 144.927ZM13.7447 134.693L14.7239 135.281L13.7447 135.781V134.693ZM1.98429 83.5834L4.44263 82.1042C5.59888 81.4584 6.83846 81.1511 8.16138 81.1771C9.47909 81.1511 10.7135 81.4584 11.8697 82.0938L47.9999 103.766C48.0103 103.776 48.0208 103.781 48.0312 103.786C48.1405 103.854 48.2551 103.927 48.3541 104C48.3645 104.01 48.3801 104.026 48.3905 104.036C48.4895 104.109 48.5833 104.182 48.6666 104.26L48.677 104.276C49.0364 104.589 49.2812 104.974 49.4114 105.432C49.4374 105.536 49.453 105.635 49.4635 105.74V105.755C49.4687 105.854 49.4687 105.958 49.4583 106.063V106.068C49.4478 106.156 49.4322 106.245 49.4062 106.328V106.333C49.3853 106.422 49.3541 106.51 49.3176 106.594C49.2812 106.682 49.2395 106.766 49.1926 106.849L49.1874 106.854C49.1405 106.938 49.0885 107.016 49.026 107.094L49.0155 107.109C48.9583 107.188 48.8958 107.26 48.828 107.333C48.8176 107.344 48.802 107.359 48.7864 107.37C48.7291 107.432 48.6614 107.495 48.5937 107.557C48.5624 107.589 48.526 107.615 48.4895 107.641C48.4322 107.688 48.3801 107.729 48.3228 107.776C48.2187 107.849 48.1145 107.917 48.0051 107.984L45.5468 109.469C43.4999 110.698 40.1666 110.703 38.1197 109.474L1.9895 87.8073C1.86971 87.7344 1.76033 87.6615 1.66138 87.5886C1.57804 87.5261 1.49992 87.4636 1.42179 87.4011C1.40617 87.3854 1.39054 87.375 1.37492 87.3594C0.854085 86.9479 0.572836 86.4167 0.520752 85.7552C0.520752 85.7344 0.515544 85.7188 0.515544 85.6979C0.515544 85.6771 0.520752 85.6459 0.520752 85.625C0.520752 85.6198 0.520752 85.599 0.520752 85.5938C0.562419 84.8386 1.07804 84.1302 1.98429 83.5834ZM0.520752 89.3542C0.520752 89.3386 0.520752 89.3177 0.520752 89.3021V87.0729C0.755127 87.4115 1.04159 87.6979 1.37492 87.9375C1.49471 88.0261 1.61971 88.1094 1.75513 88.1875L37.8905 109.859C38.026 109.938 38.1666 110.016 38.3124 110.089C38.3801 110.12 38.4478 110.146 38.5155 110.177C38.5989 110.214 38.677 110.25 38.7603 110.286C38.8437 110.318 38.9426 110.349 39.0312 110.38C39.0989 110.406 39.1666 110.432 39.2343 110.453C39.328 110.479 39.427 110.505 39.5208 110.531C39.5885 110.552 39.6614 110.573 39.7291 110.589C39.8333 110.615 39.9426 110.635 40.0468 110.656C40.1145 110.667 40.177 110.688 40.2395 110.698C40.3437 110.714 40.453 110.729 40.5572 110.74C40.6249 110.75 40.6926 110.766 40.7655 110.771C40.8645 110.781 40.9635 110.786 41.0676 110.797C41.1458 110.802 41.2187 110.813 41.2916 110.818C41.3958 110.823 41.4999 110.823 41.5989 110.828C41.6718 110.828 41.7499 110.833 41.8228 110.833H41.828C41.9374 110.833 42.052 110.828 42.1666 110.823C42.2291 110.823 42.2968 110.823 42.3645 110.818C42.4895 110.807 42.6145 110.797 42.7395 110.781C42.7916 110.776 42.8437 110.776 42.8905 110.771C43.026 110.755 43.1562 110.734 43.2916 110.714C43.3333 110.703 43.3749 110.698 43.4166 110.693C43.5624 110.667 43.703 110.635 43.8437 110.604C43.8749 110.599 43.901 110.594 43.927 110.589C44.0937 110.547 44.2603 110.5 44.4218 110.448C44.8958 110.302 45.3489 110.104 45.776 109.849L48.2343 108.37C48.7239 108.083 49.1353 107.714 49.4635 107.255V109.552C49.4635 109.583 49.4635 109.62 49.4635 109.656V109.682C49.4374 110.453 48.927 111.177 48.0155 111.729L48.0051 111.734L45.5468 113.219C43.4999 114.448 40.1718 114.453 38.1197 113.224L16.8437 100.464L13.6353 98.5417L10.953 96.9323L1.9895 91.5573C0.99471 90.9636 0.473877 90.1823 0.520752 89.3542ZM6.08325 107.292L10.6145 104.578V120.714L6.08325 118.005C5.16659 117.458 4.44263 116.724 3.90096 115.802C3.3645 114.885 3.08325 113.891 3.05721 112.828C3.05721 112.813 3.052 112.802 3.052 112.797C3.052 112.745 3.04679 112.698 3.04679 112.651C3.04159 111.552 3.30721 110.521 3.84888 109.568C4.39054 108.615 5.13533 107.854 6.08325 107.292ZM4.91138 117.703L4.98429 117.766C5.09367 117.854 5.20304 117.943 5.31763 118.026C5.34888 118.052 5.38533 118.073 5.41659 118.099C5.55721 118.198 5.70304 118.297 5.85409 118.385L10.6145 121.234V129.516L6.08325 126.802C5.91659 126.698 5.75513 126.589 5.59888 126.474C5.56242 126.453 5.53117 126.427 5.49471 126.401C5.177 126.156 4.88013 125.885 4.6145 125.589L4.60409 125.578C3.89054 124.771 3.42179 123.839 3.19784 122.786C3.19784 122.776 3.19263 122.766 3.18742 122.76C3.07804 122.208 3.03638 121.656 3.06763 121.094C3.06763 121.068 3.06763 121.042 3.05721 121.021V115.094C3.45825 116.115 4.07284 116.99 4.91138 117.703ZM6.08325 129.583C5.08325 128.995 4.31242 128.193 3.76554 127.167C3.22388 126.146 2.9895 125.052 3.06242 123.896C3.39054 124.75 3.88013 125.5 4.53117 126.146C4.54158 126.156 4.54679 126.167 4.55721 126.177C4.66659 126.286 4.78117 126.391 4.90096 126.49C4.927 126.516 4.95825 126.542 4.9895 126.563C5.09367 126.651 5.20304 126.734 5.31242 126.818C5.34888 126.844 5.38013 126.87 5.41659 126.896C5.55721 126.995 5.70304 127.089 5.85409 127.182L10.6145 130.031V132.297L6.08325 129.583ZM14.8124 138.24C14.6145 138.344 14.4114 138.417 14.1926 138.464C13.9791 138.51 13.7603 138.531 13.5416 138.521C13.3176 138.516 13.1041 138.479 12.8905 138.417C12.6822 138.349 12.4843 138.26 12.2916 138.146C12.1041 138.031 11.9322 137.896 11.7812 137.734C11.6301 137.578 11.4999 137.401 11.3905 137.208C11.2812 137.021 11.203 136.818 11.1458 136.604C11.0885 136.391 11.0624 136.172 11.0624 135.953V97.5209L13.2968 98.8594V135.953C13.2968 136.083 13.3489 136.177 13.4583 136.245C13.5676 136.313 13.677 136.313 13.7916 136.255L16.9218 134.656C16.9895 134.62 17.0624 134.594 17.1301 134.573C17.1562 134.568 17.177 134.568 17.1978 134.563C17.2499 134.552 17.2968 134.542 17.3489 134.536C17.3697 134.536 17.3905 134.536 17.4062 134.536C17.4635 134.531 17.5155 134.536 17.5676 134.542C17.6093 134.547 17.6562 134.557 17.6978 134.568C17.7603 134.583 17.8228 134.604 17.8801 134.63C17.9114 134.646 17.9426 134.656 17.9687 134.672C18.026 134.703 18.078 134.734 18.1249 134.776C18.1353 134.781 18.1405 134.786 18.151 134.792C18.1978 134.833 18.2395 134.875 18.276 134.922C18.2864 134.932 18.2968 134.938 18.302 134.948C18.3489 135.01 18.3905 135.073 18.427 135.135C18.5676 135.411 18.5885 135.693 18.4947 135.99C18.401 136.281 18.2187 136.5 17.9426 136.641L14.8124 138.24ZM18.3385 136.922C18.3489 136.911 18.3645 136.901 18.3749 136.891C18.401 136.87 18.427 136.849 18.453 136.828C18.4999 136.786 18.5416 136.745 18.5833 136.698C18.6093 136.672 18.6301 136.651 18.651 136.62C18.6926 136.573 18.7291 136.521 18.7603 136.464C18.776 136.438 18.7968 136.411 18.8072 136.385C18.9062 136.214 18.9635 136.026 18.9895 135.828C18.9947 135.792 18.9895 135.755 18.9895 135.719C18.9947 135.656 18.9999 135.594 18.9947 135.526C18.9895 135.484 18.9791 135.443 18.9739 135.401C18.9635 135.344 18.953 135.286 18.9426 135.229C18.927 135.188 18.9114 135.146 18.8905 135.104C18.8749 135.057 18.8593 135.005 18.8385 134.958L50.1874 153.729V155.99L18.3385 136.922ZM50.6353 156.385V117.646C50.6353 117.453 50.6249 117.25 50.6041 117.036C50.4999 115.536 50.026 114.161 49.1874 112.911C49.151 112.854 49.1145 112.802 49.078 112.75C48.9999 112.635 48.9166 112.526 48.8333 112.411C48.7551 112.313 48.6718 112.214 48.5937 112.115C48.552 112.068 48.5155 112.016 48.4739 111.969C48.5051 111.948 48.5364 111.922 48.5728 111.896C48.6041 111.875 48.6353 111.849 48.6666 111.828C48.8749 111.667 49.0676 111.49 49.2395 111.292C49.2603 111.271 49.276 111.25 49.2968 111.229C49.3593 111.151 49.4166 111.073 49.4739 110.995C49.4895 110.969 49.5051 110.948 49.5208 110.922C49.578 110.833 49.6301 110.745 49.6718 110.651C49.6978 110.599 49.7187 110.547 49.7395 110.49C49.7551 110.453 49.7708 110.411 49.7864 110.375C49.8072 110.307 49.828 110.24 49.8437 110.172C49.8853 110.214 49.927 110.255 49.9635 110.297C49.9999 110.333 50.0416 110.38 50.0833 110.422C50.2135 110.573 50.3437 110.724 50.4687 110.88C50.4739 110.885 50.4843 110.896 50.4895 110.906C50.6353 111.083 50.7708 111.271 50.901 111.458C50.9114 111.474 50.9218 111.49 50.9322 111.5C51.052 111.672 51.1666 111.849 51.276 112.031L51.3228 112.104C51.5572 112.495 51.7655 112.896 51.9478 113.313C51.9687 113.365 51.9947 113.417 52.0155 113.464C52.0885 113.641 52.1562 113.818 52.2239 113.995C52.2343 114.026 52.2447 114.057 52.2551 114.089C52.328 114.286 52.3905 114.49 52.4478 114.688C52.4687 114.755 52.4843 114.823 52.5051 114.885C52.5416 115.042 52.5833 115.193 52.6145 115.349C52.6301 115.411 52.6458 115.469 52.6562 115.531C52.6978 115.734 52.7343 115.943 52.7655 116.151C52.7708 116.203 52.776 116.255 52.7812 116.307C52.802 116.474 52.8228 116.641 52.8333 116.813C52.8385 116.875 52.8437 116.932 52.8489 117C52.8645 117.214 52.8697 117.427 52.8697 117.646V159.484C52.8697 159.62 52.927 159.719 53.052 159.781C53.1666 159.849 53.2812 159.844 53.3958 159.771L54.5937 159.005L55.9687 158.12C56.2291 157.953 56.5103 157.901 56.8124 157.969C56.8853 157.984 56.953 158.005 57.0208 158.036C57.4322 158.214 57.651 158.526 57.6874 158.969C57.7239 159.411 57.552 159.755 57.177 159.995L56.9166 160.167L54.5989 161.646C54.203 161.896 53.7708 162.031 53.302 162.047C52.828 162.063 52.3905 161.958 51.9739 161.74C51.5624 161.516 51.2343 161.198 50.9947 160.797C50.7551 160.391 50.6353 159.953 50.6353 159.484V156.385ZM53.2083 162.5C53.802 162.5 54.3437 162.344 54.8437 162.021L57.0416 160.615L57.2968 160.771V165.302L52.4791 162.411C52.7187 162.469 52.9635 162.5 53.2135 162.5H53.2083ZM31.026 152.495C31.2395 152.328 31.4687 152.188 31.7135 152.073L31.7291 152.063C32.2083 151.844 32.7083 151.75 33.2291 151.781C33.7551 151.813 34.2395 151.964 34.6874 152.24L57.2968 165.823V166.12C57.1874 166.167 57.0937 166.214 56.9895 166.266C56.9322 166.292 56.8697 166.318 56.8176 166.344C56.6458 166.432 56.4843 166.521 56.3333 166.609C55.9426 166.844 55.578 167.109 55.2343 167.411L32.2083 153.573C31.5676 153.188 30.8749 153.016 30.1301 153.057H30.1197L31.026 152.495ZM30.203 164.448C29.4843 163.953 28.9114 163.323 28.4895 162.563C28.0624 161.797 27.8333 160.979 27.7916 160.109C27.7916 159.38 28.0208 158.849 28.4322 158.604C28.4478 158.599 28.4583 158.594 28.4739 158.589C28.5312 158.557 28.5885 158.536 28.651 158.516C28.6718 158.51 28.6978 158.5 28.7187 158.495C28.7916 158.479 28.8593 158.474 28.9322 158.474C28.9739 158.474 29.0155 158.474 29.0624 158.474C29.0833 158.474 29.1041 158.479 29.1249 158.479C29.177 158.49 29.2239 158.495 29.276 158.505C29.2916 158.51 29.3072 158.516 29.3228 158.516C29.5208 158.568 29.7135 158.646 29.8958 158.75L29.9062 158.755L30.0416 158.839C30.7395 159.339 31.2916 159.964 31.703 160.719C32.1145 161.469 32.3437 162.276 32.3853 163.13C32.3853 163.281 32.3749 163.432 32.3541 163.589C32.3541 163.594 32.3489 163.609 32.3489 163.615C32.328 163.745 32.2916 163.87 32.2447 163.995C32.2447 164.005 32.2395 164.016 32.2343 164.026C32.1926 164.135 32.1405 164.234 32.0728 164.323C32.0676 164.333 32.0572 164.349 32.052 164.359C31.9895 164.438 31.9166 164.51 31.8333 164.568C31.802 164.594 31.7708 164.62 31.7343 164.641C31.1874 164.875 30.677 164.807 30.203 164.448ZM34.5624 162.813C34.4999 162.865 34.4374 162.906 34.3645 162.943L32.7187 164.005C32.7187 163.995 32.7187 163.984 32.7239 163.974C32.7551 163.865 32.776 163.755 32.7916 163.641C32.7968 163.609 32.802 163.578 32.8072 163.547C32.828 163.406 32.8333 163.271 32.8333 163.13C32.8333 163.005 32.828 162.88 32.8176 162.755C32.8124 162.703 32.802 162.656 32.7968 162.604C32.7864 162.531 32.7812 162.458 32.7655 162.38C32.7551 162.313 32.7395 162.25 32.7291 162.182C32.7187 162.13 32.703 162.078 32.6926 162.031C32.4947 161.224 32.151 160.49 31.6666 159.813L35.0312 161.833C34.9999 162.219 34.8437 162.547 34.5624 162.813ZM35.3853 161.526L33.5208 160.406L30.2812 158.458C30.2551 158.443 30.2291 158.422 30.203 158.406C30.177 158.391 30.1614 158.385 30.1353 158.37L29.1353 157.771L27.1301 156.568C27.151 156.036 27.2916 155.547 27.5624 155.089C27.828 154.63 28.1874 154.266 28.6405 153.99C28.7655 153.911 28.8905 153.844 29.026 153.781L29.0468 153.771C29.1614 153.724 29.2812 153.677 29.4062 153.641C29.427 153.63 29.4478 153.625 29.4739 153.62C29.5728 153.589 29.677 153.568 29.7812 153.547C29.8228 153.542 29.8645 153.531 29.9062 153.526C29.9895 153.516 30.0728 153.51 30.1562 153.505C30.2187 153.505 30.2812 153.495 30.3385 153.495C30.401 153.495 30.4739 153.505 30.5364 153.51C30.6145 153.516 30.6926 153.516 30.7655 153.526C30.8228 153.536 30.8801 153.552 30.9374 153.563C31.0208 153.578 31.0989 153.589 31.1822 153.615C31.2447 153.63 31.3072 153.656 31.3697 153.682C31.4426 153.703 31.5155 153.724 31.5833 153.755C31.7187 153.818 31.8489 153.88 31.9739 153.958L54.9114 167.74C54.8228 167.839 54.7395 167.932 54.6562 168.036L54.6405 168.057C54.4947 168.24 54.3645 168.432 54.2499 168.635C54.2447 168.651 54.2343 168.667 54.2239 168.677C54.177 168.766 54.1353 168.854 54.0937 168.943C54.0676 169.005 54.0416 169.073 54.0155 169.135C53.9843 169.224 53.9478 169.307 53.927 169.396C53.8905 169.51 53.8593 169.63 53.8385 169.75C53.8333 169.797 53.8228 169.844 53.8176 169.891C53.7968 170.042 53.7812 170.193 53.7812 170.349V172.578L35.3853 161.526ZM27.1301 194.406C27.1353 193.115 27.453 191.906 28.0885 190.786C28.7239 189.661 29.5937 188.771 30.6978 188.099L53.7812 174.229V177.036L33.177 189.432C33.1562 189.443 33.1405 189.458 33.1249 189.469H33.1197C32.1145 190.089 31.2916 190.896 30.651 191.885C30.0103 192.87 29.6145 193.948 29.4583 195.115C29.4583 195.125 29.4583 195.13 29.4583 195.141C29.4374 195.297 29.4218 195.453 29.4114 195.615C29.401 195.781 29.3958 195.948 29.3958 196.115V197.469L27.1301 196.036V194.406ZM32.7603 197.734C32.6926 197.703 32.6301 197.661 32.5728 197.615C32.2968 197.349 32.1405 197.021 32.1093 196.641L33.5155 195.797L35.4739 194.615L35.4687 194.625C35.3905 194.734 35.3176 194.844 35.2499 194.958C35.2187 195.01 35.1874 195.063 35.1562 195.12C35.1145 195.182 35.078 195.245 35.0416 195.313C35.0051 195.375 34.9791 195.438 34.9478 195.495C34.9166 195.557 34.8853 195.62 34.8593 195.688C34.828 195.75 34.7968 195.813 34.7708 195.875C34.7395 195.948 34.7083 196.026 34.6822 196.099C34.651 196.177 34.6197 196.26 34.5937 196.339C34.5624 196.432 34.5312 196.526 34.5051 196.62C34.4895 196.672 34.4739 196.724 34.4635 196.776C34.4426 196.854 34.4218 196.938 34.4062 197.016C34.3958 197.068 34.3853 197.12 34.3749 197.172C34.3593 197.255 34.3489 197.339 34.3385 197.427C34.3333 197.469 34.328 197.51 34.3228 197.557C34.3124 197.682 34.302 197.807 34.302 197.932C34.3072 198.073 34.3124 198.208 34.3333 198.349C34.3333 198.38 34.3385 198.411 34.3437 198.448C34.3645 198.557 34.3853 198.667 34.4166 198.776C34.4218 198.786 34.4218 198.802 34.4218 198.813L32.7603 197.734ZM39.3489 194.911C39.3072 195.781 39.078 196.599 38.651 197.365C38.2291 198.125 37.6562 198.755 36.9374 199.25C36.4635 199.615 35.953 199.677 35.4062 199.443C35.3801 199.427 35.3593 199.411 35.3333 199.391C35.2499 199.333 35.1718 199.266 35.1093 199.188C35.0937 199.167 35.0833 199.151 35.0676 199.13C35.0103 199.047 34.9583 198.958 34.9166 198.865C34.9062 198.839 34.901 198.807 34.8905 198.781C34.8489 198.667 34.8176 198.557 34.7968 198.438C34.7916 198.422 34.7916 198.401 34.7864 198.38C34.7655 198.234 34.7499 198.083 34.7499 197.932C34.7968 197.089 35.0208 196.292 35.427 195.547C35.828 194.802 36.3697 194.177 37.052 193.672L37.2655 193.536H37.276C37.5155 193.401 37.7708 193.313 38.0416 193.281H38.0728C38.1718 193.271 38.2655 193.276 38.3645 193.292C38.3801 193.297 38.401 193.297 38.4166 193.302C38.5208 193.323 38.6145 193.359 38.7083 193.411C39.203 193.792 39.4166 194.292 39.3489 194.911ZM38.0051 192.573L37.7343 192.74L37.052 193.151C37.0155 193.172 36.9739 193.188 36.9374 193.214C36.901 193.234 36.8541 193.266 36.8176 193.292L33.1041 195.521L29.8385 197.484V196.12C29.8385 195.964 29.8437 195.802 29.8541 195.646C29.8645 195.49 29.8801 195.333 29.901 195.177C30.0468 194.078 30.4218 193.063 31.026 192.13C31.6301 191.198 32.4062 190.438 33.3489 189.854L53.8176 177.557C53.8697 177.865 53.9635 178.161 54.0937 178.448V178.453C54.1562 178.583 54.2239 178.708 54.2968 178.833C54.3124 178.859 54.328 178.885 54.3437 178.911C54.4114 179.021 54.4895 179.13 54.5676 179.24C54.5989 179.281 54.6353 179.323 54.6666 179.365C54.7447 179.458 54.8228 179.552 54.9062 179.641C54.9583 179.698 55.0155 179.755 55.0728 179.807C55.151 179.885 55.2239 179.958 55.3124 180.036C55.3958 180.109 55.4843 180.177 55.578 180.25C55.6458 180.302 55.7135 180.359 55.7864 180.411C55.953 180.536 56.1353 180.656 56.328 180.771L56.3333 180.776C56.4843 180.865 56.651 180.953 56.8228 181.042C56.8905 181.078 56.9583 181.109 57.026 181.146L38.0051 192.573ZM57.6093 180.911L57.6041 180.906C57.4114 180.823 57.2343 180.745 57.0676 180.661C56.901 180.578 56.7239 180.484 56.5624 180.391C56.3801 180.281 56.2083 180.167 56.0468 180.047C55.927 179.964 55.8228 179.875 55.7135 179.781C55.677 179.75 55.6353 179.719 55.5937 179.688C54.7812 179.042 54.3333 178.198 54.2395 177.167V177.151C54.2395 177.135 54.2343 177.115 54.2343 177.099C54.2343 177.078 54.2291 177.052 54.2291 177.031V172.036C54.2916 172.146 54.3541 172.255 54.427 172.359C54.4426 172.38 54.4583 172.406 54.4739 172.427C54.5728 172.563 54.6718 172.693 54.7812 172.818C54.7916 172.833 54.802 172.844 54.8124 172.859C54.9322 172.99 55.0624 173.12 55.1978 173.245C55.2239 173.271 55.2499 173.297 55.2812 173.318C55.4166 173.443 55.5676 173.563 55.7187 173.677C55.7499 173.698 55.7812 173.719 55.8072 173.74C55.9739 173.859 56.151 173.974 56.3333 174.089C56.5416 174.208 56.7603 174.328 56.9843 174.438C57.0051 174.448 57.026 174.453 57.0468 174.464C57.4426 174.651 57.8541 174.818 58.2708 174.953C61.5155 176.016 65.6718 175.729 68.4166 174.089C68.6301 173.958 68.8333 173.818 69.0208 173.677C69.0624 173.651 69.0937 173.62 69.1301 173.594C69.2812 173.474 69.427 173.354 69.5624 173.229C69.5885 173.208 69.6145 173.182 69.6405 173.156C69.776 173.026 69.901 172.885 70.026 172.745C70.0364 172.729 70.052 172.714 70.0624 172.698C70.1874 172.547 70.2968 172.385 70.401 172.219L70.4062 172.214V176.234C70.4062 176.255 70.4114 176.276 70.4114 176.292C70.4426 176.401 70.4635 176.505 70.4791 176.615V176.63C70.4895 176.734 70.4999 176.839 70.5051 176.943C70.5051 176.958 70.5051 176.974 70.5051 176.99C70.5051 177.135 70.4999 177.286 70.4791 177.432C70.4739 177.458 70.4687 177.479 70.4635 177.505C70.4478 177.609 70.4218 177.719 70.3905 177.823C70.3697 177.891 70.3489 177.964 70.3228 178.031C70.2968 178.104 70.2655 178.188 70.2291 178.26C70.1978 178.339 70.1614 178.411 70.1197 178.49C70.1093 178.51 70.0937 178.531 70.0833 178.552C69.9999 178.698 69.9062 178.839 69.8072 178.974C69.7812 179.005 69.7551 179.036 69.7343 179.068C69.6458 179.177 69.5468 179.292 69.4426 179.396C69.3958 179.448 69.3437 179.5 69.2864 179.552C69.2343 179.604 69.177 179.656 69.1197 179.708C69.0051 179.807 68.8905 179.901 68.7655 179.995C68.7291 180.021 68.6874 180.052 68.6458 180.078C68.4999 180.182 68.3489 180.286 68.1874 180.38L68.1822 180.385C68.0312 180.474 67.8697 180.557 67.7083 180.641C67.5937 180.698 67.4687 180.76 67.3333 180.823H67.328C65.776 181.474 64.1614 181.807 62.4791 181.818C60.7968 181.833 59.1718 181.531 57.6093 180.911ZM68.4114 180.771C68.578 180.672 68.7291 180.568 68.8801 180.464C68.927 180.432 68.9739 180.396 69.0155 180.365C69.1353 180.281 69.2447 180.193 69.3489 180.104C69.4218 180.042 69.4895 179.974 69.5624 179.911C69.6197 179.859 69.677 179.802 69.7343 179.745C69.7968 179.677 69.8645 179.615 69.9218 179.542C69.9478 179.516 69.9687 179.484 69.9947 179.458C70.1093 179.323 70.2135 179.182 70.3124 179.036C70.3385 178.995 70.3645 178.958 70.3853 178.922C70.4374 178.844 70.4843 178.766 70.526 178.688C70.5833 178.583 70.6301 178.479 70.677 178.375C70.6978 178.318 70.7187 178.26 70.7395 178.203C70.776 178.104 70.8072 178.01 70.8333 177.911C70.8437 177.88 70.8541 177.849 70.8593 177.813C70.8958 177.667 70.9218 177.521 70.9374 177.37C70.9374 177.365 70.9374 177.359 70.9374 177.354L91.5624 189.75C92.5833 190.38 93.3958 191.203 94.0155 192.224C94.6353 193.25 94.9843 194.354 95.0624 195.547C95.0728 195.703 95.078 195.859 95.078 196.021V197.38L92.5676 195.875L88.1041 193.193C88.0624 193.167 88.026 193.135 87.9843 193.109C87.9426 193.089 87.9114 193.073 87.8697 193.052L86.9166 192.474L67.901 181.047C68.0885 180.958 68.2551 180.865 68.4114 180.771ZM87.9843 199.151C87.2655 198.656 86.6926 198.026 86.2655 197.266C85.8437 196.5 85.6093 195.682 85.5676 194.813C85.5676 194.083 85.7968 193.552 86.2083 193.313C86.302 193.26 86.3958 193.219 86.4999 193.198C86.5208 193.198 86.5364 193.198 86.5572 193.193C86.651 193.177 86.7499 193.172 86.8437 193.177L86.8749 193.182C87.151 193.214 87.4062 193.297 87.6405 193.432L87.6458 193.438L87.8697 193.573C88.5103 194.047 89.026 194.63 89.4218 195.318C89.8176 196.01 90.0624 196.75 90.151 197.542C90.1614 197.641 90.1666 197.734 90.1666 197.828C90.1666 197.984 90.151 198.135 90.1301 198.286C90.1301 198.297 90.1301 198.307 90.1249 198.318C90.1041 198.448 90.0676 198.573 90.026 198.693C90.0208 198.708 90.0155 198.719 90.0103 198.729C89.9687 198.833 89.9166 198.932 89.8489 199.026L89.828 199.057C89.7655 199.141 89.6926 199.214 89.6093 199.271C89.578 199.297 89.5468 199.318 89.5103 199.339C88.9635 199.573 88.453 199.51 87.9843 199.151ZM92.8124 196.542C92.776 196.927 92.6197 197.25 92.3437 197.516C92.2812 197.568 92.2135 197.609 92.1405 197.646L90.4947 198.708C90.4999 198.698 90.4999 198.682 90.5051 198.672C90.5312 198.568 90.5572 198.453 90.5728 198.344C90.578 198.313 90.5833 198.281 90.5885 198.245C90.6041 198.109 90.6145 197.969 90.6145 197.828C90.6145 197.708 90.6041 197.578 90.5937 197.453C90.5885 197.411 90.5833 197.37 90.578 197.323C90.5676 197.24 90.5572 197.151 90.5416 197.068C90.5312 197.016 90.5208 196.964 90.5103 196.917C90.4947 196.833 90.4739 196.755 90.4583 196.672C90.4426 196.62 90.4322 196.568 90.4166 196.516C90.3905 196.422 90.3593 196.328 90.328 196.234C90.2968 196.156 90.2708 196.078 90.2395 196C90.2083 195.922 90.1822 195.849 90.151 195.771C90.1197 195.708 90.0937 195.646 90.0624 195.583C90.0364 195.521 90.0051 195.458 89.9739 195.396C89.9426 195.333 89.9114 195.271 89.8801 195.214C89.8437 195.151 89.8072 195.083 89.7655 195.016C89.7343 194.964 89.703 194.906 89.6718 194.854C89.6041 194.745 89.5312 194.63 89.453 194.526L89.4478 194.516L91.0103 195.458L92.8124 196.542ZM94.2187 188C95.3228 188.667 96.1926 189.563 96.828 190.688C97.4687 191.807 97.7864 193.016 97.7916 194.302V195.938L95.526 197.37V196.016C95.526 195.849 95.5208 195.682 95.5103 195.516C95.4374 194.427 95.1458 193.401 94.6458 192.438C94.1458 191.469 93.4739 190.641 92.6249 189.953L92.6197 189.948C92.4999 189.854 92.3749 189.76 92.2551 189.672C92.2395 189.661 92.2291 189.651 92.2135 189.641C92.0937 189.557 91.9739 189.479 91.8489 189.401C91.8333 189.391 91.8176 189.38 91.7968 189.37L91.7812 189.359C91.7708 189.349 91.7551 189.344 91.7447 189.333L70.9478 176.828C70.9374 176.615 70.9062 176.411 70.8541 176.208V173.958L94.2187 188ZM90.5676 163.016C90.4999 162.984 90.4374 162.943 90.3801 162.896C90.1041 162.63 89.9478 162.302 89.9166 161.922L93.2812 159.896C92.7968 160.578 92.453 161.323 92.2551 162.13C92.2447 162.172 92.2343 162.214 92.2239 162.255C92.2083 162.333 92.1978 162.406 92.1822 162.479C92.1718 162.542 92.1666 162.609 92.1562 162.672C92.1458 162.729 92.1405 162.786 92.1353 162.844C92.1249 162.953 92.1197 163.063 92.1197 163.167C92.1197 163.182 92.1197 163.198 92.1197 163.214C92.1197 163.224 92.1197 163.229 92.1197 163.234C92.1197 163.365 92.1301 163.495 92.1458 163.625C92.1458 163.661 92.151 163.698 92.1614 163.734C92.177 163.844 92.1978 163.948 92.2291 164.052C92.2291 164.068 92.2343 164.078 92.2343 164.094L90.5676 163.016ZM97.1614 160.193C97.1197 161.068 96.8853 161.88 96.4635 162.646C96.0364 163.406 95.4687 164.036 94.7447 164.531C94.276 164.896 93.7655 164.958 93.2187 164.724C93.1874 164.708 93.1614 164.688 93.1353 164.667C93.052 164.609 92.9739 164.536 92.9114 164.458C92.9062 164.448 92.8958 164.432 92.8905 164.422C92.8228 164.333 92.7655 164.229 92.7239 164.125C92.7187 164.115 92.7135 164.099 92.7083 164.089C92.6614 163.969 92.6249 163.839 92.6041 163.714C92.6041 163.698 92.6041 163.688 92.5989 163.677C92.578 163.526 92.5676 163.375 92.5676 163.224V163.214C92.5676 163.115 92.5676 163.016 92.578 162.917C92.6666 162.115 92.9114 161.37 93.3176 160.677C93.7239 159.979 94.2499 159.396 94.901 158.922L95.0416 158.839L95.0624 158.828C95.2395 158.729 95.427 158.656 95.6197 158.604C95.6405 158.599 95.6562 158.594 95.677 158.589C95.7239 158.583 95.7708 158.573 95.8176 158.568C95.8437 158.563 95.8697 158.563 95.8958 158.563C95.9374 158.557 95.9739 158.557 96.0103 158.557C96.0885 158.557 96.1614 158.568 96.2343 158.583C96.2551 158.589 96.276 158.594 96.2968 158.599C96.3593 158.62 96.4166 158.646 96.4791 158.672C96.4895 158.682 96.5051 158.688 96.5155 158.693C96.9322 158.932 97.1614 159.464 97.1614 160.193ZM97.8176 156.651L95.5676 158.005L94.8176 158.453C94.7916 158.469 94.7708 158.479 94.7499 158.495C94.7239 158.505 94.6978 158.526 94.677 158.542L89.5676 161.609L70.8541 172.854V171.172C71.0103 170.604 71.0103 170.042 70.8437 169.479L70.8385 169.464C70.802 169.333 70.7603 169.203 70.7083 169.073L70.6926 169.042C70.5155 168.609 70.2708 168.219 69.9635 167.87L92.9791 154.042C93.1041 153.964 93.2343 153.896 93.3697 153.839C93.4426 153.807 93.5155 153.786 93.5885 153.76C93.651 153.74 93.7083 153.714 93.7708 153.698C93.8541 153.672 93.9426 153.656 94.026 153.641C94.078 153.63 94.1301 153.615 94.1874 153.609C94.2655 153.599 94.3489 153.594 94.427 153.589C94.4895 153.589 94.5468 153.578 94.6093 153.578C94.6718 153.578 94.7447 153.583 94.8124 153.589C94.8905 153.594 94.9635 153.599 95.0416 153.609C95.0885 153.615 95.1353 153.625 95.1874 153.635C95.2812 153.651 95.3801 153.672 95.4791 153.698C95.5051 153.708 95.5312 153.719 95.5572 153.724C95.677 153.76 95.7916 153.802 95.9062 153.854C95.9166 153.859 95.9218 153.865 95.9322 153.865C96.0624 153.927 96.1926 153.995 96.3124 154.068C96.7655 154.344 97.1249 154.714 97.3958 155.172C97.6614 155.63 97.802 156.12 97.8176 156.651ZM90.2655 152.323C90.7135 152.052 91.1978 151.901 91.7239 151.87C92.2447 151.839 92.7447 151.932 93.2187 152.151C93.2291 152.151 93.2343 152.156 93.2447 152.156L93.2655 152.172C93.4999 152.281 93.7187 152.417 93.927 152.583C93.9322 152.589 93.9374 152.594 93.9478 152.594L94.828 153.146C94.6562 153.135 94.4843 153.135 94.3176 153.151L94.276 153.156C94.1197 153.172 93.9635 153.198 93.8124 153.234C93.7864 153.24 93.7603 153.245 93.7395 153.25C93.5937 153.286 93.453 153.333 93.3176 153.385C93.2864 153.396 93.2551 153.406 93.2239 153.417C93.0624 153.49 92.901 153.568 92.7447 153.661L69.6405 167.542C69.6353 167.536 69.6249 167.526 69.6145 167.521C69.4635 167.375 69.3072 167.24 69.1405 167.115C69.1093 167.089 69.0833 167.063 69.0468 167.036C68.8437 166.885 68.6301 166.745 68.4166 166.609C68.2655 166.521 68.0989 166.432 67.9322 166.349C67.8697 166.318 67.802 166.286 67.7395 166.26C67.6405 166.214 67.552 166.167 67.4478 166.12V166.036L90.2655 152.323ZM66.9999 165.911V170.349C66.9999 171.047 66.5364 171.708 65.6926 172.214C64.6562 172.76 63.5468 173.036 62.3749 173.036C61.1978 173.036 60.0937 172.76 59.052 172.214C58.2083 171.708 57.7447 171.047 57.7447 170.349V161.036L58.9166 161.74C59.9791 162.375 61.1301 162.693 62.3697 162.693C63.6041 162.693 64.7551 162.375 65.8176 161.74L66.9999 161.031V165.911ZM88.7135 149.177L88.8749 145.031L89.2395 136.016L89.6145 126.62C89.6353 126.073 89.6666 125.531 89.703 124.984C89.7187 124.745 89.7343 124.505 89.7499 124.266C89.7655 124.052 89.7864 123.833 89.8072 123.62C89.8593 122.969 89.9218 122.318 89.9895 121.651L90.0051 121.542C90.0624 120.99 90.1301 120.443 90.203 119.896C90.2083 119.828 90.2187 119.766 90.2291 119.703C90.2968 119.198 90.3697 118.698 90.4478 118.198C90.4739 118.005 90.5103 117.813 90.5416 117.62C90.6041 117.234 90.6666 116.854 90.7343 116.479C90.8385 115.88 90.953 115.286 91.078 114.693V114.688C91.1666 114.255 91.2655 113.818 91.3645 113.385C91.4114 113.161 91.4583 112.938 91.5103 112.714C91.6614 112.073 91.8228 111.432 91.9895 110.792L98.8905 84.625V84.6198C98.9426 84.4271 99.0155 84.2396 99.1041 84.0573C99.1405 83.974 99.1874 83.8906 99.2343 83.8125C99.2395 83.8073 99.2395 83.8021 99.2447 83.7969C99.3489 83.625 99.4687 83.4688 99.6041 83.3229C99.6197 83.3021 99.6405 83.2865 99.6562 83.2656C99.8489 83.0677 100.062 82.8959 100.302 82.7552L104.146 80.4584L109.208 77.4375C109.234 77.4219 109.266 77.4167 109.297 77.4115C109.307 77.4115 109.318 77.4115 109.328 77.4115C109.338 77.4167 109.354 77.4167 109.365 77.4219C109.422 77.4375 109.463 77.4688 109.49 77.5209C109.521 77.5677 109.531 77.6198 109.516 77.6719L102.578 103.328C102.417 103.932 102.26 104.542 102.115 105.151C102.057 105.38 102.005 105.604 101.953 105.833C101.865 106.214 101.781 106.594 101.698 106.974C101.641 107.25 101.578 107.526 101.521 107.797C101.453 108.151 101.385 108.505 101.318 108.859C101.266 109.13 101.208 109.406 101.161 109.682L101.156 109.703C101.151 109.74 101.146 109.771 101.141 109.802C101.01 110.552 100.891 111.302 100.781 112.057C100.755 112.255 100.729 112.448 100.698 112.646C100.62 113.25 100.542 113.854 100.479 114.464C100.453 114.693 100.427 114.927 100.401 115.161C100.344 115.755 100.292 116.344 100.245 116.938C100.229 117.156 100.208 117.38 100.193 117.599C100.135 118.396 100.094 119.188 100.062 119.984L99.7239 129.458L99.401 138.448L99.2968 141.292L99.2395 142.891L88.7135 149.177ZM118.651 129.583L99.7551 140.896L99.8385 138.583L118.88 127.182C119.047 127.083 119.198 126.979 119.349 126.875C119.385 126.849 119.422 126.823 119.453 126.797C119.573 126.708 119.687 126.615 119.802 126.521L119.875 126.453C120.01 126.339 120.13 126.219 120.25 126.099L120.255 126.094C120.922 125.385 121.391 124.557 121.656 123.62C121.719 124.208 121.698 124.792 121.588 125.375C121.484 125.958 121.297 126.516 121.031 127.042C120.766 127.573 120.427 128.052 120.026 128.484C119.62 128.917 119.161 129.281 118.651 129.583ZM121.453 122.453V122.458C121.411 122.703 121.365 122.943 121.307 123.172C121.109 124.036 120.729 124.818 120.167 125.516L120.141 125.542C119.88 125.854 119.588 126.135 119.266 126.38C119.229 126.406 119.198 126.432 119.161 126.458C119 126.578 118.833 126.693 118.651 126.797L99.8593 138.052L100.073 132.104L100.161 129.594L118.88 118.385C119.026 118.297 119.167 118.203 119.307 118.104C119.338 118.083 119.375 118.057 119.406 118.031C119.516 117.953 119.625 117.87 119.729 117.781C119.755 117.76 119.776 117.74 119.802 117.719C120.615 117.031 121.229 116.193 121.635 115.208L121.547 120.13C121.594 120.906 121.562 121.682 121.453 122.453ZM121.687 112.651C121.687 112.698 121.687 112.75 121.687 112.797C121.682 112.807 121.682 112.818 121.677 112.828C121.651 113.891 121.37 114.885 120.833 115.802C120.292 116.724 119.568 117.458 118.651 118L100.182 129.063L100.51 120C100.536 119.219 100.578 118.432 100.635 117.646C100.651 117.422 100.672 117.203 100.687 116.979C100.734 116.401 100.781 115.823 100.838 115.25C100.865 115.01 100.891 114.771 100.917 114.536C100.984 113.953 101.052 113.37 101.13 112.786C101.161 112.578 101.187 112.37 101.219 112.161C101.318 111.479 101.427 110.792 101.542 110.109C101.557 110.031 101.568 109.958 101.583 109.88L112.276 103.479L118.651 107.292C119.599 107.854 120.338 108.615 120.885 109.568C121.427 110.526 121.693 111.552 121.687 112.651ZM132.109 32.9375C132.109 43.4427 130.656 53.7448 127.755 63.849L124.062 76.7084C122.526 82.0469 121.76 87.5 121.76 93.0573V96.0261C121.76 96.4167 121.661 96.7761 121.469 97.1146C121.281 97.4531 121.021 97.724 120.687 97.9219L101.693 109.297C101.786 108.766 101.891 108.24 102 107.714C102.042 107.5 102.094 107.281 102.141 107.068C102.229 106.656 102.323 106.24 102.417 105.828C102.463 105.63 102.51 105.427 102.557 105.224C102.703 104.63 102.854 104.036 103.016 103.443L109.948 77.7865C109.963 77.7188 109.969 77.6459 109.963 77.5729C109.963 77.5573 109.958 77.5417 109.958 77.5313C109.948 77.4688 109.932 77.4115 109.906 77.3542C109.906 77.349 109.906 77.3438 109.901 77.3386C109.896 77.3281 109.891 77.3177 109.885 77.3021C109.609 76.6823 109.156 76.2396 108.521 75.974C108.281 75.9011 108.057 75.9271 107.838 76.0521L98.8645 81.4115C98.0364 81.9011 97.4999 82.6146 97.2551 83.5469L90.2343 110.141C90.0833 110.734 89.9322 111.328 89.7916 111.932C89.6978 112.307 89.6197 112.688 89.5364 113.063C89.4895 113.266 89.4478 113.464 89.401 113.667C89.2968 114.151 89.203 114.641 89.1093 115.13C89.0937 115.208 89.078 115.286 89.0624 115.365C88.9635 115.911 88.8645 116.458 88.776 117.005L88.7708 117.031L59.8958 134.323C59.7864 134.385 59.6718 134.443 59.552 134.484C59.526 134.495 59.4999 134.505 59.4739 134.51C59.3645 134.552 59.2499 134.583 59.1353 134.604H59.1249C58.8645 134.646 58.6041 134.641 58.3489 134.594L58.3228 134.589C58.0728 134.536 57.8333 134.448 57.6145 134.313C57.5937 134.302 57.578 134.286 57.5572 134.276C57.4635 134.214 57.3697 134.146 57.2864 134.073L57.2603 134.047C57.1614 133.958 57.0676 133.859 56.9843 133.75C56.9166 133.656 56.8541 133.563 56.802 133.458C56.7968 133.448 56.7916 133.438 56.7864 133.427C56.7395 133.344 56.703 133.255 56.6718 133.167C56.6614 133.141 56.6562 133.115 56.6458 133.089C56.6197 133.01 56.5989 132.927 56.5833 132.844C56.578 132.813 56.5728 132.786 56.5676 132.755C56.552 132.646 56.5416 132.536 56.5416 132.422C56.5416 126.875 57.3124 121.432 58.8541 116.099L62.4635 103.615C65.4166 93.4167 66.8905 83.0052 66.8905 72.3906V42.5104C66.8905 41.7656 67.078 41.0677 67.4426 40.4219C67.8124 39.7761 68.3124 39.2604 68.953 38.875L125.672 4.91148C125.838 4.81252 126.005 4.72398 126.182 4.65106C126.276 4.6094 126.375 4.57815 126.474 4.5469C126.552 4.51565 126.63 4.4844 126.708 4.46356C126.833 4.42711 126.953 4.40627 127.078 4.38023C127.135 4.36981 127.193 4.35419 127.25 4.34898C127.38 4.32815 127.516 4.31773 127.651 4.31252C127.698 4.31252 127.75 4.30211 127.797 4.30211C127.953 4.30211 128.109 4.30731 128.266 4.32815C128.286 4.32815 128.312 4.32815 128.333 4.32815C128.5 4.34898 128.672 4.38023 128.833 4.41669C128.849 4.4219 128.859 4.4219 128.87 4.42711C129.047 4.46877 129.219 4.52606 129.391 4.59377H129.396C129.573 4.66148 129.745 4.74481 129.906 4.83336C129.922 4.84377 129.937 4.84898 129.953 4.85419C130.625 5.22919 131.151 5.74481 131.536 6.40627C131.922 7.06773 132.115 7.78127 132.109 8.5469V32.9375Z" fill="#142343"/>
</g>
</svg>
