<svg width="68" height="29" viewBox="0 0 68 29" fill="none" xmlns="http://www.w3.org/2000/svg">
<path d="M6.53627 20.5516C6.53627 20.5516 6.8019 17.0151 9.63523 15.1505C12.4686 13.2807 15.8436 14.3016 15.8436 14.3016L15.9738 13.5516L15.2186 12.8484C15.2186 12.8484 12.1196 10.4161 7.76544 12.0151C3.41127 13.6089 3.6769 16.6818 3.6769 16.6818C3.87482 16.3016 4.14044 15.9734 4.46336 15.6974C4.76544 15.4682 5.09356 15.2859 5.44252 15.1505C5.44252 15.1505 3.77586 16.8016 3.67169 19.1661C3.56752 21.5307 4.93211 22.6297 4.93211 22.6297C4.93211 22.6297 4.64044 20.9943 5.18731 19.7755C5.72898 18.5516 6.09877 18.3589 6.09877 18.3589C6.09877 18.3589 5.82794 19.6193 6.53627 20.5516Z" fill="#F2F2F2"/>
<path d="M7.52148 12.7391C8.16732 12.7234 8.47461 12.7391 8.47461 12.7391C8.47461 12.7391 7.15169 13.3901 6.66732 14.0984C6.17773 14.812 5.77148 16.1089 5.77148 16.1089C5.77148 16.1089 6.23503 15.5776 6.70378 15.1505C7.17253 14.7182 7.9694 14.5151 7.9694 14.5151C7.9694 14.5151 7.25065 15.2234 7.05794 15.6974C6.86003 16.1714 6.70378 17.4891 6.70378 17.4891C6.87044 17.1974 7.07357 16.937 7.30794 16.7026C7.75586 16.2286 8.92253 15.6974 8.92253 15.6974C9.14648 15.4943 9.38607 15.312 9.63607 15.1505C12.4694 13.2859 15.8444 14.3016 15.8444 14.3016L15.9746 13.5516L15.2194 12.8484C15.2194 12.8484 12.1204 10.4161 7.76628 12.0151C6.98503 12.2859 6.26107 12.6714 5.59961 13.1661C5.63607 13.1557 6.89128 12.7599 7.52148 12.7391Z" fill="#595959"/>
<path d="M4.93237 22.9837C4.84904 22.9837 4.78133 22.9577 4.71362 22.9056C4.65633 22.8535 3.21883 21.6608 3.3282 19.1504C3.36466 18.4004 3.53133 17.6817 3.83341 16.9942C3.76049 17.0306 3.68758 17.041 3.60945 17.0254C3.43758 16.9889 3.34383 16.8848 3.33341 16.7129C3.31779 16.5775 3.09904 13.3535 7.64591 11.6817C12.1251 10.041 15.297 12.4629 15.4272 12.5723C15.4376 12.5775 15.4428 12.5827 15.4532 12.5879L16.2084 13.291C16.3022 13.3744 16.3386 13.4837 16.3126 13.6087L16.1876 14.364C16.1667 14.4629 16.1147 14.5462 16.0261 14.5983C15.9376 14.6556 15.8438 14.666 15.7449 14.64C15.7136 14.6296 12.4845 13.6921 9.82299 15.4421C7.17195 17.1869 6.88549 20.5462 6.88549 20.5775C6.87508 20.739 6.79174 20.8431 6.63549 20.89C6.48445 20.9317 6.35945 20.8952 6.2657 20.765C5.96883 20.3692 5.79695 19.9265 5.73445 19.4317C5.66154 19.5723 5.58341 19.7337 5.50008 19.916C5.01049 21.0202 5.27091 22.5515 5.27612 22.5671C5.29174 22.6765 5.2657 22.7702 5.19799 22.8535C5.13028 22.9369 5.04174 22.9785 4.93237 22.9785V22.9837ZM5.44279 14.7962C5.59904 14.7962 5.7032 14.8692 5.7657 15.015C5.82299 15.1608 5.79695 15.291 5.68758 15.4004C5.67195 15.416 4.11466 16.989 4.02091 19.1817C3.96883 20.0046 4.13029 20.7806 4.50529 21.515C4.50008 20.8587 4.62508 20.2337 4.86987 19.6296C5.42195 18.3952 5.8282 18.1035 5.93758 18.0462C6.06779 17.9785 6.19279 17.989 6.31258 18.0775C6.42716 18.166 6.46883 18.2858 6.43758 18.4317C6.3907 18.7181 6.38029 19.0098 6.41674 19.3015C6.75008 18.041 7.54695 16.1087 9.44799 14.8535C11.849 13.2702 14.5782 13.6556 15.5678 13.8744L15.599 13.6765L14.9949 13.1192C14.8074 12.9785 11.8803 10.8796 7.88549 12.3431C5.54174 13.1973 4.61466 14.4785 4.25008 15.4212L4.25529 15.416C4.58341 15.166 4.94278 14.9681 5.32299 14.8171C5.36466 14.8067 5.40112 14.7962 5.44279 14.7962Z" fill="#560F1B"/>
<path d="M34.1762 10.9576C34.1762 10.9576 19.0512 5.6191 14.9002 10.9576C10.7544 16.2962 11.1398 20.4785 9.7804 21.4316C8.42623 22.3847 7.16061 21.5566 6.08248 21.7233C5.00957 21.8899 1.04602 25.7441 0.999149 25.9108C0.952275 26.0722 2.41061 26.791 3.42102 26.8326C5.10852 26.9004 7.07207 26.2285 7.07207 26.2285C7.07207 26.2285 11.796 27.7076 14.8794 26.7233C18.1502 25.6816 21.9262 27.0306 24.046 27.0306C26.1658 27.0306 35.9523 26.7233 35.9523 26.7233L38.8221 17.0514L34.1762 10.9576Z" fill="#F2F2F2"/>
<path d="M34.1764 10.942C34.1764 10.942 19.0514 5.60348 14.9004 10.942C10.7546 16.2806 11.14 20.4629 9.7806 21.416C9.24935 21.7962 8.6556 21.9472 8.00456 21.8743C6.77018 22.0358 6.27539 23.4212 6.27539 23.4212L5.61914 25.0045C6.32227 24.8379 7.02539 24.8379 7.72331 25.0045C8.84831 25.2806 10.9993 24.3483 10.9993 24.3483L10.2962 25.666C10.2962 25.666 11.8379 25.7181 12.7285 24.5566C13.6191 23.3951 13.0098 22.4264 13.6191 20.3379C14.2233 18.2545 16.1869 16.0045 16.1869 16.0045L17.0306 19.166C17.0306 19.166 17.2181 17.2129 19.3223 14.9837C20.6921 13.5722 22.2546 12.416 23.9994 11.5201L23.015 14.0254C23.015 14.0254 24.2337 12.7649 28.2077 12.9837C32.1816 13.2024 34.1348 15.7337 34.1348 15.7337L38.3587 16.4316L34.1764 10.942Z" fill="#595959"/>
<path d="M33.37 11.1719C33.37 11.1719 30.7763 14.5208 31.6982 18.6458C32.62 22.7708 36.1825 25.4635 36.1825 25.4635C36.1825 25.4635 34.2398 21.5729 33.6721 17.9583C33.1096 14.3385 33.2294 12.0573 33.37 11.1719Z" fill="#D9667B"/>
<path d="M30.984 18.5885C30.7705 18.5885 30.6559 18.4791 30.6403 18.2656C30.6246 18.0469 30.7236 17.9219 30.9371 17.8906L32.4528 17.6666C32.5465 17.6562 32.6351 17.6771 32.708 17.7344C32.7861 17.7916 32.833 17.8698 32.8434 17.9635C32.859 18.0625 32.8382 18.1458 32.7809 18.2239C32.7236 18.3021 32.6455 18.3489 32.5517 18.3646L31.0361 18.5833C31.0153 18.5885 30.9996 18.5885 30.984 18.5885Z" fill="#560F1B"/>
<path d="M35.8443 25.8124C35.761 25.8124 35.688 25.7864 35.6203 25.7343C35.4849 25.6197 32.2974 22.9114 31.3599 18.7239C30.4172 14.4843 32.9849 11.0989 33.0943 10.953C33.1568 10.8801 33.2349 10.8332 33.3287 10.8228C33.4224 10.8072 33.511 10.8332 33.5839 10.8905C33.662 10.953 33.7037 11.0312 33.7141 11.1301C33.7245 11.2239 33.7037 11.3124 33.6412 11.3853C33.6047 11.4322 31.1672 14.6718 32.037 18.5676C32.9224 22.5207 36.0318 25.1666 36.063 25.1926C36.188 25.2968 36.2245 25.427 36.1672 25.5832C36.1151 25.7395 36.0058 25.8124 35.8391 25.8124H35.8443Z" fill="#560F1B"/>
<path d="M29.2856 16.9531C29.3689 16.9374 29.447 16.9114 29.52 16.8801L29.796 18.3228L29.8429 18.5624L30.1241 20.0051C29.8533 19.9947 29.6189 20.0781 29.4106 20.2499C29.2023 20.4218 29.0825 20.6458 29.0408 20.9114C28.9991 21.1822 29.0564 21.427 29.2023 21.6562C29.3481 21.8801 29.5512 22.0312 29.8116 22.0989C30.072 22.1666 30.322 22.1406 30.5616 22.0208C30.8012 21.8958 30.9679 21.7083 31.0616 21.4531C31.2491 21.651 31.4731 21.7603 31.7387 21.7864C32.0095 21.8072 32.2491 21.7395 32.4627 21.5728C32.6762 21.4114 32.8116 21.1926 32.8637 20.927C32.9158 20.6614 32.8689 20.4114 32.7335 20.177C32.5929 19.9426 32.395 19.7864 32.1398 19.7083C31.8793 19.6301 31.6293 19.6458 31.3845 19.7603L31.1085 18.3124L31.0616 18.0728L30.7856 16.6249C31.0512 16.6406 31.2908 16.5624 31.4991 16.3906C31.7075 16.2187 31.8325 15.9999 31.8741 15.7291C31.9158 15.4583 31.8637 15.2135 31.7179 14.9843C31.572 14.7551 31.3689 14.6041 31.1085 14.5364C30.8481 14.4635 30.5981 14.4895 30.3585 14.6145C30.1189 14.7395 29.9523 14.927 29.8533 15.1822C29.7283 15.0416 29.572 14.9478 29.395 14.8906C29.2179 14.8385 29.0408 14.8281 28.8585 14.8697C28.6762 14.9114 28.5148 14.9947 28.3793 15.1249C28.2387 15.2499 28.145 15.401 28.0877 15.5833C28.0304 15.7603 28.02 15.9426 28.0564 16.1249C28.0929 16.3124 28.1762 16.4739 28.3012 16.6145C28.421 16.7551 28.572 16.8593 28.7491 16.9166C28.9262 16.9791 29.1033 16.9895 29.2856 16.9531Z" fill="#F2F2F2"/>
<path d="M30.0842 22.484C29.7301 22.484 29.4228 22.3694 29.1624 22.1351C28.8967 21.9007 28.7405 21.609 28.6936 21.2549C28.652 20.9059 28.7249 20.583 28.9176 20.2861C29.1103 19.9892 29.3759 19.7965 29.7145 19.7028L29.2509 17.3121C29.0322 17.3382 28.8134 17.3121 28.6051 17.234C28.3967 17.1559 28.2145 17.0361 28.0634 16.8694C27.9124 16.708 27.8082 16.5153 27.7457 16.2965C27.6832 16.083 27.6728 15.859 27.7145 15.6403C27.7561 15.4163 27.8447 15.2184 27.9853 15.0413C28.1207 14.859 28.2874 14.7236 28.4905 14.6299C28.6936 14.5309 28.9072 14.484 29.1259 14.4944C29.3499 14.4996 29.5582 14.5569 29.7561 14.6611C29.8967 14.4892 30.0738 14.3538 30.277 14.2653C30.4801 14.1767 30.6936 14.1351 30.9176 14.1507C31.1415 14.1611 31.3499 14.2236 31.5426 14.3382C31.7353 14.4528 31.8915 14.6038 32.0113 14.7965C32.1363 14.9892 32.204 15.1924 32.2301 15.4215C32.2509 15.6455 32.2249 15.8642 32.1415 16.0726C32.0582 16.2861 31.9384 16.4632 31.7717 16.6142C31.6051 16.7653 31.4124 16.8694 31.1988 16.9319L31.6572 19.3174C31.8811 19.2913 32.0947 19.3174 32.303 19.3903C32.5165 19.4684 32.6988 19.5882 32.8499 19.7549C33.0061 19.9163 33.1103 20.109 33.1728 20.3278C33.2353 20.5413 33.2457 20.7653 33.204 20.984C33.1624 21.208 33.0738 21.4059 32.9384 21.5882C32.803 21.7653 32.6311 21.9059 32.4332 21.9996C32.2301 22.0986 32.0165 22.1455 31.7926 22.1403C31.5686 22.1299 31.3603 22.0778 31.1624 21.9684C30.9488 22.2288 30.678 22.3955 30.3499 22.458C30.2613 22.4736 30.1728 22.484 30.0842 22.484ZM30.0842 20.3538C30.0374 20.3538 29.9905 20.359 29.9488 20.3694C29.8238 20.3903 29.7145 20.4476 29.6207 20.5257C29.527 20.609 29.4592 20.7132 29.4176 20.833C29.3759 20.9476 29.3655 21.0726 29.3863 21.1976C29.4124 21.3226 29.4592 21.4319 29.5426 21.5257C29.6207 21.6246 29.7197 21.6924 29.8395 21.7392C29.954 21.7809 30.0738 21.7913 30.1988 21.7705C30.3238 21.7496 30.4332 21.7028 30.527 21.6194C30.6259 21.5413 30.6936 21.4424 30.7405 21.3226C30.7874 21.2028 30.8707 21.1299 30.9957 21.109C31.1207 21.083 31.2301 21.1142 31.3186 21.2132C31.4384 21.3434 31.5895 21.4163 31.7717 21.4319C31.9488 21.4476 32.1155 21.4007 32.2561 21.2913C32.402 21.1819 32.4905 21.0361 32.5217 20.859C32.5582 20.6819 32.527 20.5101 32.4384 20.3538C32.3447 20.1976 32.2092 20.0934 32.0374 20.0413C31.8655 19.9892 31.6988 19.9996 31.5322 20.0778C31.4332 20.1246 31.329 20.1246 31.2301 20.0726C31.1311 20.0205 31.0686 19.9371 31.0478 19.8278L30.4436 16.6924C30.4228 16.583 30.4488 16.484 30.5217 16.3955C30.5947 16.3121 30.6884 16.2705 30.803 16.2757C30.8603 16.2757 30.9176 16.2757 30.9749 16.2653C31.0947 16.2392 31.204 16.1871 31.2978 16.1038C31.3915 16.0205 31.4592 15.9215 31.5009 15.8017C31.5426 15.6819 31.553 15.5569 31.5322 15.4371C31.5113 15.3121 31.4592 15.1976 31.3759 15.1038C31.2978 15.0049 31.1988 14.9371 31.0842 14.8903C30.9645 14.8486 30.8447 14.8382 30.7197 14.859C30.5999 14.8799 30.4905 14.9267 30.3915 15.0101C30.2926 15.0882 30.2249 15.1871 30.178 15.3069C30.1311 15.4267 30.0478 15.4996 29.9228 15.5257C29.7978 15.5465 29.6884 15.5153 29.6051 15.4215C29.5165 15.3278 29.4176 15.2601 29.2978 15.2236C29.178 15.1871 29.0582 15.1819 28.9332 15.2132C28.8134 15.2392 28.704 15.2965 28.6103 15.3799C28.5217 15.4632 28.454 15.5674 28.4176 15.6871C28.3759 15.8069 28.3707 15.9319 28.3967 16.0517C28.4228 16.1767 28.4749 16.2861 28.5582 16.3799C28.6415 16.4736 28.7457 16.5413 28.8603 16.583C28.9801 16.6246 29.0999 16.6299 29.2249 16.609C29.277 16.5986 29.329 16.5778 29.3811 16.5569C29.4801 16.5101 29.579 16.5153 29.6832 16.5674C29.7822 16.6194 29.8395 16.6976 29.8603 16.8121L30.4645 19.9371C30.4853 20.0517 30.4592 20.1455 30.3863 20.234C30.3134 20.3174 30.2249 20.359 30.1103 20.3538C30.0999 20.3538 30.0947 20.3538 30.0842 20.3538Z" fill="#560F1B"/>
<path d="M31.1715 12.4375C29.5465 13.651 28.1715 15.1042 27.0413 16.8021C25.1507 19.625 24.3382 22.849 25.2027 24.0469C26.0621 25.25 27.8486 25.2865 28.6819 24.4375C29.5205 23.5938 32.109 13.6302 32.109 13.6302L31.2548 13.1927L31.1715 12.4375Z" fill="#F2F2F2"/>
<path d="M27.0413 16.8021C25.1507 19.625 24.3382 22.849 25.2027 24.0469C25.4371 24.3698 25.7288 24.6146 26.0882 24.7813C26.01 24.724 25.6611 24.4219 25.4371 23.5052C25.1819 22.4635 25.7184 20.9427 25.7184 20.9427L26.3382 21.5625C26.3382 21.5625 26.2652 20.9271 26.5777 19.3802C26.7652 18.4531 27.1142 17.5885 27.6298 16.7917L27.8121 17.6198C27.8121 17.6198 30.2132 15.5781 31.7444 13.5208C31.9632 13.224 31.1715 12.4375 31.1715 12.4375C29.5465 13.651 28.1715 15.1042 27.0413 16.8021Z" fill="#595959"/>
<path d="M26.2816 22.1614C26.2347 22.3749 26.2035 22.5885 26.1878 22.8072C26.1826 22.9166 26.1774 23.026 26.1722 23.1353V23.302C26.1774 23.3489 26.1722 23.401 26.1826 23.453C26.1983 23.6562 26.2451 23.8489 26.318 24.0416C26.3545 24.1353 26.3962 24.2291 26.443 24.3176C26.4639 24.3593 26.4899 24.4062 26.5108 24.4478C26.5368 24.4843 26.5576 24.5208 26.5837 24.5572C26.6514 24.6405 26.6774 24.7343 26.6618 24.8437C26.6462 24.9478 26.5941 25.0312 26.5055 25.0885C26.4118 25.1458 26.318 25.1562 26.2139 25.1301C26.1149 25.0989 26.042 25.0312 25.9951 24.9374L25.9847 24.9062C25.9535 24.8437 25.9326 24.7812 25.9118 24.7187C25.891 24.6562 25.8753 24.5989 25.8597 24.5364C25.8285 24.4166 25.8024 24.2968 25.7868 24.177C25.7503 23.9322 25.7451 23.6874 25.7764 23.4426C25.7816 23.3801 25.7972 23.3176 25.8076 23.2603L25.8441 23.0937C25.8701 22.9791 25.8962 22.8697 25.9274 22.7603C25.9899 22.5364 26.068 22.3228 26.1618 22.1145C26.1774 22.078 26.2087 22.0676 26.2451 22.078C26.2816 22.0937 26.292 22.1197 26.2816 22.1562V22.1614Z" fill="#560F1B"/>
<path d="M27.7138 22.8281C27.7034 23.1563 27.7398 23.4792 27.8232 23.7969C27.8596 23.9427 27.9117 24.0886 27.9794 24.2292C28.0419 24.3594 28.12 24.474 28.2138 24.5834C28.2815 24.6667 28.3075 24.7604 28.2919 24.8646C28.2763 24.974 28.2242 25.0573 28.1357 25.1146C28.0419 25.1719 27.9482 25.1823 27.844 25.1511C27.745 25.1198 27.6721 25.0573 27.6252 24.9584V24.9531C27.4742 24.5938 27.4065 24.224 27.4221 23.8386C27.4325 23.6615 27.4482 23.4844 27.4794 23.3073C27.5107 23.1406 27.5523 22.9688 27.6044 22.8021C27.6148 22.7761 27.6357 22.7604 27.6669 22.7656C27.6982 22.7709 27.7138 22.7917 27.7138 22.8229V22.8281Z" fill="#560F1B"/>
<path d="M27.1606 25.3696C27.0825 25.3696 27.0044 25.3696 26.9263 25.3592C26.0877 25.3019 25.4211 24.9373 24.9211 24.2551C23.9679 22.9217 24.7752 19.5623 26.7544 16.604C27.9054 14.8696 29.3117 13.3853 30.9731 12.1509C31.0565 12.0936 31.1398 12.078 31.2336 12.0936C31.3273 12.1144 31.4002 12.1613 31.4575 12.2446C31.5096 12.3228 31.5252 12.4113 31.5096 12.5051C31.494 12.5988 31.4419 12.6769 31.3638 12.729C29.7804 13.9217 28.4367 15.3436 27.3325 16.9946C25.3794 19.9113 24.7961 22.8905 25.4836 23.8436C25.8586 24.3488 26.3586 24.6196 26.9836 24.6613C27.5565 24.7082 28.1034 24.5311 28.4367 24.1926C28.7388 23.8905 29.9054 20.7342 31.7752 13.5415C31.8377 13.3228 31.9784 13.2394 32.1971 13.3019C32.4159 13.3592 32.494 13.4998 32.4419 13.7238C32.0044 15.4009 29.7856 23.8176 28.9263 24.6873C28.4315 25.1613 27.8377 25.3853 27.1606 25.3696Z" fill="#560F1B"/>
<mask id="mask0_292_113725" style="mask-type:luminance" maskUnits="userSpaceOnUse" x="0" y="8" width="37" height="21">
<path d="M0.625 8.00977H36.6667V28.0098H0.625V8.00977Z" fill="white"/>
</mask>
<g mask="url(#mask0_292_113725)">
<path d="M12.3535 27.4107C9.97852 27.4107 7.61393 26.7545 7.07747 26.593C6.63476 26.7389 4.93164 27.2441 3.41081 27.1816C2.68685 27.1503 1.7181 26.7545 1.03581 26.4264C0.931641 26.3795 0.848307 26.3118 0.780599 26.218C0.718098 26.1295 0.676431 26.0305 0.660807 25.9159C0.639974 25.8066 0.650391 25.6972 0.692057 25.593C0.728516 25.4837 0.785807 25.3951 0.869141 25.317C2.73372 23.5982 5.14518 21.5149 6.0306 21.3743C6.4681 21.3326 6.90039 21.3587 7.33268 21.4472C8.0931 21.5722 8.81706 21.6868 9.58268 21.1451C10.0202 20.8378 10.2754 19.9993 10.6243 18.8326C11.2025 16.9212 12.0723 14.0305 14.6296 10.7441C16.4316 8.42116 20.1868 7.66595 25.791 8.49407C28.4421 8.90553 31.0358 9.53574 33.5827 10.3951C33.6712 10.4264 33.7337 10.4837 33.7754 10.5722C33.8171 10.6607 33.8223 10.7493 33.791 10.8378C33.7598 10.9316 33.7025 10.9941 33.6139 11.0357C33.5306 11.0826 33.4421 11.0878 33.3535 11.0566C33.2129 11.0045 19.1244 6.09303 15.1764 11.1764C12.6973 14.3639 11.8483 17.1764 11.2858 19.0357C10.8952 20.3378 10.6139 21.2753 9.97852 21.718C8.98372 22.4212 8.00976 22.2649 7.22331 22.1399C6.86393 22.0618 6.50456 22.0409 6.13477 22.067C5.61393 22.1503 3.74414 23.6191 1.36393 25.8118C2.22331 26.218 2.97852 26.4628 3.43685 26.4784C5.03581 26.5462 6.94206 25.9003 6.95768 25.8951C7.0306 25.8691 7.10352 25.8691 7.17122 25.8899C7.2181 25.9055 11.8379 27.3274 14.7754 26.3899C17.0827 25.6503 19.6087 26.0618 21.64 26.3951C22.5827 26.5462 23.3952 26.6816 24.0462 26.6816C26.1348 26.6816 35.8431 26.3743 35.9421 26.3691C36.041 26.3691 36.1244 26.4003 36.1921 26.468C36.2598 26.5305 36.2962 26.6139 36.3014 26.7128C36.3066 26.8066 36.2754 26.8899 36.2077 26.9628C36.14 27.0305 36.0619 27.067 35.9629 27.0722C35.8691 27.0774 26.1452 27.3847 24.0462 27.3847C23.3431 27.3847 22.5046 27.2441 21.5306 27.0878C19.5723 26.7701 17.1348 26.3743 14.9837 27.0566C14.1243 27.3118 13.2493 27.4264 12.3535 27.4107Z" fill="#560F1B"/>
</g>
<path d="M8.3794 24.5104C8.36898 24.7031 8.33252 24.8958 8.27002 25.0833C8.21273 25.2708 8.1346 25.4531 8.04085 25.625C7.9419 25.7969 7.8221 25.9583 7.6919 26.1094C7.55648 26.2604 7.41065 26.401 7.2544 26.526C7.17106 26.5937 7.07731 26.6146 6.97835 26.5989C6.87419 26.5833 6.79606 26.5312 6.73877 26.4427C6.68148 26.3542 6.67106 26.2552 6.6971 26.1562C6.72314 26.0521 6.78565 25.9792 6.8794 25.9323L6.88981 25.9271C7.03565 25.8594 7.17627 25.7812 7.31169 25.6875C7.4471 25.5937 7.56689 25.4844 7.68148 25.3594C7.79606 25.2396 7.90023 25.1041 7.98356 24.9583C8.07731 24.8073 8.14502 24.651 8.1919 24.4896L8.1971 24.4792C8.21273 24.4271 8.24919 24.401 8.30127 24.4114C8.35335 24.4219 8.3794 24.4531 8.3794 24.5104Z" fill="#560F1B"/>
<path d="M4.21382 25.6403C4.11486 25.682 4.01069 25.708 3.90653 25.7184C3.80757 25.7341 3.7034 25.7393 3.60445 25.7445C3.50028 25.7445 3.40653 25.7497 3.30236 25.7393C3.18778 25.7341 3.0784 25.7132 2.97424 25.682C2.77111 25.6195 2.5732 25.5362 2.3909 25.4216C2.2034 25.3174 2.03153 25.1924 1.86486 25.0518C1.78674 24.9893 1.74507 24.9112 1.73465 24.8122C1.72424 24.7132 1.75028 24.6247 1.81278 24.5518C1.88049 24.4737 1.95861 24.432 2.05757 24.4268C2.15132 24.4164 2.23986 24.4476 2.31278 24.5101C2.33361 24.5309 2.35445 24.5518 2.37007 24.5778C2.47424 24.7184 2.58882 24.8487 2.71903 24.9684C2.84403 25.0934 2.97945 25.2028 3.13049 25.2914C3.2034 25.333 3.27632 25.3695 3.35965 25.3955C3.43778 25.4216 3.53674 25.4424 3.62528 25.4632C3.71903 25.4789 3.80757 25.4945 3.90132 25.5049C3.98465 25.5153 4.0732 25.5153 4.16174 25.5101L4.17736 25.5049C4.21903 25.4997 4.24507 25.5153 4.25549 25.557C4.2659 25.5987 4.25549 25.6247 4.21382 25.6403Z" fill="#560F1B"/>
<path d="M3.97827 23.2078C3.98868 23.213 4.00952 23.2442 4.02514 23.2651L4.07723 23.3432C4.10848 23.3953 4.14493 23.4473 4.18139 23.4994C4.25952 23.5984 4.35848 23.6713 4.46785 23.7286C4.60327 23.7911 4.74389 23.8328 4.88452 23.8588C5.03556 23.8848 5.1866 23.8953 5.33764 23.8901H5.35327C5.41056 23.8848 5.44702 23.9161 5.46264 23.9734C5.47306 24.0307 5.45743 24.0723 5.40014 24.0932C5.23348 24.1713 5.0616 24.2182 4.87931 24.239C4.69702 24.2651 4.51473 24.2598 4.32723 24.2338C4.11889 24.1973 3.93139 24.1192 3.75952 23.9942C3.67618 23.9369 3.59806 23.8692 3.52514 23.7911C3.48869 23.7546 3.45743 23.713 3.43139 23.6661C3.40014 23.6192 3.3741 23.5671 3.35327 23.5151C3.3116 23.4057 3.33243 23.3067 3.40535 23.2234C3.48347 23.1348 3.57202 23.1036 3.6866 23.1348L3.97827 23.2078Z" fill="#560F1B"/>
<path d="M16.5514 24.8126C16.4994 25.0626 16.4264 25.3073 16.3223 25.5417C16.2181 25.7761 16.0879 26.0001 15.9368 26.2084C15.7754 26.4219 15.5879 26.6094 15.3743 26.7709C15.1504 26.9323 14.9108 27.0626 14.6556 27.1511C14.5618 27.1876 14.4681 27.1876 14.3743 27.1407C14.2858 27.099 14.2233 27.0261 14.1973 26.9271C14.166 26.8334 14.1764 26.7396 14.2285 26.6511C14.2754 26.5626 14.3483 26.5053 14.4473 26.4792L14.4733 26.474C14.9004 26.3959 15.265 26.198 15.5775 25.8907C15.7337 25.7344 15.8743 25.5573 15.9941 25.3646C16.1191 25.1719 16.2181 24.9688 16.2962 24.7501V24.7396C16.3275 24.6615 16.3796 24.6355 16.4577 24.6563C16.5358 24.6823 16.5671 24.7292 16.5514 24.8126Z" fill="#560F1B"/>
<path d="M58.4383 12.5309C57.5529 11.8122 56.9956 10.2601 55.1101 8.5101C53.2247 6.7601 49.8081 4.52052 46.532 3.36947C43.256 2.21322 42.1726 1.72885 42.1726 1.72885C39.256 -0.750317 35.8914 3.14551 34.7247 6.29656C33.5581 9.4476 31.5841 14.6663 35.9018 24.5726C35.9018 24.5726 36.0737 24.9007 35.782 25.6351C34.9331 27.7445 36.3758 27.7445 36.3758 27.7445H55.5581C55.5424 27.7393 57.006 21.3643 57.0112 21.3486C58.7716 16.8903 57.6883 14.4059 57.6883 14.4059C57.6883 14.4059 58.3914 14.5986 58.9904 14.3226C59.3862 14.1195 59.6779 13.8174 59.8706 13.4163C59.8706 13.4163 59.3237 13.2549 58.4383 12.5309Z" fill="#F2F2F2"/>
<path d="M49.4434 4.44208C49.4434 4.44208 52.1882 2.35875 55.834 1.48896C59.4746 0.619168 61.7923 0.931667 61.8809 1.71292C61.9694 2.49417 60.0527 4.04104 58.4798 6.70771C56.9069 9.37438 56.7507 10.1192 56.7507 10.1192L51.9798 7.55146L49.4434 4.44208Z" fill="#595959"/>
<mask id="mask1_292_113725" style="mask-type:luminance" maskUnits="userSpaceOnUse" x="54" y="16" width="14" height="11">
<path d="M54 16.0098H67.9844V26.6764H54V16.0098Z" fill="white"/>
</mask>
<g mask="url(#mask1_292_113725)">
<path d="M58.1348 17.0518C58.1348 17.0518 60.9785 17.2601 63.5775 18.9059C66.1764 20.5518 67.5931 22.3018 67.4837 23.0049C67.3743 23.708 64.3848 23.682 61.8379 24.0309C59.5983 24.333 54.3379 25.9997 54.3379 25.9997L56.1035 21.1143L58.1348 17.0518Z" fill="#595959"/>
</g>
<path d="M53.8496 7.9792C54.5111 7.03128 55.2871 6.18753 56.1777 5.45316C57.6934 4.19274 59.4069 3.49482 59.5788 3.29691C59.7507 3.09378 58.2246 2.80732 57.0736 3.33858C56.3965 3.64587 55.8027 4.08337 55.3079 4.64587C55.3079 4.64587 55.9173 3.69274 55.2715 3.67191C54.6204 3.65628 53.8861 4.65108 53.8861 4.65108C53.8861 4.65108 53.7975 3.79691 53.0319 4.23962C52.2663 4.68753 51.6309 6.47399 51.6309 6.47399C51.6309 6.47399 52.3496 6.87503 52.9329 7.30212C53.5215 7.72399 53.8496 7.9792 53.8496 7.9792Z" fill="#F2F2F2"/>
<path d="M56.7715 20.3278C56.7715 20.3278 59.1517 20.2133 60.6986 20.4737C62.2454 20.7289 64.209 21.5726 64.2194 21.7705C64.235 21.9685 62.5579 22.1091 61.6882 21.8955C61.2715 21.8018 60.8652 21.682 60.4642 21.5414C60.4642 21.5414 61.1725 22.1403 60.7402 22.4893C60.3027 22.8383 58.9173 21.9945 58.9173 21.9945C58.9173 21.9945 59.3861 22.3643 59.1777 22.6924C58.9694 23.0205 57.9694 22.6612 57.1569 22.7966C56.485 22.9372 55.8236 23.1247 55.1777 23.3695C55.1777 23.3695 55.8757 22.3018 56.1673 21.6976C56.4538 21.0987 56.7298 20.4424 56.7715 20.3278Z" fill="#F2F2F2"/>
<path d="M56.7493 10.4681C56.64 10.4681 56.5514 10.4264 56.4837 10.3379C56.416 10.2545 56.39 10.1556 56.4108 10.0462C56.4264 9.96285 56.6243 9.16598 58.1816 6.52535C58.8535 5.42118 59.6035 4.37952 60.442 3.39514C60.9941 2.71806 61.567 2.01493 61.5358 1.75452C61.5358 1.72327 61.4941 1.6816 61.4368 1.63993C60.8639 1.22848 58.89 1.1191 55.9108 1.82743C52.3847 2.67119 49.6764 4.70243 49.6504 4.72327C49.5722 4.78056 49.4889 4.80139 49.3952 4.79098C49.2962 4.77535 49.2233 4.72848 49.166 4.65556C49.1087 4.57743 49.0879 4.48889 49.0983 4.39514C49.1139 4.29619 49.1556 4.21806 49.2337 4.16077C51.2181 2.7441 53.39 1.73889 55.7545 1.14514C58.6139 0.462852 60.9472 0.431602 61.8379 1.06181C62.0566 1.20243 62.1868 1.40556 62.2233 1.67118C62.291 2.22848 61.7962 2.83785 60.9733 3.84306C60.1608 4.79618 59.4316 5.81181 58.7754 6.88473C57.2858 9.41598 57.0931 10.166 57.0879 10.1972C57.0462 10.3743 56.9316 10.4681 56.7493 10.4681Z" fill="#560F1B"/>
<mask id="mask2_292_113725" style="mask-type:luminance" maskUnits="userSpaceOnUse" x="52" y="16" width="16" height="11">
<path d="M52.666 16.0098H67.9837V26.6764H52.666V16.0098Z" fill="white"/>
</mask>
<g mask="url(#mask2_292_113725)">
<path d="M54.3385 26.3485C54.1405 26.3485 54.0259 26.2495 53.9947 26.0516C53.9634 25.8537 54.0468 25.7235 54.2343 25.6662C54.453 25.5985 59.552 23.9891 61.7916 23.6818C62.5572 23.5776 63.3489 23.5047 64.1093 23.437C65.2291 23.3433 66.9062 23.1922 67.1457 22.9318C67.177 22.4526 65.9791 20.8381 63.3905 19.2026C60.8957 17.6193 58.1353 17.4006 58.1093 17.4006C57.8853 17.3797 57.7812 17.2547 57.7968 17.0256C57.8124 16.7964 57.9322 16.687 58.1614 16.7026C60.1666 16.911 62.0364 17.5464 63.7603 18.6089C66.2707 20.1974 67.9843 22.0724 67.828 23.062C67.7134 23.7964 66.5572 23.9266 64.1718 24.1401C63.4166 24.2026 62.6353 24.2756 61.8853 24.3745C59.703 24.6766 54.4947 26.3172 54.4426 26.3328C54.4062 26.3433 54.3749 26.3485 54.3385 26.3485Z" fill="#560F1B"/>
</g>
<path d="M53.8494 8.33348C53.714 8.33348 53.6099 8.27098 53.5422 8.14598C53.4797 8.02619 53.4849 7.9064 53.5578 7.78661C54.2401 6.80744 55.0422 5.93765 55.9588 5.18244C56.8234 4.48973 57.7453 3.89078 58.7297 3.39078C58.2036 3.36473 57.7036 3.45327 57.2192 3.6564C56.589 3.94286 56.0422 4.34911 55.5734 4.86473C55.438 5.03661 55.2765 5.05744 55.0994 4.92723C54.9224 4.79703 54.8963 4.64078 55.0161 4.45328C55.0994 4.31786 55.1672 4.17723 55.2088 4.02619C54.8859 4.06265 54.4015 4.53661 54.1619 4.85953C54.0682 4.98973 53.9432 5.0314 53.7922 4.98973C53.6359 4.94286 53.5526 4.8439 53.5369 4.68244C53.5317 4.60432 53.5005 4.5314 53.4432 4.4689C53.4328 4.45848 53.3547 4.45848 53.2036 4.54703C52.7297 4.82307 52.188 5.94807 51.9588 6.58869C51.8755 6.80223 51.7297 6.86994 51.5161 6.79182C51.3026 6.71369 51.2349 6.56786 51.3026 6.35432C51.3755 6.1564 52.0109 4.42723 52.8599 3.93765C53.2869 3.69286 53.5838 3.75015 53.7661 3.8439C53.8442 3.88557 53.9172 3.94286 53.9797 4.01057C54.2974 3.68765 54.7869 3.30744 55.2817 3.32307C55.5317 3.31265 55.7192 3.41682 55.8442 3.64078C55.8494 3.65119 55.8494 3.6564 55.8547 3.66161C56.1932 3.41161 56.5526 3.19286 56.9328 3.02098C57.9849 2.53661 59.5474 2.60432 59.8599 3.02098C59.9901 3.19286 59.9849 3.35953 59.839 3.52098C59.7453 3.63557 59.5838 3.72411 59.1307 3.9689C58.4797 4.31786 57.3859 4.90119 56.4015 5.72411C55.5369 6.43765 54.7869 7.25536 54.1411 8.17203C54.0734 8.2814 53.9744 8.33348 53.8494 8.33348Z" fill="#560F1B"/>
<path d="M55.1769 23.7179C54.979 23.7179 54.8696 23.619 54.8332 23.4263C54.8019 23.2336 54.8749 23.1034 55.0571 23.0357C55.7238 22.7857 56.4061 22.5929 57.104 22.4471C57.4946 22.4002 57.8853 22.4002 58.2759 22.4523C58.4738 22.4784 58.6769 22.4836 58.8749 22.4732C58.828 22.395 58.7707 22.3273 58.703 22.27C58.5363 22.1294 58.5103 21.9732 58.6353 21.7961C58.7551 21.619 58.9113 21.5825 59.0936 21.6919C59.6717 22.0409 60.3644 22.2961 60.5259 22.2127C60.5311 22.2075 60.5311 22.2023 60.5363 22.2023C60.4686 22.0409 60.3696 21.9107 60.2394 21.8065C60.0884 21.6763 60.0624 21.5304 60.1613 21.3586C60.2655 21.1867 60.4061 21.1398 60.5884 21.2127C60.9738 21.3482 61.3696 21.4627 61.7707 21.5565C62.2811 21.6502 62.7915 21.6815 63.3124 21.6346C62.453 21.2596 61.5624 20.9888 60.6405 20.8169C59.1509 20.5721 56.8124 20.6763 56.7863 20.6763C56.6926 20.6763 56.6092 20.645 56.5415 20.5825C56.4738 20.5148 56.4374 20.4367 56.4321 20.3429C56.4269 20.244 56.4582 20.1607 56.5207 20.0929C56.5832 20.02 56.6613 19.9784 56.7551 19.9732C56.854 19.9679 59.1926 19.8638 60.7551 20.1242C61.578 20.2752 62.3801 20.5096 63.1561 20.8169C64.5363 21.3534 64.5519 21.5721 64.5676 21.744C64.5728 21.8846 64.5259 21.994 64.4217 22.0825C64.0676 22.3794 62.3957 22.4315 61.604 22.2388C61.4634 22.2023 61.3384 22.1659 61.2186 22.1398C61.2238 22.1659 61.2238 22.1919 61.2238 22.2232C61.2238 22.4471 61.1301 22.6294 60.953 22.7648C60.6144 23.0357 60.0467 22.9159 59.5467 22.7075C59.5259 22.77 59.4999 22.8273 59.4686 22.8794C59.2342 23.244 58.7603 23.2023 58.2134 23.1502C57.8801 23.1086 57.5467 23.1034 57.2134 23.1398C56.5624 23.2752 55.9217 23.4627 55.2967 23.6971C55.2551 23.7075 55.2186 23.7179 55.1769 23.7179Z" fill="#560F1B"/>
<path d="M38.2181 3.10938C40.1452 2.37501 40.2858 5.32292 40.2858 5.32292C40.2858 5.32292 42.7493 3.09376 43.8118 3.93751C44.8796 4.78126 43.916 6.5573 43.916 6.5573C43.916 6.5573 47.8535 4.34896 50.6348 6.34376C53.4212 8.33855 52.4785 10.7188 51.4941 11.8542C50.5046 12.9896 47.8952 13.5313 47.8952 13.5313L48.2233 14.8385C48.2233 14.8385 52.4056 13.0677 54.8223 16.6563C56.5775 19.2708 55.5046 22.1458 53.7077 23.526C51.9108 24.9063 48.8848 25.0104 48.8848 25.0104C48.8848 25.0104 47.2285 27.401 41.8014 27.75H56.2858C57.4785 26.4323 56.0046 23.9063 57.0098 21.349C58.7702 16.8906 57.6868 14.4063 57.6868 14.4063C57.6868 14.4063 58.39 14.599 58.9889 14.3229C59.3848 14.125 59.6764 13.8229 59.8691 13.4167C59.8691 13.4167 59.3223 13.2552 58.4368 12.5365C57.5514 11.8125 56.9941 10.2604 55.1087 8.51042C53.2233 6.76042 49.8066 4.52084 46.5306 3.3698C43.2546 2.21355 42.1712 1.72917 42.1712 1.72917C39.4108 -0.619785 36.2493 2.7448 34.9316 5.78646C34.9316 5.78646 36.291 3.84896 38.2181 3.10938Z" fill="#595959"/>
<path d="M45.4743 13.9061C45.5368 14.1561 45.5732 14.4009 45.5785 14.6457C45.5837 14.8853 45.5628 15.1092 45.516 15.3071C45.4639 15.5103 45.3857 15.6717 45.2868 15.8019C45.1878 15.9269 45.068 16.0103 44.9326 16.0415C44.8024 16.078 44.6566 16.0623 44.5107 15.9998C44.3597 15.9373 44.2191 15.8332 44.0785 15.6821C43.9378 15.5311 43.8128 15.3436 43.7035 15.13C43.5941 14.9113 43.5107 14.6821 43.4482 14.4321C43.3805 14.1821 43.3493 13.9373 43.3441 13.6925C43.3337 13.453 43.3597 13.229 43.4066 13.0311C43.4587 12.828 43.5316 12.6665 43.6357 12.5363C43.7347 12.4113 43.8545 12.328 43.9847 12.2967C44.1201 12.2603 44.2607 12.2759 44.4118 12.3384C44.5576 12.4009 44.7035 12.505 44.8441 12.6561C44.9847 12.8071 45.1097 12.9946 45.2191 13.2082C45.3285 13.4269 45.4118 13.6561 45.4743 13.9061Z" fill="#595959"/>
<path d="M44.7861 16.4159C44.4579 16.4159 44.1246 16.2441 43.8225 15.9211C43.4684 15.5149 43.234 15.0461 43.109 14.5201C42.7913 13.2545 43.1298 12.1555 43.9007 11.9576C44.3017 11.8534 44.7236 12.0149 45.0934 12.4159C45.8225 13.2857 46.0725 14.2805 45.8486 15.3951C45.7132 15.9263 45.4163 16.2805 45.0204 16.3847C44.9423 16.4055 44.8642 16.4159 44.7861 16.4159ZM44.1298 12.6243C44.109 12.6243 44.0934 12.6295 44.0725 12.6347C43.76 12.7128 43.5621 13.4784 43.7809 14.343C43.8746 14.7545 44.0569 15.1191 44.3329 15.442C44.5152 15.6399 44.7079 15.7388 44.8486 15.7024C44.9892 15.6659 45.109 15.4888 45.1767 15.2232C45.3382 14.3534 45.1454 13.5774 44.5882 12.8951C44.4736 12.7441 44.3173 12.6555 44.1298 12.6243Z" fill="#560F1B"/>
<path d="M41.8896 15.3486C41.749 15.3486 41.65 15.2914 41.5823 15.1664C41.5198 15.0466 41.525 14.9268 41.598 14.807C41.8063 14.4736 42.0927 14.2393 42.4573 14.1091C42.8271 13.9736 43.1969 13.9736 43.5667 14.1039C43.6552 14.1351 43.7177 14.1976 43.7594 14.2861C43.8011 14.3747 43.8011 14.4632 43.7698 14.5518C43.7386 14.6455 43.6761 14.708 43.5927 14.7497C43.5042 14.7914 43.4157 14.7966 43.3271 14.7601C43.1084 14.6872 42.8948 14.6924 42.6761 14.7705C42.4625 14.8539 42.2959 14.9945 42.1813 15.1924C42.1136 15.2966 42.0146 15.3486 41.8896 15.3486Z" fill="#560F1B"/>
<path d="M48.7284 10.7857C48.5357 10.7857 48.4264 10.6919 48.3899 10.5044L47.9941 8.48878C47.9784 8.39503 47.9941 8.30649 48.0461 8.22315C48.0982 8.14503 48.1711 8.09294 48.2649 8.07732C48.3639 8.05649 48.4472 8.07732 48.5253 8.1294C48.6086 8.18149 48.6555 8.25961 48.6764 8.35336L49.067 10.3638C49.0878 10.4627 49.067 10.5513 49.0149 10.6294C48.9628 10.7075 48.8899 10.7596 48.7961 10.7804C48.7701 10.7804 48.7493 10.7857 48.7284 10.7857Z" fill="#560F1B"/>
<path d="M50.8339 20.0884C50.6412 20.0884 50.5318 19.9946 50.4954 19.8019L50.0995 17.7915C50.0839 17.6978 50.0995 17.6092 50.1516 17.5259C50.2089 17.4478 50.2818 17.4009 50.3756 17.3801C50.4693 17.3592 50.5527 17.3801 50.636 17.4321C50.7141 17.4842 50.761 17.5623 50.7818 17.6561L51.1724 19.6665C51.1933 19.7655 51.1777 19.8488 51.1204 19.9321C51.0683 20.0103 50.9954 20.0623 50.9016 20.078C50.8808 20.0832 50.8547 20.0884 50.8339 20.0884Z" fill="#560F1B"/>
<path d="M33.3432 11.6662C33.3432 11.6662 39.5203 9.2547 42.0411 14.8016C44.5567 20.3484 35.9005 24.5724 35.9005 24.5724C35.9005 24.5724 34.114 20.8641 33.5411 16.9682C32.9682 13.0672 33.3432 11.6662 33.3432 11.6662Z" fill="#D9667B"/>
<path d="M35.9012 24.922C35.7189 24.922 35.6043 24.8335 35.5626 24.6512C35.521 24.4689 35.5835 24.3387 35.7501 24.2553C35.8335 24.2189 44.0731 20.1199 41.7241 14.9481C40.7449 12.7814 39.0678 11.6251 36.7501 11.5053C35.6251 11.4585 34.5314 11.6199 33.4689 11.9949C33.3803 12.0262 33.2918 12.0262 33.2033 11.9845C33.1147 11.9481 33.0522 11.8803 33.021 11.7918C32.9845 11.7033 32.9897 11.6095 33.0262 11.521C33.0626 11.4376 33.1303 11.3751 33.2189 11.3387C33.2814 11.3126 39.7293 8.87514 42.3543 14.6564C43.4533 17.0731 42.6928 19.6199 40.1512 22.0262C38.9116 23.1668 37.547 24.1251 36.0522 24.8908C36.0053 24.9116 35.9533 24.922 35.9012 24.922Z" fill="#560F1B"/>
<mask id="mask3_292_113725" style="mask-type:luminance" maskUnits="userSpaceOnUse" x="32" y="0" width="29" height="29">
<path d="M32.666 0.00976562H60.666V28.1035H32.666V0.00976562Z" fill="white"/>
</mask>
<g mask="url(#mask3_292_113725)">
<path d="M56.0507 28.0979H36.3736C35.9569 28.0875 35.6236 27.9104 35.384 27.5667C35.0715 27.0979 35.0923 26.4 35.4569 25.499C35.6653 24.9885 35.5923 24.7437 35.5871 24.7229C35.5819 24.7177 35.5819 24.7177 35.5819 24.7125C31.233 14.7333 33.2017 9.4052 34.3788 6.22812L34.3996 6.17082C35.0038 4.53541 36.1184 2.87916 37.3007 1.85312C38.0038 1.24374 38.7434 0.837491 39.4517 0.676033C40.134 0.514574 40.7955 0.571867 41.4361 0.853116C41.7642 0.998951 42.0715 1.19166 42.3476 1.42603C43.9621 2.07707 45.0819 2.47812 45.983 2.80103C47.5299 3.35312 48.5507 3.7177 50.483 4.80624C52.3319 5.8427 54.1028 7.09791 55.3423 8.24895C56.2069 9.07187 56.9673 9.97812 57.6184 10.9781C57.7851 11.2125 57.9361 11.4364 58.0819 11.6344C58.5871 12.2906 59.2173 12.775 59.9778 13.0823C59.9986 13.0927 60.0194 13.0979 60.0403 13.1083C60.1236 13.1604 60.1757 13.2281 60.2017 13.3219C60.2278 13.4208 60.2173 13.5094 60.1653 13.5927C59.9413 14.0614 59.5976 14.4104 59.134 14.6396C58.8267 14.775 58.509 14.8323 58.1757 14.8219C58.259 15.1917 58.3111 15.5667 58.3423 15.9469C58.4569 17.5979 58.108 19.5094 57.3319 21.4781C56.8684 22.6604 56.9673 23.8635 57.0611 24.9312C57.1496 25.9833 57.233 26.9781 56.733 27.7385C56.5715 27.9781 56.3423 28.0979 56.0507 28.0979ZM36.2121 24.426C36.2746 24.551 36.4153 24.9781 36.0976 25.7646C35.8371 26.4156 35.7851 26.9104 35.9517 27.1708C36.0611 27.3114 36.2017 27.3896 36.3788 27.3948H56.0507C56.0923 27.3948 56.1288 27.3792 56.1548 27.3479C56.5194 26.7906 56.4517 25.9573 56.3684 24.9885C56.2746 23.8479 56.1653 22.551 56.6913 21.2177C57.4257 19.3479 57.759 17.5406 57.6496 15.999C57.6184 15.5094 57.5299 15.0302 57.3788 14.5667C57.3267 14.4312 57.3476 14.301 57.4413 14.1917C57.5351 14.0771 57.6549 14.0406 57.8007 14.0719C58.1549 14.1552 58.5038 14.1344 58.8476 14.0042C59.0559 13.9052 59.2278 13.7594 59.3632 13.5771C58.6392 13.2125 58.0298 12.7073 57.5351 12.0562C57.3788 11.8531 57.2173 11.624 57.0507 11.3792C56.4257 10.426 55.7017 9.55103 54.8736 8.76978C53.6705 7.64999 51.9465 6.43124 50.1496 5.42082C48.2642 4.35832 47.3163 4.02499 45.7538 3.46249C44.8371 3.13437 43.6965 2.72812 42.0403 2.05624C42.0038 2.04062 41.9726 2.01978 41.9465 1.99895C41.7069 1.79062 41.4465 1.62395 41.1601 1.49895C40.6601 1.2802 40.1392 1.23332 39.6028 1.35832C39.009 1.49374 38.3684 1.84791 37.7538 2.37916C36.6496 3.33749 35.6132 4.88437 35.0507 6.42082L35.0298 6.47291C33.8892 9.55103 31.983 14.7073 36.2121 24.426Z" fill="#560F1B"/>
</g>
<mask id="mask4_292_113725" style="mask-type:luminance" maskUnits="userSpaceOnUse" x="32" y="20" width="22" height="9">
<path d="M32.666 20.0098H53.9993V28.1035H32.666V20.0098Z" fill="white"/>
</mask>
<g mask="url(#mask4_292_113725)">
<path d="M34.785 20.6348C34.785 20.6348 36.2381 21.3275 36.9465 22.2806C37.6496 23.2285 37.6756 24.5254 38.4933 25.5306C39.3058 26.541 45.0298 26.4264 47.8215 26.8535C50.6183 27.2858 50.4517 27.6035 50.9725 27.7493C51.4881 27.89 53.9829 28.0931 53.9829 28.0931H33.0662C33.0662 28.0931 32.9048 27.7494 33.5142 27.765C34.1235 27.7754 34.384 27.1712 35.1287 27.0983C35.8735 27.0306 35.9933 25.8379 35.9517 25.2806C35.91 24.7181 34.785 20.6348 34.785 20.6348Z" fill="#C7DCF9"/>
</g>
</svg>
