<svg width="127" height="139" viewBox="0 0 127 139" fill="none" xmlns="http://www.w3.org/2000/svg">
<mask id="mask0_283_107516" style="mask-type:luminance" maskUnits="userSpaceOnUse" x="0" y="0" width="127" height="139">
<path d="M0 0H126.391V138.865H0V0Z" fill="white"/>
</mask>
<g mask="url(#mask0_283_107516)">
<path d="M98.9789 61.6198C111.646 86.0573 124.619 112.734 118.01 119.844C111.687 126.646 105.89 125.667 100.291 124.714C97.5726 124.26 94.7705 123.776 91.8278 124.135C87.4685 124.672 85.6039 125.792 83.7966 126.87C81.8799 128.026 80.057 129.115 75.6976 129.115C72.0414 129.115 69.0153 127.833 66.3382 126.703C62.9476 125.255 60.0049 124.01 56.583 125.667C54.4841 126.687 53.0935 127.807 51.7393 128.896C48.9372 131.161 46.5101 133.12 39.3174 132.969C31.6039 132.802 27.1195 134.51 22.7705 136.167C21.3382 136.719 19.9841 137.229 18.5362 137.672C17.031 138.141 15.031 138.448 12.9164 138.448C9.40074 138.448 5.53616 137.604 3.05179 135.286C0.734076 133.12 -0.000298397 130.068 0.91116 126.219C2.23929 120.573 6.53095 113.536 10.6716 106.734C14.9216 99.75 18.9476 93.151 18.5101 89.8802C18.2028 87.6198 16.9737 85.6198 15.6768 83.5052C13.333 79.6979 10.682 75.3906 14.0778 69.0833C14.781 67.776 16.1872 66.1198 18.0778 64.2552C16.9737 63.5521 16.1455 62.5729 15.8018 61.4375C13.6768 60.3906 6.9997 56.625 4.54137 49.7656C2.94241 45.2812 3.49449 40.3958 6.17158 35.2448C14.4789 19.25 26.8695 15.8437 34.281 13.8125C35.057 13.6093 35.7705 13.401 36.4216 13.2083C39.3747 12.3229 41.4007 9.97914 43.031 8.08851C44.4372 6.45831 45.5414 5.17706 46.8799 5.25518C47.6403 5.29685 48.3174 5.7708 48.9632 6.7083C51.0518 9.74476 51.2966 13 51.4476 14.9479C51.4893 15.4583 51.531 16.0781 51.6143 16.3125C52.0726 16.5312 53.7289 17.125 55.3278 17.6927C62.7653 20.3281 70.8278 23.3385 73.583 26.0677C75.8903 24.6198 85.6195 18.5468 95.9424 12.7396C102.854 8.84372 108.692 5.82289 113.276 3.7656C119.208 1.08851 123.021 0.0572625 124.911 0.56768C125.75 0.802055 126.099 1.35414 126.234 1.78122C127.239 4.92706 120.588 13.3437 109.536 26.8281C105.312 31.9739 100.953 37.2864 97.8591 41.5677C93.5257 47.5416 93.182 49.4583 93.3487 50.0677C93.7497 51.5156 96.0518 55.9739 98.9789 61.6198Z" fill="black"/>
</g>
<path d="M108.405 25.9166C97.572 39.125 91.072 47.3645 91.9418 50.4531C92.3949 52.0677 94.6189 56.3593 97.6918 62.2812C102.4 71.3489 108.832 83.7552 113.291 94.9218C118.463 107.865 119.692 115.922 116.947 118.891C111.15 125.13 106.223 124.286 100.51 123.323C97.6918 122.839 94.7803 122.354 91.6345 122.729C86.9731 123.292 84.8897 124.547 83.0512 125.651C81.2283 126.745 79.6554 127.698 75.697 127.698C72.3272 127.698 69.5668 126.521 66.9054 125.391C63.3429 123.875 59.9626 122.437 55.9626 124.385C53.7126 125.474 52.1918 126.703 50.8429 127.792C48.1501 129.974 46.0251 131.682 39.3481 131.547C31.3533 131.365 26.5251 133.214 22.2595 134.844C20.8533 135.38 19.5303 135.891 18.1189 136.323C14.5199 137.427 7.5616 137.536 4.04597 134.25C2.1241 132.458 1.54597 129.865 2.31681 126.562C3.60327 121.141 7.82722 114.198 11.9106 107.49C16.4939 99.9687 20.4522 93.4843 19.9418 89.7187C19.5981 87.151 18.2335 84.927 16.9053 82.7864C14.5616 78.9791 12.3376 75.3802 15.3481 69.802C15.9939 68.6041 17.4158 66.9479 19.4574 64.9583C21.6137 62.875 24.4835 60.4062 27.8897 57.6979C28.6918 57.0625 29.5199 56.4166 30.3741 55.7656C33.2439 53.5573 36.4314 51.2291 39.8585 48.8281C40.7126 48.2187 41.5824 47.625 42.4783 47.0156C56.197 37.6041 68.2022 30.8854 71.6814 30.6927C71.7074 30.6927 71.7335 30.6927 71.7647 30.6927C71.8897 30.6927 71.9418 30.7083 71.9418 30.7083C72.0512 30.9114 72.3012 32.2656 67.072 39.802C63.6345 44.7395 58.8897 50.8802 54.2908 56.8177C44.9366 68.9062 39.2074 76.4427 39.3064 78.802L40.7283 78.7448C40.6449 76.7864 48.4835 66.6406 55.4106 57.6979C68.4939 40.7916 74.5095 32.5573 73.197 30.0573C73.0304 29.7395 72.6189 29.2291 71.5981 29.2864C67.2491 29.5312 53.4366 37.7864 41.6762 45.8593C40.7283 46.5052 39.7751 47.1718 38.8064 47.8437C37.6345 46.9895 36.0876 46.4791 34.3793 46.4791C30.7595 46.4791 27.822 48.8125 27.822 51.6666C27.822 52.8854 28.3481 54 29.2283 54.8854C28.4418 55.4895 27.6866 56.0833 26.9262 56.677C25.7387 55.6823 24.0408 55.0625 22.1762 55.0625C18.7543 55.0625 15.9418 57.1458 15.6501 59.7968C13.1397 58.401 7.89493 54.9375 5.89493 49.3385C4.43139 45.25 4.95743 40.75 7.4366 35.9635C15.4574 20.4635 27.4783 17.1562 34.6553 15.1823C35.4262 14.9739 36.1553 14.7656 36.822 14.5729C40.1762 13.5677 42.4366 10.9427 44.0928 9.026C45.1397 7.81246 46.1345 6.651 46.7856 6.69267C47.1449 6.70829 47.5147 7.16142 47.7647 7.5208C49.6293 10.2395 49.8481 13.1354 49.9991 15.0573C50.0981 16.2135 50.1501 16.9166 50.5512 17.3333C50.8272 17.6093 51.5043 17.8698 54.8168 19.0312C60.3637 20.9895 70.7022 24.6614 72.8533 27.4218L73.2543 27.9323L73.8064 27.5885C85.921 19.9114 118.645 0.333295 124.51 1.93225C124.754 1.99996 124.812 2.10934 124.838 2.20829C125.03 2.82809 124.718 4.776 120.286 10.8906C117.14 15.2656 112.697 20.6718 108.405 25.9166Z" fill="white"/>
</svg>
