<svg width="143" height="195" viewBox="0 0 143 195" fill="none" xmlns="http://www.w3.org/2000/svg">
<path d="M65.7812 107.745L65.1666 107.891C53.5052 110.859 44.7656 115.646 38.9531 122.255C36.5364 125.229 34.6718 129.432 33.3645 134.859C31.9114 140.912 31.4635 146.193 32.0208 150.703C33.2083 158.542 36.9427 163.563 43.2239 165.766C46.9427 166.865 50.9427 167.287 55.2187 167.037C59.927 167.052 65.7864 166.297 72.7968 164.787C84.5677 161.729 94.2447 157.271 101.823 151.417C107.083 147.047 109.141 141.453 107.995 134.641C108.005 134.026 107.568 132.261 106.687 129.344C105.865 127.026 104.807 124.854 103.521 122.828C101.526 119.349 98.0416 115.88 93.0677 112.422C85.0937 107.625 76 106.063 65.7812 107.745Z" fill="black"/>
<mask id="mask0_283_107514" style="mask-type:luminance" maskUnits="userSpaceOnUse" x="62" y="0" width="8" height="131">
<path d="M62.5566 0H69.2233V130.766H62.5566V0Z" fill="white"/>
</mask>
<g mask="url(#mask0_283_107514)">
<path d="M66.2231 1.65628L68.9158 128C68.9366 128.911 68.2127 129.667 67.3064 129.688C66.395 129.703 65.6398 128.984 65.6189 128.073L62.9262 1.72399C62.9054 0.812531 63.6293 0.0625317 64.5356 0.0416984C65.4471 0.020865 66.2023 0.744823 66.2231 1.65628Z" fill="black"/>
</g>
<path d="M104.625 145.849L103.031 144.198L117.526 144.651C118.125 144.667 118.661 145.005 118.938 145.537L126.807 160.703C127.224 161.51 126.911 162.505 126.099 162.927C125.292 163.344 124.297 163.031 123.875 162.219L116.01 147.057L117.422 147.943L102.927 147.495C102.036 147.469 101.328 146.74 101.328 145.849C101.328 144.938 102.068 144.198 102.979 144.198C103.891 144.198 104.625 144.938 104.625 145.849Z" fill="black"/>
<mask id="mask1_283_107514" style="mask-type:luminance" maskUnits="userSpaceOnUse" x="101" y="126" width="42" height="16">
<path d="M101.225 126.766H142.469V141.432H101.225V126.766Z" fill="white"/>
</mask>
<g mask="url(#mask1_283_107514)">
<path d="M105.735 137.682L103.459 136.307L124.277 127.625C124.772 127.417 125.339 127.464 125.792 127.75L141.475 137.63C142.245 138.115 142.475 139.13 141.99 139.901C141.501 140.672 140.485 140.906 139.714 140.417L124.032 130.542L125.548 130.667L104.73 139.354C104.245 139.552 103.693 139.516 103.24 139.24C102.792 138.969 102.501 138.5 102.449 137.979C102.37 137.073 103.037 136.271 103.943 136.187C104.855 136.104 105.657 136.776 105.735 137.682Z" fill="black"/>
</g>
<path d="M101.974 130.859V130.864L99.3436 129.693L118.437 115.396C118.792 115.135 119.234 115.021 119.672 115.088L139.807 118.161C140.708 118.302 141.328 119.141 141.187 120.042C141.052 120.943 140.208 121.562 139.307 121.422L119.177 118.349L120.411 118.036L101.323 132.328C100.844 132.687 100.208 132.76 99.6613 132.516C99.1145 132.271 98.7447 131.755 98.6926 131.156C98.6092 130.25 99.2759 129.448 100.187 129.37C101.094 129.286 101.896 129.953 101.974 130.859Z" fill="black"/>
<path d="M96.0056 118.885L93.1306 117.937L105.292 104.271C105.605 103.917 106.063 103.713 106.537 103.719L129.495 103.917C130.407 103.927 131.141 104.672 131.131 105.583C131.125 106.495 130.381 107.224 129.469 107.219L106.511 107.015L107.756 106.463L95.5941 120.13C95.1566 120.62 94.4691 120.807 93.8493 120.599C93.2243 120.396 92.7816 119.838 92.7191 119.182C92.641 118.276 93.3077 117.474 94.2139 117.39C95.1202 117.312 95.9222 117.979 96.0056 118.885Z" fill="black"/>
<path d="M49.3801 164.083C49.2812 164.25 49.1562 164.401 49.0051 164.531L32.2707 178.661L32.8437 177.234L34.4687 192.854C34.5624 193.76 33.9009 194.573 32.9947 194.667C32.0884 194.76 31.2812 194.104 31.1874 193.198L29.5624 177.573C29.5103 177.031 29.7239 176.495 30.1405 176.141L46.8801 162.01L46.5103 162.458C46.9582 161.667 47.9634 161.385 48.7551 161.833C49.552 162.286 49.828 163.292 49.3801 164.083Z" fill="black"/>
<path d="M43.4215 161.859C43.1871 162.271 42.7965 162.557 42.3382 162.656L17.7548 168.052L18.8486 167.234L10.8694 181.776C10.4319 182.573 9.42669 182.865 8.62982 182.427C7.83294 181.99 7.54127 180.984 7.97877 180.188L15.9527 165.651C16.1819 165.234 16.5829 164.932 17.0465 164.833L41.6298 159.438L40.5517 160.234C40.9996 159.443 42.0048 159.167 42.7965 159.615C43.5882 160.063 43.8694 161.068 43.4215 161.859Z" fill="black"/>
<mask id="mask2_283_107514" style="mask-type:luminance" maskUnits="userSpaceOnUse" x="0" y="149" width="40" height="17">
<path d="M0 149.432H39.8906V165.432H0V149.432Z" fill="white"/>
</mask>
<g mask="url(#mask2_283_107514)">
<path d="M39.6718 156.469C39.3228 157.073 38.6353 157.401 37.9478 157.276L17.2863 153.594L18.5624 153.292L2.85405 165.016C2.12488 165.557 1.08843 165.406 0.54676 164.677C-0.000116494 163.948 0.150925 162.917 0.880093 162.37L16.5884 150.651C16.953 150.38 17.4166 150.271 17.8645 150.349L38.5259 154.031L36.802 154.839C37.2499 154.047 38.2551 153.771 39.0468 154.219C39.8436 154.672 40.1197 155.677 39.6718 156.469Z" fill="black"/>
</g>
<path d="M38.1821 141.135C37.703 141.74 36.8644 141.922 36.1717 141.589L22.4217 134.875L24.0936 134.74L4.72379 148.359C3.97899 148.885 2.94774 148.703 2.4217 147.958C1.90087 147.214 2.07795 146.187 2.82274 145.661L22.1977 132.042C22.6873 131.698 23.328 131.646 23.8696 131.911L37.6196 138.625L35.6092 139.073C36.1769 138.365 37.2186 138.25 37.9269 138.818C38.6405 139.385 38.755 140.427 38.1821 141.135Z" fill="black"/>
<path d="M63.7654 139.01L63.5362 138.838C60.3956 136.38 56.8279 135.219 52.8227 135.364C50.6612 135.479 48.5727 135.927 46.5623 136.713C44.6977 137.521 43.6925 138.031 43.5467 138.245C42.9946 138.651 42.4946 139.13 42.0467 139.677C41.5987 140.224 41.2029 140.818 40.8592 141.463C40.6196 141.755 40.2237 142.786 39.6769 144.557C39.2915 145.797 39.1821 147.437 39.3435 149.484C39.9737 153.068 41.9112 156.187 45.156 158.844C47.781 160.713 51.3175 161.588 55.755 161.479C57.7967 161.385 59.7081 160.969 61.4842 160.229C62.0675 159.979 62.6248 159.687 63.1508 159.359L63.9112 158.833C64.4008 158.463 64.8487 158.052 65.2602 157.599C65.7342 157.078 66.1925 156.51 66.6352 155.901L67.2758 154.958C67.6873 154.312 68.0623 153.646 68.3956 152.953C69.1196 151.193 69.479 150.135 69.4633 149.766C69.5987 149.047 69.6508 148.338 69.6092 147.641C69.4529 144.963 67.505 142.083 63.7654 139.01Z" fill="white"/>
<path d="M78.4788 129.203L78.708 129.036C81.8486 126.573 85.4163 125.416 89.4216 125.562C91.583 125.672 93.6716 126.125 95.682 126.911C97.5466 127.713 98.5518 128.224 98.7028 128.443C99.2497 128.849 99.7497 129.323 100.198 129.87C100.651 130.416 101.047 131.015 101.385 131.661C101.625 131.948 102.021 132.979 102.567 134.75C102.953 135.995 103.062 137.635 102.901 139.682C102.271 143.265 100.338 146.385 97.0882 149.041C94.4632 150.906 90.932 151.786 86.4945 151.677C84.4476 151.583 82.5361 151.166 80.7601 150.422C80.1768 150.172 79.6195 149.885 79.0986 149.557L78.3382 149.031C77.8434 148.661 77.3955 148.25 76.9841 147.797C76.5101 147.271 76.057 146.708 75.6091 146.094L74.9684 145.156C74.557 144.51 74.182 143.844 73.8486 143.146C73.1247 141.39 72.7653 140.328 72.7809 139.963C72.6455 139.245 72.5934 138.536 72.6351 137.838C72.7913 135.161 74.7393 132.281 78.4788 129.203Z" fill="white"/>
<path d="M62.0322 147.734L62.0843 148.537C62.0478 150.167 61.4801 151.542 60.3863 152.667C59.277 153.792 57.8759 154.375 56.178 154.417C54.5478 154.38 53.1676 153.813 52.0426 152.719C51.6832 152.359 51.3707 151.964 51.1103 151.521L50.7613 150.839C50.5582 150.359 50.4176 149.849 50.3447 149.313C50.1624 147.651 50.5478 146.198 51.5009 144.948C52.4488 143.703 53.7509 142.948 55.402 142.682C57.0634 142.5 58.5166 142.885 59.7613 143.833C61.0113 144.787 61.7666 146.083 62.0322 147.734Z" fill="black"/>
<path d="M90.0478 139.297L90.0999 140.094C90.0634 141.724 89.4957 143.104 88.402 144.224C87.2926 145.349 85.8916 145.932 84.1936 145.979C82.5634 145.943 81.1832 145.375 80.0582 144.276C79.6988 143.922 79.3863 143.526 79.1259 143.083L78.777 142.396C78.5738 141.917 78.4332 141.411 78.3603 140.87C78.178 139.208 78.5634 137.755 79.5166 136.51C80.4645 135.26 81.7666 134.505 83.4176 134.239C85.0791 134.057 86.5322 134.443 87.777 135.396C89.027 136.344 89.7822 137.646 90.0478 139.297Z" fill="black"/>
</svg>
