<svg width="116" height="136" viewBox="0 0 116 136" fill="none" xmlns="http://www.w3.org/2000/svg">
<mask id="mask0_283_107515" style="mask-type:luminance" maskUnits="userSpaceOnUse" x="1" y="0" width="116" height="135">
<path d="M1.33398 0H116.001V134.609H1.33398V0Z" fill="white"/>
</mask>
<g mask="url(#mask0_283_107515)">
<path d="M115.204 70.9531C115.048 73.9114 114.615 76.8333 113.902 79.7083C110.881 91.7604 99.782 85.7916 94.1726 96.75C91.2091 102.547 88.1466 108.323 84.7143 113.859C82.756 117.016 80.2976 121.911 76.7872 123.651C69.5112 127.26 68.0112 124.943 62.8341 121.078C57.657 117.208 57.657 132.667 50.9591 132.922C44.2612 133.177 42.7143 124.417 38.4643 127.51C34.2091 130.599 20.5528 138.849 17.7195 131.635C14.8862 124.422 19.2664 112.307 13.3393 112.052C10.4591 111.927 6.58929 112.349 4.0945 110.578C0.729916 108.193 1.99033 103.427 2.97471 100.099C6.89658 86.8541 11.9174 73.5625 14.0424 59.8802C16.1101 46.552 17.3341 32.6718 24.5685 20.9166C32.1153 8.64058 45.6726 2.33329 60.2872 0.927043C61.5789 0.807252 62.8705 0.744751 64.157 0.744751C83.2664 0.744751 98.3601 11.7864 105.792 28.6354C109.287 36.5312 115.683 62.1823 115.204 70.9531Z" fill="white"/>
</g>
<mask id="mask1_283_107515" style="mask-type:luminance" maskUnits="userSpaceOnUse" x="0" y="0" width="116" height="136">
<path d="M0 0H116V135.943H0V0Z" fill="white"/>
</mask>
<g mask="url(#mask1_283_107515)">
<path d="M22.4064 135.208C21.7137 135.219 21.0314 135.13 20.3648 134.943C18.7971 134.484 17.6877 133.458 17.0731 131.891C15.8491 128.776 15.9116 124.828 15.9689 121.344C16.0575 116.089 15.9689 112.865 13.3075 112.75C12.745 112.724 12.1356 112.719 11.495 112.719C8.85436 112.703 5.86477 112.693 3.6929 111.151C-0.197728 108.385 1.43248 102.87 2.30748 99.9063C3.34915 96.3959 4.47936 92.8281 5.57831 89.375C8.63561 79.7448 11.7971 69.7917 13.3544 59.7761C13.62 58.0729 13.8752 56.3229 14.12 54.6354C15.8283 42.9792 17.5939 30.9219 23.9741 20.5521C27.6564 14.5677 32.8648 9.75002 39.4533 6.2344C45.521 2.99481 52.5054 0.979188 60.2189 0.239604C61.521 0.114604 62.8491 0.0468952 64.1616 0.0468952C68.8387 0.0312699 73.4169 0.708354 77.8908 2.06773C82.1356 3.37502 86.0887 5.28127 89.7502 7.7969C96.896 12.6979 102.662 19.8073 106.432 28.349C108.151 32.2396 110.656 40.6667 112.667 49.3073C114.938 59.0781 116.115 66.9792 115.896 70.9844C115.74 73.9896 115.297 76.9531 114.573 79.8698C112.896 86.5625 108.709 88.0573 104.651 89.5C101.052 90.7813 97.3283 92.1042 94.7919 97.0573C91.9637 102.589 88.8544 108.5 85.3023 114.219C85.0054 114.698 84.6981 115.219 84.37 115.771C82.5314 118.859 80.2502 122.708 77.0991 124.266C70.2398 127.667 68.0262 125.958 64.0106 122.844C63.5106 122.453 62.9898 122.052 62.4221 121.625C61.6148 121.026 61.1877 121.141 61.0471 121.177C59.9637 121.464 59.0002 123.682 58.0679 125.828C56.5106 129.411 54.745 133.474 50.9898 133.615C50.8856 133.615 50.7762 133.62 50.6721 133.62C47.245 133.62 45.0991 131.458 43.37 129.708C41.4637 127.781 40.4741 126.911 38.8752 128.073C36.2137 129.979 33.4012 131.62 30.4325 133.005C27.2398 134.474 24.5471 135.208 22.4064 135.208ZM64.1616 1.43752C62.8908 1.43752 61.6096 1.50002 60.3544 1.61981C44.521 3.13544 32.021 10.1198 25.1564 21.2761C18.9273 31.4063 17.1825 43.3125 15.495 54.8334C15.2502 56.5209 14.995 58.2761 14.7241 59.9844C13.1564 70.1042 9.97415 80.1146 6.90123 89.7917C5.81269 93.2396 4.67727 96.8021 3.64602 100.297C2.56269 103.943 1.65644 107.995 4.50019 110.016C6.31269 111.307 9.0679 111.318 11.5002 111.328C12.1564 111.328 12.7762 111.333 13.37 111.359C15.2658 111.443 16.4898 112.583 17.0106 114.75C17.4377 116.526 17.4012 118.88 17.3596 121.365C17.3075 124.724 17.245 128.526 18.3648 131.38C18.8231 132.542 19.6044 133.271 20.7502 133.609C25.5158 135 34.8491 129.276 38.0523 126.953C40.6877 125.036 42.5471 126.917 44.3491 128.734C46.0262 130.427 47.9273 132.344 50.9325 132.234C53.8075 132.12 55.3908 128.49 56.7814 125.281C57.9429 122.609 58.9481 120.297 60.6825 119.839C61.4898 119.625 62.3544 119.849 63.245 120.516C63.8283 120.953 64.3544 121.359 64.8596 121.75C68.7762 124.786 70.4012 126.042 76.4794 123.026C79.2606 121.651 81.4325 118 83.1721 115.068C83.5054 114.51 83.8179 113.984 84.12 113.495C87.646 107.813 90.7398 101.938 93.5575 96.4323C96.3439 90.9844 100.511 89.5 104.188 88.1927C108.235 86.7552 111.735 85.5156 113.224 79.5417C113.927 76.7084 114.354 73.8334 114.511 70.9167C114.979 62.3906 108.677 36.875 105.162 28.9167C97.5731 11.7084 82.2502 1.43752 64.1616 1.43752Z" fill="black"/>
</g>
<path d="M54.1771 51.8229C54.1771 52.4323 54.0625 53.0156 53.8333 53.5729C53.599 54.1354 53.2708 54.6302 52.8385 55.0573C52.4115 55.4896 51.9167 55.8177 51.3542 56.0521C50.7969 56.2813 50.2135 56.401 49.6042 56.401C49 56.401 48.4167 56.2813 47.8542 56.0521C47.2969 55.8177 46.8021 55.4896 46.3698 55.0573C45.9427 54.6302 45.6146 54.1354 45.3802 53.5729C45.151 53.0156 45.0312 52.4323 45.0312 51.8229C45.0312 51.2188 45.151 50.6354 45.3802 50.0729C45.6146 49.5156 45.9427 49.0208 46.3698 48.5938C46.8021 48.1615 47.2969 47.8333 47.8542 47.599C48.4167 47.3698 49 47.25 49.6042 47.25C50.2135 47.25 50.7969 47.3698 51.3542 47.599C51.9167 47.8333 52.4115 48.1615 52.8385 48.5938C53.2708 49.0208 53.599 49.5156 53.8333 50.0729C54.0625 50.6354 54.1771 51.2188 54.1771 51.8229Z" fill="black"/>
<path d="M91.9896 49.1718C91.9896 49.7812 91.875 50.3645 91.6458 50.9218C91.4115 51.4843 91.0833 51.9791 90.651 52.4062C90.224 52.8333 89.7292 53.1666 89.1667 53.3958C88.6094 53.6301 88.026 53.7447 87.4167 53.7447C86.8125 53.7447 86.2292 53.6301 85.6667 53.3958C85.1094 53.1666 84.6146 52.8333 84.1875 52.4062C83.7552 51.9791 83.4271 51.4843 83.1927 50.9218C82.9635 50.3645 82.8438 49.7812 82.8438 49.1718C82.8438 48.5676 82.9635 47.9843 83.1927 47.4218C83.4271 46.8645 83.7552 46.3697 84.1875 45.9374C84.6146 45.5103 85.1094 45.1822 85.6667 44.9478C86.2292 44.7135 86.8125 44.5989 87.4167 44.5989C88.026 44.5989 88.6094 44.7135 89.1667 44.9478C89.7292 45.1822 90.224 45.5103 90.651 45.9374C91.0833 46.3697 91.4115 46.8645 91.6458 47.4218C91.875 47.9843 91.9896 48.5676 91.9896 49.1718Z" fill="black"/>
<path d="M70.479 61.8698C69.7134 61.9167 68.9634 61.8229 68.2342 61.5938C67.505 61.3594 66.8383 61.0052 66.2394 60.5209C65.6456 60.0417 65.1561 59.4688 64.7706 58.8021C64.3904 58.1407 64.1404 57.4271 64.0259 56.6719C63.9946 56.4323 64.0519 56.2188 64.1977 56.0261C64.3383 55.8334 64.5311 55.7188 64.7706 55.6823C65.005 55.6459 65.2238 55.6979 65.4217 55.8386C65.6144 55.9792 65.7342 56.1667 65.7759 56.4011C65.8592 56.9427 66.0363 57.4479 66.3071 57.9219C66.5831 58.3907 66.9321 58.8021 67.354 59.1407C67.7811 59.4844 68.2498 59.7396 68.7706 59.9011C69.2915 60.0677 69.8227 60.1354 70.3696 60.099C70.4894 60.0938 70.6144 60.0782 70.7394 60.0573C71.3123 59.974 71.8436 59.7761 72.3384 59.4792C72.8331 59.1823 73.255 58.7969 73.5988 58.3334C73.9373 57.8646 74.1821 57.3542 74.3175 56.7917C74.4581 56.2292 74.4842 55.6667 74.3956 55.0938C74.3696 54.8542 74.4269 54.6407 74.5727 54.4479C74.7186 54.2604 74.9061 54.1459 75.1456 54.1094C75.38 54.0729 75.5988 54.125 75.7915 54.2657C75.9894 54.4063 76.1092 54.5938 76.1509 54.8282C76.2081 55.224 76.229 55.625 76.2134 56.0261C76.1925 56.4323 76.1352 56.8282 76.0415 57.2188C75.9425 57.6094 75.8071 57.9844 75.6352 58.349C75.4686 58.7136 75.2602 59.0573 75.0206 59.3802C74.7863 59.7084 74.5154 60.0052 74.2186 60.2761C73.9217 60.5469 73.5988 60.7865 73.255 60.9948C72.9113 61.2032 72.5519 61.375 72.1717 61.5157C71.7915 61.6511 71.4061 61.75 71.0102 61.8125C70.8279 61.8386 70.6509 61.8594 70.479 61.8698Z" fill="black"/>
<path d="M40.1357 86.0937C39.9691 86.0989 39.8284 86.0416 39.7086 85.9322C39.5889 85.8177 39.5264 85.6822 39.5211 85.5156C39.5159 85.3489 39.568 85.2083 39.6774 85.0885C39.792 84.9687 39.9326 84.9062 40.0941 84.901C46.0107 84.4999 51.4691 82.7031 56.4691 79.526C58.9378 77.9531 60.193 76.3749 60.318 74.6979C60.5472 71.5364 57.2868 70.7187 53.3232 70.0416C52.7555 69.9427 52.2191 69.8541 51.7399 69.7499L51.417 69.6822C47.0107 68.7343 42.4534 67.7552 38.3232 65.6874C38.1722 65.6197 38.068 65.5052 38.0107 65.3437C37.9586 65.1874 37.9639 65.0312 38.042 64.8802C38.1149 64.7343 38.2347 64.6302 38.3961 64.5781C38.5524 64.5312 38.7086 64.5416 38.8545 64.6249C42.8493 66.6197 47.3336 67.5833 51.667 68.5156L51.9951 68.5833C52.443 68.6822 52.9691 68.7708 53.5264 68.8697C56.8336 69.4322 61.8389 70.2916 61.5107 74.7864C61.3597 76.8645 59.9222 78.7395 57.1149 80.5312C51.9378 83.8177 46.2972 85.6718 40.1774 86.0885L40.1357 86.0937Z" fill="black"/>
<path d="M110.147 68.9532C109.391 71.4115 109.308 73.9427 108.282 76.3438C106.537 80.4167 103.475 84.0157 98.9017 84.7136C97.5945 84.9115 95.2559 84.6198 94.4122 85.9219C93.9955 86.5625 94.9122 86.7865 95.433 86.9219C98.683 87.7657 102.626 87.0052 105.251 84.9636C105.834 84.5105 106.37 84.0105 106.86 83.4584C108.574 81.5365 109.719 79.1875 110.725 76.8386C111.704 74.5313 112.245 71.9375 111.636 69.4532C111.553 69.1198 111.438 68.7709 111.178 68.5417C110.652 68.073 110.298 68.4532 110.147 68.9532Z" fill="#F2F2F2"/>
<path d="M7.31331 93.7396C6.26122 95.8803 5.83414 98.2865 5.38102 100.609C5.02164 102.505 4.58935 104.917 5.86539 106.578C8.1831 109.604 17.1362 109.089 16.881 105.74C16.6206 102.391 11.4696 105.417 9.92268 104C8.22997 102.448 8.20393 99.0209 8.52685 96.9219C8.67268 95.948 9.26122 94.1563 8.42268 93.349C8.24039 93.1563 8.01643 93.1042 7.76643 93.198C7.58935 93.2761 7.44352 93.4792 7.31331 93.7396Z" fill="#F2F2F2"/>
</svg>
