<svg width="186" height="169" viewBox="0 0 186 169" fill="none" xmlns="http://www.w3.org/2000/svg">
<path d="M184.9 72.326C183.852 75.8324 182.817 79.3293 181.014 82.5604C180.681 83.1617 180.688 83.9591 180.548 84.668C180.52 84.8136 180.564 84.9655 180.586 85.1111C180.884 87.7124 180.504 90.0289 177.713 91.3897C180.295 94.2663 179.444 97.0638 177.684 99.6999C176.447 101.554 175.865 103.422 175.792 105.691C175.662 109.934 175.159 114.165 174.716 118.396C174.419 121.222 173.574 123.814 171.849 126.219C162.918 138.707 153.361 150.66 142.576 161.612C141.105 163.106 139.551 164.518 137.927 165.837C136.022 167.372 133.861 168.271 131.294 168.084C126.291 167.714 121.266 167.552 116.269 167.106C109.933 166.533 103.582 165.923 97.2906 165.027C87.6606 163.641 78.0465 162.144 68.4736 160.426C55.7329 158.138 43.0902 155.346 30.5963 151.945C27.207 151.024 23.881 149.865 20.5202 148.837C18.8556 148.327 17.5961 147.35 16.8493 145.77C15.0581 141.998 13.1087 138.289 11.5454 134.419C10.384 131.536 8.95672 129.356 5.57375 128.973C4.57056 128.856 3.61169 128.264 2.6718 127.814C-0.22066 126.444 -0.897887 123.786 1.29835 121.52C3.73511 118.998 6.32376 116.599 9.01368 114.355C23.0013 102.678 37.8306 92.203 53.717 83.2281C54.7582 82.6395 55.8183 82.0889 56.8721 81.5161C56.9259 81.4876 56.9544 81.4085 57.0683 81.2502C56.3721 80.5255 55.6506 79.785 54.9385 79.0413C43.6883 67.1899 33.5901 54.4112 24.1785 41.0818C20.8209 36.3159 17.9822 31.2082 15.9094 25.7303C14.9442 23.1828 15.9537 21.1606 18.5075 20.2175C18.7892 20.1162 19.0677 19.9517 19.3493 19.9232C20.8715 19.7998 21.6721 18.8567 22.3842 17.6099C24.6753 13.6066 27.745 10.23 31.321 7.35336C32.4413 6.45461 33.8812 5.78055 35.2863 5.44193C43.0839 3.56532 51.0397 2.68872 59.0114 1.78997C74.9199 0.00196243 90.8696 -0.232219 106.835 0.166522C120.994 0.524123 135.105 1.66655 149.013 4.57166C149.674 4.71091 150.32 4.90395 150.985 5.02104C153.222 5.40396 154.931 6.57803 156.453 8.25211C161.266 13.5338 165.298 19.3726 168.839 25.5277C174.991 36.2273 180.286 47.3193 184.441 58.9587C186.048 63.4809 186.245 67.8133 184.9 72.326Z" fill="black"/>
<path d="M61.5778 80.9972C62.2835 82.1681 63.1126 81.8421 63.7898 81.8516C70.6855 81.9244 77.5876 81.7852 84.4769 82.0605C94.7303 82.4751 104.987 83.0447 115.221 83.7852C123.585 84.3865 131.949 85.1745 140.275 86.1682C149.272 87.241 158.228 88.6302 167.194 89.9056C169.421 90.2252 171.63 90.6239 173.842 90.991C176.608 91.4562 178.105 93.9056 177.137 96.5703C176.71 97.7506 176.111 98.9026 175.399 99.9374C173.355 102.887 171.384 105.9 169.08 108.64C161.361 117.779 153.491 126.792 145.709 135.891C143.136 138.903 140.582 141.948 138.19 145.096C136.627 147.153 134.639 148.03 132.19 147.945C128.965 147.827 125.753 147.669 122.538 147.394C114.55 146.714 106.556 146.106 98.5943 145.191C89.4422 144.15 80.2775 143.112 71.2172 141.527C57.5144 139.137 43.8465 136.463 30.2449 133.552C22.2828 131.849 14.4693 129.457 6.59896 127.343C5.52299 127.052 4.485 126.596 3.47232 126.125C1.32038 125.125 1.13051 124.178 2.77294 122.409C3.79194 121.314 4.86158 120.257 5.99768 119.289C21.8967 105.669 38.8495 93.5512 57.2359 83.4593C57.9575 83.0605 58.7075 82.7061 59.391 82.2567C60.3721 81.6111 60.429 80.8801 59.3974 80.4307C57.8056 79.7282 56.7992 78.4465 55.6948 77.244C45.2136 65.9273 35.6216 53.8828 26.748 41.2781C23.7512 37.0186 21.3366 32.3444 18.7036 27.8317C18.1783 26.9329 17.7795 25.9551 17.4219 24.9709C16.8333 23.3569 17.27 22.436 18.9061 21.8189C19.6688 21.5309 20.479 21.3284 21.2859 21.167C29.9633 19.4455 38.6976 18.1828 47.5206 17.4897C52.6757 17.0815 57.8277 16.6701 62.9829 16.2492C64.831 16.0973 64.9386 15.9675 64.9829 14.0625C65.062 10.6637 65.062 10.6637 68.445 10.3535C70.8311 10.1352 73.2172 9.88833 75.6097 9.71427C77.0274 9.61301 78.4547 9.62883 79.8787 9.59085C82.8693 9.50541 85.1447 10.651 86.3092 13.496C87.0561 15.3441 88.2934 15.7998 90.2871 15.8789C100.018 16.2714 109.75 16.7555 119.468 17.4739C127.234 18.0467 134.968 18.9961 142.722 19.7777C143.165 19.822 143.614 19.9012 144.057 19.936C146.633 20.1607 148.532 21.3917 149.848 23.6228C154.022 30.6925 158.374 37.6768 162.396 44.8352C167.485 53.8891 172.016 63.2405 175.456 73.0572C176.738 76.706 177.596 80.5035 178.593 84.2472C178.805 85.0321 178.855 85.877 178.839 86.6903C178.773 89.2916 177.102 90.5069 174.542 90.0733C167.456 88.8771 160.38 87.6239 153.26 86.6524C144.655 85.4878 136.022 84.4656 127.38 83.6112C119.031 82.7915 110.661 82.2282 102.287 81.6175C89.6384 80.6902 76.9768 80.6269 64.3057 80.7852C63.4544 80.7852 62.6189 80.9086 61.5778 80.9972ZM89.7555 19.8569C89.7555 19.9866 89.7555 20.1164 89.7555 20.2493C85.3345 20.2493 80.9104 20.1322 76.4958 20.2778C68.9323 20.5246 61.3594 20.7683 53.8181 21.3284C44.4066 22.0215 35.0235 23.0151 25.6278 23.9139C24.6657 24.0088 23.6784 24.1671 22.7828 24.4993C21.4821 24.9772 21.0897 25.8918 21.634 27.1798C22.0992 28.2747 22.6878 29.3254 23.3429 30.3159C33.1754 45.2529 44.1661 59.3291 55.7327 72.9622C56.5524 73.9243 57.4543 74.8389 58.4005 75.6775C59.5999 76.7503 60.9385 77.3167 62.6759 77.2503C67.7678 77.0699 72.866 77.0921 77.9673 77.0193C89.3631 76.861 100.753 77.2281 112.107 78.1838C121.205 78.9529 130.291 79.9972 139.345 81.1618C148.247 82.3137 157.114 83.7631 165.994 85.1238C168.358 85.4878 170.687 86.0732 173.051 86.472C175.304 86.8486 175.975 86.1239 175.456 83.915C175.073 82.2504 174.637 80.5826 174.077 78.9687C168.637 63.3418 161.573 48.4618 153.317 34.1356C151.864 31.6134 150.37 29.1007 148.722 26.7082C147.994 25.6513 146.962 24.6386 145.832 24.05C144.611 23.4139 143.12 23.2683 141.731 22.9645C133.497 21.1955 125.111 20.7113 116.734 20.379C107.743 20.0151 98.7462 20.0088 89.7555 19.8569ZM67.464 84.2188C67.464 84.2472 67.4545 84.2789 67.4545 84.3074C67.0051 84.3074 66.5557 84.358 66.1095 84.2979C63.236 83.9308 60.7645 84.7473 58.2549 86.241C46.6092 93.1651 35.1912 100.447 24.0866 108.197C19.308 111.536 14.694 115.121 10.156 118.78C6.91225 121.397 7.24137 123.039 11.1528 124.628C13.6402 125.634 16.1782 126.634 18.789 127.22C29.2924 129.59 39.8021 131.995 50.3782 133.992C60.9607 135.998 71.6159 137.65 82.2712 139.239C89.1511 140.258 96.091 140.948 103.015 141.672C109.044 142.302 115.098 142.802 121.139 143.302C124.348 143.568 127.569 143.679 130.785 143.932C132.174 144.039 133.155 143.619 134.101 142.555C135.934 140.492 138.044 138.666 139.861 136.587C146.757 128.713 153.624 120.808 160.424 112.849C163.143 109.669 165.747 106.387 168.235 103.017C169.371 101.482 170.241 99.6937 170.947 97.912C171.567 96.3392 171.013 95.3835 169.434 94.7095C168.482 94.3044 167.472 93.9278 166.453 93.7727C157.5 92.4119 148.567 90.8834 139.585 89.8328C128.282 88.5068 116.952 87.3992 105.604 86.5384C92.898 85.5732 80.1762 84.9814 67.464 84.2188Z" fill="white"/>
<path d="M174.432 105.713C174.033 109.406 173.64 113.092 173.238 116.789C173.232 116.861 173.197 116.934 173.197 117.004C173.226 121.112 171.21 124.301 168.84 127.488C160.488 138.723 151.754 149.631 141.972 159.672C140.197 161.492 138.254 163.15 136.431 164.916C135.339 165.973 134.057 166.445 132.567 166.381C128.678 166.198 124.769 166.119 120.893 165.78C114.253 165.191 107.604 164.59 101 163.707C91.7276 162.47 82.4552 161.172 73.2525 159.527C59.7745 157.115 46.385 154.217 33.1632 150.647C29.41 149.631 25.7232 148.378 21.9985 147.264C19.6503 146.561 17.9921 145.308 17.068 142.859C15.7294 139.302 13.9983 135.897 12.4477 132.422C12.2736 132.036 12.1565 131.631 11.916 130.95C15.204 131.783 18.2294 132.536 21.2485 133.311C35.3215 136.925 49.5559 139.78 63.8916 142.121C73.9361 143.758 84.0186 145.242 94.1263 146.444C103.123 147.511 112.18 148.112 121.212 148.878C124.051 149.118 126.893 149.292 129.738 149.406C131.076 149.466 132.45 149.451 133.766 149.242C135.703 148.938 137.463 148.299 138.845 146.675C148.46 135.412 158.14 124.213 167.786 112.969C169.865 110.545 171.871 108.045 173.909 105.583C174.09 105.618 174.257 105.662 174.432 105.713ZM134.314 150.726C134.197 153.891 134.057 157.065 133.994 160.229C133.985 160.6 134.393 160.976 134.69 161.505C135.687 159.615 135.621 152.625 134.314 150.726ZM179.707 80.2437C179.014 78.0475 178.463 75.7943 177.596 73.6645C175.239 67.8638 172.963 62.0029 170.273 56.3509C164.935 45.1513 158.802 34.3822 152.039 23.9579C149.95 20.7395 147.267 18.9452 143.542 18.48C136.415 17.5907 129.301 16.4388 122.152 15.8439C111.032 14.923 99.8796 14.3723 88.4553 13.6476C88.3383 13.4451 88.025 12.9451 87.7781 12.4166C86.3319 9.32476 83.8951 7.71713 80.4774 7.8184C76.9551 7.91967 73.4424 8.14436 69.936 8.38803C68.5246 8.4893 67.1069 8.71399 65.7239 9.03361C63.6669 9.51147 63.2682 10.0779 63.2176 12.1191C63.2017 12.7868 63.2176 13.4514 63.2176 14.3786C49.9926 15.4008 36.7994 16.3154 23.8181 18.9294C23.7232 18.7996 23.6282 18.6604 23.527 18.5306C25.0017 16.6762 26.4068 14.7711 27.9638 12.9894C29.3878 11.3596 30.8784 9.75831 32.524 8.35955C33.3816 7.62853 34.5873 7.157 35.7171 6.91965C45.04 4.96392 54.4959 3.99871 63.9644 3.09363C75.7779 1.96387 87.6041 1.72652 99.4524 1.84678C115.81 2.0145 132.086 3.16642 148.184 6.23926C148.991 6.39116 149.811 6.638 150.621 6.62218C152.548 6.57787 153.748 7.6222 154.931 8.97032C159.64 14.3375 163.653 20.1825 167.181 26.3535C173.333 37.1417 178.644 48.3191 182.745 60.0598C183.976 63.5821 184.296 67.0505 183.292 70.6012C182.368 73.8892 181.277 77.1266 180.267 80.3956C180.084 80.345 179.894 80.2944 179.707 80.2437ZM153.21 9.50514C151.469 11.3596 150.33 15.7869 150.947 17.711C151.232 17.4072 151.602 17.2046 151.668 16.923C152.213 14.6033 152.89 12.3027 153.21 9.50514Z" fill="#F2F2F2"/>
<path d="M22.995 25.7303C28.6818 24.898 34.318 24.5088 39.7232 24.0815C43.7391 29.3981 47.6221 34.5026 51.4702 39.6388C56.2266 45.9775 60.9546 52.3384 65.6952 58.6834C66.3661 59.5822 67.1572 60.4018 67.7553 61.3417C69.0053 63.3291 70.7807 63.9145 73.0719 63.9082C80.1922 63.8797 87.3126 63.9304 94.433 64.1044C104.243 64.3481 114.069 64.538 123.861 65.1234C134.924 65.7911 145.943 67.0222 156.88 68.9114C160.934 69.6172 164.991 70.2374 169.203 70.9273C170.862 75.5128 172.504 80.0319 174.229 84.8136C173.529 84.7693 173.165 84.7757 172.817 84.7124C166.032 83.5668 159.254 82.3579 152.459 81.2914C146.763 80.4022 141.054 79.5983 135.339 78.9021C128.946 78.1205 122.551 77.3451 116.13 76.8388C103.576 75.8514 90.9994 75.2375 78.3947 75.4242C73.6035 75.497 68.8028 75.6078 64.0147 75.9116C61.6824 76.0635 60.0147 75.323 58.5684 73.5698C54.3943 68.4937 50.0588 63.5316 45.9416 58.4018C38.451 49.0725 31.2483 39.5249 24.6976 29.5057C23.9919 28.4266 23.0393 27.4044 22.995 25.7303ZM68.306 66.7469C66.1382 67.0665 63.3976 70.8703 63.3185 73.5476C64.9831 71.2817 66.6477 69.0159 68.306 66.7469ZM9.46631 121.751C10.4695 120.824 11.2701 119.941 12.2069 119.245C17.074 115.631 21.8368 111.871 26.8843 108.529C38.3624 100.937 49.986 93.5511 61.5717 86.1175C62.1381 85.7567 62.9673 85.6238 63.6603 85.6523C70.0971 85.9655 76.5276 86.32 82.9644 86.7029C89.1671 87.0732 95.3792 87.3991 101.576 87.8928C109.19 88.5004 116.797 89.2093 124.399 89.9561C130.209 90.5289 136.022 91.1587 141.81 91.8897C148.868 92.7885 155.899 93.8264 162.941 94.8106C164.352 95.0068 165.754 95.222 167.159 95.4562C169.298 95.8107 169.703 96.4911 168.846 98.5037C168.409 99.5259 167.871 100.539 167.203 101.425C163.798 105.871 160.33 110.276 156.874 114.703C152.874 114.064 149.054 113.39 145.216 112.862C137.579 111.82 129.94 110.77 122.282 109.884C114.101 108.934 105.911 108.058 97.7052 107.349C90.395 106.719 83.0562 106.327 75.7333 105.887C72.5908 105.697 69.4421 105.713 66.3059 105.482C64.7806 105.365 63.5147 105.763 62.3217 106.611C57.0684 110.327 51.7329 113.919 46.603 117.802C42.2549 121.09 38.1725 124.729 33.9414 128.169C33.5395 128.495 32.8275 128.742 32.3465 128.631C24.9223 126.909 17.4095 125.495 10.3682 122.416C10.172 122.336 10.0106 122.162 9.46631 121.751ZM65.3091 102.975C65.5369 102.336 65.7838 101.988 65.7331 101.7C65.0496 97.817 64.3375 93.9467 63.6002 90.0795C63.5495 89.7979 63.2236 89.5669 62.9103 89.1681C62.6192 92.5353 64.0084 100.937 65.3091 102.975Z" fill="#E8E8E8"/>
<path d="M41.169 23.8474C47.5773 23.3758 53.4699 22.8473 59.375 22.5309C73.5208 21.7682 87.6825 21.3062 101.844 21.6828C111.503 21.9423 121.161 22.3568 130.8 23.0309C135.411 23.3474 139.971 24.3917 144.538 25.1892C145.209 25.3031 145.877 25.7968 146.392 26.2809C146.924 26.781 147.31 27.455 147.696 28.0943C155.434 40.8065 162.241 53.9966 167.858 67.7817C168.054 68.2595 168.212 68.7596 168.481 69.5064C166.491 69.1298 164.693 68.7532 162.883 68.4557C153.13 66.8545 143.354 65.4778 133.506 64.5664C113.626 62.7183 93.6984 62.6107 73.7614 62.8006C73.312 62.8069 72.8531 62.7563 72.4164 62.8132C70.9986 63.0095 70.1252 62.4525 69.2581 61.2721C63.0618 52.8384 56.7927 44.4648 50.5014 36.1039C47.9413 32.7019 45.2735 29.3759 42.669 26.0056C42.2386 25.4423 41.8526 24.8347 41.169 23.8474ZM36.7639 129.602C44.2545 131.045 51.7167 132.609 59.2358 133.878C68.5334 135.435 77.85 136.846 87.1888 138.122C94.2301 139.077 101.306 139.808 108.382 140.482C115.686 141.179 123.009 141.663 130.319 142.296C131.614 142.403 132.56 142.099 133.446 141.099C140.595 132.957 147.791 124.859 154.968 116.738C155.143 116.542 155.209 116.251 155.389 115.862C154.269 115.722 153.326 115.621 152.38 115.485C144.677 114.377 136.997 113.108 129.272 112.188C118.791 110.944 108.297 109.798 97.7871 108.906C87.0432 107.994 76.2709 107.456 65.5144 106.725C64.546 106.662 63.8118 106.95 63.0333 107.488C54.0078 113.643 45.2514 120.172 36.7765 127.061C36.093 127.612 35.46 128.226 34.5645 129.023C35.5202 129.264 36.1309 129.479 36.7639 129.602Z" fill="#D6D6D6"/>
</svg>
