<svg width="68" height="49" viewBox="0 0 68 49" fill="none" xmlns="http://www.w3.org/2000/svg">
<path d="M20.5312 30.0931H36.4792V27.3848H20.5312V30.0931Z" fill="#E3995A"/>
<mask id="mask0_292_113719" style="mask-type:luminance" maskUnits="userSpaceOnUse" x="23" y="0" width="19" height="30">
<path d="M23.1348 0H41.8014V29.1042H23.1348V0Z" fill="white"/>
</mask>
<g mask="url(#mask0_292_113719)">
<path d="M40.6602 28.7188H24.1602V0.46875L30.9258 1.8125L40.6602 28.7188Z" fill="#FCC47F"/>
</g>
<path d="M66.959 39.875H54.584L54.8704 43.7344H63.584L66.959 39.875Z" fill="#C9B0A9"/>
<mask id="mask1_292_113719" style="mask-type:luminance" maskUnits="userSpaceOnUse" x="23" y="0" width="23" height="3">
<path d="M23.1348 0H45.8014V2.4375H23.1348V0Z" fill="white"/>
</mask>
<g mask="url(#mask1_292_113719)">
<path d="M45.7852 1.125L30.9258 1.8125L24.1602 0.46875L38.5352 0L45.7852 1.125Z" fill="#FEDC98"/>
</g>
<path d="M22.416 45.2917H34.4473V30.0938H22.416V45.2917Z" fill="#D58854"/>
<path d="M22.4173 30.1403H18.5371V28.3955L24.1621 20.458V27.3851H20.5319V30.0934H32.7454H22.4173V30.1403Z" fill="#E9DCDB"/>
<path d="M32.7448 30.0931H20.5312V27.3848H24.1615V28.7181H33.4427L32.7448 30.0931Z" fill="#D1854D"/>
<path d="M33.4434 28.7184H24.1621V20.458L28.8132 13.8955L30.9277 14.5934L33.0371 25.5413L29.735 26.6038L33.3288 27.0413L33.5944 28.4215L33.4434 28.7184Z" fill="#E6A96D"/>
<path d="M25.015 45.2917L24.9681 45.224H25.0514L25.015 45.2917ZM32.7181 30.1406H22.416V30.0938H32.7441L32.7181 30.1406Z" fill="#C47648"/>
<path d="M45.7871 28.7188H30.9277V1.8125L45.7871 1.125V28.7188Z" fill="#E0965A"/>
<path d="M45.3809 43.734H63.584V28.833H45.3809V43.734Z" fill="#EAA563"/>
<path d="M35.3385 45.224H34.4479V30.1406H35.3385V45.224ZM22.4167 45.224H18.3125V30.1406H18.5365V36.6406L22.4167 41.8229V45.224Z" fill="#D4C8BF"/>
<path d="M34.4473 45.224H25.0514L32.7181 30.1406H34.4473V45.224ZM24.9681 45.224H22.416V41.8229L24.9681 45.224Z" fill="#B56F41"/>
<path d="M22.4173 41.8229L18.5371 36.6406V30.1406H22.4173V41.8229Z" fill="#C3ADA4"/>
<path d="M25.0514 45.224H24.9681L22.416 41.8229V30.1406H32.7181L25.0514 45.224Z" fill="#A86238"/>
<mask id="mask2_292_113719" style="mask-type:luminance" maskUnits="userSpaceOnUse" x="10" y="31" width="16" height="18">
<path d="M10.291 31.0254H25.0671V48.9837H10.291V31.0254Z" fill="white"/>
</mask>
<g mask="url(#mask2_292_113719)">
<path d="M25.015 46.7809L10.3379 48.9841V32.9111L25.015 31.0361V46.7809Z" fill="#E3995A"/>
</g>
<mask id="mask3_292_113719" style="mask-type:luminance" maskUnits="userSpaceOnUse" x="0" y="28" width="11" height="21">
<path d="M0.0683594 28.1562H10.4277V48.9844H0.0683594V28.1562Z" fill="white"/>
</mask>
<g mask="url(#mask3_292_113719)">
<path d="M0.0683594 42.9375L10.3392 48.9844V32.9115L0.0683594 28.2656V42.9375Z" fill="#FDC480"/>
</g>
<mask id="mask4_292_113719" style="mask-type:luminance" maskUnits="userSpaceOnUse" x="0" y="26" width="26" height="8">
<path d="M0 26.4375H25.8021V33.1042H0V26.4375Z" fill="white"/>
</mask>
<g mask="url(#mask4_292_113719)">
<path d="M12.5423 26.5312L0.0683594 28.2656L10.3392 32.9115L25.0163 31.0365L12.5423 26.5312Z" fill="#FEDC98"/>
</g>
<path d="M63.584 28.8382H45.3809V26.5674H61.6204L63.584 28.8382Z" fill="#FFD692"/>
<path d="M16.8327 29.4473L6.04102 31.015L3.85352 30.0254L15.2598 28.6035L16.8327 29.4473Z" fill="#FFF2E1"/>
<path d="M28.8132 28.833L11.6621 31.0361V14.9632L28.8132 13.8955V28.833Z" fill="#E59D5D"/>
<path d="M50.1621 39.5879V29.6243L54.5475 30.4941V28.8379H59.834L50.1621 39.5879Z" fill="#DB9458"/>
<path d="M59.8333 28.8382H54.5469V28.4424L60.4427 28.1611L59.8333 28.8382Z" fill="#EEBF82"/>
<path d="M6.35352 28.4424L11.6608 31.0361V14.9632L6.48893 13.083L6.35352 28.4424Z" fill="#FCC47F"/>
<path d="M15.9538 28.9263C15.9538 29.1555 15.7715 29.3742 15.5371 29.4055L13.6517 29.6763C13.4225 29.7076 13.235 29.5461 13.235 29.3117V27.3795C13.235 27.1503 13.4225 26.9315 13.6517 26.9003L15.5371 26.6347C15.7663 26.5982 15.9538 26.7597 15.9538 26.994V28.9263ZM15.5371 26.4524L13.6517 26.718C13.3236 26.7649 13.0527 27.0774 13.0527 27.4055L13.0579 29.3378C13.0579 29.6711 13.3236 29.9055 13.6517 29.8586L15.5371 29.5878C15.8704 29.5409 16.1361 29.2336 16.1361 28.9003V26.968C16.1361 26.6347 15.8652 26.4055 15.5371 26.4524Z" fill="#7F582C"/>
<path d="M14.5098 27.166C14.5358 28.4056 14.5306 28.4785 14.5202 28.7181C14.515 28.7702 14.515 28.8327 14.5098 28.916C14.5098 28.9421 14.4577 29.041 14.39 29.0671C14.3431 29.0827 14.2858 29.0566 14.265 29.0462C14.1868 29.0046 14.1608 28.9264 14.1504 28.8848L14.041 28.9264C14.0514 28.9889 14.0931 29.0931 14.2077 29.1504C14.2337 29.166 14.2962 29.1973 14.3691 29.1868C14.3848 29.1816 14.4004 29.1816 14.4108 29.1764C14.5358 29.1296 14.6191 28.9837 14.6243 28.9004C14.6243 28.8223 14.6296 28.7598 14.6296 28.7077C14.64 28.4681 14.6452 28.3952 14.6191 27.1504L14.5098 27.166Z" fill="#7F582C"/>
<path d="M14.5462 27.2391C13.9368 27.3485 13.6035 28.286 13.6035 28.286C13.6035 28.286 13.7702 28.0568 13.9525 28.062C14.0983 28.0672 14.2389 28.2027 14.2389 28.2027C14.2389 28.2027 14.4421 27.9422 14.6035 27.9162C14.7389 27.9006 14.9108 28.0412 14.9108 28.0412C14.9108 28.0412 15.0879 27.8745 15.2441 27.8589C15.4473 27.8329 15.5879 27.9683 15.5879 27.9683C15.5879 27.9683 15.1712 27.1193 14.5462 27.2391Z" fill="#7F582C"/>
<path d="M19.3952 28.4373C19.3952 28.6665 19.2077 28.88 18.9785 28.9165L17.0931 29.1821C16.8639 29.2185 16.6764 29.0571 16.6764 28.8227V26.8904C16.6764 26.6612 16.8587 26.4425 17.0879 26.4112L18.9785 26.1404C19.2077 26.1092 19.3952 26.2706 19.3952 26.505V28.4373ZM18.9785 25.9581L17.0879 26.229C16.7598 26.2758 16.4941 26.5831 16.4941 26.9165V28.8487C16.4941 29.1821 16.765 29.4112 17.0931 29.3644L18.9785 29.0987C19.3066 29.0519 19.5723 28.7394 19.5723 28.4112V26.479C19.5723 26.1456 19.3066 25.9112 18.9785 25.9581Z" fill="#7F582C"/>
<path d="M17.7233 28.916L17.541 28.9421V26.9889L17.7181 26.9629L17.7233 28.916Z" fill="#7F582C"/>
<path d="M17.6204 26.625L17.9277 27.2969L17.3184 27.3854L17.6204 26.625Z" fill="#7F582C"/>
<path d="M18.5319 28.8018L18.3496 28.8226V26.8747L18.5267 26.8486L18.5319 28.8018Z" fill="#7F582C"/>
<path d="M18.4479 26.5049L18.7552 27.182L18.1406 27.2653L18.4479 26.5049Z" fill="#7F582C"/>
<path d="M18.8223 28.7917L17.2441 29.0156V28.849L18.8223 28.625V28.7917Z" fill="#7F582C"/>
<path d="M22.8333 27.9428C22.8385 28.1772 22.651 28.3907 22.4219 28.422L20.5313 28.6928C20.3021 28.7241 20.1146 28.5626 20.1146 28.3334V26.4012C20.1146 26.1668 20.3021 25.9532 20.5313 25.922L22.4167 25.6512C22.6458 25.6199 22.8333 25.7814 22.8333 26.0105V27.9428ZM22.4167 25.4689L20.5313 25.7397C20.2031 25.7866 19.9375 26.0939 19.9375 26.4272V28.3595C19.9375 28.6928 20.2031 28.922 20.5313 28.8751L22.4219 28.6043C22.75 28.5574 23.0156 28.2501 23.0156 27.9168V25.9845C23.0156 25.6564 22.7448 25.422 22.4167 25.4689Z" fill="#7F582C"/>
<path d="M21.8542 26.7598C21.8542 26.9421 21.7344 27.1243 21.5573 27.1921C21.5313 27.2025 21.5052 27.2077 21.474 27.2129C21.4479 27.2181 21.4167 27.2181 21.3906 27.2129C21.2135 27.1973 21.0938 27.0514 21.0938 26.8691V26.0723L21.8542 25.9629V26.7598Z" fill="#7F582C"/>
<path d="M21.416 28.2448L21.5358 28.2292V26.6094L21.416 26.625V28.2448Z" fill="#7F582C"/>
<path d="M22.0156 28.2393L20.9375 28.3955V28.2705L22.0156 28.1143V28.2393Z" fill="#7F582C"/>
<path d="M20.7923 12.2969L6.49023 13.0833L11.6621 14.9635L28.8132 13.8958L20.7923 12.2969Z" fill="#FFD893"/>
<path d="M54.5462 30.4948L43.0879 28.224V11.8281L54.5462 12.9844V30.4948Z" fill="#FDB575"/>
<path d="M11.6621 14.9635C11.6621 14.9635 11.1465 14.7552 11.0319 14.7031C10.1257 14.3229 9.05273 14.0312 9.05273 14.0312L11.6621 14.9635Z" fill="#833B1F"/>
<path d="M6.49023 13.083C6.49023 13.083 6.68294 13.1507 6.81315 13.1872C7.63086 13.4111 8.41732 13.8122 8.41732 13.8122L6.49023 13.083Z" fill="#833B1F"/>
<path d="M25.6725 13.2653L9.63607 14.2288L8.16211 13.7236L23.8132 12.8955L25.6725 13.2653Z" fill="#C99570"/>
<path d="M60.4427 28.1611L54.5469 30.4945V12.984L60.4427 11.5049V28.1611Z" fill="#C47D49"/>
<path d="M60.4421 11.5046L51.0098 10.3379L43.0879 11.8275L54.5462 12.9837L60.4421 11.5046Z" fill="#FFD893"/>
<path d="M19.5059 14.4733L13.1621 12.7129L15.3704 12.6035L21.9121 14.3587L19.5059 14.4733Z" fill="#C99570"/>
<mask id="mask5_292_113719" style="mask-type:luminance" maskUnits="userSpaceOnUse" x="29" y="0" width="12" height="3">
<path d="M29.8027 0H40.4694V2.4375H29.8027V0Z" fill="white"/>
</mask>
<g mask="url(#mask5_292_113719)">
<path d="M37.418 1.5472L30.2148 0.271159L32.9336 0.182617L39.8242 1.43262L37.418 1.5472Z" fill="#C99570"/>
</g>
<mask id="mask6_292_113719" style="mask-type:luminance" maskUnits="userSpaceOnUse" x="28" y="26" width="14" height="23">
<path d="M28.4688 26.4375H41.8021V48.9844H28.4688V26.4375Z" fill="white"/>
</mask>
<g mask="url(#mask6_292_113719)">
<path d="M41.026 48.5628L29.7344 46.6722V26.6045L41.026 27.9743V48.5628Z" fill="#FEBE7E"/>
</g>
<mask id="mask7_292_113719" style="mask-type:luminance" maskUnits="userSpaceOnUse" x="40" y="25" width="8" height="24">
<path d="M40.4688 25.1035H47.1354V48.9837H40.4688V25.1035Z" fill="white"/>
</mask>
<g mask="url(#mask7_292_113719)">
<path d="M46.4264 45.1038L41.0254 48.5622V27.9736L46.4264 25.7393V45.1038Z" fill="#CE8D57"/>
</g>
<path d="M46.4271 25.7393L36.3177 24.4893L29.7344 26.6038L41.026 27.9736L46.4271 25.7393Z" fill="#FEDC98"/>
<path d="M50.1621 43.7337H46.4277L50.1621 39.5879V43.7337Z" fill="#C97F4C"/>
<path d="M46.4277 43.7337V28.8848L50.1621 29.6243V39.5879L46.4277 43.7337Z" fill="#BE7343"/>
<path d="M50.1621 29.6247L46.4277 28.8851V25.7236L50.1621 26.5309V29.6247Z" fill="#D78C59"/>
<path d="M21.9121 17.8021L19.5059 18V14.474L21.9121 14.3594V17.8021Z" fill="#A37452"/>
<path d="M21.8757 29.7233L19.5059 30.0254V27.5254L21.9121 27.2285L21.8757 29.7233Z" fill="#A37452"/>
<path d="M9.63607 16.7288L8.14648 16.0518L8.16211 13.7236L9.63607 14.2288V16.7288Z" fill="#BA835D"/>
<mask id="mask8_292_113719" style="mask-type:luminance" maskUnits="userSpaceOnUse" x="25" y="0" width="4" height="4">
<path d="M25.8027 0H28.4694V3.77083H25.8027V0Z" fill="white"/>
</mask>
<g mask="url(#mask8_292_113719)">
<path d="M27.9583 3.72428L26.474 3.33887L26.4688 0.932617L27.9583 1.22428V3.72428Z" fill="#BA835D"/>
</g>
<path d="M6.04102 33.5775L3.83789 32.4889L3.85352 30.0254L6.04102 31.015V33.5775Z" fill="#FCECD9"/>
<path d="M49.5729 15.3698L47.375 14.9844V12.2812L49.5729 12.4896V15.3698Z" fill="#FCECD9"/>
<path d="M36.1816 47.7546L33.9785 47.4056V44.9785L36.1816 45.3639V47.7546Z" fill="#FFF2E1"/>
<path d="M36.1816 27.3958L33.9785 27.1302L40.2389 24.9531L41.9837 25.1875L36.1816 27.3958Z" fill="#FFF2E1"/>
<path d="M5.90625 46.3743L3.70312 45.0046L3.71875 42.541L5.90625 43.7025V46.3743Z" fill="#FCECD9"/>
<mask id="mask9_292_113719" style="mask-type:luminance" maskUnits="userSpaceOnUse" x="0" y="27" width="5" height="4">
<path d="M0 27.7705H4.46875V30.4372H0V27.7705Z" fill="white"/>
</mask>
<g mask="url(#mask9_292_113719)">
<path d="M0.0667252 28.2657C0.0510999 28.2605 0.613601 28.4688 0.868809 28.573C2.34798 29.1563 3.94173 30.0522 3.91048 30.0261C3.86881 29.9949 0.103183 28.2709 0.0667252 28.2657Z" fill="#BF6726"/>
</g>
<path d="M6.11914 31.0049C6.11914 31.0049 7.23372 31.4632 7.31185 31.4945C8.84831 32.1559 10.3379 32.9111 10.3379 32.9111L6.11914 31.0049Z" fill="#BF6726"/>
<path d="M29.7344 26.6035C29.7344 26.6035 30.9062 26.6556 31.7552 26.7546C32.7031 26.8639 33.9792 27.1296 33.9792 27.1296L29.7344 26.6035Z" fill="#BF6726"/>
<path d="M36.209 27.3848C36.209 27.3848 37.3861 27.4525 38.209 27.5358C39.4017 27.6556 41.0267 27.9733 41.0267 27.9733L36.209 27.3848Z" fill="#BF6726"/>
<path d="M54.0469 10.7129L47.375 12.2806L49.5729 12.4889L55.9323 10.9473L54.0469 10.7129Z" fill="white"/>
<path d="M58.4167 14.057L57.0156 14.4945V12.359L58.4167 12.0049V14.057Z" fill="#EFD9C2"/>
<path d="M58.625 28.8796L57.2188 29.4368V27.3483L58.625 26.916V28.8796Z" fill="#EFD9C2"/>
<path d="M57.0163 12.359L46.084 11.2653L48.0527 10.8955L58.4173 12.0049L57.0163 12.359Z" fill="white"/>
<path d="M49.5723 12.4893C49.5723 12.4893 50.8118 12.5257 51.3535 12.5674C52.9473 12.6872 54.5827 12.9684 54.5827 12.9684L49.5723 12.4893Z" fill="#BF6726"/>
<path d="M43.0879 11.8281C43.0879 11.8281 44.2129 11.8646 44.7754 11.9323C46.0514 12.0938 47.3743 12.2813 47.3743 12.2813L43.0879 11.8281Z" fill="#BF6726"/>
<path d="M54.6816 41.8226C54.6816 42.057 54.4889 42.2445 54.2546 42.2445H52.3118C52.0775 42.2445 51.8848 42.057 51.8848 41.8226V39.8747C51.8848 39.6403 52.0775 39.4528 52.3118 39.4528H54.2546C54.4889 39.4528 54.6816 39.6403 54.6816 39.8747V41.8226ZM54.2546 39.2705H52.3118C51.9733 39.2705 51.6973 39.5413 51.6973 39.8747V41.8226C51.6973 42.1559 51.9733 42.4268 52.3118 42.4268H54.2546C54.5931 42.4268 54.8691 42.1559 54.8691 41.8226V39.8747C54.8691 39.5413 54.5931 39.2705 54.2546 39.2705Z" fill="#7F582C"/>
<path d="M53.1973 39.8438C53.2233 41.099 53.2181 41.1667 53.2077 41.4063C53.2025 41.4583 53.1973 41.5208 53.1973 41.6042C53.1973 41.6302 53.1452 41.724 53.0723 41.7396C53.0202 41.75 52.9681 41.7188 52.9473 41.7031C52.8639 41.651 52.8379 41.5677 52.8223 41.5208L52.7129 41.5521C52.7285 41.6094 52.7702 41.724 52.8848 41.7969C52.9108 41.8177 52.9733 41.8542 53.0514 41.8542C53.0671 41.8542 53.0827 41.8542 53.0983 41.8542C53.2233 41.8229 53.3066 41.6875 53.3118 41.6094C53.3171 41.526 53.3171 41.4688 53.3223 41.4167C53.3327 41.1719 53.3379 41.099 53.3118 39.8438H53.1973Z" fill="#7F582C"/>
<path d="M53.2337 39.9166C52.6087 39.9426 52.2598 40.8436 52.2598 40.8436C52.2598 40.8436 52.4368 40.6353 52.6243 40.6666C52.7702 40.6874 52.916 40.8489 52.916 40.8489C52.916 40.8489 53.1296 40.6145 53.2962 40.6145C53.4316 40.6145 53.6087 40.7811 53.6087 40.7811C53.6087 40.7811 53.791 40.6405 53.9525 40.6405C54.1608 40.6457 54.3066 40.802 54.3066 40.802C54.3066 40.802 53.8743 39.8905 53.2337 39.9166Z" fill="#7F582C"/>
<path d="M58.2246 41.8226C58.2246 42.057 58.0319 42.2445 57.7975 42.2445H55.8548C55.6204 42.2445 55.4277 42.057 55.4277 41.8226V39.8747C55.4277 39.6403 55.6204 39.4528 55.8548 39.4528H57.7975C58.0319 39.4528 58.2246 39.6403 58.2246 39.8747V41.8226ZM57.7975 39.2705H55.8548C55.5163 39.2705 55.2402 39.5413 55.2402 39.8747V41.8226C55.2402 42.1559 55.5163 42.4268 55.8548 42.4268H57.7975C58.1361 42.4268 58.4121 42.1559 58.4121 41.8226V39.8747C58.4121 39.5413 58.1361 39.2705 57.7975 39.2705Z" fill="#7F582C"/>
<path d="M56.5007 42.0674H56.3184V40.0986H56.5007V42.0674Z" fill="#7F582C"/>
<path d="M56.4017 39.7393L56.7142 40.4632H56.084L56.4017 39.7393Z" fill="#7F582C"/>
<path d="M57.334 42.0674H57.1465V40.0986H57.334V42.0674Z" fill="#7F582C"/>
<path d="M57.2493 39.7393L57.5618 40.4632H56.9316L57.2493 39.7393Z" fill="#7F582C"/>
<path d="M57.6354 42.0986H56.0156V41.9268H57.6354V42.0986Z" fill="#7F582C"/>
<path d="M61.7656 41.8226C61.7656 42.057 61.5729 42.2445 61.3385 42.2445H59.3958C59.1563 42.2445 58.9635 42.057 58.9635 41.8226V39.8747C58.9635 39.6403 59.1563 39.4528 59.3958 39.4528H61.3385C61.5729 39.4528 61.7656 39.6403 61.7656 39.8747V41.8226ZM61.3385 39.2705H59.3958C59.0573 39.2705 58.7812 39.5413 58.7812 39.8747V41.8226C58.7812 42.1559 59.0573 42.4268 59.3958 42.4268H61.3385C61.6771 42.4268 61.9479 42.1559 61.9479 41.8226V39.8747C61.9479 39.5413 61.6771 39.2705 61.3385 39.2705Z" fill="#7F582C"/>
<path d="M60.7611 40.4844C60.7611 40.6719 60.6361 40.8385 60.4538 40.8802C60.4277 40.8854 60.3965 40.8906 60.3652 40.8906C60.334 40.8906 60.3079 40.8854 60.2819 40.8802C60.0996 40.8385 59.9746 40.6719 59.9746 40.4844V39.6875H60.7611V40.4844Z" fill="#7F582C"/>
<path d="M60.3027 41.9215H60.4277V40.2861H60.3027V41.9215Z" fill="#7F582C"/>
<path d="M60.9219 42.0052H59.8125V41.875H60.9219V42.0052Z" fill="#7F582C"/>
<path d="M36.4948 30.7812C36.4948 31.0051 36.3125 31.1614 36.0833 31.1353L34.2396 30.9218C34.0156 30.8957 33.8333 30.6926 33.8333 30.4739V28.6249C33.8333 28.4009 34.0156 28.2395 34.2396 28.2655L36.0833 28.4843C36.3125 28.5103 36.4948 28.7082 36.4948 28.9322V30.7812ZM36.0833 28.3072L34.2396 28.0937C33.9167 28.0572 33.6562 28.2864 33.6562 28.6041V30.453C33.6562 30.7707 33.9167 31.0572 34.2396 31.0989L36.0833 31.3124C36.4062 31.3489 36.6667 31.1197 36.6667 30.802V28.953C36.6667 28.6353 36.4062 28.3437 36.0833 28.3072Z" fill="#7F582C"/>
<path d="M35.0775 28.7393C35.1035 29.932 35.0983 29.9997 35.0879 30.2236C35.0827 30.2757 35.0827 30.333 35.0775 30.4111C35.0775 30.4372 35.0306 30.5205 34.9629 30.5257C34.916 30.5309 34.8639 30.4945 34.8431 30.4736C34.765 30.4163 34.7389 30.3382 34.7285 30.2913L34.6191 30.307C34.6348 30.3643 34.6712 30.4788 34.7806 30.5622C34.8066 30.5778 34.8691 30.6247 34.9421 30.6351C34.9577 30.6351 34.9681 30.6351 34.9837 30.6351C35.1035 30.6247 35.1868 30.4997 35.1868 30.4268C35.1921 30.3486 35.1973 30.2913 35.1973 30.2445C35.2077 30.0153 35.2129 29.9476 35.1868 28.7497L35.0775 28.7393Z" fill="#7F582C"/>
<path d="M35.1152 28.8121C34.5215 28.7704 34.1934 29.5829 34.1934 29.5829C34.1934 29.5829 34.36 29.4058 34.5371 29.4579C34.6777 29.4944 34.8132 29.6611 34.8132 29.6611C34.8132 29.6611 35.0163 29.4579 35.1725 29.4788C35.3027 29.4944 35.4746 29.6715 35.4746 29.6715C35.4746 29.6715 35.6465 29.5621 35.7975 29.5829C35.9954 29.609 36.1361 29.7704 36.1361 29.7704C36.1361 29.7704 35.7246 28.859 35.1152 28.8121Z" fill="#7F582C"/>
<path d="M39.8548 31.1718C39.8548 31.3957 39.6725 31.5572 39.4486 31.5312L37.6048 31.3124C37.3809 31.2864 37.1986 31.0884 37.1986 30.8645V29.0155C37.1986 28.7916 37.3809 28.6353 37.6048 28.6614L39.4486 28.8749C39.6725 28.9009 39.8548 29.0989 39.8548 29.3228V31.1718ZM39.4486 28.6978L37.6048 28.4843C37.2819 28.4478 37.0215 28.677 37.0215 28.9947V30.8437C37.0215 31.1614 37.2819 31.453 37.6048 31.4895L39.4486 31.703C39.7715 31.7395 40.0319 31.5103 40.0319 31.1926V29.3437C40.0319 29.0259 39.7715 28.7395 39.4486 28.6978Z" fill="#7F582C"/>
<path d="M38.2181 31.2135L38.041 31.1927V29.3281L38.2181 29.349V31.2135Z" fill="#7F582C"/>
<path d="M38.1191 28.9941L38.4212 29.7181L37.8223 29.6452L38.1191 28.9941Z" fill="#7F582C"/>
<path d="M39.0111 31.3066L38.834 31.2858V29.416L39.0111 29.4368V31.3066Z" fill="#7F582C"/>
<path d="M38.9329 29.0879L39.2298 29.8118L38.6309 29.7441L38.9329 29.0879Z" fill="#7F582C"/>
<path d="M39.2975 31.375L37.7559 31.1927V31.0312L39.2975 31.2083V31.375Z" fill="#7F582C"/>
<path d="M34.8434 5.48975C34.8486 5.72934 34.6663 5.93767 34.4372 5.94809L32.5569 6.04704C32.3278 6.05746 32.1403 5.86996 32.1351 5.63038L32.0934 3.61996C32.0882 3.38038 32.2705 3.17204 32.4997 3.16163L34.3799 3.06267C34.609 3.05225 34.7965 3.23454 34.8017 3.47934L34.8434 5.48975ZM34.3747 2.87517L32.4944 2.96892C32.1663 2.98975 31.9059 3.28142 31.9163 3.63038L31.9528 5.64079C31.9632 5.98454 32.234 6.25017 32.5622 6.23454L34.4424 6.13559C34.7705 6.11996 35.0309 5.82309 35.0205 5.47934L34.984 3.46892C34.9736 3.11996 34.7028 2.85434 34.3747 2.87517Z" fill="#7F582C"/>
<path d="M33.3639 3.52018C33.4108 4.81185 33.4108 4.88477 33.4056 5.13477C33.4004 5.18685 33.4004 5.24935 33.4004 5.33789C33.4004 5.36393 33.3535 5.46289 33.2806 5.48372C33.2337 5.49935 33.1816 5.46289 33.1608 5.45247C33.0827 5.40039 33.0514 5.31706 33.0358 5.27018L32.9316 5.30664C32.9473 5.36914 32.9889 5.48372 33.0983 5.55143C33.1296 5.57226 33.1921 5.60872 33.265 5.60352C33.2806 5.60352 33.291 5.60352 33.3066 5.59831C33.4264 5.56185 33.5098 5.41602 33.5098 5.33268C33.515 5.24935 33.515 5.18685 33.515 5.13477C33.5254 4.88477 33.5254 4.80664 33.4733 3.50977L33.3639 3.52018Z" fill="#7F582C"/>
<path d="M33.4004 3.5934C32.7962 3.65069 32.4785 4.59861 32.4785 4.59861C32.4785 4.59861 32.6452 4.37465 32.8275 4.39548C32.9681 4.41631 33.1139 4.57256 33.1139 4.57256C33.1139 4.57256 33.3118 4.31736 33.4733 4.30694C33.6087 4.30173 33.7858 4.4684 33.7858 4.4684C33.7858 4.4684 33.9577 4.31215 34.1087 4.30694C34.3118 4.30173 34.4577 4.45277 34.4577 4.45277C34.4577 4.45277 34.0202 3.53611 33.4004 3.5934Z" fill="#7F582C"/>
<path d="M38.2711 5.30664C38.2763 5.55144 38.0941 5.75456 37.8649 5.76498L35.9847 5.86394C35.7555 5.87956 35.568 5.69206 35.5628 5.44727L35.5211 3.43685C35.5159 3.19727 35.6982 2.99415 35.9274 2.97852L37.8076 2.87956C38.0368 2.86915 38.2243 3.05665 38.2295 3.29623L38.2711 5.30664ZM37.8024 2.69206L35.9222 2.79102C35.5941 2.80665 35.3336 3.10352 35.3441 3.44727L35.3805 5.45769C35.3909 5.80665 35.6618 6.07227 35.9899 6.05665L37.8701 5.95769C38.193 5.93685 38.4534 5.64519 38.4482 5.29623L38.4066 3.28581C38.4013 2.94206 38.1305 2.67644 37.8024 2.69206Z" fill="#7F582C"/>
<path d="M36.6087 5.64518L36.4264 5.6556L36.3848 3.62435L36.5671 3.61914L36.6087 5.64518Z" fill="#7F582C"/>
<path d="M36.4583 3.25L36.7813 3.98438L36.1719 4.01563L36.4583 3.25Z" fill="#7F582C"/>
<path d="M37.4121 5.60417L37.235 5.61458L37.1934 3.58333L37.3704 3.57812L37.4121 5.60417Z" fill="#7F582C"/>
<path d="M37.2806 3.20801L37.6035 3.94238L36.9941 3.97363L37.2806 3.20801Z" fill="#7F582C"/>
<path d="M37.709 5.62435L36.1361 5.70768L36.1309 5.5306L37.7038 5.44727L37.709 5.62435Z" fill="#7F582C"/>
<path d="M41.698 5.13036C41.698 5.36994 41.5209 5.57828 41.2917 5.58869L39.4115 5.68765C39.1824 5.69807 38.9897 5.51057 38.9897 5.27098L38.948 3.26057C38.9428 3.02098 39.1251 2.81265 39.3542 2.80223L41.2345 2.70327C41.4584 2.69286 41.6511 2.87515 41.6563 3.11994L41.698 5.13036ZM41.2292 2.51577L39.349 2.60952C39.0209 2.63036 38.7605 2.92202 38.7657 3.27098L38.8074 5.2814C38.8126 5.62515 39.0886 5.89078 39.4115 5.87515L41.2917 5.77619C41.6199 5.76057 41.8803 5.46369 41.8751 5.11994L41.8334 3.10952C41.8282 2.76578 41.5574 2.49494 41.2292 2.51577Z" fill="#7F582C"/>
<path d="M40.6921 3.80176C40.6973 3.98926 40.5827 4.17155 40.4056 4.22363C40.3796 4.22884 40.3535 4.23405 40.3223 4.23405C40.291 4.23926 40.265 4.23405 40.2389 4.22884C40.0618 4.19759 39.9368 4.03092 39.9316 3.83822L39.916 3.0153L40.6764 2.97363L40.6921 3.80176Z" fill="#7F582C"/>
<path d="M40.2865 5.30176L40.401 5.29655L40.3698 3.61426L40.25 3.61947L40.2865 5.30176Z" fill="#7F582C"/>
<path d="M40.8796 5.35872L39.8066 5.41602V5.28581L40.8796 5.22852V5.35872Z" fill="#7F582C"/>
<path d="M14.7083 46.3854C14.7135 46.6302 14.526 46.849 14.3021 46.8854L12.4219 47.151C12.1927 47.1823 12.0052 47.0104 12 46.7708L11.9792 44.7604C11.974 44.5208 12.1615 44.2969 12.3854 44.2656L14.2656 44C14.4948 43.9687 14.6823 44.1354 14.6875 44.3802L14.7083 46.3854ZM14.2656 43.8125L12.3854 44.0729C12.0573 44.1198 11.7969 44.4427 11.7969 44.7865L11.8229 46.7969C11.8281 47.1406 12.0937 47.3854 12.4219 47.3385L14.3021 47.0729C14.6302 47.026 14.8906 46.7083 14.8854 46.3646L14.8646 44.3542C14.8594 44.0052 14.5938 43.7656 14.2656 43.8125Z" fill="#7F582C"/>
<path d="M13.2448 44.5469C13.2865 45.8385 13.2865 45.9115 13.276 46.1615C13.2708 46.2188 13.2708 46.2813 13.2656 46.3646C13.2656 46.3958 13.2187 46.4948 13.151 46.5208C13.099 46.5417 13.0521 46.5104 13.026 46.5C12.9479 46.4583 12.9167 46.375 12.9063 46.3333L12.7969 46.375C12.8125 46.4375 12.8542 46.5469 12.9688 46.6094C12.9948 46.6198 13.0573 46.6562 13.1302 46.6458C13.1458 46.6458 13.1615 46.6406 13.1771 46.6354C13.2969 46.5885 13.3802 46.4323 13.3802 46.3542C13.3802 46.2708 13.3854 46.2083 13.3854 46.151C13.3958 45.901 13.3958 45.8229 13.3594 44.5312L13.2448 44.5469Z" fill="#7F582C"/>
<path d="M13.2858 44.6197C12.6816 44.7342 12.3535 45.703 12.3535 45.703C12.3535 45.703 12.5202 45.4686 12.7025 45.4738C12.8431 45.479 12.9889 45.6249 12.9889 45.6249C12.9889 45.6249 13.1868 45.3488 13.3535 45.328C13.4837 45.3072 13.6608 45.4582 13.6608 45.4582C13.6608 45.4582 13.8327 45.2863 13.9837 45.2707C14.1868 45.2447 14.3327 45.3853 14.3327 45.3853C14.3327 45.3853 13.9056 44.5051 13.2858 44.6197Z" fill="#7F582C"/>
<path d="M18.2345 45.8905C18.2397 46.1301 18.0574 46.3541 17.8282 46.3853L15.948 46.6509C15.7188 46.6822 15.5313 46.5103 15.5313 46.2707L15.5053 44.2603C15.5053 44.0207 15.6876 43.7968 15.9167 43.7655L17.797 43.4999C18.0209 43.4686 18.2084 43.6353 18.2136 43.8801L18.2345 45.8905ZM17.7917 43.3124L15.9115 43.578C15.5886 43.6249 15.323 43.9426 15.3282 44.2864L15.349 46.2968C15.3542 46.6405 15.6251 46.8853 15.948 46.8384L17.8282 46.5728C18.1563 46.5259 18.422 46.2082 18.4167 45.8645L18.3907 43.8541C18.3907 43.5103 18.1199 43.2655 17.7917 43.3124Z" fill="#7F582C"/>
<path d="M17.2441 44.6452C17.2493 44.8379 17.1296 45.0254 16.9577 45.0931C16.9264 45.1035 16.9004 45.1139 16.8691 45.1191C16.8431 45.1191 16.8118 45.1191 16.7858 45.1191C16.6087 45.1035 16.4889 44.9473 16.4889 44.7546L16.4785 43.9264L17.2337 43.8223L17.2441 44.6452Z" fill="#7F582C"/>
<path d="M16.8223 46.1872L16.9421 46.1715L16.9212 44.4893L16.8066 44.5049L16.8223 46.1872Z" fill="#7F582C"/>
<path d="M17.4225 46.1927L16.3496 46.3438V46.2135L17.4225 46.0625V46.1927Z" fill="#7F582C"/>
<path d="M39.8223 4.87435L37.416 5.07227V1.54622L39.8223 1.43164V4.87435Z" fill="#A37452"/>
<mask id="mask10_292_113719" style="mask-type:luminance" maskUnits="userSpaceOnUse" x="25" y="0" width="19" height="3">
<path d="M25.8027 0H43.1361V2.4375H25.8027V0Z" fill="white"/>
</mask>
<g mask="url(#mask10_292_113719)">
<path d="M41.0729 0.40625L26.4688 0.932292L27.9583 1.22396L42.5573 0.625L41.0729 0.40625Z" fill="#C99570"/>
</g>
<mask id="mask11_292_113719" style="mask-type:luminance" maskUnits="userSpaceOnUse" x="23" y="0" width="5" height="2">
<path d="M23.1348 0H27.1348V1.10417H23.1348V0Z" fill="white"/>
</mask>
<g mask="url(#mask11_292_113719)">
<path d="M24.1602 0.46875C24.1602 0.46875 24.7383 0.557292 24.931 0.588542C25.7435 0.703126 26.4674 0.932292 26.4674 0.932292L24.1602 0.46875Z" fill="#833B1F"/>
</g>
<path d="M27.959 1.22363C27.959 1.22363 28.735 1.3278 29.0319 1.37467C29.959 1.52051 30.9277 1.81217 30.9277 1.81217L27.959 1.22363Z" fill="#833B1F"/>
<path d="M36.1816 30.2184L33.9785 29.833V27.1299L36.1816 27.3955V30.2184Z" fill="#FCECD9"/>
<mask id="mask12_292_113719" style="mask-type:luminance" maskUnits="userSpaceOnUse" x="49" y="33" width="13" height="16">
<path d="M49.8027 33.1035H61.8027V48.9837H49.8027V33.1035Z" fill="white"/>
</mask>
<g mask="url(#mask12_292_113719)">
<path d="M61.1719 48.8792L49.875 46.3688V34.2646L61.1719 35.9469V48.8792Z" fill="#FEBE7E"/>
</g>
<mask id="mask13_292_113719" style="mask-type:luminance" maskUnits="userSpaceOnUse" x="61" y="33" width="7" height="16">
<path d="M61.1152 33.2129H67.3079V48.9316H61.1152V33.2129Z" fill="white"/>
</mask>
<g mask="url(#mask13_292_113719)">
<path d="M67.3021 44.9788L61.1719 48.8799V35.9476L67.3021 33.3174V44.9788Z" fill="#C47D49"/>
</g>
<mask id="mask14_292_113719" style="mask-type:luminance" maskUnits="userSpaceOnUse" x="49" y="32" width="19" height="5">
<path d="M49.8027 32.1191H67.3079V36.0827H49.8027V32.1191Z" fill="white"/>
</mask>
<g mask="url(#mask14_292_113719)">
<path d="M67.3021 33.3171L56.4635 32.1191L49.875 34.265L61.1719 35.9473L67.3021 33.3171Z" fill="#FEDC98"/>
</g>
<path d="M56.2663 37.7448L54.0371 37.3906V34.8906L56.2715 35.2292L56.2663 37.7448Z" fill="#BA835D"/>
<path d="M56.2715 35.2288L54.0371 34.8903L60.2038 32.5205L62.3079 32.7653L56.2715 35.2288Z" fill="#C99570"/>
<path d="M65.151 36.5778L63.75 37.2288V34.8486L65.151 34.2393V36.5778Z" fill="#A37452"/>
<path d="M65.151 46.3535L63.75 47.2493V44.7181L65.151 43.9629V46.3535Z" fill="#A37452"/>
<path d="M65.151 34.2389L54.2135 32.8535L52.6094 33.3743L63.75 34.8483L65.151 34.2389Z" fill="#C99570"/>
<path d="M57.2389 46.7447C57.2389 46.9582 57.0723 47.0884 56.8639 47.0416L55.1556 46.6561C54.9525 46.6093 54.7806 46.4009 54.7806 46.1874V44.4322C54.7806 44.2186 54.9525 44.0884 55.1556 44.1353L56.8639 44.5207C57.0723 44.5676 57.2389 44.7759 57.2389 44.9895V46.7447ZM56.8639 44.3541L55.1556 43.9686C54.8587 43.9009 54.6191 44.0936 54.6191 44.3957V46.1509C54.6191 46.453 54.8587 46.7551 55.1556 46.8228L56.8639 47.2082C57.1608 47.2759 57.4004 47.0832 57.4004 46.7811V45.0259C57.4004 44.7238 57.1608 44.4218 56.8639 44.3541Z" fill="#7F582C"/>
<path d="M55.9316 44.666C55.9577 45.8014 55.9525 45.8639 55.9421 46.0775C55.9421 46.1243 55.9368 46.1764 55.9316 46.2493C55.9316 46.2754 55.89 46.3483 55.8275 46.3483C55.7806 46.3483 55.7337 46.3066 55.7129 46.291C55.6452 46.2285 55.6191 46.1504 55.6087 46.1035L55.5098 46.1087C55.5202 46.166 55.5618 46.2754 55.6608 46.3639C55.6816 46.3848 55.7389 46.4368 55.8066 46.4525C55.8223 46.4525 55.8327 46.4577 55.8483 46.4577C55.9577 46.4577 56.0306 46.3483 56.0358 46.2806C56.041 46.2077 56.041 46.1504 56.041 46.1087C56.0566 45.89 56.0566 45.8223 56.0358 44.6868L55.9316 44.666Z" fill="#7F582C"/>
<path d="M55.9694 44.7396C55.4225 44.6406 55.1152 45.3802 55.1152 45.3802C55.1152 45.3802 55.2663 45.2292 55.4329 45.2917C55.5632 45.3437 55.6882 45.5156 55.6882 45.5156C55.6882 45.5156 55.8757 45.3437 56.0215 45.3802C56.1413 45.4062 56.2975 45.5937 56.2975 45.5937C56.2975 45.5937 56.459 45.5 56.5996 45.5365C56.7819 45.5781 56.9069 45.75 56.9069 45.75C56.9069 45.75 56.5319 44.8437 55.9694 44.7396Z" fill="#7F582C"/>
<mask id="mask15_292_113719" style="mask-type:luminance" maskUnits="userSpaceOnUse" x="56" y="43" width="6" height="6">
<path d="M56.4688 43.7705H61.8021V48.984H56.4688V43.7705Z" fill="white"/>
</mask>
<g mask="url(#mask15_292_113719)">
<path d="M60.3483 47.4478C60.3483 47.6613 60.1764 47.7915 59.9681 47.7447L58.265 47.3593C58.0566 47.3124 57.89 47.1041 57.89 46.8957V45.1353C57.89 44.927 58.0566 44.7916 58.265 44.8384L59.9681 45.2238C60.1764 45.2707 60.3483 45.4791 60.3483 45.6926V47.4478ZM59.9681 45.0572L58.265 44.6718C57.9681 44.6041 57.7285 44.7968 57.7285 45.0988V46.8541C57.7285 47.1561 57.9681 47.4582 58.265 47.5259L59.9681 47.9113C60.265 47.979 60.5098 47.7863 60.5098 47.4843V45.7291C60.5098 45.427 60.265 45.1249 59.9681 45.0572Z" fill="#7F582C"/>
</g>
<path d="M58.8333 47.3281L58.6719 47.2917V45.5156L58.8333 45.5521V47.3281Z" fill="#7F582C"/>
<path d="M58.7448 45.208L59.0208 45.9268L58.4688 45.8018L58.7448 45.208Z" fill="#7F582C"/>
<path d="M59.5618 47.4889L59.4004 47.4525V45.6816L59.5618 45.7181V47.4889Z" fill="#7F582C"/>
<path d="M59.4889 45.3799L59.765 46.0934L59.2129 45.9684L59.4889 45.3799Z" fill="#7F582C"/>
<path d="M59.8281 47.5833L58.4062 47.2604V47.1094L59.8281 47.4271V47.5833Z" fill="#7F582C"/>
<mask id="mask16_292_113719" style="mask-type:luminance" maskUnits="userSpaceOnUse" x="53" y="43" width="4" height="6">
<path d="M53.8027 43.7705H56.4694V48.984H53.8027V43.7705Z" fill="white"/>
</mask>
<g mask="url(#mask16_292_113719)">
<path d="M56.2715 47.791L54.0371 47.3066V44.8066L56.2715 45.1452V47.791Z" fill="#BA835D"/>
</g>
<path d="M49.875 34.2656C49.875 34.2656 50.75 34.3021 51.4844 34.3958C52.5573 34.5365 54.0781 34.8906 54.0781 34.8906L49.875 34.2656Z" fill="#BF6726"/>
<path d="M56.3027 35.208C56.3027 35.208 57.0892 35.2913 57.36 35.3174C59.235 35.4997 61.1725 35.9476 61.1725 35.9476L56.3027 35.208Z" fill="#BF6726"/>
</svg>
