<svg width="82" height="103" viewBox="0 0 82 103" fill="none" xmlns="http://www.w3.org/2000/svg">
<path d="M8.28057 25.6169C8.33266 25.6117 8.00453 25.6586 8.3587 25.695C8.70766 25.7471 2.50974 39.4867 2.68682 49.2523C2.87432 59.5909 5.27536 68.0753 2.08266 77.8461C-1.11526 87.6221 -0.427761 89.2784 2.76495 94.1638C5.95766 99.0544 38.2806 96.419 53.692 100.742C69.0983 105.065 83.5097 98.4867 81.2545 87.0232C78.9993 75.5596 80.442 43.9919 78.3743 34.7836C76.3066 25.5753 70.8587 27.1586 71.7962 19.2628C72.7389 11.3721 74.5358 -1.38308 67.2025 0.12213C59.8743 1.62213 48.067 2.84609 37.541 3.9763C27.0202 5.1013 10.1399 2.00755 5.62953 4.26275C1.11911 6.51796 3.69724 22.0388 4.38995 23.6117C4.89516 24.7575 5.37953 26.0388 8.28057 25.6169Z" fill="#DEC7A8"/>
<path d="M3.21844 43.9606C3.21844 43.9606 1.22885 46.8669 2.8226 54.6898C4.04135 62.8617 3.40594 69.945 3.77052 70.1377C4.1351 70.3408 13.2497 73.4086 14.9007 73.9033C18.4476 74.9606 23.4268 75.669 27.7132 75.5023C34.1403 75.2523 41.5205 74.6169 47.9528 74.3877C52.5361 74.2211 56.2861 75.0336 61.5205 75.8148C66.0466 76.4971 68.1664 78.5283 72.8226 76.8148C75.2132 75.9398 78.1403 75.2471 80.1976 73.7367L79.4841 44.1794C79.4841 44.1794 74.5518 41.8825 70.4528 45.3721C69.9528 45.7992 69.2549 45.8981 68.6664 45.6169C65.7497 44.2419 56.4841 41.3408 43.333 44.9763C27.7861 49.2679 18.8382 42.195 3.21844 43.9606Z" fill="#EFE7E7"/>
<path d="M10.5928 86.8564C10.5928 86.8564 24.1501 93.945 46.8532 95.8929" stroke="#542307" stroke-width="0.513605" stroke-linecap="round" stroke-linejoin="round"/>
<path d="M66.1504 25.0647C68.3066 30.0959 69.0098 48.3824 69.1244 48.9397C69.2389 49.4918 69.6348 73.8928 69.6348 76.5595C69.6348 79.2314 69.041 99.8928 69.041 99.8928" stroke="#542307" stroke-width="0.513605" stroke-linecap="round" stroke-linejoin="round"/>
<path d="M77.8588 77.6064C77.8224 79.6794 80.2234 83.4606 80.7338 84.2835" stroke="#542307" stroke-width="0.513605" stroke-linecap="round" stroke-linejoin="round"/>
<path d="M52.2021 43.1899C52.2021 43.1899 62.2959 42.5284 65.8896 44.4816C69.4834 46.4347 69.6396 45.2472 70.973 44.6326C72.3063 44.018 74.8949 42.8878 76.3324 43.7107" stroke="#542307" stroke-width="0.513605" stroke-linecap="round" stroke-linejoin="round"/>
<path d="M5.44727 25.221C10.0254 26.9502 31.3066 25.971 35.3379 26.5544C39.3639 27.1377 50.4629 28.2314 52.4785 28.7106C54.2233 29.1221 57.5931 28.8564 59.0566 25.3252C60.4993 21.8356 65.9785 9.5127 65.9785 9.5127" stroke="#542307" stroke-width="0.513605" stroke-linecap="round" stroke-linejoin="round"/>
<path d="M28.3955 4.06991C28.3955 4.06991 31.682 5.20012 36.3018 4.06991C40.9268 2.9397 51.3018 2.42407 51.3018 2.42407" stroke="#542307" stroke-width="0.513605" stroke-linecap="round" stroke-linejoin="round"/>
<path d="M53.0979 66.6168C53.0979 66.6168 52.6864 54.8043 53.2021 54.5959C53.7125 54.3928 57.2594 56.3407 57.2594 58.1897C57.2594 60.1949 55.7177 61.3251 53.2489 61.6324" stroke="#542307" stroke-width="1.33537" stroke-linecap="round" stroke-linejoin="round"/>
<path d="M59.0566 66.6168C59.0566 66.6168 54.2285 61.3772 52.9941 61.7886" stroke="#542307" stroke-width="1.33537" stroke-linecap="round" stroke-linejoin="round"/>
<path d="M42.874 66.4085C42.874 66.4085 44.8271 54.0335 45.6501 54.8043C46.473 55.5752 48.6813 66.4606 48.6813 66.4606" stroke="#542307" stroke-width="1.33537" stroke-linecap="round" stroke-linejoin="round"/>
<path d="M44.1084 61.273L47.0876 61.2209" stroke="#542307" stroke-width="1.33537" stroke-linecap="round" stroke-linejoin="round"/>
<path d="M38.5099 59.4241C38.5099 59.4241 37.7911 53.7731 35.2234 55.1116C32.6557 56.4449 31.9369 61.9918 33.7859 64.971C35.6349 67.9501 38.614 66.2054 38.8171 65.7939C39.0255 65.3824 38.8171 61.9918 38.8171 61.9918L36.5619 62.096" stroke="#542307" stroke-width="1.33537" stroke-linecap="round" stroke-linejoin="round"/>
<path d="M22.7961 54.8043C22.7961 54.8043 21.9523 66.247 25.8742 66.3095C29.369 66.3564 28.4419 55.0074 28.4419 54.5959" stroke="#542307" stroke-width="1.33537" stroke-linecap="round" stroke-linejoin="round"/>
<path d="M18.583 59.4242C18.583 59.4242 18.6872 53.4659 14.682 55.2107C12.7288 56.3929 13.6507 59.169 14.3747 60.195C15.0934 61.2211 19.3538 64.9711 17.4007 66.1013C15.4528 67.2315 13.6507 64.3565 13.6507 64.3565" stroke="#542307" stroke-width="1.33537" stroke-linecap="round" stroke-linejoin="round"/>
</svg>
