<svg width="68" height="26" viewBox="0 0 68 26" fill="none" xmlns="http://www.w3.org/2000/svg">
<path d="M35.0254 13.9899L35.2754 14.141L39.0202 14.2191L37.7077 13.5889L35.0254 13.9899Z" fill="#525763"/>
<path d="M30.707 8.73926L31.8841 12.1143L33.4883 13.0726L35.707 12.0413C35.707 12.0413 36.2279 11.5361 36.7747 11.0257C37.1549 10.6715 37.5508 10.3122 37.7799 10.1299C38.3372 9.68717 36.3581 7.23926 36.3581 7.23926L31.3893 7.49967L30.707 8.73926Z" fill="#9F9D95"/>
<path d="M33.4883 13.0732L35.0247 13.9899L37.707 13.5889L39.0195 14.2191L42.6497 12.3389L43.5299 11.3493C40.5664 11.2243 37.0143 11.042 36.7852 11.0264C36.7799 11.0264 36.7747 11.0264 36.7747 11.0264C36.2279 11.5368 35.707 12.042 35.707 12.042L33.4883 13.0732Z" fill="#606160"/>
<path d="M37.7813 10.1299C37.5521 10.3122 37.1563 10.6715 36.776 11.0257C36.776 11.0257 36.7813 11.0257 36.7865 11.0257C37.0156 11.0413 40.5677 11.2236 43.5365 11.3486L43.5781 11.3018L44.8906 9.82259L44.8333 9.67676L36.3594 7.23926C36.3594 7.23926 38.3385 9.68717 37.7813 10.1299Z" fill="#787872"/>
<path d="M22.3171 6.74512L22.1035 6.69824L19.916 7.86491L20.9837 7.97949L22.3171 6.74512Z" fill="#525763"/>
<path d="M27.4151 9.90137L25.0558 7.34928L23.6547 7.04199L22.8995 8.6722C22.8995 8.6722 22.8526 9.28678 22.7953 9.90658C22.7537 10.3441 22.7068 10.7868 22.6651 11.0212C22.5662 11.5889 24.9256 13.0732 24.9256 13.0732L27.6443 11.2035L27.4151 9.90137Z" fill="#9F9D95"/>
<path d="M23.6556 7.04199L22.3171 6.74512L20.9837 7.97949L19.916 7.86491L18.7702 10.7035L18.7598 11.8545C20.5254 10.9847 22.6504 9.97428 22.791 9.91178C22.791 9.90658 22.7962 9.90658 22.7962 9.90658C22.8535 9.28678 22.9004 8.6722 22.9004 8.6722L23.6556 7.04199Z" fill="#606160"/>
<path d="M22.666 11.0208C22.7077 10.7865 22.7546 10.3438 22.7962 9.90625C22.7962 9.90625 22.791 9.90625 22.791 9.91146C22.6504 9.97396 20.5254 10.9844 18.7598 11.8542V11.9115L18.7441 13.6302L18.8483 13.7396L24.9264 13.0729C24.9264 13.0729 22.5671 11.5885 22.666 11.0208Z" fill="#787872"/>
<path d="M55.9316 1.88574C55.8743 1.92741 55.8223 1.97428 55.765 2.01595C55.7181 2.05762 55.6608 2.09928 55.6035 2.14095C55.7754 2.27637 55.9681 2.42741 56.1764 2.58366C56.0983 2.34408 56.015 2.10449 55.9316 1.88574Z" fill="#9A9A92"/>
<mask id="mask0_292_113711" style="mask-type:luminance" maskUnits="userSpaceOnUse" x="54" y="0" width="12" height="5">
<path d="M54.8066 0H65.4733V4.98958H54.8066V0Z" fill="white"/>
</mask>
<g mask="url(#mask0_292_113711)">
<path d="M65.1296 3.23438C64.6556 3.45833 64.1035 3.66667 63.541 3.75521C63.1191 3.82292 62.6973 3.82292 62.2962 3.71354C60.4056 3.21354 59.1191 4.38021 58.7389 4.35417C58.5098 4.33854 57.2077 3.375 56.1764 2.58333C56.0983 2.34375 56.015 2.10417 55.9316 1.88542C56.5827 1.40104 57.4368 0.875 57.4368 0.875L60.3952 0C60.3952 0 61.9421 1.16146 63.3223 1.86979C64.4681 2.45833 64.9629 2.69792 65.1296 3.23438Z" fill="#C2C2BF"/>
<path d="M64.6608 2.99447C64.1868 3.22884 63.64 3.44238 63.0879 3.54134C63.0879 3.54134 63.0879 3.54134 63.0879 3.54655C62.6764 3.62467 62.2598 3.63509 61.8743 3.54655C60.0462 3.13509 58.7493 4.28613 58.3743 4.27572C58.1556 4.27051 56.9212 3.39551 55.9368 2.68197C55.8691 2.4528 55.7962 2.22884 55.7285 2.02572C56.3743 1.54134 57.2285 1.0153 57.2285 1.0153L60.1452 0.0830078C60.1452 0.0830078 61.6191 1.13509 62.9368 1.76009C64.0358 2.28092 64.5098 2.48926 64.6608 2.99447Z" fill="#908F86"/>
</g>
<path d="M56.9066 9.1875C56.8649 9.15625 56.8285 9.13542 56.792 9.11979C56.391 8.96354 55.1462 7.30729 55.1462 7.30729C55.1462 7.30729 53.8597 4.67708 53.9014 4.01042C53.9326 3.39062 54.9378 2.66146 55.6045 2.14062C55.7764 2.27604 55.9691 2.42708 56.1774 2.58333C56.3701 3.16146 56.5368 3.73438 56.5368 3.92188C56.5472 4.34896 56.5941 5.03125 57.0785 6.13021C57.2868 6.59375 57.2399 7.38542 57.1201 8.14063C57.0576 8.51563 56.9795 8.875 56.9066 9.1875Z" fill="#5B5B56"/>
<path d="M60.6719 10.7188C60.2656 10.6667 59.8073 10.6458 59.3802 10.7135C58.2708 10.901 57.9896 10.8073 57.9896 10.8073C57.9896 10.8073 57.3229 9.53125 56.9062 9.1875C56.9792 8.875 57.0573 8.51563 57.1198 8.14062C57.1719 8.18229 58.0729 8.75521 58.4635 8.90625C58.8646 9.0625 61.4792 8.63542 61.4792 8.63542C61.2552 9.33854 60.9219 10.1458 60.6719 10.7188Z" fill="#74746E"/>
<path d="M63.599 9.77083L61.8281 10.9792C61.8281 10.9792 61.3177 10.8073 60.6719 10.7188C60.9219 10.1458 61.2552 9.33854 61.4792 8.63542C61.8854 7.35938 62.1979 6.01563 62.4948 5.16146C62.7813 4.33333 63.5 3.78646 63.5417 3.75521C64.1042 3.66667 64.6562 3.45833 65.1302 3.23438C65.1667 3.33854 65.1875 3.45833 65.1979 3.59375C65.2656 4.40625 64.6927 8.22917 64.5156 8.49479C64.3385 8.76042 63.599 9.77083 63.599 9.77083Z" fill="#7E7D74"/>
<path d="M61.4779 8.63509C61.4779 8.63509 58.8633 9.06218 58.4622 8.90592C58.0716 8.75488 57.1706 8.18197 57.1185 8.1403C57.2383 7.38509 57.2852 6.59342 57.0768 6.12988C56.5924 5.03092 56.5456 4.34863 56.5352 3.92155C56.5352 3.73405 56.3685 3.16113 56.1758 2.58301C57.207 3.37467 58.5091 4.33822 58.7383 4.35384L61.4779 8.63509Z" fill="#6C6B63"/>
<path d="M61.4779 8.63545L58.7383 4.3542C59.1185 4.38024 60.4049 3.21358 62.2956 3.71358C62.6966 3.82295 63.1185 3.82295 63.5404 3.75524C63.4987 3.78649 62.7799 4.33337 62.4935 5.16149C62.1966 6.01566 61.8841 7.35941 61.4779 8.63545Z" fill="#C2C2BF"/>
<path d="M61.4779 8.63551L58.707 4.37509C59.056 4.42197 60.1445 3.39593 61.8841 3.99488C62.2539 4.12509 62.6393 4.15113 63.0143 4.11468C62.9779 4.14072 62.3633 4.61988 62.1602 5.39072C61.9518 6.18238 61.7591 7.4428 61.4779 8.63551Z" fill="#86857D"/>
<path d="M49.5 3.29688H49.4323L48.6094 5.13542L48.8958 7.4375L49.6406 7.90104L51.6146 9.01563L54.1771 10.1198L58.4271 10.0417L59.7135 8.38542L60.4896 7.96875L60.5781 7.79167L57.6302 4.39583L54.2135 4.45833L49.5 3.29688Z" fill="#9F9792"/>
<path d="M58.4271 10.042L54.9062 10.1097L55.4479 12.9482L57.6146 13.1982L58.4271 10.042Z" fill="#747270"/>
<path d="M54.9049 10.1094L54.0508 13.7604L54.0977 13.7708L54.9622 12.8906L55.4466 12.9479L54.9049 10.1094Z" fill="#666667"/>
<path d="M48.8945 7.4375L47.5039 11.5833L49.5872 12.7969L54.0508 13.7604L54.9049 10.1094L54.1758 10.1198L51.6133 9.01563L49.6393 7.90104L48.8945 7.4375Z" fill="#7B7877"/>
<path d="M46.6868 4.76562L46.1243 5.47396L45.7441 6.91146L48.0202 7.45313L47.2806 7.75521C47.2806 7.75521 46.8431 9.09375 46.4941 10.1771L47.3535 11.4948L47.5046 11.5833L48.8952 7.4375L48.6087 5.13542L46.6868 4.76562Z" fill="#838080"/>
<path d="M45.7435 6.91113L45.3477 8.41113L46.4935 10.1768C46.8424 9.09342 47.2799 7.75488 47.2799 7.75488L48.0195 7.4528L45.7435 6.91113Z" fill="#666667"/>
<path d="M49.4271 3.29688L47.8385 3.32813L46.6875 4.76563L48.6094 5.14063L49.4271 3.29688Z" fill="#747270"/>
<path d="M60.4883 7.96875L59.7122 8.38542L58.4258 10.0417L57.6133 13.1979L57.8008 13.2188L60.4883 7.96875Z" fill="#838283"/>
<path d="M53.2747 12.3073C52.8945 12.4115 52.4518 12.5313 51.9674 12.6667C51.9102 12.6823 51.8581 12.6979 51.7956 12.7135C51.7904 12.7187 51.7852 12.7188 51.7747 12.7188C51.7331 12.7344 51.6914 12.7448 51.6445 12.7604C51.4622 12.8125 51.2747 12.8646 51.082 12.9219C51.0195 12.9375 50.957 12.9583 50.8997 12.974C50.8685 12.9844 50.8372 12.9948 50.806 13.0052C50.431 13.1146 50.0508 13.2292 49.6654 13.3542C49.5977 13.375 49.5352 13.3906 49.4727 13.4115C49.457 13.4167 49.4414 13.4219 49.431 13.4271C49.3164 13.4635 49.2018 13.5 49.0872 13.5365C49.0195 13.5573 48.957 13.5781 48.8945 13.599C48.8841 13.6042 48.8737 13.6094 48.8581 13.6146C48.681 13.6719 48.5039 13.7292 48.332 13.7917C48.3216 13.7969 48.3112 13.8021 48.2956 13.8021C48.2435 13.8229 48.1914 13.8385 48.1341 13.8594C47.9466 13.9271 46.7174 14.2188 46.5404 14.2865L45.7539 13.6146L47.556 11.6094L53.2747 12.3073Z" fill="#7D7F7A"/>
<path d="M48.8581 13.6143C48.6862 13.6715 48.5091 13.7288 48.332 13.7913C48.5039 13.7288 48.681 13.6715 48.8581 13.6143Z" fill="#9F9D95"/>
<path d="M53.9108 12.3857L52.7285 13.7347L51.8066 13.9014C51.8066 13.9014 51.8014 13.9066 51.791 13.9066H51.7806C51.7077 13.9222 51.4733 13.9743 51.1608 14.0472C51.1296 14.0524 51.0983 14.0628 51.0618 14.0732C50.9889 14.0889 50.9056 14.1097 50.8275 14.1253C50.791 14.1357 50.7546 14.1462 50.7181 14.1566C50.3535 14.2451 49.9525 14.3545 49.5827 14.4743C49.5566 14.4795 49.5358 14.4899 49.515 14.4951C49.4368 14.5212 49.3639 14.5472 49.2962 14.568C49.2702 14.5784 49.2493 14.5889 49.2285 14.5941C49.0306 14.667 48.0827 15.0941 47.9473 15.167L46.541 14.2868C46.7181 14.2191 47.9525 13.9274 48.1348 13.8597C48.1921 13.8389 48.2441 13.8232 48.2962 13.8024C48.3118 13.7972 48.3223 13.7972 48.3327 13.792C48.5098 13.7295 48.6868 13.6722 48.8639 13.6149C48.8743 13.6097 48.8848 13.6045 48.8952 13.5993C48.9577 13.5785 49.0254 13.5576 49.0879 13.5368C49.2025 13.5003 49.3171 13.4639 49.4316 13.4274C49.4421 13.4222 49.4577 13.417 49.4733 13.4118C49.5358 13.391 49.5983 13.3753 49.666 13.3545C50.0514 13.2295 50.4316 13.1149 50.8066 13.0055C50.8379 12.9951 50.8691 12.9847 50.9004 12.9743C50.9577 12.9587 51.0202 12.9378 51.0827 12.9222C51.2754 12.8649 51.4629 12.8128 51.6452 12.7607C51.6921 12.7451 51.7337 12.7347 51.7754 12.7191C51.7858 12.7191 51.791 12.7191 51.7962 12.7139C51.8587 12.6982 51.9108 12.6826 51.9681 12.667C52.4525 12.5316 52.8952 12.4118 53.2754 12.3076L53.9108 12.3857Z" fill="#737775"/>
<path d="M47.5573 11.6094L45.7604 13.6146L44.8281 12.7292C45.2865 12.599 45.9271 12.0938 45.9948 12.0833C46.0938 12.0729 46.8333 11.8333 47.4323 11.5938L47.5573 11.6094Z" fill="#696D6D"/>
<path d="M52.7285 13.7344L52.7181 13.7448L52.4056 14.4427L52.0827 15.849C52.0827 15.849 51.6035 15.6875 50.0827 15.6094C50.0671 15.6094 50.0046 15.6042 49.9056 15.5938L47.9473 15.1667C48.0827 15.0938 49.0306 14.6667 49.2285 14.5938C49.2493 14.5885 49.2702 14.5781 49.2962 14.5677C49.3639 14.5469 49.4368 14.5208 49.515 14.4948C49.5358 14.4896 49.5566 14.4792 49.5827 14.474C49.9525 14.3542 50.3535 14.2448 50.7181 14.1563C50.7546 14.1458 50.791 14.1354 50.8275 14.125C50.9056 14.1094 50.9889 14.0885 51.0618 14.0729C51.0983 14.0625 51.1296 14.0521 51.1608 14.0469C51.4733 13.974 51.7077 13.9219 51.7806 13.9063H51.791C51.8014 13.9063 51.8066 13.901 51.8066 13.901L52.7285 13.7344Z" fill="#696D6D"/>
<path d="M47.4316 11.5941C46.8327 11.8337 46.0931 12.0732 45.9941 12.0837C45.9264 12.0941 45.2858 12.5993 44.8275 12.7295L44.1973 11.818L44.9577 11.8076L47.1243 11.5576L47.4316 11.5941Z" fill="#323333"/>
<path d="M7.79622 8.98438C7.72331 9.22917 7.65039 9.47917 7.65039 9.47917L8.42122 10.8333L8.18164 11.5417L8.56706 10.8385L8.25456 9.05729L7.79622 8.98438Z" fill="#4A4C4C"/>
<path d="M5.68164 10.693L8.07747 11.7347L8.18164 11.542L8.42122 10.8337L7.65039 9.47949L6.61393 9.52637L5.69727 10.5993C5.68685 10.6566 5.68164 10.693 5.68164 10.693Z" fill="#5C5E5E"/>
<path d="M7.16081 8.89063L6.33789 8.76562C6.33789 8.77083 6.33789 8.77083 6.33789 8.77604C6.32747 8.80208 6.31706 8.82812 6.30664 8.85417C6.2806 8.91146 6.25977 8.96875 6.23893 9.02604C6.22851 9.04167 6.22331 9.05729 6.2181 9.07813C6.13997 9.26042 6.06185 9.4375 5.98372 9.60938C5.97852 9.625 5.9681 9.64063 5.95768 9.66146V9.66667C5.93685 9.70313 5.92122 9.73958 5.9056 9.77604C5.90039 9.78125 5.89518 9.78646 5.89518 9.79167C5.88477 9.80729 5.87956 9.82292 5.86914 9.84375L5.86393 9.84896C5.85351 9.86458 5.84831 9.88021 5.83789 9.90104C5.82747 9.91667 5.81706 9.9375 5.80664 9.95313V9.95833C5.79622 9.97396 5.78581 9.98958 5.7806 10.0104C5.77018 10.026 5.75977 10.0417 5.74935 10.0625C5.72852 10.2917 5.70768 10.4896 5.69727 10.599L6.61393 9.52604L7.16081 8.89063Z" fill="#9F9D95"/>
<path d="M6.33724 8.76563L5.69661 8.67188C5.69141 8.67708 5.69141 8.68229 5.6862 8.6875C5.68099 8.69271 5.68099 8.70313 5.67578 8.70833C5.67057 8.71354 5.66536 8.72396 5.66016 8.73438C5.65495 8.73958 5.64974 8.74479 5.64974 8.75521C5.64453 8.75521 5.64453 8.76042 5.64453 8.76042C5.63932 8.76562 5.63411 8.77604 5.62891 8.78125C5.6237 8.78646 5.61849 8.79688 5.61328 8.80208C5.60807 8.80729 5.60286 8.81771 5.59766 8.82292C5.59245 8.82812 5.58724 8.83333 5.58724 8.83854C5.58203 8.84375 5.58203 8.84375 5.57682 8.84896C5.57682 8.84896 5.57161 8.84896 5.57161 8.85417L5.56641 8.85938C5.5612 8.86458 5.5612 8.86458 5.5612 8.86458C5.55599 8.86979 5.55078 8.875 5.55078 8.875C5.54557 8.88021 5.54036 8.88542 5.53516 8.89063C5.44141 8.96875 5.35286 9.03646 5.26953 9.10417C5.3737 9.39583 5.76953 9.75 5.7487 10.0625C5.75912 10.0417 5.76953 10.026 5.77995 10.0104C5.78516 9.98958 5.79557 9.97396 5.80599 9.95833V9.95313C5.81641 9.9375 5.82682 9.91667 5.83724 9.90104C5.84766 9.88021 5.85286 9.86458 5.86328 9.84896L5.86849 9.84375C5.8737 9.82292 5.88412 9.80729 5.89453 9.79167C5.89453 9.78646 5.89974 9.78125 5.90495 9.77604C5.92057 9.73958 5.9362 9.70313 5.95703 9.66667V9.66146C5.96745 9.64063 5.97786 9.625 5.98307 9.60938C6.0612 9.4375 6.13932 9.26042 6.21745 9.07813C6.22266 9.05729 6.22786 9.04167 6.23828 9.02604C6.25911 8.96875 6.27995 8.91146 6.30599 8.85417C6.31641 8.82812 6.32682 8.80208 6.33724 8.77604C6.33724 8.77083 6.33724 8.77083 6.33724 8.76563Z" fill="#80827F"/>
<path d="M7.16016 8.89062L6.61328 9.52604L7.64974 9.47917C7.64974 9.47917 7.72266 9.22917 7.79557 8.98438L7.16016 8.89062Z" fill="#787872"/>
<path d="M5.02539 8.56738C5.08789 8.71322 5.25977 9.0778 5.27018 9.10384C5.35352 9.03613 5.44206 8.96842 5.53581 8.8903C5.54102 8.88509 5.54622 8.87988 5.55143 8.87467C5.55143 8.87467 5.55664 8.86947 5.56185 8.86426C5.56185 8.86426 5.56185 8.86426 5.56706 8.85905L5.57227 8.85384C5.57227 8.84863 5.57747 8.84863 5.57747 8.84863C5.58268 8.84342 5.58268 8.84342 5.58789 8.83822C5.58789 8.83301 5.5931 8.8278 5.59831 8.82259C5.60352 8.81738 5.60872 8.80697 5.61393 8.80176C5.61914 8.79655 5.62435 8.78613 5.62956 8.78092C5.63477 8.77572 5.63997 8.7653 5.64518 8.76009C5.64518 8.76009 5.64518 8.75488 5.65039 8.75488C5.65039 8.74447 5.6556 8.73926 5.66081 8.73405C5.66602 8.72363 5.67122 8.71322 5.67643 8.70801C5.68164 8.7028 5.68164 8.69238 5.68685 8.68717C5.69206 8.68197 5.69206 8.67676 5.69727 8.67155L5.02539 8.56738Z" fill="#696D6D"/>
<path d="M10.2031 9.8278C10.3698 10.0205 10.5365 10.2184 10.5365 10.2184L12.1146 10.3538L12.5729 10.9424L12.1979 10.234L10.5208 9.48926L10.2031 9.8278Z" fill="#4A4C4C"/>
<path d="M10.4577 12.4948L12.6764 11.1354L12.5723 10.9427L12.1139 10.3542L10.5358 10.2188L9.99414 11.0833L10.3848 12.4375C10.4316 12.474 10.4577 12.4948 10.4577 12.4948Z" fill="#5C5E5E"/>
<path d="M9.76497 10.2861L9.19727 10.8851C9.20247 10.8851 9.20247 10.8903 9.20247 10.8903C9.22331 10.9163 9.23893 10.9372 9.25456 10.9632C9.29101 11.0153 9.32747 11.0622 9.36393 11.1143C9.37435 11.1299 9.38477 11.1403 9.38997 11.1559C9.50456 11.3226 9.61393 11.484 9.70768 11.6455C9.7181 11.6611 9.72851 11.6768 9.73893 11.6924C9.73893 11.6976 9.74414 11.6976 9.74414 11.7028C9.76497 11.7341 9.78581 11.7705 9.80664 11.8018C9.80664 11.807 9.81185 11.8122 9.81185 11.8174C9.82227 11.8382 9.83268 11.8538 9.8431 11.8695C9.8431 11.8747 9.8431 11.8747 9.84831 11.8747C9.85352 11.8955 9.86393 11.9111 9.87435 11.9268C9.88477 11.9476 9.89518 11.9632 9.9056 11.984C9.91601 11.9997 9.92643 12.0205 9.93164 12.0361C9.94206 12.057 9.95247 12.0726 9.96289 12.0882C10.1452 12.234 10.3014 12.3643 10.3848 12.4372L9.99414 11.083L9.76497 10.2861Z" fill="#9F9D95"/>
<path d="M9.19727 10.8857L8.75977 11.3545C8.75977 11.3597 8.76497 11.3649 8.76497 11.3701C8.77018 11.3753 8.77539 11.3857 8.77539 11.391C8.7806 11.4014 8.78581 11.4066 8.79102 11.417C8.79622 11.4222 8.79622 11.4326 8.80143 11.4378C8.80143 11.443 8.80143 11.443 8.80664 11.4482C8.80664 11.4535 8.81185 11.4639 8.81185 11.4691C8.81706 11.4795 8.82227 11.4847 8.82227 11.4951C8.82747 11.5003 8.82747 11.5107 8.83268 11.516C8.83268 11.5264 8.83789 11.5316 8.83789 11.5368C8.83789 11.542 8.83789 11.5472 8.8431 11.5472C8.8431 11.5524 8.8431 11.5524 8.8431 11.5576C8.8431 11.5576 8.8431 11.5628 8.84831 11.568V11.5732C8.84831 11.5785 8.84831 11.5837 8.84831 11.5889C8.85352 11.5941 8.85352 11.6045 8.85352 11.6097C8.86393 11.7243 8.87435 11.8389 8.88477 11.943C9.19206 12.0212 9.71289 11.9014 9.96289 12.0889C9.95247 12.0732 9.94206 12.0576 9.93164 12.0368C9.92643 12.0212 9.91601 12.0003 9.9056 11.9847C9.89518 11.9639 9.88477 11.9482 9.87435 11.9274C9.86393 11.9118 9.85352 11.8962 9.84831 11.8753C9.8431 11.8753 9.8431 11.8753 9.8431 11.8701C9.83268 11.8545 9.82227 11.8389 9.81185 11.818C9.81185 11.8128 9.80664 11.8076 9.80664 11.8024C9.78581 11.7712 9.76497 11.7347 9.74414 11.7035C9.74414 11.6982 9.73893 11.6982 9.73893 11.693C9.72851 11.6774 9.7181 11.6618 9.70768 11.6462C9.61393 11.4847 9.50456 11.3232 9.38997 11.1566C9.37956 11.141 9.37435 11.1305 9.36393 11.1149C9.32747 11.0628 9.29101 11.0159 9.25456 10.9639C9.23893 10.9378 9.22331 10.917 9.20247 10.891C9.20247 10.891 9.20247 10.8857 9.19727 10.8857Z" fill="#80827F"/>
<path d="M9.76562 10.2865L9.99479 11.0833L10.5365 10.2188C10.5365 10.2188 10.3698 10.0208 10.2031 9.82812L9.76562 10.2865Z" fill="#787872"/>
<path d="M8.29688 11.8441C8.45312 11.8701 8.85937 11.9378 8.88542 11.943C8.875 11.8389 8.86458 11.7243 8.85417 11.6097C8.85417 11.6045 8.85417 11.5941 8.84896 11.5889C8.84896 11.5837 8.84896 11.5785 8.84896 11.5732V11.568C8.84375 11.5628 8.84375 11.5576 8.84375 11.5576C8.84375 11.5524 8.84375 11.5524 8.84375 11.5472C8.83854 11.5472 8.83854 11.542 8.83854 11.5368C8.83854 11.5316 8.83333 11.5264 8.83333 11.516C8.82813 11.5107 8.82812 11.5003 8.82292 11.4951C8.82292 11.4847 8.81771 11.4795 8.8125 11.4691C8.8125 11.4639 8.80729 11.4535 8.80729 11.4482C8.80208 11.443 8.80208 11.443 8.80208 11.4378C8.79688 11.4326 8.79688 11.4222 8.79167 11.417C8.78646 11.4066 8.78125 11.4014 8.77604 11.391C8.77604 11.3857 8.77083 11.3753 8.76563 11.3701C8.76563 11.3649 8.76042 11.3597 8.76042 11.3545L8.29688 11.8441Z" fill="#696D6D"/>
<path d="M44.5729 21.7549L44.5781 21.8538L43.8438 22.5361L43.8698 22.057L44.5729 21.7549Z" fill="#525763"/>
<path d="M43.4635 18.8802L44.5052 20.4479L44.5417 21.1146L43.6927 21.0833C43.6927 21.0833 43.3958 20.9687 43.0885 20.8594C42.875 20.7812 42.6563 20.7031 42.5417 20.6667C42.2604 20.5885 41.7344 19.2552 41.7344 19.2552L42.8542 18.5L43.4635 18.8802Z" fill="#9F9D95"/>
<path d="M44.5417 21.1146L44.5729 21.7552L43.875 22.0573L43.8438 22.5365L42.3854 22.4063L41.8281 22.1615C42.3906 21.5938 43.0469 20.9062 43.0885 20.8594C43.3958 20.9687 43.6927 21.0833 43.6927 21.0833L44.5417 21.1146Z" fill="#606160"/>
<path d="M42.5404 20.6663C42.6549 20.7028 42.8737 20.7809 43.0872 20.859C43.0456 20.9059 42.3893 21.5934 41.8268 22.1611L41.8008 22.1455L40.9727 21.7809L40.9258 21.708L41.7331 19.2549C41.7331 19.2549 42.2591 20.5882 42.5404 20.6663Z" fill="#787872"/>
<path d="M48.916 16.7393L48.9368 16.7445L49.1348 17.4476L48.9681 18.2913L48.7181 18.4476L48.0566 18.8122L47.2129 19.1559L45.8691 19.0205L45.515 18.3747L45.2858 18.1976L45.2598 18.1299L46.3066 16.9424L47.3848 17.0518L48.916 16.7393Z" fill="#9F9792"/>
<path d="M45.8691 19.0205L46.9785 19.1351L46.7129 20.1715L46.0202 20.2132L45.8691 19.0205Z" fill="#747270"/>
<path d="M46.9785 19.1357L47.1296 20.5107L47.1139 20.516L46.8691 20.167L46.7129 20.1722L46.9785 19.1357Z" fill="#666667"/>
<path d="M48.9681 18.292L49.2754 19.8701L48.5723 20.266L47.1296 20.5107L46.9785 19.1357L47.2129 19.1566L48.0566 18.8128L48.7181 18.4482L48.9681 18.292Z" fill="#7B7877"/>
<path d="M49.7552 17.3594L49.9115 17.6354L49.9844 18.1771L49.25 18.3229L49.4688 18.4531C49.4688 18.4531 49.5677 18.9583 49.6406 19.3698L49.3229 19.8385L49.276 19.8698L48.9688 18.2917L49.1354 17.4479L49.7552 17.3594Z" fill="#838080"/>
<path d="M49.9844 18.1768L50.0625 18.7445L49.6406 19.3695C49.5677 18.958 49.4688 18.4528 49.4688 18.4528L49.25 18.3226L49.9844 18.1768Z" fill="#666667"/>
<path d="M48.9375 16.7451L49.4427 16.7972L49.7552 17.3597L49.1354 17.4482L48.9375 16.7451Z" fill="#747270"/>
<path d="M45.2852 18.1982L45.5143 18.3753L45.8685 19.0212L46.0195 20.2139H45.9622L45.2852 18.1982Z" fill="#838283"/>
<path d="M17.7344 16.0312H17.7135L17.4844 16.5573L17.5729 17.2083L17.7813 17.3385L18.3438 17.651L19.0729 17.9583L20.276 17.9271L20.6406 17.4583L20.8594 17.3385L20.8854 17.2865L20.0417 16.3281L19.0729 16.3542L17.7344 16.0312Z" fill="#9F9792"/>
<path d="M20.276 17.9268L19.2812 17.9528L19.4375 18.7549L20.0521 18.8226L20.276 17.9268Z" fill="#747270"/>
<path d="M19.2813 17.9531L19.0469 18.9896L19.0573 18.9948L19.3021 18.7396L19.4375 18.7552L19.2813 17.9531Z" fill="#666667"/>
<path d="M17.5723 17.208L17.1816 18.3851L17.7754 18.7236L19.0462 18.9893L19.2806 17.9528L19.0723 17.958L18.3431 17.6507L17.7806 17.3382L17.5723 17.208Z" fill="#7B7877"/>
<path d="M16.9362 16.4531L16.7799 16.6563L16.6758 17.0625L17.3216 17.2135L17.1133 17.3021C17.1133 17.3021 16.9883 17.6823 16.8945 17.9896L17.1393 18.3594L17.181 18.3854L17.5716 17.2083L17.4831 16.5573L16.9362 16.4531Z" fill="#838080"/>
<path d="M16.6758 17.0625L16.5664 17.4896L16.8945 17.9896C16.9883 17.6823 17.1133 17.3021 17.1133 17.3021L17.3216 17.2135L16.6758 17.0625Z" fill="#666667"/>
<path d="M17.7135 16.0312L17.2656 16.0417L16.9375 16.4531L17.4844 16.5573L17.7135 16.0312Z" fill="#747270"/>
<path d="M20.8581 17.3389L20.6393 17.4587L20.2747 17.9274L20.0508 18.8232L20.1081 18.8285L20.8581 17.3389Z" fill="#838283"/>
<path d="M62.8893 20.5049L59.207 21.1715L59.3737 19.9997L60.9727 19.3799C61.8268 19.807 62.8893 20.5049 62.8893 20.5049Z" fill="#5C5E5E"/>
<path d="M65.0247 20.6507L62.8893 20.5049C62.8893 20.5049 61.8268 19.807 60.9727 19.3799L61.0872 19.3174L62.2435 19.4268L64.4466 19.8122L65.0247 20.6507Z" fill="#838283"/>
<path d="M59.207 21.1715L62.5039 21.4215L64.8789 21.208L65.0247 20.6507L62.8893 20.5049L59.207 21.1715Z" fill="#787872"/>
<path d="M35.707 17.1354L36.8841 19.3229L37.9102 17.3906L37.7174 15.9062C36.8893 16.3333 35.707 17.1354 35.707 17.1354Z" fill="#5C5E5E"/>
<path d="M34.5254 16.7184L35.7077 17.1351C35.7077 17.1351 36.89 16.333 37.7181 15.9059V15.7705L37.0462 15.5986L35.6035 15.5518L34.5254 16.7184Z" fill="#838283"/>
<path d="M36.8848 19.3229L35.0358 18.7188L34.0723 17.6563L34.5254 16.7188L35.7077 17.1354L36.8848 19.3229Z" fill="#787872"/>
<path d="M55.1289 22.5574L56.4883 23.9741C56.4935 23.9845 56.5091 23.9793 56.5143 23.9741L57.0143 23.422C57.0143 23.422 57.0195 23.4116 57.0195 23.4063L56.8529 22.5418C56.8529 22.5366 56.8529 22.5366 56.8529 22.5366L56.3841 21.5886C56.3789 21.573 56.3633 21.573 56.3529 21.5834L55.7852 22.1824C55.7852 22.1824 55.7852 22.1824 55.7799 22.1876L55.1289 22.5261C55.1185 22.5313 55.1185 22.547 55.1289 22.5574Z" fill="#868581"/>
<path d="M56.3793 21.5732L56.8532 22.5368C56.8532 22.5368 56.8532 22.5368 56.8532 22.542L57.0095 23.3805C57.0147 23.3962 57.0355 23.4014 57.0459 23.3857L57.072 23.3597C57.0772 23.3545 57.0824 23.3545 57.0876 23.3545H57.4782C57.4886 23.3545 57.4991 23.3441 57.4991 23.3337L57.6084 21.3128C57.6136 21.3076 57.6084 21.2972 57.6032 21.2972L57.0824 20.8597C57.0772 20.8545 57.072 20.8545 57.0668 20.8545L56.947 20.8701C56.9418 20.8701 56.9366 20.8701 56.9366 20.8753C56.6814 21.1618 56.4261 21.4951 56.3793 21.5524C56.3793 21.5576 56.3741 21.5628 56.3793 21.5732Z" fill="#5E605F"/>
<path d="M53.5469 22.229L53.8698 22.4686C53.8698 22.4738 53.875 22.4738 53.8802 22.4738L55.1042 22.5363C55.1094 22.5363 55.1094 22.5363 55.1146 22.5363L55.7813 22.1873C55.7865 22.1821 55.7865 22.1821 55.7865 22.1821L56.375 21.5623C56.3906 21.5415 56.6458 21.203 56.9063 20.9061C56.9219 20.8905 56.9115 20.8696 56.8906 20.8748L55.0885 21.0571C55.0833 21.0571 55.0833 21.0571 55.0781 21.0571L53.5469 22.1978C53.5365 22.203 53.5365 22.2186 53.5469 22.229Z" fill="#9B9D9D"/>
<path d="M53.7344 22.1722L53.7396 22.3753C53.7396 22.3753 53.9219 22.4378 53.9271 22.4378L55.1042 22.5628C55.1094 22.5628 55.1979 22.4899 55.2031 22.4899L55.7187 22.1305C55.724 22.1305 55.724 22.1305 55.724 22.1305L56.25 21.5785C56.2604 21.5628 56.4896 21.2607 56.724 20.9951C56.7344 20.9795 56.724 20.9639 56.7083 20.9639L55.1042 21.1253C55.099 21.1253 55.099 21.1305 55.0937 21.1305L53.7344 22.141C53.724 22.1514 53.724 22.1618 53.7344 22.1722Z" fill="#949595"/>
<path d="M54.6667 24.2131L56.4532 24.036C56.4584 24.036 56.4636 24.036 56.4636 24.0308L56.4896 23.9996C56.5001 23.9944 56.5001 23.9839 56.4896 23.9735L55.1355 22.5621C55.1251 22.5516 55.1042 22.5569 55.099 22.5725L54.6459 24.1923C54.6407 24.2027 54.6511 24.2183 54.6667 24.2131Z" fill="#5C5D5B"/>
<path d="M53.5039 22.2344V22.8854C53.5039 22.8906 53.5091 22.8958 53.5091 22.8958L54.5977 24.2135C54.6029 24.2187 54.6081 24.2187 54.6133 24.2187H54.6237C54.6289 24.2187 54.6393 24.2135 54.6393 24.2031L55.1029 22.5625C55.1081 22.5469 55.0977 22.5365 55.082 22.5365L53.8789 22.474C53.8737 22.474 53.8685 22.474 53.8685 22.4687L53.5404 22.2187C53.5299 22.2135 53.5195 22.2135 53.5143 22.2187C53.5091 22.224 53.5039 22.2292 53.5039 22.2344Z" fill="#787872"/>
<path d="M34.4004 20.4632C34.4421 20.4476 34.9785 20.3955 35.5254 19.6091C36.0775 18.8226 37.1921 19.3018 37.1921 19.3018C37.1921 19.3018 39.1296 19.932 39.14 20.0205C39.1504 20.1039 39.8639 20.6872 39.8743 21.0882C39.8848 21.4945 38.0931 22.2132 38.0931 22.2132L36.3639 22.333L35.7337 22.182L34.4004 20.4632Z" fill="#656865"/>
<path d="M40.1758 20.4632C40.1758 20.4632 40.1393 20.7601 40.0352 21.1038C40.0091 21.1872 39.9674 21.2913 39.931 21.3903L37.5404 21.6455L36.3633 22.2913V20.9528L38.3841 19.708C38.5299 19.7601 38.6185 19.7965 38.6185 19.7965L40.1758 20.4632Z" fill="#797974"/>
<path d="M39.931 21.3906C39.806 21.6875 39.6445 21.9896 39.6445 21.9896L38.582 22.3333H36.3633V22.2917L37.5404 21.6458L39.931 21.3906Z" fill="#6B6C66"/>
<path d="M38.3639 19.6976L36.2181 20.734L35.2962 20.3018L35.1348 20.1715C35.2493 19.9632 35.7546 19.1299 36.3171 19.1299C36.7962 19.1299 37.8691 19.5101 38.3639 19.6976Z" fill="#858785"/>
<path d="M36.3118 22.318L36.2806 22.3337L34.6868 21.891L34.4004 20.4639L35.1087 20.2139L35.2962 20.3024L36.1243 20.9899L36.3118 22.318Z" fill="#646763"/>
<path d="M38.0143 19.9269L36.3529 20.953V22.0519L36.3633 22.2915L36.1602 20.979L35.1914 20.2134L36.2383 20.7707L37.9987 19.9217C38.3841 19.7082 38.0091 19.9269 38.0143 19.9269Z" fill="#98978E"/>
<path d="M11.7852 17.5003C12.0091 17.6878 12.2852 17.9118 12.5143 18.0524C12.5924 18.1045 12.6706 18.1462 12.7331 18.1722C13.1654 18.3545 13.4102 18.6878 13.5664 18.9014C13.7174 19.1149 14.306 18.9014 14.582 18.9014C14.7279 18.9014 14.9622 18.7607 15.1654 18.6201L14.8633 17.6878L13.0404 16.4482C13.0404 16.4482 12.7018 16.5055 12.5768 16.6618C12.4622 16.8024 11.9935 17.2868 11.7852 17.5003Z" fill="#9A9A92"/>
<path d="M13.2852 19.3545L13.4258 20.7451C13.5456 20.7816 13.6289 20.8076 13.6289 20.8076C13.6289 20.8076 13.9049 20.8701 14.1914 20.8857C14.7383 20.6357 14.707 20.3857 14.7695 20.141C14.8008 20.0107 15.0456 19.6722 15.2539 19.3962C15.2487 19.1774 15.2227 18.9222 15.1706 18.6305L15.1654 18.6201C14.9622 18.7607 14.7279 18.9014 14.582 18.9014C14.3789 18.9014 13.9987 19.0212 13.7539 18.9899L13.2852 19.3545Z" fill="#646763"/>
<path d="M11.9004 18.9945L12.1452 19.3226L13.2858 19.3538L13.7546 18.9893C13.6712 18.9788 13.6035 18.9528 13.5671 18.9007C13.4108 18.6872 13.166 18.3538 12.7337 18.1715C12.6712 18.1455 12.5931 18.1038 12.515 18.0518L11.9004 18.9945Z" fill="#858785"/>
<path d="M14.1914 20.8851C14.4102 20.8955 14.6289 20.8851 14.7383 20.807C14.9362 20.6611 15.2799 20.3538 15.2539 19.3955C15.0456 19.6715 14.8008 20.0101 14.7695 20.1403C14.707 20.3851 14.7383 20.6351 14.1914 20.8851Z" fill="#5D5D58"/>
<path d="M10.957 18.5729L11.8997 18.9948L12.5143 18.0521C12.2852 17.9115 12.0091 17.6875 11.7852 17.5C11.7695 17.5104 11.7539 17.526 11.7435 17.5365C11.5768 17.7031 11.0612 18.3542 10.957 18.5729Z" fill="#90918B"/>
<path d="M12.2658 20.5264L12.146 19.3232L11.9012 18.9951L10.9585 18.5732C10.9481 18.5993 10.9429 18.6149 10.9429 18.6305C10.9429 18.7503 11.0367 19.9587 10.9429 20.0524C10.8596 20.1357 11.7606 20.4743 12.2658 20.5264Z" fill="#8B8B84"/>
<path d="M12.1445 19.3232L12.2643 20.5264C12.3112 20.5316 12.3529 20.5368 12.3945 20.5368C12.707 20.5368 13.1654 20.6618 13.4258 20.7451L13.2852 19.3545L12.1445 19.3232Z" fill="#797974"/>
<path d="M31.3379 23.9268C31.3379 23.9528 31.3379 23.984 31.3431 24.0049C31.3431 24.0309 31.3431 24.057 31.3431 24.0882C31.4264 24.0622 31.5202 24.0361 31.6139 24.0049C31.5202 23.9788 31.4212 23.9528 31.3379 23.9268Z" fill="#9A9A92"/>
<path d="M33.8014 21.3592C33.7701 21.5572 33.7128 21.7759 33.6191 21.9686C33.5462 22.1145 33.4524 22.2499 33.3326 22.3488C32.7545 22.828 32.8431 23.4842 32.7545 23.5988C32.6972 23.6665 32.0983 23.8592 31.6139 24.0051C31.5201 23.979 31.4212 23.953 31.3378 23.927C31.3222 23.6197 31.3431 23.2342 31.3431 23.2342L31.7128 22.1197C31.7128 22.1197 32.4264 21.8957 32.9628 21.6249C33.4056 21.3957 33.5931 21.2915 33.8014 21.3592Z" fill="#C2C2BF"/>
<path d="M33.6183 21.4529C33.5922 21.6509 33.5401 21.8696 33.4516 22.0623C33.3839 22.2082 33.3006 22.3436 33.186 22.4425C32.6495 22.9217 32.7329 23.5779 32.6495 23.6925C32.5974 23.7602 32.0401 23.9529 31.5922 24.0988C31.5037 24.0727 31.4151 24.0467 31.337 24.0207C31.3214 23.7134 31.337 23.3279 31.337 23.3279L31.6808 22.2186C31.6808 22.2186 32.3474 21.9894 32.8422 21.7186C33.2537 21.4894 33.4256 21.3904 33.6183 21.4529Z" fill="#908F86"/>
<mask id="mask1_292_113711" style="mask-type:luminance" maskUnits="userSpaceOnUse" x="31" y="23" width="3" height="3">
<path d="M31.332 23.9893H33.9102V25.3695H31.332V23.9893Z" fill="white"/>
</mask>
<g mask="url(#mask1_292_113711)">
<path d="M33.9095 25.2393C33.8887 25.2445 33.873 25.2497 33.8626 25.2549C33.722 25.3486 32.9147 25.3695 32.9147 25.3695C32.9147 25.3695 31.7793 25.1872 31.571 25.0309C31.3783 24.8851 31.3626 24.4111 31.3418 24.0882C31.4251 24.0622 31.5189 24.0361 31.6126 24.0049C31.8418 24.0726 32.0658 24.1455 32.1283 24.1872C32.2637 24.2809 32.498 24.4163 32.9616 24.5049C33.1543 24.5465 33.3991 24.734 33.6178 24.9372C33.7272 25.0413 33.8262 25.1455 33.9095 25.2393Z" fill="#5B5B56"/>
</g>
<mask id="mask2_292_113711" style="mask-type:luminance" maskUnits="userSpaceOnUse" x="33" y="23" width="4" height="3">
<path d="M33.4727 23.6562H36.1393V25.3698H33.4727V23.6562Z" fill="white"/>
</mask>
<g mask="url(#mask2_292_113711)">
<path d="M35.2389 24.401C35.1296 24.5156 35.0254 24.6563 34.9525 24.8021C34.765 25.1875 34.6764 25.2552 34.6764 25.2552C34.6764 25.2552 34.1139 25.1823 33.9108 25.2396C33.8275 25.1458 33.7285 25.0417 33.6191 24.9375C33.6452 24.9323 34.0306 24.776 34.166 24.6875C34.3014 24.599 34.7441 23.6875 34.7441 23.6875C34.9212 23.9167 35.1087 24.1979 35.2389 24.401Z" fill="#74746E"/>
</g>
<path d="M35.5775 23.2813V24.099C35.5775 24.099 35.4108 24.2187 35.2389 24.401C35.1087 24.1979 34.9212 23.9167 34.7441 23.6875C34.4212 23.2812 34.0514 22.8854 33.8431 22.6094C33.64 22.3333 33.6191 21.9896 33.6191 21.9688C33.7129 21.776 33.7702 21.5573 33.8014 21.3594C33.8431 21.3698 33.8848 21.3906 33.9316 21.4167C34.2129 21.5781 35.3223 22.599 35.3691 22.7135C35.416 22.8281 35.5775 23.2813 35.5775 23.2813Z" fill="#7E7D74"/>
<path d="M34.7435 23.6872C34.7435 23.6872 34.3008 24.5986 34.1654 24.6872C34.0299 24.7757 33.6445 24.932 33.6185 24.9372C33.3997 24.734 33.1549 24.5465 32.9622 24.5049C32.4987 24.4163 32.2643 24.2809 32.1289 24.1872C32.0664 24.1455 31.8424 24.0726 31.6133 24.0049C32.0977 23.859 32.6966 23.6663 32.7539 23.5986L34.7435 23.6872Z" fill="#6C6B63"/>
<path d="M34.7435 23.6875L32.7539 23.599C32.8424 23.4844 32.7539 22.8281 33.332 22.349C33.4518 22.25 33.5456 22.1146 33.6185 21.9688C33.6185 21.9896 33.6393 22.3333 33.8424 22.6094C34.0508 22.8854 34.4206 23.2812 34.7435 23.6875Z" fill="#C2C2BF"/>
<path d="M34.7435 23.6878L32.7539 23.6097C32.8424 23.5159 32.7539 22.9482 33.332 22.5368C33.4518 22.4535 33.5456 22.3389 33.6185 22.2139C33.6185 22.2295 33.6393 22.5264 33.8424 22.7607C34.0508 23.0003 34.4206 23.3389 34.7435 23.6878Z" fill="#86857D"/>
<path d="M43.1458 6.66146C43.0781 6.64583 43.0052 6.63542 42.9375 6.625C42.875 6.61458 42.8073 6.60417 42.7344 6.59375C42.7448 6.80729 42.7656 7.04688 42.7865 7.30208C42.9115 7.08333 43.0365 6.86458 43.1458 6.66146Z" fill="#9A9A92"/>
<path d="M48.3112 14.2497C47.8216 14.057 47.2956 13.7913 46.8529 13.4424C46.5195 13.182 46.2331 12.8747 46.0456 12.5101C45.1549 10.8018 43.4102 10.6507 43.1706 10.3538C43.0299 10.182 42.8841 8.58301 42.7852 7.30176C42.9102 7.08301 43.0352 6.86426 43.1445 6.66113C43.9466 6.80176 44.9206 7.07259 44.9206 7.07259L47.5664 8.63509C47.5664 8.63509 47.7331 10.5413 48.1237 12.0153C48.4518 13.2445 48.6029 13.7653 48.3112 14.2497Z" fill="#C2C2BF"/>
<path d="M48.1758 13.7451C47.681 13.5576 47.1549 13.3076 46.707 12.9743C46.3685 12.7243 46.0768 12.4326 45.8841 12.0941C44.9674 10.4899 43.2279 10.318 42.9831 10.042C42.8424 9.87533 42.6706 8.39095 42.5508 7.19303C42.6758 6.99512 42.7956 6.79199 42.8997 6.60449C43.7018 6.75032 44.6758 7.01595 44.6758 7.01595L47.3372 8.51074C47.3372 8.51074 47.5352 10.2868 47.9518 11.667C48.2956 12.8128 48.457 13.2972 48.1758 13.7451Z" fill="#908F86"/>
<path d="M38.2906 12.2761C38.2854 12.2188 38.2802 12.1772 38.2698 12.1459C38.1135 11.7501 38.525 9.72925 38.525 9.72925C38.525 9.72925 39.65 7.03134 40.176 6.60425C40.6656 6.21884 41.8948 6.45321 42.7333 6.59384C42.7437 6.80738 42.7646 7.04696 42.7854 7.30217C42.4781 7.83342 42.1604 8.33863 42.0146 8.46884C41.7021 8.7605 41.2177 9.25009 40.7177 10.3438C40.5042 10.8074 39.874 11.3074 39.2229 11.7293C38.9052 11.9324 38.5771 12.1199 38.2906 12.2761Z" fill="#5B5B56"/>
<path d="M39.6667 16.0368C39.4375 15.7087 39.1458 15.3597 38.8073 15.0993C37.9219 14.417 37.7969 14.1462 37.7969 14.1462C37.7969 14.1462 38.3177 12.8076 38.2917 12.2764C38.5781 12.1201 38.9063 11.9326 39.224 11.7295C39.2344 11.792 39.4063 12.8337 39.5521 13.2191C39.7083 13.6149 41.7865 15.2295 41.7865 15.2295C41.1042 15.5368 40.2708 15.8389 39.6667 16.0368Z" fill="#74746E"/>
<path d="M42.3535 17.5261L40.2493 17.0521C40.2493 17.0521 40.0358 16.5677 39.666 16.0365C40.2702 15.8386 41.1035 15.5365 41.7858 15.2292C43.0202 14.6615 44.2441 13.9844 45.0879 13.6302C45.9004 13.2813 46.7962 13.4323 46.8535 13.4427C47.2962 13.7917 47.8223 14.0573 48.3171 14.25C48.2598 14.3438 48.1816 14.4375 48.0879 14.5417C47.5202 15.1355 44.2493 17.2917 43.9316 17.3386C43.6139 17.3907 42.3535 17.5261 42.3535 17.5261Z" fill="#7E7D74"/>
<path d="M41.7852 15.2288C41.7852 15.2288 39.7018 13.6143 39.5508 13.2184C39.4049 12.833 39.2331 11.7913 39.2227 11.7288C39.8737 11.307 40.5039 10.807 40.7174 10.3434C41.2174 9.24967 41.7018 8.76009 42.0143 8.46842C42.1602 8.33822 42.4779 7.83301 42.7852 7.30176C42.8841 8.58301 43.0299 10.182 43.1706 10.3538L41.7852 15.2288Z" fill="#6C6B63"/>
<path d="M41.7852 15.2295L43.1706 10.3545C43.4102 10.6514 45.1549 10.8024 46.0456 12.5107C46.2331 12.8753 46.5195 13.1826 46.8529 13.443C46.7956 13.4326 45.8997 13.2816 45.0872 13.6305C44.2435 13.9847 43.0195 14.6618 41.7852 15.2295Z" fill="#C2C2BF"/>
<path d="M41.7852 15.2288L43.1341 10.3486C43.332 10.6351 44.8372 10.734 45.556 12.4007C45.707 12.7549 45.9466 13.0518 46.2279 13.3018C46.181 13.2965 45.4102 13.1663 44.6914 13.5413C43.9518 13.9216 42.8737 14.6299 41.7852 15.2288Z" fill="#86857D"/>
<path d="M5.41602 11.9063C5.50977 11.9323 5.60352 11.9635 5.68685 11.9844C5.68685 11.9583 5.68685 11.9323 5.69206 11.9063C5.69206 11.8802 5.69206 11.8542 5.69206 11.8281C5.60872 11.849 5.50977 11.875 5.41602 11.9063Z" fill="#9A9A92"/>
<path d="M3.22852 9.26066C3.25977 9.45857 3.31706 9.67212 3.41081 9.87003C3.48372 10.0159 3.57747 10.1461 3.69727 10.2502C4.27539 10.7242 4.18685 11.3857 4.27539 11.5002C4.33268 11.5679 4.93164 11.7554 5.41602 11.9065C5.50977 11.8752 5.60872 11.8492 5.69206 11.8284C5.70768 11.5159 5.69206 11.1357 5.69206 11.1357L5.31706 10.0211C5.31706 10.0211 4.60352 9.7919 4.06706 9.52107C3.62435 9.29711 3.44206 9.19295 3.22852 9.26066Z" fill="#C2C2BF"/>
<path d="M3.41016 9.35441C3.4362 9.55232 3.48828 9.77107 3.57682 9.96378C3.64453 10.1096 3.73307 10.245 3.84766 10.344C4.37891 10.8232 4.29557 11.4794 4.37891 11.594C4.43099 11.6617 4.98828 11.8544 5.4362 12.0002C5.52474 11.9742 5.61328 11.9482 5.69661 11.9221C5.70703 11.6148 5.69141 11.2294 5.69141 11.2294L5.34766 10.1148C5.34766 10.1148 4.68099 9.89086 4.1862 9.61482C3.77474 9.39086 3.60286 9.2867 3.41016 9.35441Z" fill="#908F86"/>
<path d="M3.11914 13.1354C3.13997 13.1406 3.1556 13.151 3.16602 13.1563C3.30664 13.2448 4.11393 13.2708 4.11393 13.2708C4.11393 13.2708 5.24935 13.0885 5.45768 12.9271C5.65039 12.7813 5.66602 12.3073 5.68685 11.9844C5.60352 11.9635 5.50977 11.9323 5.41602 11.9062C5.18685 11.974 4.96289 12.0469 4.90039 12.0885C4.76497 12.1771 4.5306 12.3177 4.06706 12.4063C3.87435 12.4479 3.62956 12.6354 3.41081 12.8385C3.30143 12.9375 3.20247 13.0417 3.11914 13.1354Z" fill="#5B5B56"/>
<path d="M1.79102 12.3024C1.90039 12.417 2.00977 12.5524 2.07747 12.7035C2.26497 13.0889 2.35872 13.1566 2.35872 13.1566C2.35872 13.1566 2.91602 13.0785 3.11914 13.1357C3.20247 13.042 3.30143 12.9378 3.41081 12.8389C3.38477 12.8284 2.99935 12.6774 2.86393 12.5889C2.72851 12.5003 2.28581 11.5889 2.28581 11.5889C2.10872 11.8128 1.92122 12.0941 1.79102 12.3024Z" fill="#74746E"/>
<path d="M1.45312 11.1826V12.0003C1.45312 12.0003 1.61979 12.1201 1.79167 12.3024C1.92188 12.0941 2.10937 11.8128 2.28646 11.5889C2.60937 11.1826 2.97917 10.7868 3.1875 10.5055C3.39063 10.2347 3.41146 9.89095 3.41146 9.87012C3.31771 9.6722 3.26042 9.45866 3.22917 9.26074C3.1875 9.27116 3.14583 9.29199 3.09896 9.31803C2.81771 9.47428 1.70833 10.5003 1.66146 10.6149C1.61458 10.7243 1.45312 11.1826 1.45312 11.1826Z" fill="#7E7D74"/>
<path d="M2.28516 11.5885C2.28516 11.5885 2.72786 12.5 2.86328 12.5885C2.9987 12.6771 3.38411 12.8281 3.41016 12.8385C3.62891 12.6354 3.8737 12.4479 4.06641 12.4063C4.52995 12.3177 4.76432 12.1771 4.89974 12.0885C4.96224 12.0469 5.1862 11.974 5.41536 11.9063C4.93099 11.7552 4.33203 11.5677 4.27474 11.5L2.28516 11.5885Z" fill="#6C6B63"/>
<path d="M2.28516 11.5889L4.27474 11.5003C4.1862 11.3857 4.27474 10.7243 3.69661 10.2503C3.57682 10.1462 3.48307 10.016 3.41016 9.87012C3.41016 9.89095 3.38932 10.2347 3.1862 10.5055C2.97786 10.7868 2.60807 11.1826 2.28516 11.5889Z" fill="#C2C2BF"/>
<path d="M2.28516 11.5882L4.27474 11.5101C4.1862 11.4111 4.27474 10.8486 3.69661 10.4372C3.57682 10.3486 3.48307 10.2393 3.41016 10.1143C3.41016 10.1299 3.38932 10.4268 3.1862 10.6611C2.97786 10.9007 2.60807 11.2393 2.28516 11.5882Z" fill="#86857D"/>
<path d="M59.7591 17.3594C59.6237 17.3958 59.4674 17.4375 59.2956 17.4844C59.2747 17.4896 59.2591 17.4948 59.2383 17.5C59.2331 17.5 59.2331 17.5052 59.2279 17.5052C59.2122 17.5104 59.1966 17.5104 59.181 17.5156C59.1185 17.5365 59.0508 17.5573 58.9831 17.5729C58.9622 17.5833 58.9414 17.5885 58.9154 17.5938C58.9049 17.599 58.8945 17.599 58.8841 17.6042C58.7539 17.6458 58.6185 17.6823 58.4779 17.7292C58.457 17.7344 58.4362 17.7448 58.4102 17.75C58.4049 17.75 58.3997 17.7552 58.3945 17.7552C58.3581 17.7656 58.3164 17.7813 58.2747 17.7917C58.2539 17.8021 58.2279 17.8073 58.207 17.8177C58.2018 17.8177 58.2018 17.8177 58.1966 17.8177C58.1341 17.8385 58.0716 17.8646 58.0091 17.8854C58.0039 17.8854 57.9987 17.8854 57.9935 17.8854C57.9779 17.8958 57.957 17.901 57.9362 17.9063C57.8737 17.9323 57.4362 18.0365 57.3737 18.0573L57.0977 17.8177L57.7331 17.1094L59.7591 17.3594Z" fill="#7D7F7A"/>
<path d="M59.9844 17.3854L59.5677 17.8646L59.2396 17.9219C59.2396 17.9219 59.2396 17.9219 59.2344 17.9219L59.2292 17.9271C59.2031 17.9323 59.1198 17.9479 59.0104 17.974C59 17.9792 58.9896 17.9792 58.9792 17.9844C58.9479 17.9896 58.9219 17.9948 58.8906 18C58.8802 18.0052 58.8698 18.0104 58.8542 18.0104C58.724 18.0469 58.5833 18.0833 58.4531 18.125C58.4427 18.1302 58.4375 18.1302 58.4271 18.1354C58.401 18.1406 58.375 18.151 58.349 18.1615C58.3438 18.1615 58.3333 18.1667 58.3281 18.1667C58.2552 18.1927 57.9219 18.3438 57.8698 18.3698L57.375 18.0573C57.4375 18.0365 57.875 17.9323 57.9375 17.9063C57.9583 17.901 57.9792 17.8958 57.9948 17.8854C58 17.8854 58.0052 17.8854 58.0104 17.8854C58.0729 17.8646 58.1354 17.8385 58.1979 17.8177C58.1979 17.8177 58.2031 17.8177 58.2083 17.8177C58.2292 17.8073 58.2552 17.8021 58.276 17.7917C58.3177 17.7813 58.3594 17.7656 58.3958 17.7552C58.401 17.7552 58.4063 17.75 58.4115 17.75C58.4375 17.7448 58.4583 17.7344 58.4792 17.7292C58.6198 17.6823 58.7552 17.6458 58.8854 17.6042C58.8958 17.599 58.9063 17.599 58.9167 17.5938C58.9427 17.5885 58.9635 17.5833 58.9844 17.5729C59.0521 17.5573 59.1198 17.5365 59.1823 17.5156C59.1979 17.5104 59.2135 17.5104 59.2292 17.5052C59.2344 17.5052 59.2344 17.5 59.2396 17.5C59.2604 17.4948 59.276 17.4896 59.2969 17.4844C59.4687 17.4375 59.625 17.3958 59.7604 17.3594L59.9844 17.3854Z" fill="#737775"/>
<path d="M57.7344 17.1097L57.0938 17.818L56.7656 17.5055C56.9323 17.4587 57.1563 17.2816 57.1823 17.2764C57.2135 17.2764 57.4792 17.1878 57.6875 17.1045L57.7344 17.1097Z" fill="#696D6D"/>
<path d="M59.5671 17.8643H59.5618L59.4525 18.1143L59.3379 18.6143C59.3379 18.6143 59.166 18.557 58.6296 18.5257C58.6243 18.5257 58.5983 18.5257 58.5671 18.5205L57.8691 18.3695C57.9212 18.3434 58.2546 18.1924 58.3275 18.1663C58.3327 18.1663 58.3431 18.1611 58.3483 18.1611C58.3743 18.1507 58.4004 18.1403 58.4264 18.1351C58.4368 18.1299 58.4421 18.1299 58.4525 18.1247C58.5827 18.083 58.7233 18.0465 58.8535 18.0101C58.8691 18.0101 58.8796 18.0049 58.89 17.9997C58.9212 17.9945 58.9473 17.9893 58.9785 17.984C58.9889 17.9788 58.9993 17.9788 59.0098 17.9736C59.1191 17.9476 59.2025 17.932 59.2285 17.9268L59.2337 17.9215C59.2389 17.9215 59.2389 17.9215 59.2389 17.9215L59.5671 17.8643Z" fill="#696D6D"/>
<path d="M57.6868 17.1042C57.4785 17.1875 57.2129 17.276 57.1816 17.276C57.1556 17.2812 56.9264 17.4583 56.765 17.5052L56.541 17.1823H56.8118L57.5827 17.0938L57.6868 17.1042Z" fill="#323333"/>
<path d="M3.10282 17.6611C3.09241 17.6716 3.08199 17.6872 3.07678 17.7028C3.04553 17.807 2.70178 18.9424 2.86324 19.0153C2.88928 19.0257 2.93095 19.0413 2.98824 19.0622L3.51949 19.0049L3.37887 17.9111L3.10282 17.6611Z" fill="#5C5E5E"/>
<path d="M3.8431 17.0469L3.50977 17.3438L3.29622 17.6146C3.29622 17.6146 3.16081 17.6042 3.10352 17.6615L3.37956 17.9115L4.63997 17.224L3.8431 17.0469Z" fill="#747270"/>
<path d="M6.0625 16.1302C5.97917 16.125 5.55729 16.0938 5.55729 16.0938L5.05729 16.4896L4.36458 16.9948L3.875 17.0208L3.84375 17.0469L4.64063 17.224L6.0625 16.1302Z" fill="#80827F"/>
<path d="M6.0625 16.1299L4.64062 17.2236L8.16146 18.6195L7.28646 16.7028C7.28646 16.7028 6.14583 16.1351 6.0625 16.1299Z" fill="#9F9D95"/>
<path d="M4.63932 17.2236L3.37891 17.9111L3.51953 19.0049L3.94141 19.0361L6.47266 19.4007C6.47266 19.4007 7.06641 19.5778 7.59766 19.8486L8.00391 19.5413L8.18099 18.6611L8.16016 18.6195L4.63932 17.2236Z" fill="#787872"/>
<path d="M3.94141 19.0361L3.51953 19.0049L2.98828 19.0622C3.30078 19.1768 3.9987 19.3955 3.9987 19.3955L5.28516 19.682L7.57682 19.8643L7.59766 19.8486C7.06641 19.5778 6.47266 19.4007 6.47266 19.4007L3.94141 19.0361Z" fill="#4A4C4C"/>
<path d="M9.3737 10.9163L8.64453 11.1247L9.45182 11.0361L10.5612 9.86426L11.5508 9.00488L11.4883 9.04655C11.1497 9.11947 11.0612 9.16634 11.0247 9.18717C10.9727 9.22363 10.0664 9.52051 10.0664 9.52051L9.3737 10.9163Z" fill="#4A4C4C"/>
<path d="M7.99367 8.94271L8.42596 11.151L8.64471 11.125L9.37388 10.9167L10.0666 9.52083L9.16555 8.35938L8.01451 8.58333C7.96242 8.61458 7.99367 8.94271 7.99367 8.94271Z" fill="#5C5E5E"/>
<path d="M9.16602 8.35938L10.0671 9.52083C10.0671 9.52083 10.9733 9.22396 11.0254 9.1875C11.0618 9.16667 11.1504 9.11979 11.4889 9.04688L11.5514 9.00521L9.16602 8.35938Z" fill="#787872"/>
<path d="M12.5417 13.8491C12.4896 13.8335 11.8177 13.7918 11.125 13.0887C10.4323 12.3907 9.02608 12.8178 9.02608 12.8178C9.02608 12.8178 6.58337 13.3803 6.56774 13.4532C6.55733 13.5314 5.65108 14.0522 5.64066 14.4064C5.63024 14.7657 7.88545 15.4064 7.88545 15.4064L10.073 15.5157L10.8594 15.3803L12.5417 13.8491Z" fill="#656865"/>
<path d="M5.25977 13.8486C5.25977 13.8486 5.30664 14.1091 5.44206 14.4163C5.47331 14.4945 5.52018 14.583 5.57227 14.6715L8.58268 14.9007L10.0723 15.4736V14.2861L7.52018 13.1768C7.33789 13.2236 7.22852 13.2549 7.22852 13.2549L5.25977 13.8486Z" fill="#797974"/>
<path d="M5.57227 14.6719C5.72851 14.9375 5.93164 15.2083 5.93164 15.2083L7.27018 15.5156H10.0723V15.474L8.58268 14.901L5.57227 14.6719Z" fill="#6B6C66"/>
<path d="M7.55078 13.167L10.2487 14.0889L11.4154 13.7087L11.6185 13.5889C11.4727 13.4066 10.8372 12.667 10.1289 12.667C9.51953 12.667 8.17057 13.0055 7.55078 13.167Z" fill="#858785"/>
<path d="M10.1348 15.4997L10.1764 15.5153L12.1868 15.1195L12.541 13.8486L11.6504 13.6299L11.416 13.708L10.3691 14.3174L10.1348 15.4997Z" fill="#646763"/>
<path d="M7.98441 13.3748L10.0782 14.2863V15.2603L10.0729 15.4738L10.3229 14.3123L11.5521 13.6301L10.224 14.1248L8.01045 13.3696C7.52086 13.1769 7.98962 13.3696 7.98441 13.3748Z" fill="#98978E"/>
<path d="M1.95703 13.5778C2.12891 13.7705 2.29557 13.9684 2.29557 13.9684L3.86849 14.1038L4.33203 14.6976L3.95703 13.984L2.27474 13.2393L1.95703 13.5778Z" fill="#4A4C4C"/>
<path d="M2.21224 16.25L4.43099 14.8906L4.33203 14.6979L3.86849 14.1042L2.29557 13.9688L1.75391 14.8385L2.14453 16.1875C2.1862 16.224 2.21224 16.25 2.21224 16.25Z" fill="#5C5E5E"/>
<path d="M1.52474 14.0361L0.957031 14.6351C0.957031 14.6403 0.96224 14.6403 0.96224 14.6403C0.977864 14.6663 0.998698 14.6924 1.01432 14.7132C1.05078 14.7653 1.08724 14.8122 1.11849 14.8643C1.12891 14.8799 1.13932 14.8955 1.14974 14.9059C1.26432 15.0726 1.3737 15.234 1.46745 15.3955C1.47786 15.4111 1.48828 15.4268 1.4987 15.4424C1.4987 15.4476 1.4987 15.4476 1.50391 15.4528C1.52474 15.4893 1.54557 15.5205 1.5612 15.557C1.56641 15.5622 1.56641 15.5674 1.57161 15.5726C1.58203 15.5882 1.59245 15.6038 1.60286 15.6247C1.60286 15.6247 1.60286 15.6247 1.60286 15.6299C1.61328 15.6455 1.6237 15.6611 1.63411 15.6768C1.64453 15.6976 1.64974 15.7132 1.66016 15.734H1.66536C1.67057 15.7549 1.68099 15.7705 1.69141 15.7861C1.70182 15.807 1.70703 15.8226 1.71745 15.8434C1.90495 15.984 2.0612 16.1143 2.14453 16.1872L1.75391 14.8382L1.52474 14.0361Z" fill="#9F9D95"/>
<path d="M0.958333 14.6357L0.515625 15.1045C0.520833 15.1097 0.526042 15.1149 0.526042 15.1201C0.531251 15.1305 0.53125 15.1357 0.536458 15.141C0.541666 15.1514 0.546875 15.1618 0.552083 15.167C0.552083 15.1774 0.557292 15.1826 0.5625 15.1878C0.5625 15.193 0.5625 15.1982 0.5625 15.1982C0.567708 15.2035 0.572917 15.2139 0.572917 15.2191C0.578125 15.2295 0.578125 15.2347 0.583333 15.2451C0.588543 15.2555 0.588542 15.2607 0.59375 15.2712C0.59375 15.2764 0.59375 15.2816 0.598958 15.2868C0.598958 15.292 0.598958 15.2972 0.598958 15.3024C0.604166 15.3024 0.604167 15.3076 0.604167 15.3076C0.604167 15.3128 0.604167 15.3128 0.604167 15.318C0.604167 15.3232 0.604167 15.3232 0.604167 15.3232C0.609375 15.3285 0.609375 15.3337 0.609375 15.3389C0.609375 15.3493 0.609374 15.3545 0.614583 15.3597C0.624999 15.4743 0.635417 15.5889 0.645833 15.6982C0.953125 15.7712 1.47396 15.6514 1.71875 15.8441C1.70833 15.8232 1.70313 15.8076 1.69271 15.7868C1.68229 15.7712 1.67188 15.7555 1.66667 15.7347H1.66146C1.65104 15.7139 1.64583 15.6982 1.63542 15.6774C1.625 15.6618 1.61458 15.6462 1.60417 15.6305C1.60417 15.6253 1.60417 15.6253 1.60417 15.6253C1.59375 15.6045 1.58333 15.5889 1.57292 15.5732C1.56771 15.568 1.56771 15.5628 1.5625 15.5576C1.54688 15.5212 1.52604 15.4899 1.50521 15.4535C1.5 15.4482 1.5 15.4482 1.5 15.443C1.48958 15.4274 1.47917 15.4118 1.46875 15.3962C1.375 15.2347 1.26563 15.0732 1.15104 14.9066C1.14063 14.8962 1.13021 14.8805 1.11979 14.8649C1.08854 14.8128 1.05208 14.7659 1.01563 14.7139C1 14.693 0.979166 14.667 0.963542 14.641C0.963542 14.641 0.958333 14.641 0.958333 14.6357Z" fill="#80827F"/>
<path d="M1.52539 14.0365L1.75456 14.8385L2.29622 13.9688C2.29622 13.9688 2.12956 13.7708 1.95768 13.5781L1.52539 14.0365Z" fill="#787872"/>
<mask id="mask3_292_113711" style="mask-type:luminance" maskUnits="userSpaceOnUse" x="0" y="14" width="2" height="3">
<path d="M0 14.3232H1.47396V16.9899H0V14.3232Z" fill="white"/>
</mask>
<g mask="url(#mask3_292_113711)">
<path d="M0.0566406 15.5941C0.212891 15.6201 0.613933 15.6878 0.645182 15.6982C0.634766 15.5889 0.624348 15.4743 0.613932 15.3597C0.608723 15.3545 0.608724 15.3493 0.608724 15.3389C0.608724 15.3337 0.608724 15.3285 0.603516 15.3232C0.603516 15.3232 0.603516 15.3232 0.603516 15.318C0.603516 15.3128 0.603516 15.3128 0.603516 15.3076C0.603516 15.3076 0.603515 15.3024 0.598307 15.3024C0.598307 15.2972 0.598307 15.292 0.598307 15.2868C0.593099 15.2816 0.593099 15.2764 0.593099 15.2712C0.587891 15.2607 0.587892 15.2555 0.582682 15.2451C0.577474 15.2347 0.577474 15.2295 0.572266 15.2191C0.572266 15.2139 0.567057 15.2035 0.561849 15.1982C0.561849 15.1982 0.561849 15.193 0.561849 15.1878C0.556641 15.1826 0.551432 15.1774 0.551432 15.167C0.546224 15.1618 0.541015 15.1514 0.535807 15.141C0.530599 15.1357 0.5306 15.1305 0.525391 15.1201C0.525391 15.1149 0.520182 15.1097 0.514974 15.1045L0.0566406 15.5941Z" fill="#696D6D"/>
</g>
<path d="M7.53516 10.4167C7.70182 10.6094 7.8737 10.8073 7.8737 10.8073L9.44661 10.9427L9.91016 11.5365L9.53516 10.8229L7.85286 10.0781L7.53516 10.4167Z" fill="#4A4C4C"/>
<path d="M7.79167 13.0837L10.0104 11.7243L9.91146 11.5368L9.44792 10.943L7.875 10.8076L7.32812 11.6774L7.72396 13.0264C7.76563 13.0628 7.79167 13.0837 7.79167 13.0837Z" fill="#5C5E5E"/>
<path d="M7.10286 10.875L6.53516 11.474L6.54036 11.4792C6.55599 11.5052 6.57682 11.526 6.59245 11.5521C6.62891 11.6042 6.66536 11.651 6.69661 11.7031C6.70703 11.7188 6.71745 11.7292 6.72786 11.7448C6.84245 11.9115 6.94661 12.0729 7.04557 12.2344C7.05599 12.25 7.06641 12.2656 7.07682 12.2813C7.07682 12.2865 7.07682 12.2865 7.08203 12.2917C7.10286 12.3229 7.1237 12.3594 7.13932 12.3906C7.14453 12.3958 7.14453 12.401 7.14974 12.4063C7.16016 12.4271 7.17057 12.4427 7.18099 12.4583C7.18099 12.4635 7.18099 12.4635 7.18099 12.4688C7.19141 12.4844 7.20182 12.5 7.21224 12.5156C7.21745 12.5365 7.22786 12.5521 7.23828 12.5729C7.23828 12.5729 7.23828 12.5729 7.24349 12.5729C7.2487 12.5938 7.25912 12.6094 7.26953 12.625C7.27995 12.6458 7.28516 12.6615 7.29557 12.6823C7.48307 12.8229 7.63411 12.9531 7.72266 13.026L7.32682 11.6771L7.10286 10.875Z" fill="#9F9D95"/>
<path d="M6.53646 11.4736L6.09375 11.9424C6.09896 11.9476 6.09896 11.9528 6.10417 11.958C6.10937 11.9684 6.10937 11.9736 6.11458 11.9788C6.11979 11.9893 6.125 11.9945 6.13021 12.0049C6.13021 12.0101 6.13542 12.0205 6.13542 12.0257C6.14062 12.0309 6.14063 12.0309 6.14063 12.0361C6.14583 12.0413 6.14583 12.0518 6.15104 12.057C6.15625 12.0674 6.15625 12.0726 6.16146 12.083C6.16146 12.0882 6.16667 12.0986 6.16667 12.109C6.17188 12.1143 6.17188 12.1195 6.17708 12.1247C6.17708 12.1299 6.17708 12.1351 6.17708 12.1403C6.17708 12.1403 6.17708 12.1403 6.18229 12.1455C6.18229 12.1507 6.18229 12.1507 6.18229 12.1559V12.1611C6.1875 12.1663 6.1875 12.1715 6.1875 12.1768C6.1875 12.182 6.1875 12.1924 6.19271 12.1976C6.20313 12.3122 6.21354 12.4268 6.22396 12.5309C6.52604 12.609 7.04688 12.4893 7.29688 12.682C7.28646 12.6611 7.28125 12.6455 7.27083 12.6247C7.26042 12.6091 7.25 12.5934 7.24479 12.5726C7.23958 12.5726 7.23958 12.5726 7.23958 12.5726C7.22917 12.5518 7.21875 12.5361 7.21354 12.5153C7.20312 12.4997 7.19271 12.484 7.18229 12.4684C7.18229 12.4632 7.18229 12.4632 7.18229 12.458C7.17188 12.4424 7.16146 12.4268 7.15104 12.4059C7.14583 12.4007 7.14583 12.3955 7.14063 12.3903C7.125 12.3591 7.10417 12.3226 7.08333 12.2913C7.07813 12.2861 7.07813 12.2861 7.07813 12.2809C7.06771 12.2653 7.05729 12.2497 7.04688 12.234C6.94792 12.0726 6.84375 11.9111 6.72917 11.7445C6.71875 11.7288 6.70833 11.7184 6.69792 11.7028C6.66667 11.6507 6.63021 11.6038 6.59375 11.5518C6.57812 11.5257 6.55729 11.5049 6.54167 11.4788L6.53646 11.4736Z" fill="#80827F"/>
<path d="M7.10352 10.8753L7.32747 11.6774L7.87435 10.8076C7.87435 10.8076 7.70247 10.6097 7.53581 10.417L7.10352 10.8753Z" fill="#787872"/>
<path d="M5.62891 12.432C5.79036 12.458 6.19141 12.5257 6.22266 12.5309C6.21224 12.4268 6.20182 12.3122 6.19141 12.1976C6.1862 12.1924 6.1862 12.182 6.1862 12.1768C6.1862 12.1715 6.1862 12.1663 6.18099 12.1611V12.1559C6.18099 12.1507 6.18099 12.1507 6.18099 12.1455C6.17578 12.1403 6.17578 12.1403 6.17578 12.1403C6.17578 12.1351 6.17578 12.1299 6.17578 12.1247C6.17057 12.1195 6.17057 12.1143 6.16536 12.109C6.16536 12.0986 6.16016 12.0882 6.16016 12.083C6.15495 12.0726 6.15495 12.0674 6.14974 12.057C6.14453 12.0518 6.14453 12.0413 6.13932 12.0361C6.13932 12.0309 6.13932 12.0309 6.13411 12.0257C6.13411 12.0205 6.12891 12.0101 6.12891 12.0049C6.1237 11.9945 6.11849 11.9893 6.11328 11.9788C6.10807 11.9736 6.10807 11.9684 6.10286 11.958C6.09766 11.9528 6.09766 11.9476 6.09245 11.9424L5.62891 12.432Z" fill="#696D6D"/>
<path d="M32.6771 12.4795L32.7604 12.4847L33.7552 13.641L33.3906 15.0264L32.4844 15.2764L30.0781 15.8753L26.9531 16.4378L21.7813 16.2087L20.224 15.1462L19.276 14.8545L19.1719 14.7451L22.7708 12.8024L26.9323 12.9847L32.6771 12.4795Z" fill="#9F9792"/>
<path d="M21.7812 16.208L26.0625 16.3955L25.3958 18.1038L22.7552 18.1611L21.7812 16.208Z" fill="#747270"/>
<path d="M26.0612 16.3955L27.0872 18.6559L27.0299 18.6611L25.9831 18.0882L25.3945 18.1038L26.0612 16.3955Z" fill="#666667"/>
<path d="M33.3906 15.0264L35.0677 17.6097L32.526 18.2607L27.0885 18.6566L26.0625 16.3962L26.9531 16.4378L30.0781 15.8753L32.4844 15.2764L33.3906 15.0264Z" fill="#7B7877"/>
<path d="M36.0938 13.4951L36.776 13.9482L37.2292 14.8441L34.4635 15.0732L35.3542 15.2868C35.3542 15.2868 35.8854 16.1201 36.3021 16.7972L35.25 17.5628L35.0677 17.6097L33.3906 15.0264L33.7552 13.641L36.0938 13.4951Z" fill="#838080"/>
<path d="M37.2285 14.8438L37.7025 15.7708L36.3014 16.7969C35.8848 16.1198 35.3535 15.2865 35.3535 15.2865L34.4629 15.0729L37.2285 14.8438Z" fill="#666667"/>
<path d="M32.7598 12.4844L34.6973 12.5677L36.0931 13.4948L33.7546 13.6406L32.7598 12.4844Z" fill="#747270"/>
<path d="M19.2754 14.8545L20.2233 15.1462L21.7806 16.2087L22.7546 18.1618L22.5254 18.167L19.2754 14.8545Z" fill="#838283"/>
<path d="M38.2241 5.11932C38.1043 5.08807 36.573 4.98911 35.0053 3.40057C33.4376 1.81203 30.2501 2.78078 30.2501 2.78078C30.2501 2.78078 24.7084 4.05161 24.6824 4.22349C24.6563 4.40057 22.6043 5.57765 22.5782 6.38494C22.5522 7.19744 27.6668 8.64536 27.6668 8.64536L32.6199 8.89536L34.4116 8.59328L38.2241 5.11932Z" fill="#656865"/>
<path d="M21.7188 5.11979C21.7188 5.11979 21.8177 5.71354 22.1198 6.41146C22.1979 6.58333 22.3073 6.78646 22.4219 6.98958L29.2448 7.50521L32.6198 8.80729V6.11458L26.8385 3.59375C26.4271 3.70312 26.1719 3.77604 26.1719 3.77604L21.7188 5.11979Z" fill="#797974"/>
<path d="M22.4219 6.98926C22.7812 7.58822 23.2344 8.2028 23.2344 8.2028L26.276 8.89551H32.6198V8.80697L29.2448 7.50488L22.4219 6.98926Z" fill="#6B6C66"/>
<path d="M26.9062 3.57813L33.026 5.66667L35.6719 4.79688L36.1302 4.53125C35.7969 4.11458 34.3542 2.4375 32.7552 2.4375C31.375 2.4375 28.3125 3.20833 26.9062 3.57813Z" fill="#858785"/>
<path d="M32.7695 8.86491L32.8581 8.89616L37.4154 8.00033L38.2227 5.12012L36.1966 4.62012L35.6706 4.7972L33.2956 6.17741L32.7695 8.86491Z" fill="#646763"/>
<path d="M27.8903 4.04204L32.6403 6.10975V8.32329L32.6195 8.80767L33.1924 6.16704L35.9737 4.62017L32.9684 5.74517L27.9424 4.03162C26.8382 3.59412 27.9059 4.04204 27.8903 4.04204Z" fill="#98978E"/>
<path d="M36.1293 7.02084C36.0252 7.01563 34.8533 7.28646 32.9835 5.7448C31.1085 4.20313 29.1971 6.22396 29.1971 6.22396C29.1971 6.22396 25.6918 9.23438 25.7491 9.45313C25.8064 9.67188 24.8273 11.651 25.171 12.6563C25.52 13.6615 29.9418 14.1094 29.9418 14.1094L33.7075 13.125L34.8846 12.2813L36.1293 7.02084Z" fill="#656865"/>
<path d="M23.9688 11.3226C23.9688 11.3226 24.3125 12.0309 24.849 12.807C24.9844 12.9997 25.1563 13.2184 25.3333 13.4372L30.5938 12.2913L33.6667 13.0101L32.4479 9.7028L27.0521 8.11426C26.7969 8.35905 26.6458 8.51009 26.6458 8.51009L23.9688 11.3226Z" fill="#8A8C8C"/>
<path d="M25.332 13.4378C25.8633 14.0837 26.4779 14.7139 26.4779 14.7139L29.0299 14.7816L33.707 13.1253L33.6654 13.0107L30.5924 12.292L25.332 13.4378Z" fill="#717471"/>
<path d="M27.0938 8.07782L32.5469 9.04657L34.1042 7.28615L34.3177 6.84344C33.8906 6.42157 32.0677 4.72886 30.8906 5.14553C29.8698 5.5049 27.9635 7.24969 27.0938 8.07782Z" fill="#A2A3A2"/>
<path d="M33.8014 13.0469L33.8796 13.0625L36.8327 10.776L36.1296 7.02083L34.4108 6.9375L34.1035 7.28646L32.9785 9.60938L33.8014 13.0469Z" fill="#6B6F6F"/>
<path d="M28.0261 8.39095L32.4636 9.69824L33.4584 12.417L33.6667 13.0107L32.8959 9.62012L34.2449 6.99512L32.5417 9.15658L28.0626 8.3597C27.0522 8.11491 28.0417 8.38053 28.0261 8.39095Z" fill="#A9A182"/>
<path d="M16.5781 6.71842C17.0521 7.2653 17.526 7.8278 17.526 7.8278L21.9688 8.2028L23.276 9.87467L22.2188 7.87467L17.474 5.77051L16.5781 6.71842Z" fill="#4A4C4C"/>
<path d="M17.2962 14.2552L23.5618 10.4167L23.2754 9.875L21.9681 8.20313L17.5254 7.82812L15.9941 10.2708L17.0983 14.0833C17.2285 14.1927 17.2962 14.2552 17.2962 14.2552Z" fill="#5C5E5E"/>
<path d="M15.3529 8.01562L13.7539 9.70833C13.7591 9.71354 13.7591 9.71875 13.7643 9.72396C13.8164 9.79167 13.8633 9.85938 13.9102 9.92708C14.0143 10.0677 14.1133 10.2083 14.2122 10.349C14.2383 10.3906 14.2695 10.4323 14.2956 10.474C14.6185 10.9427 14.9206 11.401 15.1914 11.849C15.2227 11.8958 15.2487 11.9427 15.2747 11.9896C15.2799 11.9948 15.2852 12.0052 15.2904 12.0104C15.3477 12.1094 15.4049 12.2031 15.4622 12.3021C15.4674 12.3177 15.4779 12.3281 15.4883 12.3438C15.5143 12.3906 15.5404 12.4427 15.5716 12.4896C15.5716 12.4948 15.5768 12.5 15.5768 12.5052C15.6029 12.5521 15.6289 12.599 15.6549 12.6458C15.6862 12.6979 15.7122 12.75 15.7383 12.8021C15.7435 12.8073 15.7435 12.8073 15.7435 12.8125C15.7695 12.8594 15.7956 12.9115 15.8216 12.9583C15.8477 13.0104 15.8737 13.0573 15.8997 13.1094C16.4258 13.5156 16.8581 13.8802 17.0977 14.0833L15.9935 10.2708L15.3529 8.01562Z" fill="#9F9D95"/>
<path d="M13.7546 9.70801L12.5098 11.0257C12.515 11.0465 12.5254 11.0622 12.5358 11.0778C12.5462 11.0934 12.5514 11.1143 12.5618 11.1299C12.5775 11.1559 12.5879 11.182 12.5983 11.208C12.6087 11.2288 12.6191 11.2445 12.6296 11.2653C12.6348 11.2757 12.6348 11.2861 12.64 11.2913C12.6504 11.3122 12.6556 11.333 12.666 11.3538C12.6764 11.3799 12.6868 11.4007 12.6921 11.4268C12.7025 11.4476 12.7077 11.4684 12.7181 11.4945C12.7233 11.5101 12.7285 11.5257 12.7337 11.5465C12.7389 11.557 12.7389 11.5674 12.7441 11.583C12.7441 11.5882 12.7441 11.5934 12.7493 11.5986C12.7493 11.6091 12.7546 11.6195 12.7546 11.6299C12.7546 11.6351 12.7598 11.6455 12.7598 11.6507C12.765 11.6611 12.765 11.6768 12.765 11.6872V11.6924C12.7702 11.7132 12.7754 11.7288 12.7754 11.7497C12.8118 12.0778 12.8431 12.4007 12.8639 12.6976C13.7285 12.9163 15.2025 12.5674 15.9004 13.109C15.8743 13.057 15.8483 13.0101 15.8223 12.958C15.7962 12.9111 15.7702 12.859 15.7441 12.8122C15.7441 12.807 15.7441 12.807 15.7389 12.8018C15.7129 12.7497 15.6868 12.6976 15.6556 12.6455C15.6296 12.5986 15.6035 12.5518 15.5775 12.5049C15.5775 12.4997 15.5723 12.4945 15.5723 12.4893C15.541 12.4424 15.515 12.3903 15.4889 12.3434C15.4785 12.3278 15.4681 12.3174 15.4629 12.3018C15.4056 12.2028 15.3483 12.109 15.291 12.0101C15.2858 12.0049 15.2806 11.9945 15.2754 11.9893C15.2493 11.9424 15.2233 11.8955 15.1921 11.8486C14.9212 11.4007 14.6191 10.9424 14.2962 10.4736C14.2702 10.432 14.2389 10.3903 14.2129 10.3486C14.1139 10.208 14.015 10.0674 13.9108 9.92676C13.8639 9.85905 13.8171 9.79134 13.765 9.72363C13.7598 9.71842 13.7598 9.71322 13.7546 9.70801Z" fill="#80827F"/>
<path d="M15.3535 8.01563L15.9941 10.2708L17.5254 7.82813C17.5254 7.82813 17.0514 7.26562 16.5775 6.71875L15.3535 8.01563Z" fill="#787872"/>
<path d="M11.2031 12.4066C11.651 12.4899 12.7917 12.6774 12.8646 12.6982C12.8438 12.4014 12.8125 12.0785 12.776 11.7503C12.776 11.7295 12.7708 11.7139 12.7656 11.693V11.6878C12.7656 11.6774 12.7656 11.6618 12.7604 11.6514C12.7604 11.6462 12.7552 11.6357 12.7552 11.6305C12.7552 11.6201 12.75 11.6097 12.75 11.5993C12.7448 11.5941 12.7448 11.5889 12.7448 11.5837C12.7396 11.568 12.7396 11.5576 12.7344 11.5472C12.7292 11.5264 12.724 11.5107 12.7188 11.4951C12.7083 11.4691 12.7031 11.4482 12.6927 11.4274C12.6875 11.4014 12.6771 11.3805 12.6667 11.3545C12.6563 11.3337 12.651 11.3128 12.6406 11.292C12.6354 11.2868 12.6354 11.2764 12.6302 11.266C12.6198 11.2451 12.6094 11.2295 12.599 11.2087C12.5885 11.1826 12.5781 11.1566 12.5625 11.1305C12.5521 11.1149 12.5469 11.0941 12.5365 11.0785C12.526 11.0628 12.5156 11.0472 12.5104 11.0264L11.2031 12.4066Z" fill="#696D6D"/>
<path d="M61.9212 9.49479C61.4473 10.0417 60.9733 10.6042 60.9733 10.6042L56.5306 10.9792L55.2285 12.651L56.2858 10.6458L61.0254 8.54688L61.9212 9.49479Z" fill="#4A4C4C"/>
<path d="M61.2018 17.0316L54.9414 13.193L55.2279 12.6514L56.5299 10.9795L60.9727 10.6045L62.5091 13.0472L61.3997 16.8597C61.2747 16.9691 61.2018 17.0316 61.2018 17.0316Z" fill="#5C5E5E"/>
<path d="M63.1452 10.7861L64.7493 12.484C64.7441 12.4893 64.7389 12.4945 64.7337 12.4997C64.6868 12.5674 64.64 12.6351 64.5879 12.7028C64.4889 12.8434 64.39 12.9841 64.291 13.1247C64.2598 13.1663 64.2337 13.208 64.2025 13.2497C63.8848 13.7132 63.5827 14.1768 63.3066 14.6247C63.2806 14.6716 63.2493 14.7184 63.2233 14.7601C63.2181 14.7705 63.2129 14.7757 63.2077 14.7861C63.1504 14.8851 63.0931 14.9788 63.041 15.0726C63.0306 15.0882 63.0254 15.1038 63.015 15.1195C62.9837 15.1663 62.9577 15.2184 62.9316 15.2653C62.9264 15.2705 62.9264 15.2757 62.9212 15.2809C62.8952 15.3278 62.8691 15.3747 62.8431 15.4215C62.8171 15.4736 62.7858 15.5257 62.7598 15.5778C62.7598 15.583 62.7598 15.583 62.7546 15.5882C62.7285 15.6351 62.7025 15.682 62.6816 15.734C62.6504 15.7809 62.6243 15.833 62.6035 15.8851C62.0775 16.2913 61.64 16.6559 61.4004 16.859L62.5098 13.0465L63.1452 10.7861Z" fill="#9F9D95"/>
<path d="M64.7493 12.4844L65.9941 13.8021C65.9837 13.8177 65.9733 13.8385 65.9681 13.8542C65.9577 13.8698 65.9473 13.8906 65.9368 13.9063C65.9264 13.9323 65.9108 13.9583 65.9004 13.9792C65.89 14 65.8848 14.0208 65.8743 14.0417C65.8691 14.0521 65.8639 14.0573 65.8639 14.0677C65.8535 14.0885 65.8431 14.1094 65.8379 14.1302C65.8275 14.151 65.8171 14.1771 65.8066 14.1979C65.8014 14.224 65.791 14.2448 65.7858 14.2708C65.7806 14.2865 65.7754 14.3021 65.7702 14.3229C65.765 14.3333 65.7598 14.3437 65.7598 14.3542C65.7546 14.3646 65.7546 14.3698 65.7546 14.375C65.7493 14.3854 65.7493 14.3958 65.7441 14.4063C65.7441 14.4115 65.7441 14.4167 65.7441 14.4271C65.7389 14.4375 65.7389 14.4531 65.7337 14.4635C65.7285 14.4844 65.7285 14.5052 65.7233 14.526C65.6921 14.849 65.6608 15.1719 65.6348 15.474C64.7702 15.6875 63.3014 15.3438 62.6035 15.8854C62.6243 15.8333 62.6504 15.7812 62.6816 15.7344C62.7025 15.6823 62.7285 15.6354 62.7546 15.5885C62.7598 15.5833 62.7598 15.5833 62.7598 15.5781C62.7858 15.526 62.8171 15.474 62.8431 15.4219C62.8691 15.375 62.8952 15.3281 62.9212 15.2813C62.9264 15.276 62.9264 15.2708 62.9316 15.2656C62.9577 15.2188 62.9889 15.1667 63.015 15.1198C63.0254 15.1042 63.0306 15.0885 63.041 15.0729C63.0931 14.9792 63.1504 14.8854 63.2077 14.7865C63.2129 14.776 63.2181 14.7708 63.2233 14.7604C63.2493 14.7188 63.2806 14.6719 63.3066 14.625C63.5827 14.1771 63.8848 13.7135 64.2025 13.25C64.2337 13.2083 64.2598 13.1667 64.291 13.125C64.39 12.9844 64.4889 12.8438 64.5879 12.7031C64.64 12.6354 64.6868 12.5677 64.7337 12.5C64.7389 12.4948 64.7441 12.4896 64.7493 12.4844Z" fill="#80827F"/>
<path d="M63.1445 10.7868L62.5091 13.0472L60.9727 10.6045C60.9727 10.6045 61.4466 10.042 61.9206 9.49512L63.1445 10.7868Z" fill="#787872"/>
<mask id="mask4_292_113711" style="mask-type:luminance" maskUnits="userSpaceOnUse" x="65" y="13" width="3" height="3">
<path d="M65.6133 13.7969H67.2956V15.474H65.6133V13.7969Z" fill="white"/>
</mask>
<g mask="url(#mask4_292_113711)">
<path d="M67.2962 15.182C66.8535 15.2601 65.7129 15.4528 65.6348 15.4736C65.6608 15.1716 65.6921 14.8486 65.7233 14.5257C65.7285 14.5049 65.7285 14.484 65.7337 14.4632C65.7337 14.4528 65.7389 14.4372 65.7441 14.4268C65.7441 14.4163 65.7441 14.4111 65.7441 14.4059C65.7493 14.3955 65.7493 14.3851 65.7546 14.3747C65.7546 14.3695 65.7546 14.3643 65.7598 14.3538C65.7598 14.3434 65.765 14.333 65.7702 14.3226C65.7754 14.3018 65.7806 14.2861 65.7858 14.2705C65.791 14.2445 65.8014 14.2236 65.8066 14.1976C65.8171 14.1768 65.8275 14.1507 65.8379 14.1299C65.8431 14.109 65.8535 14.0882 65.8587 14.0674C65.8639 14.057 65.8691 14.0518 65.8743 14.0413C65.8848 14.0205 65.89 13.9997 65.9004 13.9788C65.916 13.958 65.9264 13.932 65.9368 13.9059C65.9473 13.8903 65.9577 13.8695 65.9681 13.8538C65.9733 13.8382 65.9837 13.8174 65.9941 13.8018L67.2962 15.182Z" fill="#696D6D"/>
</g>
<path d="M54.1094 14.0313L54.7708 20.0729L58.849 16.7083L59.7604 13.1875C57.5156 13.3594 54.1094 14.0313 54.1094 14.0313Z" fill="#696D6F"/>
<path d="M51.8223 11.958L54.1087 14.0309C54.1087 14.0309 57.515 13.359 59.7598 13.1872L59.8848 12.8851L58.5306 11.8538L55.3118 10.3643L51.8223 11.958Z" fill="#838283"/>
<path d="M54.7702 20.0726L51.1452 16.9476L49.9316 13.6403L51.8223 11.958L54.1087 14.0309L54.7702 20.0726Z" fill="#787872"/>
</svg>
