<svg width="68" height="45" viewBox="0 0 68 45" fill="none" xmlns="http://www.w3.org/2000/svg">
<mask id="mask0_292_113688" style="mask-type:luminance" maskUnits="userSpaceOnUse" x="2" y="0" width="66" height="45">
<path d="M2.24609 0H67.3607V44.6146H2.24609V0Z" fill="white"/>
</mask>
<g mask="url(#mask0_292_113688)">
<path d="M38.8757 0.0107422C38.6778 0.0107422 38.4799 0.0472002 38.3028 0.125326C38.1882 0.187824 38.1049 0.224284 38.0268 0.302409C37.9278 0.401368 37.8497 0.500327 37.7716 0.599284L37.7351 0.656576C37.5945 0.854492 37.4382 1.02637 37.2976 1.22428L37.1622 1.40137C36.808 1.85449 36.4538 2.30241 36.0788 2.75553L35.9382 2.91178C35.6413 3.26595 35.3653 3.63574 35.0893 4.01074C34.9538 4.18262 34.8341 4.34408 34.6986 4.51595C34.4018 4.89095 34.1257 5.28158 33.8497 5.65658C33.7091 5.84928 33.5736 6.02637 33.433 6.22428C33.1413 6.61491 32.8236 7.00553 32.5268 7.40137L32.4122 7.55762C32.3132 7.69303 32.1934 7.82845 32.0945 7.96908C31.8601 8.28158 31.5997 8.59408 31.3653 8.92741L29.8861 10.9691C29.7091 11.2035 29.532 11.4587 29.3757 11.693C29.1778 11.7503 28.9799 11.792 28.782 11.8493C28.1726 12.0055 27.5424 12.1826 26.7143 12.417C25.8861 12.6514 25.058 12.8857 24.2507 13.141C23.8549 13.2607 23.4434 13.3753 23.0476 13.4951C21.8236 13.8493 20.5841 14.1982 19.3601 14.5524L19.0424 14.6514C18.6882 14.7503 18.3341 14.8493 17.9799 14.943L17.5268 15.0628C17.3288 15.1201 17.1153 15.1826 16.9174 15.2399C16.5007 15.3545 16.0893 15.4743 15.6726 15.5732L14.8445 15.7868C13.9018 16.0212 12.9122 16.2764 11.9278 16.4951L11.2403 16.6514L10.5476 16.8076C10.4695 16.8285 10.4122 16.8493 10.3341 16.8649C10.1726 16.9066 10.0372 16.943 9.88093 16.9639L8.02676 17.2972L7.68822 17.3545C7.41218 17.417 7.13614 17.4535 6.8601 17.4951L6.5476 17.5316C6.39135 17.5524 6.25072 17.6878 6.19343 17.8076C6.17259 17.8441 6.15176 17.9066 6.13093 17.943C5.89655 17.9639 5.69864 18.0993 5.62051 18.2972C5.28718 19.1774 4.94864 20.042 4.6153 20.9222C4.47468 21.2555 4.3601 21.6097 4.2403 21.943C4.08405 22.3545 3.94343 22.7868 3.80801 23.1982C3.66739 23.6305 3.5528 24.0785 3.41218 24.667C2.91739 26.7868 2.70385 28.6462 2.7403 30.3337C2.76114 31.3128 2.90176 32.2347 3.1153 33.1149C3.35489 34.0368 3.66739 34.917 4.08405 35.7243C4.39655 36.3285 4.77155 36.9378 5.26635 37.6045C5.71947 38.2139 6.21426 38.7972 6.72468 39.3493C7.2351 39.8962 7.80801 40.4274 8.47989 40.9535C9.06843 41.443 9.7403 41.8753 10.433 42.2712C10.8653 42.5055 11.3549 42.7191 11.8913 42.917C11.7299 42.9951 11.6309 43.1514 11.6153 43.3285C11.5945 43.4847 11.6309 43.641 11.7299 43.7764C11.8288 43.8962 11.9695 43.9743 12.1049 43.9951C12.8549 44.0732 13.5268 44.1305 14.2143 44.1305C14.4538 44.1305 14.6882 44.1305 14.907 44.1097C15.9278 44.0316 16.9538 43.818 17.7247 43.641C18.6518 43.4274 19.5788 43.1878 20.4643 42.9535L20.6205 42.917L21.8653 42.5837L23.0841 42.2503C23.4591 42.1514 23.8341 42.0316 24.2091 41.9378L24.5059 41.8597L25.1778 41.6618C26.1622 41.3857 27.1882 41.0941 28.1726 40.7816L29.1778 40.4639C30.0632 40.193 30.9695 39.917 31.8757 39.6618C32.3132 39.542 32.7247 39.4066 33.157 39.292C34.0268 39.0368 34.933 38.7607 35.8028 38.5264L35.8601 38.5055C37.2195 38.1305 38.558 37.7399 39.9226 37.3701C41.0268 37.0524 42.1309 36.7399 43.2299 36.4482L43.9799 36.2295L45.6361 35.8024C46.308 35.6253 46.9799 35.4482 47.6466 35.2712C48.1205 35.1514 48.5945 35.0368 49.0684 34.917C49.282 34.8597 49.5216 34.818 49.7351 34.7607C50.3705 34.6045 50.8393 34.5055 51.2924 34.4066C51.8653 34.292 52.4174 34.1722 52.9903 34.0576C53.7195 33.9014 54.4486 33.7399 55.1778 33.5837C55.8497 33.4274 56.5372 33.292 57.2091 33.1357C57.4851 33.0785 57.7611 33.016 58.0372 32.9378L58.157 32.917C58.532 32.8232 58.9226 32.7243 59.2976 32.6045C59.5945 32.5055 59.8913 32.3337 60.1466 32.1722C60.4018 32.016 60.6205 31.8805 60.8341 31.7243C60.8549 31.7035 60.8757 31.6826 60.8966 31.667C61.0736 31.6045 61.2299 31.5472 61.407 31.4899C61.8393 31.3337 62.2143 31.1566 62.5528 30.9378C62.907 30.7243 63.2403 30.4691 63.657 30.1149C64.8549 29.0368 65.7663 27.5316 66.4538 25.4899C66.7507 24.6305 66.9643 23.7243 67.1257 22.8076C67.282 21.7868 67.3601 20.8649 67.3601 19.9639C67.3601 19.1201 67.2403 18.1982 67.0268 17.141C66.8497 16.2191 66.5945 15.318 66.2559 14.4535C65.8236 13.2816 65.2299 12.1253 64.4851 11.0472C64.1101 10.516 63.7143 10.0055 63.3393 9.55762C62.8861 9.00553 62.4538 8.53678 62.0372 8.08366C61.0528 7.06803 60.1049 6.26074 59.1205 5.61491C58.5476 5.24512 57.9382 4.94824 57.308 4.75553C56.8913 4.61491 56.4226 4.55762 55.8861 4.55762C55.7716 4.45866 55.6101 4.40137 55.4747 4.40137C55.4174 4.40137 55.3757 4.40137 55.3184 4.4222C54.7663 4.59408 54.1934 4.77116 53.6413 4.94824L53.4018 5.02637L52.9903 5.14616C52.5372 5.28158 52.0841 5.41699 51.6309 5.55762L51.1361 5.69303C50.7038 5.81282 50.2716 5.94824 49.8184 6.06803L49.0476 6.26074C48.6726 6.3597 48.2768 6.47949 47.9018 6.57845L47.433 6.69303C45.0476 7.33887 42.6622 7.96908 40.2559 8.61491C40.3757 7.84928 40.4747 7.08366 40.5893 6.32324C40.6518 5.87012 40.7299 5.43783 40.7872 4.98991L40.8653 4.4222C40.9643 3.77116 41.0632 2.94824 41.0268 2.10449C41.0059 1.61491 40.907 1.20345 40.7091 0.833659C40.6101 0.635742 40.433 0.500326 40.2559 0.364909L40.2143 0.344076H40.2559C40.1778 0.302409 40.1153 0.281576 40.0372 0.265951L39.9382 0.224284L39.8809 0.203451C39.5684 0.109701 39.2924 0.0315755 39.0528 0.0107422C38.9955 0.0107422 38.933 0.0107422 38.8757 0.0107422Z" fill="#876B5E"/>
</g>
<mask id="mask1_292_113688" style="mask-type:luminance" maskUnits="userSpaceOnUse" x="0" y="16" width="20" height="29">
<path d="M0 16.8438H19.5781V44.6146H0V16.8438Z" fill="white"/>
</mask>
<g mask="url(#mask1_292_113688)">
<path d="M7.98434 17.0833C7.84893 17.0833 7.68747 17.1615 7.58851 17.2604C7.55205 17.2969 7.51038 17.3385 7.49476 17.3958C7.29684 17.3542 7.09893 17.3385 6.85934 17.3177C6.82288 17.3177 6.78122 17.3177 6.76559 17.3177C6.56768 17.3177 6.34893 17.3542 6.17184 17.3958C5.8958 17.4531 5.64059 17.5521 5.42184 17.651C5.08851 17.8073 4.73434 18.0208 4.35934 18.2969C4.00517 18.5729 3.66663 18.8646 3.35413 19.2188C2.82289 19.7865 2.34893 20.4896 1.85413 21.4115C1.44268 22.1771 1.10413 23.0417 0.812468 24.0417C0.572885 24.8437 0.3958 25.7448 0.239551 26.8646C0.140592 27.6094 0.0780931 28.3906 0.0624677 29.1771C0.0624677 29.3698 0.0624677 29.5469 0.0416344 29.7448C0.0208011 30.4896 -3.22814e-05 31.2708 0.0416344 32.0365C0.0624677 32.5052 0.119759 32.9948 0.197884 33.4115C0.27601 33.8594 0.374967 34.3281 0.515593 34.8177C0.749967 35.6615 1.06768 36.526 1.49997 37.3698C1.91143 38.1927 2.38538 38.9948 2.91663 39.7604C3.41143 40.4479 4.0208 41.1094 4.73434 41.7604C6.05205 42.9323 7.74997 43.776 9.5833 44.25C10.0364 44.3646 10.5104 44.4219 10.9427 44.4844C11.2552 44.5208 11.5521 44.5625 11.8489 44.5625H12.0052C12.3802 44.5833 12.7552 44.599 13.1302 44.599H13.2291C13.6406 44.599 14.0781 44.5417 14.5104 44.4219C14.7291 44.3646 14.9218 44.2656 15.1198 44.1875C15.3385 44.0938 15.5364 43.974 15.7708 43.7969C16.4427 43.3281 17.0521 42.6823 17.6041 41.8177C17.8229 41.4844 18 41.1302 18.2187 40.6615C18.4114 40.2083 18.5885 39.7604 18.7291 39.2917C18.9843 38.4635 19.1823 37.5625 19.3385 36.5469C19.4375 35.8177 19.5 35.1719 19.5156 34.5677L19.5364 33.901L19.5573 33.25C19.6146 31.4271 19.5156 29.9792 19.2604 28.625C18.9635 27.1562 18.3958 25.6458 17.5677 24.1563C17.2083 23.5104 16.7968 22.8854 16.2864 22.2188C15.7708 21.5313 15.2396 20.9219 14.6875 20.375C14.1562 19.8646 13.5833 19.375 12.8958 18.8854C12.2239 18.4167 11.5312 18.0052 10.8229 17.7083C10.4114 17.5312 10.0364 17.3958 9.69788 17.3177C9.48434 17.2604 9.26559 17.2396 9.06768 17.1979L8.98955 17.1771C8.67705 17.1406 8.33851 17.0833 8.00518 17.0625C8.00518 17.0833 7.98434 17.0833 7.98434 17.0833Z" fill="#E4B9A1"/>
</g>
<path d="M7.92673 17.6299C7.78611 17.6299 7.65069 17.6299 7.49444 17.6507C7.13507 17.6715 6.80173 17.7288 6.4684 17.8434C6.30694 17.9059 6.15069 17.9424 6.01528 18.0205C5.85382 18.0986 5.7184 18.1768 5.57778 18.2757C5.44236 18.3538 5.32257 18.432 5.26528 18.5882C5.20798 18.7288 5.20798 18.9059 5.28611 19.0413C5.3434 19.1768 5.46319 19.2966 5.59861 19.3538C5.73923 19.4111 5.93715 19.4111 6.05173 19.333C6.17152 19.2549 6.29132 19.1976 6.4059 19.1195C6.54652 19.0413 6.70278 18.984 6.85903 18.9215C7.13507 18.8434 7.43194 18.807 7.72882 18.7861C7.84861 18.7861 7.94757 18.7861 8.06215 18.807C8.08298 18.8278 8.10382 18.8434 8.12465 18.8851C8.33819 19.1195 8.69236 19.1768 8.95278 18.984C9.18715 18.7861 9.24444 18.3955 9.0309 18.1611C8.93194 18.0413 8.83298 17.9424 8.71319 17.8434C8.57778 17.7288 8.37986 17.6872 8.20278 17.6507C8.14028 17.6299 8.08298 17.6299 8.02569 17.6299C8.00486 17.6299 7.96319 17.6299 7.92673 17.6299ZM7.98403 18.7497C7.98403 18.7497 8.00486 18.7497 8.00486 18.7653C7.98403 18.7497 7.98403 18.7497 7.98403 18.7497Z" fill="#E4B9A1"/>
<path d="M7.02081 17.4316C6.84373 17.4941 6.68227 17.5514 6.50518 17.6087C6.3281 17.6868 6.17185 17.7858 6.0156 17.8848C5.69789 18.0827 5.44268 18.3535 5.16664 18.6087C5.04685 18.7285 4.96873 18.8431 4.94789 18.9993C4.93227 19.1608 4.98956 19.3171 5.06768 19.4316C5.16664 19.5514 5.30206 19.6296 5.46352 19.6504C5.59893 19.666 5.79685 19.6296 5.89581 19.5306C6.17185 19.2546 6.44789 18.9994 6.7656 18.7858C6.92185 18.6868 7.09893 18.6087 7.27602 18.5514C7.49477 18.4941 7.70831 18.4733 7.92706 18.4525C7.96352 18.4525 8.00518 18.4525 8.04685 18.4525C8.12498 18.5098 8.2031 18.5879 8.28123 18.6504C8.40102 18.7493 8.5781 18.7858 8.73435 18.7493C8.8906 18.7285 9.03122 18.6296 9.10935 18.5098C9.20831 18.3952 9.24477 18.2181 9.20831 18.0618C9.18748 17.9056 9.08852 17.7858 8.96873 17.6868C8.83331 17.5723 8.71352 17.4733 8.55727 17.3952C8.38018 17.2962 8.2031 17.2754 8.00518 17.2598C7.96352 17.2598 7.92706 17.2598 7.88539 17.2598C7.60935 17.3171 7.31768 17.3535 7.02081 17.4316ZM7.96352 18.4525C7.98435 18.4525 8.00518 18.4525 8.02602 18.4733C8.02602 18.4733 8.00518 18.4733 7.96352 18.4525ZM8.08331 18.4941C8.10414 18.5098 8.12497 18.5098 8.1406 18.5306C8.1406 18.5306 8.10414 18.5098 8.08331 18.4941Z" fill="#E4B9A1"/>
<path d="M8.12541 17.041C7.86499 17.041 7.58895 17.0618 7.33374 17.1191C6.92228 17.1973 6.48999 17.3535 6.11499 17.5514C5.87541 17.6868 5.64103 17.8275 5.40145 17.9837C5.28686 18.0618 5.20874 18.2389 5.18791 18.3743C5.16707 18.5306 5.22437 18.6868 5.30249 18.8066C5.40145 18.9212 5.54207 18.9994 5.69832 19.0202C5.87541 19.041 5.9952 18.9837 6.13062 18.9056C6.22957 18.8431 6.32853 18.765 6.44832 18.7077C6.70353 18.5723 6.95874 18.4525 7.21916 18.3535C7.4952 18.2754 7.77124 18.2389 8.04728 18.2181C8.22437 18.2181 8.40145 18.2389 8.57853 18.2754C8.69312 18.2962 8.79207 18.3379 8.91187 18.3743C9.06812 18.416 9.20874 18.4316 9.36499 18.3535C9.50561 18.2962 9.6202 18.1764 9.6827 18.041C9.73999 17.8848 9.73999 17.7285 9.66187 17.5931C9.60457 17.4733 9.48478 17.3171 9.34416 17.2754C9.13061 17.2181 8.89103 17.1608 8.67749 17.0983C8.50041 17.0618 8.32332 17.0618 8.14103 17.0618C8.14103 17.041 8.14103 17.041 8.12541 17.041Z" fill="#E4B9A1"/>
<path d="M7.98593 20.3955C7.12134 20.7861 6.29322 21.2341 5.52238 21.807C4.69426 22.432 3.98593 23.2184 3.43384 24.0986C3.1578 24.5309 2.93905 24.9788 2.74113 25.4528C2.52759 25.9788 2.38697 26.5465 2.27238 27.1143C2.0328 28.2132 2.0328 29.333 2.11093 30.4476C2.18905 31.5049 2.38697 32.5257 2.60572 33.5674C2.84009 34.6611 3.17863 35.7236 3.66822 36.7236C4.08488 37.6038 4.6578 38.4059 5.30363 39.1299C5.67863 39.5413 6.17342 39.8591 6.64738 40.1143C6.56926 40.0361 6.49113 39.9528 6.4078 39.8955C6.35051 39.8382 6.27238 39.7601 6.21509 39.7028C6.21509 39.7028 6.21509 39.7028 6.23072 39.7184C6.0953 39.583 5.97551 39.4632 5.85572 39.3278C5.67863 39.1299 5.52238 38.8955 5.38697 38.682C5.38697 38.7028 5.40259 38.7028 5.40259 38.7184C5.18905 38.3695 4.99113 38.0153 4.81405 37.6247C4.6578 37.2497 4.51718 36.859 4.39738 36.484C4.18384 35.6455 4.04322 34.8018 3.96509 33.9372C3.88697 33.0361 3.8453 32.1143 3.8453 31.1924C3.8453 30.3122 3.86613 29.4111 3.92863 28.5257C3.98593 27.6872 4.12134 26.8226 4.34009 25.9997C4.5953 25.1195 4.94947 24.2965 5.40259 23.4893C5.69947 22.9788 6.05363 22.5101 6.4078 22.0622C6.7828 21.5882 7.19947 21.1559 7.61093 20.7445L7.59009 20.7653C7.77238 20.6091 7.88697 20.5101 7.98593 20.3955C8.00676 20.3955 8.00676 20.3955 7.98593 20.3955Z" fill="#0F0F0F"/>
<path d="M9.32895 26.2129C9.05291 26.2337 8.77687 26.291 8.53729 26.4316C8.26125 26.5879 8.0477 26.7858 7.82895 27.0202C7.355 27.5098 7.12062 28.1348 7.00083 28.7806C6.94354 29.0983 6.9227 29.4316 6.90187 29.7441C6.90187 29.7806 6.90187 29.8014 6.90187 29.8431C6.78208 30.4889 6.72479 31.1348 6.68312 31.8014C6.6675 32.4889 6.68312 33.1712 6.76645 33.8587C6.80291 34.2129 6.90187 34.5462 7.00083 34.8796C7.12062 35.2702 7.31854 35.6243 7.51125 35.9577C7.82895 36.4837 8.36021 36.8796 8.93312 37.0514C9.24562 37.1504 9.58416 37.1921 9.9175 37.1348C10.0737 37.1139 10.2352 37.0514 10.3915 36.9941C10.5894 36.916 10.7665 36.7806 10.9435 36.6608C11.1987 36.4837 11.3967 36.2285 11.5946 35.9941C11.7717 35.7389 11.9071 35.4473 12.006 35.1504C12.1258 34.8379 12.1831 34.5254 12.2456 34.1921C12.3237 33.8223 12.3602 33.4473 12.4019 33.0931C12.48 32.39 12.4592 31.666 12.4019 30.9577C12.3446 30.2129 12.1831 29.4681 11.9696 28.7441C11.7717 28.0983 11.454 27.5098 11.0217 26.9785C10.6258 26.4681 10.0165 26.1973 9.36541 26.1973C9.38625 26.2129 9.36541 26.2129 9.32895 26.2129ZM9.32895 27.6087C9.4227 27.6087 9.52166 27.6244 9.62062 27.6452C9.66229 27.666 9.69875 27.666 9.71958 27.6868C9.74041 27.7025 9.76125 27.7025 9.76125 27.7233C9.88104 27.8587 9.97479 27.9993 10.0737 28.1556C10.2508 28.5098 10.3915 28.8587 10.5112 29.2337C10.7092 29.9993 10.7665 30.7598 10.7873 31.5462C10.7873 32.0566 10.7456 32.5462 10.6675 33.0358C10.6102 33.4889 10.5112 33.9577 10.4123 34.4056C10.3498 34.5827 10.2925 34.7389 10.2144 34.916C10.1571 35.015 10.0737 35.1139 9.99562 35.2129C9.9175 35.291 9.81854 35.3691 9.71958 35.4473C9.68312 35.4681 9.64146 35.4837 9.605 35.5046C9.56333 35.5046 9.52166 35.4837 9.46437 35.4837C9.38625 35.4681 9.32895 35.4473 9.24562 35.4056C9.23 35.39 9.20916 35.39 9.18833 35.3691C9.15187 35.291 9.11021 35.2129 9.08937 35.1139C8.96958 34.8379 8.855 34.5462 8.71437 34.2702C8.50083 33.7806 8.26125 33.3118 8.105 32.8014C7.96437 32.2337 7.92791 31.6452 7.90708 31.0566C7.90708 30.3691 8.00604 29.7025 8.16229 29.0566C8.22479 28.8431 8.30291 28.6452 8.40187 28.4473C8.51645 28.2754 8.63625 28.0983 8.7925 27.9421C8.89146 27.8431 9.01125 27.765 9.1102 27.6868C9.15187 27.666 9.1675 27.6452 9.20916 27.6452C9.26646 27.6087 9.28729 27.6087 9.32895 27.6087ZM9.1675 27.6243C9.15187 27.6243 9.15187 27.6243 9.13104 27.6243C9.15187 27.6452 9.1675 27.6243 9.1675 27.6243ZM10.8029 31.6243C10.8029 31.6452 10.8029 31.6816 10.8029 31.7025C10.8029 31.6816 10.8029 31.666 10.8029 31.6243ZM9.46437 35.5046C9.50604 35.5046 9.52166 35.5046 9.56333 35.5046C9.5425 35.5046 9.52166 35.5046 9.52166 35.5046C9.48521 35.5046 9.48521 35.5046 9.46437 35.5046Z" fill="#0F0F0F"/>
<path d="M10.8452 22.9004C11.34 23.2181 11.8504 23.5306 12.2827 23.9212C12.5587 24.2181 12.7775 24.5306 12.9962 24.8639C13.4285 25.6087 13.741 26.4316 13.9806 27.2546C14.2775 28.3327 14.491 29.4316 14.6473 30.5462C14.8087 31.6816 14.9442 32.8223 14.9858 33.9785C14.9858 34.8379 14.9077 35.6816 14.6889 36.5254C14.5119 37.1348 14.2931 37.7181 13.9806 38.291C13.7619 38.64 13.5275 38.9733 13.2306 39.2702C13.0744 39.4056 12.9129 39.5254 12.7358 39.64C12.3817 39.8379 11.991 40.015 11.5952 40.1921C12.1264 40.1139 12.6785 39.9941 13.1733 39.7598C13.3296 39.6816 13.465 39.5827 13.5848 39.4837C13.7827 39.3483 13.9598 39.1712 14.1369 38.9941C14.4702 38.64 14.7879 38.2493 15.0431 37.8379C15.5952 36.9941 15.991 36.0566 16.2462 35.0723C16.5223 34.0358 16.6212 32.9785 16.6004 31.8796C16.5639 29.8431 16.09 27.765 15.1056 25.9577C14.6317 25.1191 14.0171 24.3743 13.2514 23.7858C12.8973 23.5098 12.5014 23.3327 12.0692 23.1973C11.6317 23.0566 11.241 22.9629 10.8452 22.9004ZM14.9442 33.8014C14.9442 33.8223 14.9442 33.8379 14.9442 33.8796C14.9442 33.8587 14.9442 33.8379 14.9442 33.8014Z" fill="#0F0F0F"/>
<path d="M16.7982 35.6611C16.7773 35.7809 16.7409 35.8955 16.6992 36.0153C16.6419 36.2288 16.5794 36.4268 16.5013 36.6403C16.3242 37.2132 16.0898 37.7601 15.793 38.2705C15.3607 38.9736 14.8451 39.6195 14.2773 40.2288C13.9388 40.5622 13.5846 40.8382 13.1888 41.0934C12.8763 41.2705 12.5378 41.4268 12.1836 41.5257C11.9284 41.583 11.6732 41.6403 11.3971 41.6611C11.0638 41.6976 10.7096 41.682 10.3711 41.6976C10.8034 41.8955 11.2409 42.0934 11.7305 42.1872C12.2669 42.2861 12.7982 42.2705 13.3294 42.1299C14.4544 41.859 15.3815 41.0726 15.9701 40.1143C16.543 39.1924 16.8398 38.1143 16.8555 37.0361C16.8971 36.583 16.8763 36.1143 16.7982 35.6611ZM13.1523 41.1299C13.1315 41.1299 13.1315 41.1507 13.1107 41.1507C13.1107 41.1507 13.1315 41.1507 13.1523 41.1299Z" fill="#0F0F0F"/>
<path d="M9.68359 19.5879C11.043 20.3171 12.5221 20.8431 13.9596 21.3952C13.5482 20.9421 13.1107 20.5514 12.6003 20.2389C11.7513 19.7077 10.7461 19.6087 9.76172 19.6087C9.74089 19.5879 9.69922 19.5879 9.68359 19.5879Z" fill="#0F0F0F"/>
<path d="M8.87477 30.1563C8.65602 30.349 8.59872 30.7448 8.63518 31C8.67685 31.3698 8.77581 31.7448 8.89039 32.0938C8.91122 32.1719 8.95289 32.2708 8.98935 32.349C8.98935 32.349 8.98935 32.349 8.98935 32.3698C8.98935 32.5469 9.01018 32.724 9.05185 32.901C9.08831 33.0781 9.18727 33.1719 9.30706 33.2917C9.46331 33.4271 9.69768 33.349 9.81747 33.1927C9.91643 33.0573 9.99456 32.9167 10.0571 32.7604C10.1143 32.6042 10.1352 32.4115 10.156 32.2344C10.2133 31.8229 10.156 31.3906 10.0571 30.9792C9.99456 30.7031 9.87997 30.4115 9.68206 30.1771C9.5831 30.0573 9.42164 30 9.26539 30C9.12997 30.0156 8.98935 30.0573 8.87477 30.1563Z" fill="#0F0F0F"/>
<path d="M35.9388 5.61426C35.7617 5.69238 35.5846 5.79134 35.4284 5.91113C35.2305 6.04655 35.0742 6.26009 34.9128 6.43717C34.6784 6.71322 34.4805 7.00488 34.2826 7.30176C34.0065 7.69238 33.7513 8.10384 33.4961 8.5153C33.2409 8.94759 32.9805 9.37988 32.7461 9.80697C32.3294 10.5361 31.9596 11.2601 31.5065 11.9632C31.1888 12.458 30.8346 12.9059 30.418 13.2965C30.0273 13.6299 29.6107 13.9268 29.1784 14.182C28.6055 14.4528 28.0169 14.6716 27.4023 14.8486C27.0898 14.9268 26.7721 15.0257 26.4596 15.1195C25.944 15.2393 25.4128 15.3747 24.9023 15.4945C25.4336 15.5934 25.9648 15.6507 26.4961 15.7288C26.694 15.7497 26.8919 15.7497 27.0898 15.7497C27.4023 15.7705 27.7409 15.7705 28.0534 15.7705C28.6263 15.7497 29.1992 15.6507 29.7513 15.4945C30.3034 15.3382 30.8346 15.0257 31.3086 14.708C31.819 14.3747 32.2357 13.9059 32.5898 13.4163C33.0013 12.8695 33.2773 12.2601 33.5326 11.6299C33.7096 11.2028 33.8711 10.7497 34.0273 10.3018C34.1836 9.86947 34.3242 9.43717 34.4596 9.00488C34.5794 8.63509 34.7148 8.23926 34.8346 7.86947C34.9128 7.63509 34.9909 7.41634 35.0898 7.18197C35.2305 6.79134 35.3867 6.40072 35.6055 6.06738C35.6836 5.8903 35.819 5.74968 35.9388 5.61426C35.9596 5.61426 35.9596 5.61426 35.9388 5.61426ZM26.5169 15.1038H26.4961C26.4961 15.1038 26.4961 15.1038 26.5169 15.1038Z" fill="#0F0F0F"/>
<path d="M39.4284 3.65625C38.7409 4.28125 38.0898 4.92708 37.5534 5.67188C37.2773 6.06771 37.043 6.47917 36.8451 6.90625C36.6315 7.38021 36.5117 7.86979 36.3711 8.35938C36.194 9.02604 36.0378 9.71354 35.9023 10.3958C36.3138 9.82813 36.7096 9.23958 37.0846 8.63542C37.5169 7.90625 37.9128 7.125 38.2669 6.33854C38.6784 5.45833 39.0742 4.57812 39.4284 3.65625Z" fill="#0F0F0F"/>
<path d="M52.4382 9.43717C52.0059 9.5153 51.5684 9.61426 51.1361 9.69238C50.584 9.79134 50.0319 9.92676 49.4798 10.0257C48.4173 10.2184 47.3704 10.458 46.3288 10.7288C45.5215 10.9476 44.7298 11.2028 43.9434 11.458C43.3132 11.6715 42.6986 11.9059 42.0684 12.1403C41.6152 12.3174 41.1621 12.4736 40.709 12.6299C40.2975 12.7861 39.86 12.9268 39.4277 13.0413C39.0319 13.1195 38.6569 13.1611 38.2663 13.1403C37.8704 13.1195 37.4746 13.083 37.084 13.0257C37.6517 13.359 38.2663 13.6143 38.9173 13.7705C39.2298 13.8486 39.5684 13.8486 39.9017 13.8486C40.3132 13.8486 40.7298 13.807 41.1413 13.7705C41.8704 13.6924 42.584 13.5726 43.3132 13.4372C43.6882 13.3591 44.0788 13.2809 44.4538 13.2028C45.5788 12.9632 46.7038 12.6924 47.8079 12.4163C49.9538 11.8695 52.0267 11.083 54.0736 10.2393C54.8809 9.90592 55.6934 9.57259 56.5007 9.26009C57.2871 8.94759 58.0736 8.65072 58.8444 8.30176C56.7142 8.59342 54.5684 9.00488 52.4382 9.43717Z" fill="#0F0F0F"/>
<path d="M38.8965 17.9635C38.3652 18.0417 37.8288 18.1406 37.2975 18.2396C36.7454 18.3385 36.1934 18.4323 35.6413 18.5521C34.6361 18.75 33.61 18.9844 32.6257 19.2188C31.5996 19.474 30.6152 19.7865 29.61 20.1198C28.4277 20.4896 27.2871 20.9219 26.1204 21.3542C24.8027 21.8438 23.4798 22.375 22.1777 22.9427C23.4017 22.8854 24.6257 22.8073 25.8444 22.6667C26.3392 22.6094 26.834 22.5677 27.3236 22.4896C27.9746 22.375 28.6048 22.2552 29.2559 22.1198C30.4017 21.8854 31.5215 21.5885 32.6257 21.2344C33.6517 20.9062 34.6361 20.5313 35.6413 20.1198C36.709 19.7083 37.7507 19.276 38.8184 18.8281C39.1309 18.6875 39.4486 18.5885 39.7611 18.474C40.0371 18.375 40.3132 18.276 40.5736 18.1771C41.1257 17.9844 41.6569 17.7865 42.209 17.6094C41.084 17.7083 40.0007 17.8281 38.8965 17.9635Z" fill="#0F0F0F"/>
<path d="M42.3659 22.4115C41.8138 22.474 41.2617 22.5677 40.6888 22.6458C40.1159 22.7448 39.569 22.8854 39.0169 23.0208C36.9076 23.5313 34.8919 24.4323 32.9648 25.4115C32.0534 25.8646 31.1471 26.3125 30.2617 26.7865C30.9909 26.724 31.7201 26.6458 32.4492 26.5469C32.944 26.4896 33.4336 26.3698 33.9076 26.276C34.9336 26.0573 35.918 25.7865 36.9232 25.4688C38.0273 25.1354 39.1107 24.7083 40.1784 24.2552C40.6523 24.0573 41.1263 23.8646 41.5951 23.6667C42.1107 23.4531 42.6419 23.2552 43.1523 23.0573C43.3294 22.9792 43.5273 22.9427 43.7253 22.8854C43.9023 22.8229 44.0794 22.7865 44.2773 22.724C44.7305 22.6094 45.1628 22.4896 45.6159 22.375C45.0638 22.3333 44.4961 22.3125 43.944 22.3125C43.8815 22.3125 43.8242 22.3125 43.7826 22.3125C43.3138 22.3333 42.8398 22.375 42.3659 22.4115Z" fill="#0F0F0F"/>
<path d="M57.959 26.333C57.5059 26.4528 57.0319 26.5465 56.5788 26.6663C56.0475 26.8018 55.5111 26.9007 55.0007 27.057C54.4694 27.2132 53.9538 27.3538 53.4225 27.5101C52.9902 27.6247 52.5371 27.7445 52.1048 27.9007C51.0007 28.2757 49.8757 28.6663 48.7715 29.0778C48.0215 29.3538 47.2715 29.6455 46.5267 29.9372C45.8548 30.1924 45.1621 30.4684 44.4954 30.7236C44.1986 30.8434 43.9017 30.958 43.6048 31.057C42.485 31.4268 41.3392 31.8226 40.2142 32.2132C39.9225 32.3122 39.6465 32.4268 39.3496 32.5049C38.8548 32.6455 38.3444 32.7601 37.8496 32.9007C37.1986 33.0778 36.5475 33.2705 35.9017 33.4893C35.6621 33.5674 35.4277 33.6455 35.1882 33.7028C34.0267 33.9945 32.8652 34.3278 31.6986 34.682C30.9538 34.9163 30.1829 35.1143 29.4121 35.3278C28.1309 35.7028 26.8288 36.0934 25.5684 36.5049C27.0111 36.5049 28.4277 36.4684 29.8496 36.3903C30.3809 36.3695 30.9121 36.3278 31.4434 36.2913C31.7402 36.2705 32.0371 36.2288 32.3288 36.1924C33.4746 36.057 34.6204 35.8955 35.7611 35.7028C35.9173 35.682 36.0944 35.6247 36.2559 35.583C36.5319 35.5257 36.8079 35.4476 37.0632 35.3695C37.7715 35.1924 38.4642 34.9945 39.1725 34.8018C39.4069 34.7236 39.6621 34.6611 39.9017 34.583C39.9798 34.5674 40.0579 34.5465 40.1361 34.5049C40.5736 34.3278 41.0267 34.1716 41.459 33.9945C42.1309 33.7393 42.7975 33.4684 43.4694 33.2132C43.7454 33.0934 44.0423 32.9945 44.3184 32.8799C46.1517 32.0778 48.0007 31.2705 49.8184 30.4268C50.4486 30.1351 51.0788 29.8226 51.709 29.5257C51.985 29.3903 52.2611 29.234 52.5579 29.1143C53.0684 28.8799 53.584 28.6455 54.0944 28.4111C54.4902 28.2341 54.8652 28.0361 55.2767 27.8799C56.2246 27.4893 57.1673 27.1143 58.1152 26.7445C58.5111 26.5882 58.9225 26.4528 59.3392 26.333C59.8132 26.1976 60.2819 26.0361 60.7559 25.8799C59.8496 25.958 58.8861 26.1195 57.959 26.333Z" fill="#0F0F0F"/>
<path d="M60.4596 15.3955C59.8294 15.4528 59.2201 15.5726 58.6263 15.7497C58.1159 15.8851 57.6419 16.083 57.1523 16.2757C56.5169 16.5518 55.8867 16.8278 55.2773 17.1403C56.5013 17.1403 57.7201 17.0205 58.9023 16.6715C59.4544 16.4945 60.0065 16.2601 60.543 16.0413C61.0742 15.807 61.6055 15.5726 62.1159 15.3174C61.5846 15.3174 61.0117 15.3382 60.4596 15.3955Z" fill="#0F0F0F"/>
<path d="M12.3242 17.8438C12.5378 18.0052 12.7565 18.1615 12.9753 18.3385C13.2513 18.5312 13.5065 18.75 13.7617 18.9635C14.2773 19.375 14.7878 19.7865 15.2409 20.2552C16.069 21.1771 16.7773 22.2188 17.3503 23.3125C17.8451 24.2969 18.2565 25.2917 18.6107 26.3333C18.9492 27.3333 19.2044 28.3698 19.4388 29.3906C19.6367 30.3333 19.8138 31.2708 19.9336 32.2344C20.0534 33.1719 20.1315 34.1146 20.0898 35.0365C19.9909 36.526 19.6784 38.0156 19.2253 39.4479C19.0638 39.9531 18.8659 40.4479 18.6732 40.9375C18.6107 41.0729 18.5534 41.1927 18.4961 41.3281C18.3763 41.6042 18.2565 41.8594 18.1003 42.1094C18.0586 42.1875 18.0013 42.25 17.944 42.2865C17.9232 42.3073 17.8815 42.3281 17.8607 42.349C17.9805 42.2865 18.0586 42.25 18.1576 42.1719C18.3138 42.0156 18.4544 41.8385 18.5898 41.6615C18.7305 41.4844 18.8659 41.2865 18.9857 41.0938C19.1419 40.8385 19.3034 40.6042 19.4596 40.349C19.7773 39.8385 20.0534 39.2917 20.3086 38.7604C20.6003 38.151 20.8398 37.526 21.0742 36.8802C21.3138 36.1719 21.5273 35.4479 21.6471 34.7031C21.7669 33.9583 21.8034 33.2135 21.8034 32.4479C21.8242 31.724 21.7878 30.9792 21.7044 30.2552C21.6471 29.5885 21.5117 28.9375 21.3919 28.2917C21.2357 27.5469 21.0586 26.8229 20.8398 26.099C20.6211 25.4115 20.3294 24.7656 19.9909 24.1354C19.6576 23.4896 19.2826 22.8437 18.8503 22.2552C18.4753 21.7448 18.0378 21.2552 17.5846 20.8073C17.1159 20.3177 16.5794 19.8854 16.0273 19.5104C15.4753 19.1198 14.8659 18.8438 14.2565 18.5729C13.9388 18.4323 13.6263 18.3177 13.3086 18.1771C12.9753 18.0625 12.6576 17.9635 12.3242 17.8438C12.3451 17.8438 12.3451 17.8438 12.3242 17.8438Z" fill="#0F0F0F"/>
</svg>
