<svg width="68" height="49" viewBox="0 0 68 49" fill="none" xmlns="http://www.w3.org/2000/svg">
<mask id="mask0_292_113707" style="mask-type:luminance" maskUnits="userSpaceOnUse" x="44" y="0" width="21" height="6">
<path d="M44.7969 0H64.7969V5.46875H44.7969V0Z" fill="white"/>
</mask>
<g mask="url(#mask0_292_113707)">
<path d="M63.4629 2.49967C63.4629 2.49967 63.0983 2.97884 63.3327 3.62988C63.5671 4.28092 62.3223 2.98926 62.3223 2.98926L62.7754 3.74967L62.1191 3.16634C62.1191 3.16634 62.5462 3.79655 62.1973 3.72884C60.7129 2.96322 60.1452 0.978841 60.1452 0.978841C60.1452 0.978841 59.5462 2.74967 60.3379 3.85905C61.1348 4.96842 57.8743 3.07259 57.8743 3.07259C57.8743 3.07259 59.0098 3.94759 58.2025 4.18717C57.3952 4.42155 55.6816 2.81738 56.6348 1.60905C57.5879 0.395507 58.9785 0.0361328 58.9785 0.0361328C58.9785 0.0361328 56.5723 0.421551 55.7441 1.72884C54.9212 3.03613 56.3223 3.94759 54.7546 3.59342C53.1868 3.24447 53.2441 2.28613 53.2441 2.28613L53.166 3.58822C53.166 3.58822 52.2702 2.35905 52.5827 1.54655C52.5827 1.54655 51.8743 2.29134 52.416 3.54655C52.9629 4.80176 50.6243 1.86947 49.4785 1.80697C49.4785 1.80697 51.2493 3.17155 50.1764 3.41634C49.1035 3.66113 48.265 0.728841 48.265 0.728841C48.265 0.728841 48.1712 2.29655 48.7337 3.2028C49.3014 4.10905 46.7754 2.34863 45.3379 2.61426C45.3379 2.61426 46.9733 3.14551 46.9368 3.75488C46.9004 4.36426 52.1556 5.0153 52.9473 5.06217C53.5462 5.09863 59.39 4.7653 62.2337 4.59863C62.2546 4.62988 62.2754 4.65072 62.291 4.65592C62.3327 4.67676 62.5046 4.63509 62.7181 4.56738C63.3691 4.53092 63.7754 4.50488 63.7754 4.50488L63.7962 4.2028L64.2702 3.89551C63.6035 3.91113 63.4629 2.49967 63.4629 2.49967Z" fill="#E6BC52"/>
</g>
<path d="M35.7656 44.0632H4.71875V18.3496H35.7656V44.0632Z" fill="#FBD55A"/>
<path d="M35.7656 18.349L63.8594 4.28125V29.9948L35.7656 44.0625V18.349Z" fill="#DBAB4A"/>
<path d="M4.71875 18.349L32.8125 4.28125H63.8594L35.7656 18.349H4.71875Z" fill="#E6BC52"/>
<path d="M34.7754 17.9115C32.6296 18.2604 31.7702 15.5938 31.7702 15.5938C31.7702 15.5938 31.3379 17.026 32.0046 17.8854C32.6712 18.75 30.0098 17.3281 30.0098 17.3281C30.0098 17.3281 30.9473 17.9948 30.3066 18.2083C29.6712 18.4167 28.2546 17.1823 28.9837 16.1875C29.7129 15.1979 30.8118 14.875 30.8118 14.875C30.8118 14.875 28.9004 15.2448 28.2754 16.3125C27.6556 17.375 28.7962 18.0677 27.5358 17.8281C26.2754 17.5885 26.2962 16.8229 26.2962 16.8229L26.2702 17.8698C26.2702 17.8698 25.5202 16.9115 25.7441 16.25C25.7441 16.25 25.2025 16.8646 25.6712 17.8542C26.14 18.8385 24.1921 16.5625 23.2754 16.5417C23.2754 16.5417 24.7285 17.5885 23.8796 17.8125C23.0306 18.0365 22.2754 15.7188 22.2754 15.7188C22.2754 15.7188 22.2441 16.9688 22.7233 17.6771C23.1973 18.3854 21.1348 17.0521 19.9941 17.3021C19.9941 17.3021 21.3118 17.6823 21.3014 18.1667C21.291 18.6562 25.5046 19.0312 26.1348 19.0469C26.7702 19.0625 34.765 18.3125 34.765 18.3125L34.7702 18.0677L34.7754 17.9115Z" fill="#FBD55A"/>
<path d="M56.5215 7.35938C54.7663 8.63021 52.7871 6.63542 52.7871 6.63542C52.7871 6.63542 53.0527 8.10417 54.0371 8.57813C55.0215 9.04688 52.0059 8.96875 52.0059 8.96875C52.0059 8.96875 53.1413 9.14583 52.6673 9.61979C52.1934 10.0938 50.3704 9.61979 50.5684 8.41146C50.7663 7.19792 51.5996 6.42188 51.5996 6.42188C51.5996 6.42188 50.0632 7.60417 49.9954 8.83333C49.9225 10.0625 51.2559 10.1667 50.0267 10.5208C48.7923 10.8698 48.459 10.1771 48.459 10.1771L48.9121 11.1198C48.9121 11.1198 47.8027 10.599 47.709 9.91146C47.709 9.91146 47.5007 10.7031 48.3704 11.375C49.2402 12.0469 46.4642 10.8854 45.6361 11.276C45.6361 11.276 47.4069 11.5573 46.7507 12.1406C46.0944 12.7188 44.3704 10.9844 44.3704 10.9844C44.3704 10.9844 44.9121 12.1198 45.6569 12.5365C46.4069 12.9583 43.959 12.6875 43.0527 13.4167C43.0527 13.4167 44.4017 13.1667 44.6152 13.6094C44.8288 14.0469 48.7611 12.5052 49.3288 12.2344C49.9017 11.9635 56.6934 7.71875 56.6934 7.71875L56.5892 7.5L56.5215 7.35938Z" fill="#DBAB4A"/>
<mask id="mask1_292_113707" style="mask-type:luminance" maskUnits="userSpaceOnUse" x="63" y="14" width="5" height="17">
<path d="M63.334 14.8076H67.3548V30.1149H63.334V14.8076Z" fill="white"/>
</mask>
<g mask="url(#mask1_292_113707)">
<path d="M64.089 30.0264C63.8494 27.8857 66.5838 27.1774 66.5838 27.1774C66.5838 27.1774 65.1619 26.6774 64.2557 27.2868C63.3547 27.9014 64.9224 25.3493 64.9224 25.3493C64.9224 25.3493 64.2036 26.2399 64.0213 25.5941C63.8442 24.9535 65.1619 23.6201 66.1255 24.391C67.089 25.1618 67.3599 26.266 67.3599 26.266C67.3599 26.266 67.0786 24.3597 66.0369 23.6878C64.9953 23.016 64.2453 24.1097 64.5474 22.8753C64.8547 21.6409 65.6255 21.6982 65.6255 21.6982L64.5734 21.6201C64.5734 21.6201 65.5786 20.9274 66.2297 21.1878C66.2297 21.1878 65.6411 20.6149 64.6203 21.0264C63.5994 21.443 65.9276 20.5368 65.9953 19.6305C65.9953 19.6305 64.9119 20.8441 64.7297 19.9899C64.5474 19.1357 66.9224 18.5107 66.9224 18.5107C66.9224 18.5107 65.6619 18.417 64.9224 18.8493C64.2713 17.2764 66.3078 15.9482 66.1151 14.8076C66.1151 14.8076 65.6411 16.5941 63.839 16.6201C63.3494 16.6253 63.438 20.8024 63.3911 21.4274C63.3442 22.0524 63.688 30.0003 63.688 30.0003L63.9328 30.016L64.089 30.0264Z" fill="#DBAB4A"/>
</g>
<mask id="mask2_292_113707" style="mask-type:luminance" maskUnits="userSpaceOnUse" x="0" y="33" width="7" height="13">
<path d="M0 33.4688H6.13021V45.4688H0V33.4688Z" fill="white"/>
</mask>
<g mask="url(#mask2_292_113707)">
<path d="M5.5625 38.9118L5.15104 33.7451L3.71354 35.1305C4.72396 35.0941 3.13542 36.3024 3.13542 36.3024C3.13542 36.3024 3.94271 36.0003 4.04688 36.3024C4.15625 36.6045 0.640624 36.9326 0 36.5785C0 36.5785 0.604167 36.9899 2.33854 36.9899C4.07813 36.9899 4.49479 37.7034 3.58854 38.2503C2.68229 38.8024 2.60417 38.9639 2.60417 38.9639C2.60417 38.9639 3.51042 38.5837 3.8125 38.6618C4.11458 38.7451 4.11458 39.9274 3.625 40.0628C3.13542 40.2035 1.35938 38.0316 1.35938 38.0316C1.35938 38.0316 2.25521 40.4482 3.32292 40.693C4.39583 40.943 3.73958 41.6201 2.53125 41.2555C1.32292 40.8857 0.71875 40.5941 0.71875 40.5941C0.71875 40.5941 2.07813 41.9482 3.23438 42.167C4.39583 42.3857 2.42708 42.9743 2.42708 42.9743H3.53646C3.53646 42.9743 3.22396 43.9743 2.02083 44.0628C2.02083 44.0628 3.08333 44.2347 3.73958 43.7503C4.39583 43.2659 3.64062 44.9482 1.06771 44.7295C1.06771 44.7295 2.78125 45.5368 4.39583 44.2191C6.00521 42.9014 5.5625 38.9118 5.5625 38.9118Z" fill="#FBD55A"/>
</g>
<path d="M41.5098 16.693L46.0671 14.1462L44.1973 13.4378C44.6504 14.3285 42.8796 13.4118 42.8796 13.4118C42.8796 13.4118 43.4942 14.0107 43.265 14.2347C43.0306 14.4587 41.2494 11.4378 41.3067 10.7139C41.3067 10.7139 41.1816 11.4274 41.916 12.9899C42.6452 14.5524 42.166 15.2243 41.2858 14.641C40.4004 14.0576 40.2181 14.0576 40.2181 14.0576C40.2181 14.0576 40.9473 14.7139 40.9994 15.016C41.0514 15.3232 39.9733 15.8232 39.64 15.4378C39.3067 15.0524 40.5462 12.5472 40.5462 12.5472C40.5462 12.5472 38.7077 14.3649 38.9317 15.4326C39.1556 16.4951 38.265 16.193 38.0879 14.9535C37.916 13.7139 37.9264 13.0472 37.9264 13.0472C37.9264 13.0472 37.2598 14.8389 37.5462 15.9743C37.8327 17.1045 36.4681 15.5889 36.4681 15.5889L36.9369 16.5837C36.9369 16.5837 35.89 16.7243 35.3014 15.6774C35.3014 15.6774 35.5879 16.7087 36.3119 17.0941C37.0306 17.4743 35.1712 17.5055 34.291 15.1045C34.291 15.1045 34.2702 16.9847 36.1556 17.8753C38.041 18.7712 41.5098 16.693 41.5098 16.693Z" fill="#DBAB4A"/>
<path d="M59.6973 7.70345L54.8066 9.53158L55.4577 7.65658C55.8535 8.57324 56.2806 6.64095 56.2806 6.64095C56.2806 6.64095 56.3483 7.48991 56.6712 7.45866C56.9941 7.4222 55.7962 4.13574 55.1973 3.71387C55.1973 3.71387 55.8275 4.07845 56.5723 5.63574C57.3118 7.19303 58.14 7.26074 58.2546 6.21387C58.3691 5.16699 58.4889 5.03158 58.4889 5.03158C58.4889 5.03158 58.5254 6.00553 58.7285 6.23991C58.9316 6.47949 60.0098 5.97428 59.9264 5.47949C59.8431 4.97949 57.1035 4.31283 57.1035 4.31283C57.1035 4.31283 59.6921 4.08366 60.3743 4.93783C61.0566 5.79199 61.3952 4.91699 60.5462 3.98991C59.6973 3.06283 59.1712 2.64616 59.1712 2.64616C59.1712 2.64616 60.9889 3.28678 61.6816 4.22949C62.3796 5.17741 62.0775 3.16699 62.0775 3.16699L62.5462 4.15658C62.5462 4.15658 63.3275 3.45345 62.8952 2.33887C62.8952 2.33887 63.5098 3.21387 63.3431 4.00553C63.1816 4.80241 64.3952 3.40658 63.0983 1.19824C63.0983 1.19824 64.5671 2.39095 64.0514 4.39616C63.5306 6.40137 59.6973 7.70345 59.6973 7.70345Z" fill="#DBAB4A"/>
<path d="M32.5625 3.87012C30.3646 5.46387 27.8854 2.96387 27.8854 2.96387C27.8854 2.96387 28.2187 4.80241 29.4531 5.39616C30.6875 5.9847 26.9115 5.88574 26.9115 5.88574C26.9115 5.88574 28.3333 6.1097 27.7396 6.70345C27.151 7.29199 24.8646 6.70345 25.1094 5.18783C25.3594 3.6722 26.401 2.69824 26.401 2.69824C26.401 2.69824 24.4792 4.18262 24.3906 5.71908C24.3021 7.26074 25.974 7.39095 24.4323 7.82845C22.8854 8.26595 22.4688 7.40137 22.4688 7.40137L23.0365 8.58366C23.0365 8.58366 21.651 7.93262 21.5313 7.07324C21.5313 7.07324 21.2708 8.06282 22.3594 8.90137C23.4479 9.73991 19.9687 8.29199 18.9375 8.77637C18.9375 8.77637 21.1562 9.13053 20.3333 9.8597C19.5156 10.5837 17.349 8.41699 17.349 8.41699C17.349 8.41699 18.0312 9.83366 18.9635 10.3597C19.901 10.8805 16.8333 10.542 15.7031 11.4639C15.7031 11.4639 17.3958 11.1462 17.6615 11.6982C17.9271 12.2503 22.849 10.3128 23.5625 9.97428C24.276 9.64095 32.7813 4.32324 32.7813 4.32324L32.6458 4.0472L32.5625 3.87012Z" fill="#E6BC52"/>
<path d="M14.5879 14.516L19.0046 11.7399L17.0983 11.1305C17.5983 11.9951 15.7806 11.1722 15.7806 11.1722C15.7806 11.1722 16.4264 11.7399 16.2077 11.9743C15.9889 12.2087 14.0462 9.28678 14.0618 8.55762C14.0618 8.55762 13.9785 9.27637 14.7962 10.7972C15.6087 12.318 15.166 13.0212 14.2493 12.4795C13.3379 11.9482 13.1556 11.9587 13.1556 11.9587C13.1556 11.9587 13.9212 12.568 13.9889 12.8753C14.0566 13.1774 13.0046 13.7295 12.6504 13.3649C12.3014 13.0003 13.4056 10.4274 13.4056 10.4274C13.4056 10.4274 11.666 12.3441 11.9473 13.3962C12.2285 14.4482 11.3171 14.193 11.0775 12.9639C10.8379 11.7347 10.8171 11.068 10.8171 11.068C10.8171 11.068 10.2441 12.891 10.5931 14.0107C10.9368 15.1253 9.49414 13.6774 9.49414 13.6774L10.015 14.6514C10.015 14.6514 8.97331 14.8441 8.33789 13.8337C8.33789 13.8337 8.67643 14.8441 9.41602 15.1878C10.1556 15.5368 8.30143 15.6618 7.29102 13.3128C7.29102 13.3128 7.37435 15.1878 9.30664 15.9795C11.2389 16.7764 14.5879 14.516 14.5879 14.516Z" fill="#E6BC52"/>
<path d="M9.50588 15.6309H8.65692C8.65692 15.6309 8.84442 16.0996 7.7038 15.8236C6.56838 15.5475 7.56838 14.9434 7.56838 14.9434C7.56838 14.9434 6.35484 15.5475 7.29234 16.2611C8.22984 16.9746 4.71942 15.3861 4.71942 15.3861C4.71942 15.3861 6.74547 16.5527 6.67776 16.9746C6.61526 17.3965 4.70901 15.7663 3.52151 16.2923C2.3288 16.8131 2.43817 18.3496 2.43817 18.3496C2.43817 18.3496 2.88088 16.4538 4.04755 16.9225C5.20901 17.3861 3.21422 18.1309 3.21422 18.1309L4.24026 18.2142L4.95901 18.3913L9.00588 16.6673L9.50588 15.6309Z" fill="#E6BC52"/>
<path d="M35.401 44.5104C37.6198 42.9427 40.0677 45.474 40.0677 45.474C40.0677 45.474 39.7552 43.6302 38.526 43.0209C37.2969 42.4167 41.0781 42.5625 41.0781 42.5625C41.0781 42.5625 39.6562 42.3229 40.2552 41.7344C40.8542 41.1511 43.1302 41.7656 42.8646 43.2813C42.6042 44.7917 41.5469 45.7552 41.5469 45.7552C41.5469 45.7552 43.4844 44.2917 43.5938 42.7552C43.6979 41.2188 42.0312 41.0677 43.5781 40.6459C45.1302 40.2292 45.5365 41.099 45.5365 41.099L44.9792 39.9115C44.9792 39.9115 46.3594 40.5781 46.4688 41.4375C46.4688 41.4375 46.7396 40.4531 45.6615 39.599C44.5833 38.75 48.0469 40.2396 49.0833 39.7656C49.0833 39.7656 46.8698 39.3854 47.6979 38.6667C48.5313 37.9531 50.6667 40.1459 50.6667 40.1459C50.6667 40.1459 50.0052 38.7188 49.0729 38.1823C48.1458 37.6459 51.2083 38.0261 52.349 37.1198C52.349 37.1198 50.6562 37.4115 50.3958 36.8594C50.1354 36.3021 45.1927 38.1823 44.474 38.5104C43.7552 38.8386 35.1875 44.0521 35.1875 44.0521L35.3177 44.3334L35.401 44.5104Z" fill="#DBAB4A"/>
<path d="M53.5007 34.0781L49.0527 36.802L50.9538 37.4323C50.459 36.5625 52.2715 37.4062 52.2715 37.4062C52.2715 37.4062 51.6309 36.8333 51.8548 36.6041C52.0736 36.3698 53.9798 39.3125 53.9538 40.0416C53.9538 40.0416 54.0475 39.3229 53.2507 37.7916C52.4538 36.2604 52.9069 35.5677 53.8132 36.1145C54.7246 36.6614 54.9069 36.651 54.9069 36.651C54.9069 36.651 54.1465 36.0312 54.0788 35.7291C54.0163 35.4218 54.084 35.0468 54.4329 35.4166C54.7819 35.7864 54.6361 38.177 54.6361 38.177C54.6361 38.177 55.4069 36.4479 55.1413 35.3906C54.8704 34.3385 56.7663 34.4427 56.9902 35.6718C57.2194 36.9062 57.2298 37.5729 57.2298 37.5729C57.2298 37.5729 57.8236 35.7552 57.4902 34.6354C57.1569 33.5104 58.584 34.9739 58.584 34.9739L58.0788 34C58.0788 34 59.1204 33.8125 59.7454 34.8385C59.7454 34.8385 59.4173 33.8177 58.6829 33.4635C57.9486 33.1093 59.8027 33.0052 60.7819 35.3698C60.7819 35.3698 60.7246 33.4895 58.8027 32.677C56.8809 31.8593 53.5007 34.0781 53.5007 34.0781Z" fill="#DBAB4A"/>
<path d="M57.7754 32.709L59.4473 33.0319C59.4473 33.0319 59.265 32.5632 60.4004 32.8548C61.5358 33.1413 60.5306 33.735 60.5306 33.735C60.5306 33.735 61.7493 33.1413 60.8171 32.4173C59.89 31.6934 63.3796 33.3288 63.3796 33.3288C63.3796 33.3288 61.3691 32.1361 61.4421 31.7142C61.5098 31.2923 63.3952 32.9434 64.5931 32.4382C65.791 31.9277 65.6973 30.3913 65.6973 30.3913C65.6973 30.3913 65.2337 32.2767 64.0723 31.7975C62.916 31.3184 64.916 30.5996 64.916 30.5996L63.8952 30.5059L64.541 29.6309L59.1087 31.9902L57.7754 32.709Z" fill="#DBAB4A"/>
<mask id="mask3_292_113707" style="mask-type:luminance" maskUnits="userSpaceOnUse" x="0" y="17" width="7" height="21">
<path d="M0 17.4688H6.13021V37.4688H0V17.4688Z" fill="white"/>
</mask>
<g mask="url(#mask3_292_113707)">
<path d="M4.29232 18.3906C4.69857 21.0573 1.30794 22.0729 1.30794 22.0729C1.30794 22.0729 3.11003 22.6354 4.21419 21.8281C5.31836 21.0156 3.4694 24.2865 3.4694 24.2865C3.4694 24.2865 4.32878 23.1406 4.58398 23.9375C4.8444 24.7292 3.25586 26.4583 2.01107 25.5417C0.771485 24.6198 0.380859 23.2552 0.380859 23.2552C0.380859 23.2552 0.81836 25.625 2.1569 26.4167C3.49023 27.2083 4.38086 25.8021 4.05794 27.3646C3.73503 28.9219 2.76628 28.8854 2.76628 28.8854L4.08398 28.9323C4.08398 28.9323 2.86003 29.849 2.0319 29.5573C2.0319 29.5573 2.80273 30.2396 4.05794 29.6771C5.31315 29.1146 2.40169 31.4896 2.35482 32.6198C2.35482 32.6198 3.70378 30.8385 3.9694 31.8958C4.24023 32.9531 1.29753 33.849 1.29753 33.849C1.29753 33.849 2.88086 33.9063 3.7819 33.3281C4.68815 32.7552 2.95898 35.2865 3.25586 36.7031C3.25586 36.7031 3.76107 35.0729 4.37565 35.099C4.99023 35.1198 5.54753 29.9063 5.57357 29.1198C5.60482 28.3385 4.79753 18.4115 4.79753 18.4115L4.49023 18.401L4.29232 18.3906Z" fill="#FBD55A"/>
</g>
<path d="M10.2718 19.7035L15.4437 18.9274L13.9489 17.6097C14.053 18.5993 12.7249 17.1201 12.7249 17.1201C12.7249 17.1201 13.0843 17.8962 12.7926 18.0212C12.4957 18.1514 11.9072 14.7034 12.2249 14.042C12.2249 14.042 11.8499 14.667 11.9749 16.3857C12.0999 18.1045 11.4124 18.5628 10.7926 17.7087C10.178 16.8493 10.0062 16.7868 10.0062 16.7868C10.0062 16.7868 10.4593 17.6566 10.3968 17.9639C10.3343 18.2659 9.14679 18.3493 8.9697 17.8753C8.79783 17.4014 10.8551 15.4899 10.8551 15.4899C10.8551 15.4899 8.48533 16.5472 8.31345 17.6201C8.14158 18.6982 7.41241 18.0993 7.69366 16.8805C7.97491 15.6566 8.23012 15.042 8.23012 15.042C8.23012 15.042 6.9645 16.4795 6.82387 17.641C6.68845 18.8024 5.95408 16.9014 5.95408 16.9014L6.03741 18.0003C6.03741 18.0003 5.00095 17.7607 4.82908 16.5785C4.82908 16.5785 4.73012 17.6409 5.26658 18.2503C5.80304 18.8649 4.05304 18.2399 4.0895 15.6878C4.0895 15.6878 3.402 17.4378 4.8447 18.9326C6.28741 20.4326 10.2718 19.7035 10.2718 19.7035Z" fill="#FBD55A"/>
<path d="M4.17188 17.9375C4.20313 18.5938 2.78125 18.7604 2.78125 18.7604C2.78125 18.7604 3.27083 19.1146 3.92188 18.8698C4.57813 18.625 3.29688 19.8802 3.29688 19.8802L4.05208 19.4219L3.47396 20.0781C3.47396 20.0781 4.13021 19.6302 4.04688 20C3.96354 20.3698 4.92187 20.0104 4.97917 19.8802C5.03646 19.75 4.48958 18.401 4.48958 18.401L4.17188 17.9375Z" fill="#FBD55A"/>
<mask id="mask4_292_113707" style="mask-type:luminance" maskUnits="userSpaceOnUse" x="17" y="42" width="20" height="7">
<path d="M17.7812 42.9844H36.3854V48.0781H17.7812V42.9844Z" fill="white"/>
</mask>
<g mask="url(#mask4_292_113707)">
<path d="M36.2917 44.1097C33.5885 43.7607 32.6354 47.1357 32.6354 47.1357C32.6354 47.1357 32.0312 45.3649 32.8281 44.2555C33.6198 43.1514 30.3594 45.042 30.3594 45.042C30.3594 45.042 31.4948 44.167 30.6875 43.9274C29.8802 43.693 28.1667 45.2972 29.1198 46.5107C30.0729 47.7191 31.4635 48.0784 31.4635 48.0784C31.4635 48.0784 29.0573 47.693 28.2292 46.3857C27.4062 45.0784 28.8073 44.167 27.2396 44.5211C25.6719 44.8753 25.7292 45.8336 25.7292 45.8336L25.651 44.5264C25.651 44.5264 24.7552 45.7555 25.0677 46.568C25.0677 46.568 24.3594 45.8232 24.901 44.568C25.4479 43.3128 23.1094 46.2451 21.9635 46.3076C21.9635 46.3076 23.7344 44.943 22.6615 44.6982C21.5885 44.4534 20.75 47.3857 20.75 47.3857C20.75 47.3857 20.6563 45.818 21.2188 44.9118C21.7865 44.0055 19.2656 45.7659 17.8281 45.5003C17.8281 45.5003 19.4583 44.9691 19.4219 44.3597C19.3906 43.7503 24.6406 43.0993 25.4323 43.0524C26.224 43.0055 36.2604 43.6097 36.2604 43.6097L36.2813 43.9118L36.2917 44.1097Z" fill="#FBD55A"/>
</g>
<path d="M34.8497 38.2135L35.532 33.0781L36.8914 34.5313C35.8862 34.4479 37.407 35.7344 37.407 35.7344C37.407 35.7344 36.6153 35.3906 36.4955 35.6875C36.3758 35.9844 39.8653 36.4948 40.5268 36.1719C40.5268 36.1719 39.9018 36.5521 38.1674 36.4635C36.4278 36.375 35.9747 37.0625 36.8549 37.6615C37.7299 38.2552 37.7976 38.4219 37.7976 38.4219C37.7976 38.4219 36.9122 37.9896 36.6049 38.0573C36.2976 38.125 36.2351 39.3021 36.7195 39.4688C37.2039 39.6302 39.0893 37.5573 39.0893 37.5573C39.0893 37.5573 38.0737 39.9219 36.9903 40.1146C35.907 40.3021 36.5268 41.0156 37.7508 40.7083C38.9799 40.4062 39.5997 40.1458 39.5997 40.1458C39.5997 40.1458 38.1674 41.4271 37.0008 41.5885C35.8289 41.75 37.7612 42.4323 37.7612 42.4323L36.657 42.375C36.657 42.375 36.9174 43.3958 38.1153 43.5417C38.1153 43.5417 37.0424 43.6615 36.4122 43.1458C35.7872 42.625 36.4487 44.3438 39.0268 44.2604C39.0268 44.2604 37.2768 44.974 35.7351 43.5729C34.1935 42.1771 34.8497 38.2135 34.8497 38.2135Z" fill="#FBD55A"/>
<path d="M36.7547 44.219C36.088 44.2034 35.9474 45.6148 35.9474 45.6148C35.9474 45.6148 35.5828 45.1357 35.8172 44.4846C36.0516 43.8336 34.8068 45.1253 34.8068 45.1253L35.2599 44.3648L34.6036 44.9534C34.6036 44.9534 35.0463 44.2971 34.6713 44.3857C34.3016 44.4742 34.6401 43.5159 34.7755 43.4586C34.9057 43.4013 36.2807 43.9117 36.2807 43.9117L36.7547 44.219Z" fill="#FBD55A"/>
<path d="M13.6875 17.5475C15.1667 18.4173 16.6354 15.7663 14.0208 14.7715C14.0208 14.7715 15.901 14.9902 15.901 16.7246C15.901 18.459 17.1406 16.2454 17.1406 16.2454C17.1406 16.2454 16.8646 17.5892 16.9531 17.7194C17.0469 17.8496 18.5156 15.7246 18.5156 15.7246C18.5156 15.7246 18.2865 17.4173 18.7448 17.7246C19.2031 18.0319 19.0208 15.8965 20.3021 15.6361C21.5833 15.3757 21.6771 15.7246 21.6771 15.7246C21.6771 15.7246 19.6146 15.6361 19.9792 17.1986C20.349 18.7611 21.6771 16.5475 21.6771 16.5475L21.9063 17.7559L22.5 16.8965V19.1517L13.6875 18.6309V17.5475Z" fill="#FBD55A"/>
<path d="M35.4531 34.86C35.7344 34.8652 36.0156 34.86 36.2969 34.8236C36.3437 34.8184 36.3958 34.8079 36.4479 34.7975C36.8489 33.5527 37.6875 33.5996 37.6875 33.5996L36.3698 33.5267C36.3698 33.5267 37.6094 32.6361 38.4323 32.9434C38.4323 32.9434 38.2239 32.4954 36.4114 32.7819C37.6614 32.2038 38.3385 32.4954 38.8646 31.6621C38.8646 31.6621 37.1666 33.1986 36.8802 31.1517C36.7291 30.0736 39.2552 28.6673 39.2552 28.6673C39.2552 28.6673 37.6719 28.5788 36.7552 29.1361C35.8437 29.6934 37.6198 27.1986 37.3489 25.7715C37.3489 25.7715 36.8177 27.3913 36.1979 27.3548C35.5833 27.3236 34.9271 32.5267 34.8802 33.3079C34.875 33.4538 34.8854 33.9121 34.9166 34.5632C35.0885 34.6725 35.2656 34.7715 35.4531 34.86Z" fill="#FBD55A"/>
<mask id="mask5_292_113707" style="mask-type:luminance" maskUnits="userSpaceOnUse" x="62" y="1" width="6" height="12">
<path d="M62.1309 1.46875H67.3548V12.1354H62.1309V1.46875Z" fill="white"/>
</mask>
<g mask="url(#mask5_292_113707)">
<path d="M63.907 11.7965C64.183 11.7705 64.4642 11.7288 64.7351 11.6611C64.7872 11.6507 64.834 11.6351 64.8861 11.6195C65.1361 10.333 65.9695 10.2809 65.9695 10.2809L64.6517 10.3643C64.6517 10.3643 65.7767 9.33301 66.6257 9.54134C66.6257 9.54134 65.7976 8.93197 64.6049 9.62467C63.4122 10.3122 66.0684 7.65072 65.9955 6.52051C65.9955 6.52051 64.834 8.42676 64.459 7.40592C64.0892 6.37988 66.9226 5.19759 66.9226 5.19759C66.9226 5.19759 65.3392 5.29655 64.5007 5.95801C63.6622 6.62467 65.1205 3.93197 64.6778 2.55176C64.6778 2.55176 64.3445 4.22363 63.7299 4.26009C63.1153 4.30176 63.0997 9.54134 63.1517 10.3278C63.157 10.4736 63.2299 10.9268 63.334 11.5726C63.5215 11.6611 63.7142 11.734 63.907 11.7965Z" fill="#DBAB4A"/>
</g>
<mask id="mask6_292_113707" style="mask-type:luminance" maskUnits="userSpaceOnUse" x="2" y="42" width="11" height="7">
<path d="M2.13086 42.8027H12.7975V48.1152H2.13086V42.8027Z" fill="white"/>
</mask>
<g mask="url(#mask6_292_113707)">
<path d="M11.8802 43.7452C11.8646 44.0213 11.8281 44.2973 11.7656 44.5682C11.7552 44.6202 11.7396 44.6671 11.724 44.7192C10.4375 45.0005 10.4063 45.8286 10.4063 45.8286L10.4531 44.5213C10.4531 44.5213 9.44271 45.6671 9.67708 46.5005C9.67708 46.5005 9.04167 45.6932 9.70313 44.4952C10.3646 43.2973 7.76042 46.0005 6.61458 45.9588C6.61458 45.9588 8.50521 44.7609 7.46354 44.4171C6.41667 44.0734 5.30208 46.9171 5.30208 46.9171C5.30208 46.9171 5.65625 45.5057 6.00521 44.4952C6.36458 43.464 3.77604 45.9171 3.20312 45.6984C3.20312 45.6984 4.69792 44.4588 4.71875 43.8494C4.73958 43.24 9.58333 43.0057 10.375 43.0369C10.5208 43.0421 10.9844 43.0994 11.6354 43.188C11.7292 43.365 11.8125 43.5525 11.8802 43.7452Z" fill="#FBD55A"/>
</g>
<path d="M33.4277 17.7083C34.7715 18.0677 34.7767 16.5469 34.7767 16.5469C34.7767 16.5469 35.1725 17.1146 34.8809 17.7604C34.584 18.4115 36.4329 17.276 36.4329 16.5469C36.4329 15.8125 36.4329 15.8125 36.4329 15.8125C36.4329 15.8125 37.2454 16.6927 36.2142 17.6458C35.1777 18.5938 38.4642 18.349 38.4642 18.349C38.4642 18.349 37.6152 18.8437 36.36 19.0469C35.1048 19.2552 37.4173 19.4375 37.4173 19.4375C37.4173 19.4375 36.9225 19.8854 36.2559 19.6406C35.5944 19.3906 36.2871 20.1615 36.7871 20.1042C36.7871 20.1042 36.4382 20.849 35.9434 20.4375C35.9434 20.4375 35.8444 21.2031 36.9225 21.2031C38.0059 21.2031 39.0579 20.2448 39.0579 20.2448C39.0579 20.2448 38.2819 21.6719 36.8965 21.75C35.5111 21.8333 37.8079 22.849 37.8079 22.849C37.8079 22.849 36.7038 22.9896 36.0059 22.4688C35.3132 21.9427 35.3965 25.1302 36.6725 24.9635C37.9486 24.8021 38.3913 23.099 38.3913 23.099C38.3913 23.099 38.4486 24.8542 36.9798 25.1823C35.5111 25.5156 36.5371 25.9792 36.5371 25.9792C36.5371 25.9792 36.084 25.8698 35.9277 26.1979C35.7663 26.5313 36.6725 26.5573 36.6725 26.5573C36.6725 26.5573 35.4798 27.276 36.1986 27.3542C36.9225 27.4375 35.7246 28.849 35.5632 28.8542C35.3965 28.8646 33.7611 27.4635 34.1257 25.2917C34.485 23.125 33.4277 17.7083 33.4277 17.7083Z" fill="#FBD55A"/>
<mask id="mask7_292_113707" style="mask-type:luminance" maskUnits="userSpaceOnUse" x="10" y="41" width="11" height="8">
<path d="M10.1309 41.4688H20.7975V48.1146H10.1309V41.4688Z" fill="white"/>
</mask>
<g mask="url(#mask7_292_113707)">
<path d="M11.5898 45.4378C12.5586 44.9795 13.418 45.1826 13.2773 45.7243C13.1419 46.266 13.293 47.5107 13.293 47.5107C13.293 47.5107 13.5534 46.016 14.0273 45.4066C14.4961 44.8024 15.6055 43.5524 16.3815 44.8024C17.1576 46.0472 16.3815 47.0107 16.3815 47.0107C16.3815 47.0107 17.3242 46.3337 17.2409 45.0524C17.1576 43.766 19.4232 44.9222 19.4232 44.9222L20.2461 44.3285L18.8763 42.4795L10.1992 43.1982L11.2565 44.9951L11.5898 45.4378Z" fill="#FBD55A"/>
</g>
<path d="M39.6139 4.37533C39.5827 4.10449 39.5358 3.82845 39.4629 3.55762C39.4473 3.51074 39.4264 3.45866 39.4108 3.41178C38.1139 3.19303 38.041 2.36491 38.041 2.36491L38.1504 3.6722C38.1504 3.6722 37.0879 2.57845 37.2806 1.72949C37.2806 1.72949 36.6868 2.56803 37.4056 3.7347C38.1243 4.89616 35.3848 2.32324 34.2441 2.4222C34.2441 2.4222 36.1973 3.52637 35.166 3.91699C34.14 4.31282 32.89 1.52637 32.89 1.52637C32.89 1.52637 33.3066 2.9222 33.7077 3.91178C34.1191 4.9222 31.416 2.59928 30.8535 2.84408C30.8535 2.84408 32.4056 4.01074 32.4577 4.62012C32.5098 5.22428 37.3535 5.22428 38.1452 5.15658C38.291 5.14616 38.7493 5.06803 39.3952 4.94824C39.4837 4.76074 39.5566 4.57324 39.6139 4.37533Z" fill="#E6BC52"/>
<path d="M39.2389 2.70313C40.2285 3.11458 41.0775 2.86458 40.9108 2.33333C40.7441 1.80208 40.8379 0.546875 40.8379 0.546875C40.8379 0.546875 41.1712 2.03125 41.6764 2.61458C42.1764 3.19792 43.3431 4.39063 44.0566 3.10417C44.7702 1.81771 43.9473 0.895833 43.9473 0.895833C43.9473 0.895833 44.9212 1.52604 44.9056 2.8125C44.8848 4.10417 47.0931 2.83333 47.0931 2.83333L47.9368 3.39063L46.666 5.30208L37.9629 5.00521L38.9264 3.15625L39.2389 2.70313Z" fill="#E6BC52"/>
<mask id="mask8_292_113707" style="mask-type:luminance" maskUnits="userSpaceOnUse" x="63" y="10" width="5" height="8">
<path d="M63.4629 10.8027H67.3535V17.4694H63.4629V10.8027Z" fill="white"/>
</mask>
<g mask="url(#mask8_292_113707)">
<path d="M64.8842 11.6201C64.7644 12.3753 64.1603 12.6462 64.1603 12.6462C64.1603 12.6462 65.0769 12.3389 65.4623 11.9326C65.4623 11.9326 65.0248 12.9951 64.1603 13.2139L66.8113 13.8024C66.8113 13.8024 65.1238 13.818 64.8373 13.891C64.5509 13.9639 63.728 14.0941 64.228 14.4118C64.728 14.7347 65.2801 14.4587 65.3061 14.4795C65.3373 14.4951 64.6707 14.917 64.2644 14.9014C63.8582 14.8805 63.6655 15.7399 64.1603 15.9951C64.6498 16.2555 65.0248 15.443 65.0248 15.443C65.0248 15.443 64.4676 16.9118 63.8582 17.0837C63.2488 17.2607 63.5405 11.7972 63.5405 11.7972L63.8738 11.5107L64.8842 11.6201Z" fill="#DBAB4A"/>
</g>
<path d="M35.4629 31.8653H3.92122C3.55664 31.8653 3.25977 31.5684 3.25977 31.2038C3.25977 30.8392 3.55664 30.5476 3.92122 30.5476H35.4629C36.416 30.5476 37.3744 30.334 38.2337 29.9278L64.6608 17.5267C64.9941 17.3705 65.39 17.5111 65.5462 17.8392C65.7077 18.1673 65.5671 18.558 65.2337 18.7142L38.8014 31.1205C37.765 31.6048 36.6087 31.8653 35.4629 31.8653Z" fill="#C4994A"/>
<path d="M45.3379 41.0677C44.9733 41.0677 44.6764 40.776 44.6764 40.4115V15.3958C44.6764 14.5365 43.9681 13.8333 43.0983 13.8333H13.3327C12.9629 13.8333 12.666 13.5417 12.666 13.1771C12.666 12.8125 12.9629 12.5156 13.3327 12.5156H43.0983C44.7025 12.5156 46.0046 13.8073 46.0046 15.3958V40.4115C46.0046 40.776 45.7077 41.0677 45.3379 41.0677Z" fill="#C4994A"/>
<path d="M55.8809 35.7298C55.5163 35.7298 55.2194 35.4329 55.2194 35.0684V9.20898C55.2194 8.34961 54.5111 7.65169 53.6413 7.65169H26.0475C25.6777 7.65169 25.3809 7.35482 25.3809 6.99023C25.3809 6.62565 25.6777 6.33398 26.0475 6.33398H53.6413C55.2454 6.33398 56.5475 7.62565 56.5475 9.20898V35.0684C56.5475 35.4329 56.2507 35.7298 55.8809 35.7298Z" fill="#C4994A"/>
<path d="M9.50586 30.4896C10.5996 30.6771 9.68294 31.3698 9.68294 31.3698C9.68294 31.3698 10.6725 31.151 11.2975 30.4896C11.9277 29.8333 11.2975 32.651 11.2975 32.651C11.2975 32.651 11.9329 31.6354 12.0736 31.0313C12.209 30.4271 13.0996 30.4271 13.2923 30.8802C13.485 31.3333 13.485 31.3333 13.485 31.3333C13.485 31.3333 13.3861 30.7292 13.485 30.5938C13.584 30.4531 14.2611 30.7188 14.3288 31.2031C14.4017 31.6927 13.36 32.2813 13.4017 32.2656C13.4434 32.2552 14.8548 31.8958 14.8861 31.2917C14.9121 30.6875 15.3132 30.8958 15.4954 31.2656C15.6725 31.6354 16.0632 31.5208 16.0632 31.5208C16.0632 31.5208 15.5632 31.1823 15.6309 30.7708C15.7038 30.3594 16.3704 30.8802 16.3704 30.8802L16.1465 30.25L9.50586 30.4896Z" fill="#FBD55A"/>
<path d="M39.3079 7.83333C38.2298 7.60417 39.1725 6.94792 39.1725 6.94792C39.1725 6.94792 38.1777 7.125 37.5215 7.75521C36.86 8.38542 37.6204 5.59375 37.6204 5.59375C37.6204 5.59375 36.9382 6.58333 36.7715 7.17708C36.6048 7.77604 35.7194 7.73438 35.5475 7.27604C35.3757 6.8125 35.3757 6.8125 35.3757 6.8125C35.3757 6.8125 35.4434 7.42188 35.3392 7.55208C35.235 7.6875 34.5684 7.39583 34.5215 6.90625C34.4746 6.41667 35.5423 5.875 35.5007 5.88542C35.459 5.89583 34.0319 6.1875 33.9746 6.79167C33.9173 7.39583 33.5267 7.17187 33.3652 6.79167C33.1986 6.41146 32.8079 6.51042 32.8079 6.51042C32.8079 6.51042 33.2923 6.86979 33.2038 7.28125C33.1152 7.6875 32.4746 7.13542 32.4746 7.13542L32.6673 7.77604L39.3079 7.83333Z" fill="#E6BC52"/>
<path d="M49.7031 24.4899C50.4531 24.2607 50.0417 24.9014 50.0417 24.9014C50.0417 24.9014 50.625 24.4951 50.8646 23.9535C51.1042 23.417 51.4063 25.1045 51.4063 25.1045C51.4063 25.1045 51.5573 24.3753 51.4948 24.0107C51.4323 23.6514 52.0052 23.3857 52.2448 23.568C52.4844 23.7555 52.4844 23.7555 52.4844 23.7555C52.4844 23.7555 52.2708 23.4587 52.3021 23.3597C52.3281 23.2555 52.8333 23.193 53 23.4326C53.1667 23.6722 52.6406 24.2972 52.6667 24.2764C52.6875 24.2555 53.5104 23.6462 53.3802 23.3128C53.2448 22.9847 53.5573 22.9743 53.7656 23.1201C53.974 23.2607 54.1979 23.0889 54.1979 23.0889C54.1979 23.0889 53.7917 23.0524 53.7292 22.8128C53.6719 22.5732 54.2344 22.6566 54.2344 22.6566L53.9323 22.3857L49.7031 24.4899Z" fill="#DBAB4A"/>
<path d="M19.209 31.8441C20.5788 31.8857 22.7194 30.8962 22.7194 30.8962C22.7194 30.8962 21.6465 31.3701 21.7611 31.8493C21.8704 32.3232 23.6465 31.6982 23.8652 30.8962C24.0892 30.0889 24.2715 28.8545 24.2715 28.8545C24.2715 28.8545 24.9746 31.2607 24.2715 31.6982C23.5736 32.141 25.7142 30.8232 25.7142 30.8232L25.1257 31.8076C25.1257 31.8076 27.5267 30.6566 28.8913 30.9326C30.2611 31.2035 30.7402 31.4535 30.7402 31.4535C30.7402 31.4535 28.8548 30.7607 27.8965 31.4535C26.9329 32.141 28.0059 32.2139 28.0059 32.2139H19.5059L19.209 31.8441Z" fill="#FBD55A"/>
<mask id="mask9_292_113707" style="mask-type:luminance" maskUnits="userSpaceOnUse" x="55" y="16" width="13" height="9">
<path d="M55.4629 16.1357H67.3535V24.1357H55.4629V16.1357Z" fill="white"/>
</mask>
<g mask="url(#mask9_292_113707)">
<path d="M56.791 22.6562C58.0358 22.0989 59.5358 20.2864 59.5358 20.2864C59.5358 20.2864 58.7806 21.177 59.0879 21.5624C59.3952 21.9426 60.7233 20.6197 60.5671 19.7968C60.416 18.9739 60.041 17.7864 60.041 17.7864C60.041 17.7864 61.7285 19.651 61.2858 20.3489C60.8483 21.0468 62.2025 18.9374 62.2025 18.9374L62.1035 20.0833C62.1035 20.0833 63.765 18.0155 65.1139 17.6718C66.4681 17.328 67.0098 17.3489 67.0098 17.3489C67.0098 17.3489 65.0098 17.5364 64.4421 18.5676C63.8796 19.5989 64.8743 19.2083 64.8743 19.2083L57.2181 22.8593L56.791 22.6562Z" fill="#DBAB4A"/>
</g>
<path d="M43.8639 13.985C42.9941 13.3079 43.1973 12.3392 43.1973 12.3392C43.1973 12.3392 42.6296 13.2507 43.0514 13.985C43.4733 14.7142 42.1608 12.6673 40.5514 11.8965C38.9473 11.1309 38.8535 11.1309 38.8535 11.1309C38.8535 11.1309 41.3848 12.4486 41.9421 13.5059C42.4941 14.5684 41.9785 15.0163 41.1452 14.5527C40.3171 14.0892 42.4368 15.3913 42.6035 15.3913C42.7702 15.3913 43.8639 13.985 43.8639 13.985Z" fill="#DBAB4A"/>
<path d="M55.1927 10.0521C55.026 8.46354 56.3385 8.125 56.3385 8.125C56.3385 8.125 55.3125 9.17188 55.599 10.8906L56.1719 10.0521C56.1719 10.0521 55.7083 12.3021 55.0052 12.5L56.3385 11.7969C56.3385 11.7969 55.3021 12.849 55.0781 13.0885C54.8594 13.3229 55.6354 14.2604 56.1042 13.9844C56.5781 13.7083 56.6927 12.8594 56.6927 12.8594C56.6927 12.8594 56.8698 14.1667 55.849 14.4063C54.8281 14.6406 55.6615 15.2188 55.9948 15.0521C55.9948 15.0521 55.7292 15.4115 55.375 15.2552L55.5417 15.6146L55.1823 15.4479L55.3177 15.8021L55.1458 15.7135L54.4688 10.7135L55.1927 10.0521Z" fill="#DBAB4A"/>
<path d="M26.9948 21.1986C28.401 20.1725 30.8542 20.4538 30.8542 20.4538C30.8542 20.4538 28.0365 20.7923 27.5573 21.5215C27.5573 21.5215 30.5052 21.0059 30.8542 22.5527C30.8542 22.5527 29.3333 21.7402 27.9896 22.5527L28.9219 23.334C28.9219 23.334 28.3385 22.985 27.6458 23.0267C26.9479 23.0684 25.7344 23.6725 25.7344 23.6725C25.7344 23.6725 26.4323 22.8965 26.6875 22.7246C26.9479 22.5527 26.3437 21.5684 25.1302 21.3496C23.9167 21.1361 23.2656 21.0527 23.2656 21.0527C23.2656 21.0527 24.7812 20.834 25.7344 21.2246C26.6875 21.61 25.7344 21.0059 25.7344 21.0059L25.3438 20.0215L26.6042 21.4382L26.776 20.4538L26.9948 21.1986Z" fill="#E6BC52"/>
<path d="M33.6042 39.1354C35.4844 36.8958 35.2344 34.8438 35.2344 34.8438C35.2344 34.8438 35.6094 38.1406 34.1667 39.7552C34.1667 39.7552 35.0781 39.5052 35.4531 38.7292C35.4531 38.7292 35.1406 40.1615 34.526 40.1615C33.9167 40.1615 35.4531 40.5677 35.4531 40.5677L34.526 40.75L35.0781 41.1563L34.526 41.276C34.526 41.276 34.9219 41.8385 35.7969 41.651C36.6771 41.4635 37.0156 40.9063 37.0156 40.9063C37.0156 40.9063 36.6719 42.0573 35.3073 41.9948C33.9479 41.9323 33.6042 41.0625 33.6042 41.0625L34.5417 42.6771C34.5417 42.6771 33.5417 41.9948 33.1615 41.1563C32.7865 40.3125 32.349 42.026 32.349 42.026C32.349 42.026 32.0937 40.375 32.5677 40.1927C33.0365 40.0052 31.5625 39.474 31.5625 39.474L32.8802 39.7865C32.8802 39.7865 32.6927 38.0469 31.6875 37.1458C31.6875 37.1458 32.6302 37.3281 33.0365 38.7604V37.7031L33.6042 39.1354Z" fill="#E6BC52"/>
<path d="M58.7292 15.5007C60.6146 13.2611 60.3646 11.209 60.3646 11.209C60.3646 11.209 60.7396 14.5059 59.2969 16.1204C59.2969 16.1204 60.2031 15.8704 60.5833 15.0944C60.5833 15.0944 60.2708 16.5267 59.6563 16.5267C59.0469 16.5267 60.5833 16.9329 60.5833 16.9329L59.6563 17.1152L60.2031 17.5215L59.6563 17.6413C59.6563 17.6413 60.0469 18.2038 60.9271 18.0163C61.8073 17.8288 62.1458 17.2715 62.1458 17.2715C62.1458 17.2715 61.7969 18.4225 60.4375 18.36C59.0729 18.2975 58.7292 17.4277 58.7292 17.4277L59.6719 19.0423C59.6719 19.0423 58.6667 18.36 58.2917 17.5215C57.9167 16.6777 57.474 18.3913 57.474 18.3913C57.474 18.3913 57.224 16.7402 57.6927 16.5579C58.1667 16.3704 56.6875 15.8392 56.6875 15.8392L58.0104 16.1517C58.0104 16.1517 57.8177 14.4121 56.8177 13.5111C56.8177 13.5111 57.7552 13.6934 58.1667 15.1257V14.0684L58.7292 15.5007Z" fill="#CC9D41"/>
<path d="M8.60352 21.4902C9.67122 22.2767 10.6035 22.1152 10.6035 22.1152C10.6035 22.1152 9.10872 22.3652 8.33268 21.7611C8.33268 21.7611 8.47331 22.1621 8.83789 22.3132C8.83789 22.3132 8.17643 22.2038 8.16081 21.9329C8.14518 21.6569 7.99414 22.3548 7.99414 22.3548L7.88997 21.9486L7.7181 22.2038L7.65039 21.959C7.65039 21.959 7.4056 22.1517 7.50977 22.5371C7.61914 22.9277 7.87956 23.0632 7.87956 23.0632C7.87956 23.0632 7.34831 22.9382 7.3431 22.3288C7.33789 21.7142 7.72331 21.5423 7.72331 21.5423L7.00977 22.0007C7.00977 22.0007 7.29622 21.5371 7.67122 21.3444C8.04622 21.1569 7.25456 21.0007 7.25456 21.0007C7.25456 21.0007 7.99935 20.8496 8.09831 21.0527C8.19206 21.2611 8.40039 20.5892 8.40039 20.5892L8.29102 21.1829C8.29102 21.1829 9.07747 21.0579 9.46289 20.584C9.46289 20.584 9.4056 21.0111 8.75977 21.2298L9.24414 21.2038L8.60352 21.4902Z" fill="#E6BC52"/>
<path d="M14.4583 38.9792C13.6302 38.7448 13.7188 38.3073 13.7188 38.3073L14.5885 38.6354C14.5885 38.6354 14.349 38.1615 13.9583 38.0156C13.9583 38.0156 14.9688 37.7031 15.224 37.2813C15.224 37.2813 14.3281 37.8333 13.8125 37.7552L13.9583 37.2656L13.5365 37.776C13.5365 37.776 13.8333 36.7344 13.6094 36.4219C13.6094 36.4219 13.625 37.2969 13.276 37.6406L13.2396 36.9635C13.2396 36.9635 13.0469 37.5521 13.1094 37.7344L12.9219 37.526L12.974 37.7448L12.8385 37.7552L13 37.9167C11.849 38.1406 10.8906 36.7031 10.8906 36.7031C10.8906 36.7031 10.9688 38.4688 12.5938 38.3958C12.5938 38.3958 11.651 38.7083 11.3542 38.6354C11.3542 38.6354 11.724 38.8385 12.1146 38.8177C12.5 38.8021 12.1146 38.9115 12.1146 38.9115L11.7604 39.1302C11.7604 39.1302 12.1667 39.1302 12.3542 39.0208C12.5365 38.9115 12.3542 39.1302 12.3542 39.1302C12.3542 39.1302 11.8177 39.75 12 40.2083C12 40.2083 12.1302 39.4635 12.7604 39.3594C12.7604 39.3594 12.3542 40.3958 13.4427 41.2552C13.4427 41.2552 13.0156 40.8125 13.0573 40.0625C13.0938 39.3125 13.3333 38.9792 13.3333 38.9792L13.4427 40.1354C13.4427 40.1354 13.7396 39.4219 13.5365 38.8385C13.5365 38.8385 13.7031 39.2604 14.4792 39.349C15.2552 39.4427 15.6615 38.5469 15.6615 38.5469C15.6615 38.5469 15.2917 39.2083 14.4583 38.9792Z" fill="#E6BC52"/>
<path d="M29.4329 25.6253C29.8757 25.2555 30.0892 25.4691 30.0892 25.4691L29.5788 25.8285C29.5788 25.8285 29.9329 25.8753 30.1621 25.7139C30.1621 25.7139 29.959 26.3857 30.0996 26.6826C30.0996 26.6826 30.1257 25.9847 30.36 25.7295L30.584 25.9951L30.4538 25.568C30.4538 25.568 30.9329 26.1253 31.1882 26.1201C31.1882 26.1201 30.6934 25.7972 30.6309 25.4743L31.0267 25.7139C31.0267 25.7139 30.7663 25.3857 30.6361 25.3493L30.8288 25.3232L30.6882 25.2712L30.7298 25.193L30.5788 25.2191C30.8861 24.5003 32.0527 24.516 32.0527 24.516C32.0527 24.516 31.0319 23.891 30.459 24.8128C30.459 24.8128 30.6413 24.1774 30.7923 24.042C30.7923 24.042 30.5371 24.1722 30.4017 24.391C30.2663 24.6149 30.3496 24.3597 30.3496 24.3597L30.36 24.0837C30.36 24.0837 30.209 24.3076 30.1986 24.4482C30.1934 24.5941 30.1361 24.4066 30.1361 24.4066C30.1361 24.4066 29.9902 23.8805 29.6621 23.8076C29.6621 23.8076 30.0371 24.1618 29.8548 24.5472C29.8548 24.5472 29.4277 23.9326 28.5371 24.2139C28.5371 24.2139 28.9434 24.1409 29.3496 24.443C29.7559 24.7451 29.8548 25.0055 29.8548 25.0055L29.1621 24.6305C29.1621 24.6305 29.4538 25.0628 29.86 25.1722C29.86 25.1722 29.5579 25.1045 29.2194 25.5003C28.8757 25.8909 29.2246 26.4535 29.2246 26.4535C29.2246 26.4535 28.9902 26.0003 29.4329 25.6253Z" fill="#E6BC52"/>
<path d="M53.6296 33.5007C53.5618 32.9329 53.8639 32.8757 53.8639 32.8757L53.8796 33.4902C53.8796 33.4902 54.1139 33.2246 54.1087 32.9486C54.1087 32.9486 54.5619 33.485 54.89 33.5319C54.89 33.5319 54.3171 33.1257 54.2285 32.7923L54.5775 32.7559L54.1452 32.6257C54.1452 32.6257 54.8744 32.5371 55.015 32.3236C55.015 32.3236 54.4681 32.5579 54.166 32.4329L54.5827 32.235C54.5827 32.235 54.1608 32.2663 54.0618 32.3548L54.1452 32.1829L54.0202 32.2715L53.9785 32.1934L53.9212 32.3288C53.4837 31.6829 54.14 30.7246 54.14 30.7246C54.14 30.7246 53.0514 31.2246 53.515 32.2038C53.515 32.2038 53.0775 31.7038 53.0462 31.5059C53.0462 31.5059 53.015 31.7871 53.1296 32.0163C53.2389 32.2507 53.0723 32.0423 53.0723 32.0423L52.8431 31.8809C52.8431 31.8809 52.9473 32.1309 53.0618 32.2194C53.1816 32.3027 52.9941 32.2454 52.9941 32.2454C52.9941 32.2454 52.4681 32.0788 52.2285 32.3079C52.2285 32.3079 52.7285 32.1934 52.9525 32.5527C52.9525 32.5527 52.2025 32.5684 51.9473 33.4642C51.9473 33.4642 52.1087 33.0892 52.5879 32.9173C53.0723 32.7454 53.3431 32.8079 53.3431 32.8079L52.6452 33.1725C52.6452 33.1725 53.166 33.1725 53.4837 32.8965C53.4837 32.8965 53.2598 33.11 53.4056 33.61C53.5462 34.11 54.2129 34.1309 54.2129 34.1309C54.2129 34.1309 53.6973 34.0736 53.6296 33.5007Z" fill="#CC9D41"/>
<path d="M42.5684 8.99023C43.0319 9.33399 42.8652 9.58398 42.8652 9.58398L42.4017 9.17253C42.4017 9.17253 42.4382 9.52669 42.6465 9.71419C42.6465 9.71419 41.9382 9.66732 41.6777 9.87044C41.6777 9.87044 42.3704 9.74023 42.6777 9.9069L42.4642 10.1829L42.8548 9.96419C42.8548 9.96419 42.4173 10.5475 42.4798 10.7923C42.4798 10.7923 42.6829 10.2402 42.985 10.11L42.8392 10.5423C42.8392 10.5423 43.1048 10.2194 43.11 10.0892L43.1777 10.2663L43.1986 10.1152L43.2871 10.1413L43.2246 10.0007C44.0007 10.1361 44.2507 11.2663 44.2507 11.2663C44.2507 11.2663 44.6361 10.1361 43.5944 9.79753C43.5944 9.79753 44.2611 9.82878 44.4329 9.94336C44.4329 9.94336 44.2507 9.72982 44.0007 9.64648C43.7507 9.56836 44.0215 9.58919 44.0215 9.58919L44.2975 9.53711C44.2975 9.53711 44.0423 9.43815 43.8965 9.46419C43.7559 9.49023 43.9225 9.39648 43.9225 9.39648C43.9225 9.39648 44.4121 9.13086 44.4069 8.80273C44.4069 8.80273 44.1465 9.24023 43.7246 9.15169C43.7246 9.15169 44.2298 8.60482 43.7559 7.80273C43.7559 7.80273 43.9173 8.18294 43.709 8.64128C43.5059 9.10482 43.2715 9.25586 43.2715 9.25586L43.485 8.50586C43.485 8.50586 43.1257 8.88086 43.11 9.29753C43.11 9.29753 43.11 8.99544 42.6465 8.75065C42.1829 8.51107 41.709 8.97461 41.709 8.97461C41.709 8.97461 42.0996 8.64648 42.5684 8.99023Z" fill="#DBAB4A"/>
<path d="M42.2969 29.469C42.2969 29.469 42.9375 28.8909 43.0469 28.12C43.0469 28.12 43.3281 28.3388 43.0469 29.0263C43.0469 29.0263 43.9271 27.6305 44.526 27.1617C45.1302 26.693 45.625 26.7919 45.625 26.7919C45.625 26.7919 44.3229 27.2815 44.2708 28.1253C44.2135 28.9742 45.625 27.1878 45.625 27.1878C45.625 27.1878 45.5417 28.3284 44.9635 28.8544L45.625 28.4794L44.7969 29.469C44.7969 29.469 45.8229 29.8492 45.849 30.62C45.875 31.3909 45.3385 32.495 45.3385 32.495C45.3385 32.495 45.9583 30.5888 45.1823 30.318C44.4063 30.0419 45.0156 31.6825 45.0156 31.6825L44.6823 31.4169L44.9635 32.7346L44.2969 31.995L42.2969 29.469Z" fill="#DBAB4A"/>
</svg>
