<svg width="68" height="39" viewBox="0 0 68 39" fill="none" xmlns="http://www.w3.org/2000/svg">
<path d="M60.4268 22.318C59.6559 23.4326 58.4684 23.9118 57.1351 23.7191C54.9424 23.4014 52.4372 22.0889 51.1143 20.2972C49.6768 18.3545 49.3434 15.4535 50.7289 13.3962C51.4164 12.3701 52.8799 11.0732 53.8643 12.4274C53.8539 12.391 53.833 12.3545 53.8226 12.318C54.4372 12.1201 55.182 11.9951 55.7966 12.3024C56.4789 12.641 56.3434 12.9535 56.4059 13.5941C56.8851 13.2555 57.6455 12.4639 58.1455 13.141C58.557 13.6878 58.432 14.8649 58.3434 15.5003C58.8278 14.818 59.6664 14.8024 60.0674 15.5576C60.6039 16.5576 60.4528 17.7191 60.4164 18.8076C60.3747 20.0212 61.1976 21.2087 60.4268 22.318ZM49.7914 10.7295C49.1612 9.19824 48.2393 9.5472 46.8695 9.67741C46.8799 8.45866 45.8695 8.15137 44.9164 8.68783C44.8903 7.71908 44.9997 6.71387 44.3903 5.88054C43.3747 4.49512 42.2705 4.3597 41.182 5.66699C40.6664 6.28679 40.682 6.52637 39.9528 6.2347C39.0153 5.86491 38.1507 5.95345 37.7237 6.97949C36.9945 6.43262 35.9997 5.72429 35.0778 6.2347C34.4632 6.57845 34.2445 7.25033 34.5153 7.88574C33.8747 7.08887 32.8122 6.43262 31.8643 7.16179C31.2966 7.59408 30.7132 8.61491 30.6351 9.33366C30.3851 11.5472 33.1299 11.6097 34.6455 11.4274C36.833 11.1618 39.2653 9.84408 41.458 10.7555C43.4737 11.5941 43.7393 14.5003 45.8122 15.0993C46.5101 15.2972 47.2809 15.2243 47.8903 14.8285C48.6091 14.3597 48.958 13.5785 49.5362 12.9847C50.2028 12.3024 50.1507 11.6045 49.7914 10.7295Z" fill="#679334"/>
<path d="M37.5885 18.1203C39.375 18.5265 41.3593 18.3599 43.0312 17.6151C44.7708 16.8443 45.875 15.214 46.1458 13.3078C46.2291 12.7453 46.3958 11.6672 45.9583 11.2401C45.5 10.7974 44.6614 11.3703 44.2812 11.6203C44.3489 11.1463 44.7552 10.4901 44.375 10.0317C43.9843 9.563 43.3802 9.97446 43.0625 10.3599C44.3958 9.20362 46.4166 2.39112 43.302 2.67758C40.2916 2.95362 40.1458 7.21404 40.2031 9.46404C40.2031 8.89633 40.4218 7.53696 39.6302 7.36508C38.8802 7.19842 38.5416 8.54217 38.4218 9.09425C38.5416 7.83383 37.2708 7.02133 36.8854 8.57862C36.7968 7.03696 37.5416 2.56821 35.375 2.17758C33.2343 1.78696 33.6406 5.18279 33.6041 6.39112C33.5729 5.92238 32.901 4.90154 32.3072 5.07862C31.6354 5.27654 31.9427 6.38071 31.9895 6.85467C30.7291 5.94842 30.2708 7.53175 30.3385 8.58383C30.4635 10.6151 31.8802 12.188 32.8229 13.8911C33.9791 15.9797 35.0833 17.5578 37.5885 18.1203Z" fill="#4E7F1C"/>
<mask id="mask0_292_113709" style="mask-type:luminance" maskUnits="userSpaceOnUse" x="21" y="0" width="22" height="31">
<path d="M21.3184 0H42.6517V30.474H21.3184V0Z" fill="white"/>
</mask>
<g mask="url(#mask0_292_113709)">
<path d="M39.1729 29.2397C36.5635 30.1199 33.4281 30.1615 30.7093 30.0105C28.7614 29.9063 25.8135 29.3751 24.2979 27.797C24.0374 27.5261 23.8187 27.224 23.652 26.8907C23.0322 25.6199 23.0583 23.9688 22.626 22.6147C22.1104 20.974 21.7041 19.3959 22.2302 17.6876C23.4281 13.849 24.0374 9.29696 23.7197 5.2605C23.6416 4.29696 23.2614 3.34383 23.5322 2.573C23.652 2.24487 23.8916 1.95841 24.3187 1.71362C25.5687 0.989663 26.9333 -0.00512796 28.251 0.994872C30.4385 2.65633 31.1729 6.05216 32.001 8.5105C34.2145 8.41154 35.2562 10.0678 35.7197 12.0261C36.1208 13.6772 37.1104 14.7709 38.3135 15.9428C38.9437 16.5522 39.251 17.1147 39.5843 17.9428C40.4281 20.0261 41.277 22.2292 41.6572 24.4584C42.0479 26.7345 41.4749 28.4584 39.1729 29.2397Z" fill="#A3AAB2"/>
</g>
<path d="M41.1989 26.0732C40.4906 27.9378 38.1104 28.1982 36.3968 28.2712C33.3916 28.4014 30.3552 28.016 27.3604 27.8493C26.4385 27.7972 25.3708 27.8285 24.2979 27.7972C24.0374 27.5264 23.8187 27.2243 23.652 26.891C23.0322 25.6201 23.0583 23.9691 22.626 22.6149C22.1104 20.9743 21.7041 19.3962 22.2302 17.6878C23.4281 13.8493 24.0374 9.2972 23.7197 5.26074C23.6416 4.2972 23.2614 3.34408 23.5322 2.57324C24.8447 2.89616 26.0895 4.68783 26.1104 5.89095C26.152 8.01595 26.1052 10.0316 26.6208 12.1201C27.0166 13.7295 27.4802 14.1305 28.7666 14.9482C29.9229 15.6878 29.9697 16.917 30.7718 17.8857C31.5114 18.7712 33.0895 18.818 34.152 18.9795C36.5062 19.318 38.5999 19.6514 40.1468 21.693C41.027 22.8701 41.751 24.6045 41.1989 26.0732Z" fill="#8C949B"/>
<mask id="mask1_292_113709" style="mask-type:luminance" maskUnits="userSpaceOnUse" x="0" y="3" width="26" height="29">
<path d="M0 3.80762H25.3177V31.8076H0V3.80762Z" fill="white"/>
</mask>
<g mask="url(#mask1_292_113709)">
<path d="M24.0623 14.5208C23.8852 16.0677 23.4529 17.5677 23.2186 19.1042C23.0519 20.1823 22.2915 20.9271 21.1821 20.3802C20.1144 19.8594 19.104 18.6302 18.3019 17.776C17.3383 16.75 16.6248 15.4427 15.8279 14.2917C15.3331 13.5833 14.0467 11.0417 15.2915 10.3698C16.4738 9.73437 18.0519 12.5156 18.2238 13.401C17.9008 11.8281 17.4842 10.2604 17.3383 8.66145C17.255 7.80728 17.0675 5.21874 18.4008 5.04687C19.7238 4.8802 20.38 7.81249 20.6248 8.64582C21.0102 9.95832 21.5363 11.5469 21.2602 12.9323C21.4529 12.3177 22.3644 8.10937 23.6196 9.98437C24.3383 11.0573 24.1977 13.3125 24.0623 14.5208ZM6.91647 25.4687C6.21334 25.4635 5.58834 26.849 5.48418 27.4115C5.01022 26.3229 4.30709 25.3333 3.66647 24.3385C3.1248 23.5 2.27584 21.5 1.26543 21.1146C0.124801 20.6771 0.598761 22.5989 0.760218 23.1354C1.07272 24.1823 1.55709 25.2604 2.26543 26.1042C1.73938 25.7865 -0.0262402 24.5052 0.249801 25.9375C0.489384 27.2187 2.23938 29.0156 3.52063 29.4896C2.79147 29.2344 1.2498 29.1979 2.11438 30.151C2.83834 30.9531 4.07793 31.4271 5.10918 31.5937C6.11959 31.7552 8.1873 32.125 8.34355 30.724C8.46334 29.6667 8.23938 28.5521 7.97897 27.5417C7.84355 27.0156 7.64043 25.4792 6.91647 25.4687Z" fill="#4E7F1C"/>
</g>
<path d="M23.5272 16.6096C23.5636 17.3492 22.824 18.0524 22.3761 18.5628C21.8449 19.1669 21.3188 19.8336 20.6574 20.3024C17.8813 22.2867 14.824 19.4117 12.8449 17.6409C12.1001 16.9742 11.2147 16.0836 11.6365 14.9846C12.0115 14.0107 13.1678 14.0784 13.6209 14.9274C13.7876 14.5159 14.2407 13.9742 14.7199 13.9899C15.3188 14.0055 15.6001 14.6565 15.8501 15.0992C16.0897 14.1721 17.8292 11.8232 18.9178 12.4951C19.8553 13.0784 19.074 14.7607 19.0376 15.6149C19.1834 15.1826 19.897 14.6253 20.3761 14.7867C20.949 14.9794 20.6886 15.7294 20.4959 16.1149C21.2615 15.4221 23.4595 15.0732 23.5272 16.6096Z" fill="#679334"/>
<path d="M31.3178 28.9059C30.8074 30.2237 29.8282 30.9841 28.5262 31.4789C27.198 31.9945 25.7553 31.5882 24.3595 31.7757C22.6772 31.9945 21.047 32.3174 19.3282 32.1403C16.6043 31.8643 14.0678 31.432 11.297 31.5778C9.0574 31.6924 6.95324 32.2862 5.9897 29.8955C5.56782 28.8382 5.10949 27.8747 4.42199 26.9684C3.81782 26.1559 2.83865 25.333 2.65115 24.2966C2.42199 22.9684 3.55219 21.7705 4.37511 20.8903C5.79178 19.3903 7.4324 18.0257 9.14074 16.8799C9.75532 16.4684 10.4845 15.9684 11.2605 15.6924C11.2657 15.6872 11.2709 15.6872 11.2762 15.6872C11.797 15.5049 12.3334 15.4216 12.8543 15.5414C13.7918 15.7445 14.4428 16.5622 15.2032 17.0882C17.0262 18.3487 18.3074 17.3434 20.2241 17.4684C21.2501 17.5362 22.0991 18.2549 22.8699 18.8539C24.2657 19.9372 25.6355 21.057 27.0314 22.1403C28.2762 23.1091 30.0418 24.2705 30.9532 25.7237C31.547 26.6507 31.7918 27.708 31.3178 28.9059Z" fill="#A3AAB2"/>
<path d="M31.3178 28.9059C30.8074 30.2236 29.8282 30.9841 28.5262 31.4788C27.198 31.9945 25.7553 31.5882 24.3595 31.7757C22.6772 31.9945 21.047 32.3174 19.3282 32.1403C16.6043 31.8643 14.0678 31.432 11.297 31.5778C9.0574 31.6924 6.95324 32.2861 5.9897 29.8955C5.56782 28.8382 5.10949 27.8747 4.42199 26.9684C3.81782 26.1559 2.83865 25.333 2.65115 24.2966C2.42199 22.9684 3.55219 21.7705 4.37511 20.8903C5.79178 19.3903 7.4324 18.0257 9.14074 16.8799C9.75532 16.4684 10.4845 15.9684 11.2605 15.6924C11.2397 15.708 11.2189 15.7132 11.2084 15.7236C10.4845 16.2132 9.86469 16.9111 9.22407 17.5049C7.92719 18.7236 6.6199 20.0257 5.75532 21.6038C5.06261 22.8538 5.7397 23.3747 6.83865 23.9476C7.96365 24.5309 9.26053 25.208 10.5366 25.3486C11.7397 25.4788 12.6355 24.9528 13.672 24.4424C15.7501 23.4216 16.1668 25.1872 17.8282 26.0466C18.9689 26.6455 20.3282 26.8747 21.5522 27.2809C22.3647 27.5518 23.8543 28.458 24.7449 28.2497C25.4272 28.0778 25.7449 27.1768 26.1928 26.708C26.8491 26.0153 27.7032 25.5413 28.6564 25.4528C29.3022 25.3903 30.1512 25.4788 30.9532 25.7236C31.547 26.6507 31.7918 27.708 31.3178 28.9059Z" fill="#8C949B"/>
<path d="M29.3232 29.9896C28.1722 30.3438 27.2868 29.5313 26.818 28.5417C26.5107 27.8959 26.193 26.6146 27.0732 26.2605C26.8701 25.7136 26.4899 25.3386 26.5524 24.6927C26.5993 24.25 26.8076 23.8334 27.3024 24.099C27.0732 23.6771 26.4274 22.8542 27.2763 22.6355C28.1826 22.4011 29.2972 23.3438 29.6201 24.1042C29.792 23.6355 29.8284 22.8855 30.5472 23C32.0784 23.25 32.4691 25.6198 32.1878 26.7917C31.8597 28.1459 30.6722 29.5677 29.3232 29.9896ZM43.8441 14.1927C43.8441 13.5677 44.042 12.1198 43.542 11.6198C42.7243 10.7969 41.0211 13.1823 40.7451 13.8542C40.3545 12.7813 39.8597 12.2917 38.8024 13.125C37.5836 14.0834 37.5472 15.3855 37.542 16.7917C36.2138 15.9792 35.9274 18.0417 36.2503 18.9844C35.6305 18.5886 35.2868 19.3594 35.2711 19.8698C35.2191 21.2969 36.0159 23.8177 37.8545 23.349C39.4847 22.9375 41.4222 21.4219 42.3128 20.0209C42.8701 19.1459 43.3441 18.0521 43.5941 17.0417C43.8284 16.1094 43.8493 15.1511 43.8441 14.1927Z" fill="#679334"/>
<mask id="mask2_292_113709" style="mask-type:luminance" maskUnits="userSpaceOnUse" x="19" y="13" width="49" height="22">
<path d="M19.9844 13.1406H67.3542V34.474H19.9844V13.1406Z" fill="white"/>
</mask>
<g mask="url(#mask2_292_113709)">
<path d="M64.9318 26.1146C63.4109 28.4271 60.7443 31.4948 57.8953 32.0989C55.6349 32.5833 56.0984 29.7187 55.9943 28.3021C55.937 27.5364 55.7703 26.9167 55.9318 26.1719C56.1297 25.25 56.3016 24.3229 56.5255 23.4062C56.7234 22.5989 56.7286 22.0104 56.7547 21.2083C56.7963 19.8073 57.463 17.8073 58.7286 17.0521C60.0047 16.2864 59.713 18.3437 59.713 19.0885C59.8797 18.1614 60.4682 17.3125 61.0411 16.5885C61.5463 15.9479 62.8224 14.3594 63.8172 14.5729C65.3224 14.8906 63.3224 19.6458 62.9578 20.5833C63.9422 19.8125 65.937 18.3906 66.6453 20.25C67.3588 22.1094 65.9057 24.6354 64.9318 26.1146ZM36.6922 14.7552C35.3328 14.2864 35.4161 17.8958 35.3797 18.651C35.3901 17.4271 33.7338 13.6042 32.0516 14.2187C30.463 14.8021 32.6349 18.6927 33.0932 19.6042C32.5724 18.6719 30.2651 15.5729 29.0099 16.625C27.5724 17.8229 30.0047 20.4323 30.7703 21.3281C30.2391 20.9427 29.1193 20.151 28.9682 21.2708C28.7859 22.5885 30.338 23.9792 31.1661 24.776C31.8328 25.4167 33.4318 27.4792 34.5151 26.9479C35.3588 26.5312 35.8797 25.0469 36.2963 24.2604C36.8172 23.2812 37.5307 22.3854 37.6505 21.25C37.7703 20.1198 37.7026 18.8333 37.6766 17.6823C37.6557 16.9271 37.6349 15.0781 36.6922 14.7552ZM25.4734 27.7031C25.1557 27.1614 24.8536 26.026 24.0307 26.0989C23.1713 26.1719 23.2703 27.8594 23.2599 28.5156C22.838 27.8073 20.9734 26.3229 20.8224 27.9167C20.6609 29.6354 23.0047 30.7344 24.0568 31.7292C23.4578 31.3281 21.9422 31.3489 21.7599 32.2448C21.5672 33.2135 23.0255 33.8229 23.7182 34.0052C24.7703 34.276 25.9474 34.5937 26.9057 33.9114C27.9526 33.1719 27.7391 30.75 27.8172 29.5781C27.8797 28.6354 27.7911 27.3385 26.9891 26.6979C26.2963 26.1406 25.7078 27.1198 25.4734 27.7031Z" fill="#4E7F1C"/>
</g>
<path d="M62.3799 30.3384C62.2914 31.1874 62.0726 31.979 62.0205 32.8592C61.9633 33.8176 61.8435 34.8905 61.1403 35.6197C59.9737 36.7967 56.8487 36.7603 55.3435 36.9686C52.8226 37.3228 50.2653 37.4842 47.7341 37.7551C45.7601 37.9686 43.7185 38.4634 41.7341 38.4322C39.833 38.4061 37.9685 37.6405 36.1924 37.0415C34.0101 36.3072 31.8278 35.5415 29.6143 34.8592C28.7185 34.5832 27.2653 34.4269 26.5726 33.7238C26.4997 33.6509 26.4372 33.5728 26.3851 33.4947C25.8435 32.703 26.2601 31.6874 26.333 30.8228C26.4164 29.9217 26.3487 29.0415 26.5153 28.1405C26.8383 26.354 27.7549 24.9009 29.6195 24.4894C31.0987 24.1665 32.5466 23.979 33.8643 23.1665C35.3799 22.2499 36.4633 20.8124 37.3955 19.3384C38.9112 16.9374 39.8487 15.1092 42.5258 13.9686C43.7653 13.4426 44.9112 12.8176 46.0205 12.0572C47.1247 11.2967 48.2601 10.2342 49.5883 9.88528C52.7758 9.05716 54.1247 14.2655 54.9268 16.3853C56.1039 19.5103 57.5049 21.7915 59.6508 24.3124C59.8747 24.578 60.1091 24.8697 60.3487 25.1769C61.4685 26.6509 62.5778 28.604 62.3799 30.3384Z" fill="#A3AAB2"/>
<path d="M62.3815 30.3382C62.293 31.1872 62.0742 31.9789 62.0221 32.8591C61.9648 33.8174 61.8451 34.8903 61.1419 35.6195C59.9753 36.7966 56.8503 36.7601 55.3451 36.9684C52.8242 37.3226 50.2669 37.4841 47.7357 37.7549C45.7617 37.9684 43.7201 38.4632 41.7357 38.432C39.8346 38.4059 37.9701 37.6403 36.194 37.0414C34.0117 36.307 31.8294 35.5414 29.6159 34.8591C28.7201 34.583 27.2669 34.4268 26.5742 33.7237C26.5013 33.6507 26.4388 33.5726 26.3867 33.4945C26.6211 33.3122 26.8763 33.1351 27.0898 32.9007C28.4544 31.3851 27.6055 28.958 28.7826 27.2393C29.8138 25.7289 32.5065 23.5414 34.5117 23.9216C35.4388 24.0934 35.2513 24.8018 35.3294 25.6039C35.4544 27.0049 36.069 28.1455 37.444 28.6768C40.4909 29.8643 44.2513 27.333 46.5794 30.3278C47.2513 31.1976 47.7357 32.3799 48.8294 32.8122C49.7982 33.1924 50.9857 32.8955 51.9857 32.8643C54.2773 32.7966 56.9857 33.708 59.1784 32.7966C61.1003 31.9945 61.1992 29.6455 61.0169 27.8539C60.944 27.1664 60.6003 26.182 60.3503 25.1768C61.4701 26.6507 62.5794 28.6039 62.3815 30.3382Z" fill="#8C949B"/>
<path d="M54.1004 18.1303C54.4285 18.8335 55.2619 19.8126 55.0952 20.6408C54.8608 21.797 52.8348 20.3439 52.366 19.9741C51.8452 19.5574 51.616 18.9168 51.3608 18.323C50.8816 17.1824 50.366 16.0522 49.9181 14.9012C49.6629 14.2449 49.1369 13.1199 49.6994 12.4897C50.116 12.021 50.9858 12.0053 51.5587 11.9949C52.9494 11.9689 53.0014 12.5418 52.9962 13.7658C52.991 15.2918 53.4702 16.7605 54.1004 18.1303ZM58.6212 27.0939C58.4441 26.2658 58.1421 25.6408 57.5744 24.9949C57.3504 24.7449 56.9598 24.4428 56.59 24.547C55.6681 24.8022 56.6108 25.6512 56.8816 25.9845C57.2098 26.3908 57.2879 26.7658 57.366 27.2658C57.4285 27.6355 57.465 28.0366 57.8869 28.1564C58.7462 28.4012 58.7462 27.698 58.6212 27.0939ZM45.8816 25.7085C45.366 25.4272 44.465 24.4116 43.7931 24.823C43.0275 25.297 43.8921 26.6147 44.2671 27.1043C44.6994 27.6668 45.465 28.0522 46.1733 28.0939C46.6941 28.1251 47.5848 27.9949 47.6681 27.3699C47.7827 26.4949 46.4546 26.0158 45.8816 25.7085ZM46.6056 19.6355C46.9025 19.1043 45.9077 18.1251 45.6837 17.7241C45.491 17.3647 44.9962 16.2241 44.5066 16.7085C43.8712 17.3387 44.7514 18.396 45.09 18.9272C45.34 19.3178 46.0691 20.6147 46.6056 19.6355ZM37.0691 22.6876C36.5327 23.047 37.1941 23.9637 37.5483 24.2397C37.8087 24.4324 39.0066 24.9324 39.2723 24.6512C39.59 24.3178 38.7202 23.3178 38.491 23.1095C38.1941 22.8335 37.4702 22.422 37.0691 22.6876ZM27.3869 1.63034C26.9233 1.51575 26.465 1.59388 26.0587 1.8595C25.4806 2.23971 25.6785 2.50534 26.0691 2.89075C26.6212 3.44284 27.1681 4.00013 27.6525 4.6095C28.1056 5.18242 28.7358 6.58346 29.4598 6.84388C30.5848 7.25534 29.2775 4.30742 29.1473 3.93242C28.8191 2.9793 28.4858 1.89596 27.3869 1.63034ZM32.3556 10.521C32.0014 10.4585 31.2566 10.297 31.2983 10.7241C31.3556 11.4272 32.4285 11.6668 32.9077 11.9012C33.2723 12.0835 33.6004 12.5053 33.8816 12.771C34.2671 11.8647 33.2671 10.672 32.3556 10.521ZM29.1889 10.8022C29.1212 10.7345 28.1785 10.047 28.1316 10.2918C28.0014 10.9116 29.2671 11.9637 29.84 11.8751C30.0327 11.4637 29.4546 11.0626 29.1889 10.8022ZM33.6369 13.771C33.4025 13.8647 33.4858 14.2553 33.616 14.448C33.8087 14.7345 34.8452 15.1251 34.6681 14.422L34.7931 14.4637C34.5639 14.2449 33.965 13.6355 33.6369 13.771ZM23.215 21.1876C22.9806 20.7918 22.3296 20.5262 21.9598 20.2866C21.3712 19.9012 20.8244 19.4272 20.2202 19.0574C19.8139 18.8126 19.5691 18.8126 19.1108 18.9637C18.741 19.0887 17.6994 19.422 17.6994 19.9272C17.7046 20.7501 19.6369 20.9533 20.1629 21.3178C20.8504 21.7918 21.1473 22.3855 22.0587 22.3855C22.7358 22.3855 23.7046 22.0366 23.215 21.1876ZM16.866 22.797C16.4233 22.3855 15.8921 22.3908 15.3191 22.3699C14.7046 22.3439 14.3608 22.7241 15.0014 23.0835C15.5327 23.3855 16.2202 23.5522 16.8296 23.4845C17.4494 23.4168 17.2514 23.146 16.866 22.797ZM12.1889 19.9428C12.5379 19.4897 11.5483 19.1147 11.2462 19.0105C10.7046 18.8178 10.0796 18.7605 9.54311 19.0158C8.88686 19.3335 9.34519 19.7189 9.87123 19.9116C10.3348 20.073 11.7879 20.4637 12.1889 19.9428ZM22.9598 24.1564L23.2619 24.073C22.8712 23.797 21.5952 23.7553 21.1889 24.0053C20.8504 24.2189 20.9181 24.573 21.2566 24.7085C21.5535 24.8283 22.9025 24.8908 23.1681 24.7241C23.5223 24.5105 23.3348 24.2033 22.9598 24.1564ZM12.616 22.9168C12.3504 22.8178 11.6056 22.573 11.3921 22.896C11.1733 23.2189 11.6056 23.2866 11.8452 23.3751C12.09 23.4637 12.991 23.797 13.1681 23.4168C13.3087 23.1251 12.8139 22.9845 12.616 22.9168Z" fill="#C4C8CC"/>
</svg>
