<svg width="68" height="25" viewBox="0 0 68 25" fill="none" xmlns="http://www.w3.org/2000/svg">
<mask id="mask0_292_113706" style="mask-type:luminance" maskUnits="userSpaceOnUse" x="0" y="5" width="68" height="20">
<path d="M0 5.49414H67.3542V24.4889H0V5.49414Z" fill="white"/>
</mask>
<g mask="url(#mask0_292_113706)">
<path d="M67.3027 24.5042L66.0371 23.223V8.40527L64.6152 23.223L63.5059 12.4886L62.2507 24.5042V16.5719L60.8184 24.5042L59.5527 12.4886L58.6048 24.5042L56.8652 16.4521V24.5042L54.7819 19.1396L53.5423 24.5042L54.7819 9.41569L51.6465 24.5042L50.5371 16.5719V24.5042L47.8496 5.84277V24.5042L46.5684 19.1396L45.9225 24.5042L45.1621 12.4886L42.6309 24.5042L42.0007 17.8532L39.9434 24.5042L37.0996 12.4886V24.5042L35.5163 19.1396L34.4121 24.5042L32.5111 13.7699V24.5042L31.0892 17.8532L29.5996 24.5042V11.2074L27.2402 24.5042V17.8532L26.3444 24.2438L23.9746 11.2074V24.5042L21.7611 19.1396L20.9694 24.5042C20.9694 24.5042 21.4434 11.2074 20.9694 12.4886C20.4954 13.7699 19.3861 24.5042 19.3861 24.5042L18.3496 16.5719V24.5042L15.9121 15.1709V24.5042L13.3496 15.1709L12.5892 24.5042L10.6934 11.2074L9.90169 24.5042L7.68815 17.8532V24.5042L6.10482 8.40527L4.68294 24.5042L3.09961 19.1396L1.83398 24.5042V15.1709L0.0683594 24.5042H67.3027Z" fill="#40B93C"/>
</g>
<mask id="mask1_292_113706" style="mask-type:luminance" maskUnits="userSpaceOnUse" x="0" y="6" width="68" height="5">
<path d="M0 6.82812H67.3542V10.8281H0V6.82812Z" fill="white"/>
</mask>
<g mask="url(#mask1_292_113706)">
<path d="M67.2246 9.78158H0.0683594V7.69824H67.2246V9.78158Z" fill="#5A3114"/>
</g>
<mask id="mask2_292_113706" style="mask-type:luminance" maskUnits="userSpaceOnUse" x="0" y="14" width="68" height="5">
<path d="M0 14.8281H67.3542V18.8281H0V14.8281Z" fill="white"/>
</mask>
<g mask="url(#mask2_292_113706)">
<path d="M67.2246 17.6351H0.0683594V15.5518H67.2246V17.6351Z" fill="#5A3114"/>
</g>
<mask id="mask3_292_113706" style="mask-type:luminance" maskUnits="userSpaceOnUse" x="0" y="13" width="68" height="12">
<path d="M0 13.4941H67.3542V24.4889H0V13.4941Z" fill="white"/>
</mask>
<g mask="url(#mask3_292_113706)">
<path d="M0.0683594 24.5046L1.33398 23.8379V16.1504L2.76107 23.8379L3.86523 18.2702L5.12044 24.5046V20.39L6.55273 24.5046L7.81836 18.2702L8.76628 24.5046L10.5059 20.3275V24.5046L12.5944 21.7181L13.8288 24.5046L12.5944 16.6764L15.7246 24.5046L16.834 20.39V24.5046L19.5215 14.8223V24.5046L20.8027 21.7181L21.4486 24.5046L22.209 18.2702L24.7402 24.5046L25.3704 21.0566L27.4277 24.5046L30.2715 18.2702V24.5046L31.8548 21.7181L32.9642 24.5046L34.86 18.9368V24.5046L36.2819 21.0566L37.7715 24.5046V17.6035L40.1309 24.5046V21.0566L41.0267 24.3691L43.3965 17.6035V24.5046L45.61 21.7181L46.4017 24.5046C46.4017 24.5046 45.9277 17.6035 46.4017 18.2702C46.8757 18.9368 47.985 24.5046 47.985 24.5046L49.0215 20.39V24.5046L51.4642 19.6608V24.5046L54.0215 19.6608L54.7819 24.5046L56.6829 17.6035L57.4746 24.5046L59.6882 21.0566V24.5046L61.2663 16.1504L62.6882 24.5046L64.2715 21.7181L65.5371 24.5046V19.6608L67.3027 24.5046H0.0683594Z" fill="#80CC28"/>
</g>
<mask id="mask4_292_113706" style="mask-type:luminance" maskUnits="userSpaceOnUse" x="2" y="0" width="9" height="25">
<path d="M2.65234 0H10.6523V24.4896H2.65234V0Z" fill="white"/>
</mask>
<g mask="url(#mask4_292_113706)">
<path d="M9.5944 24.5049H3.74023V2.71842L6.66732 0.00488281L9.5944 2.71842V24.5049Z" fill="#845333"/>
</g>
<mask id="mask5_292_113706" style="mask-type:luminance" maskUnits="userSpaceOnUse" x="13" y="0" width="9" height="25">
<path d="M13.3184 0H21.3184V24.4896H13.3184V0Z" fill="white"/>
</mask>
<g mask="url(#mask5_292_113706)">
<path d="M20.3763 24.5049H14.5273V2.71842L17.4544 0.00488281L20.3763 2.71842V24.5049Z" fill="#845333"/>
</g>
<mask id="mask6_292_113706" style="mask-type:luminance" maskUnits="userSpaceOnUse" x="23" y="0" width="9" height="25">
<path d="M23.9844 0H31.9844V24.4896H23.9844V0Z" fill="white"/>
</mask>
<g mask="url(#mask6_292_113706)">
<path d="M31.1667 24.5049H25.3125V2.71842L28.2396 0.00488281L31.1667 2.71842V24.5049Z" fill="#845333"/>
</g>
<mask id="mask7_292_113706" style="mask-type:luminance" maskUnits="userSpaceOnUse" x="35" y="0" width="8" height="25">
<path d="M35.9844 0H42.651V24.4896H35.9844V0Z" fill="white"/>
</mask>
<g mask="url(#mask7_292_113706)">
<path d="M41.9486 24.5049H36.0996V2.71842L39.0267 0.00488281L41.9486 2.71842V24.5049Z" fill="#845333"/>
</g>
<mask id="mask8_292_113706" style="mask-type:luminance" maskUnits="userSpaceOnUse" x="46" y="0" width="8" height="25">
<path d="M46.6523 0H53.319V24.4896H46.6523V0Z" fill="white"/>
</mask>
<g mask="url(#mask8_292_113706)">
<path d="M52.7409 24.5049H46.8867V2.71842L49.8138 0.00488281L52.7409 2.71842V24.5049Z" fill="#845333"/>
</g>
<mask id="mask9_292_113706" style="mask-type:luminance" maskUnits="userSpaceOnUse" x="57" y="0" width="7" height="25">
<path d="M57.3184 0H63.985V24.4896H57.3184V0Z" fill="white"/>
</mask>
<g mask="url(#mask9_292_113706)">
<path d="M63.526 24.5049H57.6719V2.71842L60.599 0.00488281L63.526 2.71842V24.5049Z" fill="#845333"/>
</g>
<path d="M7.21354 8.5C7.21354 8.80729 6.96875 9.0625 6.66146 9.0625C6.35417 9.0625 6.10938 8.80729 6.10938 8.5C6.10938 8.1875 6.35417 7.9375 6.66146 7.9375C6.96875 7.9375 7.21354 8.1875 7.21354 8.5Z" fill="#5A3114"/>
<path d="M7.21354 16.5934C7.21354 16.9059 6.96875 17.1559 6.66146 17.1559C6.35417 17.1559 6.10938 16.9059 6.10938 16.5934C6.10938 16.2861 6.35417 16.0361 6.66146 16.0361C6.96875 16.0361 7.21354 16.2861 7.21354 16.5934Z" fill="#5A3114"/>
<path d="M18.0065 8.5C18.0065 8.80729 17.7617 9.0625 17.4544 9.0625C17.1471 9.0625 16.9023 8.80729 16.9023 8.5C16.9023 8.1875 17.1471 7.9375 17.4544 7.9375C17.7617 7.9375 18.0065 8.1875 18.0065 8.5Z" fill="#5A3114"/>
<path d="M18.0065 16.5934C18.0065 16.9059 17.7617 17.1559 17.4544 17.1559C17.1471 17.1559 16.9023 16.9059 16.9023 16.5934C16.9023 16.2861 17.1471 16.0361 17.4544 16.0361C17.7617 16.0361 18.0065 16.2861 18.0065 16.5934Z" fill="#5A3114"/>
<path d="M28.7969 8.5C28.7969 8.80729 28.5469 9.0625 28.2448 9.0625C27.9375 9.0625 27.6875 8.80729 27.6875 8.5C27.6875 8.1875 27.9375 7.9375 28.2448 7.9375C28.5469 7.9375 28.7969 8.1875 28.7969 8.5Z" fill="#5A3114"/>
<path d="M28.7969 16.5934C28.7969 16.9059 28.5469 17.1559 28.2448 17.1559C27.9375 17.1559 27.6875 16.9059 27.6875 16.5934C27.6875 16.2861 27.9375 16.0361 28.2448 16.0361C28.5469 16.0361 28.7969 16.2861 28.7969 16.5934Z" fill="#5A3114"/>
<path d="M39.5898 8.5C39.5898 8.80729 39.3398 9.0625 39.0326 9.0625C38.7305 9.0625 38.4805 8.80729 38.4805 8.5C38.4805 8.1875 38.7305 7.9375 39.0326 7.9375C39.3398 7.9375 39.5898 8.1875 39.5898 8.5Z" fill="#5A3114"/>
<path d="M39.5898 16.5934C39.5898 16.9059 39.3398 17.1559 39.0326 17.1559C38.7305 17.1559 38.4805 16.9059 38.4805 16.5934C38.4805 16.2861 38.7305 16.0361 39.0326 16.0361C39.3398 16.0361 39.5898 16.2861 39.5898 16.5934Z" fill="#5A3114"/>
<path d="M50.3809 8.5C50.3809 8.80729 50.1309 9.0625 49.8236 9.0625C49.5163 9.0625 49.2715 8.80729 49.2715 8.5C49.2715 8.1875 49.5163 7.9375 49.8236 7.9375C50.1309 7.9375 50.3809 8.1875 50.3809 8.5Z" fill="#5A3114"/>
<path d="M50.3809 16.5934C50.3809 16.9059 50.1309 17.1559 49.8236 17.1559C49.5163 17.1559 49.2715 16.9059 49.2715 16.5934C49.2715 16.2861 49.5163 16.0361 49.8236 16.0361C50.1309 16.0361 50.3809 16.2861 50.3809 16.5934Z" fill="#5A3114"/>
<path d="M61.1667 8.5C61.1667 8.80729 60.9219 9.0625 60.6146 9.0625C60.3073 9.0625 60.0625 8.80729 60.0625 8.5C60.0625 8.1875 60.3073 7.9375 60.6146 7.9375C60.9219 7.9375 61.1667 8.1875 61.1667 8.5Z" fill="#5A3114"/>
<path d="M61.1667 16.5934C61.1667 16.9059 60.9219 17.1559 60.6146 17.1559C60.3073 17.1559 60.0625 16.9059 60.0625 16.5934C60.0625 16.2861 60.3073 16.0361 60.6146 16.0361C60.9219 16.0361 61.1667 16.2861 61.1667 16.5934Z" fill="#5A3114"/>
<mask id="mask10_292_113706" style="mask-type:luminance" maskUnits="userSpaceOnUse" x="0" y="13" width="68" height="12">
<path d="M0 13.4941H67.3542V24.4889H0V13.4941Z" fill="white"/>
</mask>
<g mask="url(#mask10_292_113706)">
<path d="M67.3027 24.5046L66.0371 23.8379V16.1504L64.6152 23.8379L63.5059 18.2702L62.2507 24.5046V20.39L60.8184 24.5046L59.5527 18.2702L58.6048 24.5046L56.8652 20.3275V24.5046L54.7819 21.7181L53.5423 24.5046L54.7819 16.6764L51.6465 24.5046L50.5371 20.39V24.5046L47.8496 14.8223V24.5046L46.5684 21.7181L45.9225 24.5046L45.1621 18.2702L42.6309 24.5046L42.0007 21.0566L39.9434 24.5046L37.0996 18.2702V24.5046L35.5163 21.7181L34.4121 24.5046L32.5111 18.9368V24.5046L31.0892 21.0566L29.5996 24.5046V17.6035L27.2402 24.5046V21.0566L26.3444 24.3691L23.9746 17.6035V24.5046L21.7611 21.7181L20.9694 24.5046C20.9694 24.5046 21.4434 17.6035 20.9694 18.2702C20.4954 18.9368 19.3861 24.5046 19.3861 24.5046L18.3496 20.39V24.5046L15.9121 19.6608V24.5046L13.3496 19.6608L12.5892 24.5046L10.6934 17.6035L9.90169 24.5046L7.68815 21.0566V24.5046L6.10482 16.1504L4.68294 24.5046L3.09961 21.7181L1.83398 24.5046V19.6608L0.0683594 24.5046H67.3027Z" fill="#CCE310"/>
</g>
</svg>
