<svg width="53" height="27" viewBox="0 0 53 27" fill="none" xmlns="http://www.w3.org/2000/svg">
<g clip-path="url(#clip0_353_38)">
<mask id="mask0_353_38" style="mask-type:luminance" maskUnits="userSpaceOnUse" x="-15" y="1" width="68" height="22">
<path d="M-15 1.33398H52.3542V22.6673H-15V1.33398Z" fill="white"/>
</mask>
<g mask="url(#mask0_353_38)">
<path d="M52.2088 9.94716C52.3547 7.38466 40.3338 6.47841 35.714 5.92633C31.0942 5.37424 32.4328 2.10341 24.188 1.49924C15.938 0.89508 13.2036 3.56174 6.2505 3.56174C-0.7078 3.56174 -4.2078 3.58258 -3.786 5.92633C-3.536 7.31695 -1.5516 7.2857 -1.4526 8.13987C-1.3693 8.85341 -11.6818 9.80654 -14.6818 11.619C-14.9943 11.8065 -14.8172 12.6972 -14.8172 13.0149C-14.812 14.7388 -11.4891 15.4784 -6.46825 16.5878C-1.4526 17.692 -1.4995 20.7597 3.6672 20.2076C8.8338 19.6555 9.7297 17.8951 18.6203 20.4107C27.5161 22.9211 36.6567 20.0045 38.4432 18.5982C40.2349 17.192 38.4432 17.192 38.1463 15.3274C37.8495 13.468 52.0578 12.5149 52.2088 9.94716Z" fill="#77C8FF"/>
</g>
<mask id="mask1_353_38" style="mask-type:luminance" maskUnits="userSpaceOnUse" x="-15" y="0" width="68" height="22">
<path d="M-15 0H52.3542V21.3333H-15V0Z" fill="white"/>
</mask>
<g mask="url(#mask1_353_38)">
<path d="M52.2077 8.89052C52.3535 6.32802 40.3327 5.42177 35.7129 4.86969C31.0931 4.3176 32.4316 1.04677 24.1869 0.442603C15.9369 -0.161564 13.2025 2.5051 6.2494 2.5051C-0.709001 2.5051 -3.3913 3.51031 -3.7871 4.86969C-4.1882 6.22906 -1.5527 6.22906 -1.4538 7.08323C-1.3548 7.93739 -14.8236 10.052 -14.8184 11.9582C-14.8131 13.6822 -11.4902 14.4218 -6.4694 15.5311C-1.4538 16.6353 -1.5006 19.703 3.666 19.1509C8.8327 18.5989 9.7285 16.8384 18.6191 19.3541C27.515 21.8645 36.6556 18.9478 38.4421 17.5416C40.2337 16.1353 38.4421 16.1353 38.1452 14.2759C37.8483 12.4114 52.0566 11.4582 52.2077 8.89052Z" fill="#ABE0FF"/>
</g>
<mask id="mask2_353_38" style="mask-type:luminance" maskUnits="userSpaceOnUse" x="-15" y="4" width="68" height="18">
<path d="M-15 4H52.3542V21.3333H-15V4Z" fill="white"/>
</mask>
<g mask="url(#mask2_353_38)">
<path d="M39.6379 15.8975C39.9023 16.3008 39.9267 16.6344 39.0603 17.3263C37.3811 18.6705 28.7897 21.4584 20.4284 19.0588C12.0719 16.6543 11.23 18.3369 6.37372 18.8647C1.51756 19.3924 1.56154 16.4601 -3.15269 15.4047C-7.87184 14.3443 -10.9951 13.6375 -11 11.9896C-11 11.885 -10.9559 11.7755 -10.8727 11.666C-10.2412 12.9405 -7.32356 13.6026 -3.15269 14.5385C1.56154 15.5939 1.51756 18.5261 6.37372 17.9985C11.23 17.4708 12.0719 15.7881 20.4284 18.1926C28.7897 20.5971 37.3811 17.8093 39.0603 16.4601C39.3392 16.2411 39.5204 16.0569 39.6379 15.8975ZM1.07692 6.81211C1.39509 6.6777 1.57132 6.5632 1.56154 6.46363C1.48814 5.81147 -0.0930812 5.68203 -0.548376 5C-0.582589 5.06969 -0.612008 5.13939 -0.631558 5.21407C-0.905731 6.16493 0.352438 6.41882 1.07692 6.81211ZM38.7812 13.3388C38.8105 13.5229 38.8595 13.6922 38.9134 13.8465C40.289 12.2883 51.8666 11.3424 51.9988 9.05735C52.0085 8.88809 51.9596 8.72878 51.8666 8.56947C50.4763 10.745 38.5168 11.651 38.7812 13.3388Z" fill="#E2F4FF"/>
</g>
<path d="M7.58989 7.63438C8.75139 6.62917 3.12119 4.84271 9.30349 5.07188C12.0014 5.17084 17.3555 2.5823 21.3035 3.56146C25.2566 4.54063 25.4024 6.05105 30.3972 6.20209C35.392 6.35313 37.8503 7.41042 37.1785 8.61355C36.5066 9.82188 27.7149 8.54063 29.2045 11.1031C30.6941 13.6708 36.2826 14.1239 31.4389 15.1031C26.5951 16.0823 19.2201 16.9885 16.9805 14.275C14.7462 11.5562 8.03779 17.6656 6.47529 15.025C4.90759 12.3844 4.16279 13.2906 1.32949 11.8583C-1.49861 10.426 6.54829 8.54063 7.58989 7.63438Z" fill="#BDEAFF"/>
<mask id="mask3_353_38" style="mask-type:luminance" maskUnits="userSpaceOnUse" x="4" y="21" width="16" height="6">
<path d="M4.80273 21.332H19.4694V26.0716H4.80273V21.332Z" fill="white"/>
</mask>
<g mask="url(#mask3_353_38)">
<path d="M19.0104 24.1139C19.0104 24.3743 18.8333 24.6243 18.4896 24.8639C18.1458 25.1087 17.651 25.3171 17.0156 25.5046C16.375 25.6868 15.6406 25.8275 14.8073 25.9264C13.9688 26.0306 13.1042 26.0775 12.1979 26.0775C11.2969 26.0775 10.4271 26.0306 9.59382 25.9264C8.76042 25.8275 8.02603 25.6868 7.38543 25.5046C6.74483 25.3171 6.25523 25.1087 5.91153 24.8639C5.56253 24.6243 5.39062 24.3743 5.39062 24.1139C5.39062 23.8535 5.56253 23.6035 5.91153 23.3639C6.25523 23.1243 6.74483 22.9108 7.38543 22.7233C8.02603 22.541 8.76042 22.4004 9.59382 22.3014C10.4271 22.2025 11.2969 22.1504 12.1979 22.1504C13.1042 22.1504 13.9688 22.2025 14.8073 22.3014C15.6406 22.4004 16.375 22.541 17.0156 22.7233C17.651 22.9108 18.1458 23.1243 18.4896 23.3639C18.8333 23.6035 19.0104 23.8535 19.0104 24.1139Z" fill="#77C8FF"/>
</g>
<path d="M19.0104 23.358C19.0104 23.6185 18.8333 23.8685 18.4896 24.108C18.1458 24.3528 17.651 24.5612 17.0156 24.7487C16.375 24.931 15.6406 25.0716 14.8073 25.1758C13.9688 25.2747 13.1042 25.3216 12.1979 25.3216C11.2969 25.3216 10.4271 25.2747 9.59382 25.1758C8.76042 25.0716 8.02603 24.931 7.38543 24.7487C6.74483 24.5612 6.25523 24.3528 5.91153 24.108C5.56253 23.8685 5.39062 23.6185 5.39062 23.358C5.39062 23.0976 5.56253 22.8476 5.91153 22.608C6.25523 22.3685 6.74483 22.1549 7.38543 21.9726C8.02603 21.7851 8.76042 21.6445 9.59382 21.5455C10.4271 21.4466 11.2969 21.3945 12.1979 21.3945C13.1042 21.3945 13.9688 21.4466 14.8073 21.5455C15.6406 21.6445 16.375 21.7851 17.0156 21.9726C17.651 22.1549 18.1458 22.3685 18.4896 22.608C18.8333 22.8476 19.0104 23.0976 19.0104 23.358Z" fill="#ABE0FF"/>
<path d="M18.5684 22.6602C18.6517 22.7852 18.6934 22.9102 18.6934 23.0404C18.6934 24.1238 15.6465 25.004 11.8861 25.004C8.97459 25.004 6.49538 24.4779 5.52148 23.7384C6.13088 24.6394 8.89129 25.3217 12.1986 25.3217C15.959 25.3217 19.0111 24.4415 19.0111 23.3581C19.0111 23.1134 18.8496 22.879 18.5684 22.6602Z" fill="#E2F4FF"/>
<path d="M45.1361 2.82162C45.1361 3.00912 45.0111 3.1862 44.7611 3.35808C44.5163 3.52996 44.1621 3.6862 43.7038 3.81641C43.2454 3.94662 42.7194 4.05079 42.1204 4.1237C41.5215 4.19141 40.8965 4.22787 40.2507 4.22787C39.5996 4.22787 38.9798 4.19141 38.3809 4.1237C37.7819 4.05079 37.2559 3.94662 36.7975 3.81641C36.3392 3.6862 35.985 3.52996 35.735 3.35808C35.4902 3.1862 35.3652 3.00912 35.3652 2.82162C35.3652 2.63412 35.4902 2.45183 35.735 2.27995C35.985 2.10808 36.3392 1.95704 36.7975 1.82162C37.2559 1.69141 37.7819 1.58725 38.3809 1.51954C38.9798 1.44662 39.5996 1.41016 40.2507 1.41016C40.8965 1.41016 41.5215 1.44662 42.1204 1.51954C42.7194 1.58725 43.2454 1.69141 43.7038 1.82162C44.1621 1.95704 44.5163 2.10808 44.7611 2.27995C45.0111 2.45183 45.1361 2.63412 45.1361 2.82162Z" fill="#77C8FF"/>
<path d="M45.1361 2.2806C45.1361 2.46809 45.0111 2.64518 44.7611 2.81705C44.5163 2.98893 44.1621 3.14518 43.7038 3.27539C43.2454 3.4056 42.7194 3.50976 42.1204 3.58268C41.5215 3.65039 40.8965 3.68685 40.2507 3.68685C39.5996 3.68685 38.9798 3.65039 38.3809 3.58268C37.7819 3.50976 37.2559 3.4056 36.7975 3.27539C36.3392 3.14518 35.985 2.98893 35.735 2.81705C35.4902 2.64518 35.3652 2.46809 35.3652 2.2806C35.3652 2.09309 35.4902 1.9108 35.735 1.73893C35.985 1.56705 36.3392 1.41601 36.7975 1.2806C37.2559 1.15039 37.7819 1.05143 38.3809 0.978516C38.9798 0.9056 39.5996 0.869141 40.2507 0.869141C40.8965 0.869141 41.5215 0.9056 42.1204 0.978516C42.7194 1.05143 43.2454 1.15039 43.7038 1.2806C44.1621 1.41601 44.5163 1.56705 44.7611 1.73893C45.0111 1.9108 45.1361 2.09309 45.1361 2.2806Z" fill="#ABE0FF"/>
<path d="M44.8184 1.78125C44.8757 1.86979 44.9069 1.95833 44.9069 2.05208C44.9069 2.82813 42.7194 3.45833 40.0215 3.45833C37.9382 3.45833 36.1569 3.08333 35.459 2.55208C35.8965 3.19792 37.8757 3.6875 40.2507 3.6875C42.9486 3.6875 45.1361 3.05729 45.1361 2.28125C45.1361 2.10417 45.0215 1.9375 44.8184 1.78125Z" fill="#E2F4FF"/>
</g>
<defs>
<clipPath id="clip0_353_38">
<rect width="68" height="27" fill="white" transform="translate(-15)"/>
</clipPath>
</defs>
</svg>
