<svg width="117" height="139" viewBox="0 0 117 139" fill="none" xmlns="http://www.w3.org/2000/svg">
<mask id="mask0_283_107518" style="mask-type:luminance" maskUnits="userSpaceOnUse" x="0" y="0" width="78" height="133">
<path d="M0 0H77.8021V132.563H0V0Z" fill="white"/>
</mask>
<g mask="url(#mask0_283_107518)">
<path d="M7.5835 7.49996H69.5054V131.365H77.0783V0.010376H0.00537109V131.365H7.5835V7.49996Z" fill="#A67C52"/>
</g>
<path d="M7.58398 7.5H69.5059V131.365H73.4798V3.54688H3.56836V131.365H7.58398V7.5Z" fill="#754C24"/>
<path d="M70.3555 0.854248H0.855469V131.365H6.73047V6.65633H70.3555V131.365H76.2305V0.854248H70.3555Z" fill="#8C6239"/>
<mask id="mask1_283_107518" style="mask-type:luminance" maskUnits="userSpaceOnUse" x="75" y="0" width="3" height="133">
<path d="M75.1367 0H77.8034V132.563H75.1367V0Z" fill="white"/>
</mask>
<g mask="url(#mask1_283_107518)">
<path d="M77.0794 0.010376L76.2305 0.854126V131.365H77.0794V0.010376Z" fill="#808080"/>
</g>
<path d="M69.9063 43.2552C69.4427 43.2552 69.0625 42.8802 69.0625 42.4219V30.0208C69.0625 29.5625 69.4427 29.1875 69.9063 29.1875C70.375 29.1875 70.7552 29.5625 70.7552 30.0208V42.4219C70.7552 42.8802 70.375 43.2552 69.9063 43.2552Z" fill="#FBB03B"/>
<path d="M69.9063 103.031C69.4427 103.031 69.0625 102.656 69.0625 102.198V89.797C69.0625 89.3386 69.4427 88.9636 69.9063 88.9636C70.375 88.9636 70.7552 89.3386 70.7552 89.797V102.198C70.7552 102.656 70.375 103.031 69.9063 103.031Z" fill="#FBB03B"/>
<mask id="mask2_283_107518" style="mask-type:luminance" maskUnits="userSpaceOnUse" x="69" y="0" width="45" height="139">
<path d="M69.8027 0H113.803V138.865H69.8027V0Z" fill="white"/>
</mask>
<g mask="url(#mask2_283_107518)">
<path d="M69.9067 131.365L112.933 138.849V0.010376L69.9067 7.49996V131.365Z" fill="#A67C52"/>
</g>
<path d="M75.2617 72.3385V15.0938L106.423 10.4062V72.5885L75.2617 72.3385Z" fill="#754C24"/>
<path d="M105.912 71.8439V11.2241L75.6934 15.7137V71.6616L105.912 71.8439Z" fill="#8C6239"/>
<path d="M106.423 88.1875V128.453L75.2617 123.766V86.7031L106.423 88.1875Z" fill="#754C24"/>
<path d="M105.912 127.635V88.9063L75.6934 87.4062V123.151L105.912 127.635Z" fill="#8C6239"/>
<path d="M105.959 80.3804C105.959 82.3491 107.068 83.9897 108.443 84.0418C109.829 84.0939 110.954 82.5158 110.954 80.5158C110.954 78.521 109.824 76.8804 108.443 76.8543C107.068 76.8283 105.959 78.4064 105.959 80.3804Z" fill="#FBB03B"/>
<path d="M103.281 81.3699L108.979 81.5418C109.438 81.5574 109.807 81.1251 109.807 80.5834V80.3907C109.807 79.8439 109.438 79.3959 108.979 79.3803L103.281 79.2397C102.844 79.2293 102.484 79.6511 102.484 80.1824V80.3751C102.484 80.9116 102.844 81.3543 103.281 81.3699Z" fill="#FBD53B"/>
<mask id="mask3_283_107518" style="mask-type:luminance" maskUnits="userSpaceOnUse" x="112" y="0" width="5" height="139">
<path d="M112.469 0H116.323V138.865H112.469V0Z" fill="white"/>
</mask>
<g mask="url(#mask3_283_107518)">
<path d="M112.932 0.010376H116.312V138.849H112.932V0.010376Z" fill="#754C24"/>
</g>
<path d="M69.9062 7.50016L77.0781 6.25016V5.8335L69.9062 7.18766V7.50016Z" fill="#2E2E2E"/>
</svg>
