<svg width="82" height="139" viewBox="0 0 82 139" fill="none" xmlns="http://www.w3.org/2000/svg">
<mask id="mask0_283_107517" style="mask-type:luminance" maskUnits="userSpaceOnUse" x="7" y="7" width="68" height="132">
<path d="M7.66602 7.073H74.3327V138.865H7.66602V7.073Z" fill="white"/>
</mask>
<g mask="url(#mask0_283_107517)">
<path d="M7.98877 7.948H73.1919V138.823H7.98877V7.948Z" fill="#A67C52"/>
</g>
<path d="M16.9434 16.823H64.2402V76.4167H16.9434V16.823Z" fill="#754C24"/>
<path d="M17.6621 17.5364H63.5215V75.703H17.6621V17.5364Z" fill="#8C6239"/>
<path d="M16.9434 91.3645H64.2402V129.948H16.9434V91.3645Z" fill="#754C24"/>
<path d="M17.6621 92.073H63.5215V129.234H17.6621V92.073Z" fill="#8C6239"/>
<path d="M17.5931 83.8907C17.5931 84.3438 17.5046 84.7813 17.3327 85.2032C17.1556 85.6199 16.9056 85.9897 16.5827 86.3126C16.2546 86.6355 15.8848 86.8803 15.4577 87.0522C15.0358 87.2292 14.5983 87.3178 14.14 87.3178C13.6816 87.3178 13.2389 87.2292 12.8171 87.0522C12.39 86.8803 12.0202 86.6355 11.6921 86.3126C11.3691 85.9897 11.1191 85.6199 10.9421 85.2032C10.7702 84.7813 10.6816 84.3438 10.6816 83.8907C10.6816 83.4376 10.7702 83.0001 10.9421 82.5782C11.1191 82.1615 11.3691 81.7917 11.6921 81.4688C12.0202 81.1459 12.39 80.9011 12.8171 80.724C13.2389 80.5522 13.6816 80.4636 14.14 80.4636C14.5983 80.4636 15.0358 80.5522 15.4577 80.724C15.8848 80.9011 16.2546 81.1459 16.5827 81.4688C16.9056 81.7917 17.1556 82.1615 17.3327 82.5782C17.5046 83.0001 17.5931 83.4376 17.5931 83.8907Z" fill="#FBB03B"/>
<path d="M21.4635 84.9166H13.2865C12.7135 84.9166 12.25 84.4583 12.25 83.8905C12.25 83.3228 12.7135 82.8645 13.2865 82.8645H21.4635C22.0365 82.8645 22.5 83.3228 22.5 83.8905C22.5 84.4583 22.0365 84.9166 21.4635 84.9166Z" fill="#FBD53B"/>
<mask id="mask1_283_107517" style="mask-type:luminance" maskUnits="userSpaceOnUse" x="0" y="0" width="82" height="139">
<path d="M0 0H81.1563V138.865H0V0Z" fill="white"/>
</mask>
<g mask="url(#mask1_283_107517)">
<path d="M7.98942 7.94788H73.1978V138.823H81.1717V0.041626H0.0102539V138.823H7.98942V7.94788Z" fill="#A67C52"/>
</g>
<mask id="mask2_283_107517" style="mask-type:luminance" maskUnits="userSpaceOnUse" x="3" y="3" width="76" height="136">
<path d="M3.66602 3.073H78.3327V138.865H3.66602V3.073Z" fill="white"/>
</mask>
<g mask="url(#mask2_283_107517)">
<path d="M7.9891 7.94796H73.1974V138.823H77.3797V3.77087H3.76514V138.823H7.9891V7.94796Z" fill="#754C24"/>
</g>
<mask id="mask3_283_107517" style="mask-type:luminance" maskUnits="userSpaceOnUse" x="0" y="0" width="81" height="139">
<path d="M0 0.40625H81V138.865H0V0.40625Z" fill="white"/>
</mask>
<g mask="url(#mask3_283_107517)">
<path d="M74.0885 0.927124H0.90625V138.823H7.09375V7.05733H74.0885V138.823H80.276V0.927124H74.0885Z" fill="#8C6239"/>
</g>
<mask id="mask4_283_107517" style="mask-type:luminance" maskUnits="userSpaceOnUse" x="79" y="0" width="3" height="139">
<path d="M79.666 0H81.1556V138.865H79.666V0Z" fill="white"/>
</mask>
<g mask="url(#mask4_283_107517)">
<path d="M81.1712 0.041626L80.2754 0.927043V138.823H81.1712V0.041626Z" fill="#754C24"/>
</g>
<path d="M73.6198 45.7291C73.1302 45.7291 72.7344 45.3333 72.7344 44.8489V31.7447C72.7344 31.2603 73.1302 30.8645 73.6198 30.8645C74.1094 30.8645 74.5104 31.2603 74.5104 31.7447V44.8489C74.5104 45.3333 74.1094 45.7291 73.6198 45.7291Z" fill="#FBB03B"/>
<path d="M73.6198 108.885C73.1302 108.885 72.7344 108.49 72.7344 108.005V94.9063C72.7344 94.4167 73.1302 94.0261 73.6198 94.0261C74.1094 94.0261 74.5104 94.4167 74.5104 94.9063V108.005C74.5104 108.49 74.1094 108.885 73.6198 108.885Z" fill="#FBB03B"/>
</svg>
